<svg xmlns="http://www.w3.org/2000/svg" width="2999.97" height="2926" viewBox="0 0 2999.97 2926">
  <defs>
    <style>
      .cls-1 {
        fill-rule: evenodd;
      }
    </style>
  </defs>
  <path id="TextStyl_Logo_Black" class="cls-1" d="M2599.7,920.527q-95.7-42.561-216.51-42.6-254.3,0-254.26,203.861,0,88.44,56.64,132.67,56.64,44.2,185.04,66.29l183.77,31.64q213.945,36.525,329.79,155.64,115.77,119.13,115.81,320.93,0,119.13-42.8,220.03-42.84,100.935-128.39,175.07-85.62,74.175-210.21,115.48-124.62,41.3-290.77,41.34-205.44,0-361.03-60.24v493.93C1311.19,2249.94,655.594,3299.2,0,2774.57V151.432c655.594,524.627,1311.19-524.628,1966.78,0V681.558q158.445-98.129,413.9-98.167,203.91,0,354.96,60.36t244.2,164.156L2765.85,1038.59Q2695.35,963.161,2599.7,920.527Zm-922.06-336.81H287.99v309.74H794V2341.43H1171.63V893.457h506.01V583.717ZM1966.78,1911.84q66.39,54.18,140.75,85.82,114.525,48.72,232.87,48.68,135.945,0,206.43-58.91,70.455-58.875,70.49-169.41,0-90.825-54.13-137.49-54.165-46.665-182.51-66.3l-183.78-29.21q-137.025-22.515-230.12-75.61v402.43Z"/>
</svg>
