<svg id="ZacharyFetters_Logo_Light" xmlns="http://www.w3.org/2000/svg" width="2056" height="2326.313" viewBox="0 0 2056 2326.313">
  <defs>
    <style>
      .cls-1 {
        fill: #efe323;
      }

      .cls-2 {
        fill: #e7e6d9;
        fill-rule: evenodd;
      }
    </style>
  </defs>
  <rect id="Underline" class="cls-1" y="2036.313" width="2056" height="290"/>
  <path id="_zf_Signature" data-name="&quot;zf&quot; Signature" class="cls-2" d="M34.983,608.012l915.332,0.21,278.325-.33-0.39-182.227q0-122.4,58.22-218.846,58.2-96.414,172.93-151.288Q1574.1,0.693,1735.51.675q175.7,0,320.13,41.968l-35.89,261.133q-107.1-33.995-227.75-34.017-108.39,0-155.06,39.265-46.7,39.274-46.69,130.5l0.11,168.368h387.58L1938.18,897.13H1590.34L1589.65,1832H1227.27l1.39-934.87-193.53-.341v0.534L430.751,1557.03H1046.99L1007.25,1832H0V1557.64L611.845,893.227,0,892.605Z" transform="translate(0 -0.688)"/>
</svg>
