<svg xmlns="http://www.w3.org/2000/svg" width="1222" height="73" viewBox="0 0 1222 73">
  <defs>
    <style>
      .cls-1 {
        fill: #005dff;
        fill-rule: evenodd;
      }
    </style>
  </defs>
  <path id="zachfett_protonmail.com" data-name="zachfett@protonmail.com" class="cls-1" d="M1221.09,26.689c-0.12,1.025-.28,1.988-0.47,2.887l-5.53,26.7h-11.06l5.34-25.575a9.966,9.966,0,0,0,.29-1.5,14.531,14.531,0,0,0,.09-1.575,3.134,3.134,0,0,0-.7-2.137,2.58,2.58,0,0,0-2.02-.788,5.543,5.543,0,0,0-2.3.488,5.639,5.639,0,0,0-2.11,1.913,10.693,10.693,0,0,0-1.36,2.438,24.62,24.62,0,0,0-.98,3.337l-4.87,23.4h-11.07l5.35-25.575a11.464,11.464,0,0,0,.28-1.5,15.187,15.187,0,0,0,.09-1.65c0-1.9-.91-2.85-2.72-2.85a5.452,5.452,0,0,0-2.11.45,5.729,5.729,0,0,0-2.2,1.95,10.273,10.273,0,0,0-1.55,2.55,11.746,11.746,0,0,0-.7,2.325l-5.06,24.3h-11.06l8.06-38.7h11.06l-1.41,6.75h0.57a15.384,15.384,0,0,1,4.22-5.512,9.873,9.873,0,0,1,6.46-2.137,8.077,8.077,0,0,1,5.77,1.912q2.01,1.913,1.55,5.738h0.47a17.219,17.219,0,0,1,1.96-3.037,13.108,13.108,0,0,1,2.54-2.4,11.963,11.963,0,0,1,3.14-1.613,12.122,12.122,0,0,1,3.98-.6q8.25,0,8.25,7.2A22.414,22.414,0,0,1,1221.09,26.689ZM1153.81,50.8a25.311,25.311,0,0,1-8.63,4.725,35.379,35.379,0,0,1-11.11,1.65q-9.93,0-15.37-4.462t-5.44-12.187a23.709,23.709,0,0,1,2.02-9.975,21.364,21.364,0,0,1,5.62-7.5,25.352,25.352,0,0,1,8.63-4.725,35.379,35.379,0,0,1,11.11-1.65q9.93,0,15.37,4.462t5.44,12.188a23.7,23.7,0,0,1-2.02,9.975A21.343,21.343,0,0,1,1153.81,50.8Zm-8.16-24.262a9.708,9.708,0,0,0-6.04-1.687,11.812,11.812,0,0,0-7.36,2.175,10.1,10.1,0,0,0-3.71,6.225l-1.22,5.85a15,15,0,0,0-.32,1.538,8.985,8.985,0,0,0-.14,1.537,6.056,6.056,0,0,0,2.2,5.138A9.72,9.72,0,0,0,1135.11,49a11.824,11.824,0,0,0,7.36-2.175,10.082,10.082,0,0,0,3.7-6.225l1.22-5.85q0.18-.675.33-1.538a10.112,10.112,0,0,0,.14-1.537A6.064,6.064,0,0,0,1145.65,26.539Zm-52.66.337q-1.77-1.424-5.9-1.425a10.914,10.914,0,0,0-6.8,2.1,9.93,9.93,0,0,0-3.61,6.15l-0.94,4.5a10.043,10.043,0,0,0-.28,1.65q-0.09.976-.09,1.875a6.387,6.387,0,0,0,1.92,4.837q1.92,1.839,6.61,1.837a14.21,14.21,0,0,0,2.81-.262,9.425,9.425,0,0,0,2.86-1.163,25.486,25.486,0,0,0,3.47-2.513,52.334,52.334,0,0,0,4.45-4.312l8.54,4.425a52.491,52.491,0,0,1-4.88,5.4,26.26,26.26,0,0,1-5.34,3.938,25.043,25.043,0,0,1-6.38,2.438,33.728,33.728,0,0,1-7.78.825q-9.93,0-15.09-4.275t-5.16-12.075a24.535,24.535,0,0,1,1.78-9.338,22.5,22.5,0,0,1,5.16-7.687,24.039,24.039,0,0,1,8.39-5.213,32.054,32.054,0,0,1,11.48-1.912c5.57,0,9.81.9,12.75,2.7a13.675,13.675,0,0,1,6,7.125l-11.15,4.2A9.693,9.693,0,0,0,1092.99,26.877ZM1043,55.377q-2.58,1.8-7.74,1.8-4.68,0-6.65-1.462a4.33,4.33,0,0,1-1.97-3.562,22.276,22.276,0,0,1,.56-3.825,6.754,6.754,0,0,1,3.05-4.2c1.72-1.2,4.29-1.8,7.73-1.8q4.695,0,6.66,1.462a4.332,4.332,0,0,1,1.97,3.563,22.276,22.276,0,0,1-.56,3.825A6.788,6.788,0,0,1,1043,55.377ZM1000.59,55a19.308,19.308,0,0,1-9.05,2.175q-5.814,0-8.625-2.437a8.241,8.241,0,0,1-2.813-6.562,15.9,15.9,0,0,1,.188-2.475q0.186-1.2.75-3.525l7.594-32.85h-14.25l1.781-8.55H1004.2L993.227,48.253l1.407,0.374,13.126-10.709,7.5,5.384-5.72,5.25A45.15,45.15,0,0,1,1000.59,55Zm-45.912,0a19.284,19.284,0,0,1-9.047,2.175q-5.814,0-8.718-2.437a8.121,8.121,0,0,1-2.907-6.562,15.9,15.9,0,0,1,.188-2.475q0.186-1.2.75-3.525l3.75-16.05H924.069l1.781-8.55h28.5l-7.219,30.676,1.594,0.374,13.125-10.7,7.5,5.374-5.719,5.25A45.046,45.046,0,0,1,954.678,55Zm3.61-47.475a5.354,5.354,0,0,1-2.532,3.675q-2.062,1.276-6.281,1.275t-5.953-1.312A3.949,3.949,0,0,1,941.788,7.9a7.263,7.263,0,0,1,.093-1.012q0.093-.636.375-1.988a5.347,5.347,0,0,1,2.532-3.675q2.061-1.274,6.281-1.275t5.953,1.313a3.955,3.955,0,0,1,1.734,3.262,7.554,7.554,0,0,1-.093,1.013Q958.569,6.177,958.288,7.527Zm-61.649,48.75,1.875-9.289h-0.469a36.122,36.122,0,0,1-2.953,4.113,18.3,18.3,0,0,1-3.469,3.209,15.487,15.487,0,0,1-4.313,2.113,18.223,18.223,0,0,1-5.484.755,17.872,17.872,0,0,1-6.516-1.05,10.75,10.75,0,0,1-4.359-3.038,12.611,12.611,0,0,1-2.484-4.762,22.21,22.21,0,0,1-.8-6.15,32.328,32.328,0,0,1,1.594-10.462,23.649,23.649,0,0,1,4.5-8.025,20.1,20.1,0,0,1,6.984-5.175,22.017,22.017,0,0,1,9.141-1.837q5.717,0,8.671,2.156a10.559,10.559,0,0,1,3.985,6.015H903.2l1.5-7.271h13.688l-8.063,38.7H896.639Zm3.984-29.41q-1.829-1.638-6.328-1.639-5.062,0-7.781,2.347a11.838,11.838,0,0,0-3.657,6.744L881.92,38.79a9.306,9.306,0,0,0-.281,1.528,16.693,16.693,0,0,0-.094,1.825A8.1,8.1,0,0,0,883,46.763q1.357,1.863,4.922,1.863a10.068,10.068,0,0,0,4.5-.968,13.476,13.476,0,0,0,3.656-2.684,21.471,21.471,0,0,0,2.531-2.944,10.52,10.52,0,0,0,1.875-4.284l1.313-6.186Q902.449,28.505,900.623,26.866Zm-38.671,2.71-5.531,26.7H845.358L850.7,30.7a9.884,9.884,0,0,0,.281-1.5,14.077,14.077,0,0,0,.094-1.575,3.091,3.091,0,0,0-.7-2.137,2.562,2.562,0,0,0-2.016-.788,5.513,5.513,0,0,0-2.3.488,5.622,5.622,0,0,0-2.109,1.913,10.288,10.288,0,0,0-1.359,2.438,24.124,24.124,0,0,0-.985,3.337l-4.875,23.4H825.671L831.014,30.7a9.757,9.757,0,0,0,.282-1.5,14.943,14.943,0,0,0,.093-1.65q0-2.849-2.718-2.85a5.448,5.448,0,0,0-2.11.45,5.741,5.741,0,0,0-2.2,1.95,10.109,10.109,0,0,0-1.547,2.55,11.839,11.839,0,0,0-.7,2.325l-5.062,24.3H805.983l8.063-38.7h11.062l-1.406,6.75h0.562a15.517,15.517,0,0,1,4.219-5.512,9.908,9.908,0,0,1,6.469-2.137,8.06,8.06,0,0,1,5.766,1.912q2.015,1.913,1.546,5.738h0.469a17.431,17.431,0,0,1,1.969-3.037,13.148,13.148,0,0,1,2.531-2.4,11.689,11.689,0,0,1,7.125-2.212q8.249,0,8.25,7.2a23.565,23.565,0,0,1-.187,2.813Q862.232,28.227,861.952,29.577ZM801,35.652l-4.313,20.625H783L787.59,34.3q0.188-1.049.422-2.137a12.088,12.088,0,0,0,.235-2.513,4.875,4.875,0,0,0-.282-1.575,4,4,0,0,0-.937-1.5,4.754,4.754,0,0,0-1.735-1.087,7.54,7.54,0,0,0-2.671-.413,9.244,9.244,0,0,0-4.219.9,12,12,0,0,0-3.375,2.625,37.423,37.423,0,0,0-2.485,3.112,10.876,10.876,0,0,0-1.921,4.388L766.4,56.277H752.715l8.063-38.7h13.687L772.59,26.8h0.469a24.072,24.072,0,0,1,6.328-7.425,15.324,15.324,0,0,1,9.422-2.7,17.848,17.848,0,0,1,6.047.9,11.368,11.368,0,0,1,4.078,2.438,9.489,9.489,0,0,1,2.344,3.563,12.232,12.232,0,0,1,.75,4.275,25.091,25.091,0,0,1-.235,3.375Q801.559,32.953,801,35.652ZM740.3,50.8a25.334,25.334,0,0,1-8.625,4.725,35.437,35.437,0,0,1-11.11,1.65q-9.937,0-15.375-4.462t-5.437-12.187a23.8,23.8,0,0,1,2.015-9.975,21.353,21.353,0,0,1,5.625-7.5,25.346,25.346,0,0,1,8.625-4.725,35.419,35.419,0,0,1,11.11-1.65q9.936,0,15.375,4.462t5.437,12.188a23.808,23.808,0,0,1-2.015,9.975A21.356,21.356,0,0,1,740.3,50.8Zm-8.157-24.262a9.721,9.721,0,0,0-6.046-1.687,11.824,11.824,0,0,0-7.36,2.175,10.071,10.071,0,0,0-3.7,6.225l-1.219,5.85a14.368,14.368,0,0,0-.328,1.538,9.636,9.636,0,0,0-.14,1.537,6.058,6.058,0,0,0,2.2,5.138A9.716,9.716,0,0,0,721.6,49a11.815,11.815,0,0,0,7.359-2.175,10.068,10.068,0,0,0,3.7-6.225l1.219-5.85a14.808,14.808,0,0,0,.328-1.538,9.635,9.635,0,0,0,.141-1.537A6.066,6.066,0,0,0,732.147,26.539Zm-39.008-.413H674.2l-4.5,21.6,1.875,0.525L686.2,39.027l6.75,6.15-5.625,3.9q-3,2.025-5.437,3.563a40.428,40.428,0,0,1-4.641,2.55,22.2,22.2,0,0,1-4.359,1.5,21.282,21.282,0,0,1-4.688.487q-6.187,0-9.047-2.625a9.01,9.01,0,0,1-2.859-6.975,16.624,16.624,0,0,1,.141-2.138q0.139-1.086.515-2.812l3.469-16.5H648.045l1.781-8.55h7.782a8.6,8.6,0,0,0,4.546-.975,4.965,4.965,0,0,0,2.016-3.525l1.875-9.15H678.8l-2.812,13.65H694.92ZM633.852,50.8a25.324,25.324,0,0,1-8.625,4.725,35.426,35.426,0,0,1-11.109,1.65q-9.939,0-15.375-4.462T593.3,40.527a23.785,23.785,0,0,1,2.016-9.975,21.329,21.329,0,0,1,5.625-7.5,25.337,25.337,0,0,1,8.625-4.725,35.417,35.417,0,0,1,11.109-1.65q9.936,0,15.375,4.462t5.438,12.188a23.808,23.808,0,0,1-2.016,9.975A21.332,21.332,0,0,1,633.852,50.8ZM625.7,26.539a9.724,9.724,0,0,0-6.047-1.687,11.819,11.819,0,0,0-7.359,2.175,10.067,10.067,0,0,0-3.7,6.225l-1.219,5.85a14.127,14.127,0,0,0-.328,1.538,9.647,9.647,0,0,0-.141,1.537,6.061,6.061,0,0,0,2.2,5.138A9.72,9.72,0,0,0,615.149,49a11.815,11.815,0,0,0,7.359-2.175,10.073,10.073,0,0,0,3.7-6.225l1.218-5.85a14.3,14.3,0,0,0,.328-1.538,9.635,9.635,0,0,0,.141-1.537A6.065,6.065,0,0,0,625.7,26.539Zm-45.421,1.987a18.641,18.641,0,0,0-6.141.825,10.441,10.441,0,0,0-3.984,2.55,16.078,16.078,0,0,0-2.156,2.775,12.145,12.145,0,0,0-1.688,3.9l-3.656,17.7H548.962l6.282-30.15H544.181l1.781-8.55h24.75l-2.531,11.7h0.563a23.638,23.638,0,0,1,7.593-8.625q4.593-3.074,11.719-3.075h3.188l-2.438,10.95h-8.531Zm-50.24,21.638a20.083,20.083,0,0,1-6.984,5.175,22.017,22.017,0,0,1-9.141,1.837q-5.719,0-8.672-2.156a10.545,10.545,0,0,1-3.984-6.015H500.6L495.91,71.277H482.223l11.25-53.7H507.16l-1.875,9.29h0.469a35.981,35.981,0,0,1,2.953-4.113,18.2,18.2,0,0,1,3.469-3.207,15.5,15.5,0,0,1,4.312-2.114,18.238,18.238,0,0,1,5.485-.755,17.866,17.866,0,0,1,6.515,1.05,10.77,10.77,0,0,1,4.36,3.037,12.658,12.658,0,0,1,2.484,4.762,22.292,22.292,0,0,1,.8,6.15,32.372,32.372,0,0,1-1.594,10.463A23.659,23.659,0,0,1,530.035,50.164ZM520.8,27.09q-1.361-1.863-4.922-1.863a10.062,10.062,0,0,0-4.5.969,13.479,13.479,0,0,0-3.656,2.682,21.678,21.678,0,0,0-2.532,2.944,10.527,10.527,0,0,0-1.875,4.284L502,42.293q-0.657,3.055,1.172,4.695t6.328,1.639q5.063,0,7.781-2.347a11.847,11.847,0,0,0,3.656-6.744l0.938-4.472a9.7,9.7,0,0,0,.281-1.527,16.953,16.953,0,0,0,.094-1.826A8.132,8.132,0,0,0,520.8,27.09ZM483.1,22.152l-5.718,27.3H466.783L468.1,43.3H467.72a18.978,18.978,0,0,1-4.078,5.025,8.876,8.876,0,0,1-5.953,1.95q-5.343,0-7.547-3t-2.2-8.55a29.492,29.492,0,0,1,1.078-8.175,20.715,20.715,0,0,1,3.094-6.525,14.436,14.436,0,0,1,4.875-4.312,13.153,13.153,0,0,1,6.328-1.537,9.326,9.326,0,0,1,5.719,1.613,6.658,6.658,0,0,1,2.625,4.387h0.375l0.562-2.625q0.188-.974.282-1.875c0.061-.6.093-1.125,0.093-1.575q0-4.424-2.765-6.225a13.92,13.92,0,0,0-7.641-1.8,20.247,20.247,0,0,0-6.047.863,12.921,12.921,0,0,0-5.062,3.037,19.676,19.676,0,0,0-4.078,5.925,43.274,43.274,0,0,0-3,9.525l-1.969,9.45a21.558,21.558,0,0,0-.469,3.413q-0.095,1.688-.094,2.962,0,6,3.282,9.188T456.1,57.627h11.438l-1.406,7.125H454.97q-12.564,0-18-5.362t-5.437-15.863a55.691,55.691,0,0,1,.516-7.387q0.513-3.862,1.265-7.313a47.261,47.261,0,0,1,3.469-10.087,28.71,28.71,0,0,1,5.812-8.175,26.02,26.02,0,0,1,8.579-5.512,36.087,36.087,0,0,1,20.859-.9,18.34,18.34,0,0,1,6.375,3.15,12.879,12.879,0,0,1,3.8,4.875A15.163,15.163,0,0,1,483.47,18.4q0,0.826-.093,1.763T483.1,22.152Zm-12.75,3.675a4.65,4.65,0,0,0-3.656-1.275,5.7,5.7,0,0,0-4.594,1.875,12.025,12.025,0,0,0-2.343,5.25l-0.75,3.6a8.291,8.291,0,0,0-.141,1.05q-0.048.6-.094,1.237t-0.047,1.163v0.825q0,3.825,3.375,3.825a5.232,5.232,0,0,0,2.625-.638,9.417,9.417,0,0,0,1.969-1.462,16.678,16.678,0,0,0,1.688-2.325,11.494,11.494,0,0,0,1.406-3.675L471.1,28.9A3.366,3.366,0,0,0,470.345,25.827Zm-44.886.3H406.521l-4.5,21.6,1.875,0.525,14.625-9.225,6.75,6.15-5.625,3.9q-3,2.025-5.437,3.563a40.428,40.428,0,0,1-4.641,2.55,22.2,22.2,0,0,1-4.359,1.5,21.282,21.282,0,0,1-4.688.487q-6.187,0-9.047-2.625a9.01,9.01,0,0,1-2.859-6.975,16.624,16.624,0,0,1,.141-2.138q0.139-1.086.515-2.812l3.469-16.5H380.365l1.781-8.55h7.781a8.607,8.607,0,0,0,4.547-.975,4.965,4.965,0,0,0,2.016-3.525l1.875-9.15h12.75L408.3,17.577H427.24Zm-53.015,0H353.506l-4.5,21.6,1.875,0.525,14.625-9.225,6.75,6.15-5.625,3.9q-3,2.025-5.437,3.563a40.428,40.428,0,0,1-4.641,2.55,22.2,22.2,0,0,1-4.359,1.5,21.282,21.282,0,0,1-4.688.487q-6.187,0-9.046-2.625a9.007,9.007,0,0,1-2.86-6.975,16.624,16.624,0,0,1,.141-2.138q0.141-1.086.515-2.812l3.469-16.5H327.35l1.781-8.55h7.782a8.611,8.611,0,0,0,4.547-.975,4.968,4.968,0,0,0,2.015-3.525l1.875-9.15H358.1l-2.812,13.65h18.937ZM313.982,36.214a36.779,36.779,0,0,1-9.937,3.225,101.1,101.1,0,0,1-16.735,1.612,3.66,3.66,0,0,0-.093.713v0.563a5.67,5.67,0,0,0,2.156,4.8q2.156,1.651,7.125,1.65a20.081,20.081,0,0,0,3.609-.3,11.578,11.578,0,0,0,3.188-1.087,18.224,18.224,0,0,0,3.094-2.025,36.6,36.6,0,0,0,3.421-3.187l8.532,4.425a40.158,40.158,0,0,1-4.078,4.087,25.728,25.728,0,0,1-5.016,3.375,26.949,26.949,0,0,1-6.375,2.288,36.376,36.376,0,0,1-8.156.825q-10.782,0-15.938-4.387t-5.156-12.113a22.976,22.976,0,0,1,2.062-9.825,22.045,22.045,0,0,1,5.766-7.575A26.313,26.313,0,0,1,290.4,18.4a37.421,37.421,0,0,1,11.719-1.725,33.7,33.7,0,0,1,6.891.675,20.977,20.977,0,0,1,5.671,1.987,10.984,10.984,0,0,1,3.844,3.3,7.9,7.9,0,0,1,1.406,4.688,9.951,9.951,0,0,1-1.218,4.65A11.072,11.072,0,0,1,313.982,36.214ZM300.717,24.4a13.481,13.481,0,0,0-7.688,2.138q-3.187,2.137-4.5,7.163l-0.281,1.05a80.459,80.459,0,0,0,10.172-.975,22.245,22.245,0,0,0,5.531-1.575,4.587,4.587,0,0,0,2.3-1.95,4.821,4.821,0,0,0,.469-1.95Q306.717,24.4,300.717,24.4ZM256.786,9.327l-1.687,8.25h17.437l-1.781,8.55H253.224L246.1,60.252q-1.314,6.3-5.25,9.113a16.508,16.508,0,0,1-9.844,2.813,14.715,14.715,0,0,1-4.594-.675,15.437,15.437,0,0,1-3.843-1.875,23.471,23.471,0,0,1-3.469-2.887q-1.687-1.687-3.469-3.788l-3.844-4.425,9.375-5.116,9.657,10.216,1.125-.376,7.687-37.124H224.349l1.781-8.55h15.281l1.219-5.85a12.98,12.98,0,0,1,5.063-7.912q4.029-3.038,11.625-3.038h16.687l-1.781,8.55H256.786ZM211.375,35.652l-4.313,20.625H193.375L197.968,34.3q0.188-1.049.422-2.137a12.02,12.02,0,0,0,.235-2.513,4.875,4.875,0,0,0-.282-1.575,4,4,0,0,0-.937-1.5,4.758,4.758,0,0,0-1.734-1.087A7.55,7.55,0,0,0,193,25.077a9.244,9.244,0,0,0-4.219.9,12,12,0,0,0-3.375,2.625,37.237,37.237,0,0,0-2.484,3.112A10.864,10.864,0,0,0,181,36.1l-4.219,20.175H163.093l11.532-55.5h13.687L182.968,26.8h0.469a24.085,24.085,0,0,1,6.328-7.425,15.327,15.327,0,0,1,9.422-2.7,17.848,17.848,0,0,1,6.047.9,11.368,11.368,0,0,1,4.078,2.438,9.489,9.489,0,0,1,2.344,3.563,12.232,12.232,0,0,1,.75,4.275,25.252,25.252,0,0,1-.234,3.375Q211.936,32.953,211.375,35.652Zm-66.731-8.775q-1.782-1.424-5.906-1.425a10.915,10.915,0,0,0-6.8,2.1,9.92,9.92,0,0,0-3.609,6.15l-0.938,4.5a9.625,9.625,0,0,0-.281,1.65q-0.095.976-.094,1.875a6.381,6.381,0,0,0,1.922,4.837q1.92,1.839,6.61,1.837a14.282,14.282,0,0,0,2.812-.262,9.481,9.481,0,0,0,2.859-1.163,25.483,25.483,0,0,0,3.469-2.513,53.376,53.376,0,0,0,4.453-4.312l8.532,4.425a52.7,52.7,0,0,1-4.875,5.4,26.013,26.013,0,0,1-5.344,3.938,24.965,24.965,0,0,1-6.375,2.438,33.731,33.731,0,0,1-7.781.825q-9.939,0-15.094-4.275t-5.156-12.075a24.574,24.574,0,0,1,1.781-9.338,22.432,22.432,0,0,1,5.156-7.687,24.09,24.09,0,0,1,8.391-5.213,32.077,32.077,0,0,1,11.484-1.912q8.343,0,12.75,2.7a13.7,13.7,0,0,1,6,7.125l-11.156,4.2A9.7,9.7,0,0,0,144.644,26.877Zm-58.536,29.4,1.875-9.289H87.514A36.024,36.024,0,0,1,84.561,51.1a18.266,18.266,0,0,1-3.469,3.209,15.486,15.486,0,0,1-4.312,2.113,18.232,18.232,0,0,1-5.484.755,17.865,17.865,0,0,1-6.516-1.05,10.749,10.749,0,0,1-4.359-3.038,12.616,12.616,0,0,1-2.484-4.762,22.222,22.222,0,0,1-.8-6.15,32.341,32.341,0,0,1,1.594-10.462,23.649,23.649,0,0,1,4.5-8.025,20.1,20.1,0,0,1,6.984-5.175,22.014,22.014,0,0,1,9.141-1.837q5.717,0,8.672,2.156a10.556,10.556,0,0,1,3.984,6.015H92.67l1.5-7.271h13.688L99.8,56.277H86.108Zm3.984-29.41q-1.828-1.638-6.328-1.639-5.062,0-7.781,2.347a11.841,11.841,0,0,0-3.656,6.744L71.389,38.79a9.369,9.369,0,0,0-.281,1.528,16.694,16.694,0,0,0-.094,1.825,8.1,8.1,0,0,0,1.453,4.621q1.358,1.863,4.922,1.863a10.065,10.065,0,0,0,4.5-.968,13.47,13.47,0,0,0,3.656-2.684,21.505,21.505,0,0,0,2.531-2.944,10.532,10.532,0,0,0,1.875-4.284l1.313-6.186Q91.919,28.505,90.092,26.866Zm-69.459,19,18.375,2.756,1.031-.968-2.812-6.552L45.2,38.352,46.6,40.377a15.778,15.778,0,0,1,2.2,3.9,10.316,10.316,0,0,1,.609,3.45,7.94,7.94,0,0,1-.844,3.525,9.332,9.332,0,0,1-2.391,3.038,11.769,11.769,0,0,1-3.844,2.1,15.685,15.685,0,0,1-5.109.787,45.345,45.345,0,0,1-6.984-.562,33.145,33.145,0,0,1-7.453-2.137l-9.469-3.9-0.375.225-1.125,5.475H0.1l1.875-9.071,30-18.923A20.026,20.026,0,0,0,26.915,25.9a19.483,19.483,0,0,0-5.344-.67,7.279,7.279,0,0,0-4.219,1.221q-1.782,1.222-1.781,4.4H5.446V30.177q0-6.525,4.125-10.012t11.156-3.488a32.313,32.313,0,0,1,9.047,1.35,28.027,28.027,0,0,1,9.516,5.25l0.188,0.15,0.563-.375,1.125-5.475H52.884l-1.875,9.072Z"/>
</svg>
