<svg xmlns="http://www.w3.org/2000/svg" width="1104" height="73" viewBox="0 0 1104 73">
  <defs>
    <style>
      .cls-1 {
        fill: #005dff;
        fill-rule: evenodd;
      }
    </style>
  </defs>
  <path id="hi_zachfetters.design" data-name="hi@zachfetters.design" class="cls-1" d="M1102.83,31.236c-0.15,1.151-.42,2.625-0.79,4.425l-4.32,20.625h-13.68l4.59-21.975q0.18-1.049.42-2.138a11.734,11.734,0,0,0,.24-2.512,4.842,4.842,0,0,0-.29-1.575,3.967,3.967,0,0,0-.93-1.5,4.777,4.777,0,0,0-1.74-1.088,7.546,7.546,0,0,0-2.67-.412,9.248,9.248,0,0,0-4.22.9,11.922,11.922,0,0,0-3.37,2.625,37.32,37.32,0,0,0-2.49,3.113,10.833,10.833,0,0,0-1.92,4.387l-4.22,20.175h-13.69l8.07-38.7h13.68l-1.87,9.225h0.47a24.01,24.01,0,0,1,6.33-7.425,15.3,15.3,0,0,1,9.42-2.7,17.8,17.8,0,0,1,6.04.9,11.308,11.308,0,0,1,4.08,2.438,9.516,9.516,0,0,1,2.35,3.563,12.209,12.209,0,0,1,.75,4.275A24.47,24.47,0,0,1,1102.83,31.236Zm-68.57,36.375q-6.615,4.574-17.4,4.575a49.309,49.309,0,0,1-11.43-1.134,18.136,18.136,0,0,1-8.347-4.616l8.157-6.775a12.8,12.8,0,0,0,5.11,3.075,20.3,20.3,0,0,0,6.14.9,22.316,22.316,0,0,0,4.69-.448,9.161,9.161,0,0,0,3.7-1.718,10.087,10.087,0,0,0,2.77-3.508,24.31,24.31,0,0,0,1.87-5.749l1.41-6.646h-0.57a28.612,28.612,0,0,1-2.85,4.085,19.257,19.257,0,0,1-3.43,3.186,14.633,14.633,0,0,1-4.31,2.1,18.849,18.849,0,0,1-5.53.749,17.459,17.459,0,0,1-6.66-1.125,12.026,12.026,0,0,1-4.5-3.15,12.38,12.38,0,0,1-2.57-4.763,21.047,21.047,0,0,1-.8-5.962,29.975,29.975,0,0,1,1.5-9.675,21.608,21.608,0,0,1,4.36-7.612,19.626,19.626,0,0,1,6.94-4.95,22.78,22.78,0,0,1,9.14-1.762q5.895,0,8.81,2.156a10.693,10.693,0,0,1,3.94,6.015h0.75l1.5-7.271h13.68l-7.5,36Q1040.865,63.036,1034.26,67.611Zm-1.6-40.656q-1.74-1.719-6.33-1.719c-3.5,0-6.15.847-7.97,2.542a12.133,12.133,0,0,0-3.56,6.577l-0.65,3.139a9.855,9.855,0,0,0-.29,1.57q-0.09.9-.09,2.092a6.4,6.4,0,0,0,1.45,4.223q1.455,1.758,5.02,1.757a9.8,9.8,0,0,0,4.41-.934,15.282,15.282,0,0,0,3.56-2.5,28.245,28.245,0,0,0,2.58-2.839,10.4,10.4,0,0,0,2.01-4.486l1.03-5.007A4.5,4.5,0,0,0,1032.66,26.955ZM978.6,55.011a19.287,19.287,0,0,1-9.047,2.175q-5.814,0-8.719-2.437a8.12,8.12,0,0,1-2.906-6.562,15.9,15.9,0,0,1,.187-2.475q0.188-1.2.75-3.525l3.75-16.05H947.987l1.782-8.55h28.5L971.05,48.262l1.594,0.374,13.125-10.7,7.5,5.374-5.719,5.25A45.1,45.1,0,0,1,978.6,55.011Zm3.609-47.475a5.35,5.35,0,0,1-2.531,3.675q-2.064,1.276-6.281,1.275t-5.954-1.312a3.949,3.949,0,0,1-1.734-3.263A7.292,7.292,0,0,1,965.8,6.9q0.091-.636.375-1.987a5.349,5.349,0,0,1,2.531-3.675q2.061-1.274,6.281-1.275t5.953,1.312a3.956,3.956,0,0,1,1.735,3.263,7.42,7.42,0,0,1-.094,1.013Q982.487,6.187,982.206,7.536Zm-54.327,18a21.925,21.925,0,0,0-7.313-1.125,13.754,13.754,0,0,0-5.859,1.05,3.364,3.364,0,0,0-2.2,3.15,2.27,2.27,0,0,0,1.265,2.212,12.62,12.62,0,0,0,3.516,1.013l7.219,1.275a24.809,24.809,0,0,1,9.562,3.375,7.912,7.912,0,0,1,3.469,7.05,10.049,10.049,0,0,1-1.688,5.737,13.886,13.886,0,0,1-4.781,4.275,26.075,26.075,0,0,1-7.453,2.7,46.8,46.8,0,0,1-9.8.938,43.576,43.576,0,0,1-12.609-1.612q-5.3-1.612-7.735-4.687l7.688-6.075a12.487,12.487,0,0,0,5.672,3.487,25.692,25.692,0,0,0,7.922,1.163,17.015,17.015,0,0,0,6.7-1.087q2.482-1.086,2.484-3.187a2.393,2.393,0,0,0-1.406-2.288,12.829,12.829,0,0,0-3.563-1.087l-6.937-1.2a37.436,37.436,0,0,1-5.109-1.2,15.226,15.226,0,0,1-4.172-1.988,8.83,8.83,0,0,1-2.766-3.037,8.95,8.95,0,0,1-.984-4.35,10.26,10.26,0,0,1,1.64-5.738,13.131,13.131,0,0,1,4.594-4.2,24.251,24.251,0,0,1,6.984-2.55,41.7,41.7,0,0,1,8.719-.863,42.61,42.61,0,0,1,11.625,1.463q5.156,1.462,7.594,4.012l-7.5,6.15A12.24,12.24,0,0,0,927.879,25.536ZM883.33,36.224a36.8,36.8,0,0,1-9.938,3.225,101.1,101.1,0,0,1-16.734,1.612,3.676,3.676,0,0,0-.094.712v0.563a5.673,5.673,0,0,0,2.156,4.8q2.156,1.651,7.125,1.65a20.092,20.092,0,0,0,3.61-.3,11.583,11.583,0,0,0,3.187-1.087,18.184,18.184,0,0,0,3.094-2.025,36.6,36.6,0,0,0,3.422-3.187l8.531,4.425a40.056,40.056,0,0,1-4.078,4.088,25.7,25.7,0,0,1-5.016,3.375,26.933,26.933,0,0,1-6.375,2.287,36.37,36.37,0,0,1-8.156.825q-10.782,0-15.938-4.388T842.97,40.686a22.961,22.961,0,0,1,2.063-9.825,22.055,22.055,0,0,1,5.765-7.575,26.331,26.331,0,0,1,8.953-4.875,37.425,37.425,0,0,1,11.719-1.725,33.686,33.686,0,0,1,6.891.675,20.984,20.984,0,0,1,5.672,1.988,10.989,10.989,0,0,1,3.843,3.3,7.9,7.9,0,0,1,1.407,4.688,9.941,9.941,0,0,1-1.219,4.65A11.074,11.074,0,0,1,883.33,36.224ZM870.064,24.411a13.483,13.483,0,0,0-7.688,2.137q-3.187,2.137-4.5,7.162l-0.281,1.05a80.439,80.439,0,0,0,10.172-.975,22.231,22.231,0,0,0,5.531-1.575,4.583,4.583,0,0,0,2.3-1.95,4.821,4.821,0,0,0,.469-1.95Q876.064,24.412,870.064,24.411Zm-53.7,31.875,1.875-9.3h-0.469a35.942,35.942,0,0,1-2.953,4.118,18.285,18.285,0,0,1-3.469,3.211,15.506,15.506,0,0,1-4.312,2.116,18.238,18.238,0,0,1-5.485.755,17.863,17.863,0,0,1-6.515-1.05,10.747,10.747,0,0,1-4.36-3.038,12.611,12.611,0,0,1-2.484-4.763,22.21,22.21,0,0,1-.8-6.15,32.328,32.328,0,0,1,1.594-10.462,23.649,23.649,0,0,1,4.5-8.025,20.1,20.1,0,0,1,6.984-5.175,22.017,22.017,0,0,1,9.141-1.838q5.716,0,8.672,2.156a10.557,10.557,0,0,1,3.984,6.015h0.656L827.9,0.786h13.688l-11.532,55.5H816.365Zm3.984-29.411q-1.829-1.638-6.328-1.639-5.062,0-7.781,2.347a11.837,11.837,0,0,0-3.656,6.744L801.646,38.8a9.3,9.3,0,0,0-.281,1.528,16.693,16.693,0,0,0-.094,1.825,8.106,8.106,0,0,0,1.453,4.621q1.357,1.863,4.922,1.863a10.062,10.062,0,0,0,4.5-.968,13.459,13.459,0,0,0,3.656-2.684,21.536,21.536,0,0,0,2.532-2.944,10.547,10.547,0,0,0,1.875-4.284l1.312-6.186Q822.177,28.515,820.349,26.876Zm-51.1,28.511q-2.58,1.8-7.734,1.8-4.689,0-6.657-1.462a4.323,4.323,0,0,1-1.968-3.562,21.832,21.832,0,0,1,.562-3.825,6.756,6.756,0,0,1,3.047-4.2q2.577-1.8,7.734-1.8,4.688,0,6.657,1.462a4.325,4.325,0,0,1,1.968,3.563,21.832,21.832,0,0,1-.562,3.825A6.768,6.768,0,0,1,769.247,55.386Zm-39.4-29.85a21.925,21.925,0,0,0-7.313-1.125,13.754,13.754,0,0,0-5.859,1.05,3.364,3.364,0,0,0-2.2,3.15,2.27,2.27,0,0,0,1.265,2.212,12.62,12.62,0,0,0,3.516,1.013l7.219,1.275a24.809,24.809,0,0,1,9.562,3.375,7.912,7.912,0,0,1,3.469,7.05,10.049,10.049,0,0,1-1.688,5.737,13.886,13.886,0,0,1-4.781,4.275,26.075,26.075,0,0,1-7.453,2.7,46.8,46.8,0,0,1-9.8.938,43.576,43.576,0,0,1-12.609-1.612q-5.3-1.612-7.735-4.687l7.688-6.075A12.487,12.487,0,0,0,708.8,48.3a25.692,25.692,0,0,0,7.922,1.163,17.015,17.015,0,0,0,6.7-1.087q2.482-1.086,2.484-3.187A2.393,2.393,0,0,0,724.5,42.9a12.84,12.84,0,0,0-3.563-1.087L714,40.611a37.4,37.4,0,0,1-5.109-1.2,15.226,15.226,0,0,1-4.172-1.988,8.83,8.83,0,0,1-2.766-3.037,8.95,8.95,0,0,1-.984-4.35,10.26,10.26,0,0,1,1.64-5.738,13.131,13.131,0,0,1,4.594-4.2,24.24,24.24,0,0,1,6.984-2.55,41.7,41.7,0,0,1,8.719-.863,42.61,42.61,0,0,1,11.625,1.463q5.155,1.462,7.594,4.012l-7.5,6.15A12.248,12.248,0,0,0,729.845,25.536Zm-45.7,3a18.638,18.638,0,0,0-6.14.825,10.444,10.444,0,0,0-3.985,2.55,16.178,16.178,0,0,0-2.156,2.775,12.142,12.142,0,0,0-1.687,3.9l-3.657,17.7H652.83l6.281-30.15H648.049l1.781-8.55h24.75l-2.531,11.7h0.562a23.649,23.649,0,0,1,7.594-8.625q4.591-3.074,11.719-3.075h3.187l-2.437,10.95h-8.532Zm-50.811,7.688a36.788,36.788,0,0,1-9.938,3.225,101.091,101.091,0,0,1-16.734,1.612,3.676,3.676,0,0,0-.094.712v0.563a5.673,5.673,0,0,0,2.156,4.8q2.156,1.651,7.125,1.65a20.084,20.084,0,0,0,3.61-.3,11.572,11.572,0,0,0,3.187-1.087,18.145,18.145,0,0,0,3.094-2.025,36.6,36.6,0,0,0,3.422-3.187l8.531,4.425a40.056,40.056,0,0,1-4.078,4.088,25.7,25.7,0,0,1-5.016,3.375,26.933,26.933,0,0,1-6.375,2.287,36.37,36.37,0,0,1-8.156.825q-10.782,0-15.937-4.388t-5.157-12.112a22.961,22.961,0,0,1,2.063-9.825,22.045,22.045,0,0,1,5.766-7.575,26.313,26.313,0,0,1,8.953-4.875,37.414,37.414,0,0,1,11.718-1.725,33.686,33.686,0,0,1,6.891.675,20.984,20.984,0,0,1,5.672,1.988,11,11,0,0,1,3.844,3.3,7.91,7.91,0,0,1,1.406,4.688,9.941,9.941,0,0,1-1.219,4.65A11.068,11.068,0,0,1,633.331,36.224ZM620.065,24.411a13.477,13.477,0,0,0-7.687,2.137q-3.189,2.137-4.5,7.162l-0.282,1.05a80.42,80.42,0,0,0,10.172-.975,22.241,22.241,0,0,0,5.532-1.575,4.584,4.584,0,0,0,2.3-1.95,4.821,4.821,0,0,0,.469-1.95Q626.065,24.412,620.065,24.411ZM585.8,26.136H566.863l-4.5,21.6,1.875,0.525,14.625-9.225,6.75,6.15-5.625,3.9q-3,2.025-5.438,3.563a40.42,40.42,0,0,1-4.64,2.55,22.208,22.208,0,0,1-4.36,1.5,21.273,21.273,0,0,1-4.687.487q-6.187,0-9.047-2.625a9.01,9.01,0,0,1-2.859-6.975,16.8,16.8,0,0,1,.14-2.137q0.141-1.086.516-2.812l3.469-16.5H540.707l1.781-8.55h7.781a8.607,8.607,0,0,0,4.547-.975,4.972,4.972,0,0,0,2.016-3.525l1.875-9.15h12.75l-2.813,13.65h18.938Zm-53.014,0H513.848l-4.5,21.6,1.875,0.525,14.625-9.225,6.75,6.15-5.625,3.9q-3,2.025-5.437,3.563A40.428,40.428,0,0,1,516.9,55.2a22.2,22.2,0,0,1-4.359,1.5,21.282,21.282,0,0,1-4.688.487q-6.187,0-9.047-2.625a9.01,9.01,0,0,1-2.859-6.975,16.8,16.8,0,0,1,.14-2.137q0.141-1.086.516-2.812l3.469-16.5H487.692l1.781-8.55h7.781a8.607,8.607,0,0,0,4.547-.975,4.972,4.972,0,0,0,2.016-3.525l1.875-9.15h12.75l-2.813,13.65h18.938ZM474.324,36.224a36.788,36.788,0,0,1-9.938,3.225,101.08,101.08,0,0,1-16.734,1.612,3.676,3.676,0,0,0-.094.712v0.563a5.671,5.671,0,0,0,2.157,4.8q2.156,1.651,7.125,1.65a20.081,20.081,0,0,0,3.609-.3,11.572,11.572,0,0,0,3.187-1.087,18.145,18.145,0,0,0,3.094-2.025,36.6,36.6,0,0,0,3.422-3.187l8.531,4.425a40.056,40.056,0,0,1-4.078,4.088,25.69,25.69,0,0,1-5.015,3.375,26.949,26.949,0,0,1-6.375,2.287,36.379,36.379,0,0,1-8.157.825q-10.782,0-15.937-4.388t-5.156-12.112a22.976,22.976,0,0,1,2.062-9.825,22.045,22.045,0,0,1,5.766-7.575,26.313,26.313,0,0,1,8.953-4.875,37.416,37.416,0,0,1,11.719-1.725,33.683,33.683,0,0,1,6.89.675,20.984,20.984,0,0,1,5.672,1.988,10.992,10.992,0,0,1,3.844,3.3,7.91,7.91,0,0,1,1.406,4.688,9.941,9.941,0,0,1-1.219,4.65A11.068,11.068,0,0,1,474.324,36.224ZM461.058,24.411a13.477,13.477,0,0,0-7.687,2.137q-3.189,2.137-4.5,7.162l-0.281,1.05a80.42,80.42,0,0,0,10.171-.975,22.241,22.241,0,0,0,5.532-1.575,4.592,4.592,0,0,0,2.3-1.95,4.819,4.819,0,0,0,.468-1.95Q467.058,24.412,461.058,24.411ZM417.128,9.336l-1.688,8.25h17.438l-1.781,8.55H413.565L406.44,60.261q-1.314,6.3-5.25,9.112a16.507,16.507,0,0,1-9.843,2.813,14.71,14.71,0,0,1-4.594-.675,15.444,15.444,0,0,1-3.844-1.875,23.471,23.471,0,0,1-3.469-2.888q-1.687-1.687-3.468-3.788l-3.844-4.425L381.5,53.42l9.656,10.216,1.125-.376,7.688-37.124H384.69l1.782-8.55h15.281l1.219-5.85a12.979,12.979,0,0,1,5.062-7.913q4.031-3.037,11.625-3.037h16.688l-1.782,8.55H417.128ZM371.716,35.661L367.4,56.286H353.716l4.594-21.975q0.188-1.049.422-2.138a12.093,12.093,0,0,0,.234-2.512,4.873,4.873,0,0,0-.281-1.575,4,4,0,0,0-.937-1.5,4.754,4.754,0,0,0-1.735-1.088,7.546,7.546,0,0,0-2.672-.412,9.239,9.239,0,0,0-4.218.9,12,12,0,0,0-3.375,2.625,37.216,37.216,0,0,0-2.485,3.113,10.864,10.864,0,0,0-1.922,4.387l-4.218,20.175H323.435l11.531-55.5h13.688L343.31,26.811h0.469a24.072,24.072,0,0,1,6.328-7.425,15.324,15.324,0,0,1,9.422-2.7,17.852,17.852,0,0,1,6.047.9,11.377,11.377,0,0,1,4.078,2.438A9.489,9.489,0,0,1,372,23.586a12.232,12.232,0,0,1,.75,4.275,25.256,25.256,0,0,1-.235,3.375Q372.278,32.962,371.716,35.661Zm-66.73-8.775q-1.782-1.424-5.906-1.425a10.915,10.915,0,0,0-6.8,2.1,9.926,9.926,0,0,0-3.61,6.15l-0.937,4.5a9.528,9.528,0,0,0-.281,1.65q-0.094.976-.094,1.875a6.381,6.381,0,0,0,1.922,4.838q1.92,1.839,6.609,1.837a14.292,14.292,0,0,0,2.813-.263,9.491,9.491,0,0,0,2.859-1.163,25.545,25.545,0,0,0,3.469-2.512,53.531,53.531,0,0,0,4.453-4.312l8.531,4.425a52.588,52.588,0,0,1-4.875,5.4,25.986,25.986,0,0,1-5.344,3.938,24.951,24.951,0,0,1-6.375,2.438,33.731,33.731,0,0,1-7.781.825q-9.937,0-15.094-4.275t-5.156-12.075a24.574,24.574,0,0,1,1.781-9.337,22.449,22.449,0,0,1,5.157-7.687,24.094,24.094,0,0,1,8.39-5.212,32.082,32.082,0,0,1,11.485-1.913q8.343,0,12.75,2.7a13.707,13.707,0,0,1,6,7.125l-11.157,4.2A9.7,9.7,0,0,0,304.986,26.886Zm-58.537,29.4L248.324,47h-0.469A35.859,35.859,0,0,1,244.9,51.11a18.266,18.266,0,0,1-3.468,3.209,15.487,15.487,0,0,1-4.313,2.113,18.235,18.235,0,0,1-5.484.755,17.865,17.865,0,0,1-6.516-1.05,10.75,10.75,0,0,1-4.359-3.038,12.627,12.627,0,0,1-2.485-4.763,22.248,22.248,0,0,1-.8-6.15,32.355,32.355,0,0,1,1.594-10.462,23.649,23.649,0,0,1,4.5-8.025,20.108,20.108,0,0,1,6.985-5.175,22.009,22.009,0,0,1,9.14-1.838q5.718,0,8.672,2.156a10.553,10.553,0,0,1,3.984,6.015h0.657l1.5-7.271H268.2l-8.062,38.7H246.449Zm3.985-29.411q-1.828-1.638-6.329-1.639-5.062,0-7.781,2.347a11.843,11.843,0,0,0-3.656,6.744L231.73,38.8a9.518,9.518,0,0,0-.281,1.528,16.693,16.693,0,0,0-.094,1.825,8.107,8.107,0,0,0,1.454,4.621q1.357,1.863,4.921,1.863a10.062,10.062,0,0,0,4.5-.968,13.463,13.463,0,0,0,3.657-2.684,21.539,21.539,0,0,0,2.531-2.944,10.534,10.534,0,0,0,1.875-4.284l1.312-6.186Q252.261,28.515,250.434,26.876Zm-69.459,19,18.375,2.756,1.031-.968-2.812-6.552,7.969-2.755,1.406,2.025a15.771,15.771,0,0,1,2.2,3.9,10.31,10.31,0,0,1,.609,3.45,7.945,7.945,0,0,1-.843,3.525,9.344,9.344,0,0,1-2.391,3.037,11.765,11.765,0,0,1-3.844,2.1,15.681,15.681,0,0,1-5.109.788,45.359,45.359,0,0,1-6.985-.562,33.155,33.155,0,0,1-7.453-2.138l-9.468-3.9-0.375.225-1.125,5.475H160.444l1.875-9.071,30-18.923a20.025,20.025,0,0,0-5.063-2.385,19.476,19.476,0,0,0-5.343-.67,7.278,7.278,0,0,0-4.219,1.221q-1.782,1.222-1.781,4.4H165.788V30.186q0-6.525,4.125-10.012t11.156-3.488a32.314,32.314,0,0,1,9.047,1.35,28.026,28.026,0,0,1,9.515,5.25l0.188,0.15,0.562-.375,1.125-5.475h11.719l-1.875,9.071ZM159.329,22.161l-5.719,27.3H143.017l1.312-6.15h-0.375a18.978,18.978,0,0,1-4.078,5.025,8.878,8.878,0,0,1-5.953,1.95q-5.344,0-7.547-3t-2.2-8.55a29.492,29.492,0,0,1,1.078-8.175,20.715,20.715,0,0,1,3.094-6.525,14.436,14.436,0,0,1,4.875-4.312,13.151,13.151,0,0,1,6.328-1.538,9.328,9.328,0,0,1,5.719,1.613,6.658,6.658,0,0,1,2.625,4.387h0.375l0.562-2.625q0.188-.974.281-1.875a15.6,15.6,0,0,0,.094-1.575q0-4.424-2.766-6.225a13.916,13.916,0,0,0-7.64-1.8,20.242,20.242,0,0,0-6.047.863,12.924,12.924,0,0,0-5.063,3.037,19.694,19.694,0,0,0-4.078,5.925,43.327,43.327,0,0,0-3,9.525l-1.968,9.45a21.443,21.443,0,0,0-.469,3.412q-0.095,1.688-.094,2.963,0,6,3.281,9.188t10.969,3.188h11.438l-1.407,7.125H131.2q-12.564,0-18-5.363t-5.437-15.862a55.854,55.854,0,0,1,.515-7.388q0.515-3.862,1.266-7.312a47.206,47.206,0,0,1,3.469-10.088,28.71,28.71,0,0,1,5.812-8.175,26.025,26.025,0,0,1,8.578-5.513,36.09,36.09,0,0,1,20.86-.9,18.339,18.339,0,0,1,6.375,3.15,12.867,12.867,0,0,1,3.8,4.875,15.163,15.163,0,0,1,1.266,6.225q0,0.826-.094,1.762T159.329,22.161Zm-12.75,3.675a4.651,4.651,0,0,0-3.656-1.275,5.7,5.7,0,0,0-4.594,1.875,12.037,12.037,0,0,0-2.344,5.25l-0.75,3.6a8.126,8.126,0,0,0-.14,1.05q-0.048.6-.094,1.238t-0.047,1.162v0.825q0,3.825,3.375,3.825a5.232,5.232,0,0,0,2.625-.638,9.444,9.444,0,0,0,1.969-1.462,16.684,16.684,0,0,0,1.687-2.325,11.494,11.494,0,0,0,1.407-3.675l1.312-6.375A3.366,3.366,0,0,0,146.579,25.836ZM87.724,55.011a19.286,19.286,0,0,1-9.047,2.175q-5.814,0-8.719-2.437a8.12,8.12,0,0,1-2.906-6.562,15.9,15.9,0,0,1,.188-2.475q0.187-1.2.75-3.525l3.75-16.05H57.114l1.781-8.55H87.4L80.177,48.262l1.594,0.374L94.9,37.937l7.5,5.374-5.719,5.25A45.081,45.081,0,0,1,87.724,55.011ZM91.333,7.536A5.352,5.352,0,0,1,88.8,11.211q-2.063,1.276-6.281,1.275t-5.953-1.312a3.949,3.949,0,0,1-1.734-3.263A7.286,7.286,0,0,1,74.927,6.9q0.092-.636.375-1.987a5.347,5.347,0,0,1,2.531-3.675q2.061-1.274,6.281-1.275t5.953,1.312A3.956,3.956,0,0,1,91.8,4.536a7.5,7.5,0,0,1-.094,1.013Q91.614,6.187,91.333,7.536ZM48.5,35.661L44.187,56.286H30.5l4.594-21.975q0.187-1.049.422-2.138a12.07,12.07,0,0,0,.234-2.512,4.887,4.887,0,0,0-.281-1.575,4,4,0,0,0-.937-1.5A4.753,4.753,0,0,0,32.8,25.5a7.547,7.547,0,0,0-2.672-.412,9.245,9.245,0,0,0-4.219.9,12,12,0,0,0-3.375,2.625,37.4,37.4,0,0,0-2.484,3.113,10.867,10.867,0,0,0-1.922,4.387L13.906,56.286H0.218L11.75,0.786H25.437L20.093,26.811h0.469a24.076,24.076,0,0,1,6.328-7.425,15.325,15.325,0,0,1,9.422-2.7,17.849,17.849,0,0,1,6.047.9,11.371,11.371,0,0,1,4.078,2.438,9.487,9.487,0,0,1,2.344,3.563,12.218,12.218,0,0,1,.75,4.275,25.22,25.22,0,0,1-.234,3.375Q49.061,32.962,48.5,35.661Z"/>
</svg>
