<svg xmlns="http://www.w3.org/2000/svg" width="1104" height="73"><path data-name="hi@zachfetters.design" d="M1102.83 31.236c-.15 1.151-.42 2.625-.79 4.425l-4.32 20.625h-13.68l4.59-21.975q.18-1.049.42-2.138a11.734 11.734 0 00.24-2.512 4.842 4.842 0 00-.29-1.575 3.967 3.967 0 00-.93-1.5 4.777 4.777 0 00-1.74-1.088 7.546 7.546 0 00-2.67-.412 9.248 9.248 0 00-4.22.9 11.922 11.922 0 00-3.37 2.625 37.32 37.32 0 00-2.49 3.113 10.833 10.833 0 00-1.92 4.387l-4.22 20.175h-13.69l8.07-38.7h13.68l-1.87 9.225h.47a24.01 24.01 0 016.33-7.425 15.3 15.3 0 019.42-2.7 17.8 17.8 0 016.04.9 11.308 11.308 0 014.08 2.438 9.516 9.516 0 012.35 3.563 12.209 12.209 0 01.75 4.275 24.47 24.47 0 01-.24 3.374zm-68.57 36.375q-6.615 4.574-17.4 4.575a49.309 49.309 0 01-11.43-1.134 18.136 18.136 0 01-8.347-4.616l8.157-6.775a12.8 12.8 0 005.11 3.075 20.3 20.3 0 006.14.9 22.316 22.316 0 004.69-.448 9.161 9.161 0 003.7-1.718 10.087 10.087 0 002.77-3.508 24.31 24.31 0 001.87-5.749l1.41-6.646h-.57a28.612 28.612 0 01-2.85 4.085 19.257 19.257 0 01-3.43 3.186 14.633 14.633 0 01-4.31 2.1 18.849 18.849 0 01-5.53.749 17.459 17.459 0 01-6.66-1.125 12.026 12.026 0 01-4.5-3.15 12.38 12.38 0 01-2.57-4.763 21.047 21.047 0 01-.8-5.962 29.975 29.975 0 011.5-9.675 21.608 21.608 0 014.36-7.612 19.626 19.626 0 016.94-4.95 22.78 22.78 0 019.14-1.762q5.895 0 8.81 2.156a10.693 10.693 0 013.94 6.015h.75l1.5-7.271h13.68l-7.5 36q-1.965 9.448-8.57 14.023zm-1.6-40.656q-1.74-1.719-6.33-1.719c-3.5 0-6.15.847-7.97 2.542a12.133 12.133 0 00-3.56 6.577l-.65 3.139a9.855 9.855 0 00-.29 1.57q-.09.9-.09 2.092a6.4 6.4 0 001.45 4.223q1.455 1.758 5.02 1.757a9.8 9.8 0 004.41-.934 15.282 15.282 0 003.56-2.5 28.245 28.245 0 002.58-2.839 10.4 10.4 0 002.01-4.486l1.03-5.007a4.5 4.5 0 00-1.17-4.415zM978.6 55.011a19.287 19.287 0 01-9.047 2.175q-5.814 0-8.719-2.437a8.12 8.12 0 01-2.906-6.562 15.9 15.9 0 01.187-2.475q.188-1.2.75-3.525l3.75-16.05h-14.628l1.782-8.55h28.5l-7.219 30.675 1.594.374 13.125-10.7 7.5 5.374-5.719 5.25a45.1 45.1 0 01-8.95 6.451zm3.609-47.475a5.35 5.35 0 01-2.531 3.675q-2.064 1.276-6.281 1.275t-5.954-1.312a3.949 3.949 0 01-1.734-3.263A7.292 7.292 0 01965.8 6.9q.091-.636.375-1.987a5.349 5.349 0 012.531-3.675q2.061-1.274 6.281-1.275t5.953 1.312a3.956 3.956 0 011.735 3.263 7.42 7.42 0 01-.094 1.013q-.094.636-.375 1.985zm-54.327 18a21.925 21.925 0 00-7.313-1.125 13.754 13.754 0 00-5.859 1.05 3.364 3.364 0 00-2.2 3.15 2.27 2.27 0 001.265 2.212 12.62 12.62 0 003.516 1.013l7.219 1.275a24.809 24.809 0 019.562 3.375 7.912 7.912 0 013.469 7.05 10.049 10.049 0 01-1.688 5.737 13.886 13.886 0 01-4.781 4.275 26.075 26.075 0 01-7.453 2.7 46.8 46.8 0 01-9.8.938 43.576 43.576 0 01-12.609-1.612q-5.3-1.612-7.735-4.687l7.688-6.075a12.487 12.487 0 005.672 3.487 25.692 25.692 0 007.922 1.163 17.015 17.015 0 006.7-1.087q2.482-1.086 2.484-3.187a2.393 2.393 0 00-1.406-2.288 12.829 12.829 0 00-3.563-1.087l-6.937-1.2a37.436 37.436 0 01-5.109-1.2 15.226 15.226 0 01-4.172-1.988 8.83 8.83 0 01-2.766-3.037 8.95 8.95 0 01-.984-4.35 10.26 10.26 0 011.64-5.738 13.131 13.131 0 014.594-4.2 24.251 24.251 0 016.984-2.55 41.7 41.7 0 018.719-.863 42.61 42.61 0 0111.625 1.463q5.156 1.462 7.594 4.012l-7.5 6.15a12.24 12.24 0 00-4.781-2.776zM883.33 36.224a36.8 36.8 0 01-9.938 3.225 101.1 101.1 0 01-16.734 1.612 3.676 3.676 0 00-.094.712v.563a5.673 5.673 0 002.156 4.8q2.156 1.651 7.125 1.65a20.092 20.092 0 003.61-.3 11.583 11.583 0 003.187-1.087 18.184 18.184 0 003.094-2.025 36.6 36.6 0 003.422-3.187l8.531 4.425a40.056 40.056 0 01-4.078 4.088 25.7 25.7 0 01-5.016 3.375 26.933 26.933 0 01-6.375 2.287 36.37 36.37 0 01-8.156.825q-10.782 0-15.938-4.388t-5.156-12.113a22.961 22.961 0 012.063-9.825 22.055 22.055 0 015.765-7.575 26.331 26.331 0 018.953-4.875 37.425 37.425 0 0111.719-1.725 33.686 33.686 0 016.891.675 20.984 20.984 0 015.672 1.988 10.989 10.989 0 013.843 3.3 7.9 7.9 0 011.407 4.688 9.941 9.941 0 01-1.219 4.65 11.074 11.074 0 01-4.734 4.237zm-13.266-11.813a13.483 13.483 0 00-7.688 2.137q-3.187 2.137-4.5 7.162l-.281 1.05a80.439 80.439 0 0010.172-.975 22.231 22.231 0 005.531-1.575 4.583 4.583 0 002.3-1.95 4.821 4.821 0 00.469-1.95q-.003-3.898-6.003-3.899zm-53.7 31.875l1.875-9.3h-.469a35.942 35.942 0 01-2.953 4.118 18.285 18.285 0 01-3.469 3.211 15.506 15.506 0 01-4.312 2.116 18.238 18.238 0 01-5.485.755 17.863 17.863 0 01-6.515-1.05 10.747 10.747 0 01-4.36-3.038 12.611 12.611 0 01-2.484-4.763 22.21 22.21 0 01-.8-6.15 32.328 32.328 0 011.594-10.462 23.649 23.649 0 014.5-8.025 20.1 20.1 0 016.984-5.175 22.017 22.017 0 019.141-1.838q5.716 0 8.672 2.156a10.557 10.557 0 013.984 6.015h.656L827.9.786h13.688l-11.532 55.5h-13.691zm3.984-29.411q-1.829-1.638-6.328-1.639-5.062 0-7.781 2.347a11.837 11.837 0 00-3.656 6.744l-.937 4.473a9.3 9.3 0 00-.281 1.528 16.693 16.693 0 00-.094 1.825 8.106 8.106 0 001.453 4.621q1.357 1.863 4.922 1.863a10.062 10.062 0 004.5-.968 13.459 13.459 0 003.656-2.684 21.536 21.536 0 002.532-2.944 10.547 10.547 0 001.875-4.284l1.312-6.186q.656-3.056-1.172-4.695zm-51.1 28.511q-2.58 1.8-7.734 1.8-4.689 0-6.657-1.462a4.323 4.323 0 01-1.968-3.562 21.832 21.832 0 01.562-3.825 6.756 6.756 0 013.047-4.2q2.577-1.8 7.734-1.8 4.688 0 6.657 1.462a4.325 4.325 0 011.968 3.563 21.832 21.832 0 01-.562 3.825 6.768 6.768 0 01-3.048 4.199zm-39.4-29.85a21.925 21.925 0 00-7.313-1.125 13.754 13.754 0 00-5.859 1.05 3.364 3.364 0 00-2.2 3.15 2.27 2.27 0 001.265 2.212 12.62 12.62 0 003.516 1.013l7.219 1.275a24.809 24.809 0 019.562 3.375 7.912 7.912 0 013.469 7.05 10.049 10.049 0 01-1.688 5.737 13.886 13.886 0 01-4.781 4.275 26.075 26.075 0 01-7.453 2.7 46.8 46.8 0 01-9.8.938 43.576 43.576 0 01-12.609-1.612q-5.3-1.612-7.735-4.687l7.688-6.075A12.487 12.487 0 00708.8 48.3a25.692 25.692 0 007.922 1.163 17.015 17.015 0 006.7-1.087q2.482-1.086 2.484-3.187A2.393 2.393 0 00724.5 42.9a12.84 12.84 0 00-3.563-1.087L714 40.611a37.4 37.4 0 01-5.109-1.2 15.226 15.226 0 01-4.172-1.988 8.83 8.83 0 01-2.766-3.037 8.95 8.95 0 01-.984-4.35 10.26 10.26 0 011.64-5.738 13.131 13.131 0 014.594-4.2 24.24 24.24 0 016.984-2.55 41.7 41.7 0 018.719-.863 42.61 42.61 0 0111.625 1.463q5.155 1.462 7.594 4.012l-7.5 6.15a12.248 12.248 0 00-4.78-2.774zm-45.7 3a18.638 18.638 0 00-6.14.825 10.444 10.444 0 00-3.985 2.55 16.178 16.178 0 00-2.156 2.775 12.142 12.142 0 00-1.687 3.9l-3.657 17.7H652.83l6.281-30.15h-11.062l1.781-8.55h24.75l-2.531 11.7h.562a23.649 23.649 0 017.594-8.625q4.591-3.074 11.719-3.075h3.187l-2.437 10.95h-8.532zm-50.811 7.688a36.788 36.788 0 01-9.938 3.225 101.091 101.091 0 01-16.734 1.612 3.676 3.676 0 00-.094.712v.563a5.673 5.673 0 002.156 4.8q2.156 1.651 7.125 1.65a20.084 20.084 0 003.61-.3 11.572 11.572 0 003.187-1.087 18.145 18.145 0 003.094-2.025 36.6 36.6 0 003.422-3.187l8.531 4.425a40.056 40.056 0 01-4.078 4.088 25.7 25.7 0 01-5.016 3.375 26.933 26.933 0 01-6.375 2.287 36.37 36.37 0 01-8.156.825q-10.782 0-15.937-4.388t-5.157-12.112a22.961 22.961 0 012.063-9.825 22.045 22.045 0 015.766-7.575 26.313 26.313 0 018.953-4.875 37.414 37.414 0 0111.718-1.725 33.686 33.686 0 016.891.675 20.984 20.984 0 015.672 1.988 11 11 0 013.844 3.3 7.91 7.91 0 011.406 4.688 9.941 9.941 0 01-1.219 4.65 11.068 11.068 0 01-4.74 4.236zm-13.272-11.813a13.477 13.477 0 00-7.687 2.137q-3.189 2.137-4.5 7.162l-.282 1.05a80.42 80.42 0 0010.172-.975 22.241 22.241 0 005.532-1.575 4.584 4.584 0 002.3-1.95 4.821 4.821 0 00.469-1.95q-.004-3.898-6.004-3.899zM585.8 26.136h-18.937l-4.5 21.6 1.875.525 14.625-9.225 6.75 6.15-5.625 3.9q-3 2.025-5.438 3.563a40.42 40.42 0 01-4.64 2.55 22.208 22.208 0 01-4.36 1.5 21.273 21.273 0 01-4.687.487q-6.187 0-9.047-2.625a9.01 9.01 0 01-2.859-6.975 16.8 16.8 0 01.14-2.137q.141-1.086.516-2.812l3.469-16.5h-12.375l1.781-8.55h7.781a8.607 8.607 0 004.547-.975 4.972 4.972 0 002.016-3.525l1.875-9.15h12.75l-2.813 13.65h18.938zm-53.014 0h-18.938l-4.5 21.6 1.875.525 14.625-9.225 6.75 6.15-5.625 3.9q-3 2.025-5.437 3.563A40.428 40.428 0 01516.9 55.2a22.2 22.2 0 01-4.359 1.5 21.282 21.282 0 01-4.688.487q-6.187 0-9.047-2.625a9.01 9.01 0 01-2.859-6.975 16.8 16.8 0 01.14-2.137q.141-1.086.516-2.812l3.469-16.5h-12.38l1.781-8.55h7.781a8.607 8.607 0 004.547-.975 4.972 4.972 0 002.016-3.525l1.875-9.15h12.75l-2.813 13.65h18.938zm-58.462 10.088a36.788 36.788 0 01-9.938 3.225 101.08 101.08 0 01-16.734 1.612 3.676 3.676 0 00-.094.712v.563a5.671 5.671 0 002.157 4.8q2.156 1.651 7.125 1.65a20.081 20.081 0 003.609-.3 11.572 11.572 0 003.187-1.087 18.145 18.145 0 003.094-2.025 36.6 36.6 0 003.422-3.187l8.531 4.425a40.056 40.056 0 01-4.078 4.088 25.69 25.69 0 01-5.015 3.375 26.949 26.949 0 01-6.375 2.287 36.379 36.379 0 01-8.157.825q-10.782 0-15.937-4.388t-5.156-12.112a22.976 22.976 0 012.062-9.825 22.045 22.045 0 015.766-7.575 26.313 26.313 0 018.953-4.875 37.416 37.416 0 0111.719-1.725 33.683 33.683 0 016.89.675 20.984 20.984 0 015.672 1.988 10.992 10.992 0 013.844 3.3 7.91 7.91 0 011.406 4.688 9.941 9.941 0 01-1.219 4.65 11.068 11.068 0 01-4.734 4.236zm-13.266-11.813a13.477 13.477 0 00-7.687 2.137q-3.189 2.137-4.5 7.162l-.281 1.05a80.42 80.42 0 0010.171-.975 22.241 22.241 0 005.532-1.575 4.592 4.592 0 002.3-1.95 4.819 4.819 0 00.468-1.95q-.003-3.898-6.003-3.899zm-43.93-15.075l-1.688 8.25h17.438l-1.781 8.55h-17.532l-7.125 34.125q-1.314 6.3-5.25 9.112a16.507 16.507 0 01-9.843 2.813 14.71 14.71 0 01-4.594-.675 15.444 15.444 0 01-3.844-1.875 23.471 23.471 0 01-3.469-2.888q-1.687-1.687-3.468-3.788l-3.844-4.425 9.372-5.115 9.656 10.216 1.125-.376 7.688-37.124H384.69l1.782-8.55h15.281l1.219-5.85a12.979 12.979 0 015.062-7.913Q412.065.786 419.659.786h16.688l-1.782 8.55h-17.437zm-45.412 26.325L367.4 56.286h-13.684l4.594-21.975q.188-1.049.422-2.138a12.093 12.093 0 00.234-2.512 4.873 4.873 0 00-.281-1.575 4 4 0 00-.937-1.5 4.754 4.754 0 00-1.735-1.088 7.546 7.546 0 00-2.672-.412 9.239 9.239 0 00-4.218.9 12 12 0 00-3.375 2.625 37.216 37.216 0 00-2.485 3.113 10.864 10.864 0 00-1.922 4.387l-4.218 20.175h-13.688l11.531-55.5h13.688l-5.344 26.025h.469a24.072 24.072 0 016.328-7.425 15.324 15.324 0 019.422-2.7 17.852 17.852 0 016.047.9 11.377 11.377 0 014.078 2.438A9.489 9.489 0 01372 23.586a12.232 12.232 0 01.75 4.275 25.256 25.256 0 01-.235 3.375q-.237 1.726-.799 4.425zm-66.73-8.775q-1.782-1.424-5.906-1.425a10.915 10.915 0 00-6.8 2.1 9.926 9.926 0 00-3.61 6.15l-.937 4.5a9.528 9.528 0 00-.281 1.65q-.094.976-.094 1.875a6.381 6.381 0 001.922 4.838q1.92 1.839 6.609 1.837a14.292 14.292 0 002.813-.263 9.491 9.491 0 002.859-1.163 25.545 25.545 0 003.469-2.512 53.531 53.531 0 004.453-4.312l8.531 4.425a52.588 52.588 0 01-4.875 5.4 25.986 25.986 0 01-5.344 3.938 24.951 24.951 0 01-6.375 2.438 33.731 33.731 0 01-7.781.825q-9.937 0-15.094-4.275t-5.156-12.075a24.574 24.574 0 011.781-9.337 22.449 22.449 0 015.157-7.687 24.094 24.094 0 018.39-5.212 32.082 32.082 0 0111.485-1.913q8.343 0 12.75 2.7a13.707 13.707 0 016 7.125l-11.157 4.2a9.7 9.7 0 00-2.809-3.827zm-58.537 29.4L248.324 47h-.469a35.859 35.859 0 01-2.955 4.11 18.266 18.266 0 01-3.468 3.209 15.487 15.487 0 01-4.313 2.113 18.235 18.235 0 01-5.484.755 17.865 17.865 0 01-6.516-1.05 10.75 10.75 0 01-4.359-3.038 12.627 12.627 0 01-2.485-4.763 22.248 22.248 0 01-.8-6.15 32.355 32.355 0 011.594-10.462 23.649 23.649 0 014.5-8.025 20.108 20.108 0 016.985-5.175 22.009 22.009 0 019.14-1.838q5.718 0 8.672 2.156a10.553 10.553 0 013.984 6.015h.657l1.5-7.271H268.2l-8.062 38.7h-13.689zm3.985-29.411q-1.828-1.638-6.329-1.639-5.062 0-7.781 2.347a11.843 11.843 0 00-3.656 6.744l-.938 4.473a9.518 9.518 0 00-.281 1.528 16.693 16.693 0 00-.094 1.825 8.107 8.107 0 001.454 4.621q1.357 1.863 4.921 1.863a10.062 10.062 0 004.5-.968 13.463 13.463 0 003.657-2.684 21.539 21.539 0 002.531-2.944 10.534 10.534 0 001.875-4.284l1.312-6.186q.656-3.056-1.171-4.695zm-69.459 19l18.375 2.756 1.031-.968-2.812-6.552 7.969-2.755 1.406 2.025a15.771 15.771 0 012.2 3.9 10.31 10.31 0 01.609 3.45 7.945 7.945 0 01-.843 3.525 9.344 9.344 0 01-2.391 3.037 11.765 11.765 0 01-3.844 2.1 15.681 15.681 0 01-5.109.788 45.359 45.359 0 01-6.985-.562 33.155 33.155 0 01-7.453-2.138l-9.468-3.9-.375.225-1.125 5.475h-11.716l1.875-9.071 30-18.923a20.025 20.025 0 00-5.063-2.385 19.476 19.476 0 00-5.343-.67 7.278 7.278 0 00-4.219 1.221q-1.782 1.222-1.781 4.4h-10.125v-.667q0-6.525 4.125-10.012t11.156-3.488a32.314 32.314 0 019.047 1.35 28.026 28.026 0 019.515 5.25l.188.15.562-.375 1.125-5.475h11.719l-1.875 9.071zm-21.646-23.714l-5.719 27.3h-10.593l1.312-6.15h-.375a18.978 18.978 0 01-4.078 5.025 8.878 8.878 0 01-5.953 1.95q-5.344 0-7.547-3t-2.2-8.55a29.492 29.492 0 011.078-8.175 20.715 20.715 0 013.094-6.525 14.436 14.436 0 014.875-4.312 13.151 13.151 0 016.328-1.538 9.328 9.328 0 015.719 1.613 6.658 6.658 0 012.625 4.387h.375l.562-2.625q.188-.974.281-1.875a15.6 15.6 0 00.094-1.575q0-4.424-2.766-6.225a13.916 13.916 0 00-7.64-1.8 20.242 20.242 0 00-6.047.863 12.924 12.924 0 00-5.063 3.037 19.694 19.694 0 00-4.078 5.925 43.327 43.327 0 00-3 9.525l-1.968 9.45a21.443 21.443 0 00-.469 3.412q-.095 1.688-.094 2.963 0 6 3.281 9.188t10.969 3.188h11.438l-1.407 7.125H131.2q-12.564 0-18-5.363t-5.437-15.862a55.854 55.854 0 01.515-7.388q.515-3.862 1.266-7.312a47.206 47.206 0 013.469-10.088 28.71 28.71 0 015.812-8.175 26.025 26.025 0 018.578-5.513 36.09 36.09 0 0120.86-.9 18.339 18.339 0 016.375 3.15 12.867 12.867 0 013.8 4.875 15.163 15.163 0 011.266 6.225q0 .826-.094 1.762t-.281 1.988zm-12.75 3.675a4.651 4.651 0 00-3.656-1.275 5.7 5.7 0 00-4.594 1.875 12.037 12.037 0 00-2.344 5.25l-.75 3.6a8.126 8.126 0 00-.14 1.05q-.048.6-.094 1.238t-.047 1.162v.825q0 3.825 3.375 3.825a5.232 5.232 0 002.625-.638 9.444 9.444 0 001.969-1.462 16.684 16.684 0 001.687-2.325 11.494 11.494 0 001.407-3.675l1.312-6.375a3.366 3.366 0 00-.75-3.075zM87.724 55.011a19.286 19.286 0 01-9.047 2.175q-5.814 0-8.719-2.437a8.12 8.12 0 01-2.906-6.562 15.9 15.9 0 01.188-2.475q.187-1.2.75-3.525l3.75-16.05H57.114l1.781-8.55H87.4l-7.223 30.675 1.594.374L94.9 37.937l7.5 5.374-5.719 5.25a45.081 45.081 0 01-8.957 6.45zm3.609-47.475a5.352 5.352 0 01-2.533 3.675q-2.063 1.276-6.281 1.275t-5.953-1.312a3.949 3.949 0 01-1.734-3.263 7.286 7.286 0 01.095-1.011q.092-.636.375-1.987a5.347 5.347 0 012.531-3.675q2.061-1.274 6.281-1.275t5.953 1.312A3.956 3.956 0 0191.8 4.536a7.5 7.5 0 01-.094 1.013q-.092.638-.373 1.987zM48.5 35.661l-4.313 20.625H30.5l4.594-21.975q.187-1.049.422-2.138a12.07 12.07 0 00.234-2.512 4.887 4.887 0 00-.281-1.575 4 4 0 00-.937-1.5A4.753 4.753 0 0032.8 25.5a7.547 7.547 0 00-2.672-.412 9.245 9.245 0 00-4.219.9 12 12 0 00-3.375 2.625 37.4 37.4 0 00-2.484 3.113 10.867 10.867 0 00-1.922 4.387l-4.222 20.173H.218L11.75.786h13.687l-5.344 26.025h.469a24.076 24.076 0 016.328-7.425 15.325 15.325 0 019.422-2.7 17.849 17.849 0 016.047.9 11.371 11.371 0 014.078 2.438 9.487 9.487 0 012.344 3.563 12.218 12.218 0 01.75 4.275 25.22 25.22 0 01-.234 3.375q-.236 1.725-.797 4.424z" fill="#005dff" fill-rule="evenodd"/></svg>