<svg xmlns="http://www.w3.org/2000/svg" width="1887" height="367" viewBox="0 0 1887 367">
  <defs>
    <style>
      .cls-1 {
        fill: #ffa630;
        fill-rule: evenodd;
      }
    </style>
  </defs>
  <path id="DIRECT" class="cls-1" d="M1877.36,89.5h-102.5L1751.37,358h-98.5l23.49-268.5h-102L1581.49,8h303Zm-455.3-4c-67.5,0-98.81,55-102.29,100.5s16.02,97,85.02,97c23.5,0,58.37-10,85.6-35.5l52.31,65c-42.91,39-92.26,54.5-145.26,54.5-137.5,0-183.44-86.5-175.62-181.5C1229.19,95.5,1298.05,0,1429.55,0c50.5,0,94.46,17.5,130.6,56l-66.25,60C1471,92,1445.56,85.5,1422.06,85.5ZM1019.89,91l-4.38,50h165.5l-7.04,80.5h-165.5l-4.64,53h182.5l-7.3,83.5h-280L929.647,8h273l-7.26,83h-175.5ZM784.924,234L865.6,352l-0.525,6h-109l-71.57-113.5h-34.5L640.076,358h-99L571.7,8h171c89.5,0,130.969,57.5,125.458,120.5C864.393,171.5,846.2,208,784.924,234ZM735.785,87h-72l-7.349,84h73c26,0,39.206-19.5,41.044-40.5C772.4,108.5,761.785,87,735.785,87Zm-355,271L411.4,8h98.5L479.281,358h-98.5Zm-227.548,0h-150L33.854,8h150c123.5,0,176.351,76,167.908,172.5S278.733,358,153.233,358Zm23.4-267.5h-52l-16.1,184h52c63,0,89.112-47,93.311-95S237.136,90.5,176.636,90.5Z"/>
</svg>
