<svg xmlns="http://www.w3.org/2000/svg" width="32" height="32" viewBox="0 0 32 32">
  <defs>
    <style>
      .cls-1 {
        fill: #38cf82;
        fill-rule: evenodd;
      }
    </style>
  </defs>
  <path id="ZacharyFetters_Logo_Color" class="cls-1" d="M23.924,12.512a22.875,22.875,0,0,0-1.088-2.047c-5.57-9.343-12.309-4.627-12.309-4.627A9.233,9.233,0,0,0,6.8,11.959C3.36,11.355.18,10.261,0.02,8.28-0.336,3.894,6.291.006,16.764,0.006c7.616,0,15.23,3.894,15.23,8.724C31.994,11.112,27.986,12.111,23.924,12.512ZM11.936,19.835c-5.339-7.51.17-10.886,0.17-10.886s4.075-3.472,8.206,3.14,0.833,10.2.833,10.2S17.276,27.345,11.936,19.835Zm-3,.555q0.365,0.615.8,1.257c7.252,10.647,13.659,3.339,13.659,3.339a8.64,8.64,0,0,0,1.933-4.39c3.559,0.643,6.669,1.8,6.669,3.862,0,4.829-7.825,7.536-17.727,7.536-8.525,0-14.26-3.068-14.26-7.331C0.007,22.26,4.773,21.017,8.932,20.391Z"/>
</svg>
