<svg xmlns="http://www.w3.org/2000/svg" width="32" height="32" viewBox="0 0 32 32">
  <defs>
    <style>
      .cls-1 {
        fill: #d5aca9;
        fill-rule: evenodd;
      }
    </style>
  </defs>
  <path id="Logo" class="cls-1" d="M19.309,1.6c4.138-.038,7.834,1.054,8.309,4.672a2.545,2.545,0,0,1-.768,2.308c-2.989,2.578-14.57,1.322-18.7.376C6.752,8.637,3.773,8.087,3.4,6.891,3.052,5.744,5.58,4.684,6.357,4.356a40.746,40.746,0,0,1,8.912-2.38,21.408,21.408,0,0,1,2.738-.315ZM16.877,11.679c1.416-.018,2.65.228,3.161,1.121,1.529,2.673-4.65,9.4-7.551,8.107A3.351,3.351,0,0,1,10.846,18.4c-0.812-3.512,1.351-5.585,3.8-6.345A8.42,8.42,0,0,1,16.877,11.679ZM14.32,22.437c3.059,0,13.766-.291,13.286,2.331-0.225,1.225-1.928,2.3-2.876,2.872C18.877,31.2,11.163,31.5,5.578,27.451c-0.838-.608-2.064-1.481-2.217-2.734-0.3-2.427,6.424-2.205,8.791-2.264Z"/>
</svg>
