<svg xmlns="http://www.w3.org/2000/svg" width="128" height="128" viewBox="0 0 128 128">
  <defs>
    <style>
      .cls-1 {
        fill: #0f1c21;
      }

      .cls-2 {
        fill: #fff;
        fill-rule: evenodd;
      }
    </style>
  </defs>
  <rect id="Rounded_Rectangle_1" data-name="Rounded Rectangle 1" class="cls-1" width="128" height="128" rx="32" ry="32"/>
  <path id="zf" class="cls-2" d="M106.609,57.125L95.757,41.654a1.785,1.785,0,0,0-1.89-1.05H89.6c-1.05,0-1.19.07-1.19,1.26V63.216h2.52a1.873,1.873,0,0,0,1.75-.77L100.1,54.6h0.14V73.3H100.1l-7.421-7.841a1.873,1.873,0,0,0-1.75-.77h-2.52V81a1.854,1.854,0,0,0,.7,1.68l5.461,5.531v0.14H68.315v-0.14l3.85-5.04a2.212,2.212,0,0,0,.56-1.82V46.134a2.212,2.212,0,0,0-.56-1.82l-3.85-5.041v-0.14h38.434V57.125h-0.14ZM51.042,86.878a1.425,1.425,0,0,0,1.68-.84L64.484,68.116h0.14V88.349H22.2v-0.14L49.782,40.6H38.511a1.425,1.425,0,0,0-1.68.84L25.07,59.365H24.93V39.133H67.074v0.14L39.561,86.878H51.042Z"/>
</svg>
