<svg xmlns="http://www.w3.org/2000/svg" width="3840" height="216" viewBox="0 0 1920 108">
  <defs>
    <style>
      .cls-1 {
        fill: #101213;
        fill-rule: evenodd;
      }
    </style>
  </defs>
  <path class="cls-1" d="M960,60,0-1.772H1920v106h-1c-28.27-7.641-54.9-10.774-81-19-53.83-16.961-127.89-53.354-204-40a837.5,837.5,0,0,0-110,27c-42.95,13.5-108.45,44.359-170,34-97.19-16.356-161.86-45.37-259-62-45.63-7.811-91.99,8.885-124,19-55.56,17.556-104,31.893-169,43-44,7.518-89.1-8.237-120-18-56.789-17.939-105.914-32.687-172-44-32.07-5.49-67.366,3.8-91,10-62.493,16.384-114.422,37.211-181,50-91.331,17.544-169.363-29.658-238-46v-60Z"/>
</svg>
