<svg xmlns="http://www.w3.org/2000/svg" width="120" height="104" viewBox="0 0 120 104">
  <defs>
    <style>
      .cls-1 {
        fill: #ddd3cc;
        fill-rule: evenodd;
      }
    </style>
  </defs>
  <path id="blockquote" class="cls-1" d="M-0.02,63.263c0,29.812,21.813,40.719,24.722,40.719,6.544,0,10.18-6.908,14.542-11.271,5.09-5.09,9.816-9.089,9.816-12,0-13.088-25.085-10.543-25.085-39.628,0-27.267,20.359-29.812,20.359-36.719C44.334,3.276,42.517,0,39.608,0,32.337,0-.02,18.909-0.02,63.263Zm71.257,0c0,29.812,21.45,40.719,24.358,40.719,6.544,0,10.18-6.908,14.542-11.271,5.09-5.09,9.817-9.089,9.817-12,0-13.088-25.086-10.543-25.086-39.628,0-27.267,20.359-29.812,20.359-36.719C115.228,3.276,113.411,0,110.5,0,103.231,0,71.238,18.909,71.238,63.263Z"/>
</svg>
