<svg xmlns="http://www.w3.org/2000/svg" width="35" height="40" viewBox="0 0 35 40">
  <defs>
    <style>
      .cls-1 {
        fill: #efe323;
      }

      .cls-1, .cls-2 {
        fill-rule: evenodd;
      }

      .cls-2 {
        fill: #1e1e1c;
      }
    </style>
  </defs>
  <path id="Underline" class="cls-1" d="M0,35.013H35V40H0V35.013Z"/>
  <path id="_zf_Signature" data-name="&quot;zf&quot; Signature" class="cls-2" d="M0.6,10.439l15.582,0,4.738-.006L20.909,7.3A7.193,7.193,0,0,1,21.9,3.539a6.722,6.722,0,0,1,2.944-2.6,10.724,10.724,0,0,1,4.7-.943,19.323,19.323,0,0,1,5.45.722L34.383,5.207a12.623,12.623,0,0,0-3.877-.585,4.081,4.081,0,0,0-2.64.675,2.8,2.8,0,0,0-.795,2.244l0,2.9h6.6l-0.677,4.974H27.073L27.061,31.488H20.892l0.024-16.077L17.621,15.4v0.009L7.333,26.759h10.49l-0.676,4.729H0V26.769L10.416,15.344,0,15.333Z"/>
</svg>
