<svg xmlns="http://www.w3.org/2000/svg" width="950" height="30" viewBox="0 0 950 30">
  <defs>
    <style>
      .cls-1 {
        fill: #d5cac2;
        fill-rule: evenodd;
      }
    </style>
  </defs>
  <path id="Rectangle_1_copy" data-name="Rectangle 1 copy" class="cls-1" d="M500.847,17l-1.072-4H948.464l1.072,4H500.847Zm-17.156,1.338a9.114,9.114,0,0,1-2.681,6.481A13.873,13.873,0,0,1,470.168,29.3c-6.162,0-11.043-3.041-11.043-9.162a11.191,11.191,0,0,1,3.881-7.762c1.441-1.24,2.441-1.32,2.441-1.8a10.371,10.371,0,0,1-.28-2.44c0-5.841,5.321-8.122,8.4-8.122,1.24,0,4.28.52,4.28,3.361,0,1.28-.48,2.8-2.6,2.8-0.36,0-.48-0.12-0.48-0.28a12.241,12.241,0,0,0,.52-1.84,2.267,2.267,0,0,0-2.441-1.72c-4.521,0-6.361,4.081-6.361,6.8,0,0.64.24,0.72,0.48,0.72a27.491,27.491,0,0,1,2.881-.4c2.24,0,3.36,1.36,3.36,2.681s-1.08,2.6-3.2,2.6c-2.961,0-3.841-2.761-4.361-2.761-0.64,0-3.241,2.641-3.241,6.321a9.29,9.29,0,0,0,9.562,9.362c5,0,9.562-3.921,9.562-8.122,0-2.16-1.28-3.921-3.6-3.921a3.182,3.182,0,0,0-3.4,3.2,1.928,1.928,0,0,0,1.64,2.12c1.08,0,1.12-.88,1.64-0.88a0.319,0.319,0,0,1,.28.36,2.108,2.108,0,0,1-2.28,1.56c-2.36,0-3.321-2.561-3.321-3.761,0-4.321,4.681-5.321,9.762-7.6,3.961-1.76,6.282-3.641,6.282-6.521a3.025,3.025,0,0,0-3.121-2.881,2.059,2.059,0,0,0-2.2,2.08c0,1.24,1.88,1.04,1.88,1.8a1.584,1.584,0,0,1-1.88,1.64c-1.2,0-1.881-1.12-1.881-2.521,0-2.441,2.521-4.081,4.521-4.081a4.514,4.514,0,0,1,4.321,4.561c0,6.641-8.882,8.6-8.882,9.442C481.29,14.577,483.691,14.977,483.691,18.338ZM469.608,13.5a1.466,1.466,0,0,0,1.52-1.36c0-1.24-1.44-1.52-2.04-1.52a1.585,1.585,0,0,0-1.681,1.08A2.393,2.393,0,0,0,469.608,13.5ZM0.464,17l1.072-4H450.225l-1.072,4H0.464Z"/>
</svg>
