<svg xmlns="http://www.w3.org/2000/svg" width="6000" height="6000" viewBox="0 0 6000 6000">
  <defs>
    <style>
      .cls-1 {
        fill: #38cf82;
        fill-rule: evenodd;
      }
    </style>
  </defs>
  <path id="ZacharyFetters_Logo_Color" class="cls-1" d="M4486.23,2345.65c-57.56-123.47-125.18-251.47-204.16-383.95-1044.81-1752.437-2308.8-867.9-2308.8-867.9s-588.78,377.85-699.29,1148.23C629.056,2128.76,32.547,1923.57,2.429,1551.86-64.229,729.174,1178.71,0,3143.32,0,4571.87,0,6000,730.493,6000,1636.36,6000,2083.21,5248.17,2270.53,4486.23,2345.65ZM2237.64,3719.37c-1001.55-1408.58,31.85-2042.02,31.85-2042.02s764.39-651.33,1539.23,589.04,156.23,1912.58,156.23,1912.58S3239.19,5127.96,2237.64,3719.37Zm-563.53,104.16q68.52,115.425,150.36,235.8c1360.24,1997.12,2562,626.25,2562,626.25s275.46-284.58,362.57-823.51C5416.58,3982.63,6000,4198.87,6000,4586.48,6000,5492.32,4532.16,6000,2674.79,6000,1075.76,6000,0,5424.5,0,4624.89,0,4174.17,893.98,3941.11,1674.11,3823.53Z"/>
</svg>
