<?xml version="1.0" standalone="no"?>
<!DOCTYPE svg PUBLIC "-//W3C//DTD SVG 1.1//EN" "http://www.w3.org/Graphics/SVG/1.1/DTD/svg11.dtd" >
<svg xmlns="http://www.w3.org/2000/svg" xmlns:xlink="http://www.w3.org/1999/xlink" version="1.1">
<metadata>
Created by FontForge 20170731 at Tue Nov  3 22:59:00 2020
 By Aleksey,,,
SIL Open Font License (OFL)
</metadata>
<defs>
<font id="Bagnard" horiz-adv-x="1705" >
  <font-face 
    font-family="Bagnard Regular"
    font-weight="400"
    font-stretch="normal"
    units-per-em="2048"
    panose-1="0 0 0 0 0 0 0 0 0 0"
    ascent="1638"
    descent="-410"
    x-height="981"
    cap-height="1470"
    bbox="-49 -555 2316 1985"
    underline-thickness="0"
    underline-position="0"
    unicode-range="U+0020-20AC"
  />
<missing-glyph horiz-adv-x="1024" 
d="M102 -461v1997h820v-1997h-820zM205 -358h614v1792h-614v-1792z" />
    <glyph glyph-name=".notdef" horiz-adv-x="1024" 
d="M102 -461v1997h820v-1997h-820zM205 -358h614v1792h-614v-1792z" />
    <glyph glyph-name=".null" horiz-adv-x="0" 
 />
    <glyph glyph-name="nonmarkingreturn" horiz-adv-x="682" 
 />
    <glyph glyph-name="space" unicode=" " horiz-adv-x="614" 
 />
    <glyph glyph-name="exclam" unicode="!" horiz-adv-x="600" 
d="M330 449h-60l-133 860q-4 24 -4 39q0 69 48.5 118.5t117.5 49.5t118.5 -49.5t49.5 -118.5q0 -15 -4 -39zM125 127q0 18 76.5 97t97.5 79q23 0 99.5 -77.5t76.5 -98.5q0 -24 -77.5 -100t-98.5 -76q-18 0 -96 78t-78 98z" />
    <glyph glyph-name="dollar" unicode="$" horiz-adv-x="1310" 
d="M401 1171q0 -83 44 -133t141 -96v444q-77 -15 -131 -76.5t-54 -138.5zM696 -131h-110v125q-144 16 -256 96l-162 -113l6 695q100 -253 197.5 -392.5t214.5 -168.5v510q-54 21 -88 36q-334 160 -334 424q0 96 32.5 171.5t90.5 125t133 79.5t166 40v107h110v-103
q136 -9 271 -98l161 115l-4 -699q-37 85 -57 130.5t-49.5 109t-48.5 96t-46 75t-49.5 63.5t-51.5 43.5t-59.5 33.5t-66.5 16v-491q19 -7 56 -23.5t55 -23.5q57 -28 98 -52.5t90 -65.5t79.5 -85.5t51.5 -109t21 -140.5q0 -170 -121 -285t-330 -122v-119zM899 328
q0 144 -203 243v-467q92 11 147.5 67.5t55.5 156.5z" />
    <glyph glyph-name="ampersand" unicode="&#x26;" horiz-adv-x="1646" 
d="M582 985q82 -75 96 -88q69 66 108 141t39 138q0 115 -50 180t-128 65t-129 -54.5t-51 -137.5q0 -137 115 -244zM659 104q165 0 314 203q-139 120 -467 412q-73 -67 -104 -145.5t-31 -180.5q0 -122 77.5 -205.5t210.5 -83.5zM1106 0l111 98q-36 30 -100 85.5t-75 64.5
q-41 -56 -81.5 -98t-99 -84.5t-135 -65.5t-165.5 -23q-222 0 -345.5 103t-123.5 272q0 145 99.5 254.5t254.5 165.5q-23 23 -28 27q-38 35 -66 65.5t-59 75t-47.5 98.5t-16.5 113q0 143 121.5 254t294.5 111q172 0 275.5 -89t103.5 -237q0 -101 -75 -194t-206 -158
q87 -80 361 -328l176 307l-145 164h237l-2 -6l4 6h232l-189 -133l-248 -397q236 -210 330 -304l180 -147h-573z" />
    <glyph glyph-name="parenleft" unicode="(" horiz-adv-x="792" 
d="M666 1683l65 -73q-162 -181 -240.5 -439t-78.5 -518t78.5 -517.5t240.5 -438.5l-65 -74q-224 196 -363 473.5t-139 556.5q0 280 145 566t357 464z" />
    <glyph glyph-name="parenright" unicode=")" horiz-adv-x="792" 
d="M61 1610l66 73q212 -178 357 -464t145 -566q0 -279 -139 -556.5t-363 -473.5l-66 74q110 123 184.5 292t105 333.5t30.5 330.5t-30.5 330.5t-105 334t-184.5 292.5z" />
    <glyph glyph-name="comma" unicode="," horiz-adv-x="616" 
d="M299 -59q0 34 -19 52.5t-36 20.5q-1 1 -11.5 6.5t-17.5 10t-19 14t-20 20.5t-16.5 26t-12.5 34.5t-4 42.5q0 68 49 116t125 48q72 0 127.5 -62.5t55.5 -163.5q0 -68 -22.5 -134.5t-53.5 -112.5t-71 -88t-65.5 -62.5t-47.5 -34.5q-21 -9 -35.5 -8.5t-18.5 6.5q-9 18 7 37
q2 3 14.5 19t17.5 23t16.5 24.5t17.5 29t15 30t13.5 34t8 34.5t3.5 38z" />
    <glyph glyph-name="hyphen" unicode="-" horiz-adv-x="788" 
d="M123 451v139h543v-139h-543z" />
    <glyph glyph-name="period" unicode="." horiz-adv-x="616" 
d="M133 154q0 18 76.5 97t97.5 79q23 0 99.5 -77.5t76.5 -98.5q0 -24 -77.5 -100.5t-98.5 -76.5q-18 0 -96 78.5t-78 98.5z" />
    <glyph glyph-name="slash" unicode="/" horiz-adv-x="745" 
d="M-27 25l650 1515l139 -49l-649 -1516z" />
    <glyph glyph-name="zero" unicode="0" horiz-adv-x="1320" 
d="M1249 737q0 -119 -20 -227t-66 -205.5t-113 -168.5t-167.5 -112.5t-223.5 -41.5t-222.5 41.5t-166.5 112.5t-112.5 168.5t-65.5 205.5t-20 227q0 99 14.5 190.5t43.5 177t77.5 155.5t111.5 122.5t150 81.5t190 29q123 0 223.5 -41.5t167.5 -112.5t113 -168.5t66 -206
t20 -227.5zM963 737q0 89 -5 162t-16.5 148t-34 131t-55 100.5t-81.5 68t-112 23.5q-62 0 -111 -23.5t-81 -68t-54 -100.5t-34 -131t-16.5 -148t-4.5 -162t4.5 -162t16.5 -148t34 -131t54 -100.5t81 -68t111 -23.5q76 0 131.5 35t88 91.5t52 142t26 170.5t6.5 194z" />
    <glyph glyph-name="one" unicode="1" horiz-adv-x="823" 
d="M616 0h-243v1178l-332 -27l504 330l73 55z" />
    <glyph glyph-name="two" unicode="2" horiz-adv-x="1067" 
d="M883 0h-928l188 205q215 230 272 298q154 182 202 328q26 78 30 162q0 77 -23.5 138t-62.5 96.5t-84 54t-92 18.5q-124 0 -216 -77t-116 -213q-21 229 99.5 360t334.5 131q186 0 310.5 -120.5t124.5 -297.5q0 -80 -27 -159t-66 -141.5t-109.5 -141.5t-129 -135t-154 -147
t-157.5 -154h659z" />
    <glyph glyph-name="three" unicode="3" horiz-adv-x="1155" 
d="M494 -20q-145 0 -232.5 29.5t-138.5 101.5q-74 106 -66 194l90 -61q8 -22 12.5 -32.5t16 -29.5t23 -28t33 -22t47.5 -19t64.5 -10.5t86.5 -4.5q93 0 172.5 36t131.5 111.5t52 176.5q0 62 -9 114t-34.5 102.5t-67 85t-110 56t-159.5 21.5h-64v90h109h77q80 38 133.5 103
t53.5 149q0 108 -68 168.5t-162 60.5q-115 0 -205 -67t-149 -179q-10 173 109 279t323 106q177 0 293.5 -86.5t116.5 -234.5q0 -107 -72 -184.5t-180 -118.5q158 -30 255 -149.5t97 -262.5q0 -146 -76 -259.5t-207.5 -174.5t-295.5 -61z" />
    <glyph glyph-name="four" unicode="4" horiz-adv-x="1208" 
d="M696 535v583l-469 -583h469zM1145 387h-205v-387h-244v387h-661v68l31 39l690 874l186 244l-2 -1077h205v-148z" />
    <glyph glyph-name="five" unicode="5" horiz-adv-x="1097" 
d="M471 -20q-87 0 -160.5 27t-122 71.5t-79 93t-43.5 98.5l135 -75q36 -47 100 -72t127 -25q163 0 260.5 99.5t91.5 257.5q-2 67 -26 122t-62 92t-88 62t-103.5 36.5t-109.5 12.5q-60 0 -138 -13.5t-116 -41.5l33 254l61 491h21v3h737l-35 -226h-649l-31 -241q98 13 170 10
q93 -3 175 -22t153.5 -57.5t123 -93.5t82.5 -133.5t34 -174.5q7 -251 -147 -403t-394 -152z" />
    <glyph glyph-name="six" unicode="6" horiz-adv-x="1148" 
d="M578 -18q-116 0 -205.5 33t-145.5 87.5t-91.5 132.5t-49.5 160t-14 178q0 90 29.5 189.5t76.5 184t93 149.5t91 114q114 122 281.5 215.5t296.5 77.5q-110 -52 -240.5 -177t-199.5 -236q-79 -125 -115 -265q53 42 120.5 66t131.5 24q212 0 331 -111t119 -306
q0 -154 -70 -273t-185 -181t-254 -62zM598 84q101 0 155 88t54 252q0 168 -62.5 270.5t-177.5 102.5q-75 0 -131.5 -40t-81.5 -126q-2 -29 -2 -90q0 -46 1 -79t4 -78.5t10.5 -78t19 -69.5t30 -62t43.5 -47t60 -32.5t78 -10.5z" />
    <glyph glyph-name="seven" unicode="7" horiz-adv-x="933" 
d="M864 1272l-475 -1272h-315l669 1276h-723l-2 225h979l-131 -225h-4z" />
    <glyph glyph-name="eight" unicode="8" horiz-adv-x="1140" 
d="M575 -23q-224 0 -356.5 104t-132.5 271q0 129 73 230.5t195 162.5q-110 69 -171.5 158.5t-61.5 226.5q0 69 34.5 138.5t92 124.5t140.5 89t173 34q196 0 316 -98.5t120 -248.5q0 -97 -68.5 -180t-191.5 -145q57 -34 99.5 -63.5t88 -72t74 -86.5t47.5 -103.5t19 -125.5
q0 -121 -70.5 -217.5t-182 -147.5t-237.5 -51zM358 1229q0 -46 17 -87.5t40.5 -72.5t67 -65t78 -56t90.5 -55q70 63 109 131.5t39 130.5q0 47 -14.5 92.5t-42 85t-74 64t-105.5 24.5q-88 0 -146.5 -54.5t-58.5 -137.5zM571 84q97 0 164.5 70t67.5 186q0 31 -6 59t-20 52.5
t-28 44t-39.5 40.5t-44 35t-53 33.5t-54.5 30t-59.5 31t-58.5 30.5q-137 -129 -137 -323q0 -125 68.5 -207t199.5 -82z" />
    <glyph glyph-name="nine" unicode="9" horiz-adv-x="1148" 
d="M326 -20q-24 -5 -43.5 -4.5t-29 7.5t-11 17t12.5 24.5t40 28.5q65 35 112.5 65t110 83t106.5 112t84.5 148t61.5 194q-53 -45 -122.5 -70.5t-135.5 -25.5q-212 0 -331.5 111.5t-119.5 306.5q0 154 70 273t185.5 181t254.5 62q116 0 205.5 -33t145.5 -88t91.5 -133
t49.5 -160t14 -178q0 -90 -29.5 -189.5t-77 -184t-93.5 -149.5t-91 -114q-81 -88 -213.5 -172t-246.5 -112zM582 678q75 0 131.5 40.5t81.5 127.5q2 29 2 88q0 46 -1 79t-4 78.5t-10.5 78t-19 69.5t-30 62t-43.5 47t-60 32.5t-78 10.5q-101 0 -155 -88t-54 -252
q0 -168 62.5 -270.5t177.5 -102.5z" />
    <glyph glyph-name="colon" unicode=":" horiz-adv-x="636" 
d="M143 823q0 18 76.5 97t97.5 79q23 0 100 -77.5t77 -98.5q0 -24 -78 -100t-99 -76q-18 0 -96 78t-78 98zM143 156q0 18 76.5 97t97.5 79q23 0 100 -77.5t77 -98.5q0 -24 -78 -100t-99 -76q-18 0 -96 78t-78 98z" />
    <glyph glyph-name="semicolon" unicode=";" horiz-adv-x="636" 
d="M143 825q0 18 76.5 97t97.5 79q23 0 100 -77.5t77 -98.5q0 -24 -78 -100t-99 -76q-18 0 -96 78t-78 98zM299 -59q0 34 -19 52.5t-36 20.5q-1 1 -11.5 6.5t-17.5 10t-19 14t-20 20.5t-16.5 26t-12.5 34.5t-4 42.5q0 68 49 116t125 48q72 0 127.5 -62.5t55.5 -163.5
q0 -68 -22.5 -134.5t-53.5 -112.5t-71 -88t-65.5 -62.5t-47.5 -34.5q-21 -9 -35.5 -8.5t-18.5 6.5q-9 18 7 37q2 3 14.5 19t17.5 23t16.5 24.5t17.5 29t15 30t13.5 34t8 34.5t3.5 38z" />
    <glyph glyph-name="question" unicode="?" horiz-adv-x="1044" 
d="M242 1061q-69 0 -113.5 44.5t-44.5 123.5q0 45 33 96t86.5 94t129.5 71t154 28h35q58 0 116.5 -12.5t116.5 -41.5t102.5 -71.5t72.5 -107.5t28 -144q0 -69 -27.5 -135.5t-80 -123.5t-138.5 -96.5t-194 -50.5l-65 -286h-50l-47 438q76 1 136.5 18.5t98 45t62 65t34 75
t9.5 78.5q-1 122 -81 190t-199 68q-114 0 -156 -55q53 0 97 -44.5t44 -108.5q0 -66 -46.5 -112t-112.5 -46zM254 168q0 18 76.5 97t97.5 79q23 0 99.5 -77.5t76.5 -98.5q0 -24 -77.5 -100t-98.5 -76q-18 0 -96 78t-78 98z" />
    <glyph glyph-name="at" unicode="@" horiz-adv-x="1677" 
d="M702 -35q-149 0 -271.5 50.5t-199 134.5t-118 188.5t-41.5 216.5q0 162 53 304.5t143 246t207.5 178.5t249 112.5t264.5 37.5q87 0 170.5 -19t165.5 -63.5t143.5 -110t99.5 -166.5t38 -225q0 -136 -36.5 -242t-90.5 -166.5t-124 -100t-128.5 -52.5t-112.5 -13
q-63 0 -108 31t-60 84q-36 -55 -93.5 -82.5t-117.5 -27.5q-59 0 -110.5 23.5t-91 74t-51.5 129.5t7 190q33 180 168 307.5t310 127.5q96 0 147 -72l139 43l-112 -533h2q-4 -8 -4 -14l-9 -37q-1 -4 -2 -12t-2 -12q-20 -127 60 -127q29 0 58.5 14t60 48.5t54.5 85t39 131
t15 179.5q0 117 -36.5 217t-97.5 166t-140 103.5t-164 38.5q-52 0 -109.5 -9t-125.5 -33t-131 -60.5t-123 -97.5t-104 -137.5t-70.5 -186t-26.5 -238.5q0 -76 21.5 -151.5t66 -146t107 -124.5t151.5 -86.5t192 -32.5q87 0 210.5 29.5t189.5 64.5l24 -57q-220 -121 -545 -121
zM848 406q57 0 92 26v4q0 25 7 82t14 86l73 324q-10 55 -33.5 84.5t-50.5 29.5q-90 0 -158 -100t-94 -233q-22 -156 27 -229.5t123 -73.5z" />
    <glyph glyph-name="A" unicode="A" horiz-adv-x="1531" 
d="M860 545l-198 534l-220 -534h418zM1061 0l-158 428h-508l-176 -428h-153l628 1489h109l581 -1489h-323z" />
    <glyph glyph-name="B" unicode="B" horiz-adv-x="1538" 
d="M627 1366h-25v-561q57 0 95.5 1.5t90 7t85 16.5t70 31t57.5 48.5t35 71t14 96.5q0 87 -32 154t-91 96q-36 19 -89 28t-87.5 10t-122.5 1zM709 700h-107v-596h193q67 2 126 19.5t106.5 51t75 89.5t27.5 127q0 149 -109.5 229t-311.5 80zM315 0v1470h160l455 3
q195 0 309.5 -98t114.5 -247q0 -61 -15.5 -111t-52 -98t-103.5 -87t-163 -68q121 -10 212 -52.5t147.5 -127t56.5 -203.5q0 -76 -30.5 -143t-88.5 -121t-153.5 -85.5t-215.5 -31.5h-633z" />
    <glyph glyph-name="C" unicode="C" horiz-adv-x="1497" 
d="M1321 195q-53 -81 -141 -135t-182.5 -75.5t-198.5 -21.5q-208 0 -367.5 95.5t-244.5 260t-85 371.5q0 382 203.5 597.5t544.5 215.5q132 0 269.5 -88.5t199.5 -245.5v-176q-102 172 -146 227q-78 95 -179 124q-64 18 -154 18q-121 0 -216 -78.5t-147.5 -217t-52.5 -312.5
q0 -135 25 -251.5t74.5 -208t132 -144t188.5 -52.5q360 0 477 258v-161z" />
    <glyph glyph-name="D" unicode="D" horiz-adv-x="1650" 
d="M733 -4l-469 4v1470h486q125 0 239.5 -26t217.5 -84t178 -142.5t119 -209.5t44 -277q0 -124 -31.5 -233.5t-97.5 -201.5t-161.5 -158.5t-229.5 -104t-295 -37.5zM690 1356h-139v-1243h180q245 0 367.5 158.5t122.5 439.5q0 140 -32 255.5t-95.5 203.5t-166.5 137t-237 49
z" />
    <glyph glyph-name="E" unicode="E" horiz-adv-x="1454" 
d="M1331 127v-127h-1067v1470h1039v-116h-752v-541h457v-125h-457v-561h780z" />
    <glyph glyph-name="F" unicode="F" horiz-adv-x="1302" 
d="M1008 668h-457v-668h-287v1470h1002v-116h-715v-561h457v-125z" />
    <glyph glyph-name="G" unicode="G" horiz-adv-x="1613" 
d="M1339 274q-25 -87 -112 -160t-197.5 -112t-216.5 -39q-219 0 -382 96t-246 259.5t-83 371.5q0 191 57 344.5t160 256t249 157.5t323 55q133 0 252.5 -52.5t199.5 -172.5v-281q-50 124 -189.5 224.5t-264.5 99.5q-230 -3 -347.5 -151t-117.5 -416q0 -110 13 -199t44 -166
t78.5 -128.5t121 -78.5t167.5 -22q66 3 115.5 18t78 38.5t43.5 48t21 52.5l4 279l233 184z" />
    <glyph glyph-name="H" unicode="H" horiz-adv-x="1734" 
d="M1174 0v686h-623v-686h-287v1473h287v-670h623v665h286v-1468h-286z" />
    <glyph glyph-name="I" unicode="I" horiz-adv-x="825" 
d="M264 0v1470h287v-1470h-287z" />
    <glyph glyph-name="J" unicode="J" horiz-adv-x="774" 
d="M59 -459q11 13 34.5 40.5t34.5 41t30 41.5t28.5 51t22.5 61t19.5 79t11.5 97.5t6 123.5v1394h286v-1361q0 -131 -31 -233.5t-79 -164t-113 -101t-125.5 -54.5t-124.5 -15z" />
    <glyph glyph-name="K" unicode="K" horiz-adv-x="1521" 
d="M1579 -94q-84 0 -185 46.5t-196.5 122.5t-179 160t-154.5 173q-206 255 -215 266l-98 -99v-575h-287v1470h287v-741l717 741h164l-551 -559z" />
    <glyph glyph-name="L" unicode="L" horiz-adv-x="1478" 
d="M264 0v1466h287v-1339h784v-127h-1071z" />
    <glyph glyph-name="M" unicode="M" horiz-adv-x="2099" 
d="M1022 125l-74 -150l-581 1199v-1174h-127v1470h284l504 -1044l510 1044h287v-1470h-287v1206l-463 -966z" />
    <glyph glyph-name="N" unicode="N" horiz-adv-x="1669" 
d="M1430 -31l-1051 1075v-1044h-137v1473h137v-3h16l897 -913v913h138v-1501z" />
    <glyph glyph-name="O" unicode="O" horiz-adv-x="1660" 
d="M829 1513q171 0 311.5 -60t232.5 -165t142.5 -246.5t51.5 -306.5q1 -356 -198.5 -566t-539.5 -216q-338 5 -537.5 213.5t-199.5 564.5q0 348 203.5 565t533.5 217zM1245 733q0 129 -23 243t-70.5 209t-130.5 151t-192 57q-88 1 -159 -36t-118 -99.5t-78.5 -148.5
t-45.5 -179.5t-14 -196.5q0 -104 13.5 -197t45 -179t78.5 -147.5t118 -98.5t160 -37q88 0 159.5 37t118.5 99t78.5 147.5t45.5 179t14 196.5z" />
    <glyph glyph-name="P" unicode="P" horiz-adv-x="1337" 
d="M596 1366h-45v-664q47 0 77 0.5t74 4t72.5 9.5t65 18t60 28.5t48 42t38.5 58t23 76.5t9 97q0 101 -32 178.5t-91 112.5q-36 19 -89 28t-87.5 10t-122.5 1zM795 600q-174 0 -244 8v-608h-287v1470h160l414 3q110 0 203 -33.5t154 -89.5t94.5 -129.5t33.5 -153.5
q0 -93 -36 -177t-101.5 -148.5t-167 -103t-223.5 -38.5z" />
    <glyph glyph-name="Q" unicode="Q" horiz-adv-x="1701" 
d="M1505 -467q-58 14 -110.5 38t-92 50t-87 69t-79.5 77t-88 93t-96 99q-50 -6 -102 -6q-342 5 -545 213.5t-203 564.5q0 229 93.5 407t264 276.5t390.5 98.5q173 0 314.5 -60t235.5 -165t145 -246.5t52 -306.5q1 -228 -84.5 -399.5t-244.5 -269.5zM1276 733q0 129 -24 243
t-73 209t-133.5 151t-195.5 57q-89 1 -162 -36t-121 -99.5t-81 -148.5t-47.5 -179.5t-14.5 -196.5t14.5 -197t47 -179t81 -147.5t121 -99t162.5 -36.5q89 0 161.5 37t121 99.5t81.5 147.5t47.5 178.5t14.5 196.5z" />
    <glyph glyph-name="R" unicode="R" horiz-adv-x="1513" 
d="M1544 -94q-84 0 -178.5 44.5t-175.5 110.5t-172 157.5t-159 172t-145.5 170t-123.5 135.5l-39 -2v-694h-287v1470h160q270 3 487 3q192 0 308 -107t116 -258q0 -51 -10.5 -96t-36.5 -90.5t-68 -83t-108.5 -71t-153.5 -56.5zM608 1366h-57v-582q67 0 101.5 1t94 6t92 16
t75 32t64 51.5t37 78t15.5 108.5q0 87 -32 154t-91 96q-36 19 -89 28t-87.5 10t-122.5 1z" />
    <glyph glyph-name="S" unicode="S" horiz-adv-x="1310" 
d="M625 1520q123 0 213.5 -15t167 -52t127.5 -103t79 -164l-303 -45q-25 122 -98.5 180.5t-165.5 58.5q-116 0 -190 -52.5t-74 -156.5q0 -98 86 -188.5t221 -124.5l195 -45q154 -38 261.5 -140.5t108.5 -226.5q1 -89 -36 -171t-104.5 -146.5t-173 -102.5t-232.5 -38
q-123 0 -221 16.5t-179 53t-136.5 99t-82.5 150.5l295 82q30 -103 128.5 -178.5t199.5 -75.5q68 0 131.5 21t108 66t44.5 104q0 79 -47.5 147.5t-132.5 87.5l-227 60q-219 46 -343 160t-124 276q0 109 41 198.5t111.5 146.5t160.5 87.5t191 30.5z" />
    <glyph glyph-name="T" unicode="T" horiz-adv-x="1400" 
d="M1380 1358h-538v-1358h-287v1358h-532v117h1357v-117z" />
    <glyph glyph-name="U" unicode="U" horiz-adv-x="1648" 
d="M233 586v884h308v-927q0 -77 9 -138.5t34 -119t65 -95.5t105.5 -61t152.5 -23q90 0 158 30t118.5 94t76.5 170.5t26 254.5l-2 815h152v-835q0 -109 -15.5 -202.5t-56 -185.5t-105 -156.5t-170 -104t-243.5 -39.5q-140 0 -246.5 31.5t-175.5 86t-112.5 136.5t-61 175.5
t-17.5 209.5z" />
    <glyph glyph-name="V" unicode="V" horiz-adv-x="1693" 
d="M858 -106l-719 1576h344l457 -1083l449 1083h143l-592 -1382l-18 -45z" />
    <glyph glyph-name="W" unicode="W" horiz-adv-x="2260" 
d="M1645 43l-56 -149l-444 1189l-273 -811l2 -6l-77 -223l-58 -149l-630 1583h315l381 -1026l268 825l-74 199h314l352 -1039l369 1041h139z" />
    <glyph glyph-name="X" unicode="X" horiz-adv-x="1558" 
d="M1112 0l-403 606l-449 -606h-162l545 705l-512 768h324l374 -562l398 559h143l-477 -657l543 -813h-324z" />
    <glyph glyph-name="Y" unicode="Y" horiz-adv-x="1503" 
d="M920 0h-287v555l-500 915h324l413 -755l433 753h143l-526 -882v-586z" />
    <glyph glyph-name="Z" unicode="Z" horiz-adv-x="1466" 
d="M27 0l856 1333h-709v137h1139l-869 -1320l863 2v-152h-1280z" />
    <glyph glyph-name="grave" unicode="`" 
d="M678 1489l6 -8q32 -43 126 -192.5t103 -162.5l-34 -36l-449 337l29 62h219z" />
    <glyph glyph-name="a" unicode="a" horiz-adv-x="1048" 
d="M754 -33l-52 189q-50 -82 -144.5 -133.5t-195.5 -51.5q-67 0 -118 23t-78 60t-40 75t-13 76q0 115 75.5 198t180.5 115q47 14 97 23t80.5 11.5t82 5.5t71.5 5l2 121q-1 110 -49 169.5t-129 59.5q-64 0 -104 -41t-53 -108l-213 -49q18 123 133.5 210t271.5 87h33
q71 0 129.5 -18t108.5 -57t78 -111t28 -171v-632zM461 125q64 0 134 40.5t101 113.5l2 215q-55 -12 -202 -68q-140 -62 -140 -203q0 -44 31.5 -71t73.5 -27z" />
    <glyph glyph-name="b" unicode="b" horiz-adv-x="1243" 
d="M1159 502q0 -68 -19 -139t-54.5 -135t-86 -118.5t-113.5 -90.5t-137.5 -49.5t-156.5 3.5q-115 22 -182 109v-107h-246v1502l246 163l-2 -757q62 53 147 83.5t158 30.5q85 0 162.5 -30.5t142 -89t103 -155.5t38.5 -220zM633 104q125 0 198.5 82.5t73.5 221.5
q0 198 -93 302.5t-237 104.5q-103 0 -167 -49v-412v-155q89 -95 225 -95z" />
    <glyph glyph-name="c" unicode="c" horiz-adv-x="1054" 
d="M942 147q-41 -69 -138.5 -118t-232.5 -49q-218 0 -353.5 136t-135.5 343q0 244 149.5 393t384.5 149q138 0 237 -74t108 -188l-181 -34q0 34 -1.5 53.5t-11 51.5t-27.5 49.5t-55.5 31.5t-90.5 14q-118 0 -199.5 -93.5t-81.5 -238.5q0 -185 94.5 -296t245.5 -111
q145 0 275 90z" />
    <glyph glyph-name="d" unicode="d" horiz-adv-x="1255" 
d="M838 -37l-2 137q-98 -130 -306 -127q-85 2 -162.5 32.5t-142 88.5t-103 155t-38.5 220q0 102 42 198t115 169t180 117t230 44q105 0 183 -32v553l245 122v-1673zM338 563q0 -79 23 -148.5t59 -116.5t80.5 -81t87.5 -48.5t80 -12.5q108 5 166 49v448q-11 117 -76 179.5
t-150 62.5q-39 0 -85.5 -26.5t-87.5 -69.5t-69 -106.5t-28 -129.5z" />
    <glyph glyph-name="e" unicode="e" horiz-adv-x="1064" 
d="M741 633q0 125 -50.5 198.5t-145.5 73.5q-90 0 -161 -74.5t-71 -197.5h428zM571 -20h-8q-92 0 -171 27t-135.5 73.5t-96 109t-59 134t-19.5 147.5q0 144 60 264t174 193t259 73q54 0 108.5 -11t111.5 -38t101 -67.5t74 -105.5t34 -146v-15v-26v-62h-691q8 -156 99 -250
t241 -94h2q130 0 291 111l15 -109q-45 -75 -152 -141.5t-238 -66.5z" />
    <glyph glyph-name="f" unicode="f" horiz-adv-x="710" 
d="M696 850h-243v-850h-246v850h-158v131h154q-8 91 9.5 167.5t54 126t84 84t100 46.5t102.5 10t92 -23t66 -55l-72 -80q-19 32 -62 42q-67 16 -104 -50q-46 -81 -24 -268h247v-131z" />
    <glyph glyph-name="g" unicode="g" horiz-adv-x="1083" 
d="M506 -479q-127 0 -230.5 27.5t-169 86t-65.5 138.5q0 58 38 105.5t99 77.5t124.5 48.5t127.5 26.5q-50 22 -182 80v65l98 55l129 86q-166 17 -266 108t-100 232q0 154 130 249t330 95q194 0 308 -93.5t114 -250.5q0 -147 -107.5 -239t-285.5 -103l-113 -75
q280 -105 398 -164q83 -42 116 -94.5t33 -122.5q0 -134 -151.5 -236t-374.5 -102zM551 915q-174 0 -174 -258q0 -256 174 -256t174 256q0 258 -174 258zM541 -393q118 0 195 45.5t77 114.5q0 31 -14.5 57.5t-43 47.5t-52 34.5t-58.5 30.5q-15 6 -33.5 14.5t-44 20
t-41.5 18.5q-99 -10 -178.5 -70.5t-81.5 -114.5q-3 -82 80 -140t195 -58z" />
    <glyph glyph-name="h" unicode="h" horiz-adv-x="1239" 
d="M627 854q-51 0 -90 -17.5t-61.5 -46t-33.5 -53t-18 -51.5v-686h-244v1372l246 164v-684q100 149 305 149q150 0 241 -92.5t91 -263.5l-2 -645h-246l2 584q0 85 -7 126.5t-30 75.5q-44 68 -153 68z" />
    <glyph glyph-name="i" unicode="i" horiz-adv-x="624" 
d="M147 1303q0 18 77 97t98 79q23 0 99.5 -77.5t76.5 -98.5q0 -24 -77.5 -100.5t-98.5 -76.5q-18 0 -96.5 78.5t-78.5 98.5zM197 0v893l245 149v-1042h-245z" />
    <glyph glyph-name="j" unicode="j" horiz-adv-x="612" 
d="M160 1303q0 18 76.5 97t97.5 79q23 0 99.5 -77.5t76.5 -98.5q0 -24 -77.5 -100.5t-98.5 -76.5q-18 0 -96 78.5t-78 98.5zM51 -479q9 11 33 38.5t33.5 40.5t28 41.5t26.5 55t18 67t14.5 92t4.5 115.5v922l246 149v-1042q0 -110 -26.5 -196.5t-68 -138t-97 -85.5
t-107.5 -46.5t-105 -12.5z" />
    <glyph glyph-name="k" unicode="k" horiz-adv-x="1157" 
d="M1171 2q-211 -4 -317 0l-385 473h-45v-475h-244v1372l246 164l-2 -948h57l428 397h152l-399 -358z" />
    <glyph glyph-name="l" unicode="l" horiz-adv-x="630" 
d="M190 0v1415l246 164l-2 -1579h-244z" />
    <glyph glyph-name="m" unicode="m" horiz-adv-x="1818" 
d="M621 850q-46 0 -81 -17t-54.5 -45t-29 -52.5t-14.5 -49.5v-686h-245v903l184 123l47 -197q96 172 301 172q103 0 178.5 -50.5t108.5 -145.5q48 97 123 146.5t192 49.5q141 0 226 -93t85 -263l-2 -645h-245l2 571q-2 139 -40 209t-134 70q-49 0 -86 -20.5t-54.5 -49
t-28 -57.5t-12.5 -49l-2 -21v-8l-2 -645h-245l2 571q-2 139 -40 209t-134 70z" />
    <glyph glyph-name="n" unicode="n" horiz-adv-x="1171" 
d="M592 854q-53 0 -92.5 -18t-61.5 -48t-32.5 -54.5t-16.5 -51.5v-682h-246v903l185 123l47 -199q52 86 129 130t192 44q150 0 241 -92.5t91 -263.5l-2 -645h-246l2 584q0 85 -7 126.5t-30 75.5q-44 68 -153 68z" />
    <glyph glyph-name="o" unicode="o" horiz-adv-x="1196" 
d="M598 1001q236 0 375 -143.5t141 -365.5q0 -235 -140.5 -371t-375.5 -141q-235 3 -375.5 138t-140.5 369q0 230 143.5 372t372.5 142zM829 489q0 413 -231 416q-66 1 -112.5 -32.5t-71.5 -94t-36 -131t-11 -158.5q0 -411 231 -411t231 411z" />
    <glyph glyph-name="p" unicode="p" horiz-adv-x="1271" 
d="M664 76q122 0 196 94.5t74 237.5q0 198 -93 302.5t-237 104.5q-25 0 -71 -19t-95 -51v-436q20 -233 226 -233zM621 -27q-102 0 -183 33v-467h-245v1364l239 178l4 -225q68 65 152 103t153 38q85 0 163 -30.5t142.5 -89t103 -155.5t38.5 -220q0 -102 -42 -198t-115 -169.5
t-180.5 -117.5t-229.5 -44z" />
    <glyph glyph-name="q" unicode="q" horiz-adv-x="1271" 
d="M1059 -461h-246v574q-67 -62 -148.5 -99t-148.5 -37q-85 0 -162.5 30.5t-142 89t-103 156t-38.5 220.5q0 102 42 198t115 169t180 117t230 44q109 0 201 -57l221 133v-1538zM653 160q25 0 70 18t90 47v486q-36 188 -219 188q-122 0 -196 -94.5t-74 -237.5
q0 -198 92.5 -302.5t236.5 -104.5z" />
    <glyph glyph-name="r" unicode="r" horiz-adv-x="831" 
d="M555 821q-55 -57 -81 -126.5t-32 -166.5v-528h-245v903l184 123l55 -260q37 105 106 170t156 65q59 0 106.5 -41.5t47.5 -117.5v-17l-219 -131q-5 35 -12 60t-24 47t-42 20z" />
    <glyph glyph-name="s" unicode="s" horiz-adv-x="946" 
d="M446 1012q168 0 263 -48.5t131 -175.5l-217 -30q-12 69 -61.5 106t-100.5 37q-76 0 -123 -32.5t-47 -90.5q0 -61 54 -105.5t149 -68.5l129 -31q105 -26 174 -100t69 -178q0 -126 -98.5 -216.5t-265.5 -90.5q-347 0 -414 213l221 55q18 -61 78 -104t117 -43q76 0 129 26
t53 84q0 41 -28 74.5t-85 46.5l-151 39q-145 31 -228 117t-83 206q0 97 47 169t122 106.5t166 34.5z" />
    <glyph glyph-name="t" unicode="t" horiz-adv-x="798" 
d="M799 139q-36 -61 -114 -110t-185 -49q-168 0 -254 98.5t-86 277.5l2 494h-144v131h144l162 309h79v-309h345v-131h-340l-2 -459q0 -101 51 -162t135 -61q48 0 89.5 17t94.5 59q3 -12 4.5 -20t3 -14.5t5.5 -25t10 -45.5z" />
    <glyph glyph-name="u" unicode="u" horiz-adv-x="1222" 
d="M850 -47l-47 199q-50 -88 -123 -131.5t-188 -43.5q-150 0 -239 93t-89 264l2 557l246 151l-2 -634q2 -141 42.5 -210t147.5 -69q49 0 86 15.5t57 41.5t30.5 49.5t14.5 49.5v606l246 151v-997z" />
    <glyph glyph-name="v" unicode="v" horiz-adv-x="1071" 
d="M571 2v2l-43 -92l-491 1069h287l282 -668l293 668h123z" />
    <glyph glyph-name="w" unicode="w" horiz-adv-x="1634" 
d="M1137 -90l-326 790l-207 -503l-119 -287l-440 1071h266l242 -649l199 514l-56 135h267l239 -651l252 651h123l-324 -788z" />
    <glyph glyph-name="x" unicode="x" horiz-adv-x="1116" 
d="M762 0l-264 371l-258 -371h-172l366 459l-371 522h287l252 -346l283 346h147l-366 -434l397 -547h-301z" />
    <glyph glyph-name="y" unicode="y" horiz-adv-x="1077" 
d="M520 -145q-64 -127 -125.5 -194t-128.5 -91.5t-168 -24.5l2 62q152 0 320 304q3 5 4 7l49 113l-436 950h266l299 -664l297 664h123z" />
    <glyph glyph-name="z" unicode="z" horiz-adv-x="1069" 
d="M57 0l590 879h-504v102h865l-607 -879h545v-102h-889z" />
    <glyph glyph-name="dieresis" unicode="&#xa8;" 
d="M655 1319q0 53 36.5 90t88.5 37t89.5 -37t37.5 -90q0 -52 -37 -88.5t-90 -36.5q-52 0 -88.5 36t-36.5 89zM285 1319q0 53 36.5 90t88.5 37t89.5 -37t37.5 -90q0 -52 -37 -88.5t-90 -36.5q-52 0 -88.5 36t-36.5 89z" />
    <glyph glyph-name="guillemotleft" unicode="&#xab;" horiz-adv-x="980" 
d="M817 858h82l-201 -375l201 -377h-80l-366 377zM416 858h84l-201 -375l201 -377h-80l-367 377z" />
    <glyph glyph-name="acute" unicode="&#xb4;" 
d="M698 1481l7 8h219l28 -62l-448 -337l-35 36q9 13 103 162.5t126 192.5z" />
    <glyph glyph-name="cedilla" unicode="&#xb8;" 
d="M403 0l-90 -115q75 -20 130 -75t55 -125q0 -61 -32.5 -108t-83.5 -72t-104 -37.5t-104 -12.5q-92 0 -143 51q8 1 37.5 5t44 6.5t42 8.5t43 12.5t36.5 18t32 25.5t19 34t8 44q0 46 -39.5 83t-106.5 50l154 207h102z" />
    <glyph glyph-name="guillemotright" unicode="&#xbb;" horiz-adv-x="980" 
d="M82 858h82l364 -375l-366 -377h-80l201 377zM481 858h84l363 -375l-367 -377h-80l201 377z" />
    <glyph glyph-name="Agrave" unicode="&#xc0;" horiz-adv-x="1531" 
d="M584 1919l317 -303l-35 -37l-571 276l29 64h260zM860 545l-198 534l-220 -534h418zM1061 0l-158 428h-508l-176 -428h-153l628 1489h109l581 -1489h-323z" />
    <glyph glyph-name="Aacute" unicode="&#xc1;" horiz-adv-x="1531" 
d="M616 1616l318 303h260l29 -64l-572 -276zM860 545l-198 534l-220 -534h418zM1061 0l-158 428h-508l-176 -428h-153l628 1489h109l581 -1489h-323z" />
    <glyph glyph-name="Acircumflex" unicode="&#xc2;" horiz-adv-x="1531" 
d="M1169 1620l-36 -45l-338 164l-346 -164l-31 43l377 346zM860 545l-198 534l-220 -534h418zM1061 0l-158 428h-508l-176 -428h-153l628 1489h109l581 -1489h-323z" />
    <glyph glyph-name="Atilde" unicode="&#xc3;" horiz-adv-x="1531" 
d="M940 1638q-43 -1 -97.5 25t-111.5 52t-106 26q-75 0 -113.5 -24.5t-40.5 -65.5l-27 4q5 104 59.5 184t143.5 80q62 0 167 -48t147 -48q80 0 115.5 29.5t37.5 62.5l27 -4q-3 -69 -23 -127.5t-66 -101.5t-112 -44zM860 545l-198 534l-220 -534h418zM1061 0l-158 428h-508
l-176 -428h-153l628 1489h109l581 -1489h-323z" />
    <glyph glyph-name="Adieresis" unicode="&#xc4;" horiz-adv-x="1531" 
d="M850 1808q0 56 38 95t93 39q54 0 93.5 -39.5t39.5 -94.5t-39 -93t-94 -38t-93 37.5t-38 93.5zM418 1808q0 55 38.5 94.5t92.5 39.5q55 0 94 -39t39 -95q0 -55 -38.5 -93t-94.5 -38q-54 0 -92.5 38t-38.5 93zM860 545l-198 534l-220 -534h418zM1061 0l-158 428h-508
l-176 -428h-153l628 1489h109l581 -1489h-323z" />
    <glyph glyph-name="Aring" unicode="&#xc5;" horiz-adv-x="1531" 
d="M539 1806q0 86 65 132.5t166 46.5q103 0 169.5 -46.5t66.5 -132.5q0 -87 -66 -132.5t-170 -45.5q-102 0 -166.5 45.5t-64.5 132.5zM680 1806q0 -104 92 -104q94 0 94 104q0 109 -94 109q-92 0 -92 -109zM860 545l-198 534l-220 -534h418zM1061 0l-158 428h-508l-176 -428
h-153l628 1489h109l581 -1489h-323z" />
    <glyph glyph-name="AE" unicode="&#xc6;" horiz-adv-x="2107" 
d="M918 1325l-289 -545h289v545zM-49 0l201 195l634 1157l-147 118h1325l21 -530l-279 414h-502v-572h264l193 287v-698l-193 286h-264v-530h535l327 465l-81 -592h-1280l213 166v498h-351l-284 -541l151 -123h-483z" />
    <glyph glyph-name="Ccedilla" unicode="&#xc7;" horiz-adv-x="1533" 
d="M946 -315q0 -54 -23 -97.5t-58 -69.5t-80.5 -43t-87.5 -23.5t-83 -6.5q-92 0 -143 51q254 16 254 164q0 47 -35.5 83.5t-101.5 49.5l129 174q-185 18 -325.5 117t-215 256t-74.5 350q0 382 203.5 597.5t544.5 215.5q132 0 269.5 -88.5t199.5 -245.5v-176
q-102 172 -146 227q-78 95 -179 124q-64 18 -154 18q-121 0 -216 -78.5t-147.5 -217t-52.5 -312.5q0 -135 25 -251.5t74.5 -208t132 -144t188.5 -52.5q360 0 477 258v-161q-77 -117 -212 -173t-294 -59l-61 -78q77 -20 134.5 -75.5t57.5 -124.5zM799 -37h16l29 37h-103
l-24 -33q54 -4 82 -4z" />
    <glyph glyph-name="Egrave" unicode="&#xc8;" horiz-adv-x="1454" 
d="M662 1919l317 -303l-35 -37l-571 276l28 64h261zM1331 127v-127h-1067v1470h1039v-116h-752v-541h457v-125h-457v-561h780z" />
    <glyph glyph-name="Eacute" unicode="&#xc9;" horiz-adv-x="1454" 
d="M598 1616l317 303h261l28 -64l-571 -276zM1331 127v-127h-1067v1470h1039v-116h-752v-541h457v-125h-457v-561h780z" />
    <glyph glyph-name="Ecircumflex" unicode="&#xca;" horiz-adv-x="1454" 
d="M1135 1620l-37 -45l-338 164l-346 -164l-31 43l377 346zM1331 127v-127h-1067v1470h1039v-116h-752v-541h457v-125h-457v-561h780z" />
    <glyph glyph-name="Edieresis" unicode="&#xcb;" horiz-adv-x="1454" 
d="M807 1808q0 56 38 95t93 39q54 0 93.5 -39.5t39.5 -94.5t-39 -93t-94 -38q-56 0 -93.5 37.5t-37.5 93.5zM375 1808q0 55 38.5 94.5t92.5 39.5q55 0 94 -39t39 -95q0 -55 -38.5 -93t-94.5 -38q-54 0 -92.5 38t-38.5 93zM1331 127v-127h-1067v1470h1039v-116h-752v-541h457
v-125h-457v-561h780z" />
    <glyph glyph-name="Igrave" unicode="&#xcc;" horiz-adv-x="825" 
d="M287 1919l317 -303l-35 -37l-571 276l29 64h260zM264 0v1470h287v-1470h-287z" />
    <glyph glyph-name="Iacute" unicode="&#xcd;" horiz-adv-x="825" 
d="M268 1616l318 303h260l28 -64l-571 -276zM264 0v1470h287v-1470h-287z" />
    <glyph glyph-name="Icircumflex" unicode="&#xce;" horiz-adv-x="825" 
d="M821 1620l-37 -45l-338 164l-346 -164l-30 43l376 346zM264 0v1470h287v-1470h-287z" />
    <glyph glyph-name="Idieresis" unicode="&#xcf;" horiz-adv-x="825" 
d="M528 1808q0 56 38 95t93 39q54 0 94 -39.5t40 -94.5t-39.5 -93t-94.5 -38t-93 37.5t-38 93.5zM96 1808q0 55 38.5 94.5t92.5 39.5q55 0 94 -39t39 -95q0 -55 -38.5 -93t-94.5 -38q-54 0 -92.5 38t-38.5 93zM264 0v1470h287v-1470h-287z" />
    <glyph glyph-name="Ntilde" unicode="&#xd1;" horiz-adv-x="1669" 
d="M981 1645q-43 -1 -97.5 24.5t-111.5 51.5t-106 26q-75 0 -113.5 -24.5t-40.5 -65.5l-27 4q5 104 59.5 184t143.5 80q62 0 166.5 -48t146.5 -48q80 0 116 29.5t38 62.5l27 -4q-2 -50 -14.5 -96t-35.5 -86.5t-62 -64.5t-89 -25zM1430 -31l-1051 1075v-1044h-137v1473h137
v-3h16l897 -913v913h138v-1501z" />
    <glyph glyph-name="Ograve" unicode="&#xd2;" horiz-adv-x="1660" 
d="M713 1919l317 -303l-35 -37l-571 276l29 64h260zM829 1513q171 0 311.5 -60t232.5 -165t142.5 -246.5t51.5 -306.5q1 -356 -198.5 -566t-539.5 -216q-338 5 -537.5 213.5t-199.5 564.5q0 348 203.5 565t533.5 217zM1245 733q0 129 -23 243t-70.5 209t-130.5 151t-192 57
q-88 1 -159 -36t-118 -99.5t-78.5 -148.5t-45.5 -179.5t-14 -196.5q0 -104 13.5 -197t45 -179t78.5 -147.5t118 -98.5t160 -37q88 0 159.5 37t118.5 99t78.5 147.5t45.5 179t14 196.5z" />
    <glyph glyph-name="Oacute" unicode="&#xd3;" horiz-adv-x="1660" 
d="M670 1616l317 303h260l29 -64l-571 -276zM829 1513q171 0 311.5 -60t232.5 -165t142.5 -246.5t51.5 -306.5q1 -356 -198.5 -566t-539.5 -216q-338 5 -537.5 213.5t-199.5 564.5q0 348 203.5 565t533.5 217zM1245 733q0 129 -23 243t-70.5 209t-130.5 151t-192 57
q-88 1 -159 -36t-118 -99.5t-78.5 -148.5t-45.5 -179.5t-14 -196.5q0 -104 13.5 -197t45 -179t78.5 -147.5t118 -98.5t160 -37q88 0 159.5 37t118.5 99t78.5 147.5t45.5 179t14 196.5z" />
    <glyph glyph-name="Ocircumflex" unicode="&#xd4;" horiz-adv-x="1660" 
d="M1206 1620l-37 -45l-338 164l-346 -164l-30 43l376 346zM829 1513q171 0 311.5 -60t232.5 -165t142.5 -246.5t51.5 -306.5q1 -356 -198.5 -566t-539.5 -216q-338 5 -537.5 213.5t-199.5 564.5q0 348 203.5 565t533.5 217zM1245 733q0 129 -23 243t-70.5 209t-130.5 151
t-192 57q-88 1 -159 -36t-118 -99.5t-78.5 -148.5t-45.5 -179.5t-14 -196.5q0 -104 13.5 -197t45 -179t78.5 -147.5t118 -98.5t160 -37q88 0 159.5 37t118.5 99t78.5 147.5t45.5 179t14 196.5z" />
    <glyph glyph-name="Otilde" unicode="&#xd5;" horiz-adv-x="1660" 
d="M1018 1647q-43 -1 -97.5 24.5t-112 51.5t-106.5 26q-75 0 -113 -24t-40 -66l-27 4q5 104 59.5 184t143.5 80q62 0 166.5 -48t146.5 -48q80 0 116 29.5t38 62.5l27 -4q-2 -50 -14.5 -96t-35.5 -86.5t-62 -64.5t-89 -25zM829 1513q171 0 311.5 -60t232.5 -165t142.5 -246.5
t51.5 -306.5q1 -356 -198.5 -566t-539.5 -216q-338 5 -537.5 213.5t-199.5 564.5q0 348 203.5 565t533.5 217zM1245 733q0 129 -23 243t-70.5 209t-130.5 151t-192 57q-88 1 -159 -36t-118 -99.5t-78.5 -148.5t-45.5 -179.5t-14 -196.5q0 -104 13.5 -197t45 -179
t78.5 -147.5t118 -98.5t160 -37q88 0 159.5 37t118.5 99t78.5 147.5t45.5 179t14 196.5z" />
    <glyph glyph-name="Odieresis" unicode="&#xd6;" horiz-adv-x="1660" 
d="M913 1808q0 56 38 95t93 39q54 0 94 -39.5t40 -94.5t-39.5 -93t-94.5 -38q-56 0 -93.5 37.5t-37.5 93.5zM481 1808q0 55 38.5 94.5t92.5 39.5q55 0 94 -39t39 -95q0 -55 -38.5 -93t-94.5 -38q-54 0 -92.5 38t-38.5 93zM829 1513q171 0 311.5 -60t232.5 -165t142.5 -246.5
t51.5 -306.5q1 -356 -198.5 -566t-539.5 -216q-338 5 -537.5 213.5t-199.5 564.5q0 348 203.5 565t533.5 217zM1245 733q0 129 -23 243t-70.5 209t-130.5 151t-192 57q-88 1 -159 -36t-118 -99.5t-78.5 -148.5t-45.5 -179.5t-14 -196.5q0 -104 13.5 -197t45 -179
t78.5 -147.5t118 -98.5t160 -37q88 0 159.5 37t118.5 99t78.5 147.5t45.5 179t14 196.5z" />
    <glyph glyph-name="Ugrave" unicode="&#xd9;" horiz-adv-x="1648" 
d="M727 1919l317 -303l-34 -37l-572 276l29 64h260zM233 586v884h308v-927q0 -77 9 -138.5t34 -119t65 -95.5t105.5 -61t152.5 -23q90 0 158 30t118.5 94t76.5 170.5t26 254.5l-2 815h152v-835q0 -109 -15.5 -202.5t-56 -185.5t-105 -156.5t-170 -104t-243.5 -39.5
q-140 0 -246.5 31.5t-175.5 86t-112.5 136.5t-61 175.5t-17.5 209.5z" />
    <glyph glyph-name="Uacute" unicode="&#xda;" horiz-adv-x="1648" 
d="M784 1616l318 303h260l29 -64l-572 -276zM233 586v884h308v-927q0 -77 9 -138.5t34 -119t65 -95.5t105.5 -61t152.5 -23q90 0 158 30t118.5 94t76.5 170.5t26 254.5l-2 815h152v-835q0 -109 -15.5 -202.5t-56 -185.5t-105 -156.5t-170 -104t-243.5 -39.5
q-140 0 -246.5 31.5t-175.5 86t-112.5 136.5t-61 175.5t-17.5 209.5z" />
    <glyph glyph-name="Ucircumflex" unicode="&#xdb;" horiz-adv-x="1648" 
d="M1303 1620l-37 -45l-338 164l-346 -164l-31 43l377 346zM233 586v884h308v-927q0 -77 9 -138.5t34 -119t65 -95.5t105.5 -61t152.5 -23q90 0 158 30t118.5 94t76.5 170.5t26 254.5l-2 815h152v-835q0 -109 -15.5 -202.5t-56 -185.5t-105 -156.5t-170 -104t-243.5 -39.5
q-140 0 -246.5 31.5t-175.5 86t-112.5 136.5t-61 175.5t-17.5 209.5z" />
    <glyph glyph-name="Udieresis" unicode="&#xdc;" horiz-adv-x="1648" 
d="M1006 1808q0 56 38 95t93 39q54 0 93.5 -39.5t39.5 -94.5t-39 -93t-94 -38t-93 37.5t-38 93.5zM573 1808q0 55 39 94.5t93 39.5q55 0 94 -39t39 -95q0 -55 -38.5 -93t-94.5 -38q-54 0 -93 38t-39 93zM233 586v884h308v-927q0 -77 9 -138.5t34 -119t65 -95.5t105.5 -61
t152.5 -23q90 0 158 30t118.5 94t76.5 170.5t26 254.5l-2 815h152v-835q0 -109 -15.5 -202.5t-56 -185.5t-105 -156.5t-170 -104t-243.5 -39.5q-140 0 -246.5 31.5t-175.5 86t-112.5 136.5t-61 175.5t-17.5 209.5z" />
    <glyph glyph-name="Yacute" unicode="&#xdd;" horiz-adv-x="1503" 
d="M770 1616l317 303h261l28 -64l-571 -276zM920 0h-287v555l-500 915h324l413 -755l433 753h143l-526 -882v-586z" />
    <glyph glyph-name="agrave" unicode="&#xe0;" horiz-adv-x="1087" 
d="M559 1489l6 -8q32 -43 126.5 -192.5t103.5 -162.5l-35 -36l-449 337l29 62h219zM754 -33l-52 189q-50 -82 -144.5 -133.5t-195.5 -51.5q-67 0 -118 23t-78 60t-40 75t-13 76q0 115 75.5 198t180.5 115q47 14 97 23t80.5 11.5t82 5.5t71.5 5l2 121q-1 110 -49 169.5
t-129 59.5q-64 0 -104 -41t-53 -108l-213 -49q18 123 133.5 210t271.5 87h33q71 0 129.5 -18t108.5 -57t78 -111t28 -171v-632zM461 125q64 0 134 40.5t101 113.5l2 215q-55 -12 -202 -68q-140 -62 -140 -203q0 -44 31.5 -71t73.5 -27z" />
    <glyph glyph-name="aacute" unicode="&#xe1;" horiz-adv-x="1087" 
d="M702 1481l7 8h219l28 -62l-448 -337l-35 36q9 13 103 162.5t126 192.5zM754 -33l-52 189q-50 -82 -144.5 -133.5t-195.5 -51.5q-67 0 -118 23t-78 60t-40 75t-13 76q0 115 75.5 198t180.5 115q47 14 97 23t80.5 11.5t82 5.5t71.5 5l2 121q-1 110 -49 169.5t-129 59.5
q-64 0 -104 -41t-53 -108l-213 -49q18 123 133.5 210t271.5 87h33q71 0 129.5 -18t108.5 -57t78 -111t28 -171v-632zM461 125q64 0 134 40.5t101 113.5l2 215q-55 -12 -202 -68q-140 -62 -140 -203q0 -44 31.5 -71t73.5 -27z" />
    <glyph glyph-name="acircumflex" unicode="&#xe2;" horiz-adv-x="1087" 
d="M895 1159l-37 -45l-297 164l-305 -164l-31 43l336 346zM754 -33l-52 189q-50 -82 -144.5 -133.5t-195.5 -51.5q-67 0 -118 23t-78 60t-40 75t-13 76q0 115 75.5 198t180.5 115q47 14 97 23t80.5 11.5t82 5.5t71.5 5l2 121q-1 110 -49 169.5t-129 59.5q-64 0 -104 -41
t-53 -108l-213 -49q18 123 133.5 210t271.5 87h33q71 0 129.5 -18t108.5 -57t78 -111t28 -171v-632zM461 125q64 0 134 40.5t101 113.5l2 215q-55 -12 -202 -68q-140 -62 -140 -203q0 -44 31.5 -71t73.5 -27z" />
    <glyph glyph-name="atilde" unicode="&#xe3;" horiz-adv-x="1087" 
d="M711 1176q-45 -1 -135 46.5t-142 47.5q-66 0 -99.5 -22.5t-35.5 -61.5l-23 4q5 97 52.5 170.5t126.5 73.5q54 0 145.5 -44t128.5 -44q70 0 101.5 27t33.5 57l23 -5q-3 -64 -20 -117t-57.5 -92t-98.5 -40zM754 -33l-52 189q-50 -82 -144.5 -133.5t-195.5 -51.5
q-67 0 -118 23t-78 60t-40 75t-13 76q0 115 75.5 198t180.5 115q47 14 97 23t80.5 11.5t82 5.5t71.5 5l2 121q-1 110 -49 169.5t-129 59.5q-64 0 -104 -41t-53 -108l-213 -49q18 123 133.5 210t271.5 87h33q71 0 129.5 -18t108.5 -57t78 -111t28 -171v-632zM461 125
q64 0 134 40.5t101 113.5l2 215q-55 -12 -202 -68q-140 -62 -140 -203q0 -44 31.5 -71t73.5 -27z" />
    <glyph glyph-name="adieresis" unicode="&#xe4;" horiz-adv-x="1087" 
d="M618 1319q0 53 36.5 90t88.5 37q53 0 90 -37t37 -90q0 -52 -37 -88.5t-90 -36.5t-89 36t-36 89zM248 1319q0 53 36.5 90t88.5 37q53 0 90 -37t37 -90q0 -52 -37 -88.5t-90 -36.5t-89 36t-36 89zM754 -33l-52 189q-50 -82 -144.5 -133.5t-195.5 -51.5q-67 0 -118 23
t-78 60t-40 75t-13 76q0 115 75.5 198t180.5 115q47 14 97 23t80.5 11.5t82 5.5t71.5 5l2 121q-1 110 -49 169.5t-129 59.5q-64 0 -104 -41t-53 -108l-213 -49q18 123 133.5 210t271.5 87h33q71 0 129.5 -18t108.5 -57t78 -111t28 -171v-632zM461 125q64 0 134 40.5
t101 113.5l2 215q-55 -12 -202 -68q-140 -62 -140 -203q0 -44 31.5 -71t73.5 -27z" />
    <glyph glyph-name="aring" unicode="&#xe5;" horiz-adv-x="1087" 
d="M358 1323q0 81 62.5 124.5t161.5 43.5t162 -43.5t63 -124.5t-63 -123.5t-162 -42.5t-161.5 42.5t-62.5 123.5zM494 1325q0 -98 90 -98t90 98q0 100 -90 100t-90 -100zM754 -33l-52 189q-50 -82 -144.5 -133.5t-195.5 -51.5q-67 0 -118 23t-78 60t-40 75t-13 76
q0 115 75.5 198t180.5 115q47 14 97 23t80.5 11.5t82 5.5t71.5 5l2 121q-1 110 -49 169.5t-129 59.5q-64 0 -104 -41t-53 -108l-213 -49q18 123 133.5 210t271.5 87h33q71 0 129.5 -18t108.5 -57t78 -111t28 -171v-632zM461 125q64 0 134 40.5t101 113.5l2 215
q-55 -12 -202 -68q-140 -62 -140 -203q0 -44 31.5 -71t73.5 -27z" />
    <glyph glyph-name="ae" unicode="&#xe6;" horiz-adv-x="1691" 
d="M1358 633q0 143 -40 207.5t-149 64.5q-96 0 -157.5 -73t-65.5 -199h412zM451 125q85 0 158.5 45t103.5 139q-21 70 -21 150v16l2 47q-62 -74 -194 -125q-86 -37 -121 -76t-35 -98q0 -44 32.5 -71t74.5 -27zM1159 -20q-146 0 -250 63.5t-161 173.5q-38 -109 -139.5 -177.5
t-237.5 -68.5q-139 0 -209 67t-70 167t73.5 166t182.5 92q16 4 51.5 11.5t54.5 12t52 13t52 17t44.5 21.5t40 28t29 34.5t20.5 44t6 53.5h2q-6 101 -64.5 158t-141.5 57q-59 0 -115.5 -12.5t-77.5 -40.5q64 -25 89.5 -62t25.5 -93q0 -59 -44 -101.5t-102 -42.5
q-68 0 -105.5 46.5t-37.5 119.5q0 96 123 190.5t278 94.5h35q205 0 277 -144q133 133 344 133q54 0 106 -10.5t106.5 -37.5t96 -67t70.5 -105.5t34 -147.5h2v-103h-655v-49q0 -155 89 -238t216 -83q59 0 105.5 11t78 27t62 48t49 58t47.5 73q0 -111 -63.5 -204t-162 -143
t-206.5 -50z" />
    <glyph glyph-name="ccedilla" unicode="&#xe7;" horiz-adv-x="1054" 
d="M709 -315q0 -61 -32.5 -108t-83.5 -72t-104 -37.5t-104 -12.5q-92 0 -143 51q8 1 37.5 5t44 6.5t42 8.5t43 12.5t36.5 18t32 25.5t19 34t8 44q0 46 -39.5 83t-106.5 50l142 191q-189 23 -303.5 154.5t-114.5 320.5q0 244 149.5 393t384.5 149q138 0 237 -74t108 -188
l-181 -34q0 34 -1.5 53.5t-11 51.5t-27.5 49.5t-55.5 31.5t-90.5 14q-118 0 -199.5 -93.5t-81.5 -238.5q0 -185 94.5 -296t245.5 -111q145 0 275 90l14 -109q-39 -65 -129 -113t-215 -54l-74 -95q75 -20 130 -75t55 -125z" />
    <glyph glyph-name="egrave" unicode="&#xe8;" horiz-adv-x="1064" 
d="M551 1489l6 -8q32 -43 126 -192.5t103 -162.5l-34 -36l-449 337l29 62h219zM741 633q0 125 -50.5 198.5t-145.5 73.5q-90 0 -161 -74.5t-71 -197.5h428zM571 -20h-8q-92 0 -171 27t-135.5 73.5t-96 109t-59 134t-19.5 147.5q0 144 60 264t174 193t259 73q54 0 108.5 -11
t111.5 -38t101 -67.5t74 -105.5t34 -146v-15v-26v-62h-691q8 -156 99 -250t241 -94h2q130 0 291 111l15 -109q-45 -75 -152 -141.5t-238 -66.5z" />
    <glyph glyph-name="eacute" unicode="&#xe9;" horiz-adv-x="1064" 
d="M670 1481l6 8h219l29 -62l-449 -337l-35 36q9 13 103.5 162.5t126.5 192.5zM741 633q0 125 -50.5 198.5t-145.5 73.5q-90 0 -161 -74.5t-71 -197.5h428zM571 -20h-8q-92 0 -171 27t-135.5 73.5t-96 109t-59 134t-19.5 147.5q0 144 60 264t174 193t259 73q54 0 108.5 -11
t111.5 -38t101 -67.5t74 -105.5t34 -146v-15v-26v-62h-691q8 -156 99 -250t241 -94h2q130 0 291 111l15 -109q-45 -75 -152 -141.5t-238 -66.5z" />
    <glyph glyph-name="ecircumflex" unicode="&#xea;" horiz-adv-x="1064" 
d="M920 1159l-37 -45l-297 164l-305 -164l-31 43l336 346zM741 633q0 125 -50.5 198.5t-145.5 73.5q-90 0 -161 -74.5t-71 -197.5h428zM571 -20h-8q-92 0 -171 27t-135.5 73.5t-96 109t-59 134t-19.5 147.5q0 144 60 264t174 193t259 73q54 0 108.5 -11t111.5 -38t101 -67.5
t74 -105.5t34 -146v-15v-26v-62h-691q8 -156 99 -250t241 -94h2q130 0 291 111l15 -109q-45 -75 -152 -141.5t-238 -66.5z" />
    <glyph glyph-name="edieresis" unicode="&#xeb;" horiz-adv-x="1064" 
d="M631 1319q0 53 36.5 90t88.5 37t89.5 -37t37.5 -90q0 -52 -37 -88.5t-90 -36.5q-52 0 -88.5 36t-36.5 89zM260 1319q0 53 36.5 90t88.5 37q53 0 90 -37t37 -90q0 -52 -37 -88.5t-90 -36.5t-89 36t-36 89zM741 633q0 125 -50.5 198.5t-145.5 73.5q-90 0 -161 -74.5
t-71 -197.5h428zM571 -20h-8q-92 0 -171 27t-135.5 73.5t-96 109t-59 134t-19.5 147.5q0 144 60 264t174 193t259 73q54 0 108.5 -11t111.5 -38t101 -67.5t74 -105.5t34 -146v-15v-26v-62h-691q8 -156 99 -250t241 -94h2q130 0 291 111l15 -109q-45 -75 -152 -141.5
t-238 -66.5z" />
    <glyph glyph-name="igrave" unicode="&#xec;" horiz-adv-x="651" 
d="M250 1489l6 -8q32 -43 126 -192.5t103 -162.5l-34 -36l-449 337l29 62h219zM70 0l147 143v586l-147 74l147 90l27 16l94 58l125 75v-899l158 -143h-551z" />
    <glyph glyph-name="iacute" unicode="&#xed;" horiz-adv-x="651" 
d="M498 1481l6 8h219l29 -62l-449 -337l-35 36q9 13 103.5 162.5t126.5 192.5zM70 0l147 143v586l-147 74l147 90l27 16l94 58l125 75v-899l158 -143h-551z" />
    <glyph glyph-name="icircumflex" unicode="&#xee;" horiz-adv-x="651" 
d="M682 1159l-37 -45l-297 164l-305 -164l-31 43l336 346zM70 0l147 143v586l-147 74l147 90l27 16l94 58l125 75v-899l158 -143h-551z" />
    <glyph glyph-name="idieresis" unicode="&#xef;" horiz-adv-x="651" 
d="M406 1319q0 53 36 90t88 37t89.5 -37t37.5 -90q0 -52 -37 -88.5t-90 -36.5q-52 0 -88 36t-36 89zM35 1319q0 53 36.5 90t88.5 37t89.5 -37t37.5 -90q0 -52 -37 -88.5t-90 -36.5q-52 0 -88.5 36t-36.5 89zM70 0l147 143v586l-147 74l147 90l27 16l94 58l125 75v-899
l158 -143h-551z" />
    <glyph glyph-name="ntilde" unicode="&#xf1;" horiz-adv-x="1257" 
d="M821 1176q-38 -1 -86 22.5t-97.5 47.5t-92.5 24q-66 0 -99.5 -22.5t-35.5 -61.5l-23 4q5 97 52 170.5t126 73.5q54 0 146 -44t129 -44q70 0 101.5 27t33.5 57l22 -5q-3 -64 -20 -117t-57.5 -92t-98.5 -40zM592 854q-53 0 -92.5 -18t-61.5 -48t-32.5 -54.5t-16.5 -51.5
v-682h-246v903l185 123l47 -199q52 86 129 130t192 44q150 0 241 -92.5t91 -263.5l-2 -645h-246l2 584q0 85 -7 126.5t-30 75.5q-44 68 -153 68z" />
    <glyph glyph-name="ograve" unicode="&#xf2;" horiz-adv-x="1196" 
d="M526 1489l6 -8q32 -43 126.5 -192.5t103.5 -162.5l-35 -36l-448 337l28 62h219zM598 1001q236 0 375 -143.5t141 -365.5q0 -235 -140.5 -371t-375.5 -141q-235 3 -375.5 138t-140.5 369q0 230 143.5 372t372.5 142zM829 489q0 413 -231 416q-66 1 -112.5 -32.5t-71.5 -94
t-36 -131t-11 -158.5q0 -411 231 -411t231 411z" />
    <glyph glyph-name="oacute" unicode="&#xf3;" horiz-adv-x="1196" 
d="M733 1481l6 8h219l29 -62l-448 -337l-35 36q9 13 103 162.5t126 192.5zM598 1001q236 0 375 -143.5t141 -365.5q0 -235 -140.5 -371t-375.5 -141q-235 3 -375.5 138t-140.5 369q0 230 143.5 372t372.5 142zM829 489q0 413 -231 416q-66 1 -112.5 -32.5t-71.5 -94
t-36 -131t-11 -158.5q0 -411 231 -411t231 411z" />
    <glyph glyph-name="ocircumflex" unicode="&#xf4;" horiz-adv-x="1196" 
d="M950 1159l-37 -45l-297 164l-305 -164l-30 43l335 346zM598 1001q236 0 375 -143.5t141 -365.5q0 -235 -140.5 -371t-375.5 -141q-235 3 -375.5 138t-140.5 369q0 230 143.5 372t372.5 142zM829 489q0 413 -231 416q-66 1 -112.5 -32.5t-71.5 -94t-36 -131t-11 -158.5
q0 -411 231 -411t231 411z" />
    <glyph glyph-name="otilde" unicode="&#xf5;" horiz-adv-x="1196" 
d="M768 1176q-38 -1 -86 22.5t-97.5 47.5t-92.5 24q-66 0 -100 -22.5t-36 -61.5l-22 4q5 97 52 170.5t126 73.5q54 0 145.5 -44t128.5 -44q70 0 102 27t34 57l22 -5q-3 -64 -20 -117t-57.5 -92t-98.5 -40zM598 1001q236 0 375 -143.5t141 -365.5q0 -235 -140.5 -371
t-375.5 -141q-235 3 -375.5 138t-140.5 369q0 230 143.5 372t372.5 142zM829 489q0 413 -231 416q-66 1 -112.5 -32.5t-71.5 -94t-36 -131t-11 -158.5q0 -411 231 -411t231 411z" />
    <glyph glyph-name="odieresis" unicode="&#xf6;" horiz-adv-x="1196" 
d="M676 1319q0 53 36.5 90t88.5 37q53 0 90 -37t37 -90q0 -52 -37 -88.5t-90 -36.5t-89 36t-36 89zM305 1319q0 53 36.5 90t88.5 37t89.5 -37t37.5 -90q0 -52 -37 -88.5t-90 -36.5q-52 0 -88.5 36t-36.5 89zM598 1001q236 0 375 -143.5t141 -365.5q0 -235 -140.5 -371
t-375.5 -141q-235 3 -375.5 138t-140.5 369q0 230 143.5 372t372.5 142zM829 489q0 413 -231 416q-66 1 -112.5 -32.5t-71.5 -94t-36 -131t-11 -158.5q0 -411 231 -411t231 411z" />
    <glyph glyph-name="ugrave" unicode="&#xf9;" horiz-adv-x="1222" 
d="M623 1489l6 -8q32 -43 126 -192.5t103 -162.5l-35 -36l-448 337l28 62h220zM850 -47l-47 199q-50 -88 -123 -131.5t-188 -43.5q-150 0 -239 93t-89 264l2 557l246 151l-2 -634q2 -141 42.5 -210t147.5 -69q49 0 86 15.5t57 41.5t30.5 49.5t14.5 49.5v606l246 151v-997z
" />
    <glyph glyph-name="uacute" unicode="&#xfa;" horiz-adv-x="1222" 
d="M725 1481l6 8h219l29 -62l-449 -337l-34 36q9 13 103 162.5t126 192.5zM850 -47l-47 199q-50 -88 -123 -131.5t-188 -43.5q-150 0 -239 93t-89 264l2 557l246 151l-2 -634q2 -141 42.5 -210t147.5 -69q49 0 86 15.5t57 41.5t30.5 49.5t14.5 49.5v606l246 151v-997z" />
    <glyph glyph-name="ucircumflex" unicode="&#xfb;" horiz-adv-x="1222" 
d="M958 1159l-36 -45l-297 164l-306 -164l-30 43l336 346zM850 -47l-47 199q-50 -88 -123 -131.5t-188 -43.5q-150 0 -239 93t-89 264l2 557l246 151l-2 -634q2 -141 42.5 -210t147.5 -69q49 0 86 15.5t57 41.5t30.5 49.5t14.5 49.5v606l246 151v-997z" />
    <glyph glyph-name="udieresis" unicode="&#xfc;" horiz-adv-x="1222" 
d="M682 1319q0 53 36.5 90t88.5 37q53 0 90 -37t37 -90q0 -52 -37 -88.5t-90 -36.5t-89 36t-36 89zM311 1319q0 53 36.5 90t88.5 37t89.5 -37t37.5 -90q0 -52 -37 -88.5t-90 -36.5q-52 0 -88.5 36t-36.5 89zM850 -47l-47 199q-50 -88 -123 -131.5t-188 -43.5q-150 0 -239 93
t-89 264l2 557l246 151l-2 -634q2 -141 42.5 -210t147.5 -69q49 0 86 15.5t57 41.5t30.5 49.5t14.5 49.5v606l246 151v-997z" />
    <glyph glyph-name="yacute" unicode="&#xfd;" horiz-adv-x="1077" 
d="M768 1481l6 8h219l29 -62l-449 -337l-34 36q9 13 103 162.5t126 192.5zM520 -145q-64 -127 -125.5 -194t-128.5 -91.5t-168 -24.5l2 62q152 0 320 304q3 5 4 7l49 113l-436 950h266l299 -664l297 664h123z" />
    <glyph glyph-name="ydieresis" unicode="&#xff;" horiz-adv-x="1077" 
d="M659 1319q0 53 36.5 90t88.5 37t89.5 -37t37.5 -90q0 -52 -37 -88.5t-90 -36.5q-52 0 -88.5 36t-36.5 89zM289 1319q0 53 36.5 90t88.5 37t89.5 -37t37.5 -90q0 -52 -37 -88.5t-90 -36.5q-52 0 -88.5 36t-36.5 89zM520 -145q-64 -127 -125.5 -194t-128.5 -91.5
t-168 -24.5l2 62q152 0 320 304q3 5 4 7l49 113l-436 950h266l299 -664l297 664h123z" />
    <glyph glyph-name="dotlessi" unicode="&#x131;" horiz-adv-x="651" 
d="M70 0l147 143v586l-147 74l147 90l27 16l94 58l125 75v-899l158 -143h-551z" />
    <glyph glyph-name="OE" unicode="&#x152;" horiz-adv-x="2357" 
d="M829 74q122 0 208 43.5t130 122.5v940q-25 92 -117.5 152t-220.5 61q-88 1 -159 -36t-118 -99.5t-78.5 -148.5t-45.5 -179.5t-14 -196.5q0 -104 13.5 -197t45 -179t78.5 -147.5t118 -98.5t160 -37zM2234 0h-1130q-124 -44 -275 -47q-338 5 -537.5 213.5t-199.5 564.5
q0 348 203.5 565t533.5 217q148 0 267 -43h1118l20 -530l-278 414h-502v-541h264l193 287v-699l-193 287h-264v-561h535l327 465z" />
    <glyph glyph-name="oe" unicode="&#x153;" horiz-adv-x="1835" 
d="M1303 -20q-101 0 -193.5 37.5t-142.5 109.5q-58 -70 -163.5 -107.5t-201.5 -39.5q-234 3 -372 138t-138 369q0 230 140.5 372t369.5 142q112 0 209.5 -40.5t161.5 -120.5q62 80 159 120.5t195 40.5q54 0 106 -10.5t106.5 -37.5t96.5 -67t71 -105.5t34 -147.5h2v-103h-656
v-49q0 -79 25.5 -142t69 -101t97.5 -58t114 -20q59 0 105.5 11t78 27t62 48t49 58t47.5 73q0 -111 -63.5 -204t-162 -143t-206.5 -50zM1501 633q0 143 -39.5 207.5t-148.5 64.5q-96 0 -157.5 -73t-65.5 -199h411zM834 489q0 68 -6.5 126.5t-23.5 112.5t-42.5 92.5t-66.5 61
t-93 23.5q-66 1 -112.5 -32.5t-71.5 -94t-36 -131t-11 -158.5q0 -411 231 -411q232 0 232 411z" />
    <glyph glyph-name="Ydieresis" unicode="&#x178;" horiz-adv-x="1503" 
d="M971 1808q0 56 38 95t93 39q54 0 93.5 -39.5t39.5 -94.5t-39 -93t-94 -38q-56 0 -93.5 37.5t-37.5 93.5zM539 1808q0 55 38.5 94.5t92.5 39.5q55 0 94 -39t39 -95q0 -55 -38.5 -93t-94.5 -38q-54 0 -92.5 38t-38.5 93zM920 0h-287v555l-500 915h324l413 -755l433 753h143
l-526 -882v-586z" />
    <glyph glyph-name="circumflex" unicode="&#x2c6;" 
d="M1143 1159l-37 -45l-297 164l-305 -164l-31 43l336 346z" />
    <glyph glyph-name="ring" unicode="&#x2da;" 
d="M236 1184q0 81 62.5 124.5t160.5 43.5q99 0 162 -43.5t63 -124.5t-63 -123.5t-162 -42.5t-161 42.5t-62 123.5zM371 1186q0 -99 90 -99t90 99q0 100 -90 100t-90 -100z" />
    <glyph glyph-name="tilde" unicode="&#x2dc;" 
d="M492 991q-45 -1 -135 46.5t-142 47.5q-66 0 -99.5 -22.5t-35.5 -61.5l-23 5q5 97 52.5 170t126.5 73q54 0 145.5 -44t128.5 -44q70 0 101.5 27t33.5 57l23 -4q-3 -64 -20 -117t-57.5 -92.5t-98.5 -40.5z" />
    <glyph glyph-name="quoteleft" unicode="&#x2018;" horiz-adv-x="520" 
d="M262 1223q0 -34 19 -53t36 -21q1 -1 11.5 -6.5t17.5 -10t19 -14t20 -20.5t16.5 -26t12.5 -34.5t4 -42.5q0 -68 -49 -116t-125 -48q-72 0 -127.5 62.5t-55.5 163.5q0 68 23 134.5t53.5 112.5t71 88t66 62.5t47.5 34.5q21 9 35 8.5t18 -6.5q9 -19 -6 -37q-2 -3 -16.5 -21.5
t-20.5 -27.5t-19.5 -29t-20 -35t-15 -35t-12 -41t-3.5 -42z" />
    <glyph glyph-name="quoteright" unicode="&#x2019;" horiz-adv-x="520" 
d="M258 1081q0 34 -19 53t-36 21q-1 1 -11.5 6.5t-17.5 10t-19 14t-20 20.5t-16.5 26t-12.5 34.5t-4 42.5q0 68 49 116t125 48q72 0 127.5 -62.5t55.5 -163.5q0 -68 -22.5 -134.5t-53.5 -112.5t-71 -88t-65.5 -62.5t-47.5 -34.5q-21 -9 -35.5 -8.5t-18.5 6.5q-9 18 7 37
q1 1 16.5 21.5t20.5 28l19 28.5t20 35t14.5 35t12 41.5t3.5 41.5z" />
    <glyph glyph-name="quotedblleft" unicode="&#x201c;" horiz-adv-x="958" 
d="M262 1223q0 -34 19 -53t36 -21q1 -1 11.5 -6.5t17.5 -10t19 -14t20 -20.5t16.5 -26t12.5 -34.5t4 -42.5q0 -68 -49 -116t-125 -48q-72 0 -127.5 62.5t-55.5 163.5q0 68 23 134.5t53.5 112.5t71 88t66 62.5t47.5 34.5q21 9 35 8.5t18 -6.5q9 -19 -6 -37q-2 -3 -16.5 -21.5
t-20.5 -27.5t-19.5 -29t-20 -35t-15 -35t-12 -41t-3.5 -42zM700 1223q0 -34 19.5 -53t36.5 -21q1 0 11.5 -6t17 -10.5t18.5 -14t20 -20.5t16.5 -26t12.5 -34.5t4 -42.5q0 -68 -49 -116t-125 -48q-72 0 -127 62.5t-55 163.5q0 68 22.5 134.5t53.5 112.5t71 88t65.5 62.5
t47.5 34.5q21 9 35 8.5t18 -6.5q9 -19 -6 -37q-2 -3 -16.5 -21.5t-20.5 -27.5t-19.5 -29t-20 -35t-15 -35t-12 -41t-3.5 -42z" />
    <glyph glyph-name="quotedblright" unicode="&#x201d;" horiz-adv-x="958" 
d="M696 1081q0 34 -19 53t-36 21q-1 0 -11.5 6t-17 10.5t-18.5 14t-20 20.5t-16.5 26t-12.5 34.5t-4 42.5q0 68 49 116t125 48q72 0 127 -62.5t55 -163.5q0 -68 -22.5 -134.5t-53.5 -112.5t-71 -88t-65.5 -62.5t-47.5 -34.5q-21 -9 -35 -8.5t-18 6.5q-9 19 6 37
q1 1 16.5 21.5t20.5 28l19 28.5t20 35t14.5 35t12 41.5t3.5 41.5zM258 1081q0 34 -19 53t-36 21q-1 1 -11.5 6.5t-17.5 10t-19 14t-20 20.5t-16.5 26t-12.5 34.5t-4 42.5q0 68 49 116t125 48q72 0 127.5 -62.5t55.5 -163.5q0 -68 -22.5 -134.5t-53.5 -112.5t-71 -88
t-65.5 -62.5t-47.5 -34.5q-21 -9 -35.5 -8.5t-18.5 6.5q-9 18 7 37q1 1 16.5 21.5t20.5 28l19 28.5t20 35t14.5 35t12 41.5t3.5 41.5z" />
    <glyph glyph-name="Euro" unicode="&#x20ac;" horiz-adv-x="1378" 
d="M1255 -61l-143 143q-113 -119 -285 -119q-218 0 -367.5 151t-191.5 398h-166l21 123h133q-2 18 -2 55q0 72 6 137h-158l21 123h151q47 267 193 410t375 143q158 0 278 -117l135 136v-539q-17 34 -39.5 81.5t-37 75t-33.5 58.5q-124 193 -256 193q-123 0 -207.5 -118.5
t-114.5 -322.5h539l-21 -123h-528q-2 -25 -2 -73q0 -41 4 -119h485l-20 -123h-453q28 -199 103.5 -317.5t197.5 -118.5q46 0 85 13t66 31t55 50.5t44.5 58.5t40.5 68q20 35 51.5 99t40.5 81v-538z" />
    <glyph glyph-name="acute.uc" 
d="M469 1126l317 304h261l28 -64l-571 -276z" />
    <glyph glyph-name="cedilla.uc" 
d="M403 0l-90 -115q77 -20 135 -75.5t58 -124.5q0 -54 -23 -97.5t-58 -69.5t-80.5 -43t-87.5 -23.5t-83 -6.5q-92 0 -143 51q254 16 254 164q0 47 -36 83.5t-102 49.5l154 207h102z" />
    <glyph glyph-name="circumflex.uc" 
d="M1184 1130l-37 -45l-338 164l-346 -164l-31 43l377 347z" />
    <glyph glyph-name="dieresis.uc" 
d="M700 1319q0 56 38 94.5t93 38.5q54 0 94 -39t40 -94t-39.5 -93t-94.5 -38t-93 38t-38 93zM268 1319q0 55 38.5 94t92.5 39q55 0 94 -39t39 -94t-38.5 -93t-94.5 -38q-54 0 -92.5 38t-38.5 93z" />
    <glyph glyph-name="grave.uc" 
d="M758 1430l317 -304l-35 -36l-571 276l29 64h260z" />
    <glyph glyph-name="ring.uc" 
d="M236 1196q0 86 64.5 132t166.5 46q103 0 169 -46t66 -132q0 -87 -65.5 -132.5t-169.5 -45.5q-102 0 -166.5 45.5t-64.5 132.5zM377 1196q0 -104 92 -104q94 0 94 104q0 109 -94 109q-92 0 -92 -109z" />
    <glyph glyph-name="tilde.uc" 
d="M553 991q-43 -1 -97.5 25t-111.5 52t-106 26q-75 0 -113.5 -24.5t-40.5 -65.5l-27 4q5 104 59.5 184t143.5 80q62 0 166.5 -48t146.5 -48q80 0 116 29.5t38 62.5l27 -4q-3 -69 -23 -127.5t-66 -101.5t-112 -44z" />
    </font>
</defs>
</svg>
