<svg xmlns="http://www.w3.org/2000/svg" width="4818.38" height="4627.47" viewBox="0 0 4818.38 4627.47">
  <defs>
    <style>
      .cls-1 {
        fill: #f34213;
        fill-rule: evenodd;
      }
    </style>
  </defs>
  <path id="ZACH_Logo_Orange" class="cls-1" d="M4305.61,4623.42V3689.7H3716.03v933.72l-512.63,2V2391.82l512.63-.37v904.94h589.58V2391.45l512.76,0.37v2233.6ZM4165.29,1695.59H2395.04l-137.6,537.6h-486.4L2375.84-.407H4213.29l604.8,2233.6h-512Zm-291.2-1232H2689.44l-217.6,844.8H4091.69ZM1610.27,2233.19H0.667v-419.2l1072-1420.8H0.667V-0.407h1609.6v419.2l-1072,1420.8,1178.5-.12ZM872.813,2391.45H2202.29c295.15,1.57,514.16,104.12,657.03,304.14q118.83,166.365,172.24,407.86H2540.87q-20.355-98.73-59.15-171.06c-54.4-101.3-146.65-156-276.8-156-0.9,0-1.75.05-2.63,0.06v-1H872.813v1c-0.89-.01-1.74-0.06-2.634-0.06-130.15,0-222.4,54.7-276.8,156q-81.6,152.025-81.6,420.8v314.28q0,268.8,81.6,420.8c54.4,101.35,146.65,156,276.8,156,0.893,0,1.744-.05,2.634-0.05v-0.77H2202.29v0.77c0.88,0,1.74.05,2.63,0.05,130.15,0,222.4-54.65,276.8-156q44.55-82.965,64.76-200.82h501.33c-33.05,175.58-95.88,307.96-188.49,437.62q-214.305,300.03-657.03,302.32v0.06h-5.55c-0.48,0-.94.02-1.42,0.02-0.62,0-1.23-.02-1.85-0.02H881.629c-0.621,0-1.229.02-1.85,0.02-0.478,0-.944-0.02-1.421-0.02h-5.545v-0.06q-442.734-2.34-657.034-302.32c-144-201.6-216-409.73-216-776.68q0-550.35,216-852.8C358.65,2495.57,577.657,2393.02,872.813,2391.45Z"/>
</svg>
