<svg xmlns="http://www.w3.org/2000/svg" width="2916.782" height="442.094" viewBox="0 0 2916.782 442.094">
  <defs>
    <style>
      .cls-1 {
        fill-rule: evenodd;
      }
    </style>
  </defs>
  <path id="WSU_Wordmark_Black" class="cls-1" d="M0.178,442.105V417.111H2916.96v24.994H0.178Zm2899.792-190c0,49-33,83-85.5,83a89.09,89.09,0,0,1-39-9l7-23a73.964,73.964,0,0,0,36,9c28.5,0,41.5-21.5,41.5-46.5,0-24-15.5-33-33.5-44.5-23.5-15.5-50-32-50-68.5,0-43,31.5-75.5,75-75.5,12.5,0,25.5,1,38,4.5l-4.5,22c-9-3-20-4-30-3.5-25.5,0-38,19.5-38,40.5,0,28.5,17.5,40.5,36.5,50.5C2876.97,202.609,2899.97,216.609,2899.97,252.109Zm-231.64,84c-59.5,0-93-37.5-93-98V4.609h43.5v233c0,36,11,72.5,49.5,72.5,35.5,0,46.5-35.5,46.5-72.5v-233h27.5v234C2742.33,296.109,2719.33,336.109,2668.33,336.109Zm-206-84c0,49-33,83-85.5,83a89.09,89.09,0,0,1-39-9l7-23a73.964,73.964,0,0,0,36,9c28.5,0,41.5-21.5,41.5-46.5,0-24-15.5-33-33.5-44.5-23.5-15.5-50-32-50-68.5,0-43,31.5-75.5,75-75.5,12.5,0,25.5,1,38,4.5l-4.5,22c-9-3-20-4-30-3.5-25.5,0-38,19.5-38,40.5,0,28.5,17.5,40.5,36.5,50.5C2439.33,202.609,2462.33,216.609,2462.33,252.109Zm-242.64,79h-56v-250h56c64,0,89.5,35.5,89.5,124C2309.19,295.109,2283.69,331.109,2219.69,331.109Zm0.5-228h-16.5v206h16.5c37,0,47-22,47-103.5C2267.19,125.109,2257.19,103.109,2220.19,103.109Zm-217.4,43v185h-25v-250h35.5l81,170v-170h25v250h-28Zm-130.05,189c-51,0-79.5-33-79.5-77v-177h40v177.5c0,27,8.5,54,41,54,27,0,36-26,36-54V81.109h25v178.5C1935.24,300.609,1916.24,335.109,1872.74,335.109Zm-190.54,0c-55.5,0-78-37.5-78-129.5,0-91.5,22.5-128.5,78-128.5,54.5,0,76.5,37,76.5,128.5C1758.7,297.609,1736.7,335.109,1682.2,335.109Zm0-237c-26.5,0-35.5,28.5-35.5,107.5,0,79.5,9,108.5,35.5,108.5,25,0,34-29,34-108.5C1716.2,126.609,1707.2,98.109,1682.2,98.109Zm-139.85,233-51.5-105.5h-19v105.5h-40v-250h59.5c56.5,0,79.5,20.5,79.5,70.5,0,38-12,59.5-40,69l56,110.5h-44.5Zm-52-229h-18.5v102.5h18.5c30,0,40.5-14.5,40.5-53C1530.85,115.609,1520.35,102.109,1490.35,102.109Zm-133.54,229-51.5-105.5h-19v105.5h-40v-250h59.5c56.5,0,79.5,20.5,79.5,70.5,0,38-12,59.5-40,69l56,110.5h-44.5Zm-52-229h-18.5v102.5h18.5c30,0,40.5-14.5,40.5-53C1345.31,115.609,1334.81,102.109,1304.81,102.109Zm-163.55,233c-51,0-79.5-33-79.5-77v-177h40v177.5c0,27,8.5,54,41,54,27,0,36-26,36-54V81.109h25v178.5C1203.76,300.609,1184.76,335.109,1141.26,335.109Zm-110.7-105.5c0,62-37.495,106.5-99.495,106.5a93.635,93.635,0,0,1-44.5-11.5l8-26a82.889,82.889,0,0,0,42,11.5c36,0,50.5-31,50.5-64.5,0-32.5-17.5-44-39-59.5-28-20-61-41.5-61-89.5,0-55.5,37.5-97,87.5-97,14,0,28.495,1,42.495,5l-5,25.5c-10.5-4-22.995-5-34.495-4.5-32,0-47,27-47,55.5,0,39,20.5,55.5,44,69C1001.56,165.109,1030.56,182.109,1030.56,229.609Zm-289.49,101.5h-40v-229h-54.5v-21h149v21h-54.5v229Zm-127.4,0-16.5-67.5h-57l-17,67.5h-26l66-250h28l64.5,250h-42Zm-45-183-23.5,94.5h46.5Zm-141.6,61h-62v122h-40v-250h40v107h62v-107h40v250h-40v-122Zm-227.4,122-45-234.5-44.5,234.5h-40.5L9.178,4.609h44l46,244,45.5-244h34.5l47,243,47-243h29l-63.5,326.5h-39Z" transform="translate(-0.188)"/>
</svg>
