<svg xmlns="http://www.w3.org/2000/svg" width="120" height="120" viewBox="0 0 120 120">
  <defs>
    <style>
      .cls-1 {
        fill-rule: evenodd;
      }
    </style>
  </defs>
  <path id="icon_dark" class="cls-1" d="M120,60a59.961,59.961,0,0,1-30,51.953h0a59.707,59.707,0,0,1-10.341,4.735l-0.36.122q-1.6.542-3.232,1c-0.142.039-.282,0.082-0.425,0.12a59.532,59.532,0,0,1-7.218,1.472c-0.315.045-.632,0.081-0.948,0.121q-1.369.169-2.757,0.278c-0.345.027-.688,0.057-1.035,0.079C62.465,119.951,61.238,120,60,120A60,60,0,1,1,60,0c1.238,0,2.465.049,3.685,0.123,0.346,0.021.69,0.052,1.035,0.079Q66.107,0.31,67.476.48c0.316,0.04.633,0.076,0.948,0.12a59.67,59.67,0,0,1,7.218,1.472c0.142,0.038.283,0.081,0.425,0.121q1.636,0.454,3.232,1c0.12,0.041.24,0.08,0.36,0.122A59.673,59.673,0,0,1,90,8.047h0A59.96,59.96,0,0,1,120,60ZM73.371,22.3a59.84,59.84,0,0,0,0,75.4A40,40,0,0,0,73.371,22.3Z"/>
</svg>
