<svg xmlns="http://www.w3.org/2000/svg" width="240" height="120" viewBox="0 0 240 120">
  <defs>
    <style>
      .cls-1 {
        fill: #d5aca9;
        fill-rule: evenodd;
      }
    </style>
  </defs>
  <path id="Arrows" class="cls-1" d="M210.472,120l35.48-60L210.472,0h23.457L270,60l-36.071,60H210.472Zm-6.6,0H180.413l35.48-60L180.413,0h23.456l36.072,60Zm-30.059,0H150.353l35.48-60L150.353,0H173.81l36.071,60Zm-30.06,0H120.294l35.48-60L120.294,0H143.75l36.072,60Zm-30.059,0H90.234l35.48-60L90.234,0h23.457l36.071,60Zm-30.06,0H60.175l35.48-60L60.175,0H83.631L119.7,60Zm-30.059,0H30.115L65.6,60,30.115,0H53.572L89.643,60ZM-30,120L5.476,60-30,0H-6.547L29.524,60-6.547,120H-30Zm53.516,0H0.056l35.48-60L0.056,0H23.512L59.584,60Z"/>
</svg>
