<?xml version="1.0" standalone="no"?>
<!DOCTYPE svg PUBLIC "-//W3C//DTD SVG 1.1//EN" "http://www.w3.org/Graphics/SVG/1.1/DTD/svg11.dtd" >
<svg xmlns="http://www.w3.org/2000/svg" xmlns:xlink="http://www.w3.org/1999/xlink" version="1.1">
<metadata>
Created by FontForge 20170731 at Tue Dec 29 01:52:11 2020
 By Aleksey,,,
Copyright 2017 IBM Corp. All rights reserved.
</metadata>
<defs>
<font id="IBMPlexMono-SemiBoldItalic" horiz-adv-x="1228" >
  <font-face 
    font-family="IBM Plex Mono SemiBold"
    font-weight="600"
    font-style="italic"
    font-stretch="normal"
    units-per-em="2048"
    panose-1="2 11 7 9 5 2 3 0 2 3"
    ascent="1597"
    descent="-451"
    x-height="1057"
    cap-height="1430"
    bbox="-489 -539 1466 2339"
    underline-thickness="180"
    underline-position="-499"
    slope="-9.5"
    unicode-range="U+0020-FB02"
  />
<missing-glyph 
d="M66 0v1597h1097v-1597h-1097zM246 180h737v1237h-737v-1237z" />
    <glyph glyph-name=".notdef" 
d="M66 0v1597h1097v-1597h-1097zM246 180h737v1237h-737v-1237z" />
    <glyph glyph-name=".null" horiz-adv-x="0" 
 />
    <glyph glyph-name="nonmarkingreturn" horiz-adv-x="682" 
 />
    <glyph glyph-name="space" unicode=" " 
 />
    <glyph glyph-name="exclam" unicode="!" 
d="M651 492h-94l-8 518l69 420h285l-69 -420zM526 -23q-85 0 -126.5 32t-41.5 85q0 18 13 90q25 144 198 144q85 0 126.5 -32t41.5 -85q0 -24 -12 -90q-11 -65 -59.5 -104.5t-139.5 -39.5z" />
    <glyph glyph-name="quotedbl" unicode="&#x22;" 
d="M578 879h-234l105 637h233zM1004 879h-234l104 637h234z" />
    <glyph glyph-name="numbersign" unicode="#" 
d="M102 0l142 414h-238l33 192h270l74 217h-238l33 193h271l143 414h209l-490 -1430h-209zM494 0l489 1430h209l-141 -414h237l-33 -193h-270l-74 -217h238l-33 -192h-270l-144 -414h-208z" />
    <glyph glyph-name="dollar" unicode="$" 
d="M401 -231l37 215q-136 19 -240 78.5t-157 148.5l166 162q100 -144 280 -176l74 436l-39 10q-329 86 -329 361q0 192 131.5 312.5t357.5 135.5l35 209h198l-36 -219q223 -43 327 -201l-168 -156q-82 115 -211 140l-67 -402l37 -10q165 -46 251.5 -133t86.5 -225
q0 -200 -133 -329t-367 -149l-35 -208h-199zM446 1030q0 -63 36.5 -98.5t117.5 -59.5l59 357q-102 -13 -157.5 -67t-55.5 -132zM877 428q0 61 -37 98t-121 62l-62 -389q106 19 163 78t57 151z" />
    <glyph glyph-name="percent" unicode="%" 
d="M387 705q-130 0 -203 79t-73 220q0 201 103 325.5t269 124.5q131 0 203 -78t72 -219q0 -201 -102.5 -326.5t-268.5 -125.5zM399 860q123 0 152 164q22 134 22 156q0 118 -102 118q-127 0 -152 -161q-3 -20 -10 -58.5t-10.5 -62t-3.5 -37.5q0 -119 104 -119zM748 815
l415 615h203l-416 -615h-202zM-70 0l416 614h203l-416 -614h-203zM813 -25q-130 0 -202 78t-72 219q0 201 102.5 327t267.5 126q131 0 204 -79t73 -220q0 -201 -103.5 -326t-269.5 -125zM825 131q127 0 152 162q3 20 10 58.5t10.5 62t3.5 37.5q0 60 -25 89t-79 29
q-124 0 -152 -163q-22 -134 -22 -156q0 -119 102 -119z" />
    <glyph glyph-name="ampersand" unicode="&#x26;" 
d="M319 -25q-140 0 -222.5 99.5t-82.5 275.5q0 71 12.5 134t42 121t73.5 101t110.5 71t150.5 34q-61 153 -61 276q0 162 109.5 264.5t296.5 102.5q161 0 258.5 -95t97.5 -259q0 -175 -106 -287.5t-296 -146.5l187 -453l35 -6l145 215l152 -100l-101 -175
q-55 -95 -109.5 -133.5t-129.5 -38.5q-176 0 -256 304h-11q-20 -145 -97.5 -224.5t-197.5 -79.5zM406 201q64 0 106.5 32.5t67.5 110.5l-136 354q-38 -9 -67 -26t-45.5 -35t-27.5 -45.5t-16 -49t-9 -53.5q-9 -64 -9 -120q0 -82 36 -125t100 -43zM729 1266q-73 0 -113.5 -49
t-40.5 -130q0 -61 17 -122.5t55 -159.5l10 -27q88 29 134.5 77t64.5 124q14 59 14 129q0 74 -38.5 116t-102.5 42z" />
    <glyph glyph-name="quotesingle" unicode="'" 
d="M791 879h-234l105 637h233z" />
    <glyph glyph-name="parenleft" unicode="(" 
d="M371 475q0 168 47.5 333.5t128.5 304t184.5 252t220.5 191.5h258q-229 -159 -385 -367t-196 -437l-33 -193q-10 -61 -10 -133q0 -195 92 -386.5t227 -322.5h-235q-132 124 -215.5 326t-83.5 432z" />
    <glyph glyph-name="parenright" unicode=")" 
d="M901 799q0 -168 -47.5 -334t-128.5 -304t-185 -252t-221 -192h-258q229 159 386 367.5t196 437.5l33 193q10 61 10 133q0 195 -91.5 386t-227.5 322h235q132 -124 215.5 -325.5t83.5 -431.5z" />
    <glyph glyph-name="asterisk" unicode="*" 
d="M596 412l-283 -320l-170 125l289 320l-340 129l96 196l344 -127l66 389h225l-65 -389l381 127l35 -203l-386 -135l185 -309l-193 -123z" />
    <glyph glyph-name="plus" unicode="+" 
d="M662 127h-226l66 395h-373l33 207h375l65 395h225l-65 -395h373l-33 -207h-375z" />
    <glyph glyph-name="comma" unicode="," 
d="M231 -303l218 635h346l-361 -635h-203z" />
    <glyph glyph-name="hyphen" unicode="-" 
d="M926 498h-631l41 252h631z" />
    <glyph glyph-name="period" unicode="." 
d="M524 -23q-88 0 -130 34.5t-42 90.5q0 23 13 93q11 68 65 109.5t148 41.5q88 0 130 -34.5t42 -90.5q0 -22 -13 -92q-11 -68 -65 -110t-148 -42z" />
    <glyph glyph-name="slash" unicode="/" 
d="M252 -283h-236l971 1839h236z" />
    <glyph glyph-name="zero" unicode="0" 
d="M559 -25q-238 0 -353.5 137t-115.5 394q0 113 15 222.5t45.5 217.5t82.5 198.5t120.5 160.5t165 109.5t210.5 39.5q469 0 469 -530q0 -113 -15 -222.5t-45.5 -217.5t-82.5 -199t-120.5 -161t-165 -109.5t-210.5 -39.5zM561 184q142 0 217 100.5t109 301.5l41 245
q14 85 14 162q0 121 -53.5 186.5t-161.5 65.5q-142 0 -217 -100t-109 -301l-41 -246q-14 -85 -14 -162q0 -121 53.5 -186.5t161.5 -65.5zM629 596q-117 0 -117 82q0 18 6 55q17 101 139 101q119 0 119 -82q0 -18 -6 -56q-16 -100 -141 -100z" />
    <glyph glyph-name="one" unicode="1" 
d="M1075 0h-981l37 217h389l170 1018h-18l-363 -371l-155 146l415 420h414l-201 -1213h330z" />
    <glyph glyph-name="two" unicode="2" 
d="M1075 221l-37 -221h-1003l41 248l526 397q146 109 206 184t77 168q6 35 6 62q0 75 -52.5 121.5t-144.5 46.5q-185 0 -280 -215l-228 88q75 162 207 258t326 96q210 0 330 -106t120 -283q0 -70 -20.5 -133.5t-53.5 -116t-92 -111t-118 -106.5t-150 -115l-354 -262h694z
" />
    <glyph glyph-name="three" unicode="3" 
d="M459 852h141q123 0 194 46.5t85 121.5q8 41 8 61q0 72 -55 114t-148 42q-185 0 -313 -174l-152 162q100 110 218.5 169.5t289.5 59.5q202 0 322 -90t120 -244q0 -137 -89.5 -234t-248.5 -132l-2 -11q116 -19 185 -98.5t69 -206.5q0 -201 -151.5 -332t-419.5 -131
q-353 0 -479 269l192 135q29 -59 64 -97.5t95 -63.5t142 -25q119 0 190.5 51.5t84.5 148.5q6 42 6 62q0 83 -60 129.5t-167 46.5h-158z" />
    <glyph glyph-name="four" unicode="4" 
d="M889 0h-254l45 276h-662l39 234l744 920h325l-157 -947h192l-35 -207h-190zM809 1137l-528 -654h434l108 654h-14z" />
    <glyph glyph-name="five" unicode="5" 
d="M1200 1430l-39 -230h-651l-115 -483h15q67 104 141 153.5t194 49.5q172 0 280 -104.5t108 -285.5q0 -85 -23.5 -165t-72 -151t-117.5 -124t-167 -84t-212 -31q-354 0 -486 269l211 135q82 -184 285 -184q122 0 196.5 62.5t92.5 170.5q6 40 6 84q0 93 -55.5 143t-159.5 50
q-136 0 -256 -107l-211 29l186 803h850z" />
    <glyph glyph-name="six" unicode="6" 
d="M551 -25q-220 0 -340.5 125.5t-120.5 343.5q0 152 56.5 304t152 278t211 228.5t242.5 175.5h372q-148 -92 -256 -171.5t-201.5 -167.5t-158.5 -183t-107 -203l15 -5q32 46 64 80t75 65.5t98.5 48.5t120.5 17q167 0 266 -106t99 -281q0 -109 -39.5 -207.5t-112.5 -175
t-186 -121.5t-250 -45zM575 184q116 0 189.5 62t93.5 178q6 38 6 72q0 104 -56.5 157.5t-164.5 53.5q-116 0 -189.5 -62t-93.5 -178q-6 -37 -6 -72q0 -104 56.5 -157.5t164.5 -53.5z" />
    <glyph glyph-name="seven" unicode="7" 
d="M524 0h-286l710 1212h-508l-45 -262h-225l80 480h1003l-39 -230z" />
    <glyph glyph-name="eight" unicode="8" 
d="M543 -25q-232 0 -358 98.5t-126 262.5q0 149 93.5 257t257.5 148l2 15q-94 36 -144.5 107.5t-50.5 174.5q0 78 33.5 151t97.5 133t170 96t238 36q211 0 324.5 -90t113.5 -244q0 -125 -79.5 -220.5t-221.5 -145.5l-2 -15q112 -32 173.5 -109.5t61.5 -197.5q0 -87 -38 -168
t-108.5 -146t-184 -104t-252.5 -39zM557 182q123 0 195 55.5t90 151.5q8 47 8 78q0 81 -58 126.5t-165 45.5q-123 0 -195 -55.5t-90 -151.5q-8 -47 -8 -78q0 -81 58 -126.5t165 -45.5zM670 836q112 0 178 50.5t80 139.5q6 37 6 66q0 74 -53.5 114.5t-153.5 40.5
q-112 0 -178 -50.5t-80 -139.5q-6 -37 -6 -66q0 -74 53.5 -114.5t153.5 -40.5z" />
    <glyph glyph-name="nine" unicode="9" 
d="M1194 985q0 -123 -37.5 -246t-101 -229t-149 -203t-180.5 -173t-196 -134h-370q299 186 469 350.5t254 374.5l-15 4q-70 -98 -153.5 -154.5t-206.5 -56.5q-167 0 -266 106t-99 281q0 109 39.5 207.5t112.5 175t186 121.5t250 45q221 0 342 -125.5t121 -343.5zM639 723
q116 0 189.5 62t93.5 178q6 38 6 71q0 104 -56.5 157.5t-164.5 53.5q-116 0 -189.5 -61.5t-93.5 -177.5q-6 -37 -6 -72q0 -104 56.5 -157.5t164.5 -53.5z" />
    <glyph glyph-name="colon" unicode=":" 
d="M524 -23q-88 0 -130 34.5t-42 90.5q0 23 13 93q11 68 65 109.5t148 41.5q88 0 130 -34.5t42 -90.5q0 -22 -13 -92q-11 -68 -65 -110t-148 -42zM643 709q-88 0 -130 34.5t-42 90.5q0 28 12 92q11 68 65 109.5t148 41.5q88 0 130 -34.5t42 -90.5q0 -28 -12 -92
q-11 -68 -65 -109.5t-148 -41.5z" />
    <glyph glyph-name="semicolon" unicode=";" 
d="M231 -303l218 635h346l-361 -635h-203zM643 709q-88 0 -130 34.5t-42 90.5q0 28 12 92q11 68 65 109.5t148 41.5q88 0 130 -34.5t42 -90.5q0 -28 -12 -92q-11 -68 -65 -109.5t-148 -41.5z" />
    <glyph glyph-name="less" unicode="&#x3c;" 
d="M969 23l-799 481l41 246l958 481l-43 -258l-700 -348l-2 -17l584 -352z" />
    <glyph glyph-name="equal" unicode="=" 
d="M1139 748h-973l33 206h972zM1065 295h-973l33 207h973z" />
    <glyph glyph-name="greater" unicode="&#x3e;" 
d="M96 23l43 258l701 348l2 16l-584 352l39 234l799 -481l-41 -246z" />
    <glyph glyph-name="question" unicode="?" 
d="M684 467h-256l51 315q187 12 277.5 65.5t113.5 174.5q4 18 4 53q0 73 -52 115.5t-134 42.5q-89 0 -152 -51.5t-98 -143.5l-207 95q57 143 181 232t313 89q199 0 313.5 -100.5t114.5 -272.5q0 -95 -36.5 -175.5t-98.5 -136t-140.5 -90.5t-166.5 -48zM487 -23
q-85 0 -126.5 32t-41.5 85q0 18 13 90q25 144 198 144q85 0 126.5 -32t41.5 -85q0 -24 -12 -90q-11 -65 -59.5 -104.5t-139.5 -39.5z" />
    <glyph glyph-name="at" unicode="@" 
d="M860 -55l-29 -174h-243q-264 0 -383 140t-119 425q0 186 37 397q30 168 78 296t122 225.5t182 148.5t247 51q213 0 325.5 -112t112.5 -300q0 -55 -8 -104l-125 -752h-205l29 170h-9q-41 -93 -94 -143.5t-133 -50.5q-211 0 -211 321q0 153 40 278.5t118 202t180 76.5
q78 0 126 -43.5t60 -117.5h9l10 67q10 62 10 105q0 231 -242 231q-59 0 -107 -14t-94.5 -49.5t-82 -94t-66 -151t-51.5 -217.5l-45 -273q-12 -73 -12 -188q0 -174 74 -262t245 -88h254zM731 332q65 0 115 65q52 70 69 170l31 185q8 52 -19.5 91.5t-90.5 39.5
q-133 0 -168 -213l-15 -88q-10 -64 -10 -127q0 -123 88 -123z" />
    <glyph glyph-name="A" unicode="A" 
d="M1116 0h-272l-37 365h-434l-156 -365h-276l643 1430h364zM791 582l-56 589h-18l-254 -589h328z" />
    <glyph glyph-name="B" unicode="B" 
d="M78 0l237 1430h480q179 0 275.5 -88.5t96.5 -241.5q0 -145 -73.5 -237.5t-214.5 -129.5l-2 -8q229 -53 229 -276q0 -198 -130 -323.5t-345 -125.5h-553zM369 193h204q231 0 254 169l9 58q8 50 8 72q0 73 -46.5 108t-142.5 35h-213zM473 819h170q111 0 168 37.5t74 128.5
l10 55q6 27 6 62q0 135 -180 135h-178z" />
    <glyph glyph-name="C" unicode="C" 
d="M592 -25q-239 0 -356 138.5t-117 398.5q0 272 77.5 484.5t227.5 335t352 122.5q109 0 193 -29.5t136.5 -83.5t81.5 -123.5t36 -154.5l-250 -57q-12 113 -57.5 172t-153.5 59q-257 0 -326 -403l-37 -216q-16 -91 -16 -167q0 -258 229 -258q100 0 168 64.5t125 188.5
l223 -73q-87 -200 -213.5 -299t-322.5 -99z" />
    <glyph glyph-name="D" unicode="D" 
d="M70 0l237 1430h402q232 0 356.5 -133.5t124.5 -372.5q0 -444 -176.5 -684t-499.5 -240h-444zM367 213h155q147 0 233 88.5t117 269.5l41 240q13 80 13 152q0 254 -244 254h-147z" />
    <glyph glyph-name="E" unicode="E" 
d="M985 0h-903l237 1430h904l-37 -220h-641l-62 -376h615l-37 -220h-615l-65 -395h641z" />
    <glyph glyph-name="F" unicode="F" 
d="M344 0h-262l237 1430h934l-36 -220h-672l-62 -376h604l-36 -220h-605z" />
    <glyph glyph-name="G" unicode="G" 
d="M782 0l35 209h-16q-32 -56 -57.5 -91.5t-63.5 -71.5t-87.5 -53.5t-111.5 -17.5q-179 0 -278 134.5t-99 388.5q0 162 26 305t80 262.5t131.5 206t185 134.5t235.5 48q104 0 184.5 -30t131.5 -84t79.5 -124t36.5 -155l-250 -55q-7 51 -18.5 88.5t-33.5 72t-61 52.5t-94 18
q-246 0 -313 -397l-35 -207q-16 -98 -16 -172q0 -128 52 -199.5t157 -71.5q114 0 186 75t90 188l16 100h-264l31 192h500l-123 -745h-236z" />
    <glyph glyph-name="H" unicode="H" 
d="M741 0l103 616h-426l-103 -616h-262l238 1430h262l-98 -596h426l98 596h262l-237 -1430h-263z" />
    <glyph glyph-name="I" unicode="I" 
d="M981 0h-909l32 199h324l172 1032h-324l33 199h910l-33 -199h-324l-172 -1032h324z" />
    <glyph glyph-name="J" unicode="J" 
d="M422 1430h754l-172 -1033q-36 -212 -164 -317t-338 -105q-196 0 -306 102.5t-118 280.5l248 48q7 -101 49.5 -157t142.5 -56q187 0 225 221l134 796h-492z" />
    <glyph glyph-name="K" unicode="K" 
d="M840 0l-250 616l-195 -206l-67 -410h-262l237 1430h262l-108 -652h14l244 285l323 367h314l-555 -627l333 -803h-290z" />
    <glyph glyph-name="L" unicode="L" 
d="M1020 0h-899l237 1430h263l-201 -1211h637z" />
    <glyph glyph-name="M" unicode="M" 
d="M813 0l111 666l80 413h-17l-403 -735l-156 735h-16l-58 -413l-110 -666h-232l238 1430h307l113 -531h16l289 531h307l-238 -1430h-231z" />
    <glyph glyph-name="N" unicode="N" 
d="M676 0l-201 1040h-18l-172 -1040h-232l238 1430h327l201 -1041h19l172 1041h231l-237 -1430h-328z" />
    <glyph glyph-name="O" unicode="O" 
d="M559 -25q-239 0 -354 135t-115 388q0 140 20.5 272t69 258t120 219t182 150t247.5 57q239 0 354 -134.5t115 -387.5q0 -140 -20.5 -272t-69 -258.5t-120 -219.5t-182 -150t-247.5 -57zM563 193q135 0 209.5 101t106.5 300l41 240q12 82 12 155q0 248 -207 248
q-134 0 -208.5 -101t-106.5 -300l-41 -240q-13 -89 -13 -156q0 -247 207 -247z" />
    <glyph glyph-name="P" unicode="P" 
d="M344 0h-262l237 1430h517q182 0 279 -100t97 -267q0 -238 -133 -376t-362 -138h-281zM547 1214l-76 -448h219q206 0 236 182l10 64q4 24 4 61q0 73 -42.5 107t-133.5 34h-217z" />
    <glyph glyph-name="Q" unicode="Q" 
d="M819 -406q-63 0 -103.5 29t-78.5 84l-186 277q-361 60 -361 514q0 116 15 227t45.5 220t82.5 200t120.5 160.5t165 109t210.5 39.5q239 0 354 -134.5t115 -387.5q0 -124 -16 -241.5t-53.5 -233.5t-93 -208t-140 -160t-188.5 -95l120 -184l31 -9l184 176l136 -120
l-105 -113q-81 -89 -134.5 -119.5t-119.5 -30.5zM563 193q135 0 209.5 101t106.5 300l41 240q12 82 12 155q0 248 -207 248q-134 0 -208.5 -101t-106.5 -300l-41 -240q-13 -89 -13 -156q0 -247 207 -247z" />
    <glyph glyph-name="R" unicode="R" 
d="M434 557l-92 -557h-262l237 1430h517q183 0 279.5 -99t96.5 -268q0 -195 -96.5 -321.5t-269.5 -161.5l213 -580h-279l-182 557h-162zM469 766h219q107 0 163 41.5t71 132.5l10 61q6 27 6 70q0 143 -172 143h-221z" />
    <glyph glyph-name="S" unicode="S" 
d="M547 -25q-178 0 -313.5 61.5t-200.5 168.5l172 164q61 -86 155 -130t203 -44q131 0 203 62.5t72 172.5q0 76 -42.5 117t-140.5 63l-145 33q-155 34 -230 126t-75 230q0 207 146 331t392 124q160 0 282.5 -57.5t184.5 -153.5l-176 -156q-108 152 -303 152
q-123 0 -189.5 -57.5t-66.5 -155.5q0 -71 43.5 -109t147.5 -63l139 -35q158 -39 231.5 -127t73.5 -231q0 -219 -150.5 -352.5t-412.5 -133.5z" />
    <glyph glyph-name="T" unicode="T" 
d="M1292 1210h-434l-201 -1210h-262l201 1210h-432l37 220h1128z" />
    <glyph glyph-name="U" unicode="U" 
d="M279 1430h262l-144 -863q-24 -151 -24 -211q0 -79 44.5 -121t147.5 -42q50 0 88 9.5t65.5 32t46 48t32.5 68.5t22.5 81t18.5 98l149 900h262l-143 -863q-15 -88 -29.5 -151.5t-36.5 -129t-49.5 -110.5t-68 -85.5t-91.5 -64.5t-120 -37.5t-154 -13.5q-98 0 -173.5 17
t-126 48.5t-82.5 78t-46 102t-14 125.5q0 95 28 270z" />
    <glyph glyph-name="V" unicode="V" 
d="M713 0h-373l-152 1430h277l59 -717l35 -459h16l187 459l291 717h284z" />
    <glyph glyph-name="W" unicode="W" 
d="M389 0h-346l143 1430h228l-90 -828l-39 -356h18l281 854h252l4 -854h18l70 329l192 855h219l-333 -1430h-347l13 811h-19z" />
    <glyph glyph-name="X" unicode="X" 
d="M817 731l299 -731h-291l-110 287l-90 248h-15l-168 -248l-206 -287h-293l544 737l-282 693h293l94 -242l86 -246h12l168 246l176 242h293z" />
    <glyph glyph-name="Y" unicode="Y" 
d="M659 0h-262l86 520l-315 910h281l112 -349l80 -295h16l183 295l223 349h297l-612 -902z" />
    <glyph glyph-name="Z" unicode="Z" 
d="M1075 219l-37 -219h-1024l39 236l854 974h-665l37 220h972l-39 -236l-854 -975h717z" />
    <glyph glyph-name="bracketleft" unicode="[" 
d="M897 -283h-631l307 1839h631l-28 -178h-420l-248 -1482h420z" />
    <glyph glyph-name="backslash" unicode="\" 
d="M915 -283h-210l-363 1839h211z" />
    <glyph glyph-name="bracketright" unicode="]" 
d="M356 1556h631l-307 -1839h-631l29 179h420l247 1482h-419z" />
    <glyph glyph-name="asciicircum" unicode="^" 
d="M1178 633l-209 -86l-236 645h-18l-434 -647l-193 98l530 787h279z" />
    <glyph glyph-name="underscore" unicode="_" 
d="M956 -379h-972l36 217h973z" />
    <glyph glyph-name="grave" unicode="`" 
d="M606 1178l-209 356l224 100l143 -389z" />
    <glyph glyph-name="a" unicode="a" 
d="M989 0h-258l41 250h-8q-66 -134 -149.5 -204.5t-211.5 -70.5q-160 0 -237.5 107t-77.5 303q0 143 33 268.5t94 221t155 151t210 55.5q229 0 284 -217h10l33 193h258zM514 180q111 0 199 105q81 94 102 213l31 192q15 88 -33.5 137.5t-150.5 49.5q-121 0 -190.5 -72
t-90.5 -201l-23 -135q-8 -50 -8 -90q0 -93 40 -146t124 -53z" />
    <glyph glyph-name="b" unicode="b" 
d="M63 0l252 1516h258l-118 -709h10q66 134 149 204t211 70q160 0 238 -106.5t78 -302.5q0 -143 -33 -269t-94 -221.5t-155 -151t-210 -55.5q-229 0 -284 218h-13l-30 -193h-259zM567 180q121 0 190.5 72t90.5 201l22 135q9 56 9 90q0 93 -40 146t-124 53q-111 0 -199 -105
q-81 -94 -102 -213l-31 -192q-15 -88 33.5 -137.5t150.5 -49.5z" />
    <glyph glyph-name="c" unicode="c" 
d="M557 -25q-207 0 -318.5 118.5t-111.5 328.5q0 187 68.5 336t200 236t304.5 87q170 0 267.5 -70.5t130.5 -193.5l-211 -96q-26 78 -72.5 113.5t-134.5 35.5q-103 0 -171 -66t-89 -194l-21 -123q-8 -41 -8 -96q0 -99 51.5 -152t155.5 -53q49 0 87 14.5t95 67t131 152.5
l166 -105q-74 -116 -143.5 -187t-163.5 -112t-213 -41z" />
    <glyph glyph-name="d" unicode="d" 
d="M731 0l41 250h-8q-66 -134 -149.5 -204.5t-211.5 -70.5q-160 0 -237.5 107t-77.5 303q0 143 33 268.5t94 221t155 151t210 55.5q229 0 284 -217h10l109 652h258l-252 -1516h-258zM514 180q111 0 199 105q80 92 100 209l33 196q15 88 -33.5 137.5t-150.5 49.5
q-121 0 -190.5 -72t-90.5 -201l-23 -135q-8 -50 -8 -90q0 -93 40 -146t124 -53z" />
    <glyph glyph-name="e" unicode="e" 
d="M573 -25q-222 0 -335 117t-113 336q0 292 168.5 472.5t441.5 180.5q166 0 273.5 -75.5t107.5 -212.5q0 -55 -15.5 -100t-62.5 -93.5t-125 -83.5t-212.5 -60t-315.5 -32q-2 -16 -2 -37q0 -100 51.5 -154.5t169.5 -54.5q96 0 161.5 41.5t149.5 153.5l164 -105
q-46 -69 -92 -118.5t-106.5 -91t-137.5 -62.5t-170 -21zM711 893q-243 0 -301 -285l-7 -30q121 6 209 21t135.5 33t75 44t34.5 47.5t7 48.5q0 121 -153 121z" />
    <glyph glyph-name="f" unicode="f" 
d="M371 -434q-39 0 -74.5 12t-63 29t-62.5 53t-60.5 67t-69.5 89l-96 125l176 129l241 -295l29 8l176 1069h-344l35 205h344l29 178q21 128 106.5 204.5t231.5 76.5h362l-35 -205h-395l-41 -254h395l-34 -205h-396l-166 -995q-50 -291 -288 -291z" />
    <glyph glyph-name="g" unicode="g" 
d="M451 -434q-147 0 -245 34t-169 117l158 162q87 -108 251 -108q64 0 110 13.5t85 48t65 96.5t42 155l34 207h-10q-64 -137 -146 -207t-212 -70q-161 0 -240.5 109t-79.5 299q0 106 19.5 203.5t60 180.5t97 144.5t135.5 96t172 34.5q236 0 288 -217h11l32 193h258
l-166 -1002q-82 -489 -550 -489zM522 221q110 0 197 101q87 102 104 213l27 155q14 86 -34 136.5t-152 50.5q-119 0 -188.5 -72.5t-92.5 -200.5l-16 -94q-9 -61 -9 -98q0 -89 40.5 -140t123.5 -51z" />
    <glyph glyph-name="h" unicode="h" 
d="M72 0l252 1516h258l-117 -709h10q63 135 144 204.5t202 69.5q142 0 214.5 -84.5t72.5 -220.5q0 -70 -21 -196l-96 -580h-258l101 604q14 86 14 127q0 63 -33.5 105.5t-103.5 42.5q-102 0 -185 -103q-86 -110 -104 -219l-92 -557h-258z" />
    <glyph glyph-name="i" unicode="i" 
d="M696 1225q-153 0 -153 112q0 23 8 72q22 127 176 127t154 -113q0 -15 -9 -71q-22 -127 -176 -127zM594 -25q-108 0 -166.5 58t-58.5 157q0 41 18 140l100 522h-340l35 205h600l-166 -864l39 -13l322 309l143 -129l-143 -151q-119 -127 -204.5 -180.5t-178.5 -53.5z" />
    <glyph glyph-name="j" unicode="j" 
d="M479 -434q-41 0 -77 12t-66 31t-66 58t-66 77.5t-77 105.5l-86 115l176 129l260 -325l29 10l178 1073h-401l34 205h660l-197 -1176q-26 -161 -99 -238t-202 -77zM885 1225q-154 0 -154 112q0 23 8 72q22 127 176 127t154 -113q0 -22 -8 -71q-22 -127 -176 -127z" />
    <glyph glyph-name="k" unicode="k" 
d="M72 0l252 1516h258l-119 -709h12q125 274 363 274q126 0 201 -71.5t75 -182.5q0 -275 -383 -385l105 -252l28 -4l199 189l127 -127l-117 -123q-73 -77 -138.5 -113.5t-137.5 -36.5q-80 0 -130 45.5t-87 139.5l-121 305q207 58 301 126t94 165q0 58 -38 92.5t-109 34.5
q-103 0 -185 -105q-80 -102 -100 -223l-92 -555h-258z" />
    <glyph glyph-name="l" unicode="l" 
d="M541 -25q-111 0 -166.5 58t-55.5 160q0 47 17 133l184 985h-330l35 205h592l-250 -1323l37 -13l326 312l143 -130l-151 -157q-119 -125 -204.5 -177.5t-176.5 -52.5z" />
    <glyph glyph-name="m" unicode="m" 
d="M203 0h-213l176 1057h213l-31 -178h12q83 202 234 202q84 0 126.5 -54.5t33.5 -152.5h10q87 207 254 207q89 0 134.5 -50.5t45.5 -147.5q0 -70 -14 -156l-121 -727h-213l117 705q10 52 10 94q0 90 -68 90q-60 0 -108 -72q-44 -69 -58 -149l-110 -668h-213l117 705
q10 52 10 94q0 90 -68 90q-60 0 -108 -72q-44 -69 -58 -149z" />
    <glyph glyph-name="n" unicode="n" 
d="M330 0h-258l176 1057h258l-41 -250h10q63 135 144 204.5t202 69.5q142 0 214.5 -84.5t72.5 -220.5q0 -70 -21 -196l-96 -580h-258l101 604q14 86 14 127q0 63 -33.5 105.5t-103.5 42.5q-102 0 -185 -103q-86 -110 -104 -219z" />
    <glyph glyph-name="o" unicode="o" 
d="M543 -25q-208 0 -325.5 122.5t-117.5 330.5q0 298 163 475.5t423 177.5q208 0 325 -122t117 -330q0 -149 -43.5 -272t-120.5 -206.5t-185 -129.5t-236 -46zM561 174q113 0 183 68.5t92 195.5l24 146q10 55 10 92q0 102 -53 154.5t-149 52.5q-113 0 -183 -69t-92 -196
l-24 -145q-11 -61 -11 -92q0 -102 53.5 -154.5t149.5 -52.5z" />
    <glyph glyph-name="p" unicode="p" 
d="M-6 -410l246 1467h258l-43 -250h10q66 134 149 204t211 70q160 0 238 -106.5t78 -302.5q0 -143 -33 -269t-94 -221.5t-155 -151t-210 -55.5q-229 0 -284 218h-13l-100 -603h-258zM567 180q121 0 190.5 72t90.5 201l20 127q11 69 11 98q0 93 -40 146t-124 53
q-111 0 -199 -105q-81 -94 -102 -213l-31 -192q-15 -88 33.5 -137.5t150.5 -49.5z" />
    <glyph glyph-name="q" unicode="q" 
d="M664 -410l108 660h-8q-66 -134 -149.5 -204.5t-211.5 -70.5q-160 0 -237.5 107t-77.5 303q0 143 33 268.5t94 221t155 151t210 55.5q229 0 284 -217h10l33 193h258l-243 -1467h-258zM514 180q111 0 199 105q81 94 102 213l31 192q15 88 -33.5 137.5t-150.5 49.5
q-121 0 -190.5 -72t-90.5 -201l-23 -135q-8 -50 -8 -90q0 -93 40 -146t124 -53z" />
    <glyph glyph-name="r" unicode="r" 
d="M578 0h-259l142 852h-258l35 205h516l-54 -309h13q66 153 163 231t246 78h97l-43 -258h-187q-84 0 -138 -23t-95 -74q-78 -95 -94 -196z" />
    <glyph glyph-name="s" unicode="s" 
d="M535 -25q-156 0 -272 47t-175 134l154 143q101 -135 311 -135q107 0 168 37.5t61 105.5q0 48 -30 70.5t-90 34.5l-152 30q-66 14 -113.5 32.5t-91 50.5t-66 82.5t-22.5 119.5q0 169 131 261.5t340 92.5q138 0 247 -41t165 -112l-148 -148q-37 49 -108 81t-166 32
q-98 0 -152.5 -35.5t-54.5 -99.5q0 -50 29.5 -71.5t91.5 -33.5l156 -32q53 -11 93.5 -24.5t79 -36t63 -51t39.5 -71t15 -96.5q0 -171 -136.5 -269t-366.5 -98z" />
    <glyph glyph-name="t" unicode="t" 
d="M545 -25q-113 0 -170.5 61.5t-57.5 168.5q0 25 15 117l88 530h-281l35 205h182q63 0 94.5 25.5t41.5 88.5l43 259h239l-61 -373h420l-35 -205h-420l-107 -647l41 -17l361 269l127 -150l-156 -123q-150 -120 -230 -164.5t-169 -44.5z" />
    <glyph glyph-name="u" unicode="u" 
d="M723 0l41 250h-10q-63 -135 -144 -205t-202 -70q-142 0 -214.5 85t-72.5 221q0 76 20 196l97 580h258l-101 -604q-14 -86 -14 -127q0 -63 33.5 -105.5t103.5 -42.5q101 0 184 103q87 112 105 219l92 557h258l-176 -1057h-258z" />
    <glyph glyph-name="v" unicode="v" 
d="M127 1057h444l-135 -881l27 -16q136 37 228.5 128t132.5 202.5t40 240.5q0 140 -65 264l233 82q92 -127 92 -344q0 -154 -59 -295.5t-155 -241.5t-224 -159.5t-262 -59.5q-113 0 -171 59t-58 163q0 57 12 133l80 520h-195z" />
    <glyph glyph-name="w" unicode="w" 
d="M238 -23q-97 0 -145 58t-48 160q0 80 16 178l115 684h205l-113 -676q-12 -62 -12 -109q0 -86 74 -86q57 0 112 82q30 43 47 144l109 645h203l-115 -690q-10 -52 -10 -99q0 -86 69 -86q57 0 108.5 81.5t82.5 214t31 274.5q0 164 -41 264l186 55q66 -129 66 -319
q0 -182 -46 -342.5t-128 -266.5q-61 -81 -140.5 -123.5t-165.5 -42.5q-100 0 -147 59.5t-41 162.5h-12q-82 -222 -260 -222z" />
    <glyph glyph-name="x" unicode="x" 
d="M217 -25q-104 0 -161.5 70.5t-57.5 204.5q0 56 6 106l211 23q-2 -25 -2 -51q0 -87 17.5 -124.5t62.5 -37.5q47 0 85 44.5t60.5 110.5t37.5 148.5t20.5 151.5t5.5 127q0 69 -10 131l-27 12l-285 -191l-106 146l143 106q85 63 153 96t134 33q59 0 100 -23.5t63 -68.5
t31 -101t9 -132h14q40 170 113 247.5t180 77.5q104 0 161.5 -70.5t57.5 -203.5q0 -57 -6 -107l-211 -22q2 25 2 51q0 87 -17.5 124.5t-62.5 37.5q-47 0 -85 -44.5t-60.5 -110.5t-37.5 -148.5t-20.5 -151.5t-5.5 -127q0 -81 14 -131l25 -12l285 196l106 -139l-102 -90
q-180 -158 -324 -158q-209 0 -209 326h-14q-40 -170 -113 -248t-180 -78z" />
    <glyph glyph-name="y" unicode="y" 
d="M438 -434q-147 0 -245 34t-168 117l157 162q87 -108 252 -108q65 0 112.5 14.5t86.5 50t64.5 97t39.5 153.5l33 199h-10q-63 -137 -144 -207t-202 -70q-142 0 -214.5 84.5t-72.5 220.5q0 82 18 193l93 551h258l-97 -574q-12 -74 -12 -123q0 -63 33.5 -105t103.5 -42
q104 0 185 100q84 107 102 219l88 525h258l-168 -1006q-80 -485 -551 -485z" />
    <glyph glyph-name="z" unicode="z" 
d="M854 -23q-139 0 -283 64l-254 111l-10 -7l-24 -145h-228l37 219l678 567q-78 51 -136.5 72t-121.5 21q-147 0 -147 -183h-195v21q0 173 88 268.5t242 95.5q204 0 399 -168l14 -12l13 12l24 144h228l-37 -219l-684 -572l438 -88l23 25l-64 209l158 65l30 -63
q60 -126 60 -203q0 -95 -68.5 -164.5t-179.5 -69.5z" />
    <glyph glyph-name="braceleft" unicode="{" 
d="M899 -283h-360q-102 0 -149.5 42t-47.5 114q0 37 20 150q12 62 39 115t49 79.5t59 64.5l9 9q51 52 68.5 83.5t17.5 63.5q0 111 -207 111h-186l29 176h186q121 0 185.5 37t64.5 106q0 53 -37 115q-2 3 -16.5 26.5t-18 30.5t-14 28.5t-14 35.5t-7.5 36t-4 44q0 15 21 170
q14 93 80 147.5t182 54.5h358l-28 -178h-381q-25 -142 -25 -172q0 -46 11.5 -76.5t39.5 -74.5q64 -105 64 -178q0 -97 -68 -158t-201 -76l-4 -14q100 -10 151.5 -55.5t51.5 -118.5q0 -35 -9.5 -66t-33.5 -64t-39 -50.5t-51 -55.5q-36 -39 -51 -57t-35.5 -59t-28.5 -91
l-20 -116h381z" />
    <glyph glyph-name="bar" unicode="|" 
d="M590 -283h-219l307 1839h219z" />
    <glyph glyph-name="braceright" unicode="}" 
d="M367 1556h360q102 0 149.5 -41.5t47.5 -113.5q0 -32 -21 -150q-10 -50 -25.5 -90.5t-42.5 -77t-40 -51t-47 -49.5q-51 -52 -68.5 -83.5t-17.5 -63.5q0 -111 206 -111h187l-29 -176h-186q-121 0 -185.5 -37t-64.5 -106q0 -53 37 -115q2 -4 14 -23t15.5 -25.5t12.5 -24
t13 -29t9 -28.5t7 -34.5t2 -36.5q0 -22 -20 -170q-14 -93 -80 -148t-182 -55h-359l29 179h381q25 142 25 172q0 32 -7.5 59.5t-16.5 44.5t-28 47q-63 104 -63 178q0 97 67.5 158t200.5 76l4 14q-100 10 -151 55.5t-51 118.5q0 35 9.5 66t33.5 64t39 50.5t51 55.5
q35 38 50.5 57t35.5 59.5t28 90.5l21 116h-381z" />
    <glyph glyph-name="asciitilde" unicode="~" 
d="M827 446q-57 0 -105.5 18t-115.5 54q-5 3 -26 14.5t-26.5 14.5t-22.5 12t-25.5 11.5t-22 7.5t-25 6.5t-22.5 1.5q-94 0 -162 -140l-176 91q46 120 135 193t203 73q57 0 105.5 -18t115.5 -54q4 -2 20 -11t21 -11.5t18.5 -10t19.5 -10t18 -8t19 -7.5t17 -4.5t19 -3.5t18 -1
q94 0 162 139l176 -90q-46 -120 -135.5 -193.5t-202.5 -73.5z" />
    <glyph glyph-name="uni00A0" unicode="&#xa0;" 
 />
    <glyph glyph-name="exclamdown" unicode="&#xa1;" 
d="M602 -373h-285l70 420l182 518h95l8 -518zM651 729q-85 0 -126.5 32t-41.5 85q0 18 13 90q25 143 198 143q85 0 126.5 -31.5t41.5 -84.5q0 -25 -12 -91q-25 -143 -199 -143z" />
    <glyph glyph-name="cent" unicode="&#xa2;" 
d="M412 -233l37 219q-156 32 -239 145t-83 291q0 265 137 447t367 208l35 213h198l-37 -221q117 -22 189.5 -87t99.5 -161l-201 -82q-38 111 -133 135l-116 -696q52 13 108 60t139 155l158 -94q-92 -148 -190.5 -225t-235.5 -94l-35 -213h-198zM377 391q0 -159 121 -203
l114 689q-82 -20 -134.5 -88t-69.5 -177l-21 -120q-10 -62 -10 -101z" />
    <glyph glyph-name="sterling" unicode="&#xa3;" 
d="M961 -25q-101 0 -299 66l-357 117l-24 -158h-232l41 252q113 48 172.5 120.5t59.5 188.5q0 27 -3 51h-215l31 187h154q-19 93 -19 159q0 216 150 356t375 140q160 0 268.5 -72.5t163.5 -197.5l-207 -119q-72 164 -236 164q-118 0 -187 -75t-69 -212q0 -63 17 -143h364
l-30 -187h-299q2 -8 2 -34q0 -85 -50 -144t-129 -74l-8 -14l541 -143l22 24l-45 207l183 49l22 -65q47 -133 47 -215q0 -95 -55 -161.5t-149 -66.5z" />
    <glyph glyph-name="yen" unicode="&#xa5;" 
d="M47 0l35 203h356l43 258h-358l35 203h270l-260 766h268l201 -670h14l426 670h287l-516 -766h272l-35 -203h-356l-43 -258h356l-32 -203h-963z" />
    <glyph glyph-name="brokenbar" unicode="&#xa6;" 
d="M774 819h-219l123 737h219zM590 -283h-219l123 738h219z" />
    <glyph glyph-name="section" unicode="&#xa7;" 
d="M940 31q0 -169 -120.5 -274t-330.5 -105q-119 0 -227.5 35t-175.5 104l141 160q44 -50 115.5 -78.5t149.5 -28.5q94 0 156.5 43t62.5 111q0 55 -37 89.5t-131 66.5l-140 47q-270 90 -270 274q0 244 289 318l4 22q-135 101 -135 260q0 169 120 274t330 105q119 0 228 -35
t176 -104l-141 -160q-44 50 -115.5 78.5t-149.5 28.5q-94 0 -156.5 -43t-62.5 -111q0 -55 37 -89.5t131 -66.5l139 -47q271 -91 271 -274q0 -244 -289 -318l-4 -22q135 -101 135 -260zM864 539q0 123 -164 172l-143 43q-23 7 -45 16q-77 -44 -111 -92.5t-34 -110.5
q0 -124 163 -172l144 -43q23 -7 45 -16q77 44 111 92.5t34 110.5z" />
    <glyph glyph-name="dieresis" unicode="&#xa8;" 
d="M438 1229q-139 0 -139 100q0 25 10 66q13 57 48.5 84.5t107.5 27.5q139 0 139 -100q0 -25 -10 -66q-13 -57 -48.5 -84.5t-107.5 -27.5zM866 1229q-139 0 -139 100q0 25 10 66q13 57 48.5 84.5t107.5 27.5q139 0 139 -100q0 -25 -10 -66q-13 -57 -48.5 -84.5t-107.5 -27.5
z" />
    <glyph glyph-name="copyright" unicode="&#xa9;" 
d="M555 37q-237 0 -384.5 156t-147.5 421q0 226 90.5 404t251.5 276.5t364 98.5q237 0 385 -156.5t148 -421.5q0 -226 -91 -404t-252 -276t-364 -98zM565 147q211 0 362 134t189 352q23 130 23 182q0 94 -24 175.5t-72.5 148t-131.5 105t-192 38.5q-211 0 -362 -133.5
t-189 -351.5q-23 -130 -23 -183q0 -94 24 -175.5t72.5 -148t131.5 -105t192 -38.5zM602 326q-146 0 -230.5 88t-84.5 237q0 121 51.5 224.5t145.5 167t210 63.5q229 0 287 -201l-166 -74q-23 107 -127 107q-67 0 -110 -42t-54 -110l-20 -127q-4 -23 -4 -49q0 -55 29.5 -85.5
t88.5 -30.5q97 0 168 106l144 -80q-118 -194 -328 -194z" />
    <glyph glyph-name="ordfeminine" unicode="&#xaa;" 
d="M934 707h-176l20 127h-16q-68 -142 -213 -142q-102 0 -161.5 49.5t-59.5 135.5q0 253 364 253h127l6 41q4 32 4 43q0 50 -34 75.5t-95 25.5q-111 0 -190 -96l-92 100q103 135 309 135q133 0 211 -57t78 -162q0 -39 -6 -76zM801 1020h-123q-145 0 -162 -92q-4 -16 -4 -37
q0 -72 104 -72q65 0 113 30.5t57 84.5z" />
    <glyph glyph-name="guillemotleft" unicode="&#xab;" 
d="M573 252l-104 -156l-352 348l39 234l450 338l66 -170l-326 -299zM1061 252l-105 -156l-352 348l39 234l451 338l65 -170l-325 -299z" />
    <glyph glyph-name="logicalnot" unicode="&#xac;" 
d="M1006 127h-213l65 395h-729l33 207h944z" />
    <glyph glyph-name="uni00AD" unicode="&#xad;" 
d="M926 498h-631l41 252h631z" />
    <glyph glyph-name="registered" unicode="&#xae;" 
d="M633 709q-147 0 -240.5 90t-93.5 239q0 172 120 294t300 122q147 0 240.5 -90.5t93.5 -239.5q0 -172 -120 -293.5t-300 -121.5zM635 791q128 0 208 69t103 184q10 52 10 82q0 111 -60 178.5t-179 67.5q-128 0 -208 -69.5t-103 -184.5q-11 -57 -11 -82q0 -111 60 -178
t180 -67zM614 1020l-20 -121h-102l63 379h184q58 0 88.5 -28.5t30.5 -75.5q0 -50 -25.5 -85t-68.5 -51l61 -139h-112l-47 121h-52zM627 1096h57q55 0 61 43q3 21 3 22q0 35 -46 35h-59z" />
    <glyph glyph-name="macron" unicode="&#xaf;" 
d="M346 1276l31 186h608l-33 -186h-606z" />
    <glyph glyph-name="degree" unicode="&#xb0;" 
d="M672 707q-152 0 -247 94t-95 243q0 174 121 292t297 118q152 0 247 -94t95 -244q0 -174 -121 -291.5t-297 -117.5zM684 879q96 0 156.5 67.5t60.5 165.5q0 74 -45.5 122t-120.5 48q-96 0 -156.5 -67.5t-60.5 -165.5q0 -74 45.5 -122t120.5 -48z" />
    <glyph glyph-name="plusminus" unicode="&#xb1;" 
d="M700 354h-225l60 365h-373l33 207h374l60 364h225l-59 -364h372l-32 -207h-375zM1016 0h-973l33 207h973z" />
    <glyph glyph-name="twosuperior" unicode="&#xb2;" 
d="M944 817l-22 -143h-564l27 157l277 189q79 54 104 80q35 38 43 80q4 20 4 34q0 37 -27 57.5t-67 20.5q-96 0 -133 -102l-152 57q86 195 295 195q118 0 194 -58.5t76 -162.5q0 -49 -18 -91.5t-55 -80.5t-76.5 -67t-99.5 -67l-156 -98h350z" />
    <glyph glyph-name="threesuperior" unicode="&#xb3;" 
d="M596 1133h80q115 0 133 69q4 16 4 33q0 31 -26.5 49.5t-71.5 18.5q-93 0 -164 -91l-100 107q113 123 282 123q122 0 191 -52.5t69 -138.5q0 -71 -45 -120t-131 -64v-4q135 -28 135 -162q0 -104 -84 -171.5t-231 -67.5q-215 0 -283 147l125 88q45 -96 158 -96
q107 0 129 86q4 16 4 31q0 35 -29.5 54t-83.5 19h-86z" />
    <glyph glyph-name="acute" unicode="&#xb4;" 
d="M944 1524l-285 -346l-151 82l231 374z" />
    <glyph glyph-name="mu" unicode="&#xb5;" 
d="M258 -410h-258l244 1467h258l-103 -619q-8 -66 -8 -98q0 -76 35.5 -118t105.5 -42q103 0 183 96q78 98 94 203l96 578h258l-176 -1057h-258l41 244h-10q-106 -269 -303 -269q-113 0 -152 103h-10v-258z" />
    <glyph glyph-name="paragraph" unicode="&#xb6;" 
d="M399 -305l136 809q-168 0 -276.5 108t-108.5 289q0 152 76.5 275t199 188.5t262.5 65.5h576l-289 -1735h-209l256 1534h-158l-256 -1534h-209z" />
    <glyph glyph-name="periodcentered" unicode="&#xb7;" 
d="M606 442q-88 0 -130 34.5t-42 90.5q0 27 12 92q11 68 65 110t148 42q88 0 130 -34.5t42 -90.5q0 -28 -12 -92q-11 -68 -65 -110t-148 -42z" />
    <glyph glyph-name="cedilla" unicode="&#xb8;" 
d="M584 -430q-83 0 -141.5 25t-86.5 65l97 100q42 -57 127 -57q42 0 70 16.5t28 47.5q0 63 -135 75l-49 4l77 209h127l-63 -172l6 -8q37 12 82 12q59 0 96 -31t37 -94q0 -91 -76.5 -141.5t-195.5 -50.5z" />
    <glyph glyph-name="onesuperior" unicode="&#xb9;" 
d="M934 674h-518l22 139h183l75 451l-178 -88l-55 127l254 127h182l-102 -617h161z" />
    <glyph glyph-name="ordmasculine" unicode="&#xba;" 
d="M655 692q-146 0 -228.5 83t-82.5 224q0 204 113.5 329.5t302.5 125.5q146 0 228.5 -83t82.5 -224q0 -204 -113.5 -329.5t-302.5 -125.5zM676 834q73 0 121.5 48t62.5 128l21 123q4 32 4 45q0 64 -38 99.5t-108 35.5q-73 0 -121.5 -48t-62.5 -128l-20 -123q-5 -40 -5 -45
q0 -64 38 -99.5t108 -35.5z" />
    <glyph glyph-name="guillemotright" unicode="&#xbb;" 
d="M137 96l-65 170l325 299l-227 295l104 156l353 -348l-39 -234zM625 96l-66 170l326 299l-228 295l105 156l352 -348l-39 -234z" />
    <glyph glyph-name="onequarter" unicode="&#xbc;" 
d="M868 0l23 131h-322l23 141l342 414h205l-74 -440h92l-18 -115h-92l-21 -131h-158zM713 246h196l49 286h-10zM113 743l22 129h178l70 416l-178 -84l-41 115l229 111h176l-92 -558h158l-23 -129h-499zM725 815l449 615h196l-448 -615h-197zM-76 0l449 614h196l-448 -614
h-197z" />
    <glyph glyph-name="onehalf" unicode="&#xbd;" 
d="M575 0l25 143l250 170q135 93 147 156q2 10 2 31q0 31 -25 50t-63 19q-81 0 -137 -104l-129 57q81 176 283 176q114 0 177.5 -53t63.5 -135q0 -22 -5.5 -43.5t-11.5 -38.5t-21.5 -37t-25 -32.5t-33 -31.5t-33 -27.5t-38.5 -28t-37.5 -25t-39.5 -25.5l-146 -94h344
l-20 -127h-527zM113 743l22 129h178l70 416l-178 -84l-41 115l229 111h176l-92 -558h158l-23 -129h-499zM725 815l449 615h196l-448 -615h-197zM-76 0l449 614h196l-448 -614h-197z" />
    <glyph glyph-name="threequarters" unicode="&#xbe;" 
d="M868 0l23 131h-322l23 141l342 414h205l-74 -440h92l-18 -115h-92l-21 -131h-158zM713 246h196l49 286h-10zM350 731q-195 0 -260 143l117 70q33 -88 145 -88q105 0 119 74q4 20 4 37q0 32 -30.5 50.5t-84.5 18.5h-59l21 119h65q110 0 125 70q4 20 4 30q0 28 -25 45
t-69 17q-86 0 -160 -84l-86 92q60 58 122.5 87.5t145.5 29.5q113 0 179.5 -46t66.5 -122q0 -68 -48.5 -114.5t-125.5 -57.5v-8q64 -6 98.5 -44.5t34.5 -97.5q0 -97 -82.5 -159t-216.5 -62zM725 815l449 615h196l-448 -615h-197zM-76 0l449 614h196l-448 -614h-197z" />
    <glyph glyph-name="questiondown" unicode="&#xbf;" 
d="M496 -397q-199 0 -313.5 100t-114.5 272q0 126 63.5 225t161.5 154t217 72l27 164h256l-52 -316q-187 -12 -277.5 -65t-113.5 -174q-4 -18 -4 -53q0 -73 52 -115.5t134 -42.5q175 0 250 194l207 -94q-57 -143 -180.5 -232t-312.5 -89zM690 729q-85 0 -126.5 32t-41.5 85
q0 18 13 90q25 143 198 143q85 0 126.5 -31.5t41.5 -84.5q0 -25 -12 -91q-25 -143 -199 -143z" />
    <glyph glyph-name="Agrave" unicode="&#xc0;" 
d="M1116 0h-272l-37 365h-434l-156 -365h-276l643 1430h364zM791 582l-56 589h-18l-254 -589h328zM748 1526l-209 356l223 100l143 -389z" />
    <glyph glyph-name="Aacute" unicode="&#xc1;" 
d="M1116 0h-272l-37 365h-434l-156 -365h-276l643 1430h364zM791 582l-56 589h-18l-254 -589h328zM1085 1872l-284 -346l-152 82l232 374z" />
    <glyph glyph-name="Acircumflex" unicode="&#xc2;" 
d="M1116 0h-272l-37 365h-434l-156 -365h-276l643 1430h364zM791 582l-56 589h-18l-254 -589h328zM721 1944h237l209 -318l-139 -98l-209 237l-276 -237l-125 102z" />
    <glyph glyph-name="Atilde" unicode="&#xc3;" 
d="M1116 0h-272l-37 365h-434l-156 -365h-276l643 1430h364zM791 582l-56 589h-18l-254 -589h328zM952 1573q-31 0 -60 7.5t-45 15t-48 24.5q-85 47 -146 47q-56 0 -129 -55l-73 121q98 125 237 125q31 0 60.5 -8t45.5 -15.5t48 -24.5q85 -47 145 -47q55 0 129 56l74 -121
q-44 -56 -105.5 -90.5t-132.5 -34.5z" />
    <glyph glyph-name="Adieresis" unicode="&#xc4;" 
d="M1116 0h-272l-37 365h-434l-156 -365h-276l643 1430h364zM791 582l-56 589h-18l-254 -589h328zM580 1577q-140 0 -140 100q0 21 11 66q13 57 48 84.5t107 27.5q139 0 139 -100q0 -24 -10 -65q-13 -57 -48 -85t-107 -28zM1008 1577q-140 0 -140 100q0 21 11 66
q13 57 48 84.5t107 27.5q140 0 140 -100q0 -20 -11 -65q-13 -57 -48 -85t-107 -28z" />
    <glyph glyph-name="Aring" unicode="&#xc5;" 
d="M1116 0h-272l-37 365h-434l-156 -365h-276l643 1430h364zM791 582l-56 589h-18l-254 -589h328zM776 1491q-105 0 -176.5 69t-71.5 171q0 131 94.5 219t227.5 88q105 0 176.5 -69t71.5 -171q0 -131 -94.5 -219t-227.5 -88zM793 1626q106 0 125 109q10 58 10 84
q0 84 -94 84q-106 0 -125 -109q-11 -64 -11 -84q0 -84 95 -84z" />
    <glyph glyph-name="AE" unicode="&#xc6;" 
d="M565 0l60 367h-240l-145 -367h-258l591 1430h799l-33 -201h-325l-68 -406h303l-32 -200h-304l-71 -422h325l-32 -201h-570zM772 1245h-49l-262 -680h198z" />
    <glyph glyph-name="Ccedilla" unicode="&#xc7;" 
d="M762 1237q-260 0 -326 -403l-37 -216q-16 -114 -16 -167q0 -258 229 -258q100 0 168 64.5t125 188.5l223 -73q-81 -185 -193.5 -283.5t-281.5 -112.5l-35 -94l7 -8q37 12 82 12q59 0 96 -31t37 -89q0 -94 -77.5 -145.5t-197.5 -51.5q-82 0 -139.5 25t-85.5 65l96 100
q42 -57 125 -57q45 0 73 16.5t28 47.5q0 60 -136 75l-49 4l47 131q-204 21 -304.5 158t-100.5 377q0 272 77.5 484.5t227.5 335t352 122.5q109 0 193 -29.5t136.5 -83.5t81.5 -123.5t36 -154.5l-250 -57q-12 113 -57.5 172t-153.5 59z" />
    <glyph glyph-name="Egrave" unicode="&#xc8;" 
d="M754 1526l-209 356l223 100l143 -389zM985 0h-903l237 1430h904l-37 -220h-641l-62 -376h615l-37 -220h-615l-65 -395h641z" />
    <glyph glyph-name="Eacute" unicode="&#xc9;" 
d="M985 0h-903l237 1430h904l-37 -220h-641l-62 -376h615l-37 -220h-615l-65 -395h641zM1092 1872l-285 -346l-152 82l232 374z" />
    <glyph glyph-name="Ecircumflex" unicode="&#xca;" 
d="M727 1944h238l209 -318l-140 -98l-209 237l-276 -237l-125 102zM985 0h-903l237 1430h904l-37 -220h-641l-62 -376h615l-37 -220h-615l-65 -395h641z" />
    <glyph glyph-name="Edieresis" unicode="&#xcb;" 
d="M985 0h-903l237 1430h904l-37 -220h-641l-62 -376h615l-37 -220h-615l-65 -395h641zM586 1577q-140 0 -140 100q0 21 11 66q13 57 48 84.5t107 27.5q140 0 140 -100q0 -20 -11 -65q-13 -57 -48 -85t-107 -28zM1014 1577q-140 0 -140 100q0 21 11 66q13 57 48 84.5
t107 27.5q140 0 140 -100q0 -20 -11 -65q-13 -57 -48 -85t-107 -28z" />
    <glyph glyph-name="Igrave" unicode="&#xcc;" 
d="M981 0h-909l32 199h324l172 1032h-324l33 199h910l-33 -199h-324l-172 -1032h324zM750 1526l-209 356l223 100l143 -389z" />
    <glyph glyph-name="Iacute" unicode="&#xcd;" 
d="M981 0h-909l32 199h324l172 1032h-324l33 199h910l-33 -199h-324l-172 -1032h324zM1087 1872l-284 -346l-152 82l232 374z" />
    <glyph glyph-name="Icircumflex" unicode="&#xce;" 
d="M981 0h-909l32 199h324l172 1032h-324l33 199h910l-33 -199h-324l-172 -1032h324zM723 1944h238l208 -318l-139 -98l-209 237l-276 -237l-125 102z" />
    <glyph glyph-name="Idieresis" unicode="&#xcf;" 
d="M981 0h-909l32 199h324l172 1032h-324l33 199h910l-33 -199h-324l-172 -1032h324zM582 1577q-140 0 -140 100q0 21 11 66q13 57 48 84.5t107 27.5q140 0 140 -100q0 -20 -11 -65q-13 -57 -48 -85t-107 -28zM1010 1577q-140 0 -140 100q0 21 11 66q13 57 48 84.5t107 27.5
q140 0 140 -100q0 -20 -11 -65q-13 -57 -48 -85t-107 -28z" />
    <glyph glyph-name="Eth" unicode="&#xd0;" 
d="M70 0l108 655h-131l33 199h131l96 576h402q232 0 356.5 -133.5t124.5 -372.5q0 -444 -176.5 -684t-499.5 -240h-444zM367 213h155q147 0 233 88.5t117 269.5l41 240q13 80 13 152q0 254 -244 254h-147l-62 -371h242l-31 -184h-242z" />
    <glyph glyph-name="Ntilde" unicode="&#xd1;" 
d="M956 1573q-31 0 -60 7.5t-45 15t-48 24.5q-85 47 -146 47q-56 0 -129 -55l-73 121q98 125 237 125q31 0 60.5 -8t45.5 -15.5t48 -24.5q85 -47 145 -47q55 0 129 56l74 -121q-44 -56 -105.5 -90.5t-132.5 -34.5zM676 0l-201 1040h-18l-172 -1040h-232l238 1430h327
l201 -1041h19l172 1041h231l-237 -1430h-328z" />
    <glyph glyph-name="Ograve" unicode="&#xd2;" 
d="M725 1526l-209 356l223 100l144 -389zM559 -25q-239 0 -354 135t-115 388q0 140 20.5 272t69 258t120 219t182 150t247.5 57q239 0 354 -134.5t115 -387.5q0 -140 -20.5 -272t-69 -258.5t-120 -219.5t-182 -150t-247.5 -57zM563 193q135 0 209.5 101t106.5 300l41 240
q12 82 12 155q0 248 -207 248q-134 0 -208.5 -101t-106.5 -300l-41 -240q-13 -89 -13 -156q0 -247 207 -247z" />
    <glyph glyph-name="Oacute" unicode="&#xd3;" 
d="M1063 1872l-285 -346l-151 82l231 374zM559 -25q-239 0 -354 135t-115 388q0 140 20.5 272t69 258t120 219t182 150t247.5 57q239 0 354 -134.5t115 -387.5q0 -140 -20.5 -272t-69 -258.5t-120 -219.5t-182 -150t-247.5 -57zM563 193q135 0 209.5 101t106.5 300l41 240
q12 82 12 155q0 248 -207 248q-134 0 -208.5 -101t-106.5 -300l-41 -240q-13 -89 -13 -156q0 -247 207 -247z" />
    <glyph glyph-name="Ocircumflex" unicode="&#xd4;" 
d="M698 1944h238l209 -318l-139 -98l-209 237l-277 -237l-125 102zM559 -25q-239 0 -354 135t-115 388q0 140 20.5 272t69 258t120 219t182 150t247.5 57q239 0 354 -134.5t115 -387.5q0 -140 -20.5 -272t-69 -258.5t-120 -219.5t-182 -150t-247.5 -57zM563 193
q135 0 209.5 101t106.5 300l41 240q12 82 12 155q0 248 -207 248q-134 0 -208.5 -101t-106.5 -300l-41 -240q-13 -89 -13 -156q0 -247 207 -247z" />
    <glyph glyph-name="Otilde" unicode="&#xd5;" 
d="M559 -25q-239 0 -354 135t-115 388q0 140 20.5 272t69 258t120 219t182 150t247.5 57q239 0 354 -134.5t115 -387.5q0 -140 -20.5 -272t-69 -258.5t-120 -219.5t-182 -150t-247.5 -57zM563 193q135 0 209.5 101t106.5 300l41 240q12 82 12 155q0 248 -207 248
q-134 0 -208.5 -101t-106.5 -300l-41 -240q-13 -89 -13 -156q0 -247 207 -247zM930 1573q-31 0 -60.5 7.5t-46 15.5t-47.5 24q-85 47 -145 47q-56 0 -129 -55l-74 121q44 56 105.5 90.5t132.5 34.5q31 0 60.5 -8t44.5 -15t48 -25q85 -47 146 -47q55 0 129 56l73 -121
q-98 -125 -237 -125z" />
    <glyph glyph-name="Odieresis" unicode="&#xd6;" 
d="M559 -25q-239 0 -354 135t-115 388q0 140 20.5 272t69 258t120 219t182 150t247.5 57q239 0 354 -134.5t115 -387.5q0 -140 -20.5 -272t-69 -258.5t-120 -219.5t-182 -150t-247.5 -57zM563 193q135 0 209.5 101t106.5 300l41 240q12 82 12 155q0 248 -207 248
q-134 0 -208.5 -101t-106.5 -300l-41 -240q-13 -89 -13 -156q0 -247 207 -247zM557 1577q-139 0 -139 100q0 25 10 66q13 57 48.5 84.5t107.5 27.5q139 0 139 -100q0 -24 -10 -65q-13 -57 -48.5 -85t-107.5 -28zM985 1577q-139 0 -139 100q0 25 10 66q13 57 48.5 84.5
t107.5 27.5q139 0 139 -100q0 -24 -10 -65q-13 -57 -48.5 -85t-107.5 -28z" />
    <glyph glyph-name="multiply" unicode="&#xd7;" 
d="M868 168l-254 307l-360 -307l-135 156l364 311l-254 307l168 141l254 -307l361 307l135 -155l-365 -312l254 -307z" />
    <glyph glyph-name="Oslash" unicode="&#xd8;" 
d="M559 -25q-184 0 -297 84l-133 -178l-162 105l174 227q-51 105 -51 285q0 140 20.5 272t69 258t120 219t182 150t247.5 57q184 0 297 -84l133 178l162 -104l-174 -227q51 -105 51 -285q0 -140 -20.5 -272t-69 -258.5t-120 -219.5t-182 -150t-247.5 -57zM367 616
q-15 -86 -15 -137v-10l535 702q-52 68 -162 68q-134 0 -211.5 -101.5t-110.5 -297.5zM563 190q134 0 211 102t111 298l37 223q14 80 14 137v11l-535 -703q52 -68 162 -68z" />
    <glyph glyph-name="Ugrave" unicode="&#xd9;" 
d="M743 1526l-208 356l223 100l143 -389zM279 1430h262l-144 -863q-24 -151 -24 -211q0 -79 44.5 -121t147.5 -42q50 0 88 9.5t65.5 32t46 48t32.5 68.5t22.5 81t18.5 98l149 900h262l-143 -863q-15 -88 -29.5 -151.5t-36.5 -129t-49.5 -110.5t-68 -85.5t-91.5 -64.5
t-120 -37.5t-154 -13.5q-98 0 -173.5 17t-126 48.5t-82.5 78t-46 102t-14 125.5q0 95 28 270z" />
    <glyph glyph-name="Uacute" unicode="&#xda;" 
d="M279 1430h262l-144 -863q-24 -151 -24 -211q0 -79 44.5 -121t147.5 -42q50 0 88 9.5t65.5 32t46 48t32.5 68.5t22.5 81t18.5 98l149 900h262l-143 -863q-15 -88 -29.5 -151.5t-36.5 -129t-49.5 -110.5t-68 -85.5t-91.5 -64.5t-120 -37.5t-154 -13.5q-98 0 -173.5 17
t-126 48.5t-82.5 78t-46 102t-14 125.5q0 95 28 270zM1081 1872l-284 -346l-152 82l232 374z" />
    <glyph glyph-name="Ucircumflex" unicode="&#xdb;" 
d="M717 1944h237l209 -318l-139 -98l-209 237l-276 -237l-125 102zM279 1430h262l-144 -863q-24 -151 -24 -211q0 -79 44.5 -121t147.5 -42q50 0 88 9.5t65.5 32t46 48t32.5 68.5t22.5 81t18.5 98l149 900h262l-143 -863q-15 -88 -29.5 -151.5t-36.5 -129t-49.5 -110.5
t-68 -85.5t-91.5 -64.5t-120 -37.5t-154 -13.5q-98 0 -173.5 17t-126 48.5t-82.5 78t-46 102t-14 125.5q0 95 28 270z" />
    <glyph glyph-name="Udieresis" unicode="&#xdc;" 
d="M279 1430h262l-144 -863q-24 -151 -24 -211q0 -79 44.5 -121t147.5 -42q50 0 88 9.5t65.5 32t46 48t32.5 68.5t22.5 81t18.5 98l149 900h262l-143 -863q-15 -88 -29.5 -151.5t-36.5 -129t-49.5 -110.5t-68 -85.5t-91.5 -64.5t-120 -37.5t-154 -13.5q-98 0 -173.5 17
t-126 48.5t-82.5 78t-46 102t-14 125.5q0 95 28 270zM575 1577q-139 0 -139 100q0 25 10 66q13 57 48.5 84.5t107.5 27.5q139 0 139 -100q0 -24 -10 -65q-13 -57 -48.5 -85t-107.5 -28zM1004 1577q-140 0 -140 100q0 25 10 66q13 57 48.5 84.5t107.5 27.5q139 0 139 -100
q0 -24 -10 -65q-13 -57 -48 -85t-107 -28z" />
    <glyph glyph-name="Yacute" unicode="&#xdd;" 
d="M659 0h-262l86 520l-315 910h281l112 -349l80 -295h16l183 295l223 349h297l-612 -902zM1073 1872l-285 -346l-151 82l231 374z" />
    <glyph glyph-name="Thorn" unicode="&#xde;" 
d="M340 0h-262l237 1430h263l-43 -263h251q182 0 279.5 -100t97.5 -266q0 -238 -133.5 -376t-363.5 -138h-279zM498 952l-74 -448h215q107 0 162.5 39.5t70.5 130.5l13 74q6 36 6 63q0 73 -43 107t-135 34h-215z" />
    <glyph glyph-name="germandbls" unicode="&#xdf;" 
d="M315 0h-254l205 1235q24 135 108.5 208t223.5 73h285l-33 -203h-315l-43 -256h679l-34 -199l-369 -430q152 -25 234.5 -110.5t82.5 -229.5q0 -235 -162 -366.5t-442 -131.5h-143l33 203h125q144 0 221.5 50.5t95.5 162.5q10 61 10 94q0 86 -65.5 124t-204.5 38h-45
l35 203l334 389h-420z" />
    <glyph glyph-name="agrave" unicode="&#xe0;" 
d="M989 0h-258l41 250h-8q-66 -134 -149.5 -204.5t-211.5 -70.5q-160 0 -237.5 107t-77.5 303q0 143 33 268.5t94 221t155 151t210 55.5q229 0 284 -217h10l33 193h258zM514 180q111 0 199 105q81 94 102 213l31 192q15 88 -33.5 137.5t-150.5 49.5q-121 0 -190.5 -72
t-90.5 -201l-23 -135q-8 -50 -8 -90q0 -93 40 -146t124 -53zM664 1178l-209 356l223 100l143 -389z" />
    <glyph glyph-name="aacute" unicode="&#xe1;" 
d="M989 0h-258l41 250h-8q-66 -134 -149.5 -204.5t-211.5 -70.5q-160 0 -237.5 107t-77.5 303q0 143 33 268.5t94 221t155 151t210 55.5q229 0 284 -217h10l33 193h258zM514 180q111 0 199 105q81 94 102 213l31 192q15 88 -33.5 137.5t-150.5 49.5q-121 0 -190.5 -72
t-90.5 -201l-23 -135q-8 -50 -8 -90q0 -93 40 -146t124 -53zM1001 1524l-284 -346l-152 82l232 374z" />
    <glyph glyph-name="acircumflex" unicode="&#xe2;" 
d="M989 0h-258l41 250h-8q-66 -134 -149.5 -204.5t-211.5 -70.5q-160 0 -237.5 107t-77.5 303q0 143 33 268.5t94 221t155 151t210 55.5q229 0 284 -217h10l33 193h258zM514 180q111 0 199 105q81 94 102 213l31 192q15 88 -33.5 137.5t-150.5 49.5q-121 0 -190.5 -72
t-90.5 -201l-23 -135q-8 -50 -8 -90q0 -93 40 -146t124 -53zM637 1595h237l209 -317l-139 -98l-209 237l-276 -237l-125 102z" />
    <glyph glyph-name="atilde" unicode="&#xe3;" 
d="M989 0h-258l41 250h-8q-66 -134 -149.5 -204.5t-211.5 -70.5q-160 0 -237.5 107t-77.5 303q0 143 33 268.5t94 221t155 151t210 55.5q229 0 284 -217h10l33 193h258zM514 180q111 0 199 105q81 94 102 213l31 192q15 88 -33.5 137.5t-150.5 49.5q-121 0 -190.5 -72
t-90.5 -201l-23 -135q-8 -50 -8 -90q0 -93 40 -146t124 -53zM856 1225q-31 0 -60.5 7.5t-46 15.5t-47.5 24q-85 47 -145 47q-56 0 -129 -55l-74 120q44 56 105.5 90.5t132.5 34.5q31 0 60 -7.5t45 -15t48 -24.5q85 -47 146 -47q56 0 129 55l74 -120q-44 -56 -105.5 -90.5
t-132.5 -34.5z" />
    <glyph glyph-name="adieresis" unicode="&#xe4;" 
d="M989 0h-258l41 250h-8q-66 -134 -149.5 -204.5t-211.5 -70.5q-160 0 -237.5 107t-77.5 303q0 143 33 268.5t94 221t155 151t210 55.5q229 0 284 -217h10l33 193h258zM514 180q111 0 199 105q81 94 102 213l31 192q15 88 -33.5 137.5t-150.5 49.5q-121 0 -190.5 -72
t-90.5 -201l-23 -135q-8 -50 -8 -90q0 -93 40 -146t124 -53zM496 1229q-140 0 -140 100q0 21 11 66q13 57 48 84.5t107 27.5q140 0 140 -100q0 -21 -11 -66q-13 -57 -48 -84.5t-107 -27.5zM924 1229q-140 0 -140 100q0 21 11 66q13 57 48 84.5t107 27.5q140 0 140 -100
q0 -21 -11 -66q-13 -57 -48 -84.5t-107 -27.5z" />
    <glyph glyph-name="aring" unicode="&#xe5;" 
d="M989 0h-258l41 250h-8q-66 -134 -149.5 -204.5t-211.5 -70.5q-160 0 -237.5 107t-77.5 303q0 143 33 268.5t94 221t155 151t210 55.5q229 0 284 -217h10l33 193h258zM514 180q111 0 199 105q81 94 102 213l31 192q15 88 -33.5 137.5t-150.5 49.5q-121 0 -190.5 -72
t-90.5 -201l-23 -135q-8 -50 -8 -90q0 -93 40 -146t124 -53zM692 1143q-106 0 -177 69t-71 170q0 132 94.5 220t227.5 88q105 0 176.5 -69t71.5 -171q0 -131 -94.5 -219t-227.5 -88zM709 1278q106 0 125 108q10 58 10 84q0 84 -94 84q-106 0 -125 -108q-11 -64 -11 -84
q0 -84 95 -84z" />
    <glyph glyph-name="ae" unicode="&#xe6;" 
d="M231 -25q-110 0 -175.5 69t-65.5 200q0 170 113 266.5t315 101.5l96 2l14 95q9 65 9 71q0 67 -30.5 101t-86.5 34q-60 0 -103.5 -37.5t-80.5 -113.5l-142 88q55 118 137 173.5t199 55.5q105 0 168 -44.5t70 -129.5h8q45 81 117 127.5t168 46.5q121 0 193.5 -73t72.5 -193
q0 -49 -13 -93.5t-49 -90.5t-93 -80t-152.5 -56.5t-219.5 -25.5l-4 -27q-8 -49 -8 -106q0 -89 32.5 -137.5t94.5 -48.5q58 0 96.5 41t73.5 120l164 -71q-113 -265 -348 -265q-119 0 -196 62.5t-89 187.5h-10q-29 -123 -99 -186.5t-176 -63.5zM293 139q67 0 113 54.5
t63 154.5l20 123l-75 -2q-97 -3 -152.5 -39.5t-68.5 -116.5q-7 -45 -7 -67q0 -52 29.5 -79.5t77.5 -27.5zM934 918q-76 0 -129.5 -75.5t-75.5 -205.5l-4 -25q164 6 237.5 59.5t73.5 137.5q0 53 -26.5 81t-75.5 28z" />
    <glyph glyph-name="ccedilla" unicode="&#xe7;" 
d="M700 1081q170 0 267.5 -70.5t130.5 -193.5l-211 -96q-26 78 -72.5 113.5t-134.5 35.5q-103 0 -171 -66.5t-89 -193.5l-21 -123q-8 -41 -8 -96q0 -99 51.5 -152t155.5 -53q49 0 87 14.5t95 67t131 152.5l166 -105q-101 -161 -206.5 -243t-252.5 -95l-34 -94l6 -8
q37 12 82 12q59 0 96 -31t37 -89q0 -94 -77.5 -145.5t-197.5 -51.5q-82 0 -139.5 25t-85.5 65l96 100q42 -57 125 -57q45 0 73 16.5t28 47.5q0 65 -135 75l-50 4l50 134q-177 19 -271 134.5t-94 307.5q0 187 68.5 336t200 236t304.5 87z" />
    <glyph glyph-name="egrave" unicode="&#xe8;" 
d="M573 -25q-222 0 -335 117t-113 336q0 292 168.5 472.5t441.5 180.5q166 0 273.5 -75.5t107.5 -212.5q0 -55 -15.5 -100t-62.5 -93.5t-125 -83.5t-212.5 -60t-315.5 -32q-2 -16 -2 -37q0 -100 51.5 -154.5t169.5 -54.5q96 0 161.5 41.5t149.5 153.5l164 -105
q-46 -69 -92 -118.5t-106.5 -91t-137.5 -62.5t-170 -21zM711 893q-243 0 -301 -285l-7 -30q121 6 209 21t135.5 33t75 44t34.5 47.5t7 48.5q0 121 -153 121zM700 1178l-208 356l223 100l143 -389z" />
    <glyph glyph-name="eacute" unicode="&#xe9;" 
d="M1038 1524l-284 -346l-152 82l232 374zM573 -25q-222 0 -335 117t-113 336q0 292 168.5 472.5t441.5 180.5q166 0 273.5 -75.5t107.5 -212.5q0 -55 -15.5 -100t-62.5 -93.5t-125 -83.5t-212.5 -60t-315.5 -32q-2 -16 -2 -37q0 -100 51.5 -154.5t169.5 -54.5
q96 0 161.5 41.5t149.5 153.5l164 -105q-46 -69 -92 -118.5t-106.5 -91t-137.5 -62.5t-170 -21zM711 893q-243 0 -301 -285l-7 -30q121 6 209 21t135.5 33t75 44t34.5 47.5t7 48.5q0 121 -153 121z" />
    <glyph glyph-name="ecircumflex" unicode="&#xea;" 
d="M674 1595h237l209 -317l-139 -98l-209 237l-276 -237l-125 102zM573 -25q-222 0 -335 117t-113 336q0 292 168.5 472.5t441.5 180.5q166 0 273.5 -75.5t107.5 -212.5q0 -55 -15.5 -100t-62.5 -93.5t-125 -83.5t-212.5 -60t-315.5 -32q-2 -16 -2 -37q0 -100 51.5 -154.5
t169.5 -54.5q96 0 161.5 41.5t149.5 153.5l164 -105q-46 -69 -92 -118.5t-106.5 -91t-137.5 -62.5t-170 -21zM711 893q-243 0 -301 -285l-7 -30q121 6 209 21t135.5 33t75 44t34.5 47.5t7 48.5q0 121 -153 121z" />
    <glyph glyph-name="edieresis" unicode="&#xeb;" 
d="M532 1229q-139 0 -139 100q0 25 10 66q13 57 48.5 84.5t107.5 27.5q139 0 139 -100q0 -25 -10 -66q-13 -57 -48.5 -84.5t-107.5 -27.5zM961 1229q-140 0 -140 100q0 25 10 66q13 57 48.5 84.5t107.5 27.5q139 0 139 -100q0 -25 -10 -66q-13 -57 -48 -84.5t-107 -27.5z
M573 -25q-222 0 -335 117t-113 336q0 292 168.5 472.5t441.5 180.5q166 0 273.5 -75.5t107.5 -212.5q0 -55 -15.5 -100t-62.5 -93.5t-125 -83.5t-212.5 -60t-315.5 -32q-2 -16 -2 -37q0 -100 51.5 -154.5t169.5 -54.5q96 0 161.5 41.5t149.5 153.5l164 -105
q-46 -69 -92 -118.5t-106.5 -91t-137.5 -62.5t-170 -21zM711 893q-243 0 -301 -285l-7 -30q121 6 209 21t135.5 33t75 44t34.5 47.5t7 48.5q0 121 -153 121z" />
    <glyph glyph-name="igrave" unicode="&#xec;" 
d="M594 -25q-108 0 -166.5 58t-58.5 157q0 41 18 140l100 522h-340l35 205h600l-166 -864l39 -13l322 309l143 -129l-143 -151q-119 -127 -204.5 -180.5t-178.5 -53.5zM639 1178l-209 356l223 100l144 -389z" />
    <glyph glyph-name="iacute" unicode="&#xed;" 
d="M977 1524l-285 -346l-151 82l231 374zM594 -25q-108 0 -166.5 58t-58.5 157q0 41 18 140l100 522h-340l35 205h600l-166 -864l39 -13l322 309l143 -129l-143 -151q-119 -127 -204.5 -180.5t-178.5 -53.5z" />
    <glyph glyph-name="icircumflex" unicode="&#xee;" 
d="M612 1595h238l209 -317l-139 -98l-209 237l-277 -237l-125 102zM594 -25q-108 0 -166.5 58t-58.5 157q0 41 18 140l100 522h-340l35 205h600l-166 -864l39 -13l322 309l143 -129l-143 -151q-119 -127 -204.5 -180.5t-178.5 -53.5z" />
    <glyph glyph-name="idieresis" unicode="&#xef;" 
d="M471 1229q-139 0 -139 100q0 25 10 66q13 57 48.5 84.5t107.5 27.5q139 0 139 -100q0 -25 -10 -66q-13 -57 -48.5 -84.5t-107.5 -27.5zM899 1229q-139 0 -139 100q0 25 10 66q13 57 48.5 84.5t107.5 27.5q139 0 139 -100q0 -25 -10 -66q-13 -57 -48.5 -84.5t-107.5 -27.5
zM594 -25q-108 0 -166.5 58t-58.5 157q0 41 18 140l100 522h-340l35 205h600l-166 -864l39 -13l322 309l143 -129l-143 -151q-119 -127 -204.5 -180.5t-178.5 -53.5z" />
    <glyph glyph-name="eth" unicode="&#xf0;" 
d="M1118 1427l-180 -102q207 -256 207 -612q0 -359 -167 -548.5t-454 -189.5q-207 0 -324.5 118.5t-117.5 320.5q0 173 66.5 313t184.5 219.5t263 79.5q110 0 184.5 -50t110.5 -142l14 6q-26 186 -178 368l-211 -118l-78 114l191 107q-129 119 -287 205h397q77 -63 103 -89
l200 115zM555 174q116 0 191.5 69t97.5 197l18 111q8 44 8 78q0 96 -56.5 146t-156.5 50q-116 0 -191 -69t-97 -197l-19 -110q-8 -44 -8 -78q0 -96 56.5 -146.5t156.5 -50.5z" />
    <glyph glyph-name="ntilde" unicode="&#xf1;" 
d="M330 0h-258l176 1057h258l-41 -250h10q63 135 144 204.5t202 69.5q142 0 214.5 -84.5t72.5 -220.5q0 -70 -21 -196l-96 -580h-258l101 604q14 86 14 127q0 63 -33.5 105.5t-103.5 42.5q-102 0 -185 -103q-86 -110 -104 -219zM866 1225q-31 0 -60 7.5t-45 15t-48 24.5
q-85 47 -146 47q-56 0 -129 -55l-73 120q98 125 237 125q31 0 60.5 -7.5t46 -15.5t47.5 -24q85 -47 145 -47q56 0 129 55l74 -120q-44 -56 -105.5 -90.5t-132.5 -34.5z" />
    <glyph glyph-name="ograve" unicode="&#xf2;" 
d="M543 -25q-208 0 -325.5 122.5t-117.5 330.5q0 298 163 475.5t423 177.5q208 0 325 -122t117 -330q0 -149 -43.5 -272t-120.5 -206.5t-185 -129.5t-236 -46zM561 174q113 0 183 68.5t92 195.5l24 146q10 55 10 92q0 102 -53 154.5t-149 52.5q-113 0 -183 -69t-92 -196
l-24 -145q-11 -61 -11 -92q0 -102 53.5 -154.5t149.5 -52.5zM694 1178l-209 356l224 100l143 -389z" />
    <glyph glyph-name="oacute" unicode="&#xf3;" 
d="M1032 1524l-284 -346l-152 82l231 374zM543 -25q-208 0 -325.5 122.5t-117.5 330.5q0 298 163 475.5t423 177.5q208 0 325 -122t117 -330q0 -149 -43.5 -272t-120.5 -206.5t-185 -129.5t-236 -46zM561 174q113 0 183 68.5t92 195.5l24 146q10 55 10 92q0 102 -53 154.5
t-149 52.5q-113 0 -183 -69t-92 -196l-24 -145q-11 -61 -11 -92q0 -102 53.5 -154.5t149.5 -52.5z" />
    <glyph glyph-name="ocircumflex" unicode="&#xf4;" 
d="M668 1595h237l209 -317l-139 -98l-209 237l-277 -237l-124 102zM543 -25q-208 0 -325.5 122.5t-117.5 330.5q0 298 163 475.5t423 177.5q208 0 325 -122t117 -330q0 -149 -43.5 -272t-120.5 -206.5t-185 -129.5t-236 -46zM561 174q113 0 183 68.5t92 195.5l24 146
q10 55 10 92q0 102 -53 154.5t-149 52.5q-113 0 -183 -69t-92 -196l-24 -145q-11 -61 -11 -92q0 -102 53.5 -154.5t149.5 -52.5z" />
    <glyph glyph-name="otilde" unicode="&#xf5;" 
d="M543 -25q-208 0 -325.5 122.5t-117.5 330.5q0 298 163 475.5t423 177.5q208 0 325 -122t117 -330q0 -149 -43.5 -272t-120.5 -206.5t-185 -129.5t-236 -46zM561 174q113 0 183 68.5t92 195.5l24 146q10 55 10 92q0 102 -53 154.5t-149 52.5q-113 0 -183 -69t-92 -196
l-24 -145q-11 -61 -11 -92q0 -102 53.5 -154.5t149.5 -52.5zM887 1225q-31 0 -60.5 7.5t-46 15.5t-47.5 24q-85 47 -145 47q-56 0 -129 -55l-74 120q44 56 105.5 90.5t132.5 34.5q31 0 60 -7.5t45 -15t48 -24.5q85 -47 146 -47q56 0 129 55l73 -120q-98 -125 -237 -125z" />
    <glyph glyph-name="odieresis" unicode="&#xf6;" 
d="M526 1229q-139 0 -139 100q0 25 10 66q13 57 48.5 84.5t107.5 27.5q139 0 139 -100q0 -25 -10 -66q-13 -57 -48.5 -84.5t-107.5 -27.5zM954 1229q-139 0 -139 100q0 25 10 66q13 57 48.5 84.5t107.5 27.5q139 0 139 -100q0 -25 -10 -66q-13 -57 -48.5 -84.5t-107.5 -27.5
zM543 -25q-208 0 -325.5 122.5t-117.5 330.5q0 298 163 475.5t423 177.5q208 0 325 -122t117 -330q0 -149 -43.5 -272t-120.5 -206.5t-185 -129.5t-236 -46zM561 174q113 0 183 68.5t92 195.5l24 146q10 55 10 92q0 102 -53 154.5t-149 52.5q-113 0 -183 -69t-92 -196
l-24 -145q-11 -61 -11 -92q0 -102 53.5 -154.5t149.5 -52.5z" />
    <glyph glyph-name="divide" unicode="&#xf7;" 
d="M1102 522h-973l33 207h973zM547 76q-75 0 -111.5 28t-36.5 74q0 28 9 72q24 127 176 127q75 0 111 -28.5t36 -74.5q0 -32 -8 -71q-24 -127 -176 -127zM680 874q-75 0 -111.5 28.5t-36.5 74.5q0 29 9 72q24 127 176 127q75 0 111 -28.5t36 -74.5q0 -33 -8 -72
q-24 -127 -176 -127z" />
    <glyph glyph-name="oslash" unicode="&#xf8;" 
d="M104 -104l-124 108l176 180q-56 109 -56 244q0 298 163 475.5t423 177.5q168 0 281 -84l157 164l125 -108l-176 -181q55 -107 55 -243q0 -149 -43.5 -272t-120.5 -206.5t-185 -129.5t-236 -46q-168 0 -281 84zM668 883q-113 0 -184 -68.5t-91 -193.5l-24 -148
q-11 -74 -11 -84v-12l449 463q-49 43 -139 43zM561 174q114 0 184.5 68t90.5 194l24 148q10 73 10 84v12l-448 -463q49 -43 139 -43z" />
    <glyph glyph-name="ugrave" unicode="&#xf9;" 
d="M723 0l41 250h-10q-63 -135 -144 -205t-202 -70q-142 0 -214.5 85t-72.5 221q0 76 20 196l97 580h258l-101 -604q-14 -86 -14 -127q0 -63 33.5 -105.5t103.5 -42.5q101 0 184 103q87 112 105 219l92 557h258l-176 -1057h-258zM684 1178l-209 356l223 100l144 -389z" />
    <glyph glyph-name="uacute" unicode="&#xfa;" 
d="M1022 1524l-285 -346l-151 82l231 374zM723 0l41 250h-10q-63 -135 -144 -205t-202 -70q-142 0 -214.5 85t-72.5 221q0 76 20 196l97 580h258l-101 -604q-14 -86 -14 -127q0 -63 33.5 -105.5t103.5 -42.5q101 0 184 103q87 112 105 219l92 557h258l-176 -1057h-258z" />
    <glyph glyph-name="ucircumflex" unicode="&#xfb;" 
d="M657 1595h238l209 -317l-139 -98l-209 237l-277 -237l-125 102zM723 0l41 250h-10q-63 -135 -144 -205t-202 -70q-142 0 -214.5 85t-72.5 221q0 76 20 196l97 580h258l-101 -604q-14 -86 -14 -127q0 -63 33.5 -105.5t103.5 -42.5q101 0 184 103q87 112 105 219l92 557
h258l-176 -1057h-258z" />
    <glyph glyph-name="udieresis" unicode="&#xfc;" 
d="M516 1229q-139 0 -139 100q0 25 10 66q13 57 48.5 84.5t107.5 27.5q139 0 139 -100q0 -25 -10 -66q-13 -57 -48.5 -84.5t-107.5 -27.5zM944 1229q-139 0 -139 100q0 25 10 66q13 57 48.5 84.5t107.5 27.5q139 0 139 -100q0 -25 -10 -66q-13 -57 -48.5 -84.5t-107.5 -27.5
zM723 0l41 250h-10q-63 -135 -144 -205t-202 -70q-142 0 -214.5 85t-72.5 221q0 76 20 196l97 580h258l-101 -604q-14 -86 -14 -127q0 -63 33.5 -105.5t103.5 -42.5q101 0 184 103q87 112 105 219l92 557h258l-176 -1057h-258z" />
    <glyph glyph-name="yacute" unicode="&#xfd;" 
d="M438 -434q-147 0 -245 34t-168 117l157 162q87 -108 252 -108q65 0 112.5 14.5t86.5 50t64.5 97t39.5 153.5l33 199h-10q-63 -137 -144 -207t-202 -70q-142 0 -214.5 84.5t-72.5 220.5q0 82 18 193l93 551h258l-97 -574q-12 -74 -12 -123q0 -63 33.5 -105t103.5 -42
q104 0 185 100q84 107 102 219l88 525h258l-168 -1006q-80 -485 -551 -485zM1040 1524l-284 -346l-152 82l232 374z" />
    <glyph glyph-name="thorn" unicode="&#xfe;" 
d="M-6 -410l321 1926h258l-118 -709h10q66 134 149 204t211 70q160 0 238 -106.5t78 -302.5q0 -143 -33 -269t-94 -221.5t-155 -151t-210 -55.5q-229 0 -284 218h-13l-100 -603h-258zM567 180q121 0 190.5 72t90.5 201l20 127q11 69 11 98q0 93 -40 146t-124 53
q-111 0 -199 -105q-81 -94 -102 -213l-31 -192q-15 -88 33.5 -137.5t150.5 -49.5z" />
    <glyph glyph-name="ydieresis" unicode="&#xff;" 
d="M438 -434q-147 0 -245 34t-168 117l157 162q87 -108 252 -108q65 0 112.5 14.5t86.5 50t64.5 97t39.5 153.5l33 199h-10q-63 -137 -144 -207t-202 -70q-142 0 -214.5 84.5t-72.5 220.5q0 82 18 193l93 551h258l-97 -574q-12 -74 -12 -123q0 -63 33.5 -105t103.5 -42
q104 0 185 100q84 107 102 219l88 525h258l-168 -1006q-80 -485 -551 -485zM535 1229q-140 0 -140 100q0 21 11 66q13 57 48 84.5t107 27.5q139 0 139 -100q0 -25 -10 -66q-13 -57 -48 -84.5t-107 -27.5zM963 1229q-140 0 -140 100q0 21 11 66q13 57 48 84.5t107 27.5
q139 0 139 -100q0 -25 -10 -66q-13 -57 -48 -84.5t-107 -27.5z" />
    <glyph glyph-name="Amacron" unicode="&#x100;" 
d="M1116 0h-272l-37 365h-434l-156 -365h-276l643 1430h364zM791 582l-56 589h-18l-254 -589h328zM487 1624l31 186h608l-32 -186h-607z" />
    <glyph glyph-name="amacron" unicode="&#x101;" 
d="M989 0h-258l41 250h-8q-66 -134 -149.5 -204.5t-211.5 -70.5q-160 0 -237.5 107t-77.5 303q0 143 33 268.5t94 221t155 151t210 55.5q229 0 284 -217h10l33 193h258zM514 180q111 0 199 105q81 94 102 213l31 192q15 88 -33.5 137.5t-150.5 49.5q-121 0 -190.5 -72
t-90.5 -201l-23 -135q-8 -50 -8 -90q0 -93 40 -146t124 -53zM403 1276l31 186h608l-32 -186h-607z" />
    <glyph glyph-name="Abreve" unicode="&#x102;" 
d="M1116 0h-272l-37 365h-434l-156 -365h-276l643 1430h364zM791 582l-56 589h-18l-254 -589h328zM797 1532q-267 0 -342 336l145 71l37 -73q29 -56 47 -83t49.5 -47t73.5 -20q38 0 70.5 18.5t58 47t70.5 88.5l53 69l149 -71q-28 -56 -52.5 -97.5t-63 -89t-78.5 -78
t-96.5 -51t-120.5 -20.5z" />
    <glyph glyph-name="abreve" unicode="&#x103;" 
d="M989 0h-258l41 250h-8q-66 -134 -149.5 -204.5t-211.5 -70.5q-160 0 -237.5 107t-77.5 303q0 143 33 268.5t94 221t155 151t210 55.5q229 0 284 -217h10l33 193h258zM514 180q111 0 199 105q81 94 102 213l31 192q15 88 -33.5 137.5t-150.5 49.5q-121 0 -190.5 -72
t-90.5 -201l-23 -135q-8 -50 -8 -90q0 -93 40 -146t124 -53zM713 1184q-267 0 -342 336l145 71l37 -73q29 -56 47 -83t49.5 -47t73.5 -20q38 0 70.5 18.5t58 47t70.5 88.5l53 69l149 -71q-28 -56 -52.5 -97.5t-63 -89t-78.5 -78t-96.5 -51t-120.5 -20.5z" />
    <glyph glyph-name="Aogonek" unicode="&#x104;" 
d="M-59 0l643 1430h364l168 -1430q-147 -90 -194.5 -141.5t-47.5 -91.5q0 -28 19.5 -45t54.5 -17q69 0 111 55l102 -92q-84 -98 -235 -98q-104 0 -169 43t-65 123q0 81 70 146.5t207 107.5v10h-125l-37 365h-434l-156 -365h-276zM791 582l-56 589h-18l-254 -589h328z" />
    <glyph glyph-name="aogonek" unicode="&#x105;" 
d="M1165 1057l-176 -1057q-145 -90 -192 -141.5t-47 -91.5q0 -28 19.5 -45t55.5 -17q67 0 109 55l102 -92q-84 -98 -235 -98q-104 0 -170 43t-66 123q0 81 70 146.5t209 107.5l-2 10h-111l41 250h-8q-66 -134 -149.5 -204.5t-211.5 -70.5q-160 0 -237.5 107t-77.5 303
q0 143 33 268.5t94 221t155 151t210 55.5q229 0 284 -217h10l33 193h258zM514 180q111 0 199 105q81 94 102 213l31 192q15 88 -33.5 137.5t-150.5 49.5q-121 0 -190.5 -72t-90.5 -201l-23 -135q-8 -50 -8 -90q0 -93 40 -146t124 -53z" />
    <glyph glyph-name="Cacute" unicode="&#x106;" 
d="M592 -25q-239 0 -356 138.5t-117 398.5q0 272 77.5 484.5t227.5 335t352 122.5q109 0 193 -29.5t136.5 -83.5t81.5 -123.5t36 -154.5l-250 -57q-12 113 -57.5 172t-153.5 59q-257 0 -326 -403l-37 -216q-16 -91 -16 -167q0 -258 229 -258q100 0 168 64.5t125 188.5
l223 -73q-87 -200 -213.5 -299t-322.5 -99zM1100 1872l-285 -346l-151 82l231 374z" />
    <glyph glyph-name="cacute" unicode="&#x107;" 
d="M1024 1524l-285 -346l-151 82l231 374zM557 -25q-207 0 -318.5 118.5t-111.5 328.5q0 187 68.5 336t200 236t304.5 87q170 0 267.5 -70.5t130.5 -193.5l-211 -96q-26 78 -72.5 113.5t-134.5 35.5q-103 0 -171 -66t-89 -194l-21 -123q-8 -41 -8 -96q0 -99 51.5 -152
t155.5 -53q49 0 87 14.5t95 67t131 152.5l166 -105q-74 -116 -143.5 -187t-163.5 -112t-213 -41z" />
    <glyph glyph-name="Ccircumflex" unicode="&#x108;" 
d="M592 -25q-239 0 -356 138.5t-117 398.5q0 272 77.5 484.5t227.5 335t352 122.5q109 0 193 -29.5t136.5 -83.5t81.5 -123.5t36 -154.5l-250 -57q-12 113 -57.5 172t-153.5 59q-257 0 -326 -403l-37 -216q-16 -91 -16 -167q0 -258 229 -258q100 0 168 64.5t125 188.5
l223 -73q-87 -200 -213.5 -299t-322.5 -99zM735 1944h238l209 -318l-140 -98l-208 237l-277 -237l-125 102z" />
    <glyph glyph-name="ccircumflex" unicode="&#x109;" 
d="M659 1595h238l209 -317l-139 -98l-209 237l-277 -237l-125 102zM557 -25q-207 0 -318.5 118.5t-111.5 328.5q0 187 68.5 336t200 236t304.5 87q170 0 267.5 -70.5t130.5 -193.5l-211 -96q-26 78 -72.5 113.5t-134.5 35.5q-103 0 -171 -66t-89 -194l-21 -123
q-8 -41 -8 -96q0 -99 51.5 -152t155.5 -53q49 0 87 14.5t95 67t131 152.5l166 -105q-74 -116 -143.5 -187t-163.5 -112t-213 -41z" />
    <glyph glyph-name="Cdotaccent" unicode="&#x10a;" 
d="M807 1561q-80 0 -117 30.5t-37 81.5q0 8 11 72q19 127 174 127q80 0 116.5 -31t36.5 -82q0 -13 -10 -71q-19 -127 -174 -127zM592 -25q-239 0 -356 138.5t-117 398.5q0 272 77.5 484.5t227.5 335t352 122.5q109 0 193 -29.5t136.5 -83.5t81.5 -123.5t36 -154.5l-250 -57
q-12 113 -57.5 172t-153.5 59q-257 0 -326 -403l-37 -216q-16 -91 -16 -167q0 -258 229 -258q100 0 168 64.5t125 188.5l223 -73q-87 -200 -213.5 -299t-322.5 -99z" />
    <glyph glyph-name="cdotaccent" unicode="&#x10b;" 
d="M557 -25q-207 0 -318.5 118.5t-111.5 328.5q0 187 68.5 336t200 236t304.5 87q170 0 267.5 -70.5t130.5 -193.5l-211 -96q-26 78 -72.5 113.5t-134.5 35.5q-103 0 -171 -66t-89 -194l-21 -123q-8 -41 -8 -96q0 -99 51.5 -152t155.5 -53q49 0 87 14.5t95 67t131 152.5
l166 -105q-74 -116 -143.5 -187t-163.5 -112t-213 -41zM729 1212q-80 0 -117 31t-37 82q0 8 11 72q19 127 174 127q80 0 116.5 -31t36.5 -82q0 -14 -10 -72q-19 -127 -174 -127z" />
    <glyph glyph-name="Ccaron" unicode="&#x10c;" 
d="M592 -25q-239 0 -356 138.5t-117 398.5q0 272 77.5 484.5t227.5 335t352 122.5q109 0 193 -29.5t136.5 -83.5t81.5 -123.5t36 -154.5l-250 -57q-12 113 -57.5 172t-153.5 59q-257 0 -326 -403l-37 -216q-16 -91 -16 -167q0 -258 229 -258q100 0 168 64.5t125 188.5
l223 -73q-87 -200 -213.5 -299t-322.5 -99zM920 1546h-238l-209 318l139 98l209 -238l277 238l125 -102z" />
    <glyph glyph-name="ccaron" unicode="&#x10d;" 
d="M842 1198h-238l-209 318l140 98l208 -238l277 238l125 -103zM557 -25q-207 0 -318.5 118.5t-111.5 328.5q0 187 68.5 336t200 236t304.5 87q170 0 267.5 -70.5t130.5 -193.5l-211 -96q-26 78 -72.5 113.5t-134.5 35.5q-103 0 -171 -66t-89 -194l-21 -123q-8 -41 -8 -96
q0 -99 51.5 -152t155.5 -53q49 0 87 14.5t95 67t131 152.5l166 -105q-74 -116 -143.5 -187t-163.5 -112t-213 -41z" />
    <glyph glyph-name="Dcaron" unicode="&#x10e;" 
d="M70 0l237 1430h402q232 0 356.5 -133.5t124.5 -372.5q0 -444 -176.5 -684t-499.5 -240h-444zM367 213h155q147 0 233 88.5t117 269.5l41 240q13 80 13 152q0 254 -244 254h-147zM811 1546h-238l-208 318l139 98l209 -238l276 238l125 -102z" />
    <glyph glyph-name="dcaron" unicode="&#x10f;" 
d="M334 -25q-144 0 -213.5 106.5t-69.5 303.5q0 192 49 348t148 252t233 96q105 0 165.5 -55t86.5 -162h10l109 652h248l-252 -1516h-248l35 211h-12q-28 -56 -54 -95.5t-61 -73t-78 -50.5t-96 -17zM442 180q71 0 133 62q80 80 99 202l41 248q15 87 -27 136t-123 49
q-178 0 -223 -269l-23 -135q-10 -62 -10 -115q0 -81 35 -129.5t98 -48.5zM1145 1100l74 416h247l-176 -416h-145z" />
    <glyph glyph-name="Dcroat" unicode="&#x110;" 
d="M70 0l108 655h-131l33 199h131l96 576h402q232 0 356.5 -133.5t124.5 -372.5q0 -444 -176.5 -684t-499.5 -240h-444zM367 213h155q147 0 233 88.5t117 269.5l41 240q13 80 13 152q0 254 -244 254h-147l-62 -371h242l-31 -184h-242z" />
    <glyph glyph-name="dcroat" unicode="&#x111;" 
d="M731 0l41 250h-8q-66 -134 -149.5 -204.5t-211.5 -70.5q-160 0 -237.5 107t-77.5 303q0 143 33 268.5t94 221t155 151t210 55.5q229 0 284 -217h10l58 342h-293l33 193h293l18 117h258l-18 -117h116l-32 -193h-117l-201 -1206h-258zM514 180q111 0 199 105q80 92 100 209
l33 196q15 88 -33.5 137.5t-150.5 49.5q-121 0 -190.5 -72t-90.5 -201l-23 -135q-8 -50 -8 -90q0 -93 40 -146t124 -53z" />
    <glyph glyph-name="Emacron" unicode="&#x112;" 
d="M985 0h-903l237 1430h904l-37 -220h-641l-62 -376h615l-37 -220h-615l-65 -395h641zM494 1624l30 186h609l-33 -186h-606z" />
    <glyph glyph-name="emacron" unicode="&#x113;" 
d="M573 -25q-222 0 -335 117t-113 336q0 292 168.5 472.5t441.5 180.5q166 0 273.5 -75.5t107.5 -212.5q0 -55 -15.5 -100t-62.5 -93.5t-125 -83.5t-212.5 -60t-315.5 -32q-2 -16 -2 -37q0 -100 51.5 -154.5t169.5 -54.5q96 0 161.5 41.5t149.5 153.5l164 -105
q-46 -69 -92 -118.5t-106.5 -91t-137.5 -62.5t-170 -21zM711 893q-243 0 -301 -285l-7 -30q121 6 209 21t135.5 33t75 44t34.5 47.5t7 48.5q0 121 -153 121zM440 1276l31 186h608l-32 -186h-607z" />
    <glyph glyph-name="Ebreve" unicode="&#x114;" 
d="M985 0h-903l237 1430h904l-37 -220h-641l-62 -376h615l-37 -220h-615l-65 -395h641zM803 1532q-267 0 -342 336l145 71l37 -73q29 -56 47 -83t49.5 -47t73.5 -20q38 0 70.5 18.5t58 47t70.5 88.5l53 69l149 -71q-28 -56 -52.5 -97.5t-63 -89t-78.5 -78t-96.5 -51
t-120.5 -20.5z" />
    <glyph glyph-name="ebreve" unicode="&#x115;" 
d="M573 -25q-222 0 -335 117t-113 336q0 292 168.5 472.5t441.5 180.5q166 0 273.5 -75.5t107.5 -212.5q0 -55 -15.5 -100t-62.5 -93.5t-125 -83.5t-212.5 -60t-315.5 -32q-2 -16 -2 -37q0 -100 51.5 -154.5t169.5 -54.5q96 0 161.5 41.5t149.5 153.5l164 -105
q-46 -69 -92 -118.5t-106.5 -91t-137.5 -62.5t-170 -21zM711 893q-243 0 -301 -285l-7 -30q121 6 209 21t135.5 33t75 44t34.5 47.5t7 48.5q0 121 -153 121zM750 1184q-267 0 -342 336l145 71l37 -73q29 -56 47 -83t49.5 -47t73.5 -20q54 0 93 33t105 121l54 69l149 -71
q-28 -56 -52.5 -97.5t-63 -89t-78.5 -78t-96.5 -51t-120.5 -20.5z" />
    <glyph glyph-name="Edotaccent" unicode="&#x116;" 
d="M799 1561q-80 0 -117 30.5t-37 81.5q0 14 10 72q19 127 174 127q80 0 117 -31t37 -82q0 -13 -10 -71q-19 -127 -174 -127zM985 0h-903l237 1430h904l-37 -220h-641l-62 -376h615l-37 -220h-615l-65 -395h641z" />
    <glyph glyph-name="edotaccent" unicode="&#x117;" 
d="M573 -25q-222 0 -335 117t-113 336q0 292 168.5 472.5t441.5 180.5q166 0 273.5 -75.5t107.5 -212.5q0 -55 -15.5 -100t-62.5 -93.5t-125 -83.5t-212.5 -60t-315.5 -32q-2 -16 -2 -37q0 -100 51.5 -154.5t169.5 -54.5q96 0 161.5 41.5t149.5 153.5l164 -105
q-46 -69 -92 -118.5t-106.5 -91t-137.5 -62.5t-170 -21zM711 893q-243 0 -301 -285l-7 -30q121 6 209 21t135.5 33t75 44t34.5 47.5t7 48.5q0 121 -153 121zM743 1212q-80 0 -116.5 31t-36.5 82q0 14 10 72q19 127 174 127q80 0 117 -31t37 -82q0 -14 -10 -72
q-19 -127 -175 -127z" />
    <glyph glyph-name="Eogonek" unicode="&#x118;" 
d="M82 0l237 1430h904l-37 -220h-641l-62 -376h615l-37 -220h-615l-65 -395h641l-37 -219q-146 -90 -193 -141.5t-47 -91.5q0 -29 19 -45.5t55 -16.5q67 0 111 55l100 -92q-84 -98 -233 -98q-104 0 -170 43t-66 123q0 81 70 146.5t209 107.5l-2 10h-756z" />
    <glyph glyph-name="eogonek" unicode="&#x119;" 
d="M664 -430q-104 0 -170 43t-66 123q0 76 60 136.5t165 100.5l-2 9q-31 -7 -78 -7q-222 0 -335 117t-113 336q0 292 168.5 472.5t441.5 180.5q166 0 273.5 -75.5t107.5 -212.5q0 -55 -15.5 -100t-62.5 -93.5t-125 -83.5t-212.5 -60t-315.5 -32q-2 -14 -2 -39
q0 -207 221 -207q96 0 161.5 41.5t149.5 153.5l164 -105q-49 -74 -102.5 -128t-136.5 -107q-228 -149 -228 -258q0 -70 74 -70q67 0 111 55l100 -92q-84 -98 -233 -98zM711 893q-243 0 -301 -285l-7 -30q121 6 209 21t135.5 33t75 44t34.5 47.5t7 48.5q0 121 -153 121z" />
    <glyph glyph-name="Ecaron" unicode="&#x11a;" 
d="M985 0h-903l237 1430h904l-37 -220h-641l-62 -376h615l-37 -220h-615l-65 -395h641zM911 1546h-237l-209 318l139 98l209 -238l277 238l124 -102z" />
    <glyph glyph-name="ecaron" unicode="&#x11b;" 
d="M856 1198h-238l-208 318l139 98l209 -238l276 238l125 -103zM573 -25q-222 0 -335 117t-113 336q0 292 168.5 472.5t441.5 180.5q166 0 273.5 -75.5t107.5 -212.5q0 -55 -15.5 -100t-62.5 -93.5t-125 -83.5t-212.5 -60t-315.5 -32q-2 -16 -2 -37q0 -100 51.5 -154.5
t169.5 -54.5q96 0 161.5 41.5t149.5 153.5l164 -105q-46 -69 -92 -118.5t-106.5 -91t-137.5 -62.5t-170 -21zM711 893q-243 0 -301 -285l-7 -30q121 6 209 21t135.5 33t75 44t34.5 47.5t7 48.5q0 121 -153 121z" />
    <glyph glyph-name="Gcircumflex" unicode="&#x11c;" 
d="M711 1944h237l209 -318l-139 -98l-209 237l-277 -237l-124 102zM782 0l35 209h-16q-32 -56 -57.5 -91.5t-63.5 -71.5t-87.5 -53.5t-111.5 -17.5q-179 0 -278 134.5t-99 388.5q0 162 26 305t80 262.5t131.5 206t185 134.5t235.5 48q104 0 184.5 -30t131.5 -84t79.5 -124
t36.5 -155l-250 -55q-7 51 -18.5 88.5t-33.5 72t-61 52.5t-94 18q-246 0 -313 -397l-35 -207q-16 -98 -16 -172q0 -128 52 -199.5t157 -71.5q114 0 186 75t90 188l16 100h-264l31 192h500l-123 -745h-236z" />
    <glyph glyph-name="gcircumflex" unicode="&#x11d;" 
d="M639 1595h238l208 -317l-139 -98l-209 237l-276 -237l-125 102zM451 -434q-147 0 -245 34t-169 117l158 162q87 -108 251 -108q64 0 110 13.5t85 48t65 96.5t42 155l34 207h-10q-64 -137 -146 -207t-212 -70q-161 0 -240.5 109t-79.5 299q0 106 19.5 203.5t60 180.5
t97 144.5t135.5 96t172 34.5q236 0 288 -217h11l32 193h258l-166 -1002q-82 -489 -550 -489zM522 221q110 0 197 101q87 102 104 213l27 155q14 86 -34 136.5t-152 50.5q-119 0 -188.5 -72.5t-92.5 -200.5l-16 -94q-9 -61 -9 -98q0 -89 40.5 -140t123.5 -51z" />
    <glyph glyph-name="Gbreve" unicode="&#x11e;" 
d="M782 0l35 209h-16q-32 -56 -57.5 -91.5t-63.5 -71.5t-87.5 -53.5t-111.5 -17.5q-179 0 -278 134.5t-99 388.5q0 162 26 305t80 262.5t131.5 206t185 134.5t235.5 48q104 0 184.5 -30t131.5 -84t79.5 -124t36.5 -155l-250 -55q-7 51 -18.5 88.5t-33.5 72t-61 52.5t-94 18
q-246 0 -313 -397l-35 -207q-16 -98 -16 -172q0 -128 52 -199.5t157 -71.5q114 0 186 75t90 188l16 100h-264l31 192h500l-123 -745h-236zM786 1532q-267 0 -342 336l146 71l37 -73q29 -56 47 -83t49.5 -47t73.5 -20q54 0 93 33t105 121l54 69l149 -71q-28 -56 -52.5 -97.5
t-63 -89t-79 -78t-97 -51t-120.5 -20.5z" />
    <glyph glyph-name="gbreve" unicode="&#x11f;" 
d="M451 -434q-147 0 -245 34t-169 117l158 162q87 -108 251 -108q64 0 110 13.5t85 48t65 96.5t42 155l34 207h-10q-64 -137 -146 -207t-212 -70q-161 0 -240.5 109t-79.5 299q0 106 19.5 203.5t60 180.5t97 144.5t135.5 96t172 34.5q236 0 288 -217h11l32 193h258
l-166 -1002q-82 -489 -550 -489zM522 221q110 0 197 101q87 102 104 213l27 155q14 86 -34 136.5t-152 50.5q-119 0 -188.5 -72.5t-92.5 -200.5l-16 -94q-9 -61 -9 -98q0 -89 40.5 -140t123.5 -51zM715 1184q-267 0 -342 336l145 71l37 -73q29 -56 47 -83t49.5 -47t73.5 -20
q38 0 70.5 18.5t58 47t70.5 88.5l53 69l149 -71q-28 -56 -52.5 -97.5t-63 -89t-78.5 -78t-96.5 -51t-120.5 -20.5z" />
    <glyph glyph-name="Gdotaccent" unicode="&#x120;" 
d="M782 1561q-153 0 -153 112q0 14 10 72q19 127 174 127q80 0 117 -31t37 -82q0 -7 -11 -71q-19 -127 -174 -127zM782 0l35 209h-16q-32 -56 -57.5 -91.5t-63.5 -71.5t-87.5 -53.5t-111.5 -17.5q-179 0 -278 134.5t-99 388.5q0 162 26 305t80 262.5t131.5 206t185 134.5
t235.5 48q104 0 184.5 -30t131.5 -84t79.5 -124t36.5 -155l-250 -55q-7 51 -18.5 88.5t-33.5 72t-61 52.5t-94 18q-246 0 -313 -397l-35 -207q-16 -98 -16 -172q0 -128 52 -199.5t157 -71.5q114 0 186 75t90 188l16 100h-264l31 192h500l-123 -745h-236z" />
    <glyph glyph-name="gdotaccent" unicode="&#x121;" 
d="M451 -434q-147 0 -245 34t-169 117l158 162q87 -108 251 -108q64 0 110 13.5t85 48t65 96.5t42 155l34 207h-10q-64 -137 -146 -207t-212 -70q-161 0 -240.5 109t-79.5 299q0 106 19.5 203.5t60 180.5t97 144.5t135.5 96t172 34.5q236 0 288 -217h11l32 193h258
l-166 -1002q-82 -489 -550 -489zM522 221q110 0 197 101q87 102 104 213l27 155q14 86 -34 136.5t-152 50.5q-119 0 -188.5 -72.5t-92.5 -200.5l-16 -94q-9 -61 -9 -98q0 -89 40.5 -140t123.5 -51zM709 1212q-80 0 -117 31t-37 82q0 14 10 72q19 127 174 127q80 0 117 -31
t37 -82q0 -14 -10 -72q-19 -127 -174 -127z" />
    <glyph glyph-name="Gcommaaccent" unicode="&#x122;" 
d="M330 -539l110 422h291l-237 -422h-164zM782 0l35 209h-16q-32 -56 -57.5 -91.5t-63.5 -71.5t-87.5 -53.5t-111.5 -17.5q-179 0 -278 134.5t-99 388.5q0 162 26 305t80 262.5t131.5 206t185 134.5t235.5 48q104 0 184.5 -30t131.5 -84t79.5 -124t36.5 -155l-250 -55
q-7 51 -18.5 88.5t-33.5 72t-61 52.5t-94 18q-246 0 -313 -397l-35 -207q-16 -98 -16 -172q0 -128 52 -199.5t157 -71.5q114 0 186 75t90 188l16 100h-264l31 192h500l-123 -745h-236z" />
    <glyph glyph-name="gcommaaccent" unicode="&#x123;" 
d="M451 -434q-147 0 -245 34t-169 117l158 162q87 -108 251 -108q64 0 110 13.5t85 48t65 96.5t42 155l34 207h-10q-64 -137 -146 -207t-212 -70q-161 0 -240.5 109t-79.5 299q0 106 19.5 203.5t60 180.5t97 144.5t135.5 96t172 34.5q236 0 288 -217h11l32 193h258
l-166 -1002q-82 -489 -550 -489zM522 221q110 0 197 101q87 102 104 213l27 155q14 86 -34 136.5t-152 50.5q-119 0 -188.5 -72.5t-92.5 -200.5l-16 -94q-9 -61 -9 -98q0 -89 40.5 -140t123.5 -51zM549 1192l237 422h164l-110 -422h-291z" />
    <glyph glyph-name="Hcircumflex" unicode="&#x124;" 
d="M741 0l103 616h-426l-103 -616h-262l238 1430h262l-98 -596h426l98 596h262l-237 -1430h-263zM723 1944h238l208 -318l-139 -98l-209 237l-276 -237l-125 102z" />
    <glyph glyph-name="hcircumflex" unicode="&#x125;" 
d="M401 1968h238l209 -317l-139 -99l-209 238l-277 -238l-125 103zM72 0l252 1516h258l-117 -709h10q63 135 144 204.5t202 69.5q142 0 214.5 -84.5t72.5 -220.5q0 -70 -21 -196l-96 -580h-258l101 604q14 86 14 127q0 63 -33.5 105.5t-103.5 42.5q-102 0 -185 -103
q-86 -110 -104 -219l-92 -557h-258z" />
    <glyph glyph-name="Hbar" unicode="&#x126;" 
d="M739 0l105 616h-426l-103 -616h-262l174 1044h-118l32 201h119l31 185h262l-33 -195h426l33 195h262l-31 -185h117l-33 -201h-116l-174 -1044h-265zM455 834h426l37 221h-426z" />
    <glyph glyph-name="hbar" unicode="&#x127;" 
d="M72 0l200 1206h-122l32 193h123l19 117h258l-19 -117h287l-33 -193h-287l-65 -399h10q63 135 144 204.5t202 69.5q142 0 214.5 -84.5t72.5 -220.5q0 -70 -21 -196l-96 -580h-258l101 604q14 86 14 127q0 63 -33.5 105.5t-103.5 42.5q-102 0 -185 -103q-86 -110 -104 -219
l-92 -557h-258z" />
    <glyph glyph-name="Itilde" unicode="&#x128;" 
d="M981 0h-909l32 199h324l172 1032h-324l33 199h910l-33 -199h-324l-172 -1032h324zM958 1573q-31 0 -60 7.5t-45 15t-48 24.5q-85 47 -146 47q-56 0 -129 -55l-73 121q98 125 237 125q31 0 60.5 -8t45.5 -15.5t48 -24.5q85 -47 145 -47q55 0 129 56l74 -121
q-44 -56 -105.5 -90.5t-132.5 -34.5z" />
    <glyph glyph-name="itilde" unicode="&#x129;" 
d="M594 -25q-108 0 -166.5 58t-58.5 157q0 41 18 140l100 522h-340l35 205h600l-166 -864l39 -13l322 309l143 -129l-143 -151q-119 -127 -204.5 -180.5t-178.5 -53.5zM831 1225q-31 0 -60 7.5t-45 15t-48 24.5q-85 47 -146 47q-56 0 -129 -55l-73 120q98 125 237 125
q31 0 60.5 -7.5t46 -15.5t47.5 -24q85 -47 145 -47q56 0 129 55l74 -120q-44 -56 -105.5 -90.5t-132.5 -34.5z" />
    <glyph glyph-name="Imacron" unicode="&#x12a;" 
d="M981 0h-909l32 199h324l172 1032h-324l33 199h910l-33 -199h-324l-172 -1032h324zM489 1624l31 186h608l-32 -186h-607z" />
    <glyph glyph-name="imacron" unicode="&#x12b;" 
d="M594 -25q-108 0 -166.5 58t-58.5 157q0 41 18 140l100 522h-340l35 205h600l-166 -864l39 -13l322 309l143 -129l-143 -151q-119 -127 -204.5 -180.5t-178.5 -53.5zM379 1276l31 186h608l-33 -186h-606z" />
    <glyph glyph-name="Ibreve" unicode="&#x12c;" 
d="M981 0h-909l32 199h324l172 1032h-324l33 199h910l-33 -199h-324l-172 -1032h324zM799 1532q-267 0 -342 336l145 71l37 -73q29 -56 47 -83t49.5 -47t73.5 -20q38 0 70.5 18.5t58 47t70.5 88.5l53 69l149 -71q-28 -56 -52.5 -97.5t-63 -89t-78.5 -78t-96.5 -51
t-120.5 -20.5z" />
    <glyph glyph-name="ibreve" unicode="&#x12d;" 
d="M594 -25q-108 0 -166.5 58t-58.5 157q0 41 18 140l100 522h-340l35 205h600l-166 -864l39 -13l322 309l143 -129l-143 -151q-119 -127 -204.5 -180.5t-178.5 -53.5zM688 1184q-267 0 -342 336l146 71l36 -73q29 -56 47 -83t49.5 -47t73.5 -20q38 0 70.5 18.5t58 47
t70.5 88.5l53 69l150 -71q-28 -56 -52.5 -97.5t-63 -89t-79 -78t-97 -51t-120.5 -20.5z" />
    <glyph glyph-name="Iogonek" unicode="&#x12e;" 
d="M72 0l32 199h324l172 1032h-324l33 199h910l-33 -199h-324l-172 -1032h324l-33 -199q-146 -90 -193 -141.5t-47 -91.5q0 -28 20 -45t56 -17q67 0 109 55l102 -92q-84 -98 -235 -98q-103 0 -168.5 43t-65.5 123q0 81 70 146.5t209 107.5l-2 10h-764z" />
    <glyph glyph-name="iogonek" unicode="&#x12f;" 
d="M643 -430q-103 0 -168 43t-65 123q0 74 55 129t156 104l-5 11q-21 -3 -34 -3q-104 0 -158.5 58t-54.5 155q0 41 18 140l100 522h-340l35 205h600l-166 -864l39 -13l322 309l143 -129l-323 -317q-121 -118 -163 -171.5t-42 -102.5q0 -30 20 -47t56 -17q66 0 108 55
l103 -92q-84 -98 -236 -98zM696 1225q-153 0 -153 112q0 23 8 72q22 127 176 127t154 -113q0 -15 -9 -71q-22 -127 -176 -127z" />
    <glyph glyph-name="Idotaccent" unicode="&#x130;" 
d="M981 0h-909l32 199h324l172 1032h-324l33 199h910l-33 -199h-324l-172 -1032h324zM795 1561q-80 0 -117 30.5t-37 81.5q0 14 10 72q19 127 174 127q80 0 117 -31t37 -82q0 -13 -10 -71q-19 -127 -174 -127z" />
    <glyph glyph-name="dotlessi" unicode="&#x131;" 
d="M594 -25q-108 0 -166.5 58t-58.5 157q0 41 18 140l100 522h-340l35 205h600l-166 -864l39 -13l322 309l143 -129l-143 -151q-119 -127 -204.5 -180.5t-178.5 -53.5z" />
    <glyph glyph-name="IJ" unicode="&#x132;" 
d="M1018 1430h262l-172 -1031q-36 -215 -167 -319.5t-343 -104.5q-199 0 -310 102.5t-120 280.5l248 48q8 -102 52 -157.5t148 -55.5q195 0 234 227zM223 621l135 809h263l-134 -809h-264z" />
    <glyph glyph-name="ij" unicode="&#x133;" 
d="M82 0l176 1057h258l-176 -1057h-258zM639 -434q-85 0 -155 49.5t-142 142.5l-61 80l172 133l184 -202l29 10l213 1278h258l-197 -1176q-52 -315 -301 -315zM430 1225q-154 0 -154 112q0 17 9 72q22 127 176 127q153 0 153 -113q0 -22 -8 -71q-22 -127 -176 -127z
M1051 1225q-154 0 -154 112q0 23 8 72q22 127 176 127t154 -113q0 -22 -8 -71q-22 -127 -176 -127z" />
    <glyph glyph-name="Jcircumflex" unicode="&#x134;" 
d="M422 1430h754l-172 -1033q-36 -212 -164 -317t-338 -105q-196 0 -306 102.5t-118 280.5l248 48q7 -101 49.5 -157t142.5 -56q187 0 225 221l134 796h-492zM758 1944h237l209 -318l-139 -98l-209 237l-276 -237l-125 102z" />
    <glyph glyph-name="jcircumflex" unicode="&#x135;" 
d="M479 -434q-41 0 -77 12t-66 31t-66 58t-66 77.5t-77 105.5l-86 115l176 129l260 -325l29 10l178 1073h-401l34 205h660l-197 -1176q-26 -161 -99 -238t-202 -77zM811 1595h238l208 -317l-139 -98l-209 237l-276 -237l-125 102z" />
    <glyph glyph-name="Kcommaaccent" unicode="&#x136;" 
d="M283 -539l110 422h291l-238 -422h-163zM840 0l-250 616l-195 -206l-67 -410h-262l237 1430h262l-108 -652h14l244 285l323 367h314l-555 -627l333 -803h-290z" />
    <glyph glyph-name="kcommaaccent" unicode="&#x137;" 
d="M236 -539l110 422h291l-238 -422h-163zM72 0l252 1516h258l-119 -709h12q125 274 363 274q126 0 201 -71.5t75 -182.5q0 -275 -383 -385l105 -252l28 -4l199 189l127 -127l-117 -123q-73 -77 -138.5 -113.5t-137.5 -36.5q-80 0 -130 45.5t-87 139.5l-121 305
q207 58 301 126t94 165q0 58 -38 92.5t-109 34.5q-103 0 -185 -105q-80 -102 -100 -223l-92 -555h-258z" />
    <glyph glyph-name="kgreenlandic" unicode="&#x138;" 
d="M811 0l-254 473l-172 -151l-53 -322h-258l176 1057h258l-76 -449h17l182 176l297 273h303l-473 -436l344 -621h-291z" />
    <glyph glyph-name="Lacute" unicode="&#x139;" 
d="M811 1872l-285 -346l-151 82l231 374zM1020 0h-899l237 1430h263l-201 -1211h637z" />
    <glyph glyph-name="lacute" unicode="&#x13a;" 
d="M999 1896l-284 -346l-152 82l232 375zM541 -25q-111 0 -166.5 58t-55.5 160q0 47 17 133l184 985h-330l35 205h592l-250 -1323l37 -13l326 312l143 -130l-151 -157q-119 -125 -204.5 -177.5t-176.5 -52.5z" />
    <glyph glyph-name="Lcommaaccent" unicode="&#x13b;" 
d="M297 -539l111 422h290l-237 -422h-164zM1020 0h-899l237 1430h263l-201 -1211h637z" />
    <glyph glyph-name="lcommaaccent" unicode="&#x13c;" 
d="M266 -539l111 422h291l-238 -422h-164zM541 -25q-111 0 -166.5 58t-55.5 160q0 47 17 133l184 985h-330l35 205h592l-250 -1323l37 -13l326 312l143 -130l-151 -157q-119 -125 -204.5 -177.5t-176.5 -52.5z" />
    <glyph glyph-name="Lcaron" unicode="&#x13d;" 
d="M1100 1516l-195 -424h-174l80 424h289zM1020 0h-899l237 1430h263l-201 -1211h637z" />
    <glyph glyph-name="lcaron" unicode="&#x13e;" 
d="M1260 1516l-195 -424h-174l80 424h289zM541 -25q-111 0 -166.5 58t-55.5 160q0 47 17 133l184 985h-330l35 205h592l-250 -1323l37 -13l326 312l143 -130l-151 -157q-119 -125 -204.5 -177.5t-176.5 -52.5z" />
    <glyph glyph-name="Ldot" unicode="&#x13f;" 
d="M1020 0h-899l237 1430h263l-201 -1211h637zM913 516q-80 0 -116.5 31t-36.5 82q0 13 10 71q19 127 174 127q80 0 117 -30.5t37 -81.5q0 -8 -11 -72q-19 -127 -174 -127z" />
    <glyph glyph-name="ldot" unicode="&#x140;" 
d="M541 -25q-111 0 -166.5 58t-55.5 160q0 47 17 133l184 985h-330l35 205h592l-250 -1323l37 -13l326 312l143 -130l-151 -157q-119 -125 -204.5 -177.5t-176.5 -52.5zM999 637q-80 0 -116.5 31t-36.5 82q0 13 10 71q19 127 174 127q80 0 117 -30.5t37 -81.5q0 -14 -10 -72
q-19 -127 -175 -127z" />
    <glyph glyph-name="Lslash" unicode="&#x141;" 
d="M1069 219l-37 -219h-880l88 520l-162 -49l35 205l159 47l117 707h262l-102 -627l414 129l-35 -205l-414 -131l-63 -377h618z" />
    <glyph glyph-name="lslash" unicode="&#x142;" 
d="M541 -25q-111 0 -166.5 58t-55.5 160q0 44 17 133l49 260l-274 -86l32 196l279 84l98 531h-330l35 205h592l-125 -658l305 92l-32 -196l-310 -95l-88 -466l37 -13l326 312l143 -130l-151 -157q-119 -125 -204.5 -177.5t-176.5 -52.5z" />
    <glyph glyph-name="Nacute" unicode="&#x143;" 
d="M1087 1872l-284 -346l-152 82l232 374zM676 0l-201 1040h-18l-172 -1040h-232l238 1430h327l201 -1041h19l172 1041h231l-237 -1430h-328z" />
    <glyph glyph-name="nacute" unicode="&#x144;" 
d="M1012 1524l-285 -346l-152 82l232 374zM330 0h-258l176 1057h258l-41 -250h10q63 135 144 204.5t202 69.5q142 0 214.5 -84.5t72.5 -220.5q0 -70 -21 -196l-96 -580h-258l101 604q14 86 14 127q0 63 -33.5 105.5t-103.5 42.5q-102 0 -185 -103q-86 -110 -104 -219z" />
    <glyph glyph-name="Ncommaaccent" unicode="&#x145;" 
d="M252 -539l110 422h291l-237 -422h-164zM676 0l-201 1040h-18l-172 -1040h-232l238 1430h327l201 -1041h19l172 1041h231l-237 -1430h-328z" />
    <glyph glyph-name="ncommaaccent" unicode="&#x146;" 
d="M256 -539l111 422h290l-237 -422h-164zM330 0h-258l176 1057h258l-41 -250h10q63 135 144 204.5t202 69.5q142 0 214.5 -84.5t72.5 -220.5q0 -70 -21 -196l-96 -580h-258l101 604q14 86 14 127q0 63 -33.5 105.5t-103.5 42.5q-102 0 -185 -103q-86 -110 -104 -219z" />
    <glyph glyph-name="Ncaron" unicode="&#x147;" 
d="M676 0l-201 1040h-18l-172 -1040h-232l238 1430h327l201 -1041h19l172 1041h231l-237 -1430h-328zM907 1546h-237l-209 318l139 98l209 -238l276 238l125 -102z" />
    <glyph glyph-name="ncaron" unicode="&#x148;" 
d="M829 1198h-237l-209 318l139 98l209 -238l277 238l125 -103zM330 0h-258l176 1057h258l-41 -250h10q63 135 144 204.5t202 69.5q142 0 214.5 -84.5t72.5 -220.5q0 -70 -21 -196l-96 -580h-258l101 604q14 86 14 127q0 63 -33.5 105.5t-103.5 42.5q-102 0 -185 -103
q-86 -110 -104 -219z" />
    <glyph glyph-name="napostrophe" unicode="&#x149;" 
d="M152 0l176 1057h247l-38 -230h10q60 126 135.5 190t189.5 64q133 0 202 -81t69 -212q0 -75 -19 -192l-100 -596h-248l103 610q10 61 10 127q0 61 -31 100.5t-94 39.5q-51 0 -89.5 -20t-76.5 -64q-81 -92 -100 -209l-99 -584h-247zM113 1102l80 414h239l-182 -414h-137z
" />
    <glyph glyph-name="Eng" unicode="&#x14a;" 
d="M285 0h-232l238 1430h327l201 -1041h19l172 1041h231l-260 -1561q-26 -157 -89 -230t-175 -73q-57 0 -104 23t-80.5 56t-96.5 103q-2 3 -3.5 5t-4 4.5l-4.5 4.5l-68 76l160 131l186 -198l33 8l39 221h-98l-201 1040h-18z" />
    <glyph glyph-name="eng" unicode="&#x14b;" 
d="M670 -434q-58 0 -111.5 28.5t-90 66t-85.5 101.5l-47 62l166 127l166 -182l28 10l138 825q14 86 14 127q0 63 -33.5 105.5t-103.5 42.5q-102 0 -185 -103q-86 -110 -104 -219l-92 -557h-258l176 1057h258l-41 -250h10q63 135 144 204.5t202 69.5q142 0 214.5 -84.5
t72.5 -220.5q0 -70 -21 -196l-114 -699q-52 -315 -303 -315z" />
    <glyph glyph-name="Omacron" unicode="&#x14c;" 
d="M559 -25q-239 0 -354 135t-115 388q0 140 20.5 272t69 258t120 219t182 150t247.5 57q239 0 354 -134.5t115 -387.5q0 -140 -20.5 -272t-69 -258.5t-120 -219.5t-182 -150t-247.5 -57zM563 193q135 0 209.5 101t106.5 300l41 240q12 82 12 155q0 248 -207 248
q-134 0 -208.5 -101t-106.5 -300l-41 -240q-13 -89 -13 -156q0 -247 207 -247zM465 1624l31 186h608l-33 -186h-606z" />
    <glyph glyph-name="omacron" unicode="&#x14d;" 
d="M434 1276l31 186h608l-33 -186h-606zM543 -25q-208 0 -325.5 122.5t-117.5 330.5q0 298 163 475.5t423 177.5q208 0 325 -122t117 -330q0 -149 -43.5 -272t-120.5 -206.5t-185 -129.5t-236 -46zM561 174q113 0 183 68.5t92 195.5l24 146q10 55 10 92q0 102 -53 154.5
t-149 52.5q-113 0 -183 -69t-92 -196l-24 -145q-11 -61 -11 -92q0 -102 53.5 -154.5t149.5 -52.5z" />
    <glyph glyph-name="Obreve" unicode="&#x14e;" 
d="M559 -25q-239 0 -354 135t-115 388q0 140 20.5 272t69 258t120 219t182 150t247.5 57q239 0 354 -134.5t115 -387.5q0 -140 -20.5 -272t-69 -258.5t-120 -219.5t-182 -150t-247.5 -57zM563 193q135 0 209.5 101t106.5 300l41 240q12 82 12 155q0 248 -207 248
q-134 0 -208.5 -101t-106.5 -300l-41 -240q-13 -89 -13 -156q0 -247 207 -247zM774 1532q-267 0 -342 336l146 71l36 -73q29 -56 47 -83t49.5 -47t73.5 -20q38 0 70.5 18.5t58 47t70.5 88.5l53 69l150 -71q-28 -56 -52.5 -97.5t-63 -89t-79 -78t-97 -51t-120.5 -20.5z" />
    <glyph glyph-name="obreve" unicode="&#x14f;" 
d="M543 -25q-208 0 -325.5 122.5t-117.5 330.5q0 298 163 475.5t423 177.5q208 0 325 -122t117 -330q0 -149 -43.5 -272t-120.5 -206.5t-185 -129.5t-236 -46zM561 174q113 0 183 68.5t92 195.5l24 146q10 55 10 92q0 102 -53 154.5t-149 52.5q-113 0 -183 -69t-92 -196
l-24 -145q-11 -61 -11 -92q0 -102 53.5 -154.5t149.5 -52.5zM743 1184q-267 0 -342 336l146 71l37 -73q29 -56 47 -83t49.5 -47t73.5 -20q54 0 93 33t105 121l54 69l149 -71q-28 -56 -52.5 -97.5t-63 -89t-79 -78t-97 -51t-120.5 -20.5z" />
    <glyph glyph-name="Ohungarumlaut" unicode="&#x150;" 
d="M858 1872l-276 -344l-140 69l222 379zM1243 1872l-276 -344l-140 69l222 379zM559 -25q-239 0 -354 135t-115 388q0 140 20.5 272t69 258t120 219t182 150t247.5 57q239 0 354 -134.5t115 -387.5q0 -140 -20.5 -272t-69 -258.5t-120 -219.5t-182 -150t-247.5 -57z
M563 193q135 0 209.5 101t106.5 300l41 240q12 82 12 155q0 248 -207 248q-134 0 -208.5 -101t-106.5 -300l-41 -240q-13 -89 -13 -156q0 -247 207 -247z" />
    <glyph glyph-name="ohungarumlaut" unicode="&#x151;" 
d="M827 1524l-276 -344l-139 69l221 379zM1212 1524l-276 -344l-139 69l221 379zM543 -25q-208 0 -325.5 122.5t-117.5 330.5q0 298 163 475.5t423 177.5q208 0 325 -122t117 -330q0 -149 -43.5 -272t-120.5 -206.5t-185 -129.5t-236 -46zM561 174q113 0 183 68.5t92 195.5
l24 146q10 55 10 92q0 102 -53 154.5t-149 52.5q-113 0 -183 -69t-92 -196l-24 -145q-11 -61 -11 -92q0 -102 53.5 -154.5t149.5 -52.5z" />
    <glyph glyph-name="OE" unicode="&#x152;" 
d="M1153 0h-596q-223 0 -335.5 132t-112.5 380q0 280 76 485t229.5 319t371.5 114h605l-33 -201h-324l-67 -406h303l-33 -200h-305l-70 -422h324zM618 201l173 1028h-23q-150 0 -237 -91t-119 -288l-41 -244q-13 -80 -13 -141q0 -264 248 -264h12z" />
    <glyph glyph-name="oe" unicode="&#x153;" 
d="M823 -25q-98 0 -162.5 45.5t-85.5 135.5h-10q-25 -73 -92 -127t-166 -54q-136 0 -209 99t-73 291q0 205 49 365.5t147 255.5t232 95q89 0 147 -45t76 -118h8q48 78 121 120.5t164 42.5q122 0 197 -72.5t75 -185.5q0 -52 -12.5 -97.5t-48 -93t-92.5 -81t-152.5 -56.5
t-220.5 -26l-4 -27q-9 -56 -9 -108q0 -87 34 -135.5t98 -48.5q105 0 176 161l164 -71q-52 -124 -140 -194.5t-211 -70.5zM332 147q133 0 174 254l41 246q8 45 8 107q0 76 -29.5 115.5t-81.5 39.5q-133 0 -174 -254l-41 -245q-8 -45 -8 -107q0 -76 29.5 -116t81.5 -40z
M948 918q-77 0 -130 -74t-75 -207l-4 -25q164 6 238 59.5t74 137.5q0 52 -26.5 80.5t-76.5 28.5z" />
    <glyph glyph-name="Racute" unicode="&#x154;" 
d="M434 557l-92 -557h-262l237 1430h517q183 0 279.5 -99t96.5 -268q0 -195 -96.5 -321.5t-269.5 -161.5l213 -580h-279l-182 557h-162zM469 766h219q107 0 163 41.5t71 132.5l10 61q6 27 6 70q0 143 -172 143h-221zM1051 1872l-285 -346l-152 82l232 374z" />
    <glyph glyph-name="racute" unicode="&#x155;" 
d="M1065 1524l-285 -346l-151 82l231 374zM578 0h-259l142 852h-258l35 205h516l-54 -309h13q66 153 163 231t246 78h97l-43 -258h-187q-84 0 -138 -23t-95 -74q-78 -95 -94 -196z" />
    <glyph glyph-name="Rcommaaccent" unicode="&#x156;" 
d="M283 -539l110 422h291l-238 -422h-163zM434 557l-92 -557h-262l237 1430h517q183 0 279.5 -99t96.5 -268q0 -195 -96.5 -321.5t-269.5 -161.5l213 -580h-279l-182 557h-162zM469 766h219q107 0 163 41.5t71 132.5l10 61q6 27 6 70q0 143 -172 143h-221z" />
    <glyph glyph-name="rcommaaccent" unicode="&#x157;" 
d="M172 -539l111 422h290l-237 -422h-164zM578 0h-259l142 852h-258l35 205h516l-54 -309h13q66 153 163 231t246 78h97l-43 -258h-187q-84 0 -138 -23t-95 -74q-78 -95 -94 -196z" />
    <glyph glyph-name="Rcaron" unicode="&#x158;" 
d="M434 557l-92 -557h-262l237 1430h517q183 0 279.5 -99t96.5 -268q0 -195 -96.5 -321.5t-269.5 -161.5l213 -580h-279l-182 557h-162zM469 766h219q107 0 163 41.5t71 132.5l10 61q6 27 6 70q0 143 -172 143h-221zM870 1546h-237l-209 318l139 98l209 -238l277 238
l125 -102z" />
    <glyph glyph-name="rcaron" unicode="&#x159;" 
d="M883 1198h-238l-209 318l139 98l209 -238l277 238l125 -103zM578 0h-259l142 852h-258l35 205h516l-54 -309h13q66 153 163 231t246 78h97l-43 -258h-187q-84 0 -138 -23t-95 -74q-78 -95 -94 -196z" />
    <glyph glyph-name="Sacute" unicode="&#x15a;" 
d="M547 -25q-178 0 -313.5 61.5t-200.5 168.5l172 164q61 -86 155 -130t203 -44q131 0 203 62.5t72 172.5q0 76 -42.5 117t-140.5 63l-145 33q-155 34 -230 126t-75 230q0 207 146 331t392 124q160 0 282.5 -57.5t184.5 -153.5l-176 -156q-108 152 -303 152
q-123 0 -189.5 -57.5t-66.5 -155.5q0 -71 43.5 -109t147.5 -63l139 -35q158 -39 231.5 -127t73.5 -231q0 -219 -150.5 -352.5t-412.5 -133.5zM1069 1872l-285 -346l-151 82l231 374z" />
    <glyph glyph-name="sacute" unicode="&#x15b;" 
d="M1016 1524l-285 -346l-151 82l231 374zM535 -25q-156 0 -272 47t-175 134l154 143q101 -135 311 -135q107 0 168 37.5t61 105.5q0 48 -30 70.5t-90 34.5l-152 30q-66 14 -113.5 32.5t-91 50.5t-66 82.5t-22.5 119.5q0 169 131 261.5t340 92.5q138 0 247 -41t165 -112
l-148 -148q-37 49 -108 81t-166 32q-98 0 -152.5 -35.5t-54.5 -99.5q0 -50 29.5 -71.5t91.5 -33.5l156 -32q53 -11 93.5 -24.5t79 -36t63 -51t39.5 -71t15 -96.5q0 -171 -136.5 -269t-366.5 -98z" />
    <glyph glyph-name="Scircumflex" unicode="&#x15c;" 
d="M547 -25q-178 0 -313.5 61.5t-200.5 168.5l172 164q61 -86 155 -130t203 -44q131 0 203 62.5t72 172.5q0 76 -42.5 117t-140.5 63l-145 33q-155 34 -230 126t-75 230q0 207 146 331t392 124q160 0 282.5 -57.5t184.5 -153.5l-176 -156q-108 152 -303 152
q-123 0 -189.5 -57.5t-66.5 -155.5q0 -71 43.5 -109t147.5 -63l139 -35q158 -39 231.5 -127t73.5 -231q0 -219 -150.5 -352.5t-412.5 -133.5zM705 1944h237l209 -318l-139 -98l-209 237l-277 -237l-125 102z" />
    <glyph glyph-name="scircumflex" unicode="&#x15d;" 
d="M651 1595h238l209 -317l-140 -98l-208 237l-277 -237l-125 102zM535 -25q-156 0 -272 47t-175 134l154 143q101 -135 311 -135q107 0 168 37.5t61 105.5q0 48 -30 70.5t-90 34.5l-152 30q-66 14 -113.5 32.5t-91 50.5t-66 82.5t-22.5 119.5q0 169 131 261.5t340 92.5
q138 0 247 -41t165 -112l-148 -148q-37 49 -108 81t-166 32q-98 0 -152.5 -35.5t-54.5 -99.5q0 -50 29.5 -71.5t91.5 -33.5l156 -32q53 -11 93.5 -24.5t79 -36t63 -51t39.5 -71t15 -96.5q0 -171 -136.5 -269t-366.5 -98z" />
    <glyph glyph-name="Scedilla" unicode="&#x15e;" 
d="M516 -430q-80 0 -137.5 25t-85.5 65l96 100q42 -57 123 -57q46 0 74 16.5t28 47.5q0 65 -135 75l-49 4l47 131q-154 12 -270.5 72t-173.5 156l172 164q61 -86 155 -130t203 -44q131 0 203 62.5t72 172.5q0 75 -42.5 115.5t-140.5 64.5l-145 33q-155 34 -230 126t-75 230
q0 207 146 331t392 124q160 0 282.5 -57.5t184.5 -153.5l-176 -156q-108 152 -303 152q-123 0 -189.5 -57.5t-66.5 -155.5q0 -71 43.5 -109t147.5 -63l139 -35q158 -39 231.5 -127t73.5 -231q0 -206 -134.5 -337.5t-369.5 -146.5l-35 -94l7 -8q37 12 84 12q59 0 95 -31
t36 -87q0 -97 -77.5 -148t-199.5 -51z" />
    <glyph glyph-name="scedilla" unicode="&#x15f;" 
d="M510 -430q-80 0 -137.5 25t-87.5 65l98 100q42 -57 123 -57q46 0 74 16.5t28 47.5q0 65 -135 75l-51 4l49 131q-275 19 -383 179l154 143q101 -135 313 -135q106 0 166.5 37.5t60.5 105.5q0 48 -30 70.5t-90 34.5l-152 30q-66 14 -115 33t-91.5 50.5t-64.5 82t-22 117.5
q0 171 131 263.5t340 92.5q138 0 247 -41t165 -112l-148 -148q-37 49 -108 81t-166 32q-99 0 -153 -35.5t-54 -101.5q0 -47 29 -68t92 -35l156 -32q67 -14 114.5 -33t90 -50t64 -79.5t21.5 -114.5q0 -161 -118 -257t-322 -110l-33 -94l6 -8q35 12 82 12q59 0 95 -31t36 -87
q0 -97 -77 -148t-197 -51z" />
    <glyph glyph-name="Scaron" unicode="&#x160;" 
d="M547 -25q-178 0 -313.5 61.5t-200.5 168.5l172 164q61 -86 155 -130t203 -44q131 0 203 62.5t72 172.5q0 76 -42.5 117t-140.5 63l-145 33q-155 34 -230 126t-75 230q0 207 146 331t392 124q160 0 282.5 -57.5t184.5 -153.5l-176 -156q-108 152 -303 152
q-123 0 -189.5 -57.5t-66.5 -155.5q0 -71 43.5 -109t147.5 -63l139 -35q158 -39 231.5 -127t73.5 -231q0 -219 -150.5 -352.5t-412.5 -133.5zM889 1546h-238l-209 318l140 98l209 -238l276 238l125 -102z" />
    <glyph glyph-name="scaron" unicode="&#x161;" 
d="M834 1198h-238l-209 318l139 98l209 -238l277 238l125 -103zM535 -25q-156 0 -272 47t-175 134l154 143q101 -135 311 -135q107 0 168 37.5t61 105.5q0 48 -30 70.5t-90 34.5l-152 30q-66 14 -113.5 32.5t-91 50.5t-66 82.5t-22.5 119.5q0 169 131 261.5t340 92.5
q138 0 247 -41t165 -112l-148 -148q-37 49 -108 81t-166 32q-98 0 -152.5 -35.5t-54.5 -99.5q0 -50 29.5 -71.5t91.5 -33.5l156 -32q53 -11 93.5 -24.5t79 -36t63 -51t39.5 -71t15 -96.5q0 -171 -136.5 -269t-366.5 -98z" />
    <glyph glyph-name="uni0162" unicode="&#x162;" 
d="M256 -539l111 422h290l-237 -422h-164zM1292 1210h-434l-201 -1210h-262l201 1210h-432l37 220h1128z" />
    <glyph glyph-name="uni0163" unicode="&#x163;" 
d="M272 -539l111 422h291l-238 -422h-164zM545 -25q-113 0 -170.5 61.5t-57.5 168.5q0 25 15 117l88 530h-281l35 205h182q63 0 94.5 25.5t41.5 88.5l43 259h239l-61 -373h420l-35 -205h-420l-107 -647l41 -17l361 269l127 -150l-156 -123q-150 -120 -230 -164.5t-169 -44.5
z" />
    <glyph glyph-name="Tcaron" unicode="&#x164;" 
d="M1292 1210h-434l-201 -1210h-262l201 1210h-432l37 220h1128zM905 1546h-237l-209 318l139 98l209 -238l276 238l125 -102z" />
    <glyph glyph-name="tcaron" unicode="&#x165;" 
d="M1245 1583l-194 -424h-174l79 424h289zM545 -25q-113 0 -170.5 61.5t-57.5 168.5q0 25 15 117l88 530h-281l35 205h182q63 0 94.5 25.5t41.5 88.5l43 259h239l-61 -373h420l-35 -205h-420l-107 -647l41 -17l361 269l127 -150l-156 -123q-150 -120 -230 -164.5t-169 -44.5
z" />
    <glyph glyph-name="Tbar" unicode="&#x166;" 
d="M1067 614h-307l-103 -614h-262l103 614h-308l33 199h307l66 397h-432l37 220h1128l-37 -220h-434l-65 -397h307z" />
    <glyph glyph-name="tbar" unicode="&#x167;" 
d="M549 -25q-115 0 -173.5 61t-58.5 169q0 29 15 117l30 192h-192l31 180h192l27 158h-281l35 205h182q63 0 94.5 25.5t41.5 88.5l43 259h239l-61 -373h420l-35 -205h-420l-27 -158h299l-30 -180h-297l-52 -311l35 -21l350 221l119 -153l-157 -111q-128 -89 -209 -126.5
t-160 -37.5z" />
    <glyph glyph-name="Utilde" unicode="&#x168;" 
d="M279 1430h262l-144 -863q-24 -151 -24 -211q0 -79 44.5 -121t147.5 -42q50 0 88 9.5t65.5 32t46 48t32.5 68.5t22.5 81t18.5 98l149 900h262l-143 -863q-15 -88 -29.5 -151.5t-36.5 -129t-49.5 -110.5t-68 -85.5t-91.5 -64.5t-120 -37.5t-154 -13.5q-98 0 -173.5 17
t-126 48.5t-82.5 78t-46 102t-14 125.5q0 95 28 270zM950 1573q-31 0 -60 7.5t-45 15t-48 24.5q-85 47 -146 47q-56 0 -129 -55l-73 121q98 125 237 125q31 0 60.5 -8t45.5 -15.5t48 -24.5q85 -47 145 -47q55 0 129 56l74 -121q-44 -56 -105.5 -90.5t-132.5 -34.5z" />
    <glyph glyph-name="utilde" unicode="&#x169;" 
d="M723 0l41 250h-10q-63 -135 -144 -205t-202 -70q-142 0 -214.5 85t-72.5 221q0 76 20 196l97 580h258l-101 -604q-14 -86 -14 -127q0 -63 33.5 -105.5t103.5 -42.5q101 0 184 103q87 112 105 219l92 557h258l-176 -1057h-258zM877 1225q-31 0 -60.5 7.5t-46 15.5
t-47.5 24q-85 47 -145 47q-56 0 -129 -55l-74 120q98 125 237 125q31 0 60.5 -7.5t46 -15.5t47.5 -24q85 -47 145 -47q56 0 129 55l74 -120q-98 -125 -237 -125z" />
    <glyph glyph-name="Umacron" unicode="&#x16a;" 
d="M279 1430h262l-144 -863q-24 -151 -24 -211q0 -79 44.5 -121t147.5 -42q50 0 88 9.5t65.5 32t46 48t32.5 68.5t22.5 81t18.5 98l149 900h262l-143 -863q-15 -88 -29.5 -151.5t-36.5 -129t-49.5 -110.5t-68 -85.5t-91.5 -64.5t-120 -37.5t-154 -13.5q-98 0 -173.5 17
t-126 48.5t-82.5 78t-46 102t-14 125.5q0 95 28 270zM483 1624l31 186h608l-32 -186h-607z" />
    <glyph glyph-name="umacron" unicode="&#x16b;" 
d="M723 0l41 250h-10q-63 -135 -144 -205t-202 -70q-142 0 -214.5 85t-72.5 221q0 76 20 196l97 580h258l-101 -604q-14 -86 -14 -127q0 -63 33.5 -105.5t103.5 -42.5q101 0 184 103q87 112 105 219l92 557h258l-176 -1057h-258zM424 1276l31 186h608l-33 -186h-606z" />
    <glyph glyph-name="Ubreve" unicode="&#x16c;" 
d="M279 1430h262l-144 -863q-24 -151 -24 -211q0 -79 44.5 -121t147.5 -42q50 0 88 9.5t65.5 32t46 48t32.5 68.5t22.5 81t18.5 98l149 900h262l-143 -863q-15 -88 -29.5 -151.5t-36.5 -129t-49.5 -110.5t-68 -85.5t-91.5 -64.5t-120 -37.5t-154 -13.5q-98 0 -173.5 17
t-126 48.5t-82.5 78t-46 102t-14 125.5q0 95 28 270zM793 1532q-267 0 -342 336l145 71l37 -73q29 -56 47 -83t49.5 -47t73.5 -20q54 0 93 33t105 121l54 69l149 -71q-28 -56 -52.5 -97.5t-63 -89t-78.5 -78t-96.5 -51t-120.5 -20.5z" />
    <glyph glyph-name="ubreve" unicode="&#x16d;" 
d="M723 0l41 250h-10q-63 -135 -144 -205t-202 -70q-142 0 -214.5 85t-72.5 221q0 76 20 196l97 580h258l-101 -604q-14 -86 -14 -127q0 -63 33.5 -105.5t103.5 -42.5q101 0 184 103q87 112 105 219l92 557h258l-176 -1057h-258zM733 1184q-267 0 -342 336l146 71l36 -73
q29 -56 47 -83t49.5 -47t73.5 -20q38 0 70.5 18.5t58 47t70.5 88.5l53 69l150 -71q-28 -56 -52.5 -97.5t-63 -89t-79 -78t-97 -51t-120.5 -20.5z" />
    <glyph glyph-name="Uring" unicode="&#x16e;" 
d="M772 1491q-105 0 -176.5 69t-71.5 171q0 131 94.5 219t227.5 88q105 0 176.5 -69t71.5 -171q0 -131 -94.5 -219t-227.5 -88zM788 1626q106 0 125 109q11 64 11 84q0 84 -95 84q-105 0 -124 -109q-11 -64 -11 -84q0 -84 94 -84zM279 1430h262l-144 -863q-24 -151 -24 -211
q0 -79 44.5 -121t147.5 -42q50 0 88 9.5t65.5 32t46 48t32.5 68.5t22.5 81t18.5 98l149 900h262l-143 -863q-15 -88 -29.5 -151.5t-36.5 -129t-49.5 -110.5t-68 -85.5t-91.5 -64.5t-120 -37.5t-154 -13.5q-98 0 -173.5 17t-126 48.5t-82.5 78t-46 102t-14 125.5q0 95 28 270
z" />
    <glyph glyph-name="uring" unicode="&#x16f;" 
d="M713 1143q-106 0 -177 69t-71 170q0 132 94 220t227 88q105 0 176.5 -69t71.5 -171q0 -132 -94 -219.5t-227 -87.5zM729 1278q106 0 125 108q10 58 10 84q0 84 -94 84q-106 0 -125 -108q-10 -58 -10 -84q0 -84 94 -84zM723 0l41 250h-10q-63 -135 -144 -205t-202 -70
q-142 0 -214.5 85t-72.5 221q0 76 20 196l97 580h258l-101 -604q-14 -86 -14 -127q0 -63 33.5 -105.5t103.5 -42.5q101 0 184 103q87 112 105 219l92 557h258l-176 -1057h-258z" />
    <glyph glyph-name="Uhungarumlaut" unicode="&#x170;" 
d="M877 1872l-277 -344l-139 69l221 379zM1262 1872l-277 -344l-139 69l221 379zM279 1430h262l-144 -863q-24 -151 -24 -211q0 -79 44.5 -121t147.5 -42q50 0 88 9.5t65.5 32t46 48t32.5 68.5t22.5 81t18.5 98l149 900h262l-143 -863q-15 -88 -29.5 -151.5t-36.5 -129
t-49.5 -110.5t-68 -85.5t-91.5 -64.5t-120 -37.5t-154 -13.5q-98 0 -173.5 17t-126 48.5t-82.5 78t-46 102t-14 125.5q0 95 28 270z" />
    <glyph glyph-name="uhungarumlaut" unicode="&#x171;" 
d="M723 0l41 250h-10q-63 -135 -144 -205t-202 -70q-142 0 -214.5 85t-72.5 221q0 76 20 196l97 580h258l-101 -604q-14 -86 -14 -127q0 -63 33.5 -105.5t103.5 -42.5q101 0 184 103q87 112 105 219l92 557h258l-176 -1057h-258zM817 1524l-276 -344l-140 69l222 379z
M1202 1524l-276 -344l-140 69l222 379z" />
    <glyph glyph-name="Uogonek" unicode="&#x172;" 
d="M279 1430h262l-144 -863q-24 -151 -24 -211q0 -80 44 -121.5t146 -41.5q44 0 79 8.5t60.5 21.5t45.5 37.5t33 48.5t24 63.5t17.5 72t15.5 85.5l149 900h262l-143 -861q-13 -78 -24.5 -132.5t-28.5 -112t-38 -99t-50.5 -81.5t-68.5 -71t-89 -57q-88 -46 -142 -98.5
t-69.5 -87t-15.5 -63.5q0 -28 19.5 -45t55.5 -17q67 0 109 55l102 -92q-84 -98 -235 -98q-104 0 -170 43t-66 123q0 144 215 231l-4 10q-23 -2 -55 -2q-120 0 -205.5 26t-135.5 76t-72.5 116t-22.5 153q0 95 28 270z" />
    <glyph glyph-name="uogonek" unicode="&#x173;" 
d="M1157 1057l-176 -1057q-147 -90 -194.5 -141.5t-47.5 -91.5q0 -28 20 -45t56 -17q67 0 109 55l102 -92q-84 -98 -235 -98q-104 0 -170 43t-66 123q0 81 70 146.5t209 107.5v10h-111l41 250h-10q-63 -135 -144 -205t-202 -70q-142 0 -214.5 85t-72.5 221q0 76 20 196
l97 580h258l-101 -604q-14 -86 -14 -127q0 -63 33.5 -105.5t103.5 -42.5q101 0 184 103q87 112 105 219l92 557h258z" />
    <glyph glyph-name="Wcircumflex" unicode="&#x174;" 
d="M719 1944h237l209 -318l-139 -98l-209 237l-276 -237l-125 102zM389 0h-346l143 1430h228l-90 -828l-39 -356h18l281 854h252l4 -854h18l70 329l192 855h219l-333 -1430h-347l13 811h-19z" />
    <glyph glyph-name="wcircumflex" unicode="&#x175;" 
d="M659 1595h238l209 -317l-139 -98l-209 237l-277 -237l-125 102zM238 -23q-97 0 -145 58t-48 160q0 80 16 178l115 684h205l-113 -676q-12 -62 -12 -109q0 -86 74 -86q57 0 112 82q30 43 47 144l109 645h203l-115 -690q-10 -52 -10 -99q0 -86 69 -86q57 0 108.5 81.5
t82.5 214t31 274.5q0 164 -41 264l186 55q66 -129 66 -319q0 -182 -46 -342.5t-128 -266.5q-61 -81 -140.5 -123.5t-165.5 -42.5q-100 0 -147 59.5t-41 162.5h-12q-82 -222 -260 -222z" />
    <glyph glyph-name="Ycircumflex" unicode="&#x176;" 
d="M659 0h-262l86 520l-315 910h281l112 -349l80 -295h16l183 295l223 349h297l-612 -902zM709 1944h237l209 -318l-139 -98l-209 237l-277 -237l-124 102z" />
    <glyph glyph-name="ycircumflex" unicode="&#x177;" 
d="M438 -434q-147 0 -245 34t-168 117l157 162q87 -108 252 -108q65 0 112.5 14.5t86.5 50t64.5 97t39.5 153.5l33 199h-10q-63 -137 -144 -207t-202 -70q-142 0 -214.5 84.5t-72.5 220.5q0 82 18 193l93 551h258l-97 -574q-12 -74 -12 -123q0 -63 33.5 -105t103.5 -42
q104 0 185 100q84 107 102 219l88 525h258l-168 -1006q-80 -485 -551 -485zM676 1595h237l209 -317l-139 -98l-209 237l-276 -237l-125 102z" />
    <glyph glyph-name="Ydieresis" unicode="&#x178;" 
d="M659 0h-262l86 520l-315 910h281l112 -349l80 -295h16l183 295l223 349h297l-612 -902zM567 1577q-139 0 -139 100q0 25 10 66q13 57 48.5 84.5t107.5 27.5q139 0 139 -100q0 -24 -10 -65q-13 -57 -48.5 -85t-107.5 -28zM995 1577q-139 0 -139 100q0 25 10 66
q13 57 48.5 84.5t107.5 27.5q139 0 139 -100q0 -24 -10 -65q-13 -57 -48.5 -85t-107.5 -28z" />
    <glyph glyph-name="Zacute" unicode="&#x179;" 
d="M1075 219l-37 -219h-1024l39 236l854 974h-665l37 220h972l-39 -236l-854 -975h717zM1071 1872l-285 -346l-151 82l231 374z" />
    <glyph glyph-name="zacute" unicode="&#x17a;" 
d="M991 1524l-284 -346l-152 82l231 374zM854 -23q-139 0 -283 64l-254 111l-10 -7l-24 -145h-228l37 219l678 567q-78 51 -136.5 72t-121.5 21q-147 0 -147 -183h-195v21q0 173 88 268.5t242 95.5q204 0 399 -168l14 -12l13 12l24 144h228l-37 -219l-684 -572l438 -88
l23 25l-64 209l158 65l30 -63q60 -126 60 -203q0 -95 -68.5 -164.5t-179.5 -69.5z" />
    <glyph glyph-name="Zdotaccent" unicode="&#x17b;" 
d="M778 1561q-153 0 -153 112q0 14 10 72q19 127 174 127q80 0 117 -31t37 -82q0 -7 -11 -71q-19 -127 -174 -127zM1075 219l-37 -219h-1024l39 236l854 974h-665l37 220h972l-39 -236l-854 -975h717z" />
    <glyph glyph-name="zdotaccent" unicode="&#x17c;" 
d="M854 -23q-139 0 -283 64l-254 111l-10 -7l-24 -145h-228l37 219l678 567q-78 51 -136.5 72t-121.5 21q-147 0 -147 -183h-195v21q0 173 88 268.5t242 95.5q204 0 399 -168l14 -12l13 12l24 144h228l-37 -219l-684 -572l438 -88l23 25l-64 209l158 65l30 -63
q60 -126 60 -203q0 -95 -68.5 -164.5t-179.5 -69.5zM696 1212q-80 0 -116.5 31t-36.5 82q0 14 10 72q19 127 174 127q80 0 117 -31t37 -82q0 -8 -11 -72q-19 -127 -174 -127z" />
    <glyph glyph-name="Zcaron" unicode="&#x17d;" 
d="M1075 219l-37 -219h-1024l39 236l854 974h-665l37 220h972l-39 -236l-854 -975h717zM891 1546h-238l-209 318l140 98l209 -238l276 238l125 -102z" />
    <glyph glyph-name="zcaron" unicode="&#x17e;" 
d="M809 1198h-238l-209 318l140 98l209 -238l276 238l125 -103zM854 -23q-139 0 -283 64l-254 111l-10 -7l-24 -145h-228l37 219l678 567q-78 51 -136.5 72t-121.5 21q-147 0 -147 -183h-195v21q0 173 88 268.5t242 95.5q204 0 399 -168l14 -12l13 12l24 144h228l-37 -219
l-684 -572l438 -88l23 25l-64 209l158 65l30 -63q60 -126 60 -203q0 -95 -68.5 -164.5t-179.5 -69.5z" />
    <glyph glyph-name="uni018F" unicode="&#x18f;" 
d="M547 -25q-223 0 -338 137t-115 392q0 114 17 211l14 84h803l4 24q14 80 14 150q0 266 -221 266q-113 0 -185.5 -67t-127.5 -197l-217 90q74 188 215 288.5t340 100.5q231 0 342.5 -138t111.5 -425q0 -90 -10.5 -179.5t-34.5 -180.5t-60 -172t-89.5 -152t-119 -122
t-154 -80.5t-189.5 -29.5zM559 186q267 0 334 406l2 12h-530q-17 -78 -17 -170q0 -248 211 -248z" />
    <glyph glyph-name="florin" unicode="&#x192;" 
d="M264 -434q-51 0 -91.5 14t-80.5 49.5t-69.5 70.5t-79.5 103l-105 140l172 123l234 -291l37 12l225 905h-303l33 205h321l66 262q31 129 124.5 200t241.5 71h332l-35 -205h-387l-82 -328h354l-32 -205h-371l-211 -842q-37 -146 -108 -215t-185 -69z" />
    <glyph glyph-name="Ohorn" unicode="&#x1a0;" 
d="M1358 1663l-35 -211q-15 -90 -61 -135t-146 -45h-4q86 -121 86 -340q0 -140 -20.5 -272t-69 -258.5t-120 -219.5t-182 -150t-247.5 -57q-239 0 -354 135t-115 388q0 140 20.5 272t69 258t120 219t182 150t247.5 57q101 0 178 -24h193l39 233h219zM563 193
q135 0 209.5 101t106.5 300l41 240q12 82 12 155q0 248 -207 248q-134 0 -208.5 -101t-106.5 -300l-41 -240q-13 -89 -13 -156q0 -247 207 -247z" />
    <glyph glyph-name="ohorn" unicode="&#x1a1;" 
d="M543 -25q-208 0 -325.5 122.5t-117.5 330.5q0 298 162.5 475.5t421.5 177.5q92 0 168 -24h174l39 233h221l-35 -211q-16 -90 -61.5 -130.5t-147.5 -41.5q86 -109 86 -278q0 -149 -43.5 -272t-120.5 -206.5t-185 -129.5t-236 -46zM561 174q113 0 183 68.5t92 195.5l24 146
q10 55 10 92q0 102 -53 154.5t-149 52.5q-113 0 -183 -69t-92 -196l-24 -145q-11 -61 -11 -92q0 -102 53.5 -154.5t149.5 -52.5z" />
    <glyph glyph-name="Uhorn" unicode="&#x1af;" 
d="M279 1430h262l-144 -863q-24 -151 -24 -211q0 -79 44.5 -121t147.5 -42q50 0 88 9.5t65.5 32t46 48t32.5 68.5t22.5 81t18.5 98l149 900h164l39 233h219l-35 -211q-13 -77 -46.5 -120t-102.5 -54l-119 -711q-15 -88 -29.5 -151.5t-36.5 -129t-49.5 -110.5t-68 -85.5
t-91.5 -64.5t-120 -37.5t-154 -13.5q-98 0 -173.5 17t-126 48.5t-82.5 78t-46 102t-14 125.5q0 95 28 270z" />
    <glyph glyph-name="uhorn" unicode="&#x1b0;" 
d="M408 -25q-142 0 -214.5 85t-72.5 221q0 76 20 196l97 580h258l-101 -604q-14 -86 -14 -127q0 -63 33.5 -105.5t103.5 -42.5q101 0 184 103q87 112 105 219l92 557h176l41 233h219l-35 -211q-15 -82 -53 -126t-117 -50l-149 -903h-258l41 250h-10q-63 -135 -144 -205
t-202 -70z" />
    <glyph glyph-name="Aringacute" unicode="&#x1fa;" 
d="M1116 0h-272l-37 365h-434l-156 -365h-276l643 1430h364zM791 582l-56 589h-18l-254 -589h328zM1141 2202l-291 -197l-94 96l260 238zM770 1495q-110 0 -182 57.5t-72 153.5q0 120 93.5 194t226.5 74q110 0 182 -57.5t72 -153.5q0 -120 -93.5 -194t-226.5 -74zM784 1622
q110 0 127 96q7 44 7 54q0 75 -97 75q-110 0 -127 -96q-6 -37 -6 -53q0 -76 96 -76z" />
    <glyph glyph-name="aringacute" unicode="&#x1fb;" 
d="M989 0h-258l41 250h-8q-66 -134 -149.5 -204.5t-211.5 -70.5q-160 0 -237.5 107t-77.5 303q0 143 33 268.5t94 221t155 151t210 55.5q229 0 284 -217h10l33 193h258zM514 180q111 0 199 105q81 94 102 213l31 192q15 88 -33.5 137.5t-150.5 49.5q-121 0 -190.5 -72
t-90.5 -201l-23 -135q-8 -50 -8 -90q0 -93 40 -146t124 -53zM1065 1853l-291 -196l-94 96l260 238zM694 1147q-110 0 -182 57.5t-72 153.5q0 120 93.5 194t226.5 74q110 0 182 -57.5t72 -153.5q0 -120 -93.5 -194t-226.5 -74zM709 1274q110 0 127 96q6 38 6 53q0 76 -97 76
q-110 0 -127 -96q-6 -37 -6 -53q0 -76 97 -76z" />
    <glyph glyph-name="AEacute" unicode="&#x1fc;" 
d="M565 0l60 367h-240l-145 -367h-258l591 1430h799l-33 -201h-325l-68 -406h303l-32 -200h-304l-71 -422h325l-32 -201h-570zM772 1245h-49l-262 -680h198zM1233 1872l-285 -346l-151 82l231 374z" />
    <glyph glyph-name="aeacute" unicode="&#x1fd;" 
d="M1020 1524l-285 -346l-151 82l231 374zM231 -25q-110 0 -175.5 69t-65.5 200q0 170 113 266.5t315 101.5l96 2l14 95q9 65 9 71q0 67 -30.5 101t-86.5 34q-60 0 -103.5 -37.5t-80.5 -113.5l-142 88q55 118 137 173.5t199 55.5q105 0 168 -44.5t70 -129.5h8
q45 81 117 127.5t168 46.5q121 0 193.5 -73t72.5 -193q0 -49 -13 -93.5t-49 -90.5t-93 -80t-152.5 -56.5t-219.5 -25.5l-4 -27q-8 -49 -8 -106q0 -89 32.5 -137.5t94.5 -48.5q58 0 96.5 41t73.5 120l164 -71q-113 -265 -348 -265q-119 0 -196 62.5t-89 187.5h-10
q-29 -123 -99 -186.5t-176 -63.5zM293 139q67 0 113 54.5t63 154.5l20 123l-75 -2q-97 -3 -152.5 -39.5t-68.5 -116.5q-7 -45 -7 -67q0 -52 29.5 -79.5t77.5 -27.5zM934 918q-76 0 -129.5 -75.5t-75.5 -205.5l-4 -25q164 6 237.5 59.5t73.5 137.5q0 53 -26.5 81t-75.5 28z
" />
    <glyph glyph-name="Oslashacute" unicode="&#x1fe;" 
d="M559 -25q-184 0 -297 84l-133 -178l-162 105l174 227q-51 105 -51 285q0 140 20.5 272t69 258t120 219t182 150t247.5 57q184 0 297 -84l133 178l162 -104l-174 -227q51 -105 51 -285q0 -140 -20.5 -272t-69 -258.5t-120 -219.5t-182 -150t-247.5 -57zM367 616
q-15 -86 -15 -137v-10l535 702q-52 68 -162 68q-134 0 -211.5 -101.5t-110.5 -297.5zM563 190q134 0 211 102t111 298l37 223q14 80 14 137v11l-535 -703q52 -68 162 -68zM1059 1872l-285 -346l-151 82l231 374z" />
    <glyph glyph-name="oslashacute" unicode="&#x1ff;" 
d="M104 -104l-124 108l176 180q-56 109 -56 244q0 298 163 475.5t423 177.5q168 0 281 -84l157 164l125 -108l-176 -181q55 -107 55 -243q0 -149 -43.5 -272t-120.5 -206.5t-185 -129.5t-236 -46q-168 0 -281 84zM668 883q-113 0 -184 -68.5t-91 -193.5l-24 -148
q-11 -74 -11 -84v-12l449 463q-49 43 -139 43zM561 174q114 0 184.5 68t90.5 194l24 148q10 73 10 84v12l-448 -463q49 -43 139 -43zM969 1524l-285 -346l-152 82l232 374z" />
    <glyph glyph-name="Scommaaccent" unicode="&#x218;" 
d="M279 -539l110 422h291l-238 -422h-163zM547 -25q-178 0 -313.5 61.5t-200.5 168.5l172 164q61 -86 155 -130t203 -44q131 0 203 62.5t72 172.5q0 76 -42.5 117t-140.5 63l-145 33q-155 34 -230 126t-75 230q0 207 146 331t392 124q160 0 282.5 -57.5t184.5 -153.5
l-176 -156q-108 152 -303 152q-123 0 -189.5 -57.5t-66.5 -155.5q0 -71 43.5 -109t147.5 -63l139 -35q158 -39 231.5 -127t73.5 -231q0 -219 -150.5 -352.5t-412.5 -133.5z" />
    <glyph glyph-name="scommaaccent" unicode="&#x219;" 
d="M270 -539l111 422h291l-238 -422h-164zM535 -25q-156 0 -272 47t-175 134l154 143q101 -135 311 -135q107 0 168 37.5t61 105.5q0 48 -30 70.5t-90 34.5l-152 30q-66 14 -113.5 32.5t-91 50.5t-66 82.5t-22.5 119.5q0 169 131 261.5t340 92.5q138 0 247 -41t165 -112
l-148 -148q-37 49 -108 81t-166 32q-98 0 -152.5 -35.5t-54.5 -99.5q0 -50 29.5 -71.5t91.5 -33.5l156 -32q53 -11 93.5 -24.5t79 -36t63 -51t39.5 -71t15 -96.5q0 -171 -136.5 -269t-366.5 -98z" />
    <glyph glyph-name="uni021A" unicode="&#x21a;" 
d="M256 -539l111 422h290l-237 -422h-164zM1292 1210h-434l-201 -1210h-262l201 1210h-432l37 220h1128z" />
    <glyph glyph-name="uni021B" unicode="&#x21b;" 
d="M272 -539l111 422h291l-238 -422h-164zM545 -25q-113 0 -170.5 61.5t-57.5 168.5q0 25 15 117l88 530h-281l35 205h182q63 0 94.5 25.5t41.5 88.5l43 259h239l-61 -373h420l-35 -205h-420l-107 -647l41 -17l361 269l127 -150l-156 -123q-150 -120 -230 -164.5t-169 -44.5
z" />
    <glyph glyph-name="uni0237" unicode="&#x237;" 
d="M479 -434q-41 0 -77 12t-66 31t-66 58t-66 77.5t-77 105.5l-86 115l176 129l260 -325l29 10l178 1073h-401l34 205h660l-197 -1176q-26 -161 -99 -238t-202 -77z" />
    <glyph glyph-name="uni0259" unicode="&#x259;" 
d="M494 -25q-166 0 -273.5 76t-107.5 213q0 55 15.5 100t62.5 93.5t125 83.5t212.5 60t315.5 32q2 16 2 37q0 100 -51.5 154.5t-169.5 54.5q-96 0 -162 -42t-150 -153l-163 104q46 69 91.5 118.5t106 91t137.5 62.5t170 21q222 0 335.5 -116.5t113.5 -335.5
q0 -292 -168.5 -473t-441.5 -181zM518 164q243 0 301 285l6 30q-121 -6 -208.5 -21t-135 -33t-75 -44t-34.5 -47t-7 -49q0 -121 153 -121z" />
    <glyph glyph-name="uni02BB" unicode="&#x2bb;" 
d="M489 1192l238 422h164l-111 -422h-291z" />
    <glyph glyph-name="uni02BC" unicode="&#x2bc;" 
d="M614 1516l-194 -424h-174l80 424h288z" />
    <glyph glyph-name="circumflex" unicode="&#x2c6;" 
d="M580 1595h237l209 -317l-139 -98l-209 237l-277 -237l-125 102z" />
    <glyph glyph-name="caron" unicode="&#x2c7;" 
d="M762 1198h-238l-209 318l140 98l209 -238l276 238l125 -103z" />
    <glyph glyph-name="breve" unicode="&#x2d8;" 
d="M655 1184q-267 0 -342 336l146 71l37 -73q29 -56 47 -83t49.5 -47t73.5 -20q54 0 93 33t105 121l54 69l149 -71q-28 -56 -52.5 -97.5t-63 -89t-79 -78t-97 -51t-120.5 -20.5z" />
    <glyph glyph-name="dotaccent" unicode="&#x2d9;" 
d="M649 1212q-80 0 -116.5 31t-36.5 82q0 14 10 72q19 127 174 127q80 0 117 -31t37 -82q0 -8 -11 -72q-19 -127 -174 -127z" />
    <glyph glyph-name="ring" unicode="&#x2da;" 
d="M635 1143q-106 0 -177 69t-71 170q0 132 94.5 220t227.5 88q105 0 176 -69t71 -171q0 -132 -94 -219.5t-227 -87.5zM651 1278q106 0 125 108q10 58 10 84q0 84 -94 84q-106 0 -125 -108q-10 -58 -10 -84q0 -84 94 -84z" />
    <glyph glyph-name="ogonek" unicode="&#x2db;" 
d="M424 -430q-103 0 -168.5 43t-65.5 123q0 81 69.5 146.5t209.5 107.5l-8 35l119 12l34 -37q-102 -62 -158 -110t-69.5 -72t-13.5 -49q0 -64 76 -64q66 0 108 55l102 -92q-84 -98 -235 -98z" />
    <glyph glyph-name="tilde" unicode="&#x2dc;" 
d="M799 1225q-31 0 -60.5 7.5t-46 15.5t-47.5 24q-85 47 -145 47q-56 0 -129 -55l-74 120q44 56 105.5 90.5t132.5 34.5q31 0 60 -7.5t45 -15t48 -24.5q85 -47 146 -47q56 0 129 55l73 -120q-98 -125 -237 -125z" />
    <glyph glyph-name="hungarumlaut" unicode="&#x2dd;" 
d="M739 1524l-276 -344l-139 69l221 379zM1124 1524l-276 -344l-139 69l221 379z" />
    <glyph glyph-name="uni0300" unicode="&#x300;" horiz-adv-x="0" 
d="M-8 1178l-209 356l223 100l144 -389z" />
    <glyph glyph-name="uni0301" unicode="&#x301;" horiz-adv-x="0" 
d="M330 1524l-285 -346l-151 82l231 374z" />
    <glyph glyph-name="uni0302" unicode="&#x302;" horiz-adv-x="0" 
d="M-35 1595h238l209 -317l-140 -98l-209 237l-276 -237l-125 102z" />
    <glyph glyph-name="uni0303" unicode="&#x303;" horiz-adv-x="0" 
d="M184 1225q-31 0 -60 7.5t-45 15t-48 24.5q-85 47 -146 47q-56 0 -129 -55l-73 120q98 125 237 125q31 0 60.5 -7.5t46 -15.5t47.5 -24q85 -47 145 -47q56 0 129 55l74 -120q-44 -56 -105.5 -90.5t-132.5 -34.5z" />
    <glyph glyph-name="uni0304" unicode="&#x304;" horiz-adv-x="0" 
d="M-268 1276l30 186h609l-33 -186h-606z" />
    <glyph glyph-name="uni0306" unicode="&#x306;" horiz-adv-x="0" 
d="M41 1184q-267 0 -342 336l145 71l37 -73q29 -56 47 -83t49.5 -47t73.5 -20q38 0 70.5 18.5t58 47t70.5 88.5l53 69l150 -71q-28 -56 -52.5 -97.5t-63 -89t-79 -78t-97 -51t-120.5 -20.5z" />
    <glyph glyph-name="uni0307" unicode="&#x307;" horiz-adv-x="0" 
d="M35 1212q-80 0 -117 31t-37 82q0 14 10 72q19 127 175 127q80 0 116.5 -31t36.5 -82q0 -14 -10 -72q-19 -127 -174 -127z" />
    <glyph glyph-name="uni0308" unicode="&#x308;" horiz-adv-x="0" 
d="M-176 1229q-139 0 -139 100q0 25 10 66q13 57 48 84.5t107 27.5q140 0 140 -100q0 -25 -10 -66q-13 -57 -48.5 -84.5t-107.5 -27.5zM252 1229q-139 0 -139 100q0 25 10 66q13 57 48.5 84.5t107.5 27.5q139 0 139 -100q0 -25 -10 -66q-13 -57 -48.5 -84.5t-107.5 -27.5z
" />
    <glyph glyph-name="uni0309" unicode="&#x309;" horiz-adv-x="0" 
d="M-162 1419l31 187h274q77 0 117.5 -32.5t40.5 -84.5q0 -55 -25.5 -104t-76.5 -107l-103 -119l-129 66l117 194h-246z" />
    <glyph glyph-name="uni030A" unicode="&#x30a;" horiz-adv-x="0" 
d="M20 1143q-105 0 -176 68.5t-71 170.5q0 132 94 220t227 88q105 0 176.5 -69t71.5 -171q0 -131 -94.5 -219t-227.5 -88zM37 1278q106 0 125 108q10 58 10 84q0 84 -94 84q-106 0 -125 -108q-10 -58 -10 -84q0 -84 94 -84z" />
    <glyph glyph-name="uni030B" unicode="&#x30b;" horiz-adv-x="0" 
d="M125 1524l-277 -344l-139 69l221 379zM510 1524l-277 -344l-139 69l221 379z" />
    <glyph glyph-name="uni030C" unicode="&#x30c;" horiz-adv-x="0" 
d="M147 1198h-237l-209 318l139 98l209 -238l277 238l125 -103z" />
    <glyph glyph-name="uni0312" unicode="&#x312;" horiz-adv-x="0" 
d="M-125 1192l238 422h163l-110 -422h-291z" />
    <glyph glyph-name="uni0315" unicode="&#x315;" horiz-adv-x="0" 
d="M301 1516l-195 -424h-174l80 424h289z" />
    <glyph glyph-name="uni031B" unicode="&#x31b;" horiz-adv-x="0" 
d="M258 1290l-35 -211q-16 -92 -62 -136t-145 -44h-274l29 158h229l39 233h219z" />
    <glyph glyph-name="uni0323" unicode="&#x323;" horiz-adv-x="0" 
d="M-55 -395q-70 0 -102.5 28t-32.5 74q0 22 8 62q11 57 47 85.5t108 28.5q70 0 103 -28t33 -74q0 -17 -9 -62q-11 -57 -47 -85.5t-108 -28.5z" />
    <glyph glyph-name="uni0326" unicode="&#x326;" horiz-adv-x="0" 
d="M-272 -539l110 422h291l-238 -422h-163z" />
    <glyph glyph-name="uni0327" unicode="&#x327;" horiz-adv-x="0" 
d="M-31 -430q-83 0 -141 25t-86 65l96 100q42 -57 127 -57q42 0 70 16.5t28 47.5q0 63 -135 75l-49 4l78 209h127l-64 -172l7 -8q37 12 82 12q59 0 96 -31t37 -94q0 -91 -77 -141.5t-196 -50.5z" />
    <glyph glyph-name="uni0328" unicode="&#x328;" horiz-adv-x="0" 
d="M-190 -430q-103 0 -168.5 43t-65.5 123q0 81 69.5 146.5t209.5 107.5l-9 35l119 12l35 -37q-147 -90 -194.5 -141.5t-47.5 -89.5q0 -64 76 -64q67 0 109 55l102 -92q-84 -98 -235 -98z" />
    <glyph glyph-name="pi" unicode="&#x3c0;" 
d="M94 0l142 852h-158l35 205h1124l-35 -205h-176l-117 -674l37 -12l162 119l100 -111l-49 -49q-90 -84 -153.5 -117t-139.5 -33q-95 0 -145.5 52.5t-50.5 148.5q0 55 20 178l82 498h-285l-143 -852h-250z" />
    <glyph glyph-name="uni0400" unicode="&#x400;" 
d="M985 0h-903l237 1430h904l-37 -220h-641l-62 -376h615l-37 -220h-615l-65 -395h641zM756 1526l-209 356l223 100l143 -389z" />
    <glyph glyph-name="uni0401" unicode="&#x401;" 
d="M985 0h-903l237 1430h904l-37 -220h-641l-62 -376h615l-37 -220h-615l-65 -395h641zM588 1577q-139 0 -139 100q0 25 10 66q13 57 48 84.5t107 27.5q140 0 140 -100q0 -20 -11 -65q-13 -57 -48 -85t-107 -28zM1016 1577q-139 0 -139 100q0 25 10 66q13 57 48 84.5
t107 27.5q140 0 140 -100q0 -20 -11 -65q-13 -57 -48 -85t-107 -28z" />
    <glyph glyph-name="uni0402" unicode="&#x402;" 
d="M748 -406q-71 0 -132 37.5t-127 122.5l-53 68l168 133l139 -156l31 8l103 607q18 114 18 153q0 121 -139 121q-92 0 -168 -31l-111 -657h-262l203 1210h-287l37 220h836l-37 -220h-287l-57 -342h10q90 37 211 37q146 0 227.5 -80t81.5 -227q0 -96 -25 -246l-73 -442
q-53 -316 -307 -316z" />
    <glyph glyph-name="uni0403" unicode="&#x403;" 
d="M150 0l237 1430h842l-37 -220h-578l-200 -1210h-264zM1135 1872l-285 -346l-152 82l232 374z" />
    <glyph glyph-name="uni0404" unicode="&#x404;" 
d="M588 -25q-233 0 -354 136.5t-121 400.5q0 275 82.5 490t232.5 333.5t342 118.5q396 0 461 -367l-252 -61q-20 113 -71.5 162t-149.5 49q-260 0 -328 -403h387l-35 -220h-389q-16 -101 -16 -163q0 -258 231 -258q91 0 157 49.5t126 163.5l217 -84q-89 -182 -212.5 -264.5
t-307.5 -82.5z" />
    <glyph glyph-name="uni0405" unicode="&#x405;" 
d="M547 -25q-178 0 -313.5 61.5t-200.5 168.5l172 164q61 -86 155 -130t203 -44q131 0 203 62.5t72 172.5q0 76 -42.5 117t-140.5 63l-145 33q-155 34 -230 126t-75 230q0 207 146 331t392 124q160 0 282.5 -57.5t184.5 -153.5l-176 -156q-108 152 -303 152
q-123 0 -189.5 -57.5t-66.5 -155.5q0 -71 43.5 -109t147.5 -63l139 -35q158 -39 231.5 -127t73.5 -231q0 -219 -150.5 -352.5t-412.5 -133.5z" />
    <glyph glyph-name="uni0406" unicode="&#x406;" 
d="M981 0h-909l32 199h324l172 1032h-324l33 199h910l-33 -199h-324l-172 -1032h324z" />
    <glyph glyph-name="uni0407" unicode="&#x407;" 
d="M981 0h-909l32 199h324l172 1032h-324l33 199h910l-33 -199h-324l-172 -1032h324zM584 1577q-140 0 -140 100q0 21 11 66q13 57 48 84.5t107 27.5q140 0 140 -100q0 -20 -11 -65q-13 -57 -48 -85t-107 -28zM1012 1577q-140 0 -140 100q0 21 11 66q13 57 48 84.5t107 27.5
q140 0 140 -100q0 -20 -11 -65q-13 -57 -48 -85t-107 -28z" />
    <glyph glyph-name="uni0408" unicode="&#x408;" 
d="M422 1430h754l-172 -1033q-36 -212 -164 -317t-338 -105q-196 0 -306 102.5t-118 280.5l248 48q7 -101 49.5 -157t142.5 -56q187 0 225 221l134 796h-492z" />
    <glyph glyph-name="uni0409" unicode="&#x409;" 
d="M-86 -8l35 215h84q49 44 84.5 118.5t80.5 257t95 490.5l61 357h588l-88 -533h39q153 0 236 -91.5t83 -246.5q0 -268 -125.5 -413.5t-343.5 -145.5h-272l203 1223h-142l-28 -172q-54 -316 -101.5 -505.5t-93 -287t-108.5 -160.5q-106 -106 -258 -106h-29zM737 205h37
q71 0 116.5 46t63.5 152l7 43q8 57 8 113q0 133 -115 133h-37z" />
    <glyph glyph-name="uni040A" unicode="&#x40a;" 
d="M-14 0l237 1430h234l-101 -603h219l101 603h231l-88 -533h33q174 0 267 -93.5t93 -254.5q0 -261 -129.5 -405t-353.5 -144h-293l105 621h-217l-105 -621h-233zM702 205h37q92 0 145 47.5t70 150.5l7 43q8 57 8 105q0 72 -34 106.5t-116 34.5h-35z" />
    <glyph glyph-name="uni040B" unicode="&#x40b;" 
d="M215 0l203 1210h-287l37 220h836l-37 -220h-287l-57 -342h10q90 37 211 37q146 0 227.5 -80t81.5 -227q0 -96 -25 -246l-59 -352h-262l70 414q18 114 18 153q0 121 -139 121q-92 0 -168 -31l-111 -657h-262z" />
    <glyph glyph-name="uni040C" unicode="&#x40c;" 
d="M68 0l237 1430h264l-98 -599h201l338 599h270l-309 -547q-40 -69 -82 -102t-96 -42l-2 -10q48 -14 75 -51t49 -119l86 -340h119l-35 -219h-129q-89 0 -139 43.5t-76 144.5l-108 428h-199l-102 -616h-264zM1090 1872l-285 -346l-152 82l232 374z" />
    <glyph glyph-name="uni040D" unicode="&#x40d;" 
d="M43 0l238 1430h251l-96 -580l-98 -401h16l226 339l426 642h245l-237 -1430h-252l96 580l98 401h-16l-199 -299l-452 -682h-246zM743 1526l-208 356l223 100l143 -389z" />
    <glyph glyph-name="uni040E" unicode="&#x40e;" 
d="M160 0l37 219h225l72 137l-287 1074h264l133 -545l47 -262h6l115 260l285 547h274l-649 -1203q-68 -129 -143.5 -178t-198.5 -49h-180zM780 1530q-115 0 -187.5 56t-107.5 173l-34 107l211 76l20 -220q47 -14 113 -14q67 0 114 14l84 220l203 -76l-66 -117
q-118 -219 -350 -219z" />
    <glyph glyph-name="uni040F" unicode="&#x40f;" 
d="M356 -307l52 307h-355l238 1430h262l-199 -1211h420l203 1211h262l-238 -1430h-356l-51 -307h-238z" />
    <glyph glyph-name="uni0410" unicode="&#x410;" 
d="M1116 0h-272l-37 365h-434l-156 -365h-276l643 1430h364zM791 582l-56 589h-18l-254 -589h328z" />
    <glyph glyph-name="uni0411" unicode="&#x411;" 
d="M70 0l241 1430h842l-37 -220h-579l-58 -342h271q182 0 280 -99t98 -261q0 -233 -135.5 -370.5t-365.5 -137.5h-557zM371 215h231q108 0 164.5 44t73.5 142l8 45q6 34 6 72q0 135 -180 135h-230z" />
    <glyph glyph-name="uni0412" unicode="&#x412;" 
d="M78 0l237 1430h480q179 0 275.5 -88.5t96.5 -241.5q0 -145 -73.5 -237.5t-214.5 -129.5l-2 -8q229 -53 229 -276q0 -198 -130 -323.5t-345 -125.5h-553zM369 193h204q231 0 254 169l9 58q8 50 8 72q0 73 -46.5 108t-142.5 35h-213zM473 819h170q111 0 168 37.5t74 128.5
l10 55q6 27 6 62q0 135 -180 135h-178z" />
    <glyph glyph-name="uni0413" unicode="&#x413;" 
d="M150 0l237 1430h842l-37 -220h-578l-200 -1210h-264z" />
    <glyph glyph-name="uni0414" unicode="&#x414;" 
d="M-100 -307l88 526h106q99 98 174 289t131 524l68 398h727l-201 -1211h148l-88 -526h-238l51 307h-673l-52 -307h-241zM362 219h373l166 998h-237l-39 -230q-51 -311 -116 -492.5t-147 -275.5z" />
    <glyph glyph-name="uni0415" unicode="&#x415;" 
d="M985 0h-903l237 1430h904l-37 -220h-641l-62 -376h615l-37 -220h-615l-65 -395h641z" />
    <glyph glyph-name="uni0416" unicode="&#x416;" 
d="M-76 0l205 528q35 94 83 141.5t118 59.5l2 10q-56 19 -81 63.5t-28 131.5l-26 496h219l30 -605h105l100 605h230l-101 -605h105l223 605h227l-190 -512q-30 -86 -70 -126.5t-104 -52.5l-2 -10q57 -19 84 -65t34 -138l39 -526h-231l-45 623h-105l-104 -623h-229l104 623
h-106l-240 -623h-246z" />
    <glyph glyph-name="uni0417" unicode="&#x417;" 
d="M528 -25q-164 0 -288.5 61t-196.5 169l172 164q61 -83 146.5 -131t187.5 -48q108 0 174 52.5t78 146.5l4 31q4 32 4 49q0 72 -46.5 108.5t-154.5 36.5h-182l37 217h182q109 0 164 45t74 148l4 23q4 20 4 40q0 72 -54.5 112t-156.5 40q-178 0 -305 -154l-156 148
q190 221 490 221q217 0 332.5 -87.5t115.5 -248.5q0 -155 -97 -256.5t-247 -116.5l-2 -12q266 -42 266 -278q0 -209 -149 -344.5t-400 -135.5z" />
    <glyph glyph-name="uni0418" unicode="&#x418;" 
d="M43 0l238 1430h251l-96 -580l-98 -401h16l226 339l426 642h245l-237 -1430h-252l96 580l98 401h-16l-199 -299l-452 -682h-246z" />
    <glyph glyph-name="uni0419" unicode="&#x419;" 
d="M43 0l238 1430h251l-96 -580l-98 -401h16l226 339l426 642h245l-237 -1430h-252l96 580l98 401h-16l-199 -299l-452 -682h-246zM782 1530q-115 0 -187.5 56t-107.5 173l-34 107l211 76l20 -220q47 -14 113 -14q67 0 114 14l84 220l203 -76l-65 -117q-118 -219 -351 -219z
" />
    <glyph glyph-name="uni041A" unicode="&#x41a;" 
d="M68 0l237 1430h264l-98 -599h201l338 599h270l-309 -547q-40 -69 -82 -102t-96 -42l-2 -10q48 -14 75 -51t49 -119l86 -340h119l-35 -219h-129q-89 0 -139 43.5t-76 144.5l-108 428h-199l-102 -616h-264z" />
    <glyph glyph-name="uni041B" unicode="&#x41b;" 
d="M-70 -8l39 229h142q89 79 152 254t120 522l72 433h788l-237 -1430h-265l203 1212h-280l-41 -245q-59 -358 -133 -555t-164 -287q-72 -72 -148.5 -102.5t-183.5 -30.5h-64z" />
    <glyph glyph-name="uni041C" unicode="&#x41c;" 
d="M813 0l111 666l80 413h-17l-403 -735l-156 735h-16l-58 -413l-110 -666h-232l238 1430h307l113 -531h16l289 531h307l-238 -1430h-231z" />
    <glyph glyph-name="uni041D" unicode="&#x41d;" 
d="M741 0l103 616h-426l-103 -616h-262l238 1430h262l-98 -596h426l98 596h262l-237 -1430h-263z" />
    <glyph glyph-name="uni041E" unicode="&#x41e;" 
d="M559 -25q-239 0 -354 135t-115 388q0 140 20.5 272t69 258t120 219t182 150t247.5 57q239 0 354 -134.5t115 -387.5q0 -140 -20.5 -272t-69 -258.5t-120 -219.5t-182 -150t-247.5 -57zM563 193q135 0 209.5 101t106.5 300l41 240q12 82 12 155q0 248 -207 248
q-134 0 -208.5 -101t-106.5 -300l-41 -240q-13 -89 -13 -156q0 -247 207 -247z" />
    <glyph glyph-name="uni041F" unicode="&#x41f;" 
d="M53 0l240 1430h946l-238 -1430h-264l203 1210h-420l-203 -1210h-264z" />
    <glyph glyph-name="uni0420" unicode="&#x420;" 
d="M344 0h-262l237 1430h517q182 0 279 -100t97 -267q0 -238 -133 -376t-362 -138h-281zM547 1214l-76 -448h219q206 0 236 182l10 64q4 24 4 61q0 73 -42.5 107t-133.5 34h-217z" />
    <glyph glyph-name="uni0421" unicode="&#x421;" 
d="M592 -25q-239 0 -356 138.5t-117 398.5q0 272 77.5 484.5t227.5 335t352 122.5q109 0 193 -29.5t136.5 -83.5t81.5 -123.5t36 -154.5l-250 -57q-12 113 -57.5 172t-153.5 59q-257 0 -326 -403l-37 -216q-16 -91 -16 -167q0 -258 229 -258q100 0 168 64.5t125 188.5
l223 -73q-87 -200 -213.5 -299t-322.5 -99z" />
    <glyph glyph-name="uni0422" unicode="&#x422;" 
d="M1292 1210h-434l-201 -1210h-262l201 1210h-432l37 220h1128z" />
    <glyph glyph-name="uni0423" unicode="&#x423;" 
d="M160 0l37 219h225l72 137l-287 1074h264l133 -545l47 -262h6l115 260l285 547h274l-649 -1203q-68 -129 -143.5 -178t-198.5 -49h-180z" />
    <glyph glyph-name="uni0424" unicode="&#x424;" 
d="M391 -68l29 177q-168 24 -257 128.5t-89 288.5q0 349 145.5 560t403.5 231l28 176h250l-29 -176q168 -24 257.5 -129t89.5 -289q0 -349 -145.5 -559.5t-403.5 -230.5l-29 -177h-250zM463 301l137 823q-99 -15 -167.5 -99t-92.5 -226l-27 -158q-10 -68 -10 -115
q0 -185 160 -225zM692 301q98 15 167 99.5t93 226.5l27 157q10 68 10 115q0 185 -160 225z" />
    <glyph glyph-name="uni0425" unicode="&#x425;" 
d="M817 731l299 -731h-291l-110 287l-90 248h-15l-168 -248l-206 -287h-293l544 737l-282 693h293l94 -242l86 -246h12l168 246l176 242h293z" />
    <glyph glyph-name="uni0426" unicode="&#x426;" 
d="M860 -389q-76 0 -157.5 28t-208.5 93l-19 -11l-16 -102h-209l12 78q35 209 211 209q52 0 150 -29l251 -67l19 10l47 180h-903l237 1430h265l-201 -1211h373l200 1211h265l-201 -1211h164l-64 -383q-21 -121 -73.5 -173t-141.5 -52z" />
    <glyph glyph-name="uni0427" unicode="&#x427;" 
d="M731 0l86 522h-10q-110 -47 -248 -47q-395 0 -395 365q0 98 18 235l60 355h264l-70 -406q-14 -89 -14 -162q0 -90 46 -130t144 -40q128 0 240 39l117 699h264l-238 -1430h-264z" />
    <glyph glyph-name="uni0428" unicode="&#x428;" 
d="M-14 0l237 1430h232l-203 -1223h194l203 1223h232l-203 -1223h194l203 1223h232l-238 -1430h-1083z" />
    <glyph glyph-name="uni0429" unicode="&#x429;" 
d="M879 -389q-55 0 -114.5 23.5t-197.5 97.5l-18 -11l-17 -102h-208l12 78q35 209 211 209q47 0 133 -29l213 -67l20 10l48 180h-975l237 1430h221l-202 -1223h172l202 1223h222l-203 -1223h172l203 1223h221l-203 -1223h129l-63 -371q-20 -121 -72 -173t-143 -52z" />
    <glyph glyph-name="uni042A" unicode="&#x42a;" 
d="M195 0l200 1210h-264l37 220h528l-90 -533h201q184 0 282.5 -101t98.5 -268q0 -248 -135.5 -388t-368.5 -140h-489zM494 215h165q108 0 166.5 45.5t75.5 142.5l6 39q8 62 8 93q0 76 -43.5 111.5t-136.5 35.5h-164z" />
    <glyph glyph-name="uni042B" unicode="&#x42b;" 
d="M254 205h82q92 0 144 47.5t69 150.5l8 43q8 57 8 107q0 70 -34 104.5t-115 34.5h-82zM-14 0l237 1430h234l-88 -533h77q175 0 268 -93t93 -255q0 -261 -129.5 -405t-353.5 -144h-338zM838 0l237 1430h234l-238 -1430h-233z" />
    <glyph glyph-name="uni042C" unicode="&#x42c;" 
d="M379 215h217q109 0 167 45.5t73 142.5l8 39q8 62 8 93q0 76 -43.5 111.5t-136.5 35.5h-215zM80 0l237 1430h263l-88 -533h251q184 0 282.5 -101t98.5 -268q0 -248 -135 -388t-368 -140h-541z" />
    <glyph glyph-name="uni042D" unicode="&#x42d;" 
d="M481 614l35 220h387q12 73 12 145q0 258 -229 258q-91 0 -157 -49.5t-126 -163.5l-219 84q91 183 214.5 264.5t308.5 81.5q234 0 353.5 -135.5t119.5 -400.5q0 -275 -83 -490t-232.5 -334t-340.5 -119q-397 0 -461 367l252 61q20 -112 72 -161t150 -49q259 0 331 421
h-387z" />
    <glyph glyph-name="uni042E" unicode="&#x42e;" 
d="M717 -25q-148 0 -220.5 94t-72.5 296q0 130 18 256h-116l-105 -621h-233l237 1430h234l-101 -603h117q40 191 94.5 328t114.5 197q102 102 252 102q149 0 221 -93.5t72 -295.5q0 -275 -81 -582t-179 -405q-103 -103 -252 -103zM733 172q47 0 76.5 22.5t54.5 88.5t45 190
l80 481q19 111 19 181q0 122 -88 122q-47 0 -76.5 -22t-55 -88.5t-45.5 -190.5l-79 -481q-19 -111 -19 -180q0 -123 88 -123z" />
    <glyph glyph-name="uni042F" unicode="&#x42f;" 
d="M0 0l35 221h115l151 236q40 62 78.5 92t99.5 43l2 12q-278 49 -278 336q0 218 136.5 354t362.5 136h531l-238 -1430h-264l94 565h-153l-256 -397q-62 -92 -127.5 -130t-153.5 -38h-135zM653 778h207l74 439h-207q-209 0 -240 -185l-6 -37q-6 -41 -6 -73
q0 -73 43.5 -108.5t134.5 -35.5z" />
    <glyph glyph-name="uni0430" unicode="&#x430;" 
d="M989 0h-258l41 250h-8q-66 -134 -149.5 -204.5t-211.5 -70.5q-160 0 -237.5 107t-77.5 303q0 143 33 268.5t94 221t155 151t210 55.5q229 0 284 -217h10l33 193h258zM514 180q111 0 199 105q81 94 102 213l31 192q15 88 -33.5 137.5t-150.5 49.5q-121 0 -190.5 -72
t-90.5 -201l-23 -135q-8 -50 -8 -90q0 -93 40 -146t124 -53z" />
    <glyph glyph-name="uni0431" unicode="&#x431;" 
d="M547 -25q-204 0 -319 122t-115 325q0 245 92 521.5t215 399.5q93 91 210 136t296 49l288 10l-47 -238l-280 -8q-103 -3 -169.5 -28t-115.5 -76q-98 -103 -168 -359h15q61 106 138 156.5t185 50.5q156 0 254 -108t98 -299q0 -298 -160.5 -476t-416.5 -178zM565 176
q108 0 179 67.5t94 192.5l20 111q8 54 8 86q0 100 -54 151.5t-146 51.5q-229 0 -271 -244l-18 -105q-10 -58 -10 -104q0 -103 51.5 -155t146.5 -52z" />
    <glyph glyph-name="uni0432" unicode="&#x432;" 
d="M569 -25q-215 0 -328.5 111t-113.5 301q0 62 23 197q39 229 188 363t379 134q172 0 273.5 -73t101.5 -195q0 -100 -65.5 -163t-182.5 -85l-2 -8q98 -15 150 -69t52 -144q0 -162 -136.5 -265.5t-338.5 -103.5zM582 164q85 0 138.5 38.5t63.5 108.5q4 24 4 47
q0 103 -133 103q-52 0 -198 -19l-72 -12q-4 -28 -4 -55q0 -98 53 -154.5t148 -56.5zM408 588l98 14q125 17 195 38t98 45.5t35 62.5q4 20 4 34q0 47 -39 79t-113 32q-107 0 -179.5 -72t-94.5 -200z" />
    <glyph glyph-name="uni0433" unicode="&#x433;" 
d="M516 -25q-202 0 -306 75t-104 216q0 137 93.5 231t285.5 124l148 22q111 18 156 51.5t45 87.5q0 101 -158 101q-168 0 -301 -115l-133 139q194 174 465 174q184 0 283.5 -74.5t99.5 -211.5q0 -133 -94 -224.5t-285 -121.5l-146 -25q-112 -17 -157.5 -51.5t-45.5 -91.5
q0 -55 43 -81t142 -26q96 0 184 34t152 95l135 -139q-202 -189 -502 -189z" />
    <glyph glyph-name="uni0434" unicode="&#x434;" 
d="M504 -25q-194 0 -302 116t-108 312q0 151 40.5 276t109 207t158.5 126.5t190 44.5q213 0 264 -211h12v80q0 209 -71.5 300t-231.5 91q-90 0 -176 -23l37 226q85 20 197 20q505 0 505 -571q0 -304 -64 -518.5t-173 -325.5q-150 -150 -387 -150zM532 176q107 0 176 71.5
t95 209.5l20 106q15 71 15 131q0 80 -49 121t-144 41q-104 0 -170.5 -68.5t-91.5 -199.5l-23 -111q-12 -65 -12 -102q0 -95 48 -147t136 -52z" />
    <glyph glyph-name="uni0435" unicode="&#x435;" 
d="M573 -25q-222 0 -335 117t-113 336q0 292 168.5 472.5t441.5 180.5q166 0 273.5 -75.5t107.5 -212.5q0 -55 -15.5 -100t-62.5 -93.5t-125 -83.5t-212.5 -60t-315.5 -32q-2 -16 -2 -37q0 -100 51.5 -154.5t169.5 -54.5q96 0 161.5 41.5t149.5 153.5l164 -105
q-46 -69 -92 -118.5t-106.5 -91t-137.5 -62.5t-170 -21zM711 893q-243 0 -301 -285l-7 -30q121 6 209 21t135.5 33t75 44t34.5 47.5t7 48.5q0 121 -153 121z" />
    <glyph glyph-name="uni0436" unicode="&#x436;" 
d="M-68 0l33 197h148q62 117 92 333q20 140 20 254q0 63 -8 76h-131l33 197h61q118 0 177 -69t59 -230q0 -74 -6 -127h116l70 426h215l-70 -426h109q55 255 137 340q45 47 100 66.5t136 19.5h65l-33 -197h-135q-58 -109 -92 -334q-20 -137 -20 -254q0 -34 6 -75h141
l-33 -197h-71q-116 0 -175 69t-59 230q0 67 4 145h-110l-74 -444h-215l74 444h-109q-55 -263 -141 -358q-43 -48 -98 -67t-140 -19h-76z" />
    <glyph glyph-name="uni0437" unicode="&#x437;" 
d="M524 -25q-290 0 -454 187l157 153q60 -70 132 -105.5t171 -35.5q110 0 164 33.5t72 103.5q6 24 6 43q0 90 -129 90h-215l31 181h176q164 0 186 116q2 10 2 29q0 113 -178 113q-94 0 -166 -34t-139 -104l-135 142q104 101 219 147.5t258 46.5q190 0 296.5 -74t106.5 -196
q0 -103 -62 -171.5t-185 -94.5l-2 -10q196 -36 196 -201q0 -159 -137 -259t-371 -100z" />
    <glyph glyph-name="uni0438" unicode="&#x438;" 
d="M723 0l41 250h-10q-63 -135 -144 -205t-202 -70q-142 0 -214.5 85t-72.5 221q0 76 20 196l97 580h258l-101 -604q-14 -86 -14 -127q0 -63 33.5 -105.5t103.5 -42.5q101 0 184 103q87 112 105 219l92 557h258l-176 -1057h-258z" />
    <glyph glyph-name="uni0439" unicode="&#x439;" 
d="M723 0l41 250h-10q-63 -135 -144 -205t-202 -70q-142 0 -214.5 85t-72.5 221q0 76 20 196l97 580h258l-101 -604q-14 -86 -14 -127q0 -63 33.5 -105.5t103.5 -42.5q101 0 184 103q87 112 105 219l92 557h258l-176 -1057h-258zM725 1182q-116 0 -189 56t-108 173l-33 107
l211 75l19 -219q51 -14 114 -14q68 0 115 14l84 219l203 -75l-66 -117q-121 -219 -350 -219z" />
    <glyph glyph-name="uni043A" unicode="&#x43a;" 
d="M84 0l176 1057h258l-67 -422h161l289 422h273l-254 -375q-41 -62 -82 -91.5t-101 -39.5l-2 -12q46 -11 76 -41.5t57 -100.5l76 -192h115l-35 -205h-117q-81 0 -131.5 36t-81.5 114l-112 288h-166l-74 -438h-258z" />
    <glyph glyph-name="uni043B" unicode="&#x43b;" 
d="M-47 -8l35 217h145q68 77 112 192t77 310l57 346h756l-177 -1057h-258l144 856h-260l-25 -151q-42 -252 -94.5 -387t-126.5 -209q-61 -61 -130.5 -89t-166.5 -28h-88z" />
    <glyph glyph-name="uni043C" unicode="&#x43c;" 
d="M35 0l174 1057h272l142 -473h12l297 473h266l-176 -1057h-217l92 547l41 192h-14l-369 -583l-174 583h-14l-25 -192l-90 -547h-217z" />
    <glyph glyph-name="uni043D" unicode="&#x43d;" 
d="M68 0l176 1057h258l-70 -420h402l69 420h258l-176 -1057h-258l72 436h-402l-71 -436h-258z" />
    <glyph glyph-name="uni043E" unicode="&#x43e;" 
d="M543 -25q-208 0 -325.5 122.5t-117.5 330.5q0 298 163 475.5t423 177.5q208 0 325 -122t117 -330q0 -149 -43.5 -272t-120.5 -206.5t-185 -129.5t-236 -46zM561 174q113 0 183 68.5t92 195.5l24 146q10 55 10 92q0 102 -53 154.5t-149 52.5q-113 0 -183 -69t-92 -196
l-24 -145q-11 -61 -11 -92q0 -102 53.5 -154.5t149.5 -52.5z" />
    <glyph glyph-name="uni043F" unicode="&#x43f;" 
d="M330 0h-258l176 1057h258l-41 -250h10q63 135 144 204.5t202 69.5q142 0 214.5 -84.5t72.5 -220.5q0 -70 -21 -196l-96 -580h-258l101 604q14 86 14 127q0 63 -33.5 105.5t-103.5 42.5q-102 0 -185 -103q-86 -110 -104 -219z" />
    <glyph glyph-name="uni0440" unicode="&#x440;" 
d="M-6 -410l246 1467h258l-43 -250h10q66 134 149 204t211 70q160 0 238 -106.5t78 -302.5q0 -143 -33 -269t-94 -221.5t-155 -151t-210 -55.5q-229 0 -284 218h-13l-100 -603h-258zM567 180q121 0 190.5 72t90.5 201l20 127q11 69 11 98q0 93 -40 146t-124 53
q-111 0 -199 -105q-81 -94 -102 -213l-31 -192q-15 -88 33.5 -137.5t150.5 -49.5z" />
    <glyph glyph-name="uni0441" unicode="&#x441;" 
d="M557 -25q-207 0 -318.5 118.5t-111.5 328.5q0 187 68.5 336t200 236t304.5 87q170 0 267.5 -70.5t130.5 -193.5l-211 -96q-26 78 -72.5 113.5t-134.5 35.5q-103 0 -171 -66t-89 -194l-21 -123q-8 -41 -8 -96q0 -99 51.5 -152t155.5 -53q49 0 87 14.5t95 67t131 152.5
l166 -105q-74 -116 -143.5 -187t-163.5 -112t-213 -41z" />
    <glyph glyph-name="uni0442" unicode="&#x442;" 
d="M203 0h-213l176 1057h213l-31 -178h12q83 202 234 202q84 0 126.5 -54.5t33.5 -152.5h10q87 207 254 207q89 0 134.5 -50.5t45.5 -147.5q0 -70 -14 -156l-121 -727h-213l117 705q10 52 10 94q0 90 -68 90q-60 0 -108 -72q-44 -69 -58 -149l-110 -668h-213l117 705
q10 52 10 94q0 90 -68 90q-60 0 -108 -72q-44 -69 -58 -149z" />
    <glyph glyph-name="uni0443" unicode="&#x443;" 
d="M438 -434q-147 0 -245 34t-168 117l157 162q87 -108 252 -108q65 0 112.5 14.5t86.5 50t64.5 97t39.5 153.5l33 199h-10q-63 -137 -144 -207t-202 -70q-142 0 -214.5 84.5t-72.5 220.5q0 82 18 193l93 551h258l-97 -574q-12 -74 -12 -123q0 -63 33.5 -105t103.5 -42
q104 0 185 100q84 107 102 219l88 525h258l-168 -1006q-80 -485 -551 -485z" />
    <glyph glyph-name="uni0444" unicode="&#x444;" 
d="M571 932l52 303q23 138 106 209.5t221 71.5h172l-32 -197h-240l-64 -389h11q41 80 88 115.5t110 35.5q92 0 140.5 -68t48.5 -198q0 -241 -55 -444.5t-144 -292.5q-66 -66 -151 -66q-68 0 -105.5 35.5t-56.5 114.5h-13l-63 -377q-37 -219 -209 -219q-53 0 -99.5 24
t-119.5 88l-78 64l119 145l143 -123l27 11l65 389h-10q-41 -80 -88 -116t-110 -36q-92 0 -140.5 68.5t-48.5 198.5q0 241 55 444.5t144 292.5q65 65 151 65q67 0 105 -35.5t57 -113.5h12zM481 356l64 379q24 146 -80 146q-60 0 -98 -66t-64 -217l-20 -115q-15 -83 -15 -149
q0 -63 21.5 -92t68.5 -29q100 0 123 143zM766 213q60 0 98 66t64 217l20 114q15 82 15 150q0 63 -22 92t-69 29q-98 0 -122 -144l-64 -379q-12 -74 7 -109.5t73 -35.5z" />
    <glyph glyph-name="uni0445" unicode="&#x445;" 
d="M217 -25q-104 0 -161.5 70.5t-57.5 204.5q0 56 6 106l211 23q-2 -25 -2 -51q0 -87 17.5 -124.5t62.5 -37.5q47 0 85 44.5t60.5 110.5t37.5 148.5t20.5 151.5t5.5 127q0 69 -10 131l-27 12l-285 -191l-106 146l143 106q85 63 153 96t134 33q59 0 100 -23.5t63 -68.5
t31 -101t9 -132h14q40 170 113 247.5t180 77.5q104 0 161.5 -70.5t57.5 -203.5q0 -57 -6 -107l-211 -22q2 25 2 51q0 87 -17.5 124.5t-62.5 37.5q-47 0 -85 -44.5t-60.5 -110.5t-37.5 -148.5t-20.5 -151.5t-5.5 -127q0 -81 14 -131l25 -12l285 196l106 -139l-102 -90
q-180 -158 -324 -158q-209 0 -209 326h-14q-40 -170 -113 -248t-180 -78z" />
    <glyph glyph-name="uni0446" unicode="&#x446;" 
d="M899 -389q-66 0 -140 26t-210 95l-19 -11l-18 -102h-207l12 78q35 209 211 209q52 0 150 -29l237 -67l21 10l78 213l-6 4q-54 -45 -127 -45q-82 0 -131.5 51.5t-49.5 136.5q0 45 9 88h-11q-71 -149 -147 -212.5t-186 -63.5q-132 0 -203.5 79.5t-71.5 225.5q0 64 19 192
l96 568h258l-98 -588q-15 -73 -15 -125q0 -147 125 -147q50 0 87.5 22.5t80.5 77.5q90 118 105 217l90 543h258l-138 -830l31 -10l123 125l117 -115l-43 -47l-70 -348q-25 -118 -75.5 -169.5t-141.5 -51.5z" />
    <glyph glyph-name="uni0447" unicode="&#x447;" 
d="M700 0l88 530h-10q-60 -111 -136.5 -161t-188.5 -50q-135 0 -216 73t-81 198q0 57 10 129l57 338h258l-53 -309q-10 -59 -10 -103q0 -57 39.5 -89t109.5 -32q107 0 173 60t85 166l52 307h258l-177 -1057h-258z" />
    <glyph glyph-name="uni0448" unicode="&#x448;" 
d="M211 -25q-90 0 -136 51t-46 148q0 66 14 152l121 733h215l-117 -701q-12 -66 -12 -100q0 -90 69 -90q60 0 109 72q38 56 57 168l109 651h215l-117 -701q-10 -55 -10 -98q0 -92 68 -92q57 0 106 72q41 59 57 147l111 670h215l-176 -1057h-215l31 178h-13
q-83 -203 -231 -203q-85 0 -128 54t-34 153h-8q-88 -207 -254 -207z" />
    <glyph glyph-name="uni0449" unicode="&#x449;" 
d="M920 -389q-83 0 -169.5 25t-246.5 96l-21 -11l-16 -102h-205l12 78q15 98 67 151.5t132 53.5q36 0 141 -21l326 -78l18 11l78 213l-6 6q-41 -41 -92 -41q-58 0 -92.5 40t-34.5 113q0 6 4 52h-10q-84 -205 -225 -205q-81 0 -119 54t-29 153h-8q-88 -207 -246 -207
q-77 0 -119.5 51t-42.5 147q0 62 15 154l116 713h213l-112 -684q-12 -66 -12 -101q0 -86 61 -86q50 0 90 64q40 63 57 172l107 635h211l-115 -684q-8 -66 -8 -99q0 -88 57 -88q56 0 92 64q43 78 58 172l104 635h213l-143 -867l22 -8l88 88l99 -100l-31 -33l-59 -305
q-25 -122 -77 -171.5t-142 -49.5z" />
    <glyph glyph-name="uni044A" unicode="&#x44a;" 
d="M641 -25q-185 0 -288 96.5t-103 252.5q0 122 43.5 221t150.5 209l62 63l-201 62l-18 -11l-15 -86h-202l14 90q37 209 215 209q59 0 119.5 -28t159.5 -101l10 11l16 94h221l-20 -137l-232 -279l17 -14q128 108 262 108q129 0 205 -75.5t76 -215.5q0 -208 -139 -338.5
t-353 -130.5zM664 168q79 0 135.5 47.5t70.5 140.5q7 47 7 62q0 67 -39.5 101t-112.5 34q-175 0 -217 -168q-6 -25 -6 -68q0 -71 41.5 -110t120.5 -39z" />
    <glyph glyph-name="uni044B" unicode="&#x44b;" 
d="M377 -25q-161 0 -242.5 83t-81.5 237q0 76 21 211l94 551h221l-78 -457h13q43 85 100 126.5t141 41.5q106 0 162.5 -70.5t56.5 -203.5q0 -245 -116.5 -382t-290.5 -137zM379 158q63 0 104 46.5t60 160.5q10 62 10 100q0 121 -100 121q-67 0 -112 -50.5t-60 -134.5
q-11 -57 -11 -106q0 -68 28.5 -102.5t80.5 -34.5zM842 0l176 1057h221l-176 -1057h-221z" />
    <glyph glyph-name="uni044C" unicode="&#x44c;" 
d="M571 -25q-189 0 -296 97t-107 245q0 66 18 189l93 551h258l-78 -473h10q57 90 132 136t185 46q140 0 217.5 -78t77.5 -229q0 -215 -143.5 -349.5t-366.5 -134.5zM596 172q173 0 217 184q8 36 8 74q0 139 -153 139q-104 0 -164 -49t-74 -131q-6 -34 -6 -67
q0 -71 43 -110.5t129 -39.5z" />
    <glyph glyph-name="uni044D" unicode="&#x44d;" 
d="M426 440l29 181h364q0 8 1 24.5t1 24.5q0 101 -53.5 156t-159.5 55q-75 0 -132 -34t-132 -124l-164 108q101 132 207.5 191t261.5 59q207 0 317.5 -118t110.5 -328q0 -187 -68.5 -336t-200 -236.5t-304.5 -87.5q-326 0 -408 252l205 97q28 -78 77.5 -113t131.5 -35
q115 0 188 67.5t95 196.5h-367z" />
    <glyph glyph-name="uni044E" unicode="&#x44e;" 
d="M721 -25q-142 0 -215.5 85t-73.5 249q0 78 6 133h-149l-74 -442h-221l176 1057h221l-72 -426h144q47 216 157.5 333t266.5 117q143 0 216 -84.5t73 -248.5q0 -360 -121 -566.5t-334 -206.5zM745 166q65 0 101.5 56t58.5 186l35 202q16 121 16 156q0 125 -94 125
q-65 0 -101.5 -56t-58.5 -186l-34 -203q-17 -129 -17 -155q0 -125 94 -125z" />
    <glyph glyph-name="uni044F" unicode="&#x44f;" 
d="M41 0l33 205h108l113 164q30 42 63.5 62.5t83.5 23.5l2 12q-126 17 -190 81t-64 165q0 167 137 267.5t363 100.5q228 0 420 -69l-168 -1012h-258l66 399h-138l-184 -272q-47 -70 -100 -98.5t-131 -28.5h-156zM618 553h158l53 319q-72 21 -149 21q-103 0 -157.5 -36
t-73.5 -112q-5 -20 -5 -47q0 -145 174 -145z" />
    <glyph glyph-name="uni0450" unicode="&#x450;" 
d="M573 -25q-222 0 -335 117t-113 336q0 292 168.5 472.5t441.5 180.5q166 0 273.5 -75.5t107.5 -212.5q0 -55 -15.5 -100t-62.5 -93.5t-125 -83.5t-212.5 -60t-315.5 -32q-2 -16 -2 -37q0 -100 51.5 -154.5t169.5 -54.5q96 0 161.5 41.5t149.5 153.5l164 -105
q-46 -69 -92 -118.5t-106.5 -91t-137.5 -62.5t-170 -21zM711 893q-243 0 -301 -285l-7 -30q121 6 209 21t135.5 33t75 44t34.5 47.5t7 48.5q0 121 -153 121zM700 1178l-208 356l223 100l143 -389z" />
    <glyph glyph-name="uni0451" unicode="&#x451;" 
d="M573 -25q-222 0 -335 117t-113 336q0 292 168.5 472.5t441.5 180.5q166 0 273.5 -75.5t107.5 -212.5q0 -55 -15.5 -100t-62.5 -93.5t-125 -83.5t-212.5 -60t-315.5 -32q-2 -16 -2 -37q0 -100 51.5 -154.5t169.5 -54.5q96 0 161.5 41.5t149.5 153.5l164 -105
q-46 -69 -92 -118.5t-106.5 -91t-137.5 -62.5t-170 -21zM711 893q-243 0 -301 -285l-7 -30q121 6 209 21t135.5 33t75 44t34.5 47.5t7 48.5q0 121 -153 121zM532 1229q-139 0 -139 100q0 25 10 66q13 57 48.5 84.5t107.5 27.5q139 0 139 -100q0 -25 -10 -66
q-13 -57 -48.5 -84.5t-107.5 -27.5zM961 1229q-140 0 -140 100q0 25 10 66q13 57 48.5 84.5t107.5 27.5q139 0 139 -100q0 -25 -10 -66q-13 -57 -48 -84.5t-107 -27.5z" />
    <glyph glyph-name="uni0452" unicode="&#x452;" 
d="M670 -434q-74 0 -139 44.5t-148 151.5l-47 62l166 127l166 -182l28 10l138 825q14 86 14 127q0 63 -33.5 105.5t-103.5 42.5q-105 0 -185 -103q-86 -110 -104 -219l-92 -557h-258l200 1206h-122l30 193h125l19 117h258l-19 -117h287l-33 -193h-287l-65 -399h10
q63 135 144 204.5t202 69.5q142 0 214.5 -84.5t72.5 -220.5q0 -70 -21 -196l-114 -699q-52 -315 -303 -315z" />
    <glyph glyph-name="uni0453" unicode="&#x453;" 
d="M516 -25q-202 0 -306 75t-104 216q0 137 93.5 231t285.5 124l148 22q111 18 156 51.5t45 87.5q0 101 -158 101q-168 0 -301 -115l-133 139q194 174 465 174q184 0 283.5 -74.5t99.5 -211.5q0 -133 -94 -224.5t-285 -121.5l-146 -25q-112 -17 -157.5 -51.5t-45.5 -91.5
q0 -55 43 -81t142 -26q96 0 184 34t152 95l135 -139q-202 -189 -502 -189zM1024 1524l-285 -346l-151 82l231 374z" />
    <glyph glyph-name="uni0454" unicode="&#x454;" 
d="M557 -25q-207 0 -318.5 118.5t-111.5 328.5q0 187 68.5 336t200 236t304.5 87q326 0 400 -264l-203 -92q-26 85 -76 121.5t-143 36.5q-104 0 -174.5 -68t-93.5 -194h368l-30 -181h-367q-2 -18 -2 -53q0 -102 55 -157.5t162 -55.5q73 0 131 35t135 127l160 -105
q-99 -133 -206 -194.5t-259 -61.5z" />
    <glyph glyph-name="uni0455" unicode="&#x455;" 
d="M535 -25q-156 0 -272 47t-175 134l154 143q101 -135 311 -135q107 0 168 37.5t61 105.5q0 48 -30 70.5t-90 34.5l-152 30q-66 14 -113.5 32.5t-91 50.5t-66 82.5t-22.5 119.5q0 169 131 261.5t340 92.5q138 0 247 -41t165 -112l-148 -148q-37 49 -108 81t-166 32
q-98 0 -152.5 -35.5t-54.5 -99.5q0 -50 29.5 -71.5t91.5 -33.5l156 -32q53 -11 93.5 -24.5t79 -36t63 -51t39.5 -71t15 -96.5q0 -171 -136.5 -269t-366.5 -98z" />
    <glyph glyph-name="uni0456" unicode="&#x456;" 
d="M696 1225q-153 0 -153 112q0 23 8 72q22 127 176 127t154 -113q0 -15 -9 -71q-22 -127 -176 -127zM594 -25q-108 0 -166.5 58t-58.5 157q0 41 18 140l100 522h-340l35 205h600l-166 -864l39 -13l322 309l143 -129l-143 -151q-119 -127 -204.5 -180.5t-178.5 -53.5z" />
    <glyph glyph-name="uni0457" unicode="&#x457;" 
d="M594 -25q-108 0 -166.5 58t-58.5 157q0 41 18 140l100 522h-340l35 205h600l-166 -864l39 -13l322 309l143 -129l-143 -151q-119 -127 -204.5 -180.5t-178.5 -53.5zM473 1229q-139 0 -139 100q0 25 10 66q13 57 48.5 84.5t107.5 27.5q139 0 139 -100q0 -25 -10 -66
q-13 -57 -48.5 -84.5t-107.5 -27.5zM901 1229q-139 0 -139 100q0 25 10 66q13 57 48.5 84.5t107.5 27.5q139 0 139 -100q0 -25 -10 -66q-13 -57 -48.5 -84.5t-107.5 -27.5z" />
    <glyph glyph-name="uni0458" unicode="&#x458;" 
d="M479 -434q-41 0 -77 12t-66 31t-66 58t-66 77.5t-77 105.5l-86 115l176 129l260 -325l29 10l178 1073h-401l34 205h660l-197 -1176q-26 -161 -99 -238t-202 -77zM885 1225q-154 0 -154 112q0 23 8 72q22 127 176 127t154 -113q0 -22 -8 -71q-22 -127 -176 -127z" />
    <glyph glyph-name="uni0459" unicode="&#x459;" 
d="M803 -25q-146 0 -222.5 82.5t-76.5 233.5q0 92 18 203l62 374h-156l-20 -125q-50 -306 -101 -445t-127 -212q-97 -94 -250 -94h-39l33 198h92q59 65 102.5 190t84.5 370l51 307h577l-73 -445h10q80 154 229 154q97 0 152 -69.5t55 -200.5q0 -124 -32.5 -224.5t-88 -164.5
t-127.5 -98t-153 -34zM813 152q114 0 156 213q10 52 10 106q0 119 -90 119q-61 0 -106 -51t-58 -138q-12 -78 -12 -112q0 -67 26.5 -102t73.5 -35z" />
    <glyph glyph-name="uni045A" unicode="&#x45a;" 
d="M803 -25q-146 0 -223.5 83.5t-77.5 234.5q0 63 8 115l4 34h-238l-73 -442h-213l176 1057h215l-70 -424h236l69 424h215l-73 -445h10q80 154 229 154q97 0 152 -69.5t55 -200.5q0 -124 -32.5 -224.5t-88 -164.5t-127.5 -98t-153 -34zM813 152q114 0 156 213q10 52 10 106
q0 119 -90 119q-61 0 -105.5 -51.5t-58.5 -137.5q-12 -78 -12 -112q0 -67 26.5 -102t73.5 -35z" />
    <glyph glyph-name="uni045B" unicode="&#x45b;" 
d="M72 0l200 1206h-122l32 193h123l19 117h258l-19 -117h287l-33 -193h-287l-65 -399h10q63 135 144 204.5t202 69.5q142 0 214.5 -84.5t72.5 -220.5q0 -70 -21 -196l-96 -580h-258l101 604q14 86 14 127q0 63 -33.5 105.5t-103.5 42.5q-102 0 -185 -103q-86 -110 -104 -219
l-92 -557h-258z" />
    <glyph glyph-name="uni045C" unicode="&#x45c;" 
d="M84 0l176 1057h258l-67 -422h161l289 422h273l-254 -375q-41 -62 -82 -91.5t-101 -39.5l-2 -12q46 -11 76 -41.5t57 -100.5l76 -192h115l-35 -205h-117q-81 0 -131.5 36t-81.5 114l-112 288h-166l-74 -438h-258zM1010 1524l-285 -346l-152 82l232 374z" />
    <glyph glyph-name="uni045D" unicode="&#x45d;" 
d="M723 0l41 250h-10q-63 -135 -144 -205t-202 -70q-142 0 -214.5 85t-72.5 221q0 76 20 196l97 580h258l-101 -604q-14 -86 -14 -127q0 -63 33.5 -105.5t103.5 -42.5q101 0 184 103q87 112 105 219l92 557h258l-176 -1057h-258zM686 1178l-209 356l223 100l144 -389z" />
    <glyph glyph-name="uni045E" unicode="&#x45e;" 
d="M438 -434q-147 0 -245 34t-168 117l157 162q87 -108 252 -108q65 0 112.5 14.5t86.5 50t64.5 97t39.5 153.5l33 199h-10q-63 -137 -144 -207t-202 -70q-142 0 -214.5 84.5t-72.5 220.5q0 82 18 193l93 551h258l-97 -574q-12 -74 -12 -123q0 -63 33.5 -105t103.5 -42
q104 0 185 100q84 107 102 219l88 525h258l-168 -1006q-80 -485 -551 -485zM743 1182q-116 0 -189 56t-108 173l-32 107l211 75l18 -219q51 -14 115 -14q67 0 114 14l84 219l203 -75l-65 -117q-121 -219 -351 -219z" />
    <glyph glyph-name="uni045F" unicode="&#x45f;" 
d="M408 -25q-142 0 -214.5 85t-72.5 221q0 76 20 196l97 580h258l-101 -604q-14 -86 -14 -127q0 -63 33.5 -105.5t103.5 -42.5q104 0 184 103q87 111 105 219l92 557h258l-176 -1057h-258l41 250h-10q-63 -135 -144 -205t-202 -70zM336 -410l55 324h230l-56 -324h-229z" />
    <glyph glyph-name="uni0472" unicode="&#x472;" 
d="M559 -25q-239 0 -354 135t-115 388q0 140 20.5 272t69 258t120 219t182 150t247.5 57q239 0 354 -134.5t115 -387.5q0 -140 -20.5 -272t-69 -258.5t-120 -219.5t-182 -150t-247.5 -57zM561 174q141 0 219.5 101.5t114.5 314.5l4 24h-543l-4 -22q-12 -66 -12 -160
q0 -128 53.5 -193t167.5 -65zM393 834h543q14 69 14 163q0 128 -53.5 193t-167.5 65q-142 0 -220 -102t-116 -319z" />
    <glyph glyph-name="uni0473" unicode="&#x473;" 
d="M543 -25q-210 0 -326.5 122.5t-116.5 330.5q0 298 163 475.5t423 177.5q208 0 325 -122t117 -330q0 -149 -43.5 -272t-120.5 -206.5t-185 -129.5t-236 -46zM559 158q121 0 195 70.5t96 201.5l2 12h-504q-6 -37 -6 -67q0 -108 56.5 -162.5t160.5 -54.5zM379 625h504
q4 40 4 57q0 108 -56.5 162.5t-160.5 54.5q-121 0 -194 -70.5t-97 -203.5z" />
    <glyph glyph-name="uni0490" unicode="&#x490;" 
d="M150 0l237 1430h604l51 307h238l-88 -527h-578l-200 -1210h-264z" />
    <glyph glyph-name="uni0491" unicode="&#x491;" 
d="M166 0l176 1057h547l49 291h229l-82 -492h-518l-143 -856h-258z" />
    <glyph glyph-name="uni0492" unicode="&#x492;" 
d="M106 614l33 199h178l103 617h844l-39 -220h-578l-67 -397h360l-33 -199h-360l-101 -614h-264l103 614h-179z" />
    <glyph glyph-name="uni0493" unicode="&#x493;" 
d="M209 0l67 410h-192l31 180h192l78 467h776l-33 -201h-518l-45 -266h307l-30 -180h-307l-68 -410h-258z" />
    <glyph glyph-name="uni0494" unicode="&#x494;" 
d="M727 -406q-77 0 -138.5 38.5t-125.5 127.5l-55 74l167 133l146 -162l27 11l81 452q17 97 17 158q0 170 -193 170q-132 0 -239 -39l-92 -557h-265l238 1430h842l-37 -220h-578l-73 -442h10q109 45 250 45q395 0 395 -364q0 -108 -23 -240l-57 -322q-54 -293 -297 -293z
" />
    <glyph glyph-name="uni0495" unicode="&#x495;" 
d="M672 -434q-58 0 -111.5 28.5t-90 66t-85.5 101.5l-43 56l166 129l162 -178l30 10l68 407q10 56 10 101q0 56 -39.5 87.5t-109.5 31.5q-108 0 -173.5 -59t-84.5 -165l-31 -182h-258l176 1057h776l-33 -201h-518l-75 -457h10q60 111 136.5 161t188.5 50q135 0 216 -72
t81 -196q0 -56 -10 -131l-55 -330q-52 -315 -303 -315z" />
    <glyph glyph-name="uni0496" unicode="&#x496;" 
d="M926 -307l51 307h-105l-45 623h-100l-104 -623h-230l105 623h-103l-241 -623h-244l205 528q34 93 81.5 141t118.5 60l2 10q-56 19 -81 63t-29 132l-25 496h219l31 -605h100l101 605h229l-100 -605h100l223 605h228l-191 -512q-32 -87 -71.5 -127t-104.5 -52l-2 -10
q59 -19 86 -65t33 -138l27 -321h112l-86 -512h-190z" />
    <glyph glyph-name="uni0497" unicode="&#x497;" 
d="M887 -287l49 301q-137 48 -137 285q0 87 6 145h-113l-74 -444h-215l74 444h-108q-55 -261 -142 -358q-43 -48 -97.5 -67t-139.5 -19h-76l33 197h147q62 117 92 333q21 147 21 254q0 63 -8 76h-131l32 197h62q118 0 176.5 -69t58.5 -230q0 -57 -4 -127h115l70 426h215
l-70 -426h108q55 254 138 340q45 47 99.5 66.5t135.5 19.5h66l-33 -197h-135q-58 -109 -92 -334q-21 -144 -21 -254q0 -34 6 -75h164l-80 -484h-192z" />
    <glyph glyph-name="uni0498" unicode="&#x498;" 
d="M354 -307l49 293q-242 40 -360 219l172 164q61 -83 146.5 -131t187.5 -48q108 0 174 52.5t78 146.5l4 31q4 32 4 49q0 72 -46.5 108.5t-154.5 36.5h-182l37 217h182q109 0 164 45t74 148l4 23q4 20 4 40q0 72 -54.5 112t-156.5 40q-178 0 -305 -154l-156 148
q190 221 490 221q217 0 332.5 -87.5t115.5 -248.5q0 -155 -97 -256.5t-247 -116.5l-2 -12q266 -42 266 -278q0 -183 -115.5 -311t-316.5 -158l-47 -293h-244z" />
    <glyph glyph-name="uni0499" unicode="&#x499;" 
d="M367 -287l45 271q-209 26 -342 178l157 153q60 -70 132 -105.5t171 -35.5q110 0 164 33.5t72 103.5q6 24 6 43q0 90 -129 90h-215l31 181h176q164 0 186 116q2 10 2 29q0 113 -178 113q-94 0 -166 -34t-139 -104l-135 142q104 101 219 147.5t258 46.5q190 0 296.5 -74
t106.5 -196q0 -103 -62 -171.5t-185 -94.5l-2 -10q196 -36 196 -201q0 -138 -104 -233t-289 -119l-43 -269h-229z" />
    <glyph glyph-name="uni049A" unicode="&#x49a;" 
d="M834 -307l51 309q-61 12 -100 56t-60 130l-109 428h-198l-103 -616h-264l238 1430h264l-98 -599h200l338 599h271l-310 -547q-40 -69 -82 -102t-96 -42l-2 -10q48 -14 76 -51t49 -119l86 -340h174l-88 -526h-237z" />
    <glyph glyph-name="uni049B" unicode="&#x49b;" 
d="M772 -287l47 287q-94 29 -143 150l-113 288h-166l-73 -438h-258l176 1057h258l-70 -422h164l287 422h274l-256 -375q-41 -62 -81.5 -91.5t-98.5 -39.5l-2 -12q46 -11 76 -42t55 -100l78 -192h157l-82 -492h-229z" />
    <glyph glyph-name="uni049C" unicode="&#x49c;" 
d="M399 322l50 296h-95l-102 -618h-244l238 1430h243l-98 -601h92l52 299h186l-49 -299h76l325 601h252l-299 -549q-36 -67 -78 -100t-98 -42l-2 -10q50 -14 77 -50.5t44 -117.5l73 -342h121l-37 -219h-108q-93 0 -144 47t-75 164l-90 407h-72l-49 -296h-189z" />
    <glyph glyph-name="uni049D" unicode="&#x49d;" 
d="M381 213l37 227h-94l-74 -440h-238l176 1057h238l-72 -426h97l43 252h174l-43 -252h67l277 426h254l-242 -373q-41 -63 -82 -92.5t-100 -40.5l-2 -12q48 -9 77 -40.5t54 -101.5l65 -192h115l-35 -205h-96q-83 0 -134.5 36.5t-80.5 121.5l-100 282h-70l-37 -227h-174z" />
    <glyph glyph-name="uni04A0" unicode="&#x4a0;" 
d="M186 0l201 1210h-262l37 220h526l-98 -599h158l315 599h270l-289 -545q-36 -69 -78 -103t-98 -43l-2 -10q51 -14 78.5 -51t42.5 -115l68 -344h119l-37 -219h-127q-94 0 -147 48.5t-75 170.5l-77 397h-158l-102 -616h-265z" />
    <glyph glyph-name="uni04A1" unicode="&#x4a1;" 
d="M184 0l144 856h-252l33 201h509l-69 -422h133l272 422h275l-244 -375q-38 -61 -80.5 -90.5t-99.5 -40.5l-2 -12q48 -13 76.5 -43t52.5 -101l65 -190h115l-35 -205h-116q-86 0 -136.5 38.5t-81.5 127.5l-92 272h-135l-74 -438h-258z" />
    <glyph glyph-name="uni04A2" unicode="&#x4a2;" 
d="M813 -307l51 307h-188l102 614h-375l-102 -614h-264l237 1430h265l-101 -596h375l100 596h263l-201 -1211h164l-86 -526h-240z" />
    <glyph glyph-name="uni04A3" unicode="&#x4a3;" 
d="M809 -287l49 287h-192l71 436h-362l-72 -436h-258l176 1057h258l-69 -420h360l70 420h258l-142 -852h164l-80 -492h-231z" />
    <glyph glyph-name="uni04A4" unicode="&#x4a4;" 
d="M-14 0l237 1430h250l-100 -601h286l101 601h579l-34 -209h-330l-203 -1221h-250l103 621h-287l-102 -621h-250z" />
    <glyph glyph-name="uni04A5" unicode="&#x4a5;" 
d="M-10 0l176 1057h237l-71 -422h272l70 422h590l-33 -195h-352l-144 -862h-237l73 440h-270l-74 -440h-237z" />
    <glyph glyph-name="uni04AA" unicode="&#x4aa;" 
d="M397 -307l52 299q-330 75 -330 520q0 272 77.5 484.5t227.5 335t352 122.5q109 0 193 -29.5t136.5 -83.5t81.5 -123.5t36 -154.5l-250 -57q-12 113 -57.5 172t-153.5 59q-257 0 -326 -403l-37 -218q-16 -88 -16 -165q0 -258 229 -258q100 0 168 64.5t125 188.5l223 -73
q-75 -174 -180 -271t-258 -120l-49 -289h-244z" />
    <glyph glyph-name="uni04AB" unicode="&#x4ab;" 
d="M401 -287l45 273q-154 29 -236.5 142.5t-82.5 293.5q0 187 68.5 336t200 236t304.5 87q170 0 267.5 -70.5t130.5 -193.5l-211 -96q-26 78 -72.5 113.5t-134.5 35.5q-103 0 -171 -66t-89 -194l-21 -121q-8 -44 -8 -98q0 -99 51.5 -152t155.5 -53q49 0 87 14.5t95 67
t131 152.5l166 -105q-94 -146 -186.5 -225.5t-214.5 -101.5l-45 -275h-230z" />
    <glyph glyph-name="uni04AE" unicode="&#x4ae;" 
d="M659 0h-262l86 520l-315 910h281l112 -349l80 -295h16l183 295l223 349h297l-612 -902z" />
    <glyph glyph-name="uni04AF" unicode="&#x4af;" 
d="M328 -410l69 410l-219 1057h266l68 -406l55 -379h13l180 379l205 406h260l-570 -1057l-69 -410h-258z" />
    <glyph glyph-name="uni04B0" unicode="&#x4b0;" 
d="M180 326l35 198h268l-315 906h281l114 -349l80 -295h16l183 295l221 349h297l-612 -906h268l-35 -198h-268l-54 -326h-264l54 326h-269z" />
    <glyph glyph-name="uni04B1" unicode="&#x4b1;" 
d="M328 -410l39 230h-258l30 180h258l-219 1057h266l68 -406l55 -379h13l180 379l205 406h260l-570 -1057h256l-28 -180h-258l-39 -230h-258z" />
    <glyph glyph-name="uni04B2" unicode="&#x4b2;" 
d="M864 -307l51 307h-102l-111 287l-90 248h-14l-168 -248l-207 -287h-293l545 739l-282 691h292l95 -242l86 -246h14l166 246l176 242h293l-510 -699l213 -512h172l-86 -526h-240z" />
    <glyph glyph-name="uni04B3" unicode="&#x4b3;" 
d="M864 -287l58 344l-21 9q-76 -91 -168 -91q-209 0 -209 326h-14q-40 -170 -113 -248t-180 -78q-104 0 -161.5 70.5t-57.5 204.5q0 56 6 106l211 23q-2 -25 -2 -51q0 -87 17.5 -124.5t62.5 -37.5q47 0 85 44.5t60.5 110.5t37.5 148.5t20.5 151.5t5.5 127q0 69 -10 131
l-27 12l-285 -191l-106 146l143 106q85 63 153 96t134 33q110 0 156.5 -81t46.5 -228v-16h14q40 170 113 247.5t180 77.5q104 0 161.5 -70.5t57.5 -203.5q0 -57 -6 -107l-211 -22q2 25 2 51q0 87 -17.5 124.5t-62.5 37.5q-47 0 -85 -44.5t-60.5 -110.5t-37.5 -148.5
t-20.5 -151.5t-5.5 -127q0 -81 14 -131l25 -12l266 184l107 -139l-84 -498h-193z" />
    <glyph glyph-name="uni04B6" unicode="&#x4b6;" 
d="M813 -307l51 307h-190l88 522h-10q-96 -47 -234 -47q-193 0 -289 93t-96 272q0 91 19 235l59 355h262l-67 -406q-15 -95 -15 -162q0 -170 184 -170q124 0 222 39l116 699h263l-201 -1211h164l-86 -526h-240z" />
    <glyph glyph-name="uni04B7" unicode="&#x4b7;" 
d="M809 -287l49 287h-194l88 530h-11q-56 -109 -132.5 -158.5t-180.5 -49.5q-127 0 -206 72.5t-79 197.5q0 65 11 127l57 338h258l-51 -309q-10 -56 -10 -103q0 -57 36 -89t99 -32q101 0 164 60.5t81 165.5l52 307h258l-142 -852h164l-80 -492h-231z" />
    <glyph glyph-name="uni04B8" unicode="&#x4b8;" 
d="M446 219l43 258q-175 15 -257 107t-82 258q0 96 18 233l59 355h265l-70 -406q-14 -89 -14 -160q0 -69 27 -110.5t91 -55.5l56 328h188l-55 -330q82 9 151 35l117 699h264l-237 -1430h-265l86 522h-10q-62 -27 -143 -39l-43 -264h-189z" />
    <glyph glyph-name="uni04B9" unicode="&#x4b9;" 
d="M709 0l82 498h-11q-26 -45 -62 -85t-71 -59l-33 -196h-174l29 164q-158 0 -241 70.5t-83 199.5q0 68 11 127l57 338h258l-51 -309q-10 -59 -10 -103t24 -72.5t70 -37.5l49 292h174l-49 -292q127 49 153 204l54 318h258l-176 -1057h-258z" />
    <glyph glyph-name="uni04BA" unicode="&#x4ba;" 
d="M53 0l240 1430h264l-88 -523h12q115 49 248 49q395 0 395 -366q0 -109 -20 -236l-60 -354h-264l68 401q16 101 16 166q0 90 -46 130t-144 40q-125 0 -240 -39l-117 -698h-264z" />
    <glyph glyph-name="uni04BB" unicode="&#x4bb;" 
d="M72 0l252 1516h258l-117 -709h10q63 135 144 204.5t202 69.5q142 0 214.5 -84.5t72.5 -220.5q0 -70 -21 -196l-96 -580h-258l101 604q14 86 14 127q0 63 -33.5 105.5t-103.5 42.5q-102 0 -185 -103q-86 -110 -104 -219l-92 -557h-258z" />
    <glyph glyph-name="uni04C0" unicode="&#x4c0;" 
d="M981 0h-909l32 199h324l172 1032h-324l33 199h910l-33 -199h-324l-172 -1032h324z" />
    <glyph glyph-name="uni04C1" unicode="&#x4c1;" 
d="M-76 0l205 528q35 94 83 141.5t118 59.5l2 10q-56 19 -81 63.5t-28 131.5l-26 496h219l30 -605h105l100 605h230l-101 -605h105l223 605h227l-190 -512q-30 -86 -70 -126.5t-104 -52.5l-2 -10q57 -19 84 -65t34 -138l39 -526h-231l-45 623h-105l-104 -623h-229l104 623
h-106l-240 -623h-246zM791 1530q-115 0 -187.5 56t-107.5 173l-35 107l211 76l20 -220q47 -14 113 -14q68 0 115 14l84 220l202 -76l-65 -117q-118 -219 -350 -219z" />
    <glyph glyph-name="uni04C2" unicode="&#x4c2;" 
d="M-68 0l33 197h148q62 117 92 333q20 140 20 254q0 63 -8 76h-131l33 197h61q118 0 177 -69t59 -230q0 -74 -6 -127h116l70 426h215l-70 -426h109q55 255 137 340q45 47 100 66.5t136 19.5h65l-33 -197h-135q-58 -109 -92 -334q-20 -137 -20 -254q0 -34 6 -75h141
l-33 -197h-71q-116 0 -175 69t-59 230q0 67 4 145h-110l-74 -444h-215l74 444h-109q-55 -263 -141 -358q-43 -48 -98 -67t-140 -19h-76zM733 1182q-116 0 -189 56t-108 173l-33 107l211 75l19 -219q51 -14 115 -14q67 0 114 14l84 219l203 -75l-66 -117q-121 -219 -350 -219
z" />
    <glyph glyph-name="uni04CF" unicode="&#x4cf;" 
d="M324 0l245 1311h-329l34 205h592l-248 -1311h332l-35 -205h-591z" />
    <glyph glyph-name="uni04D0" unicode="&#x4d0;" 
d="M1116 0h-272l-37 365h-434l-156 -365h-276l643 1430h364zM791 582l-56 589h-18l-254 -589h328zM786 1530q-115 0 -187 56t-107 173l-35 107l211 76l20 -220q47 -14 113 -14q67 0 114 14l84 220l203 -76l-65 -117q-118 -219 -351 -219z" />
    <glyph glyph-name="uni04D1" unicode="&#x4d1;" 
d="M989 0h-258l41 250h-8q-66 -134 -149.5 -204.5t-211.5 -70.5q-160 0 -237.5 107t-77.5 303q0 143 33 268.5t94 221t155 151t210 55.5q229 0 284 -217h10l33 193h258zM514 180q111 0 199 105q81 94 102 213l31 192q15 88 -33.5 137.5t-150.5 49.5q-121 0 -190.5 -72
t-90.5 -201l-23 -135q-8 -50 -8 -90q0 -93 40 -146t124 -53zM702 1182q-116 0 -188.5 56t-107.5 173l-33 107l211 75l18 -219q51 -14 115 -14q67 0 114 14l84 219l203 -75l-65 -117q-121 -219 -351 -219z" />
    <glyph glyph-name="uni04D2" unicode="&#x4d2;" 
d="M1116 0h-272l-37 365h-434l-156 -365h-276l643 1430h364zM791 582l-56 589h-18l-254 -589h328zM580 1577q-140 0 -140 100q0 21 11 66q13 57 48 84.5t107 27.5q139 0 139 -100q0 -24 -10 -65q-13 -57 -48 -85t-107 -28zM1008 1577q-140 0 -140 100q0 21 11 66
q13 57 48 84.5t107 27.5q140 0 140 -100q0 -20 -11 -65q-13 -57 -48 -85t-107 -28z" />
    <glyph glyph-name="uni04D3" unicode="&#x4d3;" 
d="M989 0h-258l41 250h-8q-66 -134 -149.5 -204.5t-211.5 -70.5q-160 0 -237.5 107t-77.5 303q0 143 33 268.5t94 221t155 151t210 55.5q229 0 284 -217h10l33 193h258zM514 180q111 0 199 105q81 94 102 213l31 192q15 88 -33.5 137.5t-150.5 49.5q-121 0 -190.5 -72
t-90.5 -201l-23 -135q-8 -50 -8 -90q0 -93 40 -146t124 -53zM496 1229q-140 0 -140 100q0 21 11 66q13 57 48 84.5t107 27.5q140 0 140 -100q0 -21 -11 -66q-13 -57 -48 -84.5t-107 -27.5zM924 1229q-140 0 -140 100q0 21 11 66q13 57 48 84.5t107 27.5q140 0 140 -100
q0 -21 -11 -66q-13 -57 -48 -84.5t-107 -27.5z" />
    <glyph glyph-name="uni04D4" unicode="&#x4d4;" 
d="M565 0l60 367h-240l-145 -367h-258l591 1430h799l-33 -201h-325l-68 -406h303l-32 -200h-304l-71 -422h325l-32 -201h-570zM772 1245h-49l-262 -680h198z" />
    <glyph glyph-name="uni04D5" unicode="&#x4d5;" 
d="M231 -25q-110 0 -175.5 69t-65.5 200q0 170 113 266.5t315 101.5l96 2l14 95q9 65 9 71q0 67 -30.5 101t-86.5 34q-60 0 -103.5 -37.5t-80.5 -113.5l-142 88q55 118 137 173.5t199 55.5q105 0 168 -44.5t70 -129.5h8q45 81 117 127.5t168 46.5q121 0 193.5 -73t72.5 -193
q0 -49 -13 -93.5t-49 -90.5t-93 -80t-152.5 -56.5t-219.5 -25.5l-4 -27q-8 -49 -8 -106q0 -89 32.5 -137.5t94.5 -48.5q58 0 96.5 41t73.5 120l164 -71q-113 -265 -348 -265q-119 0 -196 62.5t-89 187.5h-10q-29 -123 -99 -186.5t-176 -63.5zM293 139q67 0 113 54.5
t63 154.5l20 123l-75 -2q-97 -3 -152.5 -39.5t-68.5 -116.5q-7 -45 -7 -67q0 -52 29.5 -79.5t77.5 -27.5zM934 918q-76 0 -129.5 -75.5t-75.5 -205.5l-4 -25q164 6 237.5 59.5t73.5 137.5q0 53 -26.5 81t-75.5 28z" />
    <glyph glyph-name="uni04D6" unicode="&#x4d6;" 
d="M985 0h-903l237 1430h904l-37 -220h-641l-62 -376h615l-37 -220h-615l-65 -395h641zM795 1530q-115 0 -187.5 56t-107.5 173l-35 107l211 76l20 -220q47 -14 113 -14q68 0 115 14l84 220l202 -76l-65 -117q-118 -219 -350 -219z" />
    <glyph glyph-name="uni04D7" unicode="&#x4d7;" 
d="M573 -25q-222 0 -335 117t-113 336q0 292 168.5 472.5t441.5 180.5q166 0 273.5 -75.5t107.5 -212.5q0 -55 -15.5 -100t-62.5 -93.5t-125 -83.5t-212.5 -60t-315.5 -32q-2 -16 -2 -37q0 -100 51.5 -154.5t169.5 -54.5q96 0 161.5 41.5t149.5 153.5l164 -105
q-46 -69 -92 -118.5t-106.5 -91t-137.5 -62.5t-170 -21zM711 893q-243 0 -301 -285l-7 -30q121 6 209 21t135.5 33t75 44t34.5 47.5t7 48.5q0 121 -153 121zM739 1182q-116 0 -189 56t-108 173l-32 107l211 75l18 -219q51 -14 115 -14q67 0 114 14l84 219l203 -75l-65 -117
q-121 -219 -351 -219z" />
    <glyph glyph-name="uni04D8" unicode="&#x4d8;" 
d="M547 -25q-223 0 -338 137t-115 392q0 114 17 211l14 84h803l4 24q14 80 14 150q0 266 -221 266q-113 0 -185.5 -67t-127.5 -197l-217 90q74 188 215 288.5t340 100.5q231 0 342.5 -138t111.5 -425q0 -90 -10.5 -179.5t-34.5 -180.5t-60 -172t-89.5 -152t-119 -122
t-154 -80.5t-189.5 -29.5zM559 186q267 0 334 406l2 12h-530q-17 -78 -17 -170q0 -248 211 -248z" />
    <glyph glyph-name="uni04D9" unicode="&#x4d9;" 
d="M494 -25q-166 0 -273.5 76t-107.5 213q0 55 15.5 100t62.5 93.5t125 83.5t212.5 60t315.5 32q2 16 2 37q0 100 -51.5 154.5t-169.5 54.5q-96 0 -162 -42t-150 -153l-163 104q46 69 91.5 118.5t106 91t137.5 62.5t170 21q222 0 335.5 -116.5t113.5 -335.5
q0 -292 -168.5 -473t-441.5 -181zM518 164q243 0 301 285l6 30q-121 -6 -208.5 -21t-135 -33t-75 -44t-34.5 -47t-7 -49q0 -121 153 -121z" />
    <glyph glyph-name="uni04DC" unicode="&#x4dc;" 
d="M-76 0l205 528q35 94 83 141.5t118 59.5l2 10q-56 19 -81 63.5t-28 131.5l-26 496h219l30 -605h105l100 605h230l-101 -605h105l223 605h227l-190 -512q-30 -86 -70 -126.5t-104 -52.5l-2 -10q57 -19 84 -65t34 -138l39 -526h-231l-45 623h-105l-104 -623h-229l104 623
h-106l-240 -623h-246zM584 1577q-140 0 -140 100q0 21 11 66q13 57 48 84.5t107 27.5q140 0 140 -100q0 -20 -11 -65q-13 -57 -48 -85t-107 -28zM1012 1577q-140 0 -140 100q0 21 11 66q13 57 48 84.5t107 27.5q140 0 140 -100q0 -20 -11 -65q-13 -57 -48 -85t-107 -28z" />
    <glyph glyph-name="uni04DD" unicode="&#x4dd;" 
d="M-68 0l33 197h148q62 117 92 333q20 140 20 254q0 63 -8 76h-131l33 197h61q118 0 177 -69t59 -230q0 -74 -6 -127h116l70 426h215l-70 -426h109q55 255 137 340q45 47 100 66.5t136 19.5h65l-33 -197h-135q-58 -109 -92 -334q-20 -137 -20 -254q0 -34 6 -75h141
l-33 -197h-71q-116 0 -175 69t-59 230q0 67 4 145h-110l-74 -444h-215l74 444h-109q-55 -263 -141 -358q-43 -48 -98 -67t-140 -19h-76zM526 1229q-139 0 -139 100q0 25 10 66q13 57 48.5 84.5t107.5 27.5q139 0 139 -100q0 -25 -10 -66q-13 -57 -48.5 -84.5t-107.5 -27.5z
M954 1229q-139 0 -139 100q0 25 10 66q13 57 48.5 84.5t107.5 27.5q139 0 139 -100q0 -25 -10 -66q-13 -57 -48.5 -84.5t-107.5 -27.5z" />
    <glyph glyph-name="uni04DE" unicode="&#x4de;" 
d="M528 -25q-164 0 -288.5 61t-196.5 169l172 164q61 -83 146.5 -131t187.5 -48q108 0 174 52.5t78 146.5l4 31q4 32 4 49q0 72 -46.5 108.5t-154.5 36.5h-182l37 217h182q109 0 164 45t74 148l4 23q4 20 4 40q0 72 -54.5 112t-156.5 40q-178 0 -305 -154l-156 148
q190 221 490 221q217 0 332.5 -87.5t115.5 -248.5q0 -155 -97 -256.5t-247 -116.5l-2 -12q266 -42 266 -278q0 -209 -149 -344.5t-400 -135.5zM553 1577q-139 0 -139 100q0 25 10 66q13 57 48.5 84.5t107.5 27.5q139 0 139 -100q0 -24 -10 -65q-13 -57 -48.5 -85t-107.5 -28
zM981 1577q-139 0 -139 100q0 25 10 66q13 57 48.5 84.5t107.5 27.5q139 0 139 -100q0 -24 -10 -65q-13 -57 -48.5 -85t-107.5 -28z" />
    <glyph glyph-name="uni04DF" unicode="&#x4df;" 
d="M524 -25q-290 0 -454 187l157 153q60 -70 132 -105.5t171 -35.5q110 0 164 33.5t72 103.5q6 24 6 43q0 90 -129 90h-215l31 181h176q164 0 186 116q2 10 2 29q0 113 -178 113q-94 0 -166 -34t-139 -104l-135 142q104 101 219 147.5t258 46.5q190 0 296.5 -74t106.5 -196
q0 -103 -62 -171.5t-185 -94.5l-2 -10q196 -36 196 -201q0 -159 -137 -259t-371 -100zM514 1229q-139 0 -139 100q0 25 10 66q13 57 48.5 84.5t107.5 27.5q139 0 139 -100q0 -25 -10 -66q-13 -57 -48.5 -84.5t-107.5 -27.5zM942 1229q-139 0 -139 100q0 25 10 66
q13 57 48.5 84.5t107.5 27.5q139 0 139 -100q0 -25 -10 -66q-13 -57 -48.5 -84.5t-107.5 -27.5z" />
    <glyph glyph-name="uni04E2" unicode="&#x4e2;" 
d="M43 0l238 1430h251l-96 -580l-98 -401h16l226 339l426 642h245l-237 -1430h-252l96 580l98 401h-16l-199 -299l-452 -682h-246zM483 1624l31 186h608l-32 -186h-607z" />
    <glyph glyph-name="uni04E3" unicode="&#x4e3;" 
d="M723 0l41 250h-10q-63 -135 -144 -205t-202 -70q-142 0 -214.5 85t-72.5 221q0 76 20 196l97 580h258l-101 -604q-14 -86 -14 -127q0 -63 33.5 -105.5t103.5 -42.5q101 0 184 103q87 112 105 219l92 557h258l-176 -1057h-258zM426 1276l31 186h608l-33 -186h-606z" />
    <glyph glyph-name="uni04E4" unicode="&#x4e4;" 
d="M43 0l238 1430h251l-96 -580l-98 -401h16l226 339l426 642h245l-237 -1430h-252l96 580l98 401h-16l-199 -299l-452 -682h-246zM575 1577q-139 0 -139 100q0 25 10 66q13 57 48.5 84.5t107.5 27.5q139 0 139 -100q0 -24 -10 -65q-13 -57 -48.5 -85t-107.5 -28zM1004 1577
q-140 0 -140 100q0 25 10 66q13 57 48.5 84.5t107.5 27.5q139 0 139 -100q0 -24 -10 -65q-13 -57 -48 -85t-107 -28z" />
    <glyph glyph-name="uni04E5" unicode="&#x4e5;" 
d="M723 0l41 250h-10q-63 -135 -144 -205t-202 -70q-142 0 -214.5 85t-72.5 221q0 76 20 196l97 580h258l-101 -604q-14 -86 -14 -127q0 -63 33.5 -105.5t103.5 -42.5q101 0 184 103q87 112 105 219l92 557h258l-176 -1057h-258zM518 1229q-139 0 -139 100q0 25 10 66
q13 57 48.5 84.5t107.5 27.5q139 0 139 -100q0 -25 -10 -66q-13 -57 -48.5 -84.5t-107.5 -27.5zM946 1229q-139 0 -139 100q0 25 10 66q13 57 48.5 84.5t107.5 27.5q139 0 139 -100q0 -25 -10 -66q-13 -57 -48.5 -84.5t-107.5 -27.5z" />
    <glyph glyph-name="uni04E6" unicode="&#x4e6;" 
d="M559 -25q-239 0 -354 135t-115 388q0 140 20.5 272t69 258t120 219t182 150t247.5 57q239 0 354 -134.5t115 -387.5q0 -140 -20.5 -272t-69 -258.5t-120 -219.5t-182 -150t-247.5 -57zM563 193q135 0 209.5 101t106.5 300l41 240q12 82 12 155q0 248 -207 248
q-134 0 -208.5 -101t-106.5 -300l-41 -240q-13 -89 -13 -156q0 -247 207 -247zM557 1577q-139 0 -139 100q0 25 10 66q13 57 48.5 84.5t107.5 27.5q139 0 139 -100q0 -24 -10 -65q-13 -57 -48.5 -85t-107.5 -28zM985 1577q-139 0 -139 100q0 25 10 66q13 57 48.5 84.5
t107.5 27.5q139 0 139 -100q0 -24 -10 -65q-13 -57 -48.5 -85t-107.5 -28z" />
    <glyph glyph-name="uni04E7" unicode="&#x4e7;" 
d="M543 -25q-208 0 -325.5 122.5t-117.5 330.5q0 298 163 475.5t423 177.5q208 0 325 -122t117 -330q0 -149 -43.5 -272t-120.5 -206.5t-185 -129.5t-236 -46zM561 174q113 0 183 68.5t92 195.5l24 146q10 55 10 92q0 102 -53 154.5t-149 52.5q-113 0 -183 -69t-92 -196
l-24 -145q-11 -61 -11 -92q0 -102 53.5 -154.5t149.5 -52.5zM526 1229q-139 0 -139 100q0 25 10 66q13 57 48.5 84.5t107.5 27.5q139 0 139 -100q0 -25 -10 -66q-13 -57 -48.5 -84.5t-107.5 -27.5zM954 1229q-139 0 -139 100q0 25 10 66q13 57 48.5 84.5t107.5 27.5
q139 0 139 -100q0 -25 -10 -66q-13 -57 -48.5 -84.5t-107.5 -27.5z" />
    <glyph glyph-name="uni04E8" unicode="&#x4e8;" 
d="M559 -25q-239 0 -354 135t-115 388q0 140 20.5 272t69 258t120 219t182 150t247.5 57q239 0 354 -134.5t115 -387.5q0 -140 -20.5 -272t-69 -258.5t-120 -219.5t-182 -150t-247.5 -57zM561 174q141 0 219.5 101.5t114.5 314.5l4 24h-543l-4 -22q-12 -66 -12 -160
q0 -128 53.5 -193t167.5 -65zM393 834h543q14 69 14 163q0 128 -53.5 193t-167.5 65q-142 0 -220 -102t-116 -319z" />
    <glyph glyph-name="uni04E9" unicode="&#x4e9;" 
d="M543 -25q-210 0 -326.5 122.5t-116.5 330.5q0 298 163 475.5t423 177.5q208 0 325 -122t117 -330q0 -149 -43.5 -272t-120.5 -206.5t-185 -129.5t-236 -46zM559 158q121 0 195 70.5t96 201.5l2 12h-504q-6 -37 -6 -67q0 -108 56.5 -162.5t160.5 -54.5zM379 625h504
q4 40 4 57q0 108 -56.5 162.5t-160.5 54.5q-121 0 -194 -70.5t-97 -203.5z" />
    <glyph glyph-name="uni04EE" unicode="&#x4ee;" 
d="M160 0l37 219h225l72 137l-287 1074h264l133 -545l47 -262h6l115 260l285 547h274l-649 -1203q-68 -129 -143.5 -178t-198.5 -49h-180zM481 1624l31 186h608l-33 -186h-606z" />
    <glyph glyph-name="uni04EF" unicode="&#x4ef;" 
d="M438 -434q-147 0 -245 34t-168 117l157 162q87 -108 252 -108q65 0 112.5 14.5t86.5 50t64.5 97t39.5 153.5l33 199h-10q-63 -137 -144 -207t-202 -70q-142 0 -214.5 84.5t-72.5 220.5q0 82 18 193l93 551h258l-97 -574q-12 -74 -12 -123q0 -63 33.5 -105t103.5 -42
q104 0 185 100q84 107 102 219l88 525h258l-168 -1006q-80 -485 -551 -485zM444 1276l31 186h608l-32 -186h-607z" />
    <glyph glyph-name="uni04F0" unicode="&#x4f0;" 
d="M160 0l37 219h225l72 137l-287 1074h264l133 -545l47 -262h6l115 260l285 547h274l-649 -1203q-68 -129 -143.5 -178t-198.5 -49h-180zM573 1577q-139 0 -139 100q0 25 10 66q13 57 48.5 84.5t107.5 27.5q139 0 139 -100q0 -24 -10 -65q-13 -57 -48.5 -85t-107.5 -28z
M1001 1577q-139 0 -139 100q0 25 10 66q13 57 48.5 84.5t107.5 27.5q139 0 139 -100q0 -24 -10 -65q-13 -57 -48.5 -85t-107.5 -28z" />
    <glyph glyph-name="uni04F1" unicode="&#x4f1;" 
d="M438 -434q-147 0 -245 34t-168 117l157 162q87 -108 252 -108q65 0 112.5 14.5t86.5 50t64.5 97t39.5 153.5l33 199h-10q-63 -137 -144 -207t-202 -70q-142 0 -214.5 84.5t-72.5 220.5q0 82 18 193l93 551h258l-97 -574q-12 -74 -12 -123q0 -63 33.5 -105t103.5 -42
q104 0 185 100q84 107 102 219l88 525h258l-168 -1006q-80 -485 -551 -485zM537 1229q-140 0 -140 100q0 21 11 66q13 57 48 84.5t107 27.5q139 0 139 -100q0 -25 -10 -66q-13 -57 -48 -84.5t-107 -27.5zM965 1229q-140 0 -140 100q0 21 11 66q13 57 48 84.5t107 27.5
q139 0 139 -100q0 -25 -10 -66q-13 -57 -48 -84.5t-107 -27.5z" />
    <glyph glyph-name="uni04F2" unicode="&#x4f2;" 
d="M160 0l37 219h225l72 137l-287 1074h264l133 -545l47 -262h6l115 260l285 547h274l-649 -1203q-68 -129 -143.5 -178t-198.5 -49h-180zM874 1872l-276 -344l-139 69l221 379zM1260 1872l-277 -344l-139 69l221 379z" />
    <glyph glyph-name="uni04F3" unicode="&#x4f3;" 
d="M438 -434q-147 0 -245 34t-168 117l157 162q87 -108 252 -108q65 0 112.5 14.5t86.5 50t64.5 97t39.5 153.5l33 199h-10q-63 -137 -144 -207t-202 -70q-142 0 -214.5 84.5t-72.5 220.5q0 82 18 193l93 551h258l-97 -574q-12 -74 -12 -123q0 -63 33.5 -105t103.5 -42
q104 0 185 100q84 107 102 219l88 525h258l-168 -1006q-80 -485 -551 -485zM838 1524l-277 -344l-139 69l221 379zM1223 1524l-277 -344l-139 69l221 379z" />
    <glyph glyph-name="uni04F4" unicode="&#x4f4;" 
d="M731 0l86 522h-10q-110 -47 -248 -47q-395 0 -395 365q0 98 18 235l60 355h264l-70 -406q-14 -89 -14 -162q0 -90 46 -130t144 -40q128 0 240 39l117 699h264l-238 -1430h-264zM557 1577q-139 0 -139 100q0 25 10 66q13 57 48.5 84.5t107.5 27.5q139 0 139 -100
q0 -24 -10 -65q-13 -57 -48.5 -85t-107.5 -28zM985 1577q-139 0 -139 100q0 25 10 66q13 57 48.5 84.5t107.5 27.5q139 0 139 -100q0 -24 -10 -65q-13 -57 -48.5 -85t-107.5 -28z" />
    <glyph glyph-name="uni04F5" unicode="&#x4f5;" 
d="M700 0l88 530h-10q-60 -111 -136.5 -161t-188.5 -50q-135 0 -216 73t-81 198q0 57 10 129l57 338h258l-53 -309q-10 -59 -10 -103q0 -57 39.5 -89t109.5 -32q107 0 173 60t85 166l52 307h258l-177 -1057h-258zM502 1229q-140 0 -140 100q0 21 11 66q13 57 48 84.5
t107 27.5q140 0 140 -100q0 -21 -11 -66q-13 -57 -48 -84.5t-107 -27.5zM930 1229q-139 0 -139 100q0 25 10 66q13 57 48 84.5t107 27.5q140 0 140 -100q0 -21 -11 -66q-13 -57 -48 -84.5t-107 -27.5z" />
    <glyph glyph-name="uni04F8" unicode="&#x4f8;" 
d="M254 205h82q92 0 144 47.5t69 150.5l8 43q8 57 8 107q0 70 -34 104.5t-115 34.5h-82zM-14 0l237 1430h234l-88 -533h77q175 0 268 -93t93 -255q0 -261 -129.5 -405t-353.5 -144h-338zM838 0l237 1430h234l-238 -1430h-233zM586 1577q-140 0 -140 100q0 21 11 66
q13 57 48 84.5t107 27.5q140 0 140 -100q0 -20 -11 -65q-13 -57 -48 -85t-107 -28zM1014 1577q-140 0 -140 100q0 21 11 66q13 57 48 84.5t107 27.5q140 0 140 -100q0 -20 -11 -65q-13 -57 -48 -85t-107 -28z" />
    <glyph glyph-name="uni04F9" unicode="&#x4f9;" 
d="M377 -25q-161 0 -242.5 83t-81.5 237q0 76 21 211l94 551h221l-78 -457h13q43 85 100 126.5t141 41.5q106 0 162.5 -70.5t56.5 -203.5q0 -245 -116.5 -382t-290.5 -137zM379 158q63 0 104 46.5t60 160.5q10 62 10 100q0 121 -100 121q-67 0 -112 -50.5t-60 -134.5
q-11 -57 -11 -106q0 -68 28.5 -102.5t80.5 -34.5zM842 0l176 1057h221l-176 -1057h-221zM526 1229q-139 0 -139 100q0 25 10 66q13 57 48.5 84.5t107.5 27.5q139 0 139 -100q0 -25 -10 -66q-13 -57 -48.5 -84.5t-107.5 -27.5zM954 1229q-139 0 -139 100q0 25 10 66
q13 57 48.5 84.5t107.5 27.5q139 0 139 -100q0 -25 -10 -66q-13 -57 -48.5 -84.5t-107.5 -27.5z" />
    <glyph glyph-name="uni0E3F" unicode="&#xe3f;" 
d="M627 0l-39 -231h-197l39 231h-367l238 1430h367l39 231h196l-39 -234q160 -10 247 -97.5t87 -227.5q0 -145 -81 -238.5t-230 -126.5v-8q243 -53 243 -283q0 -198 -132 -322t-353 -124h-18zM438 817h142l69 420h-141zM946 1102q0 115 -129 131l-67 -410q157 15 180 158
l10 61q6 38 6 60zM334 193h141l74 444h-141zM881 492q0 136 -162 145l-74 -442q97 5 150.5 43.5t66.5 121.5l10 62q9 56 9 70z" />
    <glyph glyph-name="Wgrave" unicode="&#x1e80;" 
d="M745 1526l-208 356l223 100l143 -389zM389 0h-346l143 1430h228l-90 -828l-39 -356h18l281 854h252l4 -854h18l70 329l192 855h219l-333 -1430h-347l13 811h-19z" />
    <glyph glyph-name="wgrave" unicode="&#x1e81;" 
d="M238 -23q-97 0 -145 58t-48 160q0 80 16 178l115 684h205l-113 -676q-12 -62 -12 -109q0 -86 74 -86q57 0 112 82q30 43 47 144l109 645h203l-115 -690q-10 -52 -10 -99q0 -86 69 -86q57 0 108.5 81.5t82.5 214t31 274.5q0 164 -41 264l186 55q66 -129 66 -319
q0 -182 -46 -342.5t-128 -266.5q-61 -81 -140.5 -123.5t-165.5 -42.5q-100 0 -147 59.5t-41 162.5h-12q-82 -222 -260 -222zM686 1178l-209 356l223 100l144 -389z" />
    <glyph glyph-name="Wacute" unicode="&#x1e82;" 
d="M1083 1872l-284 -346l-152 82l232 374zM389 0h-346l143 1430h228l-90 -828l-39 -356h18l281 854h252l4 -854h18l70 329l192 855h219l-333 -1430h-347l13 811h-19z" />
    <glyph glyph-name="wacute" unicode="&#x1e83;" 
d="M1024 1524l-285 -346l-151 82l231 374zM238 -23q-97 0 -145 58t-48 160q0 80 16 178l115 684h205l-113 -676q-12 -62 -12 -109q0 -86 74 -86q57 0 112 82q30 43 47 144l109 645h203l-115 -690q-10 -52 -10 -99q0 -86 69 -86q57 0 108.5 81.5t82.5 214t31 274.5
q0 164 -41 264l186 55q66 -129 66 -319q0 -182 -46 -342.5t-128 -266.5q-61 -81 -140.5 -123.5t-165.5 -42.5q-100 0 -147 59.5t-41 162.5h-12q-82 -222 -260 -222z" />
    <glyph glyph-name="Wdieresis" unicode="&#x1e84;" 
d="M389 0h-346l143 1430h228l-90 -828l-39 -356h18l281 854h252l4 -854h18l70 329l192 855h219l-333 -1430h-347l13 811h-19zM578 1577q-140 0 -140 100q0 21 11 66q13 57 48 84.5t107 27.5q139 0 139 -100q0 -24 -10 -65q-13 -57 -48 -85t-107 -28zM1006 1577
q-140 0 -140 100q0 21 11 66q13 57 48 84.5t107 27.5q139 0 139 -100q0 -24 -10 -65q-13 -57 -48 -85t-107 -28z" />
    <glyph glyph-name="wdieresis" unicode="&#x1e85;" 
d="M518 1229q-139 0 -139 100q0 25 10 66q13 57 48.5 84.5t107.5 27.5q139 0 139 -100q0 -25 -10 -66q-13 -57 -48.5 -84.5t-107.5 -27.5zM946 1229q-139 0 -139 100q0 25 10 66q13 57 48.5 84.5t107.5 27.5q139 0 139 -100q0 -25 -10 -66q-13 -57 -48.5 -84.5t-107.5 -27.5
zM238 -23q-97 0 -145 58t-48 160q0 80 16 178l115 684h205l-113 -676q-12 -62 -12 -109q0 -86 74 -86q57 0 112 82q30 43 47 144l109 645h203l-115 -690q-10 -52 -10 -99q0 -86 69 -86q57 0 108.5 81.5t82.5 214t31 274.5q0 164 -41 264l186 55q66 -129 66 -319
q0 -182 -46 -342.5t-128 -266.5q-61 -81 -140.5 -123.5t-165.5 -42.5q-100 0 -147 59.5t-41 162.5h-12q-82 -222 -260 -222z" />
    <glyph glyph-name="uni1E9E" unicode="&#x1e9e;" 
d="M-4 0l240 1430h1021l-38 -236l-351 -356l-2 -11q63 -2 117.5 -22t99.5 -57.5t71 -101t26 -146.5q0 -75 -18.5 -148.5t-58 -142t-96.5 -120.5t-140.5 -83t-182.5 -31q-101 0 -193.5 37.5t-148.5 104.5l164 159q61 -90 180 -90q170 0 215 203q14 66 14 109q0 139 -161 139
h-176l34 215l363 373h-512l-205 -1225h-262z" />
    <glyph glyph-name="uni1EA0" unicode="&#x1ea0;" 
d="M1116 0h-272l-37 365h-434l-156 -365h-276l643 1430h364zM791 582l-56 589h-18l-254 -589h328zM479 -395q-70 0 -102.5 28t-32.5 74q0 22 8 62q11 57 47.5 85.5t108.5 28.5q70 0 102.5 -28t32.5 -74q0 -22 -8 -62q-11 -57 -47.5 -85.5t-108.5 -28.5z" />
    <glyph glyph-name="uni1EA1" unicode="&#x1ea1;" 
d="M989 0h-258l41 250h-8q-66 -134 -149.5 -204.5t-211.5 -70.5q-160 0 -237.5 107t-77.5 303q0 143 33 268.5t94 221t155 151t210 55.5q229 0 284 -217h10l33 193h258zM514 180q111 0 199 105q81 94 102 213l31 192q15 88 -33.5 137.5t-150.5 49.5q-121 0 -190.5 -72
t-90.5 -201l-23 -135q-8 -50 -8 -90q0 -93 40 -146t124 -53zM457 -395q-70 0 -102.5 28t-32.5 74q0 22 8 62q11 57 47 85.5t108 28.5q70 0 103 -28t33 -74q0 -17 -9 -62q-11 -57 -47 -85.5t-108 -28.5z" />
    <glyph glyph-name="uni1EA2" unicode="&#x1ea2;" 
d="M1116 0h-272l-37 365h-434l-156 -365h-276l643 1430h364zM791 582l-56 589h-18l-254 -589h328zM594 1767l31 187h274q77 0 117.5 -32.5t40.5 -84.5q0 -54 -26 -103t-77 -108l-102 -119l-129 66l117 194h-246z" />
    <glyph glyph-name="uni1EA3" unicode="&#x1ea3;" 
d="M989 0h-258l41 250h-8q-66 -134 -149.5 -204.5t-211.5 -70.5q-160 0 -237.5 107t-77.5 303q0 143 33 268.5t94 221t155 151t210 55.5q229 0 284 -217h10l33 193h258zM514 180q111 0 199 105q81 94 102 213l31 192q15 88 -33.5 137.5t-150.5 49.5q-121 0 -190.5 -72
t-90.5 -201l-23 -135q-8 -50 -8 -90q0 -93 40 -146t124 -53zM510 1419l31 187h274q77 0 117.5 -32.5t40.5 -84.5q0 -54 -26 -103t-77 -108l-102 -119l-129 66l117 194h-246z" />
    <glyph glyph-name="uni1EA4" unicode="&#x1ea4;" 
d="M1116 0h-272l-37 365h-434l-156 -365h-276l643 1430h364zM791 582l-56 589h-18l-254 -589h328zM1436 2171l-269 -346l-139 71l209 377zM739 1917h195l227 -299l-135 -107l-215 222l-279 -222l-114 111z" />
    <glyph glyph-name="uni1EA5" unicode="&#x1ea5;" 
d="M989 0h-258l41 250h-8q-66 -134 -149.5 -204.5t-211.5 -70.5q-160 0 -237.5 107t-77.5 303q0 143 33 268.5t94 221t155 151t210 55.5q229 0 284 -217h10l33 193h258zM514 180q111 0 199 105q81 94 102 213l31 192q15 88 -33.5 137.5t-150.5 49.5q-121 0 -190.5 -72
t-90.5 -201l-23 -135q-8 -50 -8 -90q0 -93 40 -146t124 -53zM1352 1823l-269 -346l-139 71l209 377zM655 1569h195l227 -299l-135 -107l-215 221l-278 -221l-115 111z" />
    <glyph glyph-name="uni1EA6" unicode="&#x1ea6;" 
d="M1116 0h-272l-37 365h-434l-156 -365h-276l643 1430h364zM791 582l-56 589h-18l-254 -589h328zM479 1825l-209 354l207 96l137 -385zM739 1917h195l227 -299l-135 -107l-215 222l-279 -222l-114 111z" />
    <glyph glyph-name="uni1EA7" unicode="&#x1ea7;" 
d="M989 0h-258l41 250h-8q-66 -134 -149.5 -204.5t-211.5 -70.5q-160 0 -237.5 107t-77.5 303q0 143 33 268.5t94 221t155 151t210 55.5q229 0 284 -217h10l33 193h258zM514 180q111 0 199 105q81 94 102 213l31 192q15 88 -33.5 137.5t-150.5 49.5q-121 0 -190.5 -72
t-90.5 -201l-23 -135q-8 -50 -8 -90q0 -93 40 -146t124 -53zM395 1477l-209 354l207 96l137 -385zM655 1569h195l227 -299l-135 -107l-215 221l-278 -221l-115 111z" />
    <glyph glyph-name="uni1EA8" unicode="&#x1ea8;" 
d="M1116 0h-272l-37 365h-434l-156 -365h-276l643 1430h364zM791 582l-56 589h-18l-254 -589h328zM944 2066l29 185h260q78 0 118 -32.5t40 -84.5q0 -51 -23.5 -95t-71.5 -104l-110 -133l-129 66l119 198h-232zM739 1917h195l227 -299l-135 -107l-215 222l-279 -222
l-114 111z" />
    <glyph glyph-name="uni1EA9" unicode="&#x1ea9;" 
d="M989 0h-258l41 250h-8q-66 -134 -149.5 -204.5t-211.5 -70.5q-160 0 -237.5 107t-77.5 303q0 143 33 268.5t94 221t155 151t210 55.5q229 0 284 -217h10l33 193h258zM514 180q111 0 199 105q81 94 102 213l31 192q15 88 -33.5 137.5t-150.5 49.5q-121 0 -190.5 -72
t-90.5 -201l-23 -135q-8 -50 -8 -90q0 -93 40 -146t124 -53zM860 1718l29 185h260q78 0 118 -32.5t40 -84.5q0 -51 -23.5 -95t-71.5 -104l-110 -133l-129 66l119 198h-232zM655 1569h195l227 -299l-135 -107l-215 221l-278 -221l-115 111z" />
    <glyph glyph-name="uni1EAA" unicode="&#x1eaa;" 
d="M1116 0h-272l-37 365h-434l-156 -365h-276l643 1430h364zM791 582l-56 589h-18l-254 -589h328zM739 2234q30 0 59 -7.5t45.5 -15t49.5 -24.5q89 -47 143 -47q33 0 61.5 13t69.5 42l72 -118q-99 -123 -240 -123q-29 0 -58.5 7.5t-45 15t-49.5 24.5q-89 47 -144 47
q-33 0 -61.5 -13t-69.5 -42l-71 118q99 123 239 123zM737 1894h199l227 -278l-131 -105l-219 205l-274 -205l-119 111z" />
    <glyph glyph-name="uni1EAB" unicode="&#x1eab;" 
d="M989 0h-258l41 250h-8q-66 -134 -149.5 -204.5t-211.5 -70.5q-160 0 -237.5 107t-77.5 303q0 143 33 268.5t94 221t155 151t210 55.5q229 0 284 -217h10l33 193h258zM514 180q111 0 199 105q81 94 102 213l31 192q15 88 -33.5 137.5t-150.5 49.5q-121 0 -190.5 -72
t-90.5 -201l-23 -135q-8 -50 -8 -90q0 -93 40 -146t124 -53zM653 1886q30 0 59 -7.5t45.5 -15t49.5 -24.5q89 -47 143 -47q33 0 61.5 13t69.5 42l72 -118q-99 -123 -240 -123q-29 0 -58.5 7.5t-45 15t-49.5 24.5q-89 47 -144 47q-33 0 -61.5 -13t-69.5 -42l-71 118
q99 123 239 123zM651 1546h199l227 -278l-131 -105l-219 205l-274 -205l-119 111z" />
    <glyph glyph-name="uni1EAC" unicode="&#x1eac;" 
d="M1116 0h-272l-37 365h-434l-156 -365h-276l643 1430h364zM791 582l-56 589h-18l-254 -589h328zM721 1944h237l209 -318l-139 -98l-209 237l-276 -237l-125 102zM479 -395q-70 0 -102.5 28t-32.5 74q0 22 8 62q11 57 47.5 85.5t108.5 28.5q70 0 102.5 -28t32.5 -74
q0 -22 -8 -62q-11 -57 -47.5 -85.5t-108.5 -28.5z" />
    <glyph glyph-name="uni1EAD" unicode="&#x1ead;" 
d="M989 0h-258l41 250h-8q-66 -134 -149.5 -204.5t-211.5 -70.5q-160 0 -237.5 107t-77.5 303q0 143 33 268.5t94 221t155 151t210 55.5q229 0 284 -217h10l33 193h258zM514 180q111 0 199 105q81 94 102 213l31 192q15 88 -33.5 137.5t-150.5 49.5q-121 0 -190.5 -72
t-90.5 -201l-23 -135q-8 -50 -8 -90q0 -93 40 -146t124 -53zM637 1595h237l209 -317l-139 -98l-209 237l-276 -237l-125 102zM457 -395q-70 0 -102.5 28t-32.5 74q0 22 8 62q11 57 47 85.5t108 28.5q70 0 103 -28t33 -74q0 -17 -9 -62q-11 -57 -47 -85.5t-108 -28.5z" />
    <glyph glyph-name="uni1EAE" unicode="&#x1eae;" 
d="M1116 0h-272l-37 365h-434l-156 -365h-276l643 1430h364zM791 582l-56 589h-18l-254 -589h328zM793 1516q-291 0 -363 299l133 79l37 -59q49 -79 89 -108t106 -29q62 0 111.5 29t117.5 108l51 59l137 -79q-37 -67 -72.5 -115.5t-85.5 -93t-115.5 -67.5t-145.5 -23z
M1112 2169l-268 -348l-142 73l216 381z" />
    <glyph glyph-name="uni1EAF" unicode="&#x1eaf;" 
d="M989 0h-258l41 250h-8q-66 -134 -149.5 -204.5t-211.5 -70.5q-160 0 -237.5 107t-77.5 303q0 143 33 268.5t94 221t155 151t210 55.5q229 0 284 -217h10l33 193h258zM514 180q111 0 199 105q81 94 102 213l31 192q15 88 -33.5 137.5t-150.5 49.5q-121 0 -190.5 -72
t-90.5 -201l-23 -135q-8 -50 -8 -90q0 -93 40 -146t124 -53zM709 1167q-291 0 -363 299l133 80l37 -59q49 -79 89 -108t106 -29q62 0 111.5 29t117.5 108l51 59l137 -80q-37 -67 -72.5 -115.5t-85.5 -93t-115.5 -67.5t-145.5 -23zM1028 1821l-268 -348l-142 73l216 381z" />
    <glyph glyph-name="uni1EB0" unicode="&#x1eb0;" 
d="M1116 0h-272l-37 365h-434l-156 -365h-276l643 1430h364zM791 582l-56 589h-18l-254 -589h328zM793 1516q-291 0 -363 299l133 79l37 -59q49 -79 89 -108t106 -29q62 0 111.5 29t117.5 108l51 59l137 -79q-37 -67 -72.5 -115.5t-85.5 -93t-115.5 -67.5t-145.5 -23z
M768 1823l-201 354l215 96l131 -385z" />
    <glyph glyph-name="uni1EB1" unicode="&#x1eb1;" 
d="M989 0h-258l41 250h-8q-66 -134 -149.5 -204.5t-211.5 -70.5q-160 0 -237.5 107t-77.5 303q0 143 33 268.5t94 221t155 151t210 55.5q229 0 284 -217h10l33 193h258zM514 180q111 0 199 105q81 94 102 213l31 192q15 88 -33.5 137.5t-150.5 49.5q-121 0 -190.5 -72
t-90.5 -201l-23 -135q-8 -50 -8 -90q0 -93 40 -146t124 -53zM709 1167q-291 0 -363 299l133 80l37 -59q49 -79 89 -108t106 -29q62 0 111.5 29t117.5 108l51 59l137 -80q-37 -67 -72.5 -115.5t-85.5 -93t-115.5 -67.5t-145.5 -23zM684 1475l-201 354l215 96l131 -385z" />
    <glyph glyph-name="uni1EB2" unicode="&#x1eb2;" 
d="M1116 0h-272l-37 365h-434l-156 -365h-276l643 1430h364zM791 582l-56 589h-18l-254 -589h328zM584 2064l28 183h260q77 0 117.5 -32.5t40.5 -86.5q0 -49 -33.5 -102.5t-107.5 -131.5l-86 -92l-113 60l125 202h-231zM793 1516q-291 0 -363 299l133 79l37 -59
q49 -79 89 -108t106 -29q62 0 111.5 29t117.5 108l51 59l137 -79q-37 -67 -72.5 -115.5t-85.5 -93t-115.5 -67.5t-145.5 -23z" />
    <glyph glyph-name="uni1EB3" unicode="&#x1eb3;" 
d="M989 0h-258l41 250h-8q-66 -134 -149.5 -204.5t-211.5 -70.5q-160 0 -237.5 107t-77.5 303q0 143 33 268.5t94 221t155 151t210 55.5q229 0 284 -217h10l33 193h258zM514 180q111 0 199 105q81 94 102 213l31 192q15 88 -33.5 137.5t-150.5 49.5q-121 0 -190.5 -72
t-90.5 -201l-23 -135q-8 -50 -8 -90q0 -93 40 -146t124 -53zM709 1167q-291 0 -363 299l133 80l37 -59q49 -79 89 -108t106 -29q62 0 111.5 29t117.5 108l51 59l137 -80q-37 -67 -72.5 -115.5t-85.5 -93t-115.5 -67.5t-145.5 -23zM500 1716l28 182h260q77 0 117.5 -32
t40.5 -86q0 -49 -33.5 -102.5t-107.5 -131.5l-86 -92l-113 59l125 203h-231z" />
    <glyph glyph-name="uni1EB4" unicode="&#x1eb4;" 
d="M1116 0h-272l-37 365h-434l-156 -365h-276l643 1430h364zM791 582l-56 589h-18l-254 -589h328zM963 1946q-16 0 -32.5 2t-27 4t-26 8t-21.5 8t-23 10t-20 9q-90 41 -145 41q-34 0 -62 -12.5t-67 -41.5l-74 115q105 121 242 121q16 0 32 -2t27 -4.5t26 -7.5t21.5 -8
t22.5 -10t20 -9q90 -41 145 -41q35 0 63 12.5t66 40.5l74 -115q-104 -120 -241 -120zM793 1516q-291 0 -363 299l133 79l37 -59q49 -79 89 -108t106 -29q62 0 111.5 29t117.5 108l51 59l137 -79q-37 -67 -72.5 -115.5t-85.5 -93t-115.5 -67.5t-145.5 -23z" />
    <glyph glyph-name="uni1EB5" unicode="&#x1eb5;" 
d="M989 0h-258l41 250h-8q-66 -134 -149.5 -204.5t-211.5 -70.5q-160 0 -237.5 107t-77.5 303q0 143 33 268.5t94 221t155 151t210 55.5q229 0 284 -217h10l33 193h258zM514 180q111 0 199 105q81 94 102 213l31 192q15 88 -33.5 137.5t-150.5 49.5q-121 0 -190.5 -72
t-90.5 -201l-23 -135q-8 -50 -8 -90q0 -93 40 -146t124 -53zM709 1167q-291 0 -363 299l133 80l37 -59q49 -79 89 -108t106 -29q62 0 111.5 29t117.5 108l51 59l137 -80q-37 -67 -72.5 -115.5t-85.5 -93t-115.5 -67.5t-145.5 -23zM879 1597q-16 0 -32.5 2t-27 4t-26 8
t-21.5 8t-23 10t-20 9q-90 41 -145 41q-35 0 -63 -12.5t-66 -40.5l-74 115q104 121 242 121q16 0 32 -2t27 -4.5t26 -7.5t21.5 -8t22.5 -10t20 -9q90 -41 146 -41q35 0 63 12.5t66 40.5l73 -115q-104 -121 -241 -121z" />
    <glyph glyph-name="uni1EB6" unicode="&#x1eb6;" 
d="M1116 0h-272l-37 365h-434l-156 -365h-276l643 1430h364zM791 582l-56 589h-18l-254 -589h328zM797 1532q-267 0 -342 336l145 71l37 -73q29 -56 47 -83t49.5 -47t73.5 -20q38 0 70.5 18.5t58 47t70.5 88.5l53 69l149 -71q-28 -56 -52.5 -97.5t-63 -89t-78.5 -78
t-96.5 -51t-120.5 -20.5zM479 -395q-70 0 -102.5 28t-32.5 74q0 22 8 62q11 57 47.5 85.5t108.5 28.5q70 0 102.5 -28t32.5 -74q0 -22 -8 -62q-11 -57 -47.5 -85.5t-108.5 -28.5z" />
    <glyph glyph-name="uni1EB7" unicode="&#x1eb7;" 
d="M989 0h-258l41 250h-8q-66 -134 -149.5 -204.5t-211.5 -70.5q-160 0 -237.5 107t-77.5 303q0 143 33 268.5t94 221t155 151t210 55.5q229 0 284 -217h10l33 193h258zM514 180q111 0 199 105q81 94 102 213l31 192q15 88 -33.5 137.5t-150.5 49.5q-121 0 -190.5 -72
t-90.5 -201l-23 -135q-8 -50 -8 -90q0 -93 40 -146t124 -53zM713 1184q-267 0 -342 336l145 71l37 -73q29 -56 47 -83t49.5 -47t73.5 -20q38 0 70.5 18.5t58 47t70.5 88.5l53 69l149 -71q-28 -56 -52.5 -97.5t-63 -89t-78.5 -78t-96.5 -51t-120.5 -20.5zM457 -395
q-70 0 -102.5 28t-32.5 74q0 22 8 62q11 57 47 85.5t108 28.5q70 0 103 -28t33 -74q0 -17 -9 -62q-11 -57 -47 -85.5t-108 -28.5z" />
    <glyph glyph-name="uni1EB8" unicode="&#x1eb8;" 
d="M985 0h-903l237 1430h904l-37 -220h-641l-62 -376h615l-37 -220h-615l-65 -395h641zM520 -395q-70 0 -102.5 28t-32.5 74q0 22 8 62q11 57 47.5 85.5t108.5 28.5q70 0 102.5 -28t32.5 -74q0 -22 -8 -62q-11 -57 -47.5 -85.5t-108.5 -28.5z" />
    <glyph glyph-name="uni1EB9" unicode="&#x1eb9;" 
d="M573 -25q-222 0 -335 117t-113 336q0 292 168.5 472.5t441.5 180.5q166 0 273.5 -75.5t107.5 -212.5q0 -55 -15.5 -100t-62.5 -93.5t-125 -83.5t-212.5 -60t-315.5 -32q-2 -16 -2 -37q0 -100 51.5 -154.5t169.5 -54.5q96 0 161.5 41.5t149.5 153.5l164 -105
q-46 -69 -92 -118.5t-106.5 -91t-137.5 -62.5t-170 -21zM711 893q-243 0 -301 -285l-7 -30q121 6 209 21t135.5 33t75 44t34.5 47.5t7 48.5q0 121 -153 121zM537 -395q-70 0 -103 28t-33 74q0 17 9 62q11 57 47 85.5t108 28.5q70 0 102.5 -28t32.5 -74q0 -22 -8 -62
q-11 -57 -47 -85.5t-108 -28.5z" />
    <glyph glyph-name="uni1EBA" unicode="&#x1eba;" 
d="M985 0h-903l237 1430h904l-37 -220h-641l-62 -376h615l-37 -220h-615l-65 -395h641zM600 1767l31 187h274q77 0 117.5 -32.5t40.5 -84.5q0 -55 -25.5 -104t-76.5 -107l-103 -119l-129 66l117 194h-246z" />
    <glyph glyph-name="uni1EBB" unicode="&#x1ebb;" 
d="M573 -25q-222 0 -335 117t-113 336q0 292 168.5 472.5t441.5 180.5q166 0 273.5 -75.5t107.5 -212.5q0 -55 -15.5 -100t-62.5 -93.5t-125 -83.5t-212.5 -60t-315.5 -32q-2 -16 -2 -37q0 -100 51.5 -154.5t169.5 -54.5q96 0 161.5 41.5t149.5 153.5l164 -105
q-46 -69 -92 -118.5t-106.5 -91t-137.5 -62.5t-170 -21zM711 893q-243 0 -301 -285l-7 -30q121 6 209 21t135.5 33t75 44t34.5 47.5t7 48.5q0 121 -153 121zM547 1419l31 187h274q77 0 117.5 -32.5t40.5 -84.5q0 -54 -26 -103t-77 -108l-102 -119l-129 66l117 194h-246z" />
    <glyph glyph-name="uni1EBC" unicode="&#x1ebc;" 
d="M985 0h-903l237 1430h904l-37 -220h-641l-62 -376h615l-37 -220h-615l-65 -395h641zM961 1573q-31 0 -60.5 7.5t-46 15.5t-47.5 24q-85 47 -145 47q-57 0 -130 -55l-73 121q98 125 237 125q31 0 60.5 -8t45.5 -15.5t48 -24.5q85 -47 145 -47q55 0 129 56l74 -121
q-98 -125 -237 -125z" />
    <glyph glyph-name="uni1EBD" unicode="&#x1ebd;" 
d="M573 -25q-222 0 -335 117t-113 336q0 292 168.5 472.5t441.5 180.5q166 0 273.5 -75.5t107.5 -212.5q0 -55 -15.5 -100t-62.5 -93.5t-125 -83.5t-212.5 -60t-315.5 -32q-2 -16 -2 -37q0 -100 51.5 -154.5t169.5 -54.5q96 0 161.5 41.5t149.5 153.5l164 -105
q-46 -69 -92 -118.5t-106.5 -91t-137.5 -62.5t-170 -21zM711 893q-243 0 -301 -285l-7 -30q121 6 209 21t135.5 33t75 44t34.5 47.5t7 48.5q0 121 -153 121zM893 1225q-31 0 -60.5 7.5t-46 15.5t-47.5 24q-85 47 -145 47q-56 0 -129 -55l-74 120q44 56 105.5 90.5
t132.5 34.5q31 0 60 -7.5t45 -15t48 -24.5q85 -47 146 -47q56 0 129 55l73 -120q-98 -125 -237 -125z" />
    <glyph glyph-name="uni1EBE" unicode="&#x1ebe;" 
d="M985 0h-903l237 1430h904l-37 -220h-641l-62 -376h615l-37 -220h-615l-65 -395h641zM1442 2171l-268 -346l-140 71l209 377zM745 1917h195l227 -299l-135 -107l-215 222l-278 -222l-115 111z" />
    <glyph glyph-name="uni1EBF" unicode="&#x1ebf;" 
d="M1389 1823l-269 -346l-139 71l209 377zM692 1569h195l227 -299l-135 -107l-215 221l-279 -221l-114 111zM573 -25q-222 0 -335 117t-113 336q0 292 168.5 472.5t441.5 180.5q166 0 273.5 -75.5t107.5 -212.5q0 -55 -15.5 -100t-62.5 -93.5t-125 -83.5t-212.5 -60
t-315.5 -32q-2 -16 -2 -37q0 -100 51.5 -154.5t169.5 -54.5q96 0 161.5 41.5t149.5 153.5l164 -105q-46 -69 -92 -118.5t-106.5 -91t-137.5 -62.5t-170 -21zM711 893q-243 0 -301 -285l-7 -30q121 6 209 21t135.5 33t75 44t34.5 47.5t7 48.5q0 121 -153 121z" />
    <glyph glyph-name="uni1EC0" unicode="&#x1ec0;" 
d="M485 1825l-209 354l207 96l138 -385zM745 1917h195l227 -299l-135 -107l-215 222l-278 -222l-115 111zM985 0h-903l237 1430h904l-37 -220h-641l-62 -376h615l-37 -220h-615l-65 -395h641z" />
    <glyph glyph-name="uni1EC1" unicode="&#x1ec1;" 
d="M432 1477l-209 354l207 96l137 -385zM692 1569h195l227 -299l-135 -107l-215 221l-279 -221l-114 111zM573 -25q-222 0 -335 117t-113 336q0 292 168.5 472.5t441.5 180.5q166 0 273.5 -75.5t107.5 -212.5q0 -55 -15.5 -100t-62.5 -93.5t-125 -83.5t-212.5 -60
t-315.5 -32q-2 -16 -2 -37q0 -100 51.5 -154.5t169.5 -54.5q96 0 161.5 41.5t149.5 153.5l164 -105q-46 -69 -92 -118.5t-106.5 -91t-137.5 -62.5t-170 -21zM711 893q-243 0 -301 -285l-7 -30q121 6 209 21t135.5 33t75 44t34.5 47.5t7 48.5q0 121 -153 121z" />
    <glyph glyph-name="uni1EC2" unicode="&#x1ec2;" 
d="M950 2066l29 185h260q78 0 118 -32.5t40 -84.5q0 -51 -23 -95.5t-71 -103.5l-111 -133l-129 66l119 198h-232zM745 1917h195l227 -299l-135 -107l-215 222l-278 -222l-115 111zM985 0h-903l237 1430h904l-37 -220h-641l-62 -376h615l-37 -220h-615l-65 -395h641z" />
    <glyph glyph-name="uni1EC3" unicode="&#x1ec3;" 
d="M573 -25q-222 0 -335 117t-113 336q0 292 168.5 472.5t441.5 180.5q166 0 273.5 -75.5t107.5 -212.5q0 -55 -15.5 -100t-62.5 -93.5t-125 -83.5t-212.5 -60t-315.5 -32q-2 -16 -2 -37q0 -100 51.5 -154.5t169.5 -54.5q96 0 161.5 41.5t149.5 153.5l164 -105
q-46 -69 -92 -118.5t-106.5 -91t-137.5 -62.5t-170 -21zM711 893q-243 0 -301 -285l-7 -30q121 6 209 21t135.5 33t75 44t34.5 47.5t7 48.5q0 121 -153 121zM897 1718l29 185h260q78 0 117.5 -32.5t39.5 -84.5q0 -51 -23 -95.5t-71 -103.5l-110 -133l-129 66l118 198h-231z
M692 1569h195l227 -299l-135 -107l-215 221l-279 -221l-114 111z" />
    <glyph glyph-name="uni1EC4" unicode="&#x1ec4;" 
d="M985 0h-903l237 1430h904l-37 -220h-641l-62 -376h615l-37 -220h-615l-65 -395h641zM745 2234q30 0 59 -7.5t45.5 -15t49.5 -24.5q89 -47 143 -47q55 0 132 55l71 -118q-99 -123 -239 -123q-30 0 -59 7.5t-45.5 15t-49.5 24.5q-89 47 -143 47q-33 0 -61.5 -13t-69.5 -42
l-72 118q99 123 239 123zM743 1894h199l227 -278l-131 -105l-219 205l-274 -205l-119 111z" />
    <glyph glyph-name="uni1EC5" unicode="&#x1ec5;" 
d="M573 -25q-222 0 -335 117t-113 336q0 292 168.5 472.5t441.5 180.5q166 0 273.5 -75.5t107.5 -212.5q0 -55 -15.5 -100t-62.5 -93.5t-125 -83.5t-212.5 -60t-315.5 -32q-2 -16 -2 -37q0 -100 51.5 -154.5t169.5 -54.5q96 0 161.5 41.5t149.5 153.5l164 -105
q-46 -69 -92 -118.5t-106.5 -91t-137.5 -62.5t-170 -21zM711 893q-243 0 -301 -285l-7 -30q121 6 209 21t135.5 33t75 44t34.5 47.5t7 48.5q0 121 -153 121zM690 1886q30 0 59 -7.5t45.5 -15t49.5 -24.5q89 -47 143 -47q33 0 61.5 13t69.5 42l72 -118q-99 -123 -240 -123
q-29 0 -58.5 7.5t-45 15t-49.5 24.5q-89 47 -144 47q-33 0 -61.5 -13t-69.5 -42l-71 118q99 123 239 123zM688 1546h199l227 -278l-131 -105l-219 205l-275 -205l-118 111z" />
    <glyph glyph-name="uni1EC6" unicode="&#x1ec6;" 
d="M727 1944h238l209 -318l-140 -98l-209 237l-276 -237l-125 102zM985 0h-903l237 1430h904l-37 -220h-641l-62 -376h615l-37 -220h-615l-65 -395h641zM520 -395q-70 0 -102.5 28t-32.5 74q0 22 8 62q11 57 47.5 85.5t108.5 28.5q70 0 102.5 -28t32.5 -74q0 -22 -8 -62
q-11 -57 -47.5 -85.5t-108.5 -28.5z" />
    <glyph glyph-name="uni1EC7" unicode="&#x1ec7;" 
d="M674 1595h237l209 -317l-139 -98l-209 237l-276 -237l-125 102zM573 -25q-222 0 -335 117t-113 336q0 292 168.5 472.5t441.5 180.5q166 0 273.5 -75.5t107.5 -212.5q0 -55 -15.5 -100t-62.5 -93.5t-125 -83.5t-212.5 -60t-315.5 -32q-2 -16 -2 -37q0 -100 51.5 -154.5
t169.5 -54.5q96 0 161.5 41.5t149.5 153.5l164 -105q-46 -69 -92 -118.5t-106.5 -91t-137.5 -62.5t-170 -21zM711 893q-243 0 -301 -285l-7 -30q121 6 209 21t135.5 33t75 44t34.5 47.5t7 48.5q0 121 -153 121zM537 -395q-70 0 -103 28t-33 74q0 17 9 62q11 57 47 85.5
t108 28.5q70 0 102.5 -28t32.5 -74q0 -22 -8 -62q-11 -57 -47 -85.5t-108 -28.5z" />
    <glyph glyph-name="uni1EC8" unicode="&#x1ec8;" 
d="M981 0h-909l32 199h324l172 1032h-324l33 199h910l-33 -199h-324l-172 -1032h324zM596 1767l31 187h274q77 0 117.5 -32.5t40.5 -84.5q0 -54 -26 -103t-77 -108l-102 -119l-129 66l117 194h-246z" />
    <glyph glyph-name="uni1EC9" unicode="&#x1ec9;" 
d="M594 -25q-108 0 -166.5 58t-58.5 157q0 41 18 140l100 522h-340l35 205h600l-166 -864l39 -13l322 309l143 -129l-143 -151q-119 -127 -204.5 -180.5t-178.5 -53.5zM485 1419l31 187h275q76 0 116.5 -32.5t40.5 -84.5q0 -55 -25.5 -104t-76.5 -107l-103 -119l-129 66
l117 194h-246z" />
    <glyph glyph-name="uni1ECA" unicode="&#x1eca;" 
d="M981 0h-909l32 199h324l172 1032h-324l33 199h910l-33 -199h-324l-172 -1032h324zM473 -395q-70 0 -102.5 28t-32.5 74q0 22 8 62q11 57 47.5 85.5t108.5 28.5q70 0 102.5 -28t32.5 -74q0 -22 -8 -62q-11 -57 -47.5 -85.5t-108.5 -28.5z" />
    <glyph glyph-name="uni1ECB" unicode="&#x1ecb;" 
d="M696 1225q-153 0 -153 112q0 23 8 72q22 127 176 127t154 -113q0 -15 -9 -71q-22 -127 -176 -127zM594 -25q-108 0 -166.5 58t-58.5 157q0 41 18 140l100 522h-340l35 205h600l-166 -864l39 -13l322 309l143 -129l-143 -151q-119 -127 -204.5 -180.5t-178.5 -53.5z
M530 -395q-70 0 -102.5 28t-32.5 74q0 22 8 62q11 57 47.5 85.5t108.5 28.5q70 0 102.5 -28t32.5 -74q0 -22 -8 -62q-11 -57 -47.5 -85.5t-108.5 -28.5z" />
    <glyph glyph-name="uni1ECC" unicode="&#x1ecc;" 
d="M559 -25q-239 0 -354 135t-115 388q0 140 20.5 272t69 258t120 219t182 150t247.5 57q239 0 354 -134.5t115 -387.5q0 -140 -20.5 -272t-69 -258.5t-120 -219.5t-182 -150t-247.5 -57zM563 193q135 0 209.5 101t106.5 300l41 240q12 82 12 155q0 248 -207 248
q-134 0 -208.5 -101t-106.5 -300l-41 -240q-13 -89 -13 -156q0 -247 207 -247zM483 -395q-70 0 -102.5 28t-32.5 74q0 22 8 62q11 57 47.5 85.5t108.5 28.5q70 0 102.5 -28t32.5 -74q0 -22 -8 -62q-11 -57 -47.5 -85.5t-108.5 -28.5z" />
    <glyph glyph-name="uni1ECD" unicode="&#x1ecd;" 
d="M543 -25q-208 0 -325.5 122.5t-117.5 330.5q0 298 163 475.5t423 177.5q208 0 325 -122t117 -330q0 -149 -43.5 -272t-120.5 -206.5t-185 -129.5t-236 -46zM561 174q113 0 183 68.5t92 195.5l24 146q10 55 10 92q0 102 -53 154.5t-149 52.5q-113 0 -183 -69t-92 -196
l-24 -145q-11 -61 -11 -92q0 -102 53.5 -154.5t149.5 -52.5zM471 -395q-70 0 -102.5 28t-32.5 74q0 22 8 62q11 57 47.5 85.5t108.5 28.5q70 0 102.5 -28t32.5 -74q0 -22 -8 -62q-11 -57 -47.5 -85.5t-108.5 -28.5z" />
    </font>
</defs>
</svg>
