<svg xmlns="http://www.w3.org/2000/svg" width="900" height="15" viewBox="0 0 900 15">
  <defs>
    <style>
      .cls-1 {
        fill: #eee;
        fill-rule: evenodd;
      }
    </style>
  </defs>
  <path id="Rounded_Rectangle_1_copy_31" data-name="Rounded Rectangle 1 copy 31" class="cls-1" d="M898.836,15a4.975,4.975,0,0,1-2.375-1.322L885.484,2.713,874.507,13.678A4.974,4.974,0,0,1,872.131,15H869.8a4.978,4.978,0,0,1-2.376-1.322L856.452,2.713,845.475,13.678A4.978,4.978,0,0,1,843.1,15h-2.327a4.978,4.978,0,0,1-2.376-1.322L827.419,2.713,816.443,13.678A4.978,4.978,0,0,1,814.067,15H811.74a4.974,4.974,0,0,1-2.376-1.322L798.387,2.713,787.41,13.678A4.974,4.974,0,0,1,785.034,15h-2.327a4.975,4.975,0,0,1-2.375-1.322L769.355,2.713,758.378,13.678A4.974,4.974,0,0,1,756,15h-2.327a4.978,4.978,0,0,1-2.376-1.322L740.323,2.713,729.346,13.678A4.978,4.978,0,0,1,726.97,15h-2.327a4.978,4.978,0,0,1-2.376-1.322L711.29,2.713,700.314,13.678A4.978,4.978,0,0,1,697.938,15h-2.327a4.974,4.974,0,0,1-2.376-1.322L682.258,2.713,671.281,13.678A4.974,4.974,0,0,1,668.905,15h-2.327a4.978,4.978,0,0,1-2.376-1.322L653.226,2.713,642.249,13.678A4.978,4.978,0,0,1,639.873,15h-2.327a4.978,4.978,0,0,1-2.376-1.322L624.194,2.713,613.217,13.678A4.978,4.978,0,0,1,610.841,15h-2.327a4.978,4.978,0,0,1-2.376-1.322L595.161,2.713,584.185,13.678A4.978,4.978,0,0,1,581.809,15h-2.327a4.974,4.974,0,0,1-2.376-1.322L566.129,2.713,555.152,13.678A4.974,4.974,0,0,1,552.776,15h-2.327a4.978,4.978,0,0,1-2.376-1.322L537.1,2.713,526.12,13.678A4.978,4.978,0,0,1,523.744,15h-2.327a4.978,4.978,0,0,1-2.376-1.322L508.065,2.713,497.088,13.678A4.978,4.978,0,0,1,494.712,15h-2.327a4.978,4.978,0,0,1-2.376-1.322L479.032,2.713,468.056,13.678A4.978,4.978,0,0,1,465.68,15h-2.327a4.974,4.974,0,0,1-2.376-1.322L450,2.713,439.023,13.678A4.974,4.974,0,0,1,436.647,15H434.32a4.978,4.978,0,0,1-2.376-1.322L420.968,2.713,409.991,13.678A4.978,4.978,0,0,1,407.615,15h-2.327a4.978,4.978,0,0,1-2.376-1.322L391.935,2.713,380.959,13.678A4.978,4.978,0,0,1,378.583,15h-2.327a4.978,4.978,0,0,1-2.376-1.322L362.9,2.713,351.927,13.678A4.978,4.978,0,0,1,349.551,15h-2.327a4.974,4.974,0,0,1-2.376-1.322L333.871,2.713,322.894,13.678A4.974,4.974,0,0,1,320.518,15h-2.327a4.978,4.978,0,0,1-2.376-1.322L304.839,2.713,293.862,13.678A4.978,4.978,0,0,1,291.486,15h-2.327a4.978,4.978,0,0,1-2.376-1.322L275.806,2.713,264.83,13.678A4.978,4.978,0,0,1,262.454,15h-2.327a4.978,4.978,0,0,1-2.376-1.322L246.774,2.713,235.8,13.678A4.978,4.978,0,0,1,233.422,15H231.1a4.974,4.974,0,0,1-2.376-1.322L217.742,2.713,206.765,13.678A4.974,4.974,0,0,1,204.389,15h-2.327a4.978,4.978,0,0,1-2.376-1.322L188.71,2.713,177.733,13.678A4.978,4.978,0,0,1,175.357,15H173.03a4.978,4.978,0,0,1-2.376-1.322L159.677,2.713,148.7,13.678A4.978,4.978,0,0,1,146.325,15H144a4.974,4.974,0,0,1-2.376-1.322L130.645,2.713,119.668,13.678A4.975,4.975,0,0,1,117.293,15h-2.327a4.974,4.974,0,0,1-2.376-1.322L101.613,2.713,90.636,13.678A4.977,4.977,0,0,1,88.26,15H85.933a4.977,4.977,0,0,1-2.376-1.322L72.581,2.713,61.6,13.678A4.977,4.977,0,0,1,59.228,15H56.9a4.977,4.977,0,0,1-2.376-1.322L43.548,2.713,32.572,13.678A4.977,4.977,0,0,1,30.2,15H27.869a4.977,4.977,0,0,1-2.376-1.322L14.516,2.713,3.539,13.678A4.977,4.977,0,0,1,1.164,15H0V0H900V15h-1.164Z"/>
</svg>
