<svg xmlns="http://www.w3.org/2000/svg" width="8348" height="4356" viewBox="0 0 4174 2178"><defs><style>.cls-1,.cls-2{fill:#f57232;fill-rule:evenodd}.cls-2{fill:#fff}</style></defs><path d="M123,51L2930,249l-9,567,908-189,282,1074L2135,2121l-123-786L30,1170Z" class="cls-1"/><path d="M4174,1736L2083,2178l-114-784L0,1234,76,0,2989,206l-21,548,894-189ZM2859,885l25-586L173,105,105,1146l1952,156,110,750,1885-388L3799,682Zm521,290q7.005,41.49,14,83l184-30,15,99q-91.485,15.495-183,31,17.505,106.485,35,213-48.495,7.995-97,16-40.5-248.475-81-497,200.985-33,402-66c6.56,6.65,16.45,81.02,17,96q-152.985,24.99-306,50v5Zm-331,461q-47.49,7.5-95,15l-1-1q-16.005-98.985-32-198-30.495-27-61-54-76.5-70.995-153-142c-21-19.34-54.36-38.29-69-63v-1c23.2-1.09,112.37-23.61,124-18l192,174q63-113.985,126-228,60.99-10.005,122-20-92.49,166.98-185,334Q3033.005,1535,3049,1636Zm-539-573q10.5-146.485,21-293c-0.67.333-1.33,0.667-2,1q-96.495,139.486-193,279h-3q-75.99-151.985-152-304c-0.33.666-.67,1.333-1,2q-10.995,145.485-22,291h-1q-46.995-3.495-94-7,18-251.974,36-504l90,7,112,229c8.64,19.4,35.43,85.985,48,97v-2q100.485-148.985,201-298l93,6v1q-18,250.976-36,502Q2558.505,1066.505,2510,1063Zm-52,572q154.485-25.005,309-50l15,93c-0.33.67-.67,1.33-1,2q-201.975,33-404,66-39.99-248.97-80-498l96-15Q2425.49,1433.985,2458,1635ZM1900,804q-19.005,8-38,16,49.5,101.99,99,204-55.995-3.5-112-7-49.5-97.99-99-196l-153-10q-6.495,92.991-13,186h-13l-84-7v-1q18-250.474,36-501l245,18c38.14,6.976,80.66-.8,111,13,28.46,12.949,51.06,30.423,68,55,32.91,47.738,45.18,116.915,10,174C1943.91,769.243,1922.22,792.059,1900,804Zm-57-194c-22-8.479-52.16-2.657-78-7l-152-11q-3,44-6,88c-0.3,8.826-5.21,26.957,0,33l84,6,70,5c59.38,9.8,108.54,3.565,120-48C1887.93,644.822,1863.64,617.956,1843,610ZM1184,973c-41.94,8.582-102.03-1.808-130-17-23.77-12.911-44.81-19.864-65-35-72.979-54.709-135.076-177.189-89-301,24.925-66.978,77.111-122.216,142-149q27.99-8,56-16l26-3c22.7,1.163,51.47-1.176,74,4,91.7,21.067,147.63,72.866,189,144,10.48,18.017,26.22,57.125,23,79q1.5,11,3,22c3.42,21.253-1.83,53.171-7,73C1377.3,883.976,1297.61,949.755,1184,973Zm123-314c-23.89-68.388-85.03-105.336-173-108q-20.505,4-41,8c-33.93,11.114-68.67,37.527-87,67-61.261,98.51,2.78,200.881,80,238,22.64,10.88,57.47,9.748,84,11,13.58,0.641,30.28-7.934,40-12C1274.68,835.941,1341.68,758.277,1307,659ZM442,915l-123-9v-1q18-250.474,36-501l132,10c45.5,7.678,95.04.708,136,12,98.272,27.093,164.182,99.605,186,200,12.754,58.686-6.656,130.038-31,170C713.017,902.671,607.432,942.9,442,915ZM701,613c-38.368-91.726-125.97-105.1-256-105q-11,154.485-22,309c140.439,2.869,198.609,31.807,269-67C715.819,716.565,717.75,653.043,701,613Z" class="cls-2"/></svg>