<svg xmlns="http://www.w3.org/2000/svg" width="3454" height="3084" viewBox="0 0 1727 1542">
  <defs>
    <style>
      .cls-1 {
        fill: #fff;
        fill-rule: evenodd;
      }
    </style>
  </defs>
  <path class="cls-1" d="M869,723m858,671L854,1542,668,1205,0,1270,76,0,1153,272l165,434,337,147ZM1254,771L1096,347,155,114,93,1173l618-60,185,342,739-136-55-406Zm-175,318q154.485-25.005,309-50l15,93c-0.33.67-.67,1.33-1,2q-201.975,33-404,66-40-248.97-80-498l96-15Q1046.49,887.98,1079,1089ZM442,915l-123-9v-1q18-250.474,36-501l132,10c45.5,7.677,95.041.708,136,12,98.272,27.093,164.182,99.605,186,200,12.754,58.686-6.656,130.038-31,170C713.017,902.671,607.432,942.9,442,915ZM701,613c-38.368-91.726-125.97-105.1-256-105q-11,154.485-22,309c140.439,2.868,198.609,31.807,269-67C715.819,716.565,717.75,653.043,701,613Z"/>
</svg>
