<svg xmlns="http://www.w3.org/2000/svg" width="512" height="512" viewBox="0 0 512 512">
  <defs>
    <style>
      .cls-1 {
        fill: #e6f2ef;
      }

      .cls-1, .cls-2 {
        fill-rule: evenodd;
      }

      .cls-2 {
        fill: #10211d;
      }
    </style>
  </defs>
  <path class="cls-1" d="M384,512H128A128,128,0,0,1,0,384V0H384A128,128,0,0,1,512,128V512H384Z"/>
  <path class="cls-2" d="M394,176H338v69h31l31-47V316l-31-48H339v63l36,28H257l35-28V180l-35-27H439l7,88ZM213,332l48-80L250,359H67L182,179H125L83,252l6-99H253L136,332h77Z"/>
</svg>
