<svg xmlns="http://www.w3.org/2000/svg" width="60" height="60" viewBox="0 0 60 60">
  <defs>
    <style>
      .cls-1 {
        fill: none;
        stroke: #000;
        stroke-linecap: round;
        stroke-linejoin: round;
        stroke-width: 2px;
        fill-rule: evenodd;
      }
    </style>
  </defs>
  <path id="github" class="cls-1" d="M37.072,53.969a31.136,31.136,0,0,0-1.91-12.577c3.389-.782,7.555-2.568,9.593-6.679C45.527,33.786,46,32.291,46,30c0-.176-0.014-0.339-0.019-0.51S46,29.155,46,28.979c0-2.316-.482-3.82-1.267-4.747-0.146-.291-0.321-0.549-0.487-0.817C44.624,20.632,43.845,15,43,15c-1.981,0-4.622,1.889-6.027,3.107a22.512,22.512,0,0,0-13.946,0C21.622,16.889,18.981,15,17,15c-1.1,0-1.624,5.632-1.246,8.415-0.166.268-.341,0.526-0.487,0.817C14.482,25.159,14,26.663,14,28.979c0,0.176.014,0.34,0.019,0.511S14,29.824,14,30c0,2.291.473,3.786,1.245,4.714,2.019,4.072,6.124,5.862,9.5,6.655A21.257,21.257,0,0,0,23.95,44.2,5,5,0,0,1,21,45a4.041,4.041,0,0,1-4-3,4.089,4.089,0,0,0-4-3c-3.335-.088,1,3,1,3s1.682,0.92,2,4c0.23,2.224,4.809,2.278,7.343,2.137-0.176,1.661-.3,3.584-0.328,5.855A24.995,24.995,0,1,1,37.072,53.969Z" transform="translate(0 0.516)"/>
</svg>
