<svg xmlns="http://www.w3.org/2000/svg" width="60" height="60" viewBox="0 0 60 60">
  <defs>
    <style>
      .cls-1 {
        fill: none;
        stroke: #000;
        stroke-linecap: square;
        stroke-linejoin: round;
        stroke-width: 2px;
        fill-rule: evenodd;
      }
    </style>
  </defs>
  <path id="twitter" class="cls-1" d="M20.725,51c18.869,0,29.187-15.772,29.187-29.449,0-.448-0.009-0.894-0.029-1.338A20.977,20.977,0,0,0,55,14.854a20.334,20.334,0,0,1-5.891,1.629,10.371,10.371,0,0,0,4.511-5.726,20.447,20.447,0,0,1-6.514,2.512,10.244,10.244,0,0,0-17.748,7.079,10.42,10.42,0,0,0,.266,2.36A29.039,29.039,0,0,1,8.48,11.9a10.42,10.42,0,0,0,3.176,13.818A10.114,10.114,0,0,1,7.01,24.418c0,0.043,0,.087,0,0.132A10.332,10.332,0,0,0,15.237,34.7a10.152,10.152,0,0,1-4.633.177,10.282,10.282,0,0,0,9.583,7.189A20.469,20.469,0,0,1,7.447,46.494,20.712,20.712,0,0,1,5,46.351,28.855,28.855,0,0,0,20.725,51" transform="translate(-0.016 -0.5)"/>
</svg>
