<svg xmlns="http://www.w3.org/2000/svg"><defs><font id="IBMPlexSans-Text" horiz-adv-x="1228"><font-face font-family="IBM Plex Sans Text" font-weight="450" units-per-em="2048" panose-1="2 11 5 3 5 2 3 0 2 3" ascent="1597" descent="-451" x-height="1061" cap-height="1430" bbox="-551 -514 2585 2304" underline-thickness="139" underline-position="-390" unicode-range="U+0020-FB02"/><glyph glyph-name="fi" unicode="fi" horiz-adv-x="1191" d="M225 0v899H55v162h170v196q0 120 63 189.5t185 69.5h166v-162H416v-293h608V0H834v899H416V0H225zm705 1282q-58 0-86.5 28t-28.5 76v29q0 48 28.5 76.5T930 1520t86-28.5 28-76.5v-29q0-48-28-76t-86-28z"/><glyph glyph-name=".notdef" horiz-adv-x="966" d="M66 0v1597h835V0H66zm139 139h557v1319H205V139z"/><glyph glyph-name=".null" horiz-adv-x="0"/><glyph glyph-name="nonmarkingreturn" horiz-adv-x="682"/><glyph glyph-name="space" horiz-adv-x="483"/><glyph glyph-name="exclam" unicode="!" horiz-adv-x="593" d="M342 393h-90l-57 625v412h204v-412zM297-25q-68 0-101.5 34.5T162 102v31q0 58 33.5 92.5T297 260t101.5-34.5T432 133v-31q0-58-33.5-92.5T297-25z"/><glyph glyph-name="quotedbl" unicode="&quot;" horiz-adv-x="884" d="M338 924H168v592h170V924zm379 0H547v592h170V924z"/><glyph glyph-name="numbersign" unicode="#" horiz-adv-x="1429" d="M750 0l69 408H504L434 0H291l69 408H109v135h276l57 344H190v135h277l70 408h143l-70-408h316l69 408h144l-70-408h252V887h-277l-57-344h252V408H963L893 0H750zM528 543h316l57 344H586z"/><glyph glyph-name="dollar" unicode="$" horiz-adv-x="1226" d="M692-168H545V4Q268 23 98 242l133 120q132-170 320-196v496q-214 47-312 140.5T141 1053q0 159 109 256t295 116v172h147v-170q262-26 408-223l-135-108q-108 141-279 168V811q227-51 326.5-143t99.5-252q0-170-111.5-279T692 6v-174zm236 571q0 93-55.5 146.5T686 635V166q113 17 177.5 79.5T928 403zm-602 660q0-92 52.5-140.5T551 840v424q-106-14-165.5-65.5T326 1063z"/><glyph glyph-name="percent" unicode="%" horiz-adv-x="1921" d="M555 0H375l991 1430h180zm-94 643q-160 0-247 105t-87 301 87 300.5T461 1454t247-104.5 87-300.5-87-301-247-105zm0 121q164 0 164 225v119q0 225-164 225t-164-225V989q0-225 164-225zm999-789q-160 0-247 105t-87 301 87 300.5T1460 786t247-104.5 87-300.5-87-301-247-105zm0 121q164 0 164 226v118q0 226-164 226t-164-226V322q0-226 164-226z"/><glyph glyph-name="ampersand" unicode="&amp;" horiz-adv-x="1431" d="M1145 0l-144 158Q841-25 586-25 376-25 257.5 87T139 371q0 76 23 139t67.5 111.5T320 704t110 70q-160 170-160 336 0 148 105.5 246t275.5 98q158 0 257.5-85.5T1008 1143q0-67-24-125t-71.5-106-99-84.5T688 750l303-326q56 147 66 334h291V598h-142q-30-169-98-299L1389 0h-244zM643 1298q-82 0-135-50.5T455 1120v-20q0-55 33.5-112T590 856q107 60 171 122.5t64 135.5v23q0 74-52.5 117.5T643 1298zM606 139q176 0 291 131L528 666q-93-50-142.5-109.5T336 399v-28q0-106 73-169t197-63z"/><glyph glyph-name="quotesingle" unicode="'" horiz-adv-x="505" d="M338 924H168v592h170V924z"/><glyph glyph-name="parenleft" unicode="(" horiz-adv-x="692" d="M152 639q0 287 104.5 534.5T520 1556h185q-166-148-270.5-379T330 723V555q0-223 104.5-454.5T705-279H520Q361-144 256.5 104T152 639z"/><glyph glyph-name="parenright" unicode=")" horiz-adv-x="692" d="M541 639q0-287-104.5-535T172-279H-12q166 148 270 379t104 455v168q0 224-104 454.5T-12 1556h184q160-135 264.5-382.5T541 639z"/><glyph glyph-name="asterisk" unicode="*" horiz-adv-x="980" d="M492 1004L313 735l-135 96 201 252-307 86 53 156 297-113-14 318h165l-12-318 297 113 51-156-307-86 201-252-133-94z"/><glyph glyph-name="plus" unicode="+" d="M702 127H526v418H137v160h389v417h176V705h390V545H702V127z"/><glyph glyph-name="comma" unicode="," horiz-adv-x="569" d="M285 260q68 0 101.5-34.5T420 131v-31q0-93-52-197T227-274H78q67 68 105.5 127.5T240-18q-90 18-90 118v31q0 60 33.5 94.5T285 260z"/><glyph glyph-name="hyphen" unicode="-" horiz-adv-x="819" d="M684 524H135v199h549V524z"/><glyph glyph-name="period" unicode="." horiz-adv-x="569" d="M285-25q-68 0-101.5 34.5T150 102v31q0 58 33.5 92.5T285 260t101.5-34.5T420 133v-31q0-58-33.5-92.5T285-25z"/><glyph glyph-name="slash" unicode="/" horiz-adv-x="817" d="M186-309H18l551 1825h168z"/><glyph glyph-name="zero" unicode="0" d="M614-25q-255 0-379 190.5T111 715t124 549 379 190q256 0 380-190t124-549-124-549.5T614-25zm0 175q153 0 224 117.5T909 594v242q0 209-71 326.5T614 1280t-224-117.5T319 836V594q0-209 71-326.5T614 150z"/><glyph glyph-name="one" unicode="1" d="M1124 0H176v176h391v1108h-14L207 940 88 1057l371 373h307V176h358V0z"/><glyph glyph-name="two" unicode="2" d="M1098 176V0H147v197l461 419q232 209 232 392v24q0 112-66 178t-184 66q-217 0-283-232l-176 68q23 70 59 127.5t91.5 108T419 1426t183 28q210 0 330.5-115.5T1053 1036q0-82-23.5-156T957 738.5 855.5 616 723 492L369 176h729z"/><glyph glyph-name="three" unicode="3" d="M385 831h152q133 0 204.5 61.5T813 1053v14q0 103-66 159t-178 56q-197 0-295-176l-139 113q155 235 438 235 197 0 323-97.5t126-266.5q0-132-76.5-217T748 758v-8q129-25 215-116.5t86-240.5q0-186-137-302T553-25q-92 0-168.5 20.5T251 53.5t-97 78T76 225l149 113q58-94 132.5-142.5T551 147q141 0 216 64.5T842 395v19q0 119-75 183.5T551 662H385v169z"/><glyph glyph-name="four" unicode="4" d="M942 0H754v279H74v174l592 977h276V440h201V279H942V0zM741 1262L252 440h502v822h-13z"/><glyph glyph-name="five" unicode="5" d="M1030 1430v-175H397l-39-526h17q55 85 120.5 127.5T670 899q189 0 308.5-119.5T1098 455q0-215-132.5-347.5T604-25q-88 0-162 20.5t-129 58-93.5 78T145 225l148 113q41-64 76-101.5t95-63.5 140-26q138 0 211.5 73.5T889 430v21q0 135-73.5 208.5T604 733q-86 0-141-31t-107-86l-166 23 52 791h788z"/><glyph glyph-name="six" unicode="6" d="M616-25q-229 0-360 148T125 528q0 150 46.5 294.5t123 258T457 1281t178 149h260q-167-121-271.5-222.5T443.5 978 332 692l10-4q55 97 136 152t204 55q186 0 304-120t118-320q0-213-134.5-346.5T616-25zm-2 166q134 0 209.5 75T899 428v18q0 137-75.5 212T614 733t-209-75-75-212v-18q0-137 75-212t209-75z"/><glyph glyph-name="seven" unicode="7" d="M565 0H354l535 1262H309V997H135v433h952v-175z"/><glyph glyph-name="eight" unicode="8" d="M614-25Q375-25 244 90T113 389q0 140 75.5 227.5T399 741v17q-113 39-178 126t-65 208q0 165 121.5 263.5T614 1454t337-98.5 122-263.5q0-121-65.5-208T829 758v-17q135-37 211-124.5t76-227.5q0-183-131.5-298.5T614-25zm0 166q139 0 216 64t77 178v43q0 114-77 178t-216 64-215.5-64T322 426v-43q0-114 76.5-178T614 141zm0 686q126 0 193 55.5t67 159.5v31q0 104-67 159.5T614 1288t-193-55.5-67-159.5v-31q0-104 67-159.5T614 827z"/><glyph glyph-name="nine" unicode="9" d="M1104 901q0-121-31-239.5t-81.5-215T873 263 736 112 594 0H334q167 121 271.5 222t180 229T897 737l-10 4Q769 535 547 535q-186 0-304 120T125 975q0 213 134 346t353 133q229 0 360.5-148T1104 901zM614 696q134 0 209.5 75T899 983v18q0 137-75.5 212T614 1288t-209-75-75-212v-18q0-137 75-212t209-75z"/><glyph glyph-name="colon" unicode=":" horiz-adv-x="610" d="M305-25q-68 0-101.5 34.5T170 102v31q0 58 33.5 92.5T305 260t101.5-34.5T440 133v-31q0-58-33.5-92.5T305-25zm0 826q-68 0-101.5 34.5T170 928v30q0 58 33.5 92.5T305 1085t101.5-34.5T440 958v-30q0-58-33.5-92.5T305 801z"/><glyph glyph-name="semicolon" unicode=";" horiz-adv-x="610" d="M305 260q68 0 101.5-34.5T440 131v-31q0-93-52-197T248-274H98q67 68 105.5 127.5T260-18q-90 18-90 118v31q0 60 33.5 94.5T305 260zm0 541q-68 0-101.5 34.5T170 928v30q0 58 33.5 92.5T305 1085t101.5-34.5T440 958v-30q0-58-33.5-92.5T305 801z"/><glyph glyph-name="less" unicode="&lt;" d="M1040-18L188 492v167l852 515V977L375 584v-17l665-389V-18z"/><glyph glyph-name="equal" unicode="=" d="M1092 758H137v160h955V758zm0-422H137v160h955V336z"/><glyph glyph-name="greater" unicode="&gt;" d="M188-18v196l666 389v17L188 977v197l852-515V492z"/><glyph glyph-name="question" unicode="?" horiz-adv-x="985" d="M541 436H358v332q168 6 260.5 75.5T711 1038v29q0 99-63 158t-165 59q-106 0-175-62t-95-165l-170 65q20 68 55.5 125.5t88.5 105 130.5 74.5 171.5 27q193 0 308.5-107T913 1061q0-92-32-167.5t-86.5-125-118-80.5T541 643V436zM446-25q-68 0-101.5 34.5T311 102v31q0 58 33.5 92.5T446 260t102-34.5 34-92.5v-31q0-58-34-92.5T446-25z"/><glyph glyph-name="at" unicode="@" horiz-adv-x="1828" d="M1389-113v-135H922q-238 0-417.5 104T228 150.5 131 592t99 446 282.5 303.5T936 1450q123 0 233.5-28.5T1378 1331t169-152 112-221.5 41-291.5q0-112-21.5-205T1614 296t-113.5-112.5T1337 143q-96 0-151.5 49.5T1122 324h-8q-80-181-252-181-150 0-249 116t-99 333 99 333.5T862 1042q167 0 230-161h8v143h157V410q0-72 26-100.5t83-28.5q90 0 139 94.5t49 263.5v86q0 176-81.5 312t-222 208-316.5 72q-191 0-341-87T361 991.5 279 653V541q0-190 80-338.5t227-232T924-113h465zM901 289q97 0 148 48.5t51 135.5v250q0 77-51.5 125.5T901 897q-99 0-151-60.5T698 672V512q0-104 52-163.5T901 289z"/><glyph glyph-name="A" unicode="A" horiz-adv-x="1329" d="M1284 0h-209L940 403H383L246 0H45l496 1430h250zM891 580l-225 667h-11L430 580h461z"/><glyph glyph-name="B" unicode="B" horiz-adv-x="1345" d="M184 0v1430h609q176 0 279.5-100.5T1176 1061q0-61-15.5-111.5T1121 866t-57-57-65-35.5-65-15.5v-13q45-2 92-21.5t93.5-56.5 76-103.5T1225 412q0-175-106.5-293.5T854 0H184zm199 649V172h412q103 0 160 52t57 151v71q0 99-57 151t-160 52H383zm0 608V817h379q94 0 147.5 49t53.5 138v67q0 89-53.5 137.5T762 1257H383z"/><glyph glyph-name="C" unicode="C" horiz-adv-x="1284" d="M702-25q-276 0-431.5 192.5T115 715t155.5 547T702 1454q358 0 500-317l-164-95q-41 110-126 172t-210 62q-174 0-274-121.5T328 823V606q0-210 100-331t274-121q128 0 218 66.5T1051 401l159-96q-70-157-200-243.5T702-25z"/><glyph glyph-name="D" unicode="D" horiz-adv-x="1384" d="M184 0v1430h490q278 0 437-182.5T1270 715t-159-532.5T674 0H184zm199 176h291q174 0 278.5 112T1057 600v229q0 200-104.5 312T674 1253H383V176z"/><glyph glyph-name="E" unicode="E" horiz-adv-x="1204" d="M1075 0H184v1430h891v-177H383V811h641V635H383V176h692V0z"/><glyph glyph-name="F" unicode="F" horiz-adv-x="1155" d="M383 0H184v1430h871v-177H383V811h606V635H383V0z"/><glyph glyph-name="G" unicode="G" horiz-adv-x="1431" d="M1106 0v213h-8q-24-105-128.5-171.5T707-25q-130 0-238.5 48.5T281.5 164 159 396.5 115 713q0 352 166.5 546.5T731 1454q185 0 318.5-83.5T1257 1137l-163-97q-47 110-140.5 173T731 1276q-183 0-293-120.5T328 831V600q0-206 111.5-326T743 154q151 0 250 75.5t99 216.5v129H786v173h498V0h-178z"/><glyph glyph-name="H" unicode="H" horiz-adv-x="1454" d="M1071 0v635H383V0H184v1430h199V811h688v619h199V0h-199z"/><glyph glyph-name="I" unicode="I" horiz-adv-x="833" d="M715 0H119v168h198v1094H119v168h596v-168H516V168h199V0z"/><glyph glyph-name="J" unicode="J" horiz-adv-x="1062" d="M211 1430h678V379q0-184-115.5-294T469-25q-170 0-276 91.5T55 315l183 41q44-202 233-202 104 0 161.5 63.5T690 406v847H211v177z"/><glyph glyph-name="K" unicode="K" horiz-adv-x="1323" d="M1038 0L582 688 383 463V0H184v1430h199V684h8l203 254 412 492h237L721 821 1282 0h-244z"/><glyph glyph-name="L" unicode="L" horiz-adv-x="1038" d="M979 0H184v1430h199V176h596V0z"/><glyph glyph-name="M" unicode="M" horiz-adv-x="1662" d="M184 0v1430h250l397-752h9l397 752h242V0h-193v1155h-10l-117-235-328-601-327 601-117 235h-10V0H184z"/><glyph glyph-name="N" unicode="N" horiz-adv-x="1454" d="M1049 0L580 782l-197 359h-6V0H184v1430h222l468-783 197-358h6v1141h193V0h-221z"/><glyph glyph-name="O" unicode="O" horiz-adv-x="1449" d="M725-25q-283 0-446.5 192.5T115 715t163.5 547T725 1454t446.5-192T1335 715t-163.5-547.5T725-25zm0 179q179 0 288 120.5T1122 598v233q0 203-109 324t-288 121-288-121-109-324V598q0-203 109-323.5T725 154z"/><glyph glyph-name="P" unicode="P" horiz-adv-x="1261" d="M383 0H184v1430h590q191 0 298.5-113.5T1180 1010t-107.5-306.5T774 590H383V0zm0 1253V766h383q96 0 149.5 50T969 958v103q0 92-53.5 142T766 1253H383z"/><glyph glyph-name="Q" unicode="Q" horiz-adv-x="1449" d="M1053-180v-164H846q-98 0-149.5 52T645-150v130Q396 7 255.5 196.5T115 715q0 355 163.5 547T725 1454t446.5-192T1335 715q0-320-134-508.5T829-16v-164h224zM725 154q179 0 288 120.5T1122 598v233q0 203-109 324t-288 121-288-121-109-324V598q0-203 109-323.5T725 154z"/><glyph glyph-name="R" unicode="R" horiz-adv-x="1325" d="M383 594V0H184v1430h590q189 0 297.5-112t108.5-308q0-156-72-258.5T899 614L1217 0H993L696 594H383zm0 172h383q96 0 149.5 50T969 958v103q0 92-53.5 142T766 1253H383V766z"/><glyph glyph-name="S" unicode="S" horiz-adv-x="1204" d="M596-25Q270-25 84 221l141 127q153-198 379-198 144 0 221.5 67.5T903 401q0 94-56.5 147.5T657 631l-120 24q-205 42-307.5 139T127 1055q0 188 131 293.5T612 1454q310 0 478-227l-146-117q-124 170-342 170-132 0-205-56t-73-161q0-93 59-142.5T573 842l121-25q211-46 308.5-143.5T1100 412q0-200-134-318.5T596-25z"/><glyph glyph-name="T" unicode="T" horiz-adv-x="1177" d="M489 0v1253H47v177h1083v-177H688V0H489z"/><glyph glyph-name="U" unicode="U" horiz-adv-x="1396" d="M174 1430h199V547q0-201 74.5-297T698 154q177 0 251.5 96t74.5 297v883h199V586q0-319-122.5-465T692-25q-145 0-244 36T288 124.5t-87.5 189T174 586v844z"/><glyph glyph-name="V" unicode="V" horiz-adv-x="1263" d="M748 0H512L39 1430h209l231-715 150-520h10l152 520 231 715h203z"/><glyph glyph-name="W" unicode="W" horiz-adv-x="1857" d="M610 0H387L45 1430h205l151-689 111-508h4l125 508 176 689h223l172-689 125-505h6l113 505 158 689h198L1452 0h-221l-187 725-118 483h-4L799 725z"/><glyph glyph-name="X" unicode="X" horiz-adv-x="1277" d="M45 0l467 731-453 699h238l342-553h6l350 553h224L764 733 1233 0H995L635 586h-6L268 0H45z"/><glyph glyph-name="Y" unicode="Y" horiz-adv-x="1234" d="M715 0H516v563L25 1430h227l366-666h7l364 666h221L715 569V0z"/><glyph glyph-name="Z" unicode="Z" horiz-adv-x="1200" d="M1124 176V0H76v178l798 1075H117v177h981v-179L295 176h829z"/><glyph glyph-name="bracketleft" unicode="[" horiz-adv-x="655" d="M537-283H184v1839h353v-145H352V-137h185v-146z"/><glyph glyph-name="backslash" unicode="\" horiz-adv-x="817" d="M799-309H631L80 1516h168z"/><glyph glyph-name="bracketright" unicode="]" horiz-adv-x="655" d="M119 1556h352V-283H119v146h184v1548H119v145z"/><glyph glyph-name="asciicircum" unicode="^" d="M1130 674l-145-76-367 645h-8L244 598 98 674l422 756h189z"/><glyph glyph-name="underscore" unicode="_" horiz-adv-x="1153" d="M1092-348H61v164h1031v-164z"/><glyph glyph-name="grave" unicode="`" d="M596 1196l-227 332 168 82 180-359z"/><glyph glyph-name="a" unicode="a" horiz-adv-x="1107" d="M1049 0H940q-84 0-129.5 47.5T754 176h-11Q711 79 631 27T436-25q-165 0-257.5 85.5T86 293q0 155 113.5 235T539 608h200v97q0 221-235 221-167 0-260-152L129 879q51 93 148 149.5t237 56.5q198 0 307-96t109-268V162h119V0zM479 129q113 0 186.5 51.5T739 311v164H537q-252 0-252-151v-41q0-73 52-113.5T479 129z"/><glyph glyph-name="b" unicode="b" horiz-adv-x="1198" d="M168 0v1516h190V887h9q36 97 115.5 147.5T672 1085q199 0 312.5-148.5T1098 530 984.5 123.5 672-25q-110 0-189.5 51T367 174h-9V0H168zm448 141q127 0 203 82.5T895 440v181q0 134-76 216.5T616 920q-108 0-183-55.5T358 725V336q0-84 75-139.5T616 141z"/><glyph glyph-name="c" unicode="c" horiz-adv-x="1034" d="M569-25q-225 0-351 149T92 530t126 406 351 149q151 0 252.5-67.5T971 831l-158-77q-27 79-90 123.5T569 922q-133 0-203.5-82T295 623V438q0-135 70.5-217T569 139q188 0 271 180l139-86Q927 110 822.5 42.5T569-25z"/><glyph glyph-name="d" unicode="d" horiz-adv-x="1198" d="M840 0v174h-9Q795 77 715.5 26T526-25q-199 0-312.5 148.5T100 530t113.5 406.5T526 1085q110 0 189.5-50.5T831 887h9v629h190V0H840zM582 141q108 0 183 55.5T840 336v389q0 84-75 139.5T582 920q-127 0-203-82.5T303 621V440q0-134 76-216.5T582 141z"/><glyph glyph-name="e" unicode="e" horiz-adv-x="1130" d="M573-25q-221 0-351 151T92 530t130 404 351 151q217 0 341-146.5T1038 563v-80H291v-43q0-135 79.5-219T590 137q197 0 287 172l122-104Q942 100 830.5 37.5T573-25zm0 957q-124 0-203-85t-79-216v-15h545v21q0 133-72 214t-191 81z"/><glyph glyph-name="f" unicode="f" horiz-adv-x="677" d="M225 0v899H55v162h170v196q0 120 63 189.5t185 69.5h166v-162H416v-293h223V899H416V0H225z"/><glyph glyph-name="g" unicode="g" horiz-adv-x="1091" d="M1079-109q0-165-129-245t-397-80q-247 0-360 65.5T80-176Q80-14 254 29v22Q150 92 150 207q0 140 184 184v8q-94 44-145.5 128.5T137 721q0 163 111 263.5T547 1085q107 0 196-36v22q0 69 32 107.5t97 38.5h162v-160H825v-58q133-97 133-278 0-163-110.5-263T547 358q-62 0-119 13-52-15-86.5-43.5T307 258q0-44 39.5-62T463 178h242q374 0 374-287zm-178-18q0 64-48.5 97.5T692 4H336q-86-45-86-135 0-71 55.5-114.5T479-289h144q278 0 278 162zM549 502q104 0 161.5 48.5T768 694v54q0 95-57.5 143.5T549 940t-161.5-48.5T330 748v-54q0-95 57.5-143.5T549 502z"/><glyph glyph-name="h" unicode="h" horiz-adv-x="1173" d="M168 0v1516h190V887h11q83 198 299 198 164 0 257-107.5t93-299.5V0H827v649q0 271-223 271-101 0-173.5-50.5T358 727V0H168z"/><glyph glyph-name="i" unicode="i" horiz-adv-x="526" d="M264 1282q-58 0-86 28t-28 76v29q0 48 28 76.5t86 28.5 86.5-28.5T379 1415v-29q0-48-28.5-76t-86.5-28zM168 0v1061h190V0H168z"/><glyph glyph-name="j" unicode="j" horiz-adv-x="526" d="M168-248v1309h190V-154q0-121-60.5-188.5T115-410H-2v162h170zm96 1530q-58 0-86 28t-28 76v29q0 48 28 76.5t86 28.5 86.5-28.5T379 1415v-29q0-48-28.5-76t-86.5-28z"/><glyph glyph-name="k" unicode="k" horiz-adv-x="1099" d="M168 0v1516h190V571h11l151 187 277 303h225L645 651 1071 0H842L510 528 358 367V0H168z"/><glyph glyph-name="l" unicode="l" horiz-adv-x="569" d="M510 0H367q-96 0-147.5 52.5T168 195v1321h190V162h152V0z"/><glyph glyph-name="m" unicode="m" horiz-adv-x="1796" d="M358 0H168v1061h190V887h11q36 88 109 143t173 55q111 0 196.5-53.5T973 870h4q32 94 114.5 154.5T1300 1085q160 0 250-107t90-300V0h-190v649q0 271-215 271-99 0-167.5-50.5T999 727V0H809v649q0 271-213 271-98 0-168-50.5T358 727V0z"/><glyph glyph-name="n" unicode="n" horiz-adv-x="1173" d="M358 0H168v1061h190V887h11q83 198 299 198 164 0 257-107.5t93-299.5V0H827v649q0 271-223 271-101 0-173.5-50.5T358 727V0z"/><glyph glyph-name="o" unicode="o" horiz-adv-x="1150" d="M575-25q-218 0-350.5 151.5T92 530t132.5 403.5T575 1085t351-151.5T1059 530 926 126.5 575-25zm0 164q128 0 204.5 80.5T856 451v159q0 151-76.5 231.5T575 922t-204-80.5T295 610V451q0-151 76-231.5T575 139z"/><glyph glyph-name="p" unicode="p" horiz-adv-x="1198" d="M168-410v1471h190V887h9q36 97 115.5 147.5T672 1085q199 0 312.5-148.5T1098 530 984.5 123.5 672-25q-110 0-189.5 51T367 174h-9v-584H168zm448 551q127 0 203 82.5T895 440v181q0 134-76 216.5T616 920q-108 0-183-55.5T358 725V336q0-84 75-139.5T616 141z"/><glyph glyph-name="q" unicode="q" horiz-adv-x="1198" d="M840-410v584h-9Q795 77 715.5 26T526-25q-199 0-312.5 148.5T100 530t113.5 406.5T526 1085q110 0 189.5-50.5T831 887h9v174h190V-410H840zM582 141q108 0 183 55.5T840 336v389q0 84-75 139.5T582 920q-127 0-203-82.5T303 621V440q0-134 76-216.5T582 141z"/><glyph glyph-name="r" unicode="r" horiz-adv-x="768" d="M358 0H168v1061h190V858h11q29 87 104.5 145t194.5 58h63V870h-94q-130 0-204.5-47.5T358 696V0z"/><glyph glyph-name="s" unicode="s" horiz-adv-x="1003" d="M494-25Q231-25 70 180l129 111q126-158 307-158 100 0 154.5 42T715 291q0 62-39 100t-131 51l-90 15q-164 23-254 96t-90 213q0 152 106 235.5t279 83.5q129 0 220.5-43T879 915L758 801q-42 56-111 91.5T489 928q-95 0-144.5-40.5T295 778q0-68 44-102.5T479 627l90-15q171-26 250.5-100.5T899 311q0-155-109-245.5T494-25z"/><glyph glyph-name="t" unicode="t" horiz-adv-x="731" d="M629 0H428q-97 0-149 53.5T227 201v698H57v162h95q53 0 73.5 21.5T246 1159v195h172v-293h227V899H418V162h211V0z"/><glyph glyph-name="u" unicode="u" horiz-adv-x="1175" d="M817 0v174h-10Q731-25 510-25 346-25 252 83t-94 300v678h190V412q0-271 225-271 99 0 171.5 50.5T817 336v725h191V0H817z"/><glyph glyph-name="v" unicode="v" horiz-adv-x="1024" d="M623 0H399L33 1061h190l174-508 111-367h12l113 367 176 508h182z"/><glyph glyph-name="w" unicode="w" horiz-adv-x="1601" d="M344 0L59 1061h185l110-453 107-436h4l121 436 131 453h170l135-453 123-436h6l100 436 113 453h178L1260 0h-226L891 498l-90 311h-4l-88-311L565 0H344z"/><glyph glyph-name="x" unicode="x" horiz-adv-x="1060" d="M43 0l385 535-371 526h222l256-383h6l262 383h209L641 543 1018 0H797L535 401h-7L252 0H43z"/><glyph glyph-name="y" unicode="y" horiz-adv-x="1036" d="M584 383l237 678h185L545-231q-38-103-91-141t-171-38H178v162h174l72 205L31 1061h190l236-678 55-199h10z"/><glyph glyph-name="z" unicode="z" horiz-adv-x="970" d="M901 0H70v158l587 741H88v162h797V915L287 162h614V0z"/><glyph glyph-name="braceleft" unicode="{" horiz-adv-x="714" d="M596-283H420q-82 0-129 49.5T244-106v475q0 87-55 134.5T45 551v172q89 0 144 47.5T244 903v477q0 78 47 127t129 49h176v-145H412V913q0-98-54.5-171.5T215 651v-28q88-17 142.5-91T412 360v-497h184v-146z"/><glyph glyph-name="bar" unicode="|" horiz-adv-x="679" d="M422-283H258v1839h164V-283z"/><glyph glyph-name="braceright" unicode="}" horiz-adv-x="714" d="M119 1556h176q82 0 129-49t47-127V905q0-87 55-134.5T670 723V551q-89 0-144-47.5T471 371v-477q0-78-47-127.5T295-283H119v146h184v497q0 98 54.5 172T500 623v28q-88 17-142.5 90.5T303 913v498H119v145z"/><glyph glyph-name="asciitilde" unicode="~" d="M856 473q-68 0-122.5 17.5T594 549q-47 23-76 35.5t-71 23-82 10.5q-49 0-85-14.5T197 555l-76 107q92 114 252 114 68 0 122.5-17.5T635 700q47-23 76-35.5t71-23 82-10.5q49 0 85 14.5t83 48.5l76-106q-93-115-252-115z"/><glyph glyph-name="uni00A0" horiz-adv-x="483"/><glyph glyph-name="exclamdown" unicode="¡" horiz-adv-x="593" d="M399-369H195V43l57 625h90l57-625v-412zM297 801q-68 0-101.5 34.5T162 928v30q0 58 33.5 92.5T297 1085t101.5-34.5T432 958v-30q0-58-33.5-92.5T297 801z"/><glyph glyph-name="cent" unicode="¢" horiz-adv-x="1067" d="M641-233H483v215Q298 10 196 154.5T94 528t102.5 374T483 1075v215h158v-213q239-23 336-241l-148-82q-53 137-192 161V139q148 24 217 174l137-88Q945 121 856 56.5T641-20v-213zM293 438q0-112 50-190.5T487 145v766q-93-23-143.5-101.5T293 618V438z"/><glyph glyph-name="sterling" unicode="£" horiz-adv-x="1212" d="M1085 0H162v219q151 65 151 275 0 36-8 94H113v164h143q-20 59-29.5 88.5T207 923t-10 101q0 193 129 311.5T676 1454q296 0 446-235l-147-107q-111 168-301 168-128 0-200.5-71.5T401 1001q0-44 9.5-94t16.5-72 26-83h434V588H502q4-50 4-78 0-108-45-195.5T352 186v-12h733V0z"/><glyph glyph-name="currency" unicode="¤" horiz-adv-x="1261" d="M631 240q-168 0-281 86L145 121 33 229l213 211q-66 117-66 275 0 157 66 274L33 1200l112 109 205-205q113 86 281 86 167 0 280-86l205 205 113-109-213-211q65-115 65-274 0-160-65-275l213-211-113-108-205 205q-113-86-280-86zm0 151q117 0 184.5 67T883 651v127q0 126-67.5 193T631 1038t-184.5-67T379 778V651q0-126 67.5-193T631 391z"/><glyph glyph-name="yen" unicode="¥" horiz-adv-x="1257" d="M1081 293H725V0H528v293H170v145h358v187H170v145h268L63 1430h224l344-629h10l334 629h217L813 770h268V625H725V438h356V293z"/><glyph glyph-name="brokenbar" unicode="¦" horiz-adv-x="679" d="M422 829H258v727h164V829zm0-1112H258v727h164v-727z"/><glyph glyph-name="section" unicode="§" horiz-adv-x="1179" d="M971 12q0-152-113.5-241.5T559-319q-222 0-356 120L307-72q110-92 254-92 108 0 170 45.5T793 6q0 69-52 113.5T586 195l-135 38q-312 93-312 312 0 97 57.5 172.5T360 836v18q-151 102-151 272 0 150 112.5 239t296.5 89q222 0 359-121l-107-127q-110 92-254 92-107 0-168-45t-61-123q0-69 51-113t154-75l135-39q313-93 313-313 0-96-57.5-171.5T817 299v-16q154-96 154-271zM862 539q0 80-53.5 132.5T637 756l-133 37q-11 3-66 22-121-93-121-217 0-80 53.5-132.5T541 381l133-37q29-8 65-22 123 98 123 217z"/><glyph glyph-name="dieresis" unicode="¨" d="M418 1260q-113 0-113 100v29q0 100 113 100 112 0 112-100v-29q0-100-112-100zm393 0q-113 0-113 100v29q0 100 113 100t113-100v-29q0-100-113-100z"/><glyph glyph-name="copyright" unicode="©" horiz-adv-x="1591" d="M797-25q-146 0-273 52T304.5 173 159 406.5 106 713t53 306.5T304.5 1253 524 1398.5t273 51.5q145 0 271.5-52t218.5-145.5 145-233 53-306.5-53-306.5T1287 173 1068.5 27 797-25zm0 125q238 0 392 156.5T1343 649v127q0 236-154 392.5T797 1325q-240 0-394.5-156.5T248 776V649q0-236 154.5-392.5T797 100zm14 207q-166 0-260 110t-94 296q0 187 94 296t260 109q213 0 291-188l-133-72q-50 117-158 117-83 0-128.5-53T637 782V643q0-87 45.5-139.5T811 451q62 0 102 30.5t74 91.5l129-75q-39-87-115.5-139T811 307z"/><glyph glyph-name="ordfeminine" unicode="ª" horiz-adv-x="837" d="M756 831V709h-80q-128 0-131 112h-8q-25-56-82.5-90.5T309 696q-106 0-165.5 55.5T84 901q0 109 79.5 163t229.5 54h139v53q0 154-147 154-132 0-186-102l-90 75q37 62 108 103t176 41q133 0 209-69t76-195V831h78zm-224 189H391q-79 0-121.5-24.5T227 924v-21q0-96 121-96 76 0 130 35t54 92v86z"/><glyph glyph-name="guillemotleft" unicode="«" horiz-adv-x="1067" d="M522 279l-57-125L74 492v172l391 337 57-124-274-299zm439 0l-58-125-391 338v172l391 337 58-124-275-299z"/><glyph glyph-name="logicalnot" unicode="¬" d="M1083 160H920v385H90v160h993V160z"/><glyph glyph-name="uni00AD" unicode="­" horiz-adv-x="819" d="M684 524H135v199h549V524z"/><glyph glyph-name="registered" unicode="®" horiz-adv-x="970" d="M485 610q-169 0-288 122T78 1032t119 300 288 122 288.5-122T893 1032 773.5 732 485 610zm0 84q134 0 225 93t91 221v49q0 128-91 220.5T485 1370t-224.5-92.5T170 1057v-49q0-128 90.5-221T485 694zm-67 275V813h-90v428h188q65 0 101-36.5t36-96.5q0-91-80-127l99-168H571l-86 156h-67zm0 71h90q49 0 49 43v41q0 43-49 43h-90v-127z"/><glyph glyph-name="macron" unicode="¯" d="M324 1300v152h581v-152H324z"/><glyph glyph-name="degree" unicode="°" horiz-adv-x="958" d="M479 737q-149 0-249.5 102.5T129 1096q0 153 100.5 255.5T479 1454t249.5-102.5T829 1096q0-154-100.5-256.5T479 737zm0 144q88 0 141.5 61t53.5 154-53.5 154-141.5 61-141-61-53-154 53-154 141-61z"/><glyph glyph-name="plusminus" unicode="±" d="M702 326H526v393H137v160h389v393h176V879h390V719H702V326zM1092 0H137v160h955V0z"/><glyph glyph-name="twosuperior" unicode="²" horiz-adv-x="708" d="M641 788V674H78v129l262 209q66 54 95.5 97.5T465 1204v13q0 49-33.5 76.5T340 1321q-109 0-152-113l-122 45q27 83 97.5 136t186.5 53q126 0 197-62t71-163q0-84-51-151.5T416 926L233 788h408z"/><glyph glyph-name="threesuperior" unicode="³" horiz-adv-x="710" d="M238 1122h77q72 0 109 27t37 72v8q0 46-33.5 72t-91.5 26q-108 0-170-90l-94 80q91 125 268 125 122 0 198-53t76-144q0-70-45-114.5T455 1073v-8q75-13 123.5-59.5T627 883q0-100-82-160.5T328 662q-107 0-174 37.5T41 801l109 78q31-49 72.5-76T328 776q70 0 108.5 30.5T475 893v10q0 103-151 103h-86v116z"/><glyph glyph-name="acute" unicode="´" d="M860 1528l-227-332-121 55 180 359z"/><glyph glyph-name="mu" unicode="µ" horiz-adv-x="1185" d="M358-410H168v1471h190V410q0-132 57-200.5T582 141q101 0 173 51.5T827 338v723h191V0H827v174h-10Q737-25 539-25 398-25 342 78h-6l22-195v-293z"/><glyph glyph-name="paragraph" unicode="¶" horiz-adv-x="1345" d="M502-305v903q-110 0-203.5 57t-147 152.5T98 1014t53.5 206.5 147 152.5 203.5 57h686v-156h-135V-305H889v1579H666V-305H502z"/><glyph glyph-name="periodcentered" unicode="·" horiz-adv-x="692" d="M346 481q-68 0-101.5 34.5T211 608v31q0 58 33.5 92.5T346 766t101.5-34.5T481 639v-31q0-58-33.5-92.5T346 481z"/><glyph glyph-name="cedilla" unicode="¸" d="M639-426q-79 0-132.5 25T428-340l80 88q46-57 127-57 40 0 65 15.5t25 45.5q0 31-30 52t-111 32l-56 8 41 201h109l-33-168 6-6q41 12 82 12 64 0 102.5-35T874-252q0-87-66.5-130.5T639-426z"/><glyph glyph-name="onesuperior" unicode="¹" horiz-adv-x="727" d="M664 674H109v114h217v525h-13l-172-178-86 79 203 216h213V788h193V674z"/><glyph glyph-name="ordmasculine" unicode="º" horiz-adv-x="831" d="M244 1006q0-88 44.5-140.5T416 813t127.5 52.5T588 1006v127q0 88-44.5 140T416 1325t-127.5-52-44.5-140v-127zm172-310q-152 0-239 100t-87 273 87 273 239 100 238.5-99.5T741 1069t-86.5-273.5T416 696z"/><glyph glyph-name="guillemotright" unicode="»" horiz-adv-x="1067" d="M164 154l-58 125 275 299-275 299 58 124 391-337V492zm438 0l-57 125 274 299-274 299 57 124 391-337V492z"/><glyph glyph-name="onequarter" unicode="¼" horiz-adv-x="1738" d="M664 674H109v114h217v525h-13l-172-178-86 79 203 216h213V788h193V674zM489 0H326l1011 1430h164zm1096 0h-137v147h-379v119l330 490h186V256h111V147h-111V0zm-137 256v362h-10l-246-362h256z"/><glyph glyph-name="onehalf" unicode="½" horiz-adv-x="1787" d="M664 674H109v114h217v525h-13l-172-178-86 79 203 216h213V788h193V674zM489 0H326l1011 1430h164zm1231 115V0h-563v129l262 209q64 53 94.5 98t30.5 94v13q0 49-33.5 76.5T1419 647q-109 0-151-112l-123 45q27 83 98 135.5t187 52.5q126 0 197-62t71-163q0-84-51.5-151.5T1495 252l-182-137h407z"/><glyph glyph-name="threequarters" unicode="¾" horiz-adv-x="1701" d="M238 1122h77q72 0 109 27t37 72v8q0 46-33.5 72t-91.5 26q-108 0-170-90l-94 80q91 125 268 125 122 0 198-53t76-144q0-70-45-114.5T455 1073v-8q75-13 123.5-59.5T627 883q0-100-82-160.5T328 662q-107 0-174 37.5T41 801l109 78q31-49 72.5-76T328 776q70 0 108.5 30.5T475 893v10q0 103-151 103h-86v116zM453 0H289l1011 1430h164zm1095 0h-137v147h-379v119l330 490h186V256h111V147h-111V0zm-137 256v362h-10l-246-362h256z"/><glyph glyph-name="questiondown" unicode="¿" horiz-adv-x="966" d="M496-393q-194 0-309 107T72 0q0 92 32 167.5t86.5 125 118 80.5T444 418v207h183V293q-168-8-260.5-78T274 20V-8q0-98 63-156.5T502-223q106 0 175 62T770 4l172-67q-20-68-55.5-125.5T798-293t-130.5-73.5T496-393zm43 1194q-68 0-102 34.5T403 928v30q0 58 34 92.5t102 34.5 101.5-34.5T674 958v-30q0-58-33.5-92.5T539 801z"/><glyph glyph-name="Agrave" unicode="À" horiz-adv-x="1329" d="M1284 0h-209L940 403H383L246 0H45l496 1430h250zM891 580l-225 667h-11L430 580h461zm-244 960l-227 332 168 82 180-357z"/><glyph glyph-name="Aacute" unicode="Á" horiz-adv-x="1329" d="M1284 0h-209L940 403H383L246 0H45l496 1430h250zM891 580l-225 667h-11L430 580h461zm20 1292l-227-332-121 57 180 357z"/><glyph glyph-name="Acircumflex" unicode="Â" horiz-adv-x="1329" d="M1284 0h-209L940 403H383L246 0H45l496 1430h250zM891 580l-225 667h-11L430 580h461zM559 1923h213l236-299-101-74-241 238-242-238-100 74z"/><glyph glyph-name="Atilde" unicode="Ã" horiz-adv-x="1329" d="M1284 0h-209L940 403H383L246 0H45l496 1430h250zM891 580l-225 667h-11L430 580h461zm-74 1013q-13 0-26 1.5t-22.5 3-22.5 6-20 6.5-20.5 8.5-17.5 8.5-18.5 9.5-16.5 8.5q-90 47-145 47-33 0-59.5-12.5T387 1638l-74 93q74 112 201 112 10 0 20.5-1t19-2 19-4 16.5-4.5 17-5.5 15-5.5 15.5-7.5 14-7 14.5-7 13-7q90-47 145-47 33 0 59.5 12.5T944 1798l74-92q-75-113-201-113z"/><glyph glyph-name="Adieresis" unicode="Ä" horiz-adv-x="1329" d="M1284 0h-209L940 403H383L246 0H45l496 1430h250zM891 580l-225 667h-11L430 580h461zM469 1604q-113 0-113 100v33q0 100 113 100t113-100v-33q0-100-113-100zm393 0q-112 0-112 100v33q0 100 112 100 113 0 113-100v-33q0-100-113-100z"/><glyph glyph-name="Aring" unicode="Å" horiz-adv-x="1329" d="M1284 0h-209L940 403H383L246 0H45l496 1430h250zM891 580l-225 667h-11L430 580h461zm-225 940q-105 0-177.5 70T416 1765t72.5 175.5T666 2011t177-70.5 72-175.5-72-175-177-70zm0 110q55 0 85.5 29t30.5 82v49q0 53-30.5 82t-85.5 29-86-29-31-82v-49q0-53 31-82t86-29z"/><glyph glyph-name="AE" unicode="Æ" horiz-adv-x="1882" d="M862 0v406H408L209 0H6l725 1430h1022v-177h-692V811h641V635h-641V176h692V0H862zm0 1253h-31L489 578h373v675z"/><glyph glyph-name="Ccedilla" unicode="Ç" horiz-adv-x="1284" d="M702 1276q-174 0-274-121.5T328 823V606q0-210 100-331t274-121q128 0 218 66.5T1051 401l159-96q-67-149-186.5-234T741-23l-20-100 6-6q43 12 84 12 63 0 102-35t39-100q0-87-67-130.5T717-426q-80 0-134 25t-79 61l80 88q50-57 127-57 40 0 65 15.5t25 45.5q0 31-30 52t-112 32l-55 8 29 136Q388 3 251.5 193.5T115 715q0 355 155.5 547T702 1454q358 0 500-317l-164-95q-41 110-126 172t-210 62z"/><glyph glyph-name="Egrave" unicode="È" horiz-adv-x="1204" d="M1075 0H184v1430h891v-177H383V811h641V635H383V176h692V0zM608 1540l-227 332 168 82 180-357z"/><glyph glyph-name="Eacute" unicode="É" horiz-adv-x="1204" d="M1075 0H184v1430h891v-177H383V811h641V635H383V176h692V0zM872 1872l-227-332-121 57 181 357z"/><glyph glyph-name="Ecircumflex" unicode="Ê" horiz-adv-x="1204" d="M1075 0H184v1430h891v-177H383V811h641V635H383V176h692V0zM520 1923h213l236-299-101-74-241 238-242-238-100 74z"/><glyph glyph-name="Edieresis" unicode="Ë" horiz-adv-x="1204" d="M1075 0H184v1430h891v-177H383V811h641V635H383V176h692V0zM430 1604q-113 0-113 100v33q0 100 113 100t113-100v-33q0-100-113-100zm393 0q-112 0-112 100v33q0 100 112 100 113 0 113-100v-33q0-100-113-100z"/><glyph glyph-name="Igrave" unicode="Ì" horiz-adv-x="833" d="M715 0H119v168h198v1094H119v168h596v-168H516V168h199V0zM397 1540l-227 332 168 82 180-357z"/><glyph glyph-name="Iacute" unicode="Í" horiz-adv-x="833" d="M715 0H119v168h198v1094H119v168h596v-168H516V168h199V0zm-53 1872l-228-332-121 57 181 357z"/><glyph glyph-name="Icircumflex" unicode="Î" horiz-adv-x="833" d="M715 0H119v168h198v1094H119v168h596v-168H516V168h199V0zM309 1923h213l236-299-101-74-241 238-242-238-100 74z"/><glyph glyph-name="Idieresis" unicode="Ï" horiz-adv-x="833" d="M715 0H119v168h198v1094H119v168h596v-168H516V168h199V0zM219 1604q-113 0-113 100v33q0 100 113 100t113-100v-33q0-100-113-100zm393 0q-112 0-112 100v33q0 100 112 100 113 0 113-100v-33q0-100-113-100z"/><glyph glyph-name="Eth" unicode="Ð" horiz-adv-x="1390" d="M190 0v674H31v151h159v605h490q278 0 437-182.5T1276 715t-159-532.5T680 0H190zm199 176h291q174 0 278.5 112T1063 600v229q0 200-104.5 312T680 1253H389V825h275V674H389V176z"/><glyph glyph-name="Ntilde" unicode="Ñ" horiz-adv-x="1454" d="M1049 0L580 782l-197 359h-6V0H184v1430h222l468-783 197-358h6v1141h193V0h-221zM879 1593q-13 0-26 1.5t-22.5 3-22.5 6-20 6.5-20.5 8.5-17.5 8.5-18.5 9.5-16.5 8.5q-90 47-146 47-33 0-58.5-12.5T449 1638l-74 93q74 112 200 112 10 0 20.5-1t19-2 19-4 16.5-4.5 17-5.5 15-5.5 15.5-7.5 14-7 14.5-7 13-7q90-47 146-47 33 0 59.5 12.5t61.5 40.5l73-92q-75-113-200-113z"/><glyph glyph-name="Ograve" unicode="Ò" horiz-adv-x="1449" d="M725-25q-283 0-446.5 192.5T115 715t163.5 547T725 1454t446.5-192T1335 715t-163.5-547.5T725-25zm0 179q179 0 288 120.5T1122 598v233q0 203-109 324t-288 121-288-121-109-324V598q0-203 109-323.5T725 154zm-18 1386l-228 332 168 82 180-357z"/><glyph glyph-name="Oacute" unicode="Ó" horiz-adv-x="1449" d="M725-25q-283 0-446.5 192.5T115 715t163.5 547T725 1454t446.5-192T1335 715t-163.5-547.5T725-25zm0 179q179 0 288 120.5T1122 598v233q0 203-109 324t-288 121-288-121-109-324V598q0-203 109-323.5T725 154zm246 1718l-228-332-120 57 180 357z"/><glyph glyph-name="Ocircumflex" unicode="Ô" horiz-adv-x="1449" d="M725-25q-283 0-446.5 192.5T115 715t163.5 547T725 1454t446.5-192T1335 715t-163.5-547.5T725-25zm0 179q179 0 288 120.5T1122 598v233q0 203-109 324t-288 121-288-121-109-324V598q0-203 109-323.5T725 154zM618 1923h213l236-299-100-74-242 238-242-238-100 74z"/><glyph glyph-name="Otilde" unicode="Õ" horiz-adv-x="1449" d="M725-25q-283 0-446.5 192.5T115 715t163.5 547T725 1454t446.5-192T1335 715t-163.5-547.5T725-25zm0 179q179 0 288 120.5T1122 598v233q0 203-109 324t-288 121-288-121-109-324V598q0-203 109-323.5T725 154zm152 1439q-13 0-26 1.5t-22.5 3-22.5 6-20 6.5-20.5 8.5-17.5 8.5-18.5 9.5-16.5 8.5q-90 47-146 47-33 0-59.5-12.5T446 1638l-73 93q74 112 200 112 10 0 20.5-1t19-2 19-4 16.5-4.5 17-5.5 15-5.5 15.5-7.5 14-7 14.5-7 13-7q90-47 146-47 33 0 59.5 12.5t61.5 40.5l73-92q-75-113-200-113z"/><glyph glyph-name="Odieresis" unicode="Ö" horiz-adv-x="1449" d="M725-25q-283 0-446.5 192.5T115 715t163.5 547T725 1454t446.5-192T1335 715t-163.5-547.5T725-25zm0 179q179 0 288 120.5T1122 598v233q0 203-109 324t-288 121-288-121-109-324V598q0-203 109-323.5T725 154zM528 1604q-112 0-112 100v33q0 100 112 100 113 0 113-100v-33q0-100-113-100zm394 0q-113 0-113 100v33q0 100 113 100 112 0 112-100v-33q0-100-112-100z"/><glyph glyph-name="multiply" unicode="×" d="M932 182L614 510 297 182 184 295l318 328-318 327 113 113 317-328 318 328 112-113-317-327 317-328z"/><glyph glyph-name="Oslash" unicode="Ø" horiz-adv-x="1449" d="M725-25Q523-25 379 76L258-96 129-12l135 198Q115 377 115 715q0 355 163.5 547T725 1454q204 0 346-100l121 172 129-84-135-199q149-191 149-528 0-355-163.5-547.5T725-25zM328 598q0-141 55-248l584 848q-101 78-242 78-179 0-288-121T328 831V598zm794 233q0 141-55 248L483 231q100-77 242-77 179 0 288 120.5T1122 598v233z"/><glyph glyph-name="Ugrave" unicode="Ù" horiz-adv-x="1396" d="M174 1430h199V547q0-201 74.5-297T698 154q177 0 251.5 96t74.5 297v883h199V586q0-319-122.5-465T692-25q-145 0-244 36T288 124.5t-87.5 189T174 586v844zm502 110l-227 332 167 82 181-357z"/><glyph glyph-name="Uacute" unicode="Ú" horiz-adv-x="1396" d="M174 1430h199V547q0-201 74.5-297T698 154q177 0 251.5 96t74.5 297v883h199V586q0-319-122.5-465T692-25q-145 0-244 36T288 124.5t-87.5 189T174 586v844zm766 442l-227-332-121 57 180 357z"/><glyph glyph-name="Ucircumflex" unicode="Û" horiz-adv-x="1396" d="M174 1430h199V547q0-201 74.5-297T698 154q177 0 251.5 96t74.5 297v883h199V586q0-319-122.5-465T692-25q-145 0-244 36T288 124.5t-87.5 189T174 586v844zm414 493h213l235-299-100-74-242 238-241-238-101 74z"/><glyph glyph-name="Udieresis" unicode="Ü" horiz-adv-x="1396" d="M174 1430h199V547q0-201 74.5-297T698 154q177 0 251.5 96t74.5 297v883h199V586q0-319-122.5-465T692-25q-145 0-244 36T288 124.5t-87.5 189T174 586v844zm324 174q-113 0-113 100v33q0 100 113 100 112 0 112-100v-33q0-100-112-100zm393 0q-113 0-113 100v33q0 100 113 100t113-100v-33q0-100-113-100z"/><glyph glyph-name="Yacute" unicode="Ý" horiz-adv-x="1234" d="M715 0H516v563L25 1430h227l366-666h7l364 666h221L715 569V0zm149 1872l-227-332-121 57 180 357z"/><glyph glyph-name="Thorn" unicode="Þ" horiz-adv-x="1263" d="M383 0H184v1430h199v-285h391q191 0 299.5-113.5T1182 725t-108.5-306.5T774 305H383V0zm0 969V481h383q96 0 149.5 50.5T969 674v102q0 92-53.5 142.5T766 969H383z"/><glyph glyph-name="germandbls" unicode="ß" horiz-adv-x="1331" d="M1276 315q0-158-101.5-249T901-25q-237 0-366 168l122 115q103-127 252-127 88 0 137.5 43t49.5 119q0 63-32 102t-110 58l-63 14q-67 17-115 38t-89 55.5-62 87T604 770q0 135 93.5 214t256.5 87v10q0 154-66 228.5T684 1384q-137 0-202.5-74.5T416 1081V0H225v899H55v162h170v10q0 217 121.5 343T682 1540q213 0 334-126.5t121-342.5V932h-99q-126 0-189-36t-63-116q0-67 37.5-101T940 625l64-15q143-35 207.5-105t64.5-190z"/><glyph glyph-name="agrave" unicode="à" horiz-adv-x="1107" d="M1049 0H940q-84 0-129.5 47.5T754 176h-11Q711 79 631 27T436-25q-165 0-257.5 85.5T86 293q0 155 113.5 235T539 608h200v97q0 221-235 221-167 0-260-152L129 879q51 93 148 149.5t237 56.5q198 0 307-96t109-268V162h119V0zM479 129q113 0 186.5 51.5T739 311v164H537q-252 0-252-151v-41q0-73 52-113.5T479 129zm25 1067l-228 332 168 82 181-359z"/><glyph glyph-name="aacute" unicode="á" horiz-adv-x="1107" d="M1049 0H940q-84 0-129.5 47.5T754 176h-11Q711 79 631 27T436-25q-165 0-257.5 85.5T86 293q0 155 113.5 235T539 608h200v97q0 221-235 221-167 0-260-152L129 879q51 93 148 149.5t237 56.5q198 0 307-96t109-268V162h119V0zM479 129q113 0 186.5 51.5T739 311v164H537q-252 0-252-151v-41q0-73 52-113.5T479 129zm289 1399l-227-332-121 55 180 359z"/><glyph glyph-name="acircumflex" unicode="â" horiz-adv-x="1107" d="M1049 0H940q-84 0-129.5 47.5T754 176h-11Q711 79 631 27T436-25q-165 0-257.5 85.5T86 293q0 155 113.5 235T539 608h200v97q0 221-235 221-167 0-260-152L129 879q51 93 148 149.5t237 56.5q198 0 307-96t109-268V162h119V0zM479 129q113 0 186.5 51.5T739 311v164H537q-252 0-252-151v-41q0-73 52-113.5T479 129zm-63 1450h213l235-299-100-74-242 238-241-238-101 74z"/><glyph glyph-name="atilde" unicode="ã" horiz-adv-x="1107" d="M1049 0H940q-84 0-129.5 47.5T754 176h-11Q711 79 631 27T436-25q-165 0-257.5 85.5T86 293q0 155 113.5 235T539 608h200v97q0 221-235 221-167 0-260-152L129 879q51 93 148 149.5t237 56.5q198 0 307-96t109-268V162h119V0zM479 129q113 0 186.5 51.5T739 311v164H537q-252 0-252-151v-41q0-73 52-113.5T479 129zm195 1120q-10 0-20.5 1t-19 2-19 4-16.5 4.5-17 5.5-15 5.5-15.5 7.5-14 7-14.5 7-13 7q-92 48-145 48-33 0-59.5-12.5T244 1294l-74 92q75 113 201 113 10 0 20.5-1t19-2 19-4 16.5-4.5 17-5.5 15-5.5 15.5-7.5 14-7 14.5-7 13-7q90-47 145-47 33 0 59.5 12.5T801 1454l73-92q-75-113-200-113z"/><glyph glyph-name="adieresis" unicode="ä" horiz-adv-x="1107" d="M1049 0H940q-84 0-129.5 47.5T754 176h-11Q711 79 631 27T436-25q-165 0-257.5 85.5T86 293q0 155 113.5 235T539 608h200v97q0 221-235 221-167 0-260-152L129 879q51 93 148 149.5t237 56.5q198 0 307-96t109-268V162h119V0zM479 129q113 0 186.5 51.5T739 311v164H537q-252 0-252-151v-41q0-73 52-113.5T479 129zM326 1260q-113 0-113 100v29q0 100 113 100 112 0 112-100v-29q0-100-112-100zm393 0q-113 0-113 100v29q0 100 113 100 112 0 112-100v-29q0-100-112-100z"/><glyph glyph-name="aring" unicode="å" horiz-adv-x="1107" d="M1049 0H940q-84 0-129.5 47.5T754 176h-11Q711 79 631 27T436-25q-165 0-257.5 85.5T86 293q0 155 113.5 235T539 608h200v97q0 221-235 221-167 0-260-152L129 879q51 93 148 149.5t237 56.5q198 0 307-96t109-268V162h119V0zM479 129q113 0 186.5 51.5T739 311v164H537q-252 0-252-151v-41q0-73 52-113.5T479 129zm43 1045q-105 0-177.5 70T272 1419t72.5 175.5T522 1665t177.5-70.5T772 1419t-72.5-175-177.5-70zm0 110q55 0 86 29t31 82v49q0 53-31 81.5t-86 28.5-85.5-28.5T406 1444v-49q0-53 30.5-82t85.5-29z"/><glyph glyph-name="ae" unicode="æ" horiz-adv-x="1769" d="M739 483H537q-252-9-252-157v-41q0-75 51-115.5T481 129q110 0 184 51.5T739 311v172zm193 133h543v21q0 132-71.5 213.5T1214 932q-125 0-203.5-85T932 631v-15zm299-479q192 0 287 170l122-102q-56-106-164.5-168T1231-25q-78 0-149 22.5T961.5 55t-82 75-43.5 79h-13q-10-38-39.5-77.5T707 56 588.5-2.5 434-25q-160 0-254 86.5T86 291q0 157 117 241t336 84h200v89q0 107-58 164t-171 57q-175 0-266-152L129 879q50 92 148 149t239 57q249 0 328-219h12q27 81 130 150t243 69q208 0 328-146.5T1677 563v-80H930v-43q0-133 81.5-218t219.5-85z"/><glyph glyph-name="ccedilla" unicode="ç" horiz-adv-x="1034" d="M569 1085q151 0 252.5-67.5T971 831l-158-77q-27 79-90 123.5T569 922q-133 0-203.5-82T295 623V438q0-135 70.5-217T569 139q188 0 271 180l139-86Q931 118 836.5 51T608-23l-20-100 8-6q41 12 82 12 64 0 102.5-35T819-252q0-87-66.5-130.5T584-426q-150 0-211 86l80 88q46-57 127-57 40 0 65 15.5t25 45.5q0 31-30 52t-112 32l-55 8 27 136Q306 3 199 148.5T92 530q0 257 126 406t351 149z"/><glyph glyph-name="egrave" unicode="è" horiz-adv-x="1130" d="M573-25q-221 0-351 151T92 530t130 404 351 151q217 0 341-146.5T1038 563v-80H291v-43q0-135 79.5-219T590 137q197 0 287 172l122-104Q942 100 830.5 37.5T573-25zm0 957q-124 0-203-85t-79-216v-15h545v21q0 133-72 214t-191 81zm-16 264l-227 332 168 82 180-359z"/><glyph glyph-name="eacute" unicode="é" horiz-adv-x="1130" d="M573-25q-221 0-351 151T92 530t130 404 351 151q217 0 341-146.5T1038 563v-80H291v-43q0-135 79.5-219T590 137q197 0 287 172l122-104Q942 100 830.5 37.5T573-25zm0 957q-124 0-203-85t-79-216v-15h545v21q0 133-72 214t-191 81zm248 596l-227-332-121 55 180 359z"/><glyph glyph-name="ecircumflex" unicode="ê" horiz-adv-x="1130" d="M573-25q-221 0-351 151T92 530t130 404 351 151q217 0 341-146.5T1038 563v-80H291v-43q0-135 79.5-219T590 137q197 0 287 172l122-104Q942 100 830.5 37.5T573-25zm0 957q-124 0-203-85t-79-216v-15h545v21q0 133-72 214t-191 81zm-104 647h213l236-299-101-74-242 238-241-238-101 74z"/><glyph glyph-name="edieresis" unicode="ë" horiz-adv-x="1130" d="M573-25q-221 0-351 151T92 530t130 404 351 151q217 0 341-146.5T1038 563v-80H291v-43q0-135 79.5-219T590 137q197 0 287 172l122-104Q942 100 830.5 37.5T573-25zm0 957q-124 0-203-85t-79-216v-15h545v21q0 133-72 214t-191 81zm-194 328q-113 0-113 100v29q0 100 113 100t113-100v-29q0-100-113-100zm393 0q-113 0-113 100v29q0 100 113 100t113-100v-29q0-100-113-100z"/><glyph glyph-name="igrave" unicode="ì" horiz-adv-x="526" d="M358 0H168v1061h190V0zM246 1196L18 1528l168 82 181-359z"/><glyph glyph-name="iacute" unicode="í" horiz-adv-x="526" d="M358 0H168v1061h190V0zm152 1528l-227-332-121 55 180 359z"/><glyph glyph-name="icircumflex" unicode="î" horiz-adv-x="526" d="M358 0H168v1061h190V0zM158 1579h213l235-299-100-74-242 238-241-238-101 74z"/><glyph glyph-name="idieresis" unicode="ï" horiz-adv-x="526" d="M358 0H168v1061h190V0zM68 1260q-113 0-113 100v29q0 100 113 100 112 0 112-100v-29q0-100-112-100zm393 0q-113 0-113 100v29q0 100 113 100 112 0 112-100v-29q0-100-112-100z"/><glyph glyph-name="eth" unicode="ð" horiz-adv-x="1157" d="M809 1542l74-92-158-109q149-147 240.5-344t91.5-440q0-284-130-433T578-25q-221 0-352.5 146.5T94 506q0 235 126 379.5T555 1030q99 0 169.5-52.5T831 829l9 5q-43 212-256 411l-166-112-72 92 148 100q-119 97-279 191h293q76-49 127-95zM575 133q127 0 203 82.5T854 438v129q0 140-76 222.5T575 872t-202.5-82.5T297 567V438q0-140 75.5-222.5T575 133z"/><glyph glyph-name="ntilde" unicode="ñ" horiz-adv-x="1173" d="M358 0H168v1061h190V887h11q83 198 299 198 164 0 257-107.5t93-299.5V0H827v649q0 271-223 271-101 0-173.5-50.5T358 727V0zm387 1249q-11 0-22 1t-22 3-19 4-19.5 6-17 6-17.5 7.5-15 7.5-16 8.5l-15 7.5q-92 48-146 48-33 0-59.5-12.5T315 1294l-73 92q75 113 200 113 10 0 20.5-1t19-2 19-4 16.5-4.5 17-5.5 15-5.5 15.5-7.5 14-7 14.5-7 13-7q90-47 146-47 33 0 59 12t61 41l74-92q-75-113-201-113z"/><glyph glyph-name="ograve" unicode="ò" horiz-adv-x="1150" d="M575-25q-218 0-350.5 151.5T92 530t132.5 403.5T575 1085t351-151.5T1059 530 926 126.5 575-25zm0 164q128 0 204.5 80.5T856 451v159q0 151-76.5 231.5T575 922t-204-80.5T295 610V451q0-151 76-231.5T575 139zm-18 1057l-227 332 168 82 180-359z"/><glyph glyph-name="oacute" unicode="ó" horiz-adv-x="1150" d="M575-25q-218 0-350.5 151.5T92 530t132.5 403.5T575 1085t351-151.5T1059 530 926 126.5 575-25zm0 164q128 0 204.5 80.5T856 451v159q0 151-76.5 231.5T575 922t-204-80.5T295 610V451q0-151 76-231.5T575 139zm246 1389l-227-332-121 55 180 359z"/><glyph glyph-name="ocircumflex" unicode="ô" horiz-adv-x="1150" d="M575-25q-218 0-350.5 151.5T92 530t132.5 403.5T575 1085t351-151.5T1059 530 926 126.5 575-25zm0 164q128 0 204.5 80.5T856 451v159q0 151-76.5 231.5T575 922t-204-80.5T295 610V451q0-151 76-231.5T575 139zM469 1579h213l236-299-101-74-242 238-241-238-101 74z"/><glyph glyph-name="otilde" unicode="õ" horiz-adv-x="1150" d="M575-25q-218 0-350.5 151.5T92 530t132.5 403.5T575 1085t351-151.5T1059 530 926 126.5 575-25zm0 164q128 0 204.5 80.5T856 451v159q0 151-76.5 231.5T575 922t-204-80.5T295 610V451q0-151 76-231.5T575 139zm152 1110q-10 0-20.5 1t-19 2-19 4-16.5 4.5-17 5.5-15 5.5-15.5 7.5-14 7-14.5 7-13 7q-92 48-145 48-33 0-59.5-12.5T297 1294l-74 92q75 113 201 113 10 0 20.5-1t19-2 19-4 16.5-4.5 17-5.5 15-5.5 15.5-7.5 14-7 14.5-7 13-7q90-47 145-47 33 0 59.5 12.5T854 1454l74-92q-75-113-201-113z"/><glyph glyph-name="odieresis" unicode="ö" horiz-adv-x="1150" d="M575-25q-218 0-350.5 151.5T92 530t132.5 403.5T575 1085t351-151.5T1059 530 926 126.5 575-25zm0 164q128 0 204.5 80.5T856 451v159q0 151-76.5 231.5T575 922t-204-80.5T295 610V451q0-151 76-231.5T575 139zM379 1260q-113 0-113 100v29q0 100 113 100t113-100v-29q0-100-113-100zm393 0q-113 0-113 100v29q0 100 113 100t113-100v-29q0-100-113-100z"/><glyph glyph-name="divide" unicode="÷" d="M1092 545H137v160h955V545zM614 96q-70 0-103.5 30T477 203v47q0 47 33.5 76.5T614 356q71 0 104.5-29.5T752 250v-47q0-47-34-77T614 96zm0 797q-70 0-103.5 29.5T477 999v48q0 47 33.5 76.5T614 1153q71 0 104.5-29.5T752 1047v-48q0-47-33.5-76.5T614 893z"/><glyph glyph-name="oslash" unicode="ø" horiz-adv-x="1163" d="M170-86L63-6l138 170Q98 311 98 530q0 252 133 403.5T582 1085q164 0 286-92l125 154 107-80-137-172q102-142 102-365 0-252-132.5-403.5T582-25q-167 0-287 91zm412 225q128 0 204 80.5T862 451v159q0 76-22 140L397 201q71-62 185-62zM301 451q0-81 21-140l444 549q-74 62-184 62-128 0-204.5-80.5T301 610V451z"/><glyph glyph-name="ugrave" unicode="ù" horiz-adv-x="1175" d="M817 0v174h-10Q731-25 510-25 346-25 252 83t-94 300v678h190V412q0-271 225-271 99 0 171.5 50.5T817 336v725h191V0H817zM565 1196l-227 332 168 82 180-359z"/><glyph glyph-name="uacute" unicode="ú" horiz-adv-x="1175" d="M817 0v174h-10Q731-25 510-25 346-25 252 83t-94 300v678h190V412q0-271 225-271 99 0 171.5 50.5T817 336v725h191V0H817zm12 1528l-227-332-121 55 181 359z"/><glyph glyph-name="ucircumflex" unicode="û" horiz-adv-x="1175" d="M817 0v174h-10Q731-25 510-25 346-25 252 83t-94 300v678h190V412q0-271 225-271 99 0 171.5 50.5T817 336v725h191V0H817zM477 1579h213l236-299-101-74-241 238-242-238-100 74z"/><glyph glyph-name="udieresis" unicode="ü" horiz-adv-x="1175" d="M817 0v174h-10Q731-25 510-25 346-25 252 83t-94 300v678h190V412q0-271 225-271 99 0 171.5 50.5T817 336v725h191V0H817zM387 1260q-113 0-113 100v29q0 100 113 100t113-100v-29q0-100-113-100zm393 0q-112 0-112 100v29q0 100 112 100 113 0 113-100v-29q0-100-113-100z"/><glyph glyph-name="yacute" unicode="ý" horiz-adv-x="1036" d="M584 383l237 678h185L545-231q-38-103-91-141t-171-38H178v162h174l72 205L31 1061h190l236-678 55-199h10zm182 1145l-227-332-121 55 180 359z"/><glyph glyph-name="thorn" unicode="þ" horiz-adv-x="1198" d="M168-410v1926h190V887h9q36 97 115.5 147.5T672 1085q199 0 312.5-148.5T1098 530 984.5 123.5 672-25q-110 0-189.5 51T367 174h-9v-584H168zm448 551q127 0 203 82.5T895 440v181q0 134-76 216.5T616 920q-108 0-183-55.5T358 725V336q0-84 75-139.5T616 141z"/><glyph glyph-name="ydieresis" unicode="ÿ" horiz-adv-x="1036" d="M584 383l237 678h185L545-231q-38-103-91-141t-171-38H178v162h174l72 205L31 1061h190l236-678 55-199h10zm-260 877q-113 0-113 100v29q0 100 113 100 112 0 112-100v-29q0-100-112-100zm393 0q-113 0-113 100v29q0 100 113 100 112 0 112-100v-29q0-100-112-100z"/><glyph glyph-name="Amacron" unicode="Ā" horiz-adv-x="1329" d="M1284 0h-209L940 403H383L246 0H45l496 1430h250zM891 580l-225 667h-11L430 580h461zM375 1645v151h581v-151H375z"/><glyph glyph-name="amacron" unicode="ā" horiz-adv-x="1107" d="M1049 0H940q-84 0-129.5 47.5T754 176h-11Q711 79 631 27T436-25q-165 0-257.5 85.5T86 293q0 155 113.5 235T539 608h200v97q0 221-235 221-167 0-260-152L129 879q51 93 148 149.5t237 56.5q198 0 307-96t109-268V162h119V0zM479 129q113 0 186.5 51.5T739 311v164H537q-252 0-252-151v-41q0-73 52-113.5T479 129zM231 1300v152h582v-152H231z"/><glyph glyph-name="Abreve" unicode="Ă" horiz-adv-x="1329" d="M1284 0h-209L940 403H383L246 0H45l496 1430h250zM891 580l-225 667h-11L430 580h461zm-225 979q-54 0-98.5 11.5t-77 34T434 1651t-42.5 59-29 61-22.5 62l106 51 41-67q36-58 74-85.5t105-27.5 104.5 27.5T844 1817l41 67 106-51q-15-44-27.5-75t-39.5-72-59-66-83.5-43-115.5-18z"/><glyph glyph-name="abreve" unicode="ă" horiz-adv-x="1107" d="M1049 0H940q-84 0-129.5 47.5T754 176h-11Q711 79 631 27T436-25q-165 0-257.5 85.5T86 293q0 155 113.5 235T539 608h200v97q0 221-235 221-167 0-260-152L129 879q51 93 148 149.5t237 56.5q198 0 307-96t109-268V162h119V0zM479 129q113 0 186.5 51.5T739 311v164H537q-252 0-252-151v-41q0-73 52-113.5T479 129zm43 1085q-64 0-115.5 18t-83.5 43-59 65.5-40 71.5-27 75l106 53 41-67q36-59 73.5-87t104.5-28 104.5 28 73.5 87l41 67 107-53q-14-44-27.5-75t-40-71.5T722 1275t-84-43-116-18z"/><glyph glyph-name="Aogonek" unicode="Ą" horiz-adv-x="1329" d="M45 0l496 1430h250L1284 0q-128-109-167.5-158.5T1077-246q0-61 66-61 61 0 100 51l88-86q-22-38-71.5-61T1137-426q-90 0-147.5 40T932-266q0 73 54 131T1145-8l-2 8h-68L940 403H383L246 0H45zm846 580l-225 667h-11L430 580h461z"/><glyph glyph-name="aogonek" unicode="ą" horiz-adv-x="1107" d="M1049 162V0Q920-110 880-159t-40-87q0-61 67-61 62 0 101 51l88-86q-21-37-72-60.5T901-426q-91 0-148 40t-57 120q0 73 54.5 132.5T911-4l-2 6Q775 19 754 176h-11Q711 79 631 27T436-25q-165 0-257.5 85.5T86 293q0 155 113.5 235T539 608h200v97q0 221-235 221-167 0-260-152L129 879q51 93 148 149.5t237 56.5q198 0 307-96t109-268V162h119zM739 475H537q-252 0-252-151v-41q0-73 52-113.5T479 129q113 0 186.5 51.5T739 311v164z"/><glyph glyph-name="Cacute" unicode="Ć" horiz-adv-x="1284" d="M702-25q-276 0-431.5 192.5T115 715t155.5 547T702 1454q358 0 500-317l-164-95q-41 110-126 172t-210 62q-174 0-274-121.5T328 823V606q0-210 100-331t274-121q128 0 218 66.5T1051 401l159-96q-70-157-200-243.5T702-25zm242 1897l-227-332-121 57 180 357z"/><glyph glyph-name="cacute" unicode="ć" horiz-adv-x="1034" d="M569-25q-225 0-351 149T92 530t126 406 351 149q151 0 252.5-67.5T971 831l-158-77q-27 79-90 123.5T569 922q-133 0-203.5-82T295 623V438q0-135 70.5-217T569 139q188 0 271 180l139-86Q927 110 822.5 42.5T569-25zm240 1553l-227-332-121 55 180 359z"/><glyph glyph-name="Ccircumflex" unicode="Ĉ" horiz-adv-x="1284" d="M702-25q-276 0-431.5 192.5T115 715t155.5 547T702 1454q358 0 500-317l-164-95q-41 110-126 172t-210 62q-174 0-274-121.5T328 823V606q0-210 100-331t274-121q128 0 218 66.5T1051 401l159-96q-70-157-200-243.5T702-25zM592 1923h213l235-299-100-74-242 238-241-238-101 74z"/><glyph glyph-name="ccircumflex" unicode="ĉ" horiz-adv-x="1034" d="M569-25q-225 0-351 149T92 530t126 406 351 149q151 0 252.5-67.5T971 831l-158-77q-27 79-90 123.5T569 922q-133 0-203.5-82T295 623V438q0-135 70.5-217T569 139q188 0 271 180l139-86Q927 110 822.5 42.5T569-25zM457 1579h213l235-299-100-74-242 238-241-238-101 74z"/><glyph glyph-name="Cdotaccent" unicode="Ċ" horiz-adv-x="1284" d="M702-25q-276 0-431.5 192.5T115 715t155.5 547T702 1454q358 0 500-317l-164-95q-41 110-126 172t-210 62q-174 0-274-121.5T328 823V606q0-210 100-331t274-121q128 0 218 66.5T1051 401l159-96q-70-157-200-243.5T702-25zm-4 1612q-64 0-95.5 31t-31.5 84v35q0 53 31.5 83.5T698 1851t95.5-30.5T825 1737v-35q0-53-31.5-84t-95.5-31z"/><glyph glyph-name="cdotaccent" unicode="ċ" horiz-adv-x="1034" d="M569-25q-225 0-351 149T92 530t126 406 351 149q151 0 252.5-67.5T971 831l-158-77q-27 79-90 123.5T569 922q-133 0-203.5-82T295 623V438q0-135 70.5-217T569 139q188 0 271 180l139-86Q927 110 822.5 42.5T569-25zm-6 1276q-59 0-89 28.5t-30 76.5v28q0 48 30 76.5t89 28.5 89-28.5 30-76.5v-28q0-48-30-76.5t-89-28.5z"/><glyph glyph-name="Ccaron" unicode="Č" horiz-adv-x="1284" d="M702-25q-276 0-431.5 192.5T115 715t155.5 547T702 1454q358 0 500-317l-164-95q-41 110-126 172t-210 62q-174 0-274-121.5T328 823V606q0-210 100-331t274-121q128 0 218 66.5T1051 401l159-96q-70-157-200-243.5T702-25zm103 1592H592l-236 299 101 73 241-237 242 237 100-73z"/><glyph glyph-name="ccaron" unicode="č" horiz-adv-x="1034" d="M569-25q-225 0-351 149T92 530t126 406 351 149q151 0 252.5-67.5T971 831l-158-77q-27 79-90 123.5T569 922q-133 0-203.5-82T295 623V438q0-135 70.5-217T569 139q188 0 271 180l139-86Q927 110 822.5 42.5T569-25zm101 1248H457l-236 299 101 73 241-239 242 239 100-73z"/><glyph glyph-name="Dcaron" unicode="Ď" horiz-adv-x="1384" d="M184 0v1430h490q278 0 437-182.5T1270 715t-159-532.5T674 0H184zm199 176h291q174 0 278.5 112T1057 600v229q0 200-104.5 312T674 1253H383V176zm358 1391H528l-235 299 100 73 242-237 242 237 100-73z"/><glyph glyph-name="dcaron" unicode="ď" horiz-adv-x="1265" d="M1384 1516l-112-392h-125l22 392h215zM840 0v174h-9Q795 77 715.5 26T526-25q-199 0-312.5 148.5T100 530t113.5 406.5T526 1085q110 0 189.5-50.5T831 887h9v629h190V0H840zM582 141q108 0 183 55.5T840 336v389q0 84-75 139.5T582 920q-127 0-203-82.5T303 621V440q0-134 76-216.5T582 141z"/><glyph glyph-name="Dcroat" unicode="Đ" horiz-adv-x="1390" d="M190 0v674H31v151h159v605h490q278 0 437-182.5T1276 715t-159-532.5T680 0H190zm199 176h291q174 0 278.5 112T1063 600v229q0 200-104.5 312T680 1253H389V825h275V674H389V176z"/><glyph glyph-name="dcroat" unicode="đ" horiz-adv-x="1204" d="M840 0v174h-9Q795 77 715.5 26T526-25q-199 0-312.5 148.5T100 530t113.5 406.5T526 1085q110 0 189.5-50.5T831 887h9v354H537v139h303v136h190v-136h131v-139h-131V0H840zM582 141q108 0 183 55.5T840 336v389q0 84-75 139.5T582 920q-127 0-203-82.5T303 621V440q0-134 76-216.5T582 141z"/><glyph glyph-name="Emacron" unicode="Ē" horiz-adv-x="1204" d="M1075 0H184v1430h891v-177H383V811h641V635H383V176h692V0zM336 1645v151h582v-151H336z"/><glyph glyph-name="emacron" unicode="ē" horiz-adv-x="1130" d="M573-25q-221 0-351 151T92 530t130 404 351 151q217 0 341-146.5T1038 563v-80H291v-43q0-135 79.5-219T590 137q197 0 287 172l122-104Q942 100 830.5 37.5T573-25zm0 957q-124 0-203-85t-79-216v-15h545v21q0 133-72 214t-191 81zm-288 368v152h581v-152H285z"/><glyph glyph-name="Ebreve" unicode="Ĕ" horiz-adv-x="1204" d="M1075 0H184v1430h891v-177H383V811h641V635H383V176h692V0zM627 1559q-54 0-98.5 11.5t-77 34T395 1651t-42.5 59-29 61-22.5 62l107 51 41-67q36-58 73.5-85.5T627 1704t104.5 27.5T805 1817l41 67 106-51q-15-44-27.5-75t-39.5-72-59-66-83.5-43-115.5-18z"/><glyph glyph-name="ebreve" unicode="ĕ" horiz-adv-x="1130" d="M573-25q-221 0-351 151T92 530t130 404 351 151q217 0 341-146.5T1038 563v-80H291v-43q0-135 79.5-219T590 137q197 0 287 172l122-104Q942 100 830.5 37.5T573-25zm0 957q-124 0-203-85t-79-216v-15h545v21q0 133-72 214t-191 81zm2 282q-64 0-115.5 18t-83.5 43-59 65.5-40 71.5-27 75l106 53 41-67q36-59 73.5-87t104.5-28 105 28.5 74 86.5l41 67 106-53q-14-44-27.5-75t-40-71.5T775 1275t-84-43-116-18z"/><glyph glyph-name="Edotaccent" unicode="Ė" horiz-adv-x="1204" d="M1075 0H184v1430h891v-177H383V811h641V635H383V176h692V0zM627 1587q-64 0-95.5 31t-31.5 84v35q0 53 31.5 83.5T627 1851t95.5-30.5T754 1737v-35q0-53-31.5-84t-95.5-31z"/><glyph glyph-name="edotaccent" unicode="ė" horiz-adv-x="1130" d="M573-25q-221 0-351 151T92 530t130 404 351 151q217 0 341-146.5T1038 563v-80H291v-43q0-135 79.5-219T590 137q197 0 287 172l122-104Q942 100 830.5 37.5T573-25zm0 957q-124 0-203-85t-79-216v-15h545v21q0 133-72 214t-191 81zm2 319q-59 0-88.5 28.5T457 1356v28q0 48 29.5 76.5T575 1489t89-28.5 30-76.5v-28q0-48-30-76.5t-89-28.5z"/><glyph glyph-name="Eogonek" unicode="Ę" horiz-adv-x="1204" d="M184 0v1430h891v-177H383V811h641V635H383V176h692V0Q948-110 908-159t-40-87q0-61 66-61 61 0 100 51l88-86q-21-37-71.5-60.5T928-426q-90 0-147.5 40T723-266q0 73 55.5 132.5T938-10l-2 10H184z"/><glyph glyph-name="eogonek" unicode="ę" horiz-adv-x="1126" d="M721-426q-91 0-148 40t-57 120q0 44 17 83t50.5 71.5 66 56T729-4l-6 10q-60-31-152-31-219 0-349 151T92 530t130 404 349 151q145 0 251-69t159-186 53-267v-80H289v-43q0-135 80.5-219T590 137q95 0 168.5 44.5T874 307l123-102q-30-56-98-121-20-23-57-60.5t-64.5-67-56-64.5-44-69.5T662-244q0-63 65-63 61 0 100 51l86-86q-22-38-70.5-61T721-426zM289 616h545v21q0 132-71.5 213.5T573 932q-125 0-204.5-85T289 631v-15z"/><glyph glyph-name="Ecaron" unicode="Ě" horiz-adv-x="1204" d="M1075 0H184v1430h891v-177H383V811h641V635H383V176h692V0zM733 1567H520l-235 299 100 73 242-237 241 237 101-73z"/><glyph glyph-name="ecaron" unicode="ě" horiz-adv-x="1130" d="M573-25q-221 0-351 151T92 530t130 404 351 151q217 0 341-146.5T1038 563v-80H291v-43q0-135 79.5-219T590 137q197 0 287 172l122-104Q942 100 830.5 37.5T573-25zm0 957q-124 0-203-85t-79-216v-15h545v21q0 133-72 214t-191 81zm109 291H469l-236 299 101 73 241-239 242 239 101-73z"/><glyph glyph-name="Gcircumflex" unicode="Ĝ" horiz-adv-x="1431" d="M1106 0v213h-8q-24-105-128.5-171.5T707-25q-130 0-238.5 48.5T281.5 164 159 396.5 115 713q0 352 166.5 546.5T731 1454q185 0 318.5-83.5T1257 1137l-163-97q-47 110-140.5 173T731 1276q-183 0-293-120.5T328 831V600q0-206 111.5-326T743 154q151 0 250 75.5t99 216.5v129H786v173h498V0h-178zM621 1923h213l235-299-100-74-242 238-242-238-100 74z"/><glyph glyph-name="gcircumflex" unicode="ĝ" horiz-adv-x="1099" d="M442 1579h213l236-299-100-74-242 238-242-238-100 74zm637-1688q0-165-129-245t-397-80q-247 0-360 65.5T80-176Q80-14 254 29v22Q150 92 150 207q0 140 184 184v8q-94 44-145.5 128.5T137 721q0 163 111 263.5T547 1085q91 0 168-24h334V915H891q70-83 70-194 0-163-112-263T547 358q-62 0-119 13-52-15-86.5-43.5T307 258q0-44 39.5-62T463 178h242q374 0 374-287zM549 502q104 0 161.5 48.5T768 694v54q0 95-57.5 143.5T549 940t-161.5-48.5T330 748v-54q0-95 57.5-143.5T549 502zm352-629q0 64-48.5 97.5T692 4H336q-86-45-86-135 0-71 55.5-114.5T479-289h144q278 0 278 162z"/><glyph glyph-name="Gbreve" unicode="Ğ" horiz-adv-x="1431" d="M1106 0v213h-8q-24-105-128.5-171.5T707-25q-130 0-238.5 48.5T281.5 164 159 396.5 115 713q0 352 166.5 546.5T731 1454q185 0 318.5-83.5T1257 1137l-163-97q-47 110-140.5 173T731 1276q-183 0-293-120.5T328 831V600q0-206 111.5-326T743 154q151 0 250 75.5t99 216.5v129H786v173h498V0h-178zM727 1559q-54 0-98.5 11.5t-77 34T495 1651t-42.5 59-29 61-22.5 62l107 51 41-67q36-58 73.5-85.5T727 1704t104.5 27.5T905 1817l41 67 107-51q-12-36-22.5-62t-29-61-42.5-59-56.5-46.5-77-34T727 1559z"/><glyph glyph-name="gbreve" unicode="ğ" horiz-adv-x="1099" d="M545 1214q-64 0-116 18t-84 43-58.5 65.5-40 71.5-27.5 75l107 53 41-67q36-59 73.5-87t104.5-28 104.5 28 73.5 87l41 67 106-53q-14-44-27-75t-40-71.5-59-65.5-83.5-43-115.5-18zm534-1323q0-165-129-245t-397-80q-247 0-360 65.5T80-176Q80-14 254 29v22Q150 92 150 207q0 140 184 184v8q-94 44-145.5 128.5T137 721q0 163 111 263.5T547 1085q91 0 168-24h334V915H891q70-83 70-194 0-163-112-263T547 358q-62 0-119 13-52-15-86.5-43.5T307 258q0-44 39.5-62T463 178h242q374 0 374-287zM549 502q104 0 161.5 48.5T768 694v54q0 95-57.5 143.5T549 940t-161.5-48.5T330 748v-54q0-95 57.5-143.5T549 502zm352-629q0 64-48.5 97.5T692 4H336q-86-45-86-135 0-71 55.5-114.5T479-289h144q278 0 278 162z"/><glyph glyph-name="Gdotaccent" unicode="Ġ" horiz-adv-x="1431" d="M1106 0v213h-8q-24-105-128.5-171.5T707-25q-130 0-238.5 48.5T281.5 164 159 396.5 115 713q0 352 166.5 546.5T731 1454q185 0 318.5-83.5T1257 1137l-163-97q-47 110-140.5 173T731 1276q-183 0-293-120.5T328 831V600q0-206 111.5-326T743 154q151 0 250 75.5t99 216.5v129H786v173h498V0h-178zM727 1587q-64 0-95.5 31t-31.5 84v35q0 53 31.5 83.5T727 1851t95.5-30.5T854 1737v-35q0-53-31.5-84t-95.5-31z"/><glyph glyph-name="gdotaccent" unicode="ġ" horiz-adv-x="1099" d="M1079-109q0-165-129-245t-397-80q-247 0-360 65.5T80-176Q80-14 254 29v22Q150 92 150 207q0 140 184 184v8q-94 44-145.5 128.5T137 721q0 163 111 263.5T547 1085q91 0 168-24h334V915H891q70-83 70-194 0-163-112-263T547 358q-62 0-119 13-52-15-86.5-43.5T307 258q0-44 39.5-62T463 178h242q374 0 374-287zM549 502q104 0 161.5 48.5T768 694v54q0 95-57.5 143.5T549 940t-161.5-48.5T330 748v-54q0-95 57.5-143.5T549 502zm352-629q0 64-48.5 97.5T692 4H336q-86-45-86-135 0-71 55.5-114.5T479-289h144q278 0 278 162zM549 1251q-59 0-89 28.5t-30 76.5v28q0 48 30 76.5t89 28.5 89-28.5 30-76.5v-28q0-48-30-76.5t-89-28.5z"/><glyph glyph-name="Gcommaaccent" unicode="Ģ" horiz-adv-x="1431" d="M1106 0v213h-8q-24-105-128.5-171.5T707-25q-130 0-238.5 48.5T281.5 164 159 396.5 115 713q0 352 166.5 546.5T731 1454q185 0 318.5-83.5T1257 1137l-163-97q-47 110-140.5 173T731 1276q-183 0-293-120.5T328 831V600q0-206 111.5-326T743 154q151 0 250 75.5t99 216.5v129H786v173h498V0h-178zM713-125q53 0 82.5-27t29.5-75v-25q0-72-36-141.5T698-514H569q46 46 71 83.5t38 84.5q-38 7-58 33.5T600-248v21q0 48 29.5 75t83.5 27z"/><glyph glyph-name="gcommaaccent" unicode="ģ" horiz-adv-x="1099" d="M1079-109q0-165-129-245t-397-80q-247 0-360 65.5T80-176Q80-14 254 29v22Q150 92 150 207q0 140 184 184v8q-94 44-145.5 128.5T137 721q0 163 111 263.5T547 1085q91 0 168-24h334V915H891q70-83 70-194 0-163-112-263T547 358q-62 0-119 13-52-15-86.5-43.5T307 258q0-44 39.5-62T463 178h242q374 0 374-287zM549 502q104 0 161.5 48.5T768 694v54q0 95-57.5 143.5T549 940t-161.5-48.5T330 748v-54q0-95 57.5-143.5T549 502zm352-629q0 64-48.5 97.5T692 4H336q-86-45-86-135 0-71 55.5-114.5T479-289h144q278 0 278 162zM549 1210q-53 0-83 27.5t-30 75.5v24q0 71 36 141t91 121h129q-45-45-70-82.5t-38-84.5q38-7 58-34t20-65v-20q0-48-30-75.5t-83-27.5z"/><glyph glyph-name="Hcircumflex" unicode="Ĥ" horiz-adv-x="1454" d="M1071 0v635H383V0H184v1430h199V811h688v619h199V0h-199zM623 1923h213l235-299-100-74-242 238-242-238-100 74z"/><glyph glyph-name="hcircumflex" unicode="ĥ" horiz-adv-x="1173" d="M168 0v1516h190V887h11q83 198 299 198 164 0 257-107.5t93-299.5V0H827v649q0 271-223 271-101 0-173.5-50.5T358 727V0H168zm-8 1903h213l235-299-100-74-242 237-241-237-101 74z"/><glyph glyph-name="Hbar" unicode="Ħ" horiz-adv-x="1470" d="M1079 0v635H391V0H193v1061H47v147h146v222h198v-222h688v222h199v-222h145v-147h-145V0h-199zM391 811h688v250H391V811z"/><glyph glyph-name="hbar" unicode="ħ" horiz-adv-x="1171" d="M358 0H168v1241H37v139h131v136h190v-136h304v-139H358V887h9q83 198 299 198 164 0 257-107.5t93-299.5V0H825v649q0 271-221 271-101 0-173.5-50.5T358 727V0z"/><glyph glyph-name="Itilde" unicode="Ĩ" horiz-adv-x="833" d="M715 0H119v168h198v1094H119v168h596v-168H516V168h199V0zM567 1593q-13 0-26 1.5t-22.5 3-22.5 6-20 6.5-20.5 8.5-17.5 8.5-18.5 9.5-16.5 8.5q-90 47-145 47-33 0-59.5-12.5T137 1638l-74 93q74 112 201 112 10 0 20.5-1t19-2 19-4 16.5-4.5 17-5.5 15-5.5 15.5-7.5 14-7 14.5-7 13-7q90-47 145-47 33 0 59.5 12.5T694 1798l74-92q-75-113-201-113z"/><glyph glyph-name="itilde" unicode="ĩ" horiz-adv-x="526" d="M358 0H168v1061h190V0zm58 1249q-10 0-20.5 1t-19 2-19 4-16.5 4.5-17 5.5-15 5.5-15.5 7.5-14 7-14.5 7-13 7q-92 48-146 48-33 0-58.5-12.5T-14 1294l-74 92q75 113 201 113 11 0 22-1t22-3 19-4 19.5-6 17-6 17.5-7.5 15-7.5 16-8.5l15-7.5q90-47 146-47 33 0 59.5 12.5T543 1454l73-92q-75-113-200-113z"/><glyph glyph-name="Imacron" unicode="Ī" horiz-adv-x="833" d="M715 0H119v168h198v1094H119v168h596v-168H516V168h199V0zM125 1645v151h582v-151H125z"/><glyph glyph-name="imacron" unicode="ī" horiz-adv-x="526" d="M358 0H168v1061h190V0zM-27 1300v152h582v-152H-27z"/><glyph glyph-name="Ibreve" unicode="Ĭ" horiz-adv-x="833" d="M715 0H119v168h198v1094H119v168h596v-168H516V168h199V0zM416 1559q-54 0-98.5 11.5t-77 34T184 1651t-42.5 59-29 61-22.5 62l107 51 41-67q36-58 73.5-85.5T416 1704t104.5 27.5T594 1817l41 67 106-51q-15-44-27.5-75t-39.5-72-59-66-83.5-43-115.5-18z"/><glyph glyph-name="ibreve" unicode="ĭ" horiz-adv-x="526" d="M358 0H168v1061h190V0zm-94 1214q-64 0-115.5 18T65 1275t-59 65.5-40 71.5-27 75l106 53 41-67q36-59 73.5-87t104.5-28 104.5 28 73.5 87l41 67 107-53q-14-44-27.5-75t-40-71.5T464 1275t-84-43-116-18z"/><glyph glyph-name="Iogonek" unicode="Į" horiz-adv-x="833" d="M119 0v168h198v1094H119v168h596v-168H516V168h199V0Q587-109 547.5-158.5T508-246q0-61 65-61 62 0 101 51l88-86q-21-37-72-60.5T567-426q-90 0-147.5 40T362-266q0 73 52.5 131T578-10l-3 10H119z"/><glyph glyph-name="iogonek" unicode="į" horiz-adv-x="526" d="M168 0v1061h190V0Q231-109 191.5-158.5T152-246q0-61 65-61 58 0 100 51l89-86q-21-37-71-60.5T213-426q-91 0-149 40T6-266q0 72 54 130T221-8l-4 8h-49zm96 1282q-58 0-86 28t-28 76v29q0 48 28 76.5t86 28.5 86.5-28.5T379 1415v-29q0-48-28.5-76t-86.5-28z"/><glyph glyph-name="Idotaccent" unicode="İ" horiz-adv-x="833" d="M715 0H119v168h198v1094H119v168h596v-168H516V168h199V0zM416 1587q-64 0-95.5 31t-31.5 84v35q0 53 31.5 83.5T416 1851t95.5-30.5T543 1737v-35q0-53-31.5-84t-95.5-31z"/><glyph glyph-name="dotlessi" unicode="ı" horiz-adv-x="526" d="M358 0H168v1061h190V0z"/><glyph glyph-name="IJ" unicode="Ĳ" horiz-adv-x="1325" d="M657-25q-199 0-320 96.5T184 328l183 41q23-101 96-158t201-57q135 0 211.5 69T952 430v823H666v177h485V455q0-223-132.5-351.5T657-25zM174 602v828h199V602H174z"/><glyph glyph-name="ij" unicode="ĳ" horiz-adv-x="1042" d="M264 1282q-58 0-86 28t-28 76v29q0 48 28 76.5t86 28.5 86.5-28.5T379 1415v-29q0-48-28.5-76t-86.5-28zM168 0v1061h190V0H168zm516-248v1309h190V-154q0-121-60.5-188.5T631-410H514v162h170zm96 1530q-58 0-86 28t-28 76v29q0 48 28 76.5t86 28.5 86.5-28.5T895 1415v-29q0-48-28.5-76t-86.5-28z"/><glyph glyph-name="Jcircumflex" unicode="Ĵ" horiz-adv-x="1062" d="M211 1430h678V379q0-184-115.5-294T469-25q-170 0-276 91.5T55 315l183 41q44-202 233-202 104 0 161.5 63.5T690 406v847H211v177zm238 493h213l235-299-100-74-242 238-242-238-100 74z"/><glyph glyph-name="jcircumflex" unicode="ĵ" horiz-adv-x="526" d="M-2-410v162h170v1309h190V-154q0-121-60.5-188.5T115-410H-2zm160 1989h213l235-299-100-74-242 238-241-238-101 74z"/><glyph glyph-name="Kcommaaccent" unicode="Ķ" horiz-adv-x="1323" d="M1038 0L582 688 383 463V0H184v1430h199V684h8l203 254 412 492h237L721 821 1282 0h-244zM700-125q54 0 83.5-27t29.5-75v-25q0-72-36-141.5T686-514H557q46 46 71 83.5t38 84.5q-38 7-58 33.5T588-248v21q0 48 29.5 75t82.5 27z"/><glyph glyph-name="kcommaaccent" unicode="ķ" horiz-adv-x="1099" d="M168 0v1516h190V571h11l151 187 277 303h225L645 651 1071 0H842L510 528 358 367V0H168zm444-125q54 0 83.5-27t29.5-75v-25q0-72-36-141.5T598-514H469q46 46 71 83.5t38 84.5q-38 7-58 33.5T500-248v21q0 48 29.5 75t82.5 27z"/><glyph glyph-name="kgreenlandic" unicode="ĸ" horiz-adv-x="1099" d="M844 0L512 524 358 367V0H168v1061h190V571h11l159 183 287 307h227L649 645 1071 0H844z"/><glyph glyph-name="Lacute" unicode="Ĺ" horiz-adv-x="1038" d="M979 0H184v1430h199V176h596V0zM528 1872l-227-332-121 57 180 357z"/><glyph glyph-name="lacute" unicode="ĺ" horiz-adv-x="569" d="M510 0H367q-96 0-147.5 52.5T168 195v1321h190V162h152V0zm0 1937l-227-331-121 55 180 358z"/><glyph glyph-name="Lcommaaccent" unicode="Ļ" horiz-adv-x="1038" d="M979 0H184v1430h199V176h596V0zM606-125q54 0 83.5-27t29.5-75v-25q0-72-36-141.5T592-514H463q45 45 70 83t38 85q-77 15-77 98v21q0 48 29.5 75t82.5 27z"/><glyph glyph-name="lcommaaccent" unicode="ļ" horiz-adv-x="569" d="M510 0H367q-96 0-147.5 52.5T168 195v1321h190V162h152V0zM340-125q54 0 83.5-27t29.5-75v-25q0-72-36-141.5T326-514H197q45 45 70 83t38 85q-38 7-58 33.5T227-248v21q0 48 29.5 75t83.5 27z"/><glyph glyph-name="Lcaron" unicode="Ľ" horiz-adv-x="1038" d="M979 0H184v1430h199V176h596V0zM778 1516l-112-392H541l22 392h215z"/><glyph glyph-name="lcaron" unicode="ľ" horiz-adv-x="593" d="M713 1516l-113-392H475l23 392h215zM510 0H367q-96 0-147.5 52.5T168 195v1321h190V162h152V0z"/><glyph glyph-name="Ldot" unicode="Ŀ" horiz-adv-x="1038" d="M979 0H184v1430h199V176h596V0zM799 606q-59 0-89 28.5T680 711v28q0 48 30 76.5t89 28.5 89-28.5 30-76.5v-28q0-48-30-76.5T799 606z"/><glyph glyph-name="ldot" unicode="ŀ" horiz-adv-x="765" d="M510 0H367q-96 0-147.5 52.5T168 195v1321h190V162h152V0zm133 522q-59 0-89 28.5T524 627v28q0 48 30 76.5t89 28.5 89-28.5 30-76.5v-28q0-48-30-76.5T643 522z"/><glyph glyph-name="Lslash" unicode="Ł" horiz-adv-x="1052" d="M985 176V0H190v545l-204-70v156l204 69v730h199V764l363 121V729L389 608V176h596z"/><glyph glyph-name="lslash" unicode="ł" horiz-adv-x="581" d="M516 162V0H373q-96 0-147.5 52.5T174 195v458L29 606v156l145 47v707h191V872l210 70V786l-210-69V162h151z"/><glyph glyph-name="Nacute" unicode="Ń" horiz-adv-x="1454" d="M1049 0L580 782l-197 359h-6V0H184v1430h222l468-783 197-358h6v1141h193V0h-221zm-76 1872l-228-332-120 57 180 357z"/><glyph glyph-name="nacute" unicode="ń" horiz-adv-x="1173" d="M358 0H168v1061h190V887h11q83 198 299 198 164 0 257-107.5t93-299.5V0H827v649q0 271-223 271-101 0-173.5-50.5T358 727V0zm482 1528l-228-332-120 55 180 359z"/><glyph glyph-name="Ncommaaccent" unicode="Ņ" horiz-adv-x="1454" d="M1049 0L580 782l-197 359h-6V0H184v1430h222l468-783 197-358h6v1141h193V0h-221zM727-125q54 0 83.5-27t29.5-75v-25q0-72-36-141.5T713-514H584q45 45 70 83t38 85q-38 7-58 33.5T614-248v21q0 48 29.5 75t83.5 27z"/><glyph glyph-name="ncommaaccent" unicode="ņ" horiz-adv-x="1173" d="M358 0H168v1061h190V887h11q83 198 299 198 164 0 257-107.5t93-299.5V0H827v649q0 271-223 271-101 0-173.5-50.5T358 727V0zm236-125q54 0 83.5-27t29.5-75v-25q0-72-36-141.5T580-514H451q45 45 70 83t38 85q-38 7-58 33.5T481-248v21q0 48 29.5 75t83.5 27z"/><glyph glyph-name="Ncaron" unicode="Ň" horiz-adv-x="1454" d="M1049 0L580 782l-197 359h-6V0H184v1430h222l468-783 197-358h6v1141h193V0h-221zM834 1567H621l-236 299 100 73 242-237 242 237 100-73z"/><glyph glyph-name="ncaron" unicode="ň" horiz-adv-x="1173" d="M358 0H168v1061h190V887h11q83 198 299 198 164 0 257-107.5t93-299.5V0H827v649q0 271-223 271-101 0-173.5-50.5T358 727V0zm342 1223H487l-235 299 100 73 242-239 242 239 100-73z"/><glyph glyph-name="napostrophe" unicode="ŉ" horiz-adv-x="1687" d="M291 1536q68 0 101.5-34.5T426 1407v-31q0-93-52-197.5T233 1001H84q67 68 105.5 127.5T246 1257q-90 18-90 119v31q0 60 33.5 94.5T291 1536zM872 0H682v1061h190V887h11q83 198 299 198 164 0 257-107.5t93-299.5V0h-191v649q0 271-223 271-101 0-173.5-50.5T872 727V0z"/><glyph glyph-name="Eng" unicode="Ŋ" horiz-adv-x="1454" d="M377 0H184v1430h222l468-783 197-358h6v1141h193V-145q0-124-61.5-194.5T1024-410H901v168h176V0h-28L580 782l-197 359h-6V0z"/><glyph glyph-name="eng" unicode="ŋ" horiz-adv-x="1173" d="M657-410v162h170v897q0 271-223 271-101 0-173.5-50.5T358 727V0H168v1061h190V887h11q83 198 299 198 164 0 257-107.5t93-299.5v-836q0-119-60.5-185.5T776-410H657z"/><glyph glyph-name="Omacron" unicode="Ō" horiz-adv-x="1449" d="M725-25q-283 0-446.5 192.5T115 715t163.5 547T725 1454t446.5-192T1335 715t-163.5-547.5T725-25zm0 179q179 0 288 120.5T1122 598v233q0 203-109 324t-288 121-288-121-109-324V598q0-203 109-323.5T725 154zM434 1645v151h582v-151H434z"/><glyph glyph-name="omacron" unicode="ō" horiz-adv-x="1150" d="M575-25q-218 0-350.5 151.5T92 530t132.5 403.5T575 1085t351-151.5T1059 530 926 126.5 575-25zm0 164q128 0 204.5 80.5T856 451v159q0 151-76.5 231.5T575 922t-204-80.5T295 610V451q0-151 76-231.5T575 139zM285 1300v152h581v-152H285z"/><glyph glyph-name="Obreve" unicode="Ŏ" horiz-adv-x="1449" d="M725-25q-283 0-446.5 192.5T115 715t163.5 547T725 1454t446.5-192T1335 715t-163.5-547.5T725-25zm0 179q179 0 288 120.5T1122 598v233q0 203-109 324t-288 121-288-121-109-324V598q0-203 109-323.5T725 154zm0 1405q-54 0-98.5 11.5t-77 34T493 1651t-42.5 59-29 61-22.5 62l107 51 41-67q36-58 73.5-85.5T725 1704t104.5 27.5T903 1817l41 67 107-51q-12-36-22.5-62t-29-61-42.5-59-56.5-46.5-77-34T725 1559z"/><glyph glyph-name="obreve" unicode="ŏ" horiz-adv-x="1150" d="M575-25q-218 0-350.5 151.5T92 530t132.5 403.5T575 1085t351-151.5T1059 530 926 126.5 575-25zm0 164q128 0 204.5 80.5T856 451v159q0 151-76.5 231.5T575 922t-204-80.5T295 610V451q0-151 76-231.5T575 139zm0 1075q-64 0-115.5 18t-83.5 43-59 65.5-40 71.5-27 75l106 53 41-67q36-59 73.5-87t104.5-28 105 28.5 74 86.5l41 67 106-53q-14-44-27.5-75t-40-71.5T775 1275t-84-43-116-18z"/><glyph glyph-name="Ohungarumlaut" unicode="Ő" horiz-adv-x="1449" d="M725-25q-283 0-446.5 192.5T115 715t163.5 547T725 1454t446.5-192T1335 715t-163.5-547.5T725-25zm0 179q179 0 288 120.5T1122 598v233q0 203-109 324t-288 121-288-121-109-324V598q0-203 109-323.5T725 154zm72 1720l-228-332-112 51 180 359zm346 0l-230-332-110 51 180 359z"/><glyph glyph-name="ohungarumlaut" unicode="ő" horiz-adv-x="1150" d="M575-25q-218 0-350.5 151.5T92 530t132.5 403.5T575 1085t351-151.5T1059 530 926 126.5 575-25zm0 164q128 0 204.5 80.5T856 451v159q0 151-76.5 231.5T575 922t-204-80.5T295 610V451q0-151 76-231.5T575 139zm72 1391l-227-332-113 51 180 359zm346 0l-229-332-111 51 181 359z"/><glyph glyph-name="OE" unicode="Œ" horiz-adv-x="2021" d="M1894 0h-890Q875-25 748-25q-298 0-465.5 191.5T115 715t167.5 548T748 1454q130 0 260-24h886v-177h-694V811h643V635h-643V176h694V0zM764 154q134 0 237 32v1057q-106 33-237 33-215 0-325.5-118T328 831V598q0-209 110.5-326.5T764 154z"/><glyph glyph-name="oe" unicode="œ" horiz-adv-x="1894" d="M575 139q128 0 204.5 80.5T856 451v159q0 151-76.5 231.5T575 922t-204-80.5T295 610V451q0-151 76-231.5T575 139zm482 477h542v21q0 133-71 214t-189 81q-125 0-203.5-85T1057 631v-15zm295-641q-142 0-242.5 61.5T961 195h-11Q904 97 804 36T575-25q-218 0-350.5 151.5T92 530t132.5 403.5T575 1085q132 0 228.5-56.5T950 866h13q45 102 143 160.5t233 58.5q213 0 338-144.5T1802 563v-80h-745v-43q0-135 79.5-219t219.5-84q196 0 289 172l120-104q-57-106-164-168t-249-62z"/><glyph glyph-name="Racute" unicode="Ŕ" horiz-adv-x="1325" d="M383 594V0H184v1430h590q189 0 297.5-112t108.5-308q0-156-72-258.5T899 614L1217 0H993L696 594H383zm0 172h383q96 0 149.5 50T969 958v103q0 92-53.5 142T766 1253H383V766zm498 1106l-228-332-121 57 181 357z"/><glyph glyph-name="racute" unicode="ŕ" horiz-adv-x="768" d="M358 0H168v1061h190V858h11q29 87 104.5 145t194.5 58h63V870h-94q-130 0-204.5-47.5T358 696V0zm338 1528l-227-332-121 55 180 359z"/><glyph glyph-name="Rcommaaccent" unicode="Ŗ" horiz-adv-x="1325" d="M383 594V0H184v1430h590q189 0 297.5-112t108.5-308q0-156-72-258.5T899 614L1217 0H993L696 594H383zm0 172h383q96 0 149.5 50T969 958v103q0 92-53.5 142T766 1253H383V766zm293-891q53 0 82.5-27t29.5-75v-25q0-72-35.5-141.5T662-514H532q46 46 71 83.5t38 84.5q-38 7-58 33.5T563-248v21q0 48 29.5 75t83.5 27z"/><glyph glyph-name="rcommaaccent" unicode="ŗ" horiz-adv-x="768" d="M358 0H168v1061h190V858h11q29 87 104.5 145t194.5 58h63V870h-94q-130 0-204.5-47.5T358 696V0zm-92-125q54 0 83.5-27t29.5-75v-25q0-72-36-141.5T252-514H123q45 45 70 83t38 85q-77 15-77 98v21q0 48 29.5 75t82.5 27z"/><glyph glyph-name="Rcaron" unicode="Ř" horiz-adv-x="1325" d="M383 594V0H184v1430h590q189 0 297.5-112t108.5-308q0-156-72-258.5T899 614L1217 0H993L696 594H383zm0 172h383q96 0 149.5 50T969 958v103q0 92-53.5 142T766 1253H383V766zm358 801H528l-235 299 100 73 242-237 242 237 100-73z"/><glyph glyph-name="rcaron" unicode="ř" horiz-adv-x="768" d="M358 0H168v1061h190V858h11q29 87 104.5 145t194.5 58h63V870h-94q-130 0-204.5-47.5T358 696V0zm199 1223H344l-235 299 100 73 242-239 241 239 101-73z"/><glyph glyph-name="Sacute" unicode="Ś" horiz-adv-x="1204" d="M596-25Q270-25 84 221l141 127q153-198 379-198 144 0 221.5 67.5T903 401q0 94-56.5 147.5T657 631l-120 24q-205 42-307.5 139T127 1055q0 188 131 293.5T612 1454q310 0 478-227l-146-117q-124 170-342 170-132 0-205-56t-73-161q0-93 59-142.5T573 842l121-25q211-46 308.5-143.5T1100 412q0-200-134-318.5T596-25zm246 1897l-228-332-120 57 180 357z"/><glyph glyph-name="sacute" unicode="ś" horiz-adv-x="1003" d="M494-25Q231-25 70 180l129 111q126-158 307-158 100 0 154.5 42T715 291q0 62-39 100t-131 51l-90 15q-164 23-254 96t-90 213q0 152 106 235.5t279 83.5q129 0 220.5-43T879 915L758 801q-42 56-111 91.5T489 928q-95 0-144.5-40.5T295 778q0-68 44-102.5T479 627l90-15q171-26 250.5-100.5T899 311q0-155-109-245.5T494-25zm243 1553l-227-332-121 55 180 359z"/><glyph glyph-name="Scircumflex" unicode="Ŝ" horiz-adv-x="1204" d="M596-25Q270-25 84 221l141 127q153-198 379-198 144 0 221.5 67.5T903 401q0 94-56.5 147.5T657 631l-120 24q-205 42-307.5 139T127 1055q0 188 131 293.5T612 1454q310 0 478-227l-146-117q-124 170-342 170-132 0-205-56t-73-161q0-93 59-142.5T573 842l121-25q211-46 308.5-143.5T1100 412q0-200-134-318.5T596-25zM489 1923h213l236-299-100-74-242 238-242-238-100 74z"/><glyph glyph-name="scircumflex" unicode="ŝ" horiz-adv-x="1003" d="M494-25Q231-25 70 180l129 111q126-158 307-158 100 0 154.5 42T715 291q0 62-39 100t-131 51l-90 15q-164 23-254 96t-90 213q0 152 106 235.5t279 83.5q129 0 220.5-43T879 915L758 801q-42 56-111 91.5T489 928q-95 0-144.5-40.5T295 778q0-68 44-102.5T479 627l90-15q171-26 250.5-100.5T899 311q0-155-109-245.5T494-25zM385 1579h213l236-299-101-74-241 238-242-238-100 74z"/><glyph glyph-name="Scedilla" unicode="Ş" horiz-adv-x="1204" d="M602 1280q-132 0-205-56t-73-161q0-93 59-142.5T573 842l121-25q211-46 308.5-143.5T1100 412q0-189-121.5-306T643-23l-18-100 6-6q40 12 82 12 64 0 102.5-35T854-252q0-87-67-130.5T618-426q-145 0-210 86l79 88q46-57 127-57 40 0 65.5 15.5T705-248q0 31-30 52t-112 32l-55 8 27 133Q254-3 84 221l141 127q153-198 379-198 144 0 221.5 67.5T903 401q0 94-56.5 147.5T657 631l-120 24q-205 42-307.5 139T127 1055q0 188 131 293.5T612 1454q310 0 478-227l-146-117q-124 170-342 170z"/><glyph glyph-name="scedilla" unicode="ş" horiz-adv-x="1003" d="M520-426q-148 0-213 86l80 88q46-57 129-57 40 0 64 15.5t24 45.5q0 31-30 52t-111 32l-55 8 26 133Q209-3 70 180l129 111q126-158 307-158 100 0 154.5 42T715 291q0 62-39 100t-131 51l-90 15q-164 23-254 96t-90 213q0 152 106 235.5t279 83.5q129 0 220.5-43T879 915L758 801q-42 56-111 91.5T489 928q-95 0-144.5-40.5T295 778q0-68 44-102.5T479 627l90-15q171-24 250.5-99.5T899 311q0-143-95-232.5T545-23l-21-100 6-6q44 12 84 12 62 0 101-35t39-100q0-87-66-130.5T520-426z"/><glyph glyph-name="Scaron" unicode="Š" horiz-adv-x="1204" d="M596-25Q270-25 84 221l141 127q153-198 379-198 144 0 221.5 67.5T903 401q0 94-56.5 147.5T657 631l-120 24q-205 42-307.5 139T127 1055q0 188 131 293.5T612 1454q310 0 478-227l-146-117q-124 170-342 170-132 0-205-56t-73-161q0-93 59-142.5T573 842l121-25q211-46 308.5-143.5T1100 412q0-200-134-318.5T596-25zm106 1592H489l-235 299 100 73 242-237 242 237 100-73z"/><glyph glyph-name="scaron" unicode="š" horiz-adv-x="1003" d="M494-25Q231-25 70 180l129 111q126-158 307-158 100 0 154.5 42T715 291q0 62-39 100t-131 51l-90 15q-164 23-254 96t-90 213q0 152 106 235.5t279 83.5q129 0 220.5-43T879 915L758 801q-42 56-111 91.5T489 928q-95 0-144.5-40.5T295 778q0-68 44-102.5T479 627l90-15q171-26 250.5-100.5T899 311q0-155-109-245.5T494-25zm104 1248H385l-235 299 100 73 242-239 241 239 101-73z"/><glyph glyph-name="uni0162" unicode="Ţ" horiz-adv-x="1177" d="M489 0v1253H47v177h1083v-177H688V0h-47l-23-123 7-6q41 12 82 12 64 0 102.5-35T848-252q0-87-67-130.5T612-426q-79 0-132.5 25T401-340l80 88q46-57 127-57 40 0 65 15.5t25 45.5q0 31-30 52t-111 32l-55 8L532 0h-43z"/><glyph glyph-name="uni0163" unicode="ţ" horiz-adv-x="731" d="M467-426q-79 0-132.5 25T256-340l80 88q46-57 127-57 40 0 65 15.5t25 45.5q0 31-30 52t-111 32l-56 8L387 2q-77 10-118.5 62.5T227 201v698H57v162h95q53 0 73.5 21.5T246 1159v195h172v-293h227V899H418V162h211V0H496l-23-123 6-6q41 12 82 12 64 0 102.5-35T702-252q0-87-66.5-130.5T467-426z"/><glyph glyph-name="Tcaron" unicode="Ť" horiz-adv-x="1177" d="M489 0v1253H47v177h1083v-177H688V0H489zm207 1567H483l-235 299 100 73 242-237 241 237 101-73z"/><glyph glyph-name="tcaron" unicode="ť" horiz-adv-x="733" d="M629 0H428q-97 0-149 53.5T227 201v698H57v162h95q53 0 73.5 21.5T246 1159v195h172v-293h227V899H418V162h211V0zm166 1556l-113-391H557l23 391h215z"/><glyph glyph-name="Tbar" unicode="Ŧ" horiz-adv-x="1198" d="M1026 668H698V0H500v668H172v149h328v436H57v177h1084v-177H698V817h328V668z"/><glyph glyph-name="tbar" unicode="ŧ" horiz-adv-x="745" d="M635 162V0H436q-97 0-150 53.5T233 199v299H102v141h131v260H63v162h95q53 0 73.5 21.5T252 1159v195h172v-293h227V899H424V639h184V498H424V162h211z"/><glyph glyph-name="Utilde" unicode="Ũ" horiz-adv-x="1396" d="M174 1430h199V547q0-201 74.5-297T698 154q177 0 251.5 96t74.5 297v883h199V586q0-319-122.5-465T692-25q-145 0-244 36T288 124.5t-87.5 189T174 586v844zm672 163q-13 0-26 1.5t-22.5 3-22.5 6-20 6.5-20.5 8.5-17.5 8.5-18.5 9.5-16.5 8.5q-90 47-145 47-33 0-59.5-12.5T416 1638l-74 93q74 112 201 112 10 0 20.5-1t19-2 19-4 16.5-4.5 17-5.5 15-5.5 15.5-7.5 14-7 14.5-7 13-7q90-47 145-47 33 0 59.5 12.5T973 1798l74-92q-75-113-201-113z"/><glyph glyph-name="utilde" unicode="ũ" horiz-adv-x="1175" d="M817 0v174h-10Q731-25 510-25 346-25 252 83t-94 300v678h190V412q0-271 225-271 99 0 171.5 50.5T817 336v725h191V0H817zm-82 1249q-10 0-20.5 1t-19 2-19 4-16.5 4.5-17 5.5-15 5.5-15.5 7.5-14 7-14.5 7-13 7q-92 48-145 48-33 0-59.5-12.5T305 1294l-74 92q75 113 201 113 10 0 20.5-1t19-2 19-4 16.5-4.5 17-5.5 15-5.5 15.5-7.5 14-7 14.5-7 13-7q90-47 145-47 33 0 59.5 12.5T862 1454l74-92q-75-113-201-113z"/><glyph glyph-name="Umacron" unicode="Ū" horiz-adv-x="1396" d="M174 1430h199V547q0-201 74.5-297T698 154q177 0 251.5 96t74.5 297v883h199V586q0-319-122.5-465T692-25q-145 0-244 36T288 124.5t-87.5 189T174 586v844zm229 215v151h582v-151H403z"/><glyph glyph-name="umacron" unicode="ū" horiz-adv-x="1175" d="M817 0v174h-10Q731-25 510-25 346-25 252 83t-94 300v678h190V412q0-271 225-271 99 0 171.5 50.5T817 336v725h191V0H817zM293 1300v152h581v-152H293z"/><glyph glyph-name="Ubreve" unicode="Ŭ" horiz-adv-x="1396" d="M174 1430h199V547q0-201 74.5-297T698 154q177 0 251.5 96t74.5 297v883h199V586q0-319-122.5-465T692-25q-145 0-244 36T288 124.5t-87.5 189T174 586v844zm520 129q-64 0-115.5 18t-83.5 43-59 66-39.5 72-27.5 75l106 51 41-67q36-58 73.5-85.5T694 1704t104.5 27.5T872 1817l41 67 107-51q-12-36-22.5-62t-29-61-42.5-59-56.5-46.5-77-34T694 1559z"/><glyph glyph-name="ubreve" unicode="ŭ" horiz-adv-x="1175" d="M817 0v174h-10Q731-25 510-25 346-25 252 83t-94 300v678h190V412q0-271 225-271 99 0 171.5 50.5T817 336v725h191V0H817zM584 1214q-64 0-116 18t-84 43-58.5 65.5-40 71.5-27.5 75l107 53 41-67q36-59 73.5-87t104.5-28 104.5 28 73.5 87l41 67 106-53q-14-44-27-75t-40-71.5-59-65.5-83.5-43-115.5-18z"/><glyph glyph-name="Uring" unicode="Ů" horiz-adv-x="1396" d="M174 1430h199V547q0-201 74.5-297T698 154q177 0 251.5 96t74.5 297v883h199V586q0-319-122.5-465T692-25q-145 0-244 36T288 124.5t-87.5 189T174 586v844zm520 90q-105 0-177.5 70T444 1765t72.5 175.5T694 2011t177.5-70.5T944 1765t-72.5-175-177.5-70zm0 110q55 0 86 29t31 82v49q0 53-31 82t-86 29-85.5-29-30.5-82v-49q0-53 30.5-82t85.5-29z"/><glyph glyph-name="uring" unicode="ů" horiz-adv-x="1175" d="M817 0v174h-10Q731-25 510-25 346-25 252 83t-94 300v678h190V412q0-271 225-271 99 0 171.5 50.5T817 336v725h191V0H817zM584 1174q-105 0-177.5 70T334 1419t72.5 175.5T584 1665t177.5-70.5T834 1419t-72.5-175-177.5-70zm0 110q55 0 85.5 29t30.5 82v49q0 53-30.5 81.5T584 1554t-86-28.5-31-81.5v-49q0-53 31-82t86-29z"/><glyph glyph-name="Uhungarumlaut" unicode="Ű" horiz-adv-x="1396" d="M174 1430h199V547q0-201 74.5-297T698 154q177 0 251.5 96t74.5 297v883h199V586q0-319-122.5-465T692-25q-145 0-244 36T288 124.5t-87.5 189T174 586v844zm592 444l-227-332-113 51 180 359zm346 0l-229-332-111 51 180 359z"/><glyph glyph-name="uhungarumlaut" unicode="ű" horiz-adv-x="1175" d="M817 0v174h-10Q731-25 510-25 346-25 252 83t-94 300v678h190V412q0-271 225-271 99 0 171.5 50.5T817 336v725h191V0H817zM655 1530l-227-332-113 51 181 359zm346 0l-229-332-110 51 180 359z"/><glyph glyph-name="Uogonek" unicode="Ų" horiz-adv-x="1396" d="M174 1430h199V547q0-201 74.5-297T698 154q177 0 251.5 96t74.5 297v883h199V586q0-209-52-343.5T981-23q-21-20-49-47t-42-40-32.5-31.5-27-29.5-17-25-11.5-25.5-3-24.5q0-61 67-61 60 0 99 51l88-86q-21-37-72-60.5T858-426q-89 0-147 39t-58 117q0 41 16.5 75.5t55.5 69 71.5 57T893-6l-6 12q-73-31-195-31-145 0-244 36T288 124.5t-87.5 189T174 586v844z"/><glyph glyph-name="uogonek" unicode="ų" horiz-adv-x="1173" d="M1006 1061V0Q879-110 839-159t-40-87q0-61 65-61 62 0 101 51l88-86q-21-37-72-60.5T858-426q-90 0-147.5 40T653-266q0 73 54 133T866-6l-2 6h-49v174h-10Q729-25 508-25 344-25 250 83t-94 300v678h190V412q0-271 225-271 99 0 171.5 50.5T815 336v725h191z"/><glyph glyph-name="Wcircumflex" unicode="Ŵ" horiz-adv-x="1857" d="M610 0H387L45 1430h205l151-689 111-508h4l125 508 176 689h223l172-689 125-505h6l113 505 158 689h198L1452 0h-221l-187 725-118 483h-4L799 725zm213 1923h213l236-299-101-74-241 238-242-238-100 74z"/><glyph glyph-name="wcircumflex" unicode="ŵ" horiz-adv-x="1601" d="M344 0L59 1061h185l110-453 107-436h4l121 436 131 453h170l135-453 123-436h6l100 436 113 453h178L1260 0h-226L891 498l-90 311h-4l-88-311L565 0H344zm350 1579h213l236-299-101-74-241 238-242-238-100 74z"/><glyph glyph-name="Ycircumflex" unicode="Ŷ" horiz-adv-x="1234" d="M715 0H516v563L25 1430h227l366-666h7l364 666h221L715 569V0zM512 1923h213l236-299-101-74-242 238-241-238-101 74z"/><glyph glyph-name="ycircumflex" unicode="ŷ" horiz-adv-x="1036" d="M584 383l237 678h185L545-231q-38-103-91-141t-171-38H178v162h174l72 205L31 1061h190l236-678 55-199h10zM414 1579h213l235-299-100-74-242 238-241-238-101 74z"/><glyph glyph-name="Ydieresis" unicode="Ÿ" horiz-adv-x="1234" d="M715 0H516v563L25 1430h227l366-666h7l364 666h221L715 569V0zM422 1604q-113 0-113 100v33q0 100 113 100t113-100v-33q0-100-113-100zm393 0q-113 0-113 100v33q0 100 113 100t113-100v-33q0-100-113-100z"/><glyph glyph-name="Zacute" unicode="Ź" horiz-adv-x="1200" d="M1124 176V0H76v178l798 1075H117v177h981v-179L295 176h829zM856 1872l-227-332-121 57 180 357z"/><glyph glyph-name="zacute" unicode="ź" horiz-adv-x="970" d="M901 0H70v158l587 741H88v162h797V915L287 162h614V0zM731 1528l-227-332-121 55 180 359z"/><glyph glyph-name="Zdotaccent" unicode="Ż" horiz-adv-x="1200" d="M1124 176V0H76v178l798 1075H117v177h981v-179L295 176h829zM610 1587q-64 0-95.5 31t-31.5 84v35q0 53 31.5 83.5T610 1851t95.5-30.5T737 1737v-35q0-53-31.5-84t-95.5-31z"/><glyph glyph-name="zdotaccent" unicode="ż" horiz-adv-x="970" d="M901 0H70v158l587 741H88v162h797V915L287 162h614V0zM485 1251q-59 0-88.5 28.5T367 1356v28q0 48 29.5 76.5T485 1489t89-28.5 30-76.5v-28q0-48-30-76.5t-89-28.5z"/><glyph glyph-name="Zcaron" unicode="Ž" horiz-adv-x="1200" d="M1124 176V0H76v178l798 1075H117v177h981v-179L295 176h829zM717 1567H504l-236 299 101 73 241-237 242 237 100-73z"/><glyph glyph-name="zcaron" unicode="ž" horiz-adv-x="970" d="M901 0H70v158l587 741H88v162h797V915L287 162h614V0zM592 1223H379l-236 299 101 73 241-239 242 239 100-73z"/><glyph glyph-name="uni017F" unicode="ſ" horiz-adv-x="583" d="M225 0v899H55v162h170v196q0 120 63 189.5t185 69.5h166v-162H416V0H225z"/><glyph glyph-name="uni018F" unicode="Ə" horiz-adv-x="1458" d="M115 715v55h1018v51q0 203-115.5 329T729 1276q-137 0-232.5-70.5T350 1006l-170 75q63 167 205 270t344 103q286 0 450-195.5T1343 715t-164-544T729-25 279 171 115 715zm614-561q174 0 289 125.5T1133 608H326q6-205 118.5-329.5T729 154z"/><glyph glyph-name="florin" unicode="ƒ" horiz-adv-x="995" d="M-2-274l16 161h287l72 709H94l19 168h276l41 410q12 118 83 187t194 69h243l-18-162H633l-51-504h327l-14-168H565L502-20q-11-115-82-184.5T225-274H-2z"/><glyph glyph-name="Ohorn" unicode="Ơ" horiz-adv-x="1449" d="M1188 1661h166v-207q0-70-31.5-106.5T1210 1311h-84q209-202 209-596 0-355-163.5-547.5T725-25 278.5 167.5 115 715t163.5 547T725 1454q101 0 186-24h277v231zM725 154q179 0 288 120.5T1122 598v233q0 203-109 324t-288 121-288-121-109-324V598q0-203 109-323.5T725 154z"/><glyph glyph-name="ohorn" unicode="ơ" horiz-adv-x="1150" d="M909 1292h166v-205q0-71-30.5-107T936 944h-21q144-159 144-414 0-252-133-403.5T575-25 224.5 126.5 92 530t132.5 403.5T575 1085q87 0 160-24h174v231zM575 139q128 0 204.5 80.5T856 451v159q0 151-76.5 231.5T575 922t-204-80.5T295 610V451q0-151 76-231.5T575 139z"/><glyph glyph-name="Uhorn" unicode="Ư" horiz-adv-x="1396" d="M174 1430h199V547q0-201 74.5-297T698 154q177 0 251.5 96t74.5 297v883h182v231h166v-211q0-69-32-106t-113-37h-4V586q0-319-122.5-465T692-25q-145 0-244 36T288 124.5t-87.5 189T174 586v844z"/><glyph glyph-name="uhorn" unicode="ư" horiz-adv-x="1173" d="M1169 1292v-211q0-69-31-106t-112-37h-20V0H815v174h-10Q729-25 508-25 344-25 250 83t-94 300v678h190V412q0-271 225-271 99 0 171.5 50.5T815 336v725h189v231h165z"/><glyph glyph-name="uni01CD" unicode="Ǎ" horiz-adv-x="1329" d="M1284 0h-209L940 403H383L246 0H45l496 1430h250zM891 580l-225 667h-11L430 580h461zm-119 987H559l-235 299 100 73 242-237 241 237 101-73z"/><glyph glyph-name="uni01CE" unicode="ǎ" horiz-adv-x="1107" d="M1049 0H940q-84 0-129.5 47.5T754 176h-11Q711 79 631 27T436-25q-165 0-257.5 85.5T86 293q0 155 113.5 235T539 608h200v97q0 221-235 221-167 0-260-152L129 879q51 93 148 149.5t237 56.5q198 0 307-96t109-268V162h119V0zM479 129q113 0 186.5 51.5T739 311v164H537q-252 0-252-151v-41q0-73 52-113.5T479 129zm150 1094H416l-236 299 101 73 241-239 242 239 100-73z"/><glyph glyph-name="uni01CF" unicode="Ǐ" horiz-adv-x="833" d="M715 0H119v168h198v1094H119v168h596v-168H516V168h199V0zM522 1567H309L74 1866l100 73 242-237 241 237 101-73z"/><glyph glyph-name="uni01D0" unicode="ǐ" horiz-adv-x="526" d="M358 0H168v1061h190V0zm11 1223H156l-236 299 100 73 242-239 242 239 100-73z"/><glyph glyph-name="uni01D1" unicode="Ǒ" horiz-adv-x="1449" d="M725-25q-283 0-446.5 192.5T115 715t163.5 547T725 1454t446.5-192T1335 715t-163.5-547.5T725-25zm0 179q179 0 288 120.5T1122 598v233q0 203-109 324t-288 121-288-121-109-324V598q0-203 109-323.5T725 154zm109 1413H621l-236 299 100 73 242-237 242 237 100-73z"/><glyph glyph-name="uni01D2" unicode="ǒ" horiz-adv-x="1150" d="M575-25q-218 0-350.5 151.5T92 530t132.5 403.5T575 1085t351-151.5T1059 530 926 126.5 575-25zm0 164q128 0 204.5 80.5T856 451v159q0 151-76.5 231.5T575 922t-204-80.5T295 610V451q0-151 76-231.5T575 139zm105 1084H467l-236 299 101 73 241-239 242 239 100-73z"/><glyph glyph-name="uni01D3" unicode="Ǔ" horiz-adv-x="1396" d="M174 1430h199V547q0-201 74.5-297T698 154q177 0 251.5 96t74.5 297v883h199V586q0-319-122.5-465T692-25q-145 0-244 36T288 124.5t-87.5 189T174 586v844zm627 137H588l-236 299 101 73 241-237 242 237 100-73z"/><glyph glyph-name="uni01D4" unicode="ǔ" horiz-adv-x="1175" d="M817 0v174h-10Q731-25 510-25 346-25 252 83t-94 300v678h190V412q0-271 225-271 99 0 171.5 50.5T817 336v725h191V0H817zM688 1223H475l-235 299 100 73 242-239 241 239 101-73z"/><glyph glyph-name="uni01D5" unicode="Ǖ" horiz-adv-x="1396" d="M174 1430h199V547q0-201 74.5-297T698 154q177 0 251.5 96t74.5 297v883h199V586q0-319-122.5-465T692-25q-145 0-244 36T288 124.5t-87.5 189T174 586v844zm229 462v154h582v-154H403zm84-329q-58 0-86 27.5t-28 74.5v31q0 47 28 74.5t86 27.5 86.5-27.5T602 1696v-31q0-47-28.5-74.5T487 1563zm414 0q-58 0-86.5 27.5T786 1665v31q0 47 28.5 74.5T901 1798t86.5-27.5 28.5-74.5v-31q0-47-28.5-74.5T901 1563z"/><glyph glyph-name="uni01D6" unicode="ǖ" horiz-adv-x="1175" d="M817 0v174h-10Q731-25 510-25 346-25 252 83t-94 300v678h190V412q0-271 225-271 99 0 171.5 50.5T817 336v725h191V0H817zM291 1548v154h581v-154H291zm84-329q-58 0-85.5 26.5T262 1319v29q0 47 27.5 73.5T375 1448q112 0 112-100v-29q0-100-112-100zm413 0q-112 0-112 100v29q0 100 112 100 58 0 85.5-26.5T901 1348v-29q0-47-27.5-73.5T788 1219z"/><glyph glyph-name="uni01D7" unicode="Ǘ" horiz-adv-x="1396" d="M174 1430h199V547q0-201 74.5-297T698 154q177 0 251.5 96t74.5 297v883h199V586q0-319-122.5-465T692-25q-145 0-244 36T288 124.5t-87.5 189T174 586v844zm772 690l-227-332-113 53 180 359zm-459-557q-58 0-86 27.5t-28 74.5v31q0 47 28 74.5t86 27.5 86.5-27.5T602 1696v-31q0-47-28.5-74.5T487 1563zm414 0q-58 0-86.5 27.5T786 1665v31q0 47 28.5 74.5T901 1798t86.5-27.5 28.5-74.5v-31q0-47-28.5-74.5T901 1563z"/><glyph glyph-name="uni01D8" unicode="ǘ" horiz-adv-x="1175" d="M817 0v174h-10Q731-25 510-25 346-25 252 83t-94 300v678h190V412q0-271 225-271 99 0 171.5 50.5T817 336v725h191V0H817zm17 1776l-228-332-112 53 180 356zm-459-557q-58 0-85.5 26.5T262 1319v29q0 47 27.5 73.5T375 1448q112 0 112-100v-29q0-100-112-100zm413 0q-112 0-112 100v29q0 100 112 100 58 0 85.5-26.5T901 1348v-29q0-47-27.5-73.5T788 1219z"/><glyph glyph-name="uni01D9" unicode="Ǚ" horiz-adv-x="1396" d="M174 1430h199V547q0-201 74.5-297T698 154q177 0 251.5 96t74.5 297v883h199V586q0-319-122.5-465T692-25q-145 0-244 36T288 124.5t-87.5 189T174 586v844zm621 411H594l-240 281 95 73 245-225 246 225 94-73zm-308-278q-58 0-86 27.5t-28 74.5v31q0 47 28 74.5t86 27.5 86.5-27.5T602 1696v-31q0-47-28.5-74.5T487 1563zm414 0q-58 0-86.5 27.5T786 1665v31q0 47 28.5 74.5T901 1798t86.5-27.5 28.5-74.5v-31q0-47-28.5-74.5T901 1563z"/><glyph glyph-name="uni01DA" unicode="ǚ" horiz-adv-x="1175" d="M817 0v174h-10Q731-25 510-25 346-25 252 83t-94 300v678h190V412q0-271 225-271 99 0 171.5 50.5T817 336v725h191V0H817zM682 1497H481l-239 281 94 73 246-225 245 225 95-73zm-307-278q-58 0-85.5 26.5T262 1319v29q0 47 27.5 73.5T375 1448q112 0 112-100v-29q0-100-112-100zm413 0q-112 0-112 100v29q0 100 112 100 58 0 85.5-26.5T901 1348v-29q0-47-27.5-73.5T788 1219z"/><glyph glyph-name="uni01DB" unicode="Ǜ" horiz-adv-x="1396" d="M174 1430h199V547q0-201 74.5-297T698 154q177 0 251.5 96t74.5 297v883h199V586q0-319-122.5-465T692-25q-145 0-244 36T288 124.5t-87.5 189T174 586v844zm496 358l-228 332 160 80 180-359zm-183-225q-58 0-86 27.5t-28 74.5v31q0 47 28 74.5t86 27.5 86.5-27.5T602 1696v-31q0-47-28.5-74.5T487 1563zm414 0q-58 0-86.5 27.5T786 1665v31q0 47 28.5 74.5T901 1798t86.5-27.5 28.5-74.5v-31q0-47-28.5-74.5T901 1563z"/><glyph glyph-name="uni01DC" unicode="ǜ" horiz-adv-x="1175" d="M817 0v174h-10Q731-25 510-25 346-25 252 83t-94 300v678h190V412q0-271 225-271 99 0 171.5 50.5T817 336v725h191V0H817zM557 1444l-227 332 159 77 181-356zm-182-225q-58 0-85.5 26.5T262 1319v29q0 47 27.5 73.5T375 1448q112 0 112-100v-29q0-100-112-100zm413 0q-112 0-112 100v29q0 100 112 100 58 0 85.5-26.5T901 1348v-29q0-47-27.5-73.5T788 1219z"/><glyph glyph-name="Aringacute" unicode="Ǻ" horiz-adv-x="1329" d="M1284 0h-209L940 403H383L246 0H45l496 1430h250zM891 580l-225 667h-11L430 580h461zm12 1650l-217-213-98 54 172 233zm-237-727q-107 0-179.5 67.5T414 1741t72.5 170 179.5 67 179.5-67 72.5-170-72.5-170.5T666 1503zm0 109q56 0 86 28t30 80v41q0 52-30 80.5t-86 28.5-86.5-28.5T549 1761v-41q0-52 30.5-80t86.5-28z"/><glyph glyph-name="aringacute" unicode="ǻ" horiz-adv-x="1107" d="M1049 0H940q-84 0-129.5 47.5T754 176h-11Q711 79 631 27T436-25q-165 0-257.5 85.5T86 293q0 155 113.5 235T539 608h200v97q0 221-235 221-167 0-260-152L129 879q51 93 148 149.5t237 56.5q198 0 307-96t109-268V162h119V0zM479 129q113 0 186.5 51.5T739 311v164H537q-252 0-252-151v-41q0-73 52-113.5T479 129zm273 1749l-213-211-90 66 176 237zm-230-719q-107 0-179.5 67.5T270 1397t72.5 170 179.5 67 179.5-67 72.5-170-72.5-170.5T522 1159zm0 109q56 0 86.5 27.5T639 1376v41q0 53-30.5 81t-86.5 28-86-27.5-30-81.5v-41q0-108 116-108z"/><glyph glyph-name="AEacute" unicode="Ǽ" horiz-adv-x="1882" d="M862 0v406H408L209 0H6l725 1430h1022v-177h-692V811h641V635h-641V176h692V0H862zm0 1253h-31L489 578h373v675zm625 619l-227-332-121 57 180 357z"/><glyph glyph-name="aeacute" unicode="ǽ" horiz-adv-x="1769" d="M739 483H537q-252-9-252-157v-41q0-75 51-115.5T481 129q110 0 184 51.5T739 311v172zm193 133h543v21q0 132-71.5 213.5T1214 932q-125 0-203.5-85T932 631v-15zm299-479q192 0 287 170l122-102q-56-106-164.5-168T1231-25q-78 0-149 22.5T961.5 55t-82 75-43.5 79h-13q-10-38-39.5-77.5T707 56 588.5-2.5 434-25q-160 0-254 86.5T86 291q0 157 117 241t336 84h200v89q0 107-58 164t-171 57q-175 0-266-152L129 879q50 92 148 149t239 57q249 0 328-219h12q27 81 130 150t243 69q208 0 328-146.5T1677 563v-80H930v-43q0-133 81.5-218t219.5-85zm-131 1391l-228-332-120 55 180 359z"/><glyph glyph-name="Oslashacute" unicode="Ǿ" horiz-adv-x="1449" d="M725-25Q523-25 379 76L258-96 129-12l135 198Q115 377 115 715q0 355 163.5 547T725 1454q204 0 346-100l121 172 129-84-135-199q149-191 149-528 0-355-163.5-547.5T725-25zM328 598q0-141 55-248l584 848q-101 78-242 78-179 0-288-121T328 831V598zm794 233q0 141-55 248L483 231q100-77 242-77 179 0 288 120.5T1122 598v233zM971 1872l-228-332-120 57 180 357z"/><glyph glyph-name="oslashacute" unicode="ǿ" horiz-adv-x="1163" d="M170-86L63-6l138 170Q98 311 98 530q0 252 133 403.5T582 1085q164 0 286-92l125 154 107-80-137-172q102-142 102-365 0-252-132.5-403.5T582-25q-167 0-287 91zm412 225q128 0 204 80.5T862 451v159q0 76-22 140L397 201q71-62 185-62zM301 451q0-81 21-140l444 549q-74 62-184 62-128 0-204.5-80.5T301 610V451zm524 1077l-227-332-121 55 180 359z"/><glyph glyph-name="Scommaaccent" unicode="Ș" horiz-adv-x="1204" d="M596-25Q270-25 84 221l141 127q153-198 379-198 144 0 221.5 67.5T903 401q0 94-56.5 147.5T657 631l-120 24q-205 42-307.5 139T127 1055q0 188 131 293.5T612 1454q310 0 478-227l-146-117q-124 170-342 170-132 0-205-56t-73-161q0-93 59-142.5T573 842l121-25q211-46 308.5-143.5T1100 412q0-200-134-318.5T596-25zm-2-100q54 0 83.5-27t29.5-75v-25q0-72-36-141.5T580-514H451q45 45 70 83t38 85q-38 7-58 33.5T481-248v21q0 48 29.5 75t83.5 27z"/><glyph glyph-name="scommaaccent" unicode="ș" horiz-adv-x="1003" d="M494-25Q231-25 70 180l129 111q126-158 307-158 100 0 154.5 42T715 291q0 62-39 100t-131 51l-90 15q-164 23-254 96t-90 213q0 152 106 235.5t279 83.5q129 0 220.5-43T879 915L758 801q-42 56-111 91.5T489 928q-95 0-144.5-40.5T295 778q0-68 44-102.5T479 627l90-15q171-26 250.5-100.5T899 311q0-155-109-245.5T494-25zm2-100q53 0 82.5-27t29.5-75v-25q0-72-36-141.5T481-514H352q46 46 71 83.5t38 84.5q-38 7-58 33.5T383-248v21q0 48 29.5 75t83.5 27z"/><glyph glyph-name="uni021A" unicode="Ț" horiz-adv-x="1177" d="M489 0v1253H47v177h1083v-177H688V0H489zm101-125q53 0 82.5-27t29.5-75v-25q0-72-36-141.5T575-514H446q46 46 71 83.5t38 84.5q-38 7-58 33.5T477-248v21q0 48 29.5 75t83.5 27z"/><glyph glyph-name="uni021B" unicode="ț" horiz-adv-x="731" d="M629 0H428q-97 0-149 53.5T227 201v698H57v162h95q53 0 73.5 21.5T246 1159v195h172v-293h227V899H418V162h211V0zM442-125q54 0 83.5-27t29.5-75v-25q0-72-36-141.5T428-514H299q46 46 71 83.5t38 84.5q-38 7-58 33.5T330-248v21q0 48 29.5 75t82.5 27z"/><glyph glyph-name="uni0237" unicode="ȷ" horiz-adv-x="526" d="M-2-410v162h170v1309h190V-154q0-121-60.5-188.5T115-410H-2z"/><glyph glyph-name="uni0259" unicode="ə" horiz-adv-x="1130" d="M92 578h748v43q0 132-79.5 217.5T557 924q-210 0-299-172L135 856q55 105 165.5 167t256.5 62q221 0 351-151t130-404-130-404T557-25q-145 0-251.5 69t-160 186.5T92 498v80zm203-134v-20q0-133 71.5-214T557 129q124 0 203.5 85T840 430v14H295z"/><glyph glyph-name="uni02BB" unicode="ʻ" d="M616 1210q-53 0-82.5 27.5T504 1313v24q0 71 36 141t91 121h129q-46-46-71-83t-38-84q38-7 58-34t20-65v-20q0-48-30-75.5t-83-27.5z"/><glyph glyph-name="uni02BC" unicode="ʼ" d="M788 1516l-112-392H551l22 392h215z"/><glyph glyph-name="circumflex" unicode="ˆ" d="M508 1579h213l235-299-100-74-242 238-241-238-101 74z"/><glyph glyph-name="caron" unicode="ˇ" d="M721 1223H508l-236 299 101 73 241-239 242 239 100-73z"/><glyph glyph-name="breve" unicode="˘" d="M614 1214q-64 0-115.5 18t-83.5 43-59 65.5-40 71.5-27 75l106 53 41-67q36-59 73.5-87t104.5-28 105 28.5 74 86.5l41 67 106-53q-14-44-27.5-75t-40-71.5T814 1275t-84-43-116-18z"/><glyph glyph-name="dotaccent" unicode="˙" d="M614 1251q-59 0-88.5 28.5T496 1356v28q0 48 29.5 76.5T614 1489t89-28.5 30-76.5v-28q0-48-30-76.5t-89-28.5z"/><glyph glyph-name="ring" unicode="˚" d="M614 1174q-105 0-177 70t-72 175 72 175.5 177 70.5 177.5-70.5T864 1419t-72.5-175-177.5-70zm0 110q55 0 86 29t31 82v49q0 53-31 81.5t-86 28.5-85.5-28.5T498 1444v-49q0-53 30.5-82t85.5-29z"/><glyph glyph-name="ogonek" unicode="˛" d="M514-426q-90 0-147.5 40T309-266q0 76 54 136.5T528 4l-10 41h125l19-45Q534-109 494.5-158.5T455-246q0-61 65-61 62 0 101 51l88-86q-21-37-72-60.5T514-426z"/><glyph glyph-name="tilde" unicode="˜" d="M766 1249q-10 0-20.5 1t-19 2-19 4-16.5 4.5-17 5.5-15 5.5-15.5 7.5-14 7-14.5 7-13 7q-92 48-145 48-33 0-59.5-12.5T336 1294l-74 92q75 113 201 113 10 0 20.5-1t19-2 19-4 16.5-4.5 17-5.5 15-5.5 15.5-7.5 14-7 14.5-7 13-7q90-47 145-47 33 0 59.5 12.5T893 1454l74-92q-75-113-201-113z"/><glyph glyph-name="hungarumlaut" unicode="˝" d="M686 1530l-227-332-113 51 180 359zm346 0l-229-332-111 51 180 359z"/><glyph glyph-name="uni0300" unicode="̀" horiz-adv-x="0" d="M-18 1196l-228 332 168 82 180-359z"/><glyph glyph-name="uni0301" unicode="́" horiz-adv-x="0" d="M246 1528L18 1196l-120 55 180 359z"/><glyph glyph-name="uni0302" unicode="̂" horiz-adv-x="0" d="M-106 1579h212l236-299-100-74L0 1444l-242-238-100 74z"/><glyph glyph-name="uni0303" unicode="̃" horiz-adv-x="0" d="M152 1249q-10 0-20.5 1t-19 2-19 4-16.5 4.5-17 5.5-15 5.5-15.5 7.5-14 7-14.5 7-13 7q-92 48-146 48-33 0-59.5-12.5T-279 1294l-73 92q75 113 200 113 10 0 20.5-1t19-2 19-4 16.5-4.5 17-5.5 15-5.5 15.5-7.5 14-7 14.5-7 13-7q90-47 146-47 33 0 59.5 12.5T279 1454l73-92q-75-113-200-113z"/><glyph glyph-name="uni0304" unicode="̄" horiz-adv-x="0" d="M-291 1300v152h582v-152h-582z"/><glyph glyph-name="uni0306" unicode="̆" horiz-adv-x="0" d="M0 1214q-64 0-116 18t-84 43-58.5 65.5-40 71.5-27.5 75l107 53 41-67q36-59 73.5-87T0 1358t104.5 28 73.5 87l41 67 107-53q-14-44-27.5-75t-40-71.5T200 1275t-84-43-116-18z"/><glyph glyph-name="uni0307" unicode="̇" horiz-adv-x="0" d="M0 1251q-59 0-89 28.5t-30 76.5v28q0 48 30 76.5T0 1489t89-28.5 30-76.5v-28q0-48-30-76.5T0 1251z"/><glyph glyph-name="uni0308" unicode="̈" horiz-adv-x="0" d="M-197 1260q-112 0-112 100v29q0 100 112 100 113 0 113-100v-29q0-100-113-100zm394 0q-113 0-113 100v29q0 100 113 100 112 0 112-100v-29q0-100-112-100z"/><glyph glyph-name="uni0309" unicode="̉" horiz-adv-x="0" d="M-186 1438v143H51q79 0 116.5-33.5T205 1462q0-94-105-221l-49-63-106 53 112 207h-243z"/><glyph glyph-name="uni030A" unicode="̊" horiz-adv-x="0" d="M0 1174q-105 0-177.5 70t-72.5 175 72.5 175.5T0 1665t177.5-70.5T250 1419t-72.5-175T0 1174zm0 110q55 0 86 29t31 82v49q0 53-31 81.5T0 1554t-86-28.5-31-81.5v-49q0-53 31-82t86-29z"/><glyph glyph-name="uni030B" unicode="̋" horiz-adv-x="0" d="M72 1530l-228-332-112 51 180 359zm346 0l-230-332-110 51 180 359z"/><glyph glyph-name="uni030C" unicode="̌" horiz-adv-x="0" d="M106 1223h-212l-236 299 100 73L0 1356l242 239 100-73z"/><glyph glyph-name="uni0312" unicode="̒" horiz-adv-x="0" d="M0 1210q-53 0-83 27.5t-30 75.5v24q0 71 36 141t91 121h129q-45-45-70-82.5T35 1432q38-7 58-34t20-65v-20q0-48-30-75.5T0 1210z"/><glyph glyph-name="uni0315" unicode="̕" horiz-adv-x="0" d="M238 1516l-113-392H0l23 392h215z"/><glyph glyph-name="uni031B" unicode="̛" horiz-adv-x="0" d="M176 1292v-211q0-69-31-106T33 938h-209v123H10v231h166z"/><glyph glyph-name="uni0323" unicode="̣" horiz-adv-x="0" d="M0-360q-58 0-87.5 27.5T-117-258v27q0 47 29.5 74.5T0-129t87.5-27.5T117-231v-27q0-47-29.5-74.5T0-360z"/><glyph glyph-name="uni0326" unicode="̦" horiz-adv-x="0" d="M0-125q54 0 83.5-27t29.5-75v-25q0-72-36-141.5T-14-514h-129q86 86 108 168-38 7-58 33.5t-20 64.5v21q0 48 29.5 75T0-125z"/><glyph glyph-name="uni0327" unicode="̧" horiz-adv-x="0" d="M25-426q-79 0-132.5 25t-78.5 61l80 88q46-57 126-57 40 0 65.5 15.5T111-248q0 31-30 52t-112 32l-55 8 41 201H63L31-123l6-6q41 12 82 12 64 0 102.5-35T260-252q0-87-66.5-130.5T25-426z"/><glyph glyph-name="uni0328" unicode="̨" horiz-adv-x="0" d="M-147-426q-90 0-147.5 40T-352-266q0 76 54 136.5T-133 4l-10 41h125L0 0q-128-109-167.5-158.5T-207-246q0-61 66-61 61 0 100 51l88-86q-21-37-71.5-60.5T-147-426z"/><glyph glyph-name="uni037E" unicode=";" horiz-adv-x="610" d="M305 260q68 0 101.5-34.5T440 131v-31q0-93-52-197T248-274H98q67 68 105.5 127.5T260-18q-90 18-90 118v31q0 60 33.5 94.5T305 260zm0 541q-68 0-101.5 34.5T170 928v30q0 58 33.5 92.5T305 1085t101.5-34.5T440 958v-30q0-58-33.5-92.5T305 801z"/><glyph glyph-name="tonos" unicode="΄" d="M809 1585l-115-389-131 16 62 400z"/><glyph glyph-name="dieresistonos" unicode="΅" d="M375 1262q-49 0-75 26t-26 72v26q0 47 26 74t75 27q48 0 74-27t26-74v-26q0-46-25.5-72t-74.5-26zm377 325l-115-391-105 16 62 400zm125-325q-49 0-74 25.5t-25 72.5v26q0 47 25.5 74t73.5 27q50 0 75-27t25-74v-26q0-98-100-98z"/><glyph glyph-name="Alphatonos" unicode="Ά" horiz-adv-x="1329" d="M1284 0h-209L940 403H383L246 0H45l496 1430h250zM891 580l-225 667h-11L430 580h461zM317 1585l-114-389-131 16 61 400z"/><glyph glyph-name="anoteleia" unicode="·" horiz-adv-x="610" d="M305 801q-68 0-101.5 34.5T170 928v30q0 58 33.5 92.5T305 1085t101.5-34.5T440 958v-30q0-58-33.5-92.5T305 801z"/><glyph glyph-name="Epsilontonos" unicode="Έ" horiz-adv-x="1284" d="M1155 0H264v1430h891v-177H463V811h641V635H463V176h692V0zM199 1585L84 1196l-131 16 61 400z"/><glyph glyph-name="Etatonos" unicode="Ή" horiz-adv-x="1533" d="M1151 0v635H463V0H264v1430h199V811h688v619h199V0h-199zM199 1585L84 1196l-131 16 61 400z"/><glyph glyph-name="Iotatonos" unicode="Ί" horiz-adv-x="978" d="M860 0H264v168h199v1094H264v168h596v-168H662V168h198V0zM199 1585L84 1196l-131 16 61 400z"/><glyph glyph-name="Omicrontonos" unicode="Ό" horiz-adv-x="1472" d="M748-25q-283 0-447 192.5T137 715t164 547 447 192 446.5-192T1358 715t-163.5-547.5T748-25zm0 179q179 0 288 120.5T1145 598v233q0 203-109 324t-288 121-288.5-121T350 831V598q0-203 109-323.5T748 154zM199 1585L84 1196l-131 16 61 400z"/><glyph glyph-name="Upsilontonos" unicode="Ύ" horiz-adv-x="1429" d="M909 0H711v563l-492 867h227l367-666h6l365 666h221L909 569V0zM199 1585L84 1196l-131 16 61 400z"/><glyph glyph-name="Omegatonos" unicode="Ώ" horiz-adv-x="1486" d="M133 0v176h326v21q-140 74-229 224.5T141 782q0 104 23 200.5t72.5 182.5T357 1315t173 101.5 224 37.5 223.5-37.5 172-101 119.5-150 72-183 23-200.5q0-210-88.5-360.5T1047 197v-21h325V0H885v266q103 37 184.5 164.5T1151 702v181q0 72-27.5 142t-76.5 126.5-126 91.5-167 35-167-35-127-91.5-78-126.5-28-142V702q0-144 82-271.5T621 266V0H133zm66 1585L84 1196l-131 16 61 400z"/><glyph glyph-name="iotadieresistonos" unicode="ΐ" horiz-adv-x="616" d="M569 162V0H371q-97 0-150 54t-53 147v860h190V162h211zM37 1262q-49 0-74.5 26t-25.5 72v26q0 47 26 74t74 27 74-27 26-74v-26q0-46-25.5-72T37 1262zm377 325l-115-391-104 16 61 400zm125-325q-49 0-74 25.5t-25 72.5v26q0 47 25.5 74t73.5 27q50 0 75-27t25-74v-26q0-98-100-98z"/><glyph glyph-name="Alpha" unicode="Α" horiz-adv-x="1329" d="M1284 0h-209L940 403H383L246 0H45l496 1430h250zM891 580l-225 667h-11L430 580h461z"/><glyph glyph-name="Beta" unicode="Β" horiz-adv-x="1345" d="M184 0v1430h609q176 0 279.5-100.5T1176 1061q0-61-15.5-111.5T1121 866t-57-57-65-35.5-65-15.5v-13q45-2 92-21.5t93.5-56.5 76-103.5T1225 412q0-175-106.5-293.5T854 0H184zm199 649V172h412q103 0 160 52t57 151v71q0 99-57 151t-160 52H383zm0 608V817h379q94 0 147.5 49t53.5 138v67q0 89-53.5 137.5T762 1257H383z"/><glyph glyph-name="Gamma" unicode="Γ" horiz-adv-x="1028" d="M184 0v1430h791v-177H383V0H184z"/><glyph glyph-name="uni0394" unicode="Δ" horiz-adv-x="1333" d="M92 0v172l449 1258h252l448-1258V0H92zm938 174L668 1247h-11L293 174h737z"/><glyph glyph-name="Epsilon" unicode="Ε" horiz-adv-x="1204" d="M1075 0H184v1430h891v-177H383V811h641V635H383V176h692V0z"/><glyph glyph-name="Zeta" unicode="Ζ" horiz-adv-x="1200" d="M1124 176V0H76v178l798 1075H117v177h981v-179L295 176h829z"/><glyph glyph-name="Eta" unicode="Η" horiz-adv-x="1454" d="M1071 0v635H383V0H184v1430h199V811h688v619h199V0h-199z"/><glyph glyph-name="Theta" unicode="Θ" horiz-adv-x="1456" d="M729-25q-286 0-450 192T115 715q0 355 164 547t450 192q284 0 448-192t164-547-164-547.5T729-25zm0 177q179 0 289 121.5T1128 598v233q0 203-110 325t-289 122q-181 0-291-122T328 831V598q0-203 110-324.5T729 152zm287 483H440v176h576V635z"/><glyph glyph-name="Iota" unicode="Ι" horiz-adv-x="833" d="M715 0H119v168h198v1094H119v168h596v-168H516V168h199V0z"/><glyph glyph-name="Kappa" unicode="Κ" horiz-adv-x="1323" d="M1038 0L582 688 383 463V0H184v1430h199V684h8l203 254 412 492h237L721 821 1282 0h-244z"/><glyph glyph-name="Lambda" unicode="Λ" horiz-adv-x="1304" d="M528 1430h248L1260 0h-209L819 715l-166 528h-10L479 715 248 0H45z"/><glyph glyph-name="Mu" unicode="Μ" horiz-adv-x="1662" d="M184 0v1430h250l397-752h9l397 752h242V0h-193v1155h-10l-117-235-328-601-327 601-117 235h-10V0H184z"/><glyph glyph-name="Nu" unicode="Ν" horiz-adv-x="1454" d="M1049 0L580 782l-197 359h-6V0H184v1430h222l468-783 197-358h6v1141h193V0h-221z"/><glyph glyph-name="Xi" unicode="Ξ" horiz-adv-x="1204" d="M127 1253v177h950v-177H127zm90-618v176h770V635H217zM127 0v176h950V0H127z"/><glyph glyph-name="Omicron" unicode="Ο" horiz-adv-x="1449" d="M725-25q-283 0-446.5 192.5T115 715t163.5 547T725 1454t446.5-192T1335 715t-163.5-547.5T725-25zm0 179q179 0 288 120.5T1122 598v233q0 203-109 324t-288 121-288-121-109-324V598q0-203 109-323.5T725 154z"/><glyph glyph-name="Pi" unicode="Π" horiz-adv-x="1425" d="M184 0v1430h1057V0h-199v1253H383V0H184z"/><glyph glyph-name="Rho" unicode="Ρ" horiz-adv-x="1261" d="M383 0H184v1430h590q191 0 298.5-113.5T1180 1010t-107.5-306.5T774 590H383V0zm0 1253V766h383q96 0 149.5 50T969 958v103q0 92-53.5 142T766 1253H383z"/><glyph glyph-name="Sigma" unicode="Σ" horiz-adv-x="1181" d="M1063 0H84v178l498 543-482 530v179h963v-175H338l481-530-506-551h750V0z"/><glyph glyph-name="Tau" unicode="Τ" horiz-adv-x="1177" d="M489 0v1253H47v177h1083v-177H688V0H489z"/><glyph glyph-name="Upsilon" unicode="Υ" horiz-adv-x="1234" d="M715 0H516v563L25 1430h227l366-666h7l364 666h221L715 569V0z"/><glyph glyph-name="Phi" unicode="Φ" horiz-adv-x="1742" d="M772-66V63h-35q-198 0-343 86.5t-217.5 235T104 725t72.5 340T394 1299.5t343 86.5h35v105h199v-105h35q198 0 343-86.5t217-234.5 72-340q0-143-42-264t-121-209.5T1275.5 113 1006 63h-35V-66H772zm4 295v992h-37q-189 0-306.5-122T315 788V662q0-189 117.5-311T739 229h37zm191 0h37q189 0 306 122t117 311v126q0 189-117 311t-306 122h-37V229z"/><glyph glyph-name="Chi" unicode="Χ" horiz-adv-x="1277" d="M45 0l467 731-453 699h238l342-553h6l350 553h224L764 733 1233 0H995L635 586h-6L268 0H45z"/><glyph glyph-name="Psi" unicode="Ψ" horiz-adv-x="1636" d="M719 0v406q-272 0-426 140T139 958v472h199V958q0-389 381-389v861h199V569q380 0 380 389v472h199V958q0-272-153.5-412T918 406V0H719z"/><glyph glyph-name="uni03A9" unicode="Ω" horiz-adv-x="1468" d="M115 0v176h325v21q-140 74-228.5 224.5T123 782q0 104 23 200.5t72.5 182.5 120 150T511 1416.5t224 37.5 224-37.5 172.5-101 119.5-150 72-183 23-200.5q0-210-89-360.5T1028 197v-21h326V0H866v266q103 37 185 164.5t82 271.5v181q0 72-27.5 142t-77 126.5T902 1243t-167 35-167-35-126.5-91.5T364 1025t-28-142V702q0-144 81.5-271.5T602 266V0H115z"/><glyph glyph-name="Iotadieresis" unicode="Ϊ" horiz-adv-x="833" d="M715 0H119v168h198v1094H119v168h596v-168H516V168h199V0zM221 1604q-112 0-112 100v33q0 100 112 100 113 0 113-100v-33q0-100-113-100zm393 0q-112 0-112 100v33q0 100 112 100 113 0 113-100v-33q0-100-113-100z"/><glyph glyph-name="Upsilondieresis" unicode="Ϋ" horiz-adv-x="1234" d="M715 0H516v563L25 1430h227l366-666h7l364 666h221L715 569V0zM422 1604q-113 0-113 100v33q0 100 113 100t113-100v-33q0-100-113-100zm393 0q-113 0-113 100v33q0 100 113 100t113-100v-33q0-100-113-100z"/><glyph glyph-name="alphatonos" unicode="ά" horiz-adv-x="1327" d="M1255 162V0h-98q-90 0-138 41t-65 137l-30 184h-9Q871 167 777.5 71T524-25q-193 0-308.5 150.5T100 530t115.5 404.5T524 1085q159 0 256.5-95.5T922 698h8l55 211 53 152h203l-225-526 127-373h112zm-727-23q87 0 142.5 49.5T772 365l59 165-59 166q-46 127-101 175.5T528 920q-96 0-160.5-82T303 606V455q0-150 64.5-233T528 139zm201 1446l-115-389-131 16 62 400z"/><glyph glyph-name="epsilontonos" unicode="έ" horiz-adv-x="1064" d="M887 297l123-104Q873-25 547-25q-210 0-321 84T115 285q0 214 260 262v8q-113 12-174.5 69.5T139 780q0 134 114 219.5t308 85.5q151 0 262-52t174-148L868 776q-43 70-121 108t-182 38q-113 0-169-40t-56-98v-22q0-64 49.5-102.5T524 621h244V471H520q-205 0-205-149v-25q0-76 62.5-117T561 139q228 0 326 158zM735 1585l-114-389-132 16 62 400z"/><glyph glyph-name="etatonos" unicode="ή" horiz-adv-x="1187" d="M373 0H182v899H66v162h120q86 0 134.5-47.5T371 885h10q82 200 299 200 164 0 258-107.5t94-299.5V-410H842V649q0 133-57 202t-167 69q-101 0-173-50.5T373 727V0zm411 1585l-114-389-131 16 61 400z"/><glyph glyph-name="iotatonos" unicode="ί" horiz-adv-x="616" d="M569 162V0H371q-97 0-150 54t-53 147v860h190V162h211zM451 1585l-115-389-131 16 61 400z"/><glyph glyph-name="upsilondieresistonos" unicode="ΰ" horiz-adv-x="1169" d="M346 1061V469q0-170 56.5-250T584 139q126 0 182.5 79.5T823 469v592h191V502q0-268-107.5-397.5T584-25q-214 0-321 129.5T156 502v559h190zm0 201q-49 0-74.5 26t-25.5 72v26q0 47 26 74t74 27 74-27 26-74v-26q0-46-25.5-72t-74.5-26zm377 325l-115-391-104 16 61 400zm125-325q-49 0-73.5 25.5T750 1360v26q0 47 25 74t73 27q50 0 75-27t25-74v-26q0-98-100-98z"/><glyph glyph-name="alpha" unicode="α" horiz-adv-x="1327" d="M1255 162V0h-98q-90 0-138 41t-65 137l-30 184h-9Q871 167 777.5 71T524-25q-193 0-308.5 150.5T100 530t115.5 404.5T524 1085q159 0 256.5-95.5T922 698h8l55 211 53 152h203l-225-526 127-373h112zm-727-23q87 0 142.5 49.5T772 365l59 165-59 166q-46 127-101 175.5T528 920q-96 0-160.5-82T303 606V455q0-150 64.5-233T528 139z"/><glyph glyph-name="beta" unicode="β" horiz-adv-x="1206" d="M168-410v1461q0 230 113.5 359.5T608 1540q195 0 307.5-101t112.5-270q0-143-77.5-231.5T760 827v-10q67-8 125.5-32.5t108-69 78-116.5 28.5-165q0-200-117.5-329.5T666-25q-103 0-181 41.5T367 133h-9v-543H168zM516 735v160h90q109 0 165 58.5t56 160.5v51q0 98-56.5 153.5T600 1374q-121 0-181.5-71T358 1081V299q0-73 74-115.5T614 141q134 0 209.5 71.5T899 414v53q0 127-75.5 197.5T616 735H516z"/><glyph glyph-name="gamma" unicode="γ" horiz-adv-x="1042" d="M432-410V0L129 899H20v162h95q78 0 124-31.5T311 922l123-379 90-330h13l104 330 186 518h183L623 0v-410H432z"/><glyph glyph-name="delta" unicode="δ" horiz-adv-x="1150" d="M948 1354H555l-152 14v-8l279-215q207-157 292-298.5t85-314.5q0-257-133-407T573-25q-216 0-348.5 149T92 512q0 127 35 230.5t94.5 169 136 100.5 162.5 35v10l-291 250v209h719v-162zm-92-856q0 153-48.5 251T610 979q-142-18-228.5-122.5T295 578V451q0-152 75.5-232T573 139q130 0 206.5 79.5T856 451v47z"/><glyph glyph-name="epsilon" unicode="ε" horiz-adv-x="1064" d="M887 297l123-104Q873-25 547-25q-210 0-321 84T115 285q0 214 260 262v8q-113 12-174.5 69.5T139 780q0 134 114 219.5t308 85.5q151 0 262-52t174-148L868 776q-43 70-121 108t-182 38q-113 0-169-40t-56-98v-22q0-64 49.5-102.5T524 621h244V471H520q-205 0-205-149v-25q0-76 62.5-117T561 139q228 0 326 158z"/><glyph glyph-name="zeta" unicode="ζ" horiz-adv-x="880" d="M129 1354v162h729v-146L500 915Q385 771 340 667t-45-196v-29q0-103 57-164.5T537 182l147-39q73-18 109-60t36-101q0-29-14-76l-70-238-174 49 76 256-147 39Q274 69 183 166.5T92 446q0 121 52 238.5T346 987l295 369v10l-133-12H129z"/><glyph glyph-name="eta" unicode="η" horiz-adv-x="1187" d="M373 0H182v899H66v162h120q86 0 134.5-47.5T371 885h10q82 200 299 200 164 0 258-107.5t94-299.5V-410H842V649q0 133-57 202t-167 69q-101 0-173-50.5T373 727V0z"/><glyph glyph-name="theta" unicode="θ" horiz-adv-x="1157" d="M578 1540q91 0 162.5-24.5t130-81 96.5-146 59-222.5 21-308-20.5-308-59-223-97-146.5-130-81T578-25 415.5-.5t-130 81-97 146.5-59 223T109 758t21 308 59 222.5 96.5 146 130 81T578 1540zM311 963V838h533v125q0 223-67 320t-199 97-199.5-97T311 963zm267-828q132 0 199 97t67 321v125H311V553q0-223 67.5-320.5T578 135z"/><glyph glyph-name="iota" unicode="ι" horiz-adv-x="616" d="M569 162V0H371q-97 0-150 54t-53 147v860h190V162h211z"/><glyph glyph-name="kappa" unicode="κ" horiz-adv-x="1099" d="M838 0L496 494 358 348V0H168v1061h190V553h9l110 133 283 307q35 38 69.5 53t85.5 15h101V899H895L629 614 1067 0H838z"/><glyph glyph-name="lambda" unicode="λ" horiz-adv-x="1054" d="M426 1061l-96 293H125v162h192q83 0 127-31.5t66-102.5L907 162h129V0H920q-83 0-126 31t-67 102L604 516l-90 344h-12L395 516 197 0H12z"/><glyph glyph-name="uni03BC" unicode="μ" horiz-adv-x="1198" d="M358-410H168v1471h190V410q0-132 57-200.5T584 141q99 0 171 52t72 145v723h191V162h117V0h-111q-90 0-141 48t-54 128h-10Q752-25 569-25q-91 0-153 47t-92 134h-9l43-301v-265z"/><glyph glyph-name="nu" unicode="ν" horiz-adv-x="1058" d="M645 0H422L129 899H20v162h95q79 0 125.5-32T311 920l121-383 100-351h11l112 351 187 524h182z"/><glyph glyph-name="xi" unicode="ξ" horiz-adv-x="927" d="M881 1354H608q-108 0-170.5-64T375 1108v-31q0-101 57.5-157T596 864h164V702H580q-273 0-273-237v-33q0-97 57.5-155.5T551 184l154-41q73-18 109-60t36-101q0-29-14-76l-70-238-174 49 76 256-154 39Q289 70 197.5 166.5T106 440q0 137 83.5 231.5T418 786v9q-123 29-182.5 100.5T176 1085q0 93 47.5 159t136.5 95v15H88v162h793v-162z"/><glyph glyph-name="omicron" unicode="ο" horiz-adv-x="1150" d="M575-25q-218 0-350.5 151.5T92 530t132.5 403.5T575 1085t351-151.5T1059 530 926 126.5 575-25zm0 164q128 0 204.5 80.5T856 451v159q0 151-76.5 231.5T575 922t-204-80.5T295 610V451q0-151 76-231.5T575 139z"/><glyph glyph-name="pi" unicode="π" horiz-adv-x="1286" d="M1012 899V162h133V0h-121q-96 0-149.5 53.5T821 197v702H428V0H238v899H49v162h1172V899h-209z"/><glyph glyph-name="rho" unicode="ρ" horiz-adv-x="1140" d="M115-410V594q0 219 120.5 355T580 1085q228 0 344-142t116-406q0-266-113-414T612-25q-101 0-181 42T313 133h-8v-543H115zm444 549q136 0 207.5 81T838 451v161q0 147-70.5 228.5T571 922t-196-81-70-229V299q0-71 75-115.5T559 139z"/><glyph glyph-name="sigma1" unicode="ς" horiz-adv-x="999" d="M614-283l74 256-225 62Q271 87 181.5 206.5T92 541q0 252 123.5 398T551 1085q140 0 238-66.5T938 831l-158-77q-27 79-87.5 123.5T547 922q-117 0-184.5-82.5T295 623V487q0-225 254-294l178-50q72-18 107.5-60T870-18q0-36-12-76l-72-238z"/><glyph glyph-name="sigma" unicode="σ" horiz-adv-x="1196" d="M1145 899H874v-14q96-47 140.5-137t44.5-234q0-241-134.5-390T573-25 224 124 92 518q0 250 132 396.5T594 1061h551V899zm-414 0H594q-141 0-220-78.5T295 590V449q0-151 75.5-230.5T573 139q129 0 206 79.5T856 449v141q0 102-30 174t-95 135z"/><glyph glyph-name="tau" unicode="τ" horiz-adv-x="985" d="M797 0H578q-97 0-150 54t-53 147v698H41v162h881V899H565V162h232V0z"/><glyph glyph-name="upsilon" unicode="υ" horiz-adv-x="1169" d="M346 1061V469q0-170 56.5-250T584 139q126 0 182.5 79.5T823 469v592h191V502q0-268-107.5-397.5T584-25q-214 0-321 129.5T156 502v559h190z"/><glyph glyph-name="phi" unicode="φ" horiz-adv-x="1486" d="M631-410v385q-235 0-383 148.5T100 518q0 211 74.5 354T391 1085l111-129q-104-56-151.5-149T303 563v-94q0-164 91.5-248T631 137v438q0 510 368 510 193 0 289-125.5t96-398.5q0-283-148.5-434.5T819-25v-385H631zM819 625V137q171 0 267 80.5t96 251.5v156q0 161-46 229t-137 68q-88 0-134-68.5T819 625z"/><glyph glyph-name="chi" unicode="χ" horiz-adv-x="1034" d="M27 1061h127q81 0 123-28.5T348 930l176-424h6l261 555h206L635 352l254-600h139v-162H901q-81 0-122.5 28.5T709-281L518 188h-6L240-410H33l377 752-242 557H27v162z"/><glyph glyph-name="psi" unicode="ψ" horiz-adv-x="1499" d="M844-410H655v385q-241 0-370 143T156 526v535h190V475q0-338 309-338v1317h189V137q309 0 309 338v586h190V526q0-265-129-408T844-25v-385z"/><glyph glyph-name="omega" unicode="ω" horiz-adv-x="1521" d="M856 723V436q0-161 45.5-229t134.5-68 135 68.5 46 228.5v127q0 287-199 393l110 129q291-139 291-587 0-265-95-394T1061-25q-122 0-195 70T766 240h-8Q731 115 657 45T461-25q-168 0-263.5 129T102 498q0 443 291 587l111-129q-103-56-151-149.5T305 563V436q0-161 45.5-229T485 139t135 68.5T666 436v287h190z"/><glyph glyph-name="iotadieresis" unicode="ϊ" horiz-adv-x="616" d="M569 162V0H371q-97 0-150 54t-53 147v860h190V162h211zM82 1260q-113 0-113 100v29q0 100 113 100t113-100v-29q0-100-113-100zm393 0q-113 0-113 100v29q0 100 113 100t113-100v-29q0-100-113-100z"/><glyph glyph-name="upsilondieresis" unicode="ϋ" horiz-adv-x="1169" d="M346 1061V469q0-170 56.5-250T584 139q126 0 182.5 79.5T823 469v592h191V502q0-268-107.5-397.5T584-25q-214 0-321 129.5T156 502v559h190zm45 199q-112 0-112 100v29q0 100 112 100 113 0 113-100v-29q0-100-113-100zm393 0q-112 0-112 100v29q0 100 112 100 113 0 113-100v-29q0-100-113-100z"/><glyph glyph-name="omicrontonos" unicode="ό" horiz-adv-x="1150" d="M575-25q-218 0-350.5 151.5T92 530t132.5 403.5T575 1085t351-151.5T1059 530 926 126.5 575-25zm0 164q128 0 204.5 80.5T856 451v159q0 151-76.5 231.5T575 922t-204-80.5T295 610V451q0-151 76-231.5T575 139zm170 1446l-114-389-131 16 61 400z"/><glyph glyph-name="upsilontonos" unicode="ύ" horiz-adv-x="1169" d="M346 1061V469q0-170 56.5-250T584 139q126 0 182.5 79.5T823 469v592h191V502q0-268-107.5-397.5T584-25q-214 0-321 129.5T156 502v559h190zm414 524l-115-389-131 16 61 400z"/><glyph glyph-name="omegatonos" unicode="ώ" horiz-adv-x="1521" d="M856 723V436q0-161 45.5-229t134.5-68 135 68.5 46 228.5v127q0 287-199 393l110 129q291-139 291-587 0-265-95-394T1061-25q-122 0-195 70T766 240h-8Q731 115 657 45T461-25q-168 0-263.5 129T102 498q0 443 291 587l111-129q-103-56-151-149.5T305 563V436q0-161 45.5-229T485 139t135 68.5T666 436v287h190zm74 862l-115-389-131 16 61 400z"/><glyph glyph-name="uni0400" unicode="Ѐ" horiz-adv-x="1204" d="M1075 0H184v1430h891v-177H383V811h641V635H383V176h692V0zM608 1540l-227 332 168 82 180-357z"/><glyph glyph-name="uni0401" unicode="Ё" horiz-adv-x="1204" d="M1075 0H184v1430h891v-177H383V811h641V635H383V176h692V0zM430 1604q-113 0-113 100v33q0 100 113 100t113-100v-33q0-100-113-100zm393 0q-112 0-112 100v33q0 100 112 100 113 0 113-100v-33q0-100-113-100z"/><glyph glyph-name="uni0402" unicode="Ђ" horiz-adv-x="1617" d="M1028-344v178h180q95 82 95 299v258q0 172-80 253t-238 81q-191 0-297-45V0H489v1253H47v177h1083v-177H688V854h10q117 47 297 47 256 0 381-127t125-385V131q0-475-377-475h-96z"/><glyph glyph-name="uni0403" unicode="Ѓ" horiz-adv-x="1028" d="M184 0v1430h791v-177H383V0H184zm635 1872l-227-332-121 57 180 357z"/><glyph glyph-name="uni0404" unicode="Є" horiz-adv-x="1308" d="M715-25q-288 0-444 187.5T115 707t157 552 443 195q363 0 510-315l-162-95q-93 234-348 234-184 0-284.5-123T328 821v-10h577V635H328v-39q2-209 102-326.5T715 152q268 0 360 247l160-98q-71-156-201.5-241T715-25z"/><glyph glyph-name="uni0405" unicode="Ѕ" horiz-adv-x="1204" d="M596-25Q270-25 84 221l141 127q153-198 379-198 144 0 221.5 67.5T903 401q0 94-56.5 147.5T657 631l-120 24q-205 42-307.5 139T127 1055q0 188 131 293.5T612 1454q310 0 478-227l-146-117q-124 170-342 170-132 0-205-56t-73-161q0-93 59-142.5T573 842l121-25q211-46 308.5-143.5T1100 412q0-200-134-318.5T596-25z"/><glyph glyph-name="uni0406" unicode="І" horiz-adv-x="833" d="M715 0H119v168h198v1094H119v168h596v-168H516V168h199V0z"/><glyph glyph-name="uni0407" unicode="Ї" horiz-adv-x="833" d="M715 0H119v168h198v1094H119v168h596v-168H516V168h199V0zM219 1604q-113 0-113 100v33q0 100 113 100t113-100v-33q0-100-113-100zm393 0q-112 0-112 100v33q0 100 112 100 113 0 113-100v-33q0-100-113-100z"/><glyph glyph-name="uni0408" unicode="Ј" horiz-adv-x="1062" d="M211 1430h678V379q0-184-115.5-294T469-25q-170 0-276 91.5T55 315l183 41q44-202 233-202 104 0 161.5 63.5T690 406v847H211v177z"/><glyph glyph-name="uni0409" unicode="Љ" horiz-adv-x="2093" d="M25-2v178h151q94 92 134 273.5t40 572.5v408h844V866h410q193 0 300-114.5T2011 434t-107-318.5T1604 0H995v1253H541v-247q0-279-24.5-466.5T451 252 346 88Q256-2 104-2H25zm1169 178h403q97 0 150 52t53 153v104q0 102-53 153.5T1597 690h-403V176z"/><glyph glyph-name="uni040A" unicode="Њ" horiz-adv-x="2127" d="M184 0v1430h199V811h647v619h199V866h411q193 0 299.5-114.5T2046 434q0-204-106.5-319T1640 0h-610v635H383V0H184zm1045 176h403q97 0 150 52t53 153v104q0 102-53 153.5T1632 690h-403V176z"/><glyph glyph-name="uni040B" unicode="Ћ" horiz-adv-x="1638" d="M489 0v1253H47v177h1083v-177H688V854h10q117 47 308 47 263 0 389.5-126.5T1522 389V0h-199v391q0 173-81.5 253.5T995 725q-201 0-307-45V0H489z"/><glyph glyph-name="uni040C" unicode="Ќ" horiz-adv-x="1359" d="M184 0v1430h199V811h264l275 471q46 80 94 114t117 34h100v-177h-127L870 850q-31-55-57-79.5T745 733v-10q49-9 86-39t76-96l244-412h125V0h-133q-62 0-110 34t-93 111L647 639H383V0H184zm731 1872l-227-332-121 57 181 357z"/><glyph glyph-name="uni040D" unicode="Ѝ" horiz-adv-x="1454" d="M184 0v1430h193V571l-21-295h6l144 261 588 893h176V0h-193v858l19 295h-6L946 893 362 0H184zm523 1540l-228 332 168 82 180-357z"/><glyph glyph-name="uni040E" unicode="Ў" horiz-adv-x="1232" d="M285 0v176h215l61 152L37 1430h215l289-613 108-254h8l95 258 241 609h201L694 186Q648 76 591.5 38T416 0H285zm346 1559q-210 0-293 172l-43 84 162 67 69-176q46-12 105-12 57 0 104 12l70 176 162-67-43-84q-83-172-293-172z"/><glyph glyph-name="uni040F" unicode="Џ" horiz-adv-x="1425" d="M621-307V0H184v1430h199V176h659v1254h199V0H805v-307H621z"/><glyph glyph-name="uni0410" unicode="А" horiz-adv-x="1329" d="M1284 0h-209L940 403H383L246 0H45l496 1430h250zM891 580l-225 667h-11L430 580h461z"/><glyph glyph-name="uni0411" unicode="Б" horiz-adv-x="1310" d="M184 0v1430h893v-177H383V862h414q192 0 298.5-115T1202 430q0-201-106.5-315.5T797 0H184zm199 176h408q97 0 149.5 52T993 381v98q0 103-52.5 155T791 686H383V176z"/><glyph glyph-name="uni0412" unicode="В" horiz-adv-x="1345" d="M184 0v1430h609q176 0 279.5-100.5T1176 1061q0-61-15.5-111.5T1121 866t-57-57-65-35.5-65-15.5v-13q45-2 92-21.5t93.5-56.5 76-103.5T1225 412q0-175-106.5-293.5T854 0H184zm199 649V172h412q103 0 160 52t57 151v71q0 99-57 151t-160 52H383zm0 608V817h379q94 0 147.5 49t53.5 138v67q0 89-53.5 137.5T762 1257H383z"/><glyph glyph-name="uni0413" unicode="Г" horiz-adv-x="1028" d="M184 0v1430h791v-177H383V0H184z"/><glyph glyph-name="uni0414" unicode="Д" horiz-adv-x="1521" d="M23-307v483h151q92 126 139 324t47 504v426h891V176h207v-483h-184V0H207v-307H23zm380 483h650v1077H551V985q0-572-148-801v-8z"/><glyph glyph-name="uni0415" unicode="Е" horiz-adv-x="1204" d="M1075 0H184v1430h891v-177H383V811h641V635H383V176h692V0z"/><glyph glyph-name="uni0416" unicode="Ж" horiz-adv-x="2013" d="M84 0v176h129l205 408q33 64 69.5 96t85.5 43v10q-45 13-77 42.5T436 864l-184 389H123v177h110q71 0 122.5-35.5T446 1278l222-467h239v619h199V811h240l223 467q39 81 89.5 116.5T1780 1430h110v-177h-129l-186-389q-28-60-59.5-89.5T1440 733v-10q49-11 86.5-43t70.5-96l203-408h129V0h-137q-67 0-114.5 34T1587 154l-241 485h-240V0H907v639H668L424 154q-43-87-89.5-120.5T221 0H84z"/><glyph glyph-name="uni0417" unicode="З" horiz-adv-x="1220" d="M578-25Q256-25 72 221l141 121q135-190 365-190 150 0 229.5 60T887 391v25q0 108-70.5 167.5T600 643H379v174h209q139 0 203.5 56.5T856 1047v24q0 99-67 153t-199 54q-218 0-332-158l-143 107q82 113 196.5 170t278.5 57q232 0 355.5-101.5T1069 1075q0-142-73.5-225T793 743v-10q135-15 221-98t86-234q0-194-140-310T578-25z"/><glyph glyph-name="uni0418" unicode="И" horiz-adv-x="1454" d="M184 0v1430h193V571l-21-295h6l144 261 588 893h176V0h-193v858l19 295h-6L946 893 362 0H184z"/><glyph glyph-name="uni0419" unicode="Й" horiz-adv-x="1454" d="M184 0v1430h193V571l-21-295h6l144 261 588 893h176V0h-193v858l19 295h-6L946 893 362 0H184zm539 1559q-210 0-293 172l-43 84 162 67 69-176q47-12 105-12 57 0 104 12l70 176 162-67-43-84q-83-172-293-172z"/><glyph glyph-name="uni041A" unicode="К" horiz-adv-x="1359" d="M184 0v1430h199V811h264l275 471q46 80 94 114t117 34h100v-177h-127L870 850q-31-55-57-79.5T745 733v-10q49-9 86-39t76-96l244-412h125V0h-133q-62 0-110 34t-93 111L647 639H383V0H184z"/><glyph glyph-name="uni041B" unicode="Л" horiz-adv-x="1423" d="M25-2v178h151q94 92 134 273.5t40 572.5v408h889V0h-199v1253H541v-247q0-279-24.5-466.5T451 252 346 88Q256-2 104-2H25z"/><glyph glyph-name="uni041C" unicode="М" horiz-adv-x="1662" d="M184 0v1430h250l397-752h9l397 752h242V0h-193v1155h-10l-117-235-328-601-327 601-117 235h-10V0H184z"/><glyph glyph-name="uni041D" unicode="Н" horiz-adv-x="1454" d="M1071 0v635H383V0H184v1430h199V811h688v619h199V0h-199z"/><glyph glyph-name="uni041E" unicode="О" horiz-adv-x="1449" d="M725-25q-283 0-446.5 192.5T115 715t163.5 547T725 1454t446.5-192T1335 715t-163.5-547.5T725-25zm0 179q179 0 288 120.5T1122 598v233q0 203-109 324t-288 121-288-121-109-324V598q0-203 109-323.5T725 154z"/><glyph glyph-name="uni041F" unicode="П" horiz-adv-x="1425" d="M184 0v1430h1057V0h-199v1253H383V0H184z"/><glyph glyph-name="uni0420" unicode="Р" horiz-adv-x="1261" d="M383 0H184v1430h590q191 0 298.5-113.5T1180 1010t-107.5-306.5T774 590H383V0zm0 1253V766h383q96 0 149.5 50T969 958v103q0 92-53.5 142T766 1253H383z"/><glyph glyph-name="uni0421" unicode="С" horiz-adv-x="1284" d="M702-25q-276 0-431.5 192.5T115 715t155.5 547T702 1454q358 0 500-317l-164-95q-41 110-126 172t-210 62q-174 0-274-121.5T328 823V606q0-210 100-331t274-121q128 0 218 66.5T1051 401l159-96q-70-157-200-243.5T702-25z"/><glyph glyph-name="uni0422" unicode="Т" horiz-adv-x="1177" d="M489 0v1253H47v177h1083v-177H688V0H489z"/><glyph glyph-name="uni0423" unicode="У" horiz-adv-x="1232" d="M285 0v176h215l61 152L37 1430h215l289-613 108-254h8l95 258 241 609h201L694 186Q648 76 591.5 38T416 0H285z"/><glyph glyph-name="uni0424" unicode="Ф" horiz-adv-x="1748" d="M776-66v185h-67q-187 0-327.5 78t-213 212T96 713t72.5 303.5 213.5 212 329 78.5h65v184h199v-184h65q187 0 327.5-78t213-212 72.5-304q0-169-73-303.5T1366.5 197 1040 119h-65V-66H776zm-67 351h71v856h-69q-182 0-293-103.5T307 776V649q0-159 110.5-261.5T709 285zm262 0h69q181 0 292.5 102.5T1444 649v127q0 158-111 261.5T1040 1141h-69V285z"/><glyph glyph-name="uni0425" unicode="Х" horiz-adv-x="1277" d="M45 0l467 731-453 699h238l342-553h6l350 553h224L764 733 1233 0H995L635 586h-6L268 0H45z"/><glyph glyph-name="uni0426" unicode="Ц" horiz-adv-x="1511" d="M1264-307V0H184v1430h199V176h659v1254h199V176h207v-483h-184z"/><glyph glyph-name="uni0427" unicode="Ч" horiz-adv-x="1333" d="M950 0v553h-10q-117-47-307-47-263 0-389.5 125.5T117 1016v414h198v-416q0-173 81.5-253.5T643 680q201 0 307 45v705h199V0H950z"/><glyph glyph-name="uni0428" unicode="Ш" horiz-adv-x="1986" d="M184 0v1430h199V176h512v1254h199V176h510v1254h198V0H184z"/><glyph glyph-name="uni0429" unicode="Щ" horiz-adv-x="2072" d="M1825-307V0H184v1430h199V176h512v1254h199V176h510v1254h198V176h207v-483h-184z"/><glyph glyph-name="uni042A" unicode="Ъ" horiz-adv-x="1525" d="M406 0v1253H45v177h559V866h434q193 0 299.5-114.5T1444 434q0-204-106.5-319T1038 0H406zm198 176h428q97 0 149 52t52 153v104q0 103-52 154t-149 51H604V176z"/><glyph glyph-name="uni042B" unicode="Ы" horiz-adv-x="1814" d="M184 0v1430h199V866h414q193 0 299-114.5T1202 434q0-204-106.5-319T797 0H184zm199 176h408q97 0 148.5 52T991 381v104q0 103-51.5 154T791 690H383V176zM1432 0v1430h198V0h-198z"/><glyph glyph-name="uni042C" unicode="Ь" horiz-adv-x="1304" d="M184 0v1430h199V866h434q193 0 299.5-114.5T1223 434q0-204-106.5-319T817 0H184zm199 176h428q97 0 149 52t52 153v104q0 103-52 154t-149 51H383V176z"/><glyph glyph-name="uni042D" unicode="Э" horiz-adv-x="1308" d="M403 635v176h578v25q0 208-101 325t-286 117q-255 0-348-234l-164 95q150 315 512 315 288 0 443-187t155-544q0-358-156-553T594-25q-188 0-318.5 85T74 301l159 98q42-116 132-181.5T594 152q184 0 285.5 123T981 608v27H403z"/><glyph glyph-name="uni042E" unicode="Ю" horiz-adv-x="1990" d="M1280-25q-270 0-422.5 169T686 635H383V0H184v1430h199V811h307q15 307 168 475t422 168q284 0 440-188.5T1876 715t-156-551-440-189zm0 177q179 0 281 117.5T1663 598v233q0 211-102 329t-281 118-281-118-102-329V598q0-211 102-328.5T1280 152z"/><glyph glyph-name="uni042F" unicode="Я" horiz-adv-x="1325" d="M84 0v176h125l164 311q31 61 60 88.5t79 40.5v11q-181 7-274 110t-93 277q0 196 108 306t298 110h590V0H942v598H653L412 145q-44-84-88-114.5T215 0H84zm475 766h383v487H559q-96 0-149.5-50T356 1061V958q0-93 53.5-142.5T559 766z"/><glyph glyph-name="uni0430" unicode="а" horiz-adv-x="1107" d="M1049 0H940q-84 0-129.5 47.5T754 176h-11Q711 79 631 27T436-25q-165 0-257.5 85.5T86 293q0 155 113.5 235T539 608h200v97q0 221-235 221-167 0-260-152L129 879q51 93 148 149.5t237 56.5q198 0 307-96t109-268V162h119V0zM479 129q113 0 186.5 51.5T739 311v164H537q-252 0-252-151v-41q0-73 52-113.5T479 129z"/><glyph glyph-name="uni0431" unicode="б" horiz-adv-x="1157" d="M582-25q-482 0-482 660 0 301 56.5 485.5t175 276T647 1505l336 29v-191l-352-28q-90-8-147-33t-96.5-81-59-141T299 840h8q45 110 120 162.5t194 52.5q199 0 321.5-143.5T1065 518q0-243-133-393T582-25zm8 164q122 0 197 78.5T862 440v135q0 154-76 235t-211 81q-133 0-202.5-67.5T303 639V455q0-154 76-235t211-81z"/><glyph glyph-name="uni0432" unicode="в" horiz-adv-x="1148" d="M168 0v1061h547q132 0 207-72.5T997 793q0-201-211-228v-8q121-9 184.5-74t63.5-168q0-135-80.5-225T737 0H168zm190 150h330q68 0 107 36t39 103v49q0 65-39 101t-107 36H358V150zm0 468h306q63 0 98 31.5t35 91.5v47q0 60-35 91.5T664 911H358V618z"/><glyph glyph-name="uni0433" unicode="г" horiz-adv-x="894" d="M168 0v1061h678V899H358V0H168z"/><glyph glyph-name="uni0434" unicode="д" horiz-adv-x="1247" d="M16-287v449h125q135 212 135 594v305h744V162h178v-449h-174V0H190v-287H16zm328 449h485v737H459V745q0-377-115-583z"/><glyph glyph-name="uni0435" unicode="е" horiz-adv-x="1130" d="M573-25q-221 0-351 151T92 530t130 404 351 151q217 0 341-146.5T1038 563v-80H291v-43q0-135 79.5-219T590 137q197 0 287 172l122-104Q942 100 830.5 37.5T573-25zm0 957q-124 0-203-85t-79-216v-15h545v21q0 133-72 214t-191 81z"/><glyph glyph-name="uni0436" unicode="ж" horiz-adv-x="1613" d="M82 0v162h121l116 272q42 96 127 109v8q-79 25-122 117L219 899H98v162h103q129 0 194-133l140-303h178v436h190V625h178l140 303q62 133 194 133h103V899h-121l-107-231q-40-92-123-117v-8q85-13 127-109l117-272h121V0h-121q-63 0-109 32.5T1221 145l-140 322H903V0H713v467H535L393 145q-35-80-80.5-112.5T203 0H82z"/><glyph glyph-name="uni0437" unicode="з" horiz-adv-x="1038" d="M481-25q-155 0-256 52.5T55 184l133 115q44-76 118.5-118T481 139q118 0 180 42.5T723 297v25q0 73-49.5 111T532 471H303v150h207q91 0 139.5 36T698 760v22q0 140-221 140-188 0-276-150L78 877q123 208 409 208 204 0 308-76t104-210q0-192-207-236v-8q111-15 171.5-80T924 309q0-153-120-243.5T481-25z"/><glyph glyph-name="uni0438" unicode="и" horiz-adv-x="1214" d="M168 0v1061h186V504l-18-254h8l129 227 399 584h175V0H860v557l19 252h-9L741 584 342 0H168z"/><glyph glyph-name="uni0439" unicode="й" horiz-adv-x="1214" d="M168 0v1061h186V504l-18-254h8l129 227 399 584h175V0H860v557l19 252h-9L741 584 342 0H168zm440 1214q-210 0-293 172l-43 84 162 68 70-176q46-12 104-12t105 12l69 176 162-68-43-84q-83-172-293-172z"/><glyph glyph-name="uni043A" unicode="к" horiz-adv-x="1142" d="M168 0v1061h190V625h201l193 311q43 73 84.5 99t103.5 26h102V899H920L768 655q-32-52-54.5-72T651 551v-8q44-6 75-29.5t62-79.5l154-272h119V0H938q-61 0-107 30t-86 103L559 467H358V0H168z"/><glyph glyph-name="uni043B" unicode="л" horiz-adv-x="1175" d="M18-2v164h140q54 73 81 209t27 381v309h742V0H817v899H449V745q0-525-148-673Q230-2 88-2H18z"/><glyph glyph-name="uni043C" unicode="м" horiz-adv-x="1437" d="M168 0v1061h240l313-529h4l313 529h232V0h-187v829h-8l-65-120-291-494-291 494-66 120h-8V0H168z"/><glyph glyph-name="uni043D" unicode="н" horiz-adv-x="1214" d="M168 0v1061h190V627h498v434h191V0H856v465H358V0H168z"/><glyph glyph-name="uni043E" unicode="о" horiz-adv-x="1150" d="M575-25q-218 0-350.5 151.5T92 530t132.5 403.5T575 1085t351-151.5T1059 530 926 126.5 575-25zm0 164q128 0 204.5 80.5T856 451v159q0 151-76.5 231.5T575 922t-204-80.5T295 610V451q0-151 76-231.5T575 139z"/><glyph glyph-name="uni043F" unicode="п" horiz-adv-x="1181" d="M168 0v1061h846V0H823v899H358V0H168z"/><glyph glyph-name="uni0440" unicode="р" horiz-adv-x="1198" d="M168-410v1471h190V887h9q36 97 115.5 147.5T672 1085q199 0 312.5-148.5T1098 530 984.5 123.5 672-25q-110 0-189.5 51T367 174h-9v-584H168zm448 551q127 0 203 82.5T895 440v181q0 134-76 216.5T616 920q-108 0-183-55.5T358 725V336q0-84 75-139.5T616 141z"/><glyph glyph-name="uni0441" unicode="с" horiz-adv-x="1034" d="M569-25q-225 0-351 149T92 530t126 406 351 149q151 0 252.5-67.5T971 831l-158-77q-27 79-90 123.5T569 922q-133 0-203.5-82T295 623V438q0-135 70.5-217T569 139q188 0 271 180l139-86Q927 110 822.5 42.5T569-25z"/><glyph glyph-name="uni0442" unicode="т" horiz-adv-x="976" d="M393 0v899H41v162h895V899H584V0H393z"/><glyph glyph-name="uni0443" unicode="у" horiz-adv-x="1036" d="M584 383l237 678h185L545-231q-38-103-91-141t-171-38H178v162h174l72 205L31 1061h190l236-678 55-199h10z"/><glyph glyph-name="uni0444" unicode="ф" horiz-adv-x="1556" d="M684-410v521h-8Q593-25 449-25q-176 0-262.5 135.5T100 530q0 283 86.5 419T449 1085q144 0 227-137h8v506h190V948h7q86 137 227 137 177 0 262.5-135.5T1456 530q0-285-85-420T1108-25q-141 0-227 136h-7v-521H684zM508 135q178 0 178 137v514q0 140-178 140-109 0-157-70.5T303 623V436q0-161 48-231t157-70zm543 0q108 0 156 70.5t48 230.5v187q0 162-48 232.5T1051 926q-179 0-179-140V272q0-137 179-137z"/><glyph glyph-name="uni0445" unicode="х" horiz-adv-x="1060" d="M43 0l385 535-371 526h222l256-383h6l262 383h209L641 543 1018 0H797L535 401h-7L252 0H43z"/><glyph glyph-name="uni0446" unicode="ц" horiz-adv-x="1241" d="M1018-287V0H168v1061h190V162h467v899h191V162h176v-449h-174z"/><glyph glyph-name="uni0447" unicode="ч" horiz-adv-x="1118" d="M760 0v479h-10Q643 350 446 350q-167 0-255.5 85T102 686v375h191V700q0-94 53-139t162-45q113 0 182.5 33t69.5 92v420h190V0H760z"/><glyph glyph-name="uni0448" unicode="ш" horiz-adv-x="1652" d="M168 0v1061h190V162h373v899h191V162h372v899h191V0H168z"/><glyph glyph-name="uni0449" unicode="щ" horiz-adv-x="1710" d="M1487-287V0H168v1061h190V162h373v899h191V162h372v899h191V162h176v-449h-174z"/><glyph glyph-name="uni044A" unicode="ъ" horiz-adv-x="1226" d="M313 0v899H41v162h463V690h299q160 0 256-92.5t96-251.5q0-163-94.5-254.5T805 0H313zm191 158h268q182 0 182 145v84q0 145-182 145H504V158z"/><glyph glyph-name="uni044B" unicode="ы" horiz-adv-x="1515" d="M168 0v1061h190V690h277q161 0 256.5-93T987 344q0-161-94.5-252.5T637 0H168zm190 158h246q182 0 182 145v84q0 145-182 145H358V158zM1157 0v1061h191V0h-191z"/><glyph glyph-name="uni044C" unicode="ь" horiz-adv-x="1081" d="M168 0v1061h190V690h297q161 0 257-93t96-253q0-161-95-252.5T657 0H168zm190 158h267q182 0 182 145v84q0 145-182 145H358V158z"/><glyph glyph-name="uni044D" unicode="э" horiz-adv-x="1056" d="M326 461v149h436v15q0 136-73 216.5T477 922q-200 0-278-177L57 834q114 251 420 251 232 0 360-148.5T965 530 836.5 123.5 477-25q-160 0-259 65T63 227l156 80q60-168 258-168 139 0 212 80t73 219v23H326z"/><glyph glyph-name="uni044E" unicode="ю" horiz-adv-x="1615" d="M1055-25q-202 0-327 130.5T588 467H358V0H168v1061h190V625h234q22 217 144.5 338.5T1055 1085q217 0 343-148t126-407-126-407-343-148zm0 164q127 0 196.5 76t69.5 234v163q0 158-69.5 234T1055 922t-197-76-70-234V449q0-158 70-234t197-76z"/><glyph glyph-name="uni044F" unicode="я" horiz-adv-x="1116" d="M80 0v162h119l63 143q41 96 125 109v8q-134 14-207.5 93T106 727q0 153 95.5 243.5T459 1061h489V0H758v399H504L393 147q-35-81-81-114T201 0H80zm409 553h269v350H489q-182 0-182-145v-62q0-143 182-143z"/><glyph glyph-name="uni0450" unicode="ѐ" horiz-adv-x="1130" d="M573-25q-221 0-351 151T92 530t130 404 351 151q217 0 341-146.5T1038 563v-80H291v-43q0-135 79.5-219T590 137q197 0 287 172l122-104Q942 100 830.5 37.5T573-25zm0 957q-124 0-203-85t-79-216v-15h545v21q0 133-72 214t-191 81zm-16 264l-227 332 168 82 180-359z"/><glyph glyph-name="uni0451" unicode="ё" horiz-adv-x="1130" d="M573-25q-221 0-351 151T92 530t130 404 351 151q217 0 341-146.5T1038 563v-80H291v-43q0-135 79.5-219T590 137q197 0 287 172l122-104Q942 100 830.5 37.5T573-25zm0 957q-124 0-203-85t-79-216v-15h545v21q0 133-72 214t-191 81zm-194 328q-113 0-113 100v29q0 100 113 100t113-100v-29q0-100-113-100zm393 0q-113 0-113 100v29q0 100 113 100t113-100v-29q0-100-113-100z"/><glyph glyph-name="uni0452" unicode="ђ" horiz-adv-x="1171" d="M655-410v162h170v897q0 271-221 271-101 0-173.5-50.5T358 727V0H168v1239H37v141h131v136h190v-136h304v-141H358V887h9q83 198 299 198 165 0 257.5-107t92.5-300v-836q0-119-60.5-185.5T774-410H655z"/><glyph glyph-name="uni0453" unicode="ѓ" horiz-adv-x="894" d="M168 0v1061h678V899H358V0H168zm584 1528l-228-332-121 55 181 359z"/><glyph glyph-name="uni0454" unicode="є" horiz-adv-x="1056" d="M580-25q-233 0-360.5 148.5T92 530t127 406.5T578 1085q301 0 413-249l-157-80q-59 166-256 166-140 0-211.5-80.5T295 625v-15h434V461H295v-23q0-137 72-218t213-81q201 0 280 178l141-88Q880-25 580-25z"/><glyph glyph-name="uni0455" unicode="ѕ" horiz-adv-x="1003" d="M494-25Q231-25 70 180l129 111q126-158 307-158 100 0 154.5 42T715 291q0 62-39 100t-131 51l-90 15q-164 23-254 96t-90 213q0 152 106 235.5t279 83.5q129 0 220.5-43T879 915L758 801q-42 56-111 91.5T489 928q-95 0-144.5-40.5T295 778q0-68 44-102.5T479 627l90-15q171-26 250.5-100.5T899 311q0-155-109-245.5T494-25z"/><glyph glyph-name="uni0456" unicode="і" horiz-adv-x="526" d="M264 1282q-58 0-86 28t-28 76v29q0 48 28 76.5t86 28.5 86.5-28.5T379 1415v-29q0-48-28.5-76t-86.5-28zM168 0v1061h190V0H168z"/><glyph glyph-name="uni0457" unicode="ї" horiz-adv-x="526" d="M358 0H168v1061h190V0zM68 1260q-113 0-113 100v29q0 100 113 100 112 0 112-100v-29q0-100-112-100zm393 0q-113 0-113 100v29q0 100 113 100 112 0 112-100v-29q0-100-112-100z"/><glyph glyph-name="uni0458" unicode="ј" horiz-adv-x="526" d="M168-248v1309h190V-154q0-121-60.5-188.5T115-410H-2v162h170zm96 1530q-58 0-86 28t-28 76v29q0 48 28 76.5t86 28.5 86.5-28.5T379 1415v-29q0-48-28.5-76t-86.5-28z"/><glyph glyph-name="uni0459" unicode="љ" horiz-adv-x="1671" d="M18-2v164h140q54 73 81 209t27 381v309h703V690h276q161 0 257.5-93t96.5-253q0-162-94.5-253T1247 0H778v899H446V745q0-528-145-673Q230-2 88-2H18zm951 160h245q185 0 185 145v84q0 145-185 145H969V158z"/><glyph glyph-name="uni045A" unicode="њ" horiz-adv-x="1718" d="M168 0v1061h190V627h467v434h191V690h276q161 0 258-93t97-253q0-161-95-252.5T1294 0H825v465H358V0H168zm848 158h246q184 0 184 145v84q0 145-184 145h-246V158z"/><glyph glyph-name="uni045B" unicode="ћ" horiz-adv-x="1171" d="M358 0H168v1241H37v139h131v136h190v-136h304v-139H358V887h9q83 198 299 198 164 0 257-107.5t93-299.5V0H825v649q0 271-221 271-101 0-173.5-50.5T358 727V0z"/><glyph glyph-name="uni045C" unicode="ќ" horiz-adv-x="1142" d="M168 0v1061h190V625h201l193 311q43 73 84.5 99t103.5 26h102V899H920L768 655q-32-52-54.5-72T651 551v-8q44-6 75-29.5t62-79.5l154-272h119V0H938q-61 0-107 30t-86 103L559 467H358V0H168zm657 1528l-227-332-121 55 180 359z"/><glyph glyph-name="uni045D" unicode="ѝ" horiz-adv-x="1214" d="M168 0v1061h186V504l-18-254h8l129 227 399 584h175V0H860v557l19 252h-9L741 584 342 0H168zm422 1196l-228 332 168 82 181-359z"/><glyph glyph-name="uni045E" unicode="ў" horiz-adv-x="1036" d="M584 383l237 678h185L545-231q-38-103-91-141t-171-38H178v162h174l72 205L31 1061h190l236-678 55-199h10zm-64 831q-210 0-293 172l-43 84 162 68 70-176q46-12 104-12t105 12l69 176 162-68-43-84q-83-172-293-172z"/><glyph glyph-name="uni045F" unicode="џ" horiz-adv-x="1181" d="M504-287V0H168v1061h190V162h465v899h191V0H678v-287H504z"/><glyph glyph-name="uni0472" unicode="Ѳ" horiz-adv-x="1454" d="M727-25q-283 0-447.5 192.5T115 715t164.5 547T727 1454t447.5-192T1339 715t-164.5-547.5T727-25zm0 175q181 0 292 122t111 326v37H324v-37q0-204 111-326t292-122zM324 831v-20h806v20q0 204-111 326.5T727 1280t-292-122.5T324 831z"/><glyph glyph-name="uni0473" unicode="ѳ" horiz-adv-x="1148" d="M573-25q-217 0-349 151T92 530t132 404 349 151q218 0 351-151.5T1057 530 924 126.5 573-25zm0 160q130 0 207.5 79.5T858 446v21H291v-21q0-152 76.5-231.5T573 135zM291 614v-6h567v6q0 152-77.5 232T573 926q-129 0-205.5-80T291 614z"/><glyph glyph-name="uni0490" unicode="Ґ" horiz-adv-x="1028" d="M184 0v1430h607v307h184v-484H383V0H184z"/><glyph glyph-name="uni0491" unicode="ґ" horiz-adv-x="894" d="M168 0v1061h504v287h174V899H358V0H168z"/><glyph glyph-name="uni0492" unicode="Ғ" horiz-adv-x="1073" d="M229 0v670H33v151h196v609h791v-177H428V821h395V670H428V0H229z"/><glyph glyph-name="uni0493" unicode="ғ" horiz-adv-x="931" d="M205 0v461H57v141h148v459h678V899H395V602h320V461H395V0H205z"/><glyph glyph-name="uni0494" unicode="Ҕ" horiz-adv-x="1312" d="M690-344v178h178q129 89 129 336v141q0 173-79 254.5T680 647q-184 0-297-45V0H184v1430h791v-177H383V774h10q117 47 297 47 256 0 381-126t125-386V168q0-245-112-378.5T786-344h-96z"/><glyph glyph-name="uni0495" unicode="ҕ" horiz-adv-x="1116" d="M590-410v162h174q61 71 61 271v194q0 129-49.5 181.5T610 451q-114 0-183-32.5T358 326V0H168v1061h678V899H358V487h11q104 129 303 129 174 0 259-91t85-294V-2q0-205-82-306.5T700-410H590z"/><glyph glyph-name="uni0496" unicode="Җ" horiz-adv-x="2035" d="M1823-307V0h-31q-67 0-114.5 34T1587 154l-241 485h-240V0H907v639H668L424 154q-43-87-89.5-120.5T221 0H84v176h129l205 408q33 64 69.5 96t85.5 43v10q-45 13-77 42.5T436 864l-184 389H123v177h110q71 0 122.5-35.5T446 1278l222-467h239v619h199V811h240l223 467q39 81 89.5 116.5T1780 1430h110v-177h-129l-186-389q-28-60-59.5-89.5T1440 733v-10q49-11 86.5-43t70.5-96l203-408h207v-483h-184z"/><glyph glyph-name="uni0497" unicode="җ" horiz-adv-x="1626" d="M1415-287V0h-6q-62 0-107.5 32.5T1221 145l-140 322H903V0H713v467H535L393 145q-35-80-80.5-112.5T203 0H82v162h121l116 272q42 96 127 109v8q-79 25-122 117L219 899H98v162h103q129 0 194-133l140-303h178v436h190V625h178l140 303q62 133 194 133h103V899h-121l-107-231q-40-92-123-117v-8q85-13 127-109l117-272h178v-449h-174z"/><glyph glyph-name="uni0498" unicode="Ҙ" horiz-adv-x="1220" d="M492-307v289Q225 9 72 221l141 121q135-190 365-190 150 0 229.5 60T887 391v25q0 108-70.5 167.5T600 643H379v174h209q139 0 203.5 56.5T856 1047v24q0 99-67 153t-199 54q-218 0-332-158l-143 107q82 113 196.5 170t278.5 57q232 0 355.5-101.5T1069 1075q0-142-73.5-225T793 743v-10q135-15 221-98t86-234q0-172-113-284T674-18v-289H492z"/><glyph glyph-name="uni0499" unicode="ҙ" horiz-adv-x="1038" d="M395-287v269Q276-6 195.5 44T55 184l133 115q44-76 118.5-118T481 139q118 0 180 42.5T723 297v25q0 73-49.5 111T532 471H303v150h207q91 0 139.5 36T698 760v22q0 140-221 140-188 0-276-150L78 877q123 208 409 208 204 0 308-76t104-210q0-192-207-236v-8q111-15 171.5-80T924 309q0-135-95.5-221.5T569-18v-269H395z"/><glyph glyph-name="uni049A" unicode="Қ" horiz-adv-x="1382" d="M1174-307V0h-31q-62 0-110 34t-93 111L647 639H383V0H184v1430h199V811h264l275 471q46 80 94 114t117 34h100v-177h-127L870 850q-31-55-57-79.5T745 733v-10q49-9 86-39t76-96l244-412h207v-483h-184z"/><glyph glyph-name="uni049B" unicode="қ" horiz-adv-x="1157" d="M946-287V0h-8q-61 0-107 30t-86 103L559 467H358V0H168v1061h190V625h201l193 311q43 73 84.5 99t103.5 26h102V899H920L768 655q-32-52-54.5-72T651 551v-8q44-6 75-29.5t62-79.5l154-272h178v-449H946z"/><glyph glyph-name="uni049C" unicode="Ҝ" horiz-adv-x="1441" d="M184 0v1430h199V811h111v307h151V811h105l251 467q42 81 92.5 116.5T1214 1430h99v-177h-127L973 858q-34-61-61.5-88.5T848 733v-10q48-9 83.5-39t72.5-98l227-410h125V0h-133q-62 0-108.5 33.5T1024 145L750 639H645V332H494v307H383V0H184z"/><glyph glyph-name="uni049D" unicode="ҝ" horiz-adv-x="1222" d="M168 0v1061h190V625h88v239h138V625h75l172 307q41 75 83.5 102t107.5 27h100V899H999L862 655q-30-53-51.5-73T754 551v-8q46-8 74.5-30t56.5-79l139-272h119V0h-123q-62 0-107.5 31T827 135L659 467h-75V227H446v240h-88V0H168z"/><glyph glyph-name="uni04A0" unicode="Ҡ" horiz-adv-x="1583" d="M406 0v1253H45v177h559V811h264l275 471q46 80 94 114t117 34h100v-177h-127l-235-403q-31-55-57-79.5T967 733v-10q49-9 85.5-39t75.5-96l244-412h125V0h-133q-62 0-110 34t-93 111L868 639H604V0H406z"/><glyph glyph-name="uni04A1" unicode="ҡ" horiz-adv-x="1290" d="M313 0v899H41v162h463V625h201l192 311q45 73 86 99t104 26h101V899h-123L913 655q-30-52-52.5-72T799 551v-8q44-6 75-29.5t62-79.5l154-272h118V0h-123q-62 0-107 30t-87 103L705 467H504V0H313z"/><glyph glyph-name="uni04A2" unicode="Ң" horiz-adv-x="1540" d="M1292-307V0h-221v635H383V0H184v1430h199V811h688v619h199V176h207v-483h-185z"/><glyph glyph-name="uni04A3" unicode="ң" horiz-adv-x="1271" d="M1049-287V0H856v465H358V0H168v1061h190V627h498v434h191V162h176v-449h-174z"/><glyph glyph-name="uni04A4" unicode="Ҥ" horiz-adv-x="1873" d="M184 0v1430h199V811h647v619h791v-177h-592V0h-199v635H383V0H184z"/><glyph glyph-name="uni04A5" unicode="ҥ" horiz-adv-x="1552" d="M168 0v1061h190V627h467v434h680V899h-489V0H825v465H358V0H168z"/><glyph glyph-name="uni04AA" unicode="Ҫ" horiz-adv-x="1284" d="M612-307v289Q376 13 245.5 202T115 715q0 355 155.5 547T702 1454q358 0 500-317l-164-95q-41 110-126 172t-210 62q-174 0-274-121.5T328 823V606q0-210 100-331t274-121q128 0 218 66.5T1051 401l159-96q-61-134-166-218T797-18v-289H612z"/><glyph glyph-name="uni04AB" unicode="ҫ" horiz-adv-x="1036" d="M483-287v271Q295 10 193.5 154T92 530q0 257 126 406t351 149q153 0 253.5-67.5T971 831l-158-77q-27 80-89.5 124T569 922q-133 0-203.5-82T295 623V438q0-136 70.5-217.5T569 139q188 0 271 178l141-84Q887 18 657-16v-271H483z"/><glyph glyph-name="uni04AE" unicode="Ү" horiz-adv-x="1234" d="M715 0H516v563L25 1430h227l366-666h7l364 666h221L715 569V0z"/><glyph glyph-name="uni04AF" unicode="ү" horiz-adv-x="1026" d="M418-410V0L33 1061h190l180-510 107-338h10l109 338 180 510h184L608 0v-410H418z"/><glyph glyph-name="uni04B0" unicode="Ұ" horiz-adv-x="1234" d="M516 0v414H188v149h328L25 1430h225l368-668h7l362 668h223L715 563h327V414H715V0H516z"/><glyph glyph-name="uni04B1" unicode="ұ" horiz-adv-x="1026" d="M418-410v269H166V0h252L33 1061h190l180-510 107-338h10l109 338 180 510h184L608 0h252v-141H608v-269H418z"/><glyph glyph-name="uni04B2" unicode="Ҳ" horiz-adv-x="1339" d="M1143-307V0H995L635 586h-6L268 0H45l467 731-453 699h238l342-553h6l350 553h224L764 733l356-557h207v-483h-184z"/><glyph glyph-name="uni04B3" unicode="ҳ" horiz-adv-x="1103" d="M913-287V0H797L535 401h-7L252 0H43l385 535-371 526h222l256-383h6l262 383h209L641 543l264-381h182v-449H913z"/><glyph glyph-name="uni04B6" unicode="Ҷ" horiz-adv-x="1419" d="M1171-307V0H950v553h-10q-117-47-307-47-263 0-389.5 125.5T117 1016v414h198v-416q0-173 81.5-253.5T643 680q201 0 307 45v705h199V176h207v-483h-185z"/><glyph glyph-name="uni04B7" unicode="ҷ" horiz-adv-x="1175" d="M952-287V0H760v479h-10Q643 350 446 350q-167 0-255.5 85T102 686v375h191V700q0-94 53-139t162-45q113 0 182.5 33t69.5 92v420h190V162h176v-449H952z"/><glyph glyph-name="uni04B8" unicode="Ҹ" horiz-adv-x="1341" d="M958 0v553h-10q-80-35-231-45V225H565v283q-228 15-338 140.5T117 1016v414h198v-416q0-151 62-232t188-98v330h152V680q153 6 241 45v705h199V0H958z"/><glyph glyph-name="uni04B9" unicode="ҹ" horiz-adv-x="1126" d="M768 0v469h-10q-66-80-160-104V176H463v174q-179 0-270 84.5T102 686v375h191V700q0-165 170-180v293h135V520q75 6 122.5 39t47.5 80v422h190V0H768z"/><glyph glyph-name="uni04BA" unicode="Һ" horiz-adv-x="1333" d="M184 0v1430h199V877h10q117 47 307 47 263 0 390-125.5T1217 414V0h-199v416q0 173-81 253.5T690 750q-201 0-307-45V0H184z"/><glyph glyph-name="uni04BB" unicode="һ" horiz-adv-x="1173" d="M168 0v1516h190V887h11q83 198 299 198 164 0 257-107.5t93-299.5V0H827v649q0 271-223 271-101 0-173.5-50.5T358 727V0H168z"/><glyph glyph-name="uni04C0" unicode="Ӏ" horiz-adv-x="833" d="M715 0H119v168h198v1094H119v168h596v-168H516V168h199V0z"/><glyph glyph-name="uni04C1" unicode="Ӂ" horiz-adv-x="2013" d="M84 0v176h129l205 408q33 64 69.5 96t85.5 43v10q-45 13-77 42.5T436 864l-184 389H123v177h110q71 0 122.5-35.5T446 1278l222-467h239v619h199V811h240l223 467q39 81 89.5 116.5T1780 1430h110v-177h-129l-186-389q-28-60-59.5-89.5T1440 733v-10q49-11 86.5-43t70.5-96l203-408h129V0h-137q-67 0-114.5 34T1587 154l-241 485h-240V0H907v639H668L424 154q-43-87-89.5-120.5T221 0H84zm922 1559q-210 0-293 172l-43 84 161 67 70-176q47-12 105-12t104 12l70 176 161-67-43-84q-83-172-292-172z"/><glyph glyph-name="uni04C2" unicode="ӂ" horiz-adv-x="1613" d="M82 0v162h121l116 272q42 96 127 109v8q-79 25-122 117L219 899H98v162h103q129 0 194-133l140-303h178v436h190V625h178l140 303q62 133 194 133h103V899h-121l-107-231q-40-92-123-117v-8q85-13 127-109l117-272h121V0h-121q-63 0-109 32.5T1221 145l-140 322H903V0H713v467H535L393 145q-35-80-80.5-112.5T203 0H82zm725 1214q-210 0-293 172l-43 84 162 68 69-176q47-12 105-12 57 0 104 12l70 176 162-68-43-84q-83-172-293-172z"/><glyph glyph-name="uni04CF" unicode="ӏ" horiz-adv-x="526" d="M168 0v1516h190V0H168z"/><glyph glyph-name="uni04D0" unicode="Ӑ" horiz-adv-x="1329" d="M1284 0h-209L940 403H383L246 0H45l496 1430h250zM891 580l-225 667h-11L430 580h461zm-227 979q-210 0-293 172l-43 84 161 67 70-176q47-12 105-12t104 12l70 176 161-67-43-84q-83-172-292-172z"/><glyph glyph-name="uni04D1" unicode="ӑ" horiz-adv-x="1107" d="M1049 0H940q-84 0-129.5 47.5T754 176h-11Q711 79 631 27T436-25q-165 0-257.5 85.5T86 293q0 155 113.5 235T539 608h200v97q0 221-235 221-167 0-260-152L129 879q51 93 148 149.5t237 56.5q198 0 307-96t109-268V162h119V0zM479 129q113 0 186.5 51.5T739 311v164H537q-252 0-252-151v-41q0-73 52-113.5T479 129zm43 1085q-210 0-293 172l-43 84 162 68 70-176q47-12 104-12 58 0 105 12l69 176 162-68-43-84q-83-172-293-172z"/><glyph glyph-name="uni04D2" unicode="Ӓ" horiz-adv-x="1329" d="M1284 0h-209L940 403H383L246 0H45l496 1430h250zM891 580l-225 667h-11L430 580h461zM469 1604q-113 0-113 100v33q0 100 113 100t113-100v-33q0-100-113-100zm393 0q-112 0-112 100v33q0 100 112 100 113 0 113-100v-33q0-100-113-100z"/><glyph glyph-name="uni04D3" unicode="ӓ" horiz-adv-x="1107" d="M1049 0H940q-84 0-129.5 47.5T754 176h-11Q711 79 631 27T436-25q-165 0-257.5 85.5T86 293q0 155 113.5 235T539 608h200v97q0 221-235 221-167 0-260-152L129 879q51 93 148 149.5t237 56.5q198 0 307-96t109-268V162h119V0zM479 129q113 0 186.5 51.5T739 311v164H537q-252 0-252-151v-41q0-73 52-113.5T479 129zM326 1260q-113 0-113 100v29q0 100 113 100 112 0 112-100v-29q0-100-112-100zm393 0q-113 0-113 100v29q0 100 113 100 112 0 112-100v-29q0-100-112-100z"/><glyph glyph-name="uni04D4" unicode="Ӕ" horiz-adv-x="1882" d="M862 0v406H408L209 0H6l725 1430h1022v-177h-692V811h641V635h-641V176h692V0H862zm0 1253h-31L489 578h373v675z"/><glyph glyph-name="uni04D5" unicode="ӕ" horiz-adv-x="1769" d="M739 483H537q-252-9-252-157v-41q0-75 51-115.5T481 129q110 0 184 51.5T739 311v172zm193 133h543v21q0 132-71.5 213.5T1214 932q-125 0-203.5-85T932 631v-15zm299-479q192 0 287 170l122-102q-56-106-164.5-168T1231-25q-78 0-149 22.5T961.5 55t-82 75-43.5 79h-13q-10-38-39.5-77.5T707 56 588.5-2.5 434-25q-160 0-254 86.5T86 291q0 157 117 241t336 84h200v89q0 107-58 164t-171 57q-175 0-266-152L129 879q50 92 148 149t239 57q249 0 328-219h12q27 81 130 150t243 69q208 0 328-146.5T1677 563v-80H930v-43q0-133 81.5-218t219.5-85z"/><glyph glyph-name="uni04D6" unicode="Ӗ" horiz-adv-x="1204" d="M1075 0H184v1430h891v-177H383V811h641V635H383V176h692V0zM625 1559q-210 0-293 172l-43 84 162 67 69-176q47-12 105-12 57 0 104 12l70 176 162-67-43-84q-83-172-293-172z"/><glyph glyph-name="uni04D7" unicode="ӗ" horiz-adv-x="1130" d="M573-25q-221 0-351 151T92 530t130 404 351 151q217 0 341-146.5T1038 563v-80H291v-43q0-135 79.5-219T590 137q197 0 287 172l122-104Q942 100 830.5 37.5T573-25zm0 957q-124 0-203-85t-79-216v-15h545v21q0 133-72 214t-191 81zm2 282q-209 0-292 172l-43 84 161 68 70-176q46-12 104-12 59 0 105 12l70 176 161-68-43-84q-83-172-293-172z"/><glyph glyph-name="uni04D8" unicode="Ә" horiz-adv-x="1458" d="M115 715v55h1018v51q0 203-115.5 329T729 1276q-137 0-232.5-70.5T350 1006l-170 75q63 167 205 270t344 103q286 0 450-195.5T1343 715t-164-544T729-25 279 171 115 715zm614-561q174 0 289 125.5T1133 608H326q6-205 118.5-329.5T729 154z"/><glyph glyph-name="uni04D9" unicode="ә" horiz-adv-x="1130" d="M92 578h748v43q0 132-79.5 217.5T557 924q-210 0-299-172L135 856q55 105 165.5 167t256.5 62q221 0 351-151t130-404-130-404T557-25q-145 0-251.5 69t-160 186.5T92 498v80zm203-134v-20q0-133 71.5-214T557 129q124 0 203.5 85T840 430v14H295z"/><glyph glyph-name="uni04DC" unicode="Ӝ" horiz-adv-x="2013" d="M84 0v176h129l205 408q33 64 69.5 96t85.5 43v10q-45 13-77 42.5T436 864l-184 389H123v177h110q71 0 122.5-35.5T446 1278l222-467h239v619h199V811h240l223 467q39 81 89.5 116.5T1780 1430h110v-177h-129l-186-389q-28-60-59.5-89.5T1440 733v-10q49-11 86.5-43t70.5-96l203-408h129V0h-137q-67 0-114.5 34T1587 154l-241 485h-240V0H907v639H668L424 154q-43-87-89.5-120.5T221 0H84zm727 1604q-113 0-113 100v33q0 100 113 100t113-100v-33q0-100-113-100zm393 0q-112 0-112 100v33q0 100 112 100 113 0 113-100v-33q0-100-113-100z"/><glyph glyph-name="uni04DD" unicode="ӝ" horiz-adv-x="1613" d="M82 0v162h121l116 272q42 96 127 109v8q-79 25-122 117L219 899H98v162h103q129 0 194-133l140-303h178v436h190V625h178l140 303q62 133 194 133h103V899h-121l-107-231q-40-92-123-117v-8q85-13 127-109l117-272h121V0h-121q-63 0-109 32.5T1221 145l-140 322H903V0H713v467H535L393 145q-35-80-80.5-112.5T203 0H82zm528 1260q-112 0-112 100v29q0 100 112 100 113 0 113-100v-29q0-100-113-100zm394 0q-113 0-113 100v29q0 100 113 100 112 0 112-100v-29q0-100-112-100z"/><glyph glyph-name="uni04DE" unicode="Ӟ" horiz-adv-x="1220" d="M578-25Q256-25 72 221l141 121q135-190 365-190 150 0 229.5 60T887 391v25q0 108-70.5 167.5T600 643H379v174h209q139 0 203.5 56.5T856 1047v24q0 99-67 153t-199 54q-218 0-332-158l-143 107q82 113 196.5 170t278.5 57q232 0 355.5-101.5T1069 1075q0-142-73.5-225T793 743v-10q135-15 221-98t86-234q0-194-140-310T578-25zM393 1604q-112 0-112 100v33q0 100 112 100 113 0 113-100v-33q0-100-113-100zm393 0q-112 0-112 100v33q0 100 112 100 113 0 113-100v-33q0-100-113-100z"/><glyph glyph-name="uni04DF" unicode="ӟ" horiz-adv-x="1038" d="M481-25q-155 0-256 52.5T55 184l133 115q44-76 118.5-118T481 139q118 0 180 42.5T723 297v25q0 73-49.5 111T532 471H303v150h207q91 0 139.5 36T698 760v22q0 140-221 140-188 0-276-150L78 877q123 208 409 208 204 0 308-76t104-210q0-192-207-236v-8q111-15 171.5-80T924 309q0-153-120-243.5T481-25zM287 1260q-113 0-113 100v29q0 100 113 100 112 0 112-100v-29q0-100-112-100zm393 0q-113 0-113 100v29q0 100 113 100t113-100v-29q0-100-113-100z"/><glyph glyph-name="uni04E2" unicode="Ӣ" horiz-adv-x="1454" d="M184 0v1430h193V571l-21-295h6l144 261 588 893h176V0h-193v858l19 295h-6L946 893 362 0H184zm250 1645v151h582v-151H434z"/><glyph glyph-name="uni04E3" unicode="ӣ" horiz-adv-x="1214" d="M168 0v1061h186V504l-18-254h8l129 227 399 584h175V0H860v557l19 252h-9L741 584 342 0H168zm149 1300v152h582v-152H317z"/><glyph glyph-name="uni04E4" unicode="Ӥ" horiz-adv-x="1454" d="M184 0v1430h193V571l-21-295h6l144 261 588 893h176V0h-193v858l19 295h-6L946 893 362 0H184zm344 1604q-112 0-112 100v33q0 100 112 100 113 0 113-100v-33q0-100-113-100zm394 0q-113 0-113 100v33q0 100 113 100 112 0 112-100v-33q0-100-112-100z"/><glyph glyph-name="uni04E5" unicode="ӥ" horiz-adv-x="1214" d="M168 0v1061h186V504l-18-254h8l129 227 399 584h175V0H860v557l19 252h-9L741 584 342 0H168zm244 1260q-113 0-113 100v29q0 100 113 100 112 0 112-100v-29q0-100-112-100zm393 0q-113 0-113 100v29q0 100 113 100t113-100v-29q0-100-113-100z"/><glyph glyph-name="uni04E6" unicode="Ӧ" horiz-adv-x="1449" d="M725-25q-283 0-446.5 192.5T115 715t163.5 547T725 1454t446.5-192T1335 715t-163.5-547.5T725-25zm0 179q179 0 288 120.5T1122 598v233q0 203-109 324t-288 121-288-121-109-324V598q0-203 109-323.5T725 154zM528 1604q-112 0-112 100v33q0 100 112 100 113 0 113-100v-33q0-100-113-100zm394 0q-113 0-113 100v33q0 100 113 100 112 0 112-100v-33q0-100-112-100z"/><glyph glyph-name="uni04E7" unicode="ӧ" horiz-adv-x="1150" d="M575-25q-218 0-350.5 151.5T92 530t132.5 403.5T575 1085t351-151.5T1059 530 926 126.5 575-25zm0 164q128 0 204.5 80.5T856 451v159q0 151-76.5 231.5T575 922t-204-80.5T295 610V451q0-151 76-231.5T575 139zM379 1260q-113 0-113 100v29q0 100 113 100t113-100v-29q0-100-113-100zm393 0q-113 0-113 100v29q0 100 113 100t113-100v-29q0-100-113-100z"/><glyph glyph-name="uni04E8" unicode="Ө" horiz-adv-x="1454" d="M727-25q-283 0-447.5 192.5T115 715t164.5 547T727 1454t447.5-192T1339 715t-164.5-547.5T727-25zm0 175q181 0 292 122t111 326v37H324v-37q0-204 111-326t292-122zM324 831v-20h806v20q0 204-111 326.5T727 1280t-292-122.5T324 831z"/><glyph glyph-name="uni04E9" unicode="ө" horiz-adv-x="1148" d="M573-25q-217 0-349 151T92 530t132 404 349 151q218 0 351-151.5T1057 530 924 126.5 573-25zm0 160q130 0 207.5 79.5T858 446v21H291v-21q0-152 76.5-231.5T573 135zM291 614v-6h567v6q0 152-77.5 232T573 926q-129 0-205.5-80T291 614z"/><glyph glyph-name="uni04EE" unicode="Ӯ" horiz-adv-x="1232" d="M285 0v176h215l61 152L37 1430h215l289-613 108-254h8l95 258 241 609h201L694 186Q648 76 591.5 38T416 0H285zm57 1645v151h582v-151H342z"/><glyph glyph-name="uni04EF" unicode="ӯ" horiz-adv-x="1036" d="M584 383l237 678h185L545-231q-38-103-91-141t-171-38H178v162h174l72 205L31 1061h190l236-678 55-199h10zm-355 917v152h582v-152H229z"/><glyph glyph-name="uni04F0" unicode="Ӱ" horiz-adv-x="1232" d="M285 0v176h215l61 152L37 1430h215l289-613 108-254h8l95 258 241 609h201L694 186Q648 76 591.5 38T416 0H285zm151 1604q-112 0-112 100v33q0 100 112 100 113 0 113-100v-33q0-100-113-100zm393 0q-112 0-112 100v33q0 100 112 100 113 0 113-100v-33q0-100-113-100z"/><glyph glyph-name="uni04F1" unicode="ӱ" horiz-adv-x="1036" d="M584 383l237 678h185L545-231q-38-103-91-141t-171-38H178v162h174l72 205L31 1061h190l236-678 55-199h10zm-260 877q-113 0-113 100v29q0 100 113 100 112 0 112-100v-29q0-100-112-100zm393 0q-113 0-113 100v29q0 100 113 100 112 0 112-100v-29q0-100-112-100z"/><glyph glyph-name="uni04F2" unicode="Ӳ" horiz-adv-x="1232" d="M285 0v176h215l61 152L37 1430h215l289-613 108-254h8l95 258 241 609h201L694 186Q648 76 591.5 38T416 0H285zm420 1874l-228-332-112 51 180 359zm346 0l-230-332-110 51 180 359z"/><glyph glyph-name="uni04F3" unicode="ӳ" horiz-adv-x="1036" d="M584 383l237 678h185L545-231q-38-103-91-141t-171-38H178v162h174l72 205L31 1061h190l236-678 55-199h10zm8 1147l-227-332-113 51 180 359zm346 0l-229-332-111 51 180 359z"/><glyph glyph-name="uni04F4" unicode="Ӵ" horiz-adv-x="1333" d="M950 0v553h-10q-117-47-307-47-263 0-389.5 125.5T117 1016v414h198v-416q0-173 81.5-253.5T643 680q201 0 307 45v705h199V0H950zM436 1604q-112 0-112 100v33q0 100 112 100 113 0 113-100v-33q0-100-113-100zm393 0q-112 0-112 100v33q0 100 112 100 113 0 113-100v-33q0-100-113-100z"/><glyph glyph-name="uni04F5" unicode="ӵ" horiz-adv-x="1118" d="M760 0v479h-10Q643 350 446 350q-167 0-255.5 85T102 686v375h191V700q0-94 53-139t162-45q113 0 182.5 33t69.5 92v420h190V0H760zM330 1260q-113 0-113 100v29q0 100 113 100 112 0 112-100v-29q0-100-112-100zm393 0q-113 0-113 100v29q0 100 113 100t113-100v-29q0-100-113-100z"/><glyph glyph-name="uni04F8" unicode="Ӹ" horiz-adv-x="1814" d="M184 0v1430h199V866h414q193 0 299-114.5T1202 434q0-204-106.5-319T797 0H184zm199 176h408q97 0 148.5 52T991 381v104q0 103-51.5 154T791 690H383V176zM1432 0v1430h198V0h-198zM711 1604q-113 0-113 100v33q0 100 113 100 112 0 112-100v-33q0-100-112-100zm393 0q-113 0-113 100v33q0 100 113 100t113-100v-33q0-100-113-100z"/><glyph glyph-name="uni04F9" unicode="ӹ" horiz-adv-x="1515" d="M168 0v1061h190V690h277q161 0 256.5-93T987 344q0-161-94.5-252.5T637 0H168zm190 158h246q182 0 182 145v84q0 145-182 145H358V158zM1157 0v1061h191V0h-191zM561 1260q-112 0-112 100v29q0 100 112 100 113 0 113-100v-29q0-100-113-100zm393 0q-112 0-112 100v29q0 100 112 100 113 0 113-100v-29q0-100-113-100z"/><glyph glyph-name="uni0E3F" unicode="฿" horiz-adv-x="1327" d="M727 43v-215H580V43H184v1343h396v211h147v-211h55q172 0 273.5-94.5T1157 1040q0-129-66-198t-178-88v-13q295-42 295-311 0-165-105-276T842 43H727zM379 811h207v406H379V811zm342 406V811h51q182 0 182 172v61q0 173-182 173h-51zM379 213h207v438H379V213zm342 438V213h65q104 0 162 47t58 137v70q0 90-58 137t-162 47h-65z"/><glyph glyph-name="Wgrave" unicode="Ẁ" horiz-adv-x="1857" d="M610 0H387L45 1430h205l151-689 111-508h4l125 508 176 689h223l172-689 125-505h6l113 505 158 689h198L1452 0h-221l-187 725-118 483h-4L799 725zm301 1540l-227 332 168 82 180-357z"/><glyph glyph-name="wgrave" unicode="ẁ" horiz-adv-x="1601" d="M344 0L59 1061h185l110-453 107-436h4l121 436 131 453h170l135-453 123-436h6l100 436 113 453h178L1260 0h-226L891 498l-90 311h-4l-88-311L565 0H344zm438 1196l-227 332 168 82 180-359z"/><glyph glyph-name="Wacute" unicode="Ẃ" horiz-adv-x="1857" d="M610 0H387L45 1430h205l151-689 111-508h4l125 508 176 689h223l172-689 125-505h6l113 505 158 689h198L1452 0h-221l-187 725-118 483h-4L799 725zm566 1872l-228-332-121 57 181 357z"/><glyph glyph-name="wacute" unicode="ẃ" horiz-adv-x="1601" d="M344 0L59 1061h185l110-453 107-436h4l121 436 131 453h170l135-453 123-436h6l100 436 113 453h178L1260 0h-226L891 498l-90 311h-4l-88-311L565 0H344zm703 1528l-228-332-121 55 181 359z"/><glyph glyph-name="Wdieresis" unicode="Ẅ" horiz-adv-x="1857" d="M610 0H387L45 1430h205l151-689 111-508h4l125 508 176 689h223l172-689 125-505h6l113 505 158 689h198L1452 0h-221l-187 725-118 483h-4L799 725zm123 1604q-112 0-112 100v33q0 100 112 100 113 0 113-100v-33q0-100-113-100zm393 0q-112 0-112 100v33q0 100 112 100 113 0 113-100v-33q0-100-113-100z"/><glyph glyph-name="wdieresis" unicode="ẅ" horiz-adv-x="1601" d="M344 0L59 1061h185l110-453 107-436h4l121 436 131 453h170l135-453 123-436h6l100 436 113 453h178L1260 0h-226L891 498l-90 311h-4l-88-311L565 0H344zm260 1260q-112 0-112 100v29q0 100 112 100 113 0 113-100v-29q0-100-113-100zm393 0q-112 0-112 100v29q0 100 112 100 113 0 113-100v-29q0-100-113-100z"/><glyph glyph-name="uni1E9E" unicode="ẞ" horiz-adv-x="1445" d="M1348 410q0-201-123-318T893-25q-270 0-406 185l134 119q108-136 272-136 117 0 181.5 63t64.5 169v63q0 107-65 168.5T887 668H692v174l359 415H383V0H184v1430h1065v-191L901 834v-9q202-5 324.5-113T1348 410z"/><glyph glyph-name="uni1EA0" unicode="Ạ" horiz-adv-x="1329" d="M1284 0h-209L940 403H383L246 0H45l496 1430h250zM891 580l-225 667h-11L430 580h461zM666-360q-58 0-87.5 27.5T549-258v27q0 47 29.5 74.5T666-129t87-27 29-75v-27q0-48-29-75t-87-27z"/><glyph glyph-name="uni1EA1" unicode="ạ" horiz-adv-x="1107" d="M1049 0H940q-84 0-129.5 47.5T754 176h-11Q711 79 631 27T436-25q-165 0-257.5 85.5T86 293q0 155 113.5 235T539 608h200v97q0 221-235 221-167 0-260-152L129 879q51 93 148 149.5t237 56.5q198 0 307-96t109-268V162h119V0zM479 129q113 0 186.5 51.5T739 311v164H537q-252 0-252-151v-41q0-73 52-113.5T479 129zm33-489q-58 0-87.5 27.5T395-258v27q0 47 29.5 74.5T512-129t87.5-27.5T629-231v-27q0-47-29.5-74.5T512-360z"/><glyph glyph-name="uni1EA2" unicode="Ả" horiz-adv-x="1329" d="M1284 0h-209L940 403H383L246 0H45l496 1430h250zM891 580l-225 667h-11L430 580h461zM479 1784v141h238q80 0 116.5-32.5T870 1806q0-93-104-219l-49-63-107 51 113 209H479z"/><glyph glyph-name="uni1EA3" unicode="ả" horiz-adv-x="1107" d="M1049 0H940q-84 0-129.5 47.5T754 176h-11Q711 79 631 27T436-25q-165 0-257.5 85.5T86 293q0 155 113.5 235T539 608h200v97q0 221-235 221-167 0-260-152L129 879q51 93 148 149.5t237 56.5q198 0 307-96t109-268V162h119V0zM479 129q113 0 186.5 51.5T739 311v164H537q-252 0-252-151v-41q0-73 52-113.5T479 129zM338 1438v143h237q79 0 116.5-33.5T729 1462q0-95-104-221l-50-63-106 53 113 207H338z"/><glyph glyph-name="uni1EA4" unicode="Ấ" horiz-adv-x="1329" d="M1284 0h-209L940 403H383L246 0H45l496 1430h250zM891 580l-225 667h-11L430 580h461zm326 1540l-228-332-112 53 180 359zm-652-236h201l240-278-95-76-245 227-246-227-94 76z"/><glyph glyph-name="uni1EA5" unicode="ấ" horiz-adv-x="1107" d="M1049 0H940q-84 0-129.5 47.5T754 176h-11Q711 79 631 27T436-25q-165 0-257.5 85.5T86 293q0 155 113.5 235T539 608h200v97q0 221-235 221-167 0-260-152L129 879q51 93 148 149.5t237 56.5q198 0 307-96t109-268V162h119V0zM479 129q113 0 186.5 51.5T739 311v164H537q-252 0-252-151v-41q0-73 52-113.5T479 129zm594 1647l-227-332-113 53 180 356zm-651-236h201l239-280-94-74-246 225-246-225-94 74z"/><glyph glyph-name="uni1EA6" unicode="Ầ" horiz-adv-x="1329" d="M1284 0h-209L940 403H383L246 0H45l496 1430h250zM891 580l-225 667h-11L430 580h461zM342 1788l-227 332 159 80 181-359zm223 96h201l240-278-95-76-245 227-246-227-94 76z"/><glyph glyph-name="uni1EA7" unicode="ầ" horiz-adv-x="1107" d="M1049 0H940q-84 0-129.5 47.5T754 176h-11Q711 79 631 27T436-25q-165 0-257.5 85.5T86 293q0 155 113.5 235T539 608h200v97q0 221-235 221-167 0-260-152L129 879q51 93 148 149.5t237 56.5q198 0 307-96t109-268V162h119V0zM479 129q113 0 186.5 51.5T739 311v164H537q-252 0-252-151v-41q0-73 52-113.5T479 129zM199 1444l-228 332 160 77 180-356zm223 96h201l239-280-94-74-246 225-246-225-94 74z"/><glyph glyph-name="uni1EA8" unicode="Ẩ" horiz-adv-x="1329" d="M1284 0h-209L940 403H383L246 0H45l496 1430h250zM891 580l-225 667h-11L430 580h461zM764 2040v135h231q81 0 118.5-33.5t37.5-85.5q0-91-107-221l-49-61-100 51 117 215H764zm-199-156h201l240-278-95-76-245 227-246-227-94 76z"/><glyph glyph-name="uni1EA9" unicode="ẩ" horiz-adv-x="1107" d="M1049 0H940q-84 0-129.5 47.5T754 176h-11Q711 79 631 27T436-25q-165 0-257.5 85.5T86 293q0 155 113.5 235T539 608h200v97q0 221-235 221-167 0-260-152L129 879q51 93 148 149.5t237 56.5q198 0 307-96t109-268V162h119V0zM479 129q113 0 186.5 51.5T739 311v164H537q-252 0-252-151v-41q0-73 52-113.5T479 129zm142 1567v135h231q81 0 118.5-33.5t37.5-85.5q0-91-107-221l-49-64-100 52 116 217H621zm-199-156h201l239-280-94-74-246 225-246-225-94 74z"/><glyph glyph-name="uni1EAA" unicode="Ẫ" horiz-adv-x="1329" d="M1284 0h-209L940 403H383L246 0H45l496 1430h250zM891 580l-225 667h-11L430 580h461zM514 2177q10 0 20.5-1t19-2 19-4 16.5-4.5 17-5.5 15-5.5 15.5-7.5 14-7 14.5-7 13-7q90-47 145-47 33 0 59.5 12.5T944 2132l74-84q-75-113-201-113-13 0-26 1.5t-22.5 3-22.5 6-20 6.5-20.5 8.5-17.5 8.5-18.5 9.5-16.5 8.5q-90 47-145 47-33 0-59.5-12.5T387 1980l-74 84q75 113 201 113zm49-297h205l238-274-95-76-245 223-246-223-94 76z"/><glyph glyph-name="uni1EAB" unicode="ẫ" horiz-adv-x="1107" d="M1049 0H940q-84 0-129.5 47.5T754 176h-11Q711 79 631 27T436-25q-165 0-257.5 85.5T86 293q0 155 113.5 235T539 608h200v97q0 221-235 221-167 0-260-152L129 879q51 93 148 149.5t237 56.5q198 0 307-96t109-268V162h119V0zM479 129q113 0 186.5 51.5T739 311v164H537q-252 0-252-151v-41q0-73 52-113.5T479 129zM371 1833q10 0 20.5-1t19-2 19-4 16.5-4.5 17-5.5 15-5.5 15.5-7.5 14-7 14.5-7 13-7q90-47 145-47 33 0 59.5 12.5T801 1788l73-84q-75-113-200-113-10 0-20.5 1t-19 2-19 4-16.5 4.5-17 5.5-15 5.5-15.5 7.5-14 7-14.5 7-13 7q-92 48-145 48-33 0-59.5-12.5T244 1636l-74 84q75 113 201 113zm49-299h205l237-274-94-74-246 223-246-223-94 74z"/><glyph glyph-name="uni1EAC" unicode="Ậ" horiz-adv-x="1329" d="M1284 0h-209L940 403H383L246 0H45l496 1430h250zM891 580l-225 667h-11L430 580h461zM559 1923h213l236-299-101-74-241 238-242-238-100 74zM666-360q-58 0-87.5 27.5T549-258v27q0 47 29.5 74.5T666-129t87-27 29-75v-27q0-48-29-75t-87-27z"/><glyph glyph-name="uni1EAD" unicode="ậ" horiz-adv-x="1107" d="M1049 0H940q-84 0-129.5 47.5T754 176h-11Q711 79 631 27T436-25q-165 0-257.5 85.5T86 293q0 155 113.5 235T539 608h200v97q0 221-235 221-167 0-260-152L129 879q51 93 148 149.5t237 56.5q198 0 307-96t109-268V162h119V0zM479 129q113 0 186.5 51.5T739 311v164H537q-252 0-252-151v-41q0-73 52-113.5T479 129zm-63 1450h213l235-299-100-74-242 238-241-238-101 74zm96-1939q-58 0-87.5 27.5T395-258v27q0 47 29.5 74.5T512-129t87.5-27.5T629-231v-27q0-47-29.5-74.5T512-360z"/><glyph glyph-name="uni1EAE" unicode="Ắ" horiz-adv-x="1329" d="M1284 0h-209L940 403H383L246 0H45l496 1430h250zM891 580l-225 667h-11L430 580h461zm-225 960q-64 0-116 17t-85 41-60 62-41 70-28 74l104 56 41-72q32-57 74-85t111-28 110.5 28 73.5 85l41 72 104-56q-14-42-28-73.5t-40.5-70T867 1598t-85-41-116-17zm241 580l-227-332-113 53 178 359z"/><glyph glyph-name="uni1EAF" unicode="ắ" horiz-adv-x="1107" d="M1049 0H940q-84 0-129.5 47.5T754 176h-11Q711 79 631 27T436-25q-165 0-257.5 85.5T86 293q0 155 113.5 235T539 608h200v97q0 221-235 221-167 0-260-152L129 879q51 93 148 149.5t237 56.5q198 0 307-96t109-268V162h119V0zM479 129q113 0 186.5 51.5T739 311v164H537q-252 0-252-151v-41q0-73 52-113.5T479 129zm43 1065q-64 0-116.5 17t-85.5 41.5-60.5 63T218 1386t-28 74l103 56 45-70q37-58 76.5-86.5T522 1331t108 28.5 77 86.5l45 70 102-56q-14-42-28-74t-41.5-70.5-60.5-63-85.5-41.5-116.5-17zm242 582l-227-332-113 53 178 356z"/><glyph glyph-name="uni1EB0" unicode="Ằ" horiz-adv-x="1329" d="M1284 0h-209L940 403H383L246 0H45l496 1430h250zM891 580l-225 667h-11L430 580h461zm-225 960q-64 0-116 17t-85 41-60 62-41 70-28 74l104 56 41-72q32-57 74-85t111-28 110.5 28 73.5 85l41 72 104-56q-14-42-28-73.5t-40.5-70T867 1598t-85-41-116-17zm-15 248l-225 332 160 80 178-359z"/><glyph glyph-name="uni1EB1" unicode="ằ" horiz-adv-x="1107" d="M1049 0H940q-84 0-129.5 47.5T754 176h-11Q711 79 631 27T436-25q-165 0-257.5 85.5T86 293q0 155 113.5 235T539 608h200v97q0 221-235 221-167 0-260-152L129 879q51 93 148 149.5t237 56.5q198 0 307-96t109-268V162h119V0zM479 129q113 0 186.5 51.5T739 311v164H537q-252 0-252-151v-41q0-73 52-113.5T479 129zm43 1065q-64 0-116.5 17t-85.5 41.5-60.5 63T218 1386t-28 74l103 56 45-70q37-58 76.5-86.5T522 1331t108 28.5 77 86.5l45 70 102-56q-14-42-28-74t-41.5-70.5-60.5-63-85.5-41.5-116.5-17zm-14 250l-225 332 159 77 179-356z"/><glyph glyph-name="uni1EB2" unicode="Ẳ" horiz-adv-x="1329" d="M1284 0h-209L940 403H383L246 0H45l496 1430h250zM891 580l-225 667h-11L430 580h461zM467 2040v135h209q81 0 118-33.5t37-85.5q0-83-106-221l-51-61-99 49 117 217H467zm199-500q-64 0-116 17t-85 41-60 62-41 70-28 74l104 56 41-72q32-57 74-85t111-28 110.5 28 73.5 85l41 72 104-56q-14-42-28-73.5t-40.5-70T867 1598t-85-41-116-17z"/><glyph glyph-name="uni1EB3" unicode="ẳ" horiz-adv-x="1107" d="M1049 0H940q-84 0-129.5 47.5T754 176h-11Q711 79 631 27T436-25q-165 0-257.5 85.5T86 293q0 155 113.5 235T539 608h200v97q0 221-235 221-167 0-260-152L129 879q51 93 148 149.5t237 56.5q198 0 307-96t109-268V162h119V0zM479 129q113 0 186.5 51.5T739 311v164H537q-252 0-252-151v-41q0-73 52-113.5T479 129zm43 1065q-64 0-116.5 17t-85.5 41.5-60.5 63T218 1386t-28 74l103 56 45-70q37-58 76.5-86.5T522 1331t108 28.5 77 86.5l45 70 102-56q-14-42-28-74t-41.5-70.5-60.5-63-85.5-41.5-116.5-17zm-198 502v135h208q81 0 118.5-33.5T688 1712q0-86-106-221l-52-64-98 52 117 217H324z"/><glyph glyph-name="uni1EB4" unicode="Ẵ" horiz-adv-x="1329" d="M1284 0h-209L940 403H383L246 0H45l496 1430h250zM891 580l-225 667h-11L430 580h461zm-74 1351q-10 0-20.5 1t-19 2-19 4-16.5 4.5-17 5.5-15 5.5-15.5 7.5-14 7-14.5 7-13 7q-92 48-145 48-33 0-59.5-12.5T387 1976l-74 84q75 113 201 113 10 0 20.5-1t19-2 19-4 16.5-4.5 17-5.5 15-5.5 15.5-7.5 14-7 14.5-7 13-7q90-47 145-47 33 0 59.5 12.5T944 2128l74-84q-75-113-201-113zm-151-391q-64 0-116 17t-85 41-60 62-41 70-28 74l104 56 41-72q32-57 74-85t111-28 110.5 28 73.5 85l41 72 104-56q-14-42-28-73.5t-40.5-70T867 1598t-85-41-116-17z"/><glyph glyph-name="uni1EB5" unicode="ẵ" horiz-adv-x="1107" d="M1049 0H940q-84 0-129.5 47.5T754 176h-11Q711 79 631 27T436-25q-165 0-257.5 85.5T86 293q0 155 113.5 235T539 608h200v97q0 221-235 221-167 0-260-152L129 879q51 93 148 149.5t237 56.5q198 0 307-96t109-268V162h119V0zM479 129q113 0 186.5 51.5T739 311v164H537q-252 0-252-151v-41q0-73 52-113.5T479 129zm43 1065q-64 0-116.5 17t-85.5 41.5-60.5 63T218 1386t-28 74l103 56 45-70q37-58 76.5-86.5T522 1331t108 28.5 77 86.5l45 70 102-56q-14-42-28-74t-41.5-70.5-60.5-63-85.5-41.5-116.5-17zm152 393q-10 0-20.5 1t-19 2-19 4-16.5 4.5-17 5.5-15 5.5-15.5 7.5-14 7-14.5 7-13 7q-92 48-145 48-33 0-59.5-12.5T244 1632l-74 84q75 113 201 113 10 0 20.5-1t19-2 19-4 16.5-4.5 17-5.5 15-5.5 15.5-7.5 14-7 14.5-7 13-7q90-47 145-47 33 0 59.5 12.5T801 1784l73-84q-75-113-200-113z"/><glyph glyph-name="uni1EB6" unicode="Ặ" horiz-adv-x="1329" d="M1284 0h-209L940 403H383L246 0H45l496 1430h250zM891 580l-225 667h-11L430 580h461zm-225 979q-54 0-98.5 11.5t-77 34T434 1651t-42.5 59-29 61-22.5 62l106 51 41-67q36-58 74-85.5t105-27.5 104.5 27.5T844 1817l41 67 106-51q-15-44-27.5-75t-39.5-72-59-66-83.5-43-115.5-18zm0-1919q-58 0-87.5 27.5T549-258v27q0 47 29.5 74.5T666-129t87-27 29-75v-27q0-48-29-75t-87-27z"/><glyph glyph-name="uni1EB7" unicode="ặ" horiz-adv-x="1107" d="M1049 0H940q-84 0-129.5 47.5T754 176h-11Q711 79 631 27T436-25q-165 0-257.5 85.5T86 293q0 155 113.5 235T539 608h200v97q0 221-235 221-167 0-260-152L129 879q51 93 148 149.5t237 56.5q198 0 307-96t109-268V162h119V0zM479 129q113 0 186.5 51.5T739 311v164H537q-252 0-252-151v-41q0-73 52-113.5T479 129zm43 1085q-64 0-115.5 18t-83.5 43-59 65.5-40 71.5-27 75l106 53 41-67q36-59 73.5-87t104.5-28 104.5 28 73.5 87l41 67 107-53q-14-44-27.5-75t-40-71.5T722 1275t-84-43-116-18zM512-360q-58 0-87.5 27.5T395-258v27q0 47 29.5 74.5T512-129t87.5-27.5T629-231v-27q0-47-29.5-74.5T512-360z"/><glyph glyph-name="uni1EB8" unicode="Ẹ" horiz-adv-x="1204" d="M1075 0H184v1430h891v-177H383V811h641V635H383V176h692V0zM627-360q-58 0-87.5 27.5T510-258v27q0 47 29.5 74.5T627-129t87-27 29-75v-27q0-48-29-75t-87-27z"/><glyph glyph-name="uni1EB9" unicode="ẹ" horiz-adv-x="1130" d="M573-25q-221 0-351 151T92 530t130 404 351 151q217 0 341-146.5T1038 563v-80H291v-43q0-135 79.5-219T590 137q197 0 287 172l122-104Q942 100 830.5 37.5T573-25zm0 957q-124 0-203-85t-79-216v-15h545v21q0 133-72 214t-191 81zm7-1292q-58 0-87.5 27.5T463-258v27q0 47 29.5 74.5T580-129t87-27 29-75v-27q0-48-29-75t-87-27z"/><glyph glyph-name="uni1EBA" unicode="Ẻ" horiz-adv-x="1204" d="M1075 0H184v1430h891v-177H383V811h641V635H383V176h692V0zM440 1784v141h238q80 0 116.5-32.5T831 1806q0-93-104-219l-49-63-107 51 113 209H440z"/><glyph glyph-name="uni1EBB" unicode="ẻ" horiz-adv-x="1130" d="M573-25q-221 0-351 151T92 530t130 404 351 151q217 0 341-146.5T1038 563v-80H291v-43q0-135 79.5-219T590 137q197 0 287 172l122-104Q942 100 830.5 37.5T573-25zm0 957q-124 0-203-85t-79-216v-15h545v21q0 133-72 214t-191 81zm-182 506v143h238q79 0 116-33.5t37-85.5q0-95-104-221l-49-63-107 53 113 207H391z"/><glyph glyph-name="uni1EBC" unicode="Ẽ" horiz-adv-x="1204" d="M1075 0H184v1430h891v-177H383V811h641V635H383V176h692V0zM778 1593q-13 0-26 1.5t-22.5 3-22.5 6-20 6.5-20.5 8.5-17.5 8.5-18.5 9.5-16.5 8.5q-90 47-145 47-33 0-59.5-12.5T348 1638l-74 93q74 112 201 112 10 0 20.5-1t19-2 19-4 16.5-4.5 17-5.5 15-5.5 15.5-7.5 14-7 14.5-7 13-7q90-47 145-47 33 0 59.5 12.5T905 1798l74-92q-75-113-201-113z"/><glyph glyph-name="uni1EBD" unicode="ẽ" horiz-adv-x="1130" d="M573-25q-221 0-351 151T92 530t130 404 351 151q217 0 341-146.5T1038 563v-80H291v-43q0-135 79.5-219T590 137q197 0 287 172l122-104Q942 100 830.5 37.5T573-25zm0 957q-124 0-203-85t-79-216v-15h545v21q0 133-72 214t-191 81zm154 317q-10 0-20.5 1t-19 2-19 4-16.5 4.5-17 5.5-15 5.5-15.5 7.5-14 7-14.5 7-13 7q-92 48-145 48-33 0-59.5-12.5T297 1294l-74 92q75 113 201 113 10 0 20.5-1t19-2 19-4 16.5-4.5 17-5.5 15-5.5 15.5-7.5 14-7 14.5-7 13-7q90-47 145-47 33 0 59.5 12.5T854 1454l74-92q-75-113-201-113z"/><glyph glyph-name="uni1EBE" unicode="Ế" horiz-adv-x="1204" d="M1075 0H184v1430h891v-177H383V811h641V635H383V176h692V0zm103 2120l-228-332-112 53 180 359zm-652-236h201l240-278-95-76-245 227-246-227-94 76z"/><glyph glyph-name="uni1EBF" unicode="ế" horiz-adv-x="1130" d="M573-25q-221 0-351 151T92 530t130 404 351 151q217 0 341-146.5T1038 563v-80H291v-43q0-135 79.5-219T590 137q197 0 287 172l122-104Q942 100 830.5 37.5T573-25zm0 957q-124 0-203-85t-79-216v-15h545v21q0 133-72 214t-191 81zm553 844l-227-332-113 53 181 356zm-651-236h201l239-280-94-74-246 225-245-225-94 74z"/><glyph glyph-name="uni1EC0" unicode="Ề" horiz-adv-x="1204" d="M1075 0H184v1430h891v-177H383V811h641V635H383V176h692V0zM303 1788L76 2120l160 80 180-359zm223 96h201l240-278-95-76-245 227-246-227-94 76z"/><glyph glyph-name="uni1EC1" unicode="ề" horiz-adv-x="1130" d="M573-25q-221 0-351 151T92 530t130 404 351 151q217 0 341-146.5T1038 563v-80H291v-43q0-135 79.5-219T590 137q197 0 287 172l122-104Q942 100 830.5 37.5T573-25zm0 957q-124 0-203-85t-79-216v-15h545v21q0 133-72 214t-191 81zm-321 512L25 1776l159 77 181-356zm223 96h201l239-280-94-74-246 225-245-225-94 74z"/><glyph glyph-name="uni1EC2" unicode="Ể" horiz-adv-x="1204" d="M1075 0H184v1430h891v-177H383V811h641V635H383V176h692V0zM725 2040v135h231q81 0 118.5-33.5t37.5-85.5q0-93-106-221l-50-61-100 51 117 215H725zm-199-156h201l240-278-95-76-245 227-246-227-94 76z"/><glyph glyph-name="uni1EC3" unicode="ể" horiz-adv-x="1130" d="M573-25q-221 0-351 151T92 530t130 404 351 151q217 0 341-146.5T1038 563v-80H291v-43q0-135 79.5-219T590 137q197 0 287 172l122-104Q942 100 830.5 37.5T573-25zm0 957q-124 0-203-85t-79-216v-15h545v21q0 133-72 214t-191 81zm101 764v135h231q81 0 118.5-33.5t37.5-85.5q0-91-107-221l-49-64-100 52 117 217H674zm-199-156h201l239-280-94-74-246 225-245-225-94 74z"/><glyph glyph-name="uni1EC4" unicode="Ễ" horiz-adv-x="1204" d="M1075 0H184v1430h891v-177H383V811h641V635H383V176h692V0zM475 2177q10 0 20.5-1t19-2 19-4 16.5-4.5 17-5.5 15-5.5 15.5-7.5 14-7 14.5-7 13-7q90-47 145-47 33 0 59.5 12.5T905 2132l74-84q-75-113-201-113-13 0-26 1.5t-22.5 3-22.5 6-20 6.5-20.5 8.5-17.5 8.5-18.5 9.5-16.5 8.5q-90 47-145 47-33 0-59.5-12.5T348 1980l-74 84q75 113 201 113zm49-297h205l238-274-95-76-245 223-246-223-94 76z"/><glyph glyph-name="uni1EC5" unicode="ễ" horiz-adv-x="1130" d="M573-25q-221 0-351 151T92 530t130 404 351 151q217 0 341-146.5T1038 563v-80H291v-43q0-135 79.5-219T590 137q197 0 287 172l122-104Q942 100 830.5 37.5T573-25zm0 957q-124 0-203-85t-79-216v-15h545v21q0 133-72 214t-191 81zm-149 901q10 0 20.5-1t19-2 19-4 16.5-4.5 17-5.5 15-5.5 15.5-7.5 14-7 14.5-7 13-7q90-47 145-47 33 0 59.5 12.5T854 1788l74-84q-75-113-201-113-10 0-20.5 1t-19 2-19 4-16.5 4.5-17 5.5-15 5.5-15.5 7.5-14 7-14.5 7-13 7q-92 48-145 48-33 0-59.5-12.5T297 1636l-74 84q75 113 201 113zm49-299h205l237-274-94-74-246 223-245-223-94 74z"/><glyph glyph-name="uni1EC6" unicode="Ệ" horiz-adv-x="1204" d="M1075 0H184v1430h891v-177H383V811h641V635H383V176h692V0zM520 1923h213l236-299-101-74-241 238-242-238-100 74zM627-360q-58 0-87.5 27.5T510-258v27q0 47 29.5 74.5T627-129t87-27 29-75v-27q0-48-29-75t-87-27z"/><glyph glyph-name="uni1EC7" unicode="ệ" horiz-adv-x="1130" d="M573-25q-221 0-351 151T92 530t130 404 351 151q217 0 341-146.5T1038 563v-80H291v-43q0-135 79.5-219T590 137q197 0 287 172l122-104Q942 100 830.5 37.5T573-25zm0 957q-124 0-203-85t-79-216v-15h545v21q0 133-72 214t-191 81zm-104 647h213l236-299-101-74-242 238-241-238-101 74zM580-360q-58 0-87.5 27.5T463-258v27q0 47 29.5 74.5T580-129t87-27 29-75v-27q0-48-29-75t-87-27z"/><glyph glyph-name="uni1EC8" unicode="Ỉ" horiz-adv-x="833" d="M715 0H119v168h198v1094H119v168h596v-168H516V168h199V0zM229 1784v141h238q80 0 117-32.5t37-86.5q0-92-105-219l-49-63-107 51 113 209H229z"/><glyph glyph-name="uni1EC9" unicode="ỉ" horiz-adv-x="526" d="M358 0H168v1061h190V0zM80 1438v143h237q79 0 116.5-33.5T471 1462q0-95-104-221l-50-63-106 53 113 207H80z"/><glyph glyph-name="uni1ECA" unicode="Ị" horiz-adv-x="833" d="M715 0H119v168h198v1094H119v168h596v-168H516V168h199V0zM416-360q-58 0-87.5 27.5T299-258v27q0 47 29.5 74.5T416-129t87-27 29-75v-27q0-48-29-75t-87-27z"/><glyph glyph-name="uni1ECB" unicode="ị" horiz-adv-x="526" d="M264 1282q-58 0-86 28t-28 76v29q0 48 28 76.5t86 28.5 86.5-28.5T379 1415v-29q0-48-28.5-76t-86.5-28zM168 0v1061h190V0H168zm96-360q-58 0-87.5 27.5T147-258v27q0 47 29.5 74.5T264-129t87.5-27.5T381-231v-27q0-47-29.5-74.5T264-360z"/><glyph glyph-name="uni1ECC" unicode="Ọ" horiz-adv-x="1449" d="M725-25q-283 0-446.5 192.5T115 715t163.5 547T725 1454t446.5-192T1335 715t-163.5-547.5T725-25zm0 179q179 0 288 120.5T1122 598v233q0 203-109 324t-288 121-288-121-109-324V598q0-203 109-323.5T725 154zm0-514q-58 0-87.5 27.5T608-258v27q0 47 29.5 74.5T725-129t87.5-27.5T842-231v-27q0-47-29.5-74.5T725-360z"/><glyph glyph-name="uni1ECD" unicode="ọ" horiz-adv-x="1150" d="M575-25q-218 0-350.5 151.5T92 530t132.5 403.5T575 1085t351-151.5T1059 530 926 126.5 575-25zm0 164q128 0 204.5 80.5T856 451v159q0 151-76.5 231.5T575 922t-204-80.5T295 610V451q0-151 76-231.5T575 139zm0-499q-58 0-87 27t-29 75v27q0 48 29 75t87 27 87.5-27.5T692-231v-27q0-47-29.5-74.5T575-360z"/><glyph glyph-name="uni1ECE" unicode="Ỏ" horiz-adv-x="1449" d="M725-25q-283 0-446.5 192.5T115 715t163.5 547T725 1454t446.5-192T1335 715t-163.5-547.5T725-25zm0 179q179 0 288 120.5T1122 598v233q0 203-109 324t-288 121-288-121-109-324V598q0-203 109-323.5T725 154zM539 1784v141h237q80 0 117-32.5t37-86.5q0-92-105-219l-49-63-106 51 112 209H539z"/><glyph glyph-name="uni1ECF" unicode="ỏ" horiz-adv-x="1150" d="M575-25q-218 0-350.5 151.5T92 530t132.5 403.5T575 1085t351-151.5T1059 530 926 126.5 575-25zm0 164q128 0 204.5 80.5T856 451v159q0 151-76.5 231.5T575 922t-204-80.5T295 610V451q0-151 76-231.5T575 139zM391 1438v143h238q79 0 116-33.5t37-85.5q0-95-104-221l-49-63-107 53 113 207H391z"/><glyph glyph-name="uni1ED0" unicode="Ố" horiz-adv-x="1449" d="M725-25q-283 0-446.5 192.5T115 715t163.5 547T725 1454t446.5-192T1335 715t-163.5-547.5T725-25zm0 179q179 0 288 120.5T1122 598v233q0 203-109 324t-288 121-288-121-109-324V598q0-203 109-323.5T725 154zm551 1966l-227-332-113 53 180 359zm-651-236h200l240-278-94-76-246 227-246-227-94 76z"/><glyph glyph-name="uni1ED1" unicode="ố" horiz-adv-x="1150" d="M575-25q-218 0-350.5 151.5T92 530t132.5 403.5T575 1085t351-151.5T1059 530 926 126.5 575-25zm0 164q128 0 204.5 80.5T856 451v159q0 151-76.5 231.5T575 922t-204-80.5T295 610V451q0-151 76-231.5T575 139zm551 1637l-227-332-113 53 181 356zm-651-236h201l239-280-94-74-246 225-245-225-94 74z"/><glyph glyph-name="uni1ED2" unicode="Ồ" horiz-adv-x="1449" d="M725-25q-283 0-446.5 192.5T115 715t163.5 547T725 1454t446.5-192T1335 715t-163.5-547.5T725-25zm0 179q179 0 288 120.5T1122 598v233q0 203-109 324t-288 121-288-121-109-324V598q0-203 109-323.5T725 154zM401 1788l-227 332 160 80 180-359zm224 96h200l240-278-94-76-246 227-246-227-94 76z"/><glyph glyph-name="uni1ED3" unicode="ồ" horiz-adv-x="1150" d="M575-25q-218 0-350.5 151.5T92 530t132.5 403.5T575 1085t351-151.5T1059 530 926 126.5 575-25zm0 164q128 0 204.5 80.5T856 451v159q0 151-76.5 231.5T575 922t-204-80.5T295 610V451q0-151 76-231.5T575 139zM252 1444L25 1776l159 77 181-356zm223 96h201l239-280-94-74-246 225-245-225-94 74z"/><glyph glyph-name="uni1ED4" unicode="Ổ" horiz-adv-x="1449" d="M725-25q-283 0-446.5 192.5T115 715t163.5 547T725 1454t446.5-192T1335 715t-163.5-547.5T725-25zm0 179q179 0 288 120.5T1122 598v233q0 203-109 324t-288 121-288-121-109-324V598q0-203 109-323.5T725 154zm98 1886v135h232q81 0 118-33.5t37-85.5q0-93-106-221l-49-61-101 51 117 215H823zm-198-156h200l240-278-94-76-246 227-246-227-94 76z"/><glyph glyph-name="uni1ED5" unicode="ổ" horiz-adv-x="1150" d="M575-25q-218 0-350.5 151.5T92 530t132.5 403.5T575 1085t351-151.5T1059 530 926 126.5 575-25zm0 164q128 0 204.5 80.5T856 451v159q0 151-76.5 231.5T575 922t-204-80.5T295 610V451q0-151 76-231.5T575 139zm99 1557v135h231q81 0 118.5-33.5t37.5-85.5q0-91-107-221l-49-64-100 52 117 217H674zm-199-156h201l239-280-94-74-246 225-245-225-94 74z"/><glyph glyph-name="uni1ED6" unicode="Ỗ" horiz-adv-x="1449" d="M725-25q-283 0-446.5 192.5T115 715t163.5 547T725 1454t446.5-192T1335 715t-163.5-547.5T725-25zm0 179q179 0 288 120.5T1122 598v233q0 203-109 324t-288 121-288-121-109-324V598q0-203 109-323.5T725 154zM573 2177q10 0 20.5-1t19-2 19-4 16.5-4.5 17-5.5 15-5.5 15.5-7.5 14-7 14.5-7 13-7q90-47 146-47 33 0 59.5 12.5t61.5 40.5l73-84q-75-113-200-113-13 0-26 1.5t-22.5 3-22.5 6-20 6.5-20.5 8.5-17.5 8.5-18.5 9.5-16.5 8.5q-90 47-146 47-33 0-59.5-12.5T446 1980l-73 84q75 113 200 113zm50-297h204l238-274-94-76-246 223-246-223-94 76z"/><glyph glyph-name="uni1ED7" unicode="ỗ" horiz-adv-x="1150" d="M575-25q-218 0-350.5 151.5T92 530t132.5 403.5T575 1085t351-151.5T1059 530 926 126.5 575-25zm0 164q128 0 204.5 80.5T856 451v159q0 151-76.5 231.5T575 922t-204-80.5T295 610V451q0-151 76-231.5T575 139zM424 1833q10 0 20.5-1t19-2 19-4 16.5-4.5 17-5.5 15-5.5 15.5-7.5 14-7 14.5-7 13-7q90-47 145-47 33 0 59.5 12.5T854 1788l74-84q-75-113-201-113-10 0-20.5 1t-19 2-19 4-16.5 4.5-17 5.5-15 5.5-15.5 7.5-14 7-14.5 7-13 7q-92 48-145 48-33 0-59.5-12.5T297 1636l-74 84q75 113 201 113zm49-299h205l237-274-94-74-246 223-245-223-94 74z"/><glyph glyph-name="uni1ED8" unicode="Ộ" horiz-adv-x="1449" d="M725-25q-283 0-446.5 192.5T115 715t163.5 547T725 1454t446.5-192T1335 715t-163.5-547.5T725-25zm0 179q179 0 288 120.5T1122 598v233q0 203-109 324t-288 121-288-121-109-324V598q0-203 109-323.5T725 154zM618 1923h213l236-299-100-74-242 238-242-238-100 74zM725-360q-58 0-87.5 27.5T608-258v27q0 47 29.5 74.5T725-129t87.5-27.5T842-231v-27q0-47-29.5-74.5T725-360z"/><glyph glyph-name="uni1ED9" unicode="ộ" horiz-adv-x="1150" d="M575-25q-218 0-350.5 151.5T92 530t132.5 403.5T575 1085t351-151.5T1059 530 926 126.5 575-25zm0 164q128 0 204.5 80.5T856 451v159q0 151-76.5 231.5T575 922t-204-80.5T295 610V451q0-151 76-231.5T575 139zM469 1579h213l236-299-101-74-242 238-241-238-101 74zM575-360q-58 0-87 27t-29 75v27q0 48 29 75t87 27 87.5-27.5T692-231v-27q0-47-29.5-74.5T575-360z"/><glyph glyph-name="uni1EDA" unicode="Ớ" horiz-adv-x="1449" d="M1188 1661h166v-207q0-70-31.5-106.5T1210 1311h-84q209-202 209-596 0-355-163.5-547.5T725-25 278.5 167.5 115 715t163.5 547T725 1454q101 0 186-24h277v231zM725 154q179 0 288 120.5T1122 598v233q0 203-109 324t-288 121-288-121-109-324V598q0-203 109-323.5T725 154zm246 1718l-228-332-120 57 180 357z"/><glyph glyph-name="uni1EDB" unicode="ớ" horiz-adv-x="1150" d="M909 1292h166v-205q0-71-30.5-107T936 944h-21q144-159 144-414 0-252-133-403.5T575-25 224.5 126.5 92 530t132.5 403.5T575 1085q87 0 160-24h174v231zM575 139q128 0 204.5 80.5T856 451v159q0 151-76.5 231.5T575 922t-204-80.5T295 610V451q0-151 76-231.5T575 139zm244 1389l-227-332-121 55 180 359z"/><glyph glyph-name="uni1EDC" unicode="Ờ" horiz-adv-x="1449" d="M1188 1661h166v-207q0-70-31.5-106.5T1210 1311h-84q209-202 209-596 0-355-163.5-547.5T725-25 278.5 167.5 115 715t163.5 547T725 1454q101 0 186-24h277v231zM725 154q179 0 288 120.5T1122 598v233q0 203-109 324t-288 121-288-121-109-324V598q0-203 109-323.5T725 154zm-18 1386l-228 332 168 82 180-357z"/><glyph glyph-name="uni1EDD" unicode="ờ" horiz-adv-x="1150" d="M909 1292h166v-205q0-71-30.5-107T936 944h-21q144-159 144-414 0-252-133-403.5T575-25 224.5 126.5 92 530t132.5 403.5T575 1085q87 0 160-24h174v231zM575 139q128 0 204.5 80.5T856 451v159q0 151-76.5 231.5T575 922t-204-80.5T295 610V451q0-151 76-231.5T575 139zm-20 1057l-227 332 168 82 180-359z"/><glyph glyph-name="uni1EDE" unicode="Ở" horiz-adv-x="1449" d="M1188 1661h166v-207q0-70-31.5-106.5T1210 1311h-84q209-202 209-596 0-355-163.5-547.5T725-25 278.5 167.5 115 715t163.5 547T725 1454q101 0 186-24h277v231zM725 154q179 0 288 120.5T1122 598v233q0 203-109 324t-288 121-288-121-109-324V598q0-203 109-323.5T725 154zM539 1784v141h237q80 0 117-32.5t37-86.5q0-92-105-219l-49-63-106 51 112 209H539z"/><glyph glyph-name="uni1EDF" unicode="ở" horiz-adv-x="1150" d="M909 1292h166v-205q0-71-30.5-107T936 944h-21q144-159 144-414 0-252-133-403.5T575-25 224.5 126.5 92 530t132.5 403.5T575 1085q87 0 160-24h174v231zM575 139q128 0 204.5 80.5T856 451v159q0 151-76.5 231.5T575 922t-204-80.5T295 610V451q0-151 76-231.5T575 139zM389 1438v143h238q79 0 116-33.5t37-85.5q0-95-104-221l-49-63-107 53 113 207H389z"/><glyph glyph-name="uni1EE0" unicode="Ỡ" horiz-adv-x="1449" d="M1188 1661h166v-207q0-70-31.5-106.5T1210 1311h-84q209-202 209-596 0-355-163.5-547.5T725-25 278.5 167.5 115 715t163.5 547T725 1454q101 0 186-24h277v231zM725 154q179 0 288 120.5T1122 598v233q0 203-109 324t-288 121-288-121-109-324V598q0-203 109-323.5T725 154zm125 1445q-13 0-24.5 1t-24 4.5-20.5 6-21.5 8.5-17.5 8l-19 9.5-16 8.5q-77 41-121 41-56 0-113-54l-76 90q76 115 191 115 10 0 19.5-.5t19-3 16.5-3.5 17-5 15-5.5 15.5-7 13.5-6.5 14.5-7 12.5-7q34-17 47.5-23t34.5-12 39-6q57 0 113 53l75-90q-76-115-190-115z"/><glyph glyph-name="uni1EE1" unicode="ỡ" horiz-adv-x="1150" d="M909 1292h166v-205q0-71-30.5-107T936 944h-21q144-159 144-414 0-252-133-403.5T575-25 224.5 126.5 92 530t132.5 403.5T575 1085q87 0 160-24h174v231zM575 139q128 0 204.5 80.5T856 451v159q0 151-76.5 231.5T575 922t-204-80.5T295 610V451q0-151 76-231.5T575 139zm132 1116q-9 0-18 1t-16 1.5-16.5 3.5-15 4-15.5 5-13 5-13.5 6.5-12 6-13.5 6.5l-11 6q-77 41-121 41-56 0-112-53l-76 90q76 115 190 115 9 0 18-1t16-1.5 16.5-3.5 15-4 15.5-5 13-5 13.5-6.5 12-6 12.5-6.5l12-6q34-17 47.5-23t34.5-12 39-6q56 0 112 53l76-90q-76-115-190-115z"/><glyph glyph-name="uni1EE2" unicode="Ợ" horiz-adv-x="1449" d="M1188 1661h166v-207q0-70-31.5-106.5T1210 1311h-84q209-202 209-596 0-355-163.5-547.5T725-25 278.5 167.5 115 715t163.5 547T725 1454q101 0 186-24h277v231zM725 154q179 0 288 120.5T1122 598v233q0 203-109 324t-288 121-288-121-109-324V598q0-203 109-323.5T725 154zm0-514q-58 0-87.5 27.5T608-258v27q0 47 29.5 74.5T725-129t87.5-27.5T842-231v-27q0-47-29.5-74.5T725-360z"/><glyph glyph-name="uni1EE3" unicode="ợ" horiz-adv-x="1150" d="M909 1292h166v-205q0-71-30.5-107T936 944h-21q144-159 144-414 0-252-133-403.5T575-25 224.5 126.5 92 530t132.5 403.5T575 1085q87 0 160-24h174v231zM575 139q128 0 204.5 80.5T856 451v159q0 151-76.5 231.5T575 922t-204-80.5T295 610V451q0-151 76-231.5T575 139zm-2-499q-58 0-87 27t-29 75v27q0 48 29 75t87 27 87.5-27.5T690-231v-27q0-47-29.5-74.5T573-360z"/><glyph glyph-name="uni1EE4" unicode="Ụ" horiz-adv-x="1396" d="M174 1430h199V547q0-201 74.5-297T698 154q177 0 251.5 96t74.5 297v883h199V586q0-319-122.5-465T692-25q-145 0-244 36T288 124.5t-87.5 189T174 586v844zM694-360q-58 0-87 27t-29 75v27q0 48 29 75t87 27 87.5-27.5T811-231v-27q0-47-29.5-74.5T694-360z"/><glyph glyph-name="uni1EE5" unicode="ụ" horiz-adv-x="1175" d="M817 0v174h-10Q731-25 510-25 346-25 252 83t-94 300v678h190V412q0-271 225-271 99 0 171.5 50.5T817 336v725h191V0H817zM575-360q-58 0-87 27t-29 75v27q0 48 29 75t87 27 87.5-27.5T692-231v-27q0-47-29.5-74.5T575-360z"/><glyph glyph-name="uni1EE6" unicode="Ủ" horiz-adv-x="1396" d="M174 1430h199V547q0-201 74.5-297T698 154q177 0 251.5 96t74.5 297v883h199V586q0-319-122.5-465T692-25q-145 0-244 36T288 124.5t-87.5 189T174 586v844zm334 354v141h237q80 0 117-32.5t37-86.5q0-93-104-219l-50-63-106 51 113 209H508z"/><glyph glyph-name="uni1EE7" unicode="ủ" horiz-adv-x="1175" d="M817 0v174h-10Q731-25 510-25 346-25 252 83t-94 300v678h190V412q0-271 225-271 99 0 171.5 50.5T817 336v725h191V0H817zM399 1438v143h238q79 0 116.5-33.5T791 1462q0-94-105-221l-49-63-107 53 113 207H399z"/><glyph glyph-name="uni1EE8" unicode="Ứ" horiz-adv-x="1396" d="M174 1430h199V547q0-201 74.5-297T698 154q177 0 251.5 96t74.5 297v883h182v231h166v-211q0-69-32-106t-113-37h-4V586q0-319-122.5-465T692-25q-145 0-244 36T288 124.5t-87.5 189T174 586v844zm766 442l-227-332-121 57 180 357z"/><glyph glyph-name="uni1EE9" unicode="ứ" horiz-adv-x="1173" d="M1169 1292v-211q0-69-31-106t-112-37h-20V0H815v174h-10Q729-25 508-25 344-25 250 83t-94 300v678h190V412q0-271 225-271 99 0 171.5 50.5T815 336v725h189v231h165zm-344 236l-227-332-121 55 180 359z"/><glyph glyph-name="uni1EEA" unicode="Ừ" horiz-adv-x="1396" d="M174 1430h199V547q0-201 74.5-297T698 154q177 0 251.5 96t74.5 297v883h182v231h166v-211q0-69-32-106t-113-37h-4V586q0-319-122.5-465T692-25q-145 0-244 36T288 124.5t-87.5 189T174 586v844zm502 110l-227 332 167 82 181-357z"/><glyph glyph-name="uni1EEB" unicode="ừ" horiz-adv-x="1173" d="M1169 1292v-211q0-69-31-106t-112-37h-20V0H815v174h-10Q729-25 508-25 344-25 250 83t-94 300v678h190V412q0-271 225-271 99 0 171.5 50.5T815 336v725h189v231h165zm-608-96l-227 332 168 82 180-359z"/><glyph glyph-name="uni1EEC" unicode="Ử" horiz-adv-x="1396" d="M174 1430h199V547q0-201 74.5-297T698 154q177 0 251.5 96t74.5 297v883h182v231h166v-211q0-69-32-106t-113-37h-4V586q0-319-122.5-465T692-25q-145 0-244 36T288 124.5t-87.5 189T174 586v844zm334 354v141h237q80 0 117-32.5t37-86.5q0-93-104-219l-50-63-106 51 113 209H508z"/><glyph glyph-name="uni1EED" unicode="ử" horiz-adv-x="1173" d="M1169 1292v-211q0-69-31-106t-112-37h-20V0H815v174h-10Q729-25 508-25 344-25 250 83t-94 300v678h190V412q0-271 225-271 99 0 171.5 50.5T815 336v725h189v231h165zm-774 146v143h238q79 0 116-33.5t37-85.5q0-95-104-221l-49-63-107 53 113 207H395z"/><glyph glyph-name="uni1EEE" unicode="Ữ" horiz-adv-x="1396" d="M174 1430h199V547q0-201 74.5-297T698 154q177 0 251.5 96t74.5 297v883h182v231h166v-211q0-69-32-106t-113-37h-4V586q0-319-122.5-465T692-25q-145 0-244 36T288 124.5t-87.5 189T174 586v844zm647 169q-13 0-24.5 1t-24 4.5-20.5 6-21.5 8.5-17.5 8l-19 9.5-16 8.5q-77 41-121 41-56 0-113-54l-75 90q76 115 190 115 10 0 19.5-.5t19-3 16.5-3.5 17-5 15-5.5 15.5-7 13.5-6.5 14.5-7 12.5-7q34-17 47.5-23t34.5-12 39-6q57 0 113 53l76-90q-76-115-191-115z"/><glyph glyph-name="uni1EEF" unicode="ữ" horiz-adv-x="1173" d="M1169 1292v-211q0-69-31-106t-112-37h-20V0H815v174h-10Q729-25 508-25 344-25 250 83t-94 300v678h190V412q0-271 225-271 99 0 171.5 50.5T815 336v725h189v231h165zm-446-37q-10 0-19.5.5t-19 3-16.5 3.5-17 5-15 5.5-15.5 7-13.5 6.5-14.5 7-12.5 7q-77 41-121 41-57 0-113-53l-76 90q76 115 191 115 10 0 19.5-.5t19-3 16.5-3.5 17-5 15-5.5 15.5-7 13.5-6.5 14.5-7 12.5-7q34-17 47.5-23t34.5-12 39-6q57 0 113 53l75-90q-76-115-190-115z"/><glyph glyph-name="uni1EF0" unicode="Ự" horiz-adv-x="1396" d="M174 1430h199V547q0-201 74.5-297T698 154q177 0 251.5 96t74.5 297v883h182v231h166v-211q0-69-32-106t-113-37h-4V586q0-319-122.5-465T692-25q-145 0-244 36T288 124.5t-87.5 189T174 586v844zM694-360q-58 0-87 27t-29 75v27q0 48 29 75t87 27 87.5-27.5T811-231v-27q0-47-29.5-74.5T694-360z"/><glyph glyph-name="uni1EF1" unicode="ự" horiz-adv-x="1173" d="M1169 1292v-211q0-69-31-106t-112-37h-20V0H815v174h-10Q729-25 508-25 344-25 250 83t-94 300v678h190V412q0-271 225-271 99 0 171.5 50.5T815 336v725h189v231h165zM573-360q-58 0-87 27t-29 75v27q0 48 29 75t87 27 87.5-27.5T690-231v-27q0-47-29.5-74.5T573-360z"/><glyph glyph-name="Ygrave" unicode="Ỳ" horiz-adv-x="1234" d="M715 0H516v563L25 1430h227l366-666h7l364 666h221L715 569V0zM600 1540l-227 332 168 82 180-357z"/><glyph glyph-name="ygrave" unicode="ỳ" horiz-adv-x="1036" d="M584 383l237 678h185L545-231q-38-103-91-141t-171-38H178v162h174l72 205L31 1061h190l236-678 55-199h10zm-82 813l-228 332 168 82 181-359z"/><glyph glyph-name="uni1EF4" unicode="Ỵ" horiz-adv-x="1234" d="M715 0H516v563L25 1430h227l366-666h7l364 666h221L715 569V0zm-97-360q-58 0-87 27t-29 75v27q0 48 29 75t87 27 87.5-27.5T735-231v-27q0-47-29.5-74.5T618-360z"/><glyph glyph-name="uni1EF5" unicode="ỵ" horiz-adv-x="1036" d="M584 383l237 678h185L545-231q-38-103-91-141t-171-38H178v162h174l72 205L31 1061h190l236-678 55-199h10zm235-743q-58 0-87.5 27.5T702-258v27q0 47 29.5 74.5T819-129t87.5-27.5T936-231v-27q0-47-29.5-74.5T819-360z"/><glyph glyph-name="uni1EF6" unicode="Ỷ" horiz-adv-x="1234" d="M715 0H516v563L25 1430h227l366-666h7l364 666h221L715 569V0zM432 1784v141h238q80 0 116.5-32.5T823 1806q0-93-104-219l-49-63-107 51 113 209H432z"/><glyph glyph-name="uni1EF7" unicode="ỷ" horiz-adv-x="1036" d="M584 383l237 678h185L545-231q-38-103-91-141t-171-38H178v162h174l72 205L31 1061h190l236-678 55-199h10zM336 1438v143h237q79 0 116.5-33.5T727 1462q0-95-104-221l-50-63-106 53 113 207H336z"/><glyph glyph-name="uni1EF8" unicode="Ỹ" horiz-adv-x="1234" d="M715 0H516v563L25 1430h227l366-666h7l364 666h221L715 569V0zm55 1593q-13 0-26 1.5t-22.5 3-22.5 6-20 6.5-20.5 8.5-17.5 8.5-18.5 9.5-16.5 8.5q-90 47-145 47-33 0-59.5-12.5T340 1638l-74 93q74 112 201 112 10 0 20.5-1t19-2 19-4 16.5-4.5 17-5.5 15-5.5 15.5-7.5 14-7 14.5-7 13-7q90-47 145-47 33 0 59.5 12.5T897 1798l74-92q-75-113-201-113z"/><glyph glyph-name="uni1EF9" unicode="ỹ" horiz-adv-x="1036" d="M584 383l237 678h185L545-231q-38-103-91-141t-171-38H178v162h174l72 205L31 1061h190l236-678 55-199h10zm88 866q-10 0-20.5 1t-19 2-19 4-16.5 4.5-17 5.5-15 5.5-15.5 7.5-14 7-14.5 7-13 7q-92 48-146 48-33 0-58.5-12.5T242 1294l-74 92q75 113 201 113 11 0 22-1t22-3 19-4 19.5-6 17-6 17.5-7.5 15-7.5 16-8.5l15-7.5q90-47 146-47 33 0 59.5 12.5T799 1454l73-92q-75-113-200-113z"/><glyph glyph-name="endash" unicode="–" horiz-adv-x="1204" d="M1130 537H74v172h1056V537z"/><glyph glyph-name="emdash" unicode="—" horiz-adv-x="1597" d="M1524 537H74v172h1450V537z"/><glyph glyph-name="quoteleft" unicode="‘" horiz-adv-x="567" d="M276 983q-68 0-101.5 34.5T141 1112v31q0 93 52 197.5T334 1518h149q-66-68-104.5-127.5T322 1262q90-18 90-119v-31q0-60-34-94.5T276 983z"/><glyph glyph-name="quoteright" unicode="’" horiz-adv-x="567" d="M291 1536q68 0 101.5-34.5T426 1407v-31q0-93-52-197.5T233 1001H84q67 68 105.5 127.5T246 1257q-90 18-90 119v31q0 60 33.5 94.5T291 1536z"/><glyph glyph-name="quotesinglbase" unicode="‚" horiz-adv-x="573" d="M279 293q68 0 101.5-34.5T414 164v-31q0-93-52-197.5T221-242H72q66 68 104.5 127.5T233 14q-90 18-90 119v31q0 60 34 94.5T279 293z"/><glyph glyph-name="quotedblleft" unicode="“" horiz-adv-x="991" d="M276 983q-68 0-101.5 34.5T141 1112v31q0 93 52 197.5T334 1518h149q-66-68-104.5-127.5T322 1262q90-18 90-119v-31q0-60-34-94.5T276 983zm424 0q-68 0-101.5 34.5T565 1112v31q0 93 52 197.5T758 1518h149q-67-68-105.5-127.5T745 1262q45-9 68-40.5t23-78.5v-31q0-60-34-94.5T700 983z"/><glyph glyph-name="quotedblright" unicode="”" horiz-adv-x="991" d="M291 1536q68 0 101.5-34.5T426 1407v-31q0-93-52-197.5T233 1001H84q67 68 105.5 127.5T246 1257q-90 18-90 119v31q0 60 33.5 94.5T291 1536zm424 0q68 0 101.5-34.5T850 1407v-31q0-93-52-197.5T657 1001H508q67 68 105.5 127.5T670 1257q-90 18-90 119v31q0 60 33.5 94.5T715 1536z"/><glyph glyph-name="quotedblbase" unicode="„" horiz-adv-x="995" d="M279 293q68 0 101.5-34.5T414 164v-31q0-93-52-197.5T221-242H72q66 68 104.5 127.5T233 14q-90 18-90 119v31q0 60 34 94.5T279 293zm421 0q68 0 102-34.5t34-94.5v-31q0-93-52-197.5T643-242H494q66 68 104.5 127.5T655 14q-90 18-90 119v31q0 60 33.5 94.5T700 293z"/><glyph glyph-name="dagger" unicode="†" horiz-adv-x="1118" d="M641-410H477V913H92v148h385v455h164v-455h385V913H641V-410z"/><glyph glyph-name="daggerdbl" unicode="‡" horiz-adv-x="1126" d="M645-410H479V45H96v148h383v720H96v148h383v455h166v-455h385V913H645V193h385V45H645v-455z"/><glyph glyph-name="bullet" unicode="•" horiz-adv-x="823" d="M412 362q-135 0-198.5 61T150 586v59q0 102 63.5 162.5T412 868t198.5-60.5T674 645v-59q0-102-63.5-163T412 362z"/><glyph glyph-name="ellipsis" unicode="…" horiz-adv-x="1675" d="M285-25q-68 0-101.5 34.5T150 102v31q0 58 33.5 92.5T285 260t101.5-34.5T420 133v-31q0-58-33.5-92.5T285-25zm553 0q-68 0-102 34.5T702 102v31q0 58 34 92.5T838 260t101.5-34.5T973 133v-31q0-58-33.5-92.5T838-25zm553 0q-68 0-102 34.5t-34 92.5v31q0 58 34 92.5t102 34.5 101.5-34.5T1526 133v-31q0-58-33.5-92.5T1391-25z"/><glyph glyph-name="perthousand" unicode="‰" horiz-adv-x="2711" d="M555 0H375l991 1430h180zm-94 643q-160 0-247 105t-87 301 87 300.5T461 1454t247-104.5 87-300.5-87-301-247-105zm0 121q164 0 164 225v119q0 225-164 225t-164-225V989q0-225 164-225zm999-789q-160 0-247 105t-87 301 87 300.5T1460 786t247-104.5 87-300.5-87-301-247-105zm0 121q164 0 164 226v118q0 226-164 226t-164-226V322q0-226 164-226zm791-121q-160 0-247 105t-87 301 87 300.5T2251 786t247-104.5 87-300.5-87-301-247-105zm0 121q164 0 164 226v118q0 226-164 226t-164-226V322q0-226 164-226z"/><glyph glyph-name="uni2032" unicode="′" horiz-adv-x="505" d="M283 762H106l117 668h176z"/><glyph glyph-name="uni2033" unicode="″" horiz-adv-x="886" d="M283 762H106l117 668h176zm381 0H487l117 668h176z"/><glyph glyph-name="guilsinglleft" unicode="‹" horiz-adv-x="628" d="M522 279l-57-125L74 492v172l391 337 57-124-274-299z"/></font>
</defs>
</svg>
