<?xml version="1.0" standalone="no"?>
<!DOCTYPE svg PUBLIC "-//W3C//DTD SVG 1.1//EN" "http://www.w3.org/Graphics/SVG/1.1/DTD/svg11.dtd" >
<svg xmlns="http://www.w3.org/2000/svg" xmlns:xlink="http://www.w3.org/1999/xlink" version="1.1">
<metadata>
Created by FontForge 20170731 at Tue Dec 29 01:52:05 2020
 By Aleksey,,,
Copyright 2017 IBM Corp. All rights reserved.
</metadata>
<defs>
<font id="IBMPlexMono-ExtraLight" horiz-adv-x="1228" >
  <font-face 
    font-family="IBM Plex Mono ExtraLight"
    font-weight="200"
    font-stretch="normal"
    units-per-em="2048"
    panose-1="2 11 3 9 5 2 3 0 2 3"
    ascent="1597"
    descent="-451"
    x-height="1057"
    cap-height="1430"
    bbox="-483 -514 1257 2249"
    underline-thickness="53"
    underline-position="-435"
    unicode-range="U+0020-FB02"
  />
<missing-glyph 
d="M66 0v1597h1097v-1597h-1097zM119 53h991v1491h-991v-1491z" />
    <glyph glyph-name=".notdef" 
d="M66 0v1597h1097v-1597h-1097zM119 53h991v1491h-991v-1491z" />
    <glyph glyph-name=".null" horiz-adv-x="0" 
 />
    <glyph glyph-name="nonmarkingreturn" horiz-adv-x="682" 
 />
    <glyph glyph-name="space" unicode=" " 
 />
    <glyph glyph-name="exclam" unicode="!" 
d="M631 389h-33l-23 500v541h78v-541zM614 -12q-88 0 -88 71v21q0 72 88 72t88 -72v-21q0 -71 -88 -71z" />
    <glyph glyph-name="quotedbl" unicode="&#x22;" 
d="M506 991h-74v525h74v-525zM797 991h-74v525h74v-525z" />
    <glyph glyph-name="numbersign" unicode="#" 
d="M272 0l84 479h-313v62h326l61 348h-315v61h325l84 480h70l-252 -1430h-70zM637 0l252 1430h69l-84 -480h314v-61h-326l-61 -348h315v-62h-325l-84 -479h-70z" />
    <glyph glyph-name="dollar" unicode="$" 
d="M598 -231v206q-167 4 -277.5 66t-193.5 172l57 45q80 -104 174.5 -157.5t239.5 -57.5v657l-68 11q-366 62 -366 376q0 175 115.5 268.5t318.5 98.5v207h61v-207q278 -14 414 -207l-57 -43q-60 85 -146 130t-211 52v-622l62 -10q86 -15 151.5 -43.5t106.5 -64t67 -82
t36 -93.5t10 -102q0 -182 -115 -283.5t-318 -110.5v-206h-61zM238 1087q0 -73 23 -128t67 -90t97.5 -56t125.5 -33l47 -8v614q-172 -3 -266 -79t-94 -220zM1018 367q0 79 -24 136.5t-70 93t-100 55.5t-126 32l-39 6v-647q170 6 264.5 89.5t94.5 234.5z" />
    <glyph glyph-name="percent" unicode="%" 
d="M352 760q-128 0 -208.5 87t-80.5 261q0 173 80.5 259.5t208.5 86.5t208.5 -86.5t80.5 -259.5q0 -174 -80.5 -261t-208.5 -87zM352 813q95 0 158 65.5t63 194.5v68q0 129 -63 194.5t-158 65.5t-158 -65.5t-63 -194.5v-68q0 -129 63 -194.5t158 -65.5zM752 815l356 615h68
l-357 -615h-67zM53 0l357 614h67l-356 -614h-68zM877 -25q-128 0 -208.5 87t-80.5 260q0 174 80.5 261t208.5 87t208 -87t80 -261q0 -173 -80 -260t-208 -87zM877 29q95 0 158 65.5t63 194.5v67q0 129 -63 194.5t-158 65.5t-158.5 -65.5t-63.5 -194.5v-67
q0 -129 63.5 -194.5t158.5 -65.5z" />
    <glyph glyph-name="ampersand" unicode="&#x26;" 
d="M463 -25q-180 0 -282.5 106.5t-102.5 278.5q0 292 280 431q-141 166 -141 333q0 147 91.5 238.5t236.5 91.5q117 0 198.5 -57.5t120.5 -145.5l-61 -30q-37 77 -102 123.5t-158 46.5q-117 0 -184.5 -69.5t-67.5 -188.5v-25q0 -132 139 -297l410 -483h6q20 62 29 149
t20 266h227v-63h-164q-11 -155 -25 -245t-42 -161l233 -274h-86l-188 219h-6q-51 -113 -149.5 -178.5t-231.5 -65.5zM475 41q115 0 202.5 57.5t135.5 157.5l-418 489q-241 -126 -241 -362v-43q0 -129 87 -214t234 -85z" />
    <glyph glyph-name="quotesingle" unicode="'" 
d="M651 991h-73v525h73v-525z" />
    <glyph glyph-name="parenleft" unicode="(" 
d="M471 637q0 295 116 534t300 385h80q-190 -146 -308 -376t-118 -496v-94q0 -266 118 -496.5t308 -376.5h-80q-184 146 -300 385.5t-116 534.5z" />
    <glyph glyph-name="parenright" unicode=")" 
d="M758 637q0 -295 -116 -534.5t-300 -385.5h-80q190 146 308 376.5t118 496.5v94q0 266 -118 496t-308 376h80q184 -146 300 -385t116 -534z" />
    <glyph glyph-name="asterisk" unicode="*" 
d="M614 528l-307 -424l-55 39l307 420l-463 150l19 61l467 -147v497h67v-497l465 147l21 -61l-465 -150l307 -420l-53 -39z" />
    <glyph glyph-name="plus" unicode="+" 
d="M649 127h-69v467h-453v63h453v467h69v-467h453v-63h-453v-467z" />
    <glyph glyph-name="comma" unicode="," 
d="M459 -338l108 526h129l-178 -526h-59z" />
    <glyph glyph-name="hyphen" unicode="-" 
d="M891 588h-553v71h553v-71z" />
    <glyph glyph-name="period" unicode="." 
d="M614 -12q-88 0 -88 71v21q0 72 88 72t88 -72v-21q0 -71 -88 -71z" />
    <glyph glyph-name="slash" unicode="/" 
d="M272 -283h-65l749 1839h66z" />
    <glyph glyph-name="zero" unicode="0" 
d="M614 -25q-237 0 -357 181.5t-120 558.5t120 558t357 181t357.5 -181t120.5 -558q0 -740 -478 -740zM614 43q196 0 296 151t100 443v156q0 292 -100 442.5t-296 150.5t-295.5 -150t-99.5 -443v-156q0 -293 99.5 -443.5t295.5 -150.5zM614 647q-69 0 -69 55v25q0 55 69 55
q70 0 70 -55v-25q0 -55 -70 -55z" />
    <glyph glyph-name="one" unicode="1" 
d="M1128 0h-933v68h440v1306h-8l-422 -362l-45 51l428 367h121v-1362h419v-68z" />
    <glyph glyph-name="two" unicode="2" 
d="M1075 68v-68h-905v76l535 526q221 218 221 422v53q0 139 -84.5 224t-241.5 85q-278 0 -364 -274l-68 21q41 146 149 233.5t285 87.5q194 0 299 -107t105 -294q0 -137 -64 -256t-192 -244l-498 -485h823z" />
    <glyph glyph-name="three" unicode="3" 
d="M385 782h184q152 0 245 79.5t93 205.5v41q0 126 -88.5 202t-230.5 76q-245 0 -342 -196l-60 35q49 104 150.5 166.5t253.5 62.5q178 0 287.5 -96.5t109.5 -259.5q0 -143 -77.5 -229.5t-207.5 -112.5v-8q143 -19 229.5 -114t86.5 -249q0 -187 -119.5 -298.5t-320.5 -111.5
q-300 0 -445 226l57 41q66 -101 159 -150t229 -49q161 0 259.5 86.5t98.5 228.5v48q0 142 -96.5 226.5t-264.5 84.5h-190v65z" />
    <glyph glyph-name="four" unicode="4" 
d="M899 0h-72v317h-737v68l709 1045h100v-1051h234v-62h-234v-317zM821 1354l-661 -975h667v975h-6z" />
    <glyph glyph-name="five" unicode="5" 
d="M995 1430v-68h-657l-47 -651h8q60 76 139 110.5t193 34.5q194 0 306 -115t112 -317q0 -206 -119.5 -327.5t-321.5 -121.5q-293 0 -442 226l59 41q66 -102 157.5 -150.5t225.5 -48.5q169 0 265 96.5t96 255.5v47q0 160 -92 254.5t-259 94.5q-118 0 -188.5 -33t-134.5 -107
l-70 11l51 768h719z" />
    <glyph glyph-name="six" unicode="6" 
d="M614 -25q-113 0 -199.5 37.5t-140 105.5t-80 158.5t-26.5 200.5q0 165 43 313.5t120.5 266t173.5 209.5t212 164h102q-250 -161 -387 -346t-182 -435l6 -2q54 105 148.5 160t222.5 55q196 0 314 -117.5t118 -318.5q0 -203 -121.5 -327t-323.5 -124zM612 41q169 0 268 98
t99 254v53q0 156 -98.5 253.5t-268.5 97.5t-268 -97.5t-98 -253.5v-49q0 -158 99 -257t267 -99z" />
    <glyph glyph-name="seven" unicode="7" 
d="M457 0h-80l604 1364h-758v-324h-71v390h907v-68z" />
    <glyph glyph-name="eight" unicode="8" 
d="M614 -25q-220 0 -347.5 109.5t-127.5 288.5q0 149 83 246.5t227 125.5v11q-122 28 -192.5 117.5t-70.5 222.5q0 165 115 261.5t313 96.5t313 -96.5t115 -261.5q0 -133 -70 -222.5t-192 -117.5v-11q144 -28 227 -125.5t83 -246.5q0 -179 -128 -288.5t-348 -109.5zM614 41
q180 0 288 86.5t108 226.5v52q0 140 -108 226.5t-288 86.5t-287.5 -86t-107.5 -227v-52q0 -141 107.5 -227t287.5 -86zM614 782q159 0 254 76.5t95 204.5v45q0 128 -95 204.5t-254 76.5t-253.5 -76.5t-94.5 -204.5v-45q0 -128 94.5 -204.5t253.5 -76.5z" />
    <glyph glyph-name="nine" unicode="9" 
d="M1067 952q0 -165 -43.5 -313.5t-121.5 -265.5t-174 -209t-212 -164h-102q250 161 387 345.5t184 434.5l-8 2q-54 -105 -148 -160t-221 -55q-198 0 -316 118t-118 319q0 203 121 326.5t323 123.5q113 0 200 -37.5t141 -105.5t81 -158.5t27 -200.5zM621 633q170 0 268 97
t98 253v49q0 158 -99 257.5t-267 99.5q-169 0 -268 -98t-99 -255v-53q0 -155 99 -252.5t268 -97.5z" />
    <glyph glyph-name="colon" unicode=":" 
d="M614 -12q-88 0 -88 71v21q0 72 88 72t88 -72v-21q0 -71 -88 -71zM614 905q-88 0 -88 72v20q0 72 88 72t88 -72v-20q0 -72 -88 -72z" />
    <glyph glyph-name="semicolon" unicode=";" 
d="M459 -338l108 526h129l-178 -526h-59zM614 905q-88 0 -88 72v20q0 72 88 72t88 -72v-20q0 -72 -88 -72z" />
    <glyph glyph-name="less" unicode="&#x3c;" 
d="M1055 68l-881 524v65l881 525v-76l-809 -477v-6l809 -480v-75z" />
    <glyph glyph-name="equal" unicode="=" 
d="M1102 782h-975v64h975v-64zM1102 408h-975v63h975v-63z" />
    <glyph glyph-name="greater" unicode="&#x3e;" 
d="M174 68v75l809 478v6l-809 479v76l881 -525v-65z" />
    <glyph glyph-name="question" unicode="?" 
d="M608 379h-73v346q194 4 302.5 92.5t108.5 237.5v47q0 132 -86 209.5t-237 77.5q-282 0 -361 -271l-67 21q42 149 151 232t279 83q185 0 292 -101t107 -270q0 -179 -111.5 -285.5t-304.5 -127.5v-291zM573 -12q-45 0 -67.5 19t-22.5 52v21q0 33 23 52.5t67 19.5
q43 0 66 -19.5t23 -52.5v-21q0 -33 -23 -52t-66 -19z" />
    <glyph glyph-name="at" unicode="@" 
d="M956 -160v-59h-292q-98 0 -174 24.5t-129 75t-89.5 118.5t-57.5 164t-29.5 201t-8.5 240q0 307 45.5 492.5t141.5 271.5t253 86q90 0 161 -27t116.5 -73t75.5 -111.5t42.5 -138t12.5 -156.5v-755h-66v120h-8q-61 -139 -215 -139q-282 0 -282 426t282 426q154 0 215 -137
h8v59q0 99 -18 177.5t-57 140t-106 94.5t-159 33q-198 0 -285 -169.5t-87 -553.5v-133q0 -131 10.5 -231t38 -190.5t73.5 -149t120.5 -92.5t175.5 -34h292zM752 231q95 0 150.5 59.5t55.5 160.5v299q0 101 -55.5 160t-150.5 59q-230 0 -230 -328v-80q0 -330 230 -330z" />
    <glyph glyph-name="A" unicode="A" 
d="M1133 0h-78l-152 463h-577l-152 -463h-78l469 1430h101zM885 528l-267 820h-10l-264 -820h541z" />
    <glyph glyph-name="B" unicode="B" 
d="M197 0v1430h460q166 0 258.5 -95t92.5 -270q0 -260 -205 -326v-4q129 -26 197.5 -116t68.5 -236q0 -173 -96 -278t-266 -105h-510zM270 68h424q143 0 219 76.5t76 193.5v86q0 117 -76.5 194.5t-218.5 77.5h-424v-628zM270 760h383q132 0 203.5 73.5t71.5 186.5v84
q0 113 -71 185.5t-204 72.5h-383v-602z" />
    <glyph glyph-name="C" unicode="C" 
d="M666 -25q-252 0 -380 181t-128 559t128 558.5t380 180.5q150 0 252.5 -79.5t152.5 -215.5l-65 -26q-41 119 -127 186t-213 67q-210 0 -318 -150.5t-108 -442.5v-156q0 -292 108 -443t318 -151q127 0 213 67.5t127 186.5l65 -27q-50 -136 -152.5 -215.5t-252.5 -79.5z" />
    <glyph glyph-name="D" unicode="D" 
d="M215 0v1430h379q255 0 375.5 -178t120.5 -537t-120.5 -537t-375.5 -178h-379zM289 68h305q210 0 312 147.5t102 423.5v152q0 276 -102 423.5t-312 147.5h-305v-1294z" />
    <glyph glyph-name="E" unicode="E" 
d="M1055 0h-842v1430h842v-68h-768v-602h741v-68h-741v-624h768v-68z" />
    <glyph glyph-name="F" unicode="F" 
d="M287 0h-74v1430h854v-68h-780v-602h721v-68h-721v-692z" />
    <glyph glyph-name="G" unicode="G" 
d="M983 0v207h-8q-22 -53 -48.5 -91.5t-66.5 -72t-99.5 -51t-135.5 -17.5q-482 0 -482 738q0 380 125 560.5t369 180.5q149 0 252 -80t151 -215l-65 -26q-41 119 -126.5 186t-209.5 67q-204 0 -309 -150.5t-105 -442.5v-154q0 -292 103.5 -445t306.5 -153q160 0 254 101.5
t94 263.5v190h-350v63h422v-659h-72z" />
    <glyph glyph-name="H" unicode="H" 
d="M963 0v692h-697v-692h-73v1430h73v-672h697v672h73v-1430h-73z" />
    <glyph glyph-name="I" unicode="I" 
d="M1044 0h-860v61h394v1307h-394v62h860v-62h-393v-1307h393v-61z" />
    <glyph glyph-name="J" unicode="J" 
d="M315 1430h639v-1047q0 -191 -106 -299.5t-283 -108.5q-151 0 -251 74.5t-128 206.5l72 16q26 -107 103 -168t206 -61q149 0 231.5 90.5t82.5 259.5v969h-566v68z" />
    <glyph glyph-name="K" unicode="K" 
d="M1049 0l-506 770l-258 -289v-481h-74v1430h74v-848h4l260 295l489 553h90l-532 -605l541 -825h-88z" />
    <glyph glyph-name="L" unicode="L" 
d="M1085 0h-798v1430h73v-1362h725v-68z" />
    <glyph glyph-name="M" unicode="M" 
d="M993 0v1319h-8l-371 -834l-370 834h-8v-1319h-70v1430h102l344 -779h9l342 779h100v-1430h-70z" />
    <glyph glyph-name="N" unicode="N" 
d="M930 0l-660 1331h-8v-1331h-69v1430h106l659 -1328h9v1328h69v-1430h-106z" />
    <glyph glyph-name="O" unicode="O" 
d="M614 -25q-237 0 -357 181.5t-120 558.5t120 558t357 181t357.5 -181t120.5 -558q0 -740 -478 -740zM614 43q196 0 296 151t100 443v156q0 292 -100 442.5t-296 150.5t-295.5 -150t-99.5 -443v-156q0 -293 99.5 -443.5t295.5 -150.5z" />
    <glyph glyph-name="P" unicode="P" 
d="M287 0h-74v1430h504q178 0 273 -104.5t95 -287.5t-95 -288t-273 -105h-430v-645zM287 1362v-649h430q140 0 214.5 79.5t74.5 200.5v90q0 120 -75 199.5t-214 79.5h-430z" />
    <glyph glyph-name="Q" unicode="Q" 
d="M981 -227v-66h-301q-51 0 -76.5 27t-25.5 76v167q-219 14 -330 194.5t-111 543.5q0 377 120 558t357 181t357.5 -181t120.5 -558q0 -710 -441 -738v-204h330zM614 43q196 0 296 151t100 443v156q0 292 -100 442.5t-296 150.5t-295.5 -150t-99.5 -443v-156
q0 -293 99.5 -443.5t295.5 -150.5z" />
    <glyph glyph-name="R" unicode="R" 
d="M287 647v-647h-74v1430h504q178 0 273 -104.5t95 -287.5q0 -178 -91.5 -281.5t-262.5 -107.5h-59l409 -649h-86l-405 647h-303zM287 713h430q140 0 214.5 79.5t74.5 200.5v90q0 120 -75 199.5t-214 79.5h-430v-649z" />
    <glyph glyph-name="S" unicode="S" 
d="M621 -25q-178 0 -294.5 62t-201.5 176l57 45q83 -108 183.5 -162.5t255.5 -54.5q187 0 289 84.5t102 243.5q0 78 -24 135.5t-69.5 92.5t-99.5 55t-127 32l-164 27q-366 60 -366 374q0 182 120.5 275.5t331.5 93.5q312 0 453 -203l-55 -47q-65 93 -161 139t-241 46
q-177 0 -274.5 -76.5t-97.5 -225.5q0 -142 82 -212.5t233 -94.5l162 -26q372 -62 372 -383q0 -191 -124 -293.5t-342 -102.5z" />
    <glyph glyph-name="T" unicode="T" 
d="M1153 1362h-502v-1362h-73v1362h-502v68h1077v-68z" />
    <glyph glyph-name="U" unicode="U" 
d="M193 1430h73v-869q0 -152 14.5 -245.5t53.5 -157.5t106 -89.5t174 -25.5t174 25.5t106.5 89.5t54 157.5t14.5 245.5v869h73v-859q0 -171 -19 -280.5t-68 -182.5t-129 -103t-206 -30t-206 30t-128.5 103t-67.5 182t-19 281v859z" />
    <glyph glyph-name="V" unicode="V" 
d="M666 0h-103l-461 1430h82l428 -1350h6l431 1350h77z" />
    <glyph glyph-name="W" unicode="W" 
d="M358 0h-118l-131 1430h67l125 -1354h10l260 932h88l261 -932h10l125 1354h65l-131 -1430h-119l-252 911h-8z" />
    <glyph glyph-name="X" unicode="X" 
d="M662 731l479 -731h-88l-435 668h-6l-438 -668h-84l481 725l-462 705h90l415 -639h7l417 639h84z" />
    <glyph glyph-name="Y" unicode="Y" 
d="M651 0h-73v592l-527 838h86l475 -760h6l476 760h84l-527 -838v-592z" />
    <glyph glyph-name="Z" unicode="Z" 
d="M1130 68v-68h-1032v72l906 1290h-861v68h942v-72l-905 -1290h950z" />
    <glyph glyph-name="bracketleft" unicode="[" 
d="M1030 -283h-506v1839h506v-57h-442v-1724h442v-58z" />
    <glyph glyph-name="backslash" unicode="\" 
d="M1022 -283h-66l-749 1839h65z" />
    <glyph glyph-name="bracketright" unicode="]" 
d="M199 1556h506v-1839h-506v58h442v1724h-442v57z" />
    <glyph glyph-name="asciicircum" unicode="^" 
d="M1100 674l-60 -31l-424 719h-6l-424 -719l-57 31l446 756h78z" />
    <glyph glyph-name="underscore" unicode="_" 
d="M1106 -303h-983v65h983v-65z" />
    <glyph glyph-name="grave" unicode="`" 
d="M637 1217l-231 315l65 35l215 -324z" />
    <glyph glyph-name="a" unicode="a" 
d="M1098 0h-148q-87 0 -90 86v76h-8q-40 -85 -125 -136t-219 -51q-169 0 -261.5 78t-92.5 221q0 142 96 220.5t319 78.5h289v152q0 146 -77.5 219.5t-217.5 73.5q-113 0 -196 -47.5t-125 -143.5l-54 35q45 101 140.5 160t236.5 59q171 0 268 -92t97 -256v-670h168v-63z
M514 37q146 0 245 71t99 195v213h-287q-340 0 -340 -211v-61q0 -98 77 -152.5t206 -54.5z" />
    <glyph glyph-name="b" unicode="b" 
d="M242 0v1516h71v-621h6q40 81 124.5 133.5t205.5 52.5q202 0 314 -142.5t112 -410.5t-112 -410.5t-314 -142.5q-121 0 -205.5 53t-124.5 134h-6v-162h-71zM633 39q173 0 268.5 115t95.5 315v119q0 200 -95.5 315t-268.5 115q-131 0 -225.5 -74t-94.5 -190v-451
q0 -116 94.5 -190t225.5 -74z" />
    <glyph glyph-name="c" unicode="c" 
d="M657 -25q-212 0 -328 143t-116 410t116.5 410t327.5 143q137 0 231 -63t134 -170l-61 -25q-35 94 -113.5 144.5t-190.5 50.5q-175 0 -270.5 -115.5t-95.5 -314.5v-119q0 -199 95.5 -314.5t270.5 -115.5q117 0 198.5 54t125.5 151l55 -33q-44 -104 -142 -170t-237 -66z
" />
    <glyph glyph-name="d" unicode="d" 
d="M915 0v162h-6q-41 -81 -124.5 -134t-204.5 -53q-202 0 -314 142.5t-112 410.5t112 410.5t314 142.5q121 0 205 -52.5t124 -133.5h6v621h72v-1516h-72zM596 39q131 0 225 74t94 190v451q0 116 -94 190t-225 74q-173 0 -269 -115t-96 -315v-119q0 -200 96 -315t269 -115z
" />
    <glyph glyph-name="e" unicode="e" 
d="M629 -25q-214 0 -333.5 143.5t-119.5 409.5q0 265 117.5 409t324.5 144q209 0 324 -143.5t115 -386.5v-29h-803v-53q0 -199 98.5 -314.5t276.5 -115.5q258 0 350 237l57 -30q-47 -126 -152 -198.5t-255 -72.5zM618 1020q-171 0 -267.5 -116.5t-96.5 -315.5v-8h727v10
q0 199 -96 314.5t-267 115.5z" />
    <glyph glyph-name="f" unicode="f" 
d="M186 0v63h387v930h-407v64h407v356q0 103 101 103h424v-64h-455v-395h455v-64h-455v-930h408v-63h-865z" />
    <glyph glyph-name="g" unicode="g" 
d="M1120 -127q0 -307 -499 -307q-229 0 -338 70t-109 196q0 176 199 238v10q-107 36 -107 139q0 70 49.5 114.5t128.5 67.5v7q-91 40 -140.5 122t-49.5 197q0 160 99.5 257t267.5 97q132 0 223 -63v67q0 76 76 76h219v-63h-246v-119q96 -96 96 -252q0 -161 -101.5 -258.5
t-266.5 -97.5q-55 0 -111 12q-178 -44 -178 -154q0 -104 176 -104h266q177 0 261.5 -66t84.5 -186zM1051 -131q0 92 -65 140t-216 48h-328q-194 -55 -194 -217q0 -99 83 -156t230 -57h115q175 0 275 60.5t100 181.5zM621 430q137 0 213.5 72t76.5 188v74q0 114 -76.5 186
t-213.5 72q-136 0 -212.5 -72t-76.5 -186v-74q0 -115 77 -187.5t212 -72.5z" />
    <glyph glyph-name="h" unicode="h" 
d="M246 0v1516h71v-615h7q33 78 112 129t207 51q172 0 265 -102t93 -293v-686h-71v674q0 344 -303 344q-129 0 -219.5 -68.5t-90.5 -193.5v-756h-71z" />
    <glyph glyph-name="i" unicode="i" 
d="M680 1386q-76 0 -76 62v18q0 62 76 62t76 -62v-18q0 -62 -76 -62zM233 0v63h412v930h-412v64h484v-994h385v-63h-869z" />
    <glyph glyph-name="j" unicode="j" 
d="M223 -410v64h582v1339h-610v64h682v-1364q0 -103 -101 -103h-553zM842 1386q-76 0 -76 62v18q0 62 76 62t76 -62v-18q0 -62 -76 -62z" />
    <glyph glyph-name="k" unicode="k" 
d="M268 0v1516h72v-1041h6l229 203l433 379h92l-467 -414l522 -643h-88l-489 598l-238 -207v-391h-72z" />
    <glyph glyph-name="l" unicode="l" 
d="M180 0v63h400v1389h-400v64h471v-1453h398v-63h-869z" />
    <glyph glyph-name="m" unicode="m" 
d="M209 0h-68v1057h68v-125h6q57 149 215 149q87 0 139.5 -43.5t67.5 -124.5h4q59 168 229 168q220 0 220 -282v-799h-68v788q0 120 -42 176t-128 56q-88 0 -145.5 -61t-57.5 -175v-784h-67v788q0 120 -42 176t-128 56q-87 0 -145 -61.5t-58 -174.5v-784z" />
    <glyph glyph-name="n" unicode="n" 
d="M317 0h-71v1057h71v-156h7q33 78 112 129t207 51q172 0 265 -102t93 -293v-686h-71v674q0 344 -303 344q-129 0 -219.5 -68.5t-90.5 -193.5v-756z" />
    <glyph glyph-name="o" unicode="o" 
d="M614 -25q-209 0 -325.5 143.5t-116.5 409.5t116.5 409.5t325.5 143.5t326 -143.5t117 -409.5t-117 -409.5t-326 -143.5zM614 39q173 0 269 115t96 319v111q0 204 -96 319t-269 115t-268.5 -114.5t-95.5 -319.5v-111q0 -205 95.5 -319.5t268.5 -114.5z" />
    <glyph glyph-name="p" unicode="p" 
d="M242 -410v1467h71v-162h6q40 81 124.5 133.5t205.5 52.5q202 0 314 -142.5t112 -410.5t-112 -410.5t-314 -142.5q-121 0 -205.5 53t-124.5 134h-6v-572h-71zM633 39q173 0 268.5 115t95.5 315v119q0 200 -95.5 315t-268.5 115q-131 0 -225.5 -74t-94.5 -190v-451
q0 -116 94.5 -190t225.5 -74z" />
    <glyph glyph-name="q" unicode="q" 
d="M915 -410v572h-6q-41 -81 -124.5 -134t-204.5 -53q-202 0 -314 142.5t-112 410.5t112 410.5t314 142.5q121 0 205 -52.5t124 -133.5h6v162h72v-1467h-72zM596 39q131 0 225 74t94 190v451q0 116 -94 190t-225 74q-173 0 -269 -115t-96 -315v-119q0 -200 96 -315t269 -115
z" />
    <glyph glyph-name="r" unicode="r" 
d="M162 0v63h352v930h-352v64h424v-219h6q40 101 118 160t216 59h215v-68h-234q-139 0 -230 -87t-91 -243v-596h450v-63h-874z" />
    <glyph glyph-name="s" unicode="s" 
d="M645 -25q-299 0 -471 209l51 43q79 -98 181 -144t239 -46q160 0 253 63t93 185q0 54 -18 91.5t-55 61t-81.5 36.5t-109.5 22l-164 22q-62 9 -106 19.5t-90.5 31t-75.5 48.5t-47.5 72t-18.5 102q0 76 30 133t84 90.5t122.5 50t150.5 16.5q254 0 412 -166l-49 -49
q-61 70 -146 112t-219 42q-148 0 -230.5 -55.5t-82.5 -169.5q0 -101 65 -145.5t199 -63.5l166 -25q60 -8 104.5 -18.5t90.5 -31t75 -48t47.5 -72t18.5 -102.5q0 -154 -115 -234t-303 -80z" />
    <glyph glyph-name="t" unicode="t" 
d="M1071 0h-498q-100 0 -100 102v891h-397v64h330q37 0 53 16t16 51v306h70v-373h526v-64h-526v-930h526v-63z" />
    <glyph glyph-name="u" unicode="u" 
d="M911 0v156h-6q-33 -78 -112 -129.5t-207 -51.5q-172 0 -265.5 102.5t-93.5 293.5v686h72v-674q0 -344 303 -344q129 0 219 68.5t90 193.5v756h72v-1057h-72z" />
    <glyph glyph-name="v" unicode="v" 
d="M659 0h-90l-393 1057h74l362 -987h6l363 987h72z" />
    <glyph glyph-name="w" unicode="w" 
d="M264 0l-190 1057h65l176 -994h9l245 994h93l245 -994h8l177 994h63l-190 -1057h-103l-241 985h-9l-245 -985h-103z" />
    <glyph glyph-name="x" unicode="x" 
d="M252 0h-84l403 532l-395 525h86l352 -469h4l353 469h82l-396 -522l404 -535h-88l-359 479h-4z" />
    <glyph glyph-name="y" unicode="y" 
d="M618 127l381 930h74l-577 -1395q-29 -72 -113 -72h-197v64h234l158 381l-422 1022h75l381 -930h6z" />
    <glyph glyph-name="z" unicode="z" 
d="M1028 0h-827v70l729 923h-709v64h787v-70l-729 -924h749v-63z" />
    <glyph glyph-name="braceleft" unicode="{" 
d="M997 -283h-383q-86 0 -86 86v197q0 29 3.5 55.5t7 46.5t12.5 41.5t14 33.5t17 30t16 23.5t17 21.5t14 18q44 55 60 89t16 69q0 180 -328 180h-146v58h146q328 0 328 180q0 35 -16 69t-60 89q-1 2 -14 18t-17 21.5t-16 23.5t-17 30t-14 33.5t-12.5 41.5t-7 46.5t-3.5 55.5
v196q0 86 86 86h383v-57h-403v-223q0 -63 14.5 -113.5t28.5 -72t37 -49.5q4 -5 6 -7q49 -63 69.5 -104.5t20.5 -85.5q0 -88 -66 -142t-174 -63v-4q108 -9 174 -63t66 -142q0 -44 -20.5 -85.5t-69.5 -104.5q-43 -54 -58 -89q-28 -64 -28 -153v-223h403v-58z" />
    <glyph glyph-name="bar" unicode="|" 
d="M647 -283h-65v1839h65v-1839z" />
    <glyph glyph-name="braceright" unicode="}" 
d="M231 1556h383q86 0 86 -86v-196q0 -29 -3.5 -56t-7 -46t-12.5 -41.5t-13.5 -33.5t-17 -30t-15.5 -23.5t-17 -21.5l-14 -18q-44 -55 -60 -89t-16 -69q0 -180 328 -180h145v-58h-145q-328 0 -328 -180q0 -35 16 -69t60 -89l14 -18q14 -17 17 -21.5t15.5 -23.5t17 -30
t13.5 -33.5t12.5 -41.5t7 -46t3.5 -56v-197q0 -86 -86 -86h-383v58h404v223q0 63 -14.5 113.5t-28.5 72t-37 49.5q-4 5 -6 7q-49 63 -69.5 104.5t-20.5 85.5q0 88 65.5 142t173.5 63v4q-108 9 -173.5 63t-65.5 142q0 44 20.5 85.5t69.5 104.5q43 54 58 89q28 64 28 153v223
h-404v57z" />
    <glyph glyph-name="asciitilde" unicode="~" 
d="M856 516q-53 0 -105.5 17t-146.5 59q-11 5 -39 17t-36.5 15.5t-30 12.5t-29.5 11.5t-24.5 8t-26 7t-22.5 3t-25 1.5q-66 0 -109.5 -36.5t-89.5 -117.5l-55 27q86 190 256 190q53 0 105.5 -17t146.5 -59q134 -58 173 -68q31 -7 60 -7q66 0 110 36t89 117l55 -26
q-87 -191 -256 -191z" />
    <glyph glyph-name="uni00A0" unicode="&#xa0;" 
 />
    <glyph glyph-name="exclamdown" unicode="&#xa1;" 
d="M653 -371h-78v541l23 500h33l22 -500v-541zM614 907q-88 0 -88 72v20q0 72 88 72t88 -72v-20q0 -72 -88 -72z" />
    <glyph glyph-name="cent" unicode="&#xa2;" 
d="M670 -233h-62v210q-189 17 -292 158.5t-103 392.5t103 392.5t292 158.5v211h62v-209q132 -3 223 -66t129 -167l-61 -25q-36 91 -110.5 141.5t-182.5 53.5v-979q222 6 313 205l55 -33q-42 -102 -137 -167.5t-229 -68.5v-208zM291 469q0 -185 82.5 -298t234.5 -128v971
q-152 -15 -234.5 -128t-82.5 -298v-119z" />
    <glyph glyph-name="sterling" unicode="&#xa3;" 
d="M1081 0h-919v90q88 58 138 153.5t50 215.5q0 81 -24 168h-197v63h176q-7 22 -28 80t-31 88.5t-19.5 81.5t-9.5 98q0 190 123 303t324 113q288 0 426 -231l-62 -39q-120 202 -366 202q-170 0 -268.5 -91t-98.5 -259q0 -46 10.5 -99t17 -76.5t32 -93t28.5 -77.5h444v-63
h-426q23 -94 23 -162q0 -121 -49.5 -222t-136.5 -167v-6h843v-70z" />
    <glyph glyph-name="yen" unicode="&#xa5;" 
d="M178 0v63h400v521h-400v63h361l-484 783h84l473 -777h6l476 777h80l-484 -783h361v-63h-400v-521h400v-63h-873z" />
    <glyph glyph-name="brokenbar" unicode="&#xa6;" 
d="M647 821h-65v735h65v-735zM647 -283h-65v736h65v-736z" />
    <glyph glyph-name="section" unicode="&#xa7;" 
d="M954 -18q0 -144 -102 -220.5t-264 -76.5q-203 0 -324 114l43 49q111 -100 283 -100q138 0 216.5 60.5t78.5 173.5q0 51 -19 91.5t-55 69t-76.5 48t-95.5 36.5l-135 43q-156 48 -232.5 123.5t-76.5 200.5q0 109 61.5 185.5t171.5 119.5v6q-152 92 -152 252
q0 144 101.5 220.5t265.5 76.5q202 0 324 -115l-43 -51q-110 103 -283 103q-139 0 -217 -60.5t-78 -173.5q0 -52 19 -92.5t55 -69t76.5 -48t95.5 -36.5l135 -43q157 -48 233 -123t76 -202q0 -213 -233 -303v-7q151 -91 151 -251zM965 532q0 110 -64.5 172t-206.5 105
l-133 41q-22 6 -88 33q-209 -95 -209 -277q0 -110 65.5 -172t207.5 -104l133 -41q37 -12 88 -33q207 93 207 276z" />
    <glyph glyph-name="dieresis" unicode="&#xa8;" 
d="M428 1315q-74 0 -74 57v21q0 57 74 57q72 0 72 -57v-21q0 -57 -72 -57zM801 1315q-72 0 -72 57v21q0 57 72 57q73 0 73 -57v-21q0 -57 -73 -57z" />
    <glyph glyph-name="copyright" unicode="&#xa9;" 
d="M614 37q-126 0 -237 47.5t-193 134t-129 215t-47 281.5t47 281.5t129 215t193 134t237 47.5t237 -47.5t193 -134t129.5 -215t47.5 -281.5t-47.5 -281.5t-129.5 -215t-193 -134t-237 -47.5zM614 90q153 0 278 76.5t196 210t71 297.5v82q0 164 -71 297.5t-196 209.5
t-278 76t-278 -76t-195.5 -209.5t-70.5 -297.5v-82q0 -164 70.5 -297.5t195.5 -210t278 -76.5zM618 377q-127 0 -200.5 88.5t-73.5 249.5t74 249.5t203 88.5q83 0 139 -37t80 -101l-49 -22q-47 106 -170 106q-98 0 -154.5 -67t-56.5 -187v-59q0 -125 56.5 -190.5
t154.5 -65.5q126 0 180 115l49 -27q-29 -63 -89 -102t-143 -39z" />
    <glyph glyph-name="ordfeminine" unicode="&#xaa;" 
d="M922 758h-93q-57 0 -57 55v45h-6q-26 -50 -82.5 -82.5t-146.5 -32.5q-108 0 -167 51t-59 140q0 190 273 190h186v101q0 88 -50 133t-142 45q-147 0 -201 -117l-43 29q63 139 246 139q118 0 183.5 -58.5t65.5 -164.5v-420h93v-53zM770 1075h-188q-105 0 -156 -33.5
t-51 -91.5v-26q0 -62 45.5 -95.5t122.5 -33.5q96 0 161.5 45t65.5 125v110z" />
    <glyph glyph-name="guillemotleft" unicode="&#xab;" 
d="M627 197l-25 -52l-436 369v72l436 368l25 -51l-383 -354zM1073 197l-24 -52l-437 369v72l437 368l24 -51l-383 -354z" />
    <glyph glyph-name="logicalnot" unicode="&#xac;" 
d="M1069 201h-65v393h-877v63h942v-456z" />
    <glyph glyph-name="uni00AD" unicode="&#xad;" 
d="M891 588h-553v71h553v-71z" />
    <glyph glyph-name="registered" unicode="&#xae;" 
d="M614 709q-156 0 -263 106t-107 266t107 266.5t263 106.5t263.5 -106.5t107.5 -266.5t-107 -266t-264 -106zM614 752q134 0 227 90.5t93 222.5v33q0 132 -93 222.5t-227 90.5t-226.5 -90.5t-92.5 -222.5v-33q0 -132 92.5 -222.5t226.5 -90.5zM543 1049v-156h-43v379h145
q55 0 86 -28.5t31 -84.5q0 -46 -25.5 -73.5t-68.5 -32.5l106 -160h-51l-98 156h-82zM543 1083h96q41 0 59.5 16.5t18.5 53.5v14q0 70 -78 70h-96v-154z" />
    <glyph glyph-name="macron" unicode="&#xaf;" 
d="M344 1354v61h541v-61h-541z" />
    <glyph glyph-name="degree" unicode="&#xb0;" 
d="M614 809q-137 0 -229 93t-92 231t92 229.5t229 91.5t229.5 -91.5t92.5 -229.5t-92.5 -231t-229.5 -93zM614 870q112 0 184 75.5t72 187.5t-71.5 186t-184.5 74t-184.5 -74t-71.5 -186t72 -187.5t184 -75.5z" />
    <glyph glyph-name="plusminus" unicode="&#xb1;" 
d="M649 254h-69v461h-453v63h453v463h69v-463h453v-63h-453v-461zM1102 0h-975v63h975v-63z" />
    <glyph glyph-name="twosuperior" unicode="&#xb2;" 
d="M881 725v-51h-531v59l279 230q162 134 162 247v19q0 73 -47 117.5t-134 44.5q-163 0 -215 -152l-53 18q27 82 95 133.5t175 51.5q116 0 179 -61t63 -156q0 -77 -46.5 -148.5t-143.5 -150.5l-250 -201h467z" />
    <glyph glyph-name="threesuperior" unicode="&#xb3;" 
d="M496 1092h92q192 0 192 149v10q0 65 -45 102.5t-129 37.5q-71 0 -117.5 -24t-80.5 -71l-43 33q77 113 241 113q110 0 175 -53t65 -142q0 -71 -40 -115.5t-108 -60.5v-6q76 -12 118 -58.5t42 -123.5q0 -102 -69.5 -161.5t-194.5 -59.5q-162 0 -254 118l45 35
q39 -51 86 -76.5t123 -25.5q98 0 149.5 43.5t51.5 122.5v12q0 74 -46.5 111.5t-148.5 37.5h-104v52z" />
    <glyph glyph-name="acute" unicode="&#xb4;" 
d="M821 1532l-231 -315l-49 26l215 324z" />
    <glyph glyph-name="mu" unicode="&#xb5;" 
d="M309 -410h-71v1467h71v-664q0 -176 77 -265t224 -89q129 0 219.5 68.5t90.5 193.5v756h71v-1057h-71v156h-9q-33 -79 -110.5 -130t-202.5 -51q-221 0 -289 189h-8l8 -236v-338z" />
    <glyph glyph-name="paragraph" unicode="&#xb6;" 
d="M602 -305v809q-212 0 -343.5 130t-131.5 333q0 202 129.5 332.5t331.5 130.5h395v-1735h-70v1673h-241v-1673h-70z" />
    <glyph glyph-name="periodcentered" unicode="&#xb7;" 
d="M614 541q-88 0 -88 71v21q0 72 88 72t88 -72v-21q0 -71 -88 -71z" />
    <glyph glyph-name="cedilla" unicode="&#xb8;" 
d="M635 -416q-60 0 -106 20t-68 50l39 41q47 -57 135 -57q54 0 85.5 25t31.5 71q0 84 -127 92l-72 6l41 182h53l-37 -157l4 -4q30 6 66 6q61 0 99 -33.5t38 -89.5q0 -67 -50.5 -109.5t-131.5 -42.5z" />
    <glyph glyph-name="onesuperior" unicode="&#xb9;" 
d="M932 674h-547v51h254v651l-270 -139l-25 43l287 150h69v-705h232v-51z" />
    <glyph glyph-name="ordmasculine" unicode="&#xba;" 
d="M614 741q-140 0 -219.5 97t-79.5 260t79.5 259.5t219.5 96.5t219.5 -96.5t79.5 -259.5t-79.5 -260t-219.5 -97zM614 793q110 0 171 76t61 190v82q0 111 -61.5 186.5t-170.5 75.5t-170 -75t-61 -187v-82q0 -114 60.5 -190t170.5 -76z" />
    <glyph glyph-name="guillemotright" unicode="&#xbb;" 
d="M180 145l-24 52l383 352l-383 354l24 51l436 -368v-72zM627 145l-25 52l383 352l-383 354l25 51l436 -368v-72z" />
    <glyph glyph-name="onequarter" unicode="&#xbc;" 
d="M80 743v52h227v579l-239 -121l-23 43l254 134h68v-635h204v-52h-491zM735 815l373 615h68l-373 -615h-68zM53 0l373 614h68l-373 -614h-68zM1020 0v156h-373v57l350 473h82v-481h115v-49h-115v-156h-59zM700 205h320v424h-6z" />
    <glyph glyph-name="onehalf" unicode="&#xbd;" 
d="M80 743v52h227v579l-239 -121l-23 43l254 134h68v-635h204v-52h-491zM735 815l373 615h68l-373 -615h-68zM53 0l373 614h68l-373 -614h-68zM686 0v55l254 219q137 120 137 218v16q0 63 -40 101t-122 38q-78 0 -121 -34.5t-67 -100.5l-53 18q55 168 244 168q105 0 164 -53
t59 -141q0 -69 -41 -132.5t-127 -135.5l-219 -185h413v-51h-481z" />
    <glyph glyph-name="threequarters" unicode="&#xbe;" 
d="M291 731q-154 0 -234 113l45 35q66 -97 189 -97q85 0 131.5 39t46.5 109v12q0 133 -176 133h-94v51h84q172 0 172 129v15q0 55 -41.5 88t-116.5 33q-117 0 -180 -86l-41 34q75 103 225 103q99 0 157 -48t58 -128q0 -64 -35.5 -105t-97.5 -53v-6q147 -28 147 -168
q0 -95 -63 -149t-176 -54zM735 815l373 615h68l-373 -615h-68zM53 0l373 614h68l-373 -614h-68zM1020 0v156h-373v57l350 473h82v-481h115v-49h-115v-156h-59zM700 205h320v424h-6z" />
    <glyph glyph-name="questiondown" unicode="&#xbf;" 
d="M600 -397q-182 0 -288.5 101t-106.5 269q0 175 113.5 283.5t302.5 130.5v291h73v-346q-193 -9 -302 -99t-109 -239v-35q0 -134 85 -212.5t234 -78.5q140 0 236.5 75t134.5 214l69 -23q-47 -155 -161.5 -243t-280.5 -88zM655 905q-43 0 -65.5 19.5t-22.5 52.5v20
q0 33 22.5 52.5t65.5 19.5q44 0 67 -19.5t23 -52.5v-20q0 -33 -23 -52.5t-67 -19.5z" />
    <glyph glyph-name="Agrave" unicode="&#xc0;" 
d="M1133 0h-78l-152 463h-577l-152 -463h-78l469 1430h101zM885 528l-267 820h-10l-264 -820h541zM637 1565l-231 315l65 35l215 -324z" />
    <glyph glyph-name="Aacute" unicode="&#xc1;" 
d="M1133 0h-78l-152 463h-577l-152 -463h-78l469 1430h101zM885 528l-267 820h-10l-264 -820h541zM821 1880l-231 -315l-49 26l215 324z" />
    <glyph glyph-name="Acircumflex" unicode="&#xc2;" 
d="M1133 0h-78l-152 463h-577l-152 -463h-78l469 1430h101zM885 528l-267 820h-10l-264 -820h541zM571 1896h86l254 -278l-43 -31l-254 256l-254 -256l-43 31z" />
    <glyph glyph-name="Atilde" unicode="&#xc3;" 
d="M1133 0h-78l-152 463h-577l-152 -463h-78l469 1430h101zM885 528l-267 820h-10l-264 -820h541zM760 1642q-61 0 -158 60q-84 51 -137 51q-68 0 -131 -63l-35 36q76 89 170 89q61 0 158 -60q84 -51 137 -51q68 0 131 63l35 -36q-76 -89 -170 -89z" />
    <glyph glyph-name="Adieresis" unicode="&#xc4;" 
d="M1133 0h-78l-152 463h-577l-152 -463h-78l469 1430h101zM885 528l-267 820h-10l-264 -820h541zM428 1663q-74 0 -74 57v21q0 57 74 57q72 0 72 -57v-21q0 -57 -72 -57zM801 1663q-72 0 -72 57v21q0 57 72 57q73 0 73 -57v-21q0 -57 -73 -57z" />
    <glyph glyph-name="Aring" unicode="&#xc5;" 
d="M1133 0h-78l-152 463h-577l-152 -463h-78l469 1430h101zM885 528l-267 820h-10l-264 -820h541zM614 1565q-88 0 -142 54t-54 142t54.5 143.5t141.5 55.5q88 0 142.5 -55.5t54.5 -143.5t-54.5 -142t-142.5 -54zM614 1616q63 0 100.5 36t37.5 97v27q0 60 -37.5 96.5
t-100.5 36.5t-100 -36.5t-37 -96.5v-27q0 -61 37 -97t100 -36z" />
    <glyph glyph-name="AE" unicode="&#xc6;" 
d="M662 0v463h-371l-141 -463h-80l448 1430h612v-66h-397v-606h369v-66h-369v-626h397v-66h-468zM662 1370h-91l-262 -844h353v844z" />
    <glyph glyph-name="Ccedilla" unicode="&#xc7;" 
d="M666 1386q-211 0 -319.5 -150.5t-108.5 -442.5v-156q0 -292 108.5 -443t319.5 -151q127 0 213 67.5t127 186.5l65 -27q-50 -135 -152 -214.5t-251 -80.5h-6l-27 -118l4 -4q30 6 66 6q61 0 99 -33.5t38 -89.5q0 -66 -51 -109t-132 -43q-61 0 -107.5 20t-66.5 50l39 41
q44 -57 135 -57q54 0 85.5 25t31.5 71q0 84 -127 92l-71 6l34 145q-226 19 -340 199t-114 539q0 378 128 558.5t380 180.5q150 0 252.5 -79.5t152.5 -215.5l-65 -26q-41 119 -127 186t-213 67z" />
    <glyph glyph-name="Egrave" unicode="&#xc8;" 
d="M1055 0h-842v1430h842v-68h-768v-602h741v-68h-741v-624h768v-68zM653 1565l-231 315l65 35l215 -324z" />
    <glyph glyph-name="Eacute" unicode="&#xc9;" 
d="M1055 0h-842v1430h842v-68h-768v-602h741v-68h-741v-624h768v-68zM838 1880l-232 -315l-49 26l215 324z" />
    <glyph glyph-name="Ecircumflex" unicode="&#xca;" 
d="M1055 0h-842v1430h842v-68h-768v-602h741v-68h-741v-624h768v-68zM588 1896h86l254 -278l-43 -31l-254 256l-254 -256l-43 31z" />
    <glyph glyph-name="Edieresis" unicode="&#xcb;" 
d="M1055 0h-842v1430h842v-68h-768v-602h741v-68h-741v-624h768v-68zM444 1663q-73 0 -73 57v21q0 57 73 57q72 0 72 -57v-21q0 -57 -72 -57zM817 1663q-72 0 -72 57v21q0 57 72 57q74 0 74 -57v-21q0 -57 -74 -57z" />
    <glyph glyph-name="Igrave" unicode="&#xcc;" 
d="M1044 0h-860v61h394v1307h-394v62h860v-62h-393v-1307h393v-61zM637 1565l-231 315l65 35l215 -324z" />
    <glyph glyph-name="Iacute" unicode="&#xcd;" 
d="M1044 0h-860v61h394v1307h-394v62h860v-62h-393v-1307h393v-61zM821 1880l-231 -315l-49 26l215 324z" />
    <glyph glyph-name="Icircumflex" unicode="&#xce;" 
d="M1044 0h-860v61h394v1307h-394v62h860v-62h-393v-1307h393v-61zM571 1896h86l254 -278l-43 -31l-254 256l-254 -256l-43 31z" />
    <glyph glyph-name="Idieresis" unicode="&#xcf;" 
d="M1044 0h-860v61h394v1307h-394v62h860v-62h-393v-1307h393v-61zM428 1663q-74 0 -74 57v21q0 57 74 57q72 0 72 -57v-21q0 -57 -72 -57zM801 1663q-72 0 -72 57v21q0 57 72 57q73 0 73 -57v-21q0 -57 -73 -57z" />
    <glyph glyph-name="Eth" unicode="&#xd0;" 
d="M248 0v725h-187v61h187v644h344q255 0 375 -178t120 -537t-120 -537t-375 -178h-344zM322 68h270q210 0 313 148t103 423v152q0 275 -103 423t-313 148h-270v-576h348v-61h-348v-657z" />
    <glyph glyph-name="Ntilde" unicode="&#xd1;" 
d="M930 0l-660 1331h-8v-1331h-69v1430h106l659 -1328h9v1328h69v-1430h-106zM760 1642q-61 0 -158 60q-84 51 -137 51q-68 0 -131 -63l-35 36q76 89 170 89q61 0 158 -60q84 -51 137 -51q68 0 131 63l35 -36q-76 -89 -170 -89z" />
    <glyph glyph-name="Ograve" unicode="&#xd2;" 
d="M614 -25q-237 0 -357 181.5t-120 558.5t120 558t357 181t357.5 -181t120.5 -558q0 -740 -478 -740zM614 43q196 0 296 151t100 443v156q0 292 -100 442.5t-296 150.5t-295.5 -150t-99.5 -443v-156q0 -293 99.5 -443.5t295.5 -150.5zM637 1565l-231 315l65 35l215 -324z
" />
    <glyph glyph-name="Oacute" unicode="&#xd3;" 
d="M614 -25q-237 0 -357 181.5t-120 558.5t120 558t357 181t357.5 -181t120.5 -558q0 -740 -478 -740zM614 43q196 0 296 151t100 443v156q0 292 -100 442.5t-296 150.5t-295.5 -150t-99.5 -443v-156q0 -293 99.5 -443.5t295.5 -150.5zM821 1880l-231 -315l-49 26l215 324z
" />
    <glyph glyph-name="Ocircumflex" unicode="&#xd4;" 
d="M614 -25q-237 0 -357 181.5t-120 558.5t120 558t357 181t357.5 -181t120.5 -558q0 -740 -478 -740zM614 43q196 0 296 151t100 443v156q0 292 -100 442.5t-296 150.5t-295.5 -150t-99.5 -443v-156q0 -293 99.5 -443.5t295.5 -150.5zM571 1896h86l254 -278l-43 -31
l-254 256l-254 -256l-43 31z" />
    <glyph glyph-name="Otilde" unicode="&#xd5;" 
d="M614 -25q-237 0 -357 181.5t-120 558.5t120 558t357 181t357.5 -181t120.5 -558q0 -740 -478 -740zM614 43q196 0 296 151t100 443v156q0 292 -100 442.5t-296 150.5t-295.5 -150t-99.5 -443v-156q0 -293 99.5 -443.5t295.5 -150.5zM760 1642q-61 0 -158 60
q-84 51 -137 51q-68 0 -131 -63l-35 36q76 89 170 89q61 0 158 -60q84 -51 137 -51q68 0 131 63l35 -36q-76 -89 -170 -89z" />
    <glyph glyph-name="Odieresis" unicode="&#xd6;" 
d="M614 -25q-237 0 -357 181.5t-120 558.5t120 558t357 181t357.5 -181t120.5 -558q0 -740 -478 -740zM614 43q196 0 296 151t100 443v156q0 292 -100 442.5t-296 150.5t-295.5 -150t-99.5 -443v-156q0 -293 99.5 -443.5t295.5 -150.5zM428 1663q-74 0 -74 57v21q0 57 74 57
q72 0 72 -57v-21q0 -57 -72 -57zM801 1663q-72 0 -72 57v21q0 57 72 57q73 0 73 -57v-21q0 -57 -73 -57z" />
    <glyph glyph-name="multiply" unicode="&#xd7;" 
d="M977 217l-363 363l-362 -363l-45 45l362 363l-362 362l45 45l362 -362l363 362l45 -45l-363 -362l363 -363z" />
    <glyph glyph-name="Oslash" unicode="&#xd8;" 
d="M614 -25q-206 0 -321 136l-92 -158l-56 31l107 182q-115 183 -115 549q0 377 120 558t357 181q208 0 322 -135l92 158l55 -31l-106 -182q115 -183 115 -549q0 -740 -478 -740zM219 637q0 -257 78 -401l600 1017q-100 133 -283 133q-196 0 -295.5 -150t-99.5 -443v-156z
M614 43q196 0 296 151t100 443v156q0 257 -78 401l-600 -1018q100 -133 282 -133z" />
    <glyph glyph-name="Ugrave" unicode="&#xd9;" 
d="M193 1430h73v-869q0 -152 14.5 -245.5t53.5 -157.5t106 -89.5t174 -25.5t174 25.5t106.5 89.5t54 157.5t14.5 245.5v869h73v-859q0 -171 -19 -280.5t-68 -182.5t-129 -103t-206 -30t-206 30t-128.5 103t-67.5 182t-19 281v859zM637 1565l-231 315l65 35l215 -324z" />
    <glyph glyph-name="Uacute" unicode="&#xda;" 
d="M193 1430h73v-869q0 -152 14.5 -245.5t53.5 -157.5t106 -89.5t174 -25.5t174 25.5t106.5 89.5t54 157.5t14.5 245.5v869h73v-859q0 -171 -19 -280.5t-68 -182.5t-129 -103t-206 -30t-206 30t-128.5 103t-67.5 182t-19 281v859zM821 1880l-231 -315l-49 26l215 324z" />
    <glyph glyph-name="Ucircumflex" unicode="&#xdb;" 
d="M193 1430h73v-869q0 -152 14.5 -245.5t53.5 -157.5t106 -89.5t174 -25.5t174 25.5t106.5 89.5t54 157.5t14.5 245.5v869h73v-859q0 -171 -19 -280.5t-68 -182.5t-129 -103t-206 -30t-206 30t-128.5 103t-67.5 182t-19 281v859zM571 1896h86l254 -278l-43 -31l-254 256
l-254 -256l-43 31z" />
    <glyph glyph-name="Udieresis" unicode="&#xdc;" 
d="M193 1430h73v-869q0 -152 14.5 -245.5t53.5 -157.5t106 -89.5t174 -25.5t174 25.5t106.5 89.5t54 157.5t14.5 245.5v869h73v-859q0 -171 -19 -280.5t-68 -182.5t-129 -103t-206 -30t-206 30t-128.5 103t-67.5 182t-19 281v859zM428 1663q-74 0 -74 57v21q0 57 74 57
q72 0 72 -57v-21q0 -57 -72 -57zM801 1663q-72 0 -72 57v21q0 57 72 57q73 0 73 -57v-21q0 -57 -73 -57z" />
    <glyph glyph-name="Yacute" unicode="&#xdd;" 
d="M651 0h-73v592l-527 838h86l475 -760h6l476 760h84l-527 -838v-592zM821 1880l-231 -315l-49 26l215 324z" />
    <glyph glyph-name="Thorn" unicode="&#xde;" 
d="M287 0h-74v1430h74v-314h430q178 0 273 -103.5t95 -285.5q0 -183 -95 -289t-273 -106h-430v-332zM287 1049v-650h430q139 0 214 81t75 202v90q0 119 -74.5 198t-214.5 79h-430z" />
    <glyph glyph-name="germandbls" unicode="&#xdf;" 
d="M340 0h-72v1413q0 103 101 103h405v-64h-434v-395h741v-70l-438 -559q258 -3 388 -101t130 -307q0 -212 -136 -321t-394 -109h-131v64h131q224 0 338 85.5t114 254.5v59q0 165 -118 240.5t-344 75.5h-52v65l441 559h-670v-993z" />
    <glyph glyph-name="agrave" unicode="&#xe0;" 
d="M1098 0h-148q-87 0 -90 86v76h-8q-40 -85 -125 -136t-219 -51q-169 0 -261.5 78t-92.5 221q0 142 96 220.5t319 78.5h289v152q0 146 -77.5 219.5t-217.5 73.5q-113 0 -196 -47.5t-125 -143.5l-54 35q45 101 140.5 160t236.5 59q171 0 268 -92t97 -256v-670h168v-63z
M514 37q146 0 245 71t99 195v213h-287q-340 0 -340 -211v-61q0 -98 77 -152.5t206 -54.5zM590 1217l-232 315l66 35l215 -324z" />
    <glyph glyph-name="aacute" unicode="&#xe1;" 
d="M1098 0h-148q-87 0 -90 86v76h-8q-40 -85 -125 -136t-219 -51q-169 0 -261.5 78t-92.5 221q0 142 96 220.5t319 78.5h289v152q0 146 -77.5 219.5t-217.5 73.5q-113 0 -196 -47.5t-125 -143.5l-54 35q45 101 140.5 160t236.5 59q171 0 268 -92t97 -256v-670h168v-63z
M514 37q146 0 245 71t99 195v213h-287q-340 0 -340 -211v-61q0 -98 77 -152.5t206 -54.5zM774 1532l-231 -315l-49 26l215 324z" />
    <glyph glyph-name="acircumflex" unicode="&#xe2;" 
d="M1098 0h-148q-87 0 -90 86v76h-8q-40 -85 -125 -136t-219 -51q-169 0 -261.5 78t-92.5 221q0 142 96 220.5t319 78.5h289v152q0 146 -77.5 219.5t-217.5 73.5q-113 0 -196 -47.5t-125 -143.5l-54 35q45 101 140.5 160t236.5 59q171 0 268 -92t97 -256v-670h168v-63z
M514 37q146 0 245 71t99 195v213h-287q-340 0 -340 -211v-61q0 -98 77 -152.5t206 -54.5zM524 1548h86l254 -278l-43 -31l-254 256l-254 -256l-43 31z" />
    <glyph glyph-name="atilde" unicode="&#xe3;" 
d="M1098 0h-148q-87 0 -90 86v76h-8q-40 -85 -125 -136t-219 -51q-169 0 -261.5 78t-92.5 221q0 142 96 220.5t319 78.5h289v152q0 146 -77.5 219.5t-217.5 73.5q-113 0 -196 -47.5t-125 -143.5l-54 35q45 101 140.5 160t236.5 59q171 0 268 -92t97 -256v-670h168v-63z
M514 37q146 0 245 71t99 195v213h-287q-340 0 -340 -211v-61q0 -98 77 -152.5t206 -54.5zM713 1294q-61 0 -158 60q-84 51 -137 51q-67 0 -131 -64l-35 37q75 88 170 88q63 0 158 -59q84 -51 137 -51q68 0 131 63l35 -37q-75 -88 -170 -88z" />
    <glyph glyph-name="adieresis" unicode="&#xe4;" 
d="M1098 0h-148q-87 0 -90 86v76h-8q-40 -85 -125 -136t-219 -51q-169 0 -261.5 78t-92.5 221q0 142 96 220.5t319 78.5h289v152q0 146 -77.5 219.5t-217.5 73.5q-113 0 -196 -47.5t-125 -143.5l-54 35q45 101 140.5 160t236.5 59q171 0 268 -92t97 -256v-670h168v-63z
M514 37q146 0 245 71t99 195v213h-287q-340 0 -340 -211v-61q0 -98 77 -152.5t206 -54.5zM381 1315q-74 0 -74 57v21q0 57 74 57q72 0 72 -57v-21q0 -57 -72 -57zM754 1315q-72 0 -72 57v21q0 57 72 57q73 0 73 -57v-21q0 -57 -73 -57z" />
    <glyph glyph-name="aring" unicode="&#xe5;" 
d="M1098 0h-148q-87 0 -90 86v76h-8q-40 -85 -125 -136t-219 -51q-169 0 -261.5 78t-92.5 221q0 142 96 220.5t319 78.5h289v152q0 146 -77.5 219.5t-217.5 73.5q-113 0 -196 -47.5t-125 -143.5l-54 35q45 101 140.5 160t236.5 59q171 0 268 -92t97 -256v-670h168v-63z
M514 37q146 0 245 71t99 195v213h-287q-340 0 -340 -211v-61q0 -98 77 -152.5t206 -54.5zM567 1217q-88 0 -142 54t-54 142t54.5 143.5t141.5 55.5q88 0 142.5 -55.5t54.5 -143.5t-54.5 -142t-142.5 -54zM567 1268q63 0 100.5 36t37.5 97v26q0 60 -37.5 97t-100.5 37
t-100 -37t-37 -97v-26q0 -61 37 -97t100 -36z" />
    <glyph glyph-name="ae" unicode="&#xe6;" 
d="M313 -25q-123 0 -196.5 81.5t-73.5 222.5q0 152 93 223t276 71h157v162q0 150 -57 218.5t-156 68.5q-161 0 -243 -176l-52 28q38 90 112.5 148.5t184.5 58.5q211 0 258 -221h7q71 221 264 221q140 0 217.5 -111t77.5 -339v-113h-547v-39q0 -229 66 -335.5t176 -106.5
q166 0 233 223l57 -22q-36 -116 -109.5 -189.5t-185.5 -73.5q-98 0 -169.5 66t-102.5 197h-6q-20 -124 -94 -193.5t-187 -69.5zM322 35q115 0 181 82.5t66 214.5v186h-151q-156 0 -230.5 -52.5t-74.5 -170.5v-35q0 -101 56 -163t153 -62zM885 1024q-119 0 -184.5 -98.5
t-65.5 -300.5v-52h481v76q0 375 -231 375z" />
    <glyph glyph-name="ccedilla" unicode="&#xe7;" 
d="M657 1081q137 0 231 -63t134 -170l-61 -25q-35 94 -113.5 144.5t-190.5 50.5q-175 0 -270.5 -115.5t-95.5 -314.5v-119q0 -199 95.5 -314.5t270.5 -115.5q117 0 198.5 54t125.5 151l55 -33q-44 -103 -140 -169t-232 -67l-27 -118l4 -4q30 6 66 6q61 0 99 -33.5t38 -89.5
q0 -67 -50.5 -109.5t-131.5 -42.5q-60 0 -106.5 20t-68.5 50l39 41q47 -57 136 -57q54 0 85 25t31 71q0 84 -127 92l-71 6l32 145q-190 14 -294.5 156t-104.5 395q0 267 116.5 410t327.5 143z" />
    <glyph glyph-name="egrave" unicode="&#xe8;" 
d="M629 -25q-214 0 -333.5 143.5t-119.5 409.5q0 265 117.5 409t324.5 144q209 0 324 -143.5t115 -386.5v-29h-803v-53q0 -199 98.5 -314.5t276.5 -115.5q258 0 350 237l57 -30q-47 -126 -152 -198.5t-255 -72.5zM618 1020q-171 0 -267.5 -116.5t-96.5 -315.5v-8h727v10
q0 199 -96 314.5t-267 115.5zM641 1217l-231 315l65 35l215 -324z" />
    <glyph glyph-name="eacute" unicode="&#xe9;" 
d="M629 -25q-214 0 -333.5 143.5t-119.5 409.5q0 265 117.5 409t324.5 144q209 0 324 -143.5t115 -386.5v-29h-803v-53q0 -199 98.5 -314.5t276.5 -115.5q258 0 350 237l57 -30q-47 -126 -152 -198.5t-255 -72.5zM618 1020q-171 0 -267.5 -116.5t-96.5 -315.5v-8h727v10
q0 199 -96 314.5t-267 115.5zM825 1532l-231 -315l-49 26l215 324z" />
    <glyph glyph-name="ecircumflex" unicode="&#xea;" 
d="M629 -25q-214 0 -333.5 143.5t-119.5 409.5q0 265 117.5 409t324.5 144q209 0 324 -143.5t115 -386.5v-29h-803v-53q0 -199 98.5 -314.5t276.5 -115.5q258 0 350 237l57 -30q-47 -126 -152 -198.5t-255 -72.5zM618 1020q-171 0 -267.5 -116.5t-96.5 -315.5v-8h727v10
q0 199 -96 314.5t-267 115.5zM575 1548h87l253 -278l-43 -31l-254 256l-253 -256l-43 31z" />
    <glyph glyph-name="edieresis" unicode="&#xeb;" 
d="M629 -25q-214 0 -333.5 143.5t-119.5 409.5q0 265 117.5 409t324.5 144q209 0 324 -143.5t115 -386.5v-29h-803v-53q0 -199 98.5 -314.5t276.5 -115.5q258 0 350 237l57 -30q-47 -126 -152 -198.5t-255 -72.5zM618 1020q-171 0 -267.5 -116.5t-96.5 -315.5v-8h727v10
q0 199 -96 314.5t-267 115.5zM432 1315q-74 0 -74 57v21q0 57 74 57q72 0 72 -57v-21q0 -57 -72 -57zM805 1315q-72 0 -72 57v21q0 57 72 57q74 0 74 -57v-21q0 -57 -74 -57z" />
    <glyph glyph-name="igrave" unicode="&#xec;" 
d="M233 0v63h412v930h-412v64h484v-994h385v-63h-869zM702 1217l-231 315l66 35l215 -324z" />
    <glyph glyph-name="iacute" unicode="&#xed;" 
d="M233 0v63h412v930h-412v64h484v-994h385v-63h-869zM887 1532l-232 -315l-49 26l215 324z" />
    <glyph glyph-name="icircumflex" unicode="&#xee;" 
d="M233 0v63h412v930h-412v64h484v-994h385v-63h-869zM637 1548h86l254 -278l-43 -31l-254 256l-254 -256l-43 31z" />
    <glyph glyph-name="idieresis" unicode="&#xef;" 
d="M233 0v63h412v930h-412v64h484v-994h385v-63h-869zM494 1315q-74 0 -74 57v21q0 57 74 57q71 0 71 -57v-21q0 -57 -71 -57zM866 1315q-71 0 -71 57v21q0 57 71 57q74 0 74 -57v-21q0 -57 -74 -57z" />
    <glyph glyph-name="eth" unicode="&#xf0;" 
d="M866 1540l35 -43l-215 -156q76 -69 139 -149t117 -182t84.5 -228.5t30.5 -265.5q0 -257 -119.5 -399t-321.5 -142q-203 0 -323.5 142t-120.5 391q0 247 118.5 388.5t313.5 141.5q212 0 332 -180l6 4q-117 274 -307 445l-211 -152l-35 43l205 143q-106 90 -254 175h117
q94 -58 188 -136zM614 39q162 0 263.5 112t101.5 304v104q0 192 -101.5 304t-263.5 112t-263 -112t-101 -304v-104q0 -192 101 -304t263 -112z" />
    <glyph glyph-name="ntilde" unicode="&#xf1;" 
d="M317 0h-71v1057h71v-156h7q33 78 112 129t207 51q172 0 265 -102t93 -293v-686h-71v674q0 344 -303 344q-129 0 -219.5 -68.5t-90.5 -193.5v-756zM770 1294q-61 0 -158 60q-84 51 -137 51q-67 0 -131 -64l-35 37q75 88 170 88q63 0 158 -59q84 -51 137 -51q68 0 131 63
l35 -37q-75 -88 -170 -88z" />
    <glyph glyph-name="ograve" unicode="&#xf2;" 
d="M614 -25q-209 0 -325.5 143.5t-116.5 409.5t116.5 409.5t325.5 143.5t326 -143.5t117 -409.5t-117 -409.5t-326 -143.5zM614 39q173 0 269 115t96 319v111q0 204 -96 319t-269 115t-268.5 -114.5t-95.5 -319.5v-111q0 -205 95.5 -319.5t268.5 -114.5zM637 1217l-231 315
l65 35l215 -324z" />
    <glyph glyph-name="oacute" unicode="&#xf3;" 
d="M614 -25q-209 0 -325.5 143.5t-116.5 409.5t116.5 409.5t325.5 143.5t326 -143.5t117 -409.5t-117 -409.5t-326 -143.5zM614 39q173 0 269 115t96 319v111q0 204 -96 319t-269 115t-268.5 -114.5t-95.5 -319.5v-111q0 -205 95.5 -319.5t268.5 -114.5zM821 1532l-231 -315
l-49 26l215 324z" />
    <glyph glyph-name="ocircumflex" unicode="&#xf4;" 
d="M614 -25q-209 0 -325.5 143.5t-116.5 409.5t116.5 409.5t325.5 143.5t326 -143.5t117 -409.5t-117 -409.5t-326 -143.5zM614 39q173 0 269 115t96 319v111q0 204 -96 319t-269 115t-268.5 -114.5t-95.5 -319.5v-111q0 -205 95.5 -319.5t268.5 -114.5zM571 1548h86
l254 -278l-43 -31l-254 256l-254 -256l-43 31z" />
    <glyph glyph-name="otilde" unicode="&#xf5;" 
d="M614 -25q-209 0 -325.5 143.5t-116.5 409.5t116.5 409.5t325.5 143.5t326 -143.5t117 -409.5t-117 -409.5t-326 -143.5zM614 39q173 0 269 115t96 319v111q0 204 -96 319t-269 115t-268.5 -114.5t-95.5 -319.5v-111q0 -205 95.5 -319.5t268.5 -114.5zM760 1294
q-61 0 -158 60q-84 51 -137 51q-67 0 -131 -64l-35 37q75 88 170 88q63 0 158 -59q84 -51 137 -51q68 0 131 63l35 -37q-75 -88 -170 -88z" />
    <glyph glyph-name="odieresis" unicode="&#xf6;" 
d="M614 -25q-209 0 -325.5 143.5t-116.5 409.5t116.5 409.5t325.5 143.5t326 -143.5t117 -409.5t-117 -409.5t-326 -143.5zM614 39q173 0 269 115t96 319v111q0 204 -96 319t-269 115t-268.5 -114.5t-95.5 -319.5v-111q0 -205 95.5 -319.5t268.5 -114.5zM428 1315
q-74 0 -74 57v21q0 57 74 57q72 0 72 -57v-21q0 -57 -72 -57zM801 1315q-72 0 -72 57v21q0 57 72 57q73 0 73 -57v-21q0 -57 -73 -57z" />
    <glyph glyph-name="divide" unicode="&#xf7;" 
d="M1102 594h-975v63h975v-63zM614 152q-42 0 -63 17.5t-21 47.5v23q0 65 84 65t84 -65v-23q0 -30 -21 -47.5t-63 -17.5zM614 944q-41 0 -62.5 18t-21.5 48v24q0 30 21.5 48t62.5 18t62.5 -18t21.5 -48v-24q0 -30 -21.5 -48t-62.5 -18z" />
    <glyph glyph-name="oslash" unicode="&#xf8;" 
d="M172 -59l-45 32l141 174q-96 140 -96 381q0 266 116.5 409.5t325.5 143.5q197 0 312 -127l131 162l45 -33l-141 -174q96 -140 96 -381q0 -266 -117 -409.5t-326 -143.5q-196 0 -311 127zM614 1018q-173 0 -268.5 -114.5t-95.5 -319.5v-111q0 -161 63 -272l570 702
q-95 115 -269 115zM614 39q173 0 269 115t96 319v111q0 160 -64 272l-569 -702q95 -115 268 -115z" />
    <glyph glyph-name="ugrave" unicode="&#xf9;" 
d="M911 0v156h-6q-33 -78 -112 -129.5t-207 -51.5q-172 0 -265.5 102.5t-93.5 293.5v686h72v-674q0 -344 303 -344q129 0 219 68.5t90 193.5v756h72v-1057h-72zM629 1217l-232 315l66 35l215 -324z" />
    <glyph glyph-name="uacute" unicode="&#xfa;" 
d="M911 0v156h-6q-33 -78 -112 -129.5t-207 -51.5q-172 0 -265.5 102.5t-93.5 293.5v686h72v-674q0 -344 303 -344q129 0 219 68.5t90 193.5v756h72v-1057h-72zM813 1532l-231 -315l-50 26l216 324z" />
    <glyph glyph-name="ucircumflex" unicode="&#xfb;" 
d="M911 0v156h-6q-33 -78 -112 -129.5t-207 -51.5q-172 0 -265.5 102.5t-93.5 293.5v686h72v-674q0 -344 303 -344q129 0 219 68.5t90 193.5v756h72v-1057h-72zM563 1548h86l254 -278l-43 -31l-254 256l-254 -256l-43 31z" />
    <glyph glyph-name="udieresis" unicode="&#xfc;" 
d="M911 0v156h-6q-33 -78 -112 -129.5t-207 -51.5q-172 0 -265.5 102.5t-93.5 293.5v686h72v-674q0 -344 303 -344q129 0 219 68.5t90 193.5v756h72v-1057h-72zM420 1315q-74 0 -74 57v21q0 57 74 57q72 0 72 -57v-21q0 -57 -72 -57zM793 1315q-72 0 -72 57v21q0 57 72 57
q73 0 73 -57v-21q0 -57 -73 -57z" />
    <glyph glyph-name="yacute" unicode="&#xfd;" 
d="M618 127l381 930h74l-577 -1395q-29 -72 -113 -72h-197v64h234l158 381l-422 1022h75l381 -930h6zM817 1532l-231 -315l-49 26l215 324z" />
    <glyph glyph-name="thorn" unicode="&#xfe;" 
d="M242 -410v1926h71v-621h6q41 80 125.5 133t208.5 53q198 0 310 -138t112 -415t-112 -415t-310 -138q-124 0 -208.5 53t-125.5 134h-6v-572h-71zM635 39q167 0 264.5 111t97.5 313v131q0 203 -97 313.5t-265 110.5q-132 0 -227 -74t-95 -190v-451q0 -116 95 -190t227 -74z
" />
    <glyph glyph-name="ydieresis" unicode="&#xff;" 
d="M618 127l381 930h74l-577 -1395q-29 -72 -113 -72h-197v64h234l158 381l-422 1022h75l381 -930h6zM424 1315q-74 0 -74 57v21q0 57 74 57q72 0 72 -57v-21q0 -57 -72 -57zM797 1315q-72 0 -72 57v21q0 57 72 57q73 0 73 -57v-21q0 -57 -73 -57z" />
    <glyph glyph-name="Amacron" unicode="&#x100;" 
d="M1133 0h-78l-152 463h-577l-152 -463h-78l469 1430h101zM885 528l-267 820h-10l-264 -820h541zM344 1702v61h541v-61h-541z" />
    <glyph glyph-name="amacron" unicode="&#x101;" 
d="M1098 0h-148q-87 0 -90 86v76h-8q-40 -85 -125 -136t-219 -51q-169 0 -261.5 78t-92.5 221q0 142 96 220.5t319 78.5h289v152q0 146 -77.5 219.5t-217.5 73.5q-113 0 -196 -47.5t-125 -143.5l-54 35q45 101 140.5 160t236.5 59q171 0 268 -92t97 -256v-670h168v-63z
M514 37q146 0 245 71t99 195v213h-287q-340 0 -340 -211v-61q0 -98 77 -152.5t206 -54.5zM297 1354v61h541v-61h-541z" />
    <glyph glyph-name="Abreve" unicode="&#x102;" 
d="M1133 0h-78l-152 463h-577l-152 -463h-78l469 1430h101zM885 528l-267 820h-10l-264 -820h541zM614 1591q-48 0 -87 14.5t-65.5 34.5t-53.5 60.5t-43.5 73.5t-42.5 92l47 22l53 -92q48 -81 88.5 -112t103.5 -31t104 31t89 112l53 92l47 -22q-18 -41 -30.5 -66.5
t-30.5 -58t-33.5 -52t-37 -40.5t-44.5 -32t-52.5 -18.5t-64.5 -7.5z" />
    <glyph glyph-name="abreve" unicode="&#x103;" 
d="M1098 0h-148q-87 0 -90 86v76h-8q-40 -85 -125 -136t-219 -51q-169 0 -261.5 78t-92.5 221q0 142 96 220.5t319 78.5h289v152q0 146 -77.5 219.5t-217.5 73.5q-113 0 -196 -47.5t-125 -143.5l-54 35q45 101 140.5 160t236.5 59q171 0 268 -92t97 -256v-670h168v-63z
M514 37q146 0 245 71t99 195v213h-287q-340 0 -340 -211v-61q0 -98 77 -152.5t206 -54.5zM567 1243q-35 0 -64.5 7.5t-52.5 18.5t-44.5 32t-37 40.5t-33.5 52t-30.5 58t-30.5 66.5l48 22l53 -92q48 -81 88.5 -112t103.5 -31t104 31t89 112l53 92l47 -22q-18 -41 -30.5 -66.5
t-30.5 -58t-33.5 -52t-37 -40.5t-44.5 -32t-52.5 -18.5t-64.5 -7.5z" />
    <glyph glyph-name="Aogonek" unicode="&#x104;" 
d="M96 0l469 1430h101l467 -1430q-131 -85 -185.5 -141t-54.5 -121q0 -98 111 -98q77 0 120 51l41 -37q-48 -70 -161 -70q-78 0 -128.5 38.5t-50.5 107.5q0 145 230 272l-152 461h-577l-152 -463h-78zM885 528l-267 820h-10l-264 -820h541z" />
    <glyph glyph-name="aogonek" unicode="&#x105;" 
d="M1098 63v-63q-132 -85 -187 -141t-55 -121q0 -98 111 -98q77 0 120 51l41 -37q-48 -70 -161 -70q-78 0 -127 38t-49 108q0 140 231 266l-2 4h-76q-81 3 -84 86v76h-8q-40 -85 -125 -136t-219 -51q-169 0 -261.5 78t-92.5 221q0 142 96 220.5t319 78.5h289v152
q0 146 -77.5 219.5t-217.5 73.5q-113 0 -196 -47.5t-125 -143.5l-54 35q45 101 140.5 160t236.5 59q171 0 268 -92t97 -256v-670h168zM858 516h-287q-340 0 -340 -211v-61q0 -98 77 -152.5t206 -54.5q146 0 245 71t99 195v213z" />
    <glyph glyph-name="Cacute" unicode="&#x106;" 
d="M666 -25q-252 0 -380 181t-128 559t128 558.5t380 180.5q150 0 252.5 -79.5t152.5 -215.5l-65 -26q-41 119 -127 186t-213 67q-210 0 -318 -150.5t-108 -442.5v-156q0 -292 108 -443t318 -151q127 0 213 67.5t127 186.5l65 -27q-50 -136 -152.5 -215.5t-252.5 -79.5z
M874 1880l-231 -315l-49 26l215 324z" />
    <glyph glyph-name="cacute" unicode="&#x107;" 
d="M657 -25q-212 0 -328 143t-116 410t116.5 410t327.5 143q137 0 231 -63t134 -170l-61 -25q-35 94 -113.5 144.5t-190.5 50.5q-175 0 -270.5 -115.5t-95.5 -314.5v-119q0 -199 95.5 -314.5t270.5 -115.5q117 0 198.5 54t125.5 151l55 -33q-44 -104 -142 -170t-237 -66z
M858 1532l-231 -315l-49 26l215 324z" />
    <glyph glyph-name="Ccircumflex" unicode="&#x108;" 
d="M666 -25q-252 0 -380 181t-128 559t128 558.5t380 180.5q150 0 252.5 -79.5t152.5 -215.5l-65 -26q-41 119 -127 186t-213 67q-210 0 -318 -150.5t-108 -442.5v-156q0 -292 108 -443t318 -151q127 0 213 67.5t127 186.5l65 -27q-50 -136 -152.5 -215.5t-252.5 -79.5z
M625 1896h86l254 -278l-43 -31l-254 256l-254 -256l-43 31z" />
    <glyph glyph-name="ccircumflex" unicode="&#x109;" 
d="M657 -25q-212 0 -328 143t-116 410t116.5 410t327.5 143q137 0 231 -63t134 -170l-61 -25q-35 94 -113.5 144.5t-190.5 50.5q-175 0 -270.5 -115.5t-95.5 -314.5v-119q0 -199 95.5 -314.5t270.5 -115.5q117 0 198.5 54t125.5 151l55 -33q-44 -104 -142 -170t-237 -66z
M608 1548h86l254 -278l-43 -31l-254 256l-254 -256l-43 31z" />
    <glyph glyph-name="Cdotaccent" unicode="&#x10a;" 
d="M666 -25q-252 0 -380 181t-128 559t128 558.5t380 180.5q150 0 252.5 -79.5t152.5 -215.5l-65 -26q-41 119 -127 186t-213 67q-210 0 -318 -150.5t-108 -442.5v-156q0 -292 108 -443t318 -151q127 0 213 67.5t127 186.5l65 -27q-50 -136 -152.5 -215.5t-252.5 -79.5z
M668 1659q-76 0 -76 59v23q0 59 76 59q75 0 75 -59v-23q0 -59 -75 -59z" />
    <glyph glyph-name="cdotaccent" unicode="&#x10b;" 
d="M657 -25q-212 0 -328 143t-116 410t116.5 410t327.5 143q137 0 231 -63t134 -170l-61 -25q-35 94 -113.5 144.5t-190.5 50.5q-175 0 -270.5 -115.5t-95.5 -314.5v-119q0 -199 95.5 -314.5t270.5 -115.5q117 0 198.5 54t125.5 151l55 -33q-44 -104 -142 -170t-237 -66z
M651 1311q-76 0 -76 59v23q0 59 76 59t76 -59v-23q0 -59 -76 -59z" />
    <glyph glyph-name="Ccaron" unicode="&#x10c;" 
d="M666 -25q-252 0 -380 181t-128 559t128 558.5t380 180.5q150 0 252.5 -79.5t152.5 -215.5l-65 -26q-41 119 -127 186t-213 67q-210 0 -318 -150.5t-108 -442.5v-156q0 -292 108 -443t318 -151q127 0 213 67.5t127 186.5l65 -27q-50 -136 -152.5 -215.5t-252.5 -79.5z
M711 1597h-86l-254 277l43 33l254 -256l254 256l43 -33z" />
    <glyph glyph-name="ccaron" unicode="&#x10d;" 
d="M657 -25q-212 0 -328 143t-116 410t116.5 410t327.5 143q137 0 231 -63t134 -170l-61 -25q-35 94 -113.5 144.5t-190.5 50.5q-175 0 -270.5 -115.5t-95.5 -314.5v-119q0 -199 95.5 -314.5t270.5 -115.5q117 0 198.5 54t125.5 151l55 -33q-44 -104 -142 -170t-237 -66z
M694 1249h-86l-254 277l45 33l252 -256l254 256l43 -33z" />
    <glyph glyph-name="Dcaron" unicode="&#x10e;" 
d="M215 0v1430h379q255 0 375.5 -178t120.5 -537t-120.5 -537t-375.5 -178h-379zM289 68h305q210 0 312 147.5t102 423.5v152q0 276 -102 423.5t-312 147.5h-305v-1294zM610 1597h-86l-254 277l43 33l254 -256l254 256l43 -33z" />
    <glyph glyph-name="dcaron" unicode="&#x10f;" 
d="M567 -25q-200 0 -310 142t-110 411t110 411t310 142q119 0 202.5 -52.5t123.5 -133.5h6v621h72v-1516h-72v162h-6q-41 -81 -124 -134t-202 -53zM582 39q129 0 223 74t94 190v451q0 116 -94 190t-223 74q-171 0 -264 -114.5t-93 -315.5v-119q0 -201 93 -315.5t264 -114.5z
M1114 1149l29 367h88l-62 -367h-55z" />
    <glyph glyph-name="Dcroat" unicode="&#x110;" 
d="M248 0v725h-187v61h187v644h344q255 0 375 -178t120 -537t-120 -537t-375 -178h-344zM322 68h270q210 0 313 148t103 423v152q0 275 -103 423t-313 148h-270v-576h348v-61h-348v-657z" />
    <glyph glyph-name="dcroat" unicode="&#x111;" 
d="M915 0v162h-6q-41 -81 -124.5 -134t-204.5 -53q-202 0 -314 142.5t-112 410.5t112 410.5t314 142.5q121 0 205 -52.5t124 -133.5h6v393h-331v60h331v168h72v-168h143v-60h-143v-1288h-72zM596 39q131 0 225 74t94 190v451q0 116 -94 190t-225 74q-173 0 -269 -115
t-96 -315v-119q0 -200 96 -315t269 -115z" />
    <glyph glyph-name="Emacron" unicode="&#x112;" 
d="M1055 0h-842v1430h842v-68h-768v-602h741v-68h-741v-624h768v-68zM360 1702v61h541v-61h-541z" />
    <glyph glyph-name="emacron" unicode="&#x113;" 
d="M629 -25q-214 0 -333.5 143.5t-119.5 409.5q0 265 117.5 409t324.5 144q209 0 324 -143.5t115 -386.5v-29h-803v-53q0 -199 98.5 -314.5t276.5 -115.5q258 0 350 237l57 -30q-47 -126 -152 -198.5t-255 -72.5zM618 1020q-171 0 -267.5 -116.5t-96.5 -315.5v-8h727v10
q0 199 -96 314.5t-267 115.5zM348 1354v61h541v-61h-541z" />
    <glyph glyph-name="Ebreve" unicode="&#x114;" 
d="M1055 0h-842v1430h842v-68h-768v-602h741v-68h-741v-624h768v-68zM631 1591q-35 0 -64.5 7.5t-52.5 18.5t-44.5 32t-37 40.5t-33.5 52t-30.5 58t-30.5 66.5l47 22l53 -92q48 -81 89 -112t104 -31t103.5 31t88.5 112l54 92l47 -22q-18 -41 -30.5 -66.5t-30.5 -58
t-33.5 -52t-37 -40.5t-44.5 -32t-52.5 -18.5t-64.5 -7.5z" />
    <glyph glyph-name="ebreve" unicode="&#x115;" 
d="M629 -25q-214 0 -333.5 143.5t-119.5 409.5q0 265 117.5 409t324.5 144q209 0 324 -143.5t115 -386.5v-29h-803v-53q0 -199 98.5 -314.5t276.5 -115.5q258 0 350 237l57 -30q-47 -126 -152 -198.5t-255 -72.5zM618 1020q-171 0 -267.5 -116.5t-96.5 -315.5v-8h727v10
q0 199 -96 314.5t-267 115.5zM618 1243q-48 0 -87 14.5t-65.5 34.5t-53.5 60.5t-43.5 73.5t-42.5 92l47 22l53 -92q48 -81 88.5 -112t103.5 -31t104 31t89 112l53 92l47 -22q-18 -41 -30.5 -66.5t-30.5 -58t-33.5 -52t-37 -40.5t-44.5 -32t-52.5 -18.5t-64.5 -7.5z" />
    <glyph glyph-name="Edotaccent" unicode="&#x116;" 
d="M1055 0h-842v1430h842v-68h-768v-602h741v-68h-741v-624h768v-68zM631 1659q-76 0 -76 59v23q0 59 76 59t76 -59v-23q0 -59 -76 -59z" />
    <glyph glyph-name="edotaccent" unicode="&#x117;" 
d="M629 -25q-214 0 -333.5 143.5t-119.5 409.5q0 265 117.5 409t324.5 144q209 0 324 -143.5t115 -386.5v-29h-803v-53q0 -199 98.5 -314.5t276.5 -115.5q258 0 350 237l57 -30q-47 -126 -152 -198.5t-255 -72.5zM618 1020q-171 0 -267.5 -116.5t-96.5 -315.5v-8h727v10
q0 199 -96 314.5t-267 115.5zM618 1311q-75 0 -75 59v23q0 59 75 59q76 0 76 -59v-23q0 -59 -76 -59z" />
    <glyph glyph-name="Eogonek" unicode="&#x118;" 
d="M213 0v1430h842v-68h-768v-602h741v-68h-741v-624h768v-68q-131 -85 -185.5 -141t-54.5 -121q0 -98 111 -98q78 0 121 51l40 -37q-48 -70 -161 -70q-78 0 -127 38t-49 108q0 140 231 266l-2 4h-766z" />
    <glyph glyph-name="eogonek" unicode="&#x119;" 
d="M692 -416q-78 0 -127 38t-49 108q0 65 54 129t180 133l-2 4q-61 -21 -123 -21q-211 0 -330 143.5t-119 409.5q0 265 117.5 409t324.5 144q209 0 324 -143.5t115 -386.5v-29h-803v-53q0 -199 98.5 -314.5t276.5 -115.5q258 0 350 237l57 -30q-57 -149 -215 -246
q-120 -76 -179.5 -136.5t-59.5 -125.5q0 -98 110 -98q83 0 121 51l41 -37q-48 -70 -162 -70zM254 580h727v10q0 199 -96 314.5t-267 115.5t-267.5 -116.5t-96.5 -315.5v-8z" />
    <glyph glyph-name="Ecaron" unicode="&#x11a;" 
d="M1055 0h-842v1430h842v-68h-768v-602h741v-68h-741v-624h768v-68zM674 1597h-86l-254 277l43 33l254 -256l254 256l43 -33z" />
    <glyph glyph-name="ecaron" unicode="&#x11b;" 
d="M629 -25q-214 0 -333.5 143.5t-119.5 409.5q0 265 117.5 409t324.5 144q209 0 324 -143.5t115 -386.5v-29h-803v-53q0 -199 98.5 -314.5t276.5 -115.5q258 0 350 237l57 -30q-47 -126 -152 -198.5t-255 -72.5zM618 1020q-171 0 -267.5 -116.5t-96.5 -315.5v-8h727v10
q0 199 -96 314.5t-267 115.5zM662 1249h-87l-253 277l45 33l251 -256l254 256l43 -33z" />
    <glyph glyph-name="Gcircumflex" unicode="&#x11c;" 
d="M983 0v207h-8q-22 -53 -48.5 -91.5t-66.5 -72t-99.5 -51t-135.5 -17.5q-482 0 -482 738q0 380 125 560.5t369 180.5q149 0 252 -80t151 -215l-65 -26q-41 119 -126.5 186t-209.5 67q-204 0 -309 -150.5t-105 -442.5v-154q0 -292 103.5 -445t306.5 -153q160 0 254 101.5
t94 263.5v190h-350v63h422v-659h-72zM594 1896h86l254 -278l-43 -31l-254 256l-254 -256l-43 31z" />
    <glyph glyph-name="gcircumflex" unicode="&#x11d;" 
d="M578 1548h86l254 -278l-44 -31l-253 256l-254 -256l-43 31zM621 -434q-229 0 -338 70t-109 196q0 176 199 238v10q-107 36 -107 139q0 70 49.5 114.5t128.5 67.5v7q-91 40 -140.5 122t-49.5 197q0 160 99.5 257t267.5 97q83 0 151 -24h346v-62h-252q123 -88 123 -268
q0 -161 -101.5 -258.5t-266.5 -97.5q-53 0 -111 12q-178 -44 -178 -154q0 -104 176 -104h266q177 0 261.5 -66t84.5 -186q0 -307 -499 -307zM621 430q137 0 213.5 72t76.5 188v74q0 114 -76.5 186t-213.5 72q-136 0 -212.5 -72t-76.5 -186v-74q0 -115 77 -187.5t212 -72.5z
M1051 -131q0 92 -65 140t-216 48h-328q-194 -55 -194 -217q0 -99 83 -156t230 -57h115q175 0 275 60.5t100 181.5z" />
    <glyph glyph-name="Gbreve" unicode="&#x11e;" 
d="M983 0v207h-8q-22 -53 -48.5 -91.5t-66.5 -72t-99.5 -51t-135.5 -17.5q-482 0 -482 738q0 380 125 560.5t369 180.5q149 0 252 -80t151 -215l-65 -26q-41 119 -126.5 186t-209.5 67q-204 0 -309 -150.5t-105 -442.5v-154q0 -292 103.5 -445t306.5 -153q160 0 254 101.5
t94 263.5v190h-350v63h422v-659h-72zM637 1591q-35 0 -64.5 7.5t-52.5 18.5t-44.5 32t-37 40.5t-33.5 52t-30.5 58t-30.5 66.5l47 22l53 -92q48 -81 89 -112t104 -31t103.5 31t88.5 112l54 92l47 -22q-18 -41 -30.5 -66.5t-30.5 -58t-33.5 -52t-37 -40.5t-44.5 -32
t-52.5 -18.5t-64.5 -7.5z" />
    <glyph glyph-name="gbreve" unicode="&#x11f;" 
d="M621 1243q-35 0 -64.5 7.5t-52.5 18.5t-44.5 32t-37 40.5t-33.5 52t-30.5 58t-30.5 66.5l47 22l53 -92q48 -81 89 -112t104 -31t103.5 31t88.5 112l53 92l47 -22q-26 -59 -42.5 -92t-43.5 -73.5t-53.5 -60.5t-65.5 -34.5t-87 -14.5zM621 -434q-229 0 -338 70t-109 196
q0 176 199 238v10q-107 36 -107 139q0 70 49.5 114.5t128.5 67.5v7q-91 40 -140.5 122t-49.5 197q0 160 99.5 257t267.5 97q83 0 151 -24h346v-62h-252q123 -88 123 -268q0 -161 -101.5 -258.5t-266.5 -97.5q-53 0 -111 12q-178 -44 -178 -154q0 -104 176 -104h266
q177 0 261.5 -66t84.5 -186q0 -307 -499 -307zM621 430q137 0 213.5 72t76.5 188v74q0 114 -76.5 186t-213.5 72q-136 0 -212.5 -72t-76.5 -186v-74q0 -115 77 -187.5t212 -72.5zM1051 -131q0 92 -65 140t-216 48h-328q-194 -55 -194 -217q0 -99 83 -156t230 -57h115
q175 0 275 60.5t100 181.5z" />
    <glyph glyph-name="Gdotaccent" unicode="&#x120;" 
d="M983 0v207h-8q-22 -53 -48.5 -91.5t-66.5 -72t-99.5 -51t-135.5 -17.5q-482 0 -482 738q0 380 125 560.5t369 180.5q149 0 252 -80t151 -215l-65 -26q-41 119 -126.5 186t-209.5 67q-204 0 -309 -150.5t-105 -442.5v-154q0 -292 103.5 -445t306.5 -153q160 0 254 101.5
t94 263.5v190h-350v63h422v-659h-72zM637 1659q-76 0 -76 59v23q0 59 76 59t76 -59v-23q0 -59 -76 -59z" />
    <glyph glyph-name="gdotaccent" unicode="&#x121;" 
d="M1120 -127q0 -307 -499 -307q-229 0 -338 70t-109 196q0 176 199 238v10q-107 36 -107 139q0 70 49.5 114.5t128.5 67.5v7q-91 40 -140.5 122t-49.5 197q0 160 99.5 257t267.5 97q132 0 223 -63v67q0 76 76 76h219v-63h-246v-119q96 -96 96 -252q0 -161 -101.5 -258.5
t-266.5 -97.5q-55 0 -111 12q-178 -44 -178 -154q0 -104 176 -104h266q177 0 261.5 -66t84.5 -186zM1051 -131q0 92 -65 140t-216 48h-328q-194 -55 -194 -217q0 -99 83 -156t230 -57h115q175 0 275 60.5t100 181.5zM621 430q137 0 213.5 72t76.5 188v74q0 114 -76.5 186
t-213.5 72q-136 0 -212.5 -72t-76.5 -186v-74q0 -115 77 -187.5t212 -72.5zM621 1311q-76 0 -76 59v23q0 59 76 59q75 0 75 -59v-23q0 -59 -75 -59z" />
    <glyph glyph-name="Gcommaaccent" unicode="&#x122;" 
d="M983 0v207h-8q-22 -53 -48.5 -91.5t-66.5 -72t-99.5 -51t-135.5 -17.5q-482 0 -482 738q0 380 125 560.5t369 180.5q149 0 252 -80t151 -215l-65 -26q-41 119 -126.5 186t-209.5 67q-204 0 -309 -150.5t-105 -442.5v-154q0 -292 103.5 -445t306.5 -153q160 0 254 101.5
t94 263.5v190h-350v63h422v-659h-72zM496 -514l82 377h92l-117 -377h-57z" />
    <glyph glyph-name="gcommaaccent" unicode="&#x123;" 
d="M1120 -127q0 -307 -499 -307q-229 0 -338 70t-109 196q0 176 199 238v10q-107 36 -107 139q0 70 49.5 114.5t128.5 67.5v7q-91 40 -140.5 122t-49.5 197q0 160 99.5 257t267.5 97q132 0 223 -63v67q0 76 76 76h219v-63h-246v-119q96 -96 96 -252q0 -161 -101.5 -258.5
t-266.5 -97.5q-55 0 -111 12q-178 -44 -178 -154q0 -104 176 -104h266q177 0 261.5 -66t84.5 -186zM1051 -131q0 92 -65 140t-216 48h-328q-194 -55 -194 -217q0 -99 83 -156t230 -57h115q175 0 275 60.5t100 181.5zM621 430q137 0 213.5 72t76.5 188v74q0 114 -76.5 186
t-213.5 72q-136 0 -212.5 -72t-76.5 -186v-74q0 -115 77 -187.5t212 -72.5zM573 1212l132 367h57l-98 -367h-91z" />
    <glyph glyph-name="Hcircumflex" unicode="&#x124;" 
d="M963 0v692h-697v-692h-73v1430h73v-672h697v672h73v-1430h-73zM571 1896h86l254 -278l-43 -31l-254 256l-254 -256l-43 31z" />
    <glyph glyph-name="hcircumflex" unicode="&#x125;" 
d="M246 0v1516h71v-615h7q33 78 112 129t207 51q172 0 265 -102t93 -293v-686h-71v674q0 344 -303 344q-129 0 -219.5 -68.5t-90.5 -193.5v-756h-71zM238 1921h86l254 -279l-43 -30l-254 256l-254 -256l-43 30z" />
    <glyph glyph-name="Hbar" unicode="&#x126;" 
d="M963 0v692h-697v-692h-73v1090h-166v61h166v279h73v-279h697v279h73v-279h166v-61h-166v-1090h-73zM266 758h697v332h-697v-332z" />
    <glyph glyph-name="hbar" unicode="&#x127;" 
d="M317 0h-71v1288h-144v60h144v168h71v-168h332v-60h-332v-387h7q33 78 112 129t207 51q172 0 265 -102t93 -293v-686h-71v674q0 344 -303 344q-129 0 -219.5 -68.5t-90.5 -193.5v-756z" />
    <glyph glyph-name="Itilde" unicode="&#x128;" 
d="M1044 0h-860v61h394v1307h-394v62h860v-62h-393v-1307h393v-61zM760 1642q-61 0 -158 60q-84 51 -137 51q-68 0 -131 -63l-35 36q76 89 170 89q61 0 158 -60q84 -51 137 -51q68 0 131 63l35 -36q-76 -89 -170 -89z" />
    <glyph glyph-name="itilde" unicode="&#x129;" 
d="M233 0v63h412v930h-412v64h484v-994h385v-63h-869zM825 1294q-60 0 -157 60q-84 51 -138 51q-67 0 -131 -64l-34 37q75 88 170 88q62 0 157 -59q84 -51 137 -51q69 0 132 63l34 -37q-75 -88 -170 -88z" />
    <glyph glyph-name="Imacron" unicode="&#x12a;" 
d="M1044 0h-860v61h394v1307h-394v62h860v-62h-393v-1307h393v-61zM344 1702v61h541v-61h-541z" />
    <glyph glyph-name="imacron" unicode="&#x12b;" 
d="M233 0v63h412v930h-412v64h484v-994h385v-63h-869zM410 1354v61h540v-61h-540z" />
    <glyph glyph-name="Ibreve" unicode="&#x12c;" 
d="M1044 0h-860v61h394v1307h-394v62h860v-62h-393v-1307h393v-61zM614 1591q-48 0 -87 14.5t-65.5 34.5t-53.5 60.5t-43.5 73.5t-42.5 92l47 22l53 -92q48 -81 88.5 -112t103.5 -31t104 31t89 112l53 92l47 -22q-18 -41 -30.5 -66.5t-30.5 -58t-33.5 -52t-37 -40.5
t-44.5 -32t-52.5 -18.5t-64.5 -7.5z" />
    <glyph glyph-name="ibreve" unicode="&#x12d;" 
d="M233 0v63h412v930h-412v64h484v-994h385v-63h-869zM680 1243q-35 0 -64.5 7.5t-52.5 18.5t-44.5 32t-37 40.5t-33.5 52t-30.5 58t-30.5 66.5l47 22l53 -92q48 -81 89 -112t104 -31t103.5 31t88.5 112l54 92l47 -22q-18 -41 -30.5 -66.5t-30.5 -58t-33.5 -52t-37 -40.5
t-44.5 -32t-52.5 -18.5t-64.5 -7.5z" />
    <glyph glyph-name="Iogonek" unicode="&#x12e;" 
d="M184 0v61h394v1307h-394v62h860v-62h-393v-1307h393v-61q-131 -84 -186 -140.5t-55 -121.5q0 -98 112 -98q81 0 119 51l43 -37q-48 -70 -164 -70q-78 0 -127 38t-49 108q0 140 234 266l-2 4h-785z" />
    <glyph glyph-name="iogonek" unicode="&#x12f;" 
d="M971 -416q-78 0 -127 38t-49 108q0 140 231 266l-2 4h-791v63h412v930h-412v64h484v-994h385v-63q-132 -85 -187 -141t-55 -121q0 -98 111 -98q78 0 121 51l41 -37q-48 -70 -162 -70zM680 1386q-76 0 -76 62v18q0 62 76 62t76 -62v-18q0 -62 -76 -62z" />
    <glyph glyph-name="Idotaccent" unicode="&#x130;" 
d="M1044 0h-860v61h394v1307h-394v62h860v-62h-393v-1307h393v-61zM614 1659q-75 0 -75 59v23q0 59 75 59q76 0 76 -59v-23q0 -59 -76 -59z" />
    <glyph glyph-name="dotlessi" unicode="&#x131;" 
d="M233 0v63h412v930h-412v64h484v-994h385v-63h-869z" />
    <glyph glyph-name="IJ" unicode="&#x132;" 
d="M930 1430h74v-1043q0 -194 -105.5 -303t-288.5 -109q-153 0 -253.5 77t-129.5 216l74 19q28 -113 104.5 -178.5t206.5 -65.5q153 0 235.5 91t82.5 265v1031zM225 565v865h74v-865h-74z" />
    <glyph glyph-name="ij" unicode="&#x133;" 
d="M258 0v1057h72v-1057h-72zM328 -410v64h571v1403h72v-1364q0 -103 -101 -103h-542zM293 1386q-76 0 -76 62v18q0 62 76 62t76 -62v-18q0 -62 -76 -62zM936 1386q-76 0 -76 62v18q0 62 76 62t76 -62v-18q0 -62 -76 -62z" />
    <glyph glyph-name="Jcircumflex" unicode="&#x134;" 
d="M315 1430h639v-1047q0 -191 -106 -299.5t-283 -108.5q-151 0 -251 74.5t-128 206.5l72 16q26 -107 103 -168t206 -61q149 0 231.5 90.5t82.5 259.5v969h-566v68zM588 1896h86l254 -278l-43 -31l-254 256l-254 -256l-43 31z" />
    <glyph glyph-name="jcircumflex" unicode="&#x135;" 
d="M223 -410v64h582v1339h-610v64h682v-1364q0 -103 -101 -103h-553zM799 1548h86l254 -278l-43 -31l-254 256l-254 -256l-43 31z" />
    <glyph glyph-name="Kcommaaccent" unicode="&#x136;" 
d="M1049 0l-506 770l-258 -289v-481h-74v1430h74v-848h4l260 295l489 553h90l-532 -605l541 -825h-88zM537 -514l81 377h93l-117 -377h-57z" />
    <glyph glyph-name="kcommaaccent" unicode="&#x137;" 
d="M268 0v1516h72v-1041h6l229 203l433 379h92l-467 -414l522 -643h-88l-489 598l-238 -207v-391h-72zM559 -514l82 377h92l-117 -377h-57z" />
    <glyph glyph-name="kgreenlandic" unicode="&#x138;" 
d="M1069 0l-487 580l-242 -215v-365h-72v1057h72v-606h6l236 213l428 393h92l-471 -430l526 -627h-88z" />
    <glyph glyph-name="Lacute" unicode="&#x139;" 
d="M1085 0h-798v1430h73v-1362h725v-68zM528 1880l-231 -315l-49 26l215 324z" />
    <glyph glyph-name="lacute" unicode="&#x13a;" 
d="M180 0v63h400v1389h-400v64h471v-1453h398v-63h-869zM821 1905l-231 -316l-49 27l215 323z" />
    <glyph glyph-name="Lcommaaccent" unicode="&#x13b;" 
d="M1085 0h-798v1430h73v-1362h725v-68zM561 -514l82 377h92l-117 -377h-57z" />
    <glyph glyph-name="lcommaaccent" unicode="&#x13c;" 
d="M180 0v63h400v1389h-400v64h471v-1453h398v-63h-869zM489 -514l82 377h93l-117 -377h-58z" />
    <glyph glyph-name="Lcaron" unicode="&#x13d;" 
d="M1085 0h-798v1430h73v-1362h725v-68zM684 1516l-61 -367h-56l29 367h88z" />
    <glyph glyph-name="lcaron" unicode="&#x13e;" 
d="M180 0v63h400v1389h-400v64h471v-1453h398v-63h-869zM975 1516l-62 -367h-55l29 367h88z" />
    <glyph glyph-name="Ldot" unicode="&#x13f;" 
d="M1085 0h-798v1430h73v-1362h725v-68zM874 594q-75 0 -75 59v23q0 59 75 59q76 0 76 -59v-23q0 -59 -76 -59z" />
    <glyph glyph-name="ldot" unicode="&#x140;" 
d="M180 0v63h400v1389h-400v64h471v-1453h398v-63h-869zM1049 551q-76 0 -76 59v23q0 59 76 59q75 0 75 -59v-23q0 -59 -75 -59z" />
    <glyph glyph-name="Lslash" unicode="&#x141;" 
d="M1085 68v-68h-798v602l-183 -57v63l183 58v764h73v-744l467 150v-64l-467 -149v-555h725z" />
    <glyph glyph-name="lslash" unicode="&#x142;" 
d="M180 0v63h400v580l-347 -113v66l347 111v745h-400v64h471v-789l344 113v-64l-344 -112v-601h398v-63h-869z" />
    <glyph glyph-name="Nacute" unicode="&#x143;" 
d="M930 0l-660 1331h-8v-1331h-69v1430h106l659 -1328h9v1328h69v-1430h-106zM821 1880l-231 -315l-49 26l215 324z" />
    <glyph glyph-name="nacute" unicode="&#x144;" 
d="M317 0h-71v1057h71v-156h7q33 78 112 129t207 51q172 0 265 -102t93 -293v-686h-71v674q0 344 -303 344q-129 0 -219.5 -68.5t-90.5 -193.5v-756zM831 1532l-231 -315l-49 26l215 324z" />
    <glyph glyph-name="Ncommaaccent" unicode="&#x145;" 
d="M930 0l-660 1331h-8v-1331h-69v1430h106l659 -1328h9v1328h69v-1430h-106zM489 -514l82 377h93l-117 -377h-58z" />
    <glyph glyph-name="ncommaaccent" unicode="&#x146;" 
d="M317 0h-71v1057h71v-156h7q33 78 112 129t207 51q172 0 265 -102t93 -293v-686h-71v674q0 344 -303 344q-129 0 -219.5 -68.5t-90.5 -193.5v-756zM500 -514l82 377h92l-117 -377h-57z" />
    <glyph glyph-name="Ncaron" unicode="&#x147;" 
d="M930 0l-660 1331h-8v-1331h-69v1430h106l659 -1328h9v1328h69v-1430h-106zM657 1597h-86l-254 277l43 33l254 -256l254 256l43 -33z" />
    <glyph glyph-name="ncaron" unicode="&#x148;" 
d="M317 0h-71v1057h71v-156h7q33 78 112 129t207 51q172 0 265 -102t93 -293v-686h-71v674q0 344 -303 344q-129 0 -219.5 -68.5t-90.5 -193.5v-756zM668 1249h-86l-254 277l45 33l252 -256l254 256l43 -33z" />
    <glyph glyph-name="napostrophe" unicode="&#x149;" 
d="M246 0v1057h71v-156h7q33 78 112 129t207 51q172 0 265 -102t93 -293v-686h-71v674q0 344 -303 344q-129 0 -219.5 -68.5t-90.5 -193.5v-756h-71zM23 1137l51 379h104l-102 -379h-53z" />
    <glyph glyph-name="Eng" unicode="&#x14a;" 
d="M262 0h-69v1430h106l659 -1328h9v1328h69v-1737q0 -103 -100 -103h-578v62h609v348h-37l-660 1331h-8v-1331z" />
    <glyph glyph-name="eng" unicode="&#x14b;" 
d="M412 -410v64h518v1020q0 344 -303 344q-129 0 -219.5 -68.5t-90.5 -193.5v-756h-71v1057h71v-156h7q33 78 112 129t207 51q172 0 265 -102t93 -293v-993q0 -103 -100 -103h-489z" />
    <glyph glyph-name="Omacron" unicode="&#x14c;" 
d="M614 -25q-237 0 -357 181.5t-120 558.5t120 558t357 181t357.5 -181t120.5 -558q0 -740 -478 -740zM614 43q196 0 296 151t100 443v156q0 292 -100 442.5t-296 150.5t-295.5 -150t-99.5 -443v-156q0 -293 99.5 -443.5t295.5 -150.5zM344 1702v61h541v-61h-541z" />
    <glyph glyph-name="omacron" unicode="&#x14d;" 
d="M614 -25q-209 0 -325.5 143.5t-116.5 409.5t116.5 409.5t325.5 143.5t326 -143.5t117 -409.5t-117 -409.5t-326 -143.5zM614 39q173 0 269 115t96 319v111q0 204 -96 319t-269 115t-268.5 -114.5t-95.5 -319.5v-111q0 -205 95.5 -319.5t268.5 -114.5zM344 1354v61h541
v-61h-541z" />
    <glyph glyph-name="Obreve" unicode="&#x14e;" 
d="M614 -25q-237 0 -357 181.5t-120 558.5t120 558t357 181t357.5 -181t120.5 -558q0 -740 -478 -740zM614 43q196 0 296 151t100 443v156q0 292 -100 442.5t-296 150.5t-295.5 -150t-99.5 -443v-156q0 -293 99.5 -443.5t295.5 -150.5zM614 1591q-48 0 -87 14.5t-65.5 34.5
t-53.5 60.5t-43.5 73.5t-42.5 92l47 22l53 -92q48 -81 88.5 -112t103.5 -31t104 31t89 112l53 92l47 -22q-18 -41 -30.5 -66.5t-30.5 -58t-33.5 -52t-37 -40.5t-44.5 -32t-52.5 -18.5t-64.5 -7.5z" />
    <glyph glyph-name="obreve" unicode="&#x14f;" 
d="M614 -25q-209 0 -325.5 143.5t-116.5 409.5t116.5 409.5t325.5 143.5t326 -143.5t117 -409.5t-117 -409.5t-326 -143.5zM614 39q173 0 269 115t96 319v111q0 204 -96 319t-269 115t-268.5 -114.5t-95.5 -319.5v-111q0 -205 95.5 -319.5t268.5 -114.5zM614 1243
q-48 0 -87 14.5t-65.5 34.5t-53.5 60.5t-43.5 73.5t-42.5 92l47 22l53 -92q48 -81 88.5 -112t103.5 -31t104 31t89 112l53 92l47 -22q-18 -41 -30.5 -66.5t-30.5 -58t-33.5 -52t-37 -40.5t-44.5 -32t-52.5 -18.5t-64.5 -7.5z" />
    <glyph glyph-name="Ohungarumlaut" unicode="&#x150;" 
d="M614 -25q-237 0 -357 181.5t-120 558.5t120 558t357 181t357.5 -181t120.5 -558q0 -740 -478 -740zM614 43q196 0 296 151t100 443v156q0 292 -100 442.5t-296 150.5t-295.5 -150t-99.5 -443v-156q0 -293 99.5 -443.5t295.5 -150.5zM686 1880l-231 -315l-47 26l215 324z
M1014 1880l-232 -315l-47 26l215 324z" />
    <glyph glyph-name="ohungarumlaut" unicode="&#x151;" 
d="M614 -25q-209 0 -325.5 143.5t-116.5 409.5t116.5 409.5t325.5 143.5t326 -143.5t117 -409.5t-117 -409.5t-326 -143.5zM614 39q173 0 269 115t96 319v111q0 204 -96 319t-269 115t-268.5 -114.5t-95.5 -319.5v-111q0 -205 95.5 -319.5t268.5 -114.5zM686 1532l-231 -315
l-47 26l215 324zM1014 1532l-232 -315l-47 26l215 324z" />
    <glyph glyph-name="OE" unicode="&#x152;" 
d="M1135 0h-527q-255 0 -375 178t-120 537t120 537t375 178h527v-66h-396v-606h367v-66h-367v-626h396v-66zM608 66h58v1298h-58q-210 0 -312.5 -148.5t-102.5 -424.5v-152q0 -276 102.5 -424.5t312.5 -148.5z" />
    <glyph glyph-name="oe" unicode="&#x153;" 
d="M348 35q106 0 169 107t63 317v139q0 210 -63 317t-169 107t-168.5 -106.5t-62.5 -317.5v-139q0 -211 62.5 -317.5t168.5 -106.5zM647 573h469v76q0 375 -225 375q-116 0 -180 -99t-64 -300v-52zM879 -25q-97 0 -168 66t-99 201h-6q-27 -134 -96 -200.5t-166 -66.5
q-142 0 -220.5 138t-78.5 415q0 276 78.5 414.5t220.5 138.5q101 0 170.5 -69.5t97.5 -200.5h6q58 270 277 270q137 0 212 -111t75 -339v-113h-535v-61q0 -217 64.5 -318.5t171.5 -101.5q84 0 141 59t86 164l57 -22q-33 -114 -104.5 -188.5t-183.5 -74.5z" />
    <glyph glyph-name="Racute" unicode="&#x154;" 
d="M287 647v-647h-74v1430h504q178 0 273 -104.5t95 -287.5q0 -178 -91.5 -281.5t-262.5 -107.5h-59l409 -649h-86l-405 647h-303zM287 713h430q140 0 214.5 79.5t74.5 200.5v90q0 120 -75 199.5t-214 79.5h-430v-649zM823 1880l-231 -315l-49 26l215 324z" />
    <glyph glyph-name="racute" unicode="&#x155;" 
d="M162 0v63h352v930h-352v64h424v-219h6q40 101 118 160t216 59h215v-68h-234q-139 0 -230 -87t-91 -243v-596h450v-63h-874zM969 1532l-232 -315l-49 26l215 324z" />
    <glyph glyph-name="Rcommaaccent" unicode="&#x156;" 
d="M287 647v-647h-74v1430h504q178 0 273 -104.5t95 -287.5q0 -178 -91.5 -281.5t-262.5 -107.5h-59l409 -649h-86l-405 647h-303zM287 713h430q140 0 214.5 79.5t74.5 200.5v90q0 120 -75 199.5t-214 79.5h-430v-649zM496 -514l82 377h92l-117 -377h-57z" />
    <glyph glyph-name="rcommaaccent" unicode="&#x157;" 
d="M162 0v63h352v930h-352v64h424v-219h6q40 101 118 160t216 59h215v-68h-234q-139 0 -230 -87t-91 -243v-596h450v-63h-874zM426 -514l82 377h92l-117 -377h-57z" />
    <glyph glyph-name="Rcaron" unicode="&#x158;" 
d="M287 647v-647h-74v1430h504q178 0 273 -104.5t95 -287.5q0 -178 -91.5 -281.5t-262.5 -107.5h-59l409 -649h-86l-405 647h-303zM287 713h430q140 0 214.5 79.5t74.5 200.5v90q0 120 -75 199.5t-214 79.5h-430v-649zM659 1597h-86l-254 277l43 33l254 -256l254 256l43 -33
z" />
    <glyph glyph-name="rcaron" unicode="&#x159;" 
d="M162 0v63h352v930h-352v64h424v-219h6q40 101 118 160t216 59h215v-68h-234q-139 0 -230 -87t-91 -243v-596h450v-63h-874zM805 1249h-86l-254 277l45 33l252 -256l254 256l43 -33z" />
    <glyph glyph-name="Sacute" unicode="&#x15a;" 
d="M621 -25q-178 0 -294.5 62t-201.5 176l57 45q83 -108 183.5 -162.5t255.5 -54.5q187 0 289 84.5t102 243.5q0 78 -24 135.5t-69.5 92.5t-99.5 55t-127 32l-164 27q-366 60 -366 374q0 182 120.5 275.5t331.5 93.5q312 0 453 -203l-55 -47q-65 93 -161 139t-241 46
q-177 0 -274.5 -76.5t-97.5 -225.5q0 -142 82 -212.5t233 -94.5l162 -26q372 -62 372 -383q0 -191 -124 -293.5t-342 -102.5zM807 1880l-232 -315l-49 26l215 324z" />
    <glyph glyph-name="sacute" unicode="&#x15b;" 
d="M645 -25q-299 0 -471 209l51 43q79 -98 181 -144t239 -46q160 0 253 63t93 185q0 54 -18 91.5t-55 61t-81.5 36.5t-109.5 22l-164 22q-62 9 -106 19.5t-90.5 31t-75.5 48.5t-47.5 72t-18.5 102q0 76 30 133t84 90.5t122.5 50t150.5 16.5q254 0 412 -166l-49 -49
q-61 70 -146 112t-219 42q-148 0 -230.5 -55.5t-82.5 -169.5q0 -101 65 -145.5t199 -63.5l166 -25q60 -8 104.5 -18.5t90.5 -31t75 -48t47.5 -72t18.5 -102.5q0 -154 -115 -234t-303 -80zM815 1532l-231 -315l-49 26l215 324z" />
    <glyph glyph-name="Scircumflex" unicode="&#x15c;" 
d="M621 -25q-178 0 -294.5 62t-201.5 176l57 45q83 -108 183.5 -162.5t255.5 -54.5q187 0 289 84.5t102 243.5q0 78 -24 135.5t-69.5 92.5t-99.5 55t-127 32l-164 27q-366 60 -366 374q0 182 120.5 275.5t331.5 93.5q312 0 453 -203l-55 -47q-65 93 -161 139t-241 46
q-177 0 -274.5 -76.5t-97.5 -225.5q0 -142 82 -212.5t233 -94.5l162 -26q372 -62 372 -383q0 -191 -124 -293.5t-342 -102.5zM557 1896h86l254 -278l-43 -31l-254 256l-254 -256l-43 31z" />
    <glyph glyph-name="scircumflex" unicode="&#x15d;" 
d="M645 -25q-299 0 -471 209l51 43q79 -98 181 -144t239 -46q160 0 253 63t93 185q0 54 -18 91.5t-55 61t-81.5 36.5t-109.5 22l-164 22q-62 9 -106 19.5t-90.5 31t-75.5 48.5t-47.5 72t-18.5 102q0 76 30 133t84 90.5t122.5 50t150.5 16.5q254 0 412 -166l-49 -49
q-61 70 -146 112t-219 42q-148 0 -230.5 -55.5t-82.5 -169.5q0 -101 65 -145.5t199 -63.5l166 -25q60 -8 104.5 -18.5t90.5 -31t75 -48t47.5 -72t18.5 -102.5q0 -154 -115 -234t-303 -80zM565 1548h86l254 -278l-43 -31l-254 256l-254 -256l-43 31z" />
    <glyph glyph-name="Scedilla" unicode="&#x15e;" 
d="M637 -416q-61 0 -107.5 20t-66.5 50l39 41q44 -57 135 -57q54 0 85.5 25t31.5 71q0 84 -127 92l-72 6l33 143q-112 4 -202 36.5t-149 81.5t-112 120l57 45q83 -108 183.5 -162.5t255.5 -54.5q187 0 289 84.5t102 243.5q0 78 -24 135.5t-69.5 92.5t-99.5 55t-127 32
l-164 27q-366 60 -366 374q0 182 120.5 275.5t331.5 93.5q312 0 453 -203l-55 -47q-65 93 -161 139t-241 46q-177 0 -274.5 -76.5t-97.5 -225.5q0 -142 82 -212.5t233 -94.5l162 -26q372 -62 372 -383q0 -187 -120 -290t-328 -106l-27 -118l4 -4q30 6 66 6q61 0 99 -33.5
t38 -89.5q0 -67 -50.5 -109.5t-131.5 -42.5z" />
    <glyph glyph-name="scedilla" unicode="&#x15f;" 
d="M647 -416q-61 0 -107.5 20t-66.5 50l39 41q44 -57 135 -57q53 0 85 25t32 71q0 84 -129 92l-70 6l33 143q-267 18 -424 209l51 43q79 -98 181 -144t239 -46q160 0 253 63t93 185q0 54 -18 91.5t-55 61t-81.5 36.5t-109.5 22l-164 22q-62 9 -106 19.5t-90.5 31t-75.5 48.5
t-47.5 72t-18.5 102q0 76 30 133t84 90.5t122.5 50t150.5 16.5q254 0 412 -166l-49 -49q-61 70 -146 112t-219 42q-148 0 -230.5 -55.5t-82.5 -169.5q0 -101 65 -145.5t199 -63.5l166 -25q60 -8 104.5 -18.5t90.5 -31t75 -48t47.5 -72t18.5 -102.5q0 -152 -113.5 -232
t-298.5 -82h-2l-28 -118l6 -4q30 6 65 6q61 0 99 -33.5t38 -89.5q0 -67 -50.5 -109.5t-131.5 -42.5z" />
    <glyph glyph-name="Scaron" unicode="&#x160;" 
d="M621 -25q-178 0 -294.5 62t-201.5 176l57 45q83 -108 183.5 -162.5t255.5 -54.5q187 0 289 84.5t102 243.5q0 78 -24 135.5t-69.5 92.5t-99.5 55t-127 32l-164 27q-366 60 -366 374q0 182 120.5 275.5t331.5 93.5q312 0 453 -203l-55 -47q-65 93 -161 139t-241 46
q-177 0 -274.5 -76.5t-97.5 -225.5q0 -142 82 -212.5t233 -94.5l162 -26q372 -62 372 -383q0 -191 -124 -293.5t-342 -102.5zM643 1597h-86l-254 277l43 33l254 -256l254 256l43 -33z" />
    <glyph glyph-name="scaron" unicode="&#x161;" 
d="M645 -25q-299 0 -471 209l51 43q79 -98 181 -144t239 -46q160 0 253 63t93 185q0 54 -18 91.5t-55 61t-81.5 36.5t-109.5 22l-164 22q-62 9 -106 19.5t-90.5 31t-75.5 48.5t-47.5 72t-18.5 102q0 76 30 133t84 90.5t122.5 50t150.5 16.5q254 0 412 -166l-49 -49
q-61 70 -146 112t-219 42q-148 0 -230.5 -55.5t-82.5 -169.5q0 -101 65 -145.5t199 -63.5l166 -25q60 -8 104.5 -18.5t90.5 -31t75 -48t47.5 -72t18.5 -102.5q0 -154 -115 -234t-303 -80zM651 1249h-86l-254 277l45 33l252 -256l254 256l43 -33z" />
    <glyph glyph-name="uni0162" unicode="&#x162;" 
d="M1153 1362h-502v-1362h-73v1362h-502v68h1077v-68zM489 -514l82 377h93l-117 -377h-58z" />
    <glyph glyph-name="uni0163" unicode="&#x163;" 
d="M1071 0h-498q-100 0 -100 102v891h-397v64h330q37 0 53 16t16 51v306h70v-373h526v-64h-526v-930h526v-63zM647 -514l82 377h92l-116 -377h-58z" />
    <glyph glyph-name="Tcaron" unicode="&#x164;" 
d="M1153 1362h-502v-1362h-73v1362h-502v68h1077v-68zM657 1597h-86l-254 277l43 33l254 -256l254 256l43 -33z" />
    <glyph glyph-name="tcaron" unicode="&#x165;" 
d="M1071 0h-498q-100 0 -100 102v891h-397v64h330q37 0 53 16t16 51v306h70v-373h526v-64h-526v-930h526v-63zM913 1556l-61 -366h-55l28 366h88z" />
    <glyph glyph-name="Tbar" unicode="&#x166;" 
d="M1034 733h-383v-733h-73v733h-383v62h383v567h-502v68h1077v-68h-502v-567h383v-62z" />
    <glyph glyph-name="tbar" unicode="&#x167;" 
d="M1069 63v-63h-496q-100 0 -100 102v459h-256v60h256v372h-397v64h330q37 0 53 16t16 51v306h70v-373h526v-64h-526v-372h385v-60h-385v-498h524z" />
    <glyph glyph-name="Utilde" unicode="&#x168;" 
d="M193 1430h73v-869q0 -152 14.5 -245.5t53.5 -157.5t106 -89.5t174 -25.5t174 25.5t106.5 89.5t54 157.5t14.5 245.5v869h73v-859q0 -171 -19 -280.5t-68 -182.5t-129 -103t-206 -30t-206 30t-128.5 103t-67.5 182t-19 281v859zM760 1642q-61 0 -158 60q-84 51 -137 51
q-68 0 -131 -63l-35 36q76 89 170 89q61 0 158 -60q84 -51 137 -51q68 0 131 63l35 -36q-76 -89 -170 -89z" />
    <glyph glyph-name="utilde" unicode="&#x169;" 
d="M911 0v156h-6q-33 -78 -112 -129.5t-207 -51.5q-172 0 -265.5 102.5t-93.5 293.5v686h72v-674q0 -344 303 -344q129 0 219 68.5t90 193.5v756h72v-1057h-72zM752 1294q-61 0 -158 60q-84 51 -137 51q-67 0 -131 -64l-35 37q75 88 170 88q62 0 157 -59q84 -51 138 -51
q68 0 131 63l35 -37q-75 -88 -170 -88z" />
    <glyph glyph-name="Umacron" unicode="&#x16a;" 
d="M193 1430h73v-869q0 -152 14.5 -245.5t53.5 -157.5t106 -89.5t174 -25.5t174 25.5t106.5 89.5t54 157.5t14.5 245.5v869h73v-859q0 -171 -19 -280.5t-68 -182.5t-129 -103t-206 -30t-206 30t-128.5 103t-67.5 182t-19 281v859zM344 1702v61h541v-61h-541z" />
    <glyph glyph-name="umacron" unicode="&#x16b;" 
d="M911 0v156h-6q-33 -78 -112 -129.5t-207 -51.5q-172 0 -265.5 102.5t-93.5 293.5v686h72v-674q0 -344 303 -344q129 0 219 68.5t90 193.5v756h72v-1057h-72zM336 1354v61h541v-61h-541z" />
    <glyph glyph-name="Ubreve" unicode="&#x16c;" 
d="M193 1430h73v-869q0 -152 14.5 -245.5t53.5 -157.5t106 -89.5t174 -25.5t174 25.5t106.5 89.5t54 157.5t14.5 245.5v869h73v-859q0 -171 -19 -280.5t-68 -182.5t-129 -103t-206 -30t-206 30t-128.5 103t-67.5 182t-19 281v859zM614 1591q-48 0 -87 14.5t-65.5 34.5
t-53.5 60.5t-43.5 73.5t-42.5 92l47 22l53 -92q48 -81 88.5 -112t103.5 -31t104 31t89 112l53 92l47 -22q-18 -41 -30.5 -66.5t-30.5 -58t-33.5 -52t-37 -40.5t-44.5 -32t-52.5 -18.5t-64.5 -7.5z" />
    <glyph glyph-name="ubreve" unicode="&#x16d;" 
d="M911 0v156h-6q-33 -78 -112 -129.5t-207 -51.5q-172 0 -265.5 102.5t-93.5 293.5v686h72v-674q0 -344 303 -344q129 0 219 68.5t90 193.5v756h72v-1057h-72zM606 1243q-35 0 -64.5 7.5t-52.5 18.5t-44.5 32t-37 40.5t-33.5 52t-30.5 58t-30.5 66.5l47 22l54 -92
q48 -81 88.5 -112t103.5 -31t104 31t89 112l53 92l47 -22q-18 -41 -30.5 -66.5t-30.5 -58t-33.5 -52t-37 -40.5t-44.5 -32t-52.5 -18.5t-64.5 -7.5z" />
    <glyph glyph-name="Uring" unicode="&#x16e;" 
d="M193 1430h73v-869q0 -152 14.5 -245.5t53.5 -157.5t106 -89.5t174 -25.5t174 25.5t106.5 89.5t54 157.5t14.5 245.5v869h73v-859q0 -171 -19 -280.5t-68 -182.5t-129 -103t-206 -30t-206 30t-128.5 103t-67.5 182t-19 281v859zM614 1565q-88 0 -142 54t-54 142
t54.5 143.5t141.5 55.5q88 0 142.5 -55.5t54.5 -143.5t-54.5 -142t-142.5 -54zM614 1616q63 0 100.5 36t37.5 97v27q0 60 -37.5 96.5t-100.5 36.5t-100 -36.5t-37 -96.5v-27q0 -61 37 -97t100 -36z" />
    <glyph glyph-name="uring" unicode="&#x16f;" 
d="M911 0v156h-6q-33 -78 -112 -129.5t-207 -51.5q-172 0 -265.5 102.5t-93.5 293.5v686h72v-674q0 -344 303 -344q129 0 219 68.5t90 193.5v756h72v-1057h-72zM606 1217q-88 0 -142 54t-54 142t54.5 143.5t141.5 55.5q88 0 142.5 -55.5t54.5 -143.5t-54.5 -142t-142.5 -54z
M606 1268q63 0 100 36t37 97v26q0 60 -37 97t-100 37t-100 -37t-37 -97v-26q0 -61 37 -97t100 -36z" />
    <glyph glyph-name="Uhungarumlaut" unicode="&#x170;" 
d="M193 1430h73v-869q0 -152 14.5 -245.5t53.5 -157.5t106 -89.5t174 -25.5t174 25.5t106.5 89.5t54 157.5t14.5 245.5v869h73v-859q0 -171 -19 -280.5t-68 -182.5t-129 -103t-206 -30t-206 30t-128.5 103t-67.5 182t-19 281v859zM686 1880l-231 -315l-47 26l215 324z
M1014 1880l-232 -315l-47 26l215 324z" />
    <glyph glyph-name="uhungarumlaut" unicode="&#x171;" 
d="M911 0v156h-6q-33 -78 -112 -129.5t-207 -51.5q-172 0 -265.5 102.5t-93.5 293.5v686h72v-674q0 -344 303 -344q129 0 219 68.5t90 193.5v756h72v-1057h-72zM678 1532l-232 -315l-47 26l215 324zM1006 1532l-232 -315l-47 26l215 324z" />
    <glyph glyph-name="Uogonek" unicode="&#x172;" 
d="M193 1430h73v-869q0 -152 14.5 -245.5t53.5 -157.5t106 -89.5t174 -25.5t174 25.5t106.5 89.5t54 157.5t14.5 245.5v869h73v-859q0 -225 -36 -349.5t-130 -192.5q-13 -9 -38 -27q-51 -36 -74.5 -53t-58.5 -44.5t-50 -43.5t-32 -38t-23 -42t-6 -43q0 -98 110 -98
q78 0 121 51l41 -37q-48 -70 -162 -70q-78 0 -127 38t-49 106q0 65 53 127.5t181 132.5l-2 4q-73 -17 -142 -17q-125 0 -205 30.5t-128 103.5t-67 182t-19 280v859z" />
    <glyph glyph-name="uogonek" unicode="&#x173;" 
d="M983 1057v-1057q-132 -85 -187 -141t-55 -121q0 -98 113 -98q81 0 119 51l43 -37q-48 -70 -164 -70q-78 0 -127 38t-49 108q0 143 235 272v154h-6q-33 -78 -112 -129.5t-207 -51.5q-172 0 -265.5 102.5t-93.5 293.5v686h72v-674q0 -344 303 -344q129 0 219 68.5t90 193.5
v756h72z" />
    <glyph glyph-name="Wcircumflex" unicode="&#x174;" 
d="M358 0h-118l-131 1430h67l125 -1354h10l260 932h88l261 -932h10l125 1354h65l-131 -1430h-119l-252 911h-8zM571 1896h86l254 -278l-43 -31l-254 256l-254 -256l-43 31z" />
    <glyph glyph-name="wcircumflex" unicode="&#x175;" 
d="M264 0l-190 1057h65l176 -994h9l245 994h93l245 -994h8l177 994h63l-190 -1057h-103l-241 985h-9l-245 -985h-103zM571 1548h86l254 -278l-43 -31l-254 256l-254 -256l-43 31z" />
    <glyph glyph-name="Ycircumflex" unicode="&#x176;" 
d="M651 0h-73v592l-527 838h86l475 -760h6l476 760h84l-527 -838v-592zM571 1896h86l254 -278l-43 -31l-254 256l-254 -256l-43 31z" />
    <glyph glyph-name="ycircumflex" unicode="&#x177;" 
d="M618 127l381 930h74l-577 -1395q-29 -72 -113 -72h-197v64h234l158 381l-422 1022h75l381 -930h6zM567 1548h86l254 -278l-43 -31l-254 256l-254 -256l-43 31z" />
    <glyph glyph-name="Ydieresis" unicode="&#x178;" 
d="M651 0h-73v592l-527 838h86l475 -760h6l476 760h84l-527 -838v-592zM428 1663q-74 0 -74 57v21q0 57 74 57q72 0 72 -57v-21q0 -57 -72 -57zM801 1663q-72 0 -72 57v21q0 57 72 57q73 0 73 -57v-21q0 -57 -73 -57z" />
    <glyph glyph-name="Zacute" unicode="&#x179;" 
d="M1130 68v-68h-1032v72l906 1290h-861v68h942v-72l-905 -1290h950zM821 1880l-231 -315l-49 26l215 324z" />
    <glyph glyph-name="zacute" unicode="&#x17a;" 
d="M1028 0h-827v70l729 923h-709v64h787v-70l-729 -924h749v-63zM821 1532l-231 -315l-49 26l215 324z" />
    <glyph glyph-name="Zdotaccent" unicode="&#x17b;" 
d="M1130 68v-68h-1032v72l906 1290h-861v68h942v-72l-905 -1290h950zM614 1659q-75 0 -75 59v23q0 59 75 59q76 0 76 -59v-23q0 -59 -76 -59z" />
    <glyph glyph-name="zdotaccent" unicode="&#x17c;" 
d="M1028 0h-827v70l729 923h-709v64h787v-70l-729 -924h749v-63zM614 1311q-75 0 -75 59v23q0 59 75 59q76 0 76 -59v-23q0 -59 -76 -59z" />
    <glyph glyph-name="Zcaron" unicode="&#x17d;" 
d="M1130 68v-68h-1032v72l906 1290h-861v68h942v-72l-905 -1290h950zM657 1597h-86l-254 277l43 33l254 -256l254 256l43 -33z" />
    <glyph glyph-name="zcaron" unicode="&#x17e;" 
d="M1028 0h-827v70l729 923h-709v64h787v-70l-729 -924h749v-63zM657 1249h-86l-254 277l45 33l252 -256l254 256l43 -33z" />
    <glyph glyph-name="uni018F" unicode="&#x18f;" 
d="M614 -25q-233 0 -353.5 177.5t-123.5 547.5v11h873v80q0 292 -101 443.5t-301 151.5q-286 0 -372 -313l-68 25q50 178 163 267t281 89q239 0 359.5 -180.5t120.5 -558.5q0 -740 -478 -740zM614 43q196 0 296 151t100 441v12h-793v-12q0 -289 100.5 -440.5t296.5 -151.5z
" />
    <glyph glyph-name="florin" unicode="&#x192;" 
d="M-61 -410l10 64h452l191 1143h-373l10 63h373l80 469q15 101 115 101h428l-11 -64h-452l-86 -506h387l-10 -63h-387l-185 -1106q-15 -101 -114 -101h-428z" />
    <glyph glyph-name="Ohorn" unicode="&#x1a0;" 
d="M1061 1657v-205q0 -76 -76 -76h-117q224 -154 224 -661q0 -740 -478 -740q-237 0 -357 181.5t-120 558.5t120 558t357 181q86 0 160 -24h221v227h66zM614 43q196 0 296 151t100 443v156q0 292 -100 442.5t-296 150.5t-295.5 -150t-99.5 -443v-156q0 -293 99.5 -443.5
t295.5 -150.5z" />
    <glyph glyph-name="ohorn" unicode="&#x1a1;" 
d="M977 1284h65v-203q0 -37 -17 -56t-58 -19h-103q193 -135 193 -478q0 -266 -117 -409.5t-326 -143.5t-325.5 143.5t-116.5 409.5t116.5 409.5t325.5 143.5q85 0 156 -24h207v227zM614 39q173 0 269 115t96 319v111q0 204 -96 319t-269 115t-268.5 -114.5t-95.5 -319.5
v-111q0 -205 95.5 -319.5t268.5 -114.5z" />
    <glyph glyph-name="Uhorn" unicode="&#x1af;" 
d="M193 1430h73v-869q0 -152 14.5 -245.5t53.5 -157.5t106 -89.5t174 -25.5t174 25.5t106.5 89.5t54 157.5t14.5 245.5v869h196v227h66v-205q0 -38 -17.5 -57t-58.5 -19h-113v-805q0 -171 -19 -280.5t-68 -182.5t-129 -103t-206 -30t-206 30t-128.5 103t-67.5 182t-19 281
v859z" />
    <glyph glyph-name="uhorn" unicode="&#x1b0;" 
d="M1174 1284v-205q0 -38 -18 -56.5t-58 -18.5h-115v-1004h-72v156h-6q-33 -78 -112 -129.5t-207 -51.5q-172 0 -265.5 102.5t-93.5 293.5v686h72v-674q0 -344 303 -344q129 0 219 68.5t90 193.5v756h197v227h66z" />
    <glyph glyph-name="Aringacute" unicode="&#x1fa;" 
d="M1133 0h-78l-152 463h-577l-152 -463h-78l469 1430h101zM885 528l-267 820h-10l-264 -820h541zM799 2216l-178 -207l-46 23l160 217zM614 1559q-88 0 -142 55t-54 143t54.5 143.5t141.5 55.5q88 0 142.5 -55.5t54.5 -143.5t-54.5 -143t-142.5 -55zM614 1612
q63 0 100.5 35.5t37.5 95.5v26q0 61 -37.5 97.5t-100.5 36.5t-100 -36t-37 -98v-26q0 -60 37 -95.5t100 -35.5z" />
    <glyph glyph-name="aringacute" unicode="&#x1fb;" 
d="M1098 0h-148q-87 0 -90 86v76h-8q-40 -85 -125 -136t-219 -51q-169 0 -261.5 78t-92.5 221q0 142 96 220.5t319 78.5h289v152q0 146 -77.5 219.5t-217.5 73.5q-113 0 -196 -47.5t-125 -143.5l-54 35q45 101 140.5 160t236.5 59q171 0 268 -92t97 -256v-670h168v-63z
M514 37q146 0 245 71t99 195v213h-287q-340 0 -340 -211v-61q0 -98 77 -152.5t206 -54.5zM750 1866l-177 -207l-45 27l162 217zM567 1210q-87 0 -141.5 55.5t-54.5 143.5t54.5 143.5t141.5 55.5q88 0 142.5 -55.5t54.5 -143.5t-54.5 -143.5t-142.5 -55.5zM567 1264
q63 0 100.5 35.5t37.5 95.5v26q0 61 -37.5 97t-100.5 36t-100 -36t-37 -97v-26q0 -60 37 -95.5t100 -35.5z" />
    <glyph glyph-name="AEacute" unicode="&#x1fc;" 
d="M662 0v463h-371l-141 -463h-80l448 1430h612v-66h-397v-606h369v-66h-369v-626h397v-66h-468zM662 1370h-91l-262 -844h353v844zM1012 1880l-232 -315l-49 26l215 324z" />
    <glyph glyph-name="aeacute" unicode="&#x1fd;" 
d="M313 -25q-123 0 -196.5 81.5t-73.5 222.5q0 152 93 223t276 71h157v162q0 150 -57 218.5t-156 68.5q-161 0 -243 -176l-52 28q38 90 112.5 148.5t184.5 58.5q211 0 258 -221h7q71 221 264 221q140 0 217.5 -111t77.5 -339v-113h-547v-39q0 -229 66 -335.5t176 -106.5
q166 0 233 223l57 -22q-36 -116 -109.5 -189.5t-185.5 -73.5q-98 0 -169.5 66t-102.5 197h-6q-20 -124 -94 -193.5t-187 -69.5zM322 35q115 0 181 82.5t66 214.5v186h-151q-156 0 -230.5 -52.5t-74.5 -170.5v-35q0 -101 56 -163t153 -62zM885 1024q-119 0 -184.5 -98.5
t-65.5 -300.5v-52h481v76q0 375 -231 375zM817 1532l-231 -315l-49 26l215 324z" />
    <glyph glyph-name="Oslashacute" unicode="&#x1fe;" 
d="M614 -25q-206 0 -321 136l-92 -158l-56 31l107 182q-115 183 -115 549q0 377 120 558t357 181q208 0 322 -135l92 158l55 -31l-106 -182q115 -183 115 -549q0 -740 -478 -740zM219 637q0 -257 78 -401l600 1017q-100 133 -283 133q-196 0 -295.5 -150t-99.5 -443v-156z
M614 43q196 0 296 151t100 443v156q0 257 -78 401l-600 -1018q100 -133 282 -133zM821 1880l-231 -315l-49 26l215 324z" />
    <glyph glyph-name="oslashacute" unicode="&#x1ff;" 
d="M172 -59l-45 32l141 174q-96 140 -96 381q0 266 116.5 409.5t325.5 143.5q197 0 312 -127l131 162l45 -33l-141 -174q96 -140 96 -381q0 -266 -117 -409.5t-326 -143.5q-196 0 -311 127zM614 1018q-173 0 -268.5 -114.5t-95.5 -319.5v-111q0 -161 63 -272l570 702
q-95 115 -269 115zM614 39q173 0 269 115t96 319v111q0 160 -64 272l-569 -702q95 -115 268 -115zM821 1532l-231 -315l-49 26l215 324z" />
    <glyph glyph-name="Scommaaccent" unicode="&#x218;" 
d="M621 -25q-178 0 -294.5 62t-201.5 176l57 45q83 -108 183.5 -162.5t255.5 -54.5q187 0 289 84.5t102 243.5q0 78 -24 135.5t-69.5 92.5t-99.5 55t-127 32l-164 27q-366 60 -366 374q0 182 120.5 275.5t331.5 93.5q312 0 453 -203l-55 -47q-65 93 -161 139t-241 46
q-177 0 -274.5 -76.5t-97.5 -225.5q0 -142 82 -212.5t233 -94.5l162 -26q372 -62 372 -383q0 -191 -124 -293.5t-342 -102.5zM492 -514l81 377h93l-117 -377h-57z" />
    <glyph glyph-name="scommaaccent" unicode="&#x219;" 
d="M645 -25q-299 0 -471 209l51 43q79 -98 181 -144t239 -46q160 0 253 63t93 185q0 54 -18 91.5t-55 61t-81.5 36.5t-109.5 22l-164 22q-62 9 -106 19.5t-90.5 31t-75.5 48.5t-47.5 72t-18.5 102q0 76 30 133t84 90.5t122.5 50t150.5 16.5q254 0 412 -166l-49 -49
q-61 70 -146 112t-219 42q-148 0 -230.5 -55.5t-82.5 -169.5q0 -101 65 -145.5t199 -63.5l166 -25q60 -8 104.5 -18.5t90.5 -31t75 -48t47.5 -72t18.5 -102.5q0 -154 -115 -234t-303 -80zM514 -514l82 377h92l-117 -377h-57z" />
    <glyph glyph-name="uni021A" unicode="&#x21a;" 
d="M1153 1362h-502v-1362h-73v1362h-502v68h1077v-68zM489 -514l82 377h93l-117 -377h-58z" />
    <glyph glyph-name="uni021B" unicode="&#x21b;" 
d="M1071 0h-498q-100 0 -100 102v891h-397v64h330q37 0 53 16t16 51v306h70v-373h526v-64h-526v-930h526v-63zM647 -514l82 377h92l-116 -377h-58z" />
    <glyph glyph-name="uni0237" unicode="&#x237;" 
d="M223 -410v64h582v1339h-610v64h682v-1364q0 -103 -101 -103h-553z" />
    <glyph glyph-name="uni0259" unicode="&#x259;" 
d="M174 535h803v53q0 199 -98.5 314.5t-276.5 115.5q-258 0 -350 -238l-57 31q47 126 152 198t255 72q214 0 333.5 -143.5t119.5 -409.5q0 -265 -118 -409t-325 -144q-209 0 -323.5 143.5t-114.5 387.5v29zM250 477v-10q0 -199 95.5 -314.5t266.5 -115.5t268 116.5t97 315.5
v8h-727z" />
    <glyph glyph-name="uni02BB" unicode="&#x2bb;" 
d="M567 1212l131 367h58l-99 -367h-90z" />
    <glyph glyph-name="uni02BC" unicode="&#x2bc;" 
d="M580 1516l-62 -367h-55l29 367h88z" />
    <glyph glyph-name="circumflex" unicode="&#x2c6;" 
d="M571 1548h86l254 -278l-43 -31l-254 256l-254 -256l-43 31z" />
    <glyph glyph-name="caron" unicode="&#x2c7;" 
d="M657 1249h-86l-254 277l45 33l252 -256l254 256l43 -33z" />
    <glyph glyph-name="breve" unicode="&#x2d8;" 
d="M614 1243q-48 0 -87 14.5t-65.5 34.5t-53.5 60.5t-43.5 73.5t-42.5 92l47 22l53 -92q48 -81 88.5 -112t103.5 -31t104 31t89 112l53 92l47 -22q-18 -41 -30.5 -66.5t-30.5 -58t-33.5 -52t-37 -40.5t-44.5 -32t-52.5 -18.5t-64.5 -7.5z" />
    <glyph glyph-name="dotaccent" unicode="&#x2d9;" 
d="M614 1311q-75 0 -75 59v23q0 59 75 59q76 0 76 -59v-23q0 -59 -76 -59z" />
    <glyph glyph-name="ring" unicode="&#x2da;" 
d="M614 1217q-88 0 -142 54t-54 142t54.5 143.5t141.5 55.5q88 0 142.5 -55.5t54.5 -143.5t-54.5 -142t-142.5 -54zM614 1268q63 0 100.5 36t37.5 97v26q0 60 -37.5 97t-100.5 37t-100 -37t-37 -97v-26q0 -61 37 -97t100 -36z" />
    <glyph glyph-name="ogonek" unicode="&#x2db;" 
d="M483 -416q-77 0 -126.5 38.5t-49.5 107.5q0 138 242 272l-8 23l61 10l12 -35q-131 -84 -186 -140.5t-55 -121.5q0 -98 112 -98q81 0 119 51l43 -37q-48 -70 -164 -70z" />
    <glyph glyph-name="tilde" unicode="&#x2dc;" 
d="M760 1294q-61 0 -158 60q-84 51 -137 51q-67 0 -131 -64l-35 37q75 88 170 88q63 0 158 -59q84 -51 137 -51q68 0 131 63l35 -37q-75 -88 -170 -88z" />
    <glyph glyph-name="hungarumlaut" unicode="&#x2dd;" 
d="M686 1532l-231 -315l-47 26l215 324zM1014 1532l-232 -315l-47 26l215 324z" />
    <glyph glyph-name="uni0300" unicode="&#x300;" horiz-adv-x="0" 
d="M23 1217l-232 315l66 35l215 -324z" />
    <glyph glyph-name="uni0301" unicode="&#x301;" horiz-adv-x="0" 
d="M207 1532l-232 -315l-49 26l215 324z" />
    <glyph glyph-name="uni0302" unicode="&#x302;" horiz-adv-x="0" 
d="M-43 1548h86l254 -278l-43 -31l-254 256l-254 -256l-43 31z" />
    <glyph glyph-name="uni0303" unicode="&#x303;" horiz-adv-x="0" 
d="M145 1294q-60 0 -157 60q-84 51 -138 51q-67 0 -131 -64l-34 37q75 88 170 88q62 0 157 -59q84 -51 138 -51q68 0 131 63l34 -37q-75 -88 -170 -88z" />
    <glyph glyph-name="uni0304" unicode="&#x304;" horiz-adv-x="0" 
d="M-270 1354v61h540v-61h-540z" />
    <glyph glyph-name="uni0306" unicode="&#x306;" horiz-adv-x="0" 
d="M0 1243q-35 0 -64.5 7.5t-52.5 18.5t-44.5 32t-37 40.5t-33.5 52t-30.5 58t-30.5 66.5l47 22l53 -92q48 -81 89 -112t104 -31t104 31t89 112l53 92l47 -22q-18 -41 -30.5 -66.5t-30.5 -58t-33.5 -52t-37 -40.5t-44.5 -32t-52.5 -18.5t-64.5 -7.5z" />
    <glyph glyph-name="uni0307" unicode="&#x307;" horiz-adv-x="0" 
d="M0 1311q-76 0 -76 59v23q0 59 76 59t76 -59v-23q0 -59 -76 -59z" />
    <glyph glyph-name="uni0308" unicode="&#x308;" horiz-adv-x="0" 
d="M-186 1315q-74 0 -74 57v21q0 57 74 57q71 0 71 -57v-21q0 -57 -71 -57zM186 1315q-71 0 -71 57v21q0 57 71 57q74 0 74 -57v-21q0 -57 -74 -57z" />
    <glyph glyph-name="uni0309" unicode="&#x309;" horiz-adv-x="0" 
d="M-156 1481v57h267q69 0 69 -55q0 -34 -71 -140l-89 -133l-47 23l148 248h-277z" />
    <glyph glyph-name="uni030A" unicode="&#x30a;" horiz-adv-x="0" 
d="M0 1217q-88 0 -142.5 54t-54.5 142t54.5 143.5t142.5 55.5t142.5 -55.5t54.5 -143.5t-54.5 -142t-142.5 -54zM0 1268q63 0 100 36t37 97v26q0 60 -37 97t-100 37t-100 -37t-37 -97v-26q0 -61 37 -97t100 -36z" />
    <glyph glyph-name="uni030B" unicode="&#x30b;" horiz-adv-x="0" 
d="M72 1532l-232 -315l-47 26l215 324zM399 1532l-231 -315l-47 26l215 324z" />
    <glyph glyph-name="uni030C" unicode="&#x30c;" horiz-adv-x="0" 
d="M43 1249h-86l-254 277l45 33l252 -256l254 256l43 -33z" />
    <glyph glyph-name="uni0312" unicode="&#x312;" horiz-adv-x="0" 
d="M-47 1212l131 367h57l-98 -367h-90z" />
    <glyph glyph-name="uni0315" unicode="&#x315;" horiz-adv-x="0" 
d="M117 1516l-62 -367h-55l29 367h88z" />
    <glyph glyph-name="uni031B" unicode="&#x31b;" horiz-adv-x="0" 
d="M115 1284v-205q0 -38 -18 -56.5t-58 -18.5h-154v53h164v227h66z" />
    <glyph glyph-name="uni0323" unicode="&#x323;" horiz-adv-x="0" 
d="M0 -297q-74 0 -74 57v21q0 57 74 57t74 -57v-21q0 -57 -74 -57z" />
    <glyph glyph-name="uni0326" unicode="&#x326;" horiz-adv-x="0" 
d="M-125 -514l82 377h92l-117 -377h-57z" />
    <glyph glyph-name="uni0327" unicode="&#x327;" horiz-adv-x="0" 
d="M20 -416q-60 0 -106 20t-68 50l39 41q47 -57 135 -57q54 0 85.5 25t31.5 71q0 84 -127 92l-71 6l41 182h53l-37 -157l4 -4q30 6 66 6q61 0 99 -33.5t38 -89.5q0 -66 -51 -109t-132 -43z" />
    <glyph glyph-name="uni0328" unicode="&#x328;" horiz-adv-x="0" 
d="M-131 -416q-77 0 -126.5 38.5t-49.5 107.5q0 138 241 272l-8 23l62 10l12 -35q-132 -85 -187 -141t-55 -121q0 -98 113 -98q81 0 119 51l43 -37q-48 -70 -164 -70z" />
    <glyph glyph-name="pi" unicode="&#x3c0;" 
d="M258 0v993h-223v64h1116v-64h-223v-930h223v-63h-195q-100 0 -100 102v891h-526v-993h-72z" />
    <glyph glyph-name="uni0400" unicode="&#x400;" 
d="M1055 0h-842v1430h842v-68h-768v-602h741v-68h-741v-624h768v-68zM653 1565l-231 315l65 35l215 -324z" />
    <glyph glyph-name="uni0401" unicode="&#x401;" 
d="M1055 0h-842v1430h842v-68h-768v-602h741v-68h-741v-624h768v-68zM444 1663q-73 0 -73 57v21q0 57 73 57q72 0 72 -57v-21q0 -57 -72 -57zM817 1663q-72 0 -72 57v21q0 57 72 57q74 0 74 -57v-21q0 -57 -74 -57z" />
    <glyph glyph-name="uni0402" unicode="&#x402;" 
d="M549 -293v68h469v700q0 169 -72 249.5t-219 80.5q-76 0 -150 -17t-118 -45v-743h-74v1362h-360v68h794v-68h-360v-547h6q109 57 264 57q184 0 273.5 -99.5t89.5 -297.5v-665q0 -48 -25.5 -75.5t-75.5 -27.5h-442z" />
    <glyph glyph-name="uni0403" unicode="&#x403;" 
d="M303 0v1430h764v-68h-690v-1362h-74zM891 1880l-232 -315l-49 26l215 324z" />
    <glyph glyph-name="uni0404" unicode="&#x404;" 
d="M809 692h-569v-55q0 -292 108 -443t318 -151q127 0 213 67.5t127 186.5l65 -27q-50 -136 -152.5 -215.5t-252.5 -79.5q-252 0 -380 181t-128 559t128 558.5t380 180.5q150 0 252.5 -79.5t152.5 -215.5l-65 -26q-41 119 -127 186t-213 67q-210 0 -318 -150.5t-108 -442.5
v-33h569v-68z" />
    <glyph glyph-name="uni0405" unicode="&#x405;" 
d="M621 -25q-178 0 -294.5 62t-201.5 176l57 45q83 -108 183.5 -162.5t255.5 -54.5q187 0 289 84.5t102 243.5q0 78 -24 135.5t-69.5 92.5t-99.5 55t-127 32l-164 27q-366 60 -366 374q0 182 120.5 275.5t331.5 93.5q312 0 453 -203l-55 -47q-65 93 -161 139t-241 46
q-177 0 -274.5 -76.5t-97.5 -225.5q0 -142 82 -212.5t233 -94.5l162 -26q372 -62 372 -383q0 -191 -124 -293.5t-342 -102.5z" />
    <glyph glyph-name="uni0406" unicode="&#x406;" 
d="M1044 0h-860v61h394v1307h-394v62h860v-62h-393v-1307h393v-61z" />
    <glyph glyph-name="uni0407" unicode="&#x407;" 
d="M1044 0h-860v61h394v1307h-394v62h860v-62h-393v-1307h393v-61zM428 1663q-74 0 -74 57v21q0 57 74 57q72 0 72 -57v-21q0 -57 -72 -57zM801 1663q-72 0 -72 57v21q0 57 72 57q73 0 73 -57v-21q0 -57 -73 -57z" />
    <glyph glyph-name="uni0408" unicode="&#x408;" 
d="M315 1430h639v-1047q0 -191 -106 -299.5t-283 -108.5q-151 0 -251 74.5t-128 206.5l72 16q26 -107 103 -168t206 -61q149 0 231.5 90.5t82.5 259.5v969h-566v68z" />
    <glyph glyph-name="uni0409" unicode="&#x409;" 
d="M684 0v1362h-299v-381q0 -730 -190 -930q-29 -29 -58.5 -40t-77.5 -11h-59v68h113q198 192 198 917v445h447v-639h104q177 0 272 -105t95 -291t-94.5 -290.5t-272.5 -104.5h-178zM758 68h104q139 0 213 79.5t72 202.5v90q0 123 -74 203t-211 80h-104v-655z" />
    <glyph glyph-name="uni040A" unicode="&#x40a;" 
d="M649 0v711h-452v-711h-74v1430h74v-652h452v652h74v-652h139q178 0 272.5 -102.5t94.5 -286.5t-94.5 -286.5t-272.5 -102.5h-213zM723 68h139q139 0 213 79.5t72 202.5v78q0 123 -74 203t-211 80h-139v-643z" />
    <glyph glyph-name="uni040B" unicode="&#x40b;" 
d="M385 0v1362h-360v68h794v-68h-360v-547h6q109 57 264 57q184 0 273.5 -99.5t89.5 -297.5v-475h-74v475q0 169 -72 249.5t-219 80.5q-76 0 -150 -17t-118 -45v-743h-74z" />
    <glyph glyph-name="uni040C" unicode="&#x40c;" 
d="M193 0v1430h73v-672h332l373 672h80l-338 -609q-23 -44 -41.5 -66.5t-46.5 -27.5v-6q28 -4 45 -26t43 -74l272 -553h145v-68h-131q-34 0 -55.5 15t-40.5 53l-307 624h-330v-692h-73zM807 1880l-232 -315l-49 26l215 324z" />
    <glyph glyph-name="uni040D" unicode="&#x40d;" 
d="M193 0v1430h73v-1106l-14 -215h6l92 188l615 1133h71v-1430h-73v1106l14 215h-6l-92 -188l-615 -1133h-71zM637 1565l-231 315l65 35l215 -324z" />
    <glyph glyph-name="uni040E" unicode="&#x40e;" 
d="M297 0v68h225l92 243l-495 1119h82l315 -725l131 -310h4l111 307l274 728h78l-514 -1354q-17 -43 -44 -59.5t-73 -16.5h-186zM614 1599q-85 0 -140.5 41.5t-102.5 133.5l-62 116l64 25l92 -191q53 -67 149 -67q97 0 150 67l92 191l64 -25l-62 -116q-47 -92 -103 -133.5
t-141 -41.5z" />
    <glyph glyph-name="uni040F" unicode="&#x40f;" 
d="M580 -307v307h-379v1430h73v-1362h680v1362h74v-1430h-379v-307h-69z" />
    <glyph glyph-name="uni0410" unicode="&#x410;" 
d="M1133 0h-78l-152 463h-577l-152 -463h-78l469 1430h101zM885 528l-267 820h-10l-264 -820h541z" />
    <glyph glyph-name="uni0411" unicode="&#x411;" 
d="M203 0v1430h755v-68h-682v-571h418q177 0 272 -105t95 -291t-94.5 -290.5t-272.5 -104.5h-491zM276 68h418q139 0 213 79.5t72 202.5v90q0 123 -74 203t-211 80h-418v-655z" />
    <glyph glyph-name="uni0412" unicode="&#x412;" 
d="M197 0v1430h460q166 0 258.5 -95t92.5 -270q0 -260 -205 -326v-4q129 -26 197.5 -116t68.5 -236q0 -173 -96 -278t-266 -105h-510zM270 68h424q143 0 219 76.5t76 193.5v86q0 117 -76.5 194.5t-218.5 77.5h-424v-628zM270 760h383q132 0 203.5 73.5t71.5 186.5v84
q0 113 -71 185.5t-204 72.5h-383v-602z" />
    <glyph glyph-name="uni0413" unicode="&#x413;" 
d="M303 0v1430h764v-68h-690v-1362h-74z" />
    <glyph glyph-name="uni0414" unicode="&#x414;" 
d="M33 -307v375h123q98 103 153.5 330.5t55.5 580.5v451h618v-1362h186v-375h-69v307h-998v-307h-69zM909 68v1294h-471v-387q0 -348 -51 -576.5t-141 -330.5h663z" />
    <glyph glyph-name="uni0415" unicode="&#x415;" 
d="M1055 0h-842v1430h842v-68h-768v-602h741v-68h-741v-624h768v-68z" />
    <glyph glyph-name="uni0416" unicode="&#x416;" 
d="M578 0v692h-220l-274 -692h-80l246 621q19 48 37.5 71t44.5 29v6q-49 13 -78 100l-211 603h76l235 -672h224v672h73v-672h223l236 672h76l-211 -603q-29 -87 -78 -100v-6q26 -6 44.5 -29t37.5 -71l246 -621h-80l-275 692h-219v-692h-73z" />
    <glyph glyph-name="uni0417" unicode="&#x417;" 
d="M598 -25q-151 0 -267.5 62t-187.5 178l58 41q132 -213 395 -213q168 0 267.5 85.5t99.5 227.5v54q0 135 -95.5 216t-261.5 81h-205v67h199q151 0 241.5 79t90.5 210v49q0 124 -88.5 199t-245.5 75q-246 0 -346 -178l-59 33q55 103 161.5 158t249.5 55q194 0 301 -97.5
t107 -266.5q0 -146 -76.5 -233.5t-206.5 -111.5v-6q149 -21 232 -111t83 -245q0 -187 -119 -297.5t-327 -110.5z" />
    <glyph glyph-name="uni0418" unicode="&#x418;" 
d="M193 0v1430h73v-1106l-14 -215h6l92 188l615 1133h71v-1430h-73v1106l14 215h-6l-92 -188l-615 -1133h-71z" />
    <glyph glyph-name="uni0419" unicode="&#x419;" 
d="M193 0v1430h73v-1106l-14 -215h6l92 188l615 1133h71v-1430h-73v1106l14 215h-6l-92 -188l-615 -1133h-71zM614 1599q-85 0 -140.5 41.5t-102.5 133.5l-62 116l64 25l92 -191q53 -67 149 -67q97 0 150 67l92 191l64 -25l-62 -116q-47 -92 -103 -133.5t-141 -41.5z" />
    <glyph glyph-name="uni041A" unicode="&#x41a;" 
d="M193 0v1430h73v-672h332l373 672h80l-338 -609q-23 -44 -41.5 -66.5t-46.5 -27.5v-6q28 -4 45 -26t43 -74l272 -553h145v-68h-131q-34 0 -55.5 15t-40.5 53l-307 624h-330v-692h-73z" />
    <glyph glyph-name="uni041B" unicode="&#x41b;" 
d="M950 0v1362h-528v-381q0 -728 -207 -932q-29 -29 -58 -39t-77 -10h-78v68h131q215 195 215 917v445h676v-1430h-74z" />
    <glyph glyph-name="uni041C" unicode="&#x41c;" 
d="M993 0v1319h-8l-371 -834l-370 834h-8v-1319h-70v1430h102l344 -779h9l342 779h100v-1430h-70z" />
    <glyph glyph-name="uni041D" unicode="&#x41d;" 
d="M963 0v692h-697v-692h-73v1430h73v-672h697v672h73v-1430h-73z" />
    <glyph glyph-name="uni041E" unicode="&#x41e;" 
d="M614 -25q-237 0 -357 181.5t-120 558.5t120 558t357 181t357.5 -181t120.5 -558q0 -740 -478 -740zM614 43q196 0 296 151t100 443v156q0 292 -100 442.5t-296 150.5t-295.5 -150t-99.5 -443v-156q0 -293 99.5 -443.5t295.5 -150.5z" />
    <glyph glyph-name="uni041F" unicode="&#x41f;" 
d="M201 0v1430h827v-1430h-74v1362h-680v-1362h-73z" />
    <glyph glyph-name="uni0420" unicode="&#x420;" 
d="M287 0h-74v1430h504q178 0 273 -104.5t95 -287.5t-95 -288t-273 -105h-430v-645zM287 1362v-649h430q140 0 214.5 79.5t74.5 200.5v90q0 120 -75 199.5t-214 79.5h-430z" />
    <glyph glyph-name="uni0421" unicode="&#x421;" 
d="M666 -25q-252 0 -380 181t-128 559t128 558.5t380 180.5q150 0 252.5 -79.5t152.5 -215.5l-65 -26q-41 119 -127 186t-213 67q-210 0 -318 -150.5t-108 -442.5v-156q0 -292 108 -443t318 -151q127 0 213 67.5t127 186.5l65 -27q-50 -136 -152.5 -215.5t-252.5 -79.5z" />
    <glyph glyph-name="uni0422" unicode="&#x422;" 
d="M1153 1362h-502v-1362h-73v1362h-502v68h1077v-68z" />
    <glyph glyph-name="uni0423" unicode="&#x423;" 
d="M297 0v68h225l92 243l-495 1119h82l315 -725l131 -310h4l111 307l274 728h78l-514 -1354q-17 -43 -44 -59.5t-73 -16.5h-186z" />
    <glyph glyph-name="uni0424" unicode="&#x424;" 
d="M578 -49v190q-133 3 -234 47t-163 122t-93 179.5t-31 225.5t31 225.5t93 179t163 121.5t234 47v189h73v-189q133 -3 233.5 -47t162.5 -121.5t93 -179t31 -225.5t-31 -225.5t-93 -179.5t-162.5 -122t-233.5 -47v-190h-73zM578 209v1012q-114 -1 -201.5 -40.5t-138 -104.5
t-76 -142.5t-25.5 -163.5v-111q0 -68 15.5 -131.5t49.5 -121.5t84.5 -101t125 -69t166.5 -27zM651 209q92 1 166.5 27t125 69t84.5 101t49.5 121.5t15.5 131.5v111q0 86 -25.5 163.5t-76 142.5t-138 104.5t-201.5 40.5v-1012z" />
    <glyph glyph-name="uni0425" unicode="&#x425;" 
d="M662 731l479 -731h-88l-435 668h-6l-438 -668h-84l481 725l-462 705h90l415 -639h7l417 639h84z" />
    <glyph glyph-name="uni0426" unicode="&#x426;" 
d="M1130 -307v307h-929v1430h73v-1362h670v1362h74v-1362h182v-375h-70z" />
    <glyph glyph-name="uni0427" unicode="&#x427;" 
d="M934 0v621h-4q-133 -68 -330 -68q-235 0 -346 115t-111 348v414h74v-414q0 -208 93.5 -301.5t295.5 -93.5q95 0 183.5 18t144.5 49v742h74v-1430h-74z" />
    <glyph glyph-name="uni0428" unicode="&#x428;" 
d="M125 0v1430h74v-1362h379v1362h73v-1362h379v1362h74v-1430h-979z" />
    <glyph glyph-name="uni0429" unicode="&#x429;" 
d="M1124 -307v307h-999v1430h74v-1362h350v1362h74v-1362h350v1362h74v-1362h147v-375h-70z" />
    <glyph glyph-name="uni042A" unicode="&#x42a;" 
d="M420 0v1362h-395v68h469v-639h317q177 0 272 -105t95 -291t-94.5 -290.5t-272.5 -104.5h-391zM494 68h317q137 0 211 79.5t74 202.5v90q0 123 -74 203t-211 80h-317v-655z" />
    <glyph glyph-name="uni042B" unicode="&#x42b;" 
d="M125 0v1430h74v-639h243q177 0 272 -105t95 -291t-94.5 -290.5t-272.5 -104.5h-317zM199 68h243q139 0 213 79.5t72 202.5v90q0 123 -74 203t-211 80h-243v-655zM1030 0v1430h74v-1430h-74z" />
    <glyph glyph-name="uni042C" unicode="&#x42c;" 
d="M223 0v1430h74v-639h418q177 0 271.5 -105t94.5 -291t-94.5 -290.5t-271.5 -104.5h-492zM297 68h418q139 0 212.5 79.5t71.5 202.5v90q0 123 -73.5 203t-210.5 80h-418v-655z" />
    <glyph glyph-name="uni042D" unicode="&#x42d;" 
d="M563 -25q-150 0 -252.5 79.5t-152.5 215.5l65 27q41 -119 127 -186.5t213 -67.5q210 0 318 151t108 443v55h-569v68h569v33q0 292 -108 442.5t-318 150.5q-127 0 -213 -67t-127 -186l-65 26q50 136 152.5 215.5t252.5 79.5q252 0 380 -180.5t128 -558.5t-128 -559
t-380 -181z" />
    <glyph glyph-name="uni042E" unicode="&#x42e;" 
d="M778 -25q-126 0 -200 66.5t-110.5 223t-37.5 427.5h-231v-692h-74v1430h74v-672h231q2 262 38.5 413.5t110.5 217t199 65.5q126 0 200.5 -68t111 -229.5t36.5 -441.5t-36.5 -442t-111 -230t-200.5 -68zM778 43q93 0 151.5 53.5t89 178.5t30.5 331v217q0 206 -30.5 331
t-89 178.5t-151.5 53.5t-151.5 -53.5t-88.5 -178.5t-30 -331v-217q0 -206 30 -331t88.5 -178.5t151.5 -53.5z" />
    <glyph glyph-name="uni042F" unicode="&#x42f;" 
d="M84 0v68h131l240 493q39 80 82 92v6q-179 7 -264 107.5t-85 273.5q0 181 95 285.5t272 104.5h469v-1430h-74v647h-368l-283 -581q-18 -38 -40 -52t-56 -14h-119zM950 713v649h-395q-139 0 -213 -80t-74 -203v-84q0 -123 74 -202.5t213 -79.5h395z" />
    <glyph glyph-name="uni0430" unicode="&#x430;" 
d="M1098 0h-148q-87 0 -90 86v76h-8q-40 -85 -125 -136t-219 -51q-169 0 -261.5 78t-92.5 221q0 142 96 220.5t319 78.5h289v152q0 146 -77.5 219.5t-217.5 73.5q-113 0 -196 -47.5t-125 -143.5l-54 35q45 101 140.5 160t236.5 59q171 0 268 -92t97 -256v-670h168v-63z
M514 37q146 0 245 71t99 195v213h-287q-340 0 -340 -211v-61q0 -98 77 -152.5t206 -54.5z" />
    <glyph glyph-name="uni0431" unicode="&#x431;" 
d="M614 -25q-209 0 -324.5 145.5t-115.5 422.5q0 182 12 320.5t40 245t69 179t102 120t136.5 71.5t175.5 30l286 19v-70l-288 -18q-100 -6 -172 -34t-122 -76.5t-83 -129.5t-51.5 -180.5t-30.5 -241.5l10 -2q88 281 363 281q206 0 321 -141.5t115 -399.5q0 -256 -117 -398.5
t-326 -142.5zM616 39q168 0 265.5 114.5t97.5 321.5v82q0 207 -97.5 321.5t-265.5 114.5t-265 -114.5t-97 -321.5v-82q0 -207 97 -321.5t265 -114.5z" />
    <glyph glyph-name="uni0432" unicode="&#x432;" 
d="M256 0v1057h475q129 0 205 -69t76 -195q0 -102 -51 -163.5t-140 -76.5v-6q106 -12 164.5 -78.5t58.5 -179.5q0 -137 -81.5 -213t-223.5 -76h-483zM328 63h401q112 0 175 53t63 146v53q0 93 -63 146t-175 53h-401v-451zM328 578h393q99 0 156 49.5t57 134.5v47
q0 85 -57 134.5t-156 49.5h-393v-415z" />
    <glyph glyph-name="uni0433" unicode="&#x433;" 
d="M293 0v1057h735v-64h-663v-993h-72z" />
    <glyph glyph-name="uni0434" unicode="&#x434;" 
d="M59 -287v350h121q166 189 166 662v332h608v-994h187v-350h-68v287h-946v-287h-68zM264 63h619v930h-465v-270q0 -459 -154 -660z" />
    <glyph glyph-name="uni0435" unicode="&#x435;" 
d="M629 -25q-214 0 -333.5 143.5t-119.5 409.5q0 265 117.5 409t324.5 144q209 0 324 -143.5t115 -386.5v-29h-803v-53q0 -199 98.5 -314.5t276.5 -115.5q258 0 350 237l57 -30q-47 -126 -152 -198.5t-255 -72.5zM618 1020q-171 0 -267.5 -116.5t-96.5 -315.5v-8h727v10
q0 199 -96 314.5t-267 115.5z" />
    <glyph glyph-name="uni0436" unicode="&#x436;" 
d="M578 0v520h-254l-168 -520h-76l147 459q26 81 76 90v6q-26 6 -40 25t-27 59l-140 418h72l158 -473h252v473h71v-473h252l158 473h71l-139 -418q-13 -40 -27 -59t-40 -25v-6q49 -8 75 -90l148 -459h-76l-168 520h-254v-520h-71z" />
    <glyph glyph-name="uni0437" unicode="&#x437;" 
d="M606 -25q-285 0 -418 183l54 43q116 -162 364 -162q153 0 242.5 60.5t89.5 162.5v37q0 100 -84 158.5t-229 58.5h-252v64h243q132 0 213.5 57t81.5 149v33q0 92 -79.5 145.5t-223.5 53.5q-235 0 -329 -144l-52 35q53 84 152 128t235 44q178 0 276.5 -73t98.5 -203
q0 -103 -63.5 -165t-175.5 -85v-4q126 -15 196 -84.5t70 -181.5q0 -143 -109.5 -226.5t-300.5 -83.5z" />
    <glyph glyph-name="uni0438" unicode="&#x438;" 
d="M231 0v1057h72v-772l-14 -191h6l96 156l539 807h67v-1057h-71v772l14 191h-6l-96 -156l-539 -807h-68z" />
    <glyph glyph-name="uni0439" unicode="&#x439;" 
d="M231 0v1057h72v-772l-14 -191h6l96 156l539 807h67v-1057h-71v772l14 191h-6l-96 -156l-539 -807h-68zM612 1235q-86 0 -141 41t-102 133l-62 117l64 24l92 -190q54 -68 149 -68q96 0 150 68l92 190l64 -24l-62 -117q-47 -92 -102.5 -133t-141.5 -41z" />
    <glyph glyph-name="uni043A" unicode="&#x43a;" 
d="M268 0v1057h72v-473h276l338 473h78l-307 -430q-28 -39 -43.5 -53.5t-38.5 -18.5v-6q25 -4 42 -19.5t40 -52.5l250 -414h112v-63h-102q-30 0 -49 13.5t-37 43.5l-278 463h-281v-520h-72z" />
    <glyph glyph-name="uni043B" unicode="&#x43b;" 
d="M49 0v63h119q164 175 164 670v324h629v-1057h-72v993h-486v-260q0 -275 -48.5 -450.5t-121.5 -245.5q-22 -20 -43 -28.5t-59 -8.5h-82z" />
    <glyph glyph-name="uni043C" unicode="&#x43c;" 
d="M166 0v1057h102l342 -680h11l342 680h100v-1057h-70v967h-8l-371 -740l-372 740h-6v-967h-70z" />
    <glyph glyph-name="uni043D" unicode="&#x43d;" 
d="M231 0v1057h72v-473h623v473h71v-1057h-71v520h-623v-520h-72z" />
    <glyph glyph-name="uni043E" unicode="&#x43e;" 
d="M614 -25q-209 0 -325.5 143.5t-116.5 409.5t116.5 409.5t325.5 143.5t326 -143.5t117 -409.5t-117 -409.5t-326 -143.5zM614 39q173 0 269 115t96 319v111q0 204 -96 319t-269 115t-268.5 -114.5t-95.5 -319.5v-111q0 -205 95.5 -319.5t268.5 -114.5z" />
    <glyph glyph-name="uni043F" unicode="&#x43f;" 
d="M238 0v1057h753v-1057h-71v993h-611v-993h-71z" />
    <glyph glyph-name="uni0440" unicode="&#x440;" 
d="M242 -410v1467h71v-162h6q40 81 124.5 133.5t205.5 52.5q202 0 314 -142.5t112 -410.5t-112 -410.5t-314 -142.5q-121 0 -205.5 53t-124.5 134h-6v-572h-71zM633 39q173 0 268.5 115t95.5 315v119q0 200 -95.5 315t-268.5 115q-131 0 -225.5 -74t-94.5 -190v-451
q0 -116 94.5 -190t225.5 -74z" />
    <glyph glyph-name="uni0441" unicode="&#x441;" 
d="M657 -25q-212 0 -328 143t-116 410t116.5 410t327.5 143q137 0 231 -63t134 -170l-61 -25q-35 94 -113.5 144.5t-190.5 50.5q-175 0 -270.5 -115.5t-95.5 -314.5v-119q0 -199 95.5 -314.5t270.5 -115.5q117 0 198.5 54t125.5 151l55 -33q-44 -104 -142 -170t-237 -66z
" />
    <glyph glyph-name="uni0442" unicode="&#x442;" 
d="M578 0v993h-420v64h911v-64h-420v-993h-71z" />
    <glyph glyph-name="uni0443" unicode="&#x443;" 
d="M618 127l381 930h74l-577 -1395q-29 -72 -113 -72h-197v64h234l158 381l-422 1022h75l381 -930h6z" />
    <glyph glyph-name="uni0444" unicode="&#x444;" 
d="M377 37q87 0 146 63t59 162v533q0 99 -59 162t-146 63q-203 0 -203 -410v-164q0 -409 203 -409zM582 -410v533h-7q-64 -148 -206 -148q-92 0 -149.5 50.5t-88.5 173.5t-31 329t31 329t88.5 173.5t149.5 50.5q143 0 206 -147h7v520h67v-520h6q63 147 207 147
q92 0 149.5 -50.5t88 -173.5t30.5 -329t-30.5 -329t-88 -173.5t-149.5 -50.5q-143 0 -207 148h-6v-533h-67zM854 37q203 0 203 409v164q0 410 -203 410q-87 0 -146 -63t-59 -162v-533q0 -99 59 -162t146 -63z" />
    <glyph glyph-name="uni0445" unicode="&#x445;" 
d="M252 0h-84l403 532l-395 525h86l352 -469h4l353 469h82l-396 -522l404 -535h-88l-359 479h-4z" />
    <glyph glyph-name="uni0446" unicode="&#x446;" 
d="M1083 -287v287h-872v1057h72v-994h610v994h72v-994h186v-350h-68z" />
    <glyph glyph-name="uni0447" unicode="&#x447;" 
d="M883 0v541h-6q-37 -70 -126 -110t-210 -40q-166 0 -253 77.5t-87 225.5v363h71v-357q0 -125 70 -185t211 -60q138 0 234 54t96 155v393h71v-1057h-71z" />
    <glyph glyph-name="uni0448" unicode="&#x448;" 
d="M141 0v1057h72v-994h367v994h71v-994h367v994h72v-1057h-949z" />
    <glyph glyph-name="uni0449" unicode="&#x449;" 
d="M1165 -287v287h-1024v1057h72v-994h367v994h71v-994h367v994h72v-994h143v-350h-68z" />
    <glyph glyph-name="uni044A" unicode="&#x44a;" 
d="M373 0v993h-361v64h432v-434h367q146 0 229.5 -80t83.5 -232t-83.5 -231.5t-229.5 -79.5h-438zM444 63h361q114 0 178 57.5t64 158.5v65q0 101 -64 158t-178 57h-361v-496z" />
    <glyph glyph-name="uni044B" unicode="&#x44b;" 
d="M141 0v1057h72v-434h274q146 0 230 -80t84 -232t-84 -231.5t-230 -79.5h-346zM213 63h268q114 0 178 57.5t64 158.5v65q0 101 -64 158t-178 57h-268v-496zM1018 0v1057h72v-1057h-72z" />
    <glyph glyph-name="uni044C" unicode="&#x44c;" 
d="M260 0v1057h72v-434h385q146 0 229.5 -80t83.5 -232t-83.5 -231.5t-229.5 -79.5h-457zM332 63h379q114 0 177.5 57.5t63.5 158.5v65q0 101 -63.5 158t-177.5 57h-379v-496z" />
    <glyph glyph-name="uni044D" unicode="&#x44d;" 
d="M385 518v62h553v8q0 199 -96 314.5t-271 115.5q-229 0 -309 -195l-59 25q40 106 134.5 169.5t233.5 63.5q212 0 328.5 -143t116.5 -410q0 -266 -117 -409.5t-328 -143.5q-139 0 -236.5 66t-141.5 170l57 33q43 -97 123.5 -151t197.5 -54q175 0 271 115.5t96 314.5v49
h-553z" />
    <glyph glyph-name="uni044E" unicode="&#x44e;" 
d="M782 -25q-170 0 -249 126t-80 415h-242v-516h-72v1057h72v-477h242q6 268 85 384.5t244 116.5q173 0 251.5 -128t78.5 -425t-78.5 -425t-251.5 -128zM782 37q129 0 193.5 101.5t64.5 316.5v147q0 215 -64.5 316.5t-193.5 101.5t-193.5 -101.5t-64.5 -316.5v-147
q0 -215 64.5 -316.5t193.5 -101.5z" />
    <glyph glyph-name="uni044F" unicode="&#x44f;" 
d="M156 0v63h112l172 330q31 55 68 66v6q-136 2 -213.5 74.5t-77.5 214.5q0 148 83.5 225.5t229.5 77.5h428v-1057h-71v453h-332l-205 -394q-30 -59 -90 -59h-104zM887 516v477h-350q-114 0 -178 -54.5t-64 -152.5v-63q0 -98 64 -152.5t178 -54.5h350z" />
    <glyph glyph-name="uni0450" unicode="&#x450;" 
d="M629 -25q-214 0 -333.5 143.5t-119.5 409.5q0 265 117.5 409t324.5 144q209 0 324 -143.5t115 -386.5v-29h-803v-53q0 -199 98.5 -314.5t276.5 -115.5q258 0 350 237l57 -30q-47 -126 -152 -198.5t-255 -72.5zM618 1020q-171 0 -267.5 -116.5t-96.5 -315.5v-8h727v10
q0 199 -96 314.5t-267 115.5zM641 1217l-231 315l65 35l215 -324z" />
    <glyph glyph-name="uni0451" unicode="&#x451;" 
d="M629 -25q-214 0 -333.5 143.5t-119.5 409.5q0 265 117.5 409t324.5 144q209 0 324 -143.5t115 -386.5v-29h-803v-53q0 -199 98.5 -314.5t276.5 -115.5q258 0 350 237l57 -30q-47 -126 -152 -198.5t-255 -72.5zM618 1020q-171 0 -267.5 -116.5t-96.5 -315.5v-8h727v10
q0 199 -96 314.5t-267 115.5zM432 1315q-74 0 -74 57v21q0 57 74 57q72 0 72 -57v-21q0 -57 -72 -57zM805 1315q-72 0 -72 57v21q0 57 72 57q74 0 74 -57v-21q0 -57 -74 -57z" />
    <glyph glyph-name="uni0452" unicode="&#x452;" 
d="M412 -410v64h518v1020q0 344 -303 344q-129 0 -219.5 -68.5t-90.5 -193.5v-756h-71v1288h-144v60h144v168h71v-168h332v-60h-332v-387h7q33 78 112 129t207 51q172 0 265 -102t93 -293v-993q0 -103 -100 -103h-489z" />
    <glyph glyph-name="uni0453" unicode="&#x453;" 
d="M293 0v1057h735v-64h-663v-993h-72zM866 1532l-231 -315l-49 26l215 324z" />
    <glyph glyph-name="uni0454" unicode="&#x454;" 
d="M657 -25q-212 0 -328 143t-116 410t116.5 410t327.5 143q137 0 231 -63t134 -170l-61 -25q-35 94 -113.5 144.5t-190.5 50.5q-175 0 -270.5 -115.5t-95.5 -314.5v-8h553v-62h-553v-49q0 -199 95.5 -314.5t270.5 -115.5q117 0 198.5 54t125.5 151l55 -33
q-44 -104 -142 -170t-237 -66z" />
    <glyph glyph-name="uni0455" unicode="&#x455;" 
d="M645 -25q-299 0 -471 209l51 43q79 -98 181 -144t239 -46q160 0 253 63t93 185q0 54 -18 91.5t-55 61t-81.5 36.5t-109.5 22l-164 22q-62 9 -106 19.5t-90.5 31t-75.5 48.5t-47.5 72t-18.5 102q0 76 30 133t84 90.5t122.5 50t150.5 16.5q254 0 412 -166l-49 -49
q-61 70 -146 112t-219 42q-148 0 -230.5 -55.5t-82.5 -169.5q0 -101 65 -145.5t199 -63.5l166 -25q60 -8 104.5 -18.5t90.5 -31t75 -48t47.5 -72t18.5 -102.5q0 -154 -115 -234t-303 -80z" />
    <glyph glyph-name="uni0456" unicode="&#x456;" 
d="M680 1386q-76 0 -76 62v18q0 62 76 62t76 -62v-18q0 -62 -76 -62zM233 0v63h412v930h-412v64h484v-994h385v-63h-869z" />
    <glyph glyph-name="uni0457" unicode="&#x457;" 
d="M233 0v63h412v930h-412v64h484v-994h385v-63h-869zM494 1315q-74 0 -74 57v21q0 57 74 57q71 0 71 -57v-21q0 -57 -71 -57zM866 1315q-71 0 -71 57v21q0 57 71 57q74 0 74 -57v-21q0 -57 -74 -57z" />
    <glyph glyph-name="uni0458" unicode="&#x458;" 
d="M223 -410v64h582v1339h-610v64h682v-1364q0 -103 -101 -103h-553zM842 1386q-76 0 -76 62v18q0 62 76 62t76 -62v-18q0 -62 -76 -62z" />
    <glyph glyph-name="uni0459" unicode="&#x459;" 
d="M0 0v61h113q155 169 155 678v318h461v-434h148q146 0 229.5 -80t83.5 -232t-83.5 -231.5t-229.5 -79.5h-220v993h-317v-256q0 -275 -44.5 -451t-119.5 -249q-37 -37 -98 -37h-78zM729 63h141q114 0 178 57.5t64 158.5v65q0 101 -64 158t-178 57h-141v-496z" />
    <glyph glyph-name="uni045A" unicode="&#x45a;" 
d="M137 0v1057h72v-455h448v455h72v-455h143q147 0 232.5 -77t85.5 -224t-85.5 -224t-232.5 -77h-215v539h-448v-539h-72zM729 63h141q114 0 178 57.5t64 158.5v45q0 100 -64 157.5t-178 57.5h-141v-476z" />
    <glyph glyph-name="uni045B" unicode="&#x45b;" 
d="M317 0h-71v1288h-144v60h144v168h71v-168h332v-60h-332v-387h7q33 78 112 129t207 51q172 0 265 -102t93 -293v-686h-71v674q0 344 -303 344q-129 0 -219.5 -68.5t-90.5 -193.5v-756z" />
    <glyph glyph-name="uni045C" unicode="&#x45c;" 
d="M268 0v1057h72v-473h276l338 473h78l-307 -430q-28 -39 -43.5 -53.5t-38.5 -18.5v-6q25 -4 42 -19.5t40 -52.5l250 -414h112v-63h-102q-30 0 -49 13.5t-37 43.5l-278 463h-281v-520h-72zM819 1532l-231 -315l-49 26l215 324z" />
    <glyph glyph-name="uni045D" unicode="&#x45d;" 
d="M231 0v1057h72v-772l-14 -191h6l96 156l539 807h67v-1057h-71v772l14 191h-6l-96 -156l-539 -807h-68zM635 1217l-232 315l66 35l215 -324z" />
    <glyph glyph-name="uni045E" unicode="&#x45e;" 
d="M618 127l381 930h74l-577 -1395q-29 -72 -113 -72h-197v64h234l158 381l-422 1022h75l381 -930h6zM610 1235q-86 0 -141 41t-102 133l-62 117l64 24l92 -190q54 -68 149 -68q96 0 150 68l92 190l63 -24l-61 -117q-47 -92 -102.5 -133t-141.5 -41z" />
    <glyph glyph-name="uni045F" unicode="&#x45f;" 
d="M238 0v1057h71v-994h611v994h71v-1057h-344v-287h-67v287h-342z" />
    <glyph glyph-name="uni0472" unicode="&#x472;" 
d="M614 -25q-237 0 -357 181.5t-120 558.5t120 558t357 181t357.5 -181t120.5 -558q0 -740 -478 -740zM614 43q196 0 296 151t100 443v55h-791v-55q0 -293 99.5 -443.5t295.5 -150.5zM219 793v-35h791v35q0 292 -100 442.5t-296 150.5t-295.5 -150t-99.5 -443z" />
    <glyph glyph-name="uni0473" unicode="&#x473;" 
d="M614 -25q-209 0 -325.5 143.5t-116.5 409.5t116.5 409.5t325.5 143.5t326 -143.5t117 -409.5t-117 -409.5t-326 -143.5zM614 39q173 0 269 115t96 319v31h-729v-31q0 -205 95.5 -319.5t268.5 -114.5zM250 584v-17h729v17q0 204 -96 319t-269 115t-268.5 -114.5
t-95.5 -319.5z" />
    <glyph glyph-name="uni0490" unicode="&#x490;" 
d="M303 0v1430h694v307h70v-375h-690v-1362h-74z" />
    <glyph glyph-name="uni0491" unicode="&#x491;" 
d="M293 0v1057h668v286h67v-350h-663v-993h-72z" />
    <glyph glyph-name="uni0492" unicode="&#x492;" 
d="M123 827h221v603h764v-68h-690v-535h444v-63h-444v-764h-74v764h-221v63z" />
    <glyph glyph-name="uni0493" unicode="&#x493;" 
d="M324 0v516h-254v59h254v482h735v-64h-664v-418h455v-59h-455v-516h-71z" />
    <glyph glyph-name="uni0494" unicode="&#x494;" 
d="M453 -293v68h405q77 37 115.5 114t38.5 232v246q0 208 -93.5 301.5t-295.5 93.5q-95 0 -184.5 -18.5t-145.5 -49.5v-694h-74v1430h764v-68h-690v-602h4q122 69 332 69q237 0 346.5 -114t109.5 -348v-252q0 -206 -72 -307t-220 -101h-340z" />
    <glyph glyph-name="uni0495" unicode="&#x495;" 
d="M678 -410v64h145q73 35 110.5 111t37.5 221v198q0 178 -69.5 250t-217.5 72q-141 0 -233.5 -53.5t-92.5 -155.5v-297h-71v1057h579v-64h-508v-573h7q37 70 121 110.5t210 40.5q174 0 260 -89.5t86 -291.5v-215q0 -385 -282 -385h-82z" />
    <glyph glyph-name="uni0496" unicode="&#x496;" 
d="M1188 -307v307h-105l-274 692h-188v-692h-74v692h-189l-274 -692h-80l246 621q19 48 37.5 71t44.5 29v6q-49 13 -78 100l-211 603h76l235 -672h193v672h74v-672h192l236 672h75l-211 -603q-16 -46 -33 -69.5t-44 -30.5v-6q26 -6 44.5 -29t37.5 -71l219 -553h120v-375h-69
z" />
    <glyph glyph-name="uni0497" unicode="&#x497;" 
d="M1153 -287v287h-82l-168 522h-258v-522h-67v522h-259l-167 -522h-74l147 459q26 81 76 90v6q-26 6 -40.5 25t-27.5 59l-139 418h70l158 -475h256v475h67v-475h256l158 475h69l-139 -418q-13 -40 -27 -59t-40 -25v-6q49 -8 75 -90l127 -396h97v-350h-68z" />
    <glyph glyph-name="uni0498" unicode="&#x498;" 
d="M555 -307v284q-136 7 -241.5 68.5t-170.5 169.5l58 41q132 -213 395 -213q168 0 267.5 85.5t99.5 227.5v54q0 135 -95.5 216t-261.5 81h-205v67h199q151 0 241.5 79t90.5 210v49q0 124 -88.5 199t-245.5 75q-246 0 -346 -178l-59 33q55 103 161.5 158t249.5 55
q194 0 301 -97.5t107 -266.5q0 -146 -76.5 -233.5t-206.5 -111.5v-6q149 -21 232 -111t83 -245q0 -181 -110.5 -290t-304.5 -116v-284h-74z" />
    <glyph glyph-name="uni0499" unicode="&#x499;" 
d="M573 -287v262q-263 12 -385 183l54 43q116 -162 364 -162q153 0 242.5 60.5t89.5 162.5v37q0 100 -84 158.5t-229 58.5h-252v64h243q132 0 213.5 57t81.5 149v33q0 92 -79.5 145.5t-223.5 53.5q-235 0 -329 -144l-52 35q53 84 152 128t235 44q178 0 276.5 -73t98.5 -203
q0 -103 -63.5 -165t-175.5 -85v-4q126 -15 196 -84.5t70 -181.5q0 -137 -99 -219t-276 -89v-264h-68z" />
    <glyph glyph-name="uni049A" unicode="&#x49a;" 
d="M1065 -307v307h-70q-34 0 -55.5 15t-40.5 53l-307 624h-330v-692h-74v1430h74v-672h332l373 672h80l-338 -609q-23 -44 -41.5 -66.5t-46.5 -27.5v-6q28 -4 45 -26t43 -74l272 -553h154v-375h-70z" />
    <glyph glyph-name="uni049B" unicode="&#x49b;" 
d="M1016 -287v287h-35q-30 0 -49 13.5t-37 43.5l-279 463h-280v-520h-72v1057h72v-473h276l338 473h78l-307 -430q-28 -39 -43.5 -53.5t-38.5 -18.5v-6q25 -4 42 -19.5t40 -52.5l250 -414h112v-350h-67z" />
    <glyph glyph-name="uni049C" unicode="&#x49c;" 
d="M428 350v342h-172v-692h-74v1430h74v-672h172v342h68v-342h112l373 672h80l-338 -609q-23 -44 -41.5 -66.5t-46.5 -27.5v-6q28 -4 45 -26t43 -74l272 -553h146v-68h-131q-34 0 -56.5 15t-40.5 53l-307 624h-110v-342h-68z" />
    <glyph glyph-name="uni049D" unicode="&#x49d;" 
d="M473 258v262h-143v-520h-72v1057h72v-473h143v245h64v-245h90l338 473h77l-307 -430q-28 -39 -43.5 -53.5t-38.5 -18.5v-6q25 -4 42 -19.5t40 -52.5l250 -414h113v-63h-103q-30 0 -49 13.5t-37 43.5l-278 463h-94v-262h-64z" />
    <glyph glyph-name="uni04A0" unicode="&#x4a0;" 
d="M377 0v1362h-377v68h451v-672h245l373 672h80l-338 -609q-23 -44 -41.5 -66.5t-46.5 -27.5v-6q28 -4 45 -26t43 -74l272 -553h146v-68h-131q-34 0 -56.5 15t-40.5 53l-307 624h-243v-692h-74z" />
    <glyph glyph-name="uni04A1" unicode="&#x4a1;" 
d="M385 0v993h-358v64h430v-473h221l338 473h78l-308 -430q-20 -28 -29 -39t-22.5 -20.5t-29.5 -12.5v-6q25 -4 41.5 -19.5t39.5 -52.5l250 -414h113v-63h-102q-30 0 -49 13.5t-37 43.5l-279 463h-225v-520h-72z" />
    <glyph glyph-name="uni04A2" unicode="&#x4a2;" 
d="M1130 -307v307h-186v692h-670v-692h-73v1430h73v-670h670v670h74v-1362h182v-375h-70z" />
    <glyph glyph-name="uni04A3" unicode="&#x4a3;" 
d="M211 0v1057h72v-473h608v473h72v-994h186v-350h-68v287h-190v520h-608v-520h-72z" />
    <glyph glyph-name="uni04A4" unicode="&#x4a4;" 
d="M127 0v1430h74v-670h499v670h504v-68h-430v-1362h-74v692h-499v-692h-74z" />
    <glyph glyph-name="uni04A5" unicode="&#x4a5;" 
d="M141 0v1057h72v-473h504v473h461v-64h-390v-993h-71v520h-504v-520h-72z" />
    <glyph glyph-name="uni04AA" unicode="&#x4aa;" 
d="M631 -307v284q-473 22 -473 738q0 378 128 558.5t380 180.5q150 0 252.5 -79.5t152.5 -215.5l-65 -26q-41 119 -127 186t-213 67q-210 0 -318 -150.5t-108 -442.5v-156q0 -292 108 -443t318 -151q127 0 213 67.5t127 186.5l65 -27q-46 -127 -140.5 -205.5t-230.5 -87.5
v-284h-69z" />
    <glyph glyph-name="uni04AB" unicode="&#x4ab;" 
d="M614 -287v264q-192 14 -296.5 156t-104.5 395q0 267 116.5 410t327.5 143q137 0 231 -63t134 -170l-61 -25q-35 94 -113.5 144.5t-190.5 50.5q-175 0 -270.5 -115.5t-95.5 -314.5v-119q0 -199 95.5 -314.5t270.5 -115.5q117 0 198.5 54t125.5 151l55 -33
q-42 -99 -133.5 -163.5t-220.5 -70.5v-264h-68z" />
    <glyph glyph-name="uni04AE" unicode="&#x4ae;" 
d="M651 0h-73v592l-527 838h86l475 -760h6l476 760h84l-527 -838v-592z" />
    <glyph glyph-name="uni04AF" unicode="&#x4af;" 
d="M580 -410v410l-404 1057h74l362 -967h6l363 967h72l-402 -1057v-410h-71z" />
    <glyph glyph-name="uni04B0" unicode="&#x4b0;" 
d="M244 592h334l-527 838h86l475 -760h6l476 760h84l-527 -838h334v-62h-334v-530h-73v530h-334v62z" />
    <glyph glyph-name="uni04B1" unicode="&#x4b1;" 
d="M580 -410v351h-283v59h283l-404 1057h74l362 -967h6l363 967h72l-402 -1057h281v-59h-281v-351h-71z" />
    <glyph glyph-name="uni04B2" unicode="&#x4b2;" 
d="M1159 -307v307h-123l-434 668h-6l-438 -668h-84l481 725l-463 705h90l416 -639h6l418 639h84l-461 -699l434 -663h150v-375h-70z" />
    <glyph glyph-name="uni04B3" unicode="&#x4b3;" 
d="M1120 -287v287h-147l-359 479h-4l-358 -479h-84l403 532l-395 525h86l352 -469h4l353 469h82l-396 -522l357 -472h174v-350h-68z" />
    <glyph glyph-name="uni04B6" unicode="&#x4b6;" 
d="M1116 -307v307h-186v621h-4q-133 -68 -330 -68q-235 0 -346 115t-111 348v414h74v-414q0 -208 93.5 -301.5t295.5 -93.5q95 0 183.5 18t144.5 49v742h74v-1362h182v-375h-70z" />
    <glyph glyph-name="uni04B7" unicode="&#x4b7;" 
d="M1075 -287v287h-194v541h-7q-37 -70 -125.5 -110t-209.5 -40q-166 0 -253 77.5t-87 225.5v363h71v-357q0 -125 70 -185t211 -60q138 0 234 54t96 155v393h71v-994h191v-350h-68z" />
    <glyph glyph-name="uni04B8" unicode="&#x4b8;" 
d="M551 248v305q-210 12 -309 127t-99 336v414h74v-414q0 -194 80.5 -288t253.5 -105v374h67v-376q204 3 316 67v742h74v-1430h-74v621h-4q-130 -65 -312 -68v-305h-67z" />
    <glyph glyph-name="uni04B9" unicode="&#x4b9;" 
d="M883 0v541h-6q-32 -60 -103.5 -98.5t-167.5 -47.5v-188h-63v184q-167 0 -254.5 77.5t-87.5 225.5v363h71v-357q0 -124 67.5 -183.5t203.5 -61.5v323h63v-321q119 10 198 63t79 144v393h71v-1057h-71z" />
    <glyph glyph-name="uni04BA" unicode="&#x4ba;" 
d="M221 0v1430h74v-621h4q133 68 330 68q235 0 345.5 -115t110.5 -348v-414h-73v414q0 208 -93.5 301.5t-295.5 93.5q-95 0 -183.5 -18.5t-144.5 -49.5v-741h-74z" />
    <glyph glyph-name="uni04BB" unicode="&#x4bb;" 
d="M246 0v1516h71v-615h7q33 78 112 129t207 51q172 0 265 -102t93 -293v-686h-71v674q0 344 -303 344q-129 0 -219.5 -68.5t-90.5 -193.5v-756h-71z" />
    <glyph glyph-name="uni04C0" unicode="&#x4c0;" 
d="M1044 0h-860v61h394v1307h-394v62h860v-62h-393v-1307h393v-61z" />
    <glyph glyph-name="uni04C1" unicode="&#x4c1;" 
d="M578 0v692h-220l-274 -692h-80l246 621q19 48 37.5 71t44.5 29v6q-49 13 -78 100l-211 603h76l235 -672h224v672h73v-672h223l236 672h76l-211 -603q-29 -87 -78 -100v-6q26 -6 44.5 -29t37.5 -71l246 -621h-80l-275 692h-219v-692h-73zM614 1599q-85 0 -140.5 41.5
t-102.5 133.5l-62 116l64 25l92 -191q53 -67 149 -67q97 0 150 67l92 191l64 -25l-62 -116q-47 -92 -103 -133.5t-141 -41.5z" />
    <glyph glyph-name="uni04C2" unicode="&#x4c2;" 
d="M578 0v520h-254l-168 -520h-76l147 459q26 81 76 90v6q-26 6 -40 25t-27 59l-140 418h72l158 -473h252v473h71v-473h252l158 473h71l-139 -418q-13 -40 -27 -59t-40 -25v-6q49 -8 75 -90l148 -459h-76l-168 520h-254v-520h-71zM614 1235q-86 0 -141 41t-102 133l-62 117
l64 24l92 -190q54 -68 149 -68q96 0 150 68l92 190l64 -24l-62 -117q-47 -92 -102.5 -133t-141.5 -41z" />
    <glyph glyph-name="uni04CF" unicode="&#x4cf;" 
d="M180 0v63h400v1389h-400v64h871v-64h-400v-1389h400v-63h-871z" />
    <glyph glyph-name="uni04D0" unicode="&#x4d0;" 
d="M1133 0h-78l-152 463h-577l-152 -463h-78l469 1430h101zM885 528l-267 820h-10l-264 -820h541zM614 1599q-85 0 -140.5 41.5t-102.5 133.5l-62 116l64 25l92 -191q53 -67 149 -67q97 0 150 67l92 191l64 -25l-62 -116q-47 -92 -103 -133.5t-141 -41.5z" />
    <glyph glyph-name="uni04D1" unicode="&#x4d1;" 
d="M1098 0h-148q-87 0 -90 86v76h-8q-40 -85 -125 -136t-219 -51q-169 0 -261.5 78t-92.5 221q0 142 96 220.5t319 78.5h289v152q0 146 -77.5 219.5t-217.5 73.5q-113 0 -196 -47.5t-125 -143.5l-54 35q45 101 140.5 160t236.5 59q171 0 268 -92t97 -256v-670h168v-63z
M514 37q146 0 245 71t99 195v213h-287q-340 0 -340 -211v-61q0 -98 77 -152.5t206 -54.5zM567 1235q-86 0 -141 41t-102 133l-62 117l64 24l92 -190q54 -68 149 -68q96 0 150 68l92 190l63 -24l-61 -117q-47 -92 -102.5 -133t-141.5 -41z" />
    <glyph glyph-name="uni04D2" unicode="&#x4d2;" 
d="M1133 0h-78l-152 463h-577l-152 -463h-78l469 1430h101zM885 528l-267 820h-10l-264 -820h541zM428 1663q-74 0 -74 57v21q0 57 74 57q72 0 72 -57v-21q0 -57 -72 -57zM801 1663q-72 0 -72 57v21q0 57 72 57q73 0 73 -57v-21q0 -57 -73 -57z" />
    <glyph glyph-name="uni04D3" unicode="&#x4d3;" 
d="M1098 0h-148q-87 0 -90 86v76h-8q-40 -85 -125 -136t-219 -51q-169 0 -261.5 78t-92.5 221q0 142 96 220.5t319 78.5h289v152q0 146 -77.5 219.5t-217.5 73.5q-113 0 -196 -47.5t-125 -143.5l-54 35q45 101 140.5 160t236.5 59q171 0 268 -92t97 -256v-670h168v-63z
M514 37q146 0 245 71t99 195v213h-287q-340 0 -340 -211v-61q0 -98 77 -152.5t206 -54.5zM381 1315q-74 0 -74 57v21q0 57 74 57q72 0 72 -57v-21q0 -57 -72 -57zM754 1315q-72 0 -72 57v21q0 57 72 57q73 0 73 -57v-21q0 -57 -73 -57z" />
    <glyph glyph-name="uni04D4" unicode="&#x4d4;" 
d="M662 0v463h-371l-141 -463h-80l448 1430h612v-66h-397v-606h369v-66h-369v-626h397v-66h-468zM662 1370h-91l-262 -844h353v844z" />
    <glyph glyph-name="uni04D5" unicode="&#x4d5;" 
d="M313 -25q-123 0 -196.5 81.5t-73.5 222.5q0 152 93 223t276 71h157v162q0 150 -57 218.5t-156 68.5q-161 0 -243 -176l-52 28q38 90 112.5 148.5t184.5 58.5q211 0 258 -221h7q71 221 264 221q140 0 217.5 -111t77.5 -339v-113h-547v-39q0 -229 66 -335.5t176 -106.5
q166 0 233 223l57 -22q-36 -116 -109.5 -189.5t-185.5 -73.5q-98 0 -169.5 66t-102.5 197h-6q-20 -124 -94 -193.5t-187 -69.5zM322 35q115 0 181 82.5t66 214.5v186h-151q-156 0 -230.5 -52.5t-74.5 -170.5v-35q0 -101 56 -163t153 -62zM885 1024q-119 0 -184.5 -98.5
t-65.5 -300.5v-52h481v76q0 375 -231 375z" />
    <glyph glyph-name="uni04D6" unicode="&#x4d6;" 
d="M1055 0h-842v1430h842v-68h-768v-602h741v-68h-741v-624h768v-68zM631 1599q-85 0 -141 41.5t-103 133.5l-61 116l63 25l92 -191q53 -67 150 -67q96 0 149 67l92 191l64 -25l-62 -116q-47 -92 -102.5 -133.5t-140.5 -41.5z" />
    <glyph glyph-name="uni04D7" unicode="&#x4d7;" 
d="M629 -25q-214 0 -333.5 143.5t-119.5 409.5q0 265 117.5 409t324.5 144q209 0 324 -143.5t115 -386.5v-29h-803v-53q0 -199 98.5 -314.5t276.5 -115.5q258 0 350 237l57 -30q-47 -126 -152 -198.5t-255 -72.5zM618 1020q-171 0 -267.5 -116.5t-96.5 -315.5v-8h727v10
q0 199 -96 314.5t-267 115.5zM618 1235q-86 0 -141 41t-102 133l-62 117l64 24l92 -190q54 -68 149 -68q96 0 150 68l92 190l64 -24l-62 -117q-47 -92 -102.5 -133t-141.5 -41z" />
    <glyph glyph-name="uni04D8" unicode="&#x4d8;" 
d="M614 -25q-233 0 -353.5 177.5t-123.5 547.5v11h873v80q0 292 -101 443.5t-301 151.5q-286 0 -372 -313l-68 25q50 178 163 267t281 89q239 0 359.5 -180.5t120.5 -558.5q0 -740 -478 -740zM614 43q196 0 296 151t100 441v12h-793v-12q0 -289 100.5 -440.5t296.5 -151.5z
" />
    <glyph glyph-name="uni04D9" unicode="&#x4d9;" 
d="M174 535h803v53q0 199 -98.5 314.5t-276.5 115.5q-258 0 -350 -238l-57 31q47 126 152 198t255 72q214 0 333.5 -143.5t119.5 -409.5q0 -265 -118 -409t-325 -144q-209 0 -323.5 143.5t-114.5 387.5v29zM250 477v-10q0 -199 95.5 -314.5t266.5 -115.5t268 116.5t97 315.5
v8h-727z" />
    <glyph glyph-name="uni04DC" unicode="&#x4dc;" 
d="M578 0v692h-220l-274 -692h-80l246 621q19 48 37.5 71t44.5 29v6q-49 13 -78 100l-211 603h76l235 -672h224v672h73v-672h223l236 672h76l-211 -603q-29 -87 -78 -100v-6q26 -6 44.5 -29t37.5 -71l246 -621h-80l-275 692h-219v-692h-73zM428 1663q-74 0 -74 57v21
q0 57 74 57q72 0 72 -57v-21q0 -57 -72 -57zM801 1663q-72 0 -72 57v21q0 57 72 57q73 0 73 -57v-21q0 -57 -73 -57z" />
    <glyph glyph-name="uni04DD" unicode="&#x4dd;" 
d="M578 0v520h-254l-168 -520h-76l147 459q26 81 76 90v6q-26 6 -40 25t-27 59l-140 418h72l158 -473h252v473h71v-473h252l158 473h71l-139 -418q-13 -40 -27 -59t-40 -25v-6q49 -8 75 -90l148 -459h-76l-168 520h-254v-520h-71zM428 1315q-74 0 -74 57v21q0 57 74 57
q72 0 72 -57v-21q0 -57 -72 -57zM801 1315q-72 0 -72 57v21q0 57 72 57q73 0 73 -57v-21q0 -57 -73 -57z" />
    <glyph glyph-name="uni04DE" unicode="&#x4de;" 
d="M598 -25q-151 0 -267.5 62t-187.5 178l58 41q132 -213 395 -213q168 0 267.5 85.5t99.5 227.5v54q0 135 -95.5 216t-261.5 81h-205v67h199q151 0 241.5 79t90.5 210v49q0 124 -88.5 199t-245.5 75q-246 0 -346 -178l-59 33q55 103 161.5 158t249.5 55q194 0 301 -97.5
t107 -266.5q0 -146 -76.5 -233.5t-206.5 -111.5v-6q149 -21 232 -111t83 -245q0 -187 -119 -297.5t-327 -110.5zM420 1663q-74 0 -74 57v21q0 57 74 57q72 0 72 -57v-21q0 -57 -72 -57zM793 1663q-72 0 -72 57v21q0 57 72 57q73 0 73 -57v-21q0 -57 -73 -57z" />
    <glyph glyph-name="uni04DF" unicode="&#x4df;" 
d="M606 -25q-285 0 -418 183l54 43q116 -162 364 -162q153 0 242.5 60.5t89.5 162.5v37q0 100 -84 158.5t-229 58.5h-252v64h243q132 0 213.5 57t81.5 149v33q0 92 -79.5 145.5t-223.5 53.5q-235 0 -329 -144l-52 35q53 84 152 128t235 44q178 0 276.5 -73t98.5 -203
q0 -103 -63.5 -165t-175.5 -85v-4q126 -15 196 -84.5t70 -181.5q0 -143 -109.5 -226.5t-300.5 -83.5zM420 1315q-74 0 -74 57v21q0 57 74 57q72 0 72 -57v-21q0 -57 -72 -57zM793 1315q-72 0 -72 57v21q0 57 72 57q73 0 73 -57v-21q0 -57 -73 -57z" />
    <glyph glyph-name="uni04E2" unicode="&#x4e2;" 
d="M193 0v1430h73v-1106l-14 -215h6l92 188l615 1133h71v-1430h-73v1106l14 215h-6l-92 -188l-615 -1133h-71zM344 1702v61h541v-61h-541z" />
    <glyph glyph-name="uni04E3" unicode="&#x4e3;" 
d="M231 0v1057h72v-772l-14 -191h6l96 156l539 807h67v-1057h-71v772l14 191h-6l-96 -156l-539 -807h-68zM342 1354v61h541v-61h-541z" />
    <glyph glyph-name="uni04E4" unicode="&#x4e4;" 
d="M193 0v1430h73v-1106l-14 -215h6l92 188l615 1133h71v-1430h-73v1106l14 215h-6l-92 -188l-615 -1133h-71zM428 1663q-74 0 -74 57v21q0 57 74 57q72 0 72 -57v-21q0 -57 -72 -57zM801 1663q-72 0 -72 57v21q0 57 72 57q73 0 73 -57v-21q0 -57 -73 -57z" />
    <glyph glyph-name="uni04E5" unicode="&#x4e5;" 
d="M231 0v1057h72v-772l-14 -191h6l96 156l539 807h67v-1057h-71v772l14 191h-6l-96 -156l-539 -807h-68zM426 1315q-74 0 -74 57v21q0 57 74 57q72 0 72 -57v-21q0 -57 -72 -57zM799 1315q-72 0 -72 57v21q0 57 72 57q73 0 73 -57v-21q0 -57 -73 -57z" />
    <glyph glyph-name="uni04E6" unicode="&#x4e6;" 
d="M614 -25q-237 0 -357 181.5t-120 558.5t120 558t357 181t357.5 -181t120.5 -558q0 -740 -478 -740zM614 43q196 0 296 151t100 443v156q0 292 -100 442.5t-296 150.5t-295.5 -150t-99.5 -443v-156q0 -293 99.5 -443.5t295.5 -150.5zM428 1663q-74 0 -74 57v21q0 57 74 57
q72 0 72 -57v-21q0 -57 -72 -57zM801 1663q-72 0 -72 57v21q0 57 72 57q73 0 73 -57v-21q0 -57 -73 -57z" />
    <glyph glyph-name="uni04E7" unicode="&#x4e7;" 
d="M614 -25q-209 0 -325.5 143.5t-116.5 409.5t116.5 409.5t325.5 143.5t326 -143.5t117 -409.5t-117 -409.5t-326 -143.5zM614 39q173 0 269 115t96 319v111q0 204 -96 319t-269 115t-268.5 -114.5t-95.5 -319.5v-111q0 -205 95.5 -319.5t268.5 -114.5zM428 1315
q-74 0 -74 57v21q0 57 74 57q72 0 72 -57v-21q0 -57 -72 -57zM801 1315q-72 0 -72 57v21q0 57 72 57q73 0 73 -57v-21q0 -57 -73 -57z" />
    <glyph glyph-name="uni04E8" unicode="&#x4e8;" 
d="M614 -25q-237 0 -357 181.5t-120 558.5t120 558t357 181t357.5 -181t120.5 -558q0 -740 -478 -740zM614 43q196 0 296 151t100 443v55h-791v-55q0 -293 99.5 -443.5t295.5 -150.5zM219 793v-35h791v35q0 292 -100 442.5t-296 150.5t-295.5 -150t-99.5 -443z" />
    <glyph glyph-name="uni04E9" unicode="&#x4e9;" 
d="M614 -25q-209 0 -325.5 143.5t-116.5 409.5t116.5 409.5t325.5 143.5t326 -143.5t117 -409.5t-117 -409.5t-326 -143.5zM614 39q173 0 269 115t96 319v31h-729v-31q0 -205 95.5 -319.5t268.5 -114.5zM250 584v-17h729v17q0 204 -96 319t-269 115t-268.5 -114.5
t-95.5 -319.5z" />
    <glyph glyph-name="uni04EE" unicode="&#x4ee;" 
d="M297 0v68h225l92 243l-495 1119h82l315 -725l131 -310h4l111 307l274 728h78l-514 -1354q-17 -43 -44 -59.5t-73 -16.5h-186zM344 1702v61h541v-61h-541z" />
    <glyph glyph-name="uni04EF" unicode="&#x4ef;" 
d="M618 127l381 930h74l-577 -1395q-29 -72 -113 -72h-197v64h234l158 381l-422 1022h75l381 -930h6zM340 1354v61h541v-61h-541z" />
    <glyph glyph-name="uni04F0" unicode="&#x4f0;" 
d="M297 0v68h225l92 243l-495 1119h82l315 -725l131 -310h4l111 307l274 728h78l-514 -1354q-17 -43 -44 -59.5t-73 -16.5h-186zM428 1663q-74 0 -74 57v21q0 57 74 57q72 0 72 -57v-21q0 -57 -72 -57zM801 1663q-72 0 -72 57v21q0 57 72 57q73 0 73 -57v-21q0 -57 -73 -57z
" />
    <glyph glyph-name="uni04F1" unicode="&#x4f1;" 
d="M618 127l381 930h74l-577 -1395q-29 -72 -113 -72h-197v64h234l158 381l-422 1022h75l381 -930h6zM424 1315q-74 0 -74 57v21q0 57 74 57q72 0 72 -57v-21q0 -57 -72 -57zM797 1315q-72 0 -72 57v21q0 57 72 57q73 0 73 -57v-21q0 -57 -73 -57z" />
    <glyph glyph-name="uni04F2" unicode="&#x4f2;" 
d="M297 0v68h225l92 243l-495 1119h82l315 -725l131 -310h4l111 307l274 728h78l-514 -1354q-17 -43 -44 -59.5t-73 -16.5h-186zM686 1880l-231 -315l-47 26l215 324zM1014 1880l-232 -315l-47 26l215 324z" />
    <glyph glyph-name="uni04F3" unicode="&#x4f3;" 
d="M618 127l381 930h74l-577 -1395q-29 -72 -113 -72h-197v64h234l158 381l-422 1022h75l381 -930h6zM682 1532l-231 -315l-48 26l215 324zM1010 1532l-232 -315l-47 26l215 324z" />
    <glyph glyph-name="uni04F4" unicode="&#x4f4;" 
d="M934 0v621h-4q-133 -68 -330 -68q-235 0 -346 115t-111 348v414h74v-414q0 -208 93.5 -301.5t295.5 -93.5q95 0 183.5 18t144.5 49v742h74v-1430h-74zM389 1663q-74 0 -74 57v21q0 57 74 57q72 0 72 -57v-21q0 -57 -72 -57zM762 1663q-72 0 -72 57v21q0 57 72 57
q74 0 74 -57v-21q0 -57 -74 -57z" />
    <glyph glyph-name="uni04F5" unicode="&#x4f5;" 
d="M883 0v541h-6q-37 -70 -126 -110t-210 -40q-166 0 -253 77.5t-87 225.5v363h71v-357q0 -125 70 -185t211 -60q138 0 234 54t96 155v393h71v-1057h-71zM391 1315q-74 0 -74 57v21q0 57 74 57q72 0 72 -57v-21q0 -57 -72 -57zM764 1315q-72 0 -72 57v21q0 57 72 57
q74 0 74 -57v-21q0 -57 -74 -57z" />
    <glyph glyph-name="uni04F8" unicode="&#x4f8;" 
d="M125 0v1430h74v-639h243q177 0 272 -105t95 -291t-94.5 -290.5t-272.5 -104.5h-317zM199 68h243q139 0 213 79.5t72 202.5v90q0 123 -74 203t-211 80h-243v-655zM1030 0v1430h74v-1430h-74zM428 1663q-74 0 -74 57v21q0 57 74 57q72 0 72 -57v-21q0 -57 -72 -57z
M801 1663q-72 0 -72 57v21q0 57 72 57q73 0 73 -57v-21q0 -57 -73 -57z" />
    <glyph glyph-name="uni04F9" unicode="&#x4f9;" 
d="M141 0v1057h72v-434h274q146 0 230 -80t84 -232t-84 -231.5t-230 -79.5h-346zM213 63h268q114 0 178 57.5t64 158.5v65q0 101 -64 158t-178 57h-268v-496zM1018 0v1057h72v-1057h-72zM428 1315q-74 0 -74 57v21q0 57 74 57q72 0 72 -57v-21q0 -57 -72 -57zM801 1315
q-72 0 -72 57v21q0 57 72 57q73 0 73 -57v-21q0 -57 -73 -57z" />
    <glyph glyph-name="uni0E3F" unicode="&#xe3f;" 
d="M614 0v-231h-61v231h-356v1430h356v231h61v-231h48q166 0 258 -94.5t92 -270.5q0 -261 -207 -328v-4q127 -26 194.5 -116t67.5 -234q0 -173 -96.5 -278t-265.5 -105h-91zM272 760h281v604h-281v-604zM614 1364v-604h43q134 0 205.5 72.5t71.5 185.5v86q0 113 -71.5 186.5
t-205.5 73.5h-43zM272 66h281v630h-281v-630zM614 696v-630h78q144 0 220.5 76.5t76.5 195.5v86q0 119 -76.5 195.5t-220.5 76.5h-78z" />
    <glyph glyph-name="Wgrave" unicode="&#x1e80;" 
d="M358 0h-118l-131 1430h67l125 -1354h10l260 932h88l261 -932h10l125 1354h65l-131 -1430h-119l-252 911h-8zM637 1565l-231 315l65 35l215 -324z" />
    <glyph glyph-name="wgrave" unicode="&#x1e81;" 
d="M264 0l-190 1057h65l176 -994h9l245 994h93l245 -994h8l177 994h63l-190 -1057h-103l-241 985h-9l-245 -985h-103zM637 1217l-231 315l65 35l215 -324z" />
    <glyph glyph-name="Wacute" unicode="&#x1e82;" 
d="M358 0h-118l-131 1430h67l125 -1354h10l260 932h88l261 -932h10l125 1354h65l-131 -1430h-119l-252 911h-8zM821 1880l-231 -315l-49 26l215 324z" />
    <glyph glyph-name="wacute" unicode="&#x1e83;" 
d="M264 0l-190 1057h65l176 -994h9l245 994h93l245 -994h8l177 994h63l-190 -1057h-103l-241 985h-9l-245 -985h-103zM821 1532l-231 -315l-49 26l215 324z" />
    <glyph glyph-name="Wdieresis" unicode="&#x1e84;" 
d="M358 0h-118l-131 1430h67l125 -1354h10l260 932h88l261 -932h10l125 1354h65l-131 -1430h-119l-252 911h-8zM428 1663q-74 0 -74 57v21q0 57 74 57q72 0 72 -57v-21q0 -57 -72 -57zM801 1663q-72 0 -72 57v21q0 57 72 57q73 0 73 -57v-21q0 -57 -73 -57z" />
    <glyph glyph-name="wdieresis" unicode="&#x1e85;" 
d="M264 0l-190 1057h65l176 -994h9l245 994h93l245 -994h8l177 994h63l-190 -1057h-103l-241 985h-9l-245 -985h-103zM428 1315q-74 0 -74 57v21q0 57 74 57q72 0 72 -57v-21q0 -57 -72 -57zM801 1315q-72 0 -72 57v21q0 57 72 57q73 0 73 -57v-21q0 -57 -73 -57z" />
    <glyph glyph-name="uni1E9E" unicode="&#x1e9e;" 
d="M184 0v1430h887v-74l-369 -531v-8q478 -3 478 -424q0 -203 -107 -310.5t-295 -107.5q-245 0 -375 181l54 45q62 -80 136 -120t187 -40q144 0 232 80t88 229v82q0 155 -98 238.5t-297 83.5h-87v67l377 543h-737v-1364h-74z" />
    <glyph glyph-name="uni1EA0" unicode="&#x1ea0;" 
d="M1133 0h-78l-152 463h-577l-152 -463h-78l469 1430h101zM885 528l-267 820h-10l-264 -820h541zM614 -297q-73 0 -73 57v21q0 57 73 57q74 0 74 -57v-21q0 -57 -74 -57z" />
    <glyph glyph-name="uni1EA1" unicode="&#x1ea1;" 
d="M1098 0h-148q-87 0 -90 86v76h-8q-40 -85 -125 -136t-219 -51q-169 0 -261.5 78t-92.5 221q0 142 96 220.5t319 78.5h289v152q0 146 -77.5 219.5t-217.5 73.5q-113 0 -196 -47.5t-125 -143.5l-54 35q45 101 140.5 160t236.5 59q171 0 268 -92t97 -256v-670h168v-63z
M514 37q146 0 245 71t99 195v213h-287q-340 0 -340 -211v-61q0 -98 77 -152.5t206 -54.5zM567 -297q-73 0 -73 57v21q0 57 73 57q74 0 74 -57v-21q0 -57 -74 -57z" />
    <glyph glyph-name="uni1EA2" unicode="&#x1ea2;" 
d="M1133 0h-78l-152 463h-577l-152 -463h-78l469 1430h101zM885 528l-267 820h-10l-264 -820h541zM459 1829v57h266q70 0 70 -55q0 -32 -72 -139l-88 -133l-47 22l147 248h-276z" />
    <glyph glyph-name="uni1EA3" unicode="&#x1ea3;" 
d="M1098 0h-148q-87 0 -90 86v76h-8q-40 -85 -125 -136t-219 -51q-169 0 -261.5 78t-92.5 221q0 142 96 220.5t319 78.5h289v152q0 146 -77.5 219.5t-217.5 73.5q-113 0 -196 -47.5t-125 -143.5l-54 35q45 101 140.5 160t236.5 59q171 0 268 -92t97 -256v-670h168v-63z
M514 37q146 0 245 71t99 195v213h-287q-340 0 -340 -211v-61q0 -98 77 -152.5t206 -54.5zM412 1481v57h266q70 0 70 -55q0 -33 -72 -140l-88 -133l-47 23l147 248h-276z" />
    <glyph glyph-name="uni1EA4" unicode="&#x1ea4;" 
d="M1133 0h-78l-152 463h-577l-152 -463h-78l469 1430h101zM885 528l-267 820h-10l-264 -820h541zM1098 2114l-232 -316l-47 27l215 323zM571 1878h86l254 -276l-43 -33l-254 256l-254 -256l-43 33z" />
    <glyph glyph-name="uni1EA5" unicode="&#x1ea5;" 
d="M1098 0h-148q-87 0 -90 86v76h-8q-40 -85 -125 -136t-219 -51q-169 0 -261.5 78t-92.5 221q0 142 96 220.5t319 78.5h289v152q0 146 -77.5 219.5t-217.5 73.5q-113 0 -196 -47.5t-125 -143.5l-54 35q45 101 140.5 160t236.5 59q171 0 268 -92t97 -256v-670h168v-63z
M514 37q146 0 245 71t99 195v213h-287q-340 0 -340 -211v-61q0 -98 77 -152.5t206 -54.5zM1051 1765l-232 -315l-47 27l215 323zM524 1530h86l254 -277l-43 -32l-254 256l-254 -256l-43 32z" />
    <glyph glyph-name="uni1EA6" unicode="&#x1ea6;" 
d="M1133 0h-78l-152 463h-577l-152 -463h-78l469 1430h101zM885 528l-267 820h-10l-264 -820h541zM362 1798l-231 316l64 34l215 -323zM571 1878h86l254 -276l-43 -33l-254 256l-254 -256l-43 33z" />
    <glyph glyph-name="uni1EA7" unicode="&#x1ea7;" 
d="M1098 0h-148q-87 0 -90 86v76h-8q-40 -85 -125 -136t-219 -51q-169 0 -261.5 78t-92.5 221q0 142 96 220.5t319 78.5h289v152q0 146 -77.5 219.5t-217.5 73.5q-113 0 -196 -47.5t-125 -143.5l-54 35q45 101 140.5 160t236.5 59q171 0 268 -92t97 -256v-670h168v-63z
M514 37q146 0 245 71t99 195v213h-287q-340 0 -340 -211v-61q0 -98 77 -152.5t206 -54.5zM315 1450l-231 315l63 35l215 -323zM524 1530h86l254 -277l-43 -32l-254 256l-254 -256l-43 32z" />
    <glyph glyph-name="uni1EA8" unicode="&#x1ea8;" 
d="M1133 0h-78l-152 463h-577l-152 -463h-78l469 1430h101zM885 528l-267 820h-10l-264 -820h541zM700 2064v58h269q34 0 51.5 -15t17.5 -41q0 -35 -71 -141l-90 -133l-48 25l150 247h-279zM571 1878h86l254 -276l-43 -33l-254 256l-254 -256l-43 33z" />
    <glyph glyph-name="uni1EA9" unicode="&#x1ea9;" 
d="M1098 0h-148q-87 0 -90 86v76h-8q-40 -85 -125 -136t-219 -51q-169 0 -261.5 78t-92.5 221q0 142 96 220.5t319 78.5h289v152q0 146 -77.5 219.5t-217.5 73.5q-113 0 -196 -47.5t-125 -143.5l-54 35q45 101 140.5 160t236.5 59q171 0 268 -92t97 -256v-670h168v-63z
M514 37q146 0 245 71t99 195v213h-287q-340 0 -340 -211v-61q0 -98 77 -152.5t206 -54.5zM653 1716v58h269q34 0 51.5 -15t17.5 -41q0 -35 -71 -141l-91 -133l-47 24l150 248h-279zM524 1530h86l254 -277l-43 -32l-254 256l-254 -256l-43 32z" />
    <glyph glyph-name="uni1EAA" unicode="&#x1eaa;" 
d="M1133 0h-78l-152 463h-577l-152 -463h-78l469 1430h101zM885 528l-267 820h-10l-264 -820h541zM469 2120q69 0 158 -60q83 -53 137 -53q65 0 131 66l33 -37q-70 -86 -168 -86q-70 0 -158 59q-83 53 -137 53q-66 0 -131 -65l-33 37q70 86 168 86zM571 1874h86l254 -272
l-43 -33l-254 252l-254 -252l-43 33z" />
    <glyph glyph-name="uni1EAB" unicode="&#x1eab;" 
d="M1098 0h-148q-87 0 -90 86v76h-8q-40 -85 -125 -136t-219 -51q-169 0 -261.5 78t-92.5 221q0 142 96 220.5t319 78.5h289v152q0 146 -77.5 219.5t-217.5 73.5q-113 0 -196 -47.5t-125 -143.5l-54 35q45 101 140.5 160t236.5 59q171 0 268 -92t97 -256v-670h168v-63z
M514 37q146 0 245 71t99 195v213h-287q-340 0 -340 -211v-61q0 -98 77 -152.5t206 -54.5zM422 1772q69 0 158 -60q83 -53 137 -53q66 0 131 65l33 -36q-70 -86 -168 -86q-70 0 -158 59q-83 53 -137 53q-66 0 -131 -65l-33 37q70 86 168 86zM524 1526h86l254 -273l-43 -32
l-254 252l-254 -252l-43 32z" />
    <glyph glyph-name="uni1EAC" unicode="&#x1eac;" 
d="M1133 0h-78l-152 463h-577l-152 -463h-78l469 1430h101zM885 528l-267 820h-10l-264 -820h541zM571 1896h86l254 -278l-43 -31l-254 256l-254 -256l-43 31zM614 -297q-73 0 -73 57v21q0 57 73 57q74 0 74 -57v-21q0 -57 -74 -57z" />
    <glyph glyph-name="uni1EAD" unicode="&#x1ead;" 
d="M1098 0h-148q-87 0 -90 86v76h-8q-40 -85 -125 -136t-219 -51q-169 0 -261.5 78t-92.5 221q0 142 96 220.5t319 78.5h289v152q0 146 -77.5 219.5t-217.5 73.5q-113 0 -196 -47.5t-125 -143.5l-54 35q45 101 140.5 160t236.5 59q171 0 268 -92t97 -256v-670h168v-63z
M514 37q146 0 245 71t99 195v213h-287q-340 0 -340 -211v-61q0 -98 77 -152.5t206 -54.5zM524 1548h86l254 -278l-43 -31l-254 256l-254 -256l-43 31zM567 -297q-73 0 -73 57v21q0 57 73 57q74 0 74 -57v-21q0 -57 -74 -57z" />
    <glyph glyph-name="uni1EAE" unicode="&#x1eae;" 
d="M1133 0h-78l-152 463h-577l-152 -463h-78l469 1430h101zM885 528l-267 820h-10l-264 -820h541zM614 1575q-60 0 -104.5 17.5t-79.5 57.5t-58.5 81.5t-54.5 111.5l48 23l53 -92q48 -79 90 -109.5t106 -30.5t106.5 30.5t90.5 109.5l53 92l47 -23q-25 -56 -44 -91.5
t-45.5 -72.5t-54.5 -57.5t-66.5 -33.5t-86.5 -13zM836 2111l-232 -315l-47 27l215 323z" />
    <glyph glyph-name="uni1EAF" unicode="&#x1eaf;" 
d="M1098 0h-148q-87 0 -90 86v76h-8q-40 -85 -125 -136t-219 -51q-169 0 -261.5 78t-92.5 221q0 142 96 220.5t319 78.5h289v152q0 146 -77.5 219.5t-217.5 73.5q-113 0 -196 -47.5t-125 -143.5l-54 35q45 101 140.5 160t236.5 59q171 0 268 -92t97 -256v-670h168v-63z
M514 37q146 0 245 71t99 195v213h-287q-340 0 -340 -211v-61q0 -98 77 -152.5t206 -54.5zM567 1227q-60 0 -104.5 17.5t-79.5 57.5t-58.5 81.5t-54.5 111.5l47 23l54 -93q48 -79 90 -109t106 -30t107 30.5t90 108.5l53 93l47 -23q-25 -56 -44 -91.5t-45.5 -72.5t-54.5 -57.5
t-66.5 -33.5t-86.5 -13zM788 1763l-231 -315l-47 27l215 323z" />
    <glyph glyph-name="uni1EB0" unicode="&#x1eb0;" 
d="M1133 0h-78l-152 463h-577l-152 -463h-78l469 1430h101zM885 528l-267 820h-10l-264 -820h541zM614 1575q-48 0 -86.5 13t-66.5 33.5t-54.5 57.5t-45.5 72.5t-44 91.5l48 23l53 -92q48 -79 90 -109.5t106 -30.5t106.5 30.5t90.5 109.5l53 92l47 -23q-31 -70 -54.5 -111.5
t-58.5 -81.5t-79.5 -57.5t-104.5 -17.5zM625 1796l-232 315l64 35l215 -323z" />
    <glyph glyph-name="uni1EB1" unicode="&#x1eb1;" 
d="M1098 0h-148q-87 0 -90 86v76h-8q-40 -85 -125 -136t-219 -51q-169 0 -261.5 78t-92.5 221q0 142 96 220.5t319 78.5h289v152q0 146 -77.5 219.5t-217.5 73.5q-113 0 -196 -47.5t-125 -143.5l-54 35q45 101 140.5 160t236.5 59q171 0 268 -92t97 -256v-670h168v-63z
M514 37q146 0 245 71t99 195v213h-287q-340 0 -340 -211v-61q0 -98 77 -152.5t206 -54.5zM567 1227q-48 0 -86.5 13t-66.5 33.5t-54.5 57.5t-45.5 72.5t-44 91.5l47 23l54 -93q48 -79 90 -109t106 -30t107 30.5t90 108.5l53 93l47 -23q-31 -70 -54.5 -111.5t-58.5 -81.5
t-79.5 -57.5t-104.5 -17.5zM578 1448l-232 315l64 35l215 -323z" />
    <glyph glyph-name="uni1EB2" unicode="&#x1eb2;" 
d="M1133 0h-78l-152 463h-577l-152 -463h-78l469 1430h101zM885 528l-267 820h-10l-264 -820h541zM457 2062v58h260q69 0 69 -56q0 -35 -71 -141l-88 -133l-47 25l147 247h-270zM614 1575q-48 0 -86.5 13t-66.5 33.5t-54.5 57.5t-45.5 72.5t-44 91.5l48 23l53 -92
q48 -79 90 -109.5t106 -30.5t106.5 30.5t90.5 109.5l53 92l47 -23q-31 -70 -54.5 -111.5t-58.5 -81.5t-79.5 -57.5t-104.5 -17.5z" />
    <glyph glyph-name="uni1EB3" unicode="&#x1eb3;" 
d="M1098 0h-148q-87 0 -90 86v76h-8q-40 -85 -125 -136t-219 -51q-169 0 -261.5 78t-92.5 221q0 142 96 220.5t319 78.5h289v152q0 146 -77.5 219.5t-217.5 73.5q-113 0 -196 -47.5t-125 -143.5l-54 35q45 101 140.5 160t236.5 59q171 0 268 -92t97 -256v-670h168v-63z
M514 37q146 0 245 71t99 195v213h-287q-340 0 -340 -211v-61q0 -98 77 -152.5t206 -54.5zM567 1227q-48 0 -86.5 13t-66.5 33.5t-54.5 57.5t-45.5 72.5t-44 91.5l47 23l54 -93q48 -79 90 -109t106 -30t107 30.5t90 108.5l53 93l47 -23q-31 -70 -54.5 -111.5t-58.5 -81.5
t-79.5 -57.5t-104.5 -17.5zM410 1714v58h260q69 0 69 -56q0 -35 -71 -141l-88 -133l-48 24l148 248h-270z" />
    <glyph glyph-name="uni1EB4" unicode="&#x1eb4;" 
d="M1133 0h-78l-152 463h-577l-152 -463h-78l469 1430h101zM885 528l-267 820h-10l-264 -820h541zM760 1929q-64 0 -158 60q-83 53 -137 53q-65 0 -131 -66l-33 37q70 86 168 86q66 0 158 -59q83 -53 137 -53q66 0 131 65l33 -37q-70 -86 -168 -86zM614 1575q-48 0 -86.5 13
t-66.5 33.5t-54.5 57.5t-45.5 72.5t-44 91.5l48 23l53 -92q48 -79 90 -109.5t106 -30.5t106.5 30.5t90.5 109.5l53 92l47 -23q-31 -70 -54.5 -111.5t-58.5 -81.5t-79.5 -57.5t-104.5 -17.5z" />
    <glyph glyph-name="uni1EB5" unicode="&#x1eb5;" 
d="M1098 0h-148q-87 0 -90 86v76h-8q-40 -85 -125 -136t-219 -51q-169 0 -261.5 78t-92.5 221q0 142 96 220.5t319 78.5h289v152q0 146 -77.5 219.5t-217.5 73.5q-113 0 -196 -47.5t-125 -143.5l-54 35q45 101 140.5 160t236.5 59q171 0 268 -92t97 -256v-670h168v-63z
M514 37q146 0 245 71t99 195v213h-287q-340 0 -340 -211v-61q0 -98 77 -152.5t206 -54.5zM567 1227q-48 0 -86.5 13t-66.5 33.5t-54.5 57.5t-45.5 72.5t-44 91.5l47 23l54 -93q48 -79 90 -109t106 -30t107 30.5t90 108.5l53 93l47 -23q-31 -70 -54.5 -111.5t-58.5 -81.5
t-79.5 -57.5t-104.5 -17.5zM713 1581q-66 0 -158 59q-84 54 -137 54q-65 0 -131 -66l-33 37q70 86 168 86q66 0 158 -59q84 -54 137 -54q65 0 131 66l33 -37q-70 -86 -168 -86z" />
    <glyph glyph-name="uni1EB6" unicode="&#x1eb6;" 
d="M1133 0h-78l-152 463h-577l-152 -463h-78l469 1430h101zM885 528l-267 820h-10l-264 -820h541zM614 1591q-48 0 -87 14.5t-65.5 34.5t-53.5 60.5t-43.5 73.5t-42.5 92l47 22l53 -92q48 -81 88.5 -112t103.5 -31t104 31t89 112l53 92l47 -22q-18 -41 -30.5 -66.5
t-30.5 -58t-33.5 -52t-37 -40.5t-44.5 -32t-52.5 -18.5t-64.5 -7.5zM614 -297q-73 0 -73 57v21q0 57 73 57q74 0 74 -57v-21q0 -57 -74 -57z" />
    <glyph glyph-name="uni1EB7" unicode="&#x1eb7;" 
d="M1098 0h-148q-87 0 -90 86v76h-8q-40 -85 -125 -136t-219 -51q-169 0 -261.5 78t-92.5 221q0 142 96 220.5t319 78.5h289v152q0 146 -77.5 219.5t-217.5 73.5q-113 0 -196 -47.5t-125 -143.5l-54 35q45 101 140.5 160t236.5 59q171 0 268 -92t97 -256v-670h168v-63z
M514 37q146 0 245 71t99 195v213h-287q-340 0 -340 -211v-61q0 -98 77 -152.5t206 -54.5zM567 1243q-35 0 -64.5 7.5t-52.5 18.5t-44.5 32t-37 40.5t-33.5 52t-30.5 58t-30.5 66.5l48 22l53 -92q48 -81 88.5 -112t103.5 -31t104 31t89 112l53 92l47 -22q-18 -41 -30.5 -66.5
t-30.5 -58t-33.5 -52t-37 -40.5t-44.5 -32t-52.5 -18.5t-64.5 -7.5zM567 -297q-73 0 -73 57v21q0 57 73 57q74 0 74 -57v-21q0 -57 -74 -57z" />
    <glyph glyph-name="uni1EB8" unicode="&#x1eb8;" 
d="M1055 0h-842v1430h842v-68h-768v-602h741v-68h-741v-624h768v-68zM629 -297q-74 0 -74 57v21q0 57 74 57q73 0 73 -57v-21q0 -57 -73 -57z" />
    <glyph glyph-name="uni1EB9" unicode="&#x1eb9;" 
d="M629 -25q-214 0 -333.5 143.5t-119.5 409.5q0 265 117.5 409t324.5 144q209 0 324 -143.5t115 -386.5v-29h-803v-53q0 -199 98.5 -314.5t276.5 -115.5q258 0 350 237l57 -30q-47 -126 -152 -198.5t-255 -72.5zM618 1020q-171 0 -267.5 -116.5t-96.5 -315.5v-8h727v10
q0 199 -96 314.5t-267 115.5zM629 -297q-74 0 -74 57v21q0 57 74 57q73 0 73 -57v-21q0 -57 -73 -57z" />
    <glyph glyph-name="uni1EBA" unicode="&#x1eba;" 
d="M1055 0h-842v1430h842v-68h-768v-602h741v-68h-741v-624h768v-68zM475 1829v57h266q70 0 70 -55q0 -32 -72 -139l-88 -133l-47 22l148 248h-277z" />
    <glyph glyph-name="uni1EBB" unicode="&#x1ebb;" 
d="M629 -25q-214 0 -333.5 143.5t-119.5 409.5q0 265 117.5 409t324.5 144q209 0 324 -143.5t115 -386.5v-29h-803v-53q0 -199 98.5 -314.5t276.5 -115.5q258 0 350 237l57 -30q-47 -126 -152 -198.5t-255 -72.5zM618 1020q-171 0 -267.5 -116.5t-96.5 -315.5v-8h727v10
q0 199 -96 314.5t-267 115.5zM463 1481v57h266q70 0 70 -55q0 -33 -72 -140l-88 -133l-47 23l147 248h-276z" />
    <glyph glyph-name="uni1EBC" unicode="&#x1ebc;" 
d="M1055 0h-842v1430h842v-68h-768v-602h741v-68h-741v-624h768v-68zM776 1642q-61 0 -158 60q-84 51 -137 51q-68 0 -131 -63l-35 36q76 89 170 89q61 0 158 -60q84 -51 137 -51q68 0 131 63l35 -36q-76 -89 -170 -89z" />
    <glyph glyph-name="uni1EBD" unicode="&#x1ebd;" 
d="M629 -25q-214 0 -333.5 143.5t-119.5 409.5q0 265 117.5 409t324.5 144q209 0 324 -143.5t115 -386.5v-29h-803v-53q0 -199 98.5 -314.5t276.5 -115.5q258 0 350 237l57 -30q-47 -126 -152 -198.5t-255 -72.5zM618 1020q-171 0 -267.5 -116.5t-96.5 -315.5v-8h727v10
q0 199 -96 314.5t-267 115.5zM764 1294q-61 0 -158 60q-84 51 -137 51q-67 0 -131 -64l-35 37q75 88 170 88q63 0 158 -59q84 -51 137 -51q68 0 131 63l35 -37q-75 -88 -170 -88z" />
    <glyph glyph-name="uni1EBE" unicode="&#x1ebe;" 
d="M1055 0h-842v1430h842v-68h-768v-602h741v-68h-741v-624h768v-68zM1114 2114l-231 -316l-47 27l215 323zM588 1878h86l254 -276l-43 -33l-254 256l-254 -256l-43 33z" />
    <glyph glyph-name="uni1EBF" unicode="&#x1ebf;" 
d="M629 -25q-214 0 -333.5 143.5t-119.5 409.5q0 265 117.5 409t324.5 144q209 0 324 -143.5t115 -386.5v-29h-803v-53q0 -199 98.5 -314.5t276.5 -115.5q258 0 350 237l57 -30q-47 -126 -152 -198.5t-255 -72.5zM618 1020q-171 0 -267.5 -116.5t-96.5 -315.5v-8h727v10
q0 199 -96 314.5t-267 115.5zM1102 1765l-232 -315l-47 27l215 323zM575 1530h87l253 -277l-43 -32l-254 256l-253 -256l-43 32z" />
    <glyph glyph-name="uni1EC0" unicode="&#x1ec0;" 
d="M1055 0h-842v1430h842v-68h-768v-602h741v-68h-741v-624h768v-68zM379 1798l-232 316l64 34l215 -323zM588 1878h86l254 -276l-43 -33l-254 256l-254 -256l-43 33z" />
    <glyph glyph-name="uni1EC1" unicode="&#x1ec1;" 
d="M629 -25q-214 0 -333.5 143.5t-119.5 409.5q0 265 117.5 409t324.5 144q209 0 324 -143.5t115 -386.5v-29h-803v-53q0 -199 98.5 -314.5t276.5 -115.5q258 0 350 237l57 -30q-47 -126 -152 -198.5t-255 -72.5zM618 1020q-171 0 -267.5 -116.5t-96.5 -315.5v-8h727v10
q0 199 -96 314.5t-267 115.5zM367 1450l-232 315l64 35l215 -323zM575 1530h87l253 -277l-43 -32l-254 256l-253 -256l-43 32z" />
    <glyph glyph-name="uni1EC2" unicode="&#x1ec2;" 
d="M1055 0h-842v1430h842v-68h-768v-602h741v-68h-741v-624h768v-68zM717 2064v58h268q34 0 52 -15t18 -41q0 -34 -72 -141l-90 -133l-47 25l149 247h-278zM588 1878h86l254 -276l-43 -33l-254 256l-254 -256l-43 33z" />
    <glyph glyph-name="uni1EC3" unicode="&#x1ec3;" 
d="M629 -25q-214 0 -333.5 143.5t-119.5 409.5q0 265 117.5 409t324.5 144q209 0 324 -143.5t115 -386.5v-29h-803v-53q0 -199 98.5 -314.5t276.5 -115.5q258 0 350 237l57 -30q-47 -126 -152 -198.5t-255 -72.5zM618 1020q-171 0 -267.5 -116.5t-96.5 -315.5v-8h727v10
q0 199 -96 314.5t-267 115.5zM705 1716v58h268q34 0 51.5 -15t17.5 -41q0 -35 -71 -141l-90 -133l-47 24l149 248h-278zM575 1530h87l253 -277l-43 -32l-254 256l-253 -256l-43 32z" />
    <glyph glyph-name="uni1EC4" unicode="&#x1ec4;" 
d="M1055 0h-842v1430h842v-68h-768v-602h741v-68h-741v-624h768v-68zM485 2120q69 0 158 -60q83 -53 137 -53q65 0 131 66l33 -37q-70 -86 -168 -86q-70 0 -158 59q-83 53 -137 53q-66 0 -131 -65l-33 37q70 86 168 86zM588 1874h86l254 -272l-43 -33l-254 252l-254 -252
l-43 33z" />
    <glyph glyph-name="uni1EC5" unicode="&#x1ec5;" 
d="M629 -25q-214 0 -333.5 143.5t-119.5 409.5q0 265 117.5 409t324.5 144q209 0 324 -143.5t115 -386.5v-29h-803v-53q0 -199 98.5 -314.5t276.5 -115.5q258 0 350 237l57 -30q-47 -126 -152 -198.5t-255 -72.5zM618 1020q-171 0 -267.5 -116.5t-96.5 -315.5v-8h727v10
q0 199 -96 314.5t-267 115.5zM473 1772q69 0 158 -60q83 -53 137 -53q66 0 131 65l33 -36q-70 -86 -168 -86q-70 0 -158 59q-83 53 -137 53q-66 0 -131 -65l-33 37q70 86 168 86zM575 1526h87l253 -273l-43 -32l-254 252l-253 -252l-43 32z" />
    <glyph glyph-name="uni1EC6" unicode="&#x1ec6;" 
d="M1055 0h-842v1430h842v-68h-768v-602h741v-68h-741v-624h768v-68zM588 1896h86l254 -278l-43 -31l-254 256l-254 -256l-43 31zM629 -297q-74 0 -74 57v21q0 57 74 57q73 0 73 -57v-21q0 -57 -73 -57z" />
    <glyph glyph-name="uni1EC7" unicode="&#x1ec7;" 
d="M629 -25q-214 0 -333.5 143.5t-119.5 409.5q0 265 117.5 409t324.5 144q209 0 324 -143.5t115 -386.5v-29h-803v-53q0 -199 98.5 -314.5t276.5 -115.5q258 0 350 237l57 -30q-47 -126 -152 -198.5t-255 -72.5zM618 1020q-171 0 -267.5 -116.5t-96.5 -315.5v-8h727v10
q0 199 -96 314.5t-267 115.5zM575 1548h87l253 -278l-43 -31l-254 256l-253 -256l-43 31zM629 -297q-74 0 -74 57v21q0 57 74 57q73 0 73 -57v-21q0 -57 -73 -57z" />
    <glyph glyph-name="uni1EC8" unicode="&#x1ec8;" 
d="M1044 0h-860v61h394v1307h-394v62h860v-62h-393v-1307h393v-61zM459 1829v57h266q70 0 70 -55q0 -32 -72 -139l-88 -133l-47 22l147 248h-276z" />
    <glyph glyph-name="uni1EC9" unicode="&#x1ec9;" 
d="M233 0v63h412v930h-412v64h484v-994h385v-63h-869zM524 1481v57h267q69 0 69 -55q0 -33 -72 -140l-88 -133l-47 23l148 248h-277z" />
    <glyph glyph-name="uni1ECA" unicode="&#x1eca;" 
d="M1044 0h-860v61h394v1307h-394v62h860v-62h-393v-1307h393v-61zM614 -297q-73 0 -73 57v21q0 57 73 57q74 0 74 -57v-21q0 -57 -74 -57z" />
    <glyph glyph-name="uni1ECB" unicode="&#x1ecb;" 
d="M680 1386q-76 0 -76 62v18q0 62 76 62t76 -62v-18q0 -62 -76 -62zM233 0v63h412v930h-412v64h484v-994h385v-63h-869zM680 -297q-74 0 -74 57v21q0 57 74 57t74 -57v-21q0 -57 -74 -57z" />
    <glyph glyph-name="uni1ECC" unicode="&#x1ecc;" 
d="M614 -25q-237 0 -357 181.5t-120 558.5t120 558t357 181t357.5 -181t120.5 -558q0 -740 -478 -740zM614 43q196 0 296 151t100 443v156q0 292 -100 442.5t-296 150.5t-295.5 -150t-99.5 -443v-156q0 -293 99.5 -443.5t295.5 -150.5zM614 -297q-73 0 -73 57v21q0 57 73 57
q74 0 74 -57v-21q0 -57 -74 -57z" />
    <glyph glyph-name="uni1ECD" unicode="&#x1ecd;" 
d="M614 -25q-209 0 -325.5 143.5t-116.5 409.5t116.5 409.5t325.5 143.5t326 -143.5t117 -409.5t-117 -409.5t-326 -143.5zM614 39q173 0 269 115t96 319v111q0 204 -96 319t-269 115t-268.5 -114.5t-95.5 -319.5v-111q0 -205 95.5 -319.5t268.5 -114.5zM614 -297
q-73 0 -73 57v21q0 57 73 57q74 0 74 -57v-21q0 -57 -74 -57z" />
    <glyph glyph-name="uni1ECE" unicode="&#x1ece;" 
d="M614 -25q-237 0 -357 181.5t-120 558.5t120 558t357 181t357.5 -181t120.5 -558q0 -740 -478 -740zM614 43q196 0 296 151t100 443v156q0 292 -100 442.5t-296 150.5t-295.5 -150t-99.5 -443v-156q0 -293 99.5 -443.5t295.5 -150.5zM459 1829v57h266q70 0 70 -55
q0 -32 -72 -139l-88 -133l-47 22l147 248h-276z" />
    <glyph glyph-name="uni1ECF" unicode="&#x1ecf;" 
d="M614 -25q-209 0 -325.5 143.5t-116.5 409.5t116.5 409.5t325.5 143.5t326 -143.5t117 -409.5t-117 -409.5t-326 -143.5zM614 39q173 0 269 115t96 319v111q0 204 -96 319t-269 115t-268.5 -114.5t-95.5 -319.5v-111q0 -205 95.5 -319.5t268.5 -114.5zM459 1481v57h266
q70 0 70 -55q0 -33 -72 -140l-88 -133l-47 23l147 248h-276z" />
    <glyph glyph-name="uni1ED0" unicode="&#x1ed0;" 
d="M614 -25q-237 0 -357 181.5t-120 558.5t120 558t357 181t357.5 -181t120.5 -558q0 -740 -478 -740zM614 43q196 0 296 151t100 443v156q0 292 -100 442.5t-296 150.5t-295.5 -150t-99.5 -443v-156q0 -293 99.5 -443.5t295.5 -150.5zM1098 2114l-232 -316l-47 27l215 323z
M571 1878h86l254 -276l-43 -33l-254 256l-254 -256l-43 33z" />
    <glyph glyph-name="uni1ED1" unicode="&#x1ed1;" 
d="M614 -25q-209 0 -325.5 143.5t-116.5 409.5t116.5 409.5t325.5 143.5t326 -143.5t117 -409.5t-117 -409.5t-326 -143.5zM614 39q173 0 269 115t96 319v111q0 204 -96 319t-269 115t-268.5 -114.5t-95.5 -319.5v-111q0 -205 95.5 -319.5t268.5 -114.5zM1098 1765
l-232 -315l-47 27l215 323zM571 1530h86l254 -277l-43 -32l-254 256l-254 -256l-43 32z" />
    <glyph glyph-name="uni1ED2" unicode="&#x1ed2;" 
d="M614 -25q-237 0 -357 181.5t-120 558.5t120 558t357 181t357.5 -181t120.5 -558q0 -740 -478 -740zM614 43q196 0 296 151t100 443v156q0 292 -100 442.5t-296 150.5t-295.5 -150t-99.5 -443v-156q0 -293 99.5 -443.5t295.5 -150.5zM362 1798l-231 316l64 34l215 -323z
M571 1878h86l254 -276l-43 -33l-254 256l-254 -256l-43 33z" />
    <glyph glyph-name="uni1ED3" unicode="&#x1ed3;" 
d="M614 -25q-209 0 -325.5 143.5t-116.5 409.5t116.5 409.5t325.5 143.5t326 -143.5t117 -409.5t-117 -409.5t-326 -143.5zM614 39q173 0 269 115t96 319v111q0 204 -96 319t-269 115t-268.5 -114.5t-95.5 -319.5v-111q0 -205 95.5 -319.5t268.5 -114.5zM362 1450l-231 315
l64 35l215 -323zM571 1530h86l254 -277l-43 -32l-254 256l-254 -256l-43 32z" />
    <glyph glyph-name="uni1ED4" unicode="&#x1ed4;" 
d="M614 -25q-237 0 -357 181.5t-120 558.5t120 558t357 181t357.5 -181t120.5 -558q0 -740 -478 -740zM614 43q196 0 296 151t100 443v156q0 292 -100 442.5t-296 150.5t-295.5 -150t-99.5 -443v-156q0 -293 99.5 -443.5t295.5 -150.5zM700 2064v58h269q34 0 51.5 -15
t17.5 -41q0 -35 -71 -141l-90 -133l-48 25l150 247h-279zM571 1878h86l254 -276l-43 -33l-254 256l-254 -256l-43 33z" />
    <glyph glyph-name="uni1ED5" unicode="&#x1ed5;" 
d="M614 -25q-209 0 -325.5 143.5t-116.5 409.5t116.5 409.5t325.5 143.5t326 -143.5t117 -409.5t-117 -409.5t-326 -143.5zM614 39q173 0 269 115t96 319v111q0 204 -96 319t-269 115t-268.5 -114.5t-95.5 -319.5v-111q0 -205 95.5 -319.5t268.5 -114.5zM700 1716v58h269
q34 0 51.5 -15t17.5 -41q0 -35 -71 -141l-90 -133l-48 24l150 248h-279zM571 1530h86l254 -277l-43 -32l-254 256l-254 -256l-43 32z" />
    <glyph glyph-name="uni1ED6" unicode="&#x1ed6;" 
d="M614 -25q-237 0 -357 181.5t-120 558.5t120 558t357 181t357.5 -181t120.5 -558q0 -740 -478 -740zM614 43q196 0 296 151t100 443v156q0 292 -100 442.5t-296 150.5t-295.5 -150t-99.5 -443v-156q0 -293 99.5 -443.5t295.5 -150.5zM469 2120q69 0 158 -60
q83 -53 137 -53q65 0 131 66l33 -37q-70 -86 -168 -86q-70 0 -158 59q-83 53 -137 53q-66 0 -131 -65l-33 37q70 86 168 86zM571 1874h86l254 -272l-43 -33l-254 252l-254 -252l-43 33z" />
    <glyph glyph-name="uni1ED7" unicode="&#x1ed7;" 
d="M614 -25q-209 0 -325.5 143.5t-116.5 409.5t116.5 409.5t325.5 143.5t326 -143.5t117 -409.5t-117 -409.5t-326 -143.5zM614 39q173 0 269 115t96 319v111q0 204 -96 319t-269 115t-268.5 -114.5t-95.5 -319.5v-111q0 -205 95.5 -319.5t268.5 -114.5zM469 1772
q69 0 158 -60q83 -53 137 -53q66 0 131 65l33 -36q-70 -86 -168 -86q-70 0 -158 59q-83 53 -137 53q-66 0 -131 -65l-33 37q70 86 168 86zM571 1526h86l254 -273l-43 -32l-254 252l-254 -252l-43 32z" />
    <glyph glyph-name="uni1ED8" unicode="&#x1ed8;" 
d="M614 -25q-237 0 -357 181.5t-120 558.5t120 558t357 181t357.5 -181t120.5 -558q0 -740 -478 -740zM614 43q196 0 296 151t100 443v156q0 292 -100 442.5t-296 150.5t-295.5 -150t-99.5 -443v-156q0 -293 99.5 -443.5t295.5 -150.5zM571 1896h86l254 -278l-43 -31
l-254 256l-254 -256l-43 31zM614 -297q-73 0 -73 57v21q0 57 73 57q74 0 74 -57v-21q0 -57 -74 -57z" />
    <glyph glyph-name="uni1ED9" unicode="&#x1ed9;" 
d="M614 -25q-209 0 -325.5 143.5t-116.5 409.5t116.5 409.5t325.5 143.5t326 -143.5t117 -409.5t-117 -409.5t-326 -143.5zM614 39q173 0 269 115t96 319v111q0 204 -96 319t-269 115t-268.5 -114.5t-95.5 -319.5v-111q0 -205 95.5 -319.5t268.5 -114.5zM571 1548h86
l254 -278l-43 -31l-254 256l-254 -256l-43 31zM614 -297q-73 0 -73 57v21q0 57 73 57q74 0 74 -57v-21q0 -57 -74 -57z" />
    <glyph glyph-name="uni1EDA" unicode="&#x1eda;" 
d="M1061 1657v-205q0 -76 -76 -76h-117q224 -154 224 -661q0 -740 -478 -740q-237 0 -357 181.5t-120 558.5t120 558t357 181q86 0 160 -24h221v227h66zM614 43q196 0 296 151t100 443v156q0 292 -100 442.5t-296 150.5t-295.5 -150t-99.5 -443v-156q0 -293 99.5 -443.5
t295.5 -150.5zM821 1880l-231 -315l-49 26l215 324z" />
    <glyph glyph-name="uni1EDB" unicode="&#x1edb;" 
d="M977 1284h65v-203q0 -37 -17 -56t-58 -19h-103q193 -135 193 -478q0 -266 -117 -409.5t-326 -143.5t-325.5 143.5t-116.5 409.5t116.5 409.5t325.5 143.5q85 0 156 -24h207v227zM614 39q173 0 269 115t96 319v111q0 204 -96 319t-269 115t-268.5 -114.5t-95.5 -319.5
v-111q0 -205 95.5 -319.5t268.5 -114.5zM821 1532l-231 -315l-49 26l215 324z" />
    <glyph glyph-name="uni1EDC" unicode="&#x1edc;" 
d="M1061 1657v-205q0 -76 -76 -76h-117q224 -154 224 -661q0 -740 -478 -740q-237 0 -357 181.5t-120 558.5t120 558t357 181q86 0 160 -24h221v227h66zM614 43q196 0 296 151t100 443v156q0 292 -100 442.5t-296 150.5t-295.5 -150t-99.5 -443v-156q0 -293 99.5 -443.5
t295.5 -150.5zM637 1565l-231 315l65 35l215 -324z" />
    <glyph glyph-name="uni1EDD" unicode="&#x1edd;" 
d="M977 1284h65v-203q0 -37 -17 -56t-58 -19h-103q193 -135 193 -478q0 -266 -117 -409.5t-326 -143.5t-325.5 143.5t-116.5 409.5t116.5 409.5t325.5 143.5q85 0 156 -24h207v227zM614 39q173 0 269 115t96 319v111q0 204 -96 319t-269 115t-268.5 -114.5t-95.5 -319.5
v-111q0 -205 95.5 -319.5t268.5 -114.5zM637 1217l-231 315l65 35l215 -324z" />
    <glyph glyph-name="uni1EDE" unicode="&#x1ede;" 
d="M1061 1657v-205q0 -76 -76 -76h-117q224 -154 224 -661q0 -740 -478 -740q-237 0 -357 181.5t-120 558.5t120 558t357 181q86 0 160 -24h221v227h66zM614 43q196 0 296 151t100 443v156q0 292 -100 442.5t-296 150.5t-295.5 -150t-99.5 -443v-156q0 -293 99.5 -443.5
t295.5 -150.5zM459 1829v57h266q70 0 70 -55q0 -32 -72 -139l-88 -133l-47 22l147 248h-276z" />
    <glyph glyph-name="uni1EDF" unicode="&#x1edf;" 
d="M977 1284h65v-203q0 -37 -17 -56t-58 -19h-103q193 -135 193 -478q0 -266 -117 -409.5t-326 -143.5t-325.5 143.5t-116.5 409.5t116.5 409.5t325.5 143.5q85 0 156 -24h207v227zM614 39q173 0 269 115t96 319v111q0 204 -96 319t-269 115t-268.5 -114.5t-95.5 -319.5
v-111q0 -205 95.5 -319.5t268.5 -114.5zM459 1481v57h266q70 0 70 -55q0 -33 -72 -140l-88 -133l-47 23l147 248h-276z" />
    <glyph glyph-name="uni1EE0" unicode="&#x1ee0;" 
d="M1061 1657v-205q0 -76 -76 -76h-117q224 -154 224 -661q0 -740 -478 -740q-237 0 -357 181.5t-120 558.5t120 558t357 181q86 0 160 -24h221v227h66zM614 43q196 0 296 151t100 443v156q0 292 -100 442.5t-296 150.5t-295.5 -150t-99.5 -443v-156q0 -293 99.5 -443.5
t295.5 -150.5zM756 1645q-65 0 -154 57q-80 49 -131 49q-69 0 -129 -63l-35 38q70 86 166 86q65 0 154 -57q80 -49 131 -49q69 0 129 63l35 -38q-70 -86 -166 -86z" />
    <glyph glyph-name="uni1EE1" unicode="&#x1ee1;" 
d="M977 1284h65v-203q0 -37 -17 -56t-58 -19h-103q193 -135 193 -478q0 -266 -117 -409.5t-326 -143.5t-325.5 143.5t-116.5 409.5t116.5 409.5t325.5 143.5q85 0 156 -24h207v227zM614 39q173 0 269 115t96 319v111q0 204 -96 319t-269 115t-268.5 -114.5t-95.5 -319.5
v-111q0 -205 95.5 -319.5t268.5 -114.5zM756 1296q-63 0 -154 58q-80 49 -131 49q-68 0 -129 -64l-35 39q70 86 166 86q65 0 154 -57q80 -49 131 -49q69 0 129 63l35 -39q-70 -86 -166 -86z" />
    <glyph glyph-name="uni1EE2" unicode="&#x1ee2;" 
d="M1061 1657v-205q0 -76 -76 -76h-117q224 -154 224 -661q0 -740 -478 -740q-237 0 -357 181.5t-120 558.5t120 558t357 181q86 0 160 -24h221v227h66zM614 43q196 0 296 151t100 443v156q0 292 -100 442.5t-296 150.5t-295.5 -150t-99.5 -443v-156q0 -293 99.5 -443.5
t295.5 -150.5zM614 -297q-73 0 -73 57v21q0 57 73 57q74 0 74 -57v-21q0 -57 -74 -57z" />
    <glyph glyph-name="uni1EE3" unicode="&#x1ee3;" 
d="M977 1284h65v-203q0 -37 -17 -56t-58 -19h-103q193 -135 193 -478q0 -266 -117 -409.5t-326 -143.5t-325.5 143.5t-116.5 409.5t116.5 409.5t325.5 143.5q85 0 156 -24h207v227zM614 39q173 0 269 115t96 319v111q0 204 -96 319t-269 115t-268.5 -114.5t-95.5 -319.5
v-111q0 -205 95.5 -319.5t268.5 -114.5zM614 -297q-73 0 -73 57v21q0 57 73 57q74 0 74 -57v-21q0 -57 -74 -57z" />
    <glyph glyph-name="uni1EE4" unicode="&#x1ee4;" 
d="M193 1430h73v-869q0 -152 14.5 -245.5t53.5 -157.5t106 -89.5t174 -25.5t174 25.5t106.5 89.5t54 157.5t14.5 245.5v869h73v-859q0 -171 -19 -280.5t-68 -182.5t-129 -103t-206 -30t-206 30t-128.5 103t-67.5 182t-19 281v859zM614 -297q-73 0 -73 57v21q0 57 73 57
q74 0 74 -57v-21q0 -57 -74 -57z" />
    <glyph glyph-name="uni1EE5" unicode="&#x1ee5;" 
d="M911 0v156h-6q-33 -78 -112 -129.5t-207 -51.5q-172 0 -265.5 102.5t-93.5 293.5v686h72v-674q0 -344 303 -344q129 0 219 68.5t90 193.5v756h72v-1057h-72zM606 -297q-74 0 -74 57v21q0 57 74 57t74 -57v-21q0 -57 -74 -57z" />
    <glyph glyph-name="uni1EE6" unicode="&#x1ee6;" 
d="M193 1430h73v-869q0 -152 14.5 -245.5t53.5 -157.5t106 -89.5t174 -25.5t174 25.5t106.5 89.5t54 157.5t14.5 245.5v869h73v-859q0 -171 -19 -280.5t-68 -182.5t-129 -103t-206 -30t-206 30t-128.5 103t-67.5 182t-19 281v859zM459 1829v57h266q70 0 70 -55
q0 -32 -72 -139l-88 -133l-47 22l147 248h-276z" />
    <glyph glyph-name="uni1EE7" unicode="&#x1ee7;" 
d="M911 0v156h-6q-33 -78 -112 -129.5t-207 -51.5q-172 0 -265.5 102.5t-93.5 293.5v686h72v-674q0 -344 303 -344q129 0 219 68.5t90 193.5v756h72v-1057h-72zM451 1481v57h266q69 0 69 -55q0 -34 -71 -140l-88 -133l-47 23l147 248h-276z" />
    <glyph glyph-name="uni1EE8" unicode="&#x1ee8;" 
d="M193 1430h73v-869q0 -152 14.5 -245.5t53.5 -157.5t106 -89.5t174 -25.5t174 25.5t106.5 89.5t54 157.5t14.5 245.5v869h196v227h66v-205q0 -38 -17.5 -57t-58.5 -19h-113v-805q0 -171 -19 -280.5t-68 -182.5t-129 -103t-206 -30t-206 30t-128.5 103t-67.5 182t-19 281
v859zM821 1880l-231 -315l-49 26l215 324z" />
    <glyph glyph-name="uni1EE9" unicode="&#x1ee9;" 
d="M1174 1284v-205q0 -38 -18 -56.5t-58 -18.5h-115v-1004h-72v156h-6q-33 -78 -112 -129.5t-207 -51.5q-172 0 -265.5 102.5t-93.5 293.5v686h72v-674q0 -344 303 -344q129 0 219 68.5t90 193.5v756h197v227h66zM813 1532l-231 -315l-50 26l216 324z" />
    <glyph glyph-name="uni1EEA" unicode="&#x1eea;" 
d="M193 1430h73v-869q0 -152 14.5 -245.5t53.5 -157.5t106 -89.5t174 -25.5t174 25.5t106.5 89.5t54 157.5t14.5 245.5v869h196v227h66v-205q0 -38 -17.5 -57t-58.5 -19h-113v-805q0 -171 -19 -280.5t-68 -182.5t-129 -103t-206 -30t-206 30t-128.5 103t-67.5 182t-19 281
v859zM637 1565l-231 315l65 35l215 -324z" />
    <glyph glyph-name="uni1EEB" unicode="&#x1eeb;" 
d="M1174 1284v-205q0 -38 -18 -56.5t-58 -18.5h-115v-1004h-72v156h-6q-33 -78 -112 -129.5t-207 -51.5q-172 0 -265.5 102.5t-93.5 293.5v686h72v-674q0 -344 303 -344q129 0 219 68.5t90 193.5v756h197v227h66zM629 1217l-232 315l66 35l215 -324z" />
    <glyph glyph-name="uni1EEC" unicode="&#x1eec;" 
d="M193 1430h73v-869q0 -152 14.5 -245.5t53.5 -157.5t106 -89.5t174 -25.5t174 25.5t106.5 89.5t54 157.5t14.5 245.5v869h196v227h66v-205q0 -38 -17.5 -57t-58.5 -19h-113v-805q0 -171 -19 -280.5t-68 -182.5t-129 -103t-206 -30t-206 30t-128.5 103t-67.5 182t-19 281
v859zM459 1829v57h266q70 0 70 -55q0 -32 -72 -139l-88 -133l-47 22l147 248h-276z" />
    <glyph glyph-name="uni1EED" unicode="&#x1eed;" 
d="M1174 1284v-205q0 -38 -18 -56.5t-58 -18.5h-115v-1004h-72v156h-6q-33 -78 -112 -129.5t-207 -51.5q-172 0 -265.5 102.5t-93.5 293.5v686h72v-674q0 -344 303 -344q129 0 219 68.5t90 193.5v756h197v227h66zM451 1481v57h266q69 0 69 -55q0 -34 -71 -140l-88 -133
l-47 23l147 248h-276z" />
    <glyph glyph-name="uni1EEE" unicode="&#x1eee;" 
d="M193 1430h73v-869q0 -152 14.5 -245.5t53.5 -157.5t106 -89.5t174 -25.5t174 25.5t106.5 89.5t54 157.5t14.5 245.5v869h196v227h66v-205q0 -38 -17.5 -57t-58.5 -19h-113v-805q0 -171 -19 -280.5t-68 -182.5t-129 -103t-206 -30t-206 30t-128.5 103t-67.5 182t-19 281
v859zM756 1645q-65 0 -154 57q-80 49 -131 49q-69 0 -129 -63l-35 38q70 86 166 86q65 0 154 -57q80 -49 131 -49q69 0 129 63l35 -38q-70 -86 -166 -86z" />
    <glyph glyph-name="uni1EEF" unicode="&#x1eef;" 
d="M1174 1284v-205q0 -38 -18 -56.5t-58 -18.5h-115v-1004h-72v156h-6q-33 -78 -112 -129.5t-207 -51.5q-172 0 -265.5 102.5t-93.5 293.5v686h72v-674q0 -344 303 -344q129 0 219 68.5t90 193.5v756h197v227h66zM748 1296q-63 0 -154 58q-80 49 -131 49q-68 0 -129 -64
l-35 39q70 86 166 86q64 0 153 -57q80 -49 132 -49q69 0 129 63l34 -39q-70 -86 -165 -86z" />
    <glyph glyph-name="uni1EF0" unicode="&#x1ef0;" 
d="M193 1430h73v-869q0 -152 14.5 -245.5t53.5 -157.5t106 -89.5t174 -25.5t174 25.5t106.5 89.5t54 157.5t14.5 245.5v869h196v227h66v-205q0 -38 -17.5 -57t-58.5 -19h-113v-805q0 -171 -19 -280.5t-68 -182.5t-129 -103t-206 -30t-206 30t-128.5 103t-67.5 182t-19 281
v859zM614 -297q-73 0 -73 57v21q0 57 73 57q74 0 74 -57v-21q0 -57 -74 -57z" />
    <glyph glyph-name="uni1EF1" unicode="&#x1ef1;" 
d="M1174 1284v-205q0 -38 -18 -56.5t-58 -18.5h-115v-1004h-72v156h-6q-33 -78 -112 -129.5t-207 -51.5q-172 0 -265.5 102.5t-93.5 293.5v686h72v-674q0 -344 303 -344q129 0 219 68.5t90 193.5v756h197v227h66zM606 -297q-74 0 -74 57v21q0 57 74 57t74 -57v-21
q0 -57 -74 -57z" />
    <glyph glyph-name="Ygrave" unicode="&#x1ef2;" 
d="M651 0h-73v592l-527 838h86l475 -760h6l476 760h84l-527 -838v-592zM637 1565l-231 315l65 35l215 -324z" />
    <glyph glyph-name="ygrave" unicode="&#x1ef3;" 
d="M618 127l381 930h74l-577 -1395q-29 -72 -113 -72h-197v64h234l158 381l-422 1022h75l381 -930h6zM633 1217l-232 315l66 35l215 -324z" />
    <glyph glyph-name="uni1EF4" unicode="&#x1ef4;" 
d="M651 0h-73v592l-527 838h86l475 -760h6l476 760h84l-527 -838v-592zM614 -297q-73 0 -73 57v21q0 57 73 57q74 0 74 -57v-21q0 -57 -74 -57z" />
    <glyph glyph-name="uni1EF5" unicode="&#x1ef5;" 
d="M618 127l381 930h74l-577 -1395q-29 -72 -113 -72h-197v64h234l158 381l-422 1022h75l381 -930h6zM911 -297q-73 0 -73 57v21q0 57 73 57q74 0 74 -57v-21q0 -57 -74 -57z" />
    <glyph glyph-name="uni1EF6" unicode="&#x1ef6;" 
d="M651 0h-73v592l-527 838h86l475 -760h6l476 760h84l-527 -838v-592zM459 1829v57h266q70 0 70 -55q0 -32 -72 -139l-88 -133l-47 22l147 248h-276z" />
    <glyph glyph-name="uni1EF7" unicode="&#x1ef7;" 
d="M618 127l381 930h74l-577 -1395q-29 -72 -113 -72h-197v64h234l158 381l-422 1022h75l381 -930h6zM455 1481v57h266q70 0 70 -55q0 -33 -72 -140l-88 -133l-47 23l147 248h-276z" />
    <glyph glyph-name="uni1EF8" unicode="&#x1ef8;" 
d="M651 0h-73v592l-527 838h86l475 -760h6l476 760h84l-527 -838v-592zM760 1642q-61 0 -158 60q-84 51 -137 51q-68 0 -131 -63l-35 36q76 89 170 89q61 0 158 -60q84 -51 137 -51q68 0 131 63l35 -36q-76 -89 -170 -89z" />
    <glyph glyph-name="uni1EF9" unicode="&#x1ef9;" 
d="M618 127l381 930h74l-577 -1395q-29 -72 -113 -72h-197v64h234l158 381l-422 1022h75l381 -930h6zM756 1294q-61 0 -158 60q-84 51 -137 51q-67 0 -131 -64l-35 37q75 88 170 88q63 0 158 -59q84 -51 137 -51q68 0 131 63l35 -37q-75 -88 -170 -88z" />
    <glyph glyph-name="endash" unicode="&#x2013;" 
d="M1106 592h-983v65h983v-65z" />
    <glyph glyph-name="emdash" unicode="&#x2014;" 
d="M1229 592h-1229v65h1229v-65z" />
    <glyph glyph-name="quoteleft" unicode="&#x2018;" 
d="M473 991l178 525h60l-109 -525h-129z" />
    <glyph glyph-name="quoteright" unicode="&#x2019;" 
d="M518 991l109 525h129l-178 -525h-60z" />
    <glyph glyph-name="quotesinglbase" unicode="&#x201a;" 
d="M459 -338l108 526h129l-178 -526h-59z" />
    <glyph glyph-name="quotedblleft" unicode="&#x201c;" 
d="M289 991l178 525h59l-108 -525h-129zM662 991l178 525h59l-108 -525h-129z" />
    <glyph glyph-name="quotedblright" unicode="&#x201d;" 
d="M334 991l108 525h129l-178 -525h-59zM707 991l108 525h129l-178 -525h-59z" />
    <glyph glyph-name="quotedblbase" unicode="&#x201e;" 
d="M285 -338l108 526h129l-178 -526h-59zM657 -338l109 526h129l-178 -526h-60z" />
    <glyph glyph-name="dagger" unicode="&#x2020;" 
d="M649 -410h-67v1405h-426v62h426v459h67v-459h426v-62h-426v-1405z" />
    <glyph glyph-name="daggerdbl" unicode="&#x2021;" 
d="M649 -410h-67v459h-426v62h426v884h-426v62h426v459h67v-459h426v-62h-426v-884h426v-62h-426v-459z" />
    <glyph glyph-name="bullet" unicode="&#x2022;" 
d="M614 430q-99 0 -146.5 46t-47.5 122v49q0 76 47.5 122t146.5 46t147 -46t48 -122v-49q0 -76 -48 -122t-147 -46z" />
    <glyph glyph-name="ellipsis" unicode="&#x2026;" 
d="M256 -10q-43 0 -63.5 18.5t-20.5 48.5v27q0 30 20.5 49t63.5 19q82 0 82 -68v-27q0 -67 -82 -67zM614 -10q-43 0 -63.5 18.5t-20.5 48.5v27q0 30 20.5 49t63.5 19t63.5 -19t20.5 -49v-27q0 -30 -20.5 -48.5t-63.5 -18.5zM973 -10q-82 0 -82 67v27q0 68 82 68
q43 0 63.5 -19t20.5 -49v-27q0 -30 -20.5 -48.5t-63.5 -18.5z" />
    <glyph glyph-name="perthousand" unicode="&#x2030;" 
d="M274 819q-121 0 -194.5 79t-73.5 239t73.5 238.5t194.5 78.5q120 0 193.5 -79t73.5 -238q0 -160 -73 -239t-194 -79zM274 870q86 0 142.5 59t56.5 175v65q0 116 -56.5 175t-142.5 59q-88 0 -144 -58.5t-56 -175.5v-65q0 -117 56 -175.5t144 -58.5zM168 596l-21 49
l912 377l20 -49zM498 -25q-119 0 -192 79t-73 239t72.5 238.5t192.5 78.5q79 0 140.5 -38t92.5 -113h6q31 74 92.5 112.5t139.5 38.5q120 0 193 -78.5t73 -238.5t-73 -239t-193 -79q-77 0 -139 39t-93 113h-6q-31 -75 -92.5 -113.5t-140.5 -38.5zM500 27q88 0 144 58t56 175
v66q0 117 -56 175t-144 58q-86 0 -143.5 -58.5t-57.5 -174.5v-66q0 -116 57.5 -174.5t143.5 -58.5zM967 27q88 0 144 58t56 175v66q0 117 -56 175t-144 58q-86 0 -142.5 -58.5t-56.5 -174.5v-66q0 -116 56.5 -174.5t142.5 -58.5z" />
    <glyph glyph-name="guilsinglleft" unicode="&#x2039;" 
d="M805 197l-25 -52l-436 369v72l436 368l25 -51l-383 -354z" />
    <glyph glyph-name="guilsinglright" unicode="&#x203a;" 
d="M449 145l-25 52l383 352l-383 354l25 51l436 -368v-72z" />
    <glyph glyph-name="fraction" unicode="&#x2044;" 
d="M735 815l373 615h68l-373 -615h-68zM53 0l373 614h68l-373 -614h-68z" />
    <glyph glyph-name="uni2070" unicode="&#x2070;" 
d="M614 662q-143 0 -208.5 98t-65.5 293q0 194 65.5 291.5t208.5 97.5t209 -97.5t66 -291.5q0 -195 -66 -293t-209 -98zM614 713q211 0 211 291v96q0 291 -211 291t-211 -291v-96q0 -291 211 -291zM614 1012q-41 0 -41 32v15q0 33 41 33t41 -33v-15q0 -32 -41 -32z" />
    <glyph glyph-name="uni2074" unicode="&#x2074;" 
d="M793 674h-60v174h-424v55l398 527h86v-533h129v-49h-129v-174zM733 897v475h-6l-360 -475h366z" />
    <glyph glyph-name="uni2075" unicode="&#x2075;" 
d="M854 1430v-52h-381l-24 -325h4q76 82 192 82q115 0 178.5 -62.5t63.5 -169.5q0 -110 -70 -175.5t-196 -65.5q-168 0 -256 118l43 35q39 -51 87 -76.5t126 -25.5q99 0 150.5 47t51.5 127v22q0 83 -47 128.5t-145 45.5q-106 0 -182 -73l-54 8l27 412h432z" />
    <glyph glyph-name="uni2076" unicode="&#x2076;" 
d="M621 662q-121 0 -191 68.5t-70 201.5q0 82 28.5 162.5t75 143.5t95 110.5t98.5 81.5h86q-127 -82 -204 -177t-113 -225l6 -2q64 109 205 109q113 0 180.5 -63.5t67.5 -170.5q0 -110 -71 -174.5t-193 -64.5zM623 711q90 0 144 44.5t54 131.5v20q0 87 -54 131.5t-144 44.5
t-143.5 -44t-53.5 -132v-20q0 -88 53.5 -132t143.5 -44z" />
    <glyph glyph-name="uni2077" unicode="&#x2077;" 
d="M580 674h-64l315 704h-413v-174h-53v226h524v-56z" />
    <glyph glyph-name="uni2078" unicode="&#x2078;" 
d="M614 662q-137 0 -210.5 57.5t-73.5 154.5q0 148 176 187v8q-75 19 -111.5 68t-36.5 112q0 90 68 141.5t188 51.5t188 -51.5t68 -141.5q0 -63 -36 -112t-111 -68v-8q176 -39 176 -187q0 -97 -74 -154.5t-211 -57.5zM614 1090q97 0 146 38.5t49 106.5v12q0 68 -49 107
t-146 39t-145.5 -39t-48.5 -107v-12q0 -68 48.5 -106.5t145.5 -38.5zM614 711q107 0 164.5 40.5t57.5 114.5v19q0 74 -57.5 114.5t-164.5 40.5t-164 -40.5t-57 -114.5v-19q0 -74 57 -114.5t164 -40.5z" />
    <glyph glyph-name="uni2079" unicode="&#x2079;" 
d="M868 1171q0 -82 -28.5 -162.5t-75.5 -143.5t-95 -110t-98 -81h-86q128 84 205 178.5t111 222.5l-4 2q-62 -108 -205 -108q-114 0 -181 63t-67 170q0 111 70.5 175.5t193.5 64.5q122 0 191 -69t69 -202zM604 1020q90 0 144.5 44.5t54.5 131.5v21q0 87 -54.5 131.5
t-144.5 44.5q-89 0 -142.5 -44.5t-53.5 -131.5v-21q0 -87 53.5 -131.5t142.5 -44.5z" />
    <glyph glyph-name="uni2080" unicode="&#x2080;" 
d="M614 -12q-143 0 -208.5 98t-65.5 293q0 194 65.5 291.5t208.5 97.5t209 -97.5t66 -291.5q0 -195 -66 -293t-209 -98zM614 39q211 0 211 291v96q0 291 -211 291t-211 -291v-96q0 -291 211 -291zM614 338q-41 0 -41 33v14q0 33 41 33t41 -33v-14q0 -33 -41 -33z" />
    <glyph glyph-name="uni2081" unicode="&#x2081;" 
d="M932 0h-547v51h254v651l-270 -139l-25 43l287 150h69v-705h232v-51z" />
    <glyph glyph-name="uni2082" unicode="&#x2082;" 
d="M883 51v-51h-533v59l281 230q162 134 162 248v18q0 73 -47 117.5t-134 44.5q-163 0 -215 -152l-53 19q27 82 94 133t176 51q115 0 178.5 -61t63.5 -156q0 -77 -46.5 -148.5t-143.5 -150.5l-252 -201h469z" />
    <glyph glyph-name="uni2083" unicode="&#x2083;" 
d="M496 418h92q192 0 192 149v11q0 65 -45 102t-129 37q-72 0 -118 -23.5t-80 -70.5l-43 32q77 113 241 113q110 0 175 -53t65 -142q0 -71 -40 -115.5t-108 -60.5v-6q76 -12 118 -58.5t42 -123.5q0 -102 -69.5 -161.5t-194.5 -59.5q-162 0 -254 118l45 35q39 -51 86 -76.5
t123 -25.5q98 0 149.5 43.5t51.5 122.5v12q0 150 -195 150h-104v51z" />
    <glyph glyph-name="uni2084" unicode="&#x2084;" 
d="M793 0h-60v174h-424v55l398 527h86v-533h129v-49h-129v-174zM733 223v475h-6l-360 -475h366z" />
    <glyph glyph-name="uni2085" unicode="&#x2085;" 
d="M854 705h-381l-24 -326h4q76 82 192 82q115 0 178.5 -62.5t63.5 -169.5q0 -110 -70 -175.5t-196 -65.5q-168 0 -256 118l43 35q39 -51 87 -76.5t126 -25.5q99 0 150.5 47t51.5 127v23q0 83 -47 128.5t-145 45.5q-105 0 -182 -74l-54 8l27 412h432v-51z" />
    <glyph glyph-name="uni2086" unicode="&#x2086;" 
d="M621 -12q-121 0 -191 68.5t-70 201.5q0 82 28.5 162.5t75 143.5t95 110.5t98.5 81.5h86q-127 -82 -204 -177t-113 -225l6 -2q64 109 205 109q113 0 180.5 -63.5t67.5 -170.5q0 -110 -71 -174.5t-193 -64.5zM623 37q90 0 144 44.5t54 131.5v20q0 88 -54 132.5t-144 44.5
t-143.5 -44.5t-53.5 -132.5v-20q0 -88 53.5 -132t143.5 -44z" />
    <glyph glyph-name="uni2087" unicode="&#x2087;" 
d="M580 0h-64l315 705h-413v-173h-53v224h524v-56z" />
    <glyph glyph-name="uni2088" unicode="&#x2088;" 
d="M614 -12q-137 0 -210.5 57.5t-73.5 155.5q0 147 176 186v8q-75 19 -111.5 68t-36.5 112q0 90 68 141.5t188 51.5t188 -51.5t68 -141.5q0 -63 -36 -112t-111 -68v-8q176 -39 176 -186q0 -97 -74 -155t-211 -58zM614 37q107 0 164.5 41t57.5 115v18q0 74 -57.5 115
t-164.5 41q-106 0 -163.5 -41t-57.5 -115v-18q0 -74 57.5 -115t163.5 -41zM614 416q97 0 146 38.5t49 106.5v12q0 68 -49 107t-146 39t-145.5 -39t-48.5 -107v-12q0 -68 48.5 -106.5t145.5 -38.5z" />
    <glyph glyph-name="uni2089" unicode="&#x2089;" 
d="M868 498q0 -82 -28.5 -162.5t-75 -143.5t-95 -110.5t-98.5 -81.5h-86q128 84 205 178.5t111 222.5l-4 2q-62 -108 -205 -108q-114 0 -181 63t-67 170q0 111 70.5 175.5t193.5 64.5q122 0 191 -69t69 -201zM604 346q91 0 145 43.5t54 130.5v23q0 87 -54.5 131.5
t-144.5 44.5q-89 0 -142.5 -44.5t-53.5 -131.5v-23q0 -87 53.5 -130.5t142.5 -43.5z" />
    <glyph glyph-name="uni20A1" unicode="&#x20a1;" 
d="M600 -231l27 206q-107 6 -195 52l-31 -258h-59l35 292q-219 167 -219 654q0 648 385 727l26 219h60l-25 -211q36 4 62 4q76 0 137 -20l26 227h60l-29 -250q72 -36 125.5 -101.5t85.5 -150.5l-63 -24q-48 140 -158 204l-158 -1296q115 6 196 73t120 181l63 -27
q-48 -131 -146.5 -210t-238.5 -85l-24 -206h-62zM666 1389q-41 0 -72 -5l-156 -1284q83 -53 197 -59l160 1325q-56 23 -129 23zM236 637q0 -347 151 -492l150 1225q-301 -86 -301 -577v-156z" />
    <glyph glyph-name="uni20A4" unicode="&#x20a4;" 
d="M1081 70v-70h-919v90q86 59 135.5 150t50.5 206v19h-231v61h229q-12 90 -70 242h-159v61h139q-39 123 -39 209q0 190 123 303t324 113q288 0 434 -240l-62 -36q-128 208 -374 208q-170 0 -268.5 -91t-98.5 -259q0 -106 37 -207h499v-61h-477q2 -5 13 -37.5t14 -41.5
t11.5 -36t12 -43t8.5 -39t7 -45h411v-61h-409v-16q-3 -116 -51.5 -212.5t-132.5 -160.5v-6h843z" />
    <glyph glyph-name="uni20A6" unicode="&#x20a6;" 
d="M1030 838v-244h144v-57h-144v-537h-110l-256 537h-400v-537h-65v537h-144v57h144v244h-144v57h144v535h110l256 -535h400v535h65v-535h144v-57h-144zM590 838l119 -244h256v244h-375zM264 594h375l-119 244h-256v-244zM956 84h9v453h-230zM264 1346v-451h228l-220 451h-8
z" />
    <glyph glyph-name="uni20A8" unicode="&#x20a8;" 
d="M211 0h-74v1430h203q178 0 259 -96.5t81 -280.5q0 -309 -225 -363l241 -483q45 -88 97 -128t135 -40q85 0 138.5 45t53.5 127q0 36 -7 63t-29 57t-36 45t-55 56l-71 72q-81 81 -115.5 136t-34.5 128q0 82 58 142.5t157 60.5q107 0 189 -70l-39 -51q-63 57 -146 57
q-68 0 -108.5 -39t-40.5 -100q0 -41 16 -76.5t35 -57.5t64 -67l14 -14l69 -70q84 -84 117 -138t33 -134q0 -106 -69.5 -171t-194.5 -65q-104 0 -171.5 44t-119.5 149l-252 508h-57h-115v-676zM211 739h125q134 0 201 68.5t67 198.5v92q0 130 -67 198t-201 68h-125v-625z" />
    <glyph glyph-name="uni20A9" unicode="&#x20a9;" 
d="M518 526l-153 -526h-121l-27 526h-141v58h139l-12 250h-127v57h125l-27 539h70l24 -539h695l26 539h66l-27 -539h125v-57h-127l-12 -250h139v-58h-143l-25 -526h-121l-155 526h-191zM549 834h-279l11 -250h192zM961 834h-277l74 -250h190zM305 70h14l138 456h-172z
M913 70h13l20 456h-170zM692 584l-71 250h-13l-73 -250h157z" />
    <glyph glyph-name="uni20AA" unicode="&#x20aa;" 
d="M438 0v1161h72v-1100h246q112 0 177.5 70.5t65.5 200.5v1098h72v-1090q0 -163 -83.5 -251.5t-231.5 -88.5h-318zM229 0h-71v1430h317q148 0 232 -88t84 -250v-824h-72v830q0 130 -66 200t-178 70h-246v-1368z" />
    <glyph glyph-name="uni20AB" unicode="&#x20ab;" 
d="M889 240v147h-6q-37 -74 -118 -122t-198 -48q-191 0 -296 117t-105 338q0 222 105 339t296 117q117 0 198 -49t118 -123h6v353h-332v59h332v148h69v-148h146v-59h-146v-1069h-69zM586 276q125 0 214 70t89 180v291q0 110 -89 180t-214 70q-162 0 -253 -91t-91 -247v-113
q0 -157 91.5 -248.5t252.5 -91.5zM1028 0h-862v63h862v-63z" />
    <glyph glyph-name="Euro" unicode="&#x20ac;" 
d="M666 -25q-252 0 -380 181t-128 559t128 558.5t380 180.5q150 0 252.5 -79.5t152.5 -215.5l-63 -26q-43 120 -129.5 188t-212.5 68q-192 0 -298.5 -124.5t-125.5 -367.5h516v-61h-518q-2 -14 -2 -50v-143q0 -41 2 -57h518v-62h-516q20 -237 127 -360t297 -123
q126 0 212.5 68t129.5 188l63 -27q-50 -136 -152.5 -215.5t-252.5 -79.5z" />
    <glyph glyph-name="uni20AD" unicode="&#x20ad;" 
d="M326 719v-719h-76v719h-180v63h180v648h76v-648h159l519 648h86l-519 -648h498v-63h-494l547 -719h-90l-545 719h-161z" />
    <glyph glyph-name="uni20AE" unicode="&#x20ae;" 
d="M967 651l-314 -151v-500h-75v465l-314 -150v66l314 151v246l-314 -151v67l314 150v518h-502v68h1077v-68h-500v-485l314 151v-67l-314 -150v-246l314 152v-66z" />
    <glyph glyph-name="uni20B1" unicode="&#x20b1;" 
d="M309 496v-496h-76v780h-120v62h120v241h-120v62h120v285h437q146 0 235.5 -75t116.5 -210h135v-62h-127q2 -6 2 -122q0 -113 -2 -119h127v-62h-135q-27 -134 -116.5 -209t-235.5 -75h-361zM309 1364v-221h643q-18 98 -90.5 159.5t-191.5 61.5h-361zM309 842h647v241h-647
v-241zM309 561h361q119 0 191.5 61.5t90.5 159.5h-643v-221z" />
    <glyph glyph-name="uni20B2" unicode="&#x20b2;" 
d="M420 -231l45 231q-313 125 -313 715q0 379 125.5 559t369.5 180q32 0 82 -8l41 215h64l-43 -229q91 -31 156 -102.5t102 -170.5l-64 -24q-58 173 -207 231l-131 -707h404v-118q0 -152 -30.5 -262.5t-89 -176.5t-137.5 -96.5t-182 -30.5q-25 0 -88 11l-41 -217h-63z
M477 70l242 1312q-27 7 -72 7q-204 0 -311 -152t-107 -444v-156q0 -454 248 -567zM612 39q176 0 271.5 114t95.5 369v74h-344l-100 -547q45 -10 77 -10z" />
    <glyph glyph-name="uni20B4" unicode="&#x20b4;" 
d="M633 -25q-185 0 -293.5 96.5t-108.5 260.5q0 113 70 213h-217v61h268l422 254v6h-690v62h768q63 71 63 188q0 127 -81.5 200t-221.5 73q-189 0 -336 -160l-51 47q164 178 391 178q169 0 271 -90.5t102 -245.5q0 -121 -57 -190h213v-62h-260l-422 -256v-4h682v-61h-760
q-80 -89 -80 -209q0 -140 87 -217.5t243 -77.5q195 0 366 182l50 -47q-88 -100 -197 -150.5t-221 -50.5z" />
    <glyph glyph-name="uni20B5" unicode="&#x20b5;" 
d="M424 -231l45 241q-311 123 -311 705q0 378 128 558.5t380 180.5q39 0 69 -6l39 213h64l-41 -225q187 -54 274 -277l-63 -24q-65 183 -226 235l-243 -1315q55 -14 127 -14q127 0 214 68t128 188l63 -27q-50 -136 -152.5 -215.5t-252.5 -79.5q-65 0 -138 17l-41 -223h-63z
M481 78l242 1306q-31 5 -55 5q-214 0 -323 -151.5t-109 -444.5v-156q0 -440 245 -559z" />
    <glyph glyph-name="uni20B8" unicode="&#x20b8;" 
d="M1143 1364h-1057v66h1057v-66zM1143 1055h-492v-1055h-73v1055h-492v65h1057v-65z" />
    <glyph glyph-name="uni20B9" unicode="&#x20b9;" 
d="M1006 0h-93l-491 645h-285v64h385q141 0 218 80t77 210v25h-680v63h678q-2 117 -81.5 197t-211.5 80h-385v66h991v-66h-415v-4q75 -33 122.5 -104.5t51.5 -168.5h241v-63h-235v-6q-3 -164 -93.5 -264.5t-252.5 -106.5h-35z" />
    <glyph glyph-name="uni20BA" unicode="&#x20ba;" 
d="M340 0v594l-252 -121v66l252 120v246l-252 -121v68l252 119v459h76v-424l413 198v-67l-413 -199v-246l413 199v-66l-413 -198v-559h184q196 0 308 155.5t112 401.5h74q0 -179 -55 -318.5t-167.5 -223t-267.5 -83.5h-264z" />
    <glyph glyph-name="uni20BD" unicode="&#x20bd;" 
d="M870 336h-495v-336h-76v336h-205v63h205v244h-205v68h205v719h475q178 0 273.5 -105.5t95.5 -288.5t-96 -288t-273 -105h-399v-244h495v-63zM375 1362v-651h399q139 0 214 78.5t75 195.5v102q0 118 -75 196.5t-214 78.5h-399z" />
    <glyph glyph-name="uni20BF" unicode="&#x20bf;" 
d="M657 -231v231h-184v-231h-61v231h-215v1430h215v231h61v-231h184v231h62v-236q138 -17 213.5 -110t75.5 -250q0 -257 -205 -326v-4q130 -26 198 -116t68 -236q0 -170 -92 -273.5t-258 -109.5v-231h-62zM272 1364v-604h381q132 0 203.5 73.5t71.5 186.5v84
q0 113 -71.5 186.5t-203.5 73.5h-381zM272 696v-630h422q142 0 218.5 77.5t76.5 194.5v86q0 117 -76.5 194.5t-218.5 77.5h-422z" />
    <glyph glyph-name="uni2113" unicode="&#x2113;" 
d="M645 -25q-278 0 -278 359v67q-57 -44 -140 -96l-32 51q108 66 172 121v686q0 377 247 377q115 0 174.5 -76t59.5 -225q0 -210 -112 -420.5t-298 -376.5v-100q0 -156 50 -230.5t159 -74.5q54 0 99 17t81.5 51.5t63 71.5t57.5 91l56 -30q-28 -55 -59 -98t-74.5 -82.5
t-100.5 -61t-125 -21.5zM614 1479q-176 0 -176 -312v-643q154 154 248 340.5t94 364.5v28q0 112 -44 167t-122 55z" />
    <glyph glyph-name="uni2116" unicode="&#x2116;" 
d="M993 739q-109 0 -160 85.5t-51 267.5q0 181 51 265.5t160 84.5t160 -84.5t51 -265.5q0 -182 -51 -267.5t-160 -85.5zM184 0h-65v1430h119l358 -1340h8v1340h66v-1430h-119l-358 1339h-9v-1339zM993 795q80 0 113 62t33 175v117q0 115 -33 177.5t-113 62.5t-112.5 -62.5
t-32.5 -177.5v-117q0 -114 32.5 -175.5t112.5 -61.5zM1194 588h-399v57h399v-57z" />
    <glyph glyph-name="trademark" unicode="&#x2122;" 
d="M289 874h-56v508h-200v48h456v-48h-200v-508zM668 874h-50v556h68l168 -330h6l170 330h64v-556h-50v478h-4l-184 -351l-184 351h-4v-478z" />
    <glyph glyph-name="Omega" unicode="&#x2126;" 
d="M147 0v63h310v35q-61 35 -112 90t-94 135.5t-67 194.5t-24 250q0 686 454 686q455 0 455 -686q0 -136 -24 -250t-67 -194.5t-94 -135.5t-112 -90v-35h309v-63h-379v127q52 22 101 69t91 115.5t67.5 166.5t25.5 210v154q0 547 -373 547q-372 0 -372 -547v-154
q0 -112 25.5 -210t67 -166.5t90.5 -115.5t101 -69v-127h-379z" />
    <glyph glyph-name="uni212E" unicode="&#x212e;" 
d="M180 715v-348q53 -152 167 -245t267 -93q159 0 265.5 76t183.5 217l51 -27q-175 -320 -500 -320q-167 0 -295.5 96.5t-197 264.5t-68.5 379t68.5 379t197 264t295.5 96t295.5 -96t197.5 -264t69 -379h-996zM180 766h869v299q-55 152 -168.5 244t-266.5 92t-266 -92
t-168 -244v-299z" />
    <glyph glyph-name="uni2150" unicode="&#x2150;" 
d="M80 743v52h227v579l-239 -121l-23 43l254 134h68v-635h204v-52h-491zM735 815l373 615h68l-373 -615h-68zM53 0l373 614h68l-373 -614h-68zM827 0l285 635h-356v-158h-56v209h471v-55l-280 -631h-64z" />
    <glyph glyph-name="uni2151" unicode="&#x2151;" 
d="M80 743v52h227v579l-239 -121l-23 43l254 134h68v-635h204v-52h-491zM735 815l373 615h68l-373 -615h-68zM53 0l373 614h68l-373 -614h-68zM791 0q124 82 193 165t99 200l-6 2q-55 -99 -188 -99q-101 0 -161 56.5t-60 154.5q0 102 64 160.5t177 58.5q111 0 173.5 -62
t62.5 -183q0 -145 -77.5 -262.5t-188.5 -190.5h-88zM905 317q79 0 127.5 40t48.5 116v19q0 77 -48 117t-128 40t-128 -40t-48 -117v-19q0 -76 48.5 -116t127.5 -40z" />
    <glyph glyph-name="uni2153" unicode="&#x2153;" 
d="M80 743v52h227v579l-239 -121l-23 43l254 134h68v-635h204v-52h-491zM735 815l373 615h68l-373 -615h-68zM53 0l373 614h68l-373 -614h-68zM911 -12q-154 0 -233 112l45 35q32 -47 75.5 -71.5t112.5 -24.5q86 0 132.5 39t46.5 108v13q0 133 -177 133h-94v51h84
q172 0 172 129v14q0 55 -41 88t-116 33q-118 0 -181 -86l-41 35q74 102 226 102q99 0 157 -48t58 -128q0 -64 -35.5 -104.5t-97.5 -52.5v-7q147 -28 147 -168q0 -94 -63.5 -148t-176.5 -54z" />
    <glyph glyph-name="uni2154" unicode="&#x2154;" 
d="M72 743v56l254 219q137 120 137 217v16q0 63 -40 101.5t-122 38.5q-78 0 -121 -35t-67 -101l-54 19q55 168 244 168q105 0 164 -53.5t59 -141.5q0 -69 -41 -132.5t-127 -135.5l-219 -184h414v-52h-481zM735 815l373 615h68l-373 -615h-68zM53 0l373 614h68l-373 -614h-68
zM911 -12q-154 0 -233 112l45 35q32 -47 75.5 -71.5t112.5 -24.5q86 0 132.5 39t46.5 108v13q0 133 -177 133h-94v51h84q172 0 172 129v14q0 55 -41 88t-116 33q-118 0 -181 -86l-41 35q74 102 226 102q99 0 157 -48t58 -128q0 -64 -35.5 -104.5t-97.5 -52.5v-7
q147 -28 147 -168q0 -94 -63.5 -148t-176.5 -54z" />
    <glyph glyph-name="uni2155" unicode="&#x2155;" 
d="M80 743v52h227v579l-239 -121l-23 43l254 134h68v-635h204v-52h-491zM735 815l373 615h68l-373 -615h-68zM53 0l373 614h68l-373 -614h-68zM928 -12q-155 0 -234 112l45 35q35 -48 79 -72t112 -24q87 0 134.5 46.5t47.5 117.5v10q0 156 -172 156q-98 0 -164 -66l-55 6
l27 377h395v-51h-348l-19 -289h4q66 72 174 72q105 0 162.5 -54.5t57.5 -150.5q0 -103 -65.5 -164t-180.5 -61z" />
    <glyph glyph-name="uni2156" unicode="&#x2156;" 
d="M72 743v56l254 219q137 120 137 217v16q0 63 -40 101.5t-122 38.5q-78 0 -121 -35t-67 -101l-54 19q55 168 244 168q105 0 164 -53.5t59 -141.5q0 -69 -41 -132.5t-127 -135.5l-219 -184h414v-52h-481zM735 815l373 615h68l-373 -615h-68zM53 0l373 614h68l-373 -614h-68
zM928 -12q-155 0 -234 112l45 35q35 -48 79 -72t112 -24q87 0 134.5 46.5t47.5 117.5v10q0 156 -172 156q-98 0 -164 -66l-55 6l27 377h395v-51h-348l-19 -289h4q66 72 174 72q105 0 162.5 -54.5t57.5 -150.5q0 -103 -65.5 -164t-180.5 -61z" />
    <glyph glyph-name="uni2157" unicode="&#x2157;" 
d="M291 731q-154 0 -234 113l45 35q66 -97 189 -97q85 0 131.5 39t46.5 109v12q0 133 -176 133h-94v51h84q172 0 172 129v15q0 55 -41.5 88t-116.5 33q-117 0 -180 -86l-41 34q75 103 225 103q99 0 157 -48t58 -128q0 -64 -35.5 -105t-97.5 -53v-6q147 -28 147 -168
q0 -95 -63 -149t-176 -54zM735 815l373 615h68l-373 -615h-68zM53 0l373 614h68l-373 -614h-68zM928 -12q-155 0 -234 112l45 35q35 -48 79 -72t112 -24q87 0 134.5 46.5t47.5 117.5v10q0 156 -172 156q-98 0 -164 -66l-55 6l27 377h395v-51h-348l-19 -289h4q66 72 174 72
q105 0 162.5 -54.5t57.5 -150.5q0 -103 -65.5 -164t-180.5 -61z" />
    <glyph glyph-name="uni2158" unicode="&#x2158;" 
d="M406 743v156h-373v57l350 474h82v-482h115v-49h-115v-156h-59zM86 948h320v424h-7zM735 815l373 615h68l-373 -615h-68zM53 0l373 614h68l-373 -614h-68zM928 -12q-155 0 -234 112l45 35q35 -48 79 -72t112 -24q87 0 134.5 46.5t47.5 117.5v10q0 156 -172 156
q-98 0 -164 -66l-55 6l27 377h395v-51h-348l-19 -289h4q66 72 174 72q105 0 162.5 -54.5t57.5 -150.5q0 -103 -65.5 -164t-180.5 -61z" />
    <glyph glyph-name="uni2159" unicode="&#x2159;" 
d="M80 743v52h227v579l-239 -121l-23 43l254 134h68v-635h204v-52h-491zM735 815l373 615h68l-373 -615h-68zM53 0l373 614h68l-373 -614h-68zM934 -12q-111 0 -173.5 62t-62.5 183q0 145 78 262.5t189 190.5h88q-125 -82 -194.5 -165t-98.5 -199l6 -3q56 99 188 99
q101 0 161.5 -57t60.5 -154q0 -102 -64.5 -160.5t-177.5 -58.5zM938 37q80 0 128 40.5t48 117.5v18q0 76 -48.5 116t-127.5 40t-127.5 -40t-48.5 -116v-18q0 -77 48 -117.5t128 -40.5z" />
    <glyph glyph-name="uni215A" unicode="&#x215a;" 
d="M313 731q-153 0 -233 113l45 35q35 -48 78.5 -72.5t111.5 -24.5q87 0 135 46.5t48 117.5v10q0 156 -172 156q-99 0 -164 -65l-56 6l27 377h395v-52h-348l-18 -288h4q65 71 174 71q105 0 162 -54.5t57 -150.5q0 -103 -65.5 -164t-180.5 -61zM735 815l373 615h68l-373 -615
h-68zM53 0l373 614h68l-373 -614h-68zM934 -12q-111 0 -173.5 62t-62.5 183q0 145 78 262.5t189 190.5h88q-125 -82 -194.5 -165t-98.5 -199l6 -3q56 99 188 99q101 0 161.5 -57t60.5 -154q0 -102 -64.5 -160.5t-177.5 -58.5zM938 37q80 0 128 40.5t48 117.5v18
q0 76 -48.5 116t-127.5 40t-127.5 -40t-48.5 -116v-18q0 -77 48 -117.5t128 -40.5z" />
    <glyph glyph-name="uni215B" unicode="&#x215b;" 
d="M80 743v52h227v579l-239 -121l-23 43l254 134h68v-635h204v-52h-491zM735 815l373 615h68l-373 -615h-68zM53 0l373 614h68l-373 -614h-68zM922 -12q-124 0 -191 52.5t-67 141.5q0 71 42.5 112.5t116.5 55.5v8q-68 18 -101.5 61t-33.5 99q0 82 63 131t171 49t170.5 -49
t62.5 -131q0 -56 -33.5 -99t-101.5 -61v-8q160 -31 160 -168q0 -89 -67 -141.5t-191 -52.5zM922 377q87 0 130.5 34.5t43.5 94.5v14q0 60 -43.5 94.5t-130.5 34.5t-130.5 -34.5t-43.5 -94.5v-14q0 -60 43.5 -94.5t130.5 -34.5zM922 37q95 0 145.5 36t50.5 101v19
q0 65 -50.5 101t-145.5 36t-146 -36t-51 -101v-19q0 -65 51 -101t146 -36z" />
    <glyph glyph-name="uni215C" unicode="&#x215c;" 
d="M291 731q-154 0 -234 113l45 35q66 -97 189 -97q85 0 131.5 39t46.5 109v12q0 133 -176 133h-94v51h84q172 0 172 129v15q0 55 -41.5 88t-116.5 33q-117 0 -180 -86l-41 34q75 103 225 103q99 0 157 -48t58 -128q0 -64 -35.5 -105t-97.5 -53v-6q147 -28 147 -168
q0 -95 -63 -149t-176 -54zM735 815l373 615h68l-373 -615h-68zM53 0l373 614h68l-373 -614h-68zM922 -12q-124 0 -191 52.5t-67 141.5q0 71 42.5 112.5t116.5 55.5v8q-68 18 -101.5 61t-33.5 99q0 82 63 131t171 49t170.5 -49t62.5 -131q0 -56 -33.5 -99t-101.5 -61v-8
q160 -31 160 -168q0 -89 -67 -141.5t-191 -52.5zM922 377q87 0 130.5 34.5t43.5 94.5v14q0 60 -43.5 94.5t-130.5 34.5t-130.5 -34.5t-43.5 -94.5v-14q0 -60 43.5 -94.5t130.5 -34.5zM922 37q95 0 145.5 36t50.5 101v19q0 65 -50.5 101t-145.5 36t-146 -36t-51 -101v-19
q0 -65 51 -101t146 -36z" />
    </font>
</defs>
</svg>
