<?xml version="1.0" standalone="no"?>
<!DOCTYPE svg PUBLIC "-//W3C//DTD SVG 1.1//EN" "http://www.w3.org/Graphics/SVG/1.1/DTD/svg11.dtd" >
<svg xmlns="http://www.w3.org/2000/svg" xmlns:xlink="http://www.w3.org/1999/xlink" version="1.1">
<metadata>
Created by FontForge 20170731 at Tue Dec 29 01:52:07 2020
 By Aleksey,,,
Copyright 2017 IBM Corp. All rights reserved.
</metadata>
<defs>
<font id="IBMPlexMono-Italic" horiz-adv-x="1228" >
  <font-face 
    font-family="IBM Plex Mono"
    font-weight="400"
    font-style="italic"
    font-stretch="normal"
    units-per-em="2048"
    panose-1="2 11 5 9 5 2 3 0 2 3"
    ascent="1597"
    descent="-451"
    x-height="1057"
    cap-height="1430"
    bbox="-399 -510 1491 2306"
    underline-thickness="122"
    underline-position="-470"
    slope="-9.5"
    unicode-range="U+0020-FB02"
  />
<missing-glyph 
d="M66 0v1597h1097v-1597h-1097zM188 123h852v1352h-852v-1352z" />
    <glyph glyph-name=".notdef" 
d="M66 0v1597h1097v-1597h-1097zM188 123h852v1352h-852v-1352z" />
    <glyph glyph-name=".null" horiz-adv-x="0" 
 />
    <glyph glyph-name="nonmarkingreturn" horiz-adv-x="682" 
 />
    <glyph glyph-name="space" unicode=" " 
 />
    <glyph glyph-name="exclam" unicode="!" 
d="M637 477h-64l35 537l70 416h176l-70 -416zM526 -18q-68 0 -100.5 24.5t-32.5 65.5q0 18 8 67q20 121 166 121q68 0 100.5 -24.5t32.5 -65.5q0 -19 -8 -68q-19 -120 -166 -120z" />
    <glyph glyph-name="quotedbl" unicode="&#x22;" 
d="M582 950h-152l94 566h152zM940 950h-152l95 566h151z" />
    <glyph glyph-name="numbersign" unicode="#" 
d="M139 0l152 444h-266l22 131h289l94 279h-264l22 131h287l152 445h149l-487 -1430h-150zM516 0l488 1430h149l-152 -445h267l-23 -131h-289l-94 -279h264l-22 -131h-287l-151 -444h-150z" />
    <glyph glyph-name="dollar" unicode="$" 
d="M422 -231l35 213q-142 17 -247.5 83t-162.5 166l127 101q119 -182 307 -207l90 545l-32 8q-330 74 -330 350q0 192 134.5 306t358.5 120l35 207h123l-37 -213q135 -18 230 -79.5t145 -151.5l-123 -91q-103 156 -276 179l-86 -510l53 -13q328 -75 328 -348
q0 -198 -139.5 -324t-374.5 -135l-35 -206h-123zM381 1040q0 -90 53 -140t164 -79l80 488q-138 -9 -217.5 -80.5t-79.5 -188.5zM922 420q0 89 -55 143t-179 80l-86 -520q148 12 234 91.5t86 205.5z" />
    <glyph glyph-name="percent" unicode="%" 
d="M393 731q-123 0 -193.5 75t-70.5 218q0 189 103 309.5t255 120.5q123 0 194 -75t71 -218q0 -189 -103.5 -309.5t-255.5 -120.5zM397 840q84 0 134 52.5t65 147.5q22 136 22 156q0 73 -34 111.5t-101 38.5q-84 0 -133 -53t-65 -148q-23 -142 -23 -156q0 -149 135 -149z
M768 815l428 615h147l-428 -615h-147zM-49 0l428 614h147l-428 -614h-147zM807 -25q-123 0 -193.5 75t-70.5 218q0 189 103 309.5t255 120.5q123 0 193.5 -74.5t70.5 -217.5q0 -189 -103 -310t-255 -121zM811 84q84 0 134 53t65 148q22 136 22 155q0 73 -34 111.5t-101 38.5
q-84 0 -134 -53t-65 -148q-22 -136 -22 -156q0 -149 135 -149z" />
    <glyph glyph-name="ampersand" unicode="&#x26;" 
d="M336 -25q-157 0 -245.5 104t-88.5 271q0 59 10 114.5t37.5 114t69.5 102.5t111.5 75.5t158.5 38.5q-48 99 -68 162.5t-20 129.5q0 165 106.5 266t274.5 101q153 0 245.5 -88t92.5 -256q0 -188 -107 -298t-297 -142l281 -549h35l160 264l112 -57l-102 -191
q-48 -88 -91.5 -125t-103.5 -37q-85 0 -142 72.5t-106 228.5h-10q-13 -87 -44.5 -148.5t-76 -93.5t-91.5 -45.5t-101 -13.5zM360 115q201 0 250 225l-182 375q-55 -8 -97 -26.5t-67 -40.5t-42.5 -53.5t-25.5 -57.5t-14 -60q-10 -54 -10 -119q0 -129 46 -186t142 -57z
M670 1321q-97 0 -153 -56.5t-56 -172.5q0 -67 22 -136.5t74 -167.5l23 -43q199 49 256 209q22 65 22 150q0 217 -188 217z" />
    <glyph glyph-name="quotesingle" unicode="'" 
d="M760 950h-152l94 566h152z" />
    <glyph glyph-name="parenleft" unicode="(" 
d="M422 442q0 171 49.5 344t132.5 316.5t187.5 260.5t218.5 193h174q-220 -149 -379.5 -367.5t-200.5 -463.5l-29 -174q-12 -73 -12 -152q0 -206 87 -383.5t229 -298.5h-158q-132 113 -215.5 304.5t-83.5 420.5z" />
    <glyph glyph-name="parenright" unicode=")" 
d="M846 831q0 -171 -49.5 -344t-132.5 -316.5t-187.5 -260.5t-218.5 -193h-174q220 149 379.5 367.5t200.5 464.5l28 174q13 80 13 151q0 206 -87 383.5t-229 298.5h158q132 -113 215.5 -304.5t83.5 -420.5z" />
    <glyph glyph-name="asterisk" unicode="*" 
d="M606 465l-309 -352l-109 90l308 344l-381 141l61 123l389 -131l74 442h147l-73 -442l420 131l18 -131l-424 -139l195 -344l-119 -84z" />
    <glyph glyph-name="plus" unicode="+" 
d="M623 127h-152l72 430h-406l23 135h405l72 430h151l-71 -430h405l-22 -135h-406z" />
    <glyph glyph-name="comma" unicode="," 
d="M285 -289l200 565h260l-325 -565h-135z" />
    <glyph glyph-name="hyphen" unicode="-" 
d="M907 539h-585l28 168h586z" />
    <glyph glyph-name="period" unicode="." 
d="M526 -18q-68 0 -100.5 25.5t-32.5 66.5q0 15 8 65q20 121 166 121q68 0 100.5 -25.5t32.5 -66.5q0 -16 -8 -66q-19 -120 -166 -120z" />
    <glyph glyph-name="slash" unicode="/" 
d="M199 -283h-148l1016 1839h150z" />
    <glyph glyph-name="zero" unicode="0" 
d="M532 -25q-405 0 -405 486q0 82 8 168.5t29 185.5t52.5 188.5t82.5 173t114.5 144t153.5 97t195 36.5q405 0 405 -485q0 -82 -8 -168.5t-29 -185.5t-52.5 -188.5t-82.5 -173t-114.5 -144.5t-153.5 -97.5t-195 -36.5zM545 123q161 0 265 125.5t142 349.5l39 233
q15 92 15 168q0 308 -256 308q-161 0 -265.5 -126t-142.5 -350l-39 -233q-14 -85 -14 -168q0 -307 256 -307zM629 596q-59 0 -87 21t-28 55q0 7 8 57q17 105 144 105q58 0 86 -20.5t28 -55.5q0 -8 -8 -58q-17 -104 -143 -104z" />
    <glyph glyph-name="one" unicode="1" 
d="M1042 0h-956l25 147h409l195 1156h-17l-415 -336l-84 108l436 355h268l-215 -1283h379z" />
    <glyph glyph-name="two" unicode="2" 
d="M1034 145l-24 -145h-951l29 174l549 432q170 134 229.5 214.5t79.5 201.5q6 37 6 65q0 100 -67 161t-185 61q-121 0 -200.5 -66t-132.5 -180l-148 57q149 334 500 334q189 0 299 -100t110 -264q0 -162 -96.5 -299t-296.5 -289l-465 -357h764z" />
    <glyph glyph-name="three" unicode="3" 
d="M442 821h158q144 0 231.5 64t108.5 176q8 46 8 65q0 85 -63.5 134t-169.5 49q-197 0 -330 -185l-113 97q83 108 192 170.5t267 62.5q181 0 288 -83t107 -234q0 -137 -89.5 -241t-250.5 -140l-2 -8q112 -18 183 -99t71 -211q0 -93 -38 -176.5t-107 -147.5t-174 -101.5
t-230 -37.5q-76 0 -140.5 14.5t-109 37.5t-82.5 58t-61.5 67.5t-46.5 74.5l139 86q23 -45 47 -76.5t60.5 -59.5t89.5 -42t123 -14q148 0 237 66.5t109 193.5q8 54 8 76q0 106 -68.5 163.5t-205.5 57.5h-170z" />
    <glyph glyph-name="four" unicode="4" 
d="M850 0h-160l47 281h-706l26 157l805 992h228l-170 -1010h215l-23 -139h-215zM893 1257l-682 -837h549l141 837h-8z" />
    <glyph glyph-name="five" unicode="5" 
d="M1169 1430l-24 -146h-633l-133 -551h12q69 78 139.5 116t171.5 38q173 0 277 -100t104 -271q0 -85 -22 -164t-68 -148t-111.5 -119.5t-157.5 -80t-200 -29.5q-153 0 -260.5 69.5t-165.5 174.5l144 94q34 -63 68 -101t93.5 -63.5t141.5 -25.5q146 0 237.5 77t114.5 216
q8 49 8 90q0 114 -68 176.5t-198 62.5q-93 0 -157 -30.5t-128 -89.5l-139 18l180 787h774z" />
    <glyph glyph-name="six" unicode="6" 
d="M530 -25q-193 0 -299 116.5t-106 320.5q0 127 41 256.5t108 239.5t156 211t183 178t190 133h225q-278 -178 -435 -341.5t-257 -400.5l10 -4q157 205 377 205q171 0 272 -101t101 -272q0 -106 -39.5 -203t-110.5 -172.5t-179 -120.5t-237 -45zM555 119q146 0 240.5 80
t119.5 227q9 56 9 82q0 118 -67.5 180t-197.5 62q-146 0 -240.5 -80.5t-119.5 -227.5q-8 -50 -8 -82q0 -118 67 -179.5t197 -61.5z" />
    <glyph glyph-name="seven" unicode="7" 
d="M455 0h-187l762 1284h-622l-43 -266h-152l68 412h952l-25 -148z" />
    <glyph glyph-name="eight" unicode="8" 
d="M522 -25q-215 0 -326.5 96.5t-111.5 256.5q0 151 94 262t262 155l2 17q-95 34 -145.5 106t-50.5 172q0 79 34 152.5t97.5 132t164.5 94t224 35.5q192 0 296.5 -84t104.5 -231q0 -125 -81 -229t-226 -150l-2 -17q118 -33 178 -109.5t60 -209.5q0 -91 -38 -171.5
t-108.5 -142.5t-181 -98.5t-246.5 -36.5zM547 119q157 0 251 69t115 191q11 68 11 88q0 104 -75 160.5t-212 56.5q-157 0 -251.5 -69t-115.5 -191q-10 -62 -10 -88q0 -104 75 -160.5t212 -56.5zM664 821q137 0 221 63t102 167q6 37 6 67q0 92 -65.5 142.5t-186.5 50.5
q-137 0 -221 -63t-102 -167q-6 -37 -6 -67q0 -92 65.5 -142.5t186.5 -50.5z" />
    <glyph glyph-name="nine" unicode="9" 
d="M1149 1018q0 -127 -41 -256.5t-108 -239.5t-156 -211t-183 -178t-190 -133h-227q138 89 237.5 165.5t187 165t152.5 188t117 222.5l-10 4q-75 -96 -165 -150t-212 -54q-171 0 -272 100.5t-101 271.5q0 106 39 203t110 172.5t179 120.5t237 45q193 0 299.5 -116
t106.5 -320zM614 680q146 0 241 80t120 227q8 50 8 82q0 118 -67 180t-197 62q-146 0 -241 -80t-120 -227q-8 -50 -8 -82q0 -118 67 -180t197 -62z" />
    <glyph glyph-name="colon" unicode=":" 
d="M526 -18q-68 0 -100.5 25.5t-32.5 66.5q0 15 8 65q20 121 166 121q68 0 100.5 -25.5t32.5 -66.5q0 -16 -8 -66q-19 -120 -166 -120zM662 797q-68 0 -101 25.5t-33 66.5q0 9 9 65q20 121 165 121q68 0 101 -25.5t33 -66.5q0 -9 -9 -65q-20 -121 -165 -121z" />
    <glyph glyph-name="semicolon" unicode=";" 
d="M285 -289l200 565h260l-325 -565h-135zM662 797q-68 0 -101 25.5t-33 66.5q0 9 9 65q20 121 165 121q68 0 101 -25.5t33 -66.5q0 -9 -9 -65q-20 -121 -165 -121z" />
    <glyph glyph-name="less" unicode="&#x3c;" 
d="M969 41l-789 508l27 156l958 509l-28 -174l-793 -415l-2 -17l653 -413z" />
    <glyph glyph-name="equal" unicode="=" 
d="M1137 764h-965l23 135h964zM1069 356h-965l23 136h965z" />
    <glyph glyph-name="greater" unicode="&#x3e;" 
d="M100 41l29 176l793 414l2 16l-654 416l27 151l788 -507l-26 -156z" />
    <glyph glyph-name="question" unicode="?" 
d="M635 440h-158l53 322q217 28 311 91.5t117 201.5q5 31 5 59q0 89 -64 142t-170 53q-229 0 -321 -244l-146 61q26 68 66.5 124.5t98.5 103.5t139 73.5t177 26.5q183 0 288.5 -93t105.5 -249q0 -101 -36 -184t-100 -140t-148 -93t-183 -50zM489 -18q-68 0 -100.5 25.5
t-32.5 66.5q0 9 9 65q20 121 165 121q68 0 101 -25.5t33 -66.5q0 -10 -9 -66q-19 -120 -166 -120z" />
    <glyph glyph-name="at" unicode="@" 
d="M856 -100l-18 -129h-240q-258 0 -369.5 137t-111.5 418q0 144 37 366q67 412 199.5 587t375.5 175q206 0 314 -107.5t108 -281.5q0 -45 -10 -117l-125 -762h-144l29 174h-8q-71 -198 -238 -198q-101 0 -158 79t-57 244q0 103 22.5 201t65 177.5t110 128t150.5 48.5
q80 0 128.5 -43.5t62.5 -117.5h8l10 65q11 72 11 115q0 270 -277 270q-62 0 -112 -15t-96.5 -51t-82 -94.5t-65 -148t-49.5 -209.5l-52 -311q-14 -83 -14 -217q0 -193 76.5 -288t267.5 -95h252zM711 283q84 0 145 84q59 80 76 184l35 207q10 62 -25 112t-119 50
q-86 0 -134.5 -62t-70.5 -194l-20 -123q-8 -49 -8 -95q0 -163 121 -163z" />
    <glyph glyph-name="A" unicode="A" 
d="M1081 0h-176l-51 408h-504l-188 -408h-180l675 1430h226zM838 557l-88 700h-19l-317 -700h424z" />
    <glyph glyph-name="B" unicode="B" 
d="M94 0l240 1430h461q165 0 254.5 -88.5t89.5 -241.5q0 -136 -73.5 -226t-197.5 -124l-2 -9q105 -32 163 -99t58 -187q0 -119 -55.5 -223t-159 -168t-231.5 -64h-547zM285 147h321q254 0 291 218l10 61q8 50 8 76q0 78 -59 123t-164 45h-319zM395 809h293q114 0 180.5 49.5
t81.5 142.5l11 62q6 38 6 65q0 154 -201 154h-293z" />
    <glyph glyph-name="C" unicode="C" 
d="M588 -25q-428 0 -428 517q0 76 8 157.5t28.5 177t52 183t83 169.5t115.5 142t155.5 96.5t198.5 36.5q76 0 138.5 -19t104.5 -49.5t73 -73.5t48 -87t27 -95l-152 -49q-12 51 -28.5 88t-44.5 70.5t-73 50.5t-106 17q-167 0 -270 -126.5t-141 -355.5l-33 -196
q-16 -98 -16 -180q0 -154 67.5 -240t210.5 -86q61 0 108 16t88.5 54t75.5 86.5t78 126.5l134 -68q-58 -119 -122 -195.5t-160 -122t-220 -45.5z" />
    <glyph glyph-name="D" unicode="D" 
d="M113 0l239 1430h350q218 0 336.5 -128t118.5 -333q0 -487 -170.5 -728t-478.5 -241h-395zM305 147h217q170 0 276.5 112.5t143.5 332.5l33 196q14 86 14 177q0 155 -78 236t-229 81h-186z" />
    <glyph glyph-name="E" unicode="E" 
d="M977 0h-881l240 1430h876l-24 -148h-709l-82 -483h686l-24 -148h-686l-84 -504h712z" />
    <glyph glyph-name="F" unicode="F" 
d="M264 0h-168l240 1430h897l-25 -148h-729l-82 -485h670l-25 -148h-669z" />
    <glyph glyph-name="G" unicode="G" 
d="M827 0l35 209h-10q-33 -55 -61.5 -91.5t-70 -72t-95.5 -53t-121 -17.5q-182 0 -275.5 131t-93.5 386q0 76 8 157.5t29 177t52.5 183t83 169.5t115.5 142t155 96.5t198 36.5q76 0 138.5 -19t104.5 -49.5t73 -73.5t48 -87t27 -95l-151 -49q-12 51 -28.5 88t-44.5 70.5
t-73 50.5t-106 17q-169 0 -271.5 -127.5t-140.5 -356.5l-33 -196q-12 -73 -12 -166q0 -342 250 -342q140 0 230.5 96.5t115.5 243.5l19 110h-299l22 136h455l-117 -705h-156z" />
    <glyph glyph-name="H" unicode="H" 
d="M805 0l108 651h-557l-108 -651h-168l239 1430h168l-106 -631h557l106 631h168l-239 -1430h-168z" />
    <glyph glyph-name="I" unicode="I" 
d="M969 0h-885l22 135h359l194 1159h-358l23 136h884l-22 -136h-359l-194 -1159h358z" />
    <glyph glyph-name="J" unicode="J" 
d="M444 1430h689l-181 -1082q-31 -187 -147 -280t-295 -93q-167 0 -270.5 85.5t-120.5 248.5l162 35q12 -104 62.5 -161.5t170.5 -57.5q233 0 279 274l147 883h-520z" />
    <glyph glyph-name="K" unicode="K" 
d="M901 0l-313 707l-256 -254l-76 -453h-168l240 1430h168l-125 -744h8l274 291l455 453h213l-610 -607l374 -823h-184z" />
    <glyph glyph-name="L" unicode="L" 
d="M1006 0h-846l239 1430h166l-213 -1283h678z" />
    <glyph glyph-name="M" unicode="M" 
d="M846 0l121 717l77 459h-14l-432 -738l-182 738h-15l-75 -459l-119 -717h-154l240 1430h205l151 -633h13l362 633h215l-240 -1430h-153z" />
    <glyph glyph-name="N" unicode="N" 
d="M729 0l-272 1233h-15l-206 -1233h-156l239 1430h244l273 -1233h14l207 1233h155l-239 -1430h-244z" />
    <glyph glyph-name="O" unicode="O" 
d="M532 -25q-405 0 -405 486q0 82 8 168.5t28.5 185.5t52 188.5t82 173t114.5 144t154 97t196 36.5q405 0 405 -485q0 -82 -8 -168.5t-28.5 -185.5t-52 -188.5t-82 -173.5t-114.5 -144.5t-154 -97t-196 -36.5zM545 123q161 0 263 125t140 350l39 233q14 85 14 168
q0 151 -60 229.5t-191 78.5q-161 0 -263.5 -125.5t-140.5 -350.5l-39 -233q-14 -85 -14 -168q0 -151 60.5 -229t191.5 -78z" />
    <glyph glyph-name="P" unicode="P" 
d="M264 0h-168l240 1430h510q174 0 262 -90.5t88 -245.5q0 -229 -123 -357.5t-346 -128.5h-360zM479 1282l-88 -526h352q113 0 180.5 53.5t82.5 148.5l12 74q6 38 6 80q0 84 -52 127t-147 43h-346z" />
    <glyph glyph-name="Q" unicode="Q" 
d="M786 -373q-44 0 -76 23.5t-63 68.5l-178 261q-342 33 -342 481q0 82 8 168.5t28.5 185.5t52 188.5t82 173t114.5 144t154 97t196 36.5q405 0 405 -485q0 -111 -14 -225t-51 -242t-93.5 -231t-150 -181t-211.5 -102l148 -221l26 -7l205 185l90 -76l-125 -119
q-76 -73 -114.5 -98t-90.5 -25zM545 123q161 0 263 125t140 350l39 233q14 85 14 168q0 151 -60 229.5t-191 78.5q-161 0 -263.5 -125.5t-140.5 -350.5l-39 -233q-14 -85 -14 -168q0 -151 60.5 -229t191.5 -78z" />
    <glyph glyph-name="R" unicode="R" 
d="M367 612l-103 -612h-168l240 1430h510q174 0 262 -90.5t88 -245.5q0 -213 -113.5 -337.5t-316.5 -138.5l260 -618h-182l-244 612h-233zM391 756h352q107 0 176.5 51.5t86.5 150.5l12 74q6 38 6 80q0 84 -52 127t-147 43h-346z" />
    <glyph glyph-name="S" unicode="S" 
d="M545 -25q-178 0 -303 68t-191 184l127 101q67 -105 157.5 -156t217.5 -51q167 0 266 81t99 218q0 90 -52 143t-174 80l-153 35q-167 38 -246.5 124.5t-79.5 225.5q0 196 141.5 311t372.5 115q175 0 290.5 -64.5t176.5 -170.5l-123 -91q-123 183 -352 183
q-155 0 -244.5 -73t-89.5 -198q0 -95 56 -145.5t175 -77.5l150 -35q173 -40 248.5 -126t75.5 -222q0 -205 -148.5 -332t-396.5 -127z" />
    <glyph glyph-name="T" unicode="T" 
d="M1305 1282h-480l-215 -1282h-168l215 1282h-479l25 148h1126z" />
    <glyph glyph-name="U" unicode="U" 
d="M315 1430h168l-137 -820q-31 -182 -31 -256q0 -114 50.5 -172.5t179.5 -58.5q57 0 102 10.5t77.5 26.5t58.5 48t42 62t30.5 82.5t23 95t20.5 113.5l145 869h168l-139 -834q-17 -99 -32 -168.5t-37 -139.5t-48.5 -115t-64 -86t-85.5 -63.5t-111.5 -35.5t-143.5 -13
q-213 0 -307 92t-94 273q0 100 36 322z" />
    <glyph glyph-name="V" unicode="V" 
d="M641 0h-229l-189 1430h160l90 -715l72 -549h10l248 549l321 715h176z" />
    <glyph glyph-name="W" unicode="W" 
d="M342 0h-248l125 1430h150l-76 -805l-43 -457h16l334 889h193l43 -889h16l104 442l195 820h154l-351 -1430h-247l-31 862h-17z" />
    <glyph glyph-name="X" unicode="X" 
d="M752 723l340 -723h-181l-131 289l-139 305h-8l-242 -305l-227 -289h-197l596 737l-330 693h181l127 -277l131 -283h8l223 283l217 277h197z" />
    <glyph glyph-name="Y" unicode="Y" 
d="M610 0h-168l95 557l-353 873h181l145 -375l121 -330h8l235 330l269 375h200l-636 -859z" />
    <glyph glyph-name="Z" unicode="Z" 
d="M1065 147l-25 -147h-1030l25 152l995 1130h-766l25 148h958l-24 -152l-996 -1131h838z" />
    <glyph glyph-name="bracketleft" unicode="[" 
d="M893 -283h-565l307 1839h565l-20 -124h-428l-265 -1590h426z" />
    <glyph glyph-name="backslash" unicode="\" 
d="M907 -283h-129l-405 1839h129z" />
    <glyph glyph-name="bracketright" unicode="]" 
d="M328 1556h565l-307 -1839h-566l21 125h428l264 1590h-428z" />
    <glyph glyph-name="asciicircum" unicode="^" 
d="M1171 655l-133 -55l-278 690h-8l-500 -690l-119 72l551 758h180z" />
    <glyph glyph-name="underscore" unicode="_" 
d="M977 -342h-973l25 147h972z" />
    <glyph glyph-name="grave" unicode="`" 
d="M623 1198l-154 342l152 55l106 -356z" />
    <glyph glyph-name="a" unicode="a" 
d="M944 0h-160l41 250h-6q-66 -134 -154.5 -204.5t-220.5 -70.5q-160 0 -244.5 104t-84.5 306q0 74 11.5 150t35 155.5t63.5 148.5t93.5 124t129.5 86.5t166 31.5q117 0 196.5 -53.5t113.5 -155.5h6l31 185h159zM500 117q143 0 248 116q93 104 116 242l39 234
q18 107 -50.5 169t-190.5 62q-148 0 -237.5 -89.5t-115.5 -242.5l-24 -147q-9 -55 -9 -92q0 -120 57.5 -186t166.5 -66z" />
    <glyph glyph-name="b" unicode="b" 
d="M109 0l253 1516h160l-119 -709h7q66 134 154 204t220 70q161 0 245.5 -104t84.5 -305q0 -90 -15.5 -181.5t-53.5 -185.5t-93.5 -166.5t-143 -118t-194.5 -45.5q-117 0 -196 53t-113 156h-6l-31 -184h-159zM565 117q148 0 238.5 89.5t116.5 242.5l24 147q8 49 8 92
q0 120 -57 186t-166 66q-142 0 -248 -117q-94 -104 -116 -241l-39 -234q-18 -107 49.5 -169t189.5 -62z" />
    <glyph glyph-name="c" unicode="c" 
d="M553 -25q-192 0 -295.5 122t-103.5 325q0 148 42.5 272.5t116.5 208.5t173.5 131t211.5 47q157 0 248 -70t121 -184l-137 -53q-30 94 -89 131t-161 37q-135 0 -220.5 -88t-113.5 -254l-20 -123q-11 -67 -11 -98q0 -131 69 -197.5t189 -66.5q40 0 72.5 8.5t75.5 33.5
t93.5 78.5t111.5 137.5l114 -68q-105 -170 -216.5 -250t-270.5 -80z" />
    <glyph glyph-name="d" unicode="d" 
d="M784 0l41 250h-6q-66 -134 -154.5 -204.5t-220.5 -70.5q-160 0 -244.5 104t-84.5 306q0 74 11.5 150t35 155.5t63.5 148.5t93.5 124t129.5 86.5t166 31.5q117 0 196.5 -53.5t113.5 -155.5h6l108 644h160l-254 -1516h-160zM500 117q143 0 248 116q93 104 116 242l39 234
q18 107 -50.5 169t-190.5 62q-148 0 -237.5 -89.5t-115.5 -242.5l-24 -147q-9 -55 -9 -92q0 -120 57.5 -186t166.5 -66z" />
    <glyph glyph-name="e" unicode="e" 
d="M567 -25q-202 0 -309.5 114t-107.5 339q0 287 163 470t418 183q160 0 259.5 -75t99.5 -209q0 -35 -7 -66t-28 -66.5t-56 -64t-94 -57t-138 -48.5t-193.5 -33.5t-254.5 -17.5q-2 -20 -2 -47q0 -61 11 -107.5t38 -88.5t81.5 -65t134.5 -23q111 0 188.5 52t169.5 181
l113 -70q-93 -152 -208.5 -226.5t-277.5 -74.5zM717 948q-160 0 -260 -96.5t-123 -276.5l-2 -20q149 5 259.5 21.5t173 38.5t100.5 53.5t49.5 60t11.5 62.5q0 70 -50 113.5t-159 43.5z" />
    <glyph glyph-name="f" unicode="f" 
d="M401 -434q-60 0 -114.5 46t-194.5 198l-125 137l109 98l315 -336l37 8l201 1203h-377l22 137h377l37 219q18 109 87 174.5t183 65.5h355l-23 -138h-426l-53 -321h428l-22 -137h-429l-190 -1139q-15 -96 -63 -155.5t-134 -59.5z" />
    <glyph glyph-name="g" unicode="g" 
d="M434 -434q-254 0 -371 145l111 107q87 -111 270 -111q148 0 233 76.5t114 247.5l43 254h-9q-64 -135 -153.5 -205t-222.5 -70q-162 0 -247 104t-85 298q0 60 8 122.5t26.5 129t46 126.5t68 113.5t90 92.5t116 62t142.5 23q117 0 196.5 -53.5t113.5 -155.5h6l31 185h159
l-176 -1057q-74 -434 -510 -434zM504 152q145 0 250 116q95 105 116 240l33 201q18 107 -50.5 169t-190.5 62q-146 0 -237 -88t-116 -240l-18 -110q-10 -62 -10 -90q0 -127 56.5 -193.5t166.5 -66.5z" />
    <glyph glyph-name="h" unicode="h" 
d="M121 0l254 1516h160l-119 -709h8q62 134 146 204t206 70q133 0 210 -80.5t77 -224.5q0 -66 -12 -137l-107 -639h-160l105 625q10 61 10 112q0 96 -44.5 149.5t-131.5 53.5q-126 0 -223 -115q-101 -118 -121 -241l-98 -584h-160z" />
    <glyph glyph-name="i" unicode="i" 
d="M696 1292q-62 0 -90 23t-28 59q0 10 8 60q16 98 135 98q62 0 90.5 -23t28.5 -59q0 -3 -9 -59q-16 -99 -135 -99zM557 -25q-75 0 -116.5 39.5t-41.5 102.5q0 13 11 82l139 721h-381l22 137h545l-178 -922l47 -18l404 348l96 -90l-186 -172q-146 -135 -219.5 -181.5
t-141.5 -46.5z" />
    <glyph glyph-name="j" unicode="j" 
d="M563 -434q-60 0 -115.5 45t-195.5 199l-133 145l108 98l324 -344l37 8l200 1203h-436l23 137h596l-213 -1276q-15 -95 -62.5 -155t-132.5 -60zM936 1292q-62 0 -90.5 23t-28.5 59q0 10 8 60q16 98 136 98q62 0 90 -23t28 -59q0 -9 -8 -59q-16 -99 -135 -99z" />
    <glyph glyph-name="k" unicode="k" 
d="M121 0l254 1516h160l-119 -709h8q129 274 362 274q126 0 201.5 -71t75.5 -189q0 -42 -9.5 -80.5t-38 -84t-74.5 -84t-124.5 -75t-181.5 -61.5l145 -317l27 -4l272 250l88 -93l-145 -145q-84 -84 -137 -118t-109 -34q-53 0 -89.5 29.5t-68.5 99.5l-165 361
q242 59 344 141.5t102 184.5q0 73 -44.5 113t-127.5 40q-132 0 -231 -121q-99 -124 -117 -239l-98 -584h-160z" />
    <glyph glyph-name="l" unicode="l" 
d="M510 -25q-79 0 -116.5 39.5t-37.5 106.5q0 38 6 65l230 1192h-373l23 138h538l-266 -1383l51 -16l420 356l92 -90l-213 -193q-143 -130 -216 -172.5t-138 -42.5z" />
    <glyph glyph-name="m" unicode="m" 
d="M172 0h-147l176 1057h147l-26 -166h8q42 90 95 140t134 50q86 0 127 -55t35 -145h6q88 200 256 200q87 0 133.5 -52.5t46.5 -149.5q0 -58 -14 -144l-123 -735h-147l118 709q15 92 15 127q0 114 -90 114q-73 0 -134 -82q-55 -75 -73 -184l-115 -684h-147l118 709
q13 80 13 120q0 63 -21 92t-65 29q-80 0 -138 -82q-56 -79 -73 -184z" />
    <glyph glyph-name="n" unicode="n" 
d="M281 0h-160l176 1057h160l-41 -250h8q62 134 146 204t206 70q133 0 210 -80.5t77 -224.5q0 -66 -12 -137l-107 -639h-160l105 625q10 61 10 112q0 96 -44.5 149.5t-131.5 53.5q-126 0 -223 -115q-101 -118 -121 -241z" />
    <glyph glyph-name="o" unicode="o" 
d="M543 -25q-198 0 -305 122t-107 325q0 148 43 272.5t117.5 208.5t176 131t216.5 47q200 0 307 -121t107 -325q0 -296 -158.5 -478t-396.5 -182zM551 115q146 0 236.5 90t117.5 250l21 123q10 61 10 104q0 130 -68 195t-190 65q-146 0 -236.5 -90t-117.5 -250l-21 -123
q-10 -61 -10 -104q0 -130 68 -195t190 -65z" />
    <glyph glyph-name="p" unicode="p" 
d="M39 -410l246 1467h159l-41 -250h7q66 134 154 204t220 70q161 0 245.5 -104t84.5 -305q0 -90 -15.5 -181.5t-53.5 -185.5t-93.5 -166.5t-143 -118t-194.5 -45.5q-117 0 -196 53t-113 156h-6l-100 -594h-160zM567 117q148 0 237.5 89.5t115.5 242.5l24 147q8 49 8 92
q0 120 -57 186t-166 66q-142 0 -248 -117q-94 -104 -116 -241l-39 -234q-18 -107 50.5 -169t190.5 -62z" />
    <glyph glyph-name="q" unicode="q" 
d="M715 -410l110 660h-6q-66 -134 -154.5 -204.5t-220.5 -70.5q-160 0 -244.5 104t-84.5 306q0 74 11.5 150t35 155.5t63.5 148.5t93.5 124t129.5 86.5t166 31.5q117 0 196.5 -53.5t113.5 -155.5h6l31 185h159l-246 -1467h-159zM500 117q143 0 248 116q93 104 116 242
l39 234q18 107 -50.5 169t-190.5 62q-148 0 -237.5 -89.5t-115.5 -242.5l-24 -147q-9 -55 -9 -92q0 -120 57.5 -186t166.5 -66z" />
    <glyph glyph-name="r" unicode="r" 
d="M524 0h-159l153 920h-297l23 137h456l-47 -283h11q60 137 150 210t233 73h159l-26 -160h-181q-92 0 -153 -25t-109 -81q-101 -116 -121 -240z" />
    <glyph glyph-name="s" unicode="s" 
d="M549 -25q-307 0 -451 199l119 94q63 -79 146 -118t200 -39q140 0 220.5 53.5t80.5 148.5q0 68 -40 99t-113 41l-154 22q-66 10 -115 25t-97.5 44t-74.5 79.5t-26 121.5q0 108 61.5 185.5t162 114t228.5 36.5q267 0 396 -161l-113 -99q-35 51 -108 88t-193 37
q-134 0 -206.5 -50t-72.5 -138q0 -69 42.5 -98t121.5 -42l150 -24q38 -6 60.5 -10.5t59 -15t59.5 -22t50.5 -32t42.5 -45t26 -60.5t11 -79q0 -163 -129.5 -259t-343.5 -96z" />
    <glyph glyph-name="t" unicode="t" 
d="M489 -25q-72 0 -111.5 39.5t-39.5 112.5q0 45 6 80l123 713h-305l22 137h215q53 0 79.5 21.5t35.5 74.5l47 277h152l-64 -373h436l-22 -137h-436l-131 -783l41 -24l460 307l80 -103l-231 -163q-145 -103 -220 -141t-137 -38z" />
    <glyph glyph-name="u" unicode="u" 
d="M776 0l41 250h-8q-62 -134 -146 -204.5t-206 -70.5q-133 0 -210 81t-77 225q0 67 12 137l107 639h160l-105 -625q-10 -61 -10 -113q0 -96 44.5 -149t131.5 -53q127 0 223 114q101 118 121 242l98 584h160l-176 -1057h-160z" />
    <glyph glyph-name="v" unicode="v" 
d="M158 1057h381l-140 -930l27 -18q123 16 223.5 78t163.5 152.5t97 199.5t34 225q0 149 -57 260l153 45q68 -130 68 -297q0 -158 -57 -304t-152 -252t-225.5 -169t-270.5 -63q-78 0 -117.5 38.5t-39.5 108.5q0 26 8 76l106 713h-225z" />
    <glyph glyph-name="w" unicode="w" 
d="M272 -20q-90 0 -137 55t-47 153q0 58 12 138l121 731h144l-115 -703q-12 -70 -12 -127q0 -116 92 -116q69 0 131 82q42 58 67 188l117 676h139l-114 -703q-11 -70 -11 -125q0 -63 21.5 -90.5t69.5 -27.5q74 0 137 98t97 244.5t34 298.5q0 174 -47 274l135 41
q55 -120 55 -307q0 -186 -42 -352.5t-118 -272.5q-112 -155 -284 -155q-187 0 -174 215h-11q-47 -107 -107.5 -161t-152.5 -54z" />
    <glyph glyph-name="x" unicode="x" 
d="M217 -25q-203 0 -203 244q0 56 11 137l149 13q-8 -63 -8 -117q0 -78 20.5 -114t69.5 -36q67 0 123 60.5t89.5 152.5t52 191t18.5 184q0 178 -33 250l-31 14l-323 -198l-64 96l135 100q173 129 281 129q33 0 59 -12t43 -29t29 -48.5t18 -57.5t9 -69.5t3.5 -71t0.5 -74.5
l14 -2q40 189 123.5 276.5t208.5 87.5q103 0 152.5 -60t49.5 -183q0 -66 -10 -138l-149 -12q8 63 8 117q0 78 -20.5 113.5t-69.5 35.5q-67 0 -123 -60.5t-89.5 -152.5t-52 -190.5t-18.5 -183.5q0 -177 37 -250l31 -15l303 213l67 -94l-102 -88q-184 -158 -297 -158
q-27 0 -49 7t-38 18t-29 30.5t-21 37.5t-14 47t-8.5 50.5t-4 56.5t-2 57t-0.5 59l-14 2q-78 -365 -332 -365z" />
    <glyph glyph-name="y" unicode="y" 
d="M426 -434q-254 0 -371 145l111 107q87 -111 270 -111q149 0 234 77.5t112 246.5l41 250h-6q-62 -134 -147 -204.5t-207 -70.5q-133 0 -211 81t-78 224q0 48 12 131l103 615h160l-101 -600q-10 -59 -10 -107q0 -96 45 -149.5t133 -53.5q126 0 223 115q101 118 121 242
l92 553h160l-176 -1057q-74 -434 -510 -434z" />
    <glyph glyph-name="z" unicode="z" 
d="M870 -20q-85 0 -206 40l-367 123l-10 -8l-21 -135h-162l23 160l733 674q-219 112 -338 112q-46 0 -80 -14t-53.5 -36t-30.5 -56.5t-14.5 -66.5t-3.5 -75h-131v25q0 173 83 265.5t236 92.5q83 0 172.5 -32.5t210.5 -104.5l41 -24l11 8l20 129h162l-23 -156l-733 -672
l522 -120l23 22l-64 279l117 41l33 -82q53 -128 53 -213q0 -71 -56 -123.5t-147 -52.5z" />
    <glyph glyph-name="braceleft" unicode="{" 
d="M874 -283h-356q-70 0 -106.5 36.5t-36.5 94.5q0 17 22 166q4 24 9 45.5t14 42t15 35.5t19 33.5t19 27.5t22 27t20 23t22 23l20 20q51 52 68.5 83.5t17.5 65.5q0 135 -217 135h-199l21 123h198q131 0 200 42.5t69 125.5q0 53 -41 117q-2 4 -14 22.5t-15.5 24.5t-13 23.5
t-13 29.5t-9 30t-7.5 37t-2 40q0 33 27 201q11 73 63.5 119t132.5 46h359l-21 -124h-389q-33 -194 -33 -224q0 -33 9 -63t16.5 -44t26.5 -46q63 -104 63 -185q0 -92 -65 -152.5t-191 -80.5v-8q90 -10 138 -55.5t48 -118.5q0 -33 -9 -62.5t-31 -61.5t-39.5 -52.5t-53.5 -59.5
q-35 -38 -51.5 -58.5t-36.5 -63t-28 -95.5l-27 -160h387z" />
    <glyph glyph-name="bar" unicode="|" 
d="M549 -283h-139l307 1839h139z" />
    <glyph glyph-name="braceright" unicode="}" 
d="M395 1556h357q70 0 106.5 -36t36.5 -95q0 -10 -23 -165q-3 -22 -8.5 -42.5t-10.5 -36.5t-14.5 -34.5t-15 -30t-18 -28t-17.5 -24t-19.5 -23t-18.5 -20t-19.5 -20.5t-17.5 -18q-51 -52 -68.5 -83.5t-17.5 -65.5q0 -136 217 -136h198l-20 -123h-199q-268 0 -268 -167
q0 -53 41 -117q2 -4 14 -22.5t15.5 -24.5t13 -23.5t13 -29.5t9 -30t7.5 -37t2 -40q0 -33 -27 -201q-11 -73 -64 -119.5t-133 -46.5h-358l21 125h389q32 188 32 224q0 15 -1 27.5t-5 26t-6 21t-9 22t-8.5 18t-11 20t-10.5 18.5q-21 37 -30.5 55.5t-21 56t-11.5 72.5
q0 92 65 153t191 81v8q-90 10 -138.5 56t-48.5 118q0 33 9 62.5t31 61.5t39.5 52.5t53.5 59.5t52 58.5t36.5 62.5t28.5 96l27 160h-387z" />
    <glyph glyph-name="asciitilde" unicode="~" 
d="M842 485q-42 0 -84.5 11t-68.5 22.5t-66 32.5q-4 2 -29.5 15.5t-32 16.5t-27.5 13t-31.5 13t-27.5 8.5t-31 7.5t-28 2q-57 0 -100 -37t-80 -105l-117 68q100 211 301 211q42 0 84.5 -11t68.5 -22.5t66 -32.5q5 -2 23.5 -12t24 -12.5t22.5 -11t24 -11.5t21.5 -9t24 -8
t22 -5.5t23.5 -4.5t22 -1q58 0 100.5 36.5t79.5 104.5l117 -68q-100 -211 -301 -211z" />
    <glyph glyph-name="uni00A0" unicode="&#xa0;" 
 />
    <glyph glyph-name="exclamdown" unicode="&#xa1;" 
d="M551 -373h-176l69 416l148 537h63l-34 -537zM662 797q-68 0 -101 24.5t-33 65.5q0 11 9 67q10 59 48.5 90t116.5 31q68 0 101 -24.5t33 -65.5q0 -11 -9 -67q-10 -59 -48.5 -90t-116.5 -31z" />
    <glyph glyph-name="cent" unicode="&#xa2;" 
d="M428 -233l35 217q-150 27 -229.5 143.5t-79.5 294.5q0 278 139.5 456t353.5 199l35 213h127l-35 -215q122 -16 194 -82.5t99 -165.5l-137 -53q-26 77 -70.5 115t-114.5 49l-135 -821q69 7 141 61t175 195l114 -68q-101 -161 -204 -240t-246 -88l-35 -210h-127zM315 379
q0 -212 177 -256l135 815q-111 -15 -183.5 -102t-97.5 -236l-20 -123q-11 -67 -11 -98z" />
    <glyph glyph-name="sterling" unicode="&#xa3;" 
d="M948 -25q-20 0 -42 2.5t-52.5 9t-48.5 10.5t-59 14.5t-54 13.5l-465 108l-20 -133h-170l24 162q62 28 105.5 59t80 75.5t54.5 106t18 140.5q0 47 -6 84h-207l23 139h160q-21 96 -21 172q0 226 137.5 371t358.5 145q93 0 169 -26t125 -69.5t78.5 -93.5t39.5 -104l-146 -57
q-60 209 -276 209q-151 0 -233.5 -103t-82.5 -288q0 -73 17 -156h368l-22 -139h-322q6 -35 6 -78q0 -110 -49 -191t-149 -94l-4 -8l667 -129l23 23l-66 266l127 39l33 -78q53 -127 53 -223q0 -81 -45 -130t-127 -49z" />
    <glyph glyph-name="yen" unicode="&#xa5;" 
d="M68 0l22 139h379l66 385h-381l22 140h291l-268 766h178l248 -766h8l506 766h194l-526 -766h291l-23 -140h-381l-65 -385h383l-23 -139h-921z" />
    <glyph glyph-name="brokenbar" unicode="&#xa6;" 
d="M733 819h-139l123 737h139zM549 -283h-139l122 738h140z" />
    <glyph glyph-name="section" unicode="&#xa7;" 
d="M920 39q0 -157 -120.5 -256.5t-310.5 -99.5q-103 0 -199.5 31t-152.5 91l105 107q90 -90 250 -90q121 0 193.5 56t72.5 145q0 68 -45.5 110.5t-141.5 71.5l-122 37q-152 46 -210.5 117.5t-58.5 168.5q0 118 71 200.5t216 119.5v14q-121 81 -121 236q0 157 120 256.5
t310 99.5q103 0 199.5 -31.5t152.5 -91.5l-104 -106q-90 90 -250 90q-121 0 -193.5 -56t-72.5 -145q0 -69 45.5 -111t140.5 -71l123 -37q152 -46 210 -117.5t58 -169.5q0 -118 -70.5 -200t-215.5 -119v-15q121 -81 121 -235zM926 573q0 72 -48 118.5t-167 80.5l-123 35
q-20 5 -51 16q-93 -40 -145 -109t-52 -153q0 -72 48 -118.5t167 -80.5l123 -34q14 -3 51 -17q93 40 145 109t52 153z" />
    <glyph glyph-name="dieresis" unicode="&#xa8;" 
d="M463 1268q-107 0 -107 73q0 11 9 52q10 44 36 66t84 22q56 0 81.5 -20.5t25.5 -53.5q0 -15 -8 -51q-10 -44 -36.5 -66t-84.5 -22zM844 1268q-107 0 -107 73q0 16 8 52q10 44 36.5 66t84.5 22q56 0 81.5 -20.5t25.5 -53.5q0 -15 -8 -51q-10 -44 -36.5 -66t-84.5 -22z" />
    <glyph glyph-name="copyright" unicode="&#xa9;" 
d="M555 37q-237 0 -384.5 156t-147.5 421q0 226 90.5 404t251.5 276.5t364 98.5q237 0 385 -156.5t148 -421.5q0 -226 -91 -404t-252 -276t-364 -98zM565 147q211 0 362 134t189 352q23 130 23 182q0 94 -24 175.5t-72.5 148t-131.5 105t-192 38.5q-211 0 -362 -133.5
t-189 -351.5q-23 -130 -23 -183q0 -94 24 -175.5t72.5 -148t131.5 -105t192 -38.5zM594 352q-126 0 -194 78.5t-68 218.5q0 179 104 305.5t266 126.5q94 0 156 -45.5t86 -124.5l-119 -49q-13 53 -44 79t-93 26q-164 0 -194 -191l-19 -117q-4 -40 -4 -55q0 -137 131 -137
q112 0 193 113l92 -64q-48 -76 -122.5 -120t-170.5 -44z" />
    <glyph glyph-name="ordfeminine" unicode="&#xaa;" 
d="M907 727h-131l19 117h-17q-30 -54 -83.5 -91.5t-125.5 -37.5q-106 0 -161.5 48t-55.5 130q0 240 340 240h152l10 55q4 18 4 51q0 109 -145 109q-63 0 -115.5 -30t-83.5 -77l-78 72q42 59 117 100t174 41q120 0 190 -53.5t70 -145.5q0 -33 -6 -73zM829 1036h-151
q-86 0 -132.5 -21t-56.5 -67q-8 -36 -8 -53q0 -76 115 -76q81 0 145 36.5t74 96.5z" />
    <glyph glyph-name="guillemotleft" unicode="&#xab;" 
d="M569 219l-69 -102l-359 356l27 160l477 356l31 -123l-354 -323zM1040 219l-69 -102l-359 356l27 160l477 356l31 -123l-354 -323z" />
    <glyph glyph-name="logicalnot" unicode="&#xac;" 
d="M1014 160h-140l66 397h-803l23 135h942z" />
    <glyph glyph-name="uni00AD" unicode="&#xad;" 
d="M907 539h-585l28 168h586z" />
    <glyph glyph-name="registered" unicode="&#xae;" 
d="M637 709q-147 0 -242.5 90.5t-95.5 238.5q0 171 120.5 293.5t295.5 122.5q147 0 242.5 -90.5t95.5 -239.5q0 -171 -120.5 -293t-295.5 -122zM633 791q127 0 207 64.5t104 178.5q12 59 12 92q0 112 -59 179t-178 67q-127 0 -207 -64.5t-104 -179.5q-13 -64 -13 -92
q0 -111 59.5 -178t178.5 -67zM608 1042l-24 -143h-80l63 379h172q49 0 76 -25.5t27 -70.5q0 -46 -26.5 -79.5t-70.5 -47.5l68 -156h-90l-55 143h-60zM618 1102h72q53 0 62 49q2 10 2 25q0 38 -43 38h-74z" />
    <glyph glyph-name="macron" unicode="&#xaf;" 
d="M369 1307l22 137h567l-22 -137h-567z" />
    <glyph glyph-name="degree" unicode="&#xb0;" 
d="M678 754q-143 0 -232.5 84.5t-89.5 230.5q0 163 108.5 274t274.5 111q143 0 232.5 -84.5t89.5 -230.5q0 -163 -108.5 -274t-274.5 -111zM682 883q103 0 170.5 72.5t67.5 177.5q0 89 -49 140.5t-136 51.5q-103 0 -170 -72t-67 -178q0 -89 48.5 -140.5t135.5 -51.5z" />
    <glyph glyph-name="plusminus" unicode="&#xb1;" 
d="M653 309h-151l67 410h-407l22 135h406l67 410h152l-68 -410h406l-21 -135h-405zM1012 0h-969l23 135h968z" />
    <glyph glyph-name="twosuperior" unicode="&#xb2;" 
d="M922 774l-17 -100h-534l20 121l268 196q54 40 74 55.5t49 43t40.5 51.5t17.5 55q4 20 4 41q0 43 -35.5 69.5t-87.5 26.5q-110 0 -162 -123l-106 47q80 185 276 185q107 0 178.5 -53t71.5 -152q0 -23 -5 -45.5t-11 -41.5t-19.5 -39.5t-23.5 -34.5t-29.5 -33t-31 -29.5
t-35 -28.5t-33.5 -25.5t-35.5 -25.5t-32.5 -23l-193 -137h392z" />
    <glyph glyph-name="threesuperior" unicode="&#xb3;" 
d="M596 1116h94q77 0 110 27t42 76q4 24 4 36q0 38 -29.5 62t-83.5 24q-115 0 -182 -98l-78 70q97 129 264 129q112 0 174 -54t62 -137q0 -74 -49.5 -125t-124.5 -65v-4q61 -9 97 -50.5t36 -109.5q0 -102 -80 -168.5t-215 -66.5q-103 0 -172.5 39t-99.5 102l90 63
q51 -104 186 -104q71 0 110.5 27.5t51.5 89.5q4 20 4 32q0 46 -38.5 75.5t-102.5 29.5h-86z" />
    <glyph glyph-name="acute" unicode="&#xb4;" 
d="M920 1516l-265 -318l-96 57l221 340z" />
    <glyph glyph-name="mu" unicode="&#xb5;" 
d="M205 -410h-158l242 1467h160l-105 -631q-10 -59 -10 -107q0 -96 45 -149t133 -53q127 0 223 114q101 118 121 242l96 584h160l-174 -1057h-160l41 250h-8q-122 -275 -338 -275q-74 0 -123.5 35.5t-62.5 102.5h-8l-21 -203z" />
    <glyph glyph-name="paragraph" unicode="&#xb6;" 
d="M418 -305l135 809q-172 0 -279.5 109.5t-107.5 295.5q0 117 45 216.5t120.5 165.5t173 102.5t202.5 36.5h473l-291 -1735h-144l269 1608h-185l-268 -1608h-143z" />
    <glyph glyph-name="periodcentered" unicode="&#xb7;" 
d="M608 483q-68 0 -100.5 25.5t-32.5 66.5q0 16 8 66q20 121 166 121q68 0 100.5 -25.5t32.5 -66.5q0 -16 -8 -66q-20 -121 -166 -121z" />
    <glyph glyph-name="cedilla" unicode="&#xb8;" 
d="M584 -424q-74 0 -124 24t-73 60l82 82q35 -55 115 -55q46 0 74 18t28 51q0 63 -123 80l-59 8l71 197h103l-60 -166l5 -6q39 8 75 8q58 0 89.5 -31t31.5 -90q0 -90 -66.5 -135t-168.5 -45z" />
    <glyph glyph-name="onesuperior" unicode="&#xb9;" 
d="M942 674h-532l16 100h217l90 535l-215 -117l-41 90l271 148h129l-111 -656h192z" />
    <glyph glyph-name="ordmasculine" unicode="&#xba;" 
d="M655 715q-124 0 -202 81.5t-78 209.5q0 199 106 323.5t281 124.5q124 0 202 -81.5t78 -209.5q0 -199 -106 -323.5t-281 -124.5zM672 825q89 0 143 52.5t68 140.5l20 123q4 25 4 51q0 68 -42.5 109.5t-119.5 41.5q-89 0 -142.5 -52t-67.5 -140l-21 -123q-4 -25 -4 -51
q0 -68 42.5 -110t119.5 -42z" />
    <glyph glyph-name="guillemotright" unicode="&#xbb;" 
d="M123 117l-31 123l354 323l-247 324l69 102l359 -356l-27 -160zM594 117l-31 123l355 323l-248 324l69 102l359 -356l-27 -160z" />
    <glyph glyph-name="onequarter" unicode="&#xbc;" 
d="M119 743l16 103h191l80 469l-195 -94l-35 94l238 115h137l-98 -584h170l-19 -103h-485zM768 815l428 615h147l-428 -615h-147zM-49 0l428 614h147l-428 -614h-147zM893 0l22 131h-340l21 121l358 434h176l-75 -457h94l-16 -98h-95l-22 -131h-123zM700 229h232l57 351h-6z
" />
    <glyph glyph-name="onehalf" unicode="&#xbd;" 
d="M119 743l16 103h191l80 469l-195 -94l-35 94l238 115h137l-98 -584h170l-19 -103h-485zM768 815l428 615h147l-428 -615h-147zM-49 0l428 614h147l-428 -614h-147zM588 0l20 117l260 186q70 50 101.5 87.5t38.5 82.5q4 24 4 35q0 40 -26 63t-75 23t-82.5 -28t-62.5 -87
l-104 45q82 174 264 174q106 0 162.5 -52.5t56.5 -133.5q0 -83 -53 -145t-162 -138l-182 -127h354l-17 -102h-497z" />
    <glyph glyph-name="threequarters" unicode="&#xbe;" 
d="M344 731q-188 0 -248 146l101 61q35 -104 147 -104q60 0 97 25t46 71q2 10 2 37q0 84 -122 84h-72l16 96h72q61 0 99.5 23.5t43.5 58.5q2 14 2 37q0 33 -27.5 53t-78.5 20q-88 0 -150 -86l-77 72q49 58 107 87.5t140 29.5q101 0 160.5 -43t59.5 -115t-50 -118.5
t-123 -59.5v-8q58 -9 93.5 -45.5t35.5 -94.5q0 -101 -76.5 -164t-197.5 -63zM768 815l428 615h147l-428 -615h-147zM-49 0l428 614h147l-428 -614h-147zM893 0l22 131h-340l21 121l358 434h176l-75 -457h94l-16 -98h-95l-22 -131h-123zM700 229h232l57 351h-6z" />
    <glyph glyph-name="questiondown" unicode="&#xbf;" 
d="M487 -397q-183 0 -288 92.5t-105 249.5q0 101 36 184t100 140t148 93t183 50l35 204h158l-54 -321q-217 -28 -311 -91.5t-117 -201.5q-4 -25 -4 -59q0 -89 64 -142t170 -53q229 0 321 244l146 -62q-55 -143 -175.5 -235t-306.5 -92zM700 797q-68 0 -100.5 25.5
t-32.5 66.5q0 15 8 65q20 121 166 121q68 0 100.5 -25.5t32.5 -66.5q0 -15 -8 -65q-20 -121 -166 -121z" />
    <glyph glyph-name="Agrave" unicode="&#xc0;" 
d="M1081 0h-176l-51 408h-504l-188 -408h-180l675 1430h226zM838 557l-88 700h-19l-317 -700h424zM774 1546l-151 334l149 64l107 -357z" />
    <glyph glyph-name="Aacute" unicode="&#xc1;" 
d="M1081 0h-176l-51 408h-504l-188 -408h-180l675 1430h226zM838 557l-88 700h-19l-317 -700h424zM1071 1864l-264 -318l-96 58l221 340z" />
    <glyph glyph-name="Acircumflex" unicode="&#xc2;" 
d="M1081 0h-176l-51 408h-504l-188 -408h-180l675 1430h226zM838 557l-88 700h-19l-317 -700h424zM748 1915h200l178 -301l-94 -55l-196 239l-281 -239l-80 67z" />
    <glyph glyph-name="Atilde" unicode="&#xc3;" 
d="M1081 0h-176l-51 408h-504l-188 -408h-180l675 1430h226zM838 557l-88 700h-19l-317 -700h424zM952 1602q-10 0 -20 1t-18 2.5t-17.5 4.5t-16 5t-16 6.5t-14.5 6.5t-14.5 7.5t-13 8t-13 8t-12.5 7.5q-76 47 -131 47q-54 0 -129 -59l-58 84q90 106 203 106q31 0 64 -11
t45.5 -18.5t46.5 -27.5q76 -47 131 -47q54 0 129 59l57 -84q-90 -106 -203 -106z" />
    <glyph glyph-name="Adieresis" unicode="&#xc4;" 
d="M1081 0h-176l-51 408h-504l-188 -408h-180l675 1430h226zM838 557l-88 700h-19l-317 -700h424zM614 1616q-106 0 -106 74q0 23 8 51q12 44 38 66t83 22q106 0 106 -74q0 -23 -8 -51q-12 -44 -38 -66t-83 -22zM995 1616q-106 0 -106 74q0 23 8 51q12 44 38 66t83 22
q106 0 106 -74q0 -23 -8 -51q-12 -44 -38 -66t-83 -22z" />
    <glyph glyph-name="Aring" unicode="&#xc5;" 
d="M1081 0h-176l-51 408h-504l-188 -408h-180l675 1430h226zM838 557l-88 700h-19l-317 -700h424zM793 1532q-91 0 -149 57t-58 146q0 107 79 183.5t185 76.5q91 0 149 -57t58 -146q0 -107 -79 -183.5t-185 -76.5zM801 1628q53 0 89.5 30t45.5 85q8 50 8 65q0 42 -26 66
t-76 24q-54 0 -90 -29.5t-45 -84.5q-9 -56 -9 -66q0 -42 26.5 -66t76.5 -24z" />
    <glyph glyph-name="AE" unicode="&#xc6;" 
d="M545 0l67 412h-303l-182 -412h-174l655 1430h676l-22 -142h-344l-82 -493h319l-22 -142h-320l-84 -512h342l-22 -141h-504zM762 1307h-57l-334 -754h266z" />
    <glyph glyph-name="Ccedilla" unicode="&#xc7;" 
d="M788 1307q-167 0 -270 -126.5t-141 -355.5l-33 -196q-16 -98 -16 -180q0 -154 67.5 -240t210.5 -86q61 0 108 16t88.5 54t75.5 86.5t78 126.5l134 -68q-82 -169 -188 -259.5t-267 -101.5l-37 -102l4 -6q39 8 76 8q58 0 89.5 -31t31.5 -90q0 -90 -67 -135t-169 -45
q-74 0 -123.5 24t-72.5 60l82 82q35 -55 114 -55q46 0 74.5 18t28.5 51q0 63 -123 80l-60 8l47 133q-370 33 -370 515q0 76 8 157.5t28.5 177t52 183t83 169.5t115.5 142t155.5 96.5t198.5 36.5q76 0 138.5 -19t104.5 -49.5t73 -73.5t48 -87t27 -95l-152 -49
q-12 51 -28.5 88t-44.5 70.5t-73 50.5t-106 17z" />
    <glyph glyph-name="Egrave" unicode="&#xc8;" 
d="M977 0h-881l240 1430h876l-24 -148h-709l-82 -483h686l-24 -148h-686l-84 -504h712zM784 1546l-151 334l149 64l107 -357z" />
    <glyph glyph-name="Eacute" unicode="&#xc9;" 
d="M977 0h-881l240 1430h876l-24 -148h-709l-82 -483h686l-24 -148h-686l-84 -504h712zM1081 1864l-264 -318l-96 58l221 340z" />
    <glyph glyph-name="Ecircumflex" unicode="&#xca;" 
d="M977 0h-881l240 1430h876l-24 -148h-709l-82 -483h686l-24 -148h-686l-84 -504h712zM758 1915h200l179 -301l-95 -55l-196 239l-281 -239l-80 67z" />
    <glyph glyph-name="Edieresis" unicode="&#xcb;" 
d="M977 0h-881l240 1430h876l-24 -148h-709l-82 -483h686l-24 -148h-686l-84 -504h712zM625 1616q-56 0 -81.5 20.5t-25.5 53.5q0 23 8 51q12 44 38 66t83 22q56 0 81.5 -20.5t25.5 -53.5q0 -19 -9 -51q-12 -44 -37.5 -66t-82.5 -22zM1006 1616q-56 0 -81.5 20.5t-25.5 53.5
q0 23 8 51q12 44 38 66t83 22q56 0 81.5 -20.5t25.5 -53.5q0 -19 -9 -51q-12 -44 -37.5 -66t-82.5 -22z" />
    <glyph glyph-name="Igrave" unicode="&#xcc;" 
d="M969 0h-885l22 135h359l194 1159h-358l23 136h884l-22 -136h-359l-194 -1159h358zM770 1546l-152 334l150 64l106 -357z" />
    <glyph glyph-name="Iacute" unicode="&#xcd;" 
d="M969 0h-885l22 135h359l194 1159h-358l23 136h884l-22 -136h-359l-194 -1159h358zM1067 1864l-264 -318l-96 58l221 340z" />
    <glyph glyph-name="Icircumflex" unicode="&#xce;" 
d="M969 0h-885l22 135h359l194 1159h-358l23 136h884l-22 -136h-359l-194 -1159h358zM743 1915h201l178 -301l-94 -55l-197 239l-280 -239l-80 67z" />
    <glyph glyph-name="Idieresis" unicode="&#xcf;" 
d="M969 0h-885l22 135h359l194 1159h-358l23 136h884l-22 -136h-359l-194 -1159h358zM610 1616q-106 0 -106 74q0 23 8 51q12 44 38 66t83 22q106 0 106 -74q0 -23 -8 -51q-12 -44 -38 -66t-83 -22zM991 1616q-106 0 -106 74q0 23 8 51q12 44 38 66t83 22q106 0 106 -74
q0 -23 -8 -51q-12 -44 -38 -66t-83 -22z" />
    <glyph glyph-name="Eth" unicode="&#xd0;" 
d="M113 0l114 690h-164l21 127h166l102 613h350q218 0 336.5 -128t118.5 -333q0 -487 -170.5 -728t-478.5 -241h-395zM305 147h217q170 0 276.5 112.5t143.5 332.5l33 196q14 86 14 177q0 155 -78 236t-229 81h-186l-78 -465h284l-20 -127h-285z" />
    <glyph glyph-name="Ntilde" unicode="&#xd1;" 
d="M729 0l-272 1233h-15l-206 -1233h-156l239 1430h244l273 -1233h14l207 1233h155l-239 -1430h-244zM946 1602q-10 0 -20 1t-18 2.5t-17.5 4.5t-16 5t-16 6.5t-14.5 6.5t-14.5 7.5t-13 8t-13 8t-12.5 7.5q-76 47 -132 47q-54 0 -129 -59l-57 84q90 106 203 106q10 0 20 -1
t18 -2.5t17.5 -4.5t16 -5t16 -6.5t14.5 -6.5t14.5 -7.5t13 -8t13 -8t12.5 -7.5q76 -47 132 -47q54 0 129 59l57 -84q-90 -106 -203 -106z" />
    <glyph glyph-name="Ograve" unicode="&#xd2;" 
d="M532 -25q-405 0 -405 486q0 82 8 168.5t28.5 185.5t52 188.5t82 173t114.5 144t154 97t196 36.5q405 0 405 -485q0 -82 -8 -168.5t-28.5 -185.5t-52 -188.5t-82 -173.5t-114.5 -144.5t-154 -97t-196 -36.5zM545 123q161 0 263 125t140 350l39 233q14 85 14 168
q0 151 -60 229.5t-191 78.5q-161 0 -263.5 -125.5t-140.5 -350.5l-39 -233q-14 -85 -14 -168q0 -151 60.5 -229t191.5 -78zM756 1546l-152 334l150 64l106 -357z" />
    <glyph glyph-name="Oacute" unicode="&#xd3;" 
d="M532 -25q-405 0 -405 486q0 82 8 168.5t28.5 185.5t52 188.5t82 173t114.5 144t154 97t196 36.5q405 0 405 -485q0 -82 -8 -168.5t-28.5 -185.5t-52 -188.5t-82 -173.5t-114.5 -144.5t-154 -97t-196 -36.5zM545 123q161 0 263 125t140 350l39 233q14 85 14 168
q0 151 -60 229.5t-191 78.5q-161 0 -263.5 -125.5t-140.5 -350.5l-39 -233q-14 -85 -14 -168q0 -151 60.5 -229t191.5 -78zM1053 1864l-265 -318l-96 58l221 340z" />
    <glyph glyph-name="Ocircumflex" unicode="&#xd4;" 
d="M532 -25q-405 0 -405 486q0 82 8 168.5t28.5 185.5t52 188.5t82 173t114.5 144t154 97t196 36.5q405 0 405 -485q0 -82 -8 -168.5t-28.5 -185.5t-52 -188.5t-82 -173.5t-114.5 -144.5t-154 -97t-196 -36.5zM545 123q161 0 263 125t140 350l39 233q14 85 14 168
q0 151 -60 229.5t-191 78.5q-161 0 -263.5 -125.5t-140.5 -350.5l-39 -233q-14 -85 -14 -168q0 -151 60.5 -229t191.5 -78zM729 1915h201l178 -301l-94 -55l-197 239l-280 -239l-80 67z" />
    <glyph glyph-name="Otilde" unicode="&#xd5;" 
d="M532 -25q-405 0 -405 486q0 82 8 168.5t28.5 185.5t52 188.5t82 173t114.5 144t154 97t196 36.5q405 0 405 -485q0 -82 -8 -168.5t-28.5 -185.5t-52 -188.5t-82 -173.5t-114.5 -144.5t-154 -97t-196 -36.5zM545 123q161 0 263 125t140 350l39 233q14 85 14 168
q0 151 -60 229.5t-191 78.5q-161 0 -263.5 -125.5t-140.5 -350.5l-39 -233q-14 -85 -14 -168q0 -151 60.5 -229t191.5 -78zM934 1602q-31 0 -64 11t-45.5 18.5t-46.5 27.5q-76 47 -131 47q-54 0 -129 -59l-57 84q90 106 203 106q10 0 20 -1t18 -2.5t17.5 -4.5t16 -5t16 -6.5
t14.5 -6.5t14.5 -7.5t13 -8t13 -8t12.5 -7.5q76 -47 131 -47q54 0 129 59l58 -84q-90 -106 -203 -106z" />
    <glyph glyph-name="Odieresis" unicode="&#xd6;" 
d="M532 -25q-405 0 -405 486q0 82 8 168.5t28.5 185.5t52 188.5t82 173t114.5 144t154 97t196 36.5q405 0 405 -485q0 -82 -8 -168.5t-28.5 -185.5t-52 -188.5t-82 -173.5t-114.5 -144.5t-154 -97t-196 -36.5zM545 123q161 0 263 125t140 350l39 233q14 85 14 168
q0 151 -60 229.5t-191 78.5q-161 0 -263.5 -125.5t-140.5 -350.5l-39 -233q-14 -85 -14 -168q0 -151 60.5 -229t191.5 -78zM596 1616q-56 0 -81.5 20.5t-25.5 53.5q0 20 9 51q12 44 37.5 66t82.5 22q56 0 81.5 -20.5t25.5 -53.5q0 -23 -8 -51q-12 -44 -38 -66t-83 -22z
M977 1616q-56 0 -81.5 20.5t-25.5 53.5q0 20 9 51q12 44 37.5 66t82.5 22q56 0 81.5 -20.5t25.5 -53.5q0 -23 -8 -51q-12 -44 -38 -66t-83 -22z" />
    <glyph glyph-name="multiply" unicode="&#xd7;" 
d="M901 195l-278 340l-394 -340l-86 102l396 340l-277 334l105 88l278 -338l393 338l86 -103l-395 -340l277 -333z" />
    <glyph glyph-name="Oslash" unicode="&#xd8;" 
d="M532 -25q-180 0 -284 101l-111 -150l-117 74l150 197q-43 107 -43 264q0 82 8 168.5t28.5 185.5t52 188.5t82 173t114.5 144t154 97t196 36.5q182 0 285 -100l110 149l117 -73l-150 -197q43 -107 43 -264q0 -82 -8 -168.5t-28.5 -185.5t-52 -188.5t-82 -173.5
t-114.5 -144.5t-154 -97t-196 -36.5zM307 598q-14 -85 -14 -168q0 -49 4 -72l651 863q-61 86 -198 86q-161 0 -263.5 -125.5t-140.5 -350.5zM545 123q161 0 263 125t140 350l39 233q14 85 14 168q0 49 -4 72l-651 -862q61 -86 199 -86z" />
    <glyph glyph-name="Ugrave" unicode="&#xd9;" 
d="M315 1430h168l-137 -820q-31 -182 -31 -256q0 -114 50.5 -172.5t179.5 -58.5q57 0 102 10.5t77.5 26.5t58.5 48t42 62t30.5 82.5t23 95t20.5 113.5l145 869h168l-139 -834q-17 -99 -32 -168.5t-37 -139.5t-48.5 -115t-64 -86t-85.5 -63.5t-111.5 -35.5t-143.5 -13
q-213 0 -307 92t-94 273q0 100 36 322zM760 1546l-152 334l150 64l106 -357z" />
    <glyph glyph-name="Uacute" unicode="&#xda;" 
d="M315 1430h168l-137 -820q-31 -182 -31 -256q0 -114 50.5 -172.5t179.5 -58.5q57 0 102 10.5t77.5 26.5t58.5 48t42 62t30.5 82.5t23 95t20.5 113.5l145 869h168l-139 -834q-17 -99 -32 -168.5t-37 -139.5t-48.5 -115t-64 -86t-85.5 -63.5t-111.5 -35.5t-143.5 -13
q-213 0 -307 92t-94 273q0 100 36 322zM1057 1864l-264 -318l-97 58l222 340z" />
    <glyph glyph-name="Ucircumflex" unicode="&#xdb;" 
d="M315 1430h168l-137 -820q-31 -182 -31 -256q0 -114 50.5 -172.5t179.5 -58.5q57 0 102 10.5t77.5 26.5t58.5 48t42 62t30.5 82.5t23 95t20.5 113.5l145 869h168l-139 -834q-17 -99 -32 -168.5t-37 -139.5t-48.5 -115t-64 -86t-85.5 -63.5t-111.5 -35.5t-143.5 -13
q-213 0 -307 92t-94 273q0 100 36 322zM733 1915h201l178 -301l-94 -55l-197 239l-280 -239l-80 67z" />
    <glyph glyph-name="Udieresis" unicode="&#xdc;" 
d="M315 1430h168l-137 -820q-31 -182 -31 -256q0 -114 50.5 -172.5t179.5 -58.5q57 0 102 10.5t77.5 26.5t58.5 48t42 62t30.5 82.5t23 95t20.5 113.5l145 869h168l-139 -834q-17 -99 -32 -168.5t-37 -139.5t-48.5 -115t-64 -86t-85.5 -63.5t-111.5 -35.5t-143.5 -13
q-213 0 -307 92t-94 273q0 100 36 322zM600 1616q-106 0 -106 74q0 23 8 51q12 44 38 66t83 22q106 0 106 -74q0 -23 -8 -51q-12 -44 -38 -66t-83 -22zM981 1616q-56 0 -81.5 20.5t-25.5 53.5q0 20 9 51q12 44 38 66t83 22q106 0 106 -74q0 -23 -8 -51q-12 -44 -38 -66
t-83 -22z" />
    <glyph glyph-name="Yacute" unicode="&#xdd;" 
d="M610 0h-168l95 557l-353 873h181l145 -375l121 -330h8l235 330l269 375h200l-636 -859zM1051 1864l-265 -318l-96 58l221 340z" />
    <glyph glyph-name="Thorn" unicode="&#xde;" 
d="M266 0h-168l240 1430h168l-49 -293h340q174 0 262 -90.5t88 -245.5q0 -229 -123 -357.5t-346 -128.5h-359zM432 989l-88 -526h350q113 0 180 54t82 149l13 73q6 37 6 80q0 84 -52 127t-147 43h-344z" />
    <glyph glyph-name="germandbls" unicode="&#xdf;" 
d="M289 0h-158l211 1276q39 240 268 240h281l-23 -138h-352l-53 -321h700l-26 -160l-422 -469q182 -14 279.5 -97.5t97.5 -236.5q0 -231 -158 -367.5t-442 -136.5h-144l25 138h133q175 0 283 68t126 208q11 91 11 113q0 108 -84 152t-275 44h-32l22 138l422 469h-539z" />
    <glyph glyph-name="agrave" unicode="&#xe0;" 
d="M944 0h-160l41 250h-6q-66 -134 -154.5 -204.5t-220.5 -70.5q-160 0 -244.5 104t-84.5 306q0 74 11.5 150t35 155.5t63.5 148.5t93.5 124t129.5 86.5t166 31.5q117 0 196.5 -53.5t113.5 -155.5h6l31 185h159zM500 117q143 0 248 116q93 104 116 242l39 234
q18 107 -50.5 169t-190.5 62q-148 0 -237.5 -89.5t-115.5 -242.5l-24 -147q-9 -55 -9 -92q0 -120 57.5 -186t166.5 -66zM664 1198l-154 342l152 55l106 -356z" />
    <glyph glyph-name="aacute" unicode="&#xe1;" 
d="M944 0h-160l41 250h-6q-66 -134 -154.5 -204.5t-220.5 -70.5q-160 0 -244.5 104t-84.5 306q0 74 11.5 150t35 155.5t63.5 148.5t93.5 124t129.5 86.5t166 31.5q117 0 196.5 -53.5t113.5 -155.5h6l31 185h159zM500 117q143 0 248 116q93 104 116 242l39 234
q18 107 -50.5 169t-190.5 62q-148 0 -237.5 -89.5t-115.5 -242.5l-24 -147q-9 -55 -9 -92q0 -120 57.5 -186t166.5 -66zM961 1516l-265 -318l-96 57l221 340z" />
    <glyph glyph-name="acircumflex" unicode="&#xe2;" 
d="M944 0h-160l41 250h-6q-66 -134 -154.5 -204.5t-220.5 -70.5q-160 0 -244.5 104t-84.5 306q0 74 11.5 150t35 155.5t63.5 148.5t93.5 124t129.5 86.5t166 31.5q117 0 196.5 -53.5t113.5 -155.5h6l31 185h159zM500 117q143 0 248 116q93 104 116 242l39 234
q18 107 -50.5 169t-190.5 62q-148 0 -237.5 -89.5t-115.5 -242.5l-24 -147q-9 -55 -9 -92q0 -120 57.5 -186t166.5 -66zM637 1567h201l178 -301l-94 -56l-197 240l-281 -240l-79 68z" />
    <glyph glyph-name="atilde" unicode="&#xe3;" 
d="M944 0h-160l41 250h-6q-66 -134 -154.5 -204.5t-220.5 -70.5q-160 0 -244.5 104t-84.5 306q0 74 11.5 150t35 155.5t63.5 148.5t93.5 124t129.5 86.5t166 31.5q117 0 196.5 -53.5t113.5 -155.5h6l31 185h159zM500 117q143 0 248 116q93 104 116 242l39 234
q18 107 -50.5 169t-190.5 62q-148 0 -237.5 -89.5t-115.5 -242.5l-24 -147q-9 -55 -9 -92q0 -120 57.5 -186t166.5 -66zM842 1253q-12 0 -25 2t-22 3.5t-22 6.5t-19 7t-19.5 9.5t-16 9.5t-17 11t-15.5 9q-76 47 -131 47q-53 0 -129 -60l-57 84q91 107 202 107q31 0 64 -11
t45.5 -18.5t46.5 -27.5q78 -48 131 -48t129 60l57 -84q-91 -107 -202 -107z" />
    <glyph glyph-name="adieresis" unicode="&#xe4;" 
d="M944 0h-160l41 250h-6q-66 -134 -154.5 -204.5t-220.5 -70.5q-160 0 -244.5 104t-84.5 306q0 74 11.5 150t35 155.5t63.5 148.5t93.5 124t129.5 86.5t166 31.5q117 0 196.5 -53.5t113.5 -155.5h6l31 185h159zM500 117q143 0 248 116q93 104 116 242l39 234
q18 107 -50.5 169t-190.5 62q-148 0 -237.5 -89.5t-115.5 -242.5l-24 -147q-9 -55 -9 -92q0 -120 57.5 -186t166.5 -66zM504 1268q-107 0 -107 73q0 11 9 52q10 44 36 66t84 22q56 0 81.5 -20.5t25.5 -53.5q0 -15 -8 -51q-10 -44 -36.5 -66t-84.5 -22zM885 1268
q-107 0 -107 73q0 16 8 52q10 44 36.5 66t84.5 22q56 0 81.5 -20.5t25.5 -53.5q0 -15 -8 -51q-10 -44 -36.5 -66t-84.5 -22z" />
    <glyph glyph-name="aring" unicode="&#xe5;" 
d="M944 0h-160l41 250h-6q-66 -134 -154.5 -204.5t-220.5 -70.5q-160 0 -244.5 104t-84.5 306q0 74 11.5 150t35 155.5t63.5 148.5t93.5 124t129.5 86.5t166 31.5q117 0 196.5 -53.5t113.5 -155.5h6l31 185h159zM500 117q143 0 248 116q93 104 116 242l39 234
q18 107 -50.5 169t-190.5 62q-148 0 -237.5 -89.5t-115.5 -242.5l-24 -147q-9 -55 -9 -92q0 -120 57.5 -186t166.5 -66zM682 1184q-91 0 -149 56.5t-58 145.5q0 107 79 184t185 77q91 0 149 -57t58 -146q0 -107 -79 -183.5t-185 -76.5zM690 1280q53 0 89.5 30t45.5 85
q9 56 9 65q0 42 -26.5 66t-76.5 24q-54 0 -90 -29.5t-45 -84.5q-8 -50 -8 -66q0 -42 26 -66t76 -24z" />
    <glyph glyph-name="ae" unicode="&#xe6;" 
d="M248 -25q-110 0 -179 69t-69 194q0 159 113 247t309 97l127 6l20 114q9 55 9 93q0 166 -152 166q-73 0 -127 -38.5t-104 -117.5l-95 72q49 91 135.5 147.5t202.5 56.5q121 0 180.5 -58.5t59.5 -141.5h8q99 200 289 200q109 0 177.5 -65t68.5 -180q0 -54 -15.5 -101.5
t-55 -93t-99.5 -78.5t-155.5 -55t-217.5 -25l-8 -49q-8 -49 -8 -108q0 -110 41 -167t118 -57q73 0 121.5 48t95.5 139l111 -56q-49 -109 -135 -183.5t-203 -74.5q-115 0 -187.5 72.5t-76.5 202.5h-12q-64 -275 -287 -275zM283 96q80 0 142 59.5t77 151.5l28 172l-110 -6
q-128 -6 -193.5 -45t-81.5 -135q-6 -37 -6 -68q0 -61 38.5 -95t105.5 -34zM965 961q-103 0 -173 -96t-92 -236l-6 -37q391 13 391 239q0 62 -30.5 96t-89.5 34z" />
    <glyph glyph-name="ccedilla" unicode="&#xe7;" 
d="M698 1081q157 0 248 -70t121 -184l-137 -53q-30 94 -89 131t-161 37q-135 0 -220.5 -88t-113.5 -254l-20 -123q-11 -67 -11 -98q0 -131 69 -197.5t189 -66.5q40 0 72.5 8.5t75.5 33.5t93.5 78.5t111.5 137.5l114 -68q-97 -159 -199.5 -238.5t-242.5 -89.5l-37 -102l4 -6
q39 8 76 8q58 0 89.5 -31t31.5 -90q0 -90 -67 -135t-169 -45q-74 0 -123.5 24t-72.5 60l82 82q35 -55 114 -55q46 0 74.5 18t28.5 51q0 63 -123 80l-60 8l50 136q-165 18 -253.5 136.5t-88.5 305.5q0 148 42.5 272.5t116.5 208.5t173.5 131t211.5 47z" />
    <glyph glyph-name="egrave" unicode="&#xe8;" 
d="M567 -25q-202 0 -309.5 114t-107.5 339q0 287 163 470t418 183q160 0 259.5 -75t99.5 -209q0 -35 -7 -66t-28 -66.5t-56 -64t-94 -57t-138 -48.5t-193.5 -33.5t-254.5 -17.5q-2 -20 -2 -47q0 -61 11 -107.5t38 -88.5t81.5 -65t134.5 -23q111 0 188.5 52t169.5 181
l113 -70q-93 -152 -208.5 -226.5t-277.5 -74.5zM717 948q-160 0 -260 -96.5t-123 -276.5l-2 -20q149 5 259.5 21.5t173 38.5t100.5 53.5t49.5 60t11.5 62.5q0 70 -50 113.5t-159 43.5zM733 1198l-153 342l151 55l107 -356z" />
    <glyph glyph-name="eacute" unicode="&#xe9;" 
d="M567 -25q-202 0 -309.5 114t-107.5 339q0 287 163 470t418 183q160 0 259.5 -75t99.5 -209q0 -35 -7 -66t-28 -66.5t-56 -64t-94 -57t-138 -48.5t-193.5 -33.5t-254.5 -17.5q-2 -20 -2 -47q0 -61 11 -107.5t38 -88.5t81.5 -65t134.5 -23q111 0 188.5 52t169.5 181
l113 -70q-93 -152 -208.5 -226.5t-277.5 -74.5zM717 948q-160 0 -260 -96.5t-123 -276.5l-2 -20q149 5 259.5 21.5t173 38.5t100.5 53.5t49.5 60t11.5 62.5q0 70 -50 113.5t-159 43.5zM1030 1516l-264 -318l-96 57l221 340z" />
    <glyph glyph-name="ecircumflex" unicode="&#xea;" 
d="M567 -25q-202 0 -309.5 114t-107.5 339q0 287 163 470t418 183q160 0 259.5 -75t99.5 -209q0 -35 -7 -66t-28 -66.5t-56 -64t-94 -57t-138 -48.5t-193.5 -33.5t-254.5 -17.5q-2 -20 -2 -47q0 -61 11 -107.5t38 -88.5t81.5 -65t134.5 -23q111 0 188.5 52t169.5 181
l113 -70q-93 -152 -208.5 -226.5t-277.5 -74.5zM717 948q-160 0 -260 -96.5t-123 -276.5l-2 -20q149 5 259.5 21.5t173 38.5t100.5 53.5t49.5 60t11.5 62.5q0 70 -50 113.5t-159 43.5zM707 1567h200l178 -301l-94 -56l-196 240l-281 -240l-80 68z" />
    <glyph glyph-name="edieresis" unicode="&#xeb;" 
d="M567 -25q-202 0 -309.5 114t-107.5 339q0 287 163 470t418 183q160 0 259.5 -75t99.5 -209q0 -35 -7 -66t-28 -66.5t-56 -64t-94 -57t-138 -48.5t-193.5 -33.5t-254.5 -17.5q-2 -20 -2 -47q0 -61 11 -107.5t38 -88.5t81.5 -65t134.5 -23q111 0 188.5 52t169.5 181
l113 -70q-93 -152 -208.5 -226.5t-277.5 -74.5zM717 948q-160 0 -260 -96.5t-123 -276.5l-2 -20q149 5 259.5 21.5t173 38.5t100.5 53.5t49.5 60t11.5 62.5q0 70 -50 113.5t-159 43.5zM573 1268q-106 0 -106 73q0 16 8 52q10 44 36.5 66t84.5 22q106 0 106 -74q0 -15 -8 -51
q-10 -44 -36.5 -66t-84.5 -22zM954 1268q-106 0 -106 73q0 16 8 52q10 44 36.5 66t84.5 22q106 0 106 -74q0 -15 -8 -51q-10 -44 -36.5 -66t-84.5 -22z" />
    <glyph glyph-name="igrave" unicode="&#xec;" 
d="M557 -25q-75 0 -116.5 39.5t-41.5 102.5q0 13 11 82l139 721h-381l22 137h545l-178 -922l47 -18l404 348l96 -90l-186 -172q-146 -135 -219.5 -181.5t-141.5 -46.5zM655 1198l-153 342l151 55l107 -356z" />
    <glyph glyph-name="iacute" unicode="&#xed;" 
d="M557 -25q-75 0 -116.5 39.5t-41.5 102.5q0 13 11 82l139 721h-381l22 137h545l-178 -922l47 -18l404 348l96 -90l-186 -172q-146 -135 -219.5 -181.5t-141.5 -46.5zM952 1516l-264 -318l-96 57l221 340z" />
    <glyph glyph-name="icircumflex" unicode="&#xee;" 
d="M557 -25q-75 0 -116.5 39.5t-41.5 102.5q0 13 11 82l139 721h-381l22 137h545l-178 -922l47 -18l404 348l96 -90l-186 -172q-146 -135 -219.5 -181.5t-141.5 -46.5zM629 1567h200l179 -301l-95 -56l-196 240l-281 -240l-80 68z" />
    <glyph glyph-name="idieresis" unicode="&#xef;" 
d="M557 -25q-75 0 -116.5 39.5t-41.5 102.5q0 13 11 82l139 721h-381l22 137h545l-178 -922l47 -18l404 348l96 -90l-186 -172q-146 -135 -219.5 -181.5t-141.5 -46.5zM496 1268q-107 0 -107 73q0 16 8 52q10 44 36.5 66t84.5 22q56 0 81.5 -20.5t25.5 -53.5q0 -11 -9 -51
q-10 -44 -36 -66t-84 -22zM877 1268q-107 0 -107 73q0 16 8 52q10 44 36.5 66t84.5 22q56 0 81.5 -20.5t25.5 -53.5q0 -11 -9 -51q-10 -44 -36 -66t-84 -22z" />
    <glyph glyph-name="eth" unicode="&#xf0;" 
d="M1087 1448l-200 -127q217 -270 217 -635q0 -216 -66.5 -375t-198 -247.5t-315.5 -88.5q-181 0 -291 118.5t-110 312.5q0 130 39.5 245.5t108.5 199t167.5 132.5t210.5 49q101 0 183 -52t114 -134l10 4q-41 209 -192 393l-213 -133l-64 94l197 125q-114 110 -258 187h256
q74 -54 129 -109l213 135zM551 115q141 0 236.5 81.5t121.5 235.5l19 111q10 61 10 104q0 121 -70.5 183.5t-193.5 62.5q-141 0 -237 -81.5t-122 -236.5l-18 -110q-10 -61 -10 -105q0 -121 70 -183t194 -62z" />
    <glyph glyph-name="ntilde" unicode="&#xf1;" 
d="M281 0h-160l176 1057h160l-41 -250h8q62 134 146 204t206 70q133 0 210 -80.5t77 -224.5q0 -66 -12 -137l-107 -639h-160l105 625q10 61 10 112q0 96 -44.5 149.5t-131.5 53.5q-126 0 -223 -115q-101 -118 -121 -241zM877 1253q-12 0 -25 2t-22 3.5t-22 6.5t-19 7
t-19.5 9.5t-16 9.5t-17 11t-15.5 9q-76 47 -131 47q-53 0 -129 -60l-58 84q91 107 203 107q31 0 64 -11t45.5 -18.5t46.5 -27.5q78 -48 131 -48t129 60l57 -84q-91 -107 -202 -107z" />
    <glyph glyph-name="ograve" unicode="&#xf2;" 
d="M543 -25q-198 0 -305 122t-107 325q0 148 43 272.5t117.5 208.5t176 131t216.5 47q200 0 307 -121t107 -325q0 -296 -158.5 -478t-396.5 -182zM551 115q146 0 236.5 90t117.5 250l21 123q10 61 10 104q0 130 -68 195t-190 65q-146 0 -236.5 -90t-117.5 -250l-21 -123
q-10 -61 -10 -104q0 -130 68 -195t190 -65zM711 1198l-154 342l152 55l106 -356z" />
    <glyph glyph-name="oacute" unicode="&#xf3;" 
d="M543 -25q-198 0 -305 122t-107 325q0 148 43 272.5t117.5 208.5t176 131t216.5 47q200 0 307 -121t107 -325q0 -296 -158.5 -478t-396.5 -182zM551 115q146 0 236.5 90t117.5 250l21 123q10 61 10 104q0 130 -68 195t-190 65q-146 0 -236.5 -90t-117.5 -250l-21 -123
q-10 -61 -10 -104q0 -130 68 -195t190 -65zM1008 1516l-265 -318l-96 57l221 340z" />
    <glyph glyph-name="ocircumflex" unicode="&#xf4;" 
d="M543 -25q-198 0 -305 122t-107 325q0 148 43 272.5t117.5 208.5t176 131t216.5 47q200 0 307 -121t107 -325q0 -296 -158.5 -478t-396.5 -182zM551 115q146 0 236.5 90t117.5 250l21 123q10 61 10 104q0 130 -68 195t-190 65q-146 0 -236.5 -90t-117.5 -250l-21 -123
q-10 -61 -10 -104q0 -130 68 -195t190 -65zM684 1567h201l178 -301l-94 -56l-197 240l-280 -240l-80 68z" />
    <glyph glyph-name="otilde" unicode="&#xf5;" 
d="M543 -25q-198 0 -305 122t-107 325q0 148 43 272.5t117.5 208.5t176 131t216.5 47q200 0 307 -121t107 -325q0 -296 -158.5 -478t-396.5 -182zM551 115q146 0 236.5 90t117.5 250l21 123q10 61 10 104q0 130 -68 195t-190 65q-146 0 -236.5 -90t-117.5 -250l-21 -123
q-10 -61 -10 -104q0 -130 68 -195t190 -65zM889 1253q-12 0 -25 2t-22 3.5t-22 6.5t-19 7t-19.5 9.5t-16 9.5t-17 11t-15.5 9q-76 47 -131 47q-53 0 -129 -60l-57 84q91 107 202 107q31 0 64 -11t45.5 -18.5t46.5 -27.5q78 -48 131 -48t129 60l58 -84q-91 -107 -203 -107z
" />
    <glyph glyph-name="odieresis" unicode="&#xf6;" 
d="M543 -25q-198 0 -305 122t-107 325q0 148 43 272.5t117.5 208.5t176 131t216.5 47q200 0 307 -121t107 -325q0 -296 -158.5 -478t-396.5 -182zM551 115q146 0 236.5 90t117.5 250l21 123q10 61 10 104q0 130 -68 195t-190 65q-146 0 -236.5 -90t-117.5 -250l-21 -123
q-10 -61 -10 -104q0 -130 68 -195t190 -65zM551 1268q-107 0 -107 73q0 11 9 52q10 44 36 66t84 22q56 0 81.5 -20.5t25.5 -53.5q0 -15 -8 -51q-10 -44 -36.5 -66t-84.5 -22zM932 1268q-107 0 -107 73q0 11 9 52q10 44 36 66t84 22q56 0 81.5 -20.5t25.5 -53.5q0 -15 -8 -51
q-10 -44 -36.5 -66t-84.5 -22z" />
    <glyph glyph-name="divide" unicode="&#xf7;" 
d="M1102 557h-965l23 135h964zM551 106q-117 0 -117 82q0 20 6 56q17 102 138 102q116 0 116 -82q0 -19 -6 -55q-17 -103 -137 -103zM684 903q-117 0 -117 82q0 19 6 55q17 103 138 103q116 0 116 -82q0 -19 -6 -55q-17 -103 -137 -103z" />
    <glyph glyph-name="oslash" unicode="&#xf8;" 
d="M104 -70l-88 70l170 174q-55 107 -55 248q0 296 158.5 477.5t396.5 181.5q182 0 291 -106l147 151l88 -69l-170 -174q56 -109 56 -248q0 -296 -158.5 -478t-396.5 -182q-181 0 -291 107zM678 942q-146 0 -236.5 -90t-117.5 -250l-21 -123q-10 -61 -10 -104q0 -54 10 -88
l569 585q-67 70 -194 70zM551 115q146 0 236.5 90t117.5 250l21 123q10 61 10 104q0 54 -10 88l-570 -586q66 -69 195 -69z" />
    <glyph glyph-name="ugrave" unicode="&#xf9;" 
d="M776 0l41 250h-8q-62 -134 -146 -204.5t-206 -70.5q-133 0 -210 81t-77 225q0 67 12 137l107 639h160l-105 -625q-10 -61 -10 -113q0 -96 44.5 -149t131.5 -53q127 0 223 114q101 118 121 242l98 584h160l-176 -1057h-160zM705 1198l-154 342l151 55l107 -356z" />
    <glyph glyph-name="uacute" unicode="&#xfa;" 
d="M776 0l41 250h-8q-62 -134 -146 -204.5t-206 -70.5q-133 0 -210 81t-77 225q0 67 12 137l107 639h160l-105 -625q-10 -61 -10 -113q0 -96 44.5 -149t131.5 -53q127 0 223 114q101 118 121 242l98 584h160l-176 -1057h-160zM1001 1516l-264 -318l-96 57l221 340z" />
    <glyph glyph-name="ucircumflex" unicode="&#xfb;" 
d="M776 0l41 250h-8q-62 -134 -146 -204.5t-206 -70.5q-133 0 -210 81t-77 225q0 67 12 137l107 639h160l-105 -625q-10 -61 -10 -113q0 -96 44.5 -149t131.5 -53q127 0 223 114q101 118 121 242l98 584h160l-176 -1057h-160zM678 1567h201l178 -301l-94 -56l-197 240
l-281 -240l-79 68z" />
    <glyph glyph-name="udieresis" unicode="&#xfc;" 
d="M776 0l41 250h-8q-62 -134 -146 -204.5t-206 -70.5q-133 0 -210 81t-77 225q0 67 12 137l107 639h160l-105 -625q-10 -61 -10 -113q0 -96 44.5 -149t131.5 -53q127 0 223 114q101 118 121 242l98 584h160l-176 -1057h-160zM545 1268q-107 0 -107 73q0 16 8 52
q10 44 36.5 66t84.5 22q56 0 81.5 -20.5t25.5 -53.5q0 -15 -8 -51q-10 -44 -36.5 -66t-84.5 -22zM926 1268q-107 0 -107 73q0 16 8 52q10 44 36.5 66t84.5 22q56 0 81.5 -20.5t25.5 -53.5q0 -15 -8 -51q-10 -44 -36.5 -66t-84.5 -22z" />
    <glyph glyph-name="yacute" unicode="&#xfd;" 
d="M426 -434q-254 0 -371 145l111 107q87 -111 270 -111q149 0 234 77.5t112 246.5l41 250h-6q-62 -134 -147 -204.5t-207 -70.5q-133 0 -211 81t-78 224q0 48 12 131l103 615h160l-101 -600q-10 -59 -10 -107q0 -96 45 -149.5t133 -53.5q126 0 223 115q101 118 121 242
l92 553h160l-176 -1057q-74 -434 -510 -434zM1012 1516l-264 -318l-97 57l221 340z" />
    <glyph glyph-name="thorn" unicode="&#xfe;" 
d="M39 -410l323 1926h160l-119 -709h7q66 134 154 204t220 70q161 0 245.5 -104t84.5 -305q0 -90 -15.5 -181.5t-53.5 -185.5t-93.5 -166.5t-143 -118t-194.5 -45.5q-117 0 -196 53t-113 156h-6l-100 -594h-160zM567 117q148 0 237.5 89.5t115.5 242.5l24 147q8 49 8 92
q0 120 -57 186t-166 66q-142 0 -248 -117q-94 -104 -116 -241l-39 -234q-18 -107 50.5 -169t190.5 -62z" />
    <glyph glyph-name="ydieresis" unicode="&#xff;" 
d="M426 -434q-254 0 -371 145l111 107q87 -111 270 -111q149 0 234 77.5t112 246.5l41 250h-6q-62 -134 -147 -204.5t-207 -70.5q-133 0 -211 81t-78 224q0 48 12 131l103 615h160l-101 -600q-10 -59 -10 -107q0 -96 45 -149.5t133 -53.5q126 0 223 115q101 118 121 242
l92 553h160l-176 -1057q-74 -434 -510 -434zM555 1268q-106 0 -106 73q0 16 8 52q10 44 36.5 66t84.5 22q106 0 106 -74q0 -15 -8 -51q-10 -44 -36.5 -66t-84.5 -22zM936 1268q-107 0 -107 73q0 11 9 52q10 44 36 66t84 22q56 0 81.5 -20.5t25.5 -53.5q0 -15 -8 -51
q-10 -44 -36.5 -66t-84.5 -22z" />
    <glyph glyph-name="Amacron" unicode="&#x100;" 
d="M1081 0h-176l-51 408h-504l-188 -408h-180l675 1430h226zM838 557l-88 700h-19l-317 -700h424zM520 1655l23 137h567l-23 -137h-567z" />
    <glyph glyph-name="amacron" unicode="&#x101;" 
d="M944 0h-160l41 250h-6q-66 -134 -154.5 -204.5t-220.5 -70.5q-160 0 -244.5 104t-84.5 306q0 74 11.5 150t35 155.5t63.5 148.5t93.5 124t129.5 86.5t166 31.5q117 0 196.5 -53.5t113.5 -155.5h6l31 185h159zM500 117q143 0 248 116q93 104 116 242l39 234
q18 107 -50.5 169t-190.5 62q-148 0 -237.5 -89.5t-115.5 -242.5l-24 -147q-9 -55 -9 -92q0 -120 57.5 -186t166.5 -66zM410 1307l22 137h567l-22 -137h-567z" />
    <glyph glyph-name="Abreve" unicode="&#x102;" 
d="M1081 0h-176l-51 408h-504l-188 -408h-180l675 1430h226zM838 557l-88 700h-19l-317 -700h424zM797 1567q-245 0 -289 309l98 43l31 -70q38 -87 69 -120t95 -33q42 0 75 17.5t57.5 44t76.5 91.5l55 70l102 -43q-22 -48 -40.5 -82t-53 -80.5t-70.5 -75.5t-90 -50t-116 -21
z" />
    <glyph glyph-name="abreve" unicode="&#x103;" 
d="M944 0h-160l41 250h-6q-66 -134 -154.5 -204.5t-220.5 -70.5q-160 0 -244.5 104t-84.5 306q0 74 11.5 150t35 155.5t63.5 148.5t93.5 124t129.5 86.5t166 31.5q117 0 196.5 -53.5t113.5 -155.5h6l31 185h159zM500 117q143 0 248 116q93 104 116 242l39 234
q18 107 -50.5 169t-190.5 62q-148 0 -237.5 -89.5t-115.5 -242.5l-24 -147q-9 -55 -9 -92q0 -120 57.5 -186t166.5 -66zM686 1219q-245 0 -289 309l99 43l30 -70q38 -87 69 -120t95 -33q42 0 75 17.5t57.5 44t76.5 91.5l55 70l103 -43q-18 -39 -33.5 -68t-40.5 -68
t-53.5 -67t-64.5 -53.5t-81.5 -39t-97.5 -13.5z" />
    <glyph glyph-name="Aogonek" unicode="&#x104;" 
d="M-18 0l675 1430h226l198 -1430q-148 -97 -197.5 -153.5t-49.5 -96.5q0 -32 19.5 -47.5t49.5 -15.5q56 0 115 53l78 -88q-72 -76 -201 -76q-86 0 -143.5 38t-57.5 116q0 79 65.5 140t192.5 120v10h-47l-51 408h-504l-188 -408h-180zM838 557l-88 700h-19l-317 -700h424z
" />
    <glyph glyph-name="aogonek" unicode="&#x105;" 
d="M1120 1057l-176 -1057q-148 -97 -198 -153.5t-50 -96.5q0 -32 20 -47.5t50 -15.5q56 0 115 53l77 -88q-72 -76 -200 -76q-86 0 -143.5 38t-57.5 116q0 79 65.5 140t192.5 120v10h-31l41 250h-6q-66 -134 -154.5 -204.5t-220.5 -70.5q-160 0 -244.5 104t-84.5 306
q0 74 11.5 150t35 155.5t63.5 148.5t93.5 124t129.5 86.5t166 31.5q117 0 196.5 -53.5t113.5 -155.5h6l31 185h159zM500 117q143 0 248 116q93 104 116 242l39 234q18 107 -50.5 169t-190.5 62q-148 0 -237.5 -89.5t-115.5 -242.5l-24 -147q-9 -55 -9 -92q0 -120 57.5 -186
t166.5 -66z" />
    <glyph glyph-name="Cacute" unicode="&#x106;" 
d="M588 -25q-428 0 -428 517q0 76 8 157.5t28.5 177t52 183t83 169.5t115.5 142t155.5 96.5t198.5 36.5q76 0 138.5 -19t104.5 -49.5t73 -73.5t48 -87t27 -95l-152 -49q-12 51 -28.5 88t-44.5 70.5t-73 50.5t-106 17q-167 0 -270 -126.5t-141 -355.5l-33 -196
q-16 -98 -16 -180q0 -154 67.5 -240t210.5 -86q61 0 108 16t88.5 54t75.5 86.5t78 126.5l134 -68q-58 -119 -122 -195.5t-160 -122t-220 -45.5zM1108 1864l-264 -318l-96 58l221 340z" />
    <glyph glyph-name="cacute" unicode="&#x107;" 
d="M553 -25q-192 0 -295.5 122t-103.5 325q0 148 42.5 272.5t116.5 208.5t173.5 131t211.5 47q157 0 248 -70t121 -184l-137 -53q-30 94 -89 131t-161 37q-135 0 -220.5 -88t-113.5 -254l-20 -123q-11 -67 -11 -98q0 -131 69 -197.5t189 -66.5q40 0 72.5 8.5t75.5 33.5
t93.5 78.5t111.5 137.5l114 -68q-105 -170 -216.5 -250t-270.5 -80zM999 1516l-264 -318l-96 57l221 340z" />
    <glyph glyph-name="Ccircumflex" unicode="&#x108;" 
d="M588 -25q-428 0 -428 517q0 76 8 157.5t28.5 177t52 183t83 169.5t115.5 142t155.5 96.5t198.5 36.5q76 0 138.5 -19t104.5 -49.5t73 -73.5t48 -87t27 -95l-152 -49q-12 51 -28.5 88t-44.5 70.5t-73 50.5t-106 17q-167 0 -270 -126.5t-141 -355.5l-33 -196
q-16 -98 -16 -180q0 -154 67.5 -240t210.5 -86q61 0 108 16t88.5 54t75.5 86.5t78 126.5l134 -68q-58 -119 -122 -195.5t-160 -122t-220 -45.5zM784 1915h201l178 -301l-94 -55l-197 239l-280 -239l-80 67z" />
    <glyph glyph-name="ccircumflex" unicode="&#x109;" 
d="M553 -25q-192 0 -295.5 122t-103.5 325q0 148 42.5 272.5t116.5 208.5t173.5 131t211.5 47q157 0 248 -70t121 -184l-137 -53q-30 94 -89 131t-161 37q-135 0 -220.5 -88t-113.5 -254l-20 -123q-11 -67 -11 -98q0 -131 69 -197.5t189 -66.5q40 0 72.5 8.5t75.5 33.5
t93.5 78.5t111.5 137.5l114 -68q-105 -170 -216.5 -250t-270.5 -80zM676 1567h201l178 -301l-94 -56l-197 240l-281 -240l-80 68z" />
    <glyph glyph-name="Cdotaccent" unicode="&#x10a;" 
d="M588 -25q-428 0 -428 517q0 76 8 157.5t28.5 177t52 183t83 169.5t115.5 142t155.5 96.5t198.5 36.5q76 0 138.5 -19t104.5 -49.5t73 -73.5t48 -87t27 -95l-152 -49q-12 51 -28.5 88t-44.5 70.5t-73 50.5t-106 17q-167 0 -270 -126.5t-141 -355.5l-33 -196
q-16 -98 -16 -180q0 -154 67.5 -240t210.5 -86q61 0 108 16t88.5 54t75.5 86.5t78 126.5l134 -68q-58 -119 -122 -195.5t-160 -122t-220 -45.5zM838 1602q-62 0 -90.5 22.5t-28.5 58.5q0 12 8 60q7 42 40 70t95 28t90.5 -23t28.5 -59q0 -11 -8 -59q-7 -42 -40 -70t-95 -28z
" />
    <glyph glyph-name="cdotaccent" unicode="&#x10b;" 
d="M553 -25q-192 0 -295.5 122t-103.5 325q0 148 42.5 272.5t116.5 208.5t173.5 131t211.5 47q157 0 248 -70t121 -184l-137 -53q-30 94 -89 131t-161 37q-135 0 -220.5 -88t-113.5 -254l-20 -123q-11 -67 -11 -98q0 -131 69 -197.5t189 -66.5q40 0 72.5 8.5t75.5 33.5
t93.5 78.5t111.5 137.5l114 -68q-105 -170 -216.5 -250t-270.5 -80zM729 1253q-62 0 -90.5 23t-28.5 59q0 12 8 60q7 42 40.5 70t95.5 28t90 -23t28 -59q0 -11 -8 -59q-7 -42 -40 -70.5t-95 -28.5z" />
    <glyph glyph-name="Ccaron" unicode="&#x10c;" 
d="M588 -25q-428 0 -428 517q0 76 8 157.5t28.5 177t52 183t83 169.5t115.5 142t155.5 96.5t198.5 36.5q76 0 138.5 -19t104.5 -49.5t73 -73.5t48 -87t27 -95l-152 -49q-12 51 -28.5 88t-44.5 70.5t-73 50.5t-106 17q-167 0 -270 -126.5t-141 -355.5l-33 -196
q-16 -98 -16 -180q0 -154 67.5 -240t210.5 -86q61 0 108 16t88.5 54t75.5 86.5t78 126.5l134 -68q-58 -119 -122 -195.5t-160 -122t-220 -45.5zM930 1575h-201l-178 301l94 55l197 -239l280 239l80 -67z" />
    <glyph glyph-name="ccaron" unicode="&#x10d;" 
d="M553 -25q-192 0 -295.5 122t-103.5 325q0 148 42.5 272.5t116.5 208.5t173.5 131t211.5 47q157 0 248 -70t121 -184l-137 -53q-30 94 -89 131t-161 37q-135 0 -220.5 -88t-113.5 -254l-20 -123q-11 -67 -11 -98q0 -131 69 -197.5t189 -66.5q40 0 72.5 8.5t75.5 33.5
t93.5 78.5t111.5 137.5l114 -68q-105 -170 -216.5 -250t-270.5 -80zM821 1227h-200l-179 301l95 55l196 -240l281 240l80 -67z" />
    <glyph glyph-name="Dcaron" unicode="&#x10e;" 
d="M113 0l239 1430h350q218 0 336.5 -128t118.5 -333q0 -487 -170.5 -728t-478.5 -241h-395zM305 147h217q170 0 276.5 112.5t143.5 332.5l33 196q14 86 14 177q0 155 -78 236t-229 81h-186zM805 1575h-201l-178 301l94 55l197 -239l280 239l80 -67z" />
    <glyph glyph-name="dcaron" unicode="&#x10f;" 
d="M395 -25q-152 0 -232.5 104.5t-80.5 305.5q0 73 11 149.5t33.5 156t62 148.5t90.5 124t124.5 86.5t159.5 31.5q113 0 190.5 -53.5t108.5 -155.5h6l107 644h160l-254 -1516h-160l41 250h-6q-63 -134 -148.5 -204.5t-212.5 -70.5zM455 117q134 0 235 119q89 104 111 241
l39 232q19 110 -48.5 170.5t-181.5 60.5q-138 0 -223 -88.5t-111 -241.5l-24 -147q-8 -49 -8 -92q0 -121 54 -187.5t157 -66.5zM1208 1133l74 383h209l-164 -383h-119z" />
    <glyph glyph-name="Dcroat" unicode="&#x110;" 
d="M113 0l114 690h-164l21 127h166l102 613h350q218 0 336.5 -128t118.5 -333q0 -487 -170.5 -728t-478.5 -241h-395zM305 147h217q170 0 276.5 112.5t143.5 332.5l33 196q14 86 14 177q0 155 -78 236t-229 81h-186l-78 -465h284l-20 -127h-285z" />
    <glyph glyph-name="dcroat" unicode="&#x111;" 
d="M784 0l41 250h-6q-66 -134 -154.5 -204.5t-220.5 -70.5q-160 0 -244.5 104t-84.5 306q0 74 11.5 150t35 155.5t63.5 148.5t93.5 124t129.5 86.5t166 31.5q117 0 196.5 -53.5t113.5 -155.5h6l63 375h-313l20 123h314l24 146h160l-24 -146h131l-21 -123h-131l-209 -1247
h-160zM500 117q143 0 248 116q93 104 116 242l39 234q18 107 -50.5 169t-190.5 62q-148 0 -237.5 -89.5t-115.5 -242.5l-24 -147q-9 -55 -9 -92q0 -120 57.5 -186t166.5 -66z" />
    <glyph glyph-name="Emacron" unicode="&#x112;" 
d="M977 0h-881l240 1430h876l-24 -148h-709l-82 -483h686l-24 -148h-686l-84 -504h712zM530 1655l23 137h567l-22 -137h-568z" />
    <glyph glyph-name="emacron" unicode="&#x113;" 
d="M567 -25q-202 0 -309.5 114t-107.5 339q0 287 163 470t418 183q160 0 259.5 -75t99.5 -209q0 -35 -7 -66t-28 -66.5t-56 -64t-94 -57t-138 -48.5t-193.5 -33.5t-254.5 -17.5q-2 -20 -2 -47q0 -61 11 -107.5t38 -88.5t81.5 -65t134.5 -23q111 0 188.5 52t169.5 181
l113 -70q-93 -152 -208.5 -226.5t-277.5 -74.5zM717 948q-160 0 -260 -96.5t-123 -276.5l-2 -20q149 5 259.5 21.5t173 38.5t100.5 53.5t49.5 60t11.5 62.5q0 70 -50 113.5t-159 43.5zM479 1307l23 137h567l-22 -137h-568z" />
    <glyph glyph-name="Ebreve" unicode="&#x114;" 
d="M977 0h-881l240 1430h876l-24 -148h-709l-82 -483h686l-24 -148h-686l-84 -504h712zM807 1567q-245 0 -289 309l98 43l31 -70q38 -87 69 -120t95 -33q42 0 75 17.5t57.5 44t76.5 91.5l55 70l103 -43q-18 -39 -33.5 -68t-40.5 -68t-53.5 -67t-64.5 -53.5t-81.5 -39
t-97.5 -13.5z" />
    <glyph glyph-name="ebreve" unicode="&#x115;" 
d="M567 -25q-202 0 -309.5 114t-107.5 339q0 287 163 470t418 183q160 0 259.5 -75t99.5 -209q0 -35 -7 -66t-28 -66.5t-56 -64t-94 -57t-138 -48.5t-193.5 -33.5t-254.5 -17.5q-2 -20 -2 -47q0 -61 11 -107.5t38 -88.5t81.5 -65t134.5 -23q111 0 188.5 52t169.5 181
l113 -70q-93 -152 -208.5 -226.5t-277.5 -74.5zM717 948q-160 0 -260 -96.5t-123 -276.5l-2 -20q149 5 259.5 21.5t173 38.5t100.5 53.5t49.5 60t11.5 62.5q0 70 -50 113.5t-159 43.5zM756 1219q-245 0 -289 309l98 43l31 -70q38 -87 69 -120t95 -33q42 0 75 17.5t57.5 44
t76.5 91.5l55 70l102 -43q-22 -48 -40.5 -82t-53 -80.5t-70.5 -75.5t-90 -50t-116 -21z" />
    <glyph glyph-name="Edotaccent" unicode="&#x116;" 
d="M977 0h-881l240 1430h876l-24 -148h-709l-82 -483h686l-24 -148h-686l-84 -504h712zM811 1602q-62 0 -90.5 22.5t-28.5 58.5q0 12 8 60q7 42 40.5 70t95.5 28t90 -23t28 -59q0 -11 -8 -59q-7 -42 -40 -70t-95 -28z" />
    <glyph glyph-name="edotaccent" unicode="&#x117;" 
d="M567 -25q-202 0 -309.5 114t-107.5 339q0 287 163 470t418 183q160 0 259.5 -75t99.5 -209q0 -35 -7 -66t-28 -66.5t-56 -64t-94 -57t-138 -48.5t-193.5 -33.5t-254.5 -17.5q-2 -20 -2 -47q0 -61 11 -107.5t38 -88.5t81.5 -65t134.5 -23q111 0 188.5 52t169.5 181
l113 -70q-93 -152 -208.5 -226.5t-277.5 -74.5zM717 948q-160 0 -260 -96.5t-123 -276.5l-2 -20q149 5 259.5 21.5t173 38.5t100.5 53.5t49.5 60t11.5 62.5q0 70 -50 113.5t-159 43.5zM760 1253q-62 0 -90.5 23t-28.5 59q0 12 8 60q7 42 40 70t95 28t90.5 -23t28.5 -59
q0 -11 -8 -59q-7 -42 -40 -70.5t-95 -28.5z" />
    <glyph glyph-name="Eogonek" unicode="&#x118;" 
d="M96 0l240 1430h876l-24 -148h-709l-82 -483h686l-24 -148h-686l-84 -504h712l-24 -147q-148 -97 -198 -153.5t-50 -96.5q0 -32 20 -47.5t50 -15.5q55 0 114 53l78 -88q-72 -76 -200 -76q-86 0 -143.5 38t-57.5 116q0 80 66 141.5t194 118.5l-2 10h-752z" />
    <glyph glyph-name="eogonek" unicode="&#x119;" 
d="M653 -424q-86 0 -143 38t-57 116q0 143 211 243l-2 9q-51 -7 -95 -7q-202 0 -309.5 114t-107.5 339q0 287 163 470t418 183q160 0 259.5 -75t99.5 -209q0 -35 -7 -66t-28 -66.5t-56 -64t-94 -57t-138 -48.5t-193.5 -33.5t-254.5 -17.5q-2 -20 -2 -47q0 -61 11 -107.5
t38 -88.5t81.5 -65t134.5 -23q111 0 188.5 52t169.5 181l113 -70q-81 -135 -213 -227q-142 -99 -195 -166.5t-53 -126.5q0 -35 21 -52t53 -17q51 0 110 53l78 -88q-72 -76 -201 -76zM717 948q-160 0 -260 -96.5t-123 -276.5l-2 -20q149 5 259.5 21.5t173 38.5t100.5 53.5
t49.5 60t11.5 62.5q0 70 -50 113.5t-159 43.5z" />
    <glyph glyph-name="Ecaron" unicode="&#x11a;" 
d="M977 0h-881l240 1430h876l-24 -148h-709l-82 -483h686l-24 -148h-686l-84 -504h712zM903 1575h-201l-178 301l94 55l197 -239l281 239l80 -67z" />
    <glyph glyph-name="ecaron" unicode="&#x11b;" 
d="M567 -25q-202 0 -309.5 114t-107.5 339q0 287 163 470t418 183q160 0 259.5 -75t99.5 -209q0 -35 -7 -66t-28 -66.5t-56 -64t-94 -57t-138 -48.5t-193.5 -33.5t-254.5 -17.5q-2 -20 -2 -47q0 -61 11 -107.5t38 -88.5t81.5 -65t134.5 -23q111 0 188.5 52t169.5 181
l113 -70q-93 -152 -208.5 -226.5t-277.5 -74.5zM717 948q-160 0 -260 -96.5t-123 -276.5l-2 -20q149 5 259.5 21.5t173 38.5t100.5 53.5t49.5 60t11.5 62.5q0 70 -50 113.5t-159 43.5zM852 1227h-201l-178 301l94 55l197 -240l280 240l80 -67z" />
    <glyph glyph-name="Gcircumflex" unicode="&#x11c;" 
d="M827 0l35 209h-10q-33 -55 -61.5 -91.5t-70 -72t-95.5 -53t-121 -17.5q-182 0 -275.5 131t-93.5 386q0 76 8 157.5t29 177t52.5 183t83 169.5t115.5 142t155 96.5t198 36.5q76 0 138.5 -19t104.5 -49.5t73 -73.5t48 -87t27 -95l-151 -49q-12 51 -28.5 88t-44.5 70.5
t-73 50.5t-106 17q-169 0 -271.5 -127.5t-140.5 -356.5l-33 -196q-12 -73 -12 -166q0 -342 250 -342q140 0 230.5 96.5t115.5 243.5l19 110h-299l22 136h455l-117 -705h-156zM733 1915h201l178 -301l-94 -55l-197 239l-280 -239l-80 67z" />
    <glyph glyph-name="gcircumflex" unicode="&#x11d;" 
d="M434 -434q-254 0 -371 145l111 107q87 -111 270 -111q148 0 233 76.5t114 247.5l43 254h-9q-64 -135 -153.5 -205t-222.5 -70q-162 0 -247 104t-85 298q0 60 8 122.5t26.5 129t46 126.5t68 113.5t90 92.5t116 62t142.5 23q117 0 196.5 -53.5t113.5 -155.5h6l31 185h159
l-176 -1057q-74 -434 -510 -434zM504 152q145 0 250 116q95 105 116 240l33 201q18 107 -50.5 169t-190.5 62q-146 0 -237 -88t-116 -240l-18 -110q-10 -62 -10 -90q0 -127 56.5 -193.5t166.5 -66.5zM653 1567h201l178 -301l-94 -56l-197 240l-280 -240l-80 68z" />
    <glyph glyph-name="Gbreve" unicode="&#x11e;" 
d="M827 0l35 209h-10q-33 -55 -61.5 -91.5t-70 -72t-95.5 -53t-121 -17.5q-182 0 -275.5 131t-93.5 386q0 76 8 157.5t29 177t52.5 183t83 169.5t115.5 142t155 96.5t198 36.5q76 0 138.5 -19t104.5 -49.5t73 -73.5t48 -87t27 -95l-151 -49q-12 51 -28.5 88t-44.5 70.5
t-73 50.5t-106 17q-169 0 -271.5 -127.5t-140.5 -356.5l-33 -196q-12 -73 -12 -166q0 -342 250 -342q140 0 230.5 96.5t115.5 243.5l19 110h-299l22 136h455l-117 -705h-156zM782 1567q-244 0 -288 309l98 43l31 -70q20 -45 32 -68t31 -45.5t42.5 -31t57.5 -8.5
q42 0 75 17.5t57.5 44t76.5 91.5l56 70l102 -43q-18 -39 -33.5 -68t-40.5 -68t-53.5 -67t-64.5 -53.5t-81.5 -39t-97.5 -13.5z" />
    <glyph glyph-name="gbreve" unicode="&#x11f;" 
d="M434 -434q-254 0 -371 145l111 107q87 -111 270 -111q148 0 233 76.5t114 247.5l43 254h-9q-64 -135 -153.5 -205t-222.5 -70q-162 0 -247 104t-85 298q0 60 8 122.5t26.5 129t46 126.5t68 113.5t90 92.5t116 62t142.5 23q117 0 196.5 -53.5t113.5 -155.5h6l31 185h159
l-176 -1057q-74 -434 -510 -434zM504 152q145 0 250 116q95 105 116 240l33 201q18 107 -50.5 169t-190.5 62q-146 0 -237 -88t-116 -240l-18 -110q-10 -62 -10 -90q0 -127 56.5 -193.5t166.5 -66.5zM702 1219q-244 0 -288 309l98 43l31 -70q38 -87 69 -120t95 -33
q42 0 75 17.5t57 43.5t76 92l56 70l102 -43q-18 -39 -33.5 -68t-40.5 -68t-53.5 -67t-64.5 -53.5t-81.5 -39t-97.5 -13.5z" />
    <glyph glyph-name="Gdotaccent" unicode="&#x120;" 
d="M827 0l35 209h-10q-33 -55 -61.5 -91.5t-70 -72t-95.5 -53t-121 -17.5q-182 0 -275.5 131t-93.5 386q0 76 8 157.5t29 177t52.5 183t83 169.5t115.5 142t155 96.5t198 36.5q76 0 138.5 -19t104.5 -49.5t73 -73.5t48 -87t27 -95l-151 -49q-12 51 -28.5 88t-44.5 70.5
t-73 50.5t-106 17q-169 0 -271.5 -127.5t-140.5 -356.5l-33 -196q-12 -73 -12 -166q0 -342 250 -342q140 0 230.5 96.5t115.5 243.5l19 110h-299l22 136h455l-117 -705h-156zM786 1602q-62 0 -90 22.5t-28 58.5q0 12 8 60q7 42 40 70t95 28t90.5 -23t28.5 -59q0 -11 -8 -59
q-7 -42 -40.5 -70t-95.5 -28z" />
    <glyph glyph-name="gdotaccent" unicode="&#x121;" 
d="M434 -434q-254 0 -371 145l111 107q87 -111 270 -111q148 0 233 76.5t114 247.5l43 254h-9q-64 -135 -153.5 -205t-222.5 -70q-162 0 -247 104t-85 298q0 60 8 122.5t26.5 129t46 126.5t68 113.5t90 92.5t116 62t142.5 23q117 0 196.5 -53.5t113.5 -155.5h6l31 185h159
l-176 -1057q-74 -434 -510 -434zM504 152q145 0 250 116q95 105 116 240l33 201q18 107 -50.5 169t-190.5 62q-146 0 -237 -88t-116 -240l-18 -110q-10 -62 -10 -90q0 -127 56.5 -193.5t166.5 -66.5zM707 1253q-62 0 -90.5 23t-28.5 59q0 12 8 60q7 42 40 70t95 28t90.5 -23
t28.5 -59q0 -11 -8 -59q-7 -42 -40 -70.5t-95 -28.5z" />
    <glyph glyph-name="Gcommaaccent" unicode="&#x122;" 
d="M827 0l35 209h-10q-33 -55 -61.5 -91.5t-70 -72t-95.5 -53t-121 -17.5q-182 0 -275.5 131t-93.5 386q0 76 8 157.5t29 177t52.5 183t83 169.5t115.5 142t155 96.5t198 36.5q76 0 138.5 -19t104.5 -49.5t73 -73.5t48 -87t27 -95l-151 -49q-12 51 -28.5 88t-44.5 70.5
t-73 50.5t-106 17q-169 0 -271.5 -127.5t-140.5 -356.5l-33 -196q-12 -73 -12 -166q0 -342 250 -342q140 0 230.5 96.5t115.5 243.5l19 110h-299l22 136h455l-117 -705h-156zM346 -510l113 379h221l-209 -379h-125z" />
    <glyph glyph-name="gcommaaccent" unicode="&#x123;" 
d="M434 -434q-254 0 -371 145l111 107q87 -111 270 -111q148 0 233 76.5t114 247.5l43 254h-9q-64 -135 -153.5 -205t-222.5 -70q-162 0 -247 104t-85 298q0 60 8 122.5t26.5 129t46 126.5t68 113.5t90 92.5t116 62t142.5 23q117 0 196.5 -53.5t113.5 -155.5h6l31 185h159
l-176 -1057q-74 -434 -510 -434zM504 152q145 0 250 116q95 105 116 240l33 201q18 107 -50.5 169t-190.5 62q-146 0 -237 -88t-116 -240l-18 -110q-10 -62 -10 -90q0 -127 56.5 -193.5t166.5 -66.5zM584 1206l209 379h125l-113 -379h-221z" />
    <glyph glyph-name="Hcircumflex" unicode="&#x124;" 
d="M805 0l108 651h-557l-108 -651h-168l239 1430h168l-106 -631h557l106 631h168l-239 -1430h-168zM743 1915h201l178 -301l-94 -55l-197 239l-280 -239l-80 67z" />
    <glyph glyph-name="hcircumflex" unicode="&#x125;" 
d="M121 0l254 1516h160l-119 -709h8q62 134 146 204t206 70q133 0 210 -80.5t77 -224.5q0 -66 -12 -137l-107 -639h-160l105 625q10 61 10 112q0 96 -44.5 149.5t-131.5 53.5q-126 0 -223 -115q-101 -118 -121 -241l-98 -584h-160zM416 1939h200l179 -301l-95 -55l-196 240
l-281 -240l-80 68z" />
    <glyph glyph-name="Hbar" unicode="&#x126;" 
d="M805 0l108 651h-557l-108 -651h-168l178 1061h-141l20 129h144l38 240h168l-41 -240h560l38 240h168l-41 -240h144l-21 -129h-143l-178 -1061h-168zM379 799h559l45 262h-557z" />
    <glyph glyph-name="hbar" unicode="&#x127;" 
d="M121 0l209 1247h-133l20 123h133l25 146h160l-25 -146h309l-20 -123h-310l-73 -440h8q62 134 146 204t206 70q133 0 210 -80.5t77 -224.5q0 -66 -12 -137l-107 -639h-160l105 625q10 61 10 112q0 96 -44.5 149.5t-131.5 53.5q-126 0 -223 -115q-101 -118 -121 -241
l-98 -584h-160z" />
    <glyph glyph-name="Itilde" unicode="&#x128;" 
d="M969 0h-885l22 135h359l194 1159h-358l23 136h884l-22 -136h-359l-194 -1159h358zM948 1602q-10 0 -20 1t-18 2.5t-17.5 4.5t-16 5t-16 6.5t-14.5 6.5t-14.5 7.5t-13 8t-13 8t-12.5 7.5q-76 47 -131 47t-130 -59l-57 84q90 106 203 106q31 0 64 -11t45.5 -18.5
t46.5 -27.5q76 -47 131 -47q54 0 129 59l57 -84q-90 -106 -203 -106z" />
    <glyph glyph-name="itilde" unicode="&#x129;" 
d="M557 -25q-75 0 -116.5 39.5t-41.5 102.5q0 13 11 82l139 721h-381l22 137h545l-178 -922l47 -18l404 348l96 -90l-186 -172q-146 -135 -219.5 -181.5t-141.5 -46.5zM834 1253q-12 0 -25 2t-22 3.5t-22 6.5t-19 7t-19.5 9.5t-16 9.5t-17 11t-15.5 9q-76 47 -131 47
q-53 0 -129 -60l-58 84q91 107 203 107q31 0 64 -11t45.5 -18.5t46.5 -27.5q78 -48 131 -48t129 60l57 -84q-91 -107 -202 -107z" />
    <glyph glyph-name="Imacron" unicode="&#x12a;" 
d="M969 0h-885l22 135h359l194 1159h-358l23 136h884l-22 -136h-359l-194 -1159h358zM516 1655l23 137h567l-23 -137h-567z" />
    <glyph glyph-name="imacron" unicode="&#x12b;" 
d="M557 -25q-75 0 -116.5 39.5t-41.5 102.5q0 13 11 82l139 721h-381l22 137h545l-178 -922l47 -18l404 348l96 -90l-186 -172q-146 -135 -219.5 -181.5t-141.5 -46.5zM401 1307l23 137h567l-22 -137h-568z" />
    <glyph glyph-name="Ibreve" unicode="&#x12c;" 
d="M969 0h-885l22 135h359l194 1159h-358l23 136h884l-22 -136h-359l-194 -1159h358zM793 1567q-245 0 -289 309l98 43l31 -70q38 -87 69 -120t95 -33q42 0 75 17.5t57.5 44t76.5 91.5l55 70l102 -43q-22 -48 -40.5 -82t-53 -80.5t-70.5 -75.5t-90 -50t-116 -21z" />
    <glyph glyph-name="ibreve" unicode="&#x12d;" 
d="M557 -25q-75 0 -116.5 39.5t-41.5 102.5q0 13 11 82l139 721h-381l22 137h545l-178 -922l47 -18l404 348l96 -90l-186 -172q-146 -135 -219.5 -181.5t-141.5 -46.5zM678 1219q-245 0 -289 309l98 43l31 -70q38 -87 69 -120t95 -33q42 0 75 17.5t57.5 44t76.5 91.5l55 70
l103 -43q-18 -39 -33.5 -68t-40.5 -68t-53.5 -67t-64.5 -53.5t-81.5 -39t-97.5 -13.5z" />
    <glyph glyph-name="Iogonek" unicode="&#x12e;" 
d="M84 0l22 135h359l194 1159h-358l23 136h884l-22 -136h-359l-194 -1159h358l-22 -135q-148 -97 -198 -153.5t-50 -96.5q0 -32 20 -47.5t50 -15.5q55 0 114 53l78 -88q-72 -76 -201 -76q-86 0 -143 38t-57 116q0 80 66 141.5t194 118.5l-2 10h-756z" />
    <glyph glyph-name="iogonek" unicode="&#x12f;" 
d="M541 -424q-86 0 -143.5 38t-57.5 116q0 73 54 128.5t157 110.5l-2 11h-31q-57 0 -88 40.5t-31 96.5q0 13 11 82l139 721h-381l22 137h545l-178 -922l47 -18l404 348l96 -90l-379 -332q-147 -128 -196.5 -190t-49.5 -103q0 -32 20 -47.5t50 -15.5q56 0 115 53l77 -88
q-72 -76 -200 -76zM696 1292q-62 0 -90 23t-28 59q0 10 8 60q16 98 135 98q62 0 90.5 -23t28.5 -59q0 -3 -9 -59q-16 -99 -135 -99z" />
    <glyph glyph-name="Idotaccent" unicode="&#x130;" 
d="M969 0h-885l22 135h359l194 1159h-358l23 136h884l-22 -136h-359l-194 -1159h358zM797 1602q-62 0 -90.5 22.5t-28.5 58.5q0 12 8 60q7 42 40 70t95 28t90.5 -23t28.5 -59q0 -11 -8 -59q-7 -42 -40 -70t-95 -28z" />
    <glyph glyph-name="dotlessi" unicode="&#x131;" 
d="M557 -25q-75 0 -116.5 39.5t-41.5 102.5q0 13 11 82l139 721h-381l22 137h545l-178 -922l47 -18l404 348l96 -90l-186 -172q-146 -135 -219.5 -181.5t-141.5 -46.5z" />
    <glyph glyph-name="IJ" unicode="&#x132;" 
d="M1022 1430h168l-180 -1082q-31 -187 -152.5 -280t-310.5 -93q-176 0 -285 85.5t-127 248.5l162 35q7 -50 20 -86t40 -68t75.5 -48.5t118.5 -16.5q253 0 299 274zM201 594l137 836h168l-137 -836h-168z" />
    <glyph glyph-name="ij" unicode="&#x133;" 
d="M129 0l176 1057h160l-176 -1057h-160zM686 -434q-39 0 -80 24.5t-68 51t-93 96.5q-13 13 -19 20l-72 78l109 98l213 -225l37 8l223 1340h160l-213 -1276q-15 -96 -63 -155.5t-134 -59.5zM430 1292q-62 0 -90.5 23t-28.5 59q0 10 8 60q16 98 136 98q62 0 90 -23t28 -59
q0 -9 -8 -59q-16 -99 -135 -99zM1061 1292q-62 0 -90.5 23t-28.5 59q0 10 8 60q16 98 135 98q62 0 90.5 -23t28.5 -59q0 -9 -8 -59q-16 -99 -135 -99z" />
    <glyph glyph-name="Jcircumflex" unicode="&#x134;" 
d="M444 1430h689l-181 -1082q-31 -187 -147 -280t-295 -93q-167 0 -270.5 85.5t-120.5 248.5l162 35q12 -104 62.5 -161.5t170.5 -57.5q233 0 279 274l147 883h-520zM768 1915h201l178 -301l-94 -55l-197 239l-281 -239l-79 67z" />
    <glyph glyph-name="jcircumflex" unicode="&#x135;" 
d="M563 -434q-60 0 -115.5 45t-195.5 199l-133 145l108 98l324 -344l37 8l200 1203h-436l23 137h596l-213 -1276q-15 -95 -62.5 -155t-132.5 -60zM872 1567h201l178 -301l-94 -56l-196 240l-281 -240l-80 68z" />
    <glyph glyph-name="Kcommaaccent" unicode="&#x136;" 
d="M901 0l-313 707l-256 -254l-76 -453h-168l240 1430h168l-125 -744h8l274 291l455 453h213l-610 -607l374 -823h-184zM301 -510l113 379h221l-209 -379h-125z" />
    <glyph glyph-name="kcommaaccent" unicode="&#x137;" 
d="M121 0l254 1516h160l-119 -709h8q129 274 362 274q126 0 201.5 -71t75.5 -189q0 -42 -9.5 -80.5t-38 -84t-74.5 -84t-124.5 -75t-181.5 -61.5l145 -317l27 -4l272 250l88 -93l-145 -145q-84 -84 -137 -118t-109 -34q-53 0 -89.5 29.5t-68.5 99.5l-165 361
q242 59 344 141.5t102 184.5q0 73 -44.5 113t-127.5 40q-132 0 -231 -121q-99 -124 -117 -239l-98 -584h-160zM270 -510l113 379h221l-209 -379h-125z" />
    <glyph glyph-name="kgreenlandic" unicode="&#x138;" 
d="M915 0l-309 530l-246 -208l-55 -322h-160l174 1057h160l-88 -537h10l224 199l379 338h206l-477 -428l367 -629h-185z" />
    <glyph glyph-name="Lacute" unicode="&#x139;" 
d="M1006 0h-846l239 1430h166l-213 -1283h678zM786 1864l-264 -318l-96 58l221 340z" />
    <glyph glyph-name="lacute" unicode="&#x13a;" 
d="M510 -25q-79 0 -116.5 39.5t-37.5 106.5q0 38 6 65l230 1192h-373l23 138h538l-266 -1383l51 -16l420 356l92 -90l-213 -193q-143 -130 -216 -172.5t-138 -42.5zM985 1888l-264 -317l-96 57l221 340z" />
    <glyph glyph-name="Lcommaaccent" unicode="&#x13b;" 
d="M1006 0h-846l239 1430h166l-213 -1283h678zM336 -510l113 379h221l-209 -379h-125z" />
    <glyph glyph-name="lcommaaccent" unicode="&#x13c;" 
d="M510 -25q-79 0 -116.5 39.5t-37.5 106.5q0 38 6 65l230 1192h-373l23 138h538l-266 -1383l51 -16l420 356l92 -90l-213 -193q-143 -130 -216 -172.5t-138 -42.5zM264 -510l113 379h221l-209 -379h-125z" />
    <glyph glyph-name="Lcaron" unicode="&#x13d;" 
d="M1006 0h-846l239 1430h166l-213 -1283h678zM979 1516l-164 -383h-119l74 383h209z" />
    <glyph glyph-name="lcaron" unicode="&#x13e;" 
d="M510 -25q-79 0 -116.5 39.5t-37.5 106.5q0 38 6 65l230 1192h-373l23 138h538l-266 -1383l51 -16l420 356l92 -90l-213 -193q-143 -130 -216 -172.5t-138 -42.5zM1174 1516l-164 -383h-119l74 383h209z" />
    <glyph glyph-name="Ldot" unicode="&#x13f;" 
d="M1006 0h-846l239 1430h166l-213 -1283h678zM903 549q-62 0 -90.5 23t-28.5 59q0 5 9 59q7 42 40 70t95 28t90.5 -22.5t28.5 -58.5q0 -6 -9 -60q-7 -42 -40 -70t-95 -28z" />
    <glyph glyph-name="ldot" unicode="&#x140;" 
d="M510 -25q-79 0 -116.5 39.5t-37.5 106.5q0 38 6 65l230 1192h-373l23 138h538l-266 -1383l51 -16l420 356l92 -90l-213 -193q-143 -130 -216 -172.5t-138 -42.5zM958 662q-62 0 -90 22.5t-28 58.5q0 12 8 60q7 42 40 70t95 28t90.5 -23t28.5 -59q0 -11 -8 -59
q-7 -42 -40.5 -70t-95.5 -28z" />
    <glyph glyph-name="Lslash" unicode="&#x141;" 
d="M1030 147l-24 -147h-846l94 561l-176 -53l22 141l179 53l120 728h166l-112 -682l448 141l-22 -141l-451 -142l-76 -459h678z" />
    <glyph glyph-name="lslash" unicode="&#x142;" 
d="M510 -25q-79 0 -116.5 39.5t-37.5 106.5q0 38 6 65l78 402l-319 -96l24 141l322 98l125 647h-373l23 138h538l-141 -734l317 97l-22 -142l-322 -98l-98 -506l51 -16l420 356l92 -90l-213 -193q-143 -130 -216 -172.5t-138 -42.5z" />
    <glyph glyph-name="Nacute" unicode="&#x143;" 
d="M729 0l-272 1233h-15l-206 -1233h-156l239 1430h244l273 -1233h14l207 1233h155l-239 -1430h-244zM1065 1864l-264 -318l-96 58l221 340z" />
    <glyph glyph-name="nacute" unicode="&#x144;" 
d="M281 0h-160l176 1057h160l-41 -250h8q62 134 146 204t206 70q133 0 210 -80.5t77 -224.5q0 -66 -12 -137l-107 -639h-160l105 625q10 61 10 112q0 96 -44.5 149.5t-131.5 53.5q-126 0 -223 -115q-101 -118 -121 -241zM995 1516l-264 -318l-96 57l221 340z" />
    <glyph glyph-name="Ncommaaccent" unicode="&#x145;" 
d="M729 0l-272 1233h-15l-206 -1233h-156l239 1430h244l273 -1233h14l207 1233h155l-239 -1430h-244zM276 -510l113 379h221l-209 -379h-125z" />
    <glyph glyph-name="ncommaaccent" unicode="&#x146;" 
d="M281 0h-160l176 1057h160l-41 -250h8q62 134 146 204t206 70q133 0 210 -80.5t77 -224.5q0 -66 -12 -137l-107 -639h-160l105 625q10 61 10 112q0 96 -44.5 149.5t-131.5 53.5q-126 0 -223 -115q-101 -118 -121 -241zM274 -510l113 379h221l-209 -379h-125z" />
    <glyph glyph-name="Ncaron" unicode="&#x147;" 
d="M729 0l-272 1233h-15l-206 -1233h-156l239 1430h244l273 -1233h14l207 1233h155l-239 -1430h-244zM887 1575h-201l-178 301l94 55l197 -239l280 239l80 -67z" />
    <glyph glyph-name="ncaron" unicode="&#x148;" 
d="M281 0h-160l176 1057h160l-41 -250h8q62 134 146 204t206 70q133 0 210 -80.5t77 -224.5q0 -66 -12 -137l-107 -639h-160l105 625q10 61 10 112q0 96 -44.5 149.5t-131.5 53.5q-126 0 -223 -115q-101 -118 -121 -241zM817 1227h-201l-178 301l94 55l197 -240l281 240
l80 -67z" />
    <glyph glyph-name="napostrophe" unicode="&#x149;" 
d="M121 0l174 1057h160l-41 -250h8q62 134 146 204t206 70q133 0 211 -81t78 -224q0 -48 -12 -131l-107 -645h-160l105 631q10 59 10 106q0 96 -45 149.5t-133 53.5q-126 0 -223 -115q-101 -118 -121 -241l-96 -584h-160zM106 1139l89 377h186l-168 -377h-107z" />
    <glyph glyph-name="Eng" unicode="&#x14a;" 
d="M236 0h-156l239 1430h244l273 -1233h14l207 1233h155l-276 -1649q-15 -96 -63 -155.5t-134 -59.5q-39 0 -80 24.5t-68 51t-93 96.5q-13 13 -19 20l-71 78l108 98l213 -225l37 8l49 283h-86l-272 1233h-15z" />
    <glyph glyph-name="eng" unicode="&#x14b;" 
d="M711 -434q-39 0 -80 24.5t-68 51t-93 96.5q-13 13 -19 20l-72 78l108 98l213 -225l37 8l152 908q10 61 10 112q0 96 -44.5 149.5t-131.5 53.5q-126 0 -223 -115q-101 -118 -121 -241l-98 -584h-160l176 1057h160l-41 -250h8q62 134 146 204t206 70q133 0 210 -80.5
t77 -224.5q0 -66 -12 -137l-144 -858q-15 -96 -62.5 -155.5t-133.5 -59.5z" />
    <glyph glyph-name="Omacron" unicode="&#x14c;" 
d="M532 -25q-405 0 -405 486q0 82 8 168.5t28.5 185.5t52 188.5t82 173t114.5 144t154 97t196 36.5q405 0 405 -485q0 -82 -8 -168.5t-28.5 -185.5t-52 -188.5t-82 -173.5t-114.5 -144.5t-154 -97t-196 -36.5zM545 123q161 0 263 125t140 350l39 233q14 85 14 168
q0 151 -60 229.5t-191 78.5q-161 0 -263.5 -125.5t-140.5 -350.5l-39 -233q-14 -85 -14 -168q0 -151 60.5 -229t191.5 -78zM502 1655l22 137h568l-23 -137h-567z" />
    <glyph glyph-name="omacron" unicode="&#x14d;" 
d="M543 -25q-198 0 -305 122t-107 325q0 148 43 272.5t117.5 208.5t176 131t216.5 47q200 0 307 -121t107 -325q0 -296 -158.5 -478t-396.5 -182zM551 115q146 0 236.5 90t117.5 250l21 123q10 61 10 104q0 130 -68 195t-190 65q-146 0 -236.5 -90t-117.5 -250l-21 -123
q-10 -61 -10 -104q0 -130 68 -195t190 -65zM457 1307l22 137h568l-23 -137h-567z" />
    <glyph glyph-name="Obreve" unicode="&#x14e;" 
d="M532 -25q-405 0 -405 486q0 82 8 168.5t28.5 185.5t52 188.5t82 173t114.5 144t154 97t196 36.5q405 0 405 -485q0 -82 -8 -168.5t-28.5 -185.5t-52 -188.5t-82 -173.5t-114.5 -144.5t-154 -97t-196 -36.5zM545 123q161 0 263 125t140 350l39 233q14 85 14 168
q0 151 -60 229.5t-191 78.5q-161 0 -263.5 -125.5t-140.5 -350.5l-39 -233q-14 -85 -14 -168q0 -151 60.5 -229t191.5 -78zM778 1567q-245 0 -289 309l99 43l30 -70q38 -87 69 -120t95 -33q42 0 75 17.5t57.5 44t76.5 91.5l56 70l102 -43q-18 -39 -33.5 -68t-40.5 -68
t-53.5 -67t-64.5 -53.5t-81.5 -39t-97.5 -13.5z" />
    <glyph glyph-name="obreve" unicode="&#x14f;" 
d="M543 -25q-198 0 -305 122t-107 325q0 148 43 272.5t117.5 208.5t176 131t216.5 47q200 0 307 -121t107 -325q0 -296 -158.5 -478t-396.5 -182zM551 115q146 0 236.5 90t117.5 250l21 123q10 61 10 104q0 130 -68 195t-190 65q-146 0 -236.5 -90t-117.5 -250l-21 -123
q-10 -61 -10 -104q0 -130 68 -195t190 -65zM733 1219q-245 0 -289 309l99 43l30 -70q38 -87 69 -120t95 -33q42 0 75 17.5t57.5 44t76.5 91.5l55 70l103 -43q-18 -39 -33.5 -68t-40.5 -68t-53.5 -67t-64.5 -53.5t-81.5 -39t-97.5 -13.5z" />
    <glyph glyph-name="Ohungarumlaut" unicode="&#x150;" 
d="M532 -25q-405 0 -405 486q0 82 8 168.5t28.5 185.5t52 188.5t82 173t114.5 144t154 97t196 36.5q405 0 405 -485q0 -82 -8 -168.5t-28.5 -185.5t-52 -188.5t-82 -173.5t-114.5 -144.5t-154 -97t-196 -36.5zM545 123q161 0 263 125t140 350l39 233q14 85 14 168
q0 151 -60 229.5t-191 78.5q-161 0 -263.5 -125.5t-140.5 -350.5l-39 -233q-14 -85 -14 -168q0 -151 60.5 -229t191.5 -78zM887 1866l-262 -318l-90 54l219 340zM1217 1866l-263 -318l-90 54l219 340z" />
    <glyph glyph-name="ohungarumlaut" unicode="&#x151;" 
d="M543 -25q-198 0 -305 122t-107 325q0 148 43 272.5t117.5 208.5t176 131t216.5 47q200 0 307 -121t107 -325q0 -296 -158.5 -478t-396.5 -182zM551 115q146 0 236.5 90t117.5 250l21 123q10 61 10 104q0 130 -68 195t-190 65q-146 0 -236.5 -90t-117.5 -250l-21 -123
q-10 -61 -10 -104q0 -130 68 -195t190 -65zM842 1518l-262 -318l-91 53l220 340zM1171 1518l-262 -318l-90 53l219 340z" />
    <glyph glyph-name="OE" unicode="&#x152;" 
d="M1051 0h-516q-223 0 -336 130.5t-113 385.5q0 434 176 674t479 240h545l-24 -142h-340l-82 -493h315l-22 -142h-318l-84 -512h344zM567 141l193 1147h-37q-171 0 -287 -125t-145 -344l-27 -196q-14 -105 -14 -158q0 -160 80.5 -242t232.5 -82h4z" />
    <glyph glyph-name="oe" unicode="&#x153;" 
d="M834 -25q-102 0 -168.5 58.5t-75.5 167.5h-10q-29 -101 -104 -163.5t-179 -62.5q-256 0 -256 400q0 130 27.5 254t78 226t132 164t180.5 62q104 0 161 -61.5t66 -145.5h8q111 207 301 207q109 0 177.5 -65t68.5 -180q0 -54 -15.5 -101.5t-55 -93t-99.5 -78.5t-155.5 -55
t-217.5 -25l-8 -49q-8 -49 -8 -108q0 -108 41.5 -166t118.5 -58q73 0 121.5 48t95.5 139l110 -56q-51 -114 -135 -186t-200 -72zM322 96q168 0 223 326l35 211q10 61 10 125q0 203 -141 203q-169 0 -224 -326l-35 -211q-10 -61 -10 -125q0 -104 38 -153.5t104 -49.5z
M985 961q-103 0 -172.5 -96t-91.5 -236l-6 -37q391 13 391 239q0 62 -31 96t-90 34z" />
    <glyph glyph-name="Racute" unicode="&#x154;" 
d="M367 612l-103 -612h-168l240 1430h510q174 0 262 -90.5t88 -245.5q0 -213 -113.5 -337.5t-316.5 -138.5l260 -618h-182l-244 612h-233zM391 756h352q107 0 176.5 51.5t86.5 150.5l12 74q6 38 6 80q0 84 -52 127t-147 43h-346zM1030 1864l-264 -318l-96 58l221 340z" />
    <glyph glyph-name="racute" unicode="&#x155;" 
d="M524 0h-159l153 920h-297l23 137h456l-47 -283h11q60 137 150 210t233 73h159l-26 -160h-181q-92 0 -153 -25t-109 -81q-101 -116 -121 -240zM1061 1516l-264 -318l-97 57l222 340z" />
    <glyph glyph-name="Rcommaaccent" unicode="&#x156;" 
d="M367 612l-103 -612h-168l240 1430h510q174 0 262 -90.5t88 -245.5q0 -213 -113.5 -337.5t-316.5 -138.5l260 -618h-182l-244 612h-233zM391 756h352q107 0 176.5 51.5t86.5 150.5l12 74q6 38 6 80q0 84 -52 127t-147 43h-346zM299 -510l113 379h221l-209 -379h-125z" />
    <glyph glyph-name="rcommaaccent" unicode="&#x157;" 
d="M524 0h-159l153 920h-297l23 137h456l-47 -283h11q60 137 150 210t233 73h159l-26 -160h-181q-92 0 -153 -25t-109 -81q-101 -116 -121 -240zM203 -510l112 379h222l-209 -379h-125z" />
    <glyph glyph-name="Rcaron" unicode="&#x158;" 
d="M367 612l-103 -612h-168l240 1430h510q174 0 262 -90.5t88 -245.5q0 -213 -113.5 -337.5t-316.5 -138.5l260 -618h-182l-244 612h-233zM391 756h352q107 0 176.5 51.5t86.5 150.5l12 74q6 38 6 80q0 84 -52 127t-147 43h-346zM852 1575h-201l-178 301l94 55l197 -239
l280 239l80 -67z" />
    <glyph glyph-name="rcaron" unicode="&#x159;" 
d="M524 0h-159l153 920h-297l23 137h456l-47 -283h11q60 137 150 210t233 73h159l-26 -160h-181q-92 0 -153 -25t-109 -81q-101 -116 -121 -240zM883 1227h-201l-178 301l94 55l197 -240l280 240l80 -67z" />
    <glyph glyph-name="Sacute" unicode="&#x15a;" 
d="M545 -25q-178 0 -303 68t-191 184l127 101q67 -105 157.5 -156t217.5 -51q167 0 266 81t99 218q0 90 -52 143t-174 80l-153 35q-167 38 -246.5 124.5t-79.5 225.5q0 196 141.5 311t372.5 115q175 0 290.5 -64.5t176.5 -170.5l-123 -91q-123 183 -352 183
q-155 0 -244.5 -73t-89.5 -198q0 -95 56 -145.5t175 -77.5l150 -35q173 -40 248.5 -126t75.5 -222q0 -205 -148.5 -332t-396.5 -127zM1034 1864l-264 -318l-96 58l221 340z" />
    <glyph glyph-name="sacute" unicode="&#x15b;" 
d="M549 -25q-307 0 -451 199l119 94q63 -79 146 -118t200 -39q140 0 220.5 53.5t80.5 148.5q0 68 -40 99t-113 41l-154 22q-66 10 -115 25t-97.5 44t-74.5 79.5t-26 121.5q0 108 61.5 185.5t162 114t228.5 36.5q267 0 396 -161l-113 -99q-35 51 -108 88t-193 37
q-134 0 -206.5 -50t-72.5 -138q0 -69 42.5 -98t121.5 -42l150 -24q38 -6 60.5 -10.5t59 -15t59.5 -22t50.5 -32t42.5 -45t26 -60.5t11 -79q0 -163 -129.5 -259t-343.5 -96zM993 1516l-264 -318l-96 57l221 340z" />
    <glyph glyph-name="Scircumflex" unicode="&#x15c;" 
d="M545 -25q-178 0 -303 68t-191 184l127 101q67 -105 157.5 -156t217.5 -51q167 0 266 81t99 218q0 90 -52 143t-174 80l-153 35q-167 38 -246.5 124.5t-79.5 225.5q0 196 141.5 311t372.5 115q175 0 290.5 -64.5t176.5 -170.5l-123 -91q-123 183 -352 183
q-155 0 -244.5 -73t-89.5 -198q0 -95 56 -145.5t175 -77.5l150 -35q173 -40 248.5 -126t75.5 -222q0 -205 -148.5 -332t-396.5 -127zM711 1915h200l179 -301l-95 -55l-196 239l-281 -239l-80 67z" />
    <glyph glyph-name="scircumflex" unicode="&#x15d;" 
d="M549 -25q-307 0 -451 199l119 94q63 -79 146 -118t200 -39q140 0 220.5 53.5t80.5 148.5q0 68 -40 99t-113 41l-154 22q-66 10 -115 25t-97.5 44t-74.5 79.5t-26 121.5q0 108 61.5 185.5t162 114t228.5 36.5q267 0 396 -161l-113 -99q-35 51 -108 88t-193 37
q-134 0 -206.5 -50t-72.5 -138q0 -69 42.5 -98t121.5 -42l150 -24q38 -6 60.5 -10.5t59 -15t59.5 -22t50.5 -32t42.5 -45t26 -60.5t11 -79q0 -163 -129.5 -259t-343.5 -96zM670 1567h200l179 -301l-95 -56l-196 240l-281 -240l-80 68z" />
    <glyph glyph-name="Scedilla" unicode="&#x15e;" 
d="M520 -424q-74 0 -123.5 24t-72.5 60l82 82q35 -55 114 -55q46 0 74.5 18t28.5 51q0 63 -123 80l-60 8l47 133q-155 10 -265 76t-171 174l127 101q67 -105 157.5 -156t217.5 -51q167 0 266 81t99 218q0 90 -52 143t-174 80l-153 35q-167 38 -246.5 124.5t-79.5 225.5
q0 196 141.5 311t372.5 115q175 0 290.5 -64.5t176.5 -170.5l-123 -91q-123 183 -352 183q-155 0 -244.5 -73t-89.5 -198q0 -95 56 -145.5t175 -77.5l150 -35q173 -40 248.5 -126t75.5 -222q0 -195 -135.5 -320t-364.5 -137l-35 -102l4 -6q39 8 76 8q58 0 89.5 -31t31.5 -90
q0 -90 -67 -135t-169 -45z" />
    <glyph glyph-name="scedilla" unicode="&#x15f;" 
d="M526 -424q-74 0 -123.5 24t-72.5 60l82 82q35 -55 114 -55q46 0 74.5 18t28.5 51q0 63 -123 80l-60 8l48 133q-268 18 -396 197l119 94q63 -79 146 -118t200 -39q140 0 220.5 53.5t80.5 148.5q0 68 -40 99t-113 41l-154 22q-66 10 -115 25t-97.5 44t-74.5 79.5t-26 121.5
q0 108 61.5 185.5t162 114t228.5 36.5q267 0 396 -161l-113 -99q-35 51 -108 88t-193 37q-134 0 -206.5 -50t-72.5 -138q0 -69 42.5 -98t121.5 -42l150 -24q38 -6 60.5 -10.5t59 -15t59.5 -22t50.5 -32t42.5 -45t26 -60.5t11 -79q0 -154 -115 -248t-309 -105l-37 -102l4 -6
q39 8 76 8q58 0 89.5 -31t31.5 -90q0 -90 -67 -135t-169 -45z" />
    <glyph glyph-name="Scaron" unicode="&#x160;" 
d="M545 -25q-178 0 -303 68t-191 184l127 101q67 -105 157.5 -156t217.5 -51q167 0 266 81t99 218q0 90 -52 143t-174 80l-153 35q-167 38 -246.5 124.5t-79.5 225.5q0 196 141.5 311t372.5 115q175 0 290.5 -64.5t176.5 -170.5l-123 -91q-123 183 -352 183
q-155 0 -244.5 -73t-89.5 -198q0 -95 56 -145.5t175 -77.5l150 -35q173 -40 248.5 -126t75.5 -222q0 -205 -148.5 -332t-396.5 -127zM856 1575h-201l-178 301l94 55l197 -239l281 239l79 -67z" />
    <glyph glyph-name="scaron" unicode="&#x161;" 
d="M549 -25q-307 0 -451 199l119 94q63 -79 146 -118t200 -39q140 0 220.5 53.5t80.5 148.5q0 68 -40 99t-113 41l-154 22q-66 10 -115 25t-97.5 44t-74.5 79.5t-26 121.5q0 108 61.5 185.5t162 114t228.5 36.5q267 0 396 -161l-113 -99q-35 51 -108 88t-193 37
q-134 0 -206.5 -50t-72.5 -138q0 -69 42.5 -98t121.5 -42l150 -24q38 -6 60.5 -10.5t59 -15t59.5 -22t50.5 -32t42.5 -45t26 -60.5t11 -79q0 -163 -129.5 -259t-343.5 -96zM815 1227h-201l-178 301l94 55l197 -240l281 240l79 -67z" />
    <glyph glyph-name="uni0162" unicode="&#x162;" 
d="M1305 1282h-480l-215 -1282h-168l215 1282h-479l25 148h1126zM285 -510l112 379h221l-208 -379h-125z" />
    <glyph glyph-name="uni0163" unicode="&#x163;" 
d="M489 -25q-72 0 -111.5 39.5t-39.5 112.5q0 45 6 80l123 713h-305l22 137h215q53 0 79.5 21.5t35.5 74.5l47 277h152l-64 -373h436l-22 -137h-436l-131 -783l41 -24l460 307l80 -103l-231 -163q-145 -103 -220 -141t-137 -38zM233 -510l113 379h221l-209 -379h-125z" />
    <glyph glyph-name="Tcaron" unicode="&#x164;" 
d="M1305 1282h-480l-215 -1282h-168l215 1282h-479l25 148h1126zM881 1575h-201l-178 301l94 55l197 -239l280 239l80 -67z" />
    <glyph glyph-name="tcaron" unicode="&#x165;" 
d="M489 -25q-72 0 -111.5 39.5t-39.5 112.5q0 45 6 80l123 713h-305l22 137h215q53 0 79.5 21.5t35.5 74.5l47 277h152l-64 -373h436l-22 -137h-436l-131 -783l41 -24l460 307l80 -103l-231 -163q-145 -103 -220 -141t-137 -38zM1149 1556l-164 -382h-119l74 382h209z" />
    <glyph glyph-name="Tbar" unicode="&#x166;" 
d="M1075 692h-348l-117 -692h-168l117 692h-352l22 127h351l77 463h-479l25 148h1126l-24 -148h-480l-77 -463h350z" />
    <glyph glyph-name="tbar" unicode="&#x167;" 
d="M489 -25q-72 0 -111.5 39.5t-39.5 112.5q0 45 6 80l59 342h-200l20 125h201l43 246h-305l22 137h215q53 0 79.5 21.5t35.5 74.5l47 277h152l-64 -373h436l-22 -137h-436l-41 -246h309l-21 -125h-311l-67 -412l41 -24l460 307l80 -103l-231 -163q-145 -103 -220 -141
t-137 -38z" />
    <glyph glyph-name="Utilde" unicode="&#x168;" 
d="M315 1430h168l-137 -820q-31 -182 -31 -256q0 -114 50.5 -172.5t179.5 -58.5q57 0 102 10.5t77.5 26.5t58.5 48t42 62t30.5 82.5t23 95t20.5 113.5l145 869h168l-139 -834q-17 -99 -32 -168.5t-37 -139.5t-48.5 -115t-64 -86t-85.5 -63.5t-111.5 -35.5t-143.5 -13
q-213 0 -307 92t-94 273q0 100 36 322zM938 1602q-31 0 -64 11t-45.5 18.5t-46.5 27.5q-76 47 -131 47q-54 0 -129 -59l-57 84q90 106 203 106q10 0 20 -1t18 -2.5t17.5 -4.5t16 -5t16 -6.5t14.5 -6.5t14.5 -7.5t13 -8t13 -8t12.5 -7.5q76 -47 131 -47q54 0 129 59l58 -84
q-90 -106 -203 -106z" />
    <glyph glyph-name="utilde" unicode="&#x169;" 
d="M776 0l41 250h-8q-62 -134 -146 -204.5t-206 -70.5q-133 0 -210 81t-77 225q0 67 12 137l107 639h160l-105 -625q-10 -61 -10 -113q0 -96 44.5 -149t131.5 -53q127 0 223 114q101 118 121 242l98 584h160l-176 -1057h-160zM883 1253q-12 0 -25 2t-22 3.5t-22 6.5t-19 7
t-19.5 9.5t-16 9.5t-17 11t-15.5 9q-76 47 -131 47q-53 0 -129 -60l-57 84q91 107 202 107q31 0 64 -11t45.5 -18.5t46.5 -27.5q78 -48 131 -48t129 60l57 -84q-91 -107 -202 -107z" />
    <glyph glyph-name="Umacron" unicode="&#x16a;" 
d="M315 1430h168l-137 -820q-31 -182 -31 -256q0 -114 50.5 -172.5t179.5 -58.5q57 0 102 10.5t77.5 26.5t58.5 48t42 62t30.5 82.5t23 95t20.5 113.5l145 869h168l-139 -834q-17 -99 -32 -168.5t-37 -139.5t-48.5 -115t-64 -86t-85.5 -63.5t-111.5 -35.5t-143.5 -13
q-213 0 -307 92t-94 273q0 100 36 322zM506 1655l22 137h568l-23 -137h-567z" />
    <glyph glyph-name="umacron" unicode="&#x16b;" 
d="M776 0l41 250h-8q-62 -134 -146 -204.5t-206 -70.5q-133 0 -210 81t-77 225q0 67 12 137l107 639h160l-105 -625q-10 -61 -10 -113q0 -96 44.5 -149t131.5 -53q127 0 223 114q101 118 121 242l98 584h160l-176 -1057h-160zM451 1307l22 137h567l-22 -137h-567z" />
    <glyph glyph-name="Ubreve" unicode="&#x16c;" 
d="M315 1430h168l-137 -820q-31 -182 -31 -256q0 -114 50.5 -172.5t179.5 -58.5q57 0 102 10.5t77.5 26.5t58.5 48t42 62t30.5 82.5t23 95t20.5 113.5l145 869h168l-139 -834q-17 -99 -32 -168.5t-37 -139.5t-48.5 -115t-64 -86t-85.5 -63.5t-111.5 -35.5t-143.5 -13
q-213 0 -307 92t-94 273q0 100 36 322zM782 1567q-244 0 -288 309l98 43l31 -70q20 -45 32 -68t31 -45.5t42.5 -31t57.5 -8.5q42 0 75 17.5t57.5 44t76.5 91.5l56 70l102 -43q-18 -39 -33.5 -68t-40.5 -68t-53.5 -67t-64.5 -53.5t-81.5 -39t-97.5 -13.5z" />
    <glyph glyph-name="ubreve" unicode="&#x16d;" 
d="M776 0l41 250h-8q-62 -134 -146 -204.5t-206 -70.5q-133 0 -210 81t-77 225q0 67 12 137l107 639h160l-105 -625q-10 -61 -10 -113q0 -96 44.5 -149t131.5 -53q127 0 223 114q101 118 121 242l98 584h160l-176 -1057h-160zM727 1219q-245 0 -289 309l99 43l30 -70
q38 -87 69 -120t95 -33q42 0 75 17.5t57.5 44t76.5 91.5l55 70l103 -43q-18 -39 -33.5 -68t-40.5 -68t-53.5 -67t-64.5 -53.5t-81.5 -39t-97.5 -13.5z" />
    <glyph glyph-name="Uring" unicode="&#x16e;" 
d="M315 1430h168l-137 -820q-31 -182 -31 -256q0 -114 50.5 -172.5t179.5 -58.5q57 0 102 10.5t77.5 26.5t58.5 48t42 62t30.5 82.5t23 95t20.5 113.5l145 869h168l-139 -834q-17 -99 -32 -168.5t-37 -139.5t-48.5 -115t-64 -86t-85.5 -63.5t-111.5 -35.5t-143.5 -13
q-213 0 -307 92t-94 273q0 100 36 322zM778 1532q-91 0 -149 57t-58 146q0 107 79.5 183.5t185.5 76.5q91 0 148.5 -57t57.5 -146q0 -107 -79 -183.5t-185 -76.5zM786 1628q54 0 90.5 30t45.5 85q8 50 8 65q0 42 -26.5 66t-76.5 24q-54 0 -90 -29.5t-45 -84.5q-8 -50 -8 -66
q0 -42 26 -66t76 -24z" />
    <glyph glyph-name="uring" unicode="&#x16f;" 
d="M776 0l41 250h-8q-62 -134 -146 -204.5t-206 -70.5q-133 0 -210 81t-77 225q0 67 12 137l107 639h160l-105 -625q-10 -61 -10 -113q0 -96 44.5 -149t131.5 -53q127 0 223 114q101 118 121 242l98 584h160l-176 -1057h-160zM723 1184q-91 0 -149 56.5t-58 145.5
q0 107 79 184t185 77q91 0 149 -57t58 -146q0 -107 -79 -183.5t-185 -76.5zM731 1280q53 0 89.5 30t45.5 85q8 50 8 65q0 42 -26 66t-76 24q-54 0 -90 -29.5t-45 -84.5q-8 -50 -8 -66q0 -42 26 -66t76 -24z" />
    <glyph glyph-name="Uhungarumlaut" unicode="&#x170;" 
d="M315 1430h168l-137 -820q-31 -182 -31 -256q0 -114 50.5 -172.5t179.5 -58.5q57 0 102 10.5t77.5 26.5t58.5 48t42 62t30.5 82.5t23 95t20.5 113.5l145 869h168l-139 -834q-17 -99 -32 -168.5t-37 -139.5t-48.5 -115t-64 -86t-85.5 -63.5t-111.5 -35.5t-143.5 -13
q-213 0 -307 92t-94 273q0 100 36 322zM891 1866l-262 -318l-90 54l219 340zM1221 1866l-263 -318l-90 54l219 340z" />
    <glyph glyph-name="uhungarumlaut" unicode="&#x171;" 
d="M776 0l41 250h-8q-62 -134 -146 -204.5t-206 -70.5q-133 0 -210 81t-77 225q0 67 12 137l107 639h160l-105 -625q-10 -61 -10 -113q0 -96 44.5 -149t131.5 -53q127 0 223 114q101 118 121 242l98 584h160l-176 -1057h-160zM836 1518l-263 -318l-90 53l219 340zM1165 1518
l-262 -318l-90 53l219 340z" />
    <glyph glyph-name="Uogonek" unicode="&#x172;" 
d="M315 1430h168l-137 -820q-31 -182 -31 -256q0 -114 50.5 -172.5t179.5 -58.5q57 0 102 10.5t77.5 26.5t58.5 48t42 62t30.5 82.5t23 95t20.5 113.5l145 869h168l-139 -834q-21 -125 -41.5 -207t-54 -158.5t-83 -129t-120.5 -91.5q-248 -138 -248 -260q0 -32 20 -47.5
t50 -15.5q56 0 115 53l77 -88q-72 -76 -200 -76q-86 0 -143.5 38t-57.5 116q0 138 213 237l-2 10q-16 -2 -47 -2q-213 0 -307 92t-94 273q0 100 36 322z" />
    <glyph glyph-name="uogonek" unicode="&#x173;" 
d="M1112 1057l-176 -1057q-148 -96 -197 -153t-49 -97q0 -32 20 -47.5t50 -15.5q55 0 114 53l78 -88q-72 -76 -200 -76q-86 0 -143.5 38t-57.5 116q0 80 65.5 141.5t190.5 118.5l2 10h-33l41 250h-8q-62 -135 -145.5 -205t-204.5 -70q-133 0 -211 81t-78 225q0 67 12 137
l107 639h160l-105 -625q-10 -61 -10 -113q0 -96 44.5 -149t131.5 -53q127 0 223 114q101 118 121 242l98 584h160z" />
    <glyph glyph-name="Wcircumflex" unicode="&#x174;" 
d="M342 0h-248l125 1430h150l-76 -805l-43 -457h16l334 889h193l43 -889h16l104 442l195 820h154l-351 -1430h-247l-31 862h-17zM725 1915h201l178 -301l-94 -55l-197 239l-281 -239l-79 67z" />
    <glyph glyph-name="wcircumflex" unicode="&#x175;" 
d="M272 -20q-90 0 -137 55t-47 153q0 58 12 138l121 731h144l-115 -703q-12 -70 -12 -127q0 -116 92 -116q69 0 131 82q42 58 67 188l117 676h139l-114 -703q-11 -70 -11 -125q0 -63 21.5 -90.5t69.5 -27.5q74 0 137 98t97 244.5t34 298.5q0 174 -47 274l135 41
q55 -120 55 -307q0 -186 -42 -352.5t-118 -272.5q-112 -155 -284 -155q-187 0 -174 215h-11q-47 -107 -107.5 -161t-152.5 -54zM694 1567h201l178 -301l-94 -56l-197 240l-280 -240l-80 68z" />
    <glyph glyph-name="Ycircumflex" unicode="&#x176;" 
d="M610 0h-168l95 557l-353 873h181l145 -375l121 -330h8l235 330l269 375h200l-636 -859zM727 1915h201l178 -301l-94 -55l-197 239l-280 -239l-80 67z" />
    <glyph glyph-name="ycircumflex" unicode="&#x177;" 
d="M426 -434q-254 0 -371 145l111 107q87 -111 270 -111q149 0 234 77.5t112 246.5l41 250h-6q-62 -134 -147 -204.5t-207 -70.5q-133 0 -211 81t-78 224q0 48 12 131l103 615h160l-101 -600q-10 -59 -10 -107q0 -96 45 -149.5t133 -53.5q126 0 223 115q101 118 121 242
l92 553h160l-176 -1057q-74 -434 -510 -434zM688 1567h201l178 -301l-94 -56l-197 240l-280 -240l-80 68z" />
    <glyph glyph-name="Ydieresis" unicode="&#x178;" 
d="M610 0h-168l95 557l-353 873h181l145 -375l121 -330h8l235 330l269 375h200l-636 -859zM594 1616q-56 0 -81.5 20.5t-25.5 53.5q0 20 9 51q12 44 37.5 66t82.5 22q56 0 81.5 -20.5t25.5 -53.5q0 -23 -8 -51q-12 -44 -38 -66t-83 -22zM975 1616q-56 0 -81.5 20.5
t-25.5 53.5q0 20 9 51q12 44 37.5 66t82.5 22q56 0 81.5 -20.5t25.5 -53.5q0 -23 -8 -51q-12 -44 -38 -66t-83 -22z" />
    <glyph glyph-name="Zacute" unicode="&#x179;" 
d="M1065 147l-25 -147h-1030l25 152l995 1130h-766l25 148h958l-24 -152l-996 -1131h838zM1051 1864l-265 -318l-96 58l221 340z" />
    <glyph glyph-name="zacute" unicode="&#x17a;" 
d="M870 -20q-85 0 -206 40l-367 123l-10 -8l-21 -135h-162l23 160l733 674q-219 112 -338 112q-46 0 -80 -14t-53.5 -36t-30.5 -56.5t-14.5 -66.5t-3.5 -75h-131v25q0 173 83 265.5t236 92.5q83 0 172.5 -32.5t210.5 -104.5l41 -24l11 8l20 129h162l-23 -156l-733 -672
l522 -120l23 22l-64 279l117 41l33 -82q53 -128 53 -213q0 -71 -56 -123.5t-147 -52.5zM983 1516l-264 -318l-96 57l221 340z" />
    <glyph glyph-name="Zdotaccent" unicode="&#x17b;" 
d="M1065 147l-25 -147h-1030l25 152l995 1130h-766l25 148h958l-24 -152l-996 -1131h838zM780 1602q-62 0 -90 22.5t-28 58.5q0 12 8 60q7 42 40 70t95 28t90.5 -23t28.5 -59q0 -5 -9 -59q-7 -42 -40 -70t-95 -28z" />
    <glyph glyph-name="zdotaccent" unicode="&#x17c;" 
d="M870 -20q-85 0 -206 40l-367 123l-10 -8l-21 -135h-162l23 160l733 674q-219 112 -338 112q-46 0 -80 -14t-53.5 -36t-30.5 -56.5t-14.5 -66.5t-3.5 -75h-131v25q0 173 83 265.5t236 92.5q83 0 172.5 -32.5t210.5 -104.5l41 -24l11 8l20 129h162l-23 -156l-733 -672
l522 -120l23 22l-64 279l117 41l33 -82q53 -128 53 -213q0 -71 -56 -123.5t-147 -52.5zM713 1253q-62 0 -90.5 23t-28.5 59q0 12 8 60q7 42 40 70t95 28t90.5 -23t28.5 -59q0 -11 -8 -59q-7 -42 -40 -70.5t-95 -28.5z" />
    <glyph glyph-name="Zcaron" unicode="&#x17d;" 
d="M1065 147l-25 -147h-1030l25 152l995 1130h-766l25 148h958l-24 -152l-996 -1131h838zM872 1575h-200l-178 301l94 55l196 -239l281 239l80 -67z" />
    <glyph glyph-name="zcaron" unicode="&#x17e;" 
d="M870 -20q-85 0 -206 40l-367 123l-10 -8l-21 -135h-162l23 160l733 674q-219 112 -338 112q-46 0 -80 -14t-53.5 -36t-30.5 -56.5t-14.5 -66.5t-3.5 -75h-131v25q0 173 83 265.5t236 92.5q83 0 172.5 -32.5t210.5 -104.5l41 -24l11 8l20 129h162l-23 -156l-733 -672
l522 -120l23 22l-64 279l117 41l33 -82q53 -128 53 -213q0 -71 -56 -123.5t-147 -52.5zM805 1227h-201l-178 301l94 55l197 -240l280 240l80 -67z" />
    <glyph glyph-name="uni018F" unicode="&#x18f;" 
d="M528 -25q-199 0 -300 124t-101 354q0 138 14 227l13 80h823l10 63q17 102 17 181q0 150 -61.5 227.5t-194.5 77.5q-132 0 -224 -73.5t-162 -213.5l-131 68q75 170 209 267t322 97q210 0 307.5 -126t97.5 -378q0 -78 -8 -161.5t-29 -180t-53 -185t-83 -171.5t-115 -143.5
t-154.5 -97t-196.5 -36.5zM543 121q166 0 268 125.5t139 349.5l4 25h-647q-16 -101 -16 -187q0 -313 252 -313z" />
    <glyph glyph-name="florin" unicode="&#x192;" 
d="M285 -434q-67 0 -123 41.5t-166 161.5l-168 182l106 94l320 -340l37 16l280 1039h-331l22 137h346l80 293q31 110 106 175t189 65h317l-22 -138h-401l-109 -395h393l-22 -137h-408l-270 -1004q-27 -97 -66 -143.5t-110 -46.5z" />
    <glyph glyph-name="Ohorn" unicode="&#x1a0;" 
d="M1272 1657l-35 -207q-22 -127 -147 -127h-29q106 -114 106 -354q0 -82 -8 -168.5t-28.5 -185.5t-52 -188.5t-82 -173.5t-114.5 -144.5t-154 -97t-196 -36.5q-405 0 -405 486q0 82 8 168.5t28.5 185.5t52 188.5t82 173t114.5 144t154 97t196 36.5q92 0 162 -24h170l36 227
h142zM545 123q161 0 263 125t140 350l39 233q14 85 14 168q0 151 -60 229.5t-191 78.5q-161 0 -263.5 -125.5t-140.5 -350.5l-39 -233q-14 -85 -14 -168q0 -151 60.5 -229t191.5 -78z" />
    <glyph glyph-name="ohorn" unicode="&#x1a1;" 
d="M1083 1284h142l-35 -207q-20 -119 -150 -119h-53q111 -114 111 -323q0 -296 -158.5 -478t-396.5 -182q-198 0 -305 122t-107 325q0 148 43 272.5t117.5 208.5t176 131t216.5 47q90 0 158 -24h205zM551 115q146 0 236.5 90t117.5 250l21 123q10 61 10 104q0 130 -68 195
t-190 65q-146 0 -236.5 -90t-117.5 -250l-21 -123q-10 -61 -10 -104q0 -130 68 -195t190 -65z" />
    <glyph glyph-name="Uhorn" unicode="&#x1af;" 
d="M315 1430h168l-137 -820q-31 -182 -31 -256q0 -114 50.5 -172.5t179.5 -58.5q57 0 102 10.5t77.5 26.5t58.5 48t42 62t30.5 82.5t23 95t20.5 113.5l145 869h193l37 227h141l-35 -207q-22 -127 -147 -127h-39l-121 -727q-17 -99 -32 -168.5t-37 -139.5t-48.5 -115t-64 -86
t-85.5 -63.5t-111.5 -35.5t-143.5 -13q-213 0 -307 92t-94 273q0 100 36 322z" />
    <glyph glyph-name="uhorn" unicode="&#x1b0;" 
d="M1325 1284l-35 -207q-22 -127 -147 -127h-49l-158 -950h-160l41 250h-8q-62 -134 -146 -204.5t-206 -70.5q-133 0 -210 81t-77 225q0 67 12 137l107 639h160l-105 -625q-10 -61 -10 -113q0 -96 44.5 -149t131.5 -53q127 0 223 114q101 118 121 242l98 584h195l37 227h141
z" />
    <glyph glyph-name="Aringacute" unicode="&#x1fa;" 
d="M1081 0h-176l-51 408h-504l-188 -408h-180l675 1430h226zM838 557l-88 700h-19l-317 -700h424zM1090 2226l-218 -211l-75 58l184 233zM793 1511q-91 0 -149 57t-58 146q0 107 79 183.5t185 76.5q91 0 149 -56.5t58 -145.5q0 -107 -79 -184t-185 -77zM801 1608
q113 0 135 114q8 44 8 66q0 42 -26 66t-76 24q-113 0 -135 -115q-9 -49 -9 -65q0 -42 26.5 -66t76.5 -24z" />
    <glyph glyph-name="aringacute" unicode="&#x1fb;" 
d="M944 0h-160l41 250h-6q-66 -134 -154.5 -204.5t-220.5 -70.5q-160 0 -244.5 104t-84.5 306q0 74 11.5 150t35 155.5t63.5 148.5t93.5 124t129.5 86.5t166 31.5q117 0 196.5 -53.5t113.5 -155.5h6l31 185h159zM500 117q143 0 248 116q93 104 116 242l39 234
q18 107 -50.5 169t-190.5 62q-148 0 -237.5 -89.5t-115.5 -242.5l-24 -147q-9 -55 -9 -92q0 -120 57.5 -186t166.5 -66zM979 1878l-217 -211l-76 57l184 234zM682 1163q-91 0 -149 57t-58 146q0 107 79 183.5t185 76.5q91 0 149 -57t58 -146q0 -107 -79 -183.5t-185 -76.5z
M690 1260q111 0 135 114q9 47 9 66q0 42 -26.5 66t-76.5 24q-110 0 -135 -115q-8 -41 -8 -65q0 -42 26 -66t76 -24z" />
    <glyph glyph-name="AEacute" unicode="&#x1fc;" 
d="M545 0l67 412h-303l-182 -412h-174l655 1430h676l-22 -142h-344l-82 -493h319l-22 -142h-320l-84 -512h342l-22 -141h-504zM762 1307h-57l-334 -754h266zM1163 1864l-264 -318l-96 58l221 340z" />
    <glyph glyph-name="aeacute" unicode="&#x1fd;" 
d="M248 -25q-110 0 -179 69t-69 194q0 159 113 247t309 97l127 6l20 114q9 55 9 93q0 166 -152 166q-73 0 -127 -38.5t-104 -117.5l-95 72q49 91 135.5 147.5t202.5 56.5q121 0 180.5 -58.5t59.5 -141.5h8q99 200 289 200q109 0 177.5 -65t68.5 -180q0 -54 -15.5 -101.5
t-55 -93t-99.5 -78.5t-155.5 -55t-217.5 -25l-8 -49q-8 -49 -8 -108q0 -110 41 -167t118 -57q73 0 121.5 48t95.5 139l111 -56q-49 -109 -135 -183.5t-203 -74.5q-115 0 -187.5 72.5t-76.5 202.5h-12q-64 -275 -287 -275zM283 96q80 0 142 59.5t77 151.5l28 172l-110 -6
q-128 -6 -193.5 -45t-81.5 -135q-6 -37 -6 -68q0 -61 38.5 -95t105.5 -34zM965 961q-103 0 -173 -96t-92 -236l-6 -37q391 13 391 239q0 62 -30.5 96t-89.5 34zM1022 1516l-264 -318l-96 57l221 340z" />
    <glyph glyph-name="Oslashacute" unicode="&#x1fe;" 
d="M532 -25q-180 0 -284 101l-111 -150l-117 74l150 197q-43 107 -43 264q0 82 8 168.5t28.5 185.5t52 188.5t82 173t114.5 144t154 97t196 36.5q182 0 285 -100l110 149l117 -73l-150 -197q43 -107 43 -264q0 -82 -8 -168.5t-28.5 -185.5t-52 -188.5t-82 -173.5
t-114.5 -144.5t-154 -97t-196 -36.5zM307 598q-14 -85 -14 -168q0 -49 4 -72l651 863q-61 86 -198 86q-161 0 -263.5 -125.5t-140.5 -350.5zM545 123q161 0 263 125t140 350l39 233q14 85 14 168q0 49 -4 72l-651 -862q61 -86 199 -86zM1053 1864l-265 -318l-96 58l221 340z
" />
    <glyph glyph-name="oslashacute" unicode="&#x1ff;" 
d="M104 -70l-88 70l170 174q-55 107 -55 248q0 296 158.5 477.5t396.5 181.5q182 0 291 -106l147 151l88 -69l-170 -174q56 -109 56 -248q0 -296 -158.5 -478t-396.5 -182q-181 0 -291 107zM678 942q-146 0 -236.5 -90t-117.5 -250l-21 -123q-10 -61 -10 -104q0 -54 10 -88
l569 585q-67 70 -194 70zM551 115q146 0 236.5 90t117.5 250l21 123q10 61 10 104q0 54 -10 88l-570 -586q66 -69 195 -69zM1008 1516l-265 -318l-96 57l221 340z" />
    <glyph glyph-name="Scommaaccent" unicode="&#x218;" 
d="M545 -25q-178 0 -303 68t-191 184l127 101q67 -105 157.5 -156t217.5 -51q167 0 266 81t99 218q0 90 -52 143t-174 80l-153 35q-167 38 -246.5 124.5t-79.5 225.5q0 196 141.5 311t372.5 115q175 0 290.5 -64.5t176.5 -170.5l-123 -91q-123 183 -352 183
q-155 0 -244.5 -73t-89.5 -198q0 -95 56 -145.5t175 -77.5l150 -35q173 -40 248.5 -126t75.5 -222q0 -205 -148.5 -332t-396.5 -127zM307 -510l113 379h221l-209 -379h-125z" />
    <glyph glyph-name="scommaaccent" unicode="&#x219;" 
d="M549 -25q-307 0 -451 199l119 94q63 -79 146 -118t200 -39q140 0 220.5 53.5t80.5 148.5q0 68 -40 99t-113 41l-154 22q-66 10 -115 25t-97.5 44t-74.5 79.5t-26 121.5q0 108 61.5 185.5t162 114t228.5 36.5q267 0 396 -161l-113 -99q-35 51 -108 88t-193 37
q-134 0 -206.5 -50t-72.5 -138q0 -69 42.5 -98t121.5 -42l150 -24q38 -6 60.5 -10.5t59 -15t59.5 -22t50.5 -32t42.5 -45t26 -60.5t11 -79q0 -163 -129.5 -259t-343.5 -96zM313 -510l113 379h221l-209 -379h-125z" />
    <glyph glyph-name="uni021A" unicode="&#x21a;" 
d="M1305 1282h-480l-215 -1282h-168l215 1282h-479l25 148h1126zM285 -510l112 379h221l-208 -379h-125z" />
    <glyph glyph-name="uni021B" unicode="&#x21b;" 
d="M489 -25q-72 0 -111.5 39.5t-39.5 112.5q0 45 6 80l123 713h-305l22 137h215q53 0 79.5 21.5t35.5 74.5l47 277h152l-64 -373h436l-22 -137h-436l-131 -783l41 -24l460 307l80 -103l-231 -163q-145 -103 -220 -141t-137 -38zM233 -510l113 379h221l-209 -379h-125z" />
    <glyph glyph-name="uni0237" unicode="&#x237;" 
d="M563 -434q-60 0 -115.5 45t-195.5 199l-133 145l108 98l324 -344l37 8l200 1203h-436l23 137h596l-213 -1276q-15 -95 -62.5 -155t-132.5 -60z" />
    <glyph glyph-name="uni0259" unicode="&#x259;" 
d="M498 -25q-160 0 -259.5 75t-99.5 210q0 51 14.5 93t63 90t129.5 81.5t225 58t338 29.5q2 20 2 47q0 61 -10.5 107.5t-38 89t-82 65.5t-133.5 23q-111 0 -188.5 -52t-169.5 -181l-113 69q93 152 208.5 226.5t277.5 74.5q202 0 309.5 -113.5t107.5 -338.5
q0 -287 -163 -470.5t-418 -183.5zM512 109q160 0 260 96.5t123 275.5l2 21q-149 -5 -259.5 -21.5t-173 -38.5t-100.5 -53.5t-49.5 -60t-11.5 -62.5q0 -70 50 -113.5t159 -43.5z" />
    <glyph glyph-name="uni02BB" unicode="&#x2bb;" 
d="M526 1206l209 379h125l-112 -379h-222z" />
    <glyph glyph-name="uni02BC" unicode="&#x2bc;" 
d="M614 1516l-163 -383h-119l74 383h208z" />
    <glyph glyph-name="circumflex" unicode="&#x2c6;" 
d="M596 1567h201l178 -301l-94 -56l-197 240l-281 -240l-79 68z" />
    <glyph glyph-name="caron" unicode="&#x2c7;" 
d="M741 1227h-200l-179 301l95 55l196 -240l281 240l80 -67z" />
    <glyph glyph-name="breve" unicode="&#x2d8;" 
d="M645 1219q-245 0 -289 309l99 43l30 -70q38 -87 69 -120t95 -33q42 0 75 17.5t57.5 44t76.5 91.5l55 70l103 -43q-18 -39 -33.5 -68t-40.5 -68t-53.5 -67t-64.5 -53.5t-81.5 -39t-97.5 -13.5z" />
    <glyph glyph-name="dotaccent" unicode="&#x2d9;" 
d="M649 1253q-62 0 -90.5 23t-28.5 59q0 6 9 60q7 42 40 70t95 28t90.5 -23t28.5 -59q0 -5 -9 -59q-7 -42 -40 -70.5t-95 -28.5z" />
    <glyph glyph-name="ring" unicode="&#x2da;" 
d="M641 1184q-91 0 -149 56.5t-58 145.5q0 107 79 184t185 77q91 0 149 -57t58 -146q0 -107 -79 -183.5t-185 -76.5zM649 1280q53 0 89.5 30t45.5 85q9 56 9 65q0 42 -26.5 66t-76.5 24q-54 0 -90 -29.5t-45 -84.5q-8 -50 -8 -66q0 -42 26 -66t76 -24z" />
    <glyph glyph-name="ogonek" unicode="&#x2db;" 
d="M428 -424q-86 0 -143.5 38t-57.5 116q0 80 66 141.5t194 118.5l-6 35l109 12l24 -37q-148 -97 -197.5 -153.5t-49.5 -96.5q0 -32 19.5 -47.5t49.5 -15.5q56 0 115 53l78 -88q-72 -76 -201 -76z" />
    <glyph glyph-name="tilde" unicode="&#x2dc;" 
d="M801 1253q-12 0 -25 2t-22 3.5t-22 6.5t-19 7t-19.5 9.5t-16 9.5t-17 11t-15.5 9q-76 47 -131 47q-53 0 -129 -60l-57 84q91 107 202 107q31 0 64 -11t45.5 -18.5t46.5 -27.5q78 -48 131 -48t129 60l58 -84q-91 -107 -203 -107z" />
    <glyph glyph-name="hungarumlaut" unicode="&#x2dd;" 
d="M754 1518l-262 -318l-91 53l220 340zM1083 1518l-262 -318l-90 53l219 340z" />
    <glyph glyph-name="uni0300" unicode="&#x300;" horiz-adv-x="0" 
d="M8 1198l-153 342l151 55l107 -356z" />
    <glyph glyph-name="uni0301" unicode="&#x301;" horiz-adv-x="0" 
d="M305 1516l-264 -318l-96 57l221 340z" />
    <glyph glyph-name="uni0302" unicode="&#x302;" horiz-adv-x="0" 
d="M-18 1567h200l178 -301l-94 -56l-196 240l-281 -240l-80 68z" />
    <glyph glyph-name="uni0303" unicode="&#x303;" horiz-adv-x="0" 
d="M186 1253q-12 0 -24.5 1.5t-22 3.5t-22 7t-19 7.5t-18.5 9.5t-16.5 9.5t-17 10t-15.5 9.5q-76 47 -131 47q-53 0 -129 -60l-58 84q91 107 203 107q31 0 64 -11t45.5 -18.5t46.5 -27.5q78 -48 131 -48t129 60l57 -84q-91 -107 -203 -107z" />
    <glyph glyph-name="uni0304" unicode="&#x304;" horiz-adv-x="0" 
d="M-246 1307l23 137h567l-22 -137h-568z" />
    <glyph glyph-name="uni0306" unicode="&#x306;" horiz-adv-x="0" 
d="M31 1219q-245 0 -289 309l98 43l31 -70q38 -87 69 -120t95 -33q42 0 75 17.5t57.5 44t76.5 91.5l55 70l102 -43q-22 -48 -40.5 -82t-53 -80.5t-70.5 -75.5t-90 -50t-116 -21z" />
    <glyph glyph-name="uni0307" unicode="&#x307;" horiz-adv-x="0" 
d="M35 1253q-62 0 -90.5 23t-28.5 59q0 12 8 60q7 42 40 70t95 28t90.5 -23t28.5 -59q0 -11 -8 -59q-7 -42 -40 -70.5t-95 -28.5z" />
    <glyph glyph-name="uni0308" unicode="&#x308;" horiz-adv-x="0" 
d="M-152 1268q-106 0 -106 73q0 16 8 52q10 44 36.5 66t84.5 22q106 0 106 -74q0 -15 -8 -51q-10 -44 -36.5 -66t-84.5 -22zM229 1268q-106 0 -106 73q0 16 8 52q10 44 36.5 66t84.5 22q106 0 106 -74q0 -15 -8 -51q-10 -44 -36.5 -66t-84.5 -22z" />
    <glyph glyph-name="uni0309" unicode="&#x309;" horiz-adv-x="0" 
d="M-106 1442l20 125h209q69 0 103 -29.5t34 -77.5q0 -83 -106 -192l-82 -86l-88 55l145 205h-235z" />
    <glyph glyph-name="uni030A" unicode="&#x30a;" horiz-adv-x="0" 
d="M27 1184q-91 0 -149 56.5t-58 145.5q0 107 79 184t185 77q91 0 149 -57t58 -146q0 -107 -79 -183.5t-185 -76.5zM35 1280q53 0 89.5 30t45.5 85q8 50 8 65q0 42 -26 66t-76 24q-54 0 -90 -29.5t-45 -84.5q-9 -56 -9 -66q0 -42 26.5 -66t76.5 -24z" />
    <glyph glyph-name="uni030B" unicode="&#x30b;" horiz-adv-x="0" 
d="M139 1518l-262 -318l-90 53l219 340zM469 1518l-262 -318l-90 53l219 340z" />
    <glyph glyph-name="uni030C" unicode="&#x30c;" horiz-adv-x="0" 
d="M127 1227h-201l-178 301l94 55l197 -240l280 240l80 -67z" />
    <glyph glyph-name="uni0312" unicode="&#x312;" horiz-adv-x="0" 
d="M-88 1206l209 379h125l-113 -379h-221z" />
    <glyph glyph-name="uni0315" unicode="&#x315;" horiz-adv-x="0" 
d="M219 1516l-164 -383h-118l73 383h209z" />
    <glyph glyph-name="uni031B" unicode="&#x31b;" horiz-adv-x="0" 
d="M182 1284l-35 -207q-22 -127 -147 -127h-182l18 107h168l37 227h141z" />
    <glyph glyph-name="uni0323" unicode="&#x323;" horiz-adv-x="0" 
d="M-51 -350q-55 0 -81 21t-26 53q0 25 8 53q12 43 38 65.5t83 22.5q55 0 81 -21t26 -53q0 -25 -8 -53q-12 -43 -38 -65.5t-83 -22.5z" />
    <glyph glyph-name="uni0326" unicode="&#x326;" horiz-adv-x="0" 
d="M-244 -510l113 379h221l-209 -379h-125z" />
    <glyph glyph-name="uni0327" unicode="&#x327;" horiz-adv-x="0" 
d="M-31 -424q-74 0 -123.5 24t-72.5 60l82 82q35 -55 114 -55q46 0 74.5 18t28.5 51q0 63 -123 80l-60 8l72 197h102l-59 -166l4 -6q39 8 76 8q58 0 89.5 -31t31.5 -90q0 -90 -67 -135t-169 -45z" />
    <glyph glyph-name="uni0328" unicode="&#x328;" horiz-adv-x="0" 
d="M-186 -424q-86 0 -143.5 38t-57.5 116q0 80 66 141.5t194 118.5l-6 35l108 12l25 -37q-148 -97 -198 -153.5t-50 -96.5q0 -32 20 -47.5t50 -15.5q56 0 115 53l77 -88q-72 -76 -200 -76z" />
    <glyph glyph-name="pi" unicode="&#x3c0;" 
d="M137 0l154 920h-193l23 137h1116l-23 -137h-221l-131 -787l49 -16l174 129l82 -86l-24 -23q-103 -94 -164 -128t-121 -34q-78 0 -114.5 39.5t-36.5 100.5q0 40 20 166l107 639h-383l-154 -920h-160z" />
    <glyph glyph-name="uni0400" unicode="&#x400;" 
d="M977 0h-881l240 1430h876l-24 -148h-709l-82 -483h686l-24 -148h-686l-84 -504h712zM784 1546l-151 334l149 64l107 -357z" />
    <glyph glyph-name="uni0401" unicode="&#x401;" 
d="M977 0h-881l240 1430h876l-24 -148h-709l-82 -483h686l-24 -148h-686l-84 -504h712zM625 1616q-56 0 -81.5 20.5t-25.5 53.5q0 23 8 51q12 44 38 66t83 22q56 0 81.5 -20.5t25.5 -53.5q0 -19 -9 -51q-12 -44 -37.5 -66t-82.5 -22zM1006 1616q-56 0 -81.5 20.5t-25.5 53.5
q0 23 8 51q12 44 38 66t83 22q56 0 81.5 -20.5t25.5 -53.5q0 -19 -9 -51q-12 -44 -37.5 -66t-82.5 -22z" />
    <glyph glyph-name="uni0402" unicode="&#x402;" 
d="M795 -373q-50 0 -96.5 31.5t-118.5 108.5l-72 77l106 103l164 -174l35 8l115 665q16 93 16 150q0 154 -182 154q-111 0 -221 -43l-119 -707h-168l215 1282h-324l25 148h815l-24 -148h-324l-72 -424h8q95 39 220 39q155 0 236 -77.5t81 -211.5q0 -68 -20 -194l-99 -572
q-16 -100 -64 -157.5t-132 -57.5z" />
    <glyph glyph-name="uni0403" unicode="&#x403;" 
d="M184 0l240 1430h797l-25 -148h-629l-215 -1282h-168zM1128 1864l-264 -318l-96 58l221 340z" />
    <glyph glyph-name="uni0404" unicode="&#x404;" 
d="M588 -25q-434 0 -434 517q0 76 8.5 157.5t29.5 177t53 183t84 169.5t117 142t156.5 96.5t198.5 36.5q76 0 139 -19t106 -49.5t75 -73.5t49.5 -87.5t27.5 -94.5l-151 -49q-12 50 -29.5 88t-46.5 70.5t-75.5 50t-107.5 17.5q-167 0 -273 -128t-144 -356l-4 -24h462
l-24 -148h-463l-4 -24q-16 -98 -16 -178q0 -153 70.5 -239.5t213.5 -86.5q107 0 180.5 54t149.5 181l135 -67q-86 -163 -203 -239.5t-280 -76.5z" />
    <glyph glyph-name="uni0405" unicode="&#x405;" 
d="M545 -25q-178 0 -303 68t-191 184l127 101q67 -105 157.5 -156t217.5 -51q167 0 266 81t99 218q0 90 -52 143t-174 80l-153 35q-167 38 -246.5 124.5t-79.5 225.5q0 196 141.5 311t372.5 115q175 0 290.5 -64.5t176.5 -170.5l-123 -91q-123 183 -352 183
q-155 0 -244.5 -73t-89.5 -198q0 -95 56 -145.5t175 -77.5l150 -35q173 -40 248.5 -126t75.5 -222q0 -205 -148.5 -332t-396.5 -127z" />
    <glyph glyph-name="uni0406" unicode="&#x406;" 
d="M969 0h-885l22 135h359l194 1159h-358l23 136h884l-22 -136h-359l-194 -1159h358z" />
    <glyph glyph-name="uni0407" unicode="&#x407;" 
d="M969 0h-885l22 135h359l194 1159h-358l23 136h884l-22 -136h-359l-194 -1159h358zM610 1616q-106 0 -106 74q0 23 8 51q12 44 38 66t83 22q106 0 106 -74q0 -23 -8 -51q-12 -44 -38 -66t-83 -22zM991 1616q-106 0 -106 74q0 23 8 51q12 44 38 66t83 22q106 0 106 -74
q0 -23 -8 -51q-12 -44 -38 -66t-83 -22z" />
    <glyph glyph-name="uni0408" unicode="&#x408;" 
d="M444 1430h689l-181 -1082q-31 -187 -147 -280t-295 -93q-167 0 -270.5 85.5t-120.5 248.5l162 35q12 -104 62.5 -161.5t170.5 -57.5q233 0 279 274l147 883h-520z" />
    <glyph glyph-name="uni0409" unicode="&#x409;" 
d="M-80 0l23 147h100q62 57 105 146.5t91 287t105 539.5l51 310h541l-96 -574h37q159 0 243 -89.5t84 -244.5q0 -252 -121.5 -387t-332.5 -135h-215l215 1280h-224l-30 -178q-58 -338 -106 -535.5t-92.5 -299t-104.5 -161.5q-106 -106 -250 -106h-23zM719 141h45
q104 0 171.5 58t86.5 166l8 49q8 52 8 118q0 90 -49 136.5t-133 46.5h-41z" />
    <glyph glyph-name="uni040A" unicode="&#x40a;" 
d="M23 0l239 1430h162l-107 -631h314l106 631h162l-96 -574h61q165 0 252.5 -90t87.5 -244q0 -252 -124.5 -387t-342.5 -135h-239l108 651h-313l-109 -651h-161zM682 141h70q110 0 180.5 58t89.5 166l8 49q8 52 8 118q0 90 -52 136.5t-142 46.5h-66z" />
    <glyph glyph-name="uni040B" unicode="&#x40b;" 
d="M254 0l215 1282h-324l25 148h815l-24 -148h-324l-72 -424h8q95 39 220 39q155 0 236 -77.5t81 -211.5q0 -68 -20 -194l-70 -414h-168l76 446q16 93 16 150q0 154 -182 154q-111 0 -221 -43l-119 -707h-168z" />
    <glyph glyph-name="uni040C" unicode="&#x40c;" 
d="M98 0l240 1430h168l-107 -631h240l391 631h182l-360 -582q-39 -60 -71.5 -85.5t-73.5 -31.5l-2 -10q38 -9 60.5 -40t49.5 -118l127 -416h131l-24 -147h-111q-66 0 -106.5 36t-65.5 116l-152 499h-239l-109 -651h-168zM1047 1864l-265 -318l-96 58l221 340z" />
    <glyph glyph-name="uni040D" unicode="&#x40d;" 
d="M80 0l239 1430h168l-116 -699l-105 -436h13l245 360l527 775h161l-239 -1430h-168l117 698l104 437h-12l-232 -340l-540 -795h-162zM758 1546l-152 334l150 64l106 -357z" />
    <glyph glyph-name="uni040E" unicode="&#x40e;" 
d="M211 0l25 147h204l101 187l-287 1096h162l164 -633l63 -283h4l141 277l340 639h177l-689 -1262q-54 -101 -112 -134.5t-168 -33.5h-125zM793 1567q-105 0 -166 47t-95 143l-40 117l151 47l45 -217q32 -12 109 -12q79 0 116 12l119 217l144 -47l-74 -117
q-63 -100 -138.5 -145t-170.5 -45z" />
    <glyph glyph-name="uni040F" unicode="&#x40f;" 
d="M395 -307l51 307h-360l240 1430h168l-215 -1283h544l215 1283h168l-239 -1430h-363l-51 -307h-158z" />
    <glyph glyph-name="uni0410" unicode="&#x410;" 
d="M1081 0h-176l-51 408h-504l-188 -408h-180l675 1430h226zM838 557l-88 700h-19l-317 -700h424z" />
    <glyph glyph-name="uni0411" unicode="&#x411;" 
d="M117 0l239 1430h762l-24 -148h-594l-72 -426h303q176 0 263 -91.5t87 -260.5q0 -236 -126.5 -370t-350.5 -134h-487zM309 147h312q114 0 183 58.5t87 163.5l12 73q6 43 6 80q0 187 -198 187h-308z" />
    <glyph glyph-name="uni0412" unicode="&#x412;" 
d="M94 0l240 1430h461q165 0 254.5 -88.5t89.5 -241.5q0 -136 -73.5 -226t-197.5 -124l-2 -9q105 -32 163 -99t58 -187q0 -119 -55.5 -223t-159 -168t-231.5 -64h-547zM285 147h321q254 0 291 218l10 61q8 50 8 76q0 78 -59 123t-164 45h-319zM395 809h293q114 0 180.5 49.5
t81.5 142.5l11 62q6 38 6 65q0 154 -201 154h-293z" />
    <glyph glyph-name="uni0413" unicode="&#x413;" 
d="M184 0l240 1430h797l-25 -148h-629l-215 -1282h-168z" />
    <glyph glyph-name="uni0414" unicode="&#x414;" 
d="M-82 -307l76 454h123q112 134 189.5 342t127.5 521l70 420h653l-215 -1283h170l-76 -454h-157l51 307h-803l-51 -307h-158zM307 147h467l191 1135h-322l-47 -281q-100 -618 -289 -854z" />
    <glyph glyph-name="uni0415" unicode="&#x415;" 
d="M977 0h-881l240 1430h876l-24 -148h-709l-82 -483h686l-24 -148h-686l-84 -504h712z" />
    <glyph glyph-name="uni0416" unicode="&#x416;" 
d="M-68 0l263 561q35 75 74 113t89 47l2 10q-40 19 -59.5 54t-26.5 102l-63 543h154l73 -631h142l106 631h162l-107 -631h142l274 631h164l-240 -553q-30 -68 -63 -102.5t-80 -43.5l-2 -10q44 -15 67 -50.5t33 -107.5l84 -563h-164l-98 651h-141l-109 -651h-164l111 651
h-141l-305 -651h-177z" />
    <glyph glyph-name="uni0417" unicode="&#x417;" 
d="M510 -25q-154 0 -269.5 68t-181.5 184l127 101q67 -105 150.5 -156t195.5 -51q138 0 224 67.5t106 192.5l6 43q4 32 4 47q0 91 -63.5 143t-198.5 52h-186l25 143h186q136 0 209.5 61t95.5 181l4 22q4 24 4 47q0 90 -63 140.5t-180 50.5q-103 0 -180 -39t-148 -119
l-111 82q96 112 204 165.5t259 53.5q191 0 293 -83t102 -230q0 -165 -94 -269t-231 -124v-11q121 -15 186.5 -84t65.5 -182q0 -146 -72 -260t-195 -175t-274 -61z" />
    <glyph glyph-name="uni0418" unicode="&#x418;" 
d="M80 0l239 1430h168l-116 -699l-105 -436h13l245 360l527 775h161l-239 -1430h-168l117 698l104 437h-12l-232 -340l-540 -795h-162z" />
    <glyph glyph-name="uni0419" unicode="&#x419;" 
d="M80 0l239 1430h168l-116 -699l-105 -436h13l245 360l527 775h161l-239 -1430h-168l117 698l104 437h-12l-232 -340l-540 -795h-162zM776 1567q-105 0 -165.5 47t-94.5 143l-41 117l152 47l45 -217q32 -12 108 -12q80 0 117 12l119 217l143 -47l-74 -117
q-63 -100 -138.5 -145t-170.5 -45z" />
    <glyph glyph-name="uni041A" unicode="&#x41a;" 
d="M98 0l240 1430h168l-107 -631h240l391 631h182l-360 -582q-39 -60 -71.5 -85.5t-73.5 -31.5l-2 -10q38 -9 60.5 -40t49.5 -118l127 -416h131l-24 -147h-111q-66 0 -106.5 36t-65.5 116l-152 499h-239l-109 -651h-168z" />
    <glyph glyph-name="uni041B" unicode="&#x41b;" 
d="M-63 0l22 147h135q74 64 124 160t94 267t91 460l66 396h741l-239 -1430h-168l215 1280h-410l-45 -260q-45 -284 -96.5 -473t-98 -280.5t-106.5 -151.5q-68 -68 -128.5 -91.5t-143.5 -23.5h-53z" />
    <glyph glyph-name="uni041C" unicode="&#x41c;" 
d="M846 0l121 717l77 459h-14l-432 -738l-182 738h-15l-75 -459l-119 -717h-154l240 1430h205l151 -633h13l362 633h215l-240 -1430h-153z" />
    <glyph glyph-name="uni041D" unicode="&#x41d;" 
d="M805 0l108 651h-557l-108 -651h-168l239 1430h168l-106 -631h557l106 631h168l-239 -1430h-168z" />
    <glyph glyph-name="uni041E" unicode="&#x41e;" 
d="M532 -25q-405 0 -405 486q0 82 8 168.5t28.5 185.5t52 188.5t82 173t114.5 144t154 97t196 36.5q405 0 405 -485q0 -82 -8 -168.5t-28.5 -185.5t-52 -188.5t-82 -173.5t-114.5 -144.5t-154 -97t-196 -36.5zM545 123q161 0 263 125t140 350l39 233q14 85 14 168
q0 151 -60 229.5t-191 78.5q-161 0 -263.5 -125.5t-140.5 -350.5l-39 -233q-14 -85 -14 -168q0 -151 60.5 -229t191.5 -78z" />
    <glyph glyph-name="uni041F" unicode="&#x41f;" 
d="M86 0l240 1430h880l-239 -1430h-168l215 1282h-545l-215 -1282h-168z" />
    <glyph glyph-name="uni0420" unicode="&#x420;" 
d="M264 0h-168l240 1430h510q174 0 262 -90.5t88 -245.5q0 -229 -123 -357.5t-346 -128.5h-360zM479 1282l-88 -526h352q113 0 180.5 53.5t82.5 148.5l12 74q6 38 6 80q0 84 -52 127t-147 43h-346z" />
    <glyph glyph-name="uni0421" unicode="&#x421;" 
d="M588 -25q-428 0 -428 517q0 76 8 157.5t28.5 177t52 183t83 169.5t115.5 142t155.5 96.5t198.5 36.5q76 0 138.5 -19t104.5 -49.5t73 -73.5t48 -87t27 -95l-152 -49q-12 51 -28.5 88t-44.5 70.5t-73 50.5t-106 17q-167 0 -270 -126.5t-141 -355.5l-33 -196
q-16 -98 -16 -180q0 -154 67.5 -240t210.5 -86q61 0 108 16t88.5 54t75.5 86.5t78 126.5l134 -68q-58 -119 -122 -195.5t-160 -122t-220 -45.5z" />
    <glyph glyph-name="uni0422" unicode="&#x422;" 
d="M1305 1282h-480l-215 -1282h-168l215 1282h-479l25 148h1126z" />
    <glyph glyph-name="uni0423" unicode="&#x423;" 
d="M211 0l25 147h204l101 187l-287 1096h162l164 -633l63 -283h4l141 277l340 639h177l-689 -1262q-54 -101 -112 -134.5t-168 -33.5h-125z" />
    <glyph glyph-name="uni0424" unicode="&#x424;" 
d="M434 -59l31 184q-194 12 -288.5 128t-94.5 306q0 205 71 371t204 265t305 105l30 185h162l-31 -185q194 -12 288.5 -128t94.5 -306q0 -205 -70.5 -370.5t-203.5 -265t-305 -105.5l-31 -184h-162zM494 268l147 889q-149 -9 -247.5 -116t-125.5 -269l-16 -98
q-10 -62 -10 -115q0 -268 252 -291zM647 268q149 9 247.5 116t125.5 269l16 99q11 68 11 114q0 268 -252 291z" />
    <glyph glyph-name="uni0425" unicode="&#x425;" 
d="M752 723l340 -723h-181l-131 289l-139 305h-8l-242 -305l-227 -289h-197l596 737l-330 693h181l127 -277l131 -283h8l223 283l217 277h197z" />
    <glyph glyph-name="uni0426" unicode="&#x426;" 
d="M887 -389q-67 0 -153 29.5t-230 103.5l-10 -8l-19 -117h-162l13 76q12 75 57.5 117.5t110.5 42.5q47 0 133 -29l270 -84l10 8l72 250h-899l239 1430h168l-215 -1283h498l215 1283h168l-215 -1283h178l-53 -321q-21 -123 -62.5 -169t-113.5 -46z" />
    <glyph glyph-name="uni0427" unicode="&#x427;" 
d="M788 0l95 563h-9q-136 -47 -282 -47q-207 0 -297 91.5t-90 271.5q0 79 18 198l60 353h168l-66 -386q-14 -86 -14 -155q0 -72 16.5 -118t51 -68.5t73.5 -30.5t98 -8q149 0 297 51l121 715h168l-240 -1430h-168z" />
    <glyph glyph-name="uni0428" unicode="&#x428;" 
d="M23 0l239 1430h162l-215 -1283h262l215 1283h162l-215 -1283h262l215 1283h162l-240 -1430h-1009z" />
    <glyph glyph-name="uni0429" unicode="&#x429;" 
d="M915 -389q-43 0 -112.5 27t-224.5 106l-11 -8l-18 -117h-162l12 76q12 75 56.5 117.5t107.5 42.5q50 0 129 -29l234 -84l10 8l72 250h-985l239 1430h162l-215 -1283h229l215 1283h162l-215 -1283h229l215 1283h162l-215 -1283h154l-53 -321q-21 -123 -63 -169t-114 -46z
" />
    <glyph glyph-name="uni042A" unicode="&#x42a;" 
d="M258 0l215 1282h-328l25 148h496l-97 -574h224q181 0 271.5 -91t90.5 -255q0 -246 -128.5 -378t-360.5 -132h-408zM451 147h231q247 0 285 218l8 49q8 52 8 118q0 177 -211 177h-227z" />
    <glyph glyph-name="uni042B" unicode="&#x42b;" 
d="M207 141h143q110 0 181 58t90 166l8 49q8 52 8 118q0 90 -52.5 136.5t-142.5 46.5h-139zM23 0l239 1430h162l-96 -574h135q165 0 252.5 -90t87.5 -244q0 -252 -124.5 -387t-342.5 -135h-313zM870 0l240 1430h162l-240 -1430h-162z" />
    <glyph glyph-name="uni042C" unicode="&#x42c;" 
d="M309 147h287q247 0 285 218l8 49q8 52 8 118q0 177 -211 177h-283zM117 0l239 1430h168l-96 -574h279q181 0 271.5 -91t90.5 -255q0 -246 -128.5 -378t-360.5 -132h-463z" />
    <glyph glyph-name="uni042D" unicode="&#x42d;" 
d="M465 651l24 148h465q17 107 17 182q0 153 -71 239.5t-214 86.5q-107 0 -180.5 -54.5t-149.5 -181.5l-135 68q86 162 203.5 238.5t280.5 76.5q434 0 434 -516q0 -76 -8.5 -157.5t-29.5 -177t-53 -183t-84 -170t-117 -142.5t-156.5 -96.5t-198.5 -36.5q-95 0 -168.5 27.5
t-119 76t-71.5 102.5t-39 118l152 49q12 -50 29.5 -87.5t46.5 -70.5t75 -50t107 -17q168 0 274 127t144 354l8 47h-465z" />
    <glyph glyph-name="uni042E" unicode="&#x42e;" 
d="M696 -25q-138 0 -203 83.5t-65 248.5q0 135 27 344h-162l-109 -651h-161l239 1430h162l-107 -631h160q77 433 203 559q52 52 111.5 74t138.5 22q138 0 203 -83.5t65 -248.5q0 -97 -16 -242.5t-45 -305.5t-79.5 -300.5t-111.5 -201.5q-53 -53 -112 -75t-138 -22zM721 123
q47 0 79.5 15t63.5 58.5t54.5 126.5t44.5 214l57 348q22 143 22 237q0 102 -35 143.5t-102 41.5q-47 0 -79.5 -15t-63 -59t-54 -126.5t-44.5 -213.5l-58 -348q-22 -143 -22 -238q0 -102 34.5 -143t102.5 -41z" />
    <glyph glyph-name="uni042F" unicode="&#x42f;" 
d="M12 0l25 150h121l211 346q37 63 77 94.5t91 40.5l2 10q-140 13 -213.5 91t-73.5 245q0 200 128 326.5t355 126.5h467l-239 -1430h-168l102 614h-260l-281 -460q-94 -154 -215 -154h-129zM635 762h287l88 520h-291q-125 0 -196.5 -56t-86.5 -159l-6 -39q-6 -37 -6 -74
q0 -98 51 -145t160 -47z" />
    <glyph glyph-name="uni0430" unicode="&#x430;" 
d="M944 0h-160l41 250h-6q-66 -134 -154.5 -204.5t-220.5 -70.5q-160 0 -244.5 104t-84.5 306q0 74 11.5 150t35 155.5t63.5 148.5t93.5 124t129.5 86.5t166 31.5q117 0 196.5 -53.5t113.5 -155.5h6l31 185h159zM500 117q143 0 248 116q93 104 116 242l39 234
q18 107 -50.5 169t-190.5 62q-148 0 -237.5 -89.5t-115.5 -242.5l-24 -147q-9 -55 -9 -92q0 -120 57.5 -186t166.5 -66z" />
    <glyph glyph-name="uni0431" unicode="&#x431;" 
d="M559 -25q-188 0 -293.5 121.5t-105.5 309.5q0 155 35 338.5t106 358t160 263.5q145 145 401 154l309 12l-26 -156l-309 -12q-90 -3 -156 -29.5t-119 -85.5q-100 -109 -182 -407h10q73 111 154.5 163t197.5 52q165 0 261 -107.5t96 -314.5q0 -148 -42.5 -272.5
t-115.5 -209t-171.5 -131.5t-209.5 -47zM567 115q136 0 225.5 90.5t116.5 249.5l21 123q6 43 6 92q0 121 -67 184.5t-179 63.5q-153 0 -234.5 -75t-105.5 -222l-14 -86q-14 -93 -14 -160q0 -130 65.5 -195t179.5 -65z" />
    <glyph glyph-name="uni0432" unicode="&#x432;" 
d="M586 -25q-201 0 -313.5 112.5t-112.5 326.5q0 69 18 180q35 211 183 349t366 138q152 0 243 -70t91 -182q0 -93 -64.5 -157.5t-175.5 -93.5v-9q101 -19 154 -78t53 -151q0 -153 -124.5 -259t-317.5 -106zM594 109q102 0 174.5 51t85.5 135q4 24 4 45q0 154 -192 154
q-86 0 -252 -25l-86 -14q-4 -24 -4 -54q0 -144 69 -218t201 -74zM342 580l145 16q207 24 299.5 68.5t104.5 117.5q2 12 2 37q0 59 -46.5 94t-133.5 35q-154 0 -249 -95t-118 -249z" />
    <glyph glyph-name="uni0433" unicode="&#x433;" 
d="M514 -25q-371 0 -371 273q0 136 96 227.5t298 118.5l125 16q260 35 260 193q0 143 -222 143q-100 0 -178 -31t-151 -96l-88 101q97 84 201 122.5t235 38.5q179 0 270.5 -69t91.5 -195q0 -132 -99 -221.5t-294 -114.5l-125 -16q-258 -34 -258 -201q0 -74 53.5 -112.5
t171.5 -38.5q124 0 219.5 43.5t182.5 130.5l88 -101q-107 -107 -228 -159t-278 -52z" />
    <glyph glyph-name="uni0434" unicode="&#x434;" 
d="M502 -25q-182 0 -279.5 117t-97.5 309q0 146 39 270t106 208t156.5 131t189.5 47q109 0 182 -55t107 -158h6v74q0 181 -37 286t-109 148t-192 43q-72 0 -137 -9l27 146q46 8 141 8q235 0 351 -138.5t116 -440.5q0 -311 -62.5 -530t-168.5 -325q-73 -73 -154.5 -102
t-183.5 -29zM512 115q133 0 226 92t122 262l19 109q10 63 10 108q0 102 -68.5 167t-202.5 65q-121 0 -197.5 -85.5t-103.5 -244.5l-18 -109q-12 -73 -12 -108q0 -127 59.5 -191.5t165.5 -64.5z" />
    <glyph glyph-name="uni0435" unicode="&#x435;" 
d="M567 -25q-202 0 -309.5 114t-107.5 339q0 287 163 470t418 183q160 0 259.5 -75t99.5 -209q0 -35 -7 -66t-28 -66.5t-56 -64t-94 -57t-138 -48.5t-193.5 -33.5t-254.5 -17.5q-2 -20 -2 -47q0 -61 11 -107.5t38 -88.5t81.5 -65t134.5 -23q111 0 188.5 52t169.5 181
l113 -70q-93 -152 -208.5 -226.5t-277.5 -74.5zM717 948q-160 0 -260 -96.5t-123 -276.5l-2 -20q149 5 259.5 21.5t173 38.5t100.5 53.5t49.5 60t11.5 62.5q0 70 -50 113.5t-159 43.5z" />
    <glyph glyph-name="uni0436" unicode="&#x436;" 
d="M-57 0l22 135h162q79 107 119 348q24 150 24 279q0 99 -28 160h-131l22 135h49q111 0 166 -67t55 -234q0 -74 -6 -148h162l74 449h145l-73 -449h159q28 150 62.5 238t87.5 141q70 70 184 70h80l-23 -135h-145q-79 -107 -119 -349q-24 -150 -24 -278q0 -99 28 -160h148
l-23 -135h-65q-111 0 -166 67t-55 234q0 107 10 180h-162l-78 -481h-145l78 481h-158q-33 -180 -67 -268t-89 -143q-70 -70 -184 -70h-96z" />
    <glyph glyph-name="uni0437" unicode="&#x437;" 
d="M539 -25q-147 0 -260 51.5t-183 147.5l119 94q126 -157 338 -157q125 0 194.5 47t83.5 127q7 42 7 57q0 135 -211 135h-197l23 137h190q96 0 166 41.5t82 108.5q4 20 4 43q0 63 -56 101t-161 38q-204 0 -359 -162l-88 101q95 95 204.5 145.5t250.5 50.5q173 0 276 -73
t103 -195q0 -92 -61 -157.5t-177 -94.5v-8q92 -21 138.5 -71t46.5 -140q0 -157 -129 -262t-344 -105z" />
    <glyph glyph-name="uni0438" unicode="&#x438;" 
d="M776 0l41 250h-8q-62 -134 -146 -204.5t-206 -70.5q-133 0 -210 81t-77 225q0 67 12 137l107 639h160l-105 -625q-10 -61 -10 -113q0 -96 44.5 -149t131.5 -53q127 0 223 114q101 118 121 242l98 584h160l-176 -1057h-160z" />
    <glyph glyph-name="uni0439" unicode="&#x439;" 
d="M776 0l41 250h-8q-62 -134 -146 -204.5t-206 -70.5q-133 0 -210 81t-77 225q0 67 12 137l107 639h160l-105 -625q-10 -61 -10 -113q0 -96 44.5 -149t131.5 -53q127 0 223 114q101 118 121 242l98 584h160l-176 -1057h-160zM727 1219q-105 0 -165.5 47t-94.5 143l-41 117
l152 47l45 -217q35 -13 108 -13q77 0 117 13l119 217l143 -47l-74 -117q-63 -100 -138.5 -145t-170.5 -45z" />
    <glyph glyph-name="uni043A" unicode="&#x43a;" 
d="M141 0l176 1057h160l-74 -445h218l335 445h181l-303 -402q-65 -86 -154 -106l-2 -8q36 -6 60 -28t46 -75l125 -301h119l-22 -137h-109q-55 0 -89.5 28.5t-62.5 94.5l-147 352h-217l-80 -475h-160z" />
    <glyph glyph-name="uni043B" unicode="&#x43b;" 
d="M-10 0l22 137h138q140 152 215 600l53 320h682l-176 -1057h-160l154 920h-373l-27 -168q-85 -512 -229 -656q-52 -52 -105.5 -74t-126.5 -22h-67z" />
    <glyph glyph-name="uni043C" unicode="&#x43c;" 
d="M70 0l176 1057h209l151 -541h4l334 541h215l-176 -1057h-152l121 711l27 143h-12l-410 -661l-186 661h-13l-18 -143l-119 -711h-151z" />
    <glyph glyph-name="uni043D" unicode="&#x43d;" 
d="M117 0l176 1057h160l-76 -445h504l75 445h160l-176 -1057h-160l78 475h-504l-78 -475h-159z" />
    <glyph glyph-name="uni043E" unicode="&#x43e;" 
d="M543 -25q-198 0 -305 122t-107 325q0 148 43 272.5t117.5 208.5t176 131t216.5 47q200 0 307 -121t107 -325q0 -296 -158.5 -478t-396.5 -182zM551 115q146 0 236.5 90t117.5 250l21 123q10 61 10 104q0 130 -68 195t-190 65q-146 0 -236.5 -90t-117.5 -250l-21 -123
q-10 -61 -10 -104q0 -130 68 -195t190 -65z" />
    <glyph glyph-name="uni043F" unicode="&#x43f;" 
d="M281 0h-160l176 1057h160l-41 -250h8q62 134 146 204t206 70q133 0 210 -80.5t77 -224.5q0 -66 -12 -137l-107 -639h-160l105 625q10 61 10 112q0 96 -44.5 149.5t-131.5 53.5q-126 0 -223 -115q-101 -118 -121 -241z" />
    <glyph glyph-name="uni0440" unicode="&#x440;" 
d="M39 -410l246 1467h159l-41 -250h7q66 134 154 204t220 70q161 0 245.5 -104t84.5 -305q0 -90 -15.5 -181.5t-53.5 -185.5t-93.5 -166.5t-143 -118t-194.5 -45.5q-117 0 -196 53t-113 156h-6l-100 -594h-160zM567 117q148 0 237.5 89.5t115.5 242.5l24 147q8 49 8 92
q0 120 -57 186t-166 66q-142 0 -248 -117q-94 -104 -116 -241l-39 -234q-18 -107 50.5 -169t190.5 -62z" />
    <glyph glyph-name="uni0441" unicode="&#x441;" 
d="M553 -25q-192 0 -295.5 122t-103.5 325q0 148 42.5 272.5t116.5 208.5t173.5 131t211.5 47q157 0 248 -70t121 -184l-137 -53q-30 94 -89 131t-161 37q-135 0 -220.5 -88t-113.5 -254l-20 -123q-11 -67 -11 -98q0 -131 69 -197.5t189 -66.5q40 0 72.5 8.5t75.5 33.5
t93.5 78.5t111.5 137.5l114 -68q-105 -170 -216.5 -250t-270.5 -80z" />
    <glyph glyph-name="uni0442" unicode="&#x442;" 
d="M172 0h-147l176 1057h147l-26 -166h8q42 90 95 140t134 50q86 0 127 -55t35 -145h6q88 200 256 200q87 0 133.5 -52.5t46.5 -149.5q0 -58 -14 -144l-123 -735h-147l118 709q15 92 15 127q0 114 -90 114q-73 0 -134 -82q-55 -75 -73 -184l-115 -684h-147l118 709
q13 80 13 120q0 63 -21 92t-65 29q-80 0 -138 -82q-56 -79 -73 -184z" />
    <glyph glyph-name="uni0443" unicode="&#x443;" 
d="M426 -434q-254 0 -371 145l111 107q87 -111 270 -111q149 0 234 77.5t112 246.5l41 250h-6q-62 -134 -147 -204.5t-207 -70.5q-133 0 -211 81t-78 224q0 48 12 131l103 615h160l-101 -600q-10 -59 -10 -107q0 -96 45 -149.5t133 -53.5q126 0 223 115q101 118 121 242
l92 553h160l-176 -1057q-74 -434 -510 -434z" />
    <glyph glyph-name="uni0444" unicode="&#x444;" 
d="M610 948l56 328q18 109 87 174.5t183 65.5h170l-23 -134h-254l-71 -434h6q42 72 88 102.5t106 30.5q91 0 142 -72.5t51 -224.5q0 -113 -19 -246.5t-65 -269t-109 -198.5q-70 -70 -163 -70q-129 0 -166 133h-6l-66 -389q-15 -92 -56 -135t-112 -43q-53 0 -98.5 29.5
t-120.5 109.5l-70 74l105 100l166 -172l37 8l69 418h-6q-42 -72 -88.5 -102.5t-106.5 -30.5q-91 0 -141.5 72.5t-50.5 224.5q0 114 19 247t64.5 269t108.5 199q69 69 164 69q127 0 164 -133h6zM506 293l82 495q12 76 -16.5 116t-94.5 40q-50 0 -85 -25t-65 -98t-51 -200
l-26 -160q-14 -82 -14 -150q0 -96 26.5 -135t83.5 -39q63 0 105 40t55 116zM758 137q50 0 84.5 25.5t64.5 98t51 200.5l27 160q14 82 14 149q0 96 -26.5 135t-83.5 39q-63 0 -105 -40t-55 -116l-82 -495q-12 -76 16.5 -116t94.5 -40z" />
    <glyph glyph-name="uni0445" unicode="&#x445;" 
d="M217 -25q-203 0 -203 244q0 56 11 137l149 13q-8 -63 -8 -117q0 -78 20.5 -114t69.5 -36q67 0 123 60.5t89.5 152.5t52 191t18.5 184q0 178 -33 250l-31 14l-323 -198l-64 96l135 100q173 129 281 129q33 0 59 -12t43 -29t29 -48.5t18 -57.5t9 -69.5t3.5 -71t0.5 -74.5
l14 -2q40 189 123.5 276.5t208.5 87.5q103 0 152.5 -60t49.5 -183q0 -66 -10 -138l-149 -12q8 63 8 117q0 78 -20.5 113.5t-69.5 35.5q-67 0 -123 -60.5t-89.5 -152.5t-52 -190.5t-18.5 -183.5q0 -177 37 -250l31 -15l303 213l67 -94l-102 -88q-184 -158 -297 -158
q-27 0 -49 7t-38 18t-29 30.5t-21 37.5t-14 47t-8.5 50.5t-4 56.5t-2 57t-0.5 59l-14 2q-78 -365 -332 -365z" />
    <glyph glyph-name="uni0446" unicode="&#x446;" 
d="M885 -389q-58 0 -133.5 28t-223.5 105l-10 -8l-18 -117h-162l12 76q12 75 57.5 117.5t110.5 42.5q47 0 133 -29l252 -84l10 8l93 270l-7 5q-50 -50 -114 -50q-56 0 -91.5 38.5t-35.5 99.5q0 58 16 137h-8q-63 -135 -144.5 -205t-199.5 -70q-130 0 -204.5 81t-74.5 225
q0 61 13 137l106 639h160l-105 -625q-10 -61 -10 -113q0 -96 42 -149t126 -53q119 0 215 114q101 118 121 242l98 584h160l-154 -924l29 -14l152 162l80 -76l-50 -60l-59 -331q-21 -116 -63 -159.5t-119 -43.5z" />
    <glyph glyph-name="uni0447" unicode="&#x447;" 
d="M750 0l92 567h-11q-57 -106 -134.5 -157.5t-188.5 -51.5q-139 0 -226 71.5t-87 178.5q0 50 12 127l53 322h160l-55 -322q-9 -61 -9 -94q0 -67 49 -103t138 -36q139 0 228 81.5t106 184.5l49 289h159l-178 -1057h-157z" />
    <glyph glyph-name="uni0448" unicode="&#x448;" 
d="M244 -25q-87 0 -134 53t-47 150q0 52 15 144l123 735h147l-119 -709q-14 -86 -14 -127q0 -115 90 -115q72 0 133 82q56 76 74 185l115 684h147l-119 -709q-12 -73 -12 -121q0 -63 21 -92t65 -29q79 0 137 82q57 80 74 185l115 684h147l-176 -1057h-147l26 166h-8
q-42 -91 -95 -141t-134 -50q-86 0 -127 55.5t-35 145.5h-6q-88 -201 -256 -201z" />
    <glyph glyph-name="uni0449" unicode="&#x449;" 
d="M956 -389q-66 0 -151 25.5t-289 107.5l-10 -8l-19 -117h-161l12 76q12 75 57 115t111 40q49 0 137 -24l326 -94l10 8l94 280l-6 5q-50 -50 -109 -50q-52 0 -83 32.5t-31 88.5q0 27 6 70h-8q-42 -90 -93.5 -140.5t-127.5 -50.5q-80 0 -119 55.5t-33 145.5h-6
q-88 -201 -250 -201q-82 0 -126 53t-44 150q0 58 14 144l123 735h148l-119 -709q-14 -86 -14 -127q0 -115 79 -115q66 0 127 82q56 76 74 185l115 684h147l-119 -709q-12 -73 -12 -121q0 -121 76 -121q71 0 129 82q57 80 74 185l114 684h148l-156 -934l25 -14l141 153
l76 -69l-39 -48l-59 -331q-21 -115 -63 -159t-116 -44z" />
    <glyph glyph-name="uni044A" unicode="&#x44a;" 
d="M633 -25q-181 0 -276 91t-95 251q0 123 47.5 230.5t171.5 243.5l45 49l-223 121l-10 -9l-19 -106h-163l12 74q26 161 164 161q53 0 109.5 -29.5t172.5 -117.5l11 8l18 115h162l-21 -146l-256 -325l6 -6q142 118 295 118q141 0 226.5 -74t85.5 -206q0 -192 -131.5 -317.5
t-331.5 -125.5zM641 109q107 0 184 63.5t97 179.5q4 28 4 43q0 170 -203 170q-126 0 -204.5 -50t-90.5 -132q-6 -38 -6 -78q0 -93 54 -144.5t165 -51.5z" />
    <glyph glyph-name="uni044B" unicode="&#x44b;" 
d="M389 -25q-145 0 -226 84.5t-81 225.5q0 64 16 157l103 615h147l-78 -471h9q98 145 249 145q115 0 184.5 -78.5t69.5 -201.5q0 -218 -107 -347t-286 -129zM393 96q87 0 143 59t80 193q9 56 9 94q0 82 -39.5 125t-110.5 43q-102 0 -162 -64.5t-75 -162.5q-9 -56 -9 -98
q0 -86 45 -137.5t119 -51.5zM879 0l176 1057h147l-176 -1057h-147z" />
    <glyph glyph-name="uni044C" unicode="&#x44c;" 
d="M571 -25q-173 0 -267.5 91t-94.5 235q0 60 14 145l103 611h159l-82 -498h9q121 172 319 172q142 0 226.5 -79.5t84.5 -227.5q0 -123 -58 -225t-166.5 -163t-246.5 -61zM584 109q114 0 186 61t94 178q8 46 8 80q0 83 -49.5 126.5t-148.5 43.5q-121 0 -202.5 -61
t-96.5 -154q-6 -38 -6 -74q0 -94 54.5 -147t160.5 -53z" />
    <glyph glyph-name="uni044D" unicode="&#x44d;" 
d="M401 465l23 137h448q7 58 7 76q0 131 -69 197.5t-189 66.5q-82 0 -150.5 -42t-146.5 -136l-111 84q99 124 198 178.5t230 54.5q192 0 295.5 -121.5t103.5 -324.5q0 -148 -42.5 -272.5t-116.5 -209t-173.5 -131.5t-211.5 -47q-157 0 -248 70t-121 184l137 54
q30 -94 89 -131t161 -37q135 0 221 89t115 261h-449z" />
    <glyph glyph-name="uni044E" unicode="&#x44e;" 
d="M705 -25q-265 0 -265 324q0 91 9 180h-187l-80 -479h-147l176 1057h147l-75 -449h182q19 105 52 188.5t83 148.5t120.5 100.5t158.5 35.5q264 0 264 -323q0 -229 -49.5 -404t-150 -277t-238.5 -102zM717 111q95 0 149 74.5t84 256.5l23 127q20 123 20 189q0 100 -30 144
t-97 44q-95 0 -149 -75t-84 -257l-23 -127q-20 -123 -20 -188q0 -100 30 -144t97 -44z" />
    <glyph glyph-name="uni044F" unicode="&#x44f;" 
d="M68 0l22 137h113l157 217q34 47 64.5 69t69.5 28l2 8q-138 18 -207.5 85t-69.5 173q0 162 121.5 263t353.5 101q205 0 385 -63l-170 -1018h-159l67 414h-217l-211 -291q-52 -71 -97 -97t-106 -26h-118zM635 537h203l63 383q-93 28 -219 28q-135 0 -204.5 -46t-84.5 -138
q-4 -25 -4 -47q0 -180 246 -180z" />
    <glyph glyph-name="uni0450" unicode="&#x450;" 
d="M567 -25q-202 0 -309.5 114t-107.5 339q0 287 163 470t418 183q160 0 259.5 -75t99.5 -209q0 -35 -7 -66t-28 -66.5t-56 -64t-94 -57t-138 -48.5t-193.5 -33.5t-254.5 -17.5q-2 -20 -2 -47q0 -61 11 -107.5t38 -88.5t81.5 -65t134.5 -23q111 0 188.5 52t169.5 181
l113 -70q-93 -152 -208.5 -226.5t-277.5 -74.5zM717 948q-160 0 -260 -96.5t-123 -276.5l-2 -20q149 5 259.5 21.5t173 38.5t100.5 53.5t49.5 60t11.5 62.5q0 70 -50 113.5t-159 43.5zM733 1198l-153 342l151 55l107 -356z" />
    <glyph glyph-name="uni0451" unicode="&#x451;" 
d="M567 -25q-202 0 -309.5 114t-107.5 339q0 287 163 470t418 183q160 0 259.5 -75t99.5 -209q0 -35 -7 -66t-28 -66.5t-56 -64t-94 -57t-138 -48.5t-193.5 -33.5t-254.5 -17.5q-2 -20 -2 -47q0 -61 11 -107.5t38 -88.5t81.5 -65t134.5 -23q111 0 188.5 52t169.5 181
l113 -70q-93 -152 -208.5 -226.5t-277.5 -74.5zM717 948q-160 0 -260 -96.5t-123 -276.5l-2 -20q149 5 259.5 21.5t173 38.5t100.5 53.5t49.5 60t11.5 62.5q0 70 -50 113.5t-159 43.5zM573 1268q-106 0 -106 73q0 16 8 52q10 44 36.5 66t84.5 22q106 0 106 -74q0 -15 -8 -51
q-10 -44 -36.5 -66t-84.5 -22zM954 1268q-106 0 -106 73q0 16 8 52q10 44 36.5 66t84.5 22q106 0 106 -74q0 -15 -8 -51q-10 -44 -36.5 -66t-84.5 -22z" />
    <glyph glyph-name="uni0452" unicode="&#x452;" 
d="M711 -434q-39 0 -80 24.5t-68 51t-93 96.5q-13 13 -19 20l-72 78l108 98l213 -225l37 8l152 908q10 61 10 112q0 96 -44.5 149.5t-131.5 53.5q-126 0 -223 -115q-101 -118 -121 -241l-98 -584h-160l209 1247h-133l20 123h133l25 146h160l-25 -146h309l-20 -123h-310
l-73 -440h8q62 134 146 204t206 70q133 0 210 -80.5t77 -224.5q0 -66 -12 -137l-144 -858q-15 -96 -62.5 -155.5t-133.5 -59.5z" />
    <glyph glyph-name="uni0453" unicode="&#x453;" 
d="M514 -25q-371 0 -371 273q0 136 96 227.5t298 118.5l125 16q260 35 260 193q0 143 -222 143q-100 0 -178 -31t-151 -96l-88 101q97 84 201 122.5t235 38.5q179 0 270.5 -69t91.5 -195q0 -132 -99 -221.5t-294 -114.5l-125 -16q-258 -34 -258 -201q0 -74 53.5 -112.5
t171.5 -38.5q124 0 219.5 43.5t182.5 130.5l88 -101q-107 -107 -228 -159t-278 -52zM1008 1516l-265 -318l-96 57l221 340z" />
    <glyph glyph-name="uni0454" unicode="&#x454;" 
d="M553 -25q-192 0 -295.5 122t-103.5 325q0 148 42.5 272.5t116.5 208.5t173.5 131t211.5 47q157 0 248 -70t121 -184l-137 -53q-30 94 -89 131t-161 37q-135 0 -220.5 -87.5t-113.5 -252.5h449l-23 -137h-448q-9 -61 -9 -86q0 -131 69 -197.5t189 -66.5q82 0 150.5 42
t146.5 136l111 -84q-99 -124 -198 -179t-230 -55z" />
    <glyph glyph-name="uni0455" unicode="&#x455;" 
d="M549 -25q-307 0 -451 199l119 94q63 -79 146 -118t200 -39q140 0 220.5 53.5t80.5 148.5q0 68 -40 99t-113 41l-154 22q-66 10 -115 25t-97.5 44t-74.5 79.5t-26 121.5q0 108 61.5 185.5t162 114t228.5 36.5q267 0 396 -161l-113 -99q-35 51 -108 88t-193 37
q-134 0 -206.5 -50t-72.5 -138q0 -69 42.5 -98t121.5 -42l150 -24q38 -6 60.5 -10.5t59 -15t59.5 -22t50.5 -32t42.5 -45t26 -60.5t11 -79q0 -163 -129.5 -259t-343.5 -96z" />
    <glyph glyph-name="uni0456" unicode="&#x456;" 
d="M696 1292q-62 0 -90 23t-28 59q0 10 8 60q16 98 135 98q62 0 90.5 -23t28.5 -59q0 -3 -9 -59q-16 -99 -135 -99zM557 -25q-75 0 -116.5 39.5t-41.5 102.5q0 13 11 82l139 721h-381l22 137h545l-178 -922l47 -18l404 348l96 -90l-186 -172q-146 -135 -219.5 -181.5
t-141.5 -46.5z" />
    <glyph glyph-name="uni0457" unicode="&#x457;" 
d="M557 -25q-75 0 -116.5 39.5t-41.5 102.5q0 13 11 82l139 721h-381l22 137h545l-178 -922l47 -18l404 348l96 -90l-186 -172q-146 -135 -219.5 -181.5t-141.5 -46.5zM496 1268q-107 0 -107 73q0 16 8 52q10 44 36.5 66t84.5 22q56 0 81.5 -20.5t25.5 -53.5q0 -11 -9 -51
q-10 -44 -36 -66t-84 -22zM877 1268q-107 0 -107 73q0 16 8 52q10 44 36.5 66t84.5 22q56 0 81.5 -20.5t25.5 -53.5q0 -11 -9 -51q-10 -44 -36 -66t-84 -22z" />
    <glyph glyph-name="uni0458" unicode="&#x458;" 
d="M563 -434q-60 0 -115.5 45t-195.5 199l-133 145l108 98l324 -344l37 8l200 1203h-436l23 137h596l-213 -1276q-15 -95 -62.5 -155t-132.5 -60zM936 1292q-62 0 -90.5 23t-28.5 59q0 10 8 60q16 98 136 98q62 0 90 -23t28 -59q0 -9 -8 -59q-16 -99 -135 -99z" />
    <glyph glyph-name="uni0459" unicode="&#x459;" 
d="M825 -25q-135 0 -209.5 80.5t-74.5 214.5q0 50 12 129l86 525h-213l-29 -172q-50 -302 -110.5 -454.5t-147.5 -227.5q-81 -70 -200 -70h-35l22 137h111q70 76 123 221.5t94 395.5l51 303h504l-78 -471h8q37 66 99 105.5t131 39.5q109 0 171 -74.5t62 -201.5
q0 -217 -105 -348.5t-272 -131.5zM829 96q75 0 129 61.5t78 194.5q8 50 8 94q0 87 -31.5 125.5t-97.5 38.5q-85 0 -143.5 -68t-73.5 -159q-10 -61 -10 -107q0 -83 38 -131.5t103 -48.5z" />
    <glyph glyph-name="uni045A" unicode="&#x45a;" 
d="M825 -25q-135 0 -209.5 80.5t-74.5 214.5q0 50 12 129l12 78h-315l-78 -477h-147l176 1057h147l-76 -447h316l74 447h147l-78 -471h8q37 66 99 105.5t131 39.5q109 0 171 -74.5t62 -201.5q0 -217 -105 -348.5t-272 -131.5zM829 96q75 0 129 61.5t78 194.5q8 50 8 94
q0 87 -31.5 125.5t-97.5 38.5q-85 0 -143.5 -68t-73.5 -159q-10 -61 -10 -107q0 -83 38 -131.5t103 -48.5z" />
    <glyph glyph-name="uni045B" unicode="&#x45b;" 
d="M121 0l209 1247h-133l20 123h133l25 146h160l-25 -146h309l-20 -123h-310l-73 -440h8q62 134 146 204t206 70q133 0 210 -80.5t77 -224.5q0 -66 -12 -137l-107 -639h-160l105 625q10 61 10 112q0 96 -44.5 149.5t-131.5 53.5q-126 0 -223 -115q-101 -118 -121 -241
l-98 -584h-160z" />
    <glyph glyph-name="uni045C" unicode="&#x45c;" 
d="M141 0l176 1057h160l-74 -445h218l335 445h181l-303 -402q-65 -86 -154 -106l-2 -8q36 -6 60 -28t46 -75l125 -301h119l-22 -137h-109q-55 0 -89.5 28.5t-62.5 94.5l-147 352h-217l-80 -475h-160zM993 1516l-264 -318l-96 57l221 340z" />
    <glyph glyph-name="uni045D" unicode="&#x45d;" 
d="M776 0l41 250h-8q-62 -134 -146 -204.5t-206 -70.5q-133 0 -210 81t-77 225q0 67 12 137l107 639h160l-105 -625q-10 -61 -10 -113q0 -96 44.5 -149t131.5 -53q127 0 223 114q101 118 121 242l98 584h160l-176 -1057h-160zM705 1198l-154 342l151 55l107 -356z" />
    <glyph glyph-name="uni045E" unicode="&#x45e;" 
d="M426 -434q-254 0 -371 145l111 107q87 -111 270 -111q149 0 234 77.5t112 246.5l41 250h-6q-62 -134 -147 -204.5t-207 -70.5q-133 0 -211 81t-78 224q0 48 12 131l103 615h160l-101 -600q-10 -59 -10 -107q0 -96 45 -149.5t133 -53.5q126 0 223 115q101 118 121 242
l92 553h160l-176 -1057q-74 -434 -510 -434zM737 1219q-105 0 -165.5 47t-94.5 143l-41 117l152 47l45 -217q35 -13 108 -13q77 0 117 13l119 217l143 -47l-73 -117q-63 -100 -138.5 -145t-171.5 -45z" />
    <glyph glyph-name="uni045F" unicode="&#x45f;" 
d="M457 -25q-133 0 -210 81t-77 225q0 67 12 137l107 639h160l-105 -625q-10 -61 -10 -113q0 -96 44.5 -149t131.5 -53q127 0 223 114q101 118 121 242l98 584h160l-176 -1057h-160l41 250h-8q-62 -134 -146 -204.5t-206 -70.5zM381 -410l55 324h148l-56 -324h-147z" />
    <glyph glyph-name="uni0472" unicode="&#x472;" 
d="M532 -25q-405 0 -405 486q0 82 8 168.5t28.5 185.5t52 188.5t82 173t114.5 144t154 97t196 36.5q405 0 405 -485q0 -82 -8 -168.5t-28.5 -185.5t-52 -188.5t-82 -173.5t-114.5 -144.5t-154 -97t-196 -36.5zM545 123q161 0 264 126t139 351l8 51h-641l-8 -53
q-14 -85 -14 -168q0 -151 60.5 -229t191.5 -78zM346 834l-6 -35h641l4 20q16 81 16 180q0 151 -60 229.5t-191 78.5q-161 0 -263 -123.5t-141 -349.5z" />
    <glyph glyph-name="uni0473" unicode="&#x473;" 
d="M543 -25q-198 0 -305 122t-107 325q0 148 43 272.5t117.5 208.5t176 131t216.5 47q200 0 307 -121t107 -325q0 -296 -158.5 -478t-396.5 -182zM551 115q147 0 237 89t117 249l2 12h-606q-8 -52 -8 -90q0 -130 68 -195t190 -65zM678 942q-146 0 -236.5 -90t-117.5 -250
h606q6 52 6 80q0 130 -68 195t-190 65z" />
    <glyph glyph-name="uni0490" unicode="&#x490;" 
d="M184 0l240 1430h639l51 307h158l-76 -455h-629l-215 -1282h-168z" />
    <glyph glyph-name="uni0491" unicode="&#x491;" 
d="M188 0l177 1057h596l47 286h147l-72 -425h-583l-152 -918h-160z" />
    <glyph glyph-name="uni0492" unicode="&#x492;" 
d="M139 692l23 127h196l103 611h796l-24 -148h-629l-78 -463h400l-23 -127h-399l-115 -692h-168l115 692h-197z" />
    <glyph glyph-name="uni0493" unicode="&#x493;" 
d="M225 0l76 457h-201l21 125h201l79 475h742l-23 -139h-583l-58 -336h334l-20 -125h-334l-76 -457h-158z" />
    <glyph glyph-name="uni0494" unicode="&#x494;" 
d="M778 -373q-55 0 -97.5 31t-117.5 113l-67 73l106 103l164 -172l27 8l90 508q14 86 14 155q0 73 -17.5 120t-53 69t-73 29.5t-94.5 7.5q-151 0 -299 -51l-104 -621h-168l240 1430h796l-24 -148h-629l-86 -510h8q136 47 285 47q207 0 296 -91t89 -275q0 -91 -19 -195
l-73 -416q-17 -96 -64 -155.5t-129 -59.5z" />
    <glyph glyph-name="uni0495" unicode="&#x495;" 
d="M729 -434q-39 0 -80 24.5t-68 51t-93 96.5q-13 13 -19 20l-72 78l109 98l213 -225l37 8l90 535q8 47 8 90q0 67 -49 103t-137 36q-139 0 -228 -81.5t-106 -184.5l-35 -215h-160l176 1057h742l-23 -139h-583l-82 -502h10q57 106 134.5 157.5t188.5 51.5q139 0 226.5 -71.5
t87.5 -178.5q0 -51 -12 -127l-78 -467q-15 -96 -63 -155.5t-134 -59.5z" />
    <glyph glyph-name="uni0496" unicode="&#x496;" 
d="M1006 -307l51 307h-129l-99 651h-137l-108 -651h-164l110 651h-137l-305 -651h-176l262 561q65 142 164 160l2 10q-40 19 -59.5 54t-26.5 102l-64 543h154l74 -631h137l107 631h161l-106 -631h137l274 631h164l-239 -553q-29 -68 -63 -102.5t-81 -43.5l-2 -10
q44 -15 67.5 -50.5t33.5 -107.5l61 -416h166l-76 -454h-153z" />
    <glyph glyph-name="uni0497" unicode="&#x497;" 
d="M918 -287l51 295q-74 16 -113 84.5t-39 208.5q0 107 10 180h-161l-78 -481h-146l78 481h-158q-33 -181 -66.5 -268.5t-88.5 -142.5q-70 -70 -184 -70h-97l23 135h162q78 105 118 348q25 156 25 279q0 97 -29 160h-131l23 135h49q111 0 166 -67t55 -234q0 -74 -6 -148h162
l73 449h146l-74 -449h160q28 151 62 238.5t87 140.5q70 70 185 70h80l-23 -135h-145q-79 -107 -119 -349q-25 -156 -25 -278q0 -97 29 -160h147l-69 -422h-139z" />
    <glyph glyph-name="uni0498" unicode="&#x498;" 
d="M371 -307l47 291q-121 18 -212 81.5t-147 161.5l127 101q67 -105 150.5 -156t195.5 -51q138 0 224 68.5t106 193.5l6 43q4 32 4 45q0 91 -63.5 143t-198.5 52h-186l25 143h186q136 0 209.5 61t95.5 181l4 22q4 24 4 47q0 90 -63 140.5t-180 50.5q-103 0 -180 -39
t-148 -119l-111 82q96 112 204 165.5t259 53.5q191 0 293 -83t102 -230q0 -165 -94 -269t-231 -124v-11q121 -15 186.5 -84t65.5 -182q0 -205 -134.5 -338.5t-343.5 -152.5l-47 -287h-155z" />
    <glyph glyph-name="uni0499" unicode="&#x499;" 
d="M422 -287l43 267q-244 21 -369 194l119 94q126 -157 338 -157q123 0 194.5 47t83.5 127q7 42 7 63q0 62 -54 95.5t-157 33.5h-197l23 137h190q96 0 166 41.5t82 108.5q4 24 4 39q0 67 -56 105t-169 38q-195 0 -351 -162l-88 101q196 196 453 196q174 0 277.5 -73
t103.5 -193q0 -96 -62.5 -161t-175.5 -93v-8q89 -19 137 -71t48 -130q0 -151 -107 -252t-293 -120l-43 -267h-147z" />
    <glyph glyph-name="uni049A" unicode="&#x49a;" 
d="M874 -307l52 307q-70 0 -110.5 36t-65.5 116l-152 499h-240l-108 -651h-168l240 1430h167l-106 -631h240l391 631h182l-360 -582q-38 -60 -71.5 -85.5t-74.5 -31.5l-2 -10q38 -9 61 -40.5t50 -117.5l127 -416h182l-76 -454h-158z" />
    <glyph glyph-name="uni049B" unicode="&#x49b;" 
d="M805 -289l49 289q-43 9 -72.5 37.5t-52.5 85.5l-147 352h-217l-80 -475h-160l176 1057h160l-74 -445h217l336 445h180l-303 -402q-66 -86 -153 -106l-2 -8q36 -6 60 -28t46 -75l125 -301h131l-72 -426h-147z" />
    <glyph glyph-name="uni049C" unicode="&#x49c;" 
d="M393 336l51 315h-110l-109 -651h-168l240 1430h168l-107 -631h111l53 315h133l-53 -315h90l383 631h182l-352 -580q-37 -61 -70 -87t-75 -32l-2 -10q38 -10 60.5 -41t47.5 -121l111 -412h131l-25 -147h-110q-67 0 -109.5 39.5t-66.5 130.5l-129 481h-90l-52 -315h-133z
" />
    <glyph glyph-name="uni049D" unicode="&#x49d;" 
d="M406 236l38 239h-104l-80 -475h-160l176 1057h160l-74 -445h107l41 244h125l-41 -244h82l321 445h181l-285 -393q-67 -94 -158 -115l-2 -8q37 -6 60 -28.5t43 -74.5l114 -301h119l-22 -137h-107q-57 0 -94 32t-68 115l-125 328h-84l-39 -239h-124z" />
    <glyph glyph-name="uni04A0" unicode="&#x4a0;" 
d="M258 0l215 1282h-328l25 148h496l-107 -631h195l366 631h183l-338 -582q-35 -60 -68 -85.5t-76 -31.5l-2 -10q41 -9 63.5 -40.5t43.5 -113.5l106 -420h131l-24 -147h-111q-68 0 -110.5 39.5t-65.5 128.5l-123 483h-194l-109 -651h-168z" />
    <glyph glyph-name="uni04A1" unicode="&#x4a1;" 
d="M250 0l153 920h-301l23 137h461l-74 -445h188l316 445h180l-285 -402q-60 -85 -151 -106l-2 -8q39 -8 61.5 -30.5t42.5 -78.5l107 -295h118l-22 -137h-109q-56 0 -93 33t-66 112l-119 330h-189l-79 -475h-160z" />
    <glyph glyph-name="uni04A2" unicode="&#x4a2;" 
d="M883 -307l51 307h-189l109 651h-498l-108 -651h-168l239 1430h168l-106 -631h498l106 631h168l-215 -1283h178l-76 -454h-157z" />
    <glyph glyph-name="uni04A3" unicode="&#x4a3;" 
d="M860 -287l49 287h-184l78 475h-486l-77 -475h-160l176 1057h160l-76 -445h485l76 445h160l-154 -918h172l-71 -426h-148z" />
    <glyph glyph-name="uni04A4" unicode="&#x4a4;" 
d="M23 0l239 1430h168l-106 -631h366l107 631h540l-24 -148h-373l-215 -1282h-168l109 651h-367l-109 -651h-167z" />
    <glyph glyph-name="uni04A5" unicode="&#x4a5;" 
d="M25 0l176 1057h159l-75 -445h366l76 445h537l-25 -139h-379l-149 -918h-160l78 475h-367l-78 -475h-159z" />
    <glyph glyph-name="uni04AA" unicode="&#x4aa;" 
d="M449 -307l47 289q-336 51 -336 510q0 76 8 157.5t28.5 177t52 183t83 169.5t115.5 142t155.5 96.5t198.5 36.5q76 0 138.5 -19t104.5 -49.5t73 -73.5t48 -87t27 -95l-152 -49q-12 51 -28.5 88t-44.5 70.5t-73 50.5t-106 17q-167 0 -270 -126.5t-141 -355.5l-33 -196
q-16 -98 -16 -180q0 -154 67.5 -240t210.5 -86q61 0 108 16t88.5 54t75.5 86.5t78 126.5l134 -68q-80 -165 -182.5 -254.5t-256.5 -103.5l-47 -287h-155z" />
    <glyph glyph-name="uni04AB" unicode="&#x4ab;" 
d="M436 -287l43 269q-158 21 -241.5 138.5t-83.5 301.5q0 148 42.5 272.5t116.5 208.5t173.5 131t211.5 47q157 0 248 -70t121 -184l-137 -53q-30 94 -89 131t-161 37q-135 0 -220.5 -88t-113.5 -254l-20 -123q-11 -67 -11 -98q0 -131 69 -197.5t189 -66.5q40 0 72.5 8.5
t75.5 33.5t93.5 78.5t111.5 137.5l114 -68q-94 -151 -189.5 -229.5t-223.5 -95.5l-43 -267h-148z" />
    <glyph glyph-name="uni04AE" unicode="&#x4ae;" 
d="M610 0h-168l95 557l-353 873h181l145 -375l121 -330h8l235 330l269 375h200l-636 -859z" />
    <glyph glyph-name="uni04AF" unicode="&#x4af;" 
d="M379 -410l70 410l-218 1057h158l82 -414l84 -459h8l236 459l221 414h158l-570 -1057l-69 -410h-160z" />
    <glyph glyph-name="uni04B0" unicode="&#x4b0;" 
d="M217 438l23 127h299l-355 865h181l149 -375l121 -330h8l236 330l264 375h200l-636 -865h299l-23 -127h-299l-74 -438h-168l74 438h-299z" />
    <glyph glyph-name="uni04B1" unicode="&#x4b1;" 
d="M379 -410l49 285h-287l21 125h287l-218 1057h158l82 -414l84 -459h8l236 459l221 414h158l-570 -1057h287l-21 -125h-286l-49 -285h-160z" />
    <glyph glyph-name="uni04B2" unicode="&#x4b2;" 
d="M958 -307l52 307h-111l-131 289l-139 305h-8l-242 -305l-227 -289h-197l596 737l-330 693h180l127 -277l131 -283h9l223 283l217 277h197l-566 -707l271 -576h182l-76 -454h-158z" />
    <glyph glyph-name="uni04B3" unicode="&#x4b3;" 
d="M891 -287l65 391l-14 2q-49 -70 -100 -100.5t-113 -30.5q-27 0 -49 7t-38 18t-29 30.5t-21 37.5t-14 47t-8.5 50.5t-4 56.5t-2 57t-0.5 59l-14 2q-78 -365 -332 -365q-203 0 -203 244q0 56 11 137l149 13q-8 -63 -8 -117q0 -78 20.5 -114t69.5 -36q67 0 123 60.5
t89.5 152.5t52 191t18.5 184q0 178 -33 250l-31 14l-323 -198l-64 96l135 100q173 129 281 129q38 0 66 -13.5t45.5 -41t28 -56.5t15 -74.5t6 -79t1.5 -85.5v-12l14 -2q40 189 123.5 276.5t208.5 87.5q103 0 152.5 -60t49.5 -183q0 -66 -10 -138l-149 -12q8 63 8 117
q0 78 -20.5 113.5t-69.5 35.5q-67 0 -123 -60.5t-89.5 -152.5t-52 -190.5t-18.5 -183.5q0 -177 37 -250l31 -15l289 203l67 -94l-84 -498h-139z" />
    <glyph glyph-name="uni04B6" unicode="&#x4b6;" 
d="M883 -307l51 307h-189l95 563h-9q-120 -47 -276 -47q-201 0 -291 91.5t-90 271.5q0 73 19 198l59 353h168l-66 -386q-14 -86 -14 -155q0 -70 16 -116t49.5 -69t72.5 -31.5t97 -8.5q167 0 289 51l121 715h168l-215 -1283h178l-76 -454h-157z" />
    <glyph glyph-name="uni04B7" unicode="&#x4b7;" 
d="M860 -287l49 287h-184l92 567h-10q-55 -105 -131.5 -157t-186.5 -52q-137 0 -221 71.5t-84 184.5q0 38 13 121l53 322h160l-56 -322q-8 -47 -8 -94q0 -67 46.5 -103t133.5 -36q70 0 130 24t99.5 63t64 85t32.5 94l49 289h160l-154 -918h172l-71 -426h-148z" />
    <glyph glyph-name="uni04B8" unicode="&#x4b8;" 
d="M481 233l47 285q-174 13 -248.5 103.5t-74.5 261.5q0 75 18 194l60 353h168l-66 -386q-14 -86 -14 -149q0 -115 41.5 -169.5t140.5 -61.5l57 348h133l-57 -346q91 6 221 49l121 715h168l-240 -1430h-168l95 563h-9q-106 -37 -212 -45l-48 -285h-133z" />
    <glyph glyph-name="uni04B9" unicode="&#x4b9;" 
d="M750 0l92 567h-11q-86 -162 -213 -200l-30 -185h-125l29 176q-133 4 -215 75t-82 175q0 50 12 127l53 322h160l-55 -322q-9 -58 -9 -96q0 -61 42 -96t118 -41l51 301h125l-51 -297q65 19 117.5 63t81.5 95.5t37 103.5l49 289h159l-178 -1057h-157z" />
    <glyph glyph-name="uni04BA" unicode="&#x4ba;" 
d="M88 0l240 1430h168l-95 -564h9q136 47 282 47q207 0 297 -91t90 -271q0 -80 -18 -199l-60 -352h-167l65 385q14 86 14 156q0 72 -16.5 118t-51 68.5t-73.5 30.5t-98 8q-149 0 -297 -51l-121 -715h-168z" />
    <glyph glyph-name="uni04BB" unicode="&#x4bb;" 
d="M121 0l254 1516h160l-119 -709h8q62 134 146 204t206 70q133 0 210 -80.5t77 -224.5q0 -66 -12 -137l-107 -639h-160l105 625q10 61 10 112q0 96 -44.5 149.5t-131.5 53.5q-126 0 -223 -115q-101 -118 -121 -241l-98 -584h-160z" />
    <glyph glyph-name="uni04C0" unicode="&#x4c0;" 
d="M969 0h-885l22 135h359l194 1159h-358l23 136h884l-22 -136h-359l-194 -1159h358z" />
    <glyph glyph-name="uni04C1" unicode="&#x4c1;" 
d="M-68 0l263 561q35 75 74 113t89 47l2 10q-40 19 -59.5 54t-26.5 102l-63 543h154l73 -631h142l106 631h162l-107 -631h142l274 631h164l-240 -553q-30 -68 -63 -102.5t-80 -43.5l-2 -10q44 -15 67 -50.5t33 -107.5l84 -563h-164l-98 651h-141l-109 -651h-164l111 651
h-141l-305 -651h-177zM793 1567q-105 0 -166 47t-95 143l-40 117l151 47l45 -217q32 -12 109 -12q79 0 116 12l119 217l144 -47l-74 -117q-63 -100 -138.5 -145t-170.5 -45z" />
    <glyph glyph-name="uni04C2" unicode="&#x4c2;" 
d="M-57 0l22 135h162q79 107 119 348q24 150 24 279q0 99 -28 160h-131l22 135h49q111 0 166 -67t55 -234q0 -74 -6 -148h162l74 449h145l-73 -449h159q28 150 62.5 238t87.5 141q70 70 184 70h80l-23 -135h-145q-79 -107 -119 -349q-24 -150 -24 -278q0 -99 28 -160h148
l-23 -135h-65q-111 0 -166 67t-55 234q0 107 10 180h-162l-78 -481h-145l78 481h-158q-33 -180 -67 -268t-89 -143q-70 -70 -184 -70h-96zM735 1219q-105 0 -165.5 47t-94.5 143l-41 117l152 47l45 -217q35 -13 108 -13q77 0 117 13l119 217l143 -47l-74 -117
q-63 -100 -138.5 -145t-170.5 -45z" />
    <glyph glyph-name="uni04CF" unicode="&#x4cf;" 
d="M375 0l266 1378h-373l23 138h538l-266 -1379h373l-23 -137h-538z" />
    <glyph glyph-name="uni04D0" unicode="&#x4d0;" 
d="M1081 0h-176l-51 408h-504l-188 -408h-180l675 1430h226zM838 557l-88 700h-19l-317 -700h424zM793 1567q-105 0 -166 47t-95 143l-40 117l151 47l45 -217q32 -12 109 -12q79 0 116 12l119 217l144 -47l-74 -117q-63 -100 -138.5 -145t-170.5 -45z" />
    <glyph glyph-name="uni04D1" unicode="&#x4d1;" 
d="M944 0h-160l41 250h-6q-66 -134 -154.5 -204.5t-220.5 -70.5q-160 0 -244.5 104t-84.5 306q0 74 11.5 150t35 155.5t63.5 148.5t93.5 124t129.5 86.5t166 31.5q117 0 196.5 -53.5t113.5 -155.5h6l31 185h159zM500 117q143 0 248 116q93 104 116 242l39 234
q18 107 -50.5 169t-190.5 62q-148 0 -237.5 -89.5t-115.5 -242.5l-24 -147q-9 -55 -9 -92q0 -120 57.5 -186t166.5 -66zM686 1219q-105 0 -165.5 47t-94.5 143l-41 117l152 47l45 -217q35 -13 108 -13q77 0 117 13l119 217l143 -47l-74 -117q-63 -100 -138.5 -145
t-170.5 -45z" />
    <glyph glyph-name="uni04D2" unicode="&#x4d2;" 
d="M1081 0h-176l-51 408h-504l-188 -408h-180l675 1430h226zM838 557l-88 700h-19l-317 -700h424zM614 1616q-106 0 -106 74q0 23 8 51q12 44 38 66t83 22q106 0 106 -74q0 -23 -8 -51q-12 -44 -38 -66t-83 -22zM995 1616q-106 0 -106 74q0 23 8 51q12 44 38 66t83 22
q106 0 106 -74q0 -23 -8 -51q-12 -44 -38 -66t-83 -22z" />
    <glyph glyph-name="uni04D3" unicode="&#x4d3;" 
d="M944 0h-160l41 250h-6q-66 -134 -154.5 -204.5t-220.5 -70.5q-160 0 -244.5 104t-84.5 306q0 74 11.5 150t35 155.5t63.5 148.5t93.5 124t129.5 86.5t166 31.5q117 0 196.5 -53.5t113.5 -155.5h6l31 185h159zM500 117q143 0 248 116q93 104 116 242l39 234
q18 107 -50.5 169t-190.5 62q-148 0 -237.5 -89.5t-115.5 -242.5l-24 -147q-9 -55 -9 -92q0 -120 57.5 -186t166.5 -66zM504 1268q-107 0 -107 73q0 11 9 52q10 44 36 66t84 22q56 0 81.5 -20.5t25.5 -53.5q0 -15 -8 -51q-10 -44 -36.5 -66t-84.5 -22zM885 1268
q-107 0 -107 73q0 16 8 52q10 44 36.5 66t84.5 22q56 0 81.5 -20.5t25.5 -53.5q0 -15 -8 -51q-10 -44 -36.5 -66t-84.5 -22z" />
    <glyph glyph-name="uni04D4" unicode="&#x4d4;" 
d="M545 0l67 412h-303l-182 -412h-174l655 1430h676l-22 -142h-344l-82 -493h319l-22 -142h-320l-84 -512h342l-22 -141h-504zM762 1307h-57l-334 -754h266z" />
    <glyph glyph-name="uni04D5" unicode="&#x4d5;" 
d="M248 -25q-110 0 -179 69t-69 194q0 159 113 247t309 97l127 6l20 114q9 55 9 93q0 166 -152 166q-73 0 -127 -38.5t-104 -117.5l-95 72q49 91 135.5 147.5t202.5 56.5q121 0 180.5 -58.5t59.5 -141.5h8q99 200 289 200q109 0 177.5 -65t68.5 -180q0 -54 -15.5 -101.5
t-55 -93t-99.5 -78.5t-155.5 -55t-217.5 -25l-8 -49q-8 -49 -8 -108q0 -110 41 -167t118 -57q73 0 121.5 48t95.5 139l111 -56q-49 -109 -135 -183.5t-203 -74.5q-115 0 -187.5 72.5t-76.5 202.5h-12q-64 -275 -287 -275zM283 96q80 0 142 59.5t77 151.5l28 172l-110 -6
q-128 -6 -193.5 -45t-81.5 -135q-6 -37 -6 -68q0 -61 38.5 -95t105.5 -34zM965 961q-103 0 -173 -96t-92 -236l-6 -37q391 13 391 239q0 62 -30.5 96t-89.5 34z" />
    <glyph glyph-name="uni04D6" unicode="&#x4d6;" 
d="M977 0h-881l240 1430h876l-24 -148h-709l-82 -483h686l-24 -148h-686l-84 -504h712zM803 1567q-105 0 -165.5 47t-94.5 143l-41 117l151 47l45 -217q32 -12 109 -12q80 0 117 12l118 217l144 -47l-74 -117q-63 -100 -138.5 -145t-170.5 -45z" />
    <glyph glyph-name="uni04D7" unicode="&#x4d7;" 
d="M567 -25q-202 0 -309.5 114t-107.5 339q0 287 163 470t418 183q160 0 259.5 -75t99.5 -209q0 -35 -7 -66t-28 -66.5t-56 -64t-94 -57t-138 -48.5t-193.5 -33.5t-254.5 -17.5q-2 -20 -2 -47q0 -61 11 -107.5t38 -88.5t81.5 -65t134.5 -23q111 0 188.5 52t169.5 181
l113 -70q-93 -152 -208.5 -226.5t-277.5 -74.5zM717 948q-160 0 -260 -96.5t-123 -276.5l-2 -20q149 5 259.5 21.5t173 38.5t100.5 53.5t49.5 60t11.5 62.5q0 70 -50 113.5t-159 43.5zM756 1219q-105 0 -165.5 47t-94.5 143l-41 117l151 47l45 -217q35 -13 109 -13
q77 0 117 13l118 217l144 -47l-74 -117q-63 -100 -138.5 -145t-170.5 -45z" />
    <glyph glyph-name="uni04D8" unicode="&#x4d8;" 
d="M528 -25q-199 0 -300 124t-101 354q0 138 14 227l13 80h823l10 63q17 102 17 181q0 150 -61.5 227.5t-194.5 77.5q-132 0 -224 -73.5t-162 -213.5l-131 68q75 170 209 267t322 97q210 0 307.5 -126t97.5 -378q0 -78 -8 -161.5t-29 -180t-53 -185t-83 -171.5t-115 -143.5
t-154.5 -97t-196.5 -36.5zM543 121q166 0 268 125.5t139 349.5l4 25h-647q-16 -101 -16 -187q0 -313 252 -313z" />
    <glyph glyph-name="uni04D9" unicode="&#x4d9;" 
d="M498 -25q-160 0 -259.5 75t-99.5 210q0 51 14.5 93t63 90t129.5 81.5t225 58t338 29.5q2 20 2 47q0 61 -10.5 107.5t-38 89t-82 65.5t-133.5 23q-111 0 -188.5 -52t-169.5 -181l-113 69q93 152 208.5 226.5t277.5 74.5q202 0 309.5 -113.5t107.5 -338.5
q0 -287 -163 -470.5t-418 -183.5zM512 109q160 0 260 96.5t123 275.5l2 21q-149 -5 -259.5 -21.5t-173 -38.5t-100.5 -53.5t-49.5 -60t-11.5 -62.5q0 -70 50 -113.5t159 -43.5z" />
    <glyph glyph-name="uni04DC" unicode="&#x4dc;" 
d="M-68 0l263 561q35 75 74 113t89 47l2 10q-40 19 -59.5 54t-26.5 102l-63 543h154l73 -631h142l106 631h162l-107 -631h142l274 631h164l-240 -553q-30 -68 -63 -102.5t-80 -43.5l-2 -10q44 -15 67 -50.5t33 -107.5l84 -563h-164l-98 651h-141l-109 -651h-164l111 651
h-141l-305 -651h-177zM614 1616q-106 0 -106 74q0 23 8 51q12 44 38 66t83 22q106 0 106 -74q0 -23 -8 -51q-12 -44 -38 -66t-83 -22zM995 1616q-106 0 -106 74q0 23 8 51q12 44 38 66t83 22q106 0 106 -74q0 -23 -8 -51q-12 -44 -38 -66t-83 -22z" />
    <glyph glyph-name="uni04DD" unicode="&#x4dd;" 
d="M-57 0l22 135h162q79 107 119 348q24 150 24 279q0 99 -28 160h-131l22 135h49q111 0 166 -67t55 -234q0 -74 -6 -148h162l74 449h145l-73 -449h159q28 150 62.5 238t87.5 141q70 70 184 70h80l-23 -135h-145q-79 -107 -119 -349q-24 -150 -24 -278q0 -99 28 -160h148
l-23 -135h-65q-111 0 -166 67t-55 234q0 107 10 180h-162l-78 -481h-145l78 481h-158q-33 -180 -67 -268t-89 -143q-70 -70 -184 -70h-96zM553 1268q-107 0 -107 73q0 11 9 52q10 44 36 66t84 22q56 0 81.5 -20.5t25.5 -53.5q0 -15 -8 -51q-10 -44 -36.5 -66t-84.5 -22z
M934 1268q-107 0 -107 73q0 11 9 52q10 44 36 66t84 22q56 0 81.5 -20.5t25.5 -53.5q0 -15 -8 -51q-10 -44 -36.5 -66t-84.5 -22z" />
    <glyph glyph-name="uni04DE" unicode="&#x4de;" 
d="M510 -25q-154 0 -269.5 68t-181.5 184l127 101q67 -105 150.5 -156t195.5 -51q138 0 224 67.5t106 192.5l6 43q4 32 4 47q0 91 -63.5 143t-198.5 52h-186l25 143h186q136 0 209.5 61t95.5 181l4 22q4 24 4 47q0 90 -63 140.5t-180 50.5q-103 0 -180 -39t-148 -119
l-111 82q96 112 204 165.5t259 53.5q191 0 293 -83t102 -230q0 -165 -94 -269t-231 -124v-11q121 -15 186.5 -84t65.5 -182q0 -146 -72 -260t-195 -175t-274 -61zM586 1616q-56 0 -81.5 20.5t-25.5 53.5q0 23 8 51q12 44 38 66t83 22q56 0 81.5 -20.5t25.5 -53.5
q0 -23 -8 -51q-12 -44 -38 -66t-83 -22zM967 1616q-56 0 -81.5 20.5t-25.5 53.5q0 23 8 51q12 44 38 66t83 22q56 0 81.5 -20.5t25.5 -53.5q0 -19 -9 -51q-12 -44 -37.5 -66t-82.5 -22z" />
    <glyph glyph-name="uni04DF" unicode="&#x4df;" 
d="M539 -25q-147 0 -260 51.5t-183 147.5l119 94q126 -157 338 -157q125 0 194.5 47t83.5 127q7 42 7 57q0 135 -211 135h-197l23 137h190q96 0 166 41.5t82 108.5q4 20 4 43q0 63 -56 101t-161 38q-204 0 -359 -162l-88 101q95 95 204.5 145.5t250.5 50.5q173 0 276 -73
t103 -195q0 -92 -61 -157.5t-177 -94.5v-8q92 -21 138.5 -71t46.5 -140q0 -157 -129 -262t-344 -105zM545 1268q-107 0 -107 73q0 16 8 52q10 44 36.5 66t84.5 22q56 0 81.5 -20.5t25.5 -53.5q0 -15 -8 -51q-10 -44 -36.5 -66t-84.5 -22zM926 1268q-107 0 -107 73q0 16 8 52
q10 44 36.5 66t84.5 22q56 0 81.5 -20.5t25.5 -53.5q0 -15 -8 -51q-10 -44 -36.5 -66t-84.5 -22z" />
    <glyph glyph-name="uni04E2" unicode="&#x4e2;" 
d="M80 0l239 1430h168l-116 -699l-105 -436h13l245 360l527 775h161l-239 -1430h-168l117 698l104 437h-12l-232 -340l-540 -795h-162zM504 1655l22 137h568l-23 -137h-567z" />
    <glyph glyph-name="uni04E3" unicode="&#x4e3;" 
d="M776 0l41 250h-8q-62 -134 -146 -204.5t-206 -70.5q-133 0 -210 81t-77 225q0 67 12 137l107 639h160l-105 -625q-10 -61 -10 -113q0 -96 44.5 -149t131.5 -53q127 0 223 114q101 118 121 242l98 584h160l-176 -1057h-160zM451 1307l22 137h567l-22 -137h-567z" />
    <glyph glyph-name="uni04E4" unicode="&#x4e4;" 
d="M80 0l239 1430h168l-116 -699l-105 -436h13l245 360l527 775h161l-239 -1430h-168l117 698l104 437h-12l-232 -340l-540 -795h-162zM598 1616q-106 0 -106 74q0 23 8 51q12 44 38 66t83 22q106 0 106 -74q0 -23 -8 -51q-12 -44 -38 -66t-83 -22zM979 1616
q-56 0 -81.5 20.5t-25.5 53.5q0 20 9 51q12 44 37.5 66t82.5 22q56 0 81.5 -20.5t25.5 -53.5q0 -23 -8 -51q-12 -44 -38 -66t-83 -22z" />
    <glyph glyph-name="uni04E5" unicode="&#x4e5;" 
d="M776 0l41 250h-8q-62 -134 -146 -204.5t-206 -70.5q-133 0 -210 81t-77 225q0 67 12 137l107 639h160l-105 -625q-10 -61 -10 -113q0 -96 44.5 -149t131.5 -53q127 0 223 114q101 118 121 242l98 584h160l-176 -1057h-160zM545 1268q-107 0 -107 73q0 16 8 52
q10 44 36.5 66t84.5 22q56 0 81.5 -20.5t25.5 -53.5q0 -15 -8 -51q-10 -44 -36.5 -66t-84.5 -22zM926 1268q-107 0 -107 73q0 16 8 52q10 44 36.5 66t84.5 22q56 0 81.5 -20.5t25.5 -53.5q0 -15 -8 -51q-10 -44 -36.5 -66t-84.5 -22z" />
    <glyph glyph-name="uni04E6" unicode="&#x4e6;" 
d="M532 -25q-405 0 -405 486q0 82 8 168.5t28.5 185.5t52 188.5t82 173t114.5 144t154 97t196 36.5q405 0 405 -485q0 -82 -8 -168.5t-28.5 -185.5t-52 -188.5t-82 -173.5t-114.5 -144.5t-154 -97t-196 -36.5zM545 123q161 0 263 125t140 350l39 233q14 85 14 168
q0 151 -60 229.5t-191 78.5q-161 0 -263.5 -125.5t-140.5 -350.5l-39 -233q-14 -85 -14 -168q0 -151 60.5 -229t191.5 -78zM596 1616q-56 0 -81.5 20.5t-25.5 53.5q0 20 9 51q12 44 37.5 66t82.5 22q56 0 81.5 -20.5t25.5 -53.5q0 -23 -8 -51q-12 -44 -38 -66t-83 -22z
M977 1616q-56 0 -81.5 20.5t-25.5 53.5q0 20 9 51q12 44 37.5 66t82.5 22q56 0 81.5 -20.5t25.5 -53.5q0 -23 -8 -51q-12 -44 -38 -66t-83 -22z" />
    <glyph glyph-name="uni04E7" unicode="&#x4e7;" 
d="M543 -25q-198 0 -305 122t-107 325q0 148 43 272.5t117.5 208.5t176 131t216.5 47q200 0 307 -121t107 -325q0 -296 -158.5 -478t-396.5 -182zM551 115q146 0 236.5 90t117.5 250l21 123q10 61 10 104q0 130 -68 195t-190 65q-146 0 -236.5 -90t-117.5 -250l-21 -123
q-10 -61 -10 -104q0 -130 68 -195t190 -65zM551 1268q-107 0 -107 73q0 11 9 52q10 44 36 66t84 22q56 0 81.5 -20.5t25.5 -53.5q0 -15 -8 -51q-10 -44 -36.5 -66t-84.5 -22zM932 1268q-107 0 -107 73q0 11 9 52q10 44 36 66t84 22q56 0 81.5 -20.5t25.5 -53.5q0 -15 -8 -51
q-10 -44 -36.5 -66t-84.5 -22z" />
    <glyph glyph-name="uni04E8" unicode="&#x4e8;" 
d="M532 -25q-405 0 -405 486q0 82 8 168.5t28.5 185.5t52 188.5t82 173t114.5 144t154 97t196 36.5q405 0 405 -485q0 -82 -8 -168.5t-28.5 -185.5t-52 -188.5t-82 -173.5t-114.5 -144.5t-154 -97t-196 -36.5zM545 123q161 0 264 126t139 351l8 51h-641l-8 -53
q-14 -85 -14 -168q0 -151 60.5 -229t191.5 -78zM346 834l-6 -35h641l4 20q16 81 16 180q0 151 -60 229.5t-191 78.5q-161 0 -263 -123.5t-141 -349.5z" />
    <glyph glyph-name="uni04E9" unicode="&#x4e9;" 
d="M543 -25q-198 0 -305 122t-107 325q0 148 43 272.5t117.5 208.5t176 131t216.5 47q200 0 307 -121t107 -325q0 -296 -158.5 -478t-396.5 -182zM551 115q147 0 237 89t117 249l2 12h-606q-8 -52 -8 -90q0 -130 68 -195t190 -65zM678 942q-146 0 -236.5 -90t-117.5 -250
h606q6 52 6 80q0 130 -68 195t-190 65z" />
    <glyph glyph-name="uni04EE" unicode="&#x4ee;" 
d="M211 0l25 147h204l101 187l-287 1096h162l164 -633l63 -283h4l141 277l340 639h177l-689 -1262q-54 -101 -112 -134.5t-168 -33.5h-125zM520 1655l23 137h567l-23 -137h-567z" />
    <glyph glyph-name="uni04EF" unicode="&#x4ef;" 
d="M426 -434q-254 0 -371 145l111 107q87 -111 270 -111q149 0 234 77.5t112 246.5l41 250h-6q-62 -134 -147 -204.5t-207 -70.5q-133 0 -211 81t-78 224q0 48 12 131l103 615h160l-101 -600q-10 -59 -10 -107q0 -96 45 -149.5t133 -53.5q126 0 223 115q101 118 121 242
l92 553h160l-176 -1057q-74 -434 -510 -434zM461 1307l22 137h568l-23 -137h-567z" />
    <glyph glyph-name="uni04F0" unicode="&#x4f0;" 
d="M211 0l25 147h204l101 187l-287 1096h162l164 -633l63 -283h4l141 277l340 639h177l-689 -1262q-54 -101 -112 -134.5t-168 -33.5h-125zM614 1616q-106 0 -106 74q0 23 8 51q12 44 38 66t83 22q106 0 106 -74q0 -23 -8 -51q-12 -44 -38 -66t-83 -22zM995 1616
q-106 0 -106 74q0 23 8 51q12 44 38 66t83 22q106 0 106 -74q0 -23 -8 -51q-12 -44 -38 -66t-83 -22z" />
    <glyph glyph-name="uni04F1" unicode="&#x4f1;" 
d="M426 -434q-254 0 -371 145l111 107q87 -111 270 -111q149 0 234 77.5t112 246.5l41 250h-6q-62 -134 -147 -204.5t-207 -70.5q-133 0 -211 81t-78 224q0 48 12 131l103 615h160l-101 -600q-10 -59 -10 -107q0 -96 45 -149.5t133 -53.5q126 0 223 115q101 118 121 242
l92 553h160l-176 -1057q-74 -434 -510 -434zM555 1268q-106 0 -106 73q0 16 8 52q10 44 36.5 66t84.5 22q106 0 106 -74q0 -15 -8 -51q-10 -44 -36.5 -66t-84.5 -22zM936 1268q-107 0 -107 73q0 11 9 52q10 44 36 66t84 22q56 0 81.5 -20.5t25.5 -53.5q0 -15 -8 -51
q-10 -44 -36.5 -66t-84.5 -22z" />
    <glyph glyph-name="uni04F2" unicode="&#x4f2;" 
d="M211 0l25 147h204l101 187l-287 1096h162l164 -633l63 -283h4l141 277l340 639h177l-689 -1262q-54 -101 -112 -134.5t-168 -33.5h-125zM905 1866l-262 -318l-90 54l219 340zM1235 1866l-262 -318l-90 54l219 340z" />
    <glyph glyph-name="uni04F3" unicode="&#x4f3;" 
d="M426 -434q-254 0 -371 145l111 107q87 -111 270 -111q149 0 234 77.5t112 246.5l41 250h-6q-62 -134 -147 -204.5t-207 -70.5q-133 0 -211 81t-78 224q0 48 12 131l103 615h160l-101 -600q-10 -59 -10 -107q0 -96 45 -149.5t133 -53.5q126 0 223 115q101 118 121 242
l92 553h160l-176 -1057q-74 -434 -510 -434zM846 1518l-262 -318l-90 53l219 340zM1176 1518l-263 -318l-90 53l219 340z" />
    <glyph glyph-name="uni04F4" unicode="&#x4f4;" 
d="M788 0l95 563h-9q-136 -47 -282 -47q-207 0 -297 91.5t-90 271.5q0 79 18 198l60 353h168l-66 -386q-14 -86 -14 -155q0 -72 16.5 -118t51 -68.5t73.5 -30.5t98 -8q149 0 297 51l121 715h168l-240 -1430h-168zM588 1616q-56 0 -81.5 20.5t-25.5 53.5q0 23 8 51
q12 44 38 66t83 22q56 0 81.5 -20.5t25.5 -53.5q0 -23 -8 -51q-12 -44 -38 -66t-83 -22zM969 1616q-56 0 -81.5 20.5t-25.5 53.5q0 23 8 51q12 44 38 66t83 22q56 0 81.5 -20.5t25.5 -53.5q0 -23 -8 -51q-12 -44 -38 -66t-83 -22z" />
    <glyph glyph-name="uni04F5" unicode="&#x4f5;" 
d="M750 0l92 567h-11q-57 -106 -134.5 -157.5t-188.5 -51.5q-139 0 -226 71.5t-87 178.5q0 50 12 127l53 322h160l-55 -322q-9 -61 -9 -94q0 -67 49 -103t138 -36q139 0 228 81.5t106 184.5l49 289h159l-178 -1057h-157zM522 1268q-106 0 -106 73q0 16 8 52q10 44 36.5 66
t84.5 22q106 0 106 -74q0 -15 -8 -51q-10 -44 -36.5 -66t-84.5 -22zM903 1268q-106 0 -106 73q0 16 8 52q10 44 36.5 66t84.5 22q106 0 106 -74q0 -15 -8 -51q-10 -44 -36.5 -66t-84.5 -22z" />
    <glyph glyph-name="uni04F8" unicode="&#x4f8;" 
d="M207 141h143q110 0 181 58t90 166l8 49q8 52 8 118q0 90 -52.5 136.5t-142.5 46.5h-139zM23 0l239 1430h162l-96 -574h135q165 0 252.5 -90t87.5 -244q0 -252 -124.5 -387t-342.5 -135h-313zM870 0l240 1430h162l-240 -1430h-162zM616 1616q-106 0 -106 74q0 23 8 51
q12 44 38 66t83 22q106 0 106 -74q0 -23 -8 -51q-12 -44 -38 -66t-83 -22zM997 1616q-106 0 -106 74q0 23 8 51q12 44 38 66t83 22q106 0 106 -74q0 -23 -8 -51q-12 -44 -38 -66t-83 -22z" />
    <glyph glyph-name="uni04F9" unicode="&#x4f9;" 
d="M389 -25q-145 0 -226 84.5t-81 225.5q0 64 16 157l103 615h147l-78 -471h9q98 145 249 145q115 0 184.5 -78.5t69.5 -201.5q0 -218 -107 -347t-286 -129zM393 96q87 0 143 59t80 193q9 56 9 94q0 82 -39.5 125t-110.5 43q-102 0 -162 -64.5t-75 -162.5q-9 -56 -9 -98
q0 -86 45 -137.5t119 -51.5zM879 0l176 1057h147l-176 -1057h-147zM551 1268q-107 0 -107 73q0 11 9 52q10 44 36 66t84 22q56 0 81.5 -20.5t25.5 -53.5q0 -15 -8 -51q-10 -44 -36.5 -66t-84.5 -22zM932 1268q-107 0 -107 73q0 11 9 52q10 44 36 66t84 22q56 0 81.5 -20.5
t25.5 -53.5q0 -15 -8 -51q-10 -44 -36.5 -66t-84.5 -22z" />
    <glyph glyph-name="uni0E3F" unicode="&#xe3f;" 
d="M586 0l-39 -231h-123l39 231h-367l240 1430h364l39 231h123l-39 -231q168 0 259.5 -88t91.5 -238q0 -139 -80 -233.5t-213 -127.5v-6q213 -60 213 -288q0 -89 -33.5 -170.5t-93.5 -143.5t-150.5 -98.5t-198.5 -36.5h-32zM397 807h197l78 477h-197zM1001 1128
q0 79 -54.5 117.5t-153.5 38.5l-74 -477q115 5 183 53.5t83 140.5l10 62q6 38 6 65zM287 145h198l86 527h-196zM922 502q0 79 -60 124.5t-168 45.5l-86 -527q258 0 295 220l10 61q9 56 9 76z" />
    <glyph glyph-name="Wgrave" unicode="&#x1e80;" 
d="M342 0h-248l125 1430h150l-76 -805l-43 -457h16l334 889h193l43 -889h16l104 442l195 820h154l-351 -1430h-247l-31 862h-17zM752 1546l-152 334l150 64l106 -357z" />
    <glyph glyph-name="wgrave" unicode="&#x1e81;" 
d="M272 -20q-90 0 -137 55t-47 153q0 58 12 138l121 731h144l-115 -703q-12 -70 -12 -127q0 -116 92 -116q69 0 131 82q42 58 67 188l117 676h139l-114 -703q-11 -70 -11 -125q0 -63 21.5 -90.5t69.5 -27.5q74 0 137 98t97 244.5t34 298.5q0 174 -47 274l135 41
q55 -120 55 -307q0 -186 -42 -352.5t-118 -272.5q-112 -155 -284 -155q-187 0 -174 215h-11q-47 -107 -107.5 -161t-152.5 -54zM721 1198l-154 342l152 55l106 -356z" />
    <glyph glyph-name="Wacute" unicode="&#x1e82;" 
d="M342 0h-248l125 1430h150l-76 -805l-43 -457h16l334 889h193l43 -889h16l104 442l195 820h154l-351 -1430h-247l-31 862h-17zM1049 1864l-265 -318l-96 58l221 340z" />
    <glyph glyph-name="wacute" unicode="&#x1e83;" 
d="M272 -20q-90 0 -137 55t-47 153q0 58 12 138l121 731h144l-115 -703q-12 -70 -12 -127q0 -116 92 -116q69 0 131 82q42 58 67 188l117 676h139l-114 -703q-11 -70 -11 -125q0 -63 21.5 -90.5t69.5 -27.5q74 0 137 98t97 244.5t34 298.5q0 174 -47 274l135 41
q55 -120 55 -307q0 -186 -42 -352.5t-118 -272.5q-112 -155 -284 -155q-187 0 -174 215h-11q-47 -107 -107.5 -161t-152.5 -54zM1018 1516l-264 -318l-97 57l222 340z" />
    <glyph glyph-name="Wdieresis" unicode="&#x1e84;" 
d="M342 0h-248l125 1430h150l-76 -805l-43 -457h16l334 889h193l43 -889h16l104 442l195 820h154l-351 -1430h-247l-31 862h-17zM592 1616q-56 0 -81.5 20.5t-25.5 53.5q0 20 9 51q12 44 37.5 66t82.5 22q56 0 81.5 -20.5t25.5 -53.5q0 -23 -8 -51q-12 -44 -38 -66t-83 -22z
M973 1616q-56 0 -81.5 20.5t-25.5 53.5q0 23 8 51q12 44 38 66t83 22q56 0 81.5 -20.5t25.5 -53.5q0 -23 -8 -51q-12 -44 -38 -66t-83 -22z" />
    <glyph glyph-name="wdieresis" unicode="&#x1e85;" 
d="M272 -20q-90 0 -137 55t-47 153q0 58 12 138l121 731h144l-115 -703q-12 -70 -12 -127q0 -116 92 -116q69 0 131 82q42 58 67 188l117 676h139l-114 -703q-11 -70 -11 -125q0 -63 21.5 -90.5t69.5 -27.5q74 0 137 98t97 244.5t34 298.5q0 174 -47 274l135 41
q55 -120 55 -307q0 -186 -42 -352.5t-118 -272.5q-112 -155 -284 -155q-187 0 -174 215h-11q-47 -107 -107.5 -161t-152.5 -54zM561 1268q-106 0 -106 73q0 16 8 52q10 44 36.5 66t84.5 22q106 0 106 -74q0 -15 -8 -51q-10 -44 -36.5 -66t-84.5 -22zM942 1268
q-106 0 -106 73q0 16 8 52q10 44 36.5 66t84.5 22q106 0 106 -74q0 -15 -8 -51q-10 -44 -36.5 -66t-84.5 -22z" />
    <glyph glyph-name="uni1E9E" unicode="&#x1e9e;" 
d="M43 0l240 1430h966l-28 -168l-420 -437v-8q174 -6 270 -94t96 -260q0 -95 -30.5 -181.5t-87.5 -155.5t-149.5 -110t-207.5 -41q-126 0 -220 48.5t-146 140.5l131 86q76 -131 235 -131q113 0 189.5 66t95.5 177q16 98 16 127q0 89 -52.5 140t-154.5 51h-192l27 158
l426 444h-621l-215 -1282h-168z" />
    <glyph glyph-name="uni1EA0" unicode="&#x1ea0;" 
d="M1081 0h-176l-51 408h-504l-188 -408h-180l675 1430h226zM838 557l-88 700h-19l-317 -700h424zM489 -350q-55 0 -80.5 21t-25.5 53q0 25 8 53q12 43 38 65.5t83 22.5q55 0 80.5 -21t25.5 -53q0 -25 -8 -53q-12 -43 -38 -65.5t-83 -22.5z" />
    <glyph glyph-name="uni1EA1" unicode="&#x1ea1;" 
d="M944 0h-160l41 250h-6q-66 -134 -154.5 -204.5t-220.5 -70.5q-160 0 -244.5 104t-84.5 306q0 74 11.5 150t35 155.5t63.5 148.5t93.5 124t129.5 86.5t166 31.5q117 0 196.5 -53.5t113.5 -155.5h6l31 185h159zM500 117q143 0 248 116q93 104 116 242l39 234
q18 107 -50.5 169t-190.5 62q-148 0 -237.5 -89.5t-115.5 -242.5l-24 -147q-9 -55 -9 -92q0 -120 57.5 -186t166.5 -66zM449 -350q-55 0 -81 21t-26 53q0 25 8 53q12 43 38 65.5t83 22.5q55 0 81 -21t26 -53q0 -21 -9 -53q-12 -44 -37.5 -66t-82.5 -22z" />
    <glyph glyph-name="uni1EA2" unicode="&#x1ea2;" 
d="M1081 0h-176l-51 408h-504l-188 -408h-180l675 1430h226zM838 557l-88 700h-19l-317 -700h424zM659 1790l21 125h209q69 0 103 -29.5t34 -77.5q0 -83 -106 -192l-82 -86l-88 55l145 205h-236z" />
    <glyph glyph-name="uni1EA3" unicode="&#x1ea3;" 
d="M944 0h-160l41 250h-6q-66 -134 -154.5 -204.5t-220.5 -70.5q-160 0 -244.5 104t-84.5 306q0 74 11.5 150t35 155.5t63.5 148.5t93.5 124t129.5 86.5t166 31.5q117 0 196.5 -53.5t113.5 -155.5h6l31 185h159zM500 117q143 0 248 116q93 104 116 242l39 234
q18 107 -50.5 169t-190.5 62q-148 0 -237.5 -89.5t-115.5 -242.5l-24 -147q-9 -55 -9 -92q0 -120 57.5 -186t166.5 -66zM549 1442l20 125h209q69 0 103 -29.5t34 -77.5q0 -83 -106 -192l-82 -86l-88 55l145 205h-235z" />
    <glyph glyph-name="uni1EA4" unicode="&#x1ea4;" 
d="M1081 0h-176l-51 408h-504l-188 -408h-180l675 1430h226zM838 557l-88 700h-19l-317 -700h424zM1397 2116l-264 -318l-91 53l222 340zM743 1894h201l178 -301l-94 -55l-197 240l-280 -240l-80 68z" />
    <glyph glyph-name="uni1EA5" unicode="&#x1ea5;" 
d="M944 0h-160l41 250h-6q-66 -134 -154.5 -204.5t-220.5 -70.5q-160 0 -244.5 104t-84.5 306q0 74 11.5 150t35 155.5t63.5 148.5t93.5 124t129.5 86.5t166 31.5q117 0 196.5 -53.5t113.5 -155.5h6l31 185h159zM500 117q143 0 248 116q93 104 116 242l39 234
q18 107 -50.5 169t-190.5 62q-148 0 -237.5 -89.5t-115.5 -242.5l-24 -147q-9 -55 -9 -92q0 -120 57.5 -186t166.5 -66zM1286 1767l-264 -317l-90 53l221 340zM633 1546h201l178 -301l-94 -55l-197 240l-281 -240l-80 67z" />
    <glyph glyph-name="uni1EA6" unicode="&#x1ea6;" 
d="M1081 0h-176l-51 408h-504l-188 -408h-180l675 1430h226zM838 557l-88 700h-19l-317 -700h424zM526 1808l-153 340l145 54l107 -357zM743 1894h201l178 -301l-94 -55l-197 240l-280 -240l-80 68z" />
    <glyph glyph-name="uni1EA7" unicode="&#x1ea7;" 
d="M944 0h-160l41 250h-6q-66 -134 -154.5 -204.5t-220.5 -70.5q-160 0 -244.5 104t-84.5 306q0 74 11.5 150t35 155.5t63.5 148.5t93.5 124t129.5 86.5t166 31.5q117 0 196.5 -53.5t113.5 -155.5h6l31 185h159zM500 117q143 0 248 116q93 104 116 242l39 234
q18 107 -50.5 169t-190.5 62q-148 0 -237.5 -89.5t-115.5 -242.5l-24 -147q-9 -55 -9 -92q0 -120 57.5 -186t166.5 -66zM410 1460l-154 340l145 53l107 -356zM633 1546h201l178 -301l-94 -55l-197 240l-281 -240l-80 67z" />
    <glyph glyph-name="uni1EA8" unicode="&#x1ea8;" 
d="M1081 0h-176l-51 408h-504l-188 -408h-180l675 1430h226zM838 557l-88 700h-19l-317 -700h424zM961 2056l22 125h207q68 0 102.5 -29t34.5 -75q0 -66 -76 -152l-114 -129l-86 55l145 205h-235zM745 1894h201l178 -301l-94 -55l-196 240l-281 -240l-80 68z" />
    <glyph glyph-name="uni1EA9" unicode="&#x1ea9;" 
d="M944 0h-160l41 250h-6q-66 -134 -154.5 -204.5t-220.5 -70.5q-160 0 -244.5 104t-84.5 306q0 74 11.5 150t35 155.5t63.5 148.5t93.5 124t129.5 86.5t166 31.5q117 0 196.5 -53.5t113.5 -155.5h6l31 185h159zM500 117q143 0 248 116q93 104 116 242l39 234
q18 107 -50.5 169t-190.5 62q-148 0 -237.5 -89.5t-115.5 -242.5l-24 -147q-9 -55 -9 -92q0 -120 57.5 -186t166.5 -66zM848 1708l22 125h207q68 0 102.5 -29t34.5 -75q0 -67 -75 -152l-115 -129l-86 55l145 205h-235zM633 1546h201l178 -301l-94 -55l-197 240l-281 -240
l-80 67z" />
    <glyph glyph-name="uni1EAA" unicode="&#x1eaa;" 
d="M1081 0h-176l-51 408h-504l-188 -408h-180l675 1430h226zM838 557l-88 700h-19l-317 -700h424zM739 2179q31 0 64 -11t45.5 -18.5t46.5 -27.5q76 -47 131 -47q54 0 129 59l57 -84q-90 -106 -202 -106q-31 0 -64 11t-45.5 18.5t-46.5 27.5q-76 47 -131 47q-54 0 -129 -59
l-57 84q90 106 202 106zM743 1874h203l180 -285l-96 -51l-201 227l-276 -227l-80 72z" />
    <glyph glyph-name="uni1EAB" unicode="&#x1eab;" 
d="M944 0h-160l41 250h-6q-66 -134 -154.5 -204.5t-220.5 -70.5q-160 0 -244.5 104t-84.5 306q0 74 11.5 150t35 155.5t63.5 148.5t93.5 124t129.5 86.5t166 31.5q117 0 196.5 -53.5t113.5 -155.5h6l31 185h159zM500 117q143 0 248 116q93 104 116 242l39 234
q18 107 -50.5 169t-190.5 62q-148 0 -237.5 -89.5t-115.5 -242.5l-24 -147q-9 -55 -9 -92q0 -120 57.5 -186t166.5 -66zM631 1831q10 0 20 -1t18 -2.5t17.5 -4.5t16 -5t16 -6.5t14.5 -6.5t14.5 -7.5t13 -8t13 -8t12.5 -7.5q78 -48 132 -48q53 0 129 60l57 -84
q-91 -107 -203 -107q-12 0 -25 2t-22 3.5t-22 6.5t-19 7t-19.5 9.5t-16 9.5t-17 11t-15.5 9q-76 47 -131 47q-53 0 -129 -60l-57 84q91 107 203 107zM635 1526h203l180 -285l-96 -51l-201 227l-277 -227l-79 72z" />
    <glyph glyph-name="uni1EAC" unicode="&#x1eac;" 
d="M1081 0h-176l-51 408h-504l-188 -408h-180l675 1430h226zM838 557l-88 700h-19l-317 -700h424zM748 1915h200l178 -301l-94 -55l-196 239l-281 -239l-80 67zM489 -350q-55 0 -80.5 21t-25.5 53q0 25 8 53q12 43 38 65.5t83 22.5q55 0 80.5 -21t25.5 -53q0 -25 -8 -53
q-12 -43 -38 -65.5t-83 -22.5z" />
    <glyph glyph-name="uni1EAD" unicode="&#x1ead;" 
d="M944 0h-160l41 250h-6q-66 -134 -154.5 -204.5t-220.5 -70.5q-160 0 -244.5 104t-84.5 306q0 74 11.5 150t35 155.5t63.5 148.5t93.5 124t129.5 86.5t166 31.5q117 0 196.5 -53.5t113.5 -155.5h6l31 185h159zM500 117q143 0 248 116q93 104 116 242l39 234
q18 107 -50.5 169t-190.5 62q-148 0 -237.5 -89.5t-115.5 -242.5l-24 -147q-9 -55 -9 -92q0 -120 57.5 -186t166.5 -66zM637 1567h201l178 -301l-94 -56l-197 240l-281 -240l-79 68zM449 -350q-55 0 -81 21t-26 53q0 25 8 53q12 43 38 65.5t83 22.5q55 0 81 -21t26 -53
q0 -21 -9 -53q-12 -44 -37.5 -66t-82.5 -22z" />
    <glyph glyph-name="uni1EAE" unicode="&#x1eae;" 
d="M1081 0h-176l-51 408h-504l-188 -408h-180l675 1430h226zM838 557l-88 700h-19l-317 -700h424zM788 1546q-63 0 -113 19t-79.5 46.5t-51 68.5t-31 75t-15.5 76l92 47l33 -66q39 -77 75.5 -108t100.5 -31q61 0 110 30.5t113 108.5l53 66l101 -47q-139 -285 -388 -285z
M1092 2116l-265 -318l-90 53l221 340z" />
    <glyph glyph-name="uni1EAF" unicode="&#x1eaf;" 
d="M944 0h-160l41 250h-6q-66 -134 -154.5 -204.5t-220.5 -70.5q-160 0 -244.5 104t-84.5 306q0 74 11.5 150t35 155.5t63.5 148.5t93.5 124t129.5 86.5t166 31.5q117 0 196.5 -53.5t113.5 -155.5h6l31 185h159zM500 117q143 0 248 116q93 104 116 242l39 234
q18 107 -50.5 169t-190.5 62q-148 0 -237.5 -89.5t-115.5 -242.5l-24 -147q-9 -55 -9 -92q0 -120 57.5 -186t166.5 -66zM678 1198q-63 0 -113 19t-80 46.5t-51.5 68.5t-31 75t-15.5 76l92 47l33 -66q39 -77 75.5 -108t100.5 -31q61 0 110 30.5t113 108.5l54 66l100 -47
q-139 -285 -387 -285zM981 1767l-264 -317l-90 53l221 340z" />
    <glyph glyph-name="uni1EB0" unicode="&#x1eb0;" 
d="M1081 0h-176l-51 408h-504l-188 -408h-180l675 1430h226zM838 557l-88 700h-19l-317 -700h424zM788 1546q-63 0 -113 19t-79.5 46.5t-51 68.5t-31 75t-15.5 76l92 47l33 -66q39 -77 75.5 -108t100.5 -31q61 0 110 30.5t113 108.5l53 66l101 -47q-139 -285 -388 -285z
M784 1798l-153 340l145 53l107 -356z" />
    <glyph glyph-name="uni1EB1" unicode="&#x1eb1;" 
d="M944 0h-160l41 250h-6q-66 -134 -154.5 -204.5t-220.5 -70.5q-160 0 -244.5 104t-84.5 306q0 74 11.5 150t35 155.5t63.5 148.5t93.5 124t129.5 86.5t166 31.5q117 0 196.5 -53.5t113.5 -155.5h6l31 185h159zM500 117q143 0 248 116q93 104 116 242l39 234
q18 107 -50.5 169t-190.5 62q-148 0 -237.5 -89.5t-115.5 -242.5l-24 -147q-9 -55 -9 -92q0 -120 57.5 -186t166.5 -66zM678 1198q-63 0 -113 19t-80 46.5t-51.5 68.5t-31 75t-15.5 76l92 47l33 -66q39 -77 75.5 -108t100.5 -31q61 0 110 30.5t113 108.5l54 66l100 -47
q-139 -285 -387 -285zM674 1450l-154 340l146 53l106 -356z" />
    <glyph glyph-name="uni1EB2" unicode="&#x1eb2;" 
d="M1081 0h-176l-51 408h-504l-188 -408h-180l675 1430h226zM838 557l-88 700h-19l-317 -700h424zM662 2046l22 125h182q68 0 103 -29.5t35 -75.5q0 -65 -76 -151l-115 -129l-86 55l145 205h-210zM788 1546q-63 0 -113 19t-79.5 46.5t-51 68.5t-31 75t-15.5 76l92 47l33 -66
q39 -77 75.5 -108t100.5 -31q61 0 110 30.5t113 108.5l53 66l101 -47q-139 -285 -388 -285z" />
    <glyph glyph-name="uni1EB3" unicode="&#x1eb3;" 
d="M944 0h-160l41 250h-6q-66 -134 -154.5 -204.5t-220.5 -70.5q-160 0 -244.5 104t-84.5 306q0 74 11.5 150t35 155.5t63.5 148.5t93.5 124t129.5 86.5t166 31.5q117 0 196.5 -53.5t113.5 -155.5h6l31 185h159zM500 117q143 0 248 116q93 104 116 242l39 234
q18 107 -50.5 169t-190.5 62q-148 0 -237.5 -89.5t-115.5 -242.5l-24 -147q-9 -55 -9 -92q0 -120 57.5 -186t166.5 -66zM678 1198q-63 0 -113 19t-80 46.5t-51.5 68.5t-31 75t-15.5 76l92 47l33 -66q39 -77 75.5 -108t100.5 -31q61 0 110 30.5t113 108.5l54 66l100 -47
q-139 -285 -387 -285zM551 1698l22 125h183q68 0 102.5 -29.5t34.5 -75.5q0 -65 -76 -151l-115 -129l-86 55l146 205h-211z" />
    <glyph glyph-name="uni1EB4" unicode="&#x1eb4;" 
d="M1081 0h-176l-51 408h-504l-188 -408h-180l675 1430h226zM838 557l-88 700h-19l-317 -700h424zM983 1939q-19 0 -37 2.5t-36 8.5t-29 10.5t-30 13.5t-24 11q-87 40 -131 40q-54 0 -125 -55l-57 72q91 106 205 106q19 0 37 -2.5t36 -8.5t28 -10t29.5 -13t24.5 -11
q90 -41 132 -41q52 0 124 56l58 -72q-91 -107 -205 -107zM788 1546q-63 0 -113 19t-79.5 46.5t-51 68.5t-31 75t-15.5 76l92 47l33 -66q39 -77 75.5 -108t100.5 -31q61 0 110 30.5t113 108.5l53 66l101 -47q-139 -285 -388 -285z" />
    <glyph glyph-name="uni1EB5" unicode="&#x1eb5;" 
d="M944 0h-160l41 250h-6q-66 -134 -154.5 -204.5t-220.5 -70.5q-160 0 -244.5 104t-84.5 306q0 74 11.5 150t35 155.5t63.5 148.5t93.5 124t129.5 86.5t166 31.5q117 0 196.5 -53.5t113.5 -155.5h6l31 185h159zM500 117q143 0 248 116q93 104 116 242l39 234
q18 107 -50.5 169t-190.5 62q-148 0 -237.5 -89.5t-115.5 -242.5l-24 -147q-9 -55 -9 -92q0 -120 57.5 -186t166.5 -66zM678 1198q-63 0 -113 19t-80 46.5t-51.5 68.5t-31 75t-15.5 76l92 47l33 -66q39 -77 75.5 -108t100.5 -31q61 0 110 30.5t113 108.5l54 66l100 -47
q-139 -285 -387 -285zM872 1591q-16 0 -33 2.5t-28 5t-28 9t-22.5 8.5t-24 10.5t-19.5 9.5q-83 41 -131 41q-54 0 -125 -55l-58 72q91 106 205 106q14 0 27.5 -1.5t27 -4.5t22.5 -5.5t23 -8.5t19.5 -8t19.5 -9t17 -8q83 -41 131 -41q54 0 125 55l57 -71q-91 -107 -205 -107z
" />
    <glyph glyph-name="uni1EB6" unicode="&#x1eb6;" 
d="M1081 0h-176l-51 408h-504l-188 -408h-180l675 1430h226zM838 557l-88 700h-19l-317 -700h424zM797 1567q-245 0 -289 309l98 43l31 -70q38 -87 69 -120t95 -33q42 0 75 17.5t57.5 44t76.5 91.5l55 70l102 -43q-22 -48 -40.5 -82t-53 -80.5t-70.5 -75.5t-90 -50t-116 -21
zM489 -350q-55 0 -80.5 21t-25.5 53q0 25 8 53q12 43 38 65.5t83 22.5q55 0 80.5 -21t25.5 -53q0 -25 -8 -53q-12 -43 -38 -65.5t-83 -22.5z" />
    <glyph glyph-name="uni1EB7" unicode="&#x1eb7;" 
d="M944 0h-160l41 250h-6q-66 -134 -154.5 -204.5t-220.5 -70.5q-160 0 -244.5 104t-84.5 306q0 74 11.5 150t35 155.5t63.5 148.5t93.5 124t129.5 86.5t166 31.5q117 0 196.5 -53.5t113.5 -155.5h6l31 185h159zM500 117q143 0 248 116q93 104 116 242l39 234
q18 107 -50.5 169t-190.5 62q-148 0 -237.5 -89.5t-115.5 -242.5l-24 -147q-9 -55 -9 -92q0 -120 57.5 -186t166.5 -66zM686 1219q-245 0 -289 309l99 43l30 -70q38 -87 69 -120t95 -33q42 0 75 17.5t57.5 44t76.5 91.5l55 70l103 -43q-18 -39 -33.5 -68t-40.5 -68
t-53.5 -67t-64.5 -53.5t-81.5 -39t-97.5 -13.5zM449 -350q-55 0 -81 21t-26 53q0 25 8 53q12 43 38 65.5t83 22.5q55 0 81 -21t26 -53q0 -21 -9 -53q-12 -44 -37.5 -66t-82.5 -22z" />
    <glyph glyph-name="uni1EB8" unicode="&#x1eb8;" 
d="M977 0h-881l240 1430h876l-24 -148h-709l-82 -483h686l-24 -148h-686l-84 -504h712zM520 -350q-55 0 -80.5 21t-25.5 53q0 25 8 53q12 43 38 65.5t83 22.5q55 0 80.5 -21t25.5 -53q0 -25 -8 -53q-12 -43 -38 -65.5t-83 -22.5z" />
    <glyph glyph-name="uni1EB9" unicode="&#x1eb9;" 
d="M567 -25q-202 0 -309.5 114t-107.5 339q0 287 163 470t418 183q160 0 259.5 -75t99.5 -209q0 -35 -7 -66t-28 -66.5t-56 -64t-94 -57t-138 -48.5t-193.5 -33.5t-254.5 -17.5q-2 -20 -2 -47q0 -61 11 -107.5t38 -88.5t81.5 -65t134.5 -23q111 0 188.5 52t169.5 181
l113 -70q-93 -152 -208.5 -226.5t-277.5 -74.5zM717 948q-160 0 -260 -96.5t-123 -276.5l-2 -20q149 5 259.5 21.5t173 38.5t100.5 53.5t49.5 60t11.5 62.5q0 70 -50 113.5t-159 43.5zM524 -350q-55 0 -80.5 21t-25.5 53q0 25 8 53q12 43 38 65.5t83 22.5q55 0 80.5 -21
t25.5 -53q0 -25 -8 -53q-12 -43 -38 -65.5t-83 -22.5z" />
    <glyph glyph-name="uni1EBA" unicode="&#x1eba;" 
d="M977 0h-881l240 1430h876l-24 -148h-709l-82 -483h686l-24 -148h-686l-84 -504h712zM670 1790l20 125h209q69 0 103 -29.5t34 -77.5q0 -83 -106 -192l-82 -86l-88 55l145 205h-235z" />
    <glyph glyph-name="uni1EBB" unicode="&#x1ebb;" 
d="M567 -25q-202 0 -309.5 114t-107.5 339q0 287 163 470t418 183q160 0 259.5 -75t99.5 -209q0 -35 -7 -66t-28 -66.5t-56 -64t-94 -57t-138 -48.5t-193.5 -33.5t-254.5 -17.5q-2 -20 -2 -47q0 -61 11 -107.5t38 -88.5t81.5 -65t134.5 -23q111 0 188.5 52t169.5 181
l113 -70q-93 -152 -208.5 -226.5t-277.5 -74.5zM717 948q-160 0 -260 -96.5t-123 -276.5l-2 -20q149 5 259.5 21.5t173 38.5t100.5 53.5t49.5 60t11.5 62.5q0 70 -50 113.5t-159 43.5zM618 1442l21 125h209q69 0 103 -29.5t34 -77.5q0 -83 -106 -192l-82 -86l-88 55l145 205
h-236z" />
    <glyph glyph-name="uni1EBC" unicode="&#x1ebc;" 
d="M977 0h-881l240 1430h876l-24 -148h-709l-82 -483h686l-24 -148h-686l-84 -504h712zM963 1602q-31 0 -64 11t-45.5 18.5t-46.5 27.5q-76 47 -131 47q-54 0 -129 -59l-58 84q90 106 203 106q31 0 64 -11t45.5 -18.5t46.5 -27.5q76 -47 131 -47q54 0 129 59l57 -84
q-90 -106 -202 -106z" />
    <glyph glyph-name="uni1EBD" unicode="&#x1ebd;" 
d="M567 -25q-202 0 -309.5 114t-107.5 339q0 287 163 470t418 183q160 0 259.5 -75t99.5 -209q0 -35 -7 -66t-28 -66.5t-56 -64t-94 -57t-138 -48.5t-193.5 -33.5t-254.5 -17.5q-2 -20 -2 -47q0 -61 11 -107.5t38 -88.5t81.5 -65t134.5 -23q111 0 188.5 52t169.5 181
l113 -70q-93 -152 -208.5 -226.5t-277.5 -74.5zM717 948q-160 0 -260 -96.5t-123 -276.5l-2 -20q149 5 259.5 21.5t173 38.5t100.5 53.5t49.5 60t11.5 62.5q0 70 -50 113.5t-159 43.5zM911 1253q-12 0 -24.5 1.5t-22 3.5t-22 7t-19 7.5t-18.5 9.5t-16.5 9.5t-17 10
t-15.5 9.5q-76 47 -131 47q-53 0 -129 -60l-58 84q91 107 203 107q31 0 64 -11t45.5 -18.5t46.5 -27.5q78 -48 131 -48t129 60l57 -84q-91 -107 -203 -107z" />
    <glyph glyph-name="uni1EBE" unicode="&#x1ebe;" 
d="M977 0h-881l240 1430h876l-24 -148h-709l-82 -483h686l-24 -148h-686l-84 -504h712zM1407 2116l-264 -318l-90 53l221 340zM754 1894h200l179 -301l-95 -55l-196 240l-281 -240l-80 68z" />
    <glyph glyph-name="uni1EBF" unicode="&#x1ebf;" 
d="M567 -25q-202 0 -309.5 114t-107.5 339q0 287 163 470t418 183q160 0 259.5 -75t99.5 -209q0 -35 -7 -66t-28 -66.5t-56 -64t-94 -57t-138 -48.5t-193.5 -33.5t-254.5 -17.5q-2 -20 -2 -47q0 -61 11 -107.5t38 -88.5t81.5 -65t134.5 -23q111 0 188.5 52t169.5 181
l113 -70q-93 -152 -208.5 -226.5t-277.5 -74.5zM717 948q-160 0 -260 -96.5t-123 -276.5l-2 -20q149 5 259.5 21.5t173 38.5t100.5 53.5t49.5 60t11.5 62.5q0 70 -50 113.5t-159 43.5zM1356 1767l-264 -317l-91 53l222 340zM702 1546h201l178 -301l-94 -55l-196 240
l-281 -240l-80 67z" />
    <glyph glyph-name="uni1EC0" unicode="&#x1ec0;" 
d="M977 0h-881l240 1430h876l-24 -148h-709l-82 -483h686l-24 -148h-686l-84 -504h712zM537 1808l-154 340l145 54l107 -357zM754 1894h200l179 -301l-95 -55l-196 240l-281 -240l-80 68z" />
    <glyph glyph-name="uni1EC1" unicode="&#x1ec1;" 
d="M567 -25q-202 0 -309.5 114t-107.5 339q0 287 163 470t418 183q160 0 259.5 -75t99.5 -209q0 -35 -7 -66t-28 -66.5t-56 -64t-94 -57t-138 -48.5t-193.5 -33.5t-254.5 -17.5q-2 -20 -2 -47q0 -61 11 -107.5t38 -88.5t81.5 -65t134.5 -23q111 0 188.5 52t169.5 181
l113 -70q-93 -152 -208.5 -226.5t-277.5 -74.5zM717 948q-160 0 -260 -96.5t-123 -276.5l-2 -20q149 5 259.5 21.5t173 38.5t100.5 53.5t49.5 60t11.5 62.5q0 70 -50 113.5t-159 43.5zM479 1460l-153 340l145 53l107 -356zM702 1546h201l178 -301l-94 -55l-196 240
l-281 -240l-80 67z" />
    <glyph glyph-name="uni1EC2" unicode="&#x1ec2;" 
d="M977 0h-881l240 1430h876l-24 -148h-709l-82 -483h686l-24 -148h-686l-84 -504h712zM971 2056l22 125h207q68 0 102.5 -29t34.5 -75q0 -67 -75 -152l-115 -129l-86 55l145 205h-235zM756 1894h200l179 -301l-95 -55l-196 240l-281 -240l-80 68z" />
    </font>
</defs>
</svg>
