<?xml version="1.0" standalone="no"?>
<!DOCTYPE svg PUBLIC "-//W3C//DTD SVG 1.1//EN" "http://www.w3.org/Graphics/SVG/1.1/DTD/svg11.dtd" >
<svg xmlns="http://www.w3.org/2000/svg" xmlns:xlink="http://www.w3.org/1999/xlink" version="1.1">
<metadata>
Created by FontForge 20170731 at Tue Dec 29 01:52:09 2020
 By Aleksey,,,
Copyright 2017 IBM Corp. All rights reserved.
</metadata>
<defs>
<font id="IBMPlexMono-MediumItalic" horiz-adv-x="1228" >
  <font-face 
    font-family="IBM Plex Mono Medium"
    font-weight="500"
    font-style="italic"
    font-stretch="normal"
    units-per-em="2048"
    panose-1="2 11 6 9 5 2 3 0 2 3"
    ascent="1597"
    descent="-451"
    x-height="1057"
    cap-height="1430"
    bbox="-453 -526 1477 2327"
    underline-thickness="157"
    underline-position="-486"
    slope="-9.5"
    unicode-range="U+0020-FB02"
  />
<missing-glyph 
d="M66 0v1597h1097v-1597h-1097zM223 158h783v1282h-783v-1282z" />
    <glyph glyph-name=".notdef" 
d="M66 0v1597h1097v-1597h-1097zM223 158h783v1282h-783v-1282z" />
    <glyph glyph-name=".null" horiz-adv-x="0" 
 />
    <glyph glyph-name="nonmarkingreturn" horiz-adv-x="682" 
 />
    <glyph glyph-name="space" unicode=" " 
 />
    <glyph glyph-name="exclam" unicode="!" 
d="M645 485h-82l10 529l70 416h240l-70 -416zM526 -20q-79 0 -116 29t-37 77q0 21 10 82q22 133 186 133q79 0 116.5 -29t37.5 -77q0 -21 -10 -82q-22 -133 -187 -133z" />
    <glyph glyph-name="quotedbl" unicode="&#x22;" 
d="M580 907h-201l100 609h201zM979 907h-201l101 609h200z" />
    <glyph glyph-name="numbersign" unicode="#" 
d="M117 0l145 426h-248l29 168h276l82 242h-247l28 168h277l147 426h185l-488 -1430h-186zM502 0l489 1430h185l-146 -426h248l-29 -168h-276l-82 -242h248l-29 -168h-276l-146 -426h-186z" />
    <glyph glyph-name="dollar" unicode="$" 
d="M410 -231l36 215q-139 17 -243.5 79t-159.5 156l152 137q110 -162 290 -188l80 479l-37 10q-329 83 -329 357q0 191 133 309t358 129l35 209h168l-35 -217q121 -20 209 -76t137 -137l-151 -129q-88 129 -238 155l-74 -446l43 -10q334 -87 334 -355q0 -199 -135.5 -326.5
t-370.5 -142.5l-34 -208h-168zM420 1034q0 -74 43.5 -115t136.5 -67l68 410q-118 -12 -183 -72.5t-65 -155.5zM895 426q0 71 -44.5 114.5t-143.5 69.5l-72 -442q123 15 191.5 83.5t68.5 174.5z" />
    <glyph glyph-name="percent" unicode="%" 
d="M389 715q-127 0 -198.5 77t-71.5 220q0 196 103 319t263 123q128 0 199.5 -77t71.5 -220q0 -196 -103 -319t-264 -123zM397 852q143 0 172 178q23 141 23 156q0 131 -115 131q-143 0 -172 -178q-22 -135 -22 -156q0 -131 114 -131zM756 815l422 615h180l-422 -615h-180z
M-61 0l421 614h181l-422 -614h-180zM811 -25q-127 0 -198.5 77t-71.5 220q0 196 103 319.5t263 123.5q128 0 199.5 -77t71.5 -220q0 -196 -103.5 -319.5t-263.5 -123.5zM819 113q143 0 172 178q23 141 23 155q0 132 -115 132q-143 0 -172 -179q-22 -135 -22 -155
q0 -131 114 -131z" />
    <glyph glyph-name="ampersand" unicode="&#x26;" 
d="M326 -25q-147 0 -231.5 101t-84.5 274q0 66 11.5 126t40 118t71.5 101.5t110.5 73t153.5 36.5q-71 165 -71 282q0 163 108.5 265t286.5 102q158 0 253 -92t95 -258q0 -180 -105.5 -291.5t-295.5 -144.5l223 -492l35 -4l151 236l137 -84l-102 -181q-51 -92 -101.5 -130
t-119.5 -38q-85 0 -146.5 73.5t-105.5 230.5h-10q-22 -153 -103 -228.5t-200 -75.5zM387 166q158 0 205 176l-154 363q-46 -8 -80 -25.5t-54 -37.5t-34 -49t-19.5 -52t-10.5 -56q-9 -57 -9 -120q0 -199 156 -199zM705 1288q-82 0 -128.5 -51.5t-46.5 -146.5q0 -118 80 -291
l17 -33q180 50 221 203q18 71 18 137q0 91 -43 136.5t-118 45.5z" />
    <glyph glyph-name="quotesingle" unicode="'" 
d="M778 907h-200l100 609h201z" />
    <glyph glyph-name="parenleft" unicode="(" 
d="M391 463q0 169 48.5 337.5t130.5 308.5t186 255t219 192h225q-225 -155 -384 -368.5t-198 -448.5l-30 -182q-10 -61 -10 -141q0 -201 89.5 -386.5t227.5 -312.5h-205q-132 120 -215.5 318t-83.5 428z" />
    <glyph glyph-name="parenright" unicode=")" 
d="M879 813q0 -169 -48 -338t-130 -309.5t-186 -256t-220 -192.5h-223q108 76 202 166t172 193.5t131.5 222t73.5 238.5l31 180q10 61 10 141q0 200 -89.5 385.5t-227.5 312.5h205q132 -120 215.5 -316.5t83.5 -426.5z" />
    <glyph glyph-name="asterisk" unicode="*" 
d="M600 434l-293 -332l-145 111l297 330l-357 133l82 168l363 -129l67 409h195l-70 -409l398 129l28 -174l-401 -138l188 -323l-161 -107z" />
    <glyph glyph-name="plus" unicode="+" 
d="M645 127h-194l67 410h-387l29 178h389l67 409h195l-68 -409h387l-28 -178h-389z" />
    <glyph glyph-name="comma" unicode="," 
d="M252 -297l211 606h311l-346 -606h-176z" />
    <glyph glyph-name="hyphen" unicode="-" 
d="M918 514h-613l37 219h612z" />
    <glyph glyph-name="period" unicode="." 
d="M526 -20q-81 0 -119 30t-38 80q0 20 10 82q11 66 59.5 102.5t132.5 36.5q82 0 120 -30.5t38 -79.5q0 -20 -10 -82q-11 -66 -59.5 -102.5t-133.5 -36.5z" />
    <glyph glyph-name="slash" unicode="/" 
d="M231 -283h-200l989 1839h201z" />
    <glyph glyph-name="zero" unicode="0" 
d="M549 -25q-226 0 -335.5 131.5t-109.5 380.5q0 107 14 214t43 217.5t80 205.5t119 169.5t166 117.5t215 43q226 0 335.5 -131.5t109.5 -380.5q0 -107 -14 -214t-43 -217.5t-80 -205.5t-119 -169.5t-166 -117.5t-215 -43zM555 160q151 0 237 111.5t121 322.5l39 233
q17 104 17 168q0 275 -234 275q-151 0 -237 -111.5t-121 -322.5l-39 -234q-16 -98 -16 -168q0 -274 233 -274zM629 596q-117 0 -117 80q0 18 6 55q17 103 144 103q116 0 116 -80q0 -18 -6 -56q-17 -102 -143 -102z" />
    <glyph glyph-name="one" unicode="1" 
d="M1061 0h-971l31 188h399l180 1074h-18l-383 -357l-127 129l422 396h358l-207 -1242h347z" />
    <glyph glyph-name="two" unicode="2" 
d="M1059 190l-33 -190h-981l37 217l534 412q156 119 215.5 198.5t77.5 182.5q6 38 6 61q0 85 -58.5 137t-160.5 52q-199 0 -301 -228l-196 76q72 158 200 252t320 94q201 0 317.5 -104t116.5 -275q0 -85 -27 -160.5t-85.5 -147t-128.5 -133.5t-177 -142l-399 -302h723z" />
    <glyph glyph-name="three" unicode="3" 
d="M453 840h147q130 0 209 53t94 145q8 47 8 62q0 77 -58.5 121.5t-156.5 44.5q-190 0 -319 -179l-137 136q61 71 123 118.5t157 80t209 32.5q193 0 308.5 -87.5t115.5 -240.5q0 -136 -90 -236t-250 -136l-2 -9q114 -19 184 -99t70 -208q0 -96 -38 -179.5t-108 -147
t-177 -100t-238 -36.5q-99 0 -178 21.5t-133 60.5t-90 82.5t-64 98.5l172 114q45 -92 114 -140t193 -48q129 0 207.5 57.5t97.5 167.5q6 38 6 66q0 93 -63 143.5t-184 50.5h-162z" />
    <glyph glyph-name="four" unicode="4" 
d="M872 0h-215l48 279h-682l34 202l768 949h287l-164 -973h203l-31 -178h-200zM844 1186l-592 -729h481l123 729h-12z" />
    <glyph glyph-name="five" unicode="5" 
d="M1188 1430l-33 -195h-645l-121 -512h12q69 94 142 139t186 45q171 0 277 -103t106 -280q0 -85 -23 -164.5t-70.5 -149.5t-114.5 -122t-162 -82.5t-207 -30.5q-93 0 -170.5 21.5t-133 59t-94 81t-65.5 96.5l184 119q44 -90 111.5 -138t181.5 -48q130 0 211 68t102 190
q8 49 8 86q0 101 -60.5 156t-176.5 55q-85 0 -146.5 -30.5t-119.5 -82.5l-183 25l185 797h819z" />
    <glyph glyph-name="six" unicode="6" 
d="M543 -25q-210 0 -324.5 122t-114.5 335q0 154 58.5 309t155.5 282.5t213 231t241 175.5h313q-291 -184 -456 -348t-254 -384l12 -4q34 46 68 80.5t78.5 65t100.5 47t120 16.5q168 0 268 -103.5t100 -277.5q0 -108 -39.5 -206.5t-111 -174.5t-183 -121t-245.5 -45z
M567 158q128 0 210 69.5t104 198.5q8 50 8 76q0 109 -61 165t-179 56q-127 0 -209 -68.5t-104 -197.5q-8 -50 -8 -76q0 -109 61 -166t178 -57z" />
    <glyph glyph-name="seven" unicode="7" 
d="M496 0h-246l731 1241h-553l-45 -264h-197l76 453h983l-33 -197z" />
    <glyph glyph-name="eight" unicode="8" 
d="M535 -25q-225 0 -345 98t-120 261q0 150 93.5 259t258.5 150l2 15q-95 36 -145 107t-50 173q0 79 33.5 152t97.5 132.5t167.5 95.5t232.5 36q203 0 313.5 -87.5t110.5 -238.5q0 -125 -79.5 -224t-223.5 -148l-2 -15q235 -69 235 -311q0 -71 -23 -137.5t-71 -124.5
t-116 -101t-163 -67.5t-206 -24.5zM553 156q138 0 218.5 62t98.5 167q11 68 11 82q0 90 -65.5 140t-184.5 50q-138 0 -219 -62t-99 -167q-10 -62 -10 -82q0 -90 65.5 -140t184.5 -50zM668 829q121 0 195 56t89 151q6 38 6 66q0 82 -58.5 127t-166.5 45q-121 0 -195 -56
t-89 -151q-7 -44 -7 -66q0 -82 59 -127t167 -45z" />
    <glyph glyph-name="nine" unicode="9" 
d="M1176 997q0 -154 -58.5 -308.5t-155.5 -282t-213 -231t-241 -175.5h-313q291 184 456 347.5t254 383.5l-12 4q-34 -46 -68 -80.5t-78.5 -65t-100.5 -47t-120 -16.5q-168 0 -268 103.5t-100 277.5q0 108 39.5 206.5t111 174.5t183 121t245.5 45q210 0 324.5 -122
t114.5 -335zM631 707q127 0 209 68.5t104 197.5q8 50 8 76q0 109 -61 166t-178 57q-128 0 -210 -69.5t-104 -198.5q-8 -50 -8 -76q0 -109 61 -165t179 -56z" />
    <glyph glyph-name="colon" unicode=":" 
d="M526 -20q-81 0 -119 30t-38 80q0 20 10 82q11 66 59.5 102.5t132.5 36.5q82 0 120 -30.5t38 -79.5q0 -20 -10 -82q-11 -66 -59.5 -102.5t-133.5 -36.5zM651 745q-81 0 -119 30.5t-38 80.5q0 20 10 82q11 66 59.5 102.5t132.5 36.5q82 0 120 -30.5t38 -79.5q0 -20 -10 -82
q-11 -66 -60 -103t-133 -37z" />
    <glyph glyph-name="semicolon" unicode=";" 
d="M252 -297l211 606h311l-346 -606h-176zM651 745q-81 0 -119 30.5t-38 80.5q0 20 10 82q11 66 59.5 102.5t132.5 36.5q82 0 120 -30.5t38 -79.5q0 -20 -10 -82q-11 -66 -60 -103t-133 -37z" />
    <glyph glyph-name="less" unicode="&#x3c;" 
d="M969 31l-795 491l35 209l958 494l-37 -226l-737 -374l-2 -17l613 -377z" />
    <glyph glyph-name="equal" unicode="=" 
d="M1137 754h-969l29 178h968zM1065 319h-969l29 179h969z" />
    <glyph glyph-name="greater" unicode="&#x3e;" 
d="M98 31l37 225l737 375l2 16l-612 377l35 201l795 -492l-35 -209z" />
    <glyph glyph-name="question" unicode="?" 
d="M664 457h-215l51 317q199 20 292 76.5t115 189.5q4 24 4 50q0 81 -57 127.5t-149 46.5q-196 0 -279 -215l-182 81q56 143 178 233.5t309 90.5q194 0 305 -98t111 -266q0 -97 -38.5 -179.5t-104 -137.5t-144.5 -89.5t-166 -46.5zM487 -20q-79 0 -116 29t-37 77q0 21 10 82
q22 133 186 133q79 0 116.5 -29t37.5 -77q0 -21 -10 -82q-22 -133 -187 -133z" />
    <glyph glyph-name="at" unicode="@" 
d="M856 -74l-22 -155h-242q-259 0 -376.5 139t-117.5 416q0 174 37 391q31 183 78.5 316t120 229t174.5 144t235 48q210 0 320.5 -110t110.5 -295q0 -49 -9 -107l-125 -756h-180l29 172h-8q-38 -93 -93 -144.5t-141 -51.5q-211 0 -211 323q0 146 39.5 271t119 204.5
t183.5 79.5q80 0 128.5 -43.5t60.5 -117.5h8l10 67q10 62 10 111q0 243 -254 243q-59 0 -106.5 -13.5t-95 -48.5t-84 -93t-67.5 -150.5t-52 -216.5l-47 -289q-13 -77 -13 -198q0 -181 75 -273t255 -92h250zM723 311q72 0 127 74q55 72 72 176l32 193q9 54 -21.5 98.5
t-101.5 44.5q-147 0 -184 -229l-12 -78q-12 -84 -12 -137q0 -142 100 -142z" />
    <glyph glyph-name="A" unicode="A" 
d="M1102 0h-234l-41 381h-465l-167 -381h-238l657 1430h308zM809 571l-68 633h-18l-279 -633h365z" />
    <glyph glyph-name="B" unicode="B" 
d="M84 0l240 1430h471q172 0 266 -88.5t94 -241.5q0 -142 -73.5 -233.5t-207.5 -127.5l-2 -8q226 -58 226 -280q0 -125 -56.5 -227.5t-163 -163t-243.5 -60.5h-551zM334 174h252q115 0 184 47.5t84 138.5l10 62q8 50 8 74q0 153 -202 153h-256zM440 815h222q112 0 173 42.5
t76 133.5l11 62q6 37 6 59q0 143 -189 143h-225z" />
    <glyph glyph-name="C" unicode="C" 
d="M590 -25q-230 0 -342.5 136t-112.5 393q0 200 43.5 372.5t124.5 301.5t206 202.5t279 73.5q103 0 181.5 -28.5t127.5 -80t76.5 -115t36.5 -140.5l-211 -54q-8 53 -21.5 91t-38.5 71.5t-66.5 50.5t-100.5 17q-146 0 -235.5 -113.5t-124.5 -321.5l-35 -208
q-17 -104 -17 -172q0 -287 250 -287q106 0 176 64t140 202l186 -72q-86 -192 -208.5 -287.5t-313.5 -95.5z" />
    <glyph glyph-name="D" unicode="D" 
d="M86 0l240 1430h381q226 0 348.5 -131t122.5 -357q0 -461 -174 -701.5t-492 -240.5h-426zM342 186h180q313 0 379 394l37 223q14 86 14 160q0 280 -270 280h-164z" />
    <glyph glyph-name="E" unicode="E" 
d="M981 0h-895l240 1430h893l-33 -191h-668l-72 -420h646l-33 -190h-643l-74 -439h672z" />
    <glyph glyph-name="F" unicode="F" 
d="M311 0h-225l240 1430h917l-33 -191h-692l-72 -420h633l-32 -188h-631z" />
    <glyph glyph-name="G" unicode="G" 
d="M801 0l35 209h-15q-32 -55 -59 -91.5t-66.5 -72t-91 -53t-115.5 -17.5q-180 0 -276 133t-96 388q0 199 41.5 371t121 304t205.5 207.5t285 75.5q99 0 176 -29t125 -80.5t75.5 -114.5t37.5 -140l-211 -54q-8 51 -21.5 88.5t-38 71.5t-66 52t-99.5 18q-282 0 -353 -432
l-35 -205q-14 -86 -14 -168q0 -299 225 -299q124 0 204 83.5t102 209.5l18 104h-281l29 170h481l-120 -729h-203z" />
    <glyph glyph-name="H" unicode="H" 
d="M766 0l106 631h-479l-104 -631h-226l238 1430h225l-100 -611h477l101 611h225l-238 -1430h-225z" />
    <glyph glyph-name="I" unicode="I" 
d="M975 0h-897l28 172h336l183 1085h-336l28 173h897l-28 -173h-336l-182 -1085h336z" />
    <glyph glyph-name="J" unicode="J" 
d="M432 1430h727l-176 -1049q-34 -207 -157.5 -306.5t-321.5 -99.5q-184 0 -291.5 96t-118.5 267l213 43q4 -49 15.5 -85.5t34 -67t62.5 -46.5t97 -16q206 0 246 240l139 833h-502z" />
    <glyph glyph-name="K" unicode="K" 
d="M864 0l-274 653l-219 -227l-72 -426h-225l237 1430h226l-115 -689h12l256 287l377 402h272l-577 -619l350 -811h-248z" />
    <glyph glyph-name="L" unicode="L" 
d="M1014 0h-877l238 1430h225l-207 -1240h654z" />
    <glyph glyph-name="M" unicode="M" 
d="M825 0l115 684l80 434h-16l-414 -735l-166 735h-16l-66 -434l-113 -684h-200l237 1430h266l127 -572h15l317 572h273l-238 -1430h-201z" />
    <glyph glyph-name="N" unicode="N" 
d="M696 0l-229 1118h-16l-187 -1118h-201l238 1430h295l229 -1119h17l186 1119h201l-238 -1430h-295z" />
    <glyph glyph-name="O" unicode="O" 
d="M549 -25q-226 0 -335.5 130.5t-109.5 377.5q0 92 9.5 184t31.5 189t55.5 183t85 163t115.5 132t151 87.5t189 32.5q226 0 335.5 -130.5t109.5 -377.5q0 -92 -9.5 -184t-31.5 -189t-55.5 -183t-85 -163t-115.5 -132t-151 -87.5t-189 -32.5zM555 164q280 0 352 432l39 235
q15 92 15 162q0 273 -226 273q-280 0 -352 -432l-39 -236q-14 -85 -14 -162q0 -272 225 -272z" />
    <glyph glyph-name="P" unicode="P" 
d="M313 0h-225l238 1430h514q179 0 272.5 -96.5t93.5 -258.5q0 -234 -129 -368t-356 -134h-311zM520 1241l-80 -479h271q215 0 245 184l13 74q6 36 6 70q0 151 -187 151h-268z" />
    <glyph glyph-name="Q" unicode="Q" 
d="M807 -393q-56 0 -94.5 27t-71.5 77l-182 271q-355 48 -355 501q0 108 14 216t43 219.5t80 206t119 169.5t166 117.5t215 42.5q226 0 335.5 -130.5t109.5 -377.5q0 -117 -15.5 -233.5t-52.5 -236.5t-93 -216.5t-144 -169t-197 -98.5l131 -199l29 -8l192 180l117 -104
l-113 -115q-79 -81 -126 -110t-107 -29zM555 164q280 0 352 432l39 235q15 92 15 162q0 273 -226 273q-280 0 -352 -432l-39 -236q-14 -85 -14 -162q0 -272 225 -272z" />
    <glyph glyph-name="R" unicode="R" 
d="M408 580l-97 -580h-223l238 1430h514q179 0 272.5 -96t93.5 -259q0 -203 -103 -328t-290 -151l234 -596h-240l-209 580h-190zM440 762h271q215 0 245 184l13 74q6 36 6 70q0 151 -182 151h-273z" />
    <glyph glyph-name="S" unicode="S" 
d="M547 -25q-179 0 -310 64t-196 174l154 139q129 -188 364 -188q145 0 228 70.5t83 191.5q0 82 -45.5 127t-154.5 70l-148 34q-315 70 -315 355q0 202 145 322t385 120q165 0 285 -60.5t182 -160.5l-155 -129q-111 164 -322 164q-135 0 -212 -64t-77 -172
q0 -81 48.5 -123.5t158.5 -68.5l143 -35q164 -40 239 -127.5t75 -226.5q0 -214 -149.5 -345t-405.5 -131z" />
    <glyph glyph-name="T" unicode="T" 
d="M1296 1239h-450l-207 -1239h-225l207 1239h-451l33 191h1126z" />
    <glyph glyph-name="U" unicode="U" 
d="M293 1430h225l-141 -846q-27 -166 -27 -219q0 -100 45.5 -150.5t159.5 -50.5q49 0 88 9.5t67.5 23.5t50.5 42t36 53.5t26.5 70t19.5 80t17 94.5l150 893h225l-141 -848q-16 -94 -31 -161t-37.5 -135t-50 -113t-67 -85.5t-90 -63.5t-117 -36t-150.5 -13q-226 0 -324 95
t-98 278q0 95 31 285z" />
    <glyph glyph-name="V" unicode="V" 
d="M684 0h-315l-166 1430h229l72 -717l49 -494h14l211 494l303 717h242z" />
    <glyph glyph-name="W" unicode="W" 
d="M371 0h-308l136 1430h196l-86 -826l-39 -389h19l301 868h229l19 -868h18l84 375l193 840h192l-340 -1430h-307l-4 831h-19z" />
    <glyph glyph-name="X" unicode="X" 
d="M791 729l315 -729h-246l-119 287l-110 272h-13l-196 -272l-215 -287h-254l565 737l-301 693h246l108 -256l105 -261h10l191 261l192 256h254z" />
    <glyph glyph-name="Y" unicode="Y" 
d="M641 0h-225l88 535l-330 895h240l127 -359l96 -309h12l205 309l242 359h258l-623 -885z" />
    <glyph glyph-name="Z" unicode="Z" 
d="M1071 190l-33 -190h-1026l33 201l911 1038h-706l33 191h966l-32 -201l-910 -1039h764z" />
    <glyph glyph-name="bracketleft" unicode="[" 
d="M895 -283h-604l307 1839h604l-26 -157h-422l-254 -1524h422z" />
    <glyph glyph-name="backslash" unicode="\" 
d="M913 -283h-178l-381 1839h178z" />
    <glyph glyph-name="bracketright" unicode="]" 
d="M344 1556h604l-307 -1839h-604l26 158h422l254 1524h-422z" />
    <glyph glyph-name="asciicircum" unicode="^" 
d="M1176 641l-179 -74l-254 664h-14l-459 -666l-164 86l539 779h240z" />
    <glyph glyph-name="underscore" unicode="_" 
d="M965 -367h-973l33 193h972z" />
    <glyph glyph-name="grave" unicode="`" 
d="M612 1186l-186 350l195 82l129 -375z" />
    <glyph glyph-name="a" unicode="a" 
d="M971 0h-219l41 250h-9q-66 -135 -150 -205t-214 -70q-160 0 -241 106t-81 304q0 104 18.5 203t58.5 189t97 157t140 107t182 40q233 0 293 -215h10l31 191h219zM508 154q123 0 217 110q88 100 109 228l34 210q15 92 -40.5 146.5t-165.5 54.5q-131 0 -209 -79.5
t-101 -215.5l-24 -145q-9 -56 -9 -88q0 -103 47.5 -162t141.5 -59z" />
    <glyph glyph-name="b" unicode="b" 
d="M82 0l252 1516h219l-117 -709h8q65 134 150 204t215 70q160 0 240.5 -105.5t80.5 -303.5q0 -131 -30.5 -253t-89 -222.5t-155.5 -161t-220 -60.5q-233 0 -293 215h-10l-31 -190h-219zM567 154q131 0 209 79.5t101 215.5l24 145q8 50 8 88q0 103 -47 162t-141 59
q-123 0 -217 -110q-88 -100 -109 -228l-35 -211q-15 -92 41 -146t166 -54z" />
    <glyph glyph-name="c" unicode="c" 
d="M555 -25q-201 0 -309.5 120t-108.5 327q0 191 70.5 341t199 234t293.5 84q164 0 258.5 -70.5t126.5 -189.5l-182 -80q-26 85 -77.5 121.5t-145.5 36.5q-115 0 -191 -74t-100 -219l-20 -123q-9 -56 -9 -96q0 -113 59 -171t169 -58q51 0 91 14.5t101.5 69.5t137.5 159
l145 -90q-109 -173 -224 -254.5t-284 -81.5z" />
    <glyph glyph-name="d" unicode="d" 
d="M752 0l41 250h-9q-66 -135 -150 -205t-214 -70q-160 0 -241 106t-81 304q0 104 18.5 203t58.5 189t97 157t140 107t182 40q233 0 293 -215h10l107 650h219l-252 -1516h-219zM508 154q123 0 217 110q88 100 109 228l34 210q15 92 -40.5 146.5t-165.5 54.5
q-131 0 -209 -79.5t-101 -215.5l-24 -145q-9 -56 -9 -88q0 -103 47.5 -162t141.5 -59z" />
    <glyph glyph-name="e" unicode="e" 
d="M571 -25q-215 0 -325.5 115.5t-110.5 337.5q0 290 166 471.5t432 181.5q165 0 269 -75t104 -211q0 -53 -15 -97t-63 -92.5t-127.5 -83t-218 -59.5t-324.5 -31q-2 -18 -2 -41q0 -53 11.5 -94t37.5 -75t74.5 -52t116.5 -18q101 0 172 45.5t158 164.5l143 -92
q-93 -145 -210 -220t-288 -75zM713 915q-136 0 -222 -81.5t-112 -241.5l-4 -23q132 5 229 20.5t150.5 35.5t85 48t40.5 52.5t9 54.5q0 62 -42.5 98.5t-133.5 36.5z" />
    <glyph glyph-name="f" unicode="f" 
d="M385 -434q-35 0 -67 11.5t-55.5 25.5t-61.5 53t-61.5 66t-78.5 92l-106 129l149 116l269 -311l33 8l186 1123h-356l28 178h357l32 196q20 118 99 190.5t213 72.5h358l-29 -179h-407l-47 -280h409l-28 -178h-410l-176 -1055q-44 -258 -250 -258z" />
    <glyph glyph-name="g" unicode="g" 
d="M442 -434q-137 0 -234 35.5t-163 113.5l139 140q88 -111 260 -111q135 0 212 69.5t106 245.5l39 230h-10q-65 -136 -150 -206.5t-215 -70.5q-162 0 -243 107.5t-81 298.5q0 98 18.5 191.5t58 179.5t95.5 150.5t138 103t180 38.5q235 0 295 -215h10l31 191h219l-170 -1020
q-78 -471 -535 -471zM514 193q119 0 215 108q91 101 111 223l28 174q15 94 -40.5 149.5t-165.5 55.5q-130 0 -208 -79.5t-102 -217.5l-16 -98q-8 -66 -8 -96q0 -104 46 -161.5t140 -57.5z" />
    <glyph glyph-name="h" unicode="h" 
d="M92 0l252 1516h219l-119 -709h11q63 135 145 204.5t203 69.5q138 0 212.5 -83t74.5 -222q0 -68 -17 -170l-100 -606h-219l102 614q12 74 12 119q0 77 -37.5 123.5t-115.5 46.5q-114 0 -199 -106q-90 -110 -110 -232l-95 -565h-219z" />
    <glyph glyph-name="i" unicode="i" 
d="M696 1251q-73 0 -106 28t-33 73q0 13 8 63q19 119 160 119q139 0 139 -100q0 -14 -8 -64q-19 -119 -160 -119zM578 -25q-94 0 -145.5 50.5t-51.5 134.5q0 30 14 116l117 603h-356l28 178h580l-172 -887l41 -16l354 325l125 -112l-160 -160q-131 -131 -211 -181.5
t-163 -50.5z" />
    <glyph glyph-name="j" unicode="j" 
d="M514 -434q-83 0 -146.5 54t-189.5 214l-104 127l147 117l287 -334l31 10l188 1125h-416l29 178h635l-203 -1217q-46 -274 -258 -274zM905 1251q-73 0 -106 28t-33 73q0 13 8 63q19 119 160 119q139 0 139 -100q0 -14 -8 -64q-19 -119 -160 -119z" />
    <glyph glyph-name="k" unicode="k" 
d="M92 0l252 1516h219l-119 -709h11q127 274 362 274q126 0 201.5 -71t75.5 -185q0 -278 -402 -385l121 -278l29 -4l227 213l113 -113l-129 -133q-79 -79 -139 -114.5t-126 -35.5q-69 0 -113 39t-79 123l-139 328q220 57 317.5 131t97.5 174q0 64 -41 100.5t-116 36.5
q-118 0 -203 -110q-87 -111 -106 -230l-95 -567h-219z" />
    <glyph glyph-name="l" unicode="l" 
d="M528 -25q-98 0 -146 50.5t-48 138.5q0 42 12 106l205 1067h-348l30 179h572l-260 -1348l43 -14l364 329l123 -112l-176 -172q-130 -127 -210.5 -175.5t-160.5 -48.5z" />
    <glyph glyph-name="m" unicode="m" 
d="M190 0h-186l176 1057h187l-29 -174h10q84 198 232 198q85 0 127 -54.5t34 -149.5h9q86 204 254 204q89 0 135.5 -51.5t46.5 -148.5q0 -64 -15 -156l-120 -725h-187l117 698q12 74 12 115q0 100 -80 100q-69 0 -116 -75q-54 -85 -68 -172l-111 -666h-186l119 709
q10 62 10 102q0 102 -74 102q-69 0 -120 -75q-45 -66 -64 -162z" />
    <glyph glyph-name="n" unicode="n" 
d="M311 0h-219l176 1057h219l-43 -250h11q63 135 145 204.5t203 69.5q138 0 212.5 -83t74.5 -222q0 -68 -17 -170l-100 -606h-219l102 614q12 74 12 119q0 77 -37.5 123.5t-115.5 46.5q-114 0 -199 -106q-90 -110 -110 -232z" />
    <glyph glyph-name="o" unicode="o" 
d="M543 -25q-204 0 -317 122.5t-113 328.5q0 198 74.5 347.5t204 228.5t294.5 79q204 0 317 -122t113 -328q0 -298 -161 -477t-412 -179zM557 150q126 0 204.5 78t102.5 218l23 136q10 65 10 96q0 114 -59.5 171.5t-165.5 57.5q-126 0 -204.5 -78.5t-102.5 -218.5l-23 -135
q-10 -65 -10 -96q0 -114 59.5 -171.5t165.5 -57.5z" />
    <glyph glyph-name="p" unicode="p" 
d="M14 -410l244 1467h219l-41 -250h8q65 134 150 204t215 70q160 0 240.5 -105.5t80.5 -303.5q0 -131 -30.5 -253t-89 -222.5t-155.5 -161t-220 -60.5q-233 0 -293 215h-10l-99 -600h-219zM567 154q131 0 209 79.5t101 215.5l24 145q8 50 8 88q0 103 -47 162t-141 59
q-123 0 -217 -110q-88 -100 -109 -228l-35 -211q-15 -92 41 -146t166 -54z" />
    <glyph glyph-name="q" unicode="q" 
d="M682 -410l111 660h-9q-66 -135 -150 -205t-214 -70q-160 0 -241 106t-81 304q0 104 18.5 203t58.5 189t97 157t140 107t182 40q233 0 293 -215h10l31 191h219l-246 -1467h-219zM508 154q123 0 217 110q88 100 109 228l34 210q15 92 -40.5 146.5t-165.5 54.5
q-131 0 -209 -79.5t-101 -215.5l-24 -145q-9 -56 -9 -88q0 -103 47.5 -162t141.5 -59z" />
    <glyph glyph-name="r" unicode="r" 
d="M557 0h-219l145 879h-272l31 178h491l-51 -299h12q64 146 158 222.5t240 76.5h122l-36 -219h-185q-87 0 -143.5 -24t-99.5 -77q-89 -108 -105 -209z" />
    <glyph glyph-name="s" unicode="s" 
d="M541 -25q-155 0 -270.5 49t-178.5 140l139 123q113 -144 326 -144q121 0 189.5 43.5t68.5 122.5q0 57 -34 83t-99 36l-154 27q-66 12 -114 29.5t-93.5 48.5t-69.5 82t-24 120q0 111 62 190.5t165.5 117.5t235.5 38q137 0 243 -41t165 -114l-135 -129q-35 49 -107.5 82.5
t-177.5 33.5q-113 0 -174.5 -40.5t-61.5 -114.5q0 -57 35 -81.5t103 -37.5l153 -29q52 -10 90 -21t80 -32t68.5 -48.5t43.5 -71t17 -99.5q0 -168 -133.5 -265.5t-357.5 -97.5z" />
    <glyph glyph-name="t" unicode="t" 
d="M522 -25q-96 0 -146 52.5t-50 146.5q0 24 12 98l100 607h-291l29 178h197q59 0 88 23.5t39 82.5l45 267h205l-62 -373h426l-29 -178h-428l-116 -701l41 -20l401 284l109 -131l-187 -139q-148 -113 -226 -155t-157 -42z" />
    <glyph glyph-name="u" unicode="u" 
d="M743 0l43 250h-10q-63 -135 -145 -205t-203 -70q-138 0 -212.5 83.5t-74.5 222.5q0 68 17 170l100 606h219l-102 -615q-13 -80 -13 -118q0 -77 38 -123.5t116 -46.5q114 0 199 106q90 110 110 232l95 565h219l-176 -1057h-220z" />
    <glyph glyph-name="v" unicode="v" 
d="M139 1057h420l-137 -901l27 -17q111 23 198 83t141 143t81.5 179t27.5 199q0 145 -63 265l200 67q84 -128 84 -325q0 -156 -58 -299.5t-153.5 -246t-224.5 -163.5t-266 -61q-99 0 -150 50.5t-51 141.5q0 44 8 96l94 611h-206z" />
    <glyph glyph-name="w" unicode="w" 
d="M252 -23q-94 0 -142.5 58t-48.5 158q0 61 17 161l117 703h184l-119 -690q-12 -78 -12 -113q0 -98 82 -98q64 0 119 82q40 59 57 163l108 656h179l-113 -695q-10 -68 -10 -110q0 -98 78 -98q63 0 119 88.5t88 226t32 283.5q0 170 -43 268l166 49q61 -122 61 -315
q0 -184 -44 -346t-123 -267q-124 -164 -297 -164q-95 0 -143 56.5t-42 163.5h-10q-87 -220 -260 -220z" />
    <glyph glyph-name="x" unicode="x" 
d="M217 -25q-103 0 -158 66.5t-55 196.5q0 45 8 118l187 19q-4 -31 -4 -78q0 -84 19 -121t65 -37q63 0 111.5 62t74 157t37.5 187.5t12 175.5q0 119 -16 182l-29 15l-301 -195l-88 125l139 104q173 129 285 129q47 0 81.5 -19t54 -48.5t31.5 -76t15.5 -92t3.5 -106.5h15
q42 179 118 260.5t191 81.5q101 0 156 -67.5t55 -192.5q0 -39 -6 -121l-187 -18q4 66 4 82q0 78 -19.5 116t-64.5 38q-51 0 -93 -41.5t-67.5 -105t-43 -142.5t-24.5 -149t-7 -130q0 -123 20 -196l27 -15l291 205l92 -121l-103 -90q-179 -158 -313 -158q-54 0 -92 25
t-57.5 73.5t-28 106t-8.5 135.5l-15 2q-42 -179 -119 -260.5t-194 -81.5z" />
    <glyph glyph-name="y" unicode="y" 
d="M432 -434q-139 0 -235.5 35.5t-161.5 113.5l139 140q88 -111 260 -111q137 0 215.5 72.5t106.5 246.5l35 220h-9q-63 -135 -145 -205t-203 -70q-138 0 -212.5 83t-74.5 222q0 68 17 170l94 574h219l-96 -582q-12 -74 -12 -119q0 -77 37.5 -123.5t115.5 -46.5
q113 0 199 107q90 111 110 231l89 533h219l-172 -1028q-39 -236 -176.5 -349.5t-358.5 -113.5z" />
    <glyph glyph-name="z" unicode="z" 
d="M860 -23q-118 0 -252 56l-299 117l-10 -9l-23 -141h-202l32 197l701 608q-95 55 -162 77.5t-129 22.5q-162 0 -162 -209h-168v23q0 173 86 267.5t240 94.5q189 0 391 -155l27 -17l10 11l23 137h202l-32 -193l-703 -612l471 -102l23 24l-64 238l141 55l33 -72
q56 -118 56 -207q0 -86 -63.5 -148.5t-166.5 -62.5z" />
    <glyph glyph-name="braceleft" unicode="{" 
d="M889 -283h-359q-93 0 -133.5 40.5t-40.5 105.5q0 24 21 153q5 27 12.5 52t14.5 44t19.5 40t20 33t23.5 31.5t22 26t24 25.5t22 23q50 53 68 84.5t18 62.5q0 121 -211 121h-193l27 156h190q125 0 191.5 39t66.5 114q0 51 -41 115q-2 3 -9.5 15l-10 16t-9.5 16t-10 18
l-9 18t-8.5 20.5t-6.5 21t-5.5 23.5t-3 24.5t-1.5 26.5q0 45 22 186q12 85 73.5 136.5t162.5 51.5h360l-27 -157h-383q-26 -150 -26 -193q0 -32 7.5 -60t16.5 -44.5t27 -46.5q63 -104 63 -181q0 -95 -67 -155.5t-197 -77.5l-2 -12q96 -10 146.5 -55.5t50.5 -118.5
q0 -45 -20.5 -89t-44 -72.5t-68.5 -74.5q-36 -37 -52 -56t-36.5 -61t-28.5 -94l-23 -133h383z" />
    <glyph glyph-name="bar" unicode="|" 
d="M573 -283h-186l307 1839h187z" />
    <glyph glyph-name="braceright" unicode="}" 
d="M379 1556h358q92 0 133 -40t41 -99q0 -37 -20 -160q-9 -52 -25 -94t-43.5 -78.5t-41 -51.5t-48.5 -50q-50 -50 -68 -82t-18 -65q0 -121 211 -121h193l-27 -156h-190q-125 0 -192 -39t-67 -114q0 -58 41 -115q23 -32 36.5 -55t25.5 -62t12 -82q0 -45 -22 -186
q-12 -85 -73.5 -137t-162.5 -52h-360l26 158h383q27 156 27 193q0 32 -7.5 59.5t-15.5 43t-28 48.5q-21 35 -32 56.5t-21.5 55.5t-10.5 68q0 95 67 156t197 78l2 12q-96 10 -146 55.5t-50 118.5q0 45 21 89.5t44.5 73t67.5 73.5q36 37 52 56t36.5 61t28.5 94l22 133h-383z
" />
    <glyph glyph-name="asciitilde" unicode="~" 
d="M829 461q-41 0 -81 11t-66.5 23t-71.5 37q-7 4 -27 14.5t-28 15t-25 12.5t-27 11.5t-24 8.5t-26.5 6.5t-24.5 1.5q-101 0 -170 -141l-152 82q47 114 131 179.5t193 65.5q41 0 81 -11t66.5 -23t71.5 -37q7 -4 27 -14.5t28 -15t25 -12.5t27 -11.5t24 -8.5t26.5 -6.5
t24.5 -1.5q101 0 170 141l152 -81q-47 -115 -131.5 -180.5t-192.5 -65.5z" />
    <glyph glyph-name="uni00A0" unicode="&#xa0;" 
 />
    <glyph glyph-name="exclamdown" unicode="&#xa1;" 
d="M582 -373h-242l70 416l168 528h84l-11 -528zM655 756q-79 0 -116 29t-37 77q0 21 10 82q22 133 186 133q79 0 116.5 -29t37.5 -77q0 -21 -10 -82q-22 -133 -187 -133z" />
    <glyph glyph-name="cent" unicode="&#xa2;" 
d="M418 -233l37 219q-154 31 -236 144.5t-82 291.5q0 269 138.5 449.5t361.5 205.5l35 213h170l-37 -219q119 -19 192 -85t99 -163l-174 -69q-22 63 -59 98.5t-95 48.5l-125 -747q59 10 122 60.5t153 170.5l141 -84q-96 -153 -196 -230.5t-240 -90.5l-35 -213h-170zM352 387
q0 -180 144 -225l122 739q-94 -19 -154.5 -94t-80.5 -199l-21 -125q-10 -54 -10 -96z" />
    <glyph glyph-name="sterling" unicode="&#xa3;" 
d="M956 -25q-93 0 -282 60l-400 112l-24 -147h-207l35 215q119 52 181.5 130t62.5 208q0 15 -5 65h-213l29 168h156q-19 97 -19 164q0 221 144.5 362.5t367.5 141.5q168 0 275 -78t149 -200l-182 -95q-69 183 -252 183q-131 0 -205.5 -86.5t-74.5 -243.5q0 -73 16 -148h366
l-28 -168h-307q4 -14 4 -53q0 -94 -49.5 -161t-137.5 -82l-6 -13l592 -137l23 25l-54 229l160 45l27 -70q49 -130 49 -219q0 -88 -51 -147.5t-140 -59.5z" />
    <glyph glyph-name="yen" unicode="&#xa5;" 
d="M55 0l29 176h367l51 311h-365l29 177h278l-264 766h232l221 -709h10l459 709h250l-521 -766h281l-29 -177h-368l-51 -311h366l-29 -176h-946z" />
    <glyph glyph-name="brokenbar" unicode="&#xa6;" 
d="M758 819h-187l123 737h187zM573 -283h-186l123 738h186z" />
    <glyph glyph-name="section" unicode="&#xa7;" 
d="M932 35q0 -165 -120.5 -268t-322.5 -103q-113 0 -216.5 33.5t-166.5 99.5l127 137q44 -47 112.5 -72.5t146.5 -25.5q105 0 171 48t66 124q0 60 -40 98.5t-134 67.5l-133 43q-270 87 -270 279q0 245 288 319l2 19q-129 92 -129 249q0 165 120.5 268t322.5 103
q113 0 216.5 -33.5t166.5 -99.5l-127 -137q-44 47 -112.5 72.5t-145.5 25.5q-105 0 -171.5 -48t-66.5 -124q0 -60 40 -98.5t134 -67.5l133 -43q271 -87 271 -278q0 -246 -289 -320l-2 -18q129 -92 129 -250zM889 553q0 63 -42 108t-142 74l-136 41q-18 4 -47 17
q-166 -84 -166 -228q0 -62 42 -107.5t143 -74.5l135 -41q23 -6 47 -16q166 84 166 227z" />
    <glyph glyph-name="dieresis" unicode="&#xa8;" 
d="M446 1245q-124 0 -124 88q0 13 6 51q19 113 147 113q125 0 125 -88q0 -13 -6 -51q-19 -113 -148 -113zM856 1245q-125 0 -125 88q0 13 6 51q19 113 148 113q125 0 125 -88q0 -13 -6 -51q-19 -113 -148 -113z" />
    <glyph glyph-name="copyright" unicode="&#xa9;" 
d="M555 37q-237 0 -384.5 156t-147.5 421q0 226 90.5 404t251.5 276.5t364 98.5q237 0 385 -156.5t148 -421.5q0 -226 -91 -404t-252 -276t-364 -98zM565 147q211 0 362 134t189 352q23 130 23 182q0 94 -24 175.5t-72.5 148t-131.5 105t-192 38.5q-211 0 -362 -133.5
t-189 -351.5q-23 -130 -23 -183q0 -94 24 -175.5t72.5 -148t131.5 -105t192 -38.5zM600 336q-139 0 -217 84.5t-78 230.5q0 182 111.5 313.5t279.5 131.5q209 0 271 -189l-148 -63q-13 52 -43.5 79t-87.5 27q-74 0 -118.5 -45.5t-57.5 -122.5l-20 -123q-5 -31 -5 -51
q0 -60 31.5 -92.5t93.5 -32.5q102 0 176 109l125 -74q-115 -182 -313 -182z" />
    <glyph glyph-name="ordfeminine" unicode="&#xaa;" 
d="M924 715h-160l20 123h-16q-31 -63 -84.5 -100.5t-126.5 -37.5q-103 0 -161 49.5t-58 133.5q0 247 354 247h137l9 48q4 36 4 47q0 102 -137 102q-118 0 -193 -100l-86 90q43 59 119 98t182 39q128 0 202.5 -56t74.5 -159q0 -40 -7 -84zM813 1026h-135q-78 0 -121.5 -21.5
t-52.5 -74.5q-4 -24 -4 -37q0 -74 108 -74q72 0 126.5 33t64.5 90z" />
    <glyph glyph-name="guillemotleft" unicode="&#xab;" 
d="M571 240l-90 -136l-354 353l35 202l461 347l51 -152l-338 -309zM1053 240l-90 -136l-355 353l35 202l461 347l51 -152l-338 -309z" />
    <glyph glyph-name="logicalnot" unicode="&#xac;" 
d="M1008 139h-183l66 398h-758l29 178h942z" />
    <glyph glyph-name="uni00AD" unicode="&#xad;" 
d="M918 514h-613l37 219h612z" />
    <glyph glyph-name="registered" unicode="&#xae;" 
d="M633 709q-148 0 -241 90t-93 239q0 172 120 294t300 122q148 0 241 -90.5t93 -239.5q0 -172 -120 -293.5t-300 -121.5zM633 791q132 0 213 73t100 183q10 62 10 79q0 111 -59.5 178.5t-177.5 67.5q-132 0 -213 -73t-100 -183q-11 -68 -11 -80q0 -111 60 -178t178 -67z
M612 1028l-22 -129h-94l63 379h180q54 0 83.5 -27.5t29.5 -74.5q0 -48 -26 -82.5t-70 -49.5l65 -145h-104l-51 129h-54zM623 1098h63q25 0 42 13t20 32q2 12 2 24q0 37 -45 37h-64z" />
    <glyph glyph-name="macron" unicode="&#xaf;" 
d="M354 1288l29 166h592l-29 -166h-592z" />
    <glyph glyph-name="degree" unicode="&#xb0;" 
d="M674 725q-149 0 -241.5 91t-92.5 239q0 169 116 284t289 115q147 0 239.5 -91t92.5 -239q0 -169 -116 -284t-287 -115zM682 881q100 0 162.5 68.5t62.5 170.5q0 79 -46.5 128.5t-125.5 49.5q-100 0 -162.5 -68.5t-62.5 -170.5q0 -79 46.5 -128.5t125.5 -49.5z" />
    <glyph glyph-name="plusminus" unicode="&#xb1;" 
d="M680 336h-195l64 383h-387l28 178h390l63 383h195l-64 -383h387l-28 -178h-390zM1014 0h-971l29 178h970z" />
    <glyph glyph-name="twosuperior" unicode="&#xb2;" 
d="M936 801l-21 -127h-553l25 143l275 191q49 34 76 55.5t52 54.5t31 68q4 24 4 37q0 40 -30 63t-76 23q-55 0 -90.5 -32t-53.5 -79l-133 53q83 191 287 191q113 0 187.5 -56.5t74.5 -158.5q0 -41 -15 -80t-36 -67.5t-59 -61.5t-66 -53t-76 -52l-172 -112h369z" />
    <glyph glyph-name="threesuperior" unicode="&#xb3;" 
d="M596 1126h86q69 0 101 24t38 58q4 24 4 35q0 35 -26.5 55.5t-75.5 20.5q-102 0 -172 -94l-92 92q109 125 276 125q119 0 184.5 -52.5t65.5 -138.5q0 -72 -47 -121.5t-129 -64.5v-4q64 -12 99.5 -53.5t35.5 -108.5q0 -103 -82.5 -170t-224.5 -67q-110 0 -179.5 39.5
t-99.5 105.5l111 78q50 -101 170 -101q61 0 97 27t44 74q4 24 4 30q0 39 -33.5 62.5t-91.5 23.5h-84z" />
    <glyph glyph-name="acute" unicode="&#xb4;" 
d="M934 1522l-277 -336l-129 71l228 361z" />
    <glyph glyph-name="mu" unicode="&#xb5;" 
d="M238 -410h-220l244 1467h219l-102 -615q-12 -74 -12 -118q0 -77 37.5 -123.5t115.5 -46.5q114 0 199 106q90 110 110 232l95 565h219l-176 -1057h-219l43 250h-11q-115 -275 -317 -275q-130 0 -166 117h-8l-8 -231z" />
    <glyph glyph-name="paragraph" unicode="&#xb6;" 
d="M408 -305l135 809q-170 0 -278.5 108t-108.5 291q0 93 29 177t80.5 147t119.5 109t148 70t163 24h535l-291 -1735h-182l262 1565h-168l-262 -1565h-182z" />
    <glyph glyph-name="periodcentered" unicode="&#xb7;" 
d="M608 459q-81 0 -119 30t-38 80q0 20 10 82q11 66 59.5 103t132.5 37q81 0 119.5 -30.5t38.5 -80.5q0 -20 -10 -82q-11 -66 -59.5 -102.5t-133.5 -36.5z" />
    <glyph glyph-name="cedilla" unicode="&#xb8;" 
d="M584 -428q-80 0 -135 25t-80 63l90 92q41 -55 123 -55q43 0 70.5 17t27.5 48q0 64 -129 78l-53 6l75 203h117l-61 -168l4 -8q39 10 80 10q59 0 94 -31t35 -92q0 -90 -73.5 -139t-184.5 -49z" />
    <glyph glyph-name="onesuperior" unicode="&#xb9;" 
d="M938 674h-524l20 123h195l82 485l-193 -100l-49 112l260 136h162l-107 -633h174z" />
    <glyph glyph-name="ordmasculine" unicode="&#xba;" 
d="M655 700q-137 0 -218 82.5t-81 218.5q0 202 110.5 327.5t293.5 125.5q137 0 218 -82.5t81 -218.5q0 -202 -110.5 -327.5t-293.5 -125.5zM674 829q80 0 130 50t64 135l21 121q4 40 4 49q0 65 -39.5 103t-112.5 38q-80 0 -130 -49.5t-64 -134.5l-21 -121q-4 -40 -4 -49
q0 -66 40 -104t112 -38z" />
    <glyph glyph-name="guillemotright" unicode="&#xbb;" 
d="M131 104l-51 152l338 309l-236 305l90 136l355 -353l-35 -202zM612 104l-51 152l338 309l-235 305l90 136l354 -353l-35 -202z" />
    <glyph glyph-name="onequarter" unicode="&#xbc;" 
d="M877 0l22 131h-328l23 133l348 422h195l-74 -446h92l-18 -109h-93l-22 -131h-145zM709 240h209l51 311h-6zM115 743l18 119h184l74 436l-184 -88l-39 107l233 113h160l-94 -568h164l-21 -119h-495zM741 815l441 615h178l-440 -615h-179zM-66 0l441 614h178l-440 -614
h-179z" />
    <glyph glyph-name="onehalf" unicode="&#xbd;" 
d="M580 0l22 133l256 176q128 91 143 160q3 15 3 33q0 36 -25.5 57t-67.5 21q-85 0 -139 -109l-121 51q81 176 277 176q111 0 171 -53t60 -135q0 -46 -17.5 -86t-56.5 -77.5t-70 -61t-89 -62.5l-160 -106h348l-18 -117h-516zM115 743l18 119h184l74 436l-184 -88l-39 107
l233 113h160l-94 -568h164l-21 -119h-495zM741 815l441 615h178l-440 -615h-179zM-66 0l441 614h178l-440 -614h-179z" />
    <glyph glyph-name="threequarters" unicode="&#xbe;" 
d="M877 0l22 131h-328l23 133l348 422h195l-74 -446h92l-18 -109h-93l-22 -131h-145zM709 240h209l51 311h-6zM348 731q-193 0 -256 143l111 68q34 -94 147 -94q56 0 88.5 22t38.5 60q4 24 4 37q0 35 -31 55t-88 20h-63l18 111h68q63 0 95.5 21.5t37.5 52.5q2 12 2 33
q0 30 -25.5 47.5t-72.5 17.5q-88 0 -156 -84l-82 84q55 58 116 87.5t144 29.5q107 0 170.5 -45t63.5 -119q0 -70 -48.5 -116.5t-123.5 -57.5v-8q61 -7 96 -45t35 -97q0 -99 -80 -161t-209 -62zM741 815l441 615h178l-440 -615h-179zM-66 0l441 614h178l-440 -614h-179z" />
    <glyph glyph-name="questiondown" unicode="&#xbf;" 
d="M494 -397q-194 0 -305 98t-111 266q0 97 38.5 179.5t103.5 137.5t144 89.5t166 46.5l31 180h215l-51 -317q-199 -20 -292.5 -77t-115.5 -190q-4 -24 -4 -49q0 -80 57.5 -127t149.5 -47q196 0 279 215l182 -82q-56 -143 -178 -233t-309 -90zM694 756q-79 0 -116 29t-37 77
q0 21 10 82q22 133 186 133q79 0 116.5 -29t37.5 -77q0 -21 -10 -82q-22 -133 -187 -133z" />
    <glyph glyph-name="Agrave" unicode="&#xc0;" 
d="M1102 0h-234l-41 381h-465l-167 -381h-238l657 1430h308zM809 571l-68 633h-18l-279 -633h365zM758 1534l-187 350l195 82l129 -375z" />
    <glyph glyph-name="Aacute" unicode="&#xc1;" 
d="M1102 0h-234l-41 381h-465l-167 -381h-238l657 1430h308zM809 571l-68 633h-18l-279 -633h365zM1079 1870l-276 -336l-129 72l227 360z" />
    <glyph glyph-name="Acircumflex" unicode="&#xc2;" 
d="M1102 0h-234l-41 381h-465l-167 -381h-238l657 1430h308zM809 571l-68 633h-18l-279 -633h365zM731 1931h223l197 -309l-121 -82l-205 238l-278 -238l-107 88z" />
    <glyph glyph-name="Atilde" unicode="&#xc3;" 
d="M1102 0h-234l-41 381h-465l-167 -381h-238l657 1430h308zM809 571l-68 633h-18l-279 -633h365zM963 1585q-31 0 -61.5 9t-45 16.5t-47.5 25.5q-83 47 -139 47q-54 0 -129 -57l-68 107q94 116 225 116q31 0 61.5 -9t45 -16.5t47.5 -25.5q83 -47 139 -47q54 0 129 57
l68 -106q-95 -117 -225 -117z" />
    <glyph glyph-name="Adieresis" unicode="&#xc4;" 
d="M1102 0h-234l-41 381h-465l-167 -381h-238l657 1430h308zM809 571l-68 633h-18l-279 -633h365zM592 1593q-125 0 -125 88q0 15 6 52q18 112 148 112q124 0 124 -88q0 -14 -6 -51q-19 -113 -147 -113zM1001 1593q-124 0 -124 88q0 15 6 52q18 112 147 112q125 0 125 -88
q0 -14 -6 -51q-19 -113 -148 -113z" />
    <glyph glyph-name="Aring" unicode="&#xc5;" 
d="M1102 0h-234l-41 381h-465l-167 -381h-238l657 1430h308zM809 571l-68 633h-18l-279 -633h365zM782 1507q-100 0 -165.5 64.5t-65.5 161.5q0 122 88 205t211 83q100 0 165.5 -64t65.5 -161q0 -122 -88 -205.5t-211 -83.5zM795 1628q111 0 129 111q10 62 10 76
q0 40 -24.5 63t-71.5 23q-111 0 -129 -111q-11 -68 -11 -76q0 -40 25 -63t72 -23z" />
    <glyph glyph-name="AE" unicode="&#xc6;" 
d="M557 0l64 385h-267l-159 -385h-226l619 1430h749l-28 -177h-332l-74 -442h309l-28 -176h-310l-77 -459h331l-28 -176h-543zM768 1270h-53l-291 -709h227z" />
    <glyph glyph-name="Ccedilla" unicode="&#xc7;" 
d="M772 1266q-146 0 -235.5 -113.5t-124.5 -321.5l-35 -208q-17 -104 -17 -172q0 -287 250 -287q106 0 176 64t140 202l186 -72q-81 -178 -191 -273t-276 -108l-35 -96l4 -8q39 10 80 10q59 0 94 -31t35 -92q0 -90 -73.5 -139t-184.5 -49q-80 0 -135 25t-80 63l90 92
q41 -55 123 -55q43 0 71 17t28 48q0 64 -130 78l-53 6l47 131q-391 39 -391 527q0 200 43.5 372.5t124.5 301.5t206 202.5t279 73.5q103 0 181.5 -28.5t127.5 -80t76.5 -115t36.5 -140.5l-211 -54q-8 53 -21.5 91t-38.5 71.5t-66.5 50.5t-100.5 17z" />
    <glyph glyph-name="Egrave" unicode="&#xc8;" 
d="M766 1534l-186 350l194 82l129 -375zM981 0h-895l240 1430h893l-33 -191h-668l-72 -420h646l-33 -190h-643l-74 -439h672z" />
    <glyph glyph-name="Eacute" unicode="&#xc9;" 
d="M981 0h-895l240 1430h893l-33 -191h-668l-72 -420h646l-33 -190h-643l-74 -439h672zM1087 1870l-276 -336l-129 72l227 360z" />
    <glyph glyph-name="Ecircumflex" unicode="&#xca;" 
d="M739 1931h224l196 -309l-121 -82l-204 238l-279 -238l-106 88zM981 0h-895l240 1430h893l-33 -191h-668l-72 -420h646l-33 -190h-643l-74 -439h672z" />
    <glyph glyph-name="Edieresis" unicode="&#xcb;" 
d="M981 0h-895l240 1430h893l-33 -191h-668l-72 -420h646l-33 -190h-643l-74 -439h672zM600 1593q-125 0 -125 88q0 15 6 52q18 112 148 112q125 0 125 -88q0 -14 -6 -51q-19 -113 -148 -113zM1010 1593q-125 0 -125 88q0 15 6 52q18 112 147 112q125 0 125 -88
q0 -14 -6 -51q-19 -113 -147 -113z" />
    <glyph glyph-name="Igrave" unicode="&#xcc;" 
d="M975 0h-897l28 172h336l183 1085h-336l28 173h897l-28 -173h-336l-182 -1085h336zM758 1534l-187 350l195 82l129 -375z" />
    <glyph glyph-name="Iacute" unicode="&#xcd;" 
d="M975 0h-897l28 172h336l183 1085h-336l28 173h897l-28 -173h-336l-182 -1085h336zM1079 1870l-276 -336l-129 72l227 360z" />
    <glyph glyph-name="Icircumflex" unicode="&#xce;" 
d="M975 0h-897l28 172h336l183 1085h-336l28 173h897l-28 -173h-336l-182 -1085h336zM731 1931h223l197 -309l-121 -82l-205 238l-278 -238l-107 88z" />
    <glyph glyph-name="Idieresis" unicode="&#xcf;" 
d="M975 0h-897l28 172h336l183 1085h-336l28 173h897l-28 -173h-336l-182 -1085h336zM592 1593q-125 0 -125 88q0 15 6 52q18 112 148 112q124 0 124 -88q0 -14 -6 -51q-19 -113 -147 -113zM1001 1593q-124 0 -124 88q0 15 6 52q18 112 147 112q125 0 125 -88q0 -14 -6 -51
q-19 -113 -148 -113z" />
    <glyph glyph-name="Eth" unicode="&#xd0;" 
d="M86 0l113 670h-146l29 170h145l99 590h381q226 0 348.5 -131t122.5 -357q0 -461 -174 -701.5t-492 -240.5h-426zM342 186h180q313 0 379 394l37 223q14 86 14 160q0 280 -270 280h-164l-67 -409h260l-27 -160h-260z" />
    <glyph glyph-name="Ntilde" unicode="&#xd1;" 
d="M963 1585q-31 0 -61.5 9t-45 16.5t-47.5 25.5q-83 47 -139 47q-54 0 -129 -57l-68 107q94 116 225 116q31 0 61.5 -9t45 -16.5t47.5 -25.5q83 -47 139 -47q54 0 129 57l68 -106q-95 -117 -225 -117zM696 0l-229 1118h-16l-187 -1118h-201l238 1430h295l229 -1119h17
l186 1119h201l-238 -1430h-295z" />
    <glyph glyph-name="Ograve" unicode="&#xd2;" 
d="M737 1534l-186 350l194 82l129 -375zM549 -25q-226 0 -335.5 130.5t-109.5 377.5q0 92 9.5 184t31.5 189t55.5 183t85 163t115.5 132t151 87.5t189 32.5q226 0 335.5 -130.5t109.5 -377.5q0 -92 -9.5 -184t-31.5 -189t-55.5 -183t-85 -163t-115.5 -132t-151 -87.5
t-189 -32.5zM555 164q280 0 352 432l39 235q15 92 15 162q0 273 -226 273q-280 0 -352 -432l-39 -236q-14 -85 -14 -162q0 -272 225 -272z" />
    <glyph glyph-name="Oacute" unicode="&#xd3;" 
d="M1059 1870l-277 -336l-129 72l228 360zM549 -25q-226 0 -335.5 130.5t-109.5 377.5q0 92 9.5 184t31.5 189t55.5 183t85 163t115.5 132t151 87.5t189 32.5q226 0 335.5 -130.5t109.5 -377.5q0 -92 -9.5 -184t-31.5 -189t-55.5 -183t-85 -163t-115.5 -132t-151 -87.5
t-189 -32.5zM555 164q280 0 352 432l39 235q15 92 15 162q0 273 -226 273q-280 0 -352 -432l-39 -236q-14 -85 -14 -162q0 -272 225 -272z" />
    <glyph glyph-name="Ocircumflex" unicode="&#xd4;" 
d="M711 1931h223l196 -309l-120 -82l-205 238l-279 -238l-106 88zM549 -25q-226 0 -335.5 130.5t-109.5 377.5q0 92 9.5 184t31.5 189t55.5 183t85 163t115.5 132t151 87.5t189 32.5q226 0 335.5 -130.5t109.5 -377.5q0 -92 -9.5 -184t-31.5 -189t-55.5 -183t-85 -163
t-115.5 -132t-151 -87.5t-189 -32.5zM555 164q280 0 352 432l39 235q15 92 15 162q0 273 -226 273q-280 0 -352 -432l-39 -236q-14 -85 -14 -162q0 -272 225 -272z" />
    <glyph glyph-name="Otilde" unicode="&#xd5;" 
d="M549 -25q-226 0 -335.5 130.5t-109.5 377.5q0 92 9.5 184t31.5 189t55.5 183t85 163t115.5 132t151 87.5t189 32.5q226 0 335.5 -130.5t109.5 -377.5q0 -92 -9.5 -184t-31.5 -189t-55.5 -183t-85 -163t-115.5 -132t-151 -87.5t-189 -32.5zM555 164q280 0 352 432l39 235
q15 92 15 162q0 273 -226 273q-280 0 -352 -432l-39 -236q-14 -85 -14 -162q0 -272 225 -272zM942 1585q-31 0 -61.5 9t-45 16.5t-47.5 25.5q-83 47 -139 47q-54 0 -129 -57l-67 107q94 116 225 116q31 0 61.5 -9t44 -16t47.5 -26q83 -47 140 -47q54 0 129 57l67 -106
q-95 -117 -225 -117z" />
    <glyph glyph-name="Odieresis" unicode="&#xd6;" 
d="M549 -25q-226 0 -335.5 130.5t-109.5 377.5q0 92 9.5 184t31.5 189t55.5 183t85 163t115.5 132t151 87.5t189 32.5q226 0 335.5 -130.5t109.5 -377.5q0 -92 -9.5 -184t-31.5 -189t-55.5 -183t-85 -163t-115.5 -132t-151 -87.5t-189 -32.5zM555 164q280 0 352 432l39 235
q15 92 15 162q0 273 -226 273q-280 0 -352 -432l-39 -236q-14 -85 -14 -162q0 -272 225 -272zM571 1593q-125 0 -125 88q0 8 7 52q18 112 147 112q125 0 125 -88q0 -14 -6 -51q-19 -113 -148 -113zM981 1593q-125 0 -125 88q0 15 6 52q18 112 148 112q125 0 125 -88
q0 -7 -7 -51q-19 -113 -147 -113z" />
    <glyph glyph-name="multiply" unicode="&#xd7;" 
d="M881 178l-263 320l-374 -320l-115 135l377 322l-262 317l141 121l262 -319l375 319l115 -135l-377 -322l262 -317z" />
    <glyph glyph-name="Oslash" unicode="&#xd8;" 
d="M549 -25q-182 0 -293 91l-125 -166l-143 92l164 215q-48 108 -48 276q0 92 9.5 184t31.5 189t55.5 183t85 163t115.5 132t151 87.5t189 32.5q183 0 293 -90l125 166l144 -92l-164 -215q47 -105 47 -277q0 -92 -9.5 -184t-31.5 -189t-55.5 -183t-85 -163t-115.5 -132
t-151 -87.5t-189 -32.5zM342 606q-14 -86 -14 -137q0 -29 2 -43l581 766q-58 74 -176 74q-282 0 -354 -426zM555 164q282 0 354 426l39 233q15 92 15 138q0 29 -2 43l-582 -766q58 -74 176 -74z" />
    <glyph glyph-name="Ugrave" unicode="&#xd9;" 
d="M750 1534l-187 350l195 82l129 -375zM293 1430h225l-141 -846q-27 -166 -27 -219q0 -100 45.5 -150.5t159.5 -50.5q49 0 88 9.5t67.5 23.5t50.5 42t36 53.5t26.5 70t19.5 80t17 94.5l150 893h225l-141 -848q-16 -94 -31 -161t-37.5 -135t-50 -113t-67 -85.5t-90 -63.5
t-117 -36t-150.5 -13q-226 0 -324 95t-98 278q0 95 31 285z" />
    <glyph glyph-name="Uacute" unicode="&#xda;" 
d="M293 1430h225l-141 -846q-27 -166 -27 -219q0 -100 45.5 -150.5t159.5 -50.5q49 0 88 9.5t67.5 23.5t50.5 42t36 53.5t26.5 70t19.5 80t17 94.5l150 893h225l-141 -848q-16 -94 -31 -161t-37.5 -135t-50 -113t-67 -85.5t-90 -63.5t-117 -36t-150.5 -13q-226 0 -324 95
t-98 278q0 95 31 285zM1071 1870l-276 -336l-129 72l227 360z" />
    <glyph glyph-name="Ucircumflex" unicode="&#xdb;" 
d="M723 1931h223l197 -309l-121 -82l-205 238l-278 -238l-107 88zM293 1430h225l-141 -846q-27 -166 -27 -219q0 -100 45.5 -150.5t159.5 -50.5q49 0 88 9.5t67.5 23.5t50.5 42t36 53.5t26.5 70t19.5 80t17 94.5l150 893h225l-141 -848q-16 -94 -31 -161t-37.5 -135
t-50 -113t-67 -85.5t-90 -63.5t-117 -36t-150.5 -13q-226 0 -324 95t-98 278q0 95 31 285z" />
    <glyph glyph-name="Udieresis" unicode="&#xdc;" 
d="M293 1430h225l-141 -846q-27 -166 -27 -219q0 -100 45.5 -150.5t159.5 -50.5q49 0 88 9.5t67.5 23.5t50.5 42t36 53.5t26.5 70t19.5 80t17 94.5l150 893h225l-141 -848q-16 -94 -31 -161t-37.5 -135t-50 -113t-67 -85.5t-90 -63.5t-117 -36t-150.5 -13q-226 0 -324 95
t-98 278q0 95 31 285zM584 1593q-125 0 -125 88q0 15 6 52q18 112 147 112q125 0 125 -88q0 -14 -6 -51q-19 -113 -147 -113zM993 1593q-125 0 -125 88q0 15 6 52q18 112 148 112q125 0 125 -88q0 -14 -6 -51q-19 -113 -148 -113z" />
    <glyph glyph-name="Yacute" unicode="&#xdd;" 
d="M641 0h-225l88 535l-330 895h240l127 -359l96 -309h12l205 309l242 359h258l-623 -885zM1065 1870l-277 -336l-129 72l228 360z" />
    <glyph glyph-name="Thorn" unicode="&#xde;" 
d="M309 0h-223l240 1430h223l-45 -275h287q179 0 272.5 -96t93.5 -258q0 -234 -129 -368t-356 -134h-312zM473 967l-80 -480h269q215 0 245 185l13 73q6 36 6 70q0 152 -187 152h-266z" />
    <glyph glyph-name="germandbls" unicode="&#xdf;" 
d="M305 0h-217l209 1251q23 133 101.5 199t203.5 66h283l-29 -179h-328l-47 -280h686l-30 -183l-389 -446q163 -21 251 -105.5t88 -232.5q0 -233 -160.5 -366.5t-441.5 -133.5h-143l29 177h129q159 0 248 56.5t106 180.5q10 76 10 102q0 95 -73 136t-232 41h-41l31 176
l369 420h-467z" />
    <glyph glyph-name="agrave" unicode="&#xe0;" 
d="M971 0h-219l41 250h-9q-66 -135 -150 -205t-214 -70q-160 0 -241 106t-81 304q0 104 18.5 203t58.5 189t97 157t140 107t182 40q233 0 293 -215h10l31 191h219zM508 154q123 0 217 110q88 100 109 228l34 210q15 92 -40.5 146.5t-165.5 54.5q-131 0 -209 -79.5
t-101 -215.5l-24 -145q-9 -56 -9 -88q0 -103 47.5 -162t141.5 -59zM664 1186l-187 350l195 82l129 -375z" />
    <glyph glyph-name="aacute" unicode="&#xe1;" 
d="M971 0h-219l41 250h-9q-66 -135 -150 -205t-214 -70q-160 0 -241 106t-81 304q0 104 18.5 203t58.5 189t97 157t140 107t182 40q233 0 293 -215h10l31 191h219zM508 154q123 0 217 110q88 100 109 228l34 210q15 92 -40.5 146.5t-165.5 54.5q-131 0 -209 -79.5
t-101 -215.5l-24 -145q-9 -56 -9 -88q0 -103 47.5 -162t141.5 -59zM985 1522l-276 -336l-129 71l227 361z" />
    <glyph glyph-name="acircumflex" unicode="&#xe2;" 
d="M971 0h-219l41 250h-9q-66 -135 -150 -205t-214 -70q-160 0 -241 106t-81 304q0 104 18.5 203t58.5 189t97 157t140 107t182 40q233 0 293 -215h10l31 191h219zM508 154q123 0 217 110q88 100 109 228l34 210q15 92 -40.5 146.5t-165.5 54.5q-131 0 -209 -79.5
t-101 -215.5l-24 -145q-9 -56 -9 -88q0 -103 47.5 -162t141.5 -59zM637 1583h223l197 -309l-121 -82l-205 238l-278 -238l-107 88z" />
    <glyph glyph-name="atilde" unicode="&#xe3;" 
d="M971 0h-219l41 250h-9q-66 -135 -150 -205t-214 -70q-160 0 -241 106t-81 304q0 104 18.5 203t58.5 189t97 157t140 107t182 40q233 0 293 -215h10l31 191h219zM508 154q123 0 217 110q88 100 109 228l34 210q15 92 -40.5 146.5t-165.5 54.5q-131 0 -209 -79.5
t-101 -215.5l-24 -145q-9 -56 -9 -88q0 -103 47.5 -162t141.5 -59zM850 1237q-44 0 -78 13t-76 38q-76 47 -139 47q-54 0 -129 -57l-68 106q95 117 226 117q31 0 60 -8t47 -17t46 -26q76 -47 140 -47q54 0 129 57l67 -106q-95 -117 -225 -117z" />
    <glyph glyph-name="adieresis" unicode="&#xe4;" 
d="M971 0h-219l41 250h-9q-66 -135 -150 -205t-214 -70q-160 0 -241 106t-81 304q0 104 18.5 203t58.5 189t97 157t140 107t182 40q233 0 293 -215h10l31 191h219zM508 154q123 0 217 110q88 100 109 228l34 210q15 92 -40.5 146.5t-165.5 54.5q-131 0 -209 -79.5
t-101 -215.5l-24 -145q-9 -56 -9 -88q0 -103 47.5 -162t141.5 -59zM498 1245q-125 0 -125 88q0 13 6 51q19 113 147 113q125 0 125 -88q0 -13 -6 -51q-19 -113 -147 -113zM907 1245q-125 0 -125 88q0 13 6 51q19 113 148 113q125 0 125 -88q0 -13 -6 -51q-19 -113 -148 -113
z" />
    <glyph glyph-name="aring" unicode="&#xe5;" 
d="M971 0h-219l41 250h-9q-66 -135 -150 -205t-214 -70q-160 0 -241 106t-81 304q0 104 18.5 203t58.5 189t97 157t140 107t182 40q233 0 293 -215h10l31 191h219zM508 154q123 0 217 110q88 100 109 228l34 210q15 92 -40.5 146.5t-165.5 54.5q-131 0 -209 -79.5
t-101 -215.5l-24 -145q-9 -56 -9 -88q0 -103 47.5 -162t141.5 -59zM688 1159q-100 0 -165.5 64t-65.5 161q0 122 88 205.5t211 83.5q100 0 165.5 -64t65.5 -161q0 -122 -88 -205.5t-211 -83.5zM700 1280q111 0 129 111q11 68 11 75q0 40 -25 63t-72 23q-111 0 -129 -110
q-10 -62 -10 -76q0 -40 24.5 -63t71.5 -23z" />
    <glyph glyph-name="ae" unicode="&#xe6;" 
d="M238 -25q-110 0 -177 69t-67 198q0 165 113.5 258.5t312.5 99.5l108 4l17 103q8 41 8 79q0 148 -131 148q-65 0 -113 -38.5t-90 -115.5l-123 82q110 219 336 219q112 0 173.5 -50t66.5 -134h8q96 184 287 184q117 0 187.5 -69.5t70.5 -188.5q0 -51 -14 -97t-51.5 -91.5
t-95.5 -79t-153.5 -55.5t-218.5 -25l-6 -39q-8 -49 -8 -104q0 -97 36 -149t103 -52q65 0 107.5 44t81.5 128l143 -65q-116 -263 -344 -263q-117 0 -192.5 66.5t-84.5 194.5h-10q-63 -261 -280 -261zM289 123q72 0 124.5 56.5t67.5 152.5l25 141l-90 -2q-109 -5 -169 -42
t-73 -124q-6 -37 -6 -67q0 -56 33 -85.5t88 -29.5zM946 934q-88 0 -147 -83t-82 -220l-4 -27q183 6 263.5 63.5t80.5 149.5q0 57 -28.5 87t-82.5 30z" />
    <glyph glyph-name="ccedilla" unicode="&#xe7;" 
d="M700 1081q164 0 258.5 -70.5t126.5 -189.5l-182 -80q-26 85 -77.5 121.5t-145.5 36.5q-115 0 -191 -74t-100 -219l-20 -123q-9 -56 -9 -96q0 -113 59 -171t169 -58q51 0 91 14.5t101.5 69.5t137.5 159l145 -90q-99 -160 -204 -241.5t-249 -92.5l-35 -96l5 -8q39 10 79 10
q59 0 94 -31t35 -92q0 -90 -73.5 -139t-184.5 -49q-80 0 -135 25t-80 63l91 92q41 -55 122 -55q43 0 71 17t28 48q0 64 -129 78l-54 6l50 134q-173 19 -265 135.5t-92 306.5q0 191 70.5 341t199 234t293.5 84z" />
    <glyph glyph-name="egrave" unicode="&#xe8;" 
d="M571 -25q-215 0 -325.5 115.5t-110.5 337.5q0 290 166 471.5t432 181.5q165 0 269 -75t104 -211q0 -53 -15 -97t-63 -92.5t-127.5 -83t-218 -59.5t-324.5 -31q-2 -18 -2 -41q0 -53 11.5 -94t37.5 -75t74.5 -52t116.5 -18q101 0 172 45.5t158 164.5l143 -92
q-93 -145 -210 -220t-288 -75zM713 915q-136 0 -222 -81.5t-112 -241.5l-4 -23q132 5 229 20.5t150.5 35.5t85 48t40.5 52.5t9 54.5q0 62 -42.5 98.5t-133.5 36.5zM713 1186l-187 350l195 82l129 -375z" />
    <glyph glyph-name="eacute" unicode="&#xe9;" 
d="M1034 1522l-276 -336l-129 71l227 361zM571 -25q-215 0 -325.5 115.5t-110.5 337.5q0 290 166 471.5t432 181.5q165 0 269 -75t104 -211q0 -53 -15 -97t-63 -92.5t-127.5 -83t-218 -59.5t-324.5 -31q-2 -18 -2 -41q0 -53 11.5 -94t37.5 -75t74.5 -52t116.5 -18
q101 0 172 45.5t158 164.5l143 -92q-93 -145 -210 -220t-288 -75zM713 915q-136 0 -222 -81.5t-112 -241.5l-4 -23q132 5 229 20.5t150.5 35.5t85 48t40.5 52.5t9 54.5q0 62 -42.5 98.5t-133.5 36.5z" />
    <glyph glyph-name="ecircumflex" unicode="&#xea;" 
d="M686 1583h223l197 -309l-121 -82l-205 238l-278 -238l-107 88zM571 -25q-215 0 -325.5 115.5t-110.5 337.5q0 290 166 471.5t432 181.5q165 0 269 -75t104 -211q0 -53 -15 -97t-63 -92.5t-127.5 -83t-218 -59.5t-324.5 -31q-2 -18 -2 -41q0 -53 11.5 -94t37.5 -75
t74.5 -52t116.5 -18q101 0 172 45.5t158 164.5l143 -92q-93 -145 -210 -220t-288 -75zM713 915q-136 0 -222 -81.5t-112 -241.5l-4 -23q132 5 229 20.5t150.5 35.5t85 48t40.5 52.5t9 54.5q0 62 -42.5 98.5t-133.5 36.5z" />
    <glyph glyph-name="edieresis" unicode="&#xeb;" 
d="M547 1245q-125 0 -125 88q0 13 6 51q19 113 147 113q125 0 125 -88q0 -13 -6 -51q-19 -113 -147 -113zM956 1245q-125 0 -125 88q0 7 7 51q19 113 147 113q125 0 125 -88q0 -13 -6 -51q-19 -113 -148 -113zM571 -25q-215 0 -325.5 115.5t-110.5 337.5q0 290 166 471.5
t432 181.5q165 0 269 -75t104 -211q0 -53 -15 -97t-63 -92.5t-127.5 -83t-218 -59.5t-324.5 -31q-2 -18 -2 -41q0 -53 11.5 -94t37.5 -75t74.5 -52t116.5 -18q101 0 172 45.5t158 164.5l143 -92q-93 -145 -210 -220t-288 -75zM713 915q-136 0 -222 -81.5t-112 -241.5l-4 -23
q132 5 229 20.5t150.5 35.5t85 48t40.5 52.5t9 54.5q0 62 -42.5 98.5t-133.5 36.5z" />
    <glyph glyph-name="igrave" unicode="&#xec;" 
d="M578 -25q-94 0 -145.5 50.5t-51.5 134.5q0 47 14 116l117 603h-356l28 178h580l-172 -887l41 -16l354 325l125 -112l-160 -160q-131 -131 -211 -181.5t-163 -50.5zM645 1186l-186 350l194 82l129 -375z" />
    <glyph glyph-name="iacute" unicode="&#xed;" 
d="M967 1522l-277 -336l-129 71l227 361zM578 -25q-94 0 -145.5 50.5t-51.5 134.5q0 47 14 116l117 603h-356l28 178h580l-172 -887l41 -16l354 325l125 -112l-160 -160q-131 -131 -211 -181.5t-163 -50.5z" />
    <glyph glyph-name="icircumflex" unicode="&#xee;" 
d="M618 1583h224l196 -309l-120 -82l-205 238l-279 -238l-106 88zM578 -25q-94 0 -145.5 50.5t-51.5 134.5q0 47 14 116l117 603h-356l28 178h580l-172 -887l41 -16l354 325l125 -112l-160 -160q-131 -131 -211 -181.5t-163 -50.5z" />
    <glyph glyph-name="idieresis" unicode="&#xef;" 
d="M479 1245q-125 0 -125 88q0 13 6 51q19 113 148 113q125 0 125 -88q0 -13 -6 -51q-19 -113 -148 -113zM889 1245q-125 0 -125 88q0 13 6 51q19 113 148 113q124 0 124 -88q0 -13 -6 -51q-19 -113 -147 -113zM578 -25q-94 0 -145.5 50.5t-51.5 134.5q0 47 14 116l117 603
h-356l28 178h580l-172 -887l41 -16l354 325l125 -112l-160 -160q-131 -131 -211 -181.5t-163 -50.5z" />
    <glyph glyph-name="eth" unicode="&#xf0;" 
d="M1106 1436l-188 -113q210 -260 210 -621q0 -347 -160.5 -537t-443.5 -190q-197 0 -311.5 119t-114.5 318q0 263 147.5 439.5t370.5 176.5q107 0 185 -51t112 -139l13 6q-30 192 -185 379l-211 -125l-71 106l192 115q-125 115 -274 197h340q66 -51 112 -97l205 123z
M555 150q126 0 208 74t105 212l19 111q10 62 10 88q0 106 -62.5 161.5t-172.5 55.5q-126 0 -208.5 -74.5t-105.5 -212.5l-18 -110q-11 -68 -11 -88q0 -106 63 -161.5t173 -55.5z" />
    <glyph glyph-name="ntilde" unicode="&#xf1;" 
d="M311 0h-219l176 1057h219l-43 -250h11q63 135 145 204.5t203 69.5q138 0 212.5 -83t74.5 -222q0 -68 -17 -170l-100 -606h-219l102 614q12 74 12 119q0 77 -37.5 123.5t-115.5 46.5q-114 0 -199 -106q-90 -110 -110 -232zM868 1237q-31 0 -60 8t-47 17t-46 26
q-76 47 -140 47q-54 0 -129 -57l-67 106q95 117 225 117q44 0 78 -13t76 -38q76 -47 139 -47q54 0 129 57l68 -106q-95 -117 -226 -117z" />
    <glyph glyph-name="ograve" unicode="&#xf2;" 
d="M543 -25q-204 0 -317 122.5t-113 328.5q0 198 74.5 347.5t204 228.5t294.5 79q204 0 317 -122t113 -328q0 -298 -161 -477t-412 -179zM557 150q126 0 204.5 78t102.5 218l23 136q10 65 10 96q0 114 -59.5 171.5t-165.5 57.5q-126 0 -204.5 -78.5t-102.5 -218.5l-23 -135
q-10 -65 -10 -96q0 -114 59.5 -171.5t165.5 -57.5zM700 1186l-186 350l195 82l129 -375z" />
    <glyph glyph-name="oacute" unicode="&#xf3;" 
d="M1022 1522l-277 -336l-129 71l228 361zM543 -25q-204 0 -317 122.5t-113 328.5q0 198 74.5 347.5t204 228.5t294.5 79q204 0 317 -122t113 -328q0 -298 -161 -477t-412 -179zM557 150q126 0 204.5 78t102.5 218l23 136q10 65 10 96q0 114 -59.5 171.5t-165.5 57.5
q-126 0 -204.5 -78.5t-102.5 -218.5l-23 -135q-10 -65 -10 -96q0 -114 59.5 -171.5t165.5 -57.5z" />
    <glyph glyph-name="ocircumflex" unicode="&#xf4;" 
d="M674 1583h223l197 -309l-121 -82l-205 238l-279 -238l-106 88zM543 -25q-204 0 -317 122.5t-113 328.5q0 198 74.5 347.5t204 228.5t294.5 79q204 0 317 -122t113 -328q0 -298 -161 -477t-412 -179zM557 150q126 0 204.5 78t102.5 218l23 136q10 65 10 96
q0 114 -59.5 171.5t-165.5 57.5q-126 0 -204.5 -78.5t-102.5 -218.5l-23 -135q-10 -65 -10 -96q0 -114 59.5 -171.5t165.5 -57.5z" />
    <glyph glyph-name="otilde" unicode="&#xf5;" 
d="M543 -25q-204 0 -317 122.5t-113 328.5q0 198 74.5 347.5t204 228.5t294.5 79q204 0 317 -122t113 -328q0 -298 -161 -477t-412 -179zM557 150q126 0 204.5 78t102.5 218l23 136q10 65 10 96q0 114 -59.5 171.5t-165.5 57.5q-126 0 -204.5 -78.5t-102.5 -218.5l-23 -135
q-10 -65 -10 -96q0 -114 59.5 -171.5t165.5 -57.5zM887 1237q-44 0 -78 13t-76 38q-76 47 -139 47q-54 0 -129 -57l-68 106q95 117 226 117q31 0 60 -8t47 -17t46 -26q76 -47 139 -47q54 0 129 57l68 -106q-95 -117 -225 -117z" />
    <glyph glyph-name="odieresis" unicode="&#xf6;" 
d="M535 1245q-125 0 -125 88q0 13 6 51q19 113 147 113q125 0 125 -88q0 -13 -6 -51q-19 -113 -147 -113zM944 1245q-125 0 -125 88q0 13 6 51q19 113 148 113q125 0 125 -88q0 -13 -6 -51q-19 -113 -148 -113zM543 -25q-204 0 -317 122.5t-113 328.5q0 198 74.5 347.5
t204 228.5t294.5 79q204 0 317 -122t113 -328q0 -298 -161 -477t-412 -179zM557 150q126 0 204.5 78t102.5 218l23 136q10 65 10 96q0 114 -59.5 171.5t-165.5 57.5q-126 0 -204.5 -78.5t-102.5 -218.5l-23 -135q-10 -65 -10 -96q0 -114 59.5 -171.5t165.5 -57.5z" />
    <glyph glyph-name="divide" unicode="&#xf7;" 
d="M1102 537h-971l29 178h970zM547 88q-69 0 -102 26t-33 68q0 26 6 64q19 119 162 119q69 0 102 -26.5t33 -68.5q0 -26 -6 -63q-19 -119 -162 -119zM680 887q-69 0 -102 26t-33 68q0 25 6 63q19 119 162 119q69 0 102 -26t33 -68q0 -25 -6 -63q-19 -119 -162 -119z" />
    <glyph glyph-name="oslash" unicode="&#xf8;" 
d="M104 -90l-110 92l174 178q-55 107 -55 246q0 198 74.5 347.5t204 228.5t294.5 79q173 0 285 -92l153 158l111 -92l-174 -178q55 -107 55 -246q0 -298 -161 -477t-412 -179q-172 0 -285 93zM672 907q-125 0 -204 -78t-103 -217l-23 -137q-10 -65 -10 -96q0 -27 2 -41
l500 514q-58 55 -162 55zM557 150q127 0 205 77.5t102 216.5l23 138q10 65 10 96q0 27 -2 41l-500 -514q58 -55 162 -55z" />
    <glyph glyph-name="ugrave" unicode="&#xf9;" 
d="M743 0l43 250h-10q-63 -135 -145 -205t-203 -70q-138 0 -212.5 83.5t-74.5 222.5q0 68 17 170l100 606h219l-102 -615q-13 -80 -13 -118q0 -77 38 -123.5t116 -46.5q114 0 199 106q90 110 110 232l95 565h219l-176 -1057h-220zM692 1186l-186 350l194 82l129 -375z" />
    <glyph glyph-name="uacute" unicode="&#xfa;" 
d="M1014 1522l-277 -336l-129 71l228 361zM743 0l43 250h-10q-63 -135 -145 -205t-203 -70q-138 0 -212.5 83.5t-74.5 222.5q0 68 17 170l100 606h219l-102 -615q-13 -80 -13 -118q0 -77 38 -123.5t116 -46.5q114 0 199 106q90 110 110 232l95 565h219l-176 -1057h-220z" />
    <glyph glyph-name="ucircumflex" unicode="&#xfb;" 
d="M666 1583h223l196 -309l-120 -82l-205 238l-279 -238l-106 88zM743 0l43 250h-10q-63 -135 -145 -205t-203 -70q-138 0 -212.5 83.5t-74.5 222.5q0 68 17 170l100 606h219l-102 -615q-13 -80 -13 -118q0 -77 38 -123.5t116 -46.5q114 0 199 106q90 110 110 232l95 565
h219l-176 -1057h-220z" />
    <glyph glyph-name="udieresis" unicode="&#xfc;" 
d="M526 1245q-125 0 -125 88q0 7 7 51q19 113 147 113q125 0 125 -88q0 -13 -6 -51q-19 -113 -148 -113zM936 1245q-125 0 -125 88q0 13 6 51q19 113 148 113q125 0 125 -88q0 -7 -7 -51q-19 -113 -147 -113zM743 0l43 250h-10q-63 -135 -145 -205t-203 -70
q-138 0 -212.5 83.5t-74.5 222.5q0 68 17 170l100 606h219l-102 -615q-13 -80 -13 -118q0 -77 38 -123.5t116 -46.5q114 0 199 106q90 110 110 232l95 565h219l-176 -1057h-220z" />
    <glyph glyph-name="yacute" unicode="&#xfd;" 
d="M432 -434q-139 0 -235.5 35.5t-161.5 113.5l139 140q88 -111 260 -111q137 0 215.5 72.5t106.5 246.5l35 220h-9q-63 -135 -145 -205t-203 -70q-138 0 -212.5 83t-74.5 222q0 68 17 170l94 574h219l-96 -582q-12 -74 -12 -119q0 -77 37.5 -123.5t115.5 -46.5
q113 0 199 107q90 111 110 231l89 533h219l-172 -1028q-39 -236 -176.5 -349.5t-358.5 -113.5zM1028 1522l-276 -336l-129 71l227 361z" />
    <glyph glyph-name="thorn" unicode="&#xfe;" 
d="M14 -410l320 1926h219l-117 -709h8q65 134 150 204t215 70q160 0 240.5 -105.5t80.5 -303.5q0 -131 -30.5 -253t-89 -222.5t-155.5 -161t-220 -60.5q-233 0 -293 215h-10l-99 -600h-219zM567 154q131 0 209 79.5t101 215.5l24 145q8 50 8 88q0 103 -47 162t-141 59
q-123 0 -217 -110q-88 -100 -109 -228l-35 -211q-15 -92 41 -146t166 -54z" />
    <glyph glyph-name="ydieresis" unicode="&#xff;" 
d="M432 -434q-139 0 -235.5 35.5t-161.5 113.5l139 140q88 -111 260 -111q137 0 215.5 72.5t106.5 246.5l35 220h-9q-63 -135 -145 -205t-203 -70q-138 0 -212.5 83t-74.5 222q0 68 17 170l94 574h219l-96 -582q-12 -74 -12 -119q0 -77 37.5 -123.5t115.5 -46.5
q113 0 199 107q90 111 110 231l89 533h219l-172 -1028q-39 -236 -176.5 -349.5t-358.5 -113.5zM541 1245q-125 0 -125 88q0 13 6 51q19 113 147 113q125 0 125 -88q0 -13 -6 -51q-19 -113 -147 -113zM950 1245q-125 0 -125 88q0 13 6 51q19 113 148 113q125 0 125 -88
q0 -13 -6 -51q-19 -113 -148 -113z" />
    <glyph glyph-name="Amacron" unicode="&#x100;" 
d="M1102 0h-234l-41 381h-465l-167 -381h-238l657 1430h308zM809 571l-68 633h-18l-279 -633h365zM500 1636l28 166h592l-28 -166h-592z" />
    <glyph glyph-name="amacron" unicode="&#x101;" 
d="M971 0h-219l41 250h-9q-66 -135 -150 -205t-214 -70q-160 0 -241 106t-81 304q0 104 18.5 203t58.5 189t97 157t140 107t182 40q233 0 293 -215h10l31 191h219zM508 154q123 0 217 110q88 100 109 228l34 210q15 92 -40.5 146.5t-165.5 54.5q-131 0 -209 -79.5
t-101 -215.5l-24 -145q-9 -56 -9 -88q0 -103 47.5 -162t141.5 -59zM406 1288l28 166h592l-29 -166h-591z" />
    <glyph glyph-name="Abreve" unicode="&#x102;" 
d="M1102 0h-234l-41 381h-465l-167 -381h-238l657 1430h308zM809 571l-68 633h-18l-279 -633h365zM797 1546q-255 0 -322 324l127 61l35 -71q40 -84 73 -118t95 -34q30 0 53.5 8t49 31t44.5 45t56 70l53 69l131 -61q-26 -53 -48 -90.5t-59 -85t-75.5 -77t-94 -50.5
t-118.5 -21z" />
    <glyph glyph-name="abreve" unicode="&#x103;" 
d="M971 0h-219l41 250h-9q-66 -135 -150 -205t-214 -70q-160 0 -241 106t-81 304q0 104 18.5 203t58.5 189t97 157t140 107t182 40q233 0 293 -215h10l31 191h219zM508 154q123 0 217 110q88 100 109 228l34 210q15 92 -40.5 146.5t-165.5 54.5q-131 0 -209 -79.5
t-101 -215.5l-24 -145q-9 -56 -9 -88q0 -103 47.5 -162t141.5 -59zM702 1198q-64 0 -116 21t-85 52t-58.5 76.5t-38.5 86t-23 88.5l127 61l35 -72q40 -84 73 -117.5t95 -33.5q40 0 72.5 18.5t56.5 45t73 89.5l54 70l131 -61q-26 -52 -48 -90t-59 -85.5t-76 -77t-94.5 -50.5
t-118.5 -21z" />
    <glyph glyph-name="Aogonek" unicode="&#x104;" 
d="M-43 0l657 1430h308l180 -1430q-147 -93 -195.5 -146.5t-48.5 -93.5q0 -30 19.5 -46.5t52.5 -16.5q63 0 112 55l93 -90q-79 -90 -222 -90q-97 0 -159 41.5t-62 120.5q0 158 271 256v10h-95l-41 381h-465l-167 -381h-238zM809 571l-68 633h-18l-279 -633h365z" />
    <glyph glyph-name="aogonek" unicode="&#x105;" 
d="M1147 1057l-176 -1057q-147 -93 -194.5 -146.5t-47.5 -93.5q0 -30 20 -46.5t54 -16.5q61 0 110 55l93 -90q-79 -90 -222 -90q-97 0 -159 41.5t-62 120.5q0 159 268 256v10h-79l41 250h-9q-66 -135 -150 -205t-214 -70q-160 0 -241 106t-81 304q0 104 18.5 203t58.5 189
t97 157t140 107t182 40q233 0 293 -215h10l31 191h219zM508 154q123 0 217 110q88 100 109 228l34 210q15 92 -40.5 146.5t-165.5 54.5q-131 0 -209 -79.5t-101 -215.5l-24 -145q-9 -56 -9 -88q0 -103 47.5 -162t141.5 -59z" />
    <glyph glyph-name="Cacute" unicode="&#x106;" 
d="M590 -25q-230 0 -342.5 136t-112.5 393q0 200 43.5 372.5t124.5 301.5t206 202.5t279 73.5q103 0 181.5 -28.5t127.5 -80t76.5 -115t36.5 -140.5l-211 -54q-8 53 -21.5 91t-38.5 71.5t-66.5 50.5t-100.5 17q-146 0 -235.5 -113.5t-124.5 -321.5l-35 -208
q-17 -104 -17 -172q0 -287 250 -287q106 0 176 64t140 202l186 -72q-86 -192 -208.5 -287.5t-313.5 -95.5zM1104 1870l-277 -336l-129 72l228 360z" />
    <glyph glyph-name="cacute" unicode="&#x107;" 
d="M1014 1522l-277 -336l-129 71l228 361zM555 -25q-201 0 -309.5 120t-108.5 327q0 191 70.5 341t199 234t293.5 84q164 0 258.5 -70.5t126.5 -189.5l-182 -80q-26 85 -77.5 121.5t-145.5 36.5q-115 0 -191 -74t-100 -219l-20 -123q-9 -56 -9 -96q0 -113 59 -171t169 -58
q51 0 91 14.5t101.5 69.5t137.5 159l145 -90q-109 -173 -224 -254.5t-284 -81.5z" />
    <glyph glyph-name="Ccircumflex" unicode="&#x108;" 
d="M590 -25q-230 0 -342.5 136t-112.5 393q0 200 43.5 372.5t124.5 301.5t206 202.5t279 73.5q103 0 181.5 -28.5t127.5 -80t76.5 -115t36.5 -140.5l-211 -54q-8 53 -21.5 91t-38.5 71.5t-66.5 50.5t-100.5 17q-146 0 -235.5 -113.5t-124.5 -321.5l-35 -208
q-17 -104 -17 -172q0 -287 250 -287q106 0 176 64t140 202l186 -72q-86 -192 -208.5 -287.5t-313.5 -95.5zM756 1931h223l197 -309l-121 -82l-205 238l-279 -238l-106 88z" />
    <glyph glyph-name="ccircumflex" unicode="&#x109;" 
d="M666 1583h223l196 -309l-120 -82l-205 238l-279 -238l-106 88zM555 -25q-201 0 -309.5 120t-108.5 327q0 191 70.5 341t199 234t293.5 84q164 0 258.5 -70.5t126.5 -189.5l-182 -80q-26 85 -77.5 121.5t-145.5 36.5q-115 0 -191 -74t-100 -219l-20 -123q-9 -56 -9 -96
q0 -113 59 -171t169 -58q51 0 91 14.5t101.5 69.5t137.5 159l145 -90q-109 -173 -224 -254.5t-284 -81.5z" />
    <glyph glyph-name="Cdotaccent" unicode="&#x10a;" 
d="M819 1577q-139 0 -139 100q0 14 8 64q19 119 160 119q73 0 106 -28t33 -73q0 -13 -8 -63q-19 -119 -160 -119zM590 -25q-230 0 -342.5 136t-112.5 393q0 200 43.5 372.5t124.5 301.5t206 202.5t279 73.5q103 0 181.5 -28.5t127.5 -80t76.5 -115t36.5 -140.5l-211 -54
q-8 53 -21.5 91t-38.5 71.5t-66.5 50.5t-100.5 17q-146 0 -235.5 -113.5t-124.5 -321.5l-35 -208q-17 -104 -17 -172q0 -287 250 -287q106 0 176 64t140 202l186 -72q-86 -192 -208.5 -287.5t-313.5 -95.5z" />
    <glyph glyph-name="cdotaccent" unicode="&#x10b;" 
d="M555 -25q-201 0 -309.5 120t-108.5 327q0 191 70.5 341t199 234t293.5 84q164 0 258.5 -70.5t126.5 -189.5l-182 -80q-26 85 -77.5 121.5t-145.5 36.5q-115 0 -191 -74t-100 -219l-20 -123q-9 -56 -9 -96q0 -113 59 -171t169 -58q51 0 91 14.5t101.5 69.5t137.5 159
l145 -90q-109 -173 -224 -254.5t-284 -81.5zM729 1229q-139 0 -139 100q0 14 8 64q19 118 160 118q139 0 139 -100q0 -13 -8 -63q-19 -119 -160 -119z" />
    <glyph glyph-name="Ccaron" unicode="&#x10c;" 
d="M590 -25q-230 0 -342.5 136t-112.5 393q0 200 43.5 372.5t124.5 301.5t206 202.5t279 73.5q103 0 181.5 -28.5t127.5 -80t76.5 -115t36.5 -140.5l-211 -54q-8 53 -21.5 91t-38.5 71.5t-66.5 50.5t-100.5 17q-146 0 -235.5 -113.5t-124.5 -321.5l-35 -208
q-17 -104 -17 -172q0 -287 250 -287q106 0 176 64t140 202l186 -72q-86 -192 -208.5 -287.5t-313.5 -95.5zM924 1559h-224l-194 309l119 82l204 -238l279 238l106 -88z" />
    <glyph glyph-name="ccaron" unicode="&#x10d;" 
d="M834 1210h-224l-194 310l119 82l204 -238l279 238l106 -89zM555 -25q-201 0 -309.5 120t-108.5 327q0 191 70.5 341t199 234t293.5 84q164 0 258.5 -70.5t126.5 -189.5l-182 -80q-26 85 -77.5 121.5t-145.5 36.5q-115 0 -191 -74t-100 -219l-20 -123q-9 -56 -9 -96
q0 -113 59 -171t169 -58q51 0 91 14.5t101.5 69.5t137.5 159l145 -90q-109 -173 -224 -254.5t-284 -81.5z" />
    <glyph glyph-name="Dcaron" unicode="&#x10e;" 
d="M86 0l240 1430h381q226 0 348.5 -131t122.5 -357q0 -461 -174 -701.5t-492 -240.5h-426zM342 186h180q313 0 379 394l37 223q14 86 14 160q0 280 -270 280h-164zM807 1559h-223l-195 309l119 82l205 -238l278 238l107 -88z" />
    <glyph glyph-name="dcaron" unicode="&#x10f;" 
d="M358 -25q-147 0 -221 106t-74 304q0 131 28 252.5t81 222t142 161t200 60.5q212 0 270 -215h9l108 650h213l-254 -1516h-213l39 227h-10q-39 -81 -79 -133t-101 -85.5t-138 -33.5zM446 154q95 0 175 86q83 90 102 217l41 241q18 96 -33.5 150.5t-146.5 54.5
q-114 0 -180 -79.5t-89 -217.5l-22 -135q-10 -62 -10 -109q0 -97 42.5 -152.5t120.5 -55.5zM1171 1112l74 404h232l-172 -404h-134z" />
    <glyph glyph-name="Dcroat" unicode="&#x110;" 
d="M86 0l113 670h-146l29 170h145l99 590h381q226 0 348.5 -131t122.5 -357q0 -461 -174 -701.5t-492 -240.5h-426zM342 186h180q313 0 379 394l37 223q14 86 14 160q0 280 -270 280h-164l-67 -409h260l-27 -160h-260z" />
    <glyph glyph-name="dcroat" unicode="&#x111;" 
d="M752 0l41 250h-9q-66 -135 -150 -205t-214 -70q-160 0 -241 106t-81 304q0 104 18.5 203t58.5 189t97 157t140 107t182 40q233 0 293 -215h10l57 357h-299l27 163h301l21 130h219l-21 -130h123l-27 -163h-124l-203 -1223h-219zM508 154q123 0 217 110q88 100 109 228
l34 210q15 92 -40.5 146.5t-165.5 54.5q-131 0 -209 -79.5t-101 -215.5l-24 -145q-9 -56 -9 -88q0 -103 47.5 -162t141.5 -59z" />
    <glyph glyph-name="Emacron" unicode="&#x112;" 
d="M981 0h-895l240 1430h893l-33 -191h-668l-72 -420h646l-33 -190h-643l-74 -439h672zM508 1636l29 166h591l-28 -166h-592z" />
    <glyph glyph-name="emacron" unicode="&#x113;" 
d="M571 -25q-215 0 -325.5 115.5t-110.5 337.5q0 290 166 471.5t432 181.5q165 0 269 -75t104 -211q0 -53 -15 -97t-63 -92.5t-127.5 -83t-218 -59.5t-324.5 -31q-2 -18 -2 -41q0 -53 11.5 -94t37.5 -75t74.5 -52t116.5 -18q101 0 172 45.5t158 164.5l143 -92
q-93 -145 -210 -220t-288 -75zM713 915q-136 0 -222 -81.5t-112 -241.5l-4 -23q132 5 229 20.5t150.5 35.5t85 48t40.5 52.5t9 54.5q0 62 -42.5 98.5t-133.5 36.5zM455 1288l28 166h592l-28 -166h-592z" />
    <glyph glyph-name="Ebreve" unicode="&#x114;" 
d="M981 0h-895l240 1430h893l-33 -191h-668l-72 -420h646l-33 -190h-643l-74 -439h672zM805 1546q-255 0 -322 324l127 61l35 -71q40 -84 73 -118t95 -34q30 0 53.5 8t49 31t44.5 45t56 70l53 69l131 -61q-26 -53 -48 -90.5t-59 -85t-75.5 -77t-94 -50.5t-118.5 -21z" />
    <glyph glyph-name="ebreve" unicode="&#x115;" 
d="M571 -25q-215 0 -325.5 115.5t-110.5 337.5q0 290 166 471.5t432 181.5q165 0 269 -75t104 -211q0 -53 -15 -97t-63 -92.5t-127.5 -83t-218 -59.5t-324.5 -31q-2 -18 -2 -41q0 -53 11.5 -94t37.5 -75t74.5 -52t116.5 -18q101 0 172 45.5t158 164.5l143 -92
q-93 -145 -210 -220t-288 -75zM713 915q-136 0 -222 -81.5t-112 -241.5l-4 -23q132 5 229 20.5t150.5 35.5t85 48t40.5 52.5t9 54.5q0 62 -42.5 98.5t-133.5 36.5zM752 1198q-255 0 -322 324l127 61l35 -72q40 -84 73 -117.5t95 -33.5q57 0 95.5 31.5t107.5 121.5l53 70
l131 -61q-26 -53 -48 -90.5t-59 -85t-75.5 -77t-94 -50.5t-118.5 -21z" />
    <glyph glyph-name="Edotaccent" unicode="&#x116;" 
d="M803 1577q-139 0 -139 100q0 14 8 64q19 119 159 119q73 0 106.5 -28t33.5 -73q0 -13 -8 -63q-19 -119 -160 -119zM981 0h-895l240 1430h893l-33 -191h-668l-72 -420h646l-33 -190h-643l-74 -439h672z" />
    <glyph glyph-name="edotaccent" unicode="&#x117;" 
d="M571 -25q-215 0 -325.5 115.5t-110.5 337.5q0 290 166 471.5t432 181.5q165 0 269 -75t104 -211q0 -53 -15 -97t-63 -92.5t-127.5 -83t-218 -59.5t-324.5 -31q-2 -18 -2 -41q0 -53 11.5 -94t37.5 -75t74.5 -52t116.5 -18q101 0 172 45.5t158 164.5l143 -92
q-93 -145 -210 -220t-288 -75zM713 915q-136 0 -222 -81.5t-112 -241.5l-4 -23q132 5 229 20.5t150.5 35.5t85 48t40.5 52.5t9 54.5q0 62 -42.5 98.5t-133.5 36.5zM750 1229q-73 0 -106.5 27.5t-33.5 72.5q0 14 8 64q19 118 160 118q73 0 106.5 -27.5t33.5 -72.5
q0 -7 -9 -63q-19 -119 -159 -119z" />
    <glyph glyph-name="Eogonek" unicode="&#x118;" 
d="M86 0l240 1430h893l-33 -191h-668l-72 -420h646l-33 -190h-643l-74 -439h672l-33 -190q-147 -93 -195.5 -146.5t-48.5 -93.5q0 -30 20 -46.5t54 -16.5q62 0 111 55l92 -90q-79 -90 -221 -90q-97 0 -159.5 41.5t-62.5 120.5q0 162 271 256l-2 10h-754z" />
    <glyph glyph-name="eogonek" unicode="&#x119;" 
d="M659 -428q-97 0 -159 41.5t-62 120.5q0 148 219 239l-2 9q-40 -7 -84 -7q-215 0 -325.5 115.5t-110.5 337.5q0 290 166 471.5t432 181.5q165 0 269 -75t104 -211q0 -53 -15 -97t-63 -92.5t-127.5 -83t-218 -59.5t-324.5 -31q-2 -18 -2 -41q0 -53 11.5 -94t37.5 -75
t74.5 -52t116.5 -18q101 0 172 45.5t158 164.5l143 -92q-47 -72 -100.5 -126.5t-128.5 -104.5q-133 -89 -184.5 -153t-51.5 -119q0 -35 20.5 -52.5t53.5 -17.5q61 0 110 55l93 -90q-79 -90 -222 -90zM713 915q-136 0 -222 -81.5t-112 -241.5l-4 -23q132 5 229 20.5
t150.5 35.5t85 48t40.5 52.5t9 54.5q0 62 -42.5 98.5t-133.5 36.5z" />
    <glyph glyph-name="Ecaron" unicode="&#x11a;" 
d="M981 0h-895l240 1430h893l-33 -191h-668l-72 -420h646l-33 -190h-643l-74 -439h672zM907 1559h-223l-195 309l119 82l205 -238l279 238l106 -88z" />
    <glyph glyph-name="ecaron" unicode="&#x11b;" 
d="M854 1210h-223l-195 310l119 82l205 -238l278 238l107 -89zM571 -25q-215 0 -325.5 115.5t-110.5 337.5q0 290 166 471.5t432 181.5q165 0 269 -75t104 -211q0 -53 -15 -97t-63 -92.5t-127.5 -83t-218 -59.5t-324.5 -31q-2 -18 -2 -41q0 -53 11.5 -94t37.5 -75t74.5 -52
t116.5 -18q101 0 172 45.5t158 164.5l143 -92q-93 -145 -210 -220t-288 -75zM713 915q-136 0 -222 -81.5t-112 -241.5l-4 -23q132 5 229 20.5t150.5 35.5t85 48t40.5 52.5t9 54.5q0 62 -42.5 98.5t-133.5 36.5z" />
    <glyph glyph-name="Gcircumflex" unicode="&#x11c;" 
d="M719 1931h223l197 -309l-121 -82l-205 238l-278 -238l-107 88zM801 0l35 209h-15q-32 -55 -59 -91.5t-66.5 -72t-91 -53t-115.5 -17.5q-180 0 -276 133t-96 388q0 199 41.5 371t121 304t205.5 207.5t285 75.5q99 0 176 -29t125 -80.5t75.5 -114.5t37.5 -140l-211 -54
q-8 51 -21.5 88.5t-38 71.5t-66 52t-99.5 18q-282 0 -353 -432l-35 -205q-14 -86 -14 -168q0 -299 225 -299q124 0 204 83.5t102 209.5l18 104h-281l29 170h481l-120 -729h-203z" />
    <glyph glyph-name="gcircumflex" unicode="&#x11d;" 
d="M645 1583h223l197 -309l-121 -82l-205 238l-278 -238l-107 88zM442 -434q-137 0 -234 35.5t-163 113.5l139 140q88 -111 260 -111q135 0 212 69.5t106 245.5l39 230h-10q-65 -136 -150 -206.5t-215 -70.5q-162 0 -243 107.5t-81 298.5q0 98 18.5 191.5t58 179.5
t95.5 150.5t138 103t180 38.5q235 0 295 -215h10l31 191h219l-170 -1020q-78 -471 -535 -471zM514 193q119 0 215 108q91 101 111 223l28 174q15 94 -40.5 149.5t-165.5 55.5q-130 0 -208 -79.5t-102 -217.5l-16 -98q-8 -66 -8 -96q0 -104 46 -161.5t140 -57.5z" />
    <glyph glyph-name="Gbreve" unicode="&#x11e;" 
d="M801 0l35 209h-15q-32 -55 -59 -91.5t-66.5 -72t-91 -53t-115.5 -17.5q-180 0 -276 133t-96 388q0 199 41.5 371t121 304t205.5 207.5t285 75.5q99 0 176 -29t125 -80.5t75.5 -114.5t37.5 -140l-211 -54q-8 51 -21.5 88.5t-38 71.5t-66 52t-99.5 18q-282 0 -353 -432
l-35 -205q-14 -86 -14 -168q0 -299 225 -299q124 0 204 83.5t102 209.5l18 104h-281l29 170h481l-120 -729h-203zM784 1546q-64 0 -116 21t-85 52t-58.5 76.5t-38.5 86t-23 88.5l127 61l35 -71q40 -84 73 -118t95 -34q57 0 94.5 31.5t107.5 122.5l54 69l131 -61
q-26 -52 -48 -90t-59 -85.5t-76 -77t-94.5 -50.5t-118.5 -21z" />
    <glyph glyph-name="gbreve" unicode="&#x11f;" 
d="M442 -434q-137 0 -234 35.5t-163 113.5l139 140q88 -111 260 -111q135 0 212 69.5t106 245.5l39 230h-10q-65 -136 -150 -206.5t-215 -70.5q-162 0 -243 107.5t-81 298.5q0 98 18.5 191.5t58 179.5t95.5 150.5t138 103t180 38.5q235 0 295 -215h10l31 191h219l-170 -1020
q-78 -471 -535 -471zM514 193q119 0 215 108q91 101 111 223l28 174q15 94 -40.5 149.5t-165.5 55.5q-130 0 -208 -79.5t-102 -217.5l-16 -98q-8 -66 -8 -96q0 -104 46 -161.5t140 -57.5zM711 1198q-255 0 -322 324l127 61l35 -72q40 -84 73 -117.5t95 -33.5q57 0 95.5 31.5
t107.5 121.5l53 70l131 -61q-26 -53 -48 -90.5t-59 -85t-75.5 -77t-94 -50.5t-118.5 -21z" />
    <glyph glyph-name="Gdotaccent" unicode="&#x120;" 
d="M782 1577q-139 0 -139 100q0 14 8 64q19 119 160 119q73 0 106 -28t33 -73q0 -13 -8 -63q-19 -119 -160 -119zM801 0l35 209h-15q-32 -55 -59 -91.5t-66.5 -72t-91 -53t-115.5 -17.5q-180 0 -276 133t-96 388q0 199 41.5 371t121 304t205.5 207.5t285 75.5q99 0 176 -29
t125 -80.5t75.5 -114.5t37.5 -140l-211 -54q-8 51 -21.5 88.5t-38 71.5t-66 52t-99.5 18q-282 0 -353 -432l-35 -205q-14 -86 -14 -168q0 -299 225 -299q124 0 204 83.5t102 209.5l18 104h-281l29 170h481l-120 -729h-203z" />
    <glyph glyph-name="gdotaccent" unicode="&#x121;" 
d="M442 -434q-137 0 -234 35.5t-163 113.5l139 140q88 -111 260 -111q135 0 212 69.5t106 245.5l39 230h-10q-65 -136 -150 -206.5t-215 -70.5q-162 0 -243 107.5t-81 298.5q0 98 18.5 191.5t58 179.5t95.5 150.5t138 103t180 38.5q235 0 295 -215h10l31 191h219l-170 -1020
q-78 -471 -535 -471zM514 193q119 0 215 108q91 101 111 223l28 174q15 94 -40.5 149.5t-165.5 55.5q-130 0 -208 -79.5t-102 -217.5l-16 -98q-8 -66 -8 -96q0 -104 46 -161.5t140 -57.5zM709 1229q-73 0 -106.5 27.5t-33.5 72.5q0 8 9 64q9 58 46.5 88t112.5 30
q73 0 106.5 -27.5t33.5 -72.5q0 -7 -9 -63q-19 -119 -159 -119z" />
    <glyph glyph-name="Gcommaaccent" unicode="&#x122;" 
d="M338 -526l111 403h262l-226 -403h-147zM801 0l35 209h-15q-32 -55 -59 -91.5t-66.5 -72t-91 -53t-115.5 -17.5q-180 0 -276 133t-96 388q0 199 41.5 371t121 304t205.5 207.5t285 75.5q99 0 176 -29t125 -80.5t75.5 -114.5t37.5 -140l-211 -54q-8 51 -21.5 88.5t-38 71.5
t-66 52t-99.5 18q-282 0 -353 -432l-35 -205q-14 -86 -14 -168q0 -299 225 -299q124 0 204 83.5t102 209.5l18 104h-281l29 170h481l-120 -729h-203z" />
    <glyph glyph-name="gcommaaccent" unicode="&#x123;" 
d="M442 -434q-137 0 -234 35.5t-163 113.5l139 140q88 -111 260 -111q135 0 212 69.5t106 245.5l39 230h-10q-65 -136 -150 -206.5t-215 -70.5q-162 0 -243 107.5t-81 298.5q0 98 18.5 191.5t58 179.5t95.5 150.5t138 103t180 38.5q235 0 295 -215h10l31 191h219l-170 -1020
q-78 -471 -535 -471zM514 193q119 0 215 108q91 101 111 223l28 174q15 94 -40.5 149.5t-165.5 55.5q-130 0 -208 -79.5t-102 -217.5l-16 -98q-8 -66 -8 -96q0 -104 46 -161.5t140 -57.5zM563 1198l225 404h150l-111 -404h-264z" />
    <glyph glyph-name="Hcircumflex" unicode="&#x124;" 
d="M766 0l106 631h-479l-104 -631h-226l238 1430h225l-100 -611h477l101 611h225l-238 -1430h-225zM731 1931h223l197 -309l-121 -82l-205 238l-278 -238l-107 88z" />
    <glyph glyph-name="hcircumflex" unicode="&#x125;" 
d="M92 0l252 1516h219l-119 -709h11q63 135 145 204.5t203 69.5q138 0 212.5 -83t74.5 -222q0 -68 -17 -170l-100 -606h-219l102 614q12 74 12 119q0 77 -37.5 123.5t-115.5 46.5q-114 0 -199 -106q-90 -110 -110 -232l-95 -565h-219zM406 1956h223l196 -309l-120 -82
l-205 237l-279 -237l-106 88z" />
    <glyph glyph-name="Hbar" unicode="&#x126;" 
d="M766 0l106 631h-479l-104 -631h-226l175 1051h-127l28 172h127l35 207h225l-34 -213h477l35 213h225l-35 -207h127l-29 -172h-127l-174 -1051h-225zM426 819h477l39 238h-477z" />
    <glyph glyph-name="hbar" unicode="&#x127;" 
d="M92 0l203 1223h-127l29 163h125l22 130h219l-22 -130h297l-29 -163h-295l-70 -416h11q63 135 145 204.5t203 69.5q138 0 212.5 -83t74.5 -222q0 -68 -17 -170l-100 -606h-219l102 614q12 74 12 119q0 77 -37.5 123.5t-115.5 46.5q-114 0 -199 -106q-90 -110 -110 -232
l-95 -565h-219z" />
    <glyph glyph-name="Itilde" unicode="&#x128;" 
d="M975 0h-897l28 172h336l183 1085h-336l28 173h897l-28 -173h-336l-182 -1085h336zM965 1585q-31 0 -61.5 9t-45 16.5t-47.5 25.5q-83 47 -139 47q-54 0 -129 -57l-68 107q94 116 225 116q31 0 61.5 -9t45 -16.5t47.5 -25.5q83 -47 139 -47q54 0 129 57l68 -106
q-95 -117 -225 -117z" />
    <glyph glyph-name="itilde" unicode="&#x129;" 
d="M578 -25q-94 0 -145.5 50.5t-51.5 134.5q0 47 14 116l117 603h-356l28 178h580l-172 -887l41 -16l354 325l125 -112l-160 -160q-131 -131 -211 -181.5t-163 -50.5zM831 1237q-31 0 -60 8t-47 17t-46 26q-76 47 -139 47q-54 0 -129 -57l-68 106q95 117 225 117
q44 0 78 -13t76 -38q76 -47 139 -47q54 0 129 57l68 -106q-95 -117 -226 -117z" />
    <glyph glyph-name="Imacron" unicode="&#x12a;" 
d="M975 0h-897l28 172h336l183 1085h-336l28 173h897l-28 -173h-336l-182 -1085h336zM500 1636l28 166h592l-28 -166h-592z" />
    <glyph glyph-name="imacron" unicode="&#x12b;" 
d="M578 -25q-94 0 -145.5 50.5t-51.5 134.5q0 47 14 116l117 603h-356l28 178h580l-172 -887l41 -16l354 325l125 -112l-160 -160q-131 -131 -211 -181.5t-163 -50.5zM387 1288l29 166h592l-29 -166h-592z" />
    <glyph glyph-name="Ibreve" unicode="&#x12c;" 
d="M975 0h-897l28 172h336l183 1085h-336l28 173h897l-28 -173h-336l-182 -1085h336zM797 1546q-255 0 -322 324l127 61l35 -71q40 -84 73 -118t95 -34q30 0 53.5 8t49 31t44.5 45t56 70l53 69l131 -61q-26 -53 -48 -90.5t-59 -85t-75.5 -77t-94 -50.5t-118.5 -21z" />
    <glyph glyph-name="ibreve" unicode="&#x12d;" 
d="M578 -25q-94 0 -145.5 50.5t-51.5 134.5q0 47 14 116l117 603h-356l28 178h580l-172 -887l41 -16l354 325l125 -112l-160 -160q-131 -131 -211 -181.5t-163 -50.5zM684 1198q-255 0 -322 324l127 61l35 -72q40 -84 73 -117.5t95 -33.5q57 0 95.5 31.5t107.5 121.5l53 70
l131 -61q-26 -53 -48 -90.5t-59 -85t-75.5 -77t-94 -50.5t-118.5 -21z" />
    <glyph glyph-name="Iogonek" unicode="&#x12e;" 
d="M78 0l28 172h336l183 1085h-336l28 173h897l-28 -173h-336l-182 -1085h336l-29 -172q-146 -93 -194 -146.5t-48 -93.5q0 -30 20 -46.5t54 -16.5q62 0 111 55l92 -90q-79 -90 -222 -90q-97 0 -159 41.5t-62 120.5q0 161 273 256l-2 10h-760z" />
    <glyph glyph-name="iogonek" unicode="&#x12f;" 
d="M602 -428q-97 0 -159 41.5t-62 120.5q0 74 54.5 129t156.5 106l-2 11q-18 -3 -35 -3q-85 0 -129.5 52t-44.5 131q0 47 14 116l117 603h-356l28 178h580l-172 -887l41 -16l354 325l125 -112l-344 -324q-128 -118 -174.5 -177.5t-46.5 -105.5q0 -30 20 -46.5t54 -16.5
q61 0 110 55l92 -90q-79 -90 -221 -90zM696 1251q-73 0 -106 28t-33 73q0 13 8 63q19 119 160 119q139 0 139 -100q0 -14 -8 -64q-19 -119 -160 -119z" />
    <glyph glyph-name="Idotaccent" unicode="&#x130;" 
d="M975 0h-897l28 172h336l183 1085h-336l28 173h897l-28 -173h-336l-182 -1085h336zM795 1577q-73 0 -106.5 27.5t-33.5 72.5q0 8 9 64q19 119 159 119q73 0 106.5 -28t33.5 -73q0 -7 -9 -63q-19 -119 -159 -119z" />
    <glyph glyph-name="dotlessi" unicode="&#x131;" 
d="M578 -25q-94 0 -145.5 50.5t-51.5 134.5q0 47 14 116l117 603h-356l28 178h580l-172 -887l41 -16l354 325l125 -112l-160 -160q-131 -131 -211 -181.5t-163 -50.5z" />
    <glyph glyph-name="IJ" unicode="&#x132;" 
d="M1018 1430h225l-174 -1051q-34 -204 -161.5 -304t-329.5 -100q-189 0 -299.5 96t-122.5 267l213 43q10 -103 58 -159t163 -56q215 0 258 248zM213 610l137 820h225l-137 -820h-225z" />
    <glyph glyph-name="ij" unicode="&#x133;" 
d="M100 0l176 1057h220l-177 -1057h-219zM657 -434q-74 0 -137 47t-145 145l-66 80l146 119l196 -213l33 10l217 1303h219l-202 -1217q-21 -129 -85.5 -201.5t-175.5 -72.5zM430 1251q-73 0 -106 28t-33 73q0 13 8 63q19 119 160 119q139 0 139 -100q0 -14 -8 -64
q-19 -119 -160 -119zM1051 1251q-73 0 -106.5 28t-33.5 73q0 7 9 63q19 119 159 119q73 0 106.5 -27.5t33.5 -72.5q0 -8 -9 -64q-19 -119 -159 -119z" />
    <glyph glyph-name="Jcircumflex" unicode="&#x134;" 
d="M432 1430h727l-176 -1049q-34 -207 -157.5 -306.5t-321.5 -99.5q-184 0 -291.5 96t-118.5 267l213 43q4 -49 15.5 -85.5t34 -67t62.5 -46.5t97 -16q206 0 246 240l139 833h-502zM762 1931h223l197 -309l-121 -82l-205 238l-278 -238l-107 88z" />
    <glyph glyph-name="jcircumflex" unicode="&#x135;" 
d="M514 -434q-83 0 -146.5 54t-189.5 214l-104 127l147 117l287 -334l31 10l188 1125h-416l29 178h635l-203 -1217q-46 -274 -258 -274zM836 1583h223l196 -309l-120 -82l-205 238l-279 -238l-106 88z" />
    <glyph glyph-name="Kcommaaccent" unicode="&#x136;" 
d="M291 -526l110 403h263l-226 -403h-147zM864 0l-274 653l-219 -227l-72 -426h-225l237 1430h226l-115 -689h12l256 287l377 402h272l-577 -619l350 -811h-248z" />
    <glyph glyph-name="kcommaaccent" unicode="&#x137;" 
d="M250 -526l110 403h263l-226 -403h-147zM92 0l252 1516h219l-119 -709h11q127 274 362 274q126 0 201.5 -71t75.5 -185q0 -278 -402 -385l121 -278l29 -4l227 213l113 -113l-129 -133q-79 -79 -139 -114.5t-126 -35.5q-69 0 -113 39t-79 123l-139 328q220 57 317.5 131
t97.5 174q0 64 -41 100.5t-116 36.5q-118 0 -203 -110q-87 -111 -106 -230l-95 -567h-219z" />
    <glyph glyph-name="kgreenlandic" unicode="&#x138;" 
d="M852 0l-274 496l-203 -174l-53 -322h-220l177 1057h219l-80 -484h12l199 185l329 299h265l-475 -434l354 -623h-250z" />
    <glyph glyph-name="Lacute" unicode="&#x139;" 
d="M801 1870l-277 -336l-129 72l228 360zM1014 0h-877l238 1430h225l-207 -1240h654z" />
    <glyph glyph-name="lacute" unicode="&#x13a;" 
d="M528 -25q-98 0 -146 50.5t-48 138.5q0 42 12 106l205 1067h-348l30 179h572l-260 -1348l43 -14l364 329l123 -112l-176 -172q-130 -127 -210.5 -175.5t-160.5 -48.5zM993 1894l-276 -335l-129 71l227 361z" />
    <glyph glyph-name="Lcommaaccent" unicode="&#x13b;" 
d="M313 -526l111 403h262l-225 -403h-148zM1014 0h-877l238 1430h225l-207 -1240h654z" />
    <glyph glyph-name="lcommaaccent" unicode="&#x13c;" 
d="M266 -526l111 403h262l-225 -403h-148zM528 -25q-98 0 -146 50.5t-48 138.5q0 42 12 106l205 1067h-348l30 179h572l-260 -1348l43 -14l364 329l123 -112l-176 -172q-130 -127 -210.5 -175.5t-160.5 -48.5z" />
    <glyph glyph-name="Lcaron" unicode="&#x13d;" 
d="M1051 1516l-183 -408h-151l78 408h256zM1014 0h-877l238 1430h225l-207 -1240h654z" />
    <glyph glyph-name="lcaron" unicode="&#x13e;" 
d="M1225 1516l-183 -408h-151l78 408h256zM528 -25q-98 0 -146 50.5t-48 138.5q0 42 12 106l205 1067h-348l30 179h572l-260 -1348l43 -14l364 329l123 -112l-176 -172q-130 -127 -210.5 -175.5t-160.5 -48.5z" />
    <glyph glyph-name="Ldot" unicode="&#x13f;" 
d="M1014 0h-877l238 1430h225l-207 -1240h654zM909 530q-73 0 -106 28t-33 73q0 13 8 63q19 119 160 119q139 0 139 -100q0 -14 -8 -64q-19 -119 -160 -119z" />
    <glyph glyph-name="ldot" unicode="&#x140;" 
d="M528 -25q-98 0 -146 50.5t-48 138.5q0 42 12 106l205 1067h-348l30 179h572l-260 -1348l43 -14l364 329l123 -112l-176 -172q-130 -127 -210.5 -175.5t-160.5 -48.5zM983 647q-73 0 -106 28t-33 73q0 13 8 63q19 119 160 119q73 0 106 -28t33 -73q0 -13 -8 -63
q-19 -119 -160 -119z" />
    <glyph glyph-name="Lslash" unicode="&#x141;" 
d="M1055 190l-33 -190h-866l90 537l-168 -52l31 181l165 49l119 715h225l-108 -650l428 135l-31 -180l-428 -135l-67 -410h643z" />
    <glyph glyph-name="lslash" unicode="&#x142;" 
d="M528 -25q-98 0 -146 50.5t-48 138.5q0 36 12 106l62 318l-293 -90l28 172l297 92l111 575h-348l28 179h574l-133 -691l309 97l-29 -174l-315 -99l-92 -481l43 -14l364 329l123 -112l-176 -172q-130 -127 -210.5 -175.5t-160.5 -48.5z" />
    <glyph glyph-name="Nacute" unicode="&#x143;" 
d="M1079 1870l-276 -336l-129 72l227 360zM696 0l-229 1118h-16l-187 -1118h-201l238 1430h295l229 -1119h17l186 1119h201l-238 -1430h-295z" />
    <glyph glyph-name="nacute" unicode="&#x144;" 
d="M1004 1522l-277 -336l-129 71l227 361zM311 0h-219l176 1057h219l-43 -250h11q63 135 145 204.5t203 69.5q138 0 212.5 -83t74.5 -222q0 -68 -17 -170l-100 -606h-219l102 614q12 74 12 119q0 77 -37.5 123.5t-115.5 46.5q-114 0 -199 -106q-90 -110 -110 -232z" />
    <glyph glyph-name="Ncommaaccent" unicode="&#x145;" 
d="M262 -526l111 403h262l-225 -403h-148zM696 0l-229 1118h-16l-187 -1118h-201l238 1430h295l229 -1119h17l186 1119h201l-238 -1430h-295z" />
    <glyph glyph-name="ncommaaccent" unicode="&#x146;" 
d="M264 -526l111 403h262l-225 -403h-148zM311 0h-219l176 1057h219l-43 -250h11q63 135 145 204.5t203 69.5q138 0 212.5 -83t74.5 -222q0 -68 -17 -170l-100 -606h-219l102 614q12 74 12 119q0 77 -37.5 123.5t-115.5 46.5q-114 0 -199 -106q-90 -110 -110 -232z" />
    <glyph glyph-name="Ncaron" unicode="&#x147;" 
d="M696 0l-229 1118h-16l-187 -1118h-201l238 1430h295l229 -1119h17l186 1119h201l-238 -1430h-295zM899 1559h-223l-195 309l119 82l205 -238l278 238l107 -88z" />
    <glyph glyph-name="ncaron" unicode="&#x148;" 
d="M823 1210h-223l-194 310l118 82l205 -238l279 238l106 -89zM311 0h-219l176 1057h219l-43 -250h11q63 135 145 204.5t203 69.5q138 0 212.5 -83t74.5 -222q0 -68 -17 -170l-100 -606h-219l102 614q12 74 12 119q0 77 -37.5 123.5t-115.5 46.5q-114 0 -199 -106
q-90 -110 -110 -232z" />
    <glyph glyph-name="napostrophe" unicode="&#x149;" 
d="M139 0l176 1057h213l-41 -238h11q59 129 138.5 195.5t197.5 66.5q132 0 204 -81t72 -216q0 -82 -14 -168l-103 -616h-213l103 618q10 61 10 119q0 74 -36.5 120t-108.5 46q-58 0 -103 -24t-88 -74q-88 -101 -108 -221l-97 -584h-213zM111 1116l82 400h219l-176 -400h-125
z" />
    <glyph glyph-name="Eng" unicode="&#x14a;" 
d="M264 0h-201l238 1430h295l229 -1119h17l186 1119h201l-266 -1596q-23 -132 -80 -200t-158 -68q-73 0 -126.5 41t-152.5 153l-69 78l139 117l197 -209l35 8l43 246h-95l-229 1118h-16z" />
    <glyph glyph-name="eng" unicode="&#x14b;" 
d="M686 -434q-74 0 -131 45t-145 149l-58 68l144 117l184 -201l33 10l143 860q12 74 12 119q0 77 -37.5 123.5t-115.5 46.5q-114 0 -199 -106q-90 -110 -110 -232l-95 -565h-219l176 1057h219l-43 -250h11q63 135 145 204.5t203 69.5q138 0 212.5 -83t74.5 -222
q0 -68 -17 -170l-127 -766q-45 -274 -260 -274z" />
    <glyph glyph-name="Omacron" unicode="&#x14c;" 
d="M549 -25q-226 0 -335.5 130.5t-109.5 377.5q0 92 9.5 184t31.5 189t55.5 183t85 163t115.5 132t151 87.5t189 32.5q226 0 335.5 -130.5t109.5 -377.5q0 -92 -9.5 -184t-31.5 -189t-55.5 -183t-85 -163t-115.5 -132t-151 -87.5t-189 -32.5zM555 164q280 0 352 432l39 235
q15 92 15 162q0 273 -226 273q-280 0 -352 -432l-39 -236q-14 -85 -14 -162q0 -272 225 -272zM479 1636l29 166h592l-29 -166h-592z" />
    <glyph glyph-name="omacron" unicode="&#x14d;" 
d="M442 1288l29 166h592l-29 -166h-592zM543 -25q-204 0 -317 122.5t-113 328.5q0 198 74.5 347.5t204 228.5t294.5 79q204 0 317 -122t113 -328q0 -298 -161 -477t-412 -179zM557 150q126 0 204.5 78t102.5 218l23 136q10 65 10 96q0 114 -59.5 171.5t-165.5 57.5
q-126 0 -204.5 -78.5t-102.5 -218.5l-23 -135q-10 -65 -10 -96q0 -114 59.5 -171.5t165.5 -57.5z" />
    <glyph glyph-name="Obreve" unicode="&#x14e;" 
d="M549 -25q-226 0 -335.5 130.5t-109.5 377.5q0 92 9.5 184t31.5 189t55.5 183t85 163t115.5 132t151 87.5t189 32.5q226 0 335.5 -130.5t109.5 -377.5q0 -92 -9.5 -184t-31.5 -189t-55.5 -183t-85 -163t-115.5 -132t-151 -87.5t-189 -32.5zM555 164q280 0 352 432l39 235
q15 92 15 162q0 273 -226 273q-280 0 -352 -432l-39 -236q-14 -85 -14 -162q0 -272 225 -272zM776 1546q-64 0 -116 21t-85 52t-58.5 76.5t-38.5 86t-23 88.5l127 61l34 -71q40 -84 73 -118t95 -34q30 0 53.5 8t49 31t44.5 45t56 70l53 69l131 -61q-26 -53 -48 -90.5
t-59 -85t-75.5 -77t-94 -50.5t-118.5 -21z" />
    <glyph glyph-name="obreve" unicode="&#x14f;" 
d="M543 -25q-204 0 -317 122.5t-113 328.5q0 198 74.5 347.5t204 228.5t294.5 79q204 0 317 -122t113 -328q0 -298 -161 -477t-412 -179zM557 150q126 0 204.5 78t102.5 218l23 136q10 65 10 96q0 114 -59.5 171.5t-165.5 57.5q-126 0 -204.5 -78.5t-102.5 -218.5l-23 -135
q-10 -65 -10 -96q0 -114 59.5 -171.5t165.5 -57.5zM739 1198q-64 0 -116 21t-85 52t-58.5 76.5t-38.5 86t-23 88.5l127 61l35 -72q40 -84 73 -117.5t95 -33.5q40 0 72.5 18.5t56.5 45t73 89.5l54 70l131 -61q-26 -52 -48 -90t-59 -85.5t-76 -77t-94.5 -50.5t-118.5 -21z" />
    <glyph glyph-name="Ohungarumlaut" unicode="&#x150;" 
d="M870 1870l-270 -334l-121 63l221 363zM1233 1870l-270 -334l-121 63l221 363zM549 -25q-226 0 -335.5 130.5t-109.5 377.5q0 92 9.5 184t31.5 189t55.5 183t85 163t115.5 132t151 87.5t189 32.5q226 0 335.5 -130.5t109.5 -377.5q0 -92 -9.5 -184t-31.5 -189t-55.5 -183
t-85 -163t-115.5 -132t-151 -87.5t-189 -32.5zM555 164q280 0 352 432l39 235q15 92 15 162q0 273 -226 273q-280 0 -352 -432l-39 -236q-14 -85 -14 -162q0 -272 225 -272z" />
    <glyph glyph-name="ohungarumlaut" unicode="&#x151;" 
d="M834 1522l-271 -334l-121 63l222 363zM1196 1522l-270 -334l-121 63l221 363zM543 -25q-204 0 -317 122.5t-113 328.5q0 198 74.5 347.5t204 228.5t294.5 79q204 0 317 -122t113 -328q0 -298 -161 -477t-412 -179zM557 150q126 0 204.5 78t102.5 218l23 136q10 65 10 96
q0 114 -59.5 171.5t-165.5 57.5q-126 0 -204.5 -78.5t-102.5 -218.5l-23 -135q-10 -65 -10 -96q0 -114 59.5 -171.5t165.5 -57.5z" />
    <glyph glyph-name="OE" unicode="&#x152;" 
d="M1112 0h-563q-223 0 -337 129t-114 367q0 440 176 687t494 247h582l-29 -177h-332l-74 -442h310l-29 -176h-309l-78 -459h332zM598 176l180 1077h-28q-158 0 -254 -101.5t-131 -311.5l-37 -224q-13 -76 -13 -151q0 -142 70 -215.5t205 -73.5h8z" />
    <glyph glyph-name="oe" unicode="&#x153;" 
d="M827 -25q-99 0 -163.5 50.5t-81.5 148.5h-11q-27 -85 -97 -142t-171 -57q-135 0 -203.5 103t-68.5 291q0 143 28 271t80.5 227t134 156.5t181.5 57.5q94 0 152 -51.5t73 -128.5h8q105 180 291 180q118 0 190 -69.5t72 -184.5q0 -53 -14 -99t-50.5 -92.5t-94.5 -80
t-153.5 -55.5t-219.5 -25l-7 -39q-8 -49 -8 -104q0 -96 37 -148.5t105 -52.5q64 0 109.5 45.5t84.5 126.5l141 -65q-50 -120 -137 -191.5t-207 -71.5zM328 127q146 0 192 276l41 246q8 55 8 107q0 88 -32.5 131t-90.5 43q-146 0 -192 -277l-41 -245q-8 -55 -8 -107
q0 -88 32.5 -131t90.5 -43zM958 934q-85 0 -144 -82.5t-81 -220.5l-4 -27q344 11 344 217q0 54 -30 83.5t-85 29.5z" />
    <glyph glyph-name="Racute" unicode="&#x154;" 
d="M408 580l-97 -580h-223l238 1430h514q179 0 272.5 -96t93.5 -259q0 -203 -103 -328t-290 -151l234 -596h-240l-209 580h-190zM440 762h271q215 0 245 184l13 74q6 36 6 70q0 151 -182 151h-273zM1042 1870l-276 -336l-129 72l227 360z" />
    <glyph glyph-name="racute" unicode="&#x155;" 
d="M1063 1522l-277 -336l-129 71l228 361zM557 0h-219l145 879h-272l31 178h491l-51 -299h12q64 146 158 222.5t240 76.5h122l-36 -219h-185q-87 0 -143.5 -24t-99.5 -77q-89 -108 -105 -209z" />
    <glyph glyph-name="Rcommaaccent" unicode="&#x156;" 
d="M291 -526l110 403h263l-226 -403h-147zM408 580l-97 -580h-223l238 1430h514q179 0 272.5 -96t93.5 -259q0 -203 -103 -328t-290 -151l234 -596h-240l-209 580h-190zM440 762h271q215 0 245 184l13 74q6 36 6 70q0 151 -182 151h-273z" />
    <glyph glyph-name="rcommaaccent" unicode="&#x157;" 
d="M184 -526l111 403h262l-225 -403h-148zM557 0h-219l145 879h-272l31 178h491l-51 -299h12q64 146 158 222.5t240 76.5h122l-36 -219h-185q-87 0 -143.5 -24t-99.5 -77q-89 -108 -105 -209z" />
    <glyph glyph-name="Rcaron" unicode="&#x158;" 
d="M408 580l-97 -580h-223l238 1430h514q179 0 272.5 -96t93.5 -259q0 -203 -103 -328t-290 -151l234 -596h-240l-209 580h-190zM440 762h271q215 0 245 184l13 74q6 36 6 70q0 151 -182 151h-273zM862 1559h-223l-195 309l119 82l205 -238l279 238l106 -88z" />
    <glyph glyph-name="rcaron" unicode="&#x159;" 
d="M883 1210h-224l-194 310l119 82l204 -238l279 238l107 -89zM557 0h-219l145 879h-272l31 178h491l-51 -299h12q64 146 158 222.5t240 76.5h122l-36 -219h-185q-87 0 -143.5 -24t-99.5 -77q-89 -108 -105 -209z" />
    <glyph glyph-name="Sacute" unicode="&#x15a;" 
d="M547 -25q-179 0 -310 64t-196 174l154 139q129 -188 364 -188q145 0 228 70.5t83 191.5q0 82 -45.5 127t-154.5 70l-148 34q-315 70 -315 355q0 202 145 322t385 120q165 0 285 -60.5t182 -160.5l-155 -129q-111 164 -322 164q-135 0 -212 -64t-77 -172
q0 -81 48.5 -123.5t158.5 -68.5l143 -35q164 -40 239 -127.5t75 -226.5q0 -214 -149.5 -345t-405.5 -131zM1055 1870l-277 -336l-129 72l228 360z" />
    <glyph glyph-name="sacute" unicode="&#x15b;" 
d="M1006 1522l-277 -336l-129 71l227 361zM541 -25q-155 0 -270.5 49t-178.5 140l139 123q113 -144 326 -144q121 0 189.5 43.5t68.5 122.5q0 57 -34 83t-99 36l-154 27q-66 12 -114 29.5t-93.5 48.5t-69.5 82t-24 120q0 111 62 190.5t165.5 117.5t235.5 38q137 0 243 -41
t165 -114l-135 -129q-35 49 -107.5 82.5t-177.5 33.5q-113 0 -174.5 -40.5t-61.5 -114.5q0 -57 35 -81.5t103 -37.5l153 -29q52 -10 90 -21t80 -32t68.5 -48.5t43.5 -71t17 -99.5q0 -168 -133.5 -265.5t-357.5 -97.5z" />
    <glyph glyph-name="Scircumflex" unicode="&#x15c;" 
d="M547 -25q-179 0 -310 64t-196 174l154 139q129 -188 364 -188q145 0 228 70.5t83 191.5q0 82 -45.5 127t-154.5 70l-148 34q-315 70 -315 355q0 202 145 322t385 120q165 0 285 -60.5t182 -160.5l-155 -129q-111 164 -322 164q-135 0 -212 -64t-77 -172
q0 -81 48.5 -123.5t158.5 -68.5l143 -35q164 -40 239 -127.5t75 -226.5q0 -214 -149.5 -345t-405.5 -131zM707 1931h223l196 -309l-120 -82l-205 238l-279 -238l-106 88z" />
    <glyph glyph-name="scircumflex" unicode="&#x15d;" 
d="M657 1583h224l196 -309l-121 -82l-204 238l-279 -238l-106 88zM541 -25q-155 0 -270.5 49t-178.5 140l139 123q113 -144 326 -144q121 0 189.5 43.5t68.5 122.5q0 57 -34 83t-99 36l-154 27q-66 12 -114 29.5t-93.5 48.5t-69.5 82t-24 120q0 111 62 190.5t165.5 117.5
t235.5 38q137 0 243 -41t165 -114l-135 -129q-35 49 -107.5 82.5t-177.5 33.5q-113 0 -174.5 -40.5t-61.5 -114.5q0 -57 35 -81.5t103 -37.5l153 -29q52 -10 90 -21t80 -32t68.5 -48.5t43.5 -71t17 -99.5q0 -168 -133.5 -265.5t-357.5 -97.5z" />
    <glyph glyph-name="Scedilla" unicode="&#x15e;" 
d="M518 -428q-78 0 -133 25t-80 63l90 92q41 -55 119 -55q46 0 74 17t28 48q0 63 -129 78l-53 6l47 131q-156 12 -269 74t-171 162l154 139q129 -188 364 -188q145 0 228 70.5t83 191.5q0 82 -45.5 127t-154.5 70l-148 34q-315 70 -315 355q0 202 145 322t385 120
q165 0 285 -60.5t182 -160.5l-155 -129q-111 164 -322 164q-135 0 -212 -64t-77 -172q0 -81 48.5 -123.5t158.5 -68.5l143 -35q164 -40 239 -127.5t75 -226.5q0 -202 -135 -331.5t-367 -142.5l-35 -96l4 -8q39 10 82 10q58 0 92.5 -31t34.5 -88q0 -95 -73.5 -143.5
t-186.5 -48.5z" />
    <glyph glyph-name="scedilla" unicode="&#x15f;" 
d="M516 -428q-151 0 -213 88l92 92q41 -55 119 -55q46 0 74 17t28 48q0 63 -131 78l-53 6l47 131q-271 18 -387 187l139 123q113 -144 326 -144q121 0 189.5 43.5t68.5 122.5q0 57 -34 83t-99 36l-154 27q-66 12 -114 29.5t-93.5 48.5t-69.5 82t-24 120q0 111 62 190.5
t165.5 117.5t235.5 38q137 0 243 -41t165 -114l-135 -129q-35 49 -107.5 82.5t-177.5 33.5q-113 0 -174.5 -40.5t-61.5 -114.5q0 -57 35 -81.5t103 -37.5l153 -29q52 -10 90 -21t80 -32t68.5 -48.5t43.5 -71t17 -99.5q0 -158 -117 -253.5t-317 -107.5l-35 -96l6 -8
q36 10 80 10q58 0 92.5 -31t34.5 -88q0 -95 -73.5 -143.5t-186.5 -48.5z" />
    <glyph glyph-name="Scaron" unicode="&#x160;" 
d="M547 -25q-179 0 -310 64t-196 174l154 139q129 -188 364 -188q145 0 228 70.5t83 191.5q0 82 -45.5 127t-154.5 70l-148 34q-315 70 -315 355q0 202 145 322t385 120q165 0 285 -60.5t182 -160.5l-155 -129q-111 164 -322 164q-135 0 -212 -64t-77 -172
q0 -81 48.5 -123.5t158.5 -68.5l143 -35q164 -40 239 -127.5t75 -226.5q0 -214 -149.5 -345t-405.5 -131zM874 1559h-223l-194 309l118 82l205 -238l279 238l106 -88z" />
    <glyph glyph-name="scaron" unicode="&#x161;" 
d="M825 1210h-223l-194 310l118 82l205 -238l279 238l106 -89zM541 -25q-155 0 -270.5 49t-178.5 140l139 123q113 -144 326 -144q121 0 189.5 43.5t68.5 122.5q0 57 -34 83t-99 36l-154 27q-66 12 -114 29.5t-93.5 48.5t-69.5 82t-24 120q0 111 62 190.5t165.5 117.5
t235.5 38q137 0 243 -41t165 -114l-135 -129q-35 49 -107.5 82.5t-177.5 33.5q-113 0 -174.5 -40.5t-61.5 -114.5q0 -57 35 -81.5t103 -37.5l153 -29q52 -10 90 -21t80 -32t68.5 -48.5t43.5 -71t17 -99.5q0 -168 -133.5 -265.5t-357.5 -97.5z" />
    <glyph glyph-name="uni0162" unicode="&#x162;" 
d="M268 -526l111 403h262l-225 -403h-148zM1296 1239h-450l-207 -1239h-225l207 1239h-451l33 191h1126z" />
    <glyph glyph-name="uni0163" unicode="&#x163;" 
d="M258 -526l111 403h262l-225 -403h-148zM522 -25q-96 0 -146 52.5t-50 146.5q0 24 12 98l100 607h-291l29 178h197q59 0 88 23.5t39 82.5l45 267h205l-62 -373h426l-29 -178h-428l-116 -701l41 -20l401 284l109 -131l-187 -139q-148 -113 -226 -155t-157 -42z" />
    <glyph glyph-name="Tcaron" unicode="&#x164;" 
d="M1296 1239h-450l-207 -1239h-225l207 1239h-451l33 191h1126zM895 1559h-223l-195 309l119 82l205 -238l278 238l107 -88z" />
    <glyph glyph-name="tcaron" unicode="&#x165;" 
d="M1206 1573l-182 -408h-152l78 408h256zM522 -25q-96 0 -146 52.5t-50 146.5q0 24 12 98l100 607h-291l29 178h197q59 0 88 23.5t39 82.5l45 267h205l-62 -373h426l-29 -178h-428l-116 -701l41 -20l401 284l109 -131l-187 -139q-148 -113 -226 -155t-157 -42z" />
    <glyph glyph-name="Tbar" unicode="&#x166;" 
d="M1071 645h-323l-109 -645h-225l108 645h-325l28 170h326l70 424h-451l33 191h1124l-31 -191h-450l-72 -424h326z" />
    <glyph glyph-name="tbar" unicode="&#x167;" 
d="M522 -25q-96 0 -146 52.5t-50 146.5q0 28 12 98l43 256h-199l27 158h199l30 193h-291l29 178h197q59 0 88 23.5t39 82.5l45 267h205l-62 -373h426l-29 -178h-428l-32 -193h303l-27 -158h-303l-57 -352l39 -22l393 256l102 -134l-186 -131q-135 -94 -215.5 -132
t-151.5 -38z" />
    <glyph glyph-name="Utilde" unicode="&#x168;" 
d="M293 1430h225l-141 -846q-27 -166 -27 -219q0 -100 45.5 -150.5t159.5 -50.5q49 0 88 9.5t67.5 23.5t50.5 42t36 53.5t26.5 70t19.5 80t17 94.5l150 893h225l-141 -848q-16 -94 -31 -161t-37.5 -135t-50 -113t-67 -85.5t-90 -63.5t-117 -36t-150.5 -13q-226 0 -324 95
t-98 278q0 95 31 285zM954 1585q-31 0 -61.5 9t-44 16t-47.5 26q-83 47 -139 47q-55 0 -130 -57l-67 107q94 116 225 116q31 0 61.5 -9t45 -16.5t47.5 -25.5q83 -47 139 -47q54 0 129 57l68 -106q-95 -117 -226 -117z" />
    <glyph glyph-name="utilde" unicode="&#x169;" 
d="M743 0l43 250h-10q-63 -135 -145 -205t-203 -70q-138 0 -212.5 83.5t-74.5 222.5q0 68 17 170l100 606h219l-102 -615q-13 -80 -13 -118q0 -77 38 -123.5t116 -46.5q114 0 199 106q90 110 110 232l95 565h219l-176 -1057h-220zM879 1237q-44 0 -78 13t-76 38
q-76 47 -139 47q-54 0 -129 -57l-68 106q95 117 225 117q44 0 78 -13t76 -38q76 -47 139 -47q54 0 129 57l68 -106q-95 -117 -225 -117z" />
    <glyph glyph-name="Umacron" unicode="&#x16a;" 
d="M293 1430h225l-141 -846q-27 -166 -27 -219q0 -100 45.5 -150.5t159.5 -50.5q49 0 88 9.5t67.5 23.5t50.5 42t36 53.5t26.5 70t19.5 80t17 94.5l150 893h225l-141 -848q-16 -94 -31 -161t-37.5 -135t-50 -113t-67 -85.5t-90 -63.5t-117 -36t-150.5 -13q-226 0 -324 95
t-98 278q0 95 31 285zM492 1636l28 166h592l-29 -166h-591z" />
    <glyph glyph-name="umacron" unicode="&#x16b;" 
d="M743 0l43 250h-10q-63 -135 -145 -205t-203 -70q-138 0 -212.5 83.5t-74.5 222.5q0 68 17 170l100 606h219l-102 -615q-13 -80 -13 -118q0 -77 38 -123.5t116 -46.5q114 0 199 106q90 110 110 232l95 565h219l-176 -1057h-220zM434 1288l29 166h592l-29 -166h-592z" />
    <glyph glyph-name="Ubreve" unicode="&#x16c;" 
d="M293 1430h225l-141 -846q-27 -166 -27 -219q0 -100 45.5 -150.5t159.5 -50.5q49 0 88 9.5t67.5 23.5t50.5 42t36 53.5t26.5 70t19.5 80t17 94.5l150 893h225l-141 -848q-16 -94 -31 -161t-37.5 -135t-50 -113t-67 -85.5t-90 -63.5t-117 -36t-150.5 -13q-226 0 -324 95
t-98 278q0 95 31 285zM788 1546q-64 0 -116 21t-85 52t-58.5 76.5t-38.5 86t-23 88.5l127 61l35 -71q40 -84 73 -118t95 -34q57 0 94.5 31.5t107.5 122.5l54 69l131 -61q-26 -52 -48 -90t-59 -85.5t-76 -77t-94.5 -50.5t-118.5 -21z" />
    <glyph glyph-name="ubreve" unicode="&#x16d;" 
d="M743 0l43 250h-10q-63 -135 -145 -205t-203 -70q-138 0 -212.5 83.5t-74.5 222.5q0 68 17 170l100 606h219l-102 -615q-13 -80 -13 -118q0 -77 38 -123.5t116 -46.5q114 0 199 106q90 110 110 232l95 565h219l-176 -1057h-220zM731 1198q-64 0 -116 21t-85 52t-58.5 76.5
t-38.5 86t-23 88.5l127 61l34 -72q40 -84 73 -117.5t95 -33.5q57 0 95.5 31.5t107.5 121.5l53 70l131 -61q-26 -53 -48 -90.5t-59 -85t-75.5 -77t-94 -50.5t-118.5 -21z" />
    <glyph glyph-name="Uring" unicode="&#x16e;" 
d="M774 1507q-100 0 -165.5 64.5t-65.5 161.5q0 122 88 205t211 83q100 0 165.5 -64t65.5 -161q0 -122 -88 -205.5t-211 -83.5zM786 1628q111 0 129 111q11 68 11 76q0 40 -25 63t-72 23q-111 0 -129 -111q-10 -62 -10 -76q0 -40 24.5 -63t71.5 -23zM293 1430h225l-141 -846
q-27 -166 -27 -219q0 -100 45.5 -150.5t159.5 -50.5q49 0 88 9.5t67.5 23.5t50.5 42t36 53.5t26.5 70t19.5 80t17 94.5l150 893h225l-141 -848q-16 -94 -31 -161t-37.5 -135t-50 -113t-67 -85.5t-90 -63.5t-117 -36t-150.5 -13q-226 0 -324 95t-98 278q0 95 31 285z" />
    <glyph glyph-name="uring" unicode="&#x16f;" 
d="M717 1159q-100 0 -166 64t-66 161q0 122 88 205.5t211 83.5q100 0 166 -64t66 -161q0 -122 -88 -205.5t-211 -83.5zM729 1280q111 0 129 111q10 62 10 75q0 40 -24.5 63t-71.5 23q-111 0 -129 -110q-10 -62 -10 -76q0 -40 24.5 -63t71.5 -23zM743 0l43 250h-10
q-63 -135 -145 -205t-203 -70q-138 0 -212.5 83.5t-74.5 222.5q0 68 17 170l100 606h219l-102 -615q-13 -80 -13 -118q0 -77 38 -123.5t116 -46.5q114 0 199 106q90 110 110 232l95 565h219l-176 -1057h-220z" />
    <glyph glyph-name="Uhungarumlaut" unicode="&#x170;" 
d="M883 1870l-271 -334l-120 63l221 363zM1245 1870l-270 -334l-121 63l221 363zM293 1430h225l-141 -846q-27 -166 -27 -219q0 -100 45.5 -150.5t159.5 -50.5q49 0 88 9.5t67.5 23.5t50.5 42t36 53.5t26.5 70t19.5 80t17 94.5l150 893h225l-141 -848q-16 -94 -31 -161
t-37.5 -135t-50 -113t-67 -85.5t-90 -63.5t-117 -36t-150.5 -13q-226 0 -324 95t-98 278q0 95 31 285z" />
    <glyph glyph-name="uhungarumlaut" unicode="&#x171;" 
d="M743 0l43 250h-10q-63 -135 -145 -205t-203 -70q-138 0 -212.5 83.5t-74.5 222.5q0 68 17 170l100 606h219l-102 -615q-13 -80 -13 -118q0 -77 38 -123.5t116 -46.5q114 0 199 106q90 110 110 232l95 565h219l-176 -1057h-220zM825 1522l-270 -334l-121 63l221 363z
M1188 1522l-270 -334l-121 63l221 363z" />
    <glyph glyph-name="Uogonek" unicode="&#x172;" 
d="M293 1430h225l-141 -846q-27 -166 -27 -219q0 -100 45.5 -150.5t159.5 -50.5q49 0 88 9.5t67.5 23.5t50.5 42t36 53.5t26.5 70t19.5 80t17 94.5l150 893h225l-141 -848q-20 -123 -40 -201t-53 -152.5t-83 -125.5t-123 -89q-130 -70 -183 -137t-53 -117q0 -30 20 -46.5
t54 -16.5q61 0 110 55l93 -90q-79 -90 -222 -90q-97 0 -159 41.5t-62 120.5q0 143 213 233l-2 10q-20 -2 -53 -2q-226 0 -324 95t-98 278q0 95 31 285z" />
    <glyph glyph-name="uogonek" unicode="&#x173;" 
d="M1139 1057l-176 -1057q-147 -93 -195.5 -146.5t-48.5 -93.5q0 -30 20 -46.5t54 -16.5q61 0 110 55l92 -90q-79 -90 -221 -90q-97 0 -159 41.5t-62 120.5q0 162 270 256v10h-80l43 250h-10q-63 -135 -145 -205t-203 -70q-138 0 -212.5 83.5t-74.5 222.5q0 68 17 170
l100 606h219l-102 -615q-13 -80 -13 -118q0 -77 38 -123.5t116 -46.5q114 0 199 106q90 110 110 232l95 565h219z" />
    <glyph glyph-name="Wcircumflex" unicode="&#x174;" 
d="M721 1931h223l197 -309l-121 -82l-205 238l-278 -238l-107 88zM371 0h-308l136 1430h196l-86 -826l-39 -389h19l301 868h229l19 -868h18l84 375l193 840h192l-340 -1430h-307l-4 831h-19z" />
    <glyph glyph-name="wcircumflex" unicode="&#x175;" 
d="M672 1583h223l197 -309l-121 -82l-205 238l-279 -238l-106 88zM252 -23q-94 0 -142.5 58t-48.5 158q0 61 17 161l117 703h184l-119 -690q-12 -78 -12 -113q0 -98 82 -98q64 0 119 82q40 59 57 163l108 656h179l-113 -695q-10 -68 -10 -110q0 -98 78 -98q63 0 119 88.5
t88 226t32 283.5q0 170 -43 268l166 49q61 -122 61 -315q0 -184 -44 -346t-123 -267q-124 -164 -297 -164q-95 0 -143 56.5t-42 163.5h-10q-87 -220 -260 -220z" />
    <glyph glyph-name="Ycircumflex" unicode="&#x176;" 
d="M641 0h-225l88 535l-330 895h240l127 -359l96 -309h12l205 309l242 359h258l-623 -885zM717 1931h223l197 -309l-121 -82l-205 238l-279 -238l-106 88z" />
    <glyph glyph-name="ycircumflex" unicode="&#x177;" 
d="M432 -434q-139 0 -235.5 35.5t-161.5 113.5l139 140q88 -111 260 -111q137 0 215.5 72.5t106.5 246.5l35 220h-9q-63 -135 -145 -205t-203 -70q-138 0 -212.5 83t-74.5 222q0 68 17 170l94 574h219l-96 -582q-12 -74 -12 -119q0 -77 37.5 -123.5t115.5 -46.5
q113 0 199 107q90 111 110 231l89 533h219l-172 -1028q-39 -236 -176.5 -349.5t-358.5 -113.5zM680 1583h223l197 -309l-121 -82l-205 238l-278 -238l-107 88z" />
    <glyph glyph-name="Ydieresis" unicode="&#x178;" 
d="M641 0h-225l88 535l-330 895h240l127 -359l96 -309h12l205 309l242 359h258l-623 -885zM578 1593q-125 0 -125 88q0 15 6 52q18 112 147 112q125 0 125 -88q0 -14 -6 -51q-19 -113 -147 -113zM987 1593q-125 0 -125 88q0 15 6 52q18 112 148 112q125 0 125 -88
q0 -14 -6 -51q-19 -113 -148 -113z" />
    <glyph glyph-name="Zacute" unicode="&#x179;" 
d="M1071 190l-33 -190h-1026l33 201l911 1038h-706l33 191h966l-32 -201l-910 -1039h764zM1063 1870l-277 -336l-129 72l228 360z" />
    <glyph glyph-name="zacute" unicode="&#x17a;" 
d="M987 1522l-276 -336l-129 71l227 361zM860 -23q-118 0 -252 56l-299 117l-10 -9l-23 -141h-202l32 197l701 608q-95 55 -162 77.5t-129 22.5q-162 0 -162 -209h-168v23q0 173 86 267.5t240 94.5q189 0 391 -155l27 -17l10 11l23 137h202l-32 -193l-703 -612l471 -102
l23 24l-64 238l141 55l33 -72q56 -118 56 -207q0 -86 -63.5 -148.5t-166.5 -62.5z" />
    <glyph glyph-name="Zdotaccent" unicode="&#x17b;" 
d="M778 1577q-139 0 -139 100q0 14 8 64q19 119 160 119q73 0 106 -28t33 -73q0 -13 -8 -63q-19 -119 -160 -119zM1071 190l-33 -190h-1026l33 201l911 1038h-706l33 191h966l-32 -201l-910 -1039h764z" />
    <glyph glyph-name="zdotaccent" unicode="&#x17c;" 
d="M860 -23q-118 0 -252 56l-299 117l-10 -9l-23 -141h-202l32 197l701 608q-95 55 -162 77.5t-129 22.5q-162 0 -162 -209h-168v23q0 173 86 267.5t240 94.5q189 0 391 -155l27 -17l10 11l23 137h202l-32 -193l-703 -612l471 -102l23 24l-64 238l141 55l33 -72
q56 -118 56 -207q0 -86 -63.5 -148.5t-166.5 -62.5zM702 1229q-139 0 -139 100q0 14 8 64q19 118 160 118q139 0 139 -100q0 -13 -8 -63q-19 -119 -160 -119z" />
    <glyph glyph-name="Zcaron" unicode="&#x17d;" 
d="M1071 190l-33 -190h-1026l33 201l911 1038h-706l33 191h966l-32 -201l-910 -1039h764zM883 1559h-224l-194 309l119 82l204 -238l279 238l107 -88z" />
    <glyph glyph-name="zcaron" unicode="&#x17e;" 
d="M807 1210h-223l-195 310l119 82l205 -238l278 238l107 -89zM860 -23q-118 0 -252 56l-299 117l-10 -9l-23 -141h-202l32 197l701 608q-95 55 -162 77.5t-129 22.5q-162 0 -162 -209h-168v23q0 173 86 267.5t240 94.5q189 0 391 -155l27 -17l10 11l23 137h202l-32 -193
l-703 -612l471 -102l23 24l-64 238l141 55l33 -72q56 -118 56 -207q0 -86 -63.5 -148.5t-166.5 -62.5z" />
    <glyph glyph-name="uni018F" unicode="&#x18f;" 
d="M537 -25q-214 0 -323.5 131.5t-109.5 376.5q0 119 15 211l14 88h811l8 47q15 94 15 156q0 283 -236 283q-121 0 -201 -69.5t-141 -205.5l-182 82q74 181 212.5 280t332.5 99q223 0 328.5 -133.5t105.5 -405.5q0 -85 -9.5 -172t-32 -180.5t-56.5 -177.5t-86.5 -160
t-117.5 -130.5t-154.5 -87t-192.5 -32.5zM549 160q150 0 240.5 112.5t123.5 317.5l5 20h-580q-16 -106 -16 -176q0 -274 227 -274z" />
    <glyph glyph-name="florin" unicode="&#x192;" 
d="M272 -434q-84 0 -145 47.5t-164 175.5l-129 156l146 112l268 -311l37 14l247 959h-315l29 178h332l71 274q32 122 117.5 190.5t220.5 68.5h326l-29 -179h-393l-92 -354h368l-28 -178h-385l-236 -907q-31 -125 -90 -185.5t-156 -60.5z" />
    <glyph glyph-name="Ohorn" unicode="&#x1a0;" 
d="M1323 1661l-35 -209q-13 -78 -53 -119t-125 -41h-18q94 -119 94 -346q0 -92 -9.5 -184t-31.5 -189t-55.5 -183t-85 -163t-115.5 -132t-151 -87.5t-189 -32.5q-226 0 -335.5 130.5t-109.5 377.5q0 92 9.5 184t31.5 189t55.5 183t85 163t115.5 132t151 87.5t189 32.5
q99 0 172 -24h185l39 231h186zM555 164q280 0 352 432l39 235q15 92 15 162q0 273 -226 273q-280 0 -352 -432l-39 -236q-14 -85 -14 -162q0 -272 225 -272z" />
    <glyph glyph-name="ohorn" unicode="&#x1a1;" 
d="M543 -25q-204 0 -317 122.5t-113 328.5q0 197 74.5 347t203.5 229t293 79q90 0 164 -24h186l39 231h189l-35 -209q-12 -80 -57.5 -115.5t-147.5 -35.5q94 -113 94 -297q0 -298 -161 -477t-412 -179zM557 150q126 0 204.5 78t102.5 218l23 136q10 65 10 96
q0 114 -59.5 171.5t-165.5 57.5q-126 0 -204.5 -78.5t-102.5 -218.5l-23 -135q-10 -65 -10 -96q0 -114 59.5 -171.5t165.5 -57.5z" />
    <glyph glyph-name="Uhorn" unicode="&#x1af;" 
d="M293 1430h225l-141 -846q-27 -166 -27 -219q0 -100 45.5 -150.5t159.5 -50.5q49 0 88 9.5t67.5 23.5t50.5 42t36 53.5t26.5 70t19.5 80t17 94.5l150 893h176l39 231h186l-35 -209q-13 -76 -49.5 -116t-114.5 -44l-118 -710q-16 -94 -31 -161t-37.5 -135t-50 -113
t-67 -85.5t-90 -63.5t-117 -36t-150.5 -13q-226 0 -324 95t-98 278q0 95 31 285z" />
    <glyph glyph-name="uhorn" unicode="&#x1b0;" 
d="M428 -25q-138 0 -212.5 83.5t-74.5 222.5q0 68 17 170l100 606h219l-102 -615q-13 -80 -13 -118q0 -77 38 -123.5t116 -46.5q114 0 199 106q90 110 110 232l95 565h184l39 231h188l-35 -209q-13 -78 -53.5 -118.5t-126.5 -40.5l-153 -920h-220l43 250h-10
q-63 -135 -145 -205t-203 -70z" />
    <glyph glyph-name="Aringacute" unicode="&#x1fa;" 
d="M1102 0h-234l-41 381h-465l-167 -381h-238l657 1430h308zM809 571l-68 633h-18l-279 -633h365zM1114 2212l-262 -203l-86 80l229 238zM772 1501q-101 0 -167 57t-66 150q0 116 87 191t210 75q102 0 168.5 -57t66.5 -150q0 -116 -87.5 -191t-211.5 -75zM786 1616
q112 0 129 104q9 56 9 58q0 39 -26 60.5t-75 21.5q-112 0 -129 -105q-8 -50 -8 -57q0 -39 25.5 -60.5t74.5 -21.5z" />
    <glyph glyph-name="aringacute" unicode="&#x1fb;" 
d="M971 0h-219l41 250h-9q-66 -135 -150 -205t-214 -70q-160 0 -241 106t-81 304q0 104 18.5 203t58.5 189t97 157t140 107t182 40q233 0 293 -215h10l31 191h219zM508 154q123 0 217 110q88 100 109 228l34 210q15 92 -40.5 146.5t-165.5 54.5q-131 0 -209 -79.5
t-101 -215.5l-24 -145q-9 -56 -9 -88q0 -103 47.5 -162t141.5 -59zM1036 1864l-262 -203l-86 80l230 237zM694 1153q-101 0 -167 57t-66 150q0 116 87 191t210 75q102 0 168.5 -57t66.5 -150q0 -116 -87.5 -191t-211.5 -75zM709 1268q112 0 129 104q8 50 8 58q0 39 -26 60
t-75 21q-112 0 -129 -104q-8 -50 -8 -57q0 -39 26 -60.5t75 -21.5z" />
    <glyph glyph-name="AEacute" unicode="&#x1fc;" 
d="M557 0l64 385h-267l-159 -385h-226l619 1430h749l-28 -177h-332l-74 -442h309l-28 -176h-310l-77 -459h331l-28 -176h-543zM768 1270h-53l-291 -709h227zM1204 1870l-276 -336l-129 72l227 360z" />
    <glyph glyph-name="aeacute" unicode="&#x1fd;" 
d="M1020 1522l-277 -336l-129 71l228 361zM238 -25q-110 0 -177 69t-67 198q0 165 113.5 258.5t312.5 99.5l108 4l17 103q8 41 8 79q0 148 -131 148q-65 0 -113 -38.5t-90 -115.5l-123 82q110 219 336 219q112 0 173.5 -50t66.5 -134h8q96 184 287 184q117 0 187.5 -69.5
t70.5 -188.5q0 -51 -14 -97t-51.5 -91.5t-95.5 -79t-153.5 -55.5t-218.5 -25l-6 -39q-8 -49 -8 -104q0 -97 36 -149t103 -52q65 0 107.5 44t81.5 128l143 -65q-116 -263 -344 -263q-117 0 -192.5 66.5t-84.5 194.5h-10q-63 -261 -280 -261zM289 123q72 0 124.5 56.5
t67.5 152.5l25 141l-90 -2q-109 -5 -169 -42t-73 -124q-6 -37 -6 -67q0 -56 33 -85.5t88 -29.5zM946 934q-88 0 -147 -83t-82 -220l-4 -27q183 6 263.5 63.5t80.5 149.5q0 57 -28.5 87t-82.5 30z" />
    <glyph glyph-name="Oslashacute" unicode="&#x1fe;" 
d="M549 -25q-182 0 -293 91l-125 -166l-143 92l164 215q-48 108 -48 276q0 92 9.5 184t31.5 189t55.5 183t85 163t115.5 132t151 87.5t189 32.5q183 0 293 -90l125 166l144 -92l-164 -215q47 -105 47 -277q0 -92 -9.5 -184t-31.5 -189t-55.5 -183t-85 -163t-115.5 -132
t-151 -87.5t-189 -32.5zM342 606q-14 -86 -14 -137q0 -29 2 -43l581 766q-58 74 -176 74q-282 0 -354 -426zM555 164q282 0 354 426l39 233q15 92 15 138q0 29 -2 43l-582 -766q58 -74 176 -74zM1057 1870l-277 -336l-129 72l228 360z" />
    <glyph glyph-name="oslashacute" unicode="&#x1ff;" 
d="M104 -90l-110 92l174 178q-55 107 -55 246q0 198 74.5 347.5t204 228.5t294.5 79q173 0 285 -92l153 158l111 -92l-174 -178q55 -107 55 -246q0 -298 -161 -477t-412 -179q-172 0 -285 93zM672 907q-125 0 -204 -78t-103 -217l-23 -137q-10 -65 -10 -96q0 -27 2 -41
l500 514q-58 55 -162 55zM557 150q127 0 205 77.5t102 216.5l23 138q10 65 10 96q0 27 -2 41l-500 -514q58 -55 162 -55zM983 1522l-276 -336l-129 71l227 361z" />
    <glyph glyph-name="Scommaaccent" unicode="&#x218;" 
d="M291 -526l110 403h263l-226 -403h-147zM547 -25q-179 0 -310 64t-196 174l154 139q129 -188 364 -188q145 0 228 70.5t83 191.5q0 82 -45.5 127t-154.5 70l-148 34q-315 70 -315 355q0 202 145 322t385 120q165 0 285 -60.5t182 -160.5l-155 -129q-111 164 -322 164
q-135 0 -212 -64t-77 -172q0 -81 48.5 -123.5t158.5 -68.5l143 -35q164 -40 239 -127.5t75 -226.5q0 -214 -149.5 -345t-405.5 -131z" />
    <glyph glyph-name="scommaaccent" unicode="&#x219;" 
d="M289 -526l110 403h263l-226 -403h-147zM541 -25q-155 0 -270.5 49t-178.5 140l139 123q113 -144 326 -144q121 0 189.5 43.5t68.5 122.5q0 57 -34 83t-99 36l-154 27q-66 12 -114 29.5t-93.5 48.5t-69.5 82t-24 120q0 111 62 190.5t165.5 117.5t235.5 38q137 0 243 -41
t165 -114l-135 -129q-35 49 -107.5 82.5t-177.5 33.5q-113 0 -174.5 -40.5t-61.5 -114.5q0 -57 35 -81.5t103 -37.5l153 -29q52 -10 90 -21t80 -32t68.5 -48.5t43.5 -71t17 -99.5q0 -168 -133.5 -265.5t-357.5 -97.5z" />
    <glyph glyph-name="uni021A" unicode="&#x21a;" 
d="M268 -526l111 403h262l-225 -403h-148zM1296 1239h-450l-207 -1239h-225l207 1239h-451l33 191h1126z" />
    <glyph glyph-name="uni021B" unicode="&#x21b;" 
d="M258 -526l111 403h262l-225 -403h-148zM522 -25q-96 0 -146 52.5t-50 146.5q0 24 12 98l100 607h-291l29 178h197q59 0 88 23.5t39 82.5l45 267h205l-62 -373h426l-29 -178h-428l-116 -701l41 -20l401 284l109 -131l-187 -139q-148 -113 -226 -155t-157 -42z" />
    <glyph glyph-name="uni0237" unicode="&#x237;" 
d="M514 -434q-83 0 -146.5 54t-189.5 214l-104 127l147 117l287 -334l31 10l188 1125h-416l29 178h635l-203 -1217q-46 -274 -258 -274z" />
    <glyph glyph-name="uni0259" unicode="&#x259;" 
d="M496 -25q-164 0 -268.5 75t-104.5 212q0 37 7.5 69t28.5 68.5t55 66t91.5 58t134 49t186.5 34.5t244 18q2 18 2 41q0 111 -54 175t-185 64q-101 0 -171.5 -46t-158.5 -165l-143 92q61 95 126.5 157t159.5 100t211 38q215 0 326 -115t111 -337q0 -290 -166.5 -472
t-431.5 -182zM516 141q136 0 222 81.5t112 242.5l4 22q-132 -5 -229 -20.5t-150.5 -35.5t-85 -48t-40.5 -52.5t-9 -54.5q0 -62 42.5 -98.5t133.5 -36.5z" />
    <glyph glyph-name="uni02BB" unicode="&#x2bb;" 
d="M504 1198l225 404h150l-111 -404h-264z" />
    <glyph glyph-name="uni02BC" unicode="&#x2bc;" 
d="M614 1516l-182 -408h-151l77 408h256z" />
    <glyph glyph-name="circumflex" unicode="&#x2c6;" 
d="M586 1583h223l197 -309l-121 -82l-205 238l-279 -238l-106 88z" />
    <glyph glyph-name="caron" unicode="&#x2c7;" 
d="M754 1210h-224l-194 310l119 82l204 -238l279 238l106 -89z" />
    <glyph glyph-name="breve" unicode="&#x2d8;" 
d="M651 1198q-64 0 -116 21t-85 52t-58.5 76.5t-38.5 86t-23 88.5l127 61l35 -72q40 -84 72.5 -117.5t94.5 -33.5q57 0 95.5 31.5t107.5 121.5l53 70l132 -61q-26 -52 -48 -90t-59 -85.5t-76 -77t-94.5 -50.5t-118.5 -21z" />
    <glyph glyph-name="dotaccent" unicode="&#x2d9;" 
d="M649 1229q-139 0 -139 100q0 14 8 64q19 118 160 118q139 0 139 -100q0 -13 -8 -63q-19 -119 -160 -119z" />
    <glyph glyph-name="ring" unicode="&#x2da;" 
d="M637 1159q-100 0 -165.5 64t-65.5 161q0 122 88 205.5t211 83.5q100 0 165.5 -64t65.5 -161q0 -122 -88 -205.5t-211 -83.5zM649 1280q111 0 129 111q10 62 10 75q0 40 -24.5 63t-71.5 23q-111 0 -129 -110q-10 -62 -10 -76q0 -40 24.5 -63t71.5 -23z" />
    <glyph glyph-name="ogonek" unicode="&#x2db;" 
d="M426 -428q-97 0 -159 41.5t-62 120.5q0 163 272 256l-8 35l115 12l30 -37q-147 -93 -195 -146.5t-48 -93.5q0 -30 19.5 -46.5t53.5 -16.5q62 0 111 55l92 -90q-79 -90 -221 -90z" />
    <glyph glyph-name="tilde" unicode="&#x2dc;" 
d="M799 1237q-44 0 -78 13t-76 38q-76 47 -139 47q-54 0 -129 -57l-68 106q95 117 226 117q31 0 60 -8t47 -17t46 -26q76 -47 139 -47q54 0 129 57l68 -106q-95 -117 -225 -117z" />
    <glyph glyph-name="hungarumlaut" unicode="&#x2dd;" 
d="M745 1522l-270 -334l-121 63l221 363zM1108 1522l-270 -334l-121 63l221 363z" />
    <glyph glyph-name="uni0300" unicode="&#x300;" horiz-adv-x="0" 
d="M-2 1186l-186 350l194 82l129 -375z" />
    <glyph glyph-name="uni0301" unicode="&#x301;" horiz-adv-x="0" 
d="M319 1522l-276 -336l-129 71l227 361z" />
    <glyph glyph-name="uni0302" unicode="&#x302;" horiz-adv-x="0" 
d="M-29 1583h224l196 -309l-121 -82l-204 238l-279 -238l-106 88z" />
    <glyph glyph-name="uni0303" unicode="&#x303;" horiz-adv-x="0" 
d="M184 1237q-31 0 -60 8t-47 17t-46 26q-76 47 -140 47q-54 0 -129 -57l-67 106q95 117 225 117q44 0 78 -13t76 -38q76 -47 139 -47q54 0 129 57l68 -106q-95 -117 -226 -117z" />
    <glyph glyph-name="uni0304" unicode="&#x304;" horiz-adv-x="0" 
d="M-260 1288l29 166h591l-28 -166h-592z" />
    <glyph glyph-name="uni0306" unicode="&#x306;" horiz-adv-x="0" 
d="M37 1198q-255 0 -322 324l127 61l35 -72q40 -84 73 -117.5t95 -33.5q57 0 95.5 31.5t107.5 121.5l53 70l131 -61q-26 -53 -48 -90.5t-59 -85t-75.5 -77t-94 -50.5t-118.5 -21z" />
    <glyph glyph-name="uni0307" unicode="&#x307;" horiz-adv-x="0" 
d="M35 1229q-139 0 -139 100q0 14 8 64q9 58 46.5 88t112.5 30q73 0 106.5 -27.5t33.5 -72.5q0 -13 -8 -63q-19 -119 -160 -119z" />
    <glyph glyph-name="uni0308" unicode="&#x308;" horiz-adv-x="0" 
d="M-168 1245q-125 0 -125 88q0 13 6 51q19 113 148 113q125 0 125 -88q0 -13 -6 -51q-19 -113 -148 -113zM242 1245q-125 0 -125 88q0 13 6 51q19 113 147 113q125 0 125 -88q0 -13 -6 -51q-19 -113 -147 -113z" />
    <glyph glyph-name="uni0309" unicode="&#x309;" horiz-adv-x="0" 
d="M-139 1427l26 162h248q74 0 112 -30.5t38 -81.5q0 -49 -26 -96t-79 -107l-94 -107l-113 62l129 198h-241z" />
    <glyph glyph-name="uni030A" unicode="&#x30a;" horiz-adv-x="0" 
d="M23 1159q-100 0 -166 64t-66 161q0 122 88 205.5t211 83.5q100 0 166 -64t66 -161q0 -122 -88 -205.5t-211 -83.5zM35 1280q111 0 129 111q10 62 10 75q0 40 -24.5 63t-71.5 23q-111 0 -129 -110q-10 -62 -10 -76q0 -40 24.5 -63t71.5 -23z" />
    <glyph glyph-name="uni030B" unicode="&#x30b;" horiz-adv-x="0" 
d="M131 1522l-270 -334l-121 63l221 363zM494 1522l-271 -334l-121 63l222 363z" />
    <glyph glyph-name="uni030C" unicode="&#x30c;" horiz-adv-x="0" 
d="M139 1210h-223l-195 310l119 82l205 -238l279 238l106 -89z" />
    <glyph glyph-name="uni0312" unicode="&#x312;" horiz-adv-x="0" 
d="M504 1198l225 404h150l-111 -404h-264z" />
    <glyph glyph-name="uni0315" unicode="&#x315;" horiz-adv-x="0" 
d="M268 1516l-182 -408h-152l78 408h256z" />
    <glyph glyph-name="uni031B" unicode="&#x31b;" horiz-adv-x="0" 
d="M227 1288l-34 -209q-13 -78 -55 -118.5t-128 -40.5h-237l24 137h203l39 231h188z" />
    <glyph glyph-name="uni0323" unicode="&#x323;" horiz-adv-x="0" 
d="M-53 -377q-125 0 -125 90q0 6 8 56q17 106 141 106q125 0 125 -90q0 -5 -8 -55q-18 -107 -141 -107z" />
    <glyph glyph-name="uni0326" unicode="&#x326;" horiz-adv-x="0" 
d="M-260 -526l110 403h263l-226 -403h-147z" />
    <glyph glyph-name="uni0327" unicode="&#x327;" horiz-adv-x="0" 
d="M-31 -428q-80 0 -135 25t-80 63l90 92q41 -55 123 -55q43 0 71 17t28 48q0 64 -129 78l-54 6l76 203h117l-62 -168l4 -8q39 10 80 10q59 0 94 -31t35 -92q0 -90 -73.5 -139t-184.5 -49z" />
    <glyph glyph-name="uni0328" unicode="&#x328;" horiz-adv-x="0" 
d="M-188 -428q-97 0 -159.5 41.5t-62.5 120.5q0 162 273 256l-8 35l114 12l31 -37q-147 -93 -195.5 -146.5t-48.5 -93.5q0 -30 20 -46.5t54 -16.5q62 0 111 55l92 -90q-79 -90 -221 -90z" />
    <glyph glyph-name="pi" unicode="&#x3c0;" 
d="M111 0l147 879h-172l29 178h1122l-29 -178h-196l-121 -719l41 -13l168 123l92 -102l-39 -37q-95 -89 -157.5 -122.5t-133.5 -33.5q-88 0 -133 47.5t-45 129.5q0 45 21 174l92 553h-324l-147 -879h-215z" />
    <glyph glyph-name="uni0400" unicode="&#x400;" 
d="M981 0h-895l240 1430h893l-33 -191h-668l-72 -420h646l-33 -190h-643l-74 -439h672zM766 1534l-186 350l194 82l129 -375z" />
    <glyph glyph-name="uni0401" unicode="&#x401;" 
d="M981 0h-895l240 1430h893l-33 -191h-668l-72 -420h646l-33 -190h-643l-74 -439h672zM600 1593q-125 0 -125 88q0 15 6 52q18 112 148 112q125 0 125 -88q0 -14 -6 -51q-19 -113 -148 -113zM1010 1593q-125 0 -125 88q0 15 6 52q18 112 147 112q125 0 125 -88
q0 -14 -6 -51q-19 -113 -147 -113z" />
    <glyph glyph-name="uni0402" unicode="&#x402;" 
d="M766 -393q-68 0 -122.5 38t-119.5 115l-59 70l143 123l150 -164l30 8l109 631q16 96 16 150q0 135 -155 135q-105 0 -189 -37l-112 -676h-228l209 1239h-301l31 191h827l-30 -191h-301l-64 -375h10q95 39 213 39q149 0 231.5 -80t82.5 -221q0 -79 -23 -225l-84 -494
q-45 -276 -264 -276z" />
    <glyph glyph-name="uni0403" unicode="&#x403;" 
d="M164 0l237 1430h826l-33 -191h-598l-207 -1239h-225zM1133 1870l-277 -336l-129 72l227 360z" />
    <glyph glyph-name="uni0404" unicode="&#x404;" 
d="M588 -25q-231 0 -345 136t-114 393q0 110 16 219t48.5 216.5t86.5 199.5t124 163t167 111.5t211 40.5q105 0 184.5 -27.5t129.5 -77.5t79 -110t42 -135l-211 -55q-21 105 -73.5 161t-162.5 56q-148 0 -238.5 -115t-123.5 -322l-2 -10h417l-32 -190h-418v-6
q-17 -97 -17 -172q0 -136 61 -211.5t189 -75.5q101 0 168.5 53.5t134.5 169.5l185 -78q-89 -173 -209 -253.5t-297 -80.5z" />
    <glyph glyph-name="uni0405" unicode="&#x405;" 
d="M547 -25q-179 0 -310 64t-196 174l154 139q129 -188 364 -188q145 0 228 70.5t83 191.5q0 82 -45.5 127t-154.5 70l-148 34q-315 70 -315 355q0 202 145 322t385 120q165 0 285 -60.5t182 -160.5l-155 -129q-111 164 -322 164q-135 0 -212 -64t-77 -172
q0 -81 48.5 -123.5t158.5 -68.5l143 -35q164 -40 239 -127.5t75 -226.5q0 -214 -149.5 -345t-405.5 -131z" />
    <glyph glyph-name="uni0406" unicode="&#x406;" 
d="M975 0h-897l28 172h336l183 1085h-336l28 173h897l-28 -173h-336l-182 -1085h336z" />
    <glyph glyph-name="uni0407" unicode="&#x407;" 
d="M975 0h-897l28 172h336l183 1085h-336l28 173h897l-28 -173h-336l-182 -1085h336zM594 1593q-125 0 -125 88q0 15 6 52q18 112 148 112q125 0 125 -88q0 -7 -7 -51q-19 -113 -147 -113zM1004 1593q-125 0 -125 88q0 15 6 52q18 112 147 112q125 0 125 -88q0 -14 -6 -51
q-19 -113 -147 -113z" />
    <glyph glyph-name="uni0408" unicode="&#x408;" 
d="M432 1430h727l-176 -1049q-34 -207 -157.5 -306.5t-321.5 -99.5q-184 0 -291.5 96t-118.5 267l213 43q4 -49 15.5 -85.5t34 -67t62.5 -46.5t97 -16q206 0 246 240l139 833h-502z" />
    <glyph glyph-name="uni0409" unicode="&#x409;" 
d="M-84 -6l31 190h90q53 49 92 130t85 269t99 509l58 338h569l-92 -549h39q155 0 238 -91t83 -245q0 -262 -123.5 -403.5t-339.5 -141.5h-249l209 1245h-175l-30 -174q-55 -324 -102.5 -517t-92.5 -292.5t-106 -161.5q-106 -106 -256 -106h-27zM729 180h41q175 0 211 209
l8 43q8 57 8 117q0 73 -36.5 112t-104.5 39h-39z" />
    <glyph glyph-name="uni040A" unicode="&#x40a;" 
d="M0 0l240 1430h204l-102 -613h254l104 613h205l-92 -549h43q171 0 261.5 -91.5t90.5 -250.5q0 -258 -128 -398.5t-349 -140.5h-270l104 633h-254l-106 -633h-205zM694 180h51q199 0 236 209l8 43q8 57 8 113q0 155 -168 155h-47z" />
    <glyph glyph-name="uni040B" unicode="&#x40b;" 
d="M229 0l209 1239h-301l31 191h827l-30 -191h-301l-64 -375h10q95 39 213 39q149 0 231.5 -80t82.5 -221q0 -73 -23 -219l-63 -383h-226l72 428q16 96 16 150q0 135 -155 135q-105 0 -189 -37l-112 -676h-228z" />
    <glyph glyph-name="uni040C" unicode="&#x40c;" 
d="M80 0l239 1430h226l-103 -611h215l361 611h235l-329 -562q-38 -65 -77.5 -95t-88.5 -36l-2 -12q45 -12 70 -46.5t48 -117.5l105 -371h123l-31 -190h-121q-82 0 -127.5 40t-70.5 134l-125 457h-215l-107 -631h-225zM1073 1870l-276 -336l-129 72l227 360z" />
    <glyph glyph-name="uni040D" unicode="&#x40d;" 
d="M57 0l238 1430h219l-104 -627l-101 -416h17l231 344l467 699h213l-238 -1430h-219l105 627l100 415h-16l-232 -344l-467 -698h-213zM750 1534l-187 350l195 82l129 -375z" />
    <glyph glyph-name="uni040E" unicode="&#x40e;" 
d="M180 0l31 190h217l84 158l-287 1082h224l145 -580l55 -270h4l125 266l307 584h236l-664 -1225q-63 -119 -132 -162t-187 -43h-158zM786 1544q-112 0 -179 52.5t-103 160.5l-37 111l188 65l29 -217q41 -14 113 -14q73 0 114 14l99 217l178 -65l-68 -117
q-122 -207 -334 -207z" />
    <glyph glyph-name="uni040F" unicode="&#x40f;" 
d="M371 -307l51 307h-354l237 1430h225l-206 -1240h469l208 1240h226l-240 -1430h-358l-51 -307h-207z" />
    <glyph glyph-name="uni0410" unicode="&#x410;" 
d="M1102 0h-234l-41 381h-465l-167 -381h-238l657 1430h308zM809 571l-68 633h-18l-279 -633h365z" />
    <glyph glyph-name="uni0411" unicode="&#x411;" 
d="M88 0l240 1430h811l-31 -191h-586l-63 -377h284q180 0 273.5 -95.5t93.5 -260.5q0 -233 -132.5 -369.5t-359.5 -136.5h-530zM346 188h262q217 0 252 199l10 57q7 47 7 76q0 156 -189 156h-260z" />
    <glyph glyph-name="uni0412" unicode="&#x412;" 
d="M84 0l240 1430h471q172 0 266 -88.5t94 -241.5q0 -142 -73.5 -233.5t-207.5 -127.5l-2 -8q226 -58 226 -280q0 -125 -56.5 -227.5t-163 -163t-243.5 -60.5h-551zM334 174h252q115 0 184 47.5t84 138.5l10 62q8 50 8 74q0 153 -202 153h-256zM440 815h222q112 0 173 42.5
t76 133.5l11 62q6 37 6 59q0 143 -189 143h-225z" />
    <glyph glyph-name="uni0413" unicode="&#x413;" 
d="M164 0l237 1430h826l-33 -191h-598l-207 -1239h-225z" />
    <glyph glyph-name="uni0414" unicode="&#x414;" 
d="M-94 -307l84 497h112q106 114 182 311t130 523l67 406h699l-207 -1240h157l-83 -497h-207l51 307h-725l-51 -307h-209zM342 190h408l176 1051h-271l-41 -248q-98 -594 -272 -803z" />
    <glyph glyph-name="uni0415" unicode="&#x415;" 
d="M981 0h-895l240 1430h893l-33 -191h-668l-72 -420h646l-33 -190h-643l-74 -439h672z" />
    <glyph glyph-name="uni0416" unicode="&#x416;" 
d="M-72 0l228 541q33 87 77.5 130t106.5 54l2 12q-50 19 -72 59t-26 119l-41 515h192l49 -615h117l105 615h202l-102 -615h117l243 615h203l-209 -529q-31 -80 -68.5 -117.5t-95.5 -46.5l-2 -12q53 -18 79.5 -59.5t33.5 -124.5l57 -541h-204l-68 633h-117l-106 -633h-203
l104 633h-118l-267 -633h-217z" />
    <glyph glyph-name="uni0417" unicode="&#x417;" 
d="M522 -25q-160 0 -281.5 63.5t-191.5 174.5l156 139q128 -186 338 -186q119 0 192 57t90 162l4 39q5 35 5 47q0 164 -224 164h-184l31 186h184q119 0 181 52t83 161l4 23q4 20 4 45q0 78 -58 122t-165 44q-97 0 -173 -38.5t-142 -117.5l-137 123q95 110 210 164.5
t269 54.5q207 0 317.5 -86.5t110.5 -241.5q0 -158 -96.5 -260.5t-241.5 -120.5v-10q260 -40 260 -274q0 -214 -151 -350t-394 -136z" />
    <glyph glyph-name="uni0418" unicode="&#x418;" 
d="M57 0l238 1430h219l-104 -627l-101 -416h17l231 344l467 699h213l-238 -1430h-219l105 627l100 415h-16l-232 -344l-467 -698h-213z" />
    <glyph glyph-name="uni0419" unicode="&#x419;" 
d="M57 0l238 1430h219l-104 -627l-101 -416h17l231 344l467 699h213l-238 -1430h-219l105 627l100 415h-16l-232 -344l-467 -698h-213zM780 1544q-112 0 -179 52.5t-103 160.5l-37 111l188 65l29 -217q41 -14 113 -14q73 0 114 14l99 217l178 -65l-68 -117
q-122 -207 -334 -207z" />
    <glyph glyph-name="uni041A" unicode="&#x41a;" 
d="M80 0l239 1430h226l-103 -611h215l361 611h235l-329 -562q-38 -65 -77.5 -95t-88.5 -36l-2 -12q45 -12 70 -46.5t48 -117.5l105 -371h123l-31 -190h-121q-82 0 -127.5 40t-70.5 134l-125 457h-215l-107 -631h-225z" />
    <glyph glyph-name="uni041B" unicode="&#x41b;" 
d="M-68 -6l33 196h139q96 85 160 264.5t127 557.5l70 418h770l-240 -1430h-225l207 1239h-332l-43 -254q-62 -379 -134.5 -576.5t-162.5 -287.5q-72 -72 -143.5 -99.5t-165.5 -27.5h-60z" />
    <glyph glyph-name="uni041C" unicode="&#x41c;" 
d="M825 0l115 684l80 434h-16l-414 -735l-166 735h-16l-66 -434l-113 -684h-200l237 1430h266l127 -572h15l317 572h273l-238 -1430h-201z" />
    <glyph glyph-name="uni041D" unicode="&#x41d;" 
d="M766 0l106 631h-479l-104 -631h-226l238 1430h225l-100 -611h477l101 611h225l-238 -1430h-225z" />
    <glyph glyph-name="uni041E" unicode="&#x41e;" 
d="M549 -25q-226 0 -335.5 130.5t-109.5 377.5q0 92 9.5 184t31.5 189t55.5 183t85 163t115.5 132t151 87.5t189 32.5q226 0 335.5 -130.5t109.5 -377.5q0 -92 -9.5 -184t-31.5 -189t-55.5 -183t-85 -163t-115.5 -132t-151 -87.5t-189 -32.5zM555 164q280 0 352 432l39 235
q15 92 15 162q0 273 -226 273q-280 0 -352 -432l-39 -236q-14 -85 -14 -162q0 -272 225 -272z" />
    <glyph glyph-name="uni041F" unicode="&#x41f;" 
d="M68 0l237 1430h922l-240 -1430h-225l207 1239h-469l-207 -1239h-225z" />
    <glyph glyph-name="uni0420" unicode="&#x420;" 
d="M313 0h-225l238 1430h514q179 0 272.5 -96.5t93.5 -258.5q0 -234 -129 -368t-356 -134h-311zM520 1241l-80 -479h271q215 0 245 184l13 74q6 36 6 70q0 151 -187 151h-268z" />
    <glyph glyph-name="uni0421" unicode="&#x421;" 
d="M590 -25q-230 0 -342.5 136t-112.5 393q0 200 43.5 372.5t124.5 301.5t206 202.5t279 73.5q103 0 181.5 -28.5t127.5 -80t76.5 -115t36.5 -140.5l-211 -54q-8 53 -21.5 91t-38.5 71.5t-66.5 50.5t-100.5 17q-146 0 -235.5 -113.5t-124.5 -321.5l-35 -208
q-17 -104 -17 -172q0 -287 250 -287q106 0 176 64t140 202l186 -72q-86 -192 -208.5 -287.5t-313.5 -95.5z" />
    <glyph glyph-name="uni0422" unicode="&#x422;" 
d="M1296 1239h-450l-207 -1239h-225l207 1239h-451l33 191h1126z" />
    <glyph glyph-name="uni0423" unicode="&#x423;" 
d="M180 0l31 190h217l84 158l-287 1082h224l145 -580l55 -270h4l125 266l307 584h236l-664 -1225q-63 -119 -132 -162t-187 -43h-158z" />
    <glyph glyph-name="uni0424" unicode="&#x424;" 
d="M408 -63l30 178q-179 18 -270.5 128t-91.5 296q0 220 67.5 391t195 271t298.5 110l31 178h215l-31 -178q179 -18 269.5 -128t90.5 -296q0 -220 -67 -391t-194.5 -271t-299.5 -110l-28 -178h-215zM475 287l141 852q-119 -13 -199.5 -107t-105.5 -244l-22 -135
q-10 -65 -10 -114q0 -215 196 -252zM674 287q119 13 198.5 106t106.5 244l22 135q11 71 11 115q0 215 -197 252z" />
    <glyph glyph-name="uni0425" unicode="&#x425;" 
d="M791 729l315 -729h-246l-119 287l-110 272h-13l-196 -272l-215 -287h-254l565 737l-301 693h246l108 -256l105 -261h10l191 261l192 256h254z" />
    <glyph glyph-name="uni0426" unicode="&#x426;" 
d="M870 -389q-73 0 -156.5 28.5t-215.5 96.5l-17 -8l-16 -109h-191l13 76q15 93 65 141.5t129 48.5q59 0 144 -28l258 -74l16 8l55 209h-901l240 1430h225l-207 -1240h422l209 1240h225l-206 -1240h169l-61 -358q-20 -121 -68 -171t-131 -50z" />
    <glyph glyph-name="uni0427" unicode="&#x427;" 
d="M754 0l90 539h-10q-120 -47 -263 -47q-203 0 -297 91.5t-94 270.5q0 88 19 221l59 355h225l-67 -398q-15 -99 -15 -160q0 -107 51.5 -148.5t159.5 -41.5q143 0 262 43l117 705h228l-240 -1430h-225z" />
    <glyph glyph-name="uni0428" unicode="&#x428;" 
d="M0 0l240 1430h204l-208 -1246h221l207 1246h204l-206 -1246h219l209 1246h204l-239 -1430h-1055z" />
    <glyph glyph-name="uni0429" unicode="&#x429;" 
d="M893 -389q-50 0 -112.5 24.5t-209.5 100.5l-16 -8l-16 -109h-191l12 76q15 93 65.5 141.5t127.5 48.5q51 0 131 -28l223 -74l15 8l57 209h-979l240 1430h196l-207 -1246h195l209 1246h196l-206 -1246h194l209 1246h197l-207 -1246h137l-59 -352q-21 -122 -69.5 -171.5
t-131.5 -49.5z" />
    <glyph glyph-name="uni042A" unicode="&#x42a;" 
d="M219 0l207 1239h-289l31 191h516l-92 -549h209q184 0 279.5 -97t95.5 -262q0 -247 -133 -384.5t-365 -137.5h-459zM475 188h193q114 0 177.5 49t80.5 152l8 43q8 44 8 103q0 81 -48 119t-144 38h-189z" />
    <glyph glyph-name="uni042B" unicode="&#x42b;" 
d="M233 178h109q202 0 236 211l8 43q8 57 8 113q0 157 -168 157h-104zM0 0l240 1430h204l-92 -549h101q171 0 261.5 -91.5t90.5 -250.5q0 -258 -127 -398.5t-348 -140.5h-330zM850 0l240 1430h204l-239 -1430h-205z" />
    <glyph glyph-name="uni042C" unicode="&#x42c;" 
d="M344 188h246q114 0 177.5 49t80.5 152l8 43q8 66 8 103q0 81 -48 119t-144 38h-242zM88 0l240 1430h225l-92 -549h262q183 0 279 -97t96 -262q0 -247 -133.5 -384.5t-366.5 -137.5h-510z" />
    <glyph glyph-name="uni042D" unicode="&#x42d;" 
d="M473 629l33 190h418q14 124 14 160q0 136 -62 211.5t-190 75.5q-101 0 -168 -54t-133 -170l-186 78q88 173 209 253.5t297 80.5q232 0 345 -135.5t113 -392.5q0 -133 -22.5 -263t-73 -255.5t-124.5 -220.5t-186 -153.5t-247 -58.5q-369 0 -434 351l211 55
q23 -105 74.5 -161t160.5 -56q149 0 239.5 115.5t125.5 324.5l4 25h-418z" />
    <glyph glyph-name="uni042E" unicode="&#x42e;" 
d="M711 -25q-146 0 -215.5 89.5t-69.5 277.5q0 127 20 291h-135l-104 -633h-207l240 1430h204l-102 -613h135q33 179 86.5 325.5t118.5 211.5q100 100 252 100q145 0 215 -90t70 -277q0 -99 -17 -241t-47.5 -293.5t-82 -284.5t-111.5 -192q-98 -101 -250 -101zM729 154
q54 0 87.5 24.5t62.5 100.5t53 219l69 428q21 130 21 202q0 81 -27.5 114.5t-81.5 33.5q-53 0 -86 -24.5t-62 -100.5t-52 -219l-72 -428q-20 -148 -20 -203q0 -81 27 -114t81 -33z" />
    <glyph glyph-name="uni042F" unicode="&#x42f;" 
d="M4 0l33 193h115l176 278q38 63 77.5 94t96.5 41l2 12q-283 40 -283 336q0 211 133.5 343.5t360.5 132.5h506l-240 -1430h-225l98 584h-197l-264 -422q-57 -87 -118 -124.5t-138 -37.5h-133zM647 772h238l80 469h-240q-227 0 -258 -194l-6 -37q-6 -40 -6 -76
q0 -83 46.5 -122.5t145.5 -39.5z" />
    <glyph glyph-name="uni0430" unicode="&#x430;" 
d="M971 0h-219l41 250h-9q-66 -135 -150 -205t-214 -70q-160 0 -241 106t-81 304q0 104 18.5 203t58.5 189t97 157t140 107t182 40q233 0 293 -215h10l31 191h219zM508 154q123 0 217 110q88 100 109 228l34 210q15 92 -40.5 146.5t-165.5 54.5q-131 0 -209 -79.5
t-101 -215.5l-24 -145q-9 -56 -9 -88q0 -103 47.5 -162t141.5 -59z" />
    <glyph glyph-name="uni0431" unicode="&#x431;" 
d="M553 -25q-199 0 -310.5 122t-111.5 319q0 150 37 330t108.5 349t159.5 257q84 84 193.5 126t271.5 48l297 10l-39 -205l-293 -10q-97 -3 -163.5 -29.5t-116.5 -79.5q-100 -109 -172 -376h12q65 107 143.5 157.5t190.5 50.5q159 0 256.5 -108.5t97.5 -304.5
q0 -148 -43 -272t-118 -207.5t-178 -130t-222 -46.5zM567 152q119 0 196.5 76t102.5 214l21 117q8 54 8 88q0 109 -59.5 166t-159.5 57q-132 0 -204.5 -68t-94.5 -200l-17 -96q-12 -82 -12 -127q0 -114 57.5 -170.5t161.5 -56.5z" />
    <glyph glyph-name="uni0432" unicode="&#x432;" 
d="M575 -25q-209 0 -321.5 111.5t-112.5 310.5q0 77 19 191q38 223 186.5 358t374.5 135q164 0 261 -72t97 -190q0 -98 -65 -161t-180 -87v-10q98 -15 151 -71.5t53 -147.5q0 -158 -131.5 -262.5t-331.5 -104.5zM588 143q91 0 151.5 43t73.5 119q4 24 4 47q0 121 -158 121
q-87 0 -219 -20l-78 -13q-4 -28 -4 -55q0 -116 60 -179t170 -63zM381 586l119 14q191 24 267 61t89 101q2 10 2 35q0 52 -41 84t-121 32q-125 0 -206 -80.5t-103 -218.5z" />
    <glyph glyph-name="uni0433" unicode="&#x433;" 
d="M514 -25q-196 0 -294.5 73.5t-98.5 211.5q0 136 94.5 228t290.5 122l137 21q121 18 173 58t52 102q0 118 -182 118q-176 0 -313 -121l-115 125q97 83 205.5 125.5t249.5 42.5q180 0 277 -72.5t97 -203.5q0 -133 -96 -224.5t-289 -119.5l-139 -21q-119 -17 -171 -57.5
t-52 -108.5q0 -63 47.5 -93.5t153.5 -30.5q210 0 360 147l117 -125q-203 -197 -504 -197z" />
    <glyph glyph-name="uni0434" unicode="&#x434;" 
d="M504 -25q-190 0 -294 116.5t-104 311.5q0 149 40 273.5t107.5 207t157.5 128t191 45.5q214 0 272 -211h11v78q0 231 -74.5 327.5t-241.5 96.5q-78 0 -161 -17l32 193q62 16 176 16q247 0 368.5 -142t121.5 -433q0 -307 -63.5 -523t-172.5 -323q-144 -144 -366 -144z
M524 152q116 0 195 78.5t106 232.5l19 106q14 61 14 121q0 87 -54.5 139t-168.5 52q-110 0 -181.5 -75.5t-97.5 -217.5l-20 -109q-12 -73 -12 -106q0 -110 53 -165.5t147 -55.5z" />
    <glyph glyph-name="uni0435" unicode="&#x435;" 
d="M571 -25q-215 0 -325.5 115.5t-110.5 337.5q0 290 166 471.5t432 181.5q165 0 269 -75t104 -211q0 -53 -15 -97t-63 -92.5t-127.5 -83t-218 -59.5t-324.5 -31q-2 -18 -2 -41q0 -53 11.5 -94t37.5 -75t74.5 -52t116.5 -18q101 0 172 45.5t158 164.5l143 -92
q-93 -145 -210 -220t-288 -75zM713 915q-136 0 -222 -81.5t-112 -241.5l-4 -23q132 5 229 20.5t150.5 35.5t85 48t40.5 52.5t9 54.5q0 62 -42.5 98.5t-133.5 36.5z" />
    <glyph glyph-name="uni0436" unicode="&#x436;" 
d="M-63 0l28 172h154q65 110 102 340q23 161 23 264q0 70 -17 109h-131l29 172h57q113 0 170.5 -68.5t57.5 -230.5q0 -55 -4 -137h133l71 436h187l-72 -436h129q52 265 143 356q80 80 215 80h72l-29 -172h-139q-65 -110 -102 -340q-23 -141 -23 -264q0 -76 17 -109h143
l-29 -172h-69q-114 0 -172 68.5t-58 230.5q0 90 8 160h-133l-75 -459h-187l76 459h-129q-31 -158 -64.5 -245t-82.5 -134q-80 -80 -216 -80h-83z" />
    <glyph glyph-name="uni0437" unicode="&#x437;" 
d="M530 -25q-296 0 -450 193l143 129q122 -147 318 -147q227 0 252 155q4 24 4 43q0 109 -160 109h-207l27 164h180q88 0 146 35.5t67 93.5q4 24 4 34q0 57 -48.5 90t-146.5 33t-176.5 -36t-150.5 -111l-117 125q95 95 206.5 145.5t262.5 50.5q184 0 288.5 -73.5
t104.5 -196.5q0 -98 -61.5 -165.5t-181.5 -94.5v-10q190 -36 190 -205q0 -158 -133.5 -259.5t-360.5 -101.5z" />
    <glyph glyph-name="uni0438" unicode="&#x438;" 
d="M743 0l43 250h-10q-63 -135 -145 -205t-203 -70q-138 0 -212.5 83.5t-74.5 222.5q0 68 17 170l100 606h219l-102 -615q-13 -80 -13 -118q0 -77 38 -123.5t116 -46.5q114 0 199 106q90 110 110 232l95 565h219l-176 -1057h-220z" />
    <glyph glyph-name="uni0439" unicode="&#x439;" 
d="M743 0l43 250h-10q-63 -135 -145 -205t-203 -70q-138 0 -212.5 83.5t-74.5 222.5q0 68 17 170l100 606h219l-102 -615q-13 -80 -13 -118q0 -77 38 -123.5t116 -46.5q114 0 199 106q90 110 110 232l95 565h219l-176 -1057h-220zM725 1196q-112 0 -179.5 52.5t-103.5 160.5
l-36 111l188 65l29 -217q41 -14 112 -14q74 0 115 14l98 217l178 -65l-67 -117q-122 -207 -334 -207z" />
    <glyph glyph-name="uni043A" unicode="&#x43a;" 
d="M106 0l177 1057h219l-70 -430h184l306 430h237l-274 -385q-38 -55 -77 -83t-93 -40l-2 -10q42 -10 70 -36.5t53 -88.5l94 -236h117l-29 -178h-115q-70 0 -114.5 32.5t-73.5 106.5l-127 314h-187l-75 -453h-220z" />
    <glyph glyph-name="uni043B" unicode="&#x43b;" 
d="M-33 -6l31 184h141q69 77 116.5 204.5t82.5 338.5l55 336h727l-176 -1057h-219l147 881h-303l-26 -158q-44 -258 -98.5 -403.5t-125.5 -217.5q-58 -57 -121 -82.5t-151 -25.5h-80z" />
    <glyph glyph-name="uni043C" unicode="&#x43c;" 
d="M49 0l174 1057h248l145 -500h9l313 500h244l-176 -1057h-191l103 610l36 174h-14l-385 -614l-178 614h-15l-20 -174l-102 -610h-191z" />
    <glyph glyph-name="uni043D" unicode="&#x43d;" 
d="M86 0l176 1057h221l-73 -430h442l72 430h219l-176 -1057h-219l73 451h-440l-74 -451h-221z" />
    <glyph glyph-name="uni043E" unicode="&#x43e;" 
d="M543 -25q-204 0 -317 122.5t-113 328.5q0 198 74.5 347.5t204 228.5t294.5 79q204 0 317 -122t113 -328q0 -298 -161 -477t-412 -179zM557 150q126 0 204.5 78t102.5 218l23 136q10 65 10 96q0 114 -59.5 171.5t-165.5 57.5q-126 0 -204.5 -78.5t-102.5 -218.5l-23 -135
q-10 -65 -10 -96q0 -114 59.5 -171.5t165.5 -57.5z" />
    <glyph glyph-name="uni043F" unicode="&#x43f;" 
d="M311 0h-219l176 1057h219l-43 -250h11q63 135 145 204.5t203 69.5q138 0 212.5 -83t74.5 -222q0 -68 -17 -170l-100 -606h-219l102 614q12 74 12 119q0 77 -37.5 123.5t-115.5 46.5q-114 0 -199 -106q-90 -110 -110 -232z" />
    <glyph glyph-name="uni0440" unicode="&#x440;" 
d="M14 -410l244 1467h219l-41 -250h8q65 134 150 204t215 70q160 0 240.5 -105.5t80.5 -303.5q0 -131 -30.5 -253t-89 -222.5t-155.5 -161t-220 -60.5q-233 0 -293 215h-10l-99 -600h-219zM567 154q131 0 209 79.5t101 215.5l24 145q8 50 8 88q0 103 -47 162t-141 59
q-123 0 -217 -110q-88 -100 -109 -228l-35 -211q-15 -92 41 -146t166 -54z" />
    <glyph glyph-name="uni0441" unicode="&#x441;" 
d="M555 -25q-201 0 -309.5 120t-108.5 327q0 191 70.5 341t199 234t293.5 84q164 0 258.5 -70.5t126.5 -189.5l-182 -80q-26 85 -77.5 121.5t-145.5 36.5q-115 0 -191 -74t-100 -219l-20 -123q-9 -56 -9 -96q0 -113 59 -171t169 -58q51 0 91 14.5t101.5 69.5t137.5 159
l145 -90q-109 -173 -224 -254.5t-284 -81.5z" />
    <glyph glyph-name="uni0442" unicode="&#x442;" 
d="M190 0h-186l176 1057h187l-29 -174h10q84 198 232 198q85 0 127 -54.5t34 -149.5h9q86 204 254 204q89 0 135.5 -51.5t46.5 -148.5q0 -64 -15 -156l-120 -725h-187l117 698q12 74 12 115q0 100 -80 100q-69 0 -116 -75q-54 -85 -68 -172l-111 -666h-186l119 709
q10 62 10 102q0 102 -74 102q-69 0 -120 -75q-45 -66 -64 -162z" />
    <glyph glyph-name="uni0443" unicode="&#x443;" 
d="M432 -434q-139 0 -235.5 35.5t-161.5 113.5l139 140q88 -111 260 -111q137 0 215.5 72.5t106.5 246.5l35 220h-9q-63 -135 -145 -205t-203 -70q-138 0 -212.5 83t-74.5 222q0 68 17 170l94 574h219l-96 -582q-12 -74 -12 -119q0 -77 37.5 -123.5t115.5 -46.5
q113 0 199 107q90 111 110 231l89 533h219l-172 -1028q-39 -236 -176.5 -349.5t-358.5 -113.5z" />
    <glyph glyph-name="uni0444" unicode="&#x444;" 
d="M586 938l53 313q21 125 98 195t207 70h172l-29 -170h-243l-68 -410h6q43 79 90.5 112t108.5 33q91 0 140.5 -68.5t49.5 -209.5q0 -213 -52.5 -424.5t-143.5 -304.5q-71 -68 -156 -68q-130 0 -166 146h-8l-63 -383q-35 -203 -193 -203q-52 0 -98 26t-123 97l-74 67
l113 127l151 -141l33 10l66 400h-8q-43 -78 -90 -112t-107 -34q-91 0 -141 69t-50 210q0 213 53 425.5t144 303.5q64 67 156 67q66 0 106 -34t58 -109h8zM492 332l69 424q26 149 -90 149q-44 0 -74.5 -23.5t-57.5 -90.5t-46 -185l-23 -131q-14 -79 -14 -149q0 -79 24 -111.5
t72 -32.5q114 0 140 150zM762 182q65 0 107 63.5t71 235.5l23 133q14 92 14 150q0 77 -24.5 109t-73.5 32q-112 0 -138 -147l-69 -426q-26 -150 90 -150z" />
    <glyph glyph-name="uni0445" unicode="&#x445;" 
d="M217 -25q-103 0 -158 66.5t-55 196.5q0 45 8 118l187 19q-4 -31 -4 -78q0 -84 19 -121t65 -37q63 0 111.5 62t74 157t37.5 187.5t12 175.5q0 119 -16 182l-29 15l-301 -195l-88 125l139 104q173 129 285 129q47 0 81.5 -19t54 -48.5t31.5 -76t15.5 -92t3.5 -106.5h15
q42 179 118 260.5t191 81.5q101 0 156 -67.5t55 -192.5q0 -39 -6 -121l-187 -18q4 66 4 82q0 78 -19.5 116t-64.5 38q-51 0 -93 -41.5t-67.5 -105t-43 -142.5t-24.5 -149t-7 -130q0 -123 20 -196l27 -15l291 205l92 -121l-103 -90q-179 -158 -313 -158q-54 0 -92 25
t-57.5 73.5t-28 106t-8.5 135.5l-15 2q-42 -179 -119 -260.5t-194 -81.5z" />
    <glyph glyph-name="uni0446" unicode="&#x446;" 
d="M893 -389q-65 0 -141 27.5t-211 97.5l-17 -8l-16 -109h-191l13 76q15 93 65 141.5t129 48.5q59 0 144 -28l243 -74l15 8l86 236l-8 6q-53 -47 -121 -47q-72 0 -116 46.5t-44 121.5q0 54 10 108h-8q-63 -137 -141.5 -206.5t-196.5 -69.5q-135 0 -205.5 82.5t-70.5 222.5
q0 58 16 170l100 596h219l-100 -602q-12 -67 -12 -121q0 -77 33.5 -123.5t107.5 -46.5q57 0 101 27t86 81q90 110 110 226l94 559h219l-143 -867l29 -12l135 139l102 -100l-45 -51l-65 -340q-24 -120 -72 -167.5t-133 -47.5z" />
    <glyph glyph-name="uni0447" unicode="&#x447;" 
d="M719 0l90 545h-10q-59 -108 -136 -158.5t-188 -50.5q-137 0 -221 71.5t-84 188.5q0 58 12 129l56 332h219l-54 -316q-10 -54 -10 -98q0 -60 43.5 -93.5t120.5 -33.5q120 0 195.5 68t93.5 172l49 301h221l-178 -1057h-219z" />
    <glyph glyph-name="uni0448" unicode="&#x448;" 
d="M223 -25q-89 0 -134.5 52t-45.5 149q0 62 14 148l123 733h187l-117 -705q-12 -78 -12 -108q0 -48 19.5 -74.5t57.5 -26.5q66 0 117 76q48 69 64 172l112 666h187l-117 -705q-10 -65 -10 -106q0 -103 73 -103q68 0 119 76q50 73 64 162l112 676h189l-176 -1057h-189
l29 174h-10q-40 -95 -95.5 -147t-136.5 -52q-85 0 -127 55t-33 150h-8q-90 -205 -256 -205z" />
    <glyph glyph-name="uni0449" unicode="&#x449;" 
d="M934 -389q-75 0 -160.5 25t-265.5 100l-14 -8l-19 -109h-188l12 76q13 90 62.5 138t123.5 48q49 0 140 -22l325 -84l17 10l84 240l-7 4q-46 -43 -98 -43q-56 0 -88.5 37t-32.5 104q0 32 4 57h-10q-85 -198 -223 -198q-82 0 -120 54t-30 150h-8q-86 -204 -245 -204
q-80 0 -123 51.5t-43 148.5q0 62 14 148l121 723h186l-117 -695q-12 -78 -12 -110q0 -47 18 -72.5t50 -25.5q55 0 106 71q46 70 64 178l108 654h187l-115 -695q-12 -58 -12 -106q0 -102 65 -102q59 0 107 71q49 78 63 178l111 654h186l-147 -893l22 -10l109 114l90 -88
l-35 -41l-59 -313q-22 -120 -70.5 -167.5t-132.5 -47.5z" />
    <glyph glyph-name="uni044A" unicode="&#x44a;" 
d="M637 -25q-182 0 -282.5 95t-100.5 252q0 121 45.5 223t159.5 223l55 59l-209 84l-16 -10l-15 -94h-188l12 84q34 190 197 190q56 0 115 -28.5t163 -106.5l13 8l16 103h197l-21 -142l-239 -297l12 -10q131 113 274 113q133 0 213 -75t80 -212q0 -201 -136.5 -330
t-344.5 -129zM655 145q89 0 153.5 54.5t82.5 154.5q4 46 4 54q0 149 -172 149q-103 0 -169.5 -48.5t-78.5 -125.5q-6 -35 -6 -70q0 -80 47 -124t139 -44z" />
    <glyph glyph-name="uni044B" unicode="&#x44b;" 
d="M383 -25q-156 0 -238 83.5t-82 232.5q0 67 21 190l96 576h193l-78 -463h10q93 158 246 158q109 0 171 -73t62 -202q0 -234 -113 -368t-288 -134zM385 133q148 0 186 225q11 69 11 99q0 68 -30.5 103.5t-88.5 35.5q-82 0 -134 -57t-65 -144q-10 -52 -10 -104
q0 -76 35 -117t96 -41zM856 0l176 1057h193l-176 -1057h-193z" />
    <glyph glyph-name="uni044C" unicode="&#x44c;" 
d="M571 -25q-183 0 -285 94.5t-102 241.5q0 53 17 172l96 574h219l-80 -484h10q118 179 318 179q141 0 222 -78.5t81 -229.5q0 -205 -139 -337t-357 -132zM592 147q96 0 159.5 53t82.5 152q8 54 8 78q0 74 -43.5 112t-128.5 38q-112 0 -180 -53t-82 -140q-7 -40 -7 -72
q0 -79 48.5 -123.5t142.5 -44.5z" />
    <glyph glyph-name="uni044D" unicode="&#x44d;" 
d="M414 451l26 163h400q4 40 4 58q0 114 -59.5 173.5t-172.5 59.5q-78 0 -140.5 -38t-135.5 -128l-143 99q100 129 203.5 186t248.5 57q201 0 309.5 -119.5t108.5 -326.5q0 -191 -70.5 -341t-198.5 -234.5t-292 -84.5q-318 0 -393 254l178 78q27 -84 81 -119.5t144 -35.5
q123 0 200.5 76t100.5 221v2h-399z" />
    <glyph glyph-name="uni044E" unicode="&#x44e;" 
d="M715 -25q-137 0 -208 83t-71 247q0 85 6 152h-166l-75 -457h-191l176 1057h191l-72 -436h160q42 214 146.5 337t271.5 123q278 0 278 -329q0 -353 -118 -565t-328 -212zM735 145q75 0 119.5 61.5t69.5 215.5l28 172q19 125 19 170q0 76 -25.5 111.5t-81.5 35.5
q-76 0 -119.5 -61t-70.5 -215l-29 -172q-18 -119 -18 -170q0 -77 25.5 -112.5t82.5 -35.5z" />
    <glyph glyph-name="uni044F" unicode="&#x44f;" 
d="M51 0l29 178h110l129 184q33 45 65 66t79 25l2 12q-131 17 -197.5 81.5t-66.5 168.5q0 164 131.5 265t359.5 101q224 0 406 -67l-170 -1014h-217l67 406h-170l-194 -281q-50 -70 -100 -97.5t-121 -27.5h-142zM625 547h176l59 344q-74 22 -180 22q-228 0 -252 -161
q-4 -18 -4 -47q0 -158 201 -158z" />
    <glyph glyph-name="uni0450" unicode="&#x450;" 
d="M571 -25q-215 0 -325.5 115.5t-110.5 337.5q0 290 166 471.5t432 181.5q165 0 269 -75t104 -211q0 -53 -15 -97t-63 -92.5t-127.5 -83t-218 -59.5t-324.5 -31q-2 -18 -2 -41q0 -53 11.5 -94t37.5 -75t74.5 -52t116.5 -18q101 0 172 45.5t158 164.5l143 -92
q-93 -145 -210 -220t-288 -75zM713 915q-136 0 -222 -81.5t-112 -241.5l-4 -23q132 5 229 20.5t150.5 35.5t85 48t40.5 52.5t9 54.5q0 62 -42.5 98.5t-133.5 36.5zM713 1186l-187 350l195 82l129 -375z" />
    <glyph glyph-name="uni0451" unicode="&#x451;" 
d="M571 -25q-215 0 -325.5 115.5t-110.5 337.5q0 290 166 471.5t432 181.5q165 0 269 -75t104 -211q0 -53 -15 -97t-63 -92.5t-127.5 -83t-218 -59.5t-324.5 -31q-2 -18 -2 -41q0 -53 11.5 -94t37.5 -75t74.5 -52t116.5 -18q101 0 172 45.5t158 164.5l143 -92
q-93 -145 -210 -220t-288 -75zM713 915q-136 0 -222 -81.5t-112 -241.5l-4 -23q132 5 229 20.5t150.5 35.5t85 48t40.5 52.5t9 54.5q0 62 -42.5 98.5t-133.5 36.5zM547 1245q-125 0 -125 88q0 13 6 51q19 113 147 113q125 0 125 -88q0 -13 -6 -51q-19 -113 -147 -113z
M956 1245q-125 0 -125 88q0 7 7 51q19 113 147 113q125 0 125 -88q0 -13 -6 -51q-19 -113 -148 -113z" />
    <glyph glyph-name="uni0452" unicode="&#x452;" 
d="M686 -434q-39 0 -74.5 13t-71 43t-62 58.5t-68.5 79.5l-58 68l144 117l184 -199l33 8l143 860q12 64 12 119q0 76 -37.5 123t-115.5 47q-112 0 -199 -108q-90 -110 -110 -226l-95 -569h-221l205 1223h-127l27 166h129l20 127h219l-20 -127h295l-27 -166h-297l-68 -416h9
q62 134 145 204t203 70q139 0 214 -83t75 -222q0 -51 -17 -170l-129 -764q-45 -276 -260 -276z" />
    <glyph glyph-name="uni0453" unicode="&#x453;" 
d="M514 -25q-196 0 -294.5 73.5t-98.5 211.5q0 136 94.5 228t290.5 122l137 21q121 18 173 58t52 102q0 118 -182 118q-176 0 -313 -121l-115 125q97 83 205.5 125.5t249.5 42.5q180 0 277 -72.5t97 -203.5q0 -133 -96 -224.5t-289 -119.5l-139 -21q-119 -17 -171 -57.5
t-52 -108.5q0 -63 47.5 -93.5t153.5 -30.5q210 0 360 147l117 -125q-203 -197 -504 -197zM1018 1522l-277 -336l-129 71l228 361z" />
    <glyph glyph-name="uni0454" unicode="&#x454;" 
d="M555 -25q-201 0 -309.5 120t-108.5 327q0 191 70.5 341t199 234t293.5 84q164 0 258.5 -70.5t126.5 -189.5l-176 -78q-27 89 -80 125.5t-149 36.5q-117 0 -193.5 -75t-101.5 -216h399l-26 -163h-402q-2 -25 -2 -66q0 -115 60.5 -174t173.5 -59q77 0 138.5 37t139.5 130
l140 -98q-100 -129 -203.5 -187.5t-247.5 -58.5z" />
    <glyph glyph-name="uni0455" unicode="&#x455;" 
d="M541 -25q-155 0 -270.5 49t-178.5 140l139 123q113 -144 326 -144q121 0 189.5 43.5t68.5 122.5q0 57 -34 83t-99 36l-154 27q-66 12 -114 29.5t-93.5 48.5t-69.5 82t-24 120q0 111 62 190.5t165.5 117.5t235.5 38q137 0 243 -41t165 -114l-135 -129q-35 49 -107.5 82.5
t-177.5 33.5q-113 0 -174.5 -40.5t-61.5 -114.5q0 -57 35 -81.5t103 -37.5l153 -29q52 -10 90 -21t80 -32t68.5 -48.5t43.5 -71t17 -99.5q0 -168 -133.5 -265.5t-357.5 -97.5z" />
    <glyph glyph-name="uni0456" unicode="&#x456;" 
d="M696 1251q-73 0 -106 28t-33 73q0 13 8 63q19 119 160 119q139 0 139 -100q0 -14 -8 -64q-19 -119 -160 -119zM578 -25q-94 0 -145.5 50.5t-51.5 134.5q0 30 14 116l117 603h-356l28 178h580l-172 -887l41 -16l354 325l125 -112l-160 -160q-131 -131 -211 -181.5
t-163 -50.5z" />
    <glyph glyph-name="uni0457" unicode="&#x457;" 
d="M578 -25q-94 0 -145.5 50.5t-51.5 134.5q0 47 14 116l117 603h-356l28 178h580l-172 -887l41 -16l354 325l125 -112l-160 -160q-131 -131 -211 -181.5t-163 -50.5zM481 1245q-125 0 -125 88q0 13 6 51q19 113 148 113q125 0 125 -88q0 -13 -6 -51q-19 -113 -148 -113z
M891 1245q-125 0 -125 88q0 13 6 51q19 113 148 113q124 0 124 -88q0 -13 -6 -51q-19 -113 -147 -113z" />
    <glyph glyph-name="uni0458" unicode="&#x458;" 
d="M514 -434q-83 0 -146.5 54t-189.5 214l-104 127l147 117l287 -334l31 10l188 1125h-416l29 178h635l-203 -1217q-46 -274 -258 -274zM905 1251q-73 0 -106 28t-33 73q0 13 8 63q19 119 160 119q139 0 139 -100q0 -14 -8 -64q-19 -119 -160 -119z" />
    <glyph glyph-name="uni0459" unicode="&#x459;" 
d="M813 -25q-142 0 -218.5 82t-76.5 226q0 69 17 174l71 432h-180l-23 -144q-50 -305 -104.5 -449t-134.5 -216q-93 -86 -232 -86h-36l28 176h101q63 70 110 202.5t88 379.5l51 305h547l-73 -455h10q82 150 229 150q102 0 158.5 -71.5t56.5 -201.5q0 -234 -111 -369
t-278 -135zM819 129q134 0 176 231q9 65 9 101q0 137 -105 137q-71 0 -121 -60t-63 -143q-13 -70 -13 -112q0 -72 32 -113t85 -41z" />
    <glyph glyph-name="uni045A" unicode="&#x45a;" 
d="M813 -25q-142 0 -219.5 83.5t-77.5 226.5q0 43 10 121l9 51h-269l-76 -457h-186l176 1057h187l-72 -434h268l72 434h186l-73 -455h10q82 150 229 150q102 0 158.5 -71.5t56.5 -201.5q0 -234 -111 -369t-278 -135zM819 129q134 0 176 231q9 65 9 101q0 137 -105 137
q-71 0 -121 -60t-63 -143q-13 -70 -13 -112q0 -72 32 -113t85 -41z" />
    <glyph glyph-name="uni045B" unicode="&#x45b;" 
d="M92 0l203 1223h-127l29 163h125l22 130h219l-22 -130h297l-29 -163h-295l-70 -416h11q63 135 145 204.5t203 69.5q138 0 212.5 -83t74.5 -222q0 -68 -17 -170l-100 -606h-219l102 614q12 74 12 119q0 77 -37.5 123.5t-115.5 46.5q-114 0 -199 -106q-90 -110 -110 -232
l-95 -565h-219z" />
    <glyph glyph-name="uni045C" unicode="&#x45c;" 
d="M106 0l177 1057h219l-70 -430h184l306 430h237l-274 -385q-38 -55 -77 -83t-93 -40l-2 -10q42 -10 70 -36.5t53 -88.5l94 -236h117l-29 -178h-115q-70 0 -114.5 32.5t-73.5 106.5l-127 314h-187l-75 -453h-220zM1001 1522l-276 -336l-129 71l227 361z" />
    <glyph glyph-name="uni045D" unicode="&#x45d;" 
d="M743 0l43 250h-10q-63 -135 -145 -205t-203 -70q-138 0 -212.5 83.5t-74.5 222.5q0 68 17 170l100 606h219l-102 -615q-13 -80 -13 -118q0 -77 38 -123.5t116 -46.5q114 0 199 106q90 110 110 232l95 565h219l-176 -1057h-220zM692 1186l-186 350l194 82l129 -375z" />
    <glyph glyph-name="uni045E" unicode="&#x45e;" 
d="M432 -434q-139 0 -235.5 35.5t-161.5 113.5l139 140q88 -111 260 -111q137 0 215.5 72.5t106.5 246.5l35 220h-9q-63 -135 -145 -205t-203 -70q-138 0 -212.5 83t-74.5 222q0 68 17 170l94 574h219l-96 -582q-12 -74 -12 -119q0 -77 37.5 -123.5t115.5 -46.5
q113 0 199 107q90 111 110 231l89 533h219l-172 -1028q-39 -236 -176.5 -349.5t-358.5 -113.5zM741 1196q-112 0 -179 52.5t-103 160.5l-37 111l188 65l29 -217q41 -14 113 -14q73 0 114 14l99 217l178 -65l-68 -117q-122 -207 -334 -207z" />
    <glyph glyph-name="uni045F" unicode="&#x45f;" 
d="M426 -25q-138 0 -212.5 83.5t-74.5 222.5q0 71 17 170l102 606h219l-102 -613q-13 -73 -13 -120q0 -76 38 -123t116 -47q112 0 199 108q92 122 108 225l97 570h219l-176 -1057h-220l41 250h-8q-64 -135 -146.5 -205t-203.5 -70zM354 -410l56 324h196l-55 -324h-197z" />
    <glyph glyph-name="uni0472" unicode="&#x472;" 
d="M549 -25q-226 0 -335.5 130.5t-109.5 377.5q0 92 9.5 184t32 189t56 183t85 163t115.5 132t151 87.5t188 32.5q226 0 335.5 -130.5t109.5 -377.5q0 -92 -9.5 -184t-32 -189t-56 -183t-85 -163t-115.5 -132t-151 -87.5t-188 -32.5zM555 154q149 0 236.5 111t123.5 327
l7 37h-582l-6 -35q-12 -68 -12 -164q0 -136 56 -206t177 -70zM377 842l-4 -23h579q19 100 19 180q0 277 -236 277q-147 0 -233 -108.5t-125 -325.5z" />
    <glyph glyph-name="uni0473" unicode="&#x473;" 
d="M543 -25q-204 0 -317 122.5t-113 328.5q0 197 74.5 347t203.5 229t293 79q207 0 319.5 -121.5t112.5 -328.5q0 -298 -161 -477t-412 -179zM557 141q255 0 315 301l2 11h-544q-6 -37 -6 -78q0 -117 61 -175.5t172 -58.5zM356 614h545q4 27 4 68q0 117 -60.5 175t-172.5 58
q-130 0 -210.5 -78t-105.5 -223z" />
    <glyph glyph-name="uni0490" unicode="&#x490;" 
d="M164 0l237 1430h619l51 307h207l-84 -498h-598l-207 -1239h-225z" />
    <glyph glyph-name="uni0491" unicode="&#x491;" 
d="M176 0l176 1057h566l49 289h196l-80 -465h-542l-146 -881h-219z" />
    <glyph glyph-name="uni0492" unicode="&#x492;" 
d="M121 645l29 170h184l102 615h826l-33 -191h-598l-72 -424h377l-31 -170h-375l-106 -645h-225l106 645h-184z" />
    <glyph glyph-name="uni0493" unicode="&#x493;" 
d="M215 0l72 428h-197l27 160h196l78 469h764l-31 -176h-542l-52 -293h320l-27 -160h-317l-72 -428h-219z" />
    <glyph glyph-name="uni0494" unicode="&#x494;" 
d="M748 -393q-72 0 -126 38t-120 119l-60 74l144 121l153 -166l27 8l84 475q16 88 16 158q0 108 -54 150.5t-157 42.5q-138 0 -262 -45l-98 -582h-225l239 1430h824l-33 -191h-598l-78 -469h10q115 45 262 45q203 0 297 -91.5t94 -272.5q0 -107 -20 -224l-63 -358
q-23 -123 -86 -192.5t-170 -69.5z" />
    <glyph glyph-name="uni0495" unicode="&#x495;" 
d="M694 -434q-74 0 -131 45t-145 149l-53 64l143 117l180 -195l33 8l78 457q8 55 8 96q0 61 -43 95t-121 34q-120 0 -194.5 -68t-92.5 -173l-32 -195h-220l177 1057h763l-30 -176h-543l-78 -475h10q58 108 135.5 159t188.5 51q137 0 220 -72t83 -190q0 -51 -10 -129
l-64 -383q-48 -276 -262 -276z" />
    <glyph glyph-name="uni0496" unicode="&#x496;" 
d="M956 -307l54 307h-117l-66 633h-114l-105 -633h-205l107 633h-117l-264 -633h-217l225 541q35 86 80 129.5t107 54.5l2 12q-50 19 -72.5 59t-28.5 119l-41 515h195l47 -615h115l102 615h205l-105 -615h115l244 615h203l-211 -529q-29 -80 -66.5 -117.5t-95.5 -46.5
l-2 -12q53 -17 78 -58.5t34 -125.5l39 -359h133l-81 -489h-177z" />
    <glyph glyph-name="uni0497" unicode="&#x497;" 
d="M899 -287l51 299q-72 21 -108.5 89t-36.5 198q0 20 8 160h-133l-74 -459h-188l76 459h-127q-30 -155 -65 -243t-83 -136q-80 -80 -215 -80h-84l29 172h151q67 113 103 340q22 135 22 264q0 72 -16 109h-131l28 172h58q114 0 171.5 -68.5t57.5 -230.5q0 -76 -6 -137h135
l72 436h186l-71 -436h129q53 268 141 356q83 80 217 80h72l-29 -172h-141q-67 -113 -103 -340q-22 -154 -22 -264q0 -72 16 -109h158l-76 -459h-172z" />
    <glyph glyph-name="uni0498" unicode="&#x498;" 
d="M360 -307l50 293q-243 37 -361 227l156 139q128 -186 338 -186q119 0 192 57.5t90 163.5l4 37q5 40 5 47q0 164 -224 164h-184l31 186h184q119 0 181 52t83 161l4 23q4 20 4 45q0 78 -58 122t-165 44q-97 0 -173 -38.5t-142 -117.5l-137 123q95 110 210 164.5t269 54.5
q207 0 317.5 -86.5t110.5 -241.5q0 -158 -96.5 -260.5t-241.5 -120.5v-10q260 -40 260 -274q0 -190 -123.5 -321.5t-327.5 -157.5l-47 -289h-209z" />
    <glyph glyph-name="uni0499" unicode="&#x499;" 
d="M389 -287l43 269q-226 27 -352 186l143 129q122 -147 318 -147q230 0 252 155q4 24 4 47q0 105 -160 105h-207l27 164h180q88 0 146 35.5t67 93.5q4 24 4 32q0 58 -49 91.5t-152 33.5q-180 0 -321 -147l-117 125q95 95 207 145.5t260 50.5q185 0 290 -73t105 -195
q0 -101 -62.5 -168.5t-180.5 -93.5v-10q92 -17 141 -67.5t49 -131.5q0 -144 -104.5 -241t-290.5 -119l-43 -269h-197z" />
    <glyph glyph-name="uni049A" unicode="&#x49a;" 
d="M850 -307l51 307q-65 9 -105 49.5t-61 124.5l-125 457h-215l-106 -631h-226l240 1430h225l-102 -611h215l360 611h236l-330 -562q-38 -65 -77.5 -95t-88.5 -36l-2 -12q45 -12 70.5 -46.5t48.5 -117.5l105 -371h176l-82 -497h-207z" />
    <glyph glyph-name="uni049B" unicode="&#x49b;" 
d="M784 -289l50 289q-48 14 -80.5 46.5t-57.5 92.5l-127 314h-186l-74 -453h-221l176 1057h221l-71 -430h184l305 430h238l-275 -385q-38 -55 -77 -83t-93 -40l-2 -10q42 -10 70 -36.5t53 -88.5l94 -236h150l-78 -467h-199z" />
    <glyph glyph-name="uni049C" unicode="&#x49c;" 
d="M397 328l49 305h-100l-104 -633h-215l239 1430h215l-104 -613h100l51 305h168l-51 -305h80l350 613h223l-319 -562q-37 -64 -76 -94.5t-88 -36.5l-2 -12q45 -13 70.5 -47t44.5 -117l90 -371h123l-31 -190h-111q-82 0 -130 44.5t-72 150.5l-105 438h-78l-51 -305h-166z
" />
    <glyph glyph-name="uni049D" unicode="&#x49d;" 
d="M391 221l39 234h-100l-76 -455h-207l176 1057h207l-72 -432h101l41 247h153l-41 -247h74l293 432h225l-258 -381q-37 -57 -77 -86t-95 -41l-2 -10q44 -8 71 -35.5t48 -89.5l86 -240h117l-31 -174h-100q-74 0 -119.5 35t-75.5 119l-109 301h-75l-39 -234h-154z" />
    <glyph glyph-name="uni04A0" unicode="&#x4a0;" 
d="M215 0l207 1237h-289l31 193h516l-102 -611h172l335 611h236l-307 -560q-66 -121 -164 -133l-2 -12q46 -12 71 -46.5t44 -113.5l81 -375h125l-30 -190h-123q-83 0 -132 45t-71 154l-96 432h-170l-107 -631h-225z" />
    <glyph glyph-name="uni04A1" unicode="&#x4a1;" 
d="M211 0l147 881h-272l29 176h491l-71 -430h153l291 430h235l-258 -385q-36 -56 -76 -84t-94 -39l-2 -10q45 -9 71.5 -36.5t47.5 -92.5l84 -232h115l-29 -178h-115q-73 0 -118 36.5t-76 121.5l-102 295h-156l-76 -453h-219z" />
    <glyph glyph-name="uni04A2" unicode="&#x4a2;" 
d="M842 -307l51 307h-191l105 629h-422l-106 -629h-226l240 1430h225l-102 -611h424l102 611h225l-206 -1240h169l-83 -497h-205z" />
    <glyph glyph-name="uni04A3" unicode="&#x4a3;" 
d="M829 -287l50 287h-191l74 451h-410l-73 -451h-220l177 1057h219l-74 -430h412l71 430h219l-145 -877h166l-78 -467h-197z" />
    <glyph glyph-name="uni04A4" unicode="&#x4a4;" 
d="M0 0l240 1430h217l-103 -613h318l102 613h563l-30 -185h-346l-207 -1245h-217l104 633h-317l-107 -633h-217z" />
    <glyph glyph-name="uni04A5" unicode="&#x4a5;" 
d="M4 0l176 1057h207l-72 -432h308l71 432h570l-31 -172h-361l-147 -885h-207l76 455h-307l-76 -455h-207z" />
    <glyph glyph-name="uni04AA" unicode="&#x4aa;" 
d="M418 -307l49 295q-332 66 -332 516q0 110 16 219t48 216.5t85 199.5t122.5 163t166.5 111.5t211 40.5q104 0 183.5 -28.5t129 -80t77 -115t36.5 -140.5l-211 -54q-8 53 -21.5 90.5t-38.5 71t-66.5 51t-100.5 17.5q-147 0 -235.5 -114.5t-122.5 -322.5l-35 -206
q-17 -97 -17 -172q0 -136 60.5 -211.5t187.5 -75.5q106 0 176 64t140 202l188 -72q-77 -170 -181 -263t-259 -113l-47 -289h-209z" />
    <glyph glyph-name="uni04AB" unicode="&#x4ab;" 
d="M416 -287l43 271q-156 26 -239 141t-83 297q0 191 70.5 341t199 234t293.5 84q164 0 258.5 -70.5t126.5 -189.5l-182 -80q-26 85 -77.5 121.5t-145.5 36.5q-116 0 -191 -75.5t-98 -217.5l-20 -123q-11 -68 -11 -96q0 -112 59 -170.5t169 -58.5q39 0 69 8t69.5 32t86.5 74
t105 129l145 -90q-93 -147 -187.5 -226.5t-218.5 -100.5l-45 -271h-196z" />
    <glyph glyph-name="uni04AE" unicode="&#x4ae;" 
d="M641 0h-225l88 535l-330 895h240l127 -359l96 -309h12l205 309l242 359h258l-623 -885z" />
    <glyph glyph-name="uni04AF" unicode="&#x4af;" 
d="M348 -410l70 410l-219 1057h223l74 -410l65 -409h12l201 409l213 410h219l-569 -1057l-70 -410h-219z" />
    <glyph glyph-name="uni04B0" unicode="&#x4b0;" 
d="M195 371l30 170h281l-332 889h242l129 -359l96 -309h12l203 309l240 359h258l-623 -889h281l-29 -170h-281l-61 -371h-227l63 371h-282z" />
    <glyph glyph-name="uni04B1" unicode="&#x4b1;" 
d="M348 -410l43 250h-270l26 160h271l-219 1057h223l74 -410l65 -409h12l201 409l213 410h219l-569 -1057h268l-26 -160h-269l-43 -250h-219z" />
    <glyph glyph-name="uni04B2" unicode="&#x4b2;" 
d="M901 -307l51 307h-106l-117 287l-111 270h-12l-196 -270l-215 -287h-254l565 737l-303 693h250l106 -256l105 -261h10l190 261l193 256h254l-531 -701l234 -539h178l-84 -497h-207z" />
    <glyph glyph-name="uni04B3" unicode="&#x4b3;" 
d="M874 -287l62 363l-18 6q-80 -107 -187 -107q-55 0 -92.5 25t-57 73t-28 106t-8.5 136h-15q-42 -177 -119.5 -258.5t-193.5 -81.5q-103 0 -158 66.5t-55 196.5q0 47 8 118l187 19q-4 -54 -4 -76q0 -84 19 -121t65 -37q59 0 107 61t75.5 153.5t42 188.5t14.5 177
q0 123 -20 182l-29 12l-299 -192l-90 125l139 104q173 129 285 129q45 0 78.5 -17t53.5 -45.5t32.5 -71t17 -87t4.5 -100.5v-21h15q42 179 118 260.5t191 81.5q101 0 156 -67.5t55 -192.5q0 -70 -6 -121l-189 -18q6 41 6 82q0 78 -19.5 114.5t-64.5 36.5q-60 0 -107.5 -59
t-74.5 -149.5t-41 -185.5t-14 -181q0 -126 22 -186l27 -13l274 191l92 -121l-83 -498h-173z" />
    <glyph glyph-name="uni04B6" unicode="&#x4b6;" 
d="M842 -307l51 307h-191l91 539h-11q-107 -47 -250 -47q-382 0 -382 362q0 95 18 221l59 355h226l-68 -398q-14 -92 -14 -160q0 -105 50.5 -147.5t153.5 -42.5q145 0 248 43l119 705h225l-206 -1240h169l-83 -497h-205z" />
    <glyph glyph-name="uni04B7" unicode="&#x4b7;" 
d="M829 -287l50 287h-191l90 545h-10q-55 -107 -132 -158t-183 -51q-132 0 -212.5 71.5t-80.5 192.5q0 54 12 125l53 332h221l-55 -316q-8 -55 -8 -98q0 -60 41 -93.5t113 -33.5q114 0 186 67.5t90 172.5l51 301h219l-145 -877h166l-78 -467h-197z" />
    <glyph glyph-name="uni04B8" unicode="&#x4b8;" 
d="M461 225l43 269q-175 15 -254.5 105.5t-79.5 258.5q0 100 20 217l60 355h225l-67 -398q-15 -99 -15 -155q0 -87 33 -133t111 -58l55 334h168l-58 -334q88 8 181 39l118 705h226l-240 -1430h-225l90 539h-10q-81 -32 -170 -43l-45 -271h-166z" />
    <glyph glyph-name="uni04B9" unicode="&#x4b9;" 
d="M725 0l86 526h-10q-68 -126 -164 -168l-33 -190h-153l26 168q-147 3 -229 73t-82 187q0 51 10 129l55 332h220l-54 -316q-8 -57 -8 -98q0 -51 31 -82.5t88 -40.5l51 297h154l-49 -293q76 24 124.5 86.5t61.5 139.5l51 307h219l-176 -1057h-219z" />
    <glyph glyph-name="uni04BA" unicode="&#x4ba;" 
d="M68 0l239 1430h225l-90 -539h11q120 47 262 47q202 0 296.5 -92t94.5 -271q0 -88 -19 -221l-59 -354h-225l65 397q17 94 17 160q0 107 -51.5 149t-159.5 42q-143 0 -262 -43l-119 -705h-225z" />
    <glyph glyph-name="uni04BB" unicode="&#x4bb;" 
d="M92 0l252 1516h219l-119 -709h11q63 135 145 204.5t203 69.5q138 0 212.5 -83t74.5 -222q0 -68 -17 -170l-100 -606h-219l102 614q12 74 12 119q0 77 -37.5 123.5t-115.5 46.5q-114 0 -199 -106q-90 -110 -110 -232l-95 -565h-219z" />
    <glyph glyph-name="uni04C0" unicode="&#x4c0;" 
d="M975 0h-897l28 172h336l183 1085h-336l28 173h897l-28 -173h-336l-182 -1085h336z" />
    <glyph glyph-name="uni04C1" unicode="&#x4c1;" 
d="M-72 0l228 541q33 87 77.5 130t106.5 54l2 12q-50 19 -72 59t-26 119l-41 515h192l49 -615h117l105 615h202l-102 -615h117l243 615h203l-209 -529q-31 -80 -68.5 -117.5t-95.5 -46.5l-2 -12q53 -18 79.5 -59.5t33.5 -124.5l57 -541h-204l-68 633h-117l-106 -633h-203
l104 633h-118l-267 -633h-217zM793 1544q-112 0 -179.5 52.5t-103.5 160.5l-37 111l189 65l28 -217q41 -14 113 -14q74 0 115 14l98 217l178 -65l-68 -117q-122 -207 -333 -207z" />
    <glyph glyph-name="uni04C2" unicode="&#x4c2;" 
d="M-63 0l28 172h154q65 110 102 340q23 161 23 264q0 70 -17 109h-131l29 172h57q113 0 170.5 -68.5t57.5 -230.5q0 -55 -4 -137h133l71 436h187l-72 -436h129q52 265 143 356q80 80 215 80h72l-29 -172h-139q-65 -110 -102 -340q-23 -141 -23 -264q0 -76 17 -109h143
l-29 -172h-69q-114 0 -172 68.5t-58 230.5q0 90 8 160h-133l-75 -459h-187l76 459h-129q-31 -158 -64.5 -245t-82.5 -134q-80 -80 -216 -80h-83zM735 1196q-112 0 -179 52.5t-103 160.5l-37 111l188 65l29 -217q41 -14 112 -14q74 0 115 14l98 217l179 -65l-68 -117
q-122 -207 -334 -207z" />
    <glyph glyph-name="uni04CF" unicode="&#x4cf;" 
d="M344 0l254 1337h-346l29 179h571l-254 -1338h346l-29 -178h-571z" />
    <glyph glyph-name="uni04D0" unicode="&#x4d0;" 
d="M1102 0h-234l-41 381h-465l-167 -381h-238l657 1430h308zM809 571l-68 633h-18l-279 -633h365zM788 1544q-112 0 -179 52.5t-103 160.5l-37 111l188 65l29 -217q41 -14 113 -14q73 0 114 14l99 217l178 -65l-68 -117q-122 -207 -334 -207z" />
    <glyph glyph-name="uni04D1" unicode="&#x4d1;" 
d="M971 0h-219l41 250h-9q-66 -135 -150 -205t-214 -70q-160 0 -241 106t-81 304q0 104 18.5 203t58.5 189t97 157t140 107t182 40q233 0 293 -215h10l31 191h219zM508 154q123 0 217 110q88 100 109 228l34 210q15 92 -40.5 146.5t-165.5 54.5q-131 0 -209 -79.5
t-101 -215.5l-24 -145q-9 -56 -9 -88q0 -103 47.5 -162t141.5 -59zM696 1196q-112 0 -179 52.5t-103 160.5l-37 111l188 65l29 -217q41 -14 113 -14q73 0 114 14l99 217l178 -65l-68 -117q-122 -207 -334 -207z" />
    <glyph glyph-name="uni04D2" unicode="&#x4d2;" 
d="M1102 0h-234l-41 381h-465l-167 -381h-238l657 1430h308zM809 571l-68 633h-18l-279 -633h365zM592 1593q-125 0 -125 88q0 15 6 52q18 112 148 112q124 0 124 -88q0 -14 -6 -51q-19 -113 -147 -113zM1001 1593q-124 0 -124 88q0 15 6 52q18 112 147 112q125 0 125 -88
q0 -14 -6 -51q-19 -113 -148 -113z" />
    <glyph glyph-name="uni04D3" unicode="&#x4d3;" 
d="M971 0h-219l41 250h-9q-66 -135 -150 -205t-214 -70q-160 0 -241 106t-81 304q0 104 18.5 203t58.5 189t97 157t140 107t182 40q233 0 293 -215h10l31 191h219zM508 154q123 0 217 110q88 100 109 228l34 210q15 92 -40.5 146.5t-165.5 54.5q-131 0 -209 -79.5
t-101 -215.5l-24 -145q-9 -56 -9 -88q0 -103 47.5 -162t141.5 -59zM498 1245q-125 0 -125 88q0 13 6 51q19 113 147 113q125 0 125 -88q0 -13 -6 -51q-19 -113 -147 -113zM907 1245q-125 0 -125 88q0 13 6 51q19 113 148 113q125 0 125 -88q0 -13 -6 -51q-19 -113 -148 -113
z" />
    <glyph glyph-name="uni04D4" unicode="&#x4d4;" 
d="M557 0l64 385h-267l-159 -385h-226l619 1430h749l-28 -177h-332l-74 -442h309l-28 -176h-310l-77 -459h331l-28 -176h-543zM768 1270h-53l-291 -709h227z" />
    <glyph glyph-name="uni04D5" unicode="&#x4d5;" 
d="M238 -25q-110 0 -177 69t-67 198q0 165 113.5 258.5t312.5 99.5l108 4l17 103q8 41 8 79q0 148 -131 148q-65 0 -113 -38.5t-90 -115.5l-123 82q110 219 336 219q112 0 173.5 -50t66.5 -134h8q96 184 287 184q117 0 187.5 -69.5t70.5 -188.5q0 -51 -14 -97t-51.5 -91.5
t-95.5 -79t-153.5 -55.5t-218.5 -25l-6 -39q-8 -49 -8 -104q0 -97 36 -149t103 -52q65 0 107.5 44t81.5 128l143 -65q-116 -263 -344 -263q-117 0 -192.5 66.5t-84.5 194.5h-10q-63 -261 -280 -261zM289 123q72 0 124.5 56.5t67.5 152.5l25 141l-90 -2q-109 -5 -169 -42
t-73 -124q-6 -37 -6 -67q0 -56 33 -85.5t88 -29.5zM946 934q-88 0 -147 -83t-82 -220l-4 -27q183 6 263.5 63.5t80.5 149.5q0 57 -28.5 87t-82.5 30z" />
    <glyph glyph-name="uni04D6" unicode="&#x4d6;" 
d="M981 0h-895l240 1430h893l-33 -191h-668l-72 -420h646l-33 -190h-643l-74 -439h672zM797 1544q-112 0 -179.5 52.5t-103.5 160.5l-37 111l189 65l28 -217q41 -14 113 -14q74 0 115 14l98 217l178 -65l-68 -117q-122 -207 -333 -207z" />
    <glyph glyph-name="uni04D7" unicode="&#x4d7;" 
d="M571 -25q-215 0 -325.5 115.5t-110.5 337.5q0 290 166 471.5t432 181.5q165 0 269 -75t104 -211q0 -53 -15 -97t-63 -92.5t-127.5 -83t-218 -59.5t-324.5 -31q-2 -18 -2 -41q0 -53 11.5 -94t37.5 -75t74.5 -52t116.5 -18q101 0 172 45.5t158 164.5l143 -92
q-93 -145 -210 -220t-288 -75zM713 915q-136 0 -222 -81.5t-112 -241.5l-4 -23q132 5 229 20.5t150.5 35.5t85 48t40.5 52.5t9 54.5q0 62 -42.5 98.5t-133.5 36.5zM745 1196q-112 0 -179 52.5t-103 160.5l-37 111l188 65l29 -217q41 -14 113 -14q73 0 114 14l99 217l178 -65
l-68 -117q-122 -207 -334 -207z" />
    <glyph glyph-name="uni04D8" unicode="&#x4d8;" 
d="M537 -25q-214 0 -323.5 131.5t-109.5 376.5q0 119 15 211l14 88h811l8 47q15 94 15 156q0 283 -236 283q-121 0 -201 -69.5t-141 -205.5l-182 82q74 181 212.5 280t332.5 99q223 0 328.5 -133.5t105.5 -405.5q0 -85 -9.5 -172t-32 -180.5t-56.5 -177.5t-86.5 -160
t-117.5 -130.5t-154.5 -87t-192.5 -32.5zM549 160q150 0 240.5 112.5t123.5 317.5l5 20h-580q-16 -106 -16 -176q0 -274 227 -274z" />
    <glyph glyph-name="uni04D9" unicode="&#x4d9;" 
d="M496 -25q-164 0 -268.5 75t-104.5 212q0 37 7.5 69t28.5 68.5t55 66t91.5 58t134 49t186.5 34.5t244 18q2 18 2 41q0 111 -54 175t-185 64q-101 0 -171.5 -46t-158.5 -165l-143 92q61 95 126.5 157t159.5 100t211 38q215 0 326 -115t111 -337q0 -290 -166.5 -472
t-431.5 -182zM516 141q136 0 222 81.5t112 242.5l4 22q-132 -5 -229 -20.5t-150.5 -35.5t-85 -48t-40.5 -52.5t-9 -54.5q0 -62 42.5 -98.5t133.5 -36.5z" />
    <glyph glyph-name="uni04DC" unicode="&#x4dc;" 
d="M-72 0l228 541q33 87 77.5 130t106.5 54l2 12q-50 19 -72 59t-26 119l-41 515h192l49 -615h117l105 615h202l-102 -615h117l243 615h203l-209 -529q-31 -80 -68.5 -117.5t-95.5 -46.5l-2 -12q53 -18 79.5 -59.5t33.5 -124.5l57 -541h-204l-68 633h-117l-106 -633h-203
l104 633h-118l-267 -633h-217zM596 1593q-125 0 -125 88q0 15 6 52q18 112 148 112q125 0 125 -88q0 -7 -7 -51q-19 -113 -147 -113zM1006 1593q-125 0 -125 88q0 15 6 52q18 112 147 112q125 0 125 -88q0 -14 -6 -51q-19 -113 -147 -113z" />
    <glyph glyph-name="uni04DD" unicode="&#x4dd;" 
d="M-63 0l28 172h154q65 110 102 340q23 161 23 264q0 70 -17 109h-131l29 172h57q113 0 170.5 -68.5t57.5 -230.5q0 -55 -4 -137h133l71 436h187l-72 -436h129q52 265 143 356q80 80 215 80h72l-29 -172h-139q-65 -110 -102 -340q-23 -141 -23 -264q0 -76 17 -109h143
l-29 -172h-69q-114 0 -172 68.5t-58 230.5q0 90 8 160h-133l-75 -459h-187l76 459h-129q-31 -158 -64.5 -245t-82.5 -134q-80 -80 -216 -80h-83zM537 1245q-125 0 -125 88q0 13 6 51q19 113 147 113q125 0 125 -88q0 -13 -6 -51q-19 -113 -147 -113zM946 1245
q-125 0 -125 88q0 13 6 51q19 113 148 113q125 0 125 -88q0 -13 -6 -51q-19 -113 -148 -113z" />
    <glyph glyph-name="uni04DE" unicode="&#x4de;" 
d="M522 -25q-160 0 -281.5 63.5t-191.5 174.5l156 139q128 -186 338 -186q119 0 192 57t90 162l4 39q5 35 5 47q0 164 -224 164h-184l31 186h184q119 0 181 52t83 161l4 23q4 20 4 45q0 78 -58 122t-165 44q-97 0 -173 -38.5t-142 -117.5l-137 123q95 110 210 164.5
t269 54.5q207 0 317.5 -86.5t110.5 -241.5q0 -158 -96.5 -260.5t-241.5 -120.5v-10q260 -40 260 -274q0 -214 -151 -350t-394 -136zM565 1593q-125 0 -125 88q0 15 6 52q18 112 148 112q125 0 125 -88q0 -14 -6 -51q-19 -113 -148 -113zM975 1593q-125 0 -125 88q0 15 6 52
q18 112 148 112q124 0 124 -88q0 -14 -6 -51q-19 -113 -147 -113z" />
    <glyph glyph-name="uni04DF" unicode="&#x4df;" 
d="M530 -25q-296 0 -450 193l143 129q122 -147 318 -147q227 0 252 155q4 24 4 43q0 109 -160 109h-207l27 164h180q88 0 146 35.5t67 93.5q4 24 4 34q0 57 -48.5 90t-146.5 33t-176.5 -36t-150.5 -111l-117 125q95 95 206.5 145.5t262.5 50.5q184 0 288.5 -73.5
t104.5 -196.5q0 -98 -61.5 -165.5t-181.5 -94.5v-10q190 -36 190 -205q0 -158 -133.5 -259.5t-360.5 -101.5zM524 1245q-125 0 -125 88q0 7 7 51q19 113 147 113q125 0 125 -88q0 -13 -6 -51q-19 -113 -148 -113zM934 1245q-125 0 -125 88q0 13 6 51q19 113 148 113
q124 0 124 -88q0 -13 -6 -51q-19 -113 -147 -113z" />
    <glyph glyph-name="uni04E2" unicode="&#x4e2;" 
d="M57 0l238 1430h219l-104 -627l-101 -416h17l231 344l467 699h213l-238 -1430h-219l105 627l100 415h-16l-232 -344l-467 -698h-213zM492 1636l28 166h592l-29 -166h-591z" />
    <glyph glyph-name="uni04E3" unicode="&#x4e3;" 
d="M743 0l43 250h-10q-63 -135 -145 -205t-203 -70q-138 0 -212.5 83.5t-74.5 222.5q0 68 17 170l100 606h219l-102 -615q-13 -80 -13 -118q0 -77 38 -123.5t116 -46.5q114 0 199 106q90 110 110 232l95 565h219l-176 -1057h-220zM434 1288l29 166h592l-29 -166h-592z" />
    <glyph glyph-name="uni04E4" unicode="&#x4e4;" 
d="M57 0l238 1430h219l-104 -627l-101 -416h17l231 344l467 699h213l-238 -1430h-219l105 627l100 415h-16l-232 -344l-467 -698h-213zM584 1593q-125 0 -125 88q0 15 6 52q18 112 147 112q125 0 125 -88q0 -14 -6 -51q-19 -113 -147 -113zM993 1593q-125 0 -125 88
q0 15 6 52q18 112 148 112q125 0 125 -88q0 -14 -6 -51q-19 -113 -148 -113z" />
    <glyph glyph-name="uni04E5" unicode="&#x4e5;" 
d="M743 0l43 250h-10q-63 -135 -145 -205t-203 -70q-138 0 -212.5 83.5t-74.5 222.5q0 68 17 170l100 606h219l-102 -615q-13 -80 -13 -118q0 -77 38 -123.5t116 -46.5q114 0 199 106q90 110 110 232l95 565h219l-176 -1057h-220zM526 1245q-125 0 -125 88q0 7 7 51
q19 113 147 113q125 0 125 -88q0 -13 -6 -51q-19 -113 -148 -113zM936 1245q-125 0 -125 88q0 13 6 51q19 113 148 113q125 0 125 -88q0 -7 -7 -51q-19 -113 -147 -113z" />
    <glyph glyph-name="uni04E6" unicode="&#x4e6;" 
d="M549 -25q-226 0 -335.5 130.5t-109.5 377.5q0 92 9.5 184t31.5 189t55.5 183t85 163t115.5 132t151 87.5t189 32.5q226 0 335.5 -130.5t109.5 -377.5q0 -92 -9.5 -184t-31.5 -189t-55.5 -183t-85 -163t-115.5 -132t-151 -87.5t-189 -32.5zM555 164q280 0 352 432l39 235
q15 92 15 162q0 273 -226 273q-280 0 -352 -432l-39 -236q-14 -85 -14 -162q0 -272 225 -272zM571 1593q-125 0 -125 88q0 8 7 52q18 112 147 112q125 0 125 -88q0 -14 -6 -51q-19 -113 -148 -113zM981 1593q-125 0 -125 88q0 15 6 52q18 112 148 112q125 0 125 -88
q0 -7 -7 -51q-19 -113 -147 -113z" />
    <glyph glyph-name="uni04E7" unicode="&#x4e7;" 
d="M543 -25q-204 0 -317 122.5t-113 328.5q0 198 74.5 347.5t204 228.5t294.5 79q204 0 317 -122t113 -328q0 -298 -161 -477t-412 -179zM557 150q126 0 204.5 78t102.5 218l23 136q10 65 10 96q0 114 -59.5 171.5t-165.5 57.5q-126 0 -204.5 -78.5t-102.5 -218.5l-23 -135
q-10 -65 -10 -96q0 -114 59.5 -171.5t165.5 -57.5zM535 1245q-125 0 -125 88q0 13 6 51q19 113 147 113q125 0 125 -88q0 -13 -6 -51q-19 -113 -147 -113zM944 1245q-125 0 -125 88q0 13 6 51q19 113 148 113q125 0 125 -88q0 -13 -6 -51q-19 -113 -148 -113z" />
    <glyph glyph-name="uni04E8" unicode="&#x4e8;" 
d="M549 -25q-226 0 -335.5 130.5t-109.5 377.5q0 92 9.5 184t32 189t56 183t85 163t115.5 132t151 87.5t188 32.5q226 0 335.5 -130.5t109.5 -377.5q0 -92 -9.5 -184t-32 -189t-56 -183t-85 -163t-115.5 -132t-151 -87.5t-188 -32.5zM555 154q149 0 236.5 111t123.5 327
l7 37h-582l-6 -35q-12 -68 -12 -164q0 -136 56 -206t177 -70zM377 842l-4 -23h579q19 100 19 180q0 277 -236 277q-147 0 -233 -108.5t-125 -325.5z" />
    <glyph glyph-name="uni04E9" unicode="&#x4e9;" 
d="M543 -25q-204 0 -317 122.5t-113 328.5q0 197 74.5 347t203.5 229t293 79q207 0 319.5 -121.5t112.5 -328.5q0 -298 -161 -477t-412 -179zM557 141q255 0 315 301l2 11h-544q-6 -37 -6 -78q0 -117 61 -175.5t172 -58.5zM356 614h545q4 27 4 68q0 117 -60.5 175t-172.5 58
q-130 0 -210.5 -78t-105.5 -223z" />
    <glyph glyph-name="uni04EE" unicode="&#x4ee;" 
d="M180 0l31 190h217l84 158l-287 1082h224l145 -580l55 -270h4l125 266l307 584h236l-664 -1225q-63 -119 -132 -162t-187 -43h-158zM498 1636l28 166h592l-28 -166h-592z" />
    <glyph glyph-name="uni04EF" unicode="&#x4ef;" 
d="M432 -434q-139 0 -235.5 35.5t-161.5 113.5l139 140q88 -111 260 -111q137 0 215.5 72.5t106.5 246.5l35 220h-9q-63 -135 -145 -205t-203 -70q-138 0 -212.5 83t-74.5 222q0 68 17 170l94 574h219l-96 -582q-12 -74 -12 -119q0 -77 37.5 -123.5t115.5 -46.5
q113 0 199 107q90 111 110 231l89 533h219l-172 -1028q-39 -236 -176.5 -349.5t-358.5 -113.5zM451 1288l28 166h592l-29 -166h-591z" />
    <glyph glyph-name="uni04F0" unicode="&#x4f0;" 
d="M180 0l31 190h217l84 158l-287 1082h224l145 -580l55 -270h4l125 266l307 584h236l-664 -1225q-63 -119 -132 -162t-187 -43h-158zM590 1593q-125 0 -125 88q0 15 6 52q18 112 147 112q125 0 125 -88q0 -14 -6 -51q-19 -113 -147 -113zM999 1593q-125 0 -125 88q0 8 7 52
q18 112 147 112q125 0 125 -88q0 -14 -6 -51q-19 -113 -148 -113z" />
    <glyph glyph-name="uni04F1" unicode="&#x4f1;" 
d="M432 -434q-139 0 -235.5 35.5t-161.5 113.5l139 140q88 -111 260 -111q137 0 215.5 72.5t106.5 246.5l35 220h-9q-63 -135 -145 -205t-203 -70q-138 0 -212.5 83t-74.5 222q0 68 17 170l94 574h219l-96 -582q-12 -74 -12 -119q0 -77 37.5 -123.5t115.5 -46.5
q113 0 199 107q90 111 110 231l89 533h219l-172 -1028q-39 -236 -176.5 -349.5t-358.5 -113.5zM543 1245q-125 0 -125 88q0 13 6 51q19 113 147 113q125 0 125 -88q0 -13 -6 -51q-19 -113 -147 -113zM952 1245q-125 0 -125 88q0 7 7 51q19 113 147 113q125 0 125 -88
q0 -13 -6 -51q-19 -113 -148 -113z" />
    <glyph glyph-name="uni04F2" unicode="&#x4f2;" 
d="M180 0l31 190h217l84 158l-287 1082h224l145 -580l55 -270h4l125 266l307 584h236l-664 -1225q-63 -119 -132 -162t-187 -43h-158zM889 1870l-271 -334l-120 63l221 363zM1251 1870l-270 -334l-121 63l221 363z" />
    <glyph glyph-name="uni04F3" unicode="&#x4f3;" 
d="M432 -434q-139 0 -235.5 35.5t-161.5 113.5l139 140q88 -111 260 -111q137 0 215.5 72.5t106.5 246.5l35 220h-9q-63 -135 -145 -205t-203 -70q-138 0 -212.5 83t-74.5 222q0 68 17 170l94 574h219l-96 -582q-12 -74 -12 -119q0 -77 37.5 -123.5t115.5 -46.5
q113 0 199 107q90 111 110 231l89 533h219l-172 -1028q-39 -236 -176.5 -349.5t-358.5 -113.5zM842 1522l-271 -334l-120 63l221 363zM1204 1522l-270 -334l-121 63l221 363z" />
    <glyph glyph-name="uni04F4" unicode="&#x4f4;" 
d="M754 0l90 539h-10q-120 -47 -263 -47q-203 0 -297 91.5t-94 270.5q0 88 19 221l59 355h225l-67 -398q-15 -99 -15 -160q0 -107 51.5 -148.5t159.5 -41.5q143 0 262 43l117 705h228l-240 -1430h-225zM567 1593q-125 0 -125 88q0 8 7 52q18 112 147 112q125 0 125 -88
q0 -14 -6 -51q-19 -113 -148 -113zM977 1593q-125 0 -125 88q0 15 6 52q18 112 148 112q124 0 124 -88q0 -14 -6 -51q-19 -113 -147 -113z" />
    <glyph glyph-name="uni04F5" unicode="&#x4f5;" 
d="M719 0l90 545h-10q-59 -108 -136 -158.5t-188 -50.5q-137 0 -221 71.5t-84 188.5q0 58 12 129l56 332h219l-54 -316q-10 -54 -10 -98q0 -60 43.5 -93.5t120.5 -33.5q120 0 195.5 68t93.5 172l49 301h221l-178 -1057h-219zM508 1245q-125 0 -125 88q0 13 6 51
q19 113 148 113q125 0 125 -88q0 -7 -7 -51q-19 -113 -147 -113zM918 1245q-125 0 -125 88q0 13 6 51q19 113 147 113q125 0 125 -88q0 -13 -6 -51q-19 -113 -147 -113z" />
    <glyph glyph-name="uni04F8" unicode="&#x4f8;" 
d="M233 178h109q202 0 236 211l8 43q8 57 8 113q0 157 -168 157h-104zM0 0l240 1430h204l-92 -549h101q171 0 261.5 -91.5t90.5 -250.5q0 -258 -127 -398.5t-348 -140.5h-330zM850 0l240 1430h204l-239 -1430h-205zM596 1593q-125 0 -125 88q0 15 6 52q18 112 148 112
q125 0 125 -88q0 -7 -7 -51q-19 -113 -147 -113zM1006 1593q-125 0 -125 88q0 15 6 52q18 112 147 112q125 0 125 -88q0 -14 -6 -51q-19 -113 -147 -113z" />
    <glyph glyph-name="uni04F9" unicode="&#x4f9;" 
d="M383 -25q-156 0 -238 83.5t-82 232.5q0 67 21 190l96 576h193l-78 -463h10q93 158 246 158q109 0 171 -73t62 -202q0 -234 -113 -368t-288 -134zM385 133q148 0 186 225q11 69 11 99q0 68 -30.5 103.5t-88.5 35.5q-82 0 -134 -57t-65 -144q-10 -52 -10 -104
q0 -76 35 -117t96 -41zM856 0l176 1057h193l-176 -1057h-193zM535 1245q-125 0 -125 88q0 13 6 51q19 113 147 113q125 0 125 -88q0 -13 -6 -51q-19 -113 -147 -113zM944 1245q-125 0 -125 88q0 13 6 51q19 113 148 113q125 0 125 -88q0 -13 -6 -51q-19 -113 -148 -113z" />
    <glyph glyph-name="uni0E3F" unicode="&#xe3f;" 
d="M610 0l-39 -231h-168l39 231h-364l237 1430h365l39 231h168l-39 -234q163 -6 251.5 -93.5t88.5 -231.5q0 -142 -80.5 -236t-222.5 -127v-8q231 -55 231 -285q0 -192 -131.5 -319t-349.5 -127h-25zM422 813h164l73 442h-163zM969 1112q0 131 -158 141l-74 -436
q189 12 215 172l11 62q6 37 6 61zM315 174h164l80 477h-164zM897 496q0 149 -186 155l-80 -477q219 6 248 188l10 62q8 50 8 72z" />
    <glyph glyph-name="Wgrave" unicode="&#x1e80;" 
d="M748 1534l-187 350l195 82l129 -375zM371 0h-308l136 1430h196l-86 -826l-39 -389h19l301 868h229l19 -868h18l84 375l193 840h192l-340 -1430h-307l-4 831h-19z" />
    <glyph glyph-name="wgrave" unicode="&#x1e81;" 
d="M252 -23q-94 0 -142.5 58t-48.5 158q0 61 17 161l117 703h184l-119 -690q-12 -78 -12 -113q0 -98 82 -98q64 0 119 82q40 59 57 163l108 656h179l-113 -695q-10 -68 -10 -110q0 -98 78 -98q63 0 119 88.5t88 226t32 283.5q0 170 -43 268l166 49q61 -122 61 -315
q0 -184 -44 -346t-123 -267q-124 -164 -297 -164q-95 0 -143 56.5t-42 163.5h-10q-87 -220 -260 -220zM698 1186l-186 350l195 82l129 -375z" />
    <glyph glyph-name="Wacute" unicode="&#x1e82;" 
d="M1069 1870l-276 -336l-129 72l227 360zM371 0h-308l136 1430h196l-86 -826l-39 -389h19l301 868h229l19 -868h18l84 375l193 840h192l-340 -1430h-307l-4 831h-19z" />
    <glyph glyph-name="wacute" unicode="&#x1e83;" 
d="M1020 1522l-277 -336l-129 71l228 361zM252 -23q-94 0 -142.5 58t-48.5 158q0 61 17 161l117 703h184l-119 -690q-12 -78 -12 -113q0 -98 82 -98q64 0 119 82q40 59 57 163l108 656h179l-113 -695q-10 -68 -10 -110q0 -98 78 -98q63 0 119 88.5t88 226t32 283.5
q0 170 -43 268l166 49q61 -122 61 -315q0 -184 -44 -346t-123 -267q-124 -164 -297 -164q-95 0 -143 56.5t-42 163.5h-10q-87 -220 -260 -220z" />
    <glyph glyph-name="Wdieresis" unicode="&#x1e84;" 
d="M371 0h-308l136 1430h196l-86 -826l-39 -389h19l301 868h229l19 -868h18l84 375l193 840h192l-340 -1430h-307l-4 831h-19zM582 1593q-125 0 -125 88q0 15 6 52q18 112 147 112q125 0 125 -88q0 -14 -6 -51q-19 -113 -147 -113zM991 1593q-125 0 -125 88q0 15 6 52
q18 112 148 112q125 0 125 -88q0 -14 -6 -51q-19 -113 -148 -113z" />
    <glyph glyph-name="wdieresis" unicode="&#x1e85;" 
d="M532 1245q-124 0 -124 88q0 13 6 51q19 113 147 113q125 0 125 -88q0 -13 -6 -51q-19 -113 -148 -113zM942 1245q-125 0 -125 88q0 13 6 51q19 113 148 113q125 0 125 -88q0 -13 -6 -51q-19 -113 -148 -113zM252 -23q-94 0 -142.5 58t-48.5 158q0 61 17 161l117 703h184
l-119 -690q-12 -78 -12 -113q0 -98 82 -98q64 0 119 82q40 59 57 163l108 656h179l-113 -695q-10 -68 -10 -110q0 -98 78 -98q63 0 119 88.5t88 226t32 283.5q0 170 -43 268l166 49q61 -122 61 -315q0 -184 -44 -346t-123 -267q-124 -164 -297 -164q-95 0 -143 56.5
t-42 163.5h-10q-87 -220 -260 -220z" />
    <glyph glyph-name="uni1E9E" unicode="&#x1e9e;" 
d="M14 0l240 1430h999l-34 -209l-377 -387v-11q148 -5 241 -89.5t93 -248.5q0 -75 -18.5 -147.5t-58 -138.5t-96 -115.5t-138.5 -79t-179 -29.5q-110 0 -203.5 41.5t-146.5 118.5l151 131q66 -106 201 -106q99 0 162.5 60t81.5 159q14 82 14 117q0 73 -44.5 115t-133.5 42
h-184l32 193l388 401h-558l-208 -1247h-224z" />
    <glyph glyph-name="uni1EA0" unicode="&#x1ea0;" 
d="M1102 0h-234l-41 381h-465l-167 -381h-238l657 1430h308zM809 571l-68 633h-18l-279 -633h365zM483 -377q-125 0 -125 90q0 6 1.5 14t4 20.5t3.5 21.5q17 106 141 106q125 0 125 -90q0 -5 -8 -55q-18 -107 -142 -107z" />
    <glyph glyph-name="uni1EA1" unicode="&#x1ea1;" 
d="M971 0h-219l41 250h-9q-66 -135 -150 -205t-214 -70q-160 0 -241 106t-81 304q0 104 18.5 203t58.5 189t97 157t140 107t182 40q233 0 293 -215h10l31 191h219zM508 154q123 0 217 110q88 100 109 228l34 210q15 92 -40.5 146.5t-165.5 54.5q-131 0 -209 -79.5
t-101 -215.5l-24 -145q-9 -56 -9 -88q0 -103 47.5 -162t141.5 -59zM455 -377q-125 0 -125 90q0 6 8 56q17 106 141 106q125 0 125 -90q0 -5 -8 -55q-18 -107 -141 -107z" />
    <glyph glyph-name="uni1EA2" unicode="&#x1ea2;" 
d="M1102 0h-234l-41 381h-465l-167 -381h-238l657 1430h308zM809 571l-68 633h-18l-279 -633h365zM621 1776l26 161h248q74 0 111.5 -30t37.5 -82q0 -49 -26 -96t-78 -107l-94 -106l-113 61l129 199h-241z" />
    <glyph glyph-name="uni1EA3" unicode="&#x1ea3;" 
d="M971 0h-219l41 250h-9q-66 -135 -150 -205t-214 -70q-160 0 -241 106t-81 304q0 104 18.5 203t58.5 189t97 157t140 107t182 40q233 0 293 -215h10l31 191h219zM508 154q123 0 217 110q88 100 109 228l34 210q15 92 -40.5 146.5t-165.5 54.5q-131 0 -209 -79.5
t-101 -215.5l-24 -145q-9 -56 -9 -88q0 -103 47.5 -162t141.5 -59zM526 1427l27 162h248q74 0 111.5 -30t37.5 -82q0 -49 -26 -96t-78 -107l-94 -107l-113 62l129 198h-242z" />
    <glyph glyph-name="uni1EA4" unicode="&#x1ea4;" 
d="M1102 0h-234l-41 381h-465l-167 -381h-238l657 1430h308zM809 571l-68 633h-18l-279 -633h365zM1419 2148l-266 -333l-119 63l213 363zM741 1909h197l207 -301l-117 -86l-209 229l-280 -229l-101 94z" />
    <glyph glyph-name="uni1EA5" unicode="&#x1ea5;" 
d="M971 0h-219l41 250h-9q-66 -135 -150 -205t-214 -70q-160 0 -241 106t-81 304q0 104 18.5 203t58.5 189t97 157t140 107t182 40q233 0 293 -215h10l31 191h219zM508 154q123 0 217 110q88 100 109 228l34 210q15 92 -40.5 146.5t-165.5 54.5q-131 0 -209 -79.5
t-101 -215.5l-24 -145q-9 -56 -9 -88q0 -103 47.5 -162t141.5 -59zM1325 1800l-266 -334l-119 64l213 362zM647 1561h197l207 -301l-117 -86l-209 229l-281 -229l-100 94z" />
    <glyph glyph-name="uni1EA6" unicode="&#x1ea6;" 
d="M1102 0h-234l-41 381h-465l-167 -381h-238l657 1430h308zM809 571l-68 633h-18l-279 -633h365zM496 1819l-187 348l183 78l124 -373zM741 1909h197l207 -301l-117 -86l-209 229l-280 -229l-101 94z" />
    <glyph glyph-name="uni1EA7" unicode="&#x1ea7;" 
d="M971 0h-219l41 250h-9q-66 -135 -150 -205t-214 -70q-160 0 -241 106t-81 304q0 104 18.5 203t58.5 189t97 157t140 107t182 40q233 0 293 -215h10l31 191h219zM508 154q123 0 217 110q88 100 109 228l34 210q15 92 -40.5 146.5t-165.5 54.5q-131 0 -209 -79.5
t-101 -215.5l-24 -145q-9 -56 -9 -88q0 -103 47.5 -162t141.5 -59zM401 1470l-186 349l182 77l125 -372zM647 1561h197l207 -301l-117 -86l-209 229l-281 -229l-100 94z" />
    <glyph glyph-name="uni1EA8" unicode="&#x1ea8;" 
d="M1102 0h-234l-41 381h-465l-167 -381h-238l657 1430h308zM809 571l-68 633h-18l-279 -633h365zM950 2062l27 160h240q73 0 110 -31t37 -80q0 -77 -86 -180l-113 -131l-110 62l129 200h-234zM741 1909h197l207 -301l-117 -86l-209 229l-280 -229l-101 94z" />
    <glyph glyph-name="uni1EA9" unicode="&#x1ea9;" 
d="M971 0h-219l41 250h-9q-66 -135 -150 -205t-214 -70q-160 0 -241 106t-81 304q0 104 18.5 203t58.5 189t97 157t140 107t182 40q233 0 293 -215h10l31 191h219zM508 154q123 0 217 110q88 100 109 228l34 210q15 92 -40.5 146.5t-165.5 54.5q-131 0 -209 -79.5
t-101 -215.5l-24 -145q-9 -56 -9 -88q0 -103 47.5 -162t141.5 -59zM856 1714l27 160h239q73 0 110.5 -31t37.5 -80q0 -77 -86 -180l-113 -131l-110 61l129 201h-234zM647 1561h197l207 -301l-117 -86l-209 229l-281 -229l-100 94z" />
    <glyph glyph-name="uni1EAA" unicode="&#x1eaa;" 
d="M1102 0h-234l-41 381h-465l-167 -381h-238l657 1430h308zM809 571l-68 633h-18l-279 -633h365zM737 2212q14 0 26.5 -1.5t25 -4.5t21.5 -6t22.5 -9t19.5 -9l21 -10.5t20 -10.5q89 -47 139 -47q57 0 129 57l68 -105q-97 -116 -225 -116q-14 0 -26.5 1.5t-25 4.5t-21.5 6
t-22.5 9t-19.5 9l-21 10.5t-20 10.5q-89 47 -139 47q-57 0 -129 -57l-68 104q98 117 225 117zM739 1886h199l209 -280l-117 -84l-213 215l-274 -215l-103 96z" />
    <glyph glyph-name="uni1EAB" unicode="&#x1eab;" 
d="M971 0h-219l41 250h-9q-66 -135 -150 -205t-214 -70q-160 0 -241 106t-81 304q0 104 18.5 203t58.5 189t97 157t140 107t182 40q233 0 293 -215h10l31 191h219zM508 154q123 0 217 110q88 100 109 228l34 210q15 92 -40.5 146.5t-165.5 54.5q-131 0 -209 -79.5
t-101 -215.5l-24 -145q-9 -56 -9 -88q0 -103 47.5 -162t141.5 -59zM643 1864q16 0 31.5 -2.5t26.5 -5t27 -9.5t23 -10t24.5 -12.5t23.5 -12.5q89 -47 139 -47q55 0 129 58l68 -105q-97 -116 -226 -116q-16 0 -32 2.5t-26 5t-26.5 9t-22.5 9.5t-25 13t-23 12q-89 47 -140 47
q-55 0 -129 -58l-67 105q98 117 225 117zM645 1538h199l209 -281l-117 -83l-213 215l-274 -215l-103 96z" />
    <glyph glyph-name="uni1EAC" unicode="&#x1eac;" 
d="M1102 0h-234l-41 381h-465l-167 -381h-238l657 1430h308zM809 571l-68 633h-18l-279 -633h365zM731 1931h223l197 -309l-121 -82l-205 238l-278 -238l-107 88zM483 -377q-125 0 -125 90q0 6 1.5 14t4 20.5t3.5 21.5q17 106 141 106q125 0 125 -90q0 -5 -8 -55
q-18 -107 -142 -107z" />
    <glyph glyph-name="uni1EAD" unicode="&#x1ead;" 
d="M971 0h-219l41 250h-9q-66 -135 -150 -205t-214 -70q-160 0 -241 106t-81 304q0 104 18.5 203t58.5 189t97 157t140 107t182 40q233 0 293 -215h10l31 191h219zM508 154q123 0 217 110q88 100 109 228l34 210q15 92 -40.5 146.5t-165.5 54.5q-131 0 -209 -79.5
t-101 -215.5l-24 -145q-9 -56 -9 -88q0 -103 47.5 -162t141.5 -59zM637 1583h223l197 -309l-121 -82l-205 238l-278 -238l-107 88zM455 -377q-125 0 -125 90q0 6 8 56q17 106 141 106q125 0 125 -90q0 -5 -8 -55q-18 -107 -141 -107z" />
    <glyph glyph-name="uni1EAE" unicode="&#x1eae;" 
d="M1102 0h-234l-41 381h-465l-167 -381h-238l657 1430h308zM809 571l-68 633h-18l-279 -633h365zM791 1528q-271 0 -334 293l116 67l35 -61q44 -79 83.5 -109t105.5 -30q62 0 111 30t116 109l51 61l123 -67q-26 -49 -51.5 -87.5t-62.5 -78.5t-77.5 -66.5t-96.5 -43.5
t-119 -17zM1104 2148l-266 -336l-121 66l217 363z" />
    <glyph glyph-name="uni1EAF" unicode="&#x1eaf;" 
d="M971 0h-219l41 250h-9q-66 -135 -150 -205t-214 -70q-160 0 -241 106t-81 304q0 104 18.5 203t58.5 189t97 157t140 107t182 40q233 0 293 -215h10l31 191h219zM508 154q123 0 217 110q88 100 109 228l34 210q15 92 -40.5 146.5t-165.5 54.5q-131 0 -209 -79.5
t-101 -215.5l-24 -145q-9 -56 -9 -88q0 -103 47.5 -162t141.5 -59zM696 1180q-271 0 -334 293l117 67l35 -61q44 -79 83 -109.5t105 -30.5q62 0 111.5 30.5t116.5 109.5l51 61l123 -67q-33 -62 -67 -109t-83 -91.5t-114 -68.5t-144 -24zM1010 1800l-267 -336l-120 66
l217 362z" />
    <glyph glyph-name="uni1EB0" unicode="&#x1eb0;" 
d="M1102 0h-234l-41 381h-465l-167 -381h-238l657 1430h308zM809 571l-68 633h-18l-279 -633h365zM791 1528q-271 0 -334 293l116 67l35 -61q44 -79 83.5 -109t105.5 -30q62 0 111 30t116 109l51 61l123 -67q-26 -49 -51.5 -87.5t-62.5 -78.5t-77.5 -66.5t-96.5 -43.5
t-119 -17zM774 1812l-182 349l188 80l121 -373z" />
    <glyph glyph-name="uni1EB1" unicode="&#x1eb1;" 
d="M971 0h-219l41 250h-9q-66 -135 -150 -205t-214 -70q-160 0 -241 106t-81 304q0 104 18.5 203t58.5 189t97 157t140 107t182 40q233 0 293 -215h10l31 191h219zM508 154q123 0 217 110q88 100 109 228l34 210q15 92 -40.5 146.5t-165.5 54.5q-131 0 -209 -79.5
t-101 -215.5l-24 -145q-9 -56 -9 -88q0 -103 47.5 -162t141.5 -59zM696 1180q-271 0 -334 293l117 67l35 -61q44 -79 83 -109.5t105 -30.5q62 0 111.5 30.5t116.5 109.5l51 61l123 -67q-33 -62 -67 -109t-83 -91.5t-114 -68.5t-144 -24zM680 1464l-182 348l188 80l121 -372z
" />
    <glyph glyph-name="uni1EB2" unicode="&#x1eb2;" 
d="M1102 0h-234l-41 381h-465l-167 -381h-238l657 1430h308zM809 571l-68 633h-18l-279 -633h365zM614 2056l27 160h229q73 0 111.5 -31.5t38.5 -81.5q0 -79 -115 -200l-98 -107l-102 57l133 203h-224zM791 1528q-271 0 -334 293l116 67l35 -61q44 -79 83.5 -109t105.5 -30
q62 0 111 30t116 109l51 61l123 -67q-26 -49 -51.5 -87.5t-62.5 -78.5t-77.5 -66.5t-96.5 -43.5t-119 -17z" />
    <glyph glyph-name="uni1EB3" unicode="&#x1eb3;" 
d="M971 0h-219l41 250h-9q-66 -135 -150 -205t-214 -70q-160 0 -241 106t-81 304q0 104 18.5 203t58.5 189t97 157t140 107t182 40q233 0 293 -215h10l31 191h219zM508 154q123 0 217 110q88 100 109 228l34 210q15 92 -40.5 146.5t-165.5 54.5q-131 0 -209 -79.5
t-101 -215.5l-24 -145q-9 -56 -9 -88q0 -103 47.5 -162t141.5 -59zM696 1180q-271 0 -334 293l117 67l35 -61q44 -79 83 -109.5t105 -30.5q62 0 111.5 30.5t116.5 109.5l51 61l123 -67q-33 -62 -67 -109t-83 -91.5t-114 -68.5t-144 -24zM520 1708l27 160h229
q73 0 111.5 -31.5t38.5 -81.5q0 -80 -115 -201l-98 -106l-103 57l133 203h-223z" />
    <glyph glyph-name="uni1EB4" unicode="&#x1eb4;" 
d="M1102 0h-234l-41 381h-465l-167 -381h-238l657 1430h308zM809 571l-68 633h-18l-279 -633h365zM971 1944q-24 0 -48.5 5t-35 8.5t-38 16t-30.5 13.5q-93 41 -139 41q-58 0 -127 -54l-68 97q99 114 228 114q24 0 48 -5t35 -9t37.5 -15.5t30.5 -13.5q93 -41 140 -41
q58 0 126 53l68 -96q-99 -114 -227 -114zM791 1528q-271 0 -334 293l116 67l35 -61q44 -79 83.5 -109t105.5 -30q62 0 111 30t116 109l51 61l123 -67q-26 -49 -51.5 -87.5t-62.5 -78.5t-77.5 -66.5t-96.5 -43.5t-119 -17z" />
    <glyph glyph-name="uni1EB5" unicode="&#x1eb5;" 
d="M971 0h-219l41 250h-9q-66 -135 -150 -205t-214 -70q-160 0 -241 106t-81 304q0 104 18.5 203t58.5 189t97 157t140 107t182 40q233 0 293 -215h10l31 191h219zM508 154q123 0 217 110q88 100 109 228l34 210q15 92 -40.5 146.5t-165.5 54.5q-131 0 -209 -79.5
t-101 -215.5l-24 -145q-9 -56 -9 -88q0 -103 47.5 -162t141.5 -59zM696 1180q-271 0 -334 293l117 67l35 -61q44 -79 83 -109.5t105 -30.5q62 0 111.5 30.5t116.5 109.5l51 61l123 -67q-33 -62 -67 -109t-83 -91.5t-114 -68.5t-144 -24zM877 1595q-19 0 -36.5 2t-36 8.5
t-26.5 9.5t-29 12.5t-24 10.5q-90 41 -139 41q-59 0 -127 -53l-68 96q100 115 227 115q31 0 62.5 -8t45 -14t44.5 -21q81 -41 139 -41q59 0 127 53l68 -96q-100 -115 -227 -115z" />
    <glyph glyph-name="uni1EB6" unicode="&#x1eb6;" 
d="M1102 0h-234l-41 381h-465l-167 -381h-238l657 1430h308zM809 571l-68 633h-18l-279 -633h365zM797 1546q-255 0 -322 324l127 61l35 -71q40 -84 73 -118t95 -34q30 0 53.5 8t49 31t44.5 45t56 70l53 69l131 -61q-26 -53 -48 -90.5t-59 -85t-75.5 -77t-94 -50.5
t-118.5 -21zM483 -377q-125 0 -125 90q0 6 1.5 14t4 20.5t3.5 21.5q17 106 141 106q125 0 125 -90q0 -5 -8 -55q-18 -107 -142 -107z" />
    <glyph glyph-name="uni1EB7" unicode="&#x1eb7;" 
d="M971 0h-219l41 250h-9q-66 -135 -150 -205t-214 -70q-160 0 -241 106t-81 304q0 104 18.5 203t58.5 189t97 157t140 107t182 40q233 0 293 -215h10l31 191h219zM508 154q123 0 217 110q88 100 109 228l34 210q15 92 -40.5 146.5t-165.5 54.5q-131 0 -209 -79.5
t-101 -215.5l-24 -145q-9 -56 -9 -88q0 -103 47.5 -162t141.5 -59zM702 1198q-64 0 -116 21t-85 52t-58.5 76.5t-38.5 86t-23 88.5l127 61l35 -72q40 -84 73 -117.5t95 -33.5q40 0 72.5 18.5t56.5 45t73 89.5l54 70l131 -61q-26 -52 -48 -90t-59 -85.5t-76 -77t-94.5 -50.5
t-118.5 -21zM455 -377q-125 0 -125 90q0 6 8 56q17 106 141 106q125 0 125 -90q0 -5 -8 -55q-18 -107 -141 -107z" />
    <glyph glyph-name="uni1EB8" unicode="&#x1eb8;" 
d="M981 0h-895l240 1430h893l-33 -191h-668l-72 -420h646l-33 -190h-643l-74 -439h672zM520 -377q-125 0 -125 90q0 6 8 56q17 106 142 106t125 -90q0 -5 -8 -55q-18 -107 -142 -107z" />
    <glyph glyph-name="uni1EB9" unicode="&#x1eb9;" 
d="M571 -25q-215 0 -325.5 115.5t-110.5 337.5q0 290 166 471.5t432 181.5q165 0 269 -75t104 -211q0 -53 -15 -97t-63 -92.5t-127.5 -83t-218 -59.5t-324.5 -31q-2 -18 -2 -41q0 -53 11.5 -94t37.5 -75t74.5 -52t116.5 -18q101 0 172 45.5t158 164.5l143 -92
q-93 -145 -210 -220t-288 -75zM713 915q-136 0 -222 -81.5t-112 -241.5l-4 -23q132 5 229 20.5t150.5 35.5t85 48t40.5 52.5t9 54.5q0 62 -42.5 98.5t-133.5 36.5zM532 -377q-124 0 -124 90q0 6 8 56q17 106 141 106q125 0 125 -90q0 -5 -8 -55q-18 -107 -142 -107z" />
    <glyph glyph-name="uni1EBA" unicode="&#x1eba;" 
d="M981 0h-895l240 1430h893l-33 -191h-668l-72 -420h646l-33 -190h-643l-74 -439h672zM629 1776l26 161h248q74 0 112 -30.5t38 -81.5q0 -49 -26 -96t-79 -107l-94 -106l-113 61l129 199h-241z" />
    <glyph glyph-name="uni1EBB" unicode="&#x1ebb;" 
d="M571 -25q-215 0 -325.5 115.5t-110.5 337.5q0 290 166 471.5t432 181.5q165 0 269 -75t104 -211q0 -53 -15 -97t-63 -92.5t-127.5 -83t-218 -59.5t-324.5 -31q-2 -18 -2 -41q0 -53 11.5 -94t37.5 -75t74.5 -52t116.5 -18q101 0 172 45.5t158 164.5l143 -92
q-93 -145 -210 -220t-288 -75zM713 915q-136 0 -222 -81.5t-112 -241.5l-4 -23q132 5 229 20.5t150.5 35.5t85 48t40.5 52.5t9 54.5q0 62 -42.5 98.5t-133.5 36.5zM575 1427l27 162h248q74 0 111.5 -30t37.5 -82q0 -49 -26 -96t-78 -107l-94 -107l-113 62l129 198h-242z" />
    <glyph glyph-name="uni1EBC" unicode="&#x1ebc;" 
d="M981 0h-895l240 1430h893l-33 -191h-668l-72 -420h646l-33 -190h-643l-74 -439h672zM971 1585q-31 0 -61.5 9t-45 16.5t-47.5 25.5q-83 47 -139 47q-54 0 -129 -57l-68 107q94 116 226 116q31 0 61.5 -9t44 -16t47.5 -26q83 -47 139 -47q54 0 129 57l68 -106
q-95 -117 -225 -117z" />
    <glyph glyph-name="uni1EBD" unicode="&#x1ebd;" 
d="M571 -25q-215 0 -325.5 115.5t-110.5 337.5q0 290 166 471.5t432 181.5q165 0 269 -75t104 -211q0 -53 -15 -97t-63 -92.5t-127.5 -83t-218 -59.5t-324.5 -31q-2 -18 -2 -41q0 -53 11.5 -94t37.5 -75t74.5 -52t116.5 -18q101 0 172 45.5t158 164.5l143 -92
q-93 -145 -210 -220t-288 -75zM713 915q-136 0 -222 -81.5t-112 -241.5l-4 -23q132 5 229 20.5t150.5 35.5t85 48t40.5 52.5t9 54.5q0 62 -42.5 98.5t-133.5 36.5zM899 1237q-44 0 -78 13t-76 38q-76 47 -139 47q-54 0 -129 -57l-67 106q95 117 225 117q31 0 60 -8t47 -17
t46 -26q76 -47 140 -47q54 0 129 57l67 -106q-95 -117 -225 -117z" />
    <glyph glyph-name="uni1EBE" unicode="&#x1ebe;" 
d="M981 0h-895l240 1430h893l-33 -191h-668l-72 -420h646l-33 -190h-643l-74 -439h672zM1427 2148l-266 -333l-119 63l213 363zM750 1909h196l207 -301l-117 -86l-209 229l-280 -229l-101 94z" />
    <glyph glyph-name="uni1EBF" unicode="&#x1ebf;" 
d="M1374 1800l-266 -334l-119 64l213 362zM696 1561h197l207 -301l-117 -86l-209 229l-280 -229l-101 94zM571 -25q-215 0 -325.5 115.5t-110.5 337.5q0 290 166 471.5t432 181.5q165 0 269 -75t104 -211q0 -53 -15 -97t-63 -92.5t-127.5 -83t-218 -59.5t-324.5 -31
q-2 -18 -2 -41q0 -53 11.5 -94t37.5 -75t74.5 -52t116.5 -18q101 0 172 45.5t158 164.5l143 -92q-93 -145 -210 -220t-288 -75zM713 915q-136 0 -222 -81.5t-112 -241.5l-4 -23q132 5 229 20.5t150.5 35.5t85 48t40.5 52.5t9 54.5q0 62 -42.5 98.5t-133.5 36.5z" />
    <glyph glyph-name="uni1EC0" unicode="&#x1ec0;" 
d="M504 1819l-187 348l183 78l125 -373zM750 1909h196l207 -301l-117 -86l-209 229l-280 -229l-101 94zM981 0h-895l240 1430h893l-33 -191h-668l-72 -420h646l-33 -190h-643l-74 -439h672z" />
    <glyph glyph-name="uni1EC1" unicode="&#x1ec1;" 
d="M451 1470l-187 349l182 77l125 -372zM696 1561h197l207 -301l-117 -86l-209 229l-280 -229l-101 94zM571 -25q-215 0 -325.5 115.5t-110.5 337.5q0 290 166 471.5t432 181.5q165 0 269 -75t104 -211q0 -53 -15 -97t-63 -92.5t-127.5 -83t-218 -59.5t-324.5 -31
q-2 -18 -2 -41q0 -53 11.5 -94t37.5 -75t74.5 -52t116.5 -18q101 0 172 45.5t158 164.5l143 -92q-93 -145 -210 -220t-288 -75zM713 915q-136 0 -222 -81.5t-112 -241.5l-4 -23q132 5 229 20.5t150.5 35.5t85 48t40.5 52.5t9 54.5q0 62 -42.5 98.5t-133.5 36.5z" />
    <glyph glyph-name="uni1EC2" unicode="&#x1ec2;" 
d="M958 2062l27 160h240q73 0 110 -31t37 -80q0 -77 -86 -180l-112 -131l-111 62l129 200h-234zM750 1909h196l207 -301l-117 -86l-209 229l-280 -229l-101 94zM981 0h-895l240 1430h893l-33 -191h-668l-72 -420h646l-33 -190h-643l-74 -439h672z" />
    <glyph glyph-name="uni1EC3" unicode="&#x1ec3;" 
d="M571 -25q-215 0 -325.5 115.5t-110.5 337.5q0 290 166 471.5t432 181.5q165 0 269 -75t104 -211q0 -53 -15 -97t-63 -92.5t-127.5 -83t-218 -59.5t-324.5 -31q-2 -18 -2 -41q0 -53 11.5 -94t37.5 -75t74.5 -52t116.5 -18q101 0 172 45.5t158 164.5l143 -92
q-93 -145 -210 -220t-288 -75zM713 915q-136 0 -222 -81.5t-112 -241.5l-4 -23q132 5 229 20.5t150.5 35.5t85 48t40.5 52.5t9 54.5q0 62 -42.5 98.5t-133.5 36.5zM905 1714l27 160h239q73 0 110.5 -31t37.5 -80q0 -77 -86 -180l-113 -131l-110 61l129 201h-234zM696 1561
h197l207 -301l-117 -86l-209 229l-280 -229l-101 94z" />
    <glyph glyph-name="uni1EC4" unicode="&#x1ec4;" 
d="M981 0h-895l240 1430h893l-33 -191h-668l-72 -420h646l-33 -190h-643l-74 -439h672zM745 2212q14 0 26.5 -1.5t25 -4.5t21.5 -6t22.5 -9t19.5 -9l21 -10.5t20 -10.5q89 -47 139 -47q57 0 129 57l68 -105q-97 -116 -225 -116q-14 0 -26.5 1.5t-25 4.5t-21.5 6t-22.5 9
t-19.5 9l-21 10.5t-20 10.5q-89 47 -139 47q-57 0 -129 -57l-68 104q98 117 225 117zM748 1886h198l209 -280l-117 -84l-213 215l-274 -215l-102 96z" />
    <glyph glyph-name="uni1EC5" unicode="&#x1ec5;" 
d="M571 -25q-215 0 -325.5 115.5t-110.5 337.5q0 290 166 471.5t432 181.5q165 0 269 -75t104 -211q0 -53 -15 -97t-63 -92.5t-127.5 -83t-218 -59.5t-324.5 -31q-2 -18 -2 -41q0 -53 11.5 -94t37.5 -75t74.5 -52t116.5 -18q101 0 172 45.5t158 164.5l143 -92
q-93 -145 -210 -220t-288 -75zM713 915q-136 0 -222 -81.5t-112 -241.5l-4 -23q132 5 229 20.5t150.5 35.5t85 48t40.5 52.5t9 54.5q0 62 -42.5 98.5t-133.5 36.5zM692 1864q16 0 31.5 -2.5t26.5 -5t27 -9.5t23 -10t24.5 -12.5t23.5 -12.5q89 -47 139 -47q55 0 129 58
l68 -105q-97 -116 -226 -116q-16 0 -32 2.5t-26 5t-26.5 9t-22.5 9.5t-25 13t-23 12q-89 47 -139 47q-55 0 -129 -58l-68 105q98 117 225 117zM694 1538h199l209 -281l-117 -83l-213 215l-274 -215l-103 96z" />
    <glyph glyph-name="uni1EC6" unicode="&#x1ec6;" 
d="M739 1931h224l196 -309l-121 -82l-204 238l-279 -238l-106 88zM981 0h-895l240 1430h893l-33 -191h-668l-72 -420h646l-33 -190h-643l-74 -439h672zM520 -377q-125 0 -125 90q0 6 8 56q17 106 142 106t125 -90q0 -5 -8 -55q-18 -107 -142 -107z" />
    <glyph glyph-name="uni1EC7" unicode="&#x1ec7;" 
d="M686 1583h223l197 -309l-121 -82l-205 238l-278 -238l-107 88zM571 -25q-215 0 -325.5 115.5t-110.5 337.5q0 290 166 471.5t432 181.5q165 0 269 -75t104 -211q0 -53 -15 -97t-63 -92.5t-127.5 -83t-218 -59.5t-324.5 -31q-2 -18 -2 -41q0 -53 11.5 -94t37.5 -75
t74.5 -52t116.5 -18q101 0 172 45.5t158 164.5l143 -92q-93 -145 -210 -220t-288 -75zM713 915q-136 0 -222 -81.5t-112 -241.5l-4 -23q132 5 229 20.5t150.5 35.5t85 48t40.5 52.5t9 54.5q0 62 -42.5 98.5t-133.5 36.5zM532 -377q-124 0 -124 90q0 6 8 56q17 106 141 106
q125 0 125 -90q0 -5 -8 -55q-18 -107 -142 -107z" />
    <glyph glyph-name="uni1EC8" unicode="&#x1ec8;" 
d="M975 0h-897l28 172h336l183 1085h-336l28 173h897l-28 -173h-336l-182 -1085h336zM621 1776l26 161h248q74 0 111.5 -30t37.5 -82q0 -49 -26 -96t-78 -107l-94 -106l-113 61l129 199h-241z" />
    <glyph glyph-name="uni1EC9" unicode="&#x1ec9;" 
d="M578 -25q-94 0 -145.5 50.5t-51.5 134.5q0 47 14 116l117 603h-356l28 178h580l-172 -887l41 -16l354 325l125 -112l-160 -160q-131 -131 -211 -181.5t-163 -50.5zM508 1427l27 162h247q74 0 112 -30.5t38 -81.5q0 -49 -26 -96t-79 -107l-94 -107l-112 62l129 198h-242z
" />
    <glyph glyph-name="uni1ECA" unicode="&#x1eca;" 
d="M975 0h-897l28 172h336l183 1085h-336l28 173h897l-28 -173h-336l-182 -1085h336zM477 -377q-125 0 -125 90q0 6 8 56q17 106 142 106t125 -90q0 -6 -1.5 -14t-4 -20t-3.5 -21q-18 -107 -141 -107z" />
    <glyph glyph-name="uni1ECB" unicode="&#x1ecb;" 
d="M696 1251q-73 0 -106 28t-33 73q0 13 8 63q19 119 160 119q139 0 139 -100q0 -14 -8 -64q-19 -119 -160 -119zM578 -25q-94 0 -145.5 50.5t-51.5 134.5q0 30 14 116l117 603h-356l28 178h580l-172 -887l41 -16l354 325l125 -112l-160 -160q-131 -131 -211 -181.5
t-163 -50.5zM514 -377q-125 0 -125 90q0 6 8 56q17 106 142 106t125 -90q0 -6 -1.5 -14t-4 -20t-3.5 -21q-18 -107 -141 -107z" />
    <glyph glyph-name="uni1ECC" unicode="&#x1ecc;" 
d="M549 -25q-226 0 -335.5 130.5t-109.5 377.5q0 92 9.5 184t31.5 189t55.5 183t85 163t115.5 132t151 87.5t189 32.5q226 0 335.5 -130.5t109.5 -377.5q0 -92 -9.5 -184t-31.5 -189t-55.5 -183t-85 -163t-115.5 -132t-151 -87.5t-189 -32.5zM555 164q280 0 352 432l39 235
q15 92 15 162q0 273 -226 273q-280 0 -352 -432l-39 -236q-14 -85 -14 -162q0 -272 225 -272zM485 -377q-125 0 -125 90q0 6 1.5 14t4 20.5t3.5 21.5q17 106 141 106q125 0 125 -90q0 -5 -8 -55q-18 -107 -142 -107z" />
    <glyph glyph-name="uni1ECD" unicode="&#x1ecd;" 
d="M543 -25q-204 0 -317 122.5t-113 328.5q0 198 74.5 347.5t204 228.5t294.5 79q204 0 317 -122t113 -328q0 -298 -161 -477t-412 -179zM557 150q126 0 204.5 78t102.5 218l23 136q10 65 10 96q0 114 -59.5 171.5t-165.5 57.5q-126 0 -204.5 -78.5t-102.5 -218.5l-23 -135
q-10 -65 -10 -96q0 -114 59.5 -171.5t165.5 -57.5zM473 -377q-125 0 -125 90q0 6 8 56q17 106 142 106t125 -90q0 -6 -1.5 -14t-4 -20t-3.5 -21q-18 -107 -141 -107z" />
    <glyph glyph-name="uni1ECE" unicode="&#x1ece;" 
d="M600 1776l27 161h247q74 0 112 -30.5t38 -81.5q0 -49 -26 -96t-78 -107l-95 -106l-112 61l129 199h-242zM549 -25q-226 0 -335.5 130.5t-109.5 377.5q0 92 9.5 184t31.5 189t55.5 183t85 163t115.5 132t151 87.5t189 32.5q226 0 335.5 -130.5t109.5 -377.5
q0 -92 -9.5 -184t-31.5 -189t-55.5 -183t-85 -163t-115.5 -132t-151 -87.5t-189 -32.5zM555 164q280 0 352 432l39 235q15 92 15 162q0 273 -226 273q-280 0 -352 -432l-39 -236q-14 -85 -14 -162q0 -272 225 -272z" />
    <glyph glyph-name="uni1ECF" unicode="&#x1ecf;" 
d="M543 -25q-204 0 -317 122.5t-113 328.5q0 198 74.5 347.5t204 228.5t294.5 79q204 0 317 -122t113 -328q0 -298 -161 -477t-412 -179zM557 150q126 0 204.5 78t102.5 218l23 136q10 65 10 96q0 114 -59.5 171.5t-165.5 57.5q-126 0 -204.5 -78.5t-102.5 -218.5l-23 -135
q-10 -65 -10 -96q0 -114 59.5 -171.5t165.5 -57.5zM563 1427l27 162h248q74 0 111.5 -30t37.5 -82q0 -49 -26 -96t-78 -107l-95 -107l-112 62l129 198h-242z" />
    <glyph glyph-name="uni1ED0" unicode="&#x1ed0;" 
d="M1399 2148l-266 -333l-119 63l213 363zM721 1909h197l206 -301l-116 -86l-209 229l-281 -229l-100 94zM549 -25q-226 0 -335.5 130.5t-109.5 377.5q0 92 9.5 184t31.5 189t55.5 183t85 163t115.5 132t151 87.5t189 32.5q226 0 335.5 -130.5t109.5 -377.5q0 -92 -9.5 -184
t-31.5 -189t-55.5 -183t-85 -163t-115.5 -132t-151 -87.5t-189 -32.5zM555 164q280 0 352 432l39 235q15 92 15 162q0 273 -226 273q-280 0 -352 -432l-39 -236q-14 -85 -14 -162q0 -272 225 -272z" />
    <glyph glyph-name="uni1ED1" unicode="&#x1ed1;" 
d="M1362 1800l-266 -334l-119 64l213 362zM684 1561h197l206 -301l-116 -86l-209 229l-281 -229l-100 94zM543 -25q-204 0 -317 122.5t-113 328.5q0 198 74.5 347.5t204 228.5t294.5 79q204 0 317 -122t113 -328q0 -298 -161 -477t-412 -179zM557 150q126 0 204.5 78
t102.5 218l23 136q10 65 10 96q0 114 -59.5 171.5t-165.5 57.5q-126 0 -204.5 -78.5t-102.5 -218.5l-23 -135q-10 -65 -10 -96q0 -114 59.5 -171.5t165.5 -57.5z" />
    <glyph glyph-name="uni1ED2" unicode="&#x1ed2;" 
d="M475 1819l-186 348l182 78l125 -373zM721 1909h197l206 -301l-116 -86l-209 229l-281 -229l-100 94zM549 -25q-226 0 -335.5 130.5t-109.5 377.5q0 92 9.5 184t31.5 189t55.5 183t85 163t115.5 132t151 87.5t189 32.5q226 0 335.5 -130.5t109.5 -377.5q0 -92 -9.5 -184
t-31.5 -189t-55.5 -183t-85 -163t-115.5 -132t-151 -87.5t-189 -32.5zM555 164q280 0 352 432l39 235q15 92 15 162q0 273 -226 273q-280 0 -352 -432l-39 -236q-14 -85 -14 -162q0 -272 225 -272z" />
    </font>
</defs>
</svg>
