<svg xmlns="http://www.w3.org/2000/svg" width="4428" height="5215" viewBox="0 0 4428 5215">
  <defs>
    <style>
      .cls-1 {
        fill-rule: evenodd;
      }
    </style>
  </defs>
  <path id="Logo" class="cls-1" d="M2908,0c754-6.869,1427.43,190.931,1514,846,24.97,188.95-43.85,335.6-140,418-544.7,466.79-2654.92,239.32-3408,68-254.1-57.8-796.944-157.27-864-374-64.24-207.63,396.306-399.537,538-459C1032.9,295.51,1582.51,168.5,2172,68c171.79-28.854,273.55-43.478,499-57ZM2465,1825c258.05-3.18,482.88,41.28,576,203,278.64,483.94-847.42,1701.46-1376,1468-169.5-74.86-252.79-255.3-299-454-147.93-636.03,246.11-1011.27,693-1149C2183.37,1854.67,2311.74,1830.95,2465,1825ZM1999,3773c557.48-.76,2508.55-52.69,2421,422-40.92,221.86-351.32,415.72-524,520-1066.66,644.15-2472.36,699.74-3490-34C253.342,4570.93,29.924,4412.87,2,4186c-54.1-439.53,1170.61-399.35,1602-410Z"/>
</svg>
