<?xml version="1.0" standalone="no"?>
<!DOCTYPE svg PUBLIC "-//W3C//DTD SVG 1.1//EN" "http://www.w3.org/Graphics/SVG/1.1/DTD/svg11.dtd" >
<svg xmlns="http://www.w3.org/2000/svg" xmlns:xlink="http://www.w3.org/1999/xlink" version="1.1">
<metadata>
Created by FontForge 20170731 at Thu Oct 29 07:48:11 2020
 By Aleksey,,,
Copyright (c) 2019 by Josep Patau Bellart. All rights reserved.
</metadata>
<defs>
<font id="IndeciseCondensed-RegularItalic" horiz-adv-x="0" >
  <font-face 
    font-family="Indecise Condensed"
    font-weight="400"
    font-style="italic"
    font-stretch="condensed"
    units-per-em="2048"
    panose-1="0 0 5 6 0 0 0 0 0 0"
    ascent="1638"
    descent="-410"
    x-height="1024"
    cap-height="1337"
    bbox="-545 -668 1653.35 2087"
    underline-thickness="102"
    underline-position="-307"
    slope="-10"
    unicode-range="U+000D-FB02"
  />
<missing-glyph horiz-adv-x="995" 
d="M203 1337h837l-317 -1790h-838zM788 1231h-376l94 -531zM653 -119l205 1163l-309 -581zM279 1022l-199 -1122l299 561zM422 223l-303 -569h403z" />
    <glyph glyph-name="fi" unicode="fi" horiz-adv-x="856" 
d="M494 889h-140l-225 -1278h-211l227 1278h-96l23 135h98l12 74q32 181 106.5 259.5t211.5 78.5q50 0 121 -19l-39 -129q-41 8 -62 8q-51 0 -80.5 -44.5t-48.5 -151.5l-14 -76h141zM694 1434h207l-45 -263h-209zM442 0l181 1024h208l-182 -1024h-207z" />
    <glyph glyph-name="fl" unicode="fl" horiz-adv-x="851" 
d="M494 889h-140l-225 -1278h-211l227 1278h-96l23 135h98l12 74q32 181 106.5 259.5t211.5 78.5q50 0 121 -19l-39 -129q-41 8 -62 8q-51 0 -80.5 -44.5t-48.5 -151.5l-14 -76h141zM686 1397l211 20l-250 -1417h-207z" />
    <glyph glyph-name="Lgeminada" unicode="L&#xb7;L" horiz-adv-x="1560" 
d="M459 1337l-211 -1200h356l-24 -137h-588l237 1337h230zM1061 137h356l-24 -137h-588l237 1337h230zM492 565l47 269h258l-49 -269h-256z" />
    <glyph glyph-name="lgeminada" unicode="l&#xb7;l" horiz-adv-x="1052" 
d="M-25 0l248 1397l211 20l-250 -1417h-209zM641 0l246 1397l211 20l-250 -1417h-207zM395 586l49 270h256l-47 -270h-258z" />
    <glyph glyph-name=".notdef" horiz-adv-x="995" 
d="M203 1337h837l-317 -1790h-838zM788 1231h-376l94 -531zM653 -119l205 1163l-309 -581zM279 1022l-199 -1122l299 561zM422 223l-303 -569h403z" />
    <glyph glyph-name=".null" 
 />
    <glyph glyph-name="nonmarkingreturn" horiz-adv-x="682" 
 />
    <glyph glyph-name="CR" unicode="&#xd;" horiz-adv-x="393" 
 />
    <glyph glyph-name="space" unicode=" " horiz-adv-x="307" 
 />
    <glyph glyph-name="exclam" unicode="!" horiz-adv-x="423" 
d="M102 446l107 891h254l-209 -891h-152zM-29 0l47 260h256l-45 -260h-258z" />
    <glyph glyph-name="quotedbl" unicode="&#x22;" horiz-adv-x="759" 
d="M162 868l35 469h252l-132 -469h-155zM520 868l35 469h254l-133 -469h-156z" />
    <glyph glyph-name="numbersign" unicode="#" horiz-adv-x="1206" 
d="M1151 864h-168l-127 -370h170l-57 -154h-166l-117 -340h-221l117 340h-170l-117 -340h-223l116 340h-178l58 154h174l127 370h-176l55 148h170l112 325h224l-113 -325h170l113 325h223l-113 -325h172zM635 494l127 370h-170l-127 -370h170z" />
    <glyph glyph-name="dollar" unicode="$" horiz-adv-x="776" 
d="M721 1190q-62 27 -143 24l-82 -460q29 -18 50.5 -34.5t45 -39.5t36.5 -46t25.5 -55t11.5 -66t-6 -79q-32 -176 -144 -294.5t-271 -149.5l-29 -160h-61l26 152q-12 -2 -39 -2q-107 0 -196 47l59 149q82 -53 174 -53q19 0 27 2l80 457l-2 2q-21 17 -37 31t-35.5 33t-33 37
t-27 40.5t-21.5 46.5t-13 51.5t-4 59.5t7 67q28 169 147 284t277 124l24 137h60l-25 -137q96 -3 170 -25zM369 1014q-14 -80 6 -131.5t65 -89.5l76 413q-58 -18 -97 -71t-50 -121zM414 352q11 64 -9 106t-65 81l-70 -398q56 26 94 82t50 129z" />
    <glyph glyph-name="percent" unicode="%" horiz-adv-x="1198" 
d="M297 702q-124 0 -166.5 78t-11.5 250q29 172 99 250t196 78q120 0 160.5 -78t11.5 -250q-31 -172 -99.5 -250t-189.5 -78zM121 0l797 1337h169l-798 -1337h-168zM313 799q31 0 53 54t44 179q22 123 18.5 176.5t-33.5 53.5q-34 0 -57 -53t-45 -177t-17.5 -178.5
t37.5 -54.5zM801 -18q-124 0 -166.5 77.5t-11.5 249.5q29 171 99.5 249.5t195.5 78.5q120 0 160.5 -78t11.5 -250q-31 -172 -99.5 -249.5t-189.5 -77.5zM817 78q31 0 53.5 54.5t42.5 178.5q23 123 20 176.5t-34 53.5q-34 0 -57 -53t-45 -177q-22 -125 -17 -179t37 -54z" />
    <glyph glyph-name="ampersand" unicode="&#x26;" horiz-adv-x="962" 
d="M846 819l-86 -487l63 -117l-39 -215h-88l-49 92q-95 -92 -264 -92h-115q-160 0 -223 64.5t-37 203.5l47 264q19 108 71 170t144 84q-18 24 -28 40t-21 41.5t-15 51t-3.5 62t8.5 80.5l8 53q20 118 92 170.5t211 52.5h53q154 0 214.5 -51.5t41.5 -165.5l-28 -153h-211
l29 163q6 36 -9.5 56t-46.5 20h-43q-37 0 -62 -23t-32 -65l-6 -33q-10 -63 2 -107t49 -112l150 -278l41 231h182zM412 137q57 0 93 29t56 92l-223 426q-54 -26 -72 -127l-49 -281q-12 -73 15 -106t96 -33h84z" />
    <glyph glyph-name="quotesingle" unicode="'" horiz-adv-x="399" 
d="M162 868l35 469h252l-132 -469h-155z" />
    <glyph glyph-name="parenleft" unicode="(" horiz-adv-x="530" 
d="M102 -451q-95 229 -117 444.5t23 448.5q41 230 139.5 445t270.5 450h186q-153 -205 -244 -419.5t-135 -475.5q-44 -258 -28.5 -469.5t92.5 -423.5h-187z" />
    <glyph glyph-name="parenright" unicode=")" horiz-adv-x="530" 
d="M-147 -451q153 210 243.5 423t136.5 470q48 259 33 475t-98 420h186q91 -233 114 -451t-17 -444q-40 -236 -138 -450t-272 -443h-188z" />
    <glyph glyph-name="asterisk" unicode="*" horiz-adv-x="776" 
d="M793 1141l-19 -111h-223l76 -207l-109 -53l-72 195l-143 -199l-92 57l149 207h-223l19 111h225l-78 209l109 57l73 -201l146 201l92 -59l-150 -207h220z" />
    <glyph glyph-name="plus" unicode="+" horiz-adv-x="890" 
d="M805 590l-27 -154h-280l-56 -313h-176l56 313h-283l27 154h282l55 311h177l-56 -311h281z" />
    <glyph glyph-name="comma" unicode="," horiz-adv-x="423" 
d="M20 270h256l-55 -319q-22 -118 -108 -185t-195 -67l23 129q51 0 89.5 32t47.5 85l10 55h-117z" />
    <glyph glyph-name="hyphen" unicode="-" horiz-adv-x="737" 
d="M41 457l33 190h590l-35 -190h-588z" />
    <glyph glyph-name="period" unicode="." horiz-adv-x="423" 
d="M-29 0l49 270h256l-47 -270h-258z" />
    <glyph glyph-name="slash" unicode="/" horiz-adv-x="733" 
d="M-154 0l832 1337h209l-832 -1337h-209z" />
    <glyph glyph-name="zero" unicode="0" horiz-adv-x="872" 
d="M317 -20q-194 0 -249.5 161t10.5 531q66 367 178.5 526.5t304.5 159.5q193 0 250 -159.5t-6 -526.5q-66 -370 -179.5 -531t-308.5 -161zM344 123q69 0 120.5 127t102.5 422q53 292 46 418.5t-76 126.5t-121 -126.5t-103 -418.5q-52 -295 -45 -422t76 -127z" />
    <glyph glyph-name="one" unicode="1" horiz-adv-x="550" 
d="M150 1288l419 74l-239 -1362h-230l201 1137l-184 -29z" />
    <glyph glyph-name="two" unicode="2" horiz-adv-x="784" 
d="M770 1022q-23 -135 -106 -275.5t-204.5 -270t-301.5 -283.5h483l-33 -193h-661l35 193q128 120 209 205.5t156 184t118.5 196t62.5 206.5q43 229 -143 229q-96 0 -192 -49l-9 131q144 62 285 62q183 0 257.5 -83.5t43.5 -252.5z" />
    <glyph glyph-name="three" unicode="3" horiz-adv-x="761" 
d="M745 1061q-26 -143 -93 -226.5t-160 -89.5v-4q104 0 146.5 -86t14.5 -241q-38 -220 -151 -327t-307 -107q-144 0 -248 47l59 127q69 -29 172 -29q102 0 158.5 68t85.5 231q20 123 -14.5 180.5t-133.5 57.5h-79l24 133h72q92 0 142.5 51t70.5 164q20 112 -10 158t-123 46
q-79 0 -187 -43l2 136q133 51 265 51q175 0 247 -72.5t47 -224.5z" />
    <glyph glyph-name="four" unicode="4" horiz-adv-x="827" 
d="M786 1337l-159 -911h110l-22 -137h-113l-51 -289h-229l51 289h-404l8 45l580 1003h229zM160 426h237l107 604z" />
    <glyph glyph-name="five" unicode="5" horiz-adv-x="759" 
d="M719 1161l-344 8l-74 -305q86 19 145 19q146 0 200.5 -87.5t23.5 -273.5q-51 -280 -176 -411t-340 -131q-121 0 -197 36l53 127q75 -20 125 -20q117 0 188.5 92t106.5 287q22 129 -8.5 190.5t-116.5 61.5q-99 0 -207 -33l156 616h520z" />
    <glyph glyph-name="six" unicode="6" horiz-adv-x="839" 
d="M645 1227q-109 0 -177.5 -91.5t-117.5 -308.5q81 64 187 64q142 0 189 -100.5t9 -321.5q-44 -256 -144 -372.5t-274 -116.5q-190 0 -251.5 143.5t-4.5 458.5q72 407 209 591.5t365 184.5q109 0 194 -31l-51 -127q-70 27 -133 27zM451 756q-65 0 -103.5 -70.5
t-68.5 -239.5q-32 -183 -20 -260t73 -77q57 0 94.5 77t69.5 260q29 167 19 238.5t-64 71.5z" />
    <glyph glyph-name="seven" unicode="7" horiz-adv-x="784" 
d="M874 1337l-688 -1337h-166l576 1116h-457l82 221h653z" />
    <glyph glyph-name="eight" unicode="8" horiz-adv-x="866" 
d="M831 1006q-37 -214 -169 -289q133 -80 90 -340q-37 -209 -141.5 -303t-297.5 -94q-191 0 -260.5 94t-32.5 303q46 261 209 340q-102 75 -65 289q32 185 125.5 268.5t267.5 83.5q175 0 240.5 -83.5t33.5 -268.5zM389 1004q-21 -123 -5 -175.5t73 -52.5q58 0 91.5 52
t55.5 176q22 123 6.5 175t-73.5 52t-92 -52t-56 -175zM516 381q25 145 6 206.5t-88 61.5q-70 0 -111 -61.5t-67 -206.5q-25 -146 -6 -209t88 -63q70 0 111 62.5t67 209.5z" />
    <glyph glyph-name="nine" unicode="9" horiz-adv-x="839" 
d="M530 1358q190 0 251 -142.5t5 -457.5q-72 -408 -208.5 -593t-364.5 -185q-117 0 -195 32l52 127q74 -26 139 -26q108 0 174 90.5t115 308.5q-80 -66 -187 -66q-142 0 -189 100.5t-9 323.5q44 256 143.5 372t273.5 116zM569 889q32 181 20 258.5t-73 77.5q-57 0 -94.5 -77
t-69.5 -259q-31 -164 -20.5 -234.5t65.5 -70.5q64 0 103.5 70t68.5 235z" />
    <glyph glyph-name="colon" unicode=":" horiz-adv-x="425" 
d="M346 668l-6 -41l-47 -269h-258l6 39l20 111l21 119l8 41h256z" />
    <glyph glyph-name="semicolon" unicode=";" horiz-adv-x="425" 
d="M152 1024h258l-48 -268h-258zM-29 0l49 270h256l-55 -319q-22 -118 -108 -185t-195 -67l23 129q51 0 89.5 32t47.5 85l10 55h-117z" />
    <glyph glyph-name="less" unicode="&#x3c;" horiz-adv-x="645" 
d="M657 1153l-41 -227l-387 -361l260 -360l-38 -221l-404 551l12 65z" />
    <glyph glyph-name="equal" unicode="=" horiz-adv-x="733" 
d="M655 637l-26 -150l-2 -10h-580l27 152l2 8h579z" />
    <glyph glyph-name="greater" unicode="&#x3e;" horiz-adv-x="645" 
d="M166 1153l403 -553l-12 -65l-600 -551l41 227l389 362l-262 359z" />
    <glyph glyph-name="question" unicode="?" horiz-adv-x="798" 
d="M236 381l18 108q16 89 50 156t73 109.5l78 85t72 107t48 149.5q14 72 -1 102.5t-66 30.5q-60 0 -92 -39.5t-47 -134.5l-15 -82h-211l17 98q26 149 116 217t256 68q163 0 225 -66.5t36 -214.5q-11 -64 -33 -116t-49 -87.5t-58 -67t-61.5 -62t-57.5 -64t-48.5 -82.5
t-32.5 -109l-19 -106h-198zM164 0l43 242h209l-43 -242h-209z" />
    <glyph glyph-name="at" unicode="@" horiz-adv-x="1251" 
d="M766 1352q289 0 391.5 -167t38.5 -536q-50 -271 -156.5 -420t-253.5 -149h-137l19 104q-89 -125 -176 -125q-112 0 -150.5 118t0.5 339q38 217 117.5 332t191.5 115q78 0 129 -68l13 68l149 -2l-137 -775q57 3 110 126t91 343q54 304 -9 442t-254 138
q-195 0 -314.5 -172.5t-186.5 -554.5q-69 -388 -5 -563.5t271 -175.5q111 0 191 48t151 163h121q-97 -176 -217.5 -252t-282.5 -76q-310 0 -415 205t-23 657q78 439 252.5 638.5t480.5 199.5zM545 176q89 0 147 336q58 340 -26 340q-75 0 -131 -336q-61 -340 10 -340z" />
    <glyph glyph-name="A" unicode="A" horiz-adv-x="880" 
d="M506 0l-14 336h-293l-131 -336h-154l549 1337h203l69 -1337h-229zM252 471h233l-22 535z" />
    <glyph glyph-name="B" unicode="B" horiz-adv-x="894" 
d="M854 1032q-21 -117 -80.5 -192.5t-155.5 -96.5q111 -18 148.5 -108t11.5 -232q-37 -206 -153.5 -304.5t-325.5 -98.5h-307l237 1337h289q197 0 279.5 -75t56.5 -230zM496 1200h-62l-72 -405h68q73 0 115.5 53t62.5 168q17 96 -9.5 140t-102.5 44zM532 401
q25 139 -2 198.5t-116 59.5h-74l-92 -522h78q89 0 135 60t71 204z" />
    <glyph glyph-name="C" unicode="C" horiz-adv-x="753" 
d="M352 -20q-207 0 -271 165.5t1 530.5q65 358 197 520t360 162q71 0 174 -33l-53 -256l-146 145q-103 0 -168 -123.5t-116 -414.5q-53 -296 -30 -424.5t130 -128.5q71 0 143 41v-139q-106 -45 -221 -45z" />
    <glyph glyph-name="D" unicode="D" horiz-adv-x="929" 
d="M539 1337q227 0 302 -156.5t15 -504.5q-65 -355 -196 -515.5t-357 -160.5h-311l237 1337h310zM608 672q33 191 33.5 306t-32.5 168.5t-103 53.5h-72l-186 -1063h71q104 0 171 124.5t118 410.5z" />
    <glyph glyph-name="E" unicode="E" horiz-adv-x="794" 
d="M770 1200h-336l-76 -430h308l-25 -137h-307l-86 -496h348l-23 -137h-581l237 1337h566z" />
    <glyph glyph-name="F" unicode="F" horiz-adv-x="770" 
d="M770 1200h-336l-80 -455h308l-25 -137h-307l-107 -608h-231l237 1337h566z" />
    <glyph glyph-name="G" unicode="G" horiz-adv-x="925" 
d="M686 1217q-141 0 -224 -127t-136 -422q-52 -293 -19.5 -419t160.5 -126q23 0 63 4l82 467h-166l25 137h371l-121 -690q-122 -61 -287 -61q-249 0 -333.5 165t-18.5 527q63 360 210 523t408 163q120 0 205 -35l-26 -141q-92 35 -193 35z" />
    <glyph glyph-name="H" unicode="H" horiz-adv-x="944" 
d="M727 1337h229l-235 -1337h-229l112 643h-268l-113 -643h-231l237 1337h230l-99 -557h269z" />
    <glyph glyph-name="I" unicode="I" horiz-adv-x="444" 
d="M-8 0l237 1337h230l-236 -1337h-231z" />
    <glyph glyph-name="J" unicode="J" horiz-adv-x="458" 
d="M244 1337h229l-242 -1372q-35 -199 -128 -287t-267 -88q-28 0 -117 13l37 137q54 -12 70 -12q72 0 111.5 54.5t62.5 186.5z" />
    <glyph glyph-name="K" unicode="K" horiz-adv-x="911" 
d="M977 1337l-420 -540l205 -797h-238l-141 573l-76 -100l-84 -473h-231l237 1337h230l-99 -553l414 553h203z" />
    <glyph glyph-name="L" unicode="L" horiz-adv-x="747" 
d="M248 137h356l-24 -137h-588l237 1337h230z" />
    <glyph glyph-name="M" unicode="M" horiz-adv-x="1314" 
d="M1165 1337l-22 -1337h-230l25 950l-348 -950h-182l-17 940l-311 -940h-152l455 1337h221l14 -891l332 891h215z" />
    <glyph glyph-name="N" unicode="N" horiz-adv-x="944" 
d="M815 1337h141l-235 -1337h-168l-252 940l-166 -940h-143l237 1337h209l224 -868z" />
    <glyph glyph-name="O" unicode="O" horiz-adv-x="935" 
d="M354 -20q-207 0 -271.5 164t-0.5 528q64 361 186 523.5t328 162.5q203 0 266 -162.5t0 -523.5q-63 -363 -184 -527.5t-324 -164.5zM379 123q76 0 130 126.5t105 422.5q54 293 44.5 419t-87.5 126q-79 0 -134.5 -125.5t-106.5 -419.5q-53 -295 -42.5 -422t91.5 -127z" />
    <glyph glyph-name="P" unicode="P" horiz-adv-x="882" 
d="M543 1337q205 0 280 -100t37 -322q-43 -241 -155 -349.5t-318 -108.5h-84l-80 -457h-231l237 1337h314zM612 915q29 152 5 218.5t-111 66.5h-72l-106 -606h71q86 0 134 73.5t79 247.5z" />
    <glyph glyph-name="Q" unicode="Q" horiz-adv-x="935" 
d="M862 672q-50 -284 -132.5 -444.5t-209.5 -215.5l199 -59l-31 -178l-461 166l9 55q-134 43 -171.5 207.5t17.5 468.5q64 361 186 523.5t328 162.5q203 0 266 -162.5t0 -523.5zM379 123q76 0 130 126.5t105 422.5q54 293 44 419t-87 126q-78 0 -134 -126t-107 -419
q-53 -295 -41.5 -422t90.5 -127z" />
    <glyph glyph-name="R" unicode="R" horiz-adv-x="915" 
d="M864 932q-26 -148 -81 -240.5t-144 -138.5l125 -553h-236l-106 504h-19h-92l-88 -504h-231l237 1337h322q200 0 275.5 -96.5t37.5 -308.5zM434 1200l-98 -559h78q83 0 129.5 66t74.5 223q25 146 1.5 208t-107.5 62h-78z" />
    <glyph glyph-name="S" unicode="S" horiz-adv-x="749" 
d="M141 -20q-107 0 -196 47l59 149q82 -53 174 -53q93 0 155.5 64t80.5 165q7 42 0.5 76t-26 60t-41.5 45.5t-54 43.5q-7 4 -10 7q-21 17 -37 31t-35.5 33t-33 37t-27 40.5t-21.5 46.5t-13 51.5t-4 59.5t7 67q29 176 156 292t292 116q123 0 205 -25l-51 -143q-59 27 -154 24
q-76 0 -130 -58t-68 -142q-4 -38 -6 -65.5t7.5 -53.5t19 -44t28 -36t34 -30t37.5 -27q26 -16 44.5 -30t41 -33.5t36 -37.5t28 -43t19 -50.5t7.5 -59.5t-6 -70q-37 -204 -180 -329t-338 -125z" />
    <glyph glyph-name="T" unicode="T" horiz-adv-x="811" 
d="M901 1337l-22 -137h-261l-212 -1200h-230l213 1200h-262l27 137h747z" />
    <glyph glyph-name="U" unicode="U" horiz-adv-x="905" 
d="M367 -20q-188 0 -270.5 109t-47.5 304l168 944h229l-167 -944q-11 -53 -9 -101.5t14.5 -86t44.5 -60t81 -22.5q60 0 105 38.5t70.5 96t39.5 135.5l166 944h143l-168 -948q-35 -192 -135.5 -300.5t-263.5 -108.5z" />
    <glyph glyph-name="V" unicode="V" horiz-adv-x="874" 
d="M821 1337h148l-541 -1337h-203l-75 1337h237l51 -956z" />
    <glyph glyph-name="W" unicode="W" horiz-adv-x="1284" 
d="M1227 1337h153l-483 -1337h-203l-4 903l-317 -903h-217l-6 1337h235l-4 -888l309 888h217l4 -888z" />
    <glyph glyph-name="X" unicode="X" horiz-adv-x="876" 
d="M948 1337l-387 -639l168 -698h-244l-116 485l-291 -485h-162l408 672l-160 665h244l110 -458l275 458h155z" />
    <glyph glyph-name="Y" unicode="Y" horiz-adv-x="862" 
d="M803 1337h153l-409 -839l-88 -498h-230l88 498l-167 839h241l119 -612z" />
    <glyph glyph-name="Z" unicode="Z" horiz-adv-x="768" 
d="M815 1337l-573 -1200h387l-25 -137h-674l582 1200h-348l22 137h629z" />
    <glyph glyph-name="bracketleft" unicode="[" horiz-adv-x="540" 
d="M571 1200h-127l-266 -1515h141l-24 -138h-373l318 1790h358z" />
    <glyph glyph-name="backslash" unicode="\" horiz-adv-x="622" 
d="M393 0l-354 1337h203l350 -1337h-199z" />
    <glyph glyph-name="bracketright" unicode="]" horiz-adv-x="540" 
d="M545 1337l-316 -1790h-372l22 138h144l268 1515h-129l24 137h359z" />
    <glyph glyph-name="asciicircum" unicode="^" horiz-adv-x="686" 
d="M633 721h-189l-12 414l-160 -414h-192l270 616h232z" />
    <glyph glyph-name="underscore" unicode="_" horiz-adv-x="786" 
d="M-162 -272l25 137h786l-24 -137h-787z" />
    <glyph glyph-name="grave" unicode="`" horiz-adv-x="608" 
d="M430 1169l-203 285h273l118 -285h-188z" />
    <glyph glyph-name="a" unicode="a" horiz-adv-x="808" 
d="M604 1024h180l-180 -1024h-180l25 145q-107 -165 -259 -165q-132 0 -170 131t13 417q47 269 131.5 392.5t220.5 123.5q145 0 190 -180zM287 117q126 0 196 397q69 393 -59 393q-54 0 -95 -92t-75 -285q-37 -207 -29.5 -310t62.5 -103z" />
    <glyph glyph-name="b" unicode="b" horiz-adv-x="811" 
d="M571 1044q133 0 172.5 -123t-6.5 -391q-53 -286 -139.5 -418t-222.5 -132q-72 0 -120 38t-73 129l-24 -147h-181l250 1415h209l-88 -495q102 124 223 124zM514 530q33 189 24.5 283t-61.5 94q-126 0 -198 -393q-70 -397 59 -397q103 0 176 413z" />
    <glyph glyph-name="c" unicode="c" horiz-adv-x="645" 
d="M279 -20q-180 0 -239.5 127.5t-8.5 406.5q49 280 157.5 405t300.5 125q80 0 158 -22l-49 -238l-119 131q-83 0 -136 -92t-91 -307q-38 -218 -16.5 -311.5t110.5 -93.5q68 0 127 30v-125q-84 -36 -194 -36z" />
    <glyph glyph-name="d" unicode="d" horiz-adv-x="808" 
d="M645 1415h207l-248 -1415h-180l25 145q-107 -165 -259 -165q-132 0 -170 131t13 417q47 269 131.5 392.5t220.5 123.5q121 0 172 -122zM287 117q126 0 196 397q69 393 -59 393q-54 0 -95 -92t-75 -285q-37 -207 -29.5 -310t62.5 -103z" />
    <glyph glyph-name="e" unicode="e" horiz-adv-x="768" 
d="M457 1044q172 0 228.5 -119.5t10.5 -383.5q-7 -28 -14 -49h-434q-34 -206 -6.5 -293.5t129.5 -87.5q76 0 200 57l7 -123q-136 -65 -256 -65q-203 0 -272.5 128t-18.5 410q50 277 150.5 401.5t275.5 124.5zM268 606h217q30 167 19.5 238t-66.5 71q-63 0 -101 -70t-69 -239
z" />
    <glyph glyph-name="f" unicode="f" horiz-adv-x="462" 
d="M500 1436q50 0 121 -19l-39 -129q-41 8 -62 8q-51 0 -80.5 -44.5t-48.5 -151.5l-14 -76h141l-24 -135h-140l-225 -1278h-211l227 1278h-96l23 135h98l12 74q32 181 106.5 259.5t211.5 78.5z" />
    <glyph glyph-name="g" unicode="g" horiz-adv-x="811" 
d="M602 1024l182 6l-182 -1042q-35 -205 -143.5 -301.5t-302.5 -96.5q-131 0 -222 35l56 135q81 -34 157 -34q105 0 163 58t81 187l23 131q-97 -122 -209 -122q-141 0 -184 123.5t6 390.5q51 287 138.5 418.5t225.5 131.5q69 0 115.5 -36.5t71.5 -122.5zM285 117
q129 0 198 395t-55 395q-108 0 -178 -413q-34 -189 -26 -283t61 -94z" />
    <glyph glyph-name="h" unicode="h" horiz-adv-x="796" 
d="M571 1044q116 0 152.5 -71.5t5.5 -239.5l-129 -733h-209l123 688q21 118 11.5 168.5t-58.5 50.5q-116 0 -166 -241l-117 -666h-209l248 1395l211 20l-88 -497q42 61 101.5 93.5t123.5 32.5z" />
    <glyph glyph-name="i" unicode="i" horiz-adv-x="393" 
d="M184 1171l47 263h207l-45 -263h-209zM-23 0l183 1024h209l-183 -1024h-209z" />
    <glyph glyph-name="j" unicode="j" horiz-adv-x="391" 
d="M182 1171l47 263h207l-45 -263h-209zM-131 -412q-103 0 -199 41l56 138q68 -21 98 -21q107 0 131 148l203 1130h209l-201 -1130q-28 -161 -103.5 -233.5t-193.5 -72.5z" />
    <glyph glyph-name="k" unicode="k" horiz-adv-x="782" 
d="M803 1024l-305 -389l135 -635h-211l-86 430l-98 -125l-54 -305h-209l248 1397l211 20l-149 -846l333 453h185z" />
    <glyph glyph-name="l" unicode="l" horiz-adv-x="389" 
d="M-25 0l248 1397l211 20l-250 -1417h-209z" />
    <glyph glyph-name="m" unicode="m" horiz-adv-x="1171" 
d="M958 1044q108 0 142.5 -71.5t5.5 -239.5l-129 -733h-209l121 688q22 118 14.5 168.5t-49.5 50.5q-100 0 -149 -209l-123 -698h-209l121 688q22 118 14.5 168.5t-49.5 50.5q-57 0 -97 -65.5t-61 -179.5l-117 -662h-209l183 1024l211 20l-23 -126q88 126 217 126
q77 0 116.5 -37.5t43.5 -119.5q42 75 104 116t131 41z" />
    <glyph glyph-name="n" unicode="n" horiz-adv-x="796" 
d="M571 1044q116 0 152.5 -71.5t5.5 -239.5l-129 -733h-209l123 688q21 118 11.5 168.5t-58.5 50.5q-61 0 -103 -66t-63 -179l-117 -662h-209l183 1024l211 20l-23 -126q42 61 101 93.5t124 32.5z" />
    <glyph glyph-name="o" unicode="o" horiz-adv-x="782" 
d="M274 -20q-177 0 -235.5 126.5t-7.5 405.5q50 280 152 406t280 126q175 0 233 -126.5t11 -405.5q-51 -280 -153.5 -406t-279.5 -126zM297 111q62 0 105 93.5t81 311.5q38 215 28 307t-73 92q-62 0 -105 -92t-81 -307q-38 -218 -27.5 -311.5t72.5 -93.5z" />
    <glyph glyph-name="p" unicode="p" horiz-adv-x="806" 
d="M561 1044q137 0 177 -131.5t-11 -418.5q-46 -267 -128.5 -390.5t-215.5 -123.5q-124 0 -180 124l-86 -493h-211l252 1413h180l-25 -141q99 161 248 161zM506 494q37 207 29.5 310t-62.5 103q-128 0 -197 -395q-72 -395 62 -395q101 0 168 377z" />
    <glyph glyph-name="q" unicode="q" horiz-adv-x="811" 
d="M602 1024h182l-247 -1413h-209l86 493q-99 -124 -224 -124q-133 0 -172 123.5t9 390.5q51 287 137 418.5t223 131.5q72 0 119 -36t72 -123zM285 117q129 0 198 395t-55 395q-108 0 -178 -413q-34 -189 -26 -283t61 -94z" />
    <glyph glyph-name="r" unicode="r" horiz-adv-x="604" 
d="M584 1044q34 0 55 -8l-53 -225q-52 20 -86 20q-79 0 -136 -76t-83 -214l-97 -541h-209l183 1024h209l-33 -180q121 200 250 200z" />
    <glyph glyph-name="s" unicode="s" horiz-adv-x="645" 
d="M121 -20q-105 0 -178 36l55 136q66 -41 154 -41q69 0 115 47t59 118q2 13 2 25t-0.5 21t-5 19t-7.5 16.5t-11.5 15.5t-12 13t-15.5 13l-16 12t-18.5 12.5t-18.5 12.5q-52 35 -84 72t-49.5 98t-3.5 137q23 133 128 217t241 84q89 0 159 -22l-45 -129q-52 25 -125 22
q-53 0 -91.5 -40.5t-49.5 -98.5q-3 -17 -3.5 -32t2.5 -28.5t5.5 -23t11 -20.5t12.5 -16.5t16.5 -15.5t16.5 -13t19.5 -13.5t19.5 -13.5q20 -14 34 -24.5t31.5 -26.5t28.5 -31.5t21.5 -36.5t15 -43.5t4.5 -51.5t-6 -62q-28 -160 -138 -252t-273 -92z" />
    <glyph glyph-name="t" unicode="t" horiz-adv-x="526" 
d="M358 881l-104 -594q-15 -90 1 -128t71 -38q39 0 75 8l-22 -125q-85 -24 -150 -24q-128 0 -170.5 72t-13.5 239l105 590h-95l25 143h94l31 172l219 61l-41 -233h170l-27 -143h-168z" />
    <glyph glyph-name="u" unicode="u" horiz-adv-x="796" 
d="M563 1024h209l-180 -1024l-213 -20l22 126q-89 -126 -225 -126q-116 0 -153 72.5t-5 240.5l129 731h209l-120 -688q-15 -81 -16 -127.5t13.5 -69t47.5 -22.5q59 0 101 64t62 173z" />
    <glyph glyph-name="v" unicode="v" horiz-adv-x="706" 
d="M625 1024h133l-441 -1024h-157l-80 1024h221l37 -694z" />
    <glyph glyph-name="w" unicode="w" horiz-adv-x="1060" 
d="M977 1024h135l-410 -1024h-153l-25 616l-239 -616h-150l-55 1024h223l14 -666l250 666h150l12 -659z" />
    <glyph glyph-name="x" unicode="x" horiz-adv-x="741" 
d="M754 1024l-295 -485l141 -539h-217l-98 373l-230 -373h-141l332 520l-131 504h217l88 -334l196 334h138z" />
    <glyph glyph-name="y" unicode="y" horiz-adv-x="696" 
d="M614 1024h136l-605 -1413h-131l166 389h-30l-70 1024h223l27 -688z" />
    <glyph glyph-name="z" unicode="z" horiz-adv-x="643" 
d="M666 1024l-453 -891h289l-23 -131h-553l457 893h-270l24 129h529z" />
    <glyph glyph-name="braceleft" unicode="{" horiz-adv-x="542" 
d="M604 1378h21l-25 -131h-29q-42 0 -69.5 -25.5t-36.5 -74.5l-86 -496q-26 -155 -172 -207q124 -51 98 -206l-88 -498q-9 -48 11.5 -74t62.5 -26h28l-24 -132h-21q-152 0 -221 68.5t-43 206.5l80 463q12 64 -5.5 97.5t-59.5 33.5h-25l25 137h24q42 0 71.5 33.5t41.5 97.5
l82 463q45 270 360 270z" />
    <glyph glyph-name="bar" unicode="|" horiz-adv-x="393" 
d="M-78 -389l305 1726h185l-306 -1726h-184z" />
    <glyph glyph-name="braceright" unicode="}" horiz-adv-x="542" 
d="M449 514h24l-24 -137h-25q-42 0 -71.5 -33.5t-41.5 -97.5l-80 -463q-24 -139 -117 -207t-245 -68h-23l23 132h31q42 0 70.5 25.5t37.5 74.5l88 498q26 154 170 206q-125 52 -96 207l86 496q9 48 -11.5 74t-62.5 26h-28l24 131h23q309 0 264 -270l-82 -463q-12 -63 6 -97
t60 -34z" />
    <glyph glyph-name="asciitilde" unicode="~" horiz-adv-x="759" 
d="M18 356q25 140 88.5 217.5t153.5 77.5q35 0 60.5 -8t41 -19.5t29.5 -23t34.5 -19.5t47.5 -8q37 0 63 29t35 80h127q-28 -146 -89 -224.5t-150 -78.5q-45 0 -79 20t-65.5 40t-68.5 20q-38 0 -66 -28t-37 -75h-125z" />
    <glyph glyph-name="uni00A0" unicode="&#xa0;" horiz-adv-x="972" 
 />
    <glyph glyph-name="exclamdown" unicode="&#xa1;" horiz-adv-x="423" 
d="M106 766l46 258h258l-48 -258h-256zM-84 -313l209 891h151l-104 -891h-256z" />
    <glyph glyph-name="cent" unicode="&#xa2;" horiz-adv-x="593" 
d="M494 1044q79 0 157 -22l-49 -238l-117 131q-85 0 -138 -92t-91 -307q-37 -218 -15 -311.5t111 -93.5q66 0 125 30l2 -125q-88 -36 -194 -36h-4l-52 -287h-110l55 301q-114 36 -147 163t8 357q40 224 116.5 348t200.5 162l58 313h110l-53 -293h27z" />
    <glyph glyph-name="sterling" unicode="&#xa3;" horiz-adv-x="864" 
d="M862 997h-213q23 128 18 164q-6 41 -40 41h-17q-26 0 -45.5 -16.5t-33.5 -52t-22.5 -69.5t-19.5 -91l-40 -242h276l-23 -137h-278l-43 -250q-21 -125 -84 -207h414l-23 -137h-696h-10h-35l24 137h78q25 0 44 15t31.5 46.5t20.5 63.5t17 82l43 250h-117l25 137h116l43 244
q32 174 121.5 268t237.5 94h26q135 0 184.5 -89t20.5 -251z" />
    <glyph glyph-name="currency" unicode="&#xa4;" horiz-adv-x="806" 
d="M799 985l-99 -86q55 -89 37 -205q-21 -119 -114 -205l71 -90l-135 -116l-88 110q-65 -20 -121 -20q-58 0 -104 18l-119 -108l-94 116l90 82q-66 92 -45 213q21 122 117 215l-60 76l137 117l78 -98q56 18 115 18q66 0 121 -25l119 105zM254 692q-12 -65 24.5 -110
t100.5 -45t116.5 45t63.5 110q13 69 -23.5 117.5t-99.5 48.5t-116.5 -48.5t-65.5 -117.5z" />
    <glyph glyph-name="yen" unicode="&#xa5;" horiz-adv-x="862" 
d="M956 1337l-381 -782h185l-21 -115h-202l-21 -116h203l-21 -115h-202l-37 -209h-230l37 209h-209l21 115h209l20 116h-209l21 115h186l-155 782h241l119 -612l293 612h153z" />
    <glyph glyph-name="brokenbar" unicode="&#xa6;" horiz-adv-x="442" 
d="M121 604l129 733h184l-129 -733h-184zM-66 -451l129 727h185l-129 -727h-185z" />
    <glyph glyph-name="section" unicode="&#xa7;" horiz-adv-x="974" 
d="M682 1233q-81 0 -134 -55.5t-67 -137.5q-16 -83 14 -130t97 -85q20 -11 33 -19t31.5 -20.5t30 -22.5t26 -24.5t22.5 -28.5t16 -32.5t11 -38.5t3 -44t-5 -50q-20 -110 -78.5 -193t-146.5 -131q51 -34 83 -69.5t49 -90.5t5 -120q-28 -161 -162.5 -256t-343.5 -95
q-139 0 -232 41l60 129q78 -45 205 -45q102 0 161 47t72 125q6 18 3 36.5t-4.5 31.5t-11 28t-17 25t-21.5 22t-25.5 20.5t-28.5 19.5t-30.5 19t-31.5 19.5t-32 20.5q-22 15 -38 27t-36.5 29t-33.5 31.5t-29 35.5t-23 40t-15 45t-6 51t5 58q19 102 85 180.5t165 118.5
q-101 105 -71 261q28 157 152 254.5t298 97.5q96 0 184 -21l-47 -127q-70 26 -141 23zM535 477q6 34 0.5 60.5t-24.5 48.5t-37 36t-50 35q-50 -21 -82 -64t-41 -97q-14 -75 15.5 -121t91.5 -82q105 48 127 184z" />
    <glyph glyph-name="dieresis" unicode="&#xa8;" horiz-adv-x="690" 
d="M178 1169l37 211h203l-37 -211h-203zM498 1169l37 211h202l-37 -211h-202z" />
    <glyph glyph-name="copyright" unicode="&#xa9;" horiz-adv-x="1421" 
d="M596 -16q-258 0 -374.5 184.5t-59.5 503.5q55 319 236.5 502.5t441.5 183.5q257 0 373 -183.5t59 -502.5q-55 -319 -236.5 -503.5t-439.5 -184.5zM618 113q201 0 344 150t187 409q46 259 -43.5 408t-290.5 149t-343.5 -149t-186.5 -408q-47 -259 42.5 -409t290.5 -150z
M670 266q-132 0 -184.5 107t-18.5 299q34 196 121.5 301.5t220.5 105.5q183 0 174 -276h-131q0 158 -64 158q-130 0 -182 -291q-25 -134 -2.5 -209.5t86.5 -75.5q35 0 62.5 41t54.5 127h135q-50 -140 -119 -213.5t-153 -73.5z" />
    <glyph glyph-name="ordfeminine" unicode="&#xaa;" horiz-adv-x="520" 
d="M373 1358q112 0 152 -33t26 -115l-74 -415h-119l9 47q-63 -60 -125 -60q-67 0 -105 40t-22 126q16 90 75 138.5t138 58.5l78 10l8 49q5 26 -9.5 37.5t-54.5 11.5q-46 0 -139 -34l4 104q103 35 158 35zM252 952q-7 -35 5.5 -51t35.5 -16q34 0 69 28l29 156l-47 -8
q-78 -14 -92 -109z" />
    <glyph glyph-name="guillemotleft" unicode="&#xab;" horiz-adv-x="946" 
d="M561 858l-301 -317l186 -314h-210l-185 316l295 315h215zM918 858l-304 -317l187 -314h-211l-184 316l296 315h216z" />
    <glyph glyph-name="logicalnot" unicode="&#xac;" horiz-adv-x="825" 
d="M98 809h682l-73 -422h-218l50 289h-463z" />
    <glyph glyph-name="registered" unicode="&#xae;" horiz-adv-x="1421" 
d="M596 -16q-258 0 -374.5 184.5t-59.5 503.5q55 319 236.5 502.5t441.5 183.5q257 0 373 -183.5t59 -502.5q-55 -319 -236.5 -503.5t-439.5 -184.5zM618 113q201 0 344 150t187 409q46 259 -43.5 408t-290.5 149t-343.5 -149t-186.5 -408q-47 -259 42.5 -409t290.5 -150z
M461 336l121 692h188q128 0 181 -48.5t34 -154.5q-32 -166 -211 -188l127 -301h-123l-114 297h-43l-52 -297h-108zM639 729h78q69 0 108 23.5t49 83.5q9 52 -23 74t-97 22h-80z" />
    <glyph glyph-name="macron" unicode="&#xaf;" horiz-adv-x="649" 
d="M178 1169l27 156h481l-27 -156h-481z" />
    <glyph glyph-name="degree" unicode="&#xb0;" horiz-adv-x="749" 
d="M395 772q-117 0 -182 85t-43 208t117.5 208t212.5 85t183 -85t44 -208q-23 -123 -119 -208t-213 -85zM422 911q58 0 107.5 45.5t60.5 108.5q10 64 -23 109t-90 45q-60 0 -110 -45t-60 -109q-12 -63 22 -108.5t93 -45.5z" />
    <glyph glyph-name="plusminus" unicode="&#xb1;" horiz-adv-x="745" 
d="M465 719h219l-27 -146h-219l-53 -305h-156l54 305h-220l25 146h221l53 305h156zM-39 0l23 137h598l-25 -137h-596z" />
    <glyph glyph-name="uni00B2" unicode="&#xb2;" horiz-adv-x="454" 
d="M504 1155q-19 -112 -101.5 -214t-224.5 -210h258l-24 -135h-387l24 135q64 54 103 91.5t78 85.5t61.5 98t32.5 108q25 123 -76 123q-42 0 -98 -29l6 107q77 35 172 35q211 0 176 -195z" />
    <glyph glyph-name="uni00B3" unicode="&#xb3;" horiz-adv-x="475" 
d="M516 1188q-14 -80 -53 -127t-96 -51v-2q64 0 92 -47.5t14 -133.5q-25 -130 -91.5 -186.5t-197.5 -56.5q-85 0 -157 30l34 97q46 -19 80 -19q75 0 111.5 33t50.5 113q11 57 -10.5 83.5t-81.5 26.5h-53l14 88h41q59 0 88.5 26t38.5 85q9 51 -12 72.5t-82 21.5
q-46 0 -92 -18l6 96q91 31 176 31q112 0 153.5 -37.5t26.5 -124.5z" />
    <glyph glyph-name="acute" unicode="&#xb4;" horiz-adv-x="577" 
d="M178 1169l199 285h260l-299 -285h-160z" />
    <glyph glyph-name="paragraph" unicode="&#xb6;" horiz-adv-x="925" 
d="M487 1337h156l-270 -1538h-156l143 813q-156 13 -217 103.5t-32 261.5q29 167 122 256t254 102v2zM739 1337h203l-270 -1538h-203z" />
    <glyph glyph-name="periodcentered" unicode="&#xb7;" horiz-adv-x="423" 
d="M59 504l50 268h256l-48 -268h-258z" />
    <glyph glyph-name="cedilla" unicode="&#xb8;" horiz-adv-x="581" 
d="M160 -100q61 -7 101 -22t57.5 -35.5t24 -46.5t-0.5 -54q-11 -59 -50.5 -103t-101 -69t-132 -37t-154.5 -14v102q59 4 98 10.5t75 19t55.5 34t25.5 53.5q3 19 -7.5 33.5t-52 29.5t-116.5 23l108 184h125z" />
    <glyph glyph-name="uni00B9" unicode="&#xb9;" horiz-adv-x="339" 
d="M131 1298l279 54l-134 -756h-165l106 600l-108 -18z" />
    <glyph glyph-name="ordmasculine" unicode="&#xba;" horiz-adv-x="546" 
d="M297 778q-114 0 -153 68.5t-11 222.5q26 154 88.5 221.5t177.5 67.5q114 0 153 -68t11 -221q-28 -154 -90 -222.5t-176 -68.5zM315 879q38 0 63 44.5t44 145.5q17 100 8 144t-47 44q-41 0 -66.5 -44t-44.5 -144q-19 -101 -8.5 -145.5t51.5 -44.5z" />
    <glyph glyph-name="guillemotright" unicode="&#xbb;" horiz-adv-x="946" 
d="M322 858l184 -315l-295 -316h-217l305 320l-186 311h209zM676 858l186 -315l-297 -316h-215l303 320l-186 311h209z" />
    <glyph glyph-name="onequarter" unicode="&#xbc;" horiz-adv-x="1064" 
d="M39 596l104 600l-106 -18l20 120l281 54l-133 -756h-166zM973 1337h119l-1014 -1339h-121zM977 741l-86 -485h61l-18 -96h-60l-28 -160h-164l29 160h-234l4 24l332 557h164zM604 256h123l53 301z" />
    <glyph glyph-name="onehalf" unicode="&#xbd;" horiz-adv-x="1177" 
d="M39 596l104 600l-106 -18l20 120l281 54l-133 -756h-166zM983 1337h119l-1014 -1339h-121zM1108 559q-18 -111 -100 -212.5t-224 -211.5h258l-26 -135h-385l22 135q130 110 194 191.5t83 191.5q10 60 -9.5 91.5t-66.5 31.5q-42 0 -98 -29l6 107q74 35 172 35
q103 0 148 -49.5t26 -145.5z" />
    <glyph glyph-name="threequarters" unicode="&#xbe;" horiz-adv-x="1122" 
d="M379 827q-23 -130 -89.5 -186.5t-197.5 -56.5q-88 0 -160 30l35 97q46 -19 80 -19q75 0 113 33.5t51 112.5q11 57 -11.5 83.5t-80.5 26.5h-53l14 88h41q58 0 87 26t40 85q9 51 -12 72.5t-82 21.5q-46 0 -95 -18l9 96q88 31 174 31q112 0 154 -37.5t28 -124.5
q-15 -80 -54.5 -127t-97.5 -51v-2q66 0 93.5 -47t13.5 -134zM1042 1337h121l-1013 -1339h-119zM1030 741l-86 -485h60l-17 -96h-59l-29 -160h-166l29 160h-234l4 24l332 557h166zM655 256h123l53 301z" />
    <glyph glyph-name="questiondown" unicode="&#xbf;" horiz-adv-x="800" 
d="M340 782l43 242h209l-43 -242h-209zM223 -332q-163 0 -225.5 67t-36.5 214q12 65 34.5 117t49.5 88t58 67.5t62 62t58 64t48.5 82.5t31.5 109l19 104h198l-18 -106q-13 -76 -39.5 -136t-57 -96.5t-65.5 -76.5t-65 -75t-56 -93.5t-39 -131.5q-14 -72 1.5 -102.5
t66.5 -30.5q60 0 92 39.5t47 134.5l16 84h209l-16 -100q-26 -149 -116 -217t-257 -68z" />
    <glyph glyph-name="Agrave" unicode="&#xc0;" horiz-adv-x="880" 
d="M717 1454h-203l-174 293h268zM506 0l-14 336h-293l-131 -336h-154l549 1337h203l69 -1337h-229zM252 471h233l-22 535z" />
    <glyph glyph-name="Aacute" unicode="&#xc1;" horiz-adv-x="880" 
d="M971 1747l-307 -293h-197l229 293h275zM666 1337l69 -1337h-229l-14 336h-293l-131 -336h-154l549 1337h203zM252 471h233l-22 535z" />
    <glyph glyph-name="Acircumflex" unicode="&#xc2;" horiz-adv-x="880" 
d="M625 1595l-107 -143h-233l235 295h254l135 -295h-233zM666 1337l69 -1337h-229l-14 336h-293l-131 -336h-154l549 1337h203zM252 471h233l-22 535z" />
    <glyph glyph-name="Atilde" unicode="&#xc3;" horiz-adv-x="880" 
d="M793 1704h170q-35 -114 -104.5 -182t-151.5 -68q-38 0 -69.5 17.5t-58 35t-53.5 17.5q-25 0 -48 -19t-36 -51h-172q35 115 107 182.5t158 67.5q43 0 75 -17.5t55.5 -35t45.5 -17.5q23 0 46 19t36 51zM666 1337l69 -1337h-229l-14 336h-293l-131 -336h-154l549 1337h203z
M252 471h233l-22 535z" />
    <glyph glyph-name="Adieresis" unicode="&#xc4;" horiz-adv-x="880" 
d="M582 1681l-41 -227h-217l41 227h217zM692 1681h219l-41 -227h-219zM666 1337l69 -1337h-229l-14 336h-293l-131 -336h-154l549 1337h203zM252 471h233l-22 535z" />
    <glyph glyph-name="Aring" unicode="&#xc5;" horiz-adv-x="880" 
d="M772 1468q-9 -46 -37 -84.5t-69 -62.5l69 -1321h-229l-14 336h-293l-131 -336h-154l545 1327q-62 50 -47 141q13 74 75.5 125.5t135.5 51.5t117 -51.5t32 -125.5zM518 1468q-4 -31 13.5 -52t46.5 -21q31 0 56.5 21t29.5 52q5 29 -13 51.5t-47 22.5q-30 0 -55 -22t-31 -52
zM252 471h233l-22 535z" />
    <glyph glyph-name="AE" unicode="&#xc6;" horiz-adv-x="1251" 
d="M1225 1200h-336l-76 -430h307l-22 -137h-310l-86 -496h351l-25 -137h-579l61 346h-283l-149 -346h-164l604 1337h731zM281 471h251l127 729h-65z" />
    <glyph glyph-name="Ccedilla" unicode="&#xc7;" horiz-adv-x="753" 
d="M639 1358q71 0 174 -33l-53 -256l-146 145q-103 0 -168 -123.5t-116 -414.5q-53 -296 -30 -424.5t130 -128.5q71 0 143 41v-139q-88 -37 -167 -43l-41 -82q61 -7 101 -22t57.5 -35.5t24 -46.5t-0.5 -54q-11 -59 -50.5 -103t-100.5 -69t-131.5 -37t-153.5 -14l-2 102
q59 4 98 10.5t74.5 19t55 34t25.5 53.5q3 19 -7.5 33.5t-52 29.5t-116.5 23l95 162q-162 26 -210 192.5t11 497.5q65 358 197 520t360 162z" />
    <glyph glyph-name="Egrave" unicode="&#xc8;" horiz-adv-x="794" 
d="M647 1454h-203l-174 293h269zM770 1200h-336l-76 -430h308l-25 -137h-307l-86 -496h348l-23 -137h-581l237 1337h566z" />
    <glyph glyph-name="Eacute" unicode="&#xc9;" horiz-adv-x="794" 
d="M903 1747l-307 -293h-197l230 293h274zM795 1337l-25 -137h-336l-76 -430h308l-25 -137h-307l-86 -496h348l-23 -137h-581l237 1337h566z" />
    <glyph glyph-name="Ecircumflex" unicode="&#xca;" horiz-adv-x="794" 
d="M557 1595l-106 -143h-234l236 295h254l135 -295h-234zM795 1337l-25 -137h-336l-76 -430h308l-25 -137h-307l-86 -496h348l-23 -137h-581l237 1337h566z" />
    <glyph glyph-name="Edieresis" unicode="&#xcb;" horiz-adv-x="794" 
d="M512 1681l-41 -227h-217l41 227h217zM623 1681h219l-41 -227h-219zM795 1337l-25 -137h-336l-76 -430h308l-25 -137h-307l-86 -496h348l-23 -137h-581l237 1337h566z" />
    <glyph glyph-name="Igrave" unicode="&#xcc;" horiz-adv-x="444" 
d="M283 1454l-174 293h268l108 -293h-202zM-8 0l237 1337h230l-236 -1337h-231z" />
    <glyph glyph-name="Iacute" unicode="&#xcd;" horiz-adv-x="444" 
d="M236 1454l229 293h274l-307 -293h-196zM-8 0l237 1337h230l-236 -1337h-231z" />
    <glyph glyph-name="Icircumflex" unicode="&#xce;" horiz-adv-x="444" 
d="M393 1595l-106 -143h-234l236 295h254l135 -295h-234zM-8 0l237 1337h230l-236 -1337h-231z" />
    <glyph glyph-name="Idieresis" unicode="&#xcf;" horiz-adv-x="444" 
d="M92 1454l41 227h217l-41 -227h-217zM420 1454l41 227h219l-41 -227h-219zM-8 0l237 1337h230l-236 -1337h-231z" />
    <glyph glyph-name="Eth" unicode="&#xd0;" horiz-adv-x="927" 
d="M539 1337q227 0 302 -156.5t15 -504.5q-65 -355 -196 -515.5t-357 -160.5h-311l110 623h-59l25 143h59l102 571h310zM608 672q33 191 33.5 306t-32.5 168.5t-103 53.5h-72l-76 -434h174l-26 -143h-172l-86 -486h71q104 0 171 124.5t118 410.5z" />
    <glyph glyph-name="Ntilde" unicode="&#xd1;" horiz-adv-x="944" 
d="M565 1524q-25 0 -48 -19t-36 -51h-172q35 115 106.5 182.5t157.5 67.5q43 0 75.5 -17.5t56 -35t45.5 -17.5q23 0 45.5 19t35.5 51h170q-35 -114 -104.5 -182t-151.5 -68q-38 0 -69 17.5t-57.5 35t-53.5 17.5zM662 469l153 868h141l-235 -1337h-168l-252 940l-166 -940
h-143l237 1337h209z" />
    <glyph glyph-name="Ograve" unicode="&#xd2;" horiz-adv-x="935" 
d="M535 1454l-175 293h269l108 -293h-202zM354 -20q-207 0 -271.5 164t-0.5 528q64 361 186 523.5t328 162.5q203 0 266 -162.5t0 -523.5q-63 -363 -184 -527.5t-324 -164.5zM379 123q76 0 130 126.5t105 422.5q54 293 44.5 419t-87.5 126q-79 0 -134.5 -125.5
t-106.5 -419.5q-53 -295 -42.5 -422t91.5 -127z" />
    <glyph glyph-name="Oacute" unicode="&#xd3;" horiz-adv-x="935" 
d="M487 1454l230 293h274l-307 -293h-197zM354 -20q-207 0 -271.5 164t-0.5 528q64 361 186 523.5t328 162.5q203 0 266 -162.5t0 -523.5q-63 -363 -184 -527.5t-324 -164.5zM379 123q76 0 130 126.5t105 422.5q54 293 44.5 419t-87.5 126q-79 0 -134.5 -125.5
t-106.5 -419.5q-53 -295 -42.5 -422t91.5 -127z" />
    <glyph glyph-name="Ocircumflex" unicode="&#xd4;" horiz-adv-x="935" 
d="M645 1595l-106 -143h-234l236 295h254l135 -295h-234zM596 1358q203 0 266 -162.5t0 -523.5q-63 -363 -184 -527.5t-324 -164.5q-207 0 -271.5 164t-0.5 528q64 361 186 523.5t328 162.5zM614 672q54 293 44.5 419t-87.5 126q-79 0 -134.5 -125.5t-106.5 -419.5
q-53 -295 -42.5 -422t91.5 -127q76 0 130 126.5t105 422.5z" />
    <glyph glyph-name="Otilde" unicode="&#xd5;" horiz-adv-x="935" 
d="M291 1454q35 115 106.5 182.5t157.5 67.5q43 0 75 -17.5t55.5 -35t45.5 -17.5q23 0 46 19t36 51h170q-35 -114 -104.5 -182t-151.5 -68q-38 0 -69 17.5t-57.5 35t-53.5 17.5q-25 0 -48 -19t-36 -51h-172zM354 -20q-207 0 -271.5 164t-0.5 528q64 361 186 523.5t328 162.5
q203 0 266 -162.5t0 -523.5q-63 -363 -184 -527.5t-324 -164.5zM379 123q76 0 130 126.5t105 422.5q54 293 44.5 419t-87.5 126q-79 0 -134.5 -125.5t-106.5 -419.5q-53 -295 -42.5 -422t91.5 -127z" />
    <glyph glyph-name="Odieresis" unicode="&#xd6;" horiz-adv-x="935" 
d="M344 1454l41 227h217l-41 -227h-217zM672 1454l41 227h219l-41 -227h-219zM354 -20q-207 0 -271.5 164t-0.5 528q64 361 186 523.5t328 162.5q203 0 266 -162.5t0 -523.5q-63 -363 -184 -527.5t-324 -164.5zM379 123q76 0 130 126.5t105 422.5q54 293 44.5 419t-87.5 126
q-79 0 -134.5 -125.5t-106.5 -419.5q-53 -295 -42.5 -422t91.5 -127z" />
    <glyph glyph-name="multiply" unicode="&#xd7;" horiz-adv-x="747" 
d="M692 707l-211 -187l142 -178l-154 -129l-137 176l-203 -180l-111 131l209 184l-145 187l151 127l144 -183l205 181z" />
    <glyph glyph-name="Oslash" unicode="&#xd8;" horiz-adv-x="935" 
d="M1001 1337l-129 -176q49 -163 -10 -489q-63 -363 -184 -527.5t-324 -164.5q-183 0 -254 124l-77 -106h-86l133 182q-46 168 12 492q64 361 186 523.5t328 162.5q176 0 248 -123l74 102h83zM330 672q-12 -68 -29 -174l356 485q9 122 -12 178t-74 56q-79 0 -134.5 -125.5
t-106.5 -419.5zM614 672q24 132 29 176l-354 -488q-9 -124 12.5 -180.5t77.5 -56.5q76 0 130 126.5t105 422.5z" />
    <glyph glyph-name="Ugrave" unicode="&#xd9;" horiz-adv-x="905" 
d="M541 1454l-174 293h268l108 -293h-202zM367 -20q-188 0 -270.5 109t-47.5 304l168 944h229l-167 -944q-11 -53 -9 -101.5t14.5 -86t44.5 -60t81 -22.5q60 0 105 38.5t70.5 96t39.5 135.5l166 944h143l-168 -948q-35 -192 -135.5 -300.5t-263.5 -108.5z" />
    <glyph glyph-name="Uacute" unicode="&#xda;" horiz-adv-x="905" 
d="M496 1454l229 293h274l-307 -293h-196zM367 -20q-188 0 -270.5 109t-47.5 304l168 944h229l-167 -944q-11 -53 -9 -101.5t14.5 -86t44.5 -60t81 -22.5q60 0 105 38.5t70.5 96t39.5 135.5l166 944h143l-168 -948q-35 -192 -135.5 -300.5t-263.5 -108.5z" />
    <glyph glyph-name="Ucircumflex" unicode="&#xdb;" horiz-adv-x="905" 
d="M653 1595l-106 -143h-234l236 295h254l135 -295h-233zM625 393l166 944h143l-168 -948q-35 -192 -135.5 -300.5t-263.5 -108.5q-188 0 -270.5 109t-47.5 304l168 944h229l-167 -944q-11 -53 -9 -101.5t14.5 -86t44.5 -60t81 -22.5q60 0 105 38.5t70.5 96t39.5 135.5z" />
    <glyph glyph-name="Udieresis" unicode="&#xdc;" horiz-adv-x="905" 
d="M350 1454l41 227h217l-41 -227h-217zM678 1454l41 227h219l-41 -227h-219zM367 -20q-188 0 -270.5 109t-47.5 304l168 944h229l-167 -944q-11 -53 -9 -101.5t14.5 -86t44.5 -60t81 -22.5q60 0 105 38.5t70.5 96t39.5 135.5l166 944h143l-168 -948q-35 -192 -135.5 -300.5
t-263.5 -108.5z" />
    <glyph glyph-name="Yacute" unicode="&#xdd;" horiz-adv-x="862" 
d="M973 1747l-307 -293h-197l229 293h275zM510 725l293 612h153l-409 -839l-88 -498h-230l88 498l-167 839h241z" />
    <glyph glyph-name="Thorn" unicode="&#xde;" horiz-adv-x="860" 
d="M487 1073q198 0 273 -86t41 -276q-38 -214 -145 -311t-304 -97h-76l-53 -303h-231l237 1337h230l-47 -264h75zM559 711q22 121 -3 173t-105 52h-64l-86 -496h61q79 0 125 63t72 208z" />
    <glyph glyph-name="germandbls" unicode="&#xdf;" horiz-adv-x="821" 
d="M-25 0l189 1055q28 157 116 231t248 74h23q319 0 264 -309q-21 -116 -72 -192.5t-129 -102.5q86 -19 113.5 -113.5t-0.5 -230.5q-37 -210 -130 -311t-247 -101h-65l24 139h25q66 0 106 62t66 205q25 145 6 206.5t-88 61.5h-27l23 129h22q59 0 95.5 54.5t58.5 172.5
q17 97 -2.5 143t-77.5 46h-4q-55 0 -89.5 -37.5t-45.5 -106.5l-191 -1075h-211z" />
    <glyph glyph-name="agrave" unicode="&#xe0;" horiz-adv-x="808" 
d="M602 1169h-188l-203 285h272zM604 1024h180l-180 -1024h-180l25 145q-107 -165 -259 -165q-132 0 -170 131t13 417q47 269 131.5 392.5t220.5 123.5q145 0 190 -180zM287 117q126 0 196 397q69 393 -59 393q-54 0 -95 -92t-75 -285q-37 -207 -29.5 -310t62.5 -103z" />
    <glyph glyph-name="aacute" unicode="&#xe1;" horiz-adv-x="808" 
d="M813 1454l-301 -285h-158l197 285h262zM575 864l29 160h180l-180 -1024h-180l25 145q-107 -165 -259 -165q-132 0 -170 131t13 417q47 269 131.5 392.5t220.5 123.5q145 0 190 -180zM287 117q126 0 196 397q69 393 -59 393q-54 0 -95 -92t-75 -285q-37 -207 -29.5 -310
t62.5 -103z" />
    <glyph glyph-name="acircumflex" unicode="&#xe2;" horiz-adv-x="808" 
d="M504 1354l-115 -185h-207l201 285h274l103 -285h-209zM604 1024h180l-180 -1024h-180l25 145q-107 -165 -259 -165q-132 0 -170 131t13 417q47 269 131.5 392.5t220.5 123.5q145 0 190 -180zM287 117q126 0 196 397q69 393 -59 393q-54 0 -95 -92t-75 -285
q-37 -207 -29.5 -310t62.5 -103z" />
    <glyph glyph-name="atilde" unicode="&#xe3;" horiz-adv-x="808" 
d="M414 1233q-46 0 -72 -64h-158q35 111 98.5 178.5t139.5 67.5q38 0 65.5 -15.5t48 -30.5t39.5 -15q44 0 68 59h160q-36 -110 -99 -177t-135 -67q-41 0 -85.5 32t-69.5 32zM575 864l29 160h180l-180 -1024h-180l25 145q-107 -165 -259 -165q-132 0 -170 131t13 417
q47 269 131.5 392.5t220.5 123.5q145 0 190 -180zM287 117q126 0 196 397q69 393 -59 393q-54 0 -95 -92t-75 -285q-37 -207 -29.5 -310t62.5 -103z" />
    <glyph glyph-name="adieresis" unicode="&#xe4;" horiz-adv-x="808" 
d="M451 1380l-37 -211h-203l37 211h203zM770 1380l-37 -211h-203l37 211h203zM604 1024h180l-180 -1024h-180l25 145q-107 -165 -259 -165q-132 0 -170 131t13 417q47 269 131.5 392.5t220.5 123.5q145 0 190 -180zM287 117q126 0 196 397q69 393 -59 393q-54 0 -95 -92
t-75 -285q-37 -207 -29.5 -310t62.5 -103z" />
    <glyph glyph-name="aring" unicode="&#xe5;" horiz-adv-x="808" 
d="M473 1169q-103 0 -158.5 62.5t-38.5 159.5q17 95 94.5 157t178.5 62q103 0 159 -62t37 -157q-17 -97 -93.5 -159.5t-178.5 -62.5zM418 1391q-7 -41 14.5 -69t61.5 -28q41 0 72.5 28t37.5 69q8 40 -14.5 67t-63.5 27q-39 0 -69.5 -27t-38.5 -67zM604 1024h180l-180 -1024
h-180l25 145q-107 -165 -259 -165q-132 0 -170 131t13 417q47 269 131.5 392.5t220.5 123.5q145 0 190 -180zM287 117q126 0 196 397q69 393 -59 393q-54 0 -95 -92t-75 -285q-37 -207 -29.5 -310t62.5 -103z" />
    <glyph glyph-name="ae" unicode="&#xe6;" horiz-adv-x="1185" 
d="M883 1044q171 0 227.5 -120t9.5 -383q-3 -21 -12 -49h-434q-34 -206 -7 -293.5t128 -87.5q76 0 200 57l9 -123q-136 -65 -259 -65q-134 0 -208.5 54.5t-94.5 170.5q-77 -120 -147 -172.5t-150 -52.5q-96 0 -137.5 75t-13.5 232q56 303 332 364l153 35l13 72
q15 85 -6.5 121t-86.5 36q-86 0 -229 -45l-10 127q174 47 301 47q154 0 209 -61q88 61 213 61zM692 606h217q30 167 19.5 238t-66.5 71q-62 0 -99.5 -70t-70.5 -239zM256 137q52 0 102 70t62 139l41 229l-88 -22q-62 -18 -101 -75t-59 -165q-32 -176 43 -176z" />
    <glyph glyph-name="ccedilla" unicode="&#xe7;" horiz-adv-x="645" 
d="M489 1044q80 0 158 -22l-49 -238l-119 131q-83 0 -136 -92t-91 -307q-38 -218 -16.5 -311.5t110.5 -93.5q68 0 127 30v-125q-81 -36 -186 -36l-41 -80q61 -7 101 -22t57.5 -35.5t24 -46.5t-0.5 -54q-11 -59 -50.5 -103t-101 -69t-132 -37t-154.5 -14v102q59 4 98 10.5
t75 19t55.5 34t25.5 53.5q3 19 -7.5 33.5t-52 29.5t-116.5 23l100 170q-113 37 -146 163.5t9 356.5q49 280 157.5 405t300.5 125z" />
    <glyph glyph-name="egrave" unicode="&#xe8;" horiz-adv-x="768" 
d="M631 1169h-189l-202 285h272zM457 1044q172 0 228.5 -119.5t10.5 -383.5q-7 -28 -14 -49h-434q-34 -206 -6.5 -293.5t129.5 -87.5q76 0 200 57l7 -123q-136 -65 -256 -65q-203 0 -272.5 128t-18.5 410q50 277 150.5 401.5t275.5 124.5zM268 606h217q30 167 19.5 238
t-66.5 71q-63 0 -101 -70t-69 -239z" />
    <glyph glyph-name="eacute" unicode="&#xe9;" horiz-adv-x="768" 
d="M842 1454l-301 -285h-158l197 285h262zM457 1044q172 0 228.5 -119.5t10.5 -383.5q-7 -28 -14 -49h-434q-34 -206 -6.5 -293.5t129.5 -87.5q76 0 200 57l7 -123q-136 -65 -256 -65q-203 0 -272.5 128t-18.5 410q50 277 150.5 401.5t275.5 124.5zM268 606h217
q30 167 19.5 238t-66.5 71q-63 0 -101 -70t-69 -239z" />
    <glyph glyph-name="ecircumflex" unicode="&#xea;" horiz-adv-x="768" 
d="M532 1354l-114 -185h-207l201 285h274l102 -285h-208zM457 1044q172 0 228.5 -119.5t10.5 -383.5q-7 -28 -14 -49h-434q-34 -206 -6.5 -293.5t129.5 -87.5q76 0 200 57l7 -123q-136 -65 -256 -65q-203 0 -272.5 128t-18.5 410q50 277 150.5 401.5t275.5 124.5zM268 606
h217q30 167 19.5 238t-66.5 71q-63 0 -101 -70t-69 -239z" />
    <glyph glyph-name="edieresis" unicode="&#xeb;" horiz-adv-x="768" 
d="M479 1380l-37 -211h-202l36 211h203zM596 1380h203l-37 -211h-203zM457 1044q172 0 228.5 -119.5t10.5 -383.5q-7 -28 -14 -49h-434q-34 -206 -6.5 -293.5t129.5 -87.5q76 0 200 57l7 -123q-136 -65 -256 -65q-203 0 -272.5 128t-18.5 410q50 277 150.5 401.5
t275.5 124.5zM268 606h217q30 167 19.5 238t-66.5 71q-63 0 -101 -70t-69 -239z" />
    <glyph glyph-name="igrave" unicode="&#xec;" horiz-adv-x="391" 
d="M231 1169l-202 285h272l119 -285h-189zM-25 0l183 1024h209l-181 -1024h-211z" />
    <glyph glyph-name="iacute" unicode="&#xed;" horiz-adv-x="391" 
d="M172 1169l197 285h262l-301 -285h-158zM-25 0l183 1024h209l-181 -1024h-211z" />
    <glyph glyph-name="icircumflex" unicode="&#xee;" horiz-adv-x="391" 
d="M475 1454l103 -285h-209l-47 185l-115 -185h-209l203 285h274zM-25 0l183 1024h209l-181 -1024h-211z" />
    <glyph glyph-name="idieresis" unicode="&#xef;" horiz-adv-x="391" 
d="M29 1169l37 211h202l-37 -211h-202zM348 1169l37 211h203l-37 -211h-203zM-25 0l183 1024h209l-181 -1024h-211z" />
    <glyph glyph-name="eth" unicode="&#xf0;" horiz-adv-x="823" 
d="M850 1284l-117 -80q85 -175 6 -622q-55 -316 -165 -459t-298 -143q-180 0 -240 115.5t-13 373.5q40 223 124 322.5t232 99.5q100 0 166 -66q21 167 6 258l-166 -112l-45 82l178 121q-42 53 -129 53q-61 0 -143 -27l-6 127q92 31 200 31q157 0 238 -78l127 86zM483 449
q20 110 19.5 178t-21 98.5t-63.5 30.5q-63 0 -101 -70t-67 -237q-34 -180 -20 -256t81 -76q62 0 101.5 76.5t70.5 255.5z" />
    <glyph glyph-name="ntilde" unicode="&#xf1;" horiz-adv-x="796" 
d="M457 1233q-46 0 -72 -64h-158q35 111 98.5 178.5t139.5 67.5q38 0 65.5 -15.5t48 -30.5t39.5 -15q44 0 68 59h160q-36 -110 -99 -177t-135 -67q-41 0 -85.5 32t-69.5 32zM571 1044q116 0 152.5 -71.5t5.5 -239.5l-129 -733h-209l123 688q21 118 11.5 168.5t-58.5 50.5
q-61 0 -103 -66t-63 -179l-117 -662h-209l183 1024l211 20l-23 -126q42 61 101 93.5t124 32.5z" />
    <glyph glyph-name="ograve" unicode="&#xf2;" horiz-adv-x="782" 
d="M432 1169l-203 285h273l119 -285h-189zM274 -20q-177 0 -235.5 126.5t-7.5 405.5q50 280 152 406t280 126q175 0 233 -126.5t11 -405.5q-51 -280 -153.5 -406t-279.5 -126zM297 111q62 0 105 93.5t81 311.5q38 215 28 307t-73 92q-62 0 -105 -92t-81 -307
q-38 -218 -27.5 -311.5t72.5 -93.5z" />
    <glyph glyph-name="oacute" unicode="&#xf3;" horiz-adv-x="782" 
d="M373 1169l196 285h262l-301 -285h-157zM274 -20q-177 0 -235.5 126.5t-7.5 405.5q50 280 152 406t280 126q175 0 233 -126.5t11 -405.5q-51 -280 -153.5 -406t-279.5 -126zM297 111q62 0 105 93.5t81 311.5q38 215 28 307t-73 92q-62 0 -105 -92t-81 -307
q-38 -218 -27.5 -311.5t72.5 -93.5z" />
    <glyph glyph-name="ocircumflex" unicode="&#xf4;" horiz-adv-x="782" 
d="M522 1354l-114 -185h-207l200 285h275l102 -285h-209zM463 1044q175 0 233 -126.5t11 -405.5q-51 -280 -153.5 -406t-279.5 -126t-235.5 126.5t-7.5 405.5q50 280 152 406t280 126zM483 516q38 215 28 307t-73 92q-62 0 -105 -92t-81 -307q-38 -218 -27.5 -311.5
t72.5 -93.5t105 93.5t81 311.5z" />
    <glyph glyph-name="otilde" unicode="&#xf5;" horiz-adv-x="782" 
d="M586 1169q-41 0 -86 32t-70 32q-46 0 -72 -64h-157q35 111 98 178.5t139 67.5q38 0 66 -15.5t48.5 -30.5t39.5 -15q43 0 67 59h160q-36 -110 -98.5 -177t-134.5 -67zM274 -20q-177 0 -235.5 126.5t-7.5 405.5q50 280 152 406t280 126q175 0 233 -126.5t11 -405.5
q-51 -280 -153.5 -406t-279.5 -126zM297 111q62 0 105 93.5t81 311.5q38 215 28 307t-73 92q-62 0 -105 -92t-81 -307q-38 -218 -27.5 -311.5t72.5 -93.5z" />
    <glyph glyph-name="odieresis" unicode="&#xf6;" horiz-adv-x="782" 
d="M227 1169l37 211h203l-37 -211h-203zM547 1169l37 211h202l-36 -211h-203zM274 -20q-177 0 -235.5 126.5t-7.5 405.5q50 280 152 406t280 126q175 0 233 -126.5t11 -405.5q-51 -280 -153.5 -406t-279.5 -126zM297 111q62 0 105 93.5t81 311.5q38 215 28 307t-73 92
q-62 0 -105 -92t-81 -307q-38 -218 -27.5 -311.5t72.5 -93.5z" />
    <glyph glyph-name="divide" unicode="&#xf7;" horiz-adv-x="833" 
d="M313 774l45 250h232l-43 -250h-234zM39 449l22 126h687l-23 -126h-686zM176 0l45 250h232l-45 -250h-232z" />
    <glyph glyph-name="oslash" unicode="&#xf8;" horiz-adv-x="782" 
d="M809 1024l-102 -129q43 -129 0 -383q-51 -280 -153.5 -406t-279.5 -126q-159 0 -221 98l-61 -78h-66l103 129q-45 125 2 383q50 280 152 406t280 126q155 0 217 -98l61 78h68zM252 516q-20 -122 -21 -133l281 354q6 93 -12.5 135.5t-61.5 42.5q-62 0 -105 -92t-81 -307z
M483 516q8 47 21 125l-281 -352q-9 -178 74 -178q62 0 105 93.5t81 311.5z" />
    <glyph glyph-name="ugrave" unicode="&#xf9;" horiz-adv-x="796" 
d="M618 1169h-188l-203 285h273zM563 1024h209l-180 -1024l-213 -20l22 126q-89 -126 -225 -126q-116 0 -153 72.5t-5 240.5l129 731h209l-120 -688q-15 -81 -16 -127.5t13.5 -69t47.5 -22.5q59 0 101 64t62 173z" />
    <glyph glyph-name="uacute" unicode="&#xfa;" horiz-adv-x="796" 
d="M829 1454l-301 -285h-157l196 285h262zM444 354l119 670h209l-180 -1024l-213 -20l22 126q-89 -126 -225 -126q-116 0 -153 72.5t-5 240.5l129 731h209l-120 -688q-15 -81 -16 -127.5t13.5 -69t47.5 -22.5q59 0 101 64t62 173z" />
    <glyph glyph-name="ucircumflex" unicode="&#xfb;" horiz-adv-x="796" 
d="M520 1354l-114 -185h-207l200 285h275l102 -285h-209zM444 354l119 670h209l-180 -1024l-213 -20l22 126q-89 -126 -225 -126q-116 0 -153 72.5t-5 240.5l129 731h209l-120 -688q-15 -81 -16 -127.5t13.5 -69t47.5 -22.5q59 0 101 64t62 173z" />
    <glyph glyph-name="udieresis" unicode="&#xfc;" horiz-adv-x="796" 
d="M465 1380l-37 -211h-203l37 211h203zM784 1380l-36 -211h-203l37 211h202zM444 354l119 670h209l-180 -1024l-213 -20l22 126q-89 -126 -225 -126q-116 0 -153 72.5t-5 240.5l129 731h209l-120 -688q-15 -81 -16 -127.5t13.5 -69t47.5 -22.5q59 0 101 64t62 173z" />
    <glyph glyph-name="yacute" unicode="&#xfd;" horiz-adv-x="696" 
d="M809 1454l-301 -285h-158l197 285h262zM330 336l284 688h136l-605 -1413h-131l166 389h-30l-70 1024h223z" />
    <glyph glyph-name="thorn" unicode="&#xfe;" horiz-adv-x="800" 
d="M561 1044q134 0 173 -131.5t-13 -418.5q-46 -267 -127 -390.5t-211 -123.5q-124 0 -180 124l-86 -493h-211l317 1790l211 18l-86 -485q91 110 213 110zM504 494q37 209 29.5 312t-62.5 103q-125 0 -195 -397q-72 -399 58 -399q54 0 95 93t75 288z" />
    <glyph glyph-name="ydieresis" unicode="&#xff;" horiz-adv-x="696" 
d="M444 1380l-36 -211h-203l37 211h202zM764 1380l-37 -211h-203l37 211h203zM330 336l284 688h136l-605 -1413h-131l166 389h-30l-70 1024h223z" />
    <glyph glyph-name="Amacron" unicode="&#x100;" horiz-adv-x="880" 
d="M362 1606h525l-29 -152h-524zM666 1337l69 -1337h-229l-14 336h-293l-131 -336h-154l549 1337h203zM252 471h233l-22 535z" />
    <glyph glyph-name="amacron" unicode="&#x101;" horiz-adv-x="808" 
d="M739 1325l-26 -156h-482l27 156h481zM604 1024h180l-180 -1024h-180l25 145q-107 -165 -259 -165q-132 0 -170 131t13 417q47 269 131.5 392.5t220.5 123.5q145 0 190 -180zM287 117q126 0 196 397q69 393 -59 393q-54 0 -95 -92t-75 -285q-37 -207 -29.5 -310t62.5 -103
z" />
    <glyph glyph-name="Abreve" unicode="&#x102;" horiz-adv-x="880" 
d="M737 1731h217q-32 -126 -132 -201.5t-236 -75.5q-127 0 -194.5 75.5t-55.5 201.5h217q-3 -53 17.5 -84t58.5 -31q30 0 59.5 31.5t48.5 83.5zM666 1337l69 -1337h-229l-14 336h-293l-131 -336h-154l549 1337h203zM252 471h233l-22 535z" />
    <glyph glyph-name="abreve" unicode="&#x103;" horiz-adv-x="808" 
d="M461 1169q-121 0 -185.5 77t-52.5 208h201q-3 -57 17.5 -90t60.5 -33q31 0 62 33t54 90h199q-32 -130 -128.5 -207.5t-227.5 -77.5zM575 864l29 160h180l-180 -1024h-180l25 145q-107 -165 -259 -165q-132 0 -170 131t13 417q47 269 131.5 392.5t220.5 123.5
q145 0 190 -180zM287 117q126 0 196 397q69 393 -59 393q-54 0 -95 -92t-75 -285q-37 -207 -29.5 -310t62.5 -103z" />
    <glyph glyph-name="Aogonek" unicode="&#x104;" horiz-adv-x="880" 
d="M553 -319q44 0 90 16l2 -125q-74 -29 -178 -29q-98 0 -143 41t-33 119q12 69 82 157.5t153 139.5h-20l-14 336h-293l-131 -336h-154l549 1337h203l69 -1337h-69q-171 -132 -191 -240q-5 -34 15.5 -56.5t62.5 -22.5zM252 471h233l-22 535z" />
    <glyph glyph-name="aogonek" unicode="&#x105;" horiz-adv-x="808" 
d="M582 0q-171 -132 -191 -240q-5 -34 15.5 -56.5t62.5 -22.5q44 0 90 16l2 -125q-74 -29 -178 -29q-98 0 -143 41t-33 119q12 69 82 157.5t153 139.5h-18l25 145q-107 -165 -259 -165q-132 0 -170 131t13 417q47 269 131.5 392.5t220.5 123.5q145 0 190 -180l29 160h180
l-180 -1024h-22zM287 117q126 0 196 397q69 393 -59 393q-54 0 -95 -92t-75 -285q-37 -207 -29.5 -310t62.5 -103z" />
    <glyph glyph-name="Cacute" unicode="&#x106;" horiz-adv-x="753" 
d="M436 1454l230 293h274l-307 -293h-197zM352 -20q-207 0 -271 165.5t1 530.5q65 358 197 520t360 162q71 0 174 -33l-53 -256l-146 145q-103 0 -168 -123.5t-116 -414.5q-53 -296 -30 -424.5t130 -128.5q71 0 143 41v-139q-106 -45 -221 -45z" />
    <glyph glyph-name="cacute" unicode="&#x107;" horiz-adv-x="645" 
d="M324 1169l196 285h262l-301 -285h-157zM279 -20q-180 0 -239.5 127.5t-8.5 406.5q49 280 157.5 405t300.5 125q80 0 158 -22l-49 -238l-119 131q-83 0 -136 -92t-91 -307q-38 -218 -16.5 -311.5t110.5 -93.5q68 0 127 30v-125q-84 -36 -194 -36z" />
    <glyph glyph-name="Ccircumflex" unicode="&#x108;" horiz-adv-x="753" 
d="M594 1595l-107 -143h-233l235 295h254l136 -295h-234zM82 676q65 358 197 520t360 162q71 0 174 -33l-53 -256l-146 145q-103 0 -168 -123.5t-116 -414.5q-53 -296 -30 -424.5t130 -128.5q71 0 143 41v-139q-106 -45 -221 -45q-207 0 -271 165.5t1 530.5z" />
    <glyph glyph-name="ccircumflex" unicode="&#x109;" horiz-adv-x="645" 
d="M473 1354l-115 -185h-206l200 285h275l102 -285h-209zM31 514q49 280 157.5 405t300.5 125q80 0 158 -22l-49 -238l-119 131q-83 0 -136 -92t-91 -307q-38 -218 -16.5 -311.5t110.5 -93.5q68 0 127 30v-125q-84 -36 -194 -36q-180 0 -239.5 127.5t-8.5 406.5z" />
    <glyph glyph-name="Cdotaccent" unicode="&#x10a;" horiz-adv-x="753" 
d="M453 1454l41 236h227l-43 -236h-225zM352 -20q-207 0 -271 165.5t1 530.5q65 358 197 520t360 162q71 0 174 -33l-53 -256l-146 145q-103 0 -168 -123.5t-116 -414.5q-53 -296 -30 -424.5t130 -128.5q71 0 143 41v-139q-106 -45 -221 -45z" />
    <glyph glyph-name="cdotaccent" unicode="&#x10b;" horiz-adv-x="645" 
d="M324 1169l41 236h225l-41 -236h-225zM279 -20q-180 0 -239.5 127.5t-8.5 406.5q49 280 157.5 405t300.5 125q80 0 158 -22l-49 -238l-119 131q-83 0 -136 -92t-91 -307q-38 -218 -16.5 -311.5t110.5 -93.5q68 0 127 30v-125q-84 -36 -194 -36z" />
    <glyph glyph-name="Ccaron" unicode="&#x10c;" horiz-adv-x="753" 
d="M434 1454l-145 293h237l64 -156l119 156h233l-248 -293h-260zM82 676q65 358 197 520t360 162q71 0 174 -33l-53 -256l-146 145q-103 0 -168 -123.5t-116 -414.5q-53 -296 -30 -424.5t130 -128.5q71 0 143 41v-139q-106 -45 -221 -45q-207 0 -271 165.5t1 530.5z" />
    <glyph glyph-name="ccaron" unicode="&#x10d;" horiz-adv-x="645" 
d="M319 1169l-116 285h207l51 -172l108 172h207l-215 -285h-242zM31 514q49 280 157.5 405t300.5 125q80 0 158 -22l-49 -238l-119 131q-83 0 -136 -92t-91 -307q-38 -218 -16.5 -311.5t110.5 -93.5q68 0 127 30v-125q-84 -36 -194 -36q-180 0 -239.5 127.5t-8.5 406.5z" />
    <glyph glyph-name="Dcaron" unicode="&#x10e;" horiz-adv-x="929" 
d="M432 1454l-145 293h237l64 -156l119 156h233l-248 -293h-260zM539 1337q227 0 302 -156.5t15 -504.5q-65 -355 -196 -515.5t-357 -160.5h-311l237 1337h310zM608 672q33 191 33.5 306t-32.5 168.5t-103 53.5h-72l-186 -1063h71q104 0 171 124.5t118 410.5z" />
    <glyph glyph-name="dcaron" unicode="&#x10f;" horiz-adv-x="1148" 
d="M645 1415h207l-248 -1415h-180l25 145q-107 -165 -259 -165q-132 0 -170 131t13 417q47 269 131.5 392.5t220.5 123.5q121 0 172 -122zM942 1397h264l-57 -328q-22 -121 -110 -189.5t-199 -68.5l22 131q52 0 92 33.5t50 89.5l10 55h-121zM287 117q126 0 196 397
q69 393 -59 393q-54 0 -95 -92t-75 -285q-37 -207 -29.5 -310t62.5 -103z" />
    <glyph glyph-name="Dcroat" unicode="&#x110;" horiz-adv-x="927" 
d="M539 1337q227 0 302 -156.5t15 -504.5q-65 -355 -196 -515.5t-357 -160.5h-311l110 623h-59l25 143h59l102 571h310zM608 672q33 191 33.5 306t-32.5 168.5t-103 53.5h-72l-76 -434h174l-26 -143h-172l-86 -486h71q104 0 171 124.5t118 410.5z" />
    <glyph glyph-name="dcroat" unicode="&#x111;" horiz-adv-x="800" 
d="M891 1225l-14 -88h-74l-199 -1137h-180l25 145q-107 -165 -259 -165q-132 0 -170 131t13 417q47 269 131.5 392.5t220.5 123.5q121 0 172 -122l39 215h-266l16 88h264l35 190h207l-33 -190h72zM287 117q126 0 196 397q69 393 -59 393q-54 0 -95 -92t-75 -285
q-37 -207 -29.5 -310t62.5 -103z" />
    <glyph glyph-name="Emacron" unicode="&#x112;" horiz-adv-x="794" 
d="M819 1606l-28 -152h-525l29 152h524zM795 1337l-25 -137h-336l-76 -430h308l-25 -137h-307l-86 -496h348l-23 -137h-581l237 1337h566z" />
    <glyph glyph-name="emacron" unicode="&#x113;" horiz-adv-x="768" 
d="M287 1325h481l-27 -156h-481zM457 1044q172 0 228.5 -119.5t10.5 -383.5q-7 -28 -14 -49h-434q-34 -206 -6.5 -293.5t129.5 -87.5q76 0 200 57l7 -123q-136 -65 -256 -65q-203 0 -272.5 128t-18.5 410q50 277 150.5 401.5t275.5 124.5zM268 606h217q30 167 19.5 238
t-66.5 71q-63 0 -101 -70t-69 -239z" />
    <glyph glyph-name="Ebreve" unicode="&#x114;" horiz-adv-x="794" 
d="M516 1454q-127 0 -194.5 75.5t-55.5 201.5h217q-3 -53 17.5 -84t58.5 -31q30 0 60 31.5t49 83.5h217q-32 -126 -132.5 -201.5t-236.5 -75.5zM795 1337l-25 -137h-336l-76 -430h308l-25 -137h-307l-86 -496h348l-23 -137h-581l237 1337h566z" />
    <glyph glyph-name="ebreve" unicode="&#x115;" horiz-adv-x="768" 
d="M647 1454h199q-32 -130 -129 -207.5t-228 -77.5q-121 0 -185 77t-52 208h201q-3 -57 17.5 -90t59.5 -33q31 0 62.5 33t54.5 90zM457 1044q172 0 228.5 -119.5t10.5 -383.5q-7 -28 -14 -49h-434q-34 -206 -6.5 -293.5t129.5 -87.5q76 0 200 57l7 -123q-136 -65 -256 -65
q-203 0 -272.5 128t-18.5 410q50 277 150.5 401.5t275.5 124.5zM268 606h217q30 167 19.5 238t-66.5 71q-63 0 -101 -70t-69 -239z" />
    <glyph glyph-name="Edotaccent" unicode="&#x116;" horiz-adv-x="794" 
d="M684 1690l-43 -236h-225l41 236h227zM770 1200h-336l-76 -430h308l-25 -137h-307l-86 -496h348l-23 -137h-581l237 1337h566z" />
    <glyph glyph-name="edotaccent" unicode="&#x117;" horiz-adv-x="768" 
d="M651 1405l-41 -236h-225l41 236h225zM457 1044q172 0 228.5 -119.5t10.5 -383.5q-7 -28 -14 -49h-434q-34 -206 -6.5 -293.5t129.5 -87.5q76 0 200 57l7 -123q-136 -65 -256 -65q-203 0 -272.5 128t-18.5 410q50 277 150.5 401.5t275.5 124.5zM268 606h217
q30 167 19.5 238t-66.5 71q-63 0 -101 -70t-69 -239z" />
    <glyph glyph-name="Eogonek" unicode="&#x118;" horiz-adv-x="794" 
d="M770 1200h-336l-76 -430h308l-25 -137h-307l-86 -496h348l-23 -137h-55q-170 -131 -190 -240q-5 -34 15.5 -56.5t62.5 -22.5q44 0 90 16l2 -125q-74 -29 -179 -29q-98 0 -143 41t-33 119q12 69 82.5 157.5t153.5 139.5h-387l237 1337h566z" />
    <glyph glyph-name="eogonek" unicode="&#x119;" horiz-adv-x="768" 
d="M457 1044q172 0 228.5 -119.5t10.5 -383.5q-7 -28 -14 -49h-434q-34 -206 -6.5 -293.5t129.5 -87.5q76 0 200 57l7 -123q-16 -8 -48 -20q-156 -125 -176 -230q-5 -34 15.5 -57t62.5 -23q41 0 90 17l2 -125q-74 -29 -178 -29q-98 0 -143 41t-33 119q9 52 54.5 119
t107.5 123h-10q-203 0 -272.5 128t-18.5 410q50 277 150.5 401.5t275.5 124.5zM268 606h217q30 167 19.5 238t-66.5 71q-63 0 -101 -70t-69 -239z" />
    <glyph glyph-name="Ecaron" unicode="&#x11a;" horiz-adv-x="794" 
d="M397 1454l-145 293h237l64 -156l119 156h233l-248 -293h-260zM795 1337l-25 -137h-336l-76 -430h308l-25 -137h-307l-86 -496h348l-23 -137h-581l237 1337h566z" />
    <glyph glyph-name="ecaron" unicode="&#x11b;" horiz-adv-x="768" 
d="M379 1169l-117 285h207l51 -172l109 172h207l-215 -285h-242zM457 1044q172 0 228.5 -119.5t10.5 -383.5q-7 -28 -14 -49h-434q-34 -206 -6.5 -293.5t129.5 -87.5q76 0 200 57l7 -123q-136 -65 -256 -65q-203 0 -272.5 128t-18.5 410q50 277 150.5 401.5t275.5 124.5z
M268 606h217q30 167 19.5 238t-66.5 71q-63 0 -101 -70t-69 -239z" />
    <glyph glyph-name="Gcircumflex" unicode="&#x11c;" horiz-adv-x="925" 
d="M657 1595l-106 -143h-234l236 295h254l135 -295h-233zM82 672q63 360 210 523t408 163q120 0 205 -35l-26 -141q-92 35 -193 35q-141 0 -224 -127t-136 -422q-52 -293 -19.5 -419t160.5 -126q23 0 63 4l82 467h-166l25 137h371l-121 -690q-122 -61 -287 -61
q-249 0 -333.5 165t-18.5 527z" />
    <glyph glyph-name="gcircumflex" unicode="&#x11d;" horiz-adv-x="811" 
d="M555 1354l-115 -185h-207l201 285h275l102 -285h-209zM578 885l24 139l182 6l-182 -1042q-35 -205 -143.5 -301.5t-302.5 -96.5q-131 0 -222 35l56 135q81 -34 157 -34q105 0 163 58t81 187l23 131q-97 -122 -209 -122q-141 0 -184 123.5t6 390.5q51 287 138.5 418.5
t225.5 131.5q69 0 115.5 -36.5t71.5 -122.5zM285 117q129 0 198 395t-55 395q-108 0 -178 -413q-34 -189 -26 -283t61 -94z" />
    <glyph glyph-name="Gbreve" unicode="&#x11e;" horiz-adv-x="925" 
d="M618 1454q-127 0 -194 75t-55 202h217q-3 -53 17.5 -84t58.5 -31q30 0 59.5 31.5t48.5 83.5h217q-32 -126 -132.5 -201.5t-236.5 -75.5zM82 672q63 360 210 523t408 163q120 0 205 -35l-26 -141q-92 35 -193 35q-141 0 -224 -127t-136 -422q-52 -293 -19.5 -419
t160.5 -126q23 0 63 4l82 467h-166l25 137h371l-121 -690q-122 -61 -287 -61q-249 0 -333.5 165t-18.5 527z" />
    <glyph glyph-name="gbreve" unicode="&#x11f;" horiz-adv-x="811" 
d="M510 1169q-121 0 -185.5 77t-52.5 208h201q-3 -57 17.5 -90t60.5 -33q31 0 62.5 33t54.5 90h198q-32 -130 -128.5 -207.5t-227.5 -77.5zM578 885l24 139l182 6l-182 -1042q-35 -205 -143.5 -301.5t-302.5 -96.5q-131 0 -222 35l56 135q81 -34 157 -34q105 0 163 58
t81 187l23 131q-97 -122 -209 -122q-141 0 -184 123.5t6 390.5q51 287 138.5 418.5t225.5 131.5q69 0 115.5 -36.5t71.5 -122.5zM285 117q129 0 198 395t-55 395q-108 0 -178 -413q-34 -189 -26 -283t61 -94z" />
    <glyph glyph-name="Gdotaccent" unicode="&#x120;" horiz-adv-x="925" 
d="M786 1690l-43 -236h-225l41 236h227zM686 1217q-141 0 -224 -127t-136 -422q-52 -293 -19.5 -419t160.5 -126q23 0 63 4l82 467h-166l25 137h371l-121 -690q-122 -61 -287 -61q-249 0 -333.5 165t-18.5 527q63 360 210 523t408 163q120 0 205 -35l-26 -141
q-92 35 -193 35z" />
    <glyph glyph-name="gdotaccent" unicode="&#x121;" horiz-adv-x="811" 
d="M672 1405l-41 -236h-225l40 236h226zM602 1024l182 6l-182 -1042q-35 -205 -143.5 -301.5t-302.5 -96.5q-131 0 -222 35l56 135q81 -34 157 -34q105 0 163 58t81 187l23 131q-97 -122 -209 -122q-141 0 -184 123.5t6 390.5q51 287 138.5 418.5t225.5 131.5
q69 0 115.5 -36.5t71.5 -122.5zM285 117q129 0 198 395t-55 395q-108 0 -178 -413q-34 -189 -26 -283t61 -94z" />
    <glyph glyph-name="uni0122" unicode="&#x122;" horiz-adv-x="925" 
d="M686 1217q-141 0 -224 -127t-136 -422q-52 -293 -19.5 -419t160.5 -126q23 0 63 4l82 467h-166l25 137h371l-121 -690q-122 -61 -287 -61q-249 0 -333.5 165t-18.5 527q63 360 210 523t408 163q120 0 205 -35l-26 -141q-92 35 -193 35zM268 -143h236l-27 -150l-24 -143
q-19 -108 -99 -170t-180 -62l21 119q46 0 82 29.5t45 79.5l8 49h-107z" />
    <glyph glyph-name="uni0123" unicode="&#x123;" horiz-adv-x="811" 
d="M651 1157h-260l31 166h-2l29 156q21 119 107 186.5t196 67.5l-23 -129q-51 0 -89.5 -32.5t-47.5 -86.5l-10 -55h116zM602 1024l182 6l-182 -1042q-35 -205 -143.5 -301.5t-302.5 -96.5q-131 0 -222 35l56 135q81 -34 157 -34q105 0 163 58t81 187l23 131
q-97 -122 -209 -122q-141 0 -184 123.5t6 390.5q51 287 138.5 418.5t225.5 131.5q69 0 115.5 -36.5t71.5 -122.5zM285 117q129 0 198 395t-55 395q-108 0 -178 -413q-34 -189 -26 -283t61 -94z" />
    <glyph glyph-name="Hcircumflex" unicode="&#x124;" horiz-adv-x="944" 
d="M668 1595l-107 -143h-233l235 295h254l135 -295h-233zM727 1337h229l-235 -1337h-229l112 643h-268l-113 -643h-231l237 1337h230l-99 -557h269z" />
    <glyph glyph-name="hcircumflex" unicode="&#x125;" horiz-adv-x="796" 
d="M381 1675l-107 -143h-233l235 295h254l136 -295h-234zM571 1044q116 0 152.5 -71.5t5.5 -239.5l-129 -733h-209l123 688q21 118 11.5 168.5t-58.5 50.5q-116 0 -166 -241l-117 -666h-209l248 1395l211 20l-88 -497q42 61 101.5 93.5t123.5 32.5z" />
    <glyph glyph-name="Hbar" unicode="&#x126;" horiz-adv-x="944" 
d="M1014 1075l-17 -96h-104l-172 -979h-229l112 643h-268l-113 -643h-231l174 979h-96l16 96h96l47 262h230l-47 -262h268l47 262h229l-47 -262h105zM629 780l35 199h-269l-35 -199h269z" />
    <glyph glyph-name="hbar" unicode="&#x127;" horiz-adv-x="796" 
d="M571 1044q116 0 152.5 -71.5t5.5 -239.5l-129 -733h-209l123 688q21 118 11.5 168.5t-58.5 50.5q-116 0 -166 -241l-117 -666h-209l203 1141h-82l15 90h84l28 164l211 20l-33 -184h258l-16 -90h-258l-39 -223q42 61 101.5 93.5t123.5 32.5z" />
    <glyph glyph-name="Itilde" unicode="&#x128;" horiz-adv-x="444" 
d="M39 1454q35 115 106.5 182.5t157.5 67.5q43 0 75 -17.5t55.5 -35t45.5 -17.5q23 0 46 19t36 51h170q-35 -114 -104.5 -182t-151.5 -68q-38 0 -69 17.5t-57.5 35t-53.5 17.5q-25 0 -48 -19t-36 -51h-172zM-8 0l237 1337h230l-236 -1337h-231z" />
    <glyph glyph-name="itilde" unicode="&#x129;" horiz-adv-x="391" 
d="M387 1169q-41 0 -86 32t-70 32q-45 0 -71 -64h-158q35 111 98.5 178.5t139.5 67.5q38 0 65.5 -15.5t48 -30.5t39.5 -15q44 0 68 59h160q-36 -110 -99 -177t-135 -67zM-25 0l183 1024h209l-181 -1024h-211z" />
    <glyph glyph-name="Imacron" unicode="&#x12a;" horiz-adv-x="444" 
d="M102 1454l29 152h524l-28 -152h-525zM-8 0l237 1337h230l-236 -1337h-231z" />
    <glyph glyph-name="imacron" unicode="&#x12b;" horiz-adv-x="391" 
d="M49 1169l27 156h481l-27 -156h-481zM-25 0l183 1024h209l-181 -1024h-211z" />
    <glyph glyph-name="Ibreve" unicode="&#x12c;" horiz-adv-x="444" 
d="M354 1454q-127 0 -194.5 75.5t-55.5 201.5h218q-3 -53 17 -84t58 -31q30 0 60 31.5t49 83.5h217q-32 -126 -132.5 -201.5t-236.5 -75.5zM-8 0l237 1337h230l-236 -1337h-231z" />
    <glyph glyph-name="ibreve" unicode="&#x12d;" horiz-adv-x="391" 
d="M279 1169q-121 0 -185.5 77t-52.5 208h201q-3 -57 17.5 -90t59.5 -33q31 0 62.5 33t54.5 90h199q-32 -130 -128.5 -207.5t-227.5 -77.5zM-25 0l183 1024h209l-181 -1024h-211z" />
    <glyph glyph-name="Iogonek" unicode="&#x12e;" horiz-adv-x="444" 
d="M176 0q-174 -134 -190 -240q-5 -34 15 -56.5t62 -22.5q45 0 91 16l2 -125q-74 -29 -181 -29q-98 0 -142.5 41t-31.5 119q10 68 81 157t155 140h-45l237 1337h230l-236 -1337h-47z" />
    <glyph glyph-name="iogonek" unicode="&#x12f;" horiz-adv-x="391" 
d="M215 1405h225l-41 -236h-225zM-25 0l183 1024h209l-181 -1024h-47q-174 -134 -190 -240q-5 -34 15.5 -56.5t62.5 -22.5q44 0 90 16l2 -125q-74 -29 -180 -29q-98 0 -143 41t-32 119q10 68 81 157t155 140h-25z" />
    <glyph glyph-name="Idotaccent" unicode="&#x130;" horiz-adv-x="444" 
d="M254 1454l41 236h227l-43 -236h-225zM-8 0l237 1337h230l-236 -1337h-231z" />
    <glyph glyph-name="dotlessi" unicode="&#x131;" horiz-adv-x="391" 
d="M-25 0l183 1024h209l-181 -1024h-211z" />
    <glyph glyph-name="Jcircumflex" unicode="&#x134;" horiz-adv-x="458" 
d="M408 1595l-107 -143h-233l235 295h254l135 -295h-233zM0 -31l244 1368h229l-242 -1372q-35 -199 -128 -287t-267 -88q-28 0 -117 13l37 137q54 -12 70 -12q72 0 111.5 54.5t62.5 186.5z" />
    <glyph glyph-name="jcircumflex" unicode="&#x135;" horiz-adv-x="389" 
d="M473 1454l102 -285h-208l-48 185l-114 -185h-209l203 285h274zM-45 -106l203 1130h209l-201 -1130q-28 -161 -103.5 -233.5t-193.5 -72.5q-103 0 -199 41l56 138q68 -21 98 -21q107 0 131 148z" />
    <glyph glyph-name="uni0136" unicode="&#x136;" horiz-adv-x="911" 
d="M977 1337l-420 -540l205 -797h-238l-141 573l-76 -100l-84 -473h-231l237 1337h230l-99 -553l414 553h203zM223 -143h236l-27 -150l-24 -143q-19 -108 -99 -170t-180 -62l21 119q46 0 81.5 29.5t44.5 79.5l9 49h-107z" />
    <glyph glyph-name="uni0137" unicode="&#x137;" horiz-adv-x="782" 
d="M803 1024l-305 -389l135 -635h-211l-86 430l-98 -125l-54 -305h-209l248 1397l211 20l-149 -846l333 453h185zM158 -143h235l-26 -150l-25 -143q-19 -108 -99 -170t-180 -62l21 119q46 0 82 29.5t45 79.5l8 49h-106z" />
    <glyph glyph-name="kgreenlandic" unicode="&#x138;" horiz-adv-x="784" 
d="M807 1024l-309 -391l135 -633h-215l-82 428l-98 -123l-54 -305h-209l183 1026l211 21l-80 -459l315 436h203z" />
    <glyph glyph-name="Lacute" unicode="&#x139;" horiz-adv-x="747" 
d="M739 1747l-307 -293h-196l229 293h274zM459 1337l-211 -1200h356l-24 -137h-588l237 1337h230z" />
    <glyph glyph-name="lacute" unicode="&#x13a;" horiz-adv-x="389" 
d="M217 1534l229 293h275l-307 -293h-197zM-25 0l248 1397l211 20l-250 -1417h-209z" />
    <glyph glyph-name="uni013B" unicode="&#x13b;" horiz-adv-x="747" 
d="M248 137h356l-24 -137h-588l237 1337h230zM143 -143h236l-27 -150l-24 -143q-19 -108 -99 -170t-180 -62l21 119q46 0 82 29.5t45 79.5l8 49h-107z" />
    <glyph glyph-name="uni013C" unicode="&#x13c;" horiz-adv-x="389" 
d="M434 1417l-250 -1417h-209l248 1397zM-41 -143h238l-27 -150l-25 -143q-19 -108 -98.5 -170t-179.5 -62l20 119q46 0 82 29.5t45 79.5l9 49h-109z" />
    <glyph glyph-name="Lcaron" unicode="&#x13d;" horiz-adv-x="813" 
d="M459 1337l-211 -1200h356l-24 -137h-588l237 1337h230zM600 1337h264l-57 -325q-22 -121 -110 -189.5t-199 -68.5l22 131q52 0 92 33t50 88l10 55h-121z" />
    <glyph glyph-name="lcaron" unicode="&#x13e;" horiz-adv-x="757" 
d="M-25 0l248 1397l211 20l-250 -1417h-209zM547 1337h264l-57 -325q-22 -121 -110.5 -189.5t-199.5 -68.5l23 131q52 0 91.5 33t49.5 88l10 55h-120z" />
    <glyph glyph-name="Lslash" unicode="&#x141;" horiz-adv-x="747" 
d="M248 137h356l-24 -137h-588l80 444l-103 -71l23 135l102 74l135 755h230l-109 -612l201 129l-23 -137l-200 -127z" />
    <glyph glyph-name="lslash" unicode="&#x142;" horiz-adv-x="391" 
d="M444 901l-22 -141l-115 -70l-121 -690h-209l101 569l-113 -63l25 143l114 62l121 686l211 20l-102 -586z" />
    <glyph glyph-name="Nacute" unicode="&#x143;" horiz-adv-x="944" 
d="M1010 1747l-308 -293h-196l229 293h275zM662 469l153 868h141l-235 -1337h-168l-252 940l-166 -940h-143l237 1337h209z" />
    <glyph glyph-name="nacute" unicode="&#x144;" horiz-adv-x="796" 
d="M858 1454l-301 -285h-158l197 285h262zM571 1044q116 0 152.5 -71.5t5.5 -239.5l-129 -733h-209l123 688q21 118 11.5 168.5t-58.5 50.5q-61 0 -103 -66t-63 -179l-117 -662h-209l183 1024l211 20l-23 -126q42 61 101 93.5t124 32.5z" />
    <glyph glyph-name="uni0145" unicode="&#x145;" horiz-adv-x="944" 
d="M815 1337h141l-235 -1337h-168l-252 940l-166 -940h-143l237 1337h209l224 -868zM240 -143h235l-26 -150l-25 -143q-19 -108 -99 -170t-180 -62l21 119q46 0 82 29.5t45 79.5l8 49h-106z" />
    <glyph glyph-name="uni0146" unicode="&#x146;" horiz-adv-x="796" 
d="M571 1044q116 0 152.5 -71.5t5.5 -239.5l-129 -733h-209l123 688q21 118 11.5 168.5t-58.5 50.5q-61 0 -103 -66t-63 -179l-117 -662h-209l183 1024l211 20l-23 -126q42 61 101 93.5t124 32.5zM166 -143h235l-26 -150l-25 -143q-19 -108 -98.5 -170t-179.5 -62l20 119
q46 0 82 29.5t45 79.5l8 49h-106z" />
    <glyph glyph-name="Ncaron" unicode="&#x147;" horiz-adv-x="944" 
d="M506 1454l-146 293h238l64 -156l118 156h234l-248 -293h-260zM662 469l153 868h141l-235 -1337h-168l-252 940l-166 -940h-143l237 1337h209z" />
    <glyph glyph-name="ncaron" unicode="&#x148;" horiz-adv-x="796" 
d="M395 1169l-116 285h206l52 -172l108 172h207l-215 -285h-242zM571 1044q116 0 152.5 -71.5t5.5 -239.5l-129 -733h-209l123 688q21 118 11.5 168.5t-58.5 50.5q-61 0 -103 -66t-63 -179l-117 -662h-209l183 1024l211 20l-23 -126q42 61 101 93.5t124 32.5z" />
    <glyph glyph-name="napostrophe" unicode="&#x149;" horiz-adv-x="1101" 
d="M403 1182q-22 -121 -110 -189.5t-199 -68.5l23 131q52 0 91.5 33.5t49.5 89.5l10 55h-121l50 276h264zM877 1044q116 0 152 -71t5 -240l-129 -733h-209l123 688q21 118 11.5 168.5t-58.5 50.5q-61 0 -103 -66t-63 -179l-117 -662h-206l180 1024l211 20l-23 -126
q42 61 101.5 93.5t124.5 32.5z" />
    <glyph glyph-name="Eng" unicode="&#x14a;" horiz-adv-x="952" 
d="M823 1337h142l-256 -1458q-28 -153 -88.5 -221t-151.5 -68q-102 0 -184 39l53 127q53 -18 96 -18q106 0 133 145l21 117h-15l-272 942l-166 -942h-143l237 1337h207l238 -850z" />
    <glyph glyph-name="eng" unicode="&#x14b;" horiz-adv-x="813" 
d="M588 1044q116 0 152 -71t5 -240l-145 -825q-30 -168 -106.5 -243t-194.5 -75q-110 0 -195 39l56 138q55 -19 96 -19q109 0 133 146l137 784q15 83 16 129.5t-13.5 69t-47.5 22.5q-69 0 -114.5 -67.5t-65.5 -180.5h-2l-115 -651h-209l183 1024l211 20l-23 -129
q44 62 108 95.5t134 33.5z" />
    <glyph glyph-name="Omacron" unicode="&#x14c;" horiz-adv-x="935" 
d="M354 1454l29 152h524l-28 -152h-525zM354 -20q-207 0 -271.5 164t-0.5 528q64 361 186 523.5t328 162.5q203 0 266 -162.5t0 -523.5q-63 -363 -184 -527.5t-324 -164.5zM379 123q76 0 130 126.5t105 422.5q54 293 44.5 419t-87.5 126q-79 0 -134.5 -125.5t-106.5 -419.5
q-53 -295 -42.5 -422t91.5 -127z" />
    <glyph glyph-name="omacron" unicode="&#x14d;" horiz-adv-x="782" 
d="M250 1169l26 156h482l-27 -156h-481zM274 -20q-177 0 -235.5 126.5t-7.5 405.5q50 280 152 406t280 126q175 0 233 -126.5t11 -405.5q-51 -280 -153.5 -406t-279.5 -126zM297 111q62 0 105 93.5t81 311.5q38 215 28 307t-73 92q-62 0 -105 -92t-81 -307
q-38 -218 -27.5 -311.5t72.5 -93.5z" />
    <glyph glyph-name="Obreve" unicode="&#x14e;" horiz-adv-x="935" 
d="M606 1454q-127 0 -194.5 75.5t-55.5 201.5h217q-3 -53 17.5 -84t58.5 -31q30 0 60 31.5t49 83.5h217q-32 -126 -132.5 -201.5t-236.5 -75.5zM354 -20q-207 0 -271.5 164t-0.5 528q64 361 186 523.5t328 162.5q203 0 266 -162.5t0 -523.5q-63 -363 -184 -527.5
t-324 -164.5zM379 123q76 0 130 126.5t105 422.5q54 293 44.5 419t-87.5 126q-79 0 -134.5 -125.5t-106.5 -419.5q-53 -295 -42.5 -422t91.5 -127z" />
    <glyph glyph-name="obreve" unicode="&#x14f;" horiz-adv-x="782" 
d="M477 1169q-121 0 -185 77t-52 208h200q-3 -57 17.5 -90t60.5 -33q31 0 62.5 33t54.5 90h199q-32 -130 -129 -207.5t-228 -77.5zM274 -20q-177 0 -235.5 126.5t-7.5 405.5q50 280 152 406t280 126q175 0 233 -126.5t11 -405.5q-51 -280 -153.5 -406t-279.5 -126zM297 111
q62 0 105 93.5t81 311.5q38 215 28 307t-73 92q-62 0 -105 -92t-81 -307q-38 -218 -27.5 -311.5t72.5 -93.5z" />
    <glyph glyph-name="Ohungarumlaut" unicode="&#x150;" horiz-adv-x="935" 
d="M334 1450l201 295h237l-287 -295h-151zM637 1450l201 295h237l-289 -295h-149zM354 -20q-207 0 -271.5 164t-0.5 528q64 361 186 523.5t328 162.5q203 0 266 -162.5t0 -523.5q-63 -363 -184 -527.5t-324 -164.5zM379 123q76 0 130 126.5t105 422.5q54 293 44.5 419
t-87.5 126q-79 0 -134.5 -125.5t-106.5 -419.5q-53 -295 -42.5 -422t91.5 -127z" />
    <glyph glyph-name="ohungarumlaut" unicode="&#x151;" horiz-adv-x="782" 
d="M217 1169l178 285h248l-268 -285h-158zM539 1169l178 285h248l-267 -285h-159zM274 -20q-177 0 -235.5 126.5t-7.5 405.5q50 280 152 406t280 126q175 0 233 -126.5t11 -405.5q-51 -280 -153.5 -406t-279.5 -126zM297 111q62 0 105 93.5t81 311.5q38 215 28 307t-73 92
q-62 0 -105 -92t-81 -307q-38 -218 -27.5 -311.5t72.5 -93.5z" />
    <glyph glyph-name="OE" unicode="&#x152;" horiz-adv-x="1282" 
d="M1255 1200h-335l-76 -430h307l-23 -137h-309l-86 -496h350l-24 -137h-537q-61 -20 -141 -20q-227 0 -296 160t-3 532q68 371 192 528.5t351 157.5q81 0 139 -21h516zM326 672q-37 -208 -40.5 -327.5t26 -173.5t96.5 -54q46 0 96 18l188 1071q-41 17 -92 17
q-98 0 -159 -122.5t-115 -428.5z" />
    <glyph glyph-name="oe" unicode="&#x153;" horiz-adv-x="1220" 
d="M915 1044q165 0 222 -119t12 -384l-12 -49h-430q-34 -207 -7.5 -295t127.5 -88q77 0 201 57l8 -121q-136 -65 -258 -65q-183 0 -252 96q-99 -96 -252 -96q-177 0 -235.5 126.5t-7.5 405.5q50 280 152 406t280 126q147 0 211 -88q91 88 241 88zM725 606h217
q32 173 22.5 247.5t-67.5 74.5q-63 0 -101 -72.5t-71 -249.5zM297 111q62 0 105 93.5t81 311.5q38 215 28 307t-73 92q-62 0 -105 -92t-81 -307q-38 -218 -27.5 -311.5t72.5 -93.5z" />
    <glyph glyph-name="Racute" unicode="&#x154;" horiz-adv-x="915" 
d="M969 1747l-307 -293h-197l229 293h275zM551 1337q200 0 275.5 -96.5t37.5 -308.5q-26 -148 -81 -240.5t-144 -138.5l125 -553h-236l-106 504h-19h-92l-88 -504h-231l237 1337h322zM434 1200l-98 -559h78q83 0 129.5 66t74.5 223q25 146 1.5 208t-107.5 62h-78z" />
    <glyph glyph-name="racute" unicode="&#x155;" horiz-adv-x="604" 
d="M762 1454l-301 -285h-158l197 285h262zM334 844q121 200 250 200q34 0 55 -8l-53 -225q-52 20 -86 20q-79 0 -136 -76t-83 -214l-97 -541h-209l183 1024h209z" />
    <glyph glyph-name="uni0156" unicode="&#x156;" horiz-adv-x="915" 
d="M864 932q-26 -148 -81 -240.5t-144 -138.5l125 -553h-236l-106 504h-19h-92l-88 -504h-231l237 1337h322q200 0 275.5 -96.5t37.5 -308.5zM434 1200l-98 -559h78q83 0 129.5 66t74.5 223q25 146 1.5 208t-107.5 62h-78zM225 -143h236l-27 -150l-24 -143
q-19 -108 -99 -170t-180 -62l21 119q46 0 82 29.5t45 79.5l8 49h-107z" />
    <glyph glyph-name="Rcaron" unicode="&#x158;" horiz-adv-x="915" 
d="M463 1454l-146 293h238l63 -156l119 156h234l-248 -293h-260zM551 1337q200 0 275.5 -96.5t37.5 -308.5q-26 -148 -81 -240.5t-144 -138.5l125 -553h-236l-106 504h-19h-92l-88 -504h-231l237 1337h322zM434 1200l-98 -559h78q83 0 129.5 66t74.5 223q25 146 1.5 208
t-107.5 62h-78z" />
    <glyph glyph-name="rcaron" unicode="&#x159;" horiz-adv-x="604" 
d="M299 1169l-117 285h207l51 -172l109 172h207l-215 -285h-242zM334 844q121 200 250 200q34 0 55 -8l-53 -225q-52 20 -86 20q-79 0 -136 -76t-83 -214l-97 -541h-209l183 1024h209z" />
    <glyph glyph-name="Sacute" unicode="&#x15a;" horiz-adv-x="749" 
d="M412 1454l229 293h274l-307 -293h-196zM141 -20q-107 0 -196 47l59 149q82 -53 174 -53q93 0 155.5 64t80.5 165q7 42 0.5 76t-26 60t-41.5 45.5t-54 43.5q-7 4 -10 7q-21 17 -37 31t-35.5 33t-33 37t-27 40.5t-21.5 46.5t-13 51.5t-4 59.5t7 67q29 176 156 292t292 116
q123 0 205 -25l-51 -143q-59 27 -154 24q-76 0 -130 -58t-68 -142q-4 -38 -6 -65.5t7.5 -53.5t19 -44t28 -36t34 -30t37.5 -27q26 -16 44.5 -30t41 -33.5t36 -37.5t28 -43t19 -50.5t7.5 -59.5t-6 -70q-37 -204 -180 -329t-338 -125z" />
    <glyph glyph-name="sacute" unicode="&#x15b;" horiz-adv-x="645" 
d="M301 1169l197 285h262l-301 -285h-158zM121 -20q-105 0 -178 36l55 136q66 -41 154 -41q69 0 115 47t59 118q2 13 2 25t-0.5 21t-5 19t-7.5 16.5t-11.5 15.5t-12 13t-15.5 13l-16 12t-18.5 12.5t-18.5 12.5q-52 35 -84 72t-49.5 98t-3.5 137q23 133 128 217t241 84
q89 0 159 -22l-45 -129q-52 25 -125 22q-53 0 -91.5 -40.5t-49.5 -98.5q-3 -17 -3.5 -32t2.5 -28.5t5.5 -23t11 -20.5t12.5 -16.5t16.5 -15.5t16.5 -13t19.5 -13.5t19.5 -13.5q20 -14 34 -24.5t31.5 -26.5t28.5 -31.5t21.5 -36.5t15 -43.5t4.5 -51.5t-6 -62
q-28 -160 -138 -252t-273 -92z" />
    <glyph glyph-name="Scircumflex" unicode="&#x15c;" horiz-adv-x="749" 
d="M569 1595l-106 -143h-234l236 295h254l135 -295h-233zM119 950q29 176 156 292t292 116q123 0 205 -25l-51 -143q-59 27 -154 24q-76 0 -130 -58t-68 -142q-4 -38 -6 -65.5t7.5 -53.5t19 -44t28 -36t34 -30t37.5 -27q26 -16 44.5 -30t41 -33.5t36 -37.5t28 -43t19 -50.5
t7.5 -59.5t-6 -70q-37 -204 -180 -329t-338 -125q-107 0 -196 47l59 149q82 -53 174 -53q93 0 155.5 64t80.5 165q7 42 0.5 76t-26 60t-41.5 45.5t-54 43.5q-7 4 -10 7q-21 17 -37 31t-35.5 33t-33 37t-27 40.5t-21.5 46.5t-13 51.5t-4 59.5t7 67z" />
    <glyph glyph-name="scircumflex" unicode="&#x15d;" horiz-adv-x="645" 
d="M451 1354l-115 -185h-207l201 285h274l103 -285h-209zM86 743q23 133 128 217t241 84q89 0 159 -22l-45 -129q-52 25 -125 22q-53 0 -91.5 -40.5t-49.5 -98.5q-3 -17 -3.5 -32t2.5 -28.5t5.5 -23t11 -20.5t12.5 -16.5t16.5 -15.5t16.5 -13t19.5 -13.5t19.5 -13.5
q20 -14 34 -24.5t31.5 -26.5t28.5 -31.5t21.5 -36.5t15 -43.5t4.5 -51.5t-6 -62q-28 -160 -138 -252t-273 -92q-105 0 -178 36l55 136q66 -41 154 -41q69 0 115 47t59 118q2 13 2 25t-0.5 21t-5 19t-7.5 16.5t-11.5 15.5t-12 13t-15.5 13l-16 12t-18.5 12.5t-18.5 12.5
q-52 35 -84 72t-49.5 98t-3.5 137z" />
    <glyph glyph-name="Scedilla" unicode="&#x15e;" horiz-adv-x="749" 
d="M567 1214q-76 0 -130 -58t-68 -142q-4 -38 -6 -65.5t7.5 -53.5t19 -44t28 -36t34 -30t37.5 -27q26 -16 44.5 -30t41 -33.5t36 -37.5t28 -43t19 -50.5t7.5 -59.5t-6 -70q-31 -171 -138.5 -289t-262.5 -153l-47 -92q61 -7 101 -22t57.5 -35.5t24 -46.5t-0.5 -54
q-11 -59 -50.5 -103t-101 -69t-132 -37t-154.5 -14v102q59 4 98 10.5t75 19t55.5 34t25.5 53.5q3 19 -7.5 33.5t-52 29.5t-116.5 23l92 156q-97 3 -180 47l59 149q82 -53 174 -53q93 0 155.5 64t80.5 165q7 42 0.5 76t-26 60t-41.5 45.5t-54 43.5q-7 4 -10 7q-21 17 -37 31
t-35.5 33t-33 37t-27 40.5t-21.5 46.5t-13 51.5t-4 59.5t7 67q29 176 156 292t292 116q123 0 205 -25l-51 -143q-59 27 -154 24z" />
    <glyph glyph-name="scedilla" unicode="&#x15f;" horiz-adv-x="645" 
d="M444 915q-53 0 -91.5 -40.5t-49.5 -98.5q-3 -17 -3.5 -32t2.5 -28.5t5.5 -23t11 -20.5t12.5 -16.5t16.5 -15.5t16.5 -13t19.5 -13.5t19.5 -13.5q20 -14 34 -24.5t31.5 -26.5t28.5 -31.5t21.5 -36.5t15 -43.5t4.5 -51.5t-6 -62q-20 -115 -84.5 -197t-162.5 -119h16
l-55 -108q61 -7 101 -22t57.5 -35.5t24 -46.5t-0.5 -54q-11 -59 -50.5 -103t-101 -69t-132 -37t-154.5 -14v102q59 4 98 10.5t75 19t55.5 34t25.5 53.5q3 19 -7.5 33.5t-52 29.5t-116.5 23l92 158q-12 -2 -39 -2q-105 0 -178 36l55 136q66 -41 154 -41q69 0 115 47t59 118
q2 13 2 25t-0.5 21t-5 19t-7.5 16.5t-11.5 15.5t-12 13t-15.5 13l-16 12t-18.5 12.5t-18.5 12.5q-52 35 -84 72t-49.5 98t-3.5 137q23 133 128 217t241 84q89 0 159 -22l-45 -129q-52 25 -125 22z" />
    <glyph glyph-name="Scaron" unicode="&#x160;" horiz-adv-x="749" 
d="M412 1454l-146 293h238l63 -156l119 156h234l-248 -293h-260zM119 950q29 176 156 292t292 116q123 0 205 -25l-51 -143q-59 27 -154 24q-76 0 -130 -58t-68 -142q-4 -38 -6 -65.5t7.5 -53.5t19 -44t28 -36t34 -30t37.5 -27q26 -16 44.5 -30t41 -33.5t36 -37.5t28 -43
t19 -50.5t7.5 -59.5t-6 -70q-37 -204 -180 -329t-338 -125q-107 0 -196 47l59 149q82 -53 174 -53q93 0 155.5 64t80.5 165q7 42 0.5 76t-26 60t-41.5 45.5t-54 43.5q-7 4 -10 7q-21 17 -37 31t-35.5 33t-33 37t-27 40.5t-21.5 46.5t-13 51.5t-4 59.5t7 67z" />
    <glyph glyph-name="scaron" unicode="&#x161;" horiz-adv-x="645" 
d="M297 1169l-117 285h207l51 -172l109 172h207l-215 -285h-242zM86 743q23 133 128 217t241 84q89 0 159 -22l-45 -129q-52 25 -125 22q-53 0 -91.5 -40.5t-49.5 -98.5q-3 -17 -3.5 -32t2.5 -28.5t5.5 -23t11 -20.5t12.5 -16.5t16.5 -15.5t16.5 -13t19.5 -13.5t19.5 -13.5
q20 -14 34 -24.5t31.5 -26.5t28.5 -31.5t21.5 -36.5t15 -43.5t4.5 -51.5t-6 -62q-28 -160 -138 -252t-273 -92q-105 0 -178 36l55 136q66 -41 154 -41q69 0 115 47t59 118q2 13 2 25t-0.5 21t-5 19t-7.5 16.5t-11.5 15.5t-12 13t-15.5 13l-16 12t-18.5 12.5t-18.5 12.5
q-52 35 -84 72t-49.5 98t-3.5 137z" />
    <glyph glyph-name="uni0162" unicode="&#x162;" horiz-adv-x="811" 
d="M406 0h-50l-51 -100q61 -7 101 -22t57.5 -35.5t24 -46.5t-0.5 -54q-11 -59 -50.5 -103t-100.5 -69t-131.5 -37t-153.5 -14l-2 102q59 4 98 10.5t75 19t55.5 34t25.5 53.5q3 19 -7.5 33.5t-52 29.5t-116.5 23l104 176h-55l213 1200h-262l27 137h747l-22 -137h-261z" />
    <glyph glyph-name="uni0163" unicode="&#x163;" horiz-adv-x="526" 
d="M358 881l-104 -594q-15 -90 1 -128t71 -38q39 0 75 8l-22 -125q-85 -24 -150 -24l-41 -80q117 -13 155 -53t28 -105q-11 -59 -51 -103t-101 -69t-132 -37t-155 -14v102q59 4 98 10.5t75 19t55.5 34t25.5 53.5q3 19 -7.5 33.5t-52 29.5t-116.5 23l105 176q-58 29 -75 99.5
t5 191.5l105 590h-95l25 143h94l31 172l219 61l-41 -233h170l-27 -143h-168z" />
    <glyph glyph-name="Tcaron" unicode="&#x164;" horiz-adv-x="811" 
d="M420 1454l-146 293h238l63 -156l119 156h234l-248 -293h-260zM901 1337l-22 -137h-261l-212 -1200h-230l213 1200h-262l27 137h747z" />
    <glyph glyph-name="tcaron" unicode="&#x165;" horiz-adv-x="641" 
d="M530 1587h254l-133 -469h-153zM424 1257l-41 -233h170l-27 -143h-168l-104 -594q-15 -90 1 -128t71 -38q39 0 75 8l-22 -125q-85 -24 -150 -24q-128 0 -170.5 72t-13.5 239l105 590h-95l25 143h94l31 172z" />
    <glyph glyph-name="Tbar" unicode="&#x166;" horiz-adv-x="811" 
d="M879 1200h-261l-67 -387h178l-14 -90h-180l-129 -723h-230l129 723h-182l16 90h183l67 387h-262l27 137h747z" />
    <glyph glyph-name="tbar" unicode="&#x167;" horiz-adv-x="526" 
d="M526 881h-168l-45 -250h181l-21 -123h-180l-39 -221q-15 -90 1 -128t71 -38q39 0 75 8l-22 -125q-85 -24 -150 -24q-128 0 -170.5 72t-13.5 239l39 217h-92l24 123h88l46 250h-95l25 143h94l31 172l219 61l-41 -233h170z" />
    <glyph glyph-name="Utilde" unicode="&#x168;" horiz-adv-x="905" 
d="M299 1454q35 115 106.5 182.5t157.5 67.5q43 0 75 -17.5t55.5 -35t45.5 -17.5q23 0 46 19t36 51h170q-35 -114 -104.5 -182t-151.5 -68q-38 0 -69 17.5t-57.5 35t-53.5 17.5q-25 0 -48 -19t-36 -51h-172zM367 -20q-188 0 -270.5 109t-47.5 304l168 944h229l-167 -944
q-11 -53 -9 -101.5t14.5 -86t44.5 -60t81 -22.5q60 0 105 38.5t70.5 96t39.5 135.5l166 944h143l-168 -948q-35 -192 -135.5 -300.5t-263.5 -108.5z" />
    <glyph glyph-name="utilde" unicode="&#x169;" horiz-adv-x="796" 
d="M428 1233q-46 0 -72 -64h-157q35 111 98 178.5t139 67.5q38 0 66 -15.5t48.5 -30.5t39.5 -15q43 0 67 59h160q-36 -110 -98.5 -177t-134.5 -67q-41 0 -86 32t-70 32zM444 354l119 670h209l-180 -1024l-213 -20l22 126q-89 -126 -225 -126q-116 0 -153 72.5t-5 240.5
l129 731h209l-120 -688q-15 -81 -16 -127.5t13.5 -69t47.5 -22.5q59 0 101 64t62 173z" />
    <glyph glyph-name="Umacron" unicode="&#x16a;" horiz-adv-x="905" 
d="M362 1454l29 152h524l-28 -152h-525zM367 -20q-188 0 -270.5 109t-47.5 304l168 944h229l-167 -944q-11 -53 -9 -101.5t14.5 -86t44.5 -60t81 -22.5q60 0 105 38.5t70.5 96t39.5 135.5l166 944h143l-168 -948q-35 -192 -135.5 -300.5t-263.5 -108.5z" />
    <glyph glyph-name="umacron" unicode="&#x16b;" horiz-adv-x="796" 
d="M756 1325l-27 -156h-481l26 156h482zM563 1024h209l-180 -1024l-213 -20l22 126q-89 -126 -225 -126q-116 0 -153 72.5t-5 240.5l129 731h209l-120 -688q-15 -81 -16 -127.5t13.5 -69t47.5 -22.5q59 0 101 64t62 173z" />
    <glyph glyph-name="Ubreve" unicode="&#x16c;" horiz-adv-x="905" 
d="M612 1454q-127 0 -194.5 75.5t-55.5 201.5h218q-3 -53 17 -84t58 -31q30 0 60 31.5t49 83.5h217q-32 -126 -132.5 -201.5t-236.5 -75.5zM367 -20q-188 0 -270.5 109t-47.5 304l168 944h229l-167 -944q-11 -53 -9 -101.5t14.5 -86t44.5 -60t81 -22.5q60 0 105 38.5
t70.5 96t39.5 135.5l166 944h143l-168 -948q-35 -192 -135.5 -300.5t-263.5 -108.5z" />
    <glyph glyph-name="ubreve" unicode="&#x16d;" horiz-adv-x="796" 
d="M475 1169q-121 0 -185 77t-52 208h200q-3 -57 17.5 -90t60.5 -33q31 0 62.5 33t54.5 90h198q-32 -130 -128.5 -207.5t-227.5 -77.5zM444 354l119 670h209l-180 -1024l-213 -20l22 126q-89 -126 -225 -126q-116 0 -153 72.5t-5 240.5l129 731h209l-120 -688
q-15 -81 -16 -127.5t13.5 -69t47.5 -22.5q59 0 101 64t62 173z" />
    <glyph glyph-name="Uring" unicode="&#x16e;" horiz-adv-x="905" 
d="M627 1456q-73 0 -117 50.5t-31 125.5q13 74 74.5 125t134.5 51t118 -51t32 -125q-12 -75 -74.5 -125.5t-136.5 -50.5zM645 1559q31 0 56.5 21t29.5 52q5 30 -13 52t-48 22q-29 0 -54 -22.5t-30 -51.5q-6 -31 11 -52t48 -21zM367 -20q-188 0 -270.5 109t-47.5 304l168 944
h229l-167 -944q-11 -53 -9 -101.5t14.5 -86t44.5 -60t81 -22.5q60 0 105 38.5t70.5 96t39.5 135.5l166 944h143l-168 -948q-35 -192 -135.5 -300.5t-263.5 -108.5z" />
    <glyph glyph-name="uring" unicode="&#x16f;" horiz-adv-x="796" 
d="M487 1169q-103 0 -158 62.5t-38 159.5q17 95 94 157t178 62q103 0 159.5 -62t37.5 -157q-17 -97 -93.5 -159.5t-179.5 -62.5zM432 1391q-7 -41 14.5 -69t61.5 -28q41 0 72.5 28t37.5 69q8 40 -14 67t-63 27q-39 0 -70 -27t-39 -67zM563 1024h209l-180 -1024l-213 -20
l22 126q-89 -126 -225 -126q-116 0 -153 72.5t-5 240.5l129 731h209l-120 -688q-15 -81 -16 -127.5t13.5 -69t47.5 -22.5q59 0 101 64t62 173z" />
    <glyph glyph-name="Uhungarumlaut" unicode="&#x170;" horiz-adv-x="905" 
d="M342 1450l201 295h237l-286 -295h-152zM645 1450l201 295h237l-288 -295h-150zM367 -20q-188 0 -270.5 109t-47.5 304l168 944h229l-167 -944q-11 -53 -9 -101.5t14.5 -86t44.5 -60t81 -22.5q60 0 105 38.5t70.5 96t39.5 135.5l166 944h143l-168 -948
q-35 -192 -135.5 -300.5t-263.5 -108.5z" />
    <glyph glyph-name="uhungarumlaut" unicode="&#x171;" horiz-adv-x="796" 
d="M641 1454l-268 -285h-158l178 285h248zM696 1169h-159l178 285h248zM444 354l119 670h209l-180 -1024l-213 -20l22 126q-89 -126 -225 -126q-116 0 -153 72.5t-5 240.5l129 731h209l-120 -688q-15 -81 -16 -127.5t13.5 -69t47.5 -22.5q59 0 101 64t62 173z" />
    <glyph glyph-name="Uogonek" unicode="&#x172;" horiz-adv-x="905" 
d="M791 1337h143l-168 -948q-57 -307 -260 -385q-91 -91 -103 -164q-5 -34 15.5 -57t62.5 -23q41 0 90 17l2 -125q-74 -29 -178 -29q-98 0 -143 41t-33 119q7 41 39 94.5t76 102.5q-171 10 -245 118t-40 295l168 944h229l-167 -944q-11 -53 -9 -101.5t14.5 -86t44.5 -60
t81 -22.5q60 0 105 38.5t70.5 96t39.5 135.5z" />
    <glyph glyph-name="uogonek" unicode="&#x173;" horiz-adv-x="796" 
d="M561 -2q-166 -130 -186 -238q-5 -34 15.5 -56.5t62.5 -22.5q44 0 90 16l2 -125q-74 -29 -178 -29q-98 0 -143.5 41t-33.5 119q12 64 72 144t135 135l-18 -2l22 126q-89 -126 -225 -126q-116 0 -153 72.5t-5 240.5l129 731h209l-120 -688q-15 -81 -16 -127.5t13.5 -69
t47.5 -22.5q59 0 101 64t62 173l119 670h209l-180 -1024z" />
    <glyph glyph-name="Wcircumflex" unicode="&#x174;" horiz-adv-x="1284" 
d="M844 1595l-107 -143h-233l235 295h254l135 -295h-233zM1227 1337h153l-483 -1337h-203l-4 903l-317 -903h-217l-6 1337h235l-4 -888l309 888h217l4 -888z" />
    <glyph glyph-name="wcircumflex" unicode="&#x175;" horiz-adv-x="1060" 
d="M690 1354l-115 -185h-206l200 285h275l102 -285h-209zM977 1024h135l-410 -1024h-153l-25 616l-239 -616h-150l-55 1024h223l14 -666l250 666h150l12 -659z" />
    <glyph glyph-name="Ycircumflex" unicode="&#x176;" horiz-adv-x="862" 
d="M627 1595l-107 -143h-233l235 295h254l135 -295h-233zM803 1337h153l-409 -839l-88 -498h-230l88 498l-167 839h241l119 -612z" />
    <glyph glyph-name="ycircumflex" unicode="&#x177;" horiz-adv-x="696" 
d="M500 1354l-115 -185h-207l201 285h274l103 -285h-209zM330 336l284 688h136l-605 -1413h-131l166 389h-30l-70 1024h223z" />
    <glyph glyph-name="Ydieresis" unicode="&#x178;" horiz-adv-x="862" 
d="M584 1681l-41 -227h-217l41 227h217zM913 1681l-41 -227h-219l41 227h219zM803 1337h153l-409 -839l-88 -498h-230l88 498l-167 839h241l119 -612z" />
    <glyph glyph-name="Zacute" unicode="&#x179;" horiz-adv-x="768" 
d="M881 1747l-308 -293h-196l229 293h275zM815 1337l-573 -1200h387l-25 -137h-674l582 1200h-348l22 137h629z" />
    <glyph glyph-name="zacute" unicode="&#x17a;" horiz-adv-x="643" 
d="M770 1454l-301 -285h-158l197 285h262zM666 1024l-453 -891h289l-23 -131h-553l457 893h-270l24 129h529z" />
    <glyph glyph-name="Zdotaccent" unicode="&#x17b;" horiz-adv-x="768" 
d="M662 1690l-44 -236h-225l41 236h228zM815 1337l-573 -1200h387l-25 -137h-674l582 1200h-348l22 137h629z" />
    <glyph glyph-name="zdotaccent" unicode="&#x17c;" horiz-adv-x="643" 
d="M580 1405l-41 -236h-226l41 236h226zM666 1024l-453 -891h289l-23 -131h-553l457 893h-270l24 129h529z" />
    <glyph glyph-name="Zcaron" unicode="&#x17d;" horiz-adv-x="768" 
d="M375 1454l-146 293h238l63 -156l119 156h234l-248 -293h-260zM815 1337l-573 -1200h387l-25 -137h-674l582 1200h-348l22 137h629z" />
    <glyph glyph-name="zcaron" unicode="&#x17e;" horiz-adv-x="643" 
d="M307 1169l-117 285h207l52 -172l108 172h207l-215 -285h-242zM666 1024l-453 -891h289l-23 -131h-553l457 893h-270l24 129h529z" />
    <glyph glyph-name="longs" unicode="&#x17f;" horiz-adv-x="462" 
d="M500 1436q50 0 121 -19l-39 -129q-41 8 -62 8q-51 0 -80.5 -44.5t-48.5 -151.5l-194 -1100h-211l159 889h-96l23 135h98l12 74q31 179 106 258.5t212 79.5z" />
    <glyph glyph-name="uni018F" unicode="&#x18f;" horiz-adv-x="935" 
d="M596 1358q203 0 266 -162.5t0 -523.5q-64 -364 -184.5 -528t-323.5 -164q-207 0 -271.5 165.5t1.5 532.5q4 30 8 45h537q43 269 30 384.5t-88 115.5q-61 0 -101.5 -47.5t-72.5 -157.5h-233q58 178 161 259t271 81zM379 117q71 0 124.5 110.5t100.5 360.5h-293
q-40 -252 -24 -361.5t92 -109.5z" />
    <glyph glyph-name="florin" unicode="&#x192;" horiz-adv-x="624" 
d="M662 1452q52 0 145 -27l-45 -116q-88 18 -111 18q-53 0 -90 -63t-86 -217l-8 -23h168l-29 -129h-180l-295 -889q-73 -223 -169 -319.5t-232 -96.5q-49 0 -144 31l47 121q73 -23 113 -23q52 0 87 61t85 216l299 899h-104l28 129h119l4 14q73 222 168.5 318t229.5 96z" />
    <glyph glyph-name="uni019D" unicode="&#x19d;" horiz-adv-x="952" 
d="M823 1337h142l-236 -1337h-168l-262 934l-184 -1055q-28 -155 -88.5 -223t-151.5 -68q-100 0 -186 41l53 127q62 -20 96 -20q109 0 133 147l258 1454h205l236 -870z" />
    <glyph glyph-name="uni01CD" unicode="&#x1cd;" horiz-adv-x="880" 
d="M467 1454l-145 293h237l64 -156l118 156h234l-248 -293h-260zM666 1337l69 -1337h-229l-14 336h-293l-131 -336h-154l549 1337h203zM252 471h233l-22 535z" />
    <glyph glyph-name="uni01CE" unicode="&#x1ce;" horiz-adv-x="808" 
d="M350 1169l-117 285h207l52 -172l108 172h207l-215 -285h-242zM575 864l29 160h180l-180 -1024h-180l25 145q-107 -165 -259 -165q-132 0 -170 131t13 417q47 269 131.5 392.5t220.5 123.5q145 0 190 -180zM287 117q126 0 196 397q69 393 -59 393q-54 0 -95 -92t-75 -285
q-37 -207 -29.5 -310t62.5 -103z" />
    <glyph glyph-name="uni01CF" unicode="&#x1cf;" horiz-adv-x="444" 
d="M510 1747h233l-247 -293h-260l-146 293h238l63 -156zM-8 0l237 1337h230l-236 -1337h-231z" />
    <glyph glyph-name="uni01D0" unicode="&#x1d0;" horiz-adv-x="391" 
d="M418 1454h207l-215 -285h-242l-117 285h207l51 -172zM-25 0l183 1024h209l-181 -1024h-211z" />
    <glyph glyph-name="uni01D1" unicode="&#x1d1;" horiz-adv-x="935" 
d="M487 1454l-145 293h238l63 -156l119 156h233l-247 -293h-261zM596 1358q203 0 266 -162.5t0 -523.5q-63 -363 -184 -527.5t-324 -164.5q-207 0 -271.5 164t-0.5 528q64 361 186 523.5t328 162.5zM614 672q54 293 44.5 419t-87.5 126q-79 0 -134.5 -125.5t-106.5 -419.5
q-53 -295 -42.5 -422t91.5 -127q76 0 130 126.5t105 422.5z" />
    <glyph glyph-name="uni01D2" unicode="&#x1d2;" horiz-adv-x="782" 
d="M369 1169l-117 285h207l51 -172l108 172h207l-215 -285h-241zM463 1044q175 0 233 -126.5t11 -405.5q-51 -280 -153.5 -406t-279.5 -126t-235.5 126.5t-7.5 405.5q50 280 152 406t280 126zM483 516q38 215 28 307t-73 92q-62 0 -105 -92t-81 -307q-38 -218 -27.5 -311.5
t72.5 -93.5t105 93.5t81 311.5z" />
    <glyph glyph-name="uni01D3" unicode="&#x1d3;" horiz-adv-x="905" 
d="M494 1454l-146 293h238l63 -156l119 156h233l-247 -293h-260zM625 393l166 944h143l-168 -948q-35 -192 -135.5 -300.5t-263.5 -108.5q-188 0 -270.5 109t-47.5 304l168 944h229l-167 -944q-11 -53 -9 -101.5t14.5 -86t44.5 -60t81 -22.5q60 0 105 38.5t70.5 96
t39.5 135.5z" />
    <glyph glyph-name="uni01D4" unicode="&#x1d4;" horiz-adv-x="796" 
d="M367 1169l-117 285h207l51 -172l108 172h207l-215 -285h-241zM444 354l119 670h209l-180 -1024l-213 -20l22 126q-89 -126 -225 -126q-116 0 -153 72.5t-5 240.5l129 731h209l-120 -688q-15 -81 -16 -127.5t13.5 -69t47.5 -22.5q59 0 101 64t62 173z" />
    <glyph glyph-name="uni01D5" unicode="&#x1d5;" horiz-adv-x="905" 
d="M422 1794l29 152h524l-29 -152h-524zM350 1454l41 227h217l-41 -227h-217zM678 1454l41 227h219l-41 -227h-219zM367 -20q-188 0 -270.5 109t-47.5 304l168 944h229l-167 -944q-11 -53 -9 -101.5t14.5 -86t44.5 -60t81 -22.5q60 0 105 38.5t70.5 96t39.5 135.5l166 944
h143l-168 -948q-35 -192 -135.5 -300.5t-263.5 -108.5z" />
    <glyph glyph-name="uni01D6" unicode="&#x1d6;" horiz-adv-x="796" 
d="M338 1679h481l-26 -155h-482zM465 1380l-37 -211h-203l37 211h203zM545 1169l37 211h202l-36 -211h-203zM444 354l119 670h209l-180 -1024l-213 -20l22 126q-89 -126 -225 -126q-116 0 -153 72.5t-5 240.5l129 731h209l-120 -688q-15 -81 -16 -127.5t13.5 -69t47.5 -22.5
q59 0 101 64t62 173z" />
    <glyph glyph-name="uni01D7" unicode="&#x1d7;" horiz-adv-x="905" 
d="M555 1794l229 293h275l-307 -293h-197zM350 1454l41 227h217l-41 -227h-217zM678 1454l41 227h219l-41 -227h-219zM367 -20q-188 0 -270.5 109t-47.5 304l168 944h229l-167 -944q-11 -53 -9 -101.5t14.5 -86t44.5 -60t81 -22.5q60 0 105 38.5t70.5 96t39.5 135.5l166 944
h143l-168 -948q-35 -192 -135.5 -300.5t-263.5 -108.5z" />
    <glyph glyph-name="uni01D8" unicode="&#x1d8;" horiz-adv-x="796" 
d="M893 1808l-301 -284h-158l197 284h262zM465 1380l-37 -211h-203l37 211h203zM545 1169l37 211h202l-36 -211h-203zM444 354l119 670h209l-180 -1024l-213 -20l22 126q-89 -126 -225 -126q-116 0 -153 72.5t-5 240.5l129 731h209l-120 -688q-15 -81 -16 -127.5t13.5 -69
t47.5 -22.5q59 0 101 64t62 173z" />
    <glyph glyph-name="uni01D9" unicode="&#x1d9;" horiz-adv-x="905" 
d="M553 1794l-145 293h237l64 -156l118 156h234l-248 -293h-260zM608 1681l-41 -227h-217l41 227h217zM678 1454l41 227h219l-41 -227h-219zM625 393l166 944h143l-168 -948q-35 -192 -135.5 -300.5t-263.5 -108.5q-188 0 -270.5 109t-47.5 304l168 944h229l-167 -944
q-11 -53 -9 -101.5t14.5 -86t44.5 -60t81 -22.5q60 0 105 38.5t70.5 96t39.5 135.5z" />
    <glyph glyph-name="uni01DA" unicode="&#x1da;" horiz-adv-x="796" 
d="M430 1524l-117 284h207l51 -172l109 172h207l-215 -284h-242zM465 1380l-37 -211h-203l37 211h203zM545 1169l37 211h202l-36 -211h-203zM444 354l119 670h209l-180 -1024l-213 -20l22 126q-89 -126 -225 -126q-116 0 -153 72.5t-5 240.5l129 731h209l-120 -688
q-15 -81 -16 -127.5t13.5 -69t47.5 -22.5q59 0 101 64t62 173z" />
    <glyph glyph-name="uni01DB" unicode="&#x1db;" horiz-adv-x="905" 
d="M600 1794l-174 293h268l109 -293h-203zM350 1454l41 227h217l-41 -227h-217zM678 1454l41 227h219l-41 -227h-219zM367 -20q-188 0 -270.5 109t-47.5 304l168 944h229l-167 -944q-11 -53 -9 -101.5t14.5 -86t44.5 -60t81 -22.5q60 0 105 38.5t70.5 96t39.5 135.5l166 944
h143l-168 -948q-35 -192 -135.5 -300.5t-263.5 -108.5z" />
    <glyph glyph-name="uni01DC" unicode="&#x1dc;" horiz-adv-x="796" 
d="M682 1524h-188l-203 284h272zM465 1380l-37 -211h-203l37 211h203zM545 1169l37 211h202l-36 -211h-203zM444 354l119 670h209l-180 -1024l-213 -20l22 126q-89 -126 -225 -126q-116 0 -153 72.5t-5 240.5l129 731h209l-120 -688q-15 -81 -16 -127.5t13.5 -69t47.5 -22.5
q59 0 101 64t62 173z" />
    <glyph glyph-name="Gcaron" unicode="&#x1e6;" horiz-adv-x="925" 
d="M500 1454l-146 293h238l63 -156l119 156h234l-248 -293h-260zM82 672q63 360 210 523t408 163q120 0 205 -35l-26 -141q-92 35 -193 35q-141 0 -224 -127t-136 -422q-52 -293 -19.5 -419t160.5 -126q23 0 63 4l82 467h-166l25 137h371l-121 -690q-122 -61 -287 -61
q-249 0 -333.5 165t-18.5 527z" />
    <glyph glyph-name="gcaron" unicode="&#x1e7;" horiz-adv-x="811" 
d="M401 1169l-116 285h207l51 -172l108 172h207l-215 -285h-242zM578 885l24 139l182 6l-182 -1042q-35 -205 -143.5 -301.5t-302.5 -96.5q-131 0 -222 35l56 135q81 -34 157 -34q105 0 163 58t81 187l23 131q-97 -122 -209 -122q-141 0 -184 123.5t6 390.5
q51 287 138.5 418.5t225.5 131.5q69 0 115.5 -36.5t71.5 -122.5zM285 117q129 0 198 395t-55 395q-108 0 -178 -413q-34 -189 -26 -283t61 -94z" />
    <glyph glyph-name="uni01EA" unicode="&#x1ea;" horiz-adv-x="935" 
d="M596 1358q203 0 266 -162.5t0 -523.5q-51 -290 -136 -451t-218 -215q-49 -61 -59 -117q-5 -34 15 -56.5t62 -22.5q44 0 90 16l2 -125q-74 -29 -178 -29q-98 0 -143 41t-33 119q13 68 74 148q-198 6 -258.5 171t2.5 521q64 361 186 523.5t328 162.5zM614 672
q54 293 44.5 419t-87.5 126q-79 0 -134.5 -125.5t-106.5 -419.5q-53 -295 -42.5 -422t91.5 -127q76 0 130 126.5t105 422.5z" />
    <glyph glyph-name="uni01EB" unicode="&#x1eb;" horiz-adv-x="782" 
d="M463 1044q175 0 233 -126.5t11 -405.5q-37 -205 -102 -326.5t-165 -171.5q-95 -93 -108 -170q-5 -34 15.5 -57t62.5 -23q41 0 90 17l2 -125q-74 -29 -178 -29q-98 0 -143.5 41t-33.5 119q16 88 111 193q-168 6 -222 132.5t-5 399.5q50 280 152 406t280 126zM252 516
q-38 -218 -27.5 -311.5t72.5 -93.5t105 93.5t81 311.5q38 215 28 307t-73 92q-62 0 -105 -92t-81 -307z" />
    <glyph glyph-name="uni01F4" unicode="&#x1f4;" horiz-adv-x="925" 
d="M1004 1747l-308 -293h-196l229 293h275zM82 672q63 360 210 523t408 163q120 0 205 -35l-26 -141q-92 35 -193 35q-141 0 -224 -127t-136 -422q-52 -293 -19.5 -419t160.5 -126q23 0 63 4l82 467h-166l25 137h371l-121 -690q-122 -61 -287 -61q-249 0 -333.5 165
t-18.5 527z" />
    <glyph glyph-name="uni01F5" unicode="&#x1f5;" horiz-adv-x="811" 
d="M864 1454l-301 -285h-157l196 285h262zM578 885l24 139l182 6l-182 -1042q-35 -205 -143.5 -301.5t-302.5 -96.5q-131 0 -222 35l56 135q81 -34 157 -34q105 0 163 58t81 187l23 131q-97 -122 -209 -122q-141 0 -184 123.5t6 390.5q51 287 138.5 418.5t225.5 131.5
q69 0 115.5 -36.5t71.5 -122.5zM285 117q129 0 198 395t-55 395q-108 0 -178 -413q-34 -189 -26 -283t61 -94z" />
    <glyph glyph-name="Aringacute" unicode="&#x1fa;" horiz-adv-x="880" 
d="M725 1612q60 -50 45 -137q-7 -46 -35 -85t-69 -63l69 -1327h-229l-14 336h-293l-131 -336h-154l547 1329q-64 54 -49 146q9 50 41.5 90t78.5 63l191 244h274zM664 1473q5 31 -13 52t-49 21q-30 0 -55 -21.5t-29 -51.5q-6 -29 11.5 -51.5t48.5 -22.5q30 0 55.5 22t30.5 52
zM252 471h233l-22 535z" />
    <glyph glyph-name="aringacute" unicode="&#x1fb;" horiz-adv-x="808" 
d="M473 1169q-103 0 -158.5 62.5t-38.5 159.5q13 81 73 139.5t143 73.5l159 229h260l-258 -246q55 -27 80 -78.5t12 -117.5q-17 -97 -93.5 -159.5t-178.5 -62.5zM418 1391q-7 -41 14.5 -69t61.5 -28q41 0 72.5 28t37.5 69q8 40 -14.5 67t-63.5 27q-39 0 -69.5 -27t-38.5 -67
zM575 864l29 160h180l-180 -1024h-180l25 145q-107 -165 -259 -165q-132 0 -170 131t13 417q47 269 131.5 392.5t220.5 123.5q145 0 190 -180zM287 117q126 0 196 397q69 393 -59 393q-54 0 -95 -92t-75 -285q-37 -207 -29.5 -310t62.5 -103z" />
    <glyph glyph-name="AEacute" unicode="&#x1fc;" horiz-adv-x="1251" 
d="M1155 1747l-307 -293h-197l230 293h274zM1225 1200h-336l-76 -430h307l-22 -137h-310l-86 -496h351l-25 -137h-579l61 346h-283l-149 -346h-164l604 1337h731zM281 471h251l127 729h-65z" />
    <glyph glyph-name="aeacute" unicode="&#x1fd;" horiz-adv-x="1185" 
d="M1053 1454l-301 -285h-158l197 285h262zM883 1044q171 0 227.5 -120t9.5 -383q-3 -21 -12 -49h-434q-34 -206 -7 -293.5t128 -87.5q76 0 200 57l9 -123q-136 -65 -259 -65q-134 0 -208.5 54.5t-94.5 170.5q-77 -120 -147 -172.5t-150 -52.5q-96 0 -137.5 75t-13.5 232
q56 303 332 364l153 35l13 72q15 85 -6.5 121t-86.5 36q-86 0 -229 -45l-10 127q174 47 301 47q154 0 209 -61q88 61 213 61zM692 606h217q30 167 19.5 238t-66.5 71q-62 0 -99.5 -70t-70.5 -239zM256 137q52 0 102 70t62 139l41 229l-88 -22q-62 -18 -101 -75t-59 -165
q-32 -176 43 -176z" />
    <glyph glyph-name="Oslashacute" unicode="&#x1fe;" horiz-adv-x="935" 
d="M1010 1747l-308 -293h-196l229 293h275zM918 1337h83l-129 -176q49 -163 -10 -489q-63 -363 -184 -527.5t-324 -164.5q-183 0 -254 124l-77 -106h-86l133 182q-46 168 12 492q64 361 186 523.5t328 162.5q176 0 248 -123zM330 672q-12 -68 -29 -174l356 485
q9 122 -12 178t-74 56q-79 0 -134.5 -125.5t-106.5 -419.5zM614 672q24 132 29 176l-354 -488q-9 -124 12.5 -180.5t77.5 -56.5q76 0 130 126.5t105 422.5z" />
    <glyph glyph-name="oslashacute" unicode="&#x1ff;" horiz-adv-x="782" 
d="M850 1454l-301 -285h-158l197 285h262zM741 1024h68l-102 -129q43 -129 0 -383q-51 -280 -153.5 -406t-279.5 -126q-159 0 -221 98l-61 -78h-66l103 129q-45 125 2 383q50 280 152 406t280 126q155 0 217 -98zM252 516q-20 -122 -21 -133l281 354q6 93 -12.5 135.5
t-61.5 42.5q-62 0 -105 -92t-81 -307zM483 516q8 47 21 125l-281 -352q-9 -178 74 -178q62 0 105 93.5t81 311.5z" />
    <glyph glyph-name="uni0200" unicode="&#x200;" horiz-adv-x="880" 
d="M532 1452h-178l-147 295h258zM874 1452h-180l-147 295h258zM666 1337l69 -1337h-229l-14 336h-293l-131 -336h-154l549 1337h203zM252 471h233l-22 535z" />
    <glyph glyph-name="uni0201" unicode="&#x201;" horiz-adv-x="808" 
d="M430 1169h-129l-178 285h227zM723 1169h-129l-178 285h227zM604 1024h180l-180 -1024h-180l25 145q-107 -165 -259 -165q-132 0 -170 131t13 417q47 269 131.5 392.5t220.5 123.5q145 0 190 -180zM287 117q126 0 196 397q69 393 -59 393q-54 0 -95 -92t-75 -285
q-37 -207 -29.5 -310t62.5 -103z" />
    <glyph glyph-name="uni0202" unicode="&#x202;" horiz-adv-x="880" 
d="M643 1722q134 0 202 -72.5t48 -195.5h-211q4 46 -14.5 73t-53.5 27q-38 0 -66.5 -27t-39.5 -73h-209q25 123 118 195.5t226 72.5zM666 1337l69 -1337h-229l-14 336h-293l-131 -336h-154l549 1337h203zM252 471h233l-22 535z" />
    <glyph glyph-name="uni0203" unicode="&#x203;" horiz-adv-x="808" 
d="M489 1274q-40 0 -71.5 -28t-44.5 -77h-201q31 125 121 198t213 73q133 0 203.5 -73t58.5 -198h-199q-1 49 -23 77t-57 28zM604 1024h180l-180 -1024h-180l25 145q-107 -165 -259 -165q-132 0 -170 131t13 417q47 269 131.5 392.5t220.5 123.5q145 0 190 -180zM287 117
q126 0 196 397q69 393 -59 393q-54 0 -95 -92t-75 -285q-37 -207 -29.5 -310t62.5 -103z" />
    <glyph glyph-name="uni0204" unicode="&#x204;" horiz-adv-x="794" 
d="M463 1452h-178l-148 295h258zM805 1452h-180l-148 295h258zM795 1337l-25 -137h-336l-76 -430h308l-25 -137h-307l-86 -496h348l-23 -137h-581l237 1337h566z" />
    <glyph glyph-name="uni0205" unicode="&#x205;" horiz-adv-x="768" 
d="M459 1169h-129l-178 285h227zM752 1169h-129l-179 285h228zM457 1044q172 0 228.5 -119.5t10.5 -383.5q-7 -28 -14 -49h-434q-34 -206 -6.5 -293.5t129.5 -87.5q76 0 200 57l7 -123q-136 -65 -256 -65q-203 0 -272.5 128t-18.5 410q50 277 150.5 401.5t275.5 124.5z
M268 606h217q30 167 19.5 238t-66.5 71q-63 0 -101 -70t-69 -239z" />
    <glyph glyph-name="uni0206" unicode="&#x206;" horiz-adv-x="794" 
d="M573 1722q134 0 202 -72.5t48 -195.5h-211q5 46 -13.5 73t-53.5 27q-38 0 -67.5 -27t-39.5 -73h-209q25 123 118 195.5t226 72.5zM795 1337l-25 -137h-336l-76 -430h308l-25 -137h-307l-86 -496h348l-23 -137h-581l237 1337h566z" />
    <glyph glyph-name="uni0207" unicode="&#x207;" horiz-adv-x="768" 
d="M535 1440q133 0 203.5 -73t58.5 -198h-199q-1 49 -23 77t-57 28q-40 0 -72 -28t-45 -77h-200q31 125 121 198t213 73zM457 1044q172 0 228.5 -119.5t10.5 -383.5q-7 -28 -14 -49h-434q-34 -206 -6.5 -293.5t129.5 -87.5q76 0 200 57l7 -123q-136 -65 -256 -65
q-203 0 -272.5 128t-18.5 410q50 277 150.5 401.5t275.5 124.5zM268 606h217q30 167 19.5 238t-66.5 71q-63 0 -101 -70t-69 -239z" />
    <glyph glyph-name="uni0208" unicode="&#x208;" horiz-adv-x="444" 
d="M121 1452l-150 295h260l68 -295h-178zM461 1452l-148 295h258l70 -295h-180zM-8 0l237 1337h230l-236 -1337h-231z" />
    <glyph glyph-name="uni0209" unicode="&#x209;" horiz-adv-x="391" 
d="M119 1169l-178 285h227l80 -285h-129zM412 1169l-179 285h228l80 -285h-129zM-25 0l183 1024h209l-181 -1024h-211z" />
    <glyph glyph-name="uni020A" unicode="&#x20a;" horiz-adv-x="444" 
d="M68 1454q25 123 118 195.5t226 72.5q134 0 202 -72.5t48 -195.5h-211q4 46 -14.5 73t-53.5 27q-38 0 -67.5 -27t-39.5 -73h-208zM-8 0l237 1337h230l-236 -1337h-231z" />
    <glyph glyph-name="uni020B" unicode="&#x20b;" horiz-adv-x="391" 
d="M-10 1169q31 125 121 198t213 73q133 0 203.5 -73t58.5 -198h-199q-1 49 -23 77t-57 28q-40 0 -72 -28t-45 -77h-200zM-25 0l183 1024h209l-181 -1024h-211z" />
    <glyph glyph-name="uni020C" unicode="&#x20c;" horiz-adv-x="935" 
d="M375 1452l-148 295h258l68 -295h-178zM715 1452l-148 295h258l70 -295h-180zM354 -20q-207 0 -271.5 164t-0.5 528q64 361 186 523.5t328 162.5q203 0 266 -162.5t0 -523.5q-63 -363 -184 -527.5t-324 -164.5zM379 123q76 0 130 126.5t105 422.5q54 293 44.5 419
t-87.5 126q-79 0 -134.5 -125.5t-106.5 -419.5q-53 -295 -42.5 -422t91.5 -127z" />
    <glyph glyph-name="uni020D" unicode="&#x20d;" horiz-adv-x="782" 
d="M319 1169l-178 285h228l80 -285h-130zM612 1169l-178 285h228l79 -285h-129zM274 -20q-177 0 -235.5 126.5t-7.5 405.5q50 280 152 406t280 126q175 0 233 -126.5t11 -405.5q-51 -280 -153.5 -406t-279.5 -126zM297 111q62 0 105 93.5t81 311.5q38 215 28 307t-73 92
q-62 0 -105 -92t-81 -307q-38 -218 -27.5 -311.5t72.5 -93.5z" />
    <glyph glyph-name="uni020E" unicode="&#x20e;" horiz-adv-x="935" 
d="M319 1454q25 123 118 195.5t227 72.5t201.5 -72.5t47.5 -195.5h-211q5 46 -13.5 73t-53.5 27q-38 0 -67.5 -27t-39.5 -73h-209zM354 -20q-207 0 -271.5 164t-0.5 528q64 361 186 523.5t328 162.5q203 0 266 -162.5t0 -523.5q-63 -363 -184 -527.5t-324 -164.5zM379 123
q76 0 130 126.5t105 422.5q54 293 44.5 419t-87.5 126q-79 0 -134.5 -125.5t-106.5 -419.5q-53 -295 -42.5 -422t91.5 -127z" />
    <glyph glyph-name="uni020F" unicode="&#x20f;" horiz-adv-x="782" 
d="M190 1169q31 125 121 198t213 73q133 0 203.5 -73t58.5 -198h-198q-1 49 -23 77t-57 28q-40 0 -72 -28t-45 -77h-201zM274 -20q-177 0 -235.5 126.5t-7.5 405.5q50 280 152 406t280 126q175 0 233 -126.5t11 -405.5q-51 -280 -153.5 -406t-279.5 -126zM297 111
q62 0 105 93.5t81 311.5q38 215 28 307t-73 92q-62 0 -105 -92t-81 -307q-38 -218 -27.5 -311.5t72.5 -93.5z" />
    <glyph glyph-name="uni0210" unicode="&#x210;" horiz-adv-x="915" 
d="M528 1452h-178l-147 295h258zM870 1452h-180l-147 295h258zM864 932q-26 -148 -81 -240.5t-144 -138.5l125 -553h-236l-106 504h-19h-92l-88 -504h-231l237 1337h322q200 0 275.5 -96.5t37.5 -308.5zM434 1200l-98 -559h78q83 0 129.5 66t74.5 223q25 146 1.5 208
t-107.5 62h-78z" />
    <glyph glyph-name="uni0211" unicode="&#x211;" horiz-adv-x="604" 
d="M379 1169h-129l-178 285h227zM672 1169h-129l-178 285h227zM334 844q121 200 250 200q34 0 55 -8l-53 -225q-52 20 -86 20q-79 0 -136 -76t-83 -214l-97 -541h-209l183 1024h209z" />
    <glyph glyph-name="uni0212" unicode="&#x212;" horiz-adv-x="915" 
d="M639 1722q134 0 202 -72.5t48 -195.5h-211q4 46 -14.5 73t-53.5 27q-38 0 -66.5 -27t-39.5 -73h-209q25 123 118 195.5t226 72.5zM551 1337q200 0 275.5 -96.5t37.5 -308.5q-26 -148 -81 -240.5t-144 -138.5l125 -553h-236l-106 504h-19h-92l-88 -504h-231l237 1337h322z
M434 1200l-98 -559h78q83 0 129.5 66t74.5 223q25 146 1.5 208t-107.5 62h-78z" />
    <glyph glyph-name="uni0213" unicode="&#x213;" horiz-adv-x="604" 
d="M455 1440q133 0 203.5 -73t58.5 -198h-199q-1 49 -23 77t-57 28q-40 0 -71.5 -28t-44.5 -77h-201q31 125 121 198t213 73zM334 844q121 200 250 200q34 0 55 -8l-53 -225q-52 20 -86 20q-79 0 -136 -76t-83 -214l-97 -541h-209l183 1024h209z" />
    <glyph glyph-name="uni0214" unicode="&#x214;" horiz-adv-x="905" 
d="M381 1452l-148 295h259l67 -295h-178zM721 1452l-148 295h258l70 -295h-180zM367 -20q-188 0 -270.5 109t-47.5 304l168 944h229l-167 -944q-11 -53 -9 -101.5t14.5 -86t44.5 -60t81 -22.5q60 0 105 38.5t70.5 96t39.5 135.5l166 944h143l-168 -948
q-35 -192 -135.5 -300.5t-263.5 -108.5z" />
    <glyph glyph-name="uni0215" unicode="&#x215;" horiz-adv-x="796" 
d="M446 1169h-129l-178 285h228zM739 1169h-129l-178 285h227zM563 1024h209l-180 -1024l-213 -20l22 126q-89 -126 -225 -126q-116 0 -153 72.5t-5 240.5l129 731h209l-120 -688q-15 -81 -16 -127.5t13.5 -69t47.5 -22.5q59 0 101 64t62 173z" />
    <glyph glyph-name="uni0216" unicode="&#x216;" horiz-adv-x="905" 
d="M326 1454q25 123 118 195.5t226 72.5q134 0 202 -72.5t48 -195.5h-211q4 46 -14.5 73t-53.5 27q-38 0 -66.5 -27t-39.5 -73h-209zM367 -20q-188 0 -270.5 109t-47.5 304l168 944h229l-167 -944q-11 -53 -9 -101.5t14.5 -86t44.5 -60t81 -22.5q60 0 105 38.5t70.5 96
t39.5 135.5l166 944h143l-168 -948q-35 -192 -135.5 -300.5t-263.5 -108.5z" />
    <glyph glyph-name="uni0217" unicode="&#x217;" horiz-adv-x="796" 
d="M522 1440q133 0 203.5 -73t58.5 -198h-198q-1 49 -23 77t-57 28q-40 0 -72 -28t-45 -77h-201q31 125 121 198t213 73zM444 354l119 670h209l-180 -1024l-213 -20l22 126q-89 -126 -225 -126q-116 0 -153 72.5t-5 240.5l129 731h209l-120 -688q-15 -81 -16 -127.5
t13.5 -69t47.5 -22.5q59 0 101 64t62 173z" />
    <glyph glyph-name="uni0218" unicode="&#x218;" horiz-adv-x="749" 
d="M567 1214q-76 0 -130 -58t-68 -142q-4 -38 -6 -65.5t7.5 -53.5t19 -44t28 -36t34 -30t37.5 -27q26 -16 44.5 -30t41 -33.5t36 -37.5t28 -43t19 -50.5t7.5 -59.5t-6 -70q-37 -204 -180 -329t-338 -125q-107 0 -196 47l59 149q82 -53 174 -53q93 0 155.5 64t80.5 165
q7 42 0.5 76t-26 60t-41.5 45.5t-54 43.5q-7 4 -10 7q-21 17 -37 31t-35.5 33t-33 37t-27 40.5t-21.5 46.5t-13 51.5t-4 59.5t7 67q29 176 156 292t292 116q123 0 205 -25l-51 -143q-59 27 -154 24zM53 -143h236l-27 -150l-24 -143q-19 -108 -99 -170t-180 -62l21 119
q46 0 81.5 29.5t44.5 79.5l9 49h-107z" />
    <glyph glyph-name="uni0219" unicode="&#x219;" horiz-adv-x="645" 
d="M444 915q-53 0 -91.5 -40.5t-49.5 -98.5q-3 -17 -3.5 -32t2.5 -28.5t5.5 -23t11 -20.5t12.5 -16.5t16.5 -15.5t16.5 -13t19.5 -13.5t19.5 -13.5q20 -14 34 -24.5t31.5 -26.5t28.5 -31.5t21.5 -36.5t15 -43.5t4.5 -51.5t-6 -62q-28 -160 -138 -252t-273 -92
q-105 0 -178 36l55 136q66 -41 154 -41q69 0 115 47t59 118q2 13 2 25t-0.5 21t-5 19t-7.5 16.5t-11.5 15.5t-12 13t-15.5 13l-16 12t-18.5 12.5t-18.5 12.5q-52 35 -84 72t-49.5 98t-3.5 137q23 133 128 217t241 84q89 0 159 -22l-45 -129q-52 25 -125 22zM90 -143h236
l-27 -150l-25 -143q-19 -108 -98.5 -170t-179.5 -62l20 119q46 0 82 29.5t45 79.5l9 49h-107z" />
    <glyph glyph-name="uni021A" unicode="&#x21a;" horiz-adv-x="811" 
d="M901 1337l-22 -137h-261l-212 -1200h-230l213 1200h-262l27 137h747zM150 -143h235l-27 -150l-24 -143q-19 -108 -99 -170t-180 -62l21 119q46 0 82 29.5t45 79.5l8 49h-107z" />
    <glyph glyph-name="uni021B" unicode="&#x21b;" horiz-adv-x="526" 
d="M358 881l-104 -594q-15 -90 1 -128t71 -38q39 0 75 8l-22 -125q-85 -24 -150 -24q-128 0 -170.5 72t-13.5 239l105 590h-95l25 143h94l31 172l219 61l-41 -233h170l-27 -143h-168zM31 -143h235l-26 -150l-25 -143q-19 -108 -98.5 -170t-179.5 -62l20 119q46 0 82 29.5
t45 79.5l8 49h-108z" />
    <glyph glyph-name="uni0232" unicode="&#x232;" horiz-adv-x="862" 
d="M889 1606l-29 -152h-524l29 152h524zM803 1337h153l-409 -839l-88 -498h-230l88 498l-167 839h241l119 -612z" />
    <glyph glyph-name="uni0233" unicode="&#x233;" horiz-adv-x="696" 
d="M735 1325l-26 -156h-482l27 156h481zM614 1024h136l-605 -1413h-131l166 389h-30l-70 1024h223l27 -688z" />
    <glyph glyph-name="uni0237" unicode="&#x237;" horiz-adv-x="389" 
d="M-131 -412q-103 0 -199 41l56 138q68 -21 98 -21q107 0 131 148l203 1130h209l-201 -1130q-28 -161 -103.5 -233.5t-193.5 -72.5z" />
    <glyph glyph-name="uni0259" unicode="&#x259;" horiz-adv-x="768" 
d="M399 1044q206 0 273 -124t18 -412q-51 -282 -150.5 -405t-277.5 -123q-168 0 -226 119.5t-11 385.5q7 35 12 50h436q34 205 6 292.5t-129 87.5q-76 0 -203 -57l-6 121q130 65 258 65zM283 111q62 0 99.5 69.5t68.5 237.5h-218q-28 -166 -17 -236.5t67 -70.5z" />
    <glyph glyph-name="uni0272" unicode="&#x272;" horiz-adv-x="811" 
d="M588 1044q119 0 153.5 -68t3.5 -243l-147 -833q-29 -170 -106.5 -240t-200.5 -70q-99 0 -187 39l54 127q56 -18 96 -18q110 0 133 145l139 795q24 123 14.5 172t-59.5 49q-68 0 -114.5 -70.5t-65.5 -177.5h-2l-115 -651h-209l183 1024l211 20l-23 -131q45 63 109.5 97
t132.5 34z" />
    <glyph glyph-name="circumflex" unicode="&#x2c6;" horiz-adv-x="745" 
d="M756 1169h-207l-49 183l-113 -183h-209l201 285h274z" />
    <glyph glyph-name="caron" unicode="&#x2c7;" horiz-adv-x="739" 
d="M594 1454h207l-215 -285h-242l-117 285h207l51 -172z" />
    <glyph glyph-name="breve" unicode="&#x2d8;" horiz-adv-x="761" 
d="M465 1169q-121 0 -185.5 77t-52.5 208h201q-3 -57 17.5 -90t60.5 -33q31 0 62.5 33t54.5 90h198q-32 -130 -128.5 -207.5t-227.5 -77.5z" />
    <glyph glyph-name="dotaccent" unicode="&#x2d9;" horiz-adv-x="393" 
d="M178 1169l41 236h227l-40 -236h-228z" />
    <glyph glyph-name="ring" unicode="&#x2da;" horiz-adv-x="636" 
d="M414 1169q-103 0 -158.5 62.5t-38.5 159.5q17 95 94 157t178 62q103 0 159.5 -62t37.5 -157q-17 -97 -93.5 -159.5t-178.5 -62.5zM434 1294q41 0 73 28t38 69q8 40 -14.5 67t-63.5 27q-39 0 -70 -27t-39 -67q-7 -41 14.5 -69t61.5 -28z" />
    <glyph glyph-name="ogonek" unicode="&#x2db;" horiz-adv-x="544" 
d="M94 -457q-98 0 -143 41t-33 119q14 75 94 171t166 140h135q-193 -145 -209 -254q-5 -34 15.5 -56.5t62.5 -22.5q48 0 88 16l2 -125q-74 -29 -178 -29z" />
    <glyph glyph-name="tilde" unicode="&#x2dc;" horiz-adv-x="745" 
d="M563 1169q-41 0 -85.5 32t-69.5 32q-22 0 -40.5 -17.5t-29.5 -46.5h-160q35 111 98.5 178.5t139.5 67.5q38 0 65.5 -15.5t48.5 -30.5t41 -15q42 0 66 59h162q-38 -110 -100.5 -177t-135.5 -67z" />
    <glyph glyph-name="hungarumlaut" unicode="&#x2dd;" horiz-adv-x="866" 
d="M178 1169l178 285h248l-266 -285h-160zM502 1169l178 285h248l-269 -285h-157z" />
    <glyph glyph-name="gravecomb" unicode="&#x300;" 
d="M51 1169l-203 285h273l119 -285h-189z" />
    <glyph glyph-name="acutecomb" unicode="&#x301;" 
d="M76 1169l196 285h263l-302 -285h-157z" />
    <glyph glyph-name="uni0302" unicode="&#x302;" 
d="M612 1169h-209l-47 185l-114 -185h-207l201 285h274z" />
    <glyph glyph-name="tildecomb" unicode="&#x303;" 
d="M311 1169q-41 0 -85.5 32t-69.5 32q-46 0 -72 -64h-160q34 111 98.5 178.5t141.5 67.5q38 0 65.5 -15.5t48 -30.5t39.5 -15q44 0 68 59h160q-36 -110 -99 -177t-135 -67z" />
    <glyph glyph-name="uni0304" unicode="&#x304;" 
d="M-141 1169l26 156h484l-27 -156h-483z" />
    <glyph glyph-name="uni0306" unicode="&#x306;" 
d="M141 1169q-123 0 -187 77t-50 208h200q-3 -57 17.5 -90t60.5 -33q31 0 62.5 33t54.5 90h199q-32 -130 -129 -207.5t-228 -77.5z" />
    <glyph glyph-name="uni0307" unicode="&#x307;" 
d="M53 1169l41 236h225l-40 -236h-226z" />
    <glyph glyph-name="uni0308" unicode="&#x308;" 
d="M-78 1169l37 211h203l-37 -211h-203zM242 1169l37 211h202l-37 -211h-202z" />
    <glyph glyph-name="uni030A" unicode="&#x30a;" 
d="M141 1169q-103 0 -159 62.5t-39 159.5q19 95 96 157t178 62q103 0 159.5 -62t37.5 -157q-17 -97 -93.5 -159.5t-179.5 -62.5zM162 1294q41 0 72.5 28t37.5 69q8 40 -14 67t-63 27q-39 0 -70 -27t-39 -67q-7 -41 14.5 -69t61.5 -28z" />
    <glyph glyph-name="uni030B" unicode="&#x30b;" 
d="M45 1169l178 285h248l-268 -285h-158zM367 1169l178 285h248l-267 -285h-159z" />
    <glyph glyph-name="uni030C" unicode="&#x30c;" 
d="M455 1454h207l-216 -285h-241l-117 285h207l51 -172z" />
    <glyph glyph-name="uni030F" unicode="&#x30f;" 
d="M-367 1169l-178 285h228l79 -285h-129zM-74 1169l-178 285h227l80 -285h-129z" />
    <glyph glyph-name="uni0311" unicode="&#x311;" 
d="M-436 1169q31 125 121 198t213 73q133 0 203.5 -73t58.5 -198h-199q-1 49 -23 77t-57 28q-40 0 -72 -28t-45 -77h-200z" />
    <glyph glyph-name="uni0312" unicode="&#x312;" 
d="M412 1616q-51 0 -90 -32.5t-48 -86.5l-10 -55h117l-47 -273h-260l30 166h-2l29 156q21 119 107 186.5t196 67.5z" />
    <glyph glyph-name="dotbelowcomb" unicode="&#x323;" 
d="M-397 -393l45 250h233l-43 -250h-235z" />
    <glyph glyph-name="uni0326" unicode="&#x326;" 
d="M-119 -143l-26 -150l-25 -143q-19 -108 -99 -170t-180 -62l21 119q46 0 82 29.5t45 79.5l8 49h-106l45 248h235z" />
    <glyph glyph-name="uni0327" unicode="&#x327;" 
d="M100 -100q117 -13 155 -53t28 -105q-11 -59 -51 -103t-101 -69t-132 -37t-155 -14v102q58 4 97 10.5t75 18.5t56 34t26 54q3 19 -7.5 33.5t-52 29.5t-116.5 23l109 184h125z" />
    <glyph glyph-name="uni0328" unicode="&#x328;" 
d="M-115 -457q-98 0 -142.5 41t-31.5 119q12 75 91.5 171t166.5 140h135q-192 -144 -208 -254q-5 -34 15 -56.5t62 -22.5q44 0 90 16l3 -125q-74 -29 -181 -29z" />
    <glyph glyph-name="uni03BC" unicode="&#x3bc;" horiz-adv-x="782" 
d="M563 1024h209l-180 -1024l-213 -20l22 126q-89 -126 -225 -126q-21 0 -53 4l-37 -492h-205l123 701q2 24 14 100l129 731h209l-120 -688q-15 -81 -16 -127.5t13.5 -69t47.5 -22.5q59 0 101 64t62 173z" />
    <glyph glyph-name="uni1E02" unicode="&#x1e02;" horiz-adv-x="894" 
d="M705 1690l-43 -236h-226l41 236h228zM854 1032q-21 -117 -80.5 -192.5t-155.5 -96.5q111 -18 148.5 -108t11.5 -232q-37 -206 -153.5 -304.5t-325.5 -98.5h-307l237 1337h289q197 0 279.5 -75t56.5 -230zM496 1200h-62l-72 -405h68q73 0 115.5 53t62.5 168
q17 96 -9.5 140t-102.5 44zM532 401q25 139 -2 198.5t-116 59.5h-74l-92 -522h78q89 0 135 60t71 204z" />
    <glyph glyph-name="uni1E03" unicode="&#x1e03;" horiz-adv-x="811" 
d="M508 1796l-41 -235h-225l41 235h225zM571 1044q133 0 172.5 -123t-6.5 -391q-53 -286 -139.5 -418t-222.5 -132q-72 0 -120 38t-73 129l-24 -147h-181l250 1415h209l-88 -495q102 124 223 124zM514 530q33 189 24.5 283t-61.5 94q-126 0 -198 -393q-70 -397 59 -397
q103 0 176 413z" />
    <glyph glyph-name="uni1E0A" unicode="&#x1e0a;" horiz-adv-x="929" 
d="M719 1690l-43 -236h-225l41 236h227zM539 1337q227 0 302 -156.5t15 -504.5q-65 -355 -196 -515.5t-357 -160.5h-311l237 1337h310zM608 672q33 191 33.5 306t-32.5 168.5t-103 53.5h-72l-186 -1063h71q104 0 171 124.5t118 410.5z" />
    <glyph glyph-name="uni1E0B" unicode="&#x1e0b;" horiz-adv-x="808" 
d="M700 1796h226l-41 -235h-226zM557 922l88 493h207l-248 -1415h-180l25 145q-107 -165 -259 -165q-132 0 -170 131t13 417q47 269 131.5 392.5t220.5 123.5q121 0 172 -122zM287 117q126 0 196 397q69 393 -59 393q-54 0 -95 -92t-75 -285q-37 -207 -29.5 -310t62.5 -103z
" />
    <glyph glyph-name="uni1E0C" unicode="&#x1e0c;" horiz-adv-x="929" 
d="M539 1337q227 0 302 -156.5t15 -504.5q-65 -355 -196 -515.5t-357 -160.5h-311l237 1337h310zM608 672q33 191 33.5 306t-32.5 168.5t-103 53.5h-72l-186 -1063h71q104 0 171 124.5t118 410.5zM188 -393l45 250h234l-43 -250h-236z" />
    <glyph glyph-name="uni1E0D" unicode="&#x1e0d;" horiz-adv-x="808" 
d="M645 1415h207l-248 -1415h-180l25 145q-107 -165 -259 -165q-132 0 -170 131t13 417q47 269 131.5 392.5t220.5 123.5q121 0 172 -122zM287 117q126 0 196 397q69 393 -59 393q-54 0 -95 -92t-75 -285q-37 -207 -29.5 -310t62.5 -103zM127 -393l45 250h234l-44 -250h-235
z" />
    <glyph glyph-name="uni1E1E" unicode="&#x1e1e;" horiz-adv-x="770" 
d="M694 1690l-43 -236h-225l41 236h227zM770 1200h-336l-80 -455h308l-25 -137h-307l-107 -608h-231l237 1337h566z" />
    <glyph glyph-name="uni1E1F" unicode="&#x1e1f;" horiz-adv-x="462" 
d="M608 1796l-41 -235h-225l41 235h225zM500 1436q50 0 121 -19l-39 -129q-41 8 -62 8q-51 0 -80.5 -44.5t-48.5 -151.5l-14 -76h141l-24 -135h-140l-225 -1278h-211l227 1278h-96l23 135h98l12 74q32 181 106.5 259.5t211.5 78.5z" />
    <glyph glyph-name="uni1E24" unicode="&#x1e24;" horiz-adv-x="944" 
d="M727 1337h229l-235 -1337h-229l112 643h-268l-113 -643h-231l237 1337h230l-99 -557h269zM197 -393l45 250h233l-43 -250h-235z" />
    <glyph glyph-name="uni1E25" unicode="&#x1e25;" horiz-adv-x="796" 
d="M571 1044q116 0 152.5 -71.5t5.5 -239.5l-129 -733h-209l123 688q21 118 11.5 168.5t-58.5 50.5q-116 0 -166 -241l-117 -666h-209l248 1395l211 20l-88 -497q42 61 101.5 93.5t123.5 32.5zM123 -393l45 250h233l-43 -250h-235z" />
    <glyph glyph-name="uni1E40" unicode="&#x1e40;" horiz-adv-x="1314" 
d="M954 1690l-43 -236h-225l41 236h227zM1165 1337l-22 -1337h-230l25 950l-348 -950h-182l-17 940l-311 -940h-152l455 1337h221l14 -891l332 891h215z" />
    <glyph glyph-name="uni1E41" unicode="&#x1e41;" horiz-adv-x="1171" 
d="M854 1405l-41 -236h-225l41 236h225zM958 1044q108 0 142.5 -71.5t5.5 -239.5l-129 -733h-209l121 688q22 118 14.5 168.5t-49.5 50.5q-100 0 -149 -209l-123 -698h-209l121 688q22 118 14.5 168.5t-49.5 50.5q-57 0 -97 -65.5t-61 -179.5l-117 -662h-209l183 1024
l211 20l-23 -126q88 126 217 126q77 0 116.5 -37.5t43.5 -119.5q42 75 104 116t131 41z" />
    <glyph glyph-name="uni1E44" unicode="&#x1e44;" horiz-adv-x="944" 
d="M793 1690l-43 -236h-226l41 236h228zM815 1337h141l-235 -1337h-168l-252 940l-166 -940h-143l237 1337h209l224 -868z" />
    <glyph glyph-name="uni1E45" unicode="&#x1e45;" horiz-adv-x="796" 
d="M666 1405l-41 -236h-226l41 236h226zM571 1044q116 0 152.5 -71.5t5.5 -239.5l-129 -733h-209l123 688q21 118 11.5 168.5t-58.5 50.5q-61 0 -103 -66t-63 -179l-117 -662h-209l183 1024l211 20l-23 -126q42 61 101 93.5t124 32.5z" />
    <glyph glyph-name="uni1E56" unicode="&#x1e56;" horiz-adv-x="882" 
d="M713 1690l-43 -236h-226l41 236h228zM543 1337q205 0 280 -100t37 -322q-43 -241 -155 -349.5t-318 -108.5h-84l-80 -457h-231l237 1337h314zM612 915q29 152 5 218.5t-111 66.5h-72l-106 -606h71q86 0 134 73.5t79 247.5z" />
    <glyph glyph-name="uni1E57" unicode="&#x1e57;" horiz-adv-x="806" 
d="M672 1405l-41 -236h-225l40 236h226zM561 1044q137 0 177 -131.5t-11 -418.5q-46 -267 -128.5 -390.5t-215.5 -123.5q-124 0 -180 124l-86 -493h-211l252 1413h180l-25 -141q99 161 248 161zM506 494q37 207 29.5 310t-62.5 103q-128 0 -197 -395q-72 -395 62 -395
q101 0 168 377z" />
    <glyph glyph-name="uni1E5A" unicode="&#x1e5a;" horiz-adv-x="915" 
d="M864 932q-26 -148 -81 -240.5t-144 -138.5l125 -553h-236l-106 504h-19h-92l-88 -504h-231l237 1337h322q200 0 275.5 -96.5t37.5 -308.5zM434 1200l-98 -559h78q83 0 129.5 66t74.5 223q25 146 1.5 208t-107.5 62h-78zM182 -393l45 250h234l-43 -250h-236z" />
    <glyph glyph-name="uni1E5B" unicode="&#x1e5b;" horiz-adv-x="604" 
d="M584 1044q34 0 55 -8l-53 -225q-52 20 -86 20q-79 0 -136 -76t-83 -214l-97 -541h-209l183 1024h209l-33 -180q121 200 250 200zM-106 -393l43 250h235l-43 -250h-235z" />
    <glyph glyph-name="uni1E60" unicode="&#x1e60;" horiz-adv-x="749" 
d="M430 1454l41 236h227l-43 -236h-225zM141 -20q-107 0 -196 47l59 149q82 -53 174 -53q93 0 155.5 64t80.5 165q7 42 0.5 76t-26 60t-41.5 45.5t-54 43.5q-7 4 -10 7q-21 17 -37 31t-35.5 33t-33 37t-27 40.5t-21.5 46.5t-13 51.5t-4 59.5t7 67q29 176 156 292t292 116
q123 0 205 -25l-51 -143q-59 27 -154 24q-76 0 -130 -58t-68 -142q-4 -38 -6 -65.5t7.5 -53.5t19 -44t28 -36t34 -30t37.5 -27q26 -16 44.5 -30t41 -33.5t36 -37.5t28 -43t19 -50.5t7.5 -59.5t-6 -70q-37 -204 -180 -329t-338 -125z" />
    <glyph glyph-name="uni1E61" unicode="&#x1e61;" horiz-adv-x="645" 
d="M303 1169l41 236h225l-41 -236h-225zM121 -20q-105 0 -178 36l55 136q66 -41 154 -41q69 0 115 47t59 118q2 13 2 25t-0.5 21t-5 19t-7.5 16.5t-11.5 15.5t-12 13t-15.5 13l-16 12t-18.5 12.5t-18.5 12.5q-52 35 -84 72t-49.5 98t-3.5 137q23 133 128 217t241 84
q89 0 159 -22l-45 -129q-52 25 -125 22q-53 0 -91.5 -40.5t-49.5 -98.5q-3 -17 -3.5 -32t2.5 -28.5t5.5 -23t11 -20.5t12.5 -16.5t16.5 -15.5t16.5 -13t19.5 -13.5t19.5 -13.5q20 -14 34 -24.5t31.5 -26.5t28.5 -31.5t21.5 -36.5t15 -43.5t4.5 -51.5t-6 -62
q-28 -160 -138 -252t-273 -92z" />
    <glyph glyph-name="uni1E62" unicode="&#x1e62;" horiz-adv-x="749" 
d="M141 -20q-107 0 -196 47l59 149q82 -53 174 -53q93 0 155.5 64t80.5 165q7 42 0.5 76t-26 60t-41.5 45.5t-54 43.5q-7 4 -10 7q-21 17 -37 31t-35.5 33t-33 37t-27 40.5t-21.5 46.5t-13 51.5t-4 59.5t7 67q29 176 156 292t292 116q123 0 205 -25l-51 -143q-59 27 -154 24
q-76 0 -130 -58t-68 -142q-4 -38 -6 -65.5t7.5 -53.5t19 -44t28 -36t34 -30t37.5 -27q26 -16 44.5 -30t41 -33.5t36 -37.5t28 -43t19 -50.5t7.5 -59.5t-6 -70q-37 -204 -180 -329t-338 -125zM10 -393l45 250h234l-43 -250h-236z" />
    <glyph glyph-name="uni1E63" unicode="&#x1e63;" horiz-adv-x="645" 
d="M121 -20q-105 0 -178 36l55 136q66 -41 154 -41q69 0 115 47t59 118q2 13 2 25t-0.5 21t-5 19t-7.5 16.5t-11.5 15.5t-12 13t-15.5 13l-16 12t-18.5 12.5t-18.5 12.5q-52 35 -84 72t-49.5 98t-3.5 137q23 133 128 217t241 84q89 0 159 -22l-45 -129q-52 25 -125 22
q-53 0 -91.5 -40.5t-49.5 -98.5q-3 -17 -3.5 -32t2.5 -28.5t5.5 -23t11 -20.5t12.5 -16.5t16.5 -15.5t16.5 -13t19.5 -13.5t19.5 -13.5q20 -14 34 -24.5t31.5 -26.5t28.5 -31.5t21.5 -36.5t15 -43.5t4.5 -51.5t-6 -62q-28 -160 -138 -252t-273 -92zM47 -393l45 250h234
l-43 -250h-236z" />
    <glyph glyph-name="uni1E6A" unicode="&#x1e6a;" horiz-adv-x="811" 
d="M707 1690l-43 -236h-226l41 236h228zM901 1337l-22 -137h-261l-212 -1200h-230l213 1200h-262l27 137h747z" />
    <glyph glyph-name="uni1E6B" unicode="&#x1e6b;" horiz-adv-x="526" 
d="M494 1593l-41 -235h-226l41 235h226zM358 881l-104 -594q-15 -90 1 -128t71 -38q39 0 75 8l-22 -125q-85 -24 -150 -24q-128 0 -170.5 72t-13.5 239l105 590h-95l25 143h94l31 172l219 61l-41 -233h170l-27 -143h-168z" />
    <glyph glyph-name="uni1E6C" unicode="&#x1e6c;" horiz-adv-x="811" 
d="M901 1337l-22 -137h-261l-212 -1200h-230l213 1200h-262l27 137h747zM106 -393l46 250h233l-43 -250h-236z" />
    <glyph glyph-name="uni1E6D" unicode="&#x1e6d;" horiz-adv-x="526" 
d="M358 881l-104 -594q-15 -90 1 -128t71 -38q39 0 75 8l-22 -125q-85 -24 -150 -24q-128 0 -170.5 72t-13.5 239l105 590h-95l25 143h94l31 172l219 61l-41 -233h170l-27 -143h-168zM-12 -393l45 250h233l-43 -250h-235z" />
    <glyph glyph-name="Wgrave" unicode="&#x1e80;" horiz-adv-x="1284" 
d="M934 1454h-203l-174 293h268zM1227 1337h153l-483 -1337h-203l-4 903l-317 -903h-217l-6 1337h235l-4 -888l309 888h217l4 -888z" />
    <glyph glyph-name="wgrave" unicode="&#x1e81;" horiz-adv-x="1060" 
d="M788 1169h-188l-203 285h273zM977 1024h135l-410 -1024h-153l-25 616l-239 -616h-150l-55 1024h223l14 -666l250 666h150l12 -659z" />
    <glyph glyph-name="Wacute" unicode="&#x1e82;" horiz-adv-x="1284" 
d="M1190 1747l-307 -293h-197l229 293h275zM1227 1337h153l-483 -1337h-203l-4 903l-317 -903h-217l-6 1337h235l-4 -888l309 888h217l4 -888z" />
    <glyph glyph-name="wacute" unicode="&#x1e83;" horiz-adv-x="1060" 
d="M999 1454l-301 -285h-157l196 285h262zM977 1024h135l-410 -1024h-153l-25 616l-239 -616h-150l-55 1024h223l14 -666l250 666h150l12 -659z" />
    <glyph glyph-name="Wdieresis" unicode="&#x1e84;" horiz-adv-x="1284" 
d="M799 1681l-41 -227h-217l41 227h217zM1128 1681l-41 -227h-219l41 227h219zM1227 1337h153l-483 -1337h-203l-4 903l-317 -903h-217l-6 1337h235l-4 -888l309 888h217l4 -888z" />
    <glyph glyph-name="wdieresis" unicode="&#x1e85;" horiz-adv-x="1060" 
d="M637 1380l-37 -211h-203l37 211h203zM956 1380l-36 -211h-203l37 211h202zM977 1024h135l-410 -1024h-153l-25 616l-239 -616h-150l-55 1024h223l14 -666l250 666h150l12 -659z" />
    <glyph glyph-name="uni1E92" unicode="&#x1e92;" horiz-adv-x="768" 
d="M815 1337l-573 -1200h387l-25 -137h-674l582 1200h-348l22 137h629zM109 -393l45 250h233l-43 -250h-235z" />
    <glyph glyph-name="uni1E93" unicode="&#x1e93;" horiz-adv-x="643" 
d="M666 1024l-453 -891h289l-23 -131h-553l457 893h-270l24 129h529zM45 -393l45 250h234l-43 -250h-236z" />
    <glyph glyph-name="uni1E9E" unicode="&#x1e9e;" horiz-adv-x="1499" 
d="M141 -20q-107 0 -196 47l59 149q82 -53 174 -53q93 0 155.5 64t80.5 165q7 42 0.5 76t-26 60t-41.5 45.5t-54 43.5q-7 4 -10 7q-21 17 -37 31t-35.5 33t-33 37t-27 40.5t-21.5 46.5t-13 51.5t-4 59.5t7 67q29 176 156 292t292 116q123 0 205 -25l-51 -143q-59 27 -154 24
q-76 0 -130 -58t-68 -142q-4 -38 -6 -65.5t7.5 -53.5t19 -44t28 -36t34 -30t37.5 -27q26 -16 44.5 -30t41 -33.5t36 -37.5t28 -43t19 -50.5t7.5 -59.5t-6 -70q-37 -204 -180 -329t-338 -125zM891 -20q-108 0 -197 47l60 149q82 -53 174 -53q93 0 155 63.5t80 165.5
q7 42 0.5 76t-26 60t-41.5 45.5t-54 43.5q-7 4 -10 7q-21 17 -37 31t-35.5 33t-33 37t-27 40.5t-21.5 46.5t-13 51.5t-4 59.5t7 67q29 175 156.5 291.5t292.5 116.5q123 0 205 -25l-52 -143q-59 27 -153 24q-76 0 -130.5 -58t-68.5 -142q-13 -68 3.5 -120t43.5 -78.5
t74 -57.5q26 -16 44.5 -30t41 -33.5t36 -37.5t28 -43t19 -50.5t7.5 -59.5t-6 -70q-37 -204 -180 -329t-338 -125z" />
    <glyph glyph-name="uni1EA0" unicode="&#x1ea0;" horiz-adv-x="880" 
d="M735 0h-229l-14 336h-293l-131 -336h-154l549 1337h203zM252 471h233l-22 535zM100 -393l45 250h234l-43 -250h-236z" />
    <glyph glyph-name="uni1EA1" unicode="&#x1ea1;" horiz-adv-x="808" 
d="M604 1024h180l-180 -1024h-180l25 145q-107 -165 -259 -165q-132 0 -170 131t13 417q47 269 131.5 392.5t220.5 123.5q145 0 190 -180zM287 117q126 0 196 397q69 393 -59 393q-54 0 -95 -92t-75 -285q-37 -207 -29.5 -310t62.5 -103zM98 -393l45 250h234l-43 -250h-236z
" />
    <glyph glyph-name="uni1EB8" unicode="&#x1eb8;" horiz-adv-x="794" 
d="M770 1200h-336l-76 -430h308l-25 -137h-307l-86 -496h348l-23 -137h-581l237 1337h566zM109 -393l45 250h233l-43 -250h-235z" />
    <glyph glyph-name="uni1EB9" unicode="&#x1eb9;" horiz-adv-x="768" 
d="M457 1044q172 0 228.5 -119.5t10.5 -383.5q-7 -28 -14 -49h-434q-34 -206 -6.5 -293.5t129.5 -87.5q76 0 200 57l7 -123q-136 -65 -256 -65q-203 0 -272.5 128t-18.5 410q50 277 150.5 401.5t275.5 124.5zM268 606h217q30 167 19.5 238t-66.5 71q-63 0 -101 -70t-69 -239
zM113 -393l45 250h233l-43 -250h-235z" />
    <glyph glyph-name="uni1EBC" unicode="&#x1ebc;" horiz-adv-x="794" 
d="M459 1524q-25 0 -48 -19t-36 -51h-172q35 115 106.5 182.5t157.5 67.5q43 0 75 -17.5t55.5 -35t45.5 -17.5q23 0 46 19t36 51h170q-35 -114 -104.5 -182t-151.5 -68q-38 0 -69 17.5t-57.5 35t-53.5 17.5zM795 1337l-25 -137h-336l-76 -430h308l-25 -137h-307l-86 -496
h348l-23 -137h-581l237 1337h566z" />
    <glyph glyph-name="uni1EBD" unicode="&#x1ebd;" horiz-adv-x="768" 
d="M672 1413h159q-36 -110 -98.5 -177t-134.5 -67q-41 0 -86 32t-70 32q-45 0 -71 -64h-158q35 111 98.5 178.5t139.5 67.5q38 0 65.5 -15.5t48 -30.5t39.5 -15q44 0 68 59zM457 1044q172 0 228.5 -119.5t10.5 -383.5q-7 -28 -14 -49h-434q-34 -206 -6.5 -293.5t129.5 -87.5
q76 0 200 57l7 -123q-136 -65 -256 -65q-203 0 -272.5 128t-18.5 410q50 277 150.5 401.5t275.5 124.5zM268 606h217q30 167 19.5 238t-66.5 71q-63 0 -101 -70t-69 -239z" />
    <glyph glyph-name="uni1ECA" unicode="&#x1eca;" horiz-adv-x="444" 
d="M-8 0l237 1337h230l-236 -1337h-231zM-80 -393l43 250h236l-43 -250h-236z" />
    <glyph glyph-name="uni1ECB" unicode="&#x1ecb;" horiz-adv-x="393" 
d="M184 1171l47 263h207l-45 -263h-209zM-23 0l183 1024h209l-183 -1024h-209zM-80 -393l43 250h236l-43 -250h-236z" />
    <glyph glyph-name="uni1ECC" unicode="&#x1ecc;" horiz-adv-x="935" 
d="M354 -20q-207 0 -271.5 164t-0.5 528q64 361 186 523.5t328 162.5q203 0 266 -162.5t0 -523.5q-63 -363 -184 -527.5t-324 -164.5zM379 123q76 0 130 126.5t105 422.5q54 293 44.5 419t-87.5 126q-79 0 -134.5 -125.5t-106.5 -419.5q-53 -295 -42.5 -422t91.5 -127z
M174 -393l45 250h234l-43 -250h-236z" />
    <glyph glyph-name="uni1ECD" unicode="&#x1ecd;" horiz-adv-x="782" 
d="M274 -20q-177 0 -235.5 126.5t-7.5 405.5q50 280 152 406t280 126q175 0 233 -126.5t11 -405.5q-51 -280 -153.5 -406t-279.5 -126zM297 111q62 0 105 93.5t81 311.5q38 215 28 307t-73 92q-62 0 -105 -92t-81 -307q-38 -218 -27.5 -311.5t72.5 -93.5zM96 -393l45 250
h234l-43 -250h-236z" />
    <glyph glyph-name="uni1EE4" unicode="&#x1ee4;" horiz-adv-x="905" 
d="M367 -20q-188 0 -270.5 109t-47.5 304l168 944h229l-167 -944q-11 -53 -9 -101.5t14.5 -86t44.5 -60t81 -22.5q60 0 105 38.5t70.5 96t39.5 135.5l166 944h143l-168 -948q-35 -192 -135.5 -300.5t-263.5 -108.5zM176 -393l45 250h234l-43 -250h-236z" />
    <glyph glyph-name="uni1EE5" unicode="&#x1ee5;" horiz-adv-x="796" 
d="M563 1024h209l-180 -1024l-213 -20l22 126q-89 -126 -225 -126q-116 0 -153 72.5t-5 240.5l129 731h209l-120 -688q-15 -81 -16 -127.5t13.5 -69t47.5 -22.5q59 0 101 64t62 173zM115 -393l45 250h233l-43 -250h-235z" />
    <glyph glyph-name="Ygrave" unicode="&#x1ef2;" horiz-adv-x="862" 
d="M719 1454h-203l-174 293h268zM803 1337h153l-409 -839l-88 -498h-230l88 498l-167 839h241l119 -612z" />
    <glyph glyph-name="ygrave" unicode="&#x1ef3;" horiz-adv-x="696" 
d="M598 1169h-188l-203 285h272zM614 1024h136l-605 -1413h-131l166 389h-30l-70 1024h223l27 -688z" />
    <glyph glyph-name="uni1EF8" unicode="&#x1ef8;" horiz-adv-x="862" 
d="M528 1524q-25 0 -48 -19t-36 -51h-172q35 115 107 182.5t158 67.5q43 0 75 -17.5t55.5 -35t45.5 -17.5q23 0 46 19t36 51h170q-35 -114 -104.5 -182t-151.5 -68q-38 0 -69.5 17.5t-58 35t-53.5 17.5zM510 725l293 612h153l-409 -839l-88 -498h-230l88 498l-167 839h241z
" />
    <glyph glyph-name="uni1EF9" unicode="&#x1ef9;" horiz-adv-x="696" 
d="M408 1233q-46 0 -72 -64h-158q35 111 98.5 178.5t139.5 67.5q38 0 65.5 -15.5t48 -30.5t39.5 -15q44 0 68 59h160q-36 -110 -99 -177t-135 -67q-41 0 -85.5 32t-69.5 32zM330 336l284 688h136l-605 -1413h-131l166 389h-30l-70 1024h223z" />
    <glyph glyph-name="endash" unicode="&#x2013;" horiz-adv-x="1110" 
d="M41 457l33 190h962l-35 -190h-960z" />
    <glyph glyph-name="emdash" unicode="&#x2014;" horiz-adv-x="1511" 
d="M41 457l33 190h1364l-33 -190h-1364z" />
    <glyph glyph-name="quoteleft" unicode="&#x2018;" horiz-adv-x="430" 
d="M446 1206q-51 0 -90 -32.5t-49 -88.5l-10 -55h119l-49 -276h-263l58 325q22 121 109.5 189.5t199.5 68.5z" />
    <glyph glyph-name="quoteright" unicode="&#x2019;" horiz-adv-x="430" 
d="M207 1337h264l-57 -325q-22 -121 -110.5 -189.5t-199.5 -68.5l23 131q52 0 91.5 33t49.5 88l11 55h-121z" />
    <glyph glyph-name="quotesinglbase" unicode="&#x201a;" horiz-adv-x="423" 
d="M20 270h256l-55 -319q-22 -118 -108 -185t-195 -67l23 129q51 0 89.5 32t47.5 85l10 55h-117z" />
    <glyph glyph-name="quotedblleft" unicode="&#x201c;" horiz-adv-x="808" 
d="M162 1079q22 121 110 189.5t199 68.5l-22 -131q-52 0 -91.5 -32.5t-48.5 -88.5l-10 -55h119l-49 -276h-265zM825 1206q-52 0 -91 -32.5t-48 -88.5l-10 -55h119l-50 -276h-264l58 325q22 121 110 189.5t199 68.5z" />
    <glyph glyph-name="quotedblright" unicode="&#x201d;" horiz-adv-x="806" 
d="M158 1061l49 276h264l-57 -325q-22 -121 -110.5 -189.5t-199.5 -68.5l23 131q52 0 91.5 33t49.5 88l11 55h-121zM584 1337h264l-57 -325q-22 -121 -110.5 -189.5t-199.5 -68.5l23 131q52 0 91.5 33t49.5 88l10 55h-120z" />
    <glyph glyph-name="quotedblbase" unicode="&#x201e;" horiz-adv-x="786" 
d="M-29 0l49 270h256l-55 -319q-22 -118 -108 -185t-195 -67l23 129q51 0 89.5 32t47.5 85l10 55h-117zM381 270h258l-57 -319q-21 -118 -107 -185t-194 -67l22 129q50 0 88 32t47 85l11 55h-115z" />
    <glyph glyph-name="dagger" unicode="&#x2020;" horiz-adv-x="913" 
d="M879 846l-25 -137h-276l-195 -1098h-217l194 1098h-278l24 137h279l86 491h217l-86 -491h277z" />
    <glyph glyph-name="daggerdbl" unicode="&#x2021;" horiz-adv-x="913" 
d="M856 723h-276l-88 -494h278l-25 -137h-276l-86 -481h-217l86 481h-281l25 137h278l88 494h-278l25 137h278l84 477h217l-84 -477h277z" />
    <glyph glyph-name="bullet" unicode="&#x2022;" horiz-adv-x="540" 
d="M43 412l72 401h372l-71 -401h-373z" />
    <glyph glyph-name="ellipsis" unicode="&#x2026;" horiz-adv-x="1271" 
d="M-29 0l49 270h256l-47 -270h-258zM395 0l49 270h256l-47 -270h-258zM819 0l49 270h256l-47 -270h-258z" />
    <glyph glyph-name="perthousand" unicode="&#x2030;" horiz-adv-x="1751" 
d="M297 702q-124 0 -166.5 78t-11.5 250q29 171 99.5 249.5t195.5 78.5q120 0 160.5 -78t11.5 -250q-31 -172 -99.5 -250t-189.5 -78zM121 0l797 1337h169l-798 -1337h-168zM313 799q32 0 53.5 52t43.5 181q23 128 19.5 179t-34.5 51q-35 0 -57.5 -51t-44.5 -179
q-23 -129 -19 -181t39 -52zM801 -18q-124 0 -166.5 77.5t-11.5 249.5q29 171 99.5 249.5t195.5 78.5q120 0 160.5 -78t11.5 -250q-31 -172 -99.5 -249.5t-189.5 -77.5zM1352 -18q-123 0 -165 77.5t-13 249.5q31 172 100.5 250t193.5 78q121 0 162 -78t10 -250
q-29 -172 -97.5 -249.5t-190.5 -77.5zM817 78q32 0 53 51.5t43 181.5q23 127 20 178.5t-34 51.5q-35 0 -57.5 -51t-44.5 -179q-23 -129 -19 -181t39 -52zM1368 78q32 0 54 52t44 181q23 127 19.5 178.5t-35.5 51.5q-34 0 -56 -51t-44 -179q-23 -129 -19.5 -181t37.5 -52z
" />
    <glyph glyph-name="guilsinglleft" unicode="&#x2039;" horiz-adv-x="591" 
d="M561 858l-303 -319l186 -312h-208l-185 316l295 315h215z" />
    <glyph glyph-name="guilsinglright" unicode="&#x203a;" horiz-adv-x="591" 
d="M322 858l184 -315l-295 -316h-217l305 320l-186 311h209z" />
    <glyph glyph-name="fraction" unicode="&#x2044;" horiz-adv-x="256" 
d="M-397 0l850 1337h211l-852 -1337h-209z" />
    <glyph glyph-name="Euro" unicode="&#x20ac;" horiz-adv-x="866" 
d="M715 1208q-80 0 -138.5 -87.5t-103.5 -282.5h313l-71 -113h-664l72 113h115q69 273 188.5 396.5t312.5 123.5q70 0 176 -33l-57 -262zM416 522q-23 -207 4 -300t110 -93q76 0 146 41l-4 -145q-104 -45 -221 -45q-173 0 -238 129t-33 413h-166l72 113h576l-72 -113h-174z
" />
    <glyph glyph-name="trademark" unicode="&#x2122;" horiz-adv-x="1269" 
d="M592 1217h-146l-104 -586h-119l103 586h-144l21 120h411zM1141 1337h174l-125 -706h-113l99 563l-250 -563h-76l-51 555l-99 -555h-114l125 706h176l43 -481z" />
    <glyph glyph-name="arrowleft" unicode="&#x2190;" horiz-adv-x="1204" 
d="M1153 723l-33 -188h-708l196 -273h-280l-267 367l396 366h286l-292 -272h702z" />
    <glyph glyph-name="arrowup" unicode="&#x2191;" horiz-adv-x="874" 
d="M862 1020l-45 -260l-221 248l-176 -1008h-193l176 999l-305 -245l45 266l420 336z" />
    <glyph glyph-name="arrowright" unicode="&#x2192;" horiz-adv-x="1204" 
d="M870 995l267 -366l-396 -367h-288l295 273h-703l35 188h706l-196 272h280z" />
    <glyph glyph-name="arrowdown" unicode="&#x2193;" horiz-adv-x="874" 
d="M479 342l309 248l-49 -266l-417 -336l-302 336l48 260l219 -246l178 1005h192z" />
    <glyph glyph-name="arrowboth" unicode="&#x2194;" horiz-adv-x="1513" 
d="M1198 995l248 -366l-377 -367h-287l281 273h-657l184 -273h-281l-248 367l377 366h289l-283 -272h658l-184 272h280z" />
    <glyph glyph-name="arrowupdn" unicode="&#x2195;" horiz-adv-x="815" 
d="M772 856l-194 213l-138 -790l271 215l-37 -209l-383 -303l-277 303l37 202l195 -213l139 791l-272 -215l39 209l383 301l276 -301z" />
    <glyph glyph-name="uni2196" unicode="&#x2196;" horiz-adv-x="1443" 
d="M1272 113l-160 -133l-768 1009l-76 -428l-170 199l103 577h565l166 -200h-438z" />
    <glyph glyph-name="uni2197" unicode="&#x2197;" horiz-adv-x="1443" 
d="M922 1337h565l-101 -577l-241 -199l76 426l-1123 -1007l-114 133l1138 1024h-440z" />
    <glyph glyph-name="uni2198" unicode="&#x2198;" horiz-adv-x="1443" 
d="M1184 778l170 -198l-103 -580h-565l-168 203h440l-778 1022l160 133l768 -1008z" />
    <glyph glyph-name="uni2199" unicode="&#x2199;" horiz-adv-x="1443" 
d="M1466 1225l-1134 -1022h436l-238 -203h-567l105 580l237 198l-74 -430l1123 1010z" />
    <glyph glyph-name="minus" unicode="&#x2212;" horiz-adv-x="837" 
d="M43 451l29 165h684l-29 -165h-684z" />
    <glyph glyph-name="uni2713" unicode="&#x2713;" horiz-adv-x="837" 
d="M295 477l498 373l-39 -213l-496 -369l-205 209l37 213z" />
    <glyph glyph-name="uniF8FF" unicode="&#xf8ff;" horiz-adv-x="1366" 
d="M674 0q-160 0 -296 79t-215 215t-79 296t79 296t215 215t296 79t296 -79t215 -215t79 -296t-79 -296t-215 -215t-296 -79zM535 236h268l2 12l-100 20v387h55q56 0 83 -36t27 -87q0 -120 -94 -120h-28v-15h36q66 0 107 39t41 107q0 66 -42.5 97.5t-115.5 31.5h-69v153
l208 -10l35 -110l23 4l-10 149h-578l-12 -149l22 -4l37 110l209 10v-557l-100 -20z" />
    <glyph glyph-name="L_periodcentered_L.loclCAT" horiz-adv-x="1615" 
d="M459 1337l-211 -1200h356l-24 -137h-588l237 1337h230zM1083 137h357l-25 -137h-588l238 1337h229zM483 565l54 269h256l-52 -269h-258z" />
    <glyph glyph-name="l_periodcentered_l.loclCAT" horiz-adv-x="1075" 
d="M-25 0l248 1397l211 20l-250 -1417h-209zM649 0l246 1397l211 20l-250 -1417h-207zM397 586l29 270h256l-27 -270h-258z" />
    <glyph glyph-name="a.sc" horiz-adv-x="743" 
d="M387 0l-12 252h-225l-101 -252h-139l436 1024h195l63 -1024h-217zM193 358h178l-19 402z" />
    <glyph glyph-name="aacute.sc" horiz-adv-x="743" 
d="M809 1454l-248 -285h-174l180 285h242zM541 1024l63 -1024h-217l-12 252h-225l-101 -252h-139l436 1024h195zM193 358h178l-19 402z" />
    <glyph glyph-name="abreve.sc" horiz-adv-x="743" 
d="M602 1395h180q-25 -103 -107 -164.5t-196 -61.5q-103 0 -159 61.5t-46 164.5h183q-4 -37 12 -59.5t47 -22.5q26 0 50 22.5t36 59.5zM541 1024l63 -1024h-217l-12 252h-225l-101 -252h-139l436 1024h195zM193 358h178l-19 402z" />
    <glyph glyph-name="uni01CE.sc" horiz-adv-x="743" 
d="M610 1454h209l-211 -285h-239l-113 285h209l47 -164zM541 1024l63 -1024h-217l-12 252h-225l-101 -252h-139l436 1024h195zM193 358h178l-19 402z" />
    <glyph glyph-name="acircumflex.sc" horiz-adv-x="743" 
d="M518 1335l-102 -166h-209l211 285h239l113 -285h-209zM541 1024l63 -1024h-217l-12 252h-225l-101 -252h-139l436 1024h195zM193 358h178l-19 402z" />
    <glyph glyph-name="uni0201.sc" horiz-adv-x="743" 
d="M416 1169h-133l-127 285h217zM707 1169h-132l-126 285h215zM541 1024l63 -1024h-217l-12 252h-225l-101 -252h-139l436 1024h195zM193 358h178l-19 402z" />
    <glyph glyph-name="adieresis.sc" horiz-adv-x="743" 
d="M471 1401l-39 -232h-219l39 232h219zM588 1401h219l-39 -232h-219zM541 1024l63 -1024h-217l-12 252h-225l-101 -252h-139l436 1024h195zM193 358h178l-19 402z" />
    <glyph glyph-name="uni1EA1.sc" horiz-adv-x="743" 
d="M604 0h-217l-12 252h-225l-101 -252h-139l436 1024h195zM193 358h178l-19 402zM96 -393l45 250h234l-43 -250h-236z" />
    <glyph glyph-name="agrave.sc" horiz-adv-x="743" 
d="M590 1159h-180l-158 223h248zM387 0l-12 252h-225l-101 -252h-139l436 1024h195l63 -1024h-217zM193 358h178l-19 402z" />
    <glyph glyph-name="uni0203.sc" horiz-adv-x="743" 
d="M489 1395q114 0 175.5 -61.5t50.5 -164.5h-180q0 37 -16 59.5t-42 22.5q-31 0 -56 -23t-32 -59h-182q25 103 102 164.5t180 61.5zM541 1024l63 -1024h-217l-12 252h-225l-101 -252h-139l436 1024h195zM193 358h178l-19 402z" />
    <glyph glyph-name="amacron.sc" horiz-adv-x="743" 
d="M270 1292h482l-21 -123h-481zM541 1024l63 -1024h-217l-12 252h-225l-101 -252h-139l436 1024h195zM193 358h178l-19 402z" />
    <glyph glyph-name="aogonek.sc" horiz-adv-x="743" 
d="M442 -319q44 0 90 16l3 -125q-74 -29 -179 -29q-98 0 -143 41t-33 119q12 69 82.5 157.5t153.5 139.5h-29l-12 252h-225l-101 -252h-139l436 1024h195l63 -1024h-49q-170 -131 -190 -240q-5 -34 15 -56.5t62 -22.5zM193 358h178l-19 402z" />
    <glyph glyph-name="aring.sc" horiz-adv-x="743" 
d="M508 1405q95 0 147 -61t37 -154q-12 -65 -51.5 -116.5t-97.5 -78.5l61 -995h-217l-12 252h-225l-101 -252h-139l422 991q-49 29 -71.5 81t-10.5 118q17 92 90.5 153.5t167.5 61.5zM569 1188q7 43 -17 71.5t-67 28.5t-75.5 -28.5t-40.5 -71.5t16 -73t66 -30t76 30t42 73z
M193 358h178l-19 402z" />
    <glyph glyph-name="aringacute.sc" horiz-adv-x="743" 
d="M610 1372q50 -27 73 -77.5t13 -114.5q-12 -66 -53 -118.5t-100 -78.5l61 -983h-217l-12 252h-225l-101 -252h-139l420 985q-45 28 -65.5 79.5t-10.5 115.5q13 71 61 124.5t117 77.5l146 230h241zM573 1178q7 43 -17 71.5t-67 28.5t-75.5 -28.5t-40.5 -71.5t16 -73t66 -30
t76 30t42 73zM193 358h178l-19 402z" />
    <glyph glyph-name="atilde.sc" horiz-adv-x="743" 
d="M655 1399h146q-32 -103 -92.5 -166.5t-126.5 -63.5q-39 0 -82 29t-66 29q-22 0 -42 -16t-30 -42h-145q31 103 93 165.5t134 62.5q44 0 85.5 -28t62.5 -28q19 0 36.5 16t26.5 42zM541 1024l63 -1024h-217l-12 252h-225l-101 -252h-139l436 1024h195zM193 358h178l-19 402z
" />
    <glyph glyph-name="ae.sc" horiz-adv-x="1089" 
d="M1028 911h-287l-55 -317h262l-18 -113h-264l-64 -366h297l-20 -115h-506l45 256h-238l-114 -256h-156l489 1024h650zM225 358h211l99 551h-62z" />
    <glyph glyph-name="aeacute.sc" horiz-adv-x="1064" 
d="M987 1319l-252 -209h-153l192 209h213zM1024 911h-287l-55 -317h262l-18 -113h-264l-64 -366h297l-21 -115h-505l45 256h-238l-115 -256h-155l489 1024h649zM221 358h211l98 551h-61z" />
    <glyph glyph-name="b.sc" horiz-adv-x="782" 
d="M721 791q-14 -84 -61 -145.5t-113 -78.5q73 -13 100.5 -86t9.5 -174q-28 -156 -112.5 -231.5t-231.5 -75.5h-331l180 1024h301q149 0 214.5 -57t43.5 -176zM399 911h-49l-53 -303h53q130 0 156 164q12 72 -14 105.5t-93 33.5zM440 307q17 103 -6.5 148t-95.5 45h-59
l-68 -385h63q70 0 108.5 44.5t57.5 147.5z" />
    <glyph glyph-name="uni1E03.sc" horiz-adv-x="782" 
d="M655 1391l-39 -222h-215l39 222h215zM721 791q-14 -84 -61 -145.5t-113 -78.5q73 -13 100.5 -86t9.5 -174q-28 -156 -112.5 -231.5t-231.5 -75.5h-331l180 1024h301q149 0 214.5 -57t43.5 -176zM399 911h-49l-53 -303h53q130 0 156 164q12 72 -14 105.5t-93 33.5z
M440 307q17 103 -6.5 148t-95.5 45h-59l-68 -385h63q70 0 108.5 44.5t57.5 147.5z" />
    <glyph glyph-name="c.sc" horiz-adv-x="645" 
d="M272 -16q-169 0 -223.5 127t-3.5 407q50 274 157 398t296 124q57 0 153 -24l-43 -205l-125 115q-79 0 -130 -95t-89 -313q-40 -223 -21.5 -321.5t101.5 -98.5q64 0 119 31l2 -111q-95 -34 -193 -34z" />
    <glyph glyph-name="cacute.sc" horiz-adv-x="645" 
d="M340 1169l180 285h242l-248 -285h-174zM272 -16q-169 0 -223.5 127t-3.5 407q50 274 157 398t296 124q57 0 153 -24l-43 -205l-125 115q-79 0 -130 -95t-89 -313q-40 -223 -21.5 -321.5t101.5 -98.5q64 0 119 31l2 -111q-95 -34 -193 -34z" />
    <glyph glyph-name="ccaron.sc" horiz-adv-x="645" 
d="M322 1169l-113 285h209l47 -164l98 164h209l-211 -285h-239zM45 518q50 274 157 398t296 124q57 0 153 -24l-43 -205l-125 115q-79 0 -130 -95t-89 -313q-40 -223 -21.5 -321.5t101.5 -98.5q64 0 119 31l2 -111q-95 -34 -193 -34q-169 0 -223.5 127t-3.5 407z" />
    <glyph glyph-name="ccedilla.sc" horiz-adv-x="645" 
d="M498 1040q57 0 153 -24l-43 -205l-125 115q-79 0 -130 -95t-89 -313q-40 -223 -21.5 -321.5t101.5 -98.5q64 0 119 31l2 -111q-85 -31 -174 -34l-43 -84q61 -7 101 -22t57.5 -35.5t24 -46.5t-0.5 -54q-11 -59 -50.5 -103t-101 -69t-132 -37t-154.5 -14v102q59 4 98 10.5
t75 19t55.5 34t25.5 53.5q3 19 -7.5 33.5t-52 29.5t-116.5 23l102 174q-108 34 -138.5 160.5t11.5 359.5q50 274 157 398t296 124z" />
    <glyph glyph-name="ccircumflex.sc" horiz-adv-x="645" 
d="M471 1335l-102 -166h-209l211 285h239l113 -285h-209zM45 518q50 274 157 398t296 124q57 0 153 -24l-43 -205l-125 115q-79 0 -130 -95t-89 -313q-40 -223 -21.5 -321.5t101.5 -98.5q64 0 119 31l2 -111q-95 -34 -193 -34q-169 0 -223.5 127t-3.5 407z" />
    <glyph glyph-name="cdotaccent.sc" horiz-adv-x="645" 
d="M336 1169l39 222h215l-39 -222h-215zM272 -16q-169 0 -223.5 127t-3.5 407q50 274 157 398t296 124q57 0 153 -24l-43 -205l-125 115q-79 0 -130 -95t-89 -313q-40 -223 -21.5 -321.5t101.5 -98.5q64 0 119 31l2 -111q-95 -34 -193 -34z" />
    <glyph glyph-name="d.sc" horiz-adv-x="808" 
d="M434 1024q196 0 263.5 -119t21.5 -385q-49 -274 -159.5 -397t-305.5 -123h-272l180 1024h272zM500 514q38 221 16.5 309t-115.5 88h-51l-139 -796h51q93 0 146.5 89t91.5 310z" />
    <glyph glyph-name="eth.sc" horiz-adv-x="819" 
d="M446 1024q195 0 262.5 -119.5t20.5 -384.5q-46 -273 -156 -396.5t-307 -123.5h-284l81 471h-49l21 117h51l76 436h284zM514 514q27 146 24.5 234t-31.5 125.5t-91 37.5h-66l-55 -323h135l-20 -117h-138l-61 -356h65q92 0 145 88.5t93 310.5z" />
    <glyph glyph-name="dcaron.sc" horiz-adv-x="808" 
d="M399 1169l-112 285h209l47 -164l98 164h209l-211 -285h-240zM434 1024q196 0 263.5 -119t21.5 -385q-49 -274 -159.5 -397t-305.5 -123h-272l180 1024h272zM500 514q38 221 16.5 309t-115.5 88h-51l-139 -796h51q93 0 146.5 89t91.5 310z" />
    <glyph glyph-name="dcroat.sc" horiz-adv-x="819" 
d="M446 1024q195 0 262.5 -119.5t20.5 -384.5q-46 -273 -156 -396.5t-307 -123.5h-284l81 471h-49l21 117h51l76 436h284zM514 514q27 146 24.5 234t-31.5 125.5t-91 37.5h-66l-55 -323h135l-20 -117h-138l-61 -356h65q93 0 146.5 89t91.5 310z" />
    <glyph glyph-name="uni1E0B.sc" horiz-adv-x="808" 
d="M668 1391l-39 -222h-215l39 222h215zM434 1024q196 0 263.5 -119t21.5 -385q-49 -274 -159.5 -397t-305.5 -123h-272l180 1024h272zM500 514q38 221 16.5 309t-115.5 88h-51l-139 -796h51q93 0 146.5 89t91.5 310z" />
    <glyph glyph-name="uni1E0D.sc" horiz-adv-x="808" 
d="M434 1024q196 0 263.5 -119t21.5 -385q-49 -274 -159.5 -397t-305.5 -123h-272l180 1024h272zM500 514q38 221 16.5 309t-115.5 88h-51l-139 -796h51q93 0 146.5 89t91.5 310zM127 -393l45 250h234l-44 -250h-235z" />
    <glyph glyph-name="e.sc" horiz-adv-x="698" 
d="M639 915h-287l-57 -323h262l-18 -111h-265l-63 -370h297l-19 -111h-507l180 1024h495z" />
    <glyph glyph-name="eacute.sc" horiz-adv-x="698" 
d="M776 1454l-248 -285h-174l181 285h241zM657 1024l-18 -109h-287l-57 -323h262l-18 -111h-265l-63 -370h297l-19 -111h-507l180 1024h495z" />
    <glyph glyph-name="ebreve.sc" horiz-adv-x="698" 
d="M567 1395h181q-25 -103 -107.5 -164.5t-196.5 -61.5q-103 0 -158.5 61.5t-45.5 164.5h182q-4 -37 12 -59.5t47 -22.5q26 0 50 22.5t36 59.5zM657 1024l-18 -109h-287l-57 -323h262l-18 -111h-265l-63 -370h297l-19 -111h-507l180 1024h495z" />
    <glyph glyph-name="ecaron.sc" horiz-adv-x="698" 
d="M334 1169l-113 285h209l47 -164l98 164h209l-211 -285h-239zM657 1024l-18 -109h-287l-57 -323h262l-18 -111h-265l-63 -370h297l-19 -111h-507l180 1024h495z" />
    <glyph glyph-name="ecircumflex.sc" horiz-adv-x="698" 
d="M483 1335l-102 -166h-209l211 285h240l112 -285h-209zM657 1024l-18 -109h-287l-57 -323h262l-18 -111h-265l-63 -370h297l-19 -111h-507l180 1024h495z" />
    <glyph glyph-name="uni0205.sc" horiz-adv-x="698" 
d="M381 1169h-133l-127 285h217zM672 1169h-131l-127 285h215zM657 1024l-18 -109h-287l-57 -323h262l-18 -111h-265l-63 -370h297l-19 -111h-507l180 1024h495z" />
    <glyph glyph-name="edieresis.sc" horiz-adv-x="698" 
d="M436 1401l-39 -232h-219l39 232h219zM553 1401h219l-39 -232h-219zM657 1024l-18 -109h-287l-57 -323h262l-18 -111h-265l-63 -370h297l-19 -111h-507l180 1024h495z" />
    <glyph glyph-name="edotaccent.sc" horiz-adv-x="698" 
d="M602 1391l-39 -222h-215l39 222h215zM639 915h-287l-57 -323h262l-18 -111h-265l-63 -370h297l-19 -111h-507l180 1024h495z" />
    <glyph glyph-name="uni1EB9.sc" horiz-adv-x="698" 
d="M639 915h-287l-57 -323h262l-18 -111h-265l-63 -370h297l-19 -111h-507l180 1024h495zM61 -393l45 250h234l-43 -250h-236z" />
    <glyph glyph-name="egrave.sc" horiz-adv-x="698" 
d="M557 1159h-180l-158 223h248zM639 915h-287l-57 -323h262l-18 -111h-265l-63 -370h297l-19 -111h-507l180 1024h495z" />
    <glyph glyph-name="uni0207.sc" horiz-adv-x="698" 
d="M455 1395q114 0 175 -61.5t50 -164.5h-180q0 37 -16 59.5t-42 22.5q-31 0 -56 -23t-32 -59h-182q25 102 102.5 164t180.5 62zM657 1024l-18 -109h-287l-57 -323h262l-18 -111h-265l-63 -370h297l-19 -111h-507l180 1024h495z" />
    <glyph glyph-name="emacron.sc" horiz-adv-x="698" 
d="M236 1292h481l-21 -123h-481zM657 1024l-18 -109h-287l-57 -323h262l-18 -111h-265l-63 -370h297l-19 -111h-507l180 1024h495z" />
    <glyph glyph-name="eogonek.sc" horiz-adv-x="698" 
d="M639 915h-287l-57 -323h262l-18 -111h-265l-63 -370h297l-19 -111h-34q-171 -132 -191 -240q-5 -34 15.5 -56.5t62.5 -22.5q44 0 90 16l2 -125q-74 -29 -178 -29q-98 0 -143 41t-33 119q12 69 82 157.5t153 139.5h-333l180 1024h495z" />
    <glyph glyph-name="uni1EBD.sc" horiz-adv-x="698" 
d="M621 1399h145q-32 -103 -92.5 -166.5t-126.5 -63.5q-39 0 -82 29t-66 29q-22 0 -41 -16t-30 -42h-146q31 103 93.5 165.5t134.5 62.5q44 0 85 -28t62 -28q19 0 37 16t27 42zM657 1024l-18 -109h-287l-57 -323h262l-18 -111h-265l-63 -370h297l-19 -111h-507l180 1024h495
z" />
    <glyph glyph-name="uni0259.sc" horiz-adv-x="796" 
d="M414 1044q206 0 273 -124t18 -412q-51 -282 -151 -405t-278 -123q-168 0 -226 119.5t-11 385.5q7 35 12 50h436q34 205 6.5 292.5t-128.5 87.5q-76 0 -203 -57l-6 121q130 65 258 65zM297 111q62 0 99.5 69.5t68.5 237.5h-217q-28 -166 -17.5 -236.5t66.5 -70.5z" />
    <glyph glyph-name="f.sc" horiz-adv-x="653" 
d="M639 915h-287l-61 -340h264l-20 -110h-263l-82 -465h-208l180 1024h495z" />
    <glyph glyph-name="uni1E1F.sc" horiz-adv-x="653" 
d="M592 1391l-39 -222h-215l39 222h215zM639 915h-287l-61 -340h264l-20 -110h-263l-82 -465h-208l180 1024h495z" />
    <glyph glyph-name="g.sc" horiz-adv-x="815" 
d="M559 928q-120 0 -188.5 -97t-108.5 -319q-39 -220 -11.5 -318t128.5 -98q33 0 49 2l61 353h-127l21 110h322l-97 -528q-112 -49 -248 -49q-215 0 -290.5 126t-24.5 402q47 277 171 402.5t349 125.5q112 0 185 -24l-21 -113q-82 25 -170 25z" />
    <glyph glyph-name="uni01F5.sc" horiz-adv-x="815" 
d="M842 1454l-248 -285h-174l180 285h242zM45 512q47 277 171 402.5t349 125.5q112 0 185 -24l-21 -113q-82 25 -170 25q-120 0 -188.5 -97t-108.5 -319q-39 -220 -11.5 -318t128.5 -98q33 0 49 2l61 353h-127l21 110h322l-97 -528q-112 -49 -248 -49q-215 0 -290.5 126
t-24.5 402z" />
    <glyph glyph-name="gbreve.sc" horiz-adv-x="815" 
d="M510 1169q-103 0 -159 61.5t-46 164.5h182q-4 -37 12.5 -59.5t47.5 -22.5q26 0 50 22.5t36 59.5h180q-25 -103 -107 -164.5t-196 -61.5zM45 512q47 277 171 402.5t349 125.5q112 0 185 -24l-21 -113q-82 25 -170 25q-120 0 -188.5 -97t-108.5 -319q-39 -220 -11.5 -318
t128.5 -98q33 0 49 2l61 353h-127l21 110h322l-97 -528q-112 -49 -248 -49q-215 0 -290.5 126t-24.5 402z" />
    <glyph glyph-name="gcaron.sc" horiz-adv-x="815" 
d="M399 1169l-112 285h209l47 -164l98 164h209l-211 -285h-240zM45 512q47 277 171 402.5t349 125.5q112 0 185 -24l-21 -113q-82 25 -170 25q-120 0 -188.5 -97t-108.5 -319q-39 -220 -11.5 -318t128.5 -98q33 0 49 2l61 353h-127l21 110h322l-97 -528q-112 -49 -248 -49
q-215 0 -290.5 126t-24.5 402z" />
    <glyph glyph-name="gcircumflex.sc" horiz-adv-x="815" 
d="M549 1335l-103 -166h-208l211 285h239l113 -285h-209zM45 512q47 277 171 402.5t349 125.5q112 0 185 -24l-21 -113q-82 25 -170 25q-120 0 -188.5 -97t-108.5 -319q-39 -220 -11.5 -318t128.5 -98q33 0 49 2l61 353h-127l21 110h322l-97 -528q-112 -49 -248 -49
q-215 0 -290.5 126t-24.5 402z" />
    <glyph glyph-name="uni0123.sc" horiz-adv-x="815" 
d="M559 928q-120 0 -188.5 -97t-108.5 -319q-39 -220 -11.5 -318t128.5 -98q33 0 49 2l61 353h-127l21 110h322l-97 -528q-112 -49 -248 -49q-215 0 -290.5 126t-24.5 402q47 277 171 402.5t349 125.5q112 0 185 -24l-21 -113q-82 25 -170 25zM170 -143h236l-27 -150
l-25 -143q-19 -108 -98.5 -170t-179.5 -62l20 119q46 0 82 29.5t45 79.5l8 49h-106z" />
    <glyph glyph-name="gdotaccent.sc" horiz-adv-x="815" 
d="M668 1391l-39 -222h-215l39 222h215zM559 928q-120 0 -188.5 -97t-108.5 -319q-39 -220 -11.5 -318t128.5 -98q33 0 49 2l61 353h-127l21 110h322l-97 -528q-112 -49 -248 -49q-215 0 -290.5 126t-24.5 402q47 277 171 402.5t349 125.5q112 0 185 -24l-21 -113
q-82 25 -170 25z" />
    <glyph glyph-name="h.sc" horiz-adv-x="823" 
d="M586 1024h207l-181 -1024h-209l86 487h-213l-86 -487h-208l180 1024h209l-76 -426h215z" />
    <glyph glyph-name="hbar.sc" horiz-adv-x="845" 
d="M870 864l-16 -86h-78l-139 -778h-207l86 487h-240l-86 -487h-208l137 778h-78l14 86h78l29 160h209l-29 -160h240l28 160h209l-28 -160h79zM537 600l30 178h-239l-31 -178h240z" />
    <glyph glyph-name="hcircumflex.sc" horiz-adv-x="823" 
d="M557 1335l-102 -166h-209l211 285h239l113 -285h-209zM510 598l76 426h207l-181 -1024h-209l86 487h-213l-86 -487h-208l180 1024h209l-76 -426h215z" />
    <glyph glyph-name="uni1E25.sc" horiz-adv-x="823" 
d="M586 1024h207l-181 -1024h-209l86 487h-213l-86 -487h-208l180 1024h209l-76 -426h215zM135 -393l45 250h234l-43 -250h-236z" />
    <glyph glyph-name="i.sc" horiz-adv-x="401" 
d="M-18 0l180 1024h209l-181 -1024h-208z" />
    <glyph glyph-name="dotlessi.sc" horiz-adv-x="401" 
d="M-18 0l180 1024h209l-181 -1024h-208z" />
    <glyph glyph-name="iacute.sc" horiz-adv-x="401" 
d="M215 1169l180 285h242l-248 -285h-174zM-18 0l180 1024h209l-181 -1024h-208z" />
    <glyph glyph-name="ibreve.sc" horiz-adv-x="401" 
d="M307 1169q-103 0 -159 61.5t-46 164.5h183q-4 -37 12 -59.5t47 -22.5q26 0 50 22.5t36 59.5h180q-25 -103 -107 -164.5t-196 -61.5zM-18 0l180 1024h209l-181 -1024h-208z" />
    <glyph glyph-name="uni01D0.sc" horiz-adv-x="401" 
d="M438 1454h209l-211 -285h-239l-113 285h209l47 -164zM-18 0l180 1024h209l-181 -1024h-208z" />
    <glyph glyph-name="icircumflex.sc" horiz-adv-x="401" 
d="M485 1454l113 -285h-209l-43 166l-102 -166h-209l211 285h239zM-18 0l180 1024h209l-181 -1024h-208z" />
    <glyph glyph-name="uni0209.sc" horiz-adv-x="401" 
d="M109 1169l-127 285h217l43 -285h-133zM401 1169l-127 285h215l43 -285h-131zM-18 0l180 1024h209l-181 -1024h-208z" />
    <glyph glyph-name="idieresis.sc" horiz-adv-x="401" 
d="M41 1169l39 232h219l-39 -232h-219zM377 1169l39 232h219l-39 -232h-219zM-18 0l180 1024h209l-181 -1024h-208z" />
    <glyph glyph-name="uni1ECB.sc" horiz-adv-x="401" 
d="M-18 0l180 1024h209l-181 -1024h-208zM-78 -393l43 250h236l-43 -250h-236z" />
    <glyph glyph-name="igrave.sc" horiz-adv-x="401" 
d="M238 1159l-158 223h248l90 -223h-180zM-18 0l180 1024h209l-181 -1024h-208z" />
    <glyph glyph-name="uni020B.sc" horiz-adv-x="401" 
d="M35 1169q25 103 102 164.5t180 61.5q114 0 175.5 -61.5t50.5 -164.5h-181q0 37 -15.5 59.5t-41.5 22.5q-31 0 -56 -23t-32 -59h-182zM-18 0l180 1024h209l-181 -1024h-208z" />
    <glyph glyph-name="imacron.sc" horiz-adv-x="401" 
d="M78 1169l20 123h482l-21 -123h-481zM-18 0l180 1024h209l-181 -1024h-208z" />
    <glyph glyph-name="iogonek.sc" horiz-adv-x="401" 
d="M143 0q-174 -134 -190 -240q-5 -34 15.5 -56.5t62.5 -22.5q44 0 90 16l2 -125q-74 -29 -180 -29q-98 0 -142.5 41t-31.5 119q10 69 80.5 157.5t154.5 139.5h-22l180 1024h209l-181 -1024h-47z" />
    <glyph glyph-name="itilde.sc" horiz-adv-x="401" 
d="M45 1169q31 103 93 165.5t134 62.5q44 0 85.5 -28t62.5 -28q19 0 36.5 16t26.5 42h146q-32 -103 -92.5 -166.5t-126.5 -63.5q-39 0 -82 29t-66 29q-22 0 -42 -16t-30 -42h-145zM-18 0l180 1024h209l-181 -1024h-208z" />
    <glyph glyph-name="j.sc" horiz-adv-x="401" 
d="M-152 -285q-69 0 -96 6l29 113q48 -6 57 -6q60 0 93.5 41t50.5 139l182 1016h207l-178 -1016q-28 -155 -109.5 -224t-235.5 -69z" />
    <glyph glyph-name="jcircumflex.sc" horiz-adv-x="401" 
d="M485 1454l113 -285h-209l-43 166l-102 -166h-209l211 285h239zM-18 8l182 1016h207l-178 -1016q-28 -155 -109.5 -224t-235.5 -69q-69 0 -96 6l29 113q48 -6 57 -6q60 0 93.5 41t50.5 139z" />
    <glyph glyph-name="k.sc" horiz-adv-x="794" 
d="M815 1026l-346 -408l180 -618h-217l-121 432l-57 -67l-64 -365h-208l180 1024h209l-70 -395l326 397h188z" />
    <glyph glyph-name="uni0137.sc" horiz-adv-x="794" 
d="M815 1026l-346 -408l180 -618h-217l-121 432l-57 -67l-64 -365h-208l180 1024h209l-70 -395l326 397h188zM166 -143h235l-26 -150l-25 -143q-19 -108 -98.5 -170t-179.5 -62l20 119q46 0 82 29.5t45 79.5l8 49h-106z" />
    <glyph glyph-name="kgreenlandic.sc" horiz-adv-x="794" 
d="M815 1026l-346 -408l180 -618h-217l-121 432l-57 -67l-64 -365h-208l180 1024h209l-70 -395l326 397h188z" />
    <glyph glyph-name="l.sc" horiz-adv-x="651" 
d="M211 111h295l-19 -111h-505l180 1024h209z" />
    <glyph glyph-name="lacute.sc" horiz-adv-x="651" 
d="M614 1454l-247 -285h-174l180 285h241zM371 1024l-160 -913h295l-19 -111h-505l180 1024h209z" />
    <glyph glyph-name="lcaron.sc" horiz-adv-x="765" 
d="M539 1102h264l-58 -326q-22 -121 -110 -189.5t-199 -68.5l23 131q52 0 91.5 33t49.5 88l10 55h-121zM371 1024l-160 -913h295l-19 -111h-505l180 1024h209z" />
    <glyph glyph-name="uni013C.sc" horiz-adv-x="651" 
d="M211 111h295l-19 -111h-505l180 1024h209zM92 -143h236l-27 -150l-25 -143q-19 -108 -98.5 -170t-179.5 -62l20 119q46 0 82 29.5t45 79.5l9 49h-107z" />
    <glyph glyph-name="l_periodcentered_l.loclCAT.sc" horiz-adv-x="1413" 
d="M371 1024l-160 -913h295l-19 -111h-505l180 1024h209zM948 111h295l-18 -111h-506l180 1024h209zM408 504l51 268h256l-49 -268h-258z" />
    <glyph glyph-name="lslash.sc" horiz-adv-x="651" 
d="M268 442l-57 -327h297l-21 -115h-505l61 346l-96 -49l26 145l95 50l94 532h209l-78 -438l229 125l-24 -146z" />
    <glyph glyph-name="m.sc" horiz-adv-x="1089" 
d="M946 0h-205l-4 700l-250 -700h-180l-4 709l-254 -709h-137l377 1024h207l6 -645l237 645h195z" />
    <glyph glyph-name="uni1E41.sc" horiz-adv-x="1089" 
d="M809 1391l-39 -222h-215l39 222h215zM946 0h-205l-4 700l-250 -700h-180l-4 709l-254 -709h-137l377 1024h207l6 -645l237 645h195z" />
    <glyph glyph-name="n.sc" horiz-adv-x="823" 
d="M664 1024h129l-183 -1024h-151l-226 692l-122 -692h-129l180 1024h186l201 -651z" />
    <glyph glyph-name="nacute.sc" horiz-adv-x="823" 
d="M848 1454l-248 -285h-174l180 285h242zM549 373l115 651h129l-183 -1024h-151l-226 692l-122 -692h-129l180 1024h186z" />
    <glyph glyph-name="napostrophe.sc" horiz-adv-x="1198" 
d="M471 1337l-57 -325q-22 -121 -110.5 -189.5t-199.5 -68.5l23 131q52 0 91.5 33t49.5 88l11 55h-121l49 276h264zM1022 1024h129l-182 -1024h-152l-225 692l-123 -692h-129l180 1024h187l200 -651z" />
    <glyph glyph-name="ncaron.sc" horiz-adv-x="823" 
d="M408 1169l-113 285h209l47 -164l98 164h209l-211 -285h-239zM549 373l115 651h129l-183 -1024h-151l-226 692l-122 -692h-129l180 1024h186z" />
    <glyph glyph-name="uni0146.sc" horiz-adv-x="823" 
d="M664 1024h129l-183 -1024h-151l-226 692l-122 -692h-129l180 1024h186l201 -651zM178 -143h236l-27 -150l-25 -143q-19 -108 -98.5 -170t-179.5 -62l20 119q46 0 82 29.5t45 79.5l9 49h-107z" />
    <glyph glyph-name="uni1E45.sc" horiz-adv-x="823" 
d="M676 1391l-39 -222h-215l39 222h215zM664 1024h129l-183 -1024h-151l-226 692l-122 -692h-129l180 1024h186l201 -651z" />
    <glyph glyph-name="eng.sc" horiz-adv-x="827" 
d="M670 1024h125l-205 -1176q-25 -137 -87.5 -197.5t-180.5 -60.5q-48 0 -121 13l39 110q38 -10 61 -10q72 0 109.5 38t54.5 130l22 129h-26l-228 694l-122 -694h-129l180 1024h188l203 -655z" />
    <glyph glyph-name="uni0272.sc" horiz-adv-x="825" 
d="M668 1024h127l-181 -1024h-155l-226 690l-153 -870q-42 -230 -203 -230q-87 0 -156 31l43 105q51 -15 78 -15q89 0 107 107l213 1206h186l203 -649z" />
    <glyph glyph-name="ntilde.sc" horiz-adv-x="823" 
d="M473 1227q-22 0 -42 -16t-30 -42h-145q31 103 93 165.5t134 62.5q44 0 85.5 -28t62.5 -28q19 0 36.5 16t26.5 42h146q-32 -103 -92.5 -166.5t-126.5 -63.5q-39 0 -82 29t-66 29zM549 373l115 651h129l-183 -1024h-151l-226 692l-122 -692h-129l180 1024h186z" />
    <glyph glyph-name="o.sc" horiz-adv-x="817" 
d="M293 -16q-180 0 -239 126t-9 404q47 276 150.5 401t283.5 125q179 0 237 -124.5t9 -401.5q-47 -278 -150 -404t-282 -126zM315 96q63 0 108 98t83 320q38 221 28 317.5t-73 96.5q-67 0 -112 -95.5t-85 -318.5q-39 -223 -27.5 -320.5t78.5 -97.5z" />
    <glyph glyph-name="oacute.sc" horiz-adv-x="817" 
d="M424 1169l180 285h242l-248 -285h-174zM293 -16q-180 0 -239 126t-9 404q47 276 150.5 401t283.5 125q179 0 237 -124.5t9 -401.5q-47 -278 -150 -404t-282 -126zM315 96q63 0 108 98t83 320q38 221 28 317.5t-73 96.5q-67 0 -112 -95.5t-85 -318.5
q-39 -223 -27.5 -320.5t78.5 -97.5z" />
    <glyph glyph-name="obreve.sc" horiz-adv-x="817" 
d="M516 1169q-103 0 -159 61.5t-46 164.5h183q-4 -37 12 -59.5t47 -22.5q26 0 50 22.5t36 59.5h180q-25 -103 -107 -164.5t-196 -61.5zM293 -16q-180 0 -239 126t-9 404q47 276 150.5 401t283.5 125q179 0 237 -124.5t9 -401.5q-47 -278 -150 -404t-282 -126zM315 96
q63 0 108 98t83 320q38 221 28 317.5t-73 96.5q-67 0 -112 -95.5t-85 -318.5q-39 -223 -27.5 -320.5t78.5 -97.5z" />
    <glyph glyph-name="uni01D2.sc" horiz-adv-x="817" 
d="M406 1169l-113 285h209l47 -164l98 164h209l-211 -285h-239zM479 1040q179 0 237 -124.5t9 -401.5q-47 -278 -150 -404t-282 -126q-180 0 -239 126t-9 404q47 276 150.5 401t283.5 125zM506 514q38 221 28 317.5t-73 96.5q-67 0 -112 -95.5t-85 -318.5
q-39 -223 -27.5 -320.5t78.5 -97.5q63 0 108 98t83 320z" />
    <glyph glyph-name="ocircumflex.sc" horiz-adv-x="817" 
d="M555 1335l-102 -166h-209l211 285h239l113 -285h-209zM479 1040q179 0 237 -124.5t9 -401.5q-47 -278 -150 -404t-282 -126q-180 0 -239 126t-9 404q47 276 150.5 401t283.5 125zM506 514q38 221 28 317.5t-73 96.5q-67 0 -112 -95.5t-85 -318.5q-39 -223 -27.5 -320.5
t78.5 -97.5q63 0 108 98t83 320z" />
    <glyph glyph-name="uni020D.sc" horiz-adv-x="817" 
d="M319 1169l-126 285h217l43 -285h-134zM612 1169l-127 285h215l43 -285h-131zM293 -16q-180 0 -239 126t-9 404q47 276 150.5 401t283.5 125q179 0 237 -124.5t9 -401.5q-47 -278 -150 -404t-282 -126zM315 96q63 0 108 98t83 320q38 221 28 317.5t-73 96.5
q-67 0 -112 -95.5t-85 -318.5q-39 -223 -27.5 -320.5t78.5 -97.5z" />
    <glyph glyph-name="odieresis.sc" horiz-adv-x="817" 
d="M250 1169l39 232h219l-39 -232h-219zM586 1169l39 232h219l-39 -232h-219zM293 -16q-180 0 -239 126t-9 404q47 276 150.5 401t283.5 125q179 0 237 -124.5t9 -401.5q-47 -278 -150 -404t-282 -126zM315 96q63 0 108 98t83 320q38 221 28 317.5t-73 96.5
q-67 0 -112 -95.5t-85 -318.5q-39 -223 -27.5 -320.5t78.5 -97.5z" />
    <glyph glyph-name="uni1ECD.sc" horiz-adv-x="817" 
d="M293 -16q-180 0 -239 126t-9 404q47 276 150.5 401t283.5 125q179 0 237 -124.5t9 -401.5q-47 -278 -150 -404t-282 -126zM315 96q63 0 108 98t83 320q38 221 28 317.5t-73 96.5q-67 0 -112 -95.5t-85 -318.5q-39 -223 -27.5 -320.5t78.5 -97.5zM133 -393l45 250h234
l-43 -250h-236z" />
    <glyph glyph-name="ograve.sc" horiz-adv-x="817" 
d="M446 1159l-157 223h248l90 -223h-181zM293 -16q-180 0 -239 126t-9 404q47 276 150.5 401t283.5 125q179 0 237 -124.5t9 -401.5q-47 -278 -150 -404t-282 -126zM315 96q63 0 108 98t83 320q38 221 28 317.5t-73 96.5q-67 0 -112 -95.5t-85 -318.5q-39 -223 -27.5 -320.5
t78.5 -97.5z" />
    <glyph glyph-name="ohungarumlaut.sc" horiz-adv-x="817" 
d="M309 1169l142 285h217l-226 -285h-133zM602 1169l141 285h215l-225 -285h-131zM293 -16q-180 0 -239 126t-9 404q47 276 150.5 401t283.5 125q179 0 237 -124.5t9 -401.5q-47 -278 -150 -404t-282 -126zM315 96q63 0 108 98t83 320q38 221 28 317.5t-73 96.5
q-67 0 -112 -95.5t-85 -318.5q-39 -223 -27.5 -320.5t78.5 -97.5z" />
    <glyph glyph-name="uni020F.sc" horiz-adv-x="817" 
d="M244 1169q25 103 102 164.5t180 61.5q114 0 175.5 -61.5t50.5 -164.5h-181q0 37 -15.5 59.5t-41.5 22.5q-31 0 -56 -23t-32 -59h-182zM293 -16q-180 0 -239 126t-9 404q47 276 150.5 401t283.5 125q179 0 237 -124.5t9 -401.5q-47 -278 -150 -404t-282 -126zM315 96
q63 0 108 98t83 320q38 221 28 317.5t-73 96.5q-67 0 -112 -95.5t-85 -318.5q-39 -223 -27.5 -320.5t78.5 -97.5z" />
    <glyph glyph-name="omacron.sc" horiz-adv-x="817" 
d="M287 1169l20 123h481l-20 -123h-481zM293 -16q-180 0 -239 126t-9 404q47 276 150.5 401t283.5 125q179 0 237 -124.5t9 -401.5q-47 -278 -150 -404t-282 -126zM315 96q63 0 108 98t83 320q38 221 28 317.5t-73 96.5q-67 0 -112 -95.5t-85 -318.5q-39 -223 -27.5 -320.5
t78.5 -97.5z" />
    <glyph glyph-name="uni01EB.sc" horiz-adv-x="817" 
d="M479 1040q179 0 237 -124.5t9 -401.5q-35 -203 -98.5 -324t-161.5 -170q-113 -102 -129 -188q-5 -34 15.5 -57t62.5 -23q41 0 90 17l2 -125q-74 -29 -178 -29q-98 0 -143 41t-33 119q7 45 41.5 101t85.5 108q-170 4 -225.5 131t-8.5 399q47 276 150.5 401t283.5 125z
M264 514q-39 -223 -27.5 -320.5t78.5 -97.5q63 0 108 98t83 320q38 221 28 317.5t-73 96.5q-67 0 -112 -95.5t-85 -318.5z" />
    <glyph glyph-name="oslash.sc" horiz-adv-x="811" 
d="M858 1024l-131 -156q34 -125 -6 -354q-50 -279 -152 -404.5t-280 -125.5q-158 0 -221 100l-70 -84h-96l135 160q-33 122 8 354q47 276 149.5 401t280.5 125q160 0 219 -98l70 82h94zM266 514q-14 -89 -16 -102l282 338q6 96 -11.5 137t-63.5 41q-68 0 -109.5 -90.5
t-81.5 -323.5zM500 514q13 83 16 104l-283 -337q-7 -100 11.5 -142.5t66.5 -42.5q65 0 106.5 92t82.5 326z" />
    <glyph glyph-name="oslashacute.sc" horiz-adv-x="808" 
d="M782 1319l-254 -209h-151l190 209h215zM819 1024l-102 -129q46 -121 2 -381q-50 -279 -151.5 -404.5t-278.5 -125.5q-152 0 -215 90l-60 -76h-71l102 131q-46 128 0 385q47 276 149.5 401t280.5 125q150 0 213 -90l57 74h74zM264 514l-22 -133l290 371q6 95 -12 135.5
t-63 40.5q-69 0 -111 -90.5t-82 -323.5zM500 514q17 100 20 129l-289 -369q-6 -96 13 -137t67 -41q65 0 106.5 92t82.5 326z" />
    <glyph glyph-name="otilde.sc" horiz-adv-x="817" 
d="M254 1169q31 103 93 165.5t134 62.5q44 0 85.5 -28t62.5 -28q19 0 36.5 16t26.5 42h146q-32 -103 -93 -166.5t-127 -63.5q-39 0 -81.5 29t-65.5 29q-22 0 -42 -16t-30 -42h-145zM293 -16q-180 0 -239 126t-9 404q47 276 150.5 401t283.5 125q179 0 237 -124.5t9 -401.5
q-47 -278 -150 -404t-282 -126zM315 96q63 0 108 98t83 320q38 221 28 317.5t-73 96.5q-67 0 -112 -95.5t-85 -318.5q-39 -223 -27.5 -320.5t78.5 -97.5z" />
    <glyph glyph-name="oe.sc" horiz-adv-x="1112" 
d="M1051 911h-287l-55 -317h262l-21 -113h-262l-63 -366h297l-19 -115h-463q-59 -16 -125 -16q-192 0 -256 125.5t-14 404.5q47 276 156 401t301 125q66 0 119 -16h450zM266 514q-40 -224 -24 -321t92 -97q40 0 82 17l141 800q-35 15 -76 15q-77 0 -127 -96t-88 -318z" />
    <glyph glyph-name="p.sc" horiz-adv-x="768" 
d="M436 1024q178 0 245.5 -73t39.5 -234q-32 -179 -126 -259.5t-271 -80.5h-68l-66 -377h-208l180 1024h274zM502 717q19 104 -5 151t-96 47h-49l-76 -428h52q70 0 111 54t63 176z" />
    <glyph glyph-name="uni1E57.sc" horiz-adv-x="768" 
d="M649 1391l-39 -222h-215l39 222h215zM436 1024q178 0 245.5 -73t39.5 -234q-32 -179 -126 -259.5t-271 -80.5h-68l-66 -377h-208l180 1024h274zM502 717q19 104 -5 151t-96 47h-49l-76 -428h52q70 0 111 54t63 176z" />
    <glyph glyph-name="thorn.sc" horiz-adv-x="755" 
d="M401 825q169 0 234.5 -66t40.5 -214q-29 -166 -119 -241t-260 -75h-66l-41 -229h-208l180 1024h209l-35 -199h65zM457 545q15 91 -4.5 128.5t-85.5 37.5h-52l-65 -369h53q64 0 99.5 47t54.5 156z" />
    <glyph glyph-name="q.sc" horiz-adv-x="813" 
d="M721 514q-66 -383 -246 -485l137 -37l-24 -146l-400 125l5 25q-118 31 -154 157t6 361q47 276 150 401t282 125q177 0 234 -124.5t10 -401.5zM504 514q39 221 28 317.5t-75 96.5q-66 0 -111.5 -96.5t-83.5 -317.5q-40 -223 -29 -320.5t78 -97.5q63 0 108 97.5t85 320.5z
" />
    <glyph glyph-name="r.sc" horiz-adv-x="806" 
d="M735 727q-40 -223 -196 -289l120 -438h-215l-108 406h-74l-72 -406h-208l180 1024h289q176 0 243 -70.5t41 -226.5zM352 915l-71 -399h63q75 0 116.5 49t61.5 160q17 101 -8 145.5t-100 44.5h-62z" />
    <glyph glyph-name="racute.sc" horiz-adv-x="806" 
d="M842 1454l-248 -285h-174l180 285h242zM451 1024q176 0 243 -70.5t41 -226.5q-40 -223 -196 -289l120 -438h-215l-108 406h-74l-72 -406h-208l180 1024h289zM352 915l-71 -399h63q75 0 116.5 49t61.5 160q17 101 -8 145.5t-100 44.5h-62z" />
    <glyph glyph-name="rcaron.sc" horiz-adv-x="806" 
d="M399 1169l-112 285h209l47 -164l98 164h209l-211 -285h-240zM451 1024q176 0 243 -70.5t41 -226.5q-40 -223 -196 -289l120 -438h-215l-108 406h-74l-72 -406h-208l180 1024h289zM352 915l-71 -399h63q75 0 116.5 49t61.5 160q17 101 -8 145.5t-100 44.5h-62z" />
    <glyph glyph-name="uni0157.sc" horiz-adv-x="806" 
d="M735 727q-40 -223 -196 -289l120 -438h-215l-108 406h-74l-72 -406h-208l180 1024h289q176 0 243 -70.5t41 -226.5zM352 915l-71 -399h63q75 0 116.5 49t61.5 160q17 101 -8 145.5t-100 44.5h-62zM170 -143h236l-27 -150l-25 -143q-19 -108 -98.5 -170t-179.5 -62l20 119
q46 0 82 29.5t45 79.5l8 49h-106z" />
    <glyph glyph-name="uni0211.sc" horiz-adv-x="806" 
d="M446 1169h-133l-127 285h217zM737 1169h-131l-127 285h215zM735 727q-40 -223 -196 -289l120 -438h-215l-108 406h-74l-72 -406h-208l180 1024h289q176 0 243 -70.5t41 -226.5zM352 915l-71 -399h63q75 0 116.5 49t61.5 160q17 101 -8 145.5t-100 44.5h-62z" />
    <glyph glyph-name="uni1E5B.sc" horiz-adv-x="806" 
d="M735 727q-40 -223 -196 -289l120 -438h-215l-108 406h-74l-72 -406h-208l180 1024h289q176 0 243 -70.5t41 -226.5zM352 915l-71 -399h63q75 0 116.5 49t61.5 160q17 101 -8 145.5t-100 44.5h-62zM127 -393l45 250h234l-44 -250h-235z" />
    <glyph glyph-name="uni0213.sc" horiz-adv-x="806" 
d="M520 1395q114 0 175 -61.5t50 -164.5h-180q0 37 -15.5 59.5t-41.5 22.5q-31 0 -56 -23t-32 -59h-182q25 103 102 164.5t180 61.5zM451 1024q176 0 243 -70.5t41 -226.5q-40 -223 -196 -289l120 -438h-215l-108 406h-74l-72 -406h-208l180 1024h289zM352 915l-71 -399h63
q75 0 116.5 49t61.5 160q17 101 -8 145.5t-100 44.5h-62z" />
    <glyph glyph-name="s.sc" horiz-adv-x="679" 
d="M125 -16q-97 0 -176 36l49 125q70 -43 158 -43q73 0 123.5 46t64.5 122q2 14 2 26.5t-1.5 22.5t-6.5 20.5t-9 18t-13 16.5l-14.5 14.5t-18 14.5t-18.5 13.5t-20 14t-20 13.5q-78 54 -116.5 122t-20.5 169q25 138 129.5 221.5t249.5 83.5q112 0 182 -22l-41 -117
q-62 24 -135 21q-64 0 -108.5 -43t-53.5 -105q-12 -72 18 -113t91 -75q172 -90 139 -264q-29 -158 -148.5 -248t-285.5 -90z" />
    <glyph glyph-name="sacute.sc" horiz-adv-x="679" 
d="M356 1169l181 285h241l-248 -285h-174zM125 -16q-97 0 -176 36l49 125q70 -43 158 -43q73 0 123.5 46t64.5 122q2 14 2 26.5t-1.5 22.5t-6.5 20.5t-9 18t-13 16.5l-14.5 14.5t-18 14.5t-18.5 13.5t-20 14t-20 13.5q-78 54 -116.5 122t-20.5 169q25 138 129.5 221.5
t249.5 83.5q112 0 182 -22l-41 -117q-62 24 -135 21q-64 0 -108.5 -43t-53.5 -105q-12 -72 18 -113t91 -75q172 -90 139 -264q-29 -158 -148.5 -248t-285.5 -90z" />
    <glyph glyph-name="scaron.sc" horiz-adv-x="679" 
d="M336 1169l-113 285h209l47 -164l99 164h208l-211 -285h-239zM88 735q25 138 129.5 221.5t249.5 83.5q112 0 182 -22l-41 -117q-62 24 -135 21q-64 0 -108.5 -43t-53.5 -105q-12 -72 18 -113t91 -75q172 -90 139 -264q-29 -158 -148.5 -248t-285.5 -90q-97 0 -176 36
l49 125q70 -43 158 -43q73 0 123.5 46t64.5 122q2 14 2 26.5t-1.5 22.5t-6.5 20.5t-9 18t-13 16.5l-14.5 14.5t-18 14.5t-18.5 13.5t-20 14t-20 13.5q-78 54 -116.5 122t-20.5 169z" />
    <glyph glyph-name="scedilla.sc" horiz-adv-x="679" 
d="M473 922q-64 0 -108.5 -43t-53.5 -105q-12 -72 18 -113t91 -75q172 -90 139 -264q-21 -118 -93.5 -199t-180.5 -115h34l-55 -108q61 -7 101 -22t57.5 -35.5t24 -46.5t-0.5 -54q-11 -59 -50.5 -103t-100.5 -69t-131.5 -37t-153.5 -14l-2 102q59 4 98 10.5t75 19t55.5 34
t25.5 53.5q3 19 -7.5 33.5t-52 29.5t-116.5 23l96 162q-18 -2 -57 -2q-97 0 -176 36l49 125q70 -43 158 -43q73 0 123.5 46t64.5 122q2 14 2 26.5t-1.5 22.5t-6.5 20.5t-9 18t-13 16.5l-14.5 14.5t-18 14.5t-18.5 13.5t-20 14t-20 13.5q-78 54 -116.5 122t-20.5 169
q25 138 129.5 221.5t249.5 83.5q112 0 182 -22l-41 -117q-62 24 -135 21z" />
    <glyph glyph-name="scircumflex.sc" horiz-adv-x="679" 
d="M485 1335l-102 -166h-209l211 285h240l112 -285h-209zM88 735q25 138 129.5 221.5t249.5 83.5q112 0 182 -22l-41 -117q-62 24 -135 21q-64 0 -108.5 -43t-53.5 -105q-12 -72 18 -113t91 -75q172 -90 139 -264q-29 -158 -148.5 -248t-285.5 -90q-97 0 -176 36l49 125
q70 -43 158 -43q73 0 123.5 46t64.5 122q2 14 2 26.5t-1.5 22.5t-6.5 20.5t-9 18t-13 16.5l-14.5 14.5t-18 14.5t-18.5 13.5t-20 14t-20 13.5q-78 54 -116.5 122t-20.5 169z" />
    <glyph glyph-name="uni0219.sc" horiz-adv-x="679" 
d="M473 922q-64 0 -108.5 -43t-53.5 -105q-12 -72 18 -113t91 -75q172 -90 139 -264q-29 -158 -148.5 -248t-285.5 -90q-97 0 -176 36l49 125q70 -43 158 -43q73 0 123.5 46t64.5 122q2 14 2 26.5t-1.5 22.5t-6.5 20.5t-9 18t-13 16.5l-14.5 14.5t-18 14.5t-18.5 13.5
t-20 14t-20 13.5q-78 54 -116.5 122t-20.5 169q25 138 129.5 221.5t249.5 83.5q112 0 182 -22l-41 -117q-62 24 -135 21zM106 -143h236l-27 -150l-24 -143q-19 -108 -99 -170t-180 -62l21 119q46 0 82 29.5t45 79.5l8 49h-107z" />
    <glyph glyph-name="uni1E61.sc" horiz-adv-x="679" 
d="M350 1169l39 222h215l-39 -222h-215zM125 -16q-97 0 -176 36l49 125q70 -43 158 -43q73 0 123.5 46t64.5 122q2 14 2 26.5t-1.5 22.5t-6.5 20.5t-9 18t-13 16.5l-14.5 14.5t-18 14.5t-18.5 13.5t-20 14t-20 13.5q-78 54 -116.5 122t-20.5 169q25 138 129.5 221.5
t249.5 83.5q112 0 182 -22l-41 -117q-62 24 -135 21q-64 0 -108.5 -43t-53.5 -105q-12 -72 18 -113t91 -75q172 -90 139 -264q-29 -158 -148.5 -248t-285.5 -90z" />
    <glyph glyph-name="uni1E63.sc" horiz-adv-x="679" 
d="M125 -16q-97 0 -176 36l49 125q70 -43 158 -43q73 0 123.5 46t64.5 122q2 14 2 26.5t-1.5 22.5t-6.5 20.5t-9 18t-13 16.5l-14.5 14.5t-18 14.5t-18.5 13.5t-20 14t-20 13.5q-78 54 -116.5 122t-20.5 169q25 138 129.5 221.5t249.5 83.5q112 0 182 -22l-41 -117
q-62 24 -135 21q-64 0 -108.5 -43t-53.5 -105q-12 -72 18 -113t91 -75q172 -90 139 -264q-29 -158 -148.5 -248t-285.5 -90zM63 -393l46 250h233l-43 -250h-236z" />
    <glyph glyph-name="germandbls.sc" horiz-adv-x="1357" 
d="M125 -16q-97 0 -176 36l49 125q70 -43 158 -43q73 0 123.5 46t64.5 122q2 14 2 26.5t-1.5 22.5t-6.5 20.5t-9 18t-13 16.5l-14.5 14.5t-18 14.5t-18.5 13.5t-20 14t-20 13.5q-78 54 -116.5 122t-20.5 169q25 138 129.5 221.5t249.5 83.5q112 0 182 -22l-41 -117
q-62 24 -135 21q-64 0 -108.5 -43t-53.5 -105q-12 -72 18 -113t91 -75q172 -90 139 -264q-29 -158 -148.5 -248t-285.5 -90zM803 -16q-98 0 -174 36l49 125q67 -43 158 -43q73 0 123.5 46t62.5 122q3 15 3.5 28.5t-3.5 25.5l-7 21t-12.5 20t-14.5 17t-19 16.5t-19.5 15
t-22.5 15.5t-22 15q-78 54 -116.5 122t-20.5 169q23 137 127.5 221t249.5 84q112 0 184 -22l-43 -117q-62 24 -135 21q-62 0 -106.5 -43t-55.5 -105q-6 -38 0 -68t25 -52.5t38 -36.5t48 -31q172 -90 139 -264q-29 -158 -148.5 -248t-287.5 -90z" />
    <glyph glyph-name="t.sc" horiz-adv-x="704" 
d="M743 1024l-20 -109h-217l-162 -915h-209l162 915h-221l20 109h647z" />
    <glyph glyph-name="tbar.sc" horiz-adv-x="704" 
d="M723 911h-219l-55 -313h169l-12 -76h-170l-92 -522h-209l92 522h-170l13 76h170l55 313h-219l20 113h647z" />
    <glyph glyph-name="tcaron.sc" horiz-adv-x="704" 
d="M350 1169l-112 285h208l48 -164l98 164h209l-211 -285h-240zM743 1024l-20 -109h-217l-162 -915h-209l162 915h-221l20 109h647z" />
    <glyph glyph-name="uni0163.sc" horiz-adv-x="704" 
d="M344 0h-16l-52 -100q117 -13 155 -53t28 -105q-11 -59 -50.5 -103t-100.5 -69t-131.5 -37t-153.5 -14l-3 102q59 4 98 10.5t75 19t55.5 34t25.5 53.5q3 19 -7.5 33.5t-52 29.5t-116.5 23l105 176h-68l162 915h-221l20 109h647l-20 -109h-217z" />
    <glyph glyph-name="uni1E6B.sc" horiz-adv-x="704" 
d="M618 1391l-38 -222h-215l38 222h215zM743 1024l-20 -109h-217l-162 -915h-209l162 915h-221l20 109h647z" />
    <glyph glyph-name="uni1E6D.sc" horiz-adv-x="704" 
d="M743 1024l-20 -109h-217l-162 -915h-209l162 915h-221l20 109h647zM78 -393l45 250h233l-43 -250h-235z" />
    <glyph glyph-name="u.sc" horiz-adv-x="792" 
d="M307 -16q-161 0 -235 88t-47 235l125 717h208l-125 -717q-8 -56 -5 -101.5t33.5 -74.5t86.5 -29q69 0 112.5 56.5t59.5 148.5l127 717h127l-129 -723q-24 -143 -110.5 -230t-227.5 -87z" />
    <glyph glyph-name="uacute.sc" horiz-adv-x="792" 
d="M412 1169l180 285h242l-248 -285h-174zM307 -16q-161 0 -235 88t-47 235l125 717h208l-125 -717q-8 -56 -5 -101.5t33.5 -74.5t86.5 -29q69 0 112.5 56.5t59.5 148.5l127 717h127l-129 -723q-24 -143 -110.5 -230t-227.5 -87z" />
    <glyph glyph-name="ubreve.sc" horiz-adv-x="792" 
d="M504 1169q-103 0 -159 61.5t-46 164.5h182q-4 -37 12.5 -59.5t47.5 -22.5q26 0 50 22.5t36 59.5h180q-25 -103 -107 -164.5t-196 -61.5zM307 -16q-161 0 -235 88t-47 235l125 717h208l-125 -717q-8 -56 -5 -101.5t33.5 -74.5t86.5 -29q69 0 112.5 56.5t59.5 148.5
l127 717h127l-129 -723q-24 -143 -110.5 -230t-227.5 -87z" />
    <glyph glyph-name="uni01D4.sc" horiz-adv-x="792" 
d="M393 1169l-112 285h208l48 -164l98 164h209l-211 -285h-240zM520 307l127 717h127l-129 -723q-24 -143 -110.5 -230t-227.5 -87q-161 0 -235 88t-47 235l125 717h208l-125 -717q-8 -56 -5 -101.5t33.5 -74.5t86.5 -29q69 0 112.5 56.5t59.5 148.5z" />
    <glyph glyph-name="ucircumflex.sc" horiz-adv-x="792" 
d="M543 1335l-103 -166h-209l211 285h240l113 -285h-209zM520 307l127 717h127l-129 -723q-24 -143 -110.5 -230t-227.5 -87q-161 0 -235 88t-47 235l125 717h208l-125 -717q-8 -56 -5 -101.5t33.5 -74.5t86.5 -29q69 0 112.5 56.5t59.5 148.5z" />
    <glyph glyph-name="uni0215.sc" horiz-adv-x="792" 
d="M307 1169l-127 285h217l43 -285h-133zM600 1169l-127 285h215l43 -285h-131zM307 -16q-161 0 -235 88t-47 235l125 717h208l-125 -717q-8 -56 -5 -101.5t33.5 -74.5t86.5 -29q69 0 112.5 56.5t59.5 148.5l127 717h127l-129 -723q-24 -143 -110.5 -230t-227.5 -87z" />
    <glyph glyph-name="udieresis.sc" horiz-adv-x="792" 
d="M238 1169l38 232h220l-39 -232h-219zM573 1169l39 232h219l-38 -232h-220zM307 -16q-161 0 -235 88t-47 235l125 717h208l-125 -717q-8 -56 -5 -101.5t33.5 -74.5t86.5 -29q69 0 112.5 56.5t59.5 148.5l127 717h127l-129 -723q-24 -143 -110.5 -230t-227.5 -87z" />
    <glyph glyph-name="uni01D8.sc" horiz-adv-x="792" 
d="M471 1503l180 285h242l-248 -285h-174zM238 1169l38 232h220l-39 -232h-219zM573 1169l39 232h219l-38 -232h-220zM307 -16q-161 0 -235 88t-47 235l125 717h208l-125 -717q-8 -56 -5 -101.5t33.5 -74.5t86.5 -29q69 0 112.5 56.5t59.5 148.5l127 717h127l-129 -723
q-24 -143 -110.5 -230t-227.5 -87z" />
    <glyph glyph-name="uni01DA.sc" horiz-adv-x="792" 
d="M453 1503l-113 285h209l47 -164l98 164h209l-211 -285h-239zM496 1401l-39 -232h-219l38 232h220zM573 1169l39 232h219l-38 -232h-220zM520 307l127 717h127l-129 -723q-24 -143 -110.5 -230t-227.5 -87q-161 0 -235 88t-47 235l125 717h208l-125 -717q-8 -56 -5 -101.5
t33.5 -74.5t86.5 -29q69 0 112.5 56.5t59.5 148.5z" />
    <glyph glyph-name="uni01DC.sc" horiz-adv-x="792" 
d="M494 1493l-158 223h248l90 -223h-180zM238 1169l38 232h220l-39 -232h-219zM573 1169l39 232h219l-38 -232h-220zM307 -16q-161 0 -235 88t-47 235l125 717h208l-125 -717q-8 -56 -5 -101.5t33.5 -74.5t86.5 -29q69 0 112.5 56.5t59.5 148.5l127 717h127l-129 -723
q-24 -143 -110.5 -230t-227.5 -87z" />
    <glyph glyph-name="uni01D6.sc" horiz-adv-x="792" 
d="M334 1503l20 123h482l-21 -123h-481zM238 1169l38 232h220l-39 -232h-219zM573 1169l39 232h219l-38 -232h-220zM307 -16q-161 0 -235 88t-47 235l125 717h208l-125 -717q-8 -56 -5 -101.5t33.5 -74.5t86.5 -29q69 0 112.5 56.5t59.5 148.5l127 717h127l-129 -723
q-24 -143 -110.5 -230t-227.5 -87z" />
    <glyph glyph-name="uni1EE5.sc" horiz-adv-x="792" 
d="M307 -16q-161 0 -235 88t-47 235l125 717h208l-125 -717q-8 -56 -5 -101.5t33.5 -74.5t86.5 -29q69 0 112.5 56.5t59.5 148.5l127 717h127l-129 -723q-24 -143 -110.5 -230t-227.5 -87zM121 -393l45 250h233l-43 -250h-235z" />
    <glyph glyph-name="ugrave.sc" horiz-adv-x="792" 
d="M434 1159l-158 223h248l90 -223h-180zM307 -16q-161 0 -235 88t-47 235l125 717h208l-125 -717q-8 -56 -5 -101.5t33.5 -74.5t86.5 -29q69 0 112.5 56.5t59.5 148.5l127 717h127l-129 -723q-24 -143 -110.5 -230t-227.5 -87z" />
    <glyph glyph-name="uhungarumlaut.sc" horiz-adv-x="792" 
d="M297 1169l141 285h217l-225 -285h-133zM590 1169l141 285h215l-225 -285h-131zM307 -16q-161 0 -235 88t-47 235l125 717h208l-125 -717q-8 -56 -5 -101.5t33.5 -74.5t86.5 -29q69 0 112.5 56.5t59.5 148.5l127 717h127l-129 -723q-24 -143 -110.5 -230t-227.5 -87z" />
    <glyph glyph-name="uni0217.sc" horiz-adv-x="792" 
d="M231 1169q25 102 102.5 164t180.5 62q114 0 175 -61.5t50 -164.5h-180q0 37 -15.5 59.5t-41.5 22.5q-31 0 -56 -23t-32 -59h-183zM307 -16q-161 0 -235 88t-47 235l125 717h208l-125 -717q-8 -56 -5 -101.5t33.5 -74.5t86.5 -29q69 0 112.5 56.5t59.5 148.5l127 717h127
l-129 -723q-24 -143 -110.5 -230t-227.5 -87z" />
    <glyph glyph-name="umacron.sc" horiz-adv-x="792" 
d="M274 1169l21 123h481l-20 -123h-482zM307 -16q-161 0 -235 88t-47 235l125 717h208l-125 -717q-8 -56 -5 -101.5t33.5 -74.5t86.5 -29q69 0 112.5 56.5t59.5 148.5l127 717h127l-129 -723q-24 -143 -110.5 -230t-227.5 -87z" />
    <glyph glyph-name="uogonek.sc" horiz-adv-x="792" 
d="M647 1024h127l-129 -723q-32 -197 -172 -276q-131 -112 -147 -205q-5 -34 15 -57t62 -23q45 0 91 16l2 -125q-72 -28 -179 -28q-98 0 -143 40.5t-33 118.5q9 49 47.5 109.5t92.5 112.5q-148 7 -214.5 94.5t-41.5 228.5l125 717h208l-125 -717q-8 -56 -5 -101.5
t33.5 -74.5t86.5 -29q69 0 112.5 56.5t59.5 148.5z" />
    <glyph glyph-name="uring.sc" horiz-adv-x="792" 
d="M508 1147q-94 0 -145.5 63t-34.5 158q17 92 90.5 153.5t167.5 61.5q95 0 147 -61t37 -154q-19 -96 -93 -158.5t-169 -62.5zM528 1264q43 0 77 29.5t42 72.5q7 43 -17 71.5t-67 28.5t-76 -28.5t-41 -71.5t15.5 -72.5t66.5 -29.5zM307 -16q-161 0 -235 88t-47 235l125 717
h208l-125 -717q-8 -56 -5 -101.5t33.5 -74.5t86.5 -29q69 0 112.5 56.5t59.5 148.5l127 717h127l-129 -723q-24 -143 -110.5 -230t-227.5 -87z" />
    <glyph glyph-name="utilde.sc" horiz-adv-x="792" 
d="M242 1169q31 103 93 165.5t134 62.5q44 0 85 -28t62 -28q19 0 37 16t27 42h145q-32 -103 -92.5 -166.5t-126.5 -63.5q-39 0 -81.5 29t-65.5 29q-22 0 -42 -16t-30 -42h-145zM307 -16q-161 0 -235 88t-47 235l125 717h208l-125 -717q-8 -56 -5 -101.5t33.5 -74.5t86.5 -29
q69 0 112.5 56.5t59.5 148.5l127 717h127l-129 -723q-24 -143 -110.5 -230t-227.5 -87z" />
    <glyph glyph-name="v.sc" horiz-adv-x="755" 
d="M668 1026h133l-449 -1026h-184l-78 1026h209l49 -741z" />
    <glyph glyph-name="w.sc" horiz-adv-x="1075" 
d="M989 1026h133l-381 -1026h-182l-10 682l-252 -682h-186l-21 1026h205l4 -678l246 678h192l11 -672z" />
    <glyph glyph-name="wacute.sc" horiz-adv-x="1075" 
d="M977 1454l-248 -285h-174l180 285h242zM989 1026h133l-381 -1026h-182l-10 682l-252 -682h-186l-21 1026h205l4 -678l246 678h192l11 -672z" />
    <glyph glyph-name="wcircumflex.sc" horiz-adv-x="1075" 
d="M684 1335l-102 -166h-209l211 285h239l113 -285h-209zM989 1026h133l-381 -1026h-182l-10 682l-252 -682h-186l-21 1026h205l4 -678l246 678h192l11 -672z" />
    <glyph glyph-name="wdieresis.sc" horiz-adv-x="1075" 
d="M637 1401l-39 -232h-219l39 232h219zM973 1401l-39 -232h-219l39 232h219zM989 1026h133l-381 -1026h-182l-10 682l-252 -682h-186l-21 1026h205l4 -678l246 678h192l11 -672z" />
    <glyph glyph-name="wgrave.sc" horiz-adv-x="1075" 
d="M758 1159h-180l-158 223h248zM989 1026h133l-381 -1026h-182l-10 682l-252 -682h-186l-21 1026h205l4 -678l246 678h192l11 -672z" />
    <glyph glyph-name="x.sc" horiz-adv-x="755" 
d="M780 1024l-317 -494l151 -530h-223l-100 354l-232 -354h-145l332 510l-148 514h226l96 -342l217 342h143z" />
    <glyph glyph-name="y.sc" horiz-adv-x="743" 
d="M647 1024h141l-348 -639l-67 -385h-209l67 385l-141 639h217l96 -457z" />
    <glyph glyph-name="yacute.sc" horiz-adv-x="743" 
d="M809 1454l-248 -285h-174l180 285h242zM403 567l244 457h141l-348 -639l-67 -385h-209l67 385l-141 639h217z" />
    <glyph glyph-name="ycircumflex.sc" horiz-adv-x="743" 
d="M518 1335l-102 -166h-209l211 285h239l113 -285h-209zM647 1024h141l-348 -639l-67 -385h-209l67 385l-141 639h217l96 -457z" />
    <glyph glyph-name="ydieresis.sc" horiz-adv-x="743" 
d="M471 1401l-39 -232h-219l39 232h219zM807 1401l-39 -232h-219l39 232h219zM403 567l244 457h141l-348 -639l-67 -385h-209l67 385l-141 639h217z" />
    <glyph glyph-name="ygrave.sc" horiz-adv-x="743" 
d="M590 1159h-180l-158 223h248zM647 1024h141l-348 -639l-67 -385h-209l67 385l-141 639h217l96 -457z" />
    <glyph glyph-name="uni0233.sc" horiz-adv-x="743" 
d="M752 1292l-21 -123h-481l20 123h482zM647 1024h141l-348 -639l-67 -385h-209l67 385l-141 639h217l96 -457z" />
    <glyph glyph-name="uni1EF9.sc" horiz-adv-x="743" 
d="M434 1227q-22 0 -42 -16t-30 -42h-145q31 103 93 165.5t134 62.5q44 0 85.5 -28t62.5 -28q19 0 36.5 16t26.5 42h146q-32 -103 -92.5 -166.5t-126.5 -63.5q-39 0 -82 29t-66 29zM403 567l244 457h141l-348 -639l-67 -385h-209l67 385l-141 639h217z" />
    <glyph glyph-name="z.sc" horiz-adv-x="667" 
d="M653 1024l-456 -913h329l-18 -111h-584l465 915h-285l21 109h528z" />
    <glyph glyph-name="zacute.sc" horiz-adv-x="667" 
d="M772 1454l-248 -285h-174l180 285h242zM653 1024l-456 -913h329l-18 -111h-584l465 915h-285l21 109h528z" />
    <glyph glyph-name="zcaron.sc" horiz-adv-x="667" 
d="M330 1169l-113 285h209l47 -164l98 164h209l-211 -285h-239zM653 1024l-456 -913h329l-18 -111h-584l465 915h-285l21 109h528z" />
    <glyph glyph-name="zdotaccent.sc" horiz-adv-x="667" 
d="M598 1391l-39 -222h-215l39 222h215zM653 1024l-456 -913h329l-18 -111h-584l465 915h-285l21 109h528z" />
    <glyph glyph-name="uni1E93.sc" horiz-adv-x="667" 
d="M653 1024l-456 -913h329l-18 -111h-584l465 915h-285l21 109h528zM57 -393l45 250h234l-43 -250h-236z" />
    <glyph glyph-name="a.sups" horiz-adv-x="512" 
d="M442 1337h140l-111 -626h-141l14 80q-67 -93 -158 -93q-75 0 -96 80.5t10 253.5q29 166 79 242t130 76q85 0 117 -97zM268 799q67 0 107 227q39 225 -29 225q-55 0 -92 -217q-22 -120 -19 -177.5t33 -57.5z" />
    <glyph glyph-name="b.sups" horiz-adv-x="518" 
d="M461 1350q79 0 102 -76t-6 -240q-32 -176 -84 -256t-135 -80q-92 0 -119 97l-14 -84h-139l155 876h152l-58 -315q67 78 146 78zM397 1034q40 217 -18 217q-66 0 -105 -225q-43 -227 25 -227q58 0 98 235z" />
    <glyph glyph-name="c.sups" horiz-adv-x="389" 
d="M248 698q-109 0 -145 78t-5 250q31 170 97.5 247t183.5 77q39 0 98 -15l-31 -145l-71 76q-43 0 -71.5 -55t-51.5 -183q-23 -132 -13 -189t56 -57q29 0 72 19l2 -82q-61 -21 -121 -21z" />
    <glyph glyph-name="d.sups" horiz-adv-x="512" 
d="M473 1587h154l-156 -876h-141l14 80q-67 -93 -158 -93q-75 0 -96 80.5t10 253.5q29 166 79 242t130 76q74 0 109 -74zM268 799q62 0 99 186l14 76q28 190 -35 190q-55 0 -92 -217q-22 -120 -19 -177.5t33 -57.5z" />
    <glyph glyph-name="e.sups" horiz-adv-x="468" 
d="M358 1350q107 0 143 -75t7 -239q-1 -6 -4 -15.5t-4 -12.5h-250q-19 -120 -3.5 -172t70.5 -52q62 0 115 27l4 -80q-70 -33 -160 -33q-123 0 -166 78.5t-12 251.5q31 169 92.5 245.5t167.5 76.5zM264 1083h96l2 9q17 95 14 136.5t-28 41.5q-27 0 -46 -43t-38 -144z" />
    <glyph glyph-name="f.sups" horiz-adv-x="309" 
d="M420 1487q-30 0 -47.5 -26t-26.5 -85l-6 -39h84l-18 -96h-84l-140 -770h-149l137 770h-61l18 96h59l9 43q20 109 69 158t133 49q43 0 84 -14l-28 -92q-18 6 -33 6z" />
    <glyph glyph-name="g.sups" horiz-adv-x="518" 
d="M446 1337l144 6l-107 -600q-48 -272 -303 -272q-80 0 -145 23l35 96q61 -23 106 -23q65 0 102 39t50 125l8 45q-64 -78 -133 -78q-85 0 -110.5 76.5t3.5 239.5q31 174 84.5 255t138.5 81q87 0 113 -90zM272 799q63 0 105 200l8 48q34 202 -31 202q-30 0 -54 -56.5
t-46 -178.5q-37 -215 18 -215z" />
    <glyph glyph-name="h.sups" horiz-adv-x="514" 
d="M459 1350q68 0 91.5 -43t6.5 -140l-80 -456h-153l71 411q12 64 7 92.5t-31 28.5q-55 0 -78 -108l-76 -424h-151l151 856l154 14l-56 -311q58 80 144 80z" />
    <glyph glyph-name="i.sups" horiz-adv-x="260" 
d="M193 1427l28 168h152l-29 -168h-151zM66 711l110 626h152l-111 -626h-151z" />
    <glyph glyph-name="j.sups" horiz-adv-x="262" 
d="M193 1427l30 168h152l-29 -168h-153zM18 471q-67 0 -129 25l37 96q30 -10 54 -10q65 0 77 84l119 671h154l-119 -675q-18 -101 -66 -146t-127 -45z" />
    <glyph glyph-name="k.sups" horiz-adv-x="516" 
d="M614 1337l-196 -237l88 -389h-158l-49 247l-49 -59l-33 -188h-151l153 864l154 12l-82 -467l170 217h153z" />
    <glyph glyph-name="l.sups" horiz-adv-x="260" 
d="M66 711l153 864l154 12l-156 -876h-151z" />
    <glyph glyph-name="m.sups" horiz-adv-x="768" 
d="M717 1350q66 0 88.5 -42.5t5.5 -140.5l-80 -456h-151l71 413q12 64 7.5 93.5t-27.5 29.5q-31 0 -53 -36.5t-33 -98.5h-2l-70 -401h-151l73 413q11 64 6.5 93.5t-28.5 29.5q-53 0 -80 -106l-76 -430h-151l110 626l154 13l-15 -80q58 80 146 80q50 0 74.5 -23.5t25.5 -75.5
q28 47 69 73t87 26z" />
    <glyph glyph-name="n.sups" horiz-adv-x="514" 
d="M459 1350q68 0 91.5 -43t6.5 -140l-80 -456h-153l73 413q11 64 5.5 93.5t-31.5 29.5q-51 0 -78 -106l-76 -430h-151l110 626l154 13l-15 -80q58 80 144 80z" />
    <glyph glyph-name="o.sups" horiz-adv-x="499" 
d="M260 698q-113 0 -152 78.5t-10 247.5q31 169 97.5 247.5t179.5 78.5q114 0 152.5 -77.5t7.5 -248.5q-29 -169 -95.5 -247.5t-179.5 -78.5zM274 780q32 0 55 55.5t48 190.5q22 132 18.5 188t-35.5 56q-33 0 -54.5 -54t-47.5 -190q-24 -134 -20.5 -190t36.5 -56z" />
    <glyph glyph-name="p.sups" horiz-adv-x="518" 
d="M453 1350q83 0 107 -80.5t-7 -255.5q-29 -165 -78.5 -240.5t-128.5 -75.5t-117 80l-55 -307h-149l151 866h139l-14 -84q63 97 152 97zM395 1014q21 122 16.5 178.5t-34.5 56.5q-65 0 -103 -225q-42 -225 27 -225q29 0 51 52t43 163z" />
    <glyph glyph-name="q.sups" horiz-adv-x="518" 
d="M446 1337h142l-152 -866h-153l55 307q-66 -80 -145 -80q-80 0 -103 76t6 240q32 176 84 256t135 80q91 0 117 -90zM272 799q67 0 109 225q19 112 13 168.5t-40 56.5q-31 0 -54.5 -56.5t-45.5 -178.5q-37 -215 18 -215z" />
    <glyph glyph-name="r.sups" horiz-adv-x="395" 
d="M465 1350q17 0 35 -7l-37 -159q-28 14 -57 14q-44 0 -77.5 -38.5t-52.5 -108.5l-59 -340h-151l110 626h152l-21 -112q73 125 158 125z" />
    <glyph glyph-name="s.sups" horiz-adv-x="425" 
d="M172 698q-71 0 -127 23l33 90q49 -25 110 -25q40 0 68.5 27t36.5 68q-1 10 1 16t-2 14t-4.5 12t-6.5 10.5t-8.5 9.5t-10.5 8.5t-11.5 8t-12.5 8.5t-13 9q-55 30 -80.5 72.5t-15.5 109.5q17 85 88 138t162 53q59 0 117 -15l-29 -88q-47 20 -90 17q-30 0 -53 -23.5
t-29 -58.5q-6 -28 3 -48.5t21.5 -30t36.5 -22.5q50 -30 74.5 -67t13.5 -99q-18 -101 -94 -159t-178 -58z" />
    <glyph glyph-name="t.sups" horiz-adv-x="348" 
d="M324 1237l-60 -342q-10 -51 -0.5 -72.5t41.5 -21.5q25 0 41 4l-14 -90q-66 -17 -99 -17q-81 0 -110.5 46t-9.5 147l59 346h-57l18 100h57l19 111l158 37l-25 -148h100l-18 -100h-100z" />
    <glyph glyph-name="u.sups" horiz-adv-x="514" 
d="M430 1337h152l-111 -626l-154 -13l15 84q-26 -41 -64 -62.5t-80 -21.5q-68 0 -91.5 43.5t-6.5 141.5l80 454h154l-74 -413q-11 -64 -5.5 -92.5t31.5 -28.5q58 0 82 133z" />
    <glyph glyph-name="v.sups" horiz-adv-x="444" 
d="M465 1337h96l-266 -626h-127l-41 626h160l14 -411z" />
    <glyph glyph-name="w.sups" horiz-adv-x="684" 
d="M707 1337h94l-252 -626h-125l-4 340l-133 -340h-125l-35 626h164l6 -387l145 387h113l6 -387z" />
    <glyph glyph-name="x.sups" horiz-adv-x="479" 
d="M578 1337l-185 -301l84 -325h-160l-55 211l-131 -211h-104l204 325l-77 301h161l47 -182l111 182h105z" />
    <glyph glyph-name="y.sups" horiz-adv-x="446" 
d="M463 1337h98l-373 -864h-94l105 238h-35l-37 626h162l10 -403z" />
    <glyph glyph-name="z.sups" horiz-adv-x="425" 
d="M520 1337l-278 -530h182l-16 -94h-371l276 530h-163l18 94h352z" />
    <glyph glyph-name="zero.osf" horiz-adv-x="872" 
d="M317 -20q-189 0 -253 126.5t-15 405.5t158.5 405.5t298.5 126.5q191 0 255 -126.5t15 -405.5q-51 -280 -160 -406t-299 -126zM344 117q68 0 114 92t81 303q40 214 26.5 305.5t-82.5 91.5t-114 -91.5t-82 -305.5q-38 -212 -25 -303.5t82 -91.5z" />
    <glyph glyph-name="one.osf" horiz-adv-x="550" 
d="M94 977l420 70l-184 -1047h-230l146 817l-187 -24z" />
    <glyph glyph-name="two.osf" horiz-adv-x="784" 
d="M727 772q-9 -52 -36.5 -102t-63 -90.5t-94 -91t-109 -89t-130 -99.5t-136.5 -107h483l-33 -193h-661l35 193q63 59 143 123t132 104.5t103 89t81 102t42 117.5q15 80 -24.5 122t-130.5 42q-97 0 -193 -49l-6 139q138 61 285 61q177 0 256.5 -69t56.5 -203z" />
    <glyph glyph-name="three.osf" horiz-adv-x="761" 
d="M692 748q-25 -143 -92.5 -226.5t-163.5 -89.5v-4q106 0 149 -86.5t15 -241.5q-38 -220 -152.5 -327t-308.5 -107q-143 0 -248 45l60 131q69 -28 172 -28q100 0 158 70t86 227q22 123 -13.5 180t-134.5 57h-80l25 133h72q92 0 142.5 51t70.5 164q20 110 -12.5 155.5
t-131.5 45.5q-85 0 -174 -39v135q133 51 264 51q178 0 251.5 -72t45.5 -224z" />
    <glyph glyph-name="four.osf" horiz-adv-x="827" 
d="M731 1024l-160 -911h111l-23 -138h-112l-51 -288h-230l51 288h-403l8 45l580 1004h229zM104 113h238l107 604z" />
    <glyph glyph-name="five.osf" horiz-adv-x="763" 
d="M666 848l-347 8l-73 -305q81 18 145 18q149 0 204 -86t23 -270q-51 -283 -178 -416t-348 -133q-112 0 -190 37l51 125q75 -21 127 -21q120 0 192.5 93.5t106.5 291.5q23 129 -8.5 189.5t-120.5 60.5q-104 0 -207 -34l156 618h520z" />
    <glyph glyph-name="six.osf" horiz-adv-x="839" 
d="M645 1227q-109 0 -177.5 -91.5t-117.5 -308.5q81 64 187 64q143 0 189.5 -99.5t8.5 -322.5q-44 -257 -144 -373t-274 -116q-190 0 -251.5 143.5t-4.5 458.5q72 407 210.5 591.5t369.5 184.5q110 0 195 -31l-54 -127q-71 27 -137 27zM451 756q-64 0 -103.5 -70.5
t-68.5 -236.5q-31 -181 -19.5 -257.5t72.5 -76.5q58 0 95.5 76t68.5 258q31 166 20.5 236.5t-65.5 70.5z" />
    <glyph glyph-name="seven.osf" horiz-adv-x="784" 
d="M819 1024l-688 -1337h-168l578 1116h-457l82 221h653z" />
    <glyph glyph-name="eight.osf" horiz-adv-x="866" 
d="M827 1006q-38 -213 -168 -287q137 -80 93 -338q-37 -210 -141.5 -305.5t-297.5 -95.5q-189 0 -258.5 95.5t-31.5 305.5q43 257 206 338q-99 74 -61 287q34 186 126 269t263 83q174 0 238 -83t32 -269zM389 1004q-21 -123 -5 -175.5t73 -52.5q58 0 91.5 52t55.5 176
q22 123 6.5 175t-73.5 52t-92 -52t-56 -175zM516 381q25 145 6 206.5t-88 61.5q-70 0 -111 -61.5t-67 -206.5q-25 -145 -5.5 -206.5t89.5 -61.5t110 61t66 207z" />
    <glyph glyph-name="nine.osf" horiz-adv-x="843" 
d="M477 1044q191 0 252 -142t6 -458q-72 -410 -209.5 -594t-369.5 -184q-108 0 -193 31l53 127q74 -27 134 -27q111 0 179 91.5t117 310.5q-83 -66 -188 -66q-145 0 -193 99.5t-8 318.5q46 259 146 376t274 117zM518 575q33 181 20.5 258.5t-75.5 77.5q-58 0 -96 -77
t-70 -259q-31 -164 -19.5 -234.5t68.5 -70.5q65 0 104.5 70.5t67.5 234.5z" />
    <glyph glyph-name="zero.tf" horiz-adv-x="870" 
d="M315 -20q-186 0 -241.5 164t8.5 528q64 361 177.5 523.5t299.5 162.5q188 0 244.5 -162.5t-6.5 -523.5q-64 -363 -179 -527.5t-303 -164.5zM342 123q68 0 120.5 127.5t104.5 421.5q51 292 44 417t-76 125q-68 0 -120 -125.5t-104 -416.5q-52 -295 -45 -422t76 -127z" />
    <glyph glyph-name="one.tf" horiz-adv-x="870" 
d="M231 1278l537 84l-240 -1362h-229l201 1133l-301 -39z" />
    <glyph glyph-name="two.tf" horiz-adv-x="870" 
d="M821 1022q-15 -88 -56 -176.5t-95.5 -166t-135.5 -164t-160.5 -159.5t-187.5 -163h506l-33 -193h-682l35 193q208 195 266 255q175 181 246 346q38 91 56 191q40 229 -164 229q-97 0 -193 -49l-8 131q144 62 285 62q193 0 272.5 -83.5t48.5 -252.5z" />
    <glyph glyph-name="three.tf" horiz-adv-x="870" 
d="M829 1061q-26 -150 -96 -230t-180 -86v-4q122 0 169.5 -83t18.5 -244q-38 -223 -161.5 -328.5t-346.5 -105.5q-150 0 -268 47l66 127q83 -29 184 -29q128 0 197 70t98 229q20 123 -28 180.5t-171 57.5h-88l23 133h84q114 0 177 52.5t83 162.5q19 109 -23.5 156.5
t-158.5 47.5q-79 0 -197 -43l-4 136q145 51 285 51q201 0 282 -71.5t55 -225.5z" />
    <glyph glyph-name="four.tf" horiz-adv-x="870" 
d="M829 1337l-159 -911h112l-22 -137h-115l-51 -289h-229l51 289h-428l8 45l604 1003h229zM180 426h260l109 623z" />
    <glyph glyph-name="five.tf" horiz-adv-x="870" 
d="M805 1161l-424 8l-74 -305q85 19 170 19q174 0 241.5 -87.5t35.5 -273.5q-50 -280 -193 -411t-399 -131q-120 0 -199 36l53 127q75 -20 125 -20q158 0 248.5 92t124.5 287q23 129 -19.5 190.5t-156.5 61.5q-124 0 -232 -33l154 616h598z" />
    <glyph glyph-name="six.tf" horiz-adv-x="870" 
d="M662 1227q-125 0 -198.5 -91.5t-125.5 -312.5q85 68 215 68q155 0 207 -100t14 -322q-44 -256 -149.5 -372.5t-290.5 -116.5q-203 0 -270.5 143t-10.5 459q72 408 214 592t382 184q141 0 223 -31l-51 -127q-72 27 -159 27zM467 756q-78 0 -123 -71t-74 -239
q-32 -183 -15 -260t91 -77q70 0 113.5 77t75.5 260q31 167 15 238.5t-83 71.5z" />
    <glyph glyph-name="seven.tf" horiz-adv-x="870" 
d="M928 1337l-740 -1337h-165l618 1116h-500l80 221h707z" />
    <glyph glyph-name="eight.tf" horiz-adv-x="870" 
d="M836 1006q-37 -212 -170 -289q136 -80 90 -340q-37 -209 -141.5 -303t-297.5 -94q-191 0 -260.5 94t-31.5 303q24 132 74 215.5t134 124.5q-102 75 -65 289q32 185 125.5 268.5t267.5 83.5q175 0 241 -83.5t34 -268.5zM393 1004q-22 -123 -6 -175.5t74 -52.5t91.5 52
t55.5 176q22 123 6.5 175t-73.5 52t-92 -52t-56 -175zM520 381q26 145 7.5 206.5t-89.5 61.5q-70 0 -111 -61.5t-67 -206.5q-25 -146 -5.5 -209t89.5 -63q69 0 109.5 62.5t66.5 209.5z" />
    <glyph glyph-name="nine.tf" horiz-adv-x="870" 
d="M545 1358q207 0 273 -139.5t9 -460.5q-70 -408 -213 -593t-385 -185q-142 0 -223 32l51 127q66 -26 166 -26q115 0 190.5 94.5t127.5 306.5q-85 -68 -215 -68q-160 0 -213 98.5t-13 325.5q46 260 150 374t295 114zM610 889q33 180 14.5 258t-94.5 78q-70 0 -114 -77.5
t-76 -258.5q-29 -164 -12.5 -234.5t84.5 -70.5q79 0 124.5 70t73.5 235z" />
    <glyph glyph-name="zero.tosf" horiz-adv-x="870" 
d="M317 -20q-189 0 -252 126.5t-12 405.5q49 279 157 405.5t296 126.5q189 0 252 -126t14 -406q-49 -279 -157.5 -405.5t-297.5 -126.5zM344 117q66 0 111 92t82 303q38 212 25.5 304.5t-79.5 92.5t-112 -92t-82 -305q-38 -212 -25.5 -303.5t80.5 -91.5z" />
    <glyph glyph-name="one.tosf" horiz-adv-x="870" 
d="M176 965l537 84l-185 -1049h-229l145 819l-301 -41z" />
    <glyph glyph-name="two.tosf" horiz-adv-x="870" 
d="M778 782q-9 -53 -37 -104t-63 -92t-96 -93.5t-111 -90.5t-133.5 -101t-140.5 -108h495l-33 -193h-682l35 193q65 59 149.5 125t137.5 107.5t106 92t83.5 104.5t41.5 119q14 75 -27.5 113.5t-137.5 38.5q-101 0 -197 -49l-8 139q145 61 295 61q187 0 267.5 -65t55.5 -197z
" />
    <glyph glyph-name="three.tosf" horiz-adv-x="870" 
d="M778 748q-53 -301 -280 -316v-4q122 0 170.5 -83.5t19.5 -244.5q-40 -224 -163.5 -329t-346.5 -105q-151 0 -268 45l63 131q80 -28 185 -28q129 0 199 69.5t98 227.5q22 123 -26 180t-173 57h-88l22 133h84q114 0 177.5 52.5t83.5 162.5q19 107 -27 154t-166 47
q-73 0 -188 -39l-2 135q145 51 284 51q203 0 285.5 -71.5t56.5 -224.5z" />
    <glyph glyph-name="four.tosf" horiz-adv-x="870" 
d="M774 1024l-160 -911h115l-24 -138h-115l-51 -288h-230l51 288h-426l9 45l602 1004h229zM125 113h260l109 622z" />
    <glyph glyph-name="five.tosf" horiz-adv-x="870" 
d="M745 848l-415 8l-74 -305q81 18 170 18q172 0 239 -86t35 -270q-51 -283 -195.5 -416t-402.5 -133q-112 0 -190 37l49 125q79 -21 127 -21q157 0 247 93.5t124 291.5q23 129 -18.5 189.5t-155.5 60.5q-124 0 -232 -34l156 618h592z" />
    <glyph glyph-name="six.tosf" horiz-adv-x="870" 
d="M662 1227q-116 0 -193 -95t-129 -307q84 66 213 66q160 0 212.5 -98t12.5 -324q-46 -262 -149 -375.5t-295 -113.5q-208 0 -274.5 140.5t-8.5 461.5q72 408 216.5 592t389.5 184q137 0 222 -31l-54 -127q-74 27 -163 27zM467 756q-78 0 -124 -71t-75 -236
q-32 -180 -13.5 -257t93.5 -77q72 0 116 77t75 257q31 164 14 235.5t-86 71.5z" />
    <glyph glyph-name="seven.tosf" horiz-adv-x="870" 
d="M872 1024l-739 -1337h-168l621 1116h-498l78 221h706z" />
    <glyph glyph-name="eight.tosf" horiz-adv-x="870" 
d="M836 1006q-37 -212 -170 -289q136 -80 90 -340q-37 -209 -141.5 -303t-297.5 -94q-191 0 -260.5 94t-31.5 303q24 132 74 215.5t134 124.5q-102 75 -65 289q32 185 125.5 268.5t267.5 83.5q175 0 241 -83.5t34 -268.5zM393 1004q-22 -123 -6 -175.5t74 -52.5t91.5 52
t55.5 176q22 123 6.5 175t-73.5 52t-92 -52t-56 -175zM520 381q26 145 7.5 206.5t-89.5 61.5q-70 0 -111 -61.5t-67 -206.5q-25 -146 -5.5 -209t89.5 -63q69 0 109.5 62.5t66.5 209.5z" />
    <glyph glyph-name="nine.tosf" horiz-adv-x="870" 
d="M489 1044q203 0 270.5 -142t12.5 -458q-72 -409 -215 -593.5t-387 -184.5q-133 0 -217 31l53 127q69 -27 158 -27q123 0 196 91.5t125 312.5q-87 -68 -213 -68q-158 0 -211.5 99t-15.5 319q47 259 152.5 376t291.5 117zM557 575q32 181 13.5 258.5t-95.5 77.5
q-72 0 -116 -77t-76 -259q-19 -109 -18 -176.5t23 -98t68 -30.5q81 0 126 69.5t75 235.5z" />
    </font>
</defs>
</svg>
