<?xml version="1.0" standalone="no"?>
<!DOCTYPE svg PUBLIC "-//W3C//DTD SVG 1.1//EN" "http://www.w3.org/Graphics/SVG/1.1/DTD/svg11.dtd" >
<svg xmlns="http://www.w3.org/2000/svg" xmlns:xlink="http://www.w3.org/1999/xlink" version="1.1">
<metadata>
Created by FontForge 20170731 at Thu Oct 29 07:48:11 2020
 By Aleksey,,,
Copyright (c) 2019 by Josep Patau Bellart. All rights reserved.
</metadata>
<defs>
<font id="Indecisecondensed-Medium" horiz-adv-x="0" >
  <font-face 
    font-family="Indecise Condensed Medium"
    font-weight="500"
    font-stretch="condensed"
    units-per-em="2048"
    panose-1="0 0 6 6 0 0 0 0 0 0"
    ascent="1638"
    descent="-410"
    x-height="1024"
    cap-height="1337"
    bbox="-856 -731 1860 2107"
    underline-thickness="102"
    underline-position="-307"
    unicode-range="U+000D-FB02"
  />
<missing-glyph horiz-adv-x="1048" 
d="M90 1337h963v-1790h-963v1790zM371 1231l198 -533l197 533h-395zM657 461l217 -582v1163zM479 461l-211 565v-1130zM569 223l-213 -569h424z" />
    <glyph glyph-name="fi" unicode="fi" horiz-adv-x="946" 
d="M606 1452h254v-281h-254v281zM109 1100q0 182 71 259t209 77q53 0 143 -23l-18 -170q-36 8 -59 8q-50 0 -71.5 -37.5t-21.5 -126.5v-63h140v-176h-140v-848h-253v848h-103v176h103v76zM606 0v1024h254v-1024h-254z" />
    <glyph glyph-name="fl" unicode="fl" horiz-adv-x="946" 
d="M109 1100q0 182 71 259t209 77q53 0 143 -23l-18 -170q-36 8 -59 8q-50 0 -71.5 -37.5t-21.5 -126.5v-63h140v-176h-140v-848h-253v848h-103v176h103v76zM606 1417h254v-1417h-254v1417z" />
    <glyph glyph-name="Lgeminada" unicode="L&#xb7;L" horiz-adv-x="1734" 
d="M387 1337v-1169h373v-168h-654v1337h281zM1311 168h372v-168h-653v1337h281v-1169zM557 559v309h301v-309h-301z" />
    <glyph glyph-name="lgeminada" unicode="l&#xb7;l" horiz-adv-x="1212" 
d="M88 0v1417h254v-1417h-254zM872 0v1417h254v-1417h-254zM457 561v309h301v-309h-301z" />
    <glyph glyph-name=".notdef" horiz-adv-x="1048" 
d="M90 1337h963v-1790h-963v1790zM371 1231l198 -533l197 533h-395zM657 461l217 -582v1163zM479 461l-211 565v-1130zM569 223l-213 -569h424z" />
    <glyph glyph-name=".null" 
 />
    <glyph glyph-name="nonmarkingreturn" horiz-adv-x="682" 
 />
    <glyph glyph-name="CR" unicode="&#xd;" horiz-adv-x="430" 
 />
    <glyph glyph-name="space" unicode=" " horiz-adv-x="327" 
 />
    <glyph glyph-name="exclam" unicode="!" horiz-adv-x="466" 
d="M139 475l-55 862h299l-55 -862h-189zM84 0v289h301v-289h-301z" />
    <glyph glyph-name="quotedbl" unicode="&#x22;" horiz-adv-x="876" 
d="M137 854l-53 483h301l-55 -483h-193zM547 854l-53 483h301l-56 -483h-192z" />
    <glyph glyph-name="numbersign" unicode="#" horiz-adv-x="1290" 
d="M1210 827h-174l-53 -301h176l-39 -198h-172l-57 -328h-270l57 328h-178l-58 -328h-270l57 328h-188l39 198h184l53 301h-186l39 189h180l58 321h270l-57 -321h178l57 321h270l-57 -321h180zM713 526l53 301h-178l-53 -301h178z" />
    <glyph glyph-name="dollar" unicode="$" horiz-adv-x="839" 
d="M784 453q0 -186 -104.5 -309t-276.5 -154v-160h-63v152q-16 -2 -47 -2q-123 0 -238 47l37 192q100 -59 205 -59q7 0 21.5 1t21.5 1v393l-31 18q-110 66 -174.5 152.5t-64.5 212.5q0 182 117.5 301t304.5 119h2v137h63v-139q96 -3 184 -29l-30 -182q-70 30 -154 33v-406
q107 -51 167 -126t60 -193zM494 1174q-59 -12 -93 -60t-34 -113q0 -70 33.5 -115.5t93.5 -80.5v369zM403 182q99 47 99 170q0 94 -99 162v-332z" />
    <glyph glyph-name="percent" unicode="%" horiz-adv-x="1345" 
d="M340 702q-256 0 -256 328q0 179 58.5 253.5t197.5 74.5q250 0 250 -328t-250 -328zM289 0l592 1337h178l-592 -1337h-178zM340 799q32 0 43.5 49.5t11.5 183.5q0 133 -11.5 181.5t-43.5 48.5q-35 0 -48 -49t-13 -181q0 -134 13 -183.5t48 -49.5zM1014 -18
q-256 0 -256 327q0 328 256 328q250 0 250 -328q0 -327 -250 -327zM1014 78q31 0 43 50t12 183q0 131 -12 180.5t-43 49.5q-35 0 -48.5 -49t-13.5 -181q0 -133 13.5 -183t48.5 -50z" />
    <glyph glyph-name="ampersand" unicode="&#x26;" horiz-adv-x="1013" 
d="M891 354l82 -104v-250h-117l-65 86q-103 -86 -285 -86h-76q-168 0 -257 69.5t-89 223.5v213q0 210 158 268q-50 58 -75.5 116.5t-25.5 151.5v43q0 129 69.5 190.5t217.5 61.5h70q170 0 251.5 -62t81.5 -190v-118h-256v139q0 36 -18 56t-47 20h-41q-32 0 -53 -24t-21 -64
v-25q0 -41 9 -71t19.5 -47t42.5 -59q2 -3 3 -4t2.5 -3.5t3 -4t2.5 -3.5l207 -263v199h207v-459zM547 166q91 0 121 76l-314 407q-16 -37 -16 -92v-250q0 -71 36.5 -106t104.5 -35h68z" />
    <glyph glyph-name="quotesingle" unicode="'" horiz-adv-x="466" 
d="M137 854l-53 483h301l-55 -483h-193z" />
    <glyph glyph-name="parenleft" unicode="(" horiz-adv-x="620" 
d="M350 -451q-141 228 -204.5 442t-61.5 451q2 231 65 446t201 449h230q-124 -205 -180 -419t-54 -476q0 -256 56 -468.5t178 -424.5h-230z" />
    <glyph glyph-name="parenright" unicode=")" horiz-adv-x="618" 
d="M41 -451q122 211 177.5 424t55.5 469q2 263 -53.5 477t-179.5 418h229q138 -234 201.5 -449t65.5 -446q2 -236 -61.5 -450t-205.5 -443h-229z" />
    <glyph glyph-name="asterisk" unicode="*" horiz-adv-x="743" 
d="M702 1137v-125h-221l111 -193l-113 -59l-108 188l-109 -188l-110 59l110 193h-221v125h221l-110 192l110 62l109 -189l108 189l113 -62l-111 -192h221z" />
    <glyph glyph-name="plus" unicode="+" horiz-adv-x="944" 
d="M862 614v-204h-276v-287h-226v287h-276v204h276v287h226v-287h276z" />
    <glyph glyph-name="comma" unicode="," horiz-adv-x="466" 
d="M84 309h301v-354q0 -133 -88.5 -210t-212.5 -77v154q54 0 91.5 34t37.5 89v55h-129v309z" />
    <glyph glyph-name="hyphen" unicode="-" horiz-adv-x="790" 
d="M84 453v217h625v-217h-625z" />
    <glyph glyph-name="period" unicode="." horiz-adv-x="466" 
d="M84 0v309h301v-309h-301z" />
    <glyph glyph-name="slash" unicode="/" horiz-adv-x="759" 
d="M-39 0l580 1337h250l-580 -1337h-250z" />
    <glyph glyph-name="zero" unicode="0" horiz-adv-x="962" 
d="M481 -20q-152 0 -240.5 67.5t-128.5 217t-40 407.5q0 256 40 404t128 215t241 67t241 -67t128.5 -215t40.5 -404q0 -258 -40.5 -407.5t-128.5 -217t-241 -67.5zM481 158q47 0 72 45.5t36 154.5t11 314q0 204 -11 312t-36 153t-72 45t-72 -45t-36 -153t-11 -312
q0 -205 11 -314t36 -154.5t72 -45.5z" />
    <glyph glyph-name="one" unicode="1" horiz-adv-x="614" 
d="M33 1270l475 92v-1362h-281v1096l-194 -31v205z" />
    <glyph glyph-name="two" unicode="2" horiz-adv-x="847" 
d="M283 238h499v-238h-716v238q83 79 136.5 134.5t110.5 128t89 136.5t52.5 144t20.5 167q0 228 -188 228q-97 0 -185 -48l-28 168q133 62 303 62q193 0 291 -88t98 -260q0 -105 -34.5 -205.5t-102.5 -197.5t-150 -183.5t-196 -185.5z" />
    <glyph glyph-name="three" unicode="3" horiz-adv-x="854" 
d="M541 741q118 0 182.5 -85.5t64.5 -241.5q0 -434 -434 -434q-161 0 -293 53l37 157q76 -30 195 -30q109 0 157 60t48 204q0 109 -48 161t-155 52h-94v158h75q105 0 151 46.5t46 151.5q0 101 -41 143t-139 42q-85 0 -195 -45l-22 170q143 55 299 55q383 0 383 -293
q0 -143 -57 -227t-160 -93v-4z" />
    <glyph glyph-name="four" unicode="4" horiz-adv-x="909" 
d="M860 457v-168h-115v-289h-280v289h-432v45l432 1003h280v-880h115zM227 457h238v557z" />
    <glyph glyph-name="five" unicode="5" horiz-adv-x="837" 
d="M473 883q141 0 221 -86.5t80 -270.5q0 -546 -487 -546q-133 0 -221 38l30 160q78 -20 137 -20q124 0 187 81.5t63 256.5q0 117 -52.5 175t-141.5 58q-108 0 -201 -29l57 637h596l-24 -229l-393 18l-21 -264q105 21 170 21z" />
    <glyph glyph-name="six" unicode="6" horiz-adv-x="935" 
d="M567 901q152 0 224.5 -102.5t72.5 -317.5q0 -256 -93 -378.5t-286 -122.5q-211 0 -312 149t-101 461q0 393 126 580.5t386 187.5q113 0 219 -33l-29 -151q-88 26 -145 26q-130 0 -188 -81.5t-68 -284.5q70 67 194 67zM471 131q32 0 53 20t31.5 64t14 96t3.5 133
q0 74 -3.5 122.5t-13.5 89.5t-30 60t-51 19q-64 0 -86 -70.5t-22 -220.5q0 -81 3.5 -133t14.5 -96t32 -64t54 -20z" />
    <glyph glyph-name="seven" unicode="7" horiz-adv-x="874" 
d="M844 1337l-477 -1337h-205l383 1073h-486l43 264h742z" />
    <glyph glyph-name="eight" unicode="8" horiz-adv-x="958" 
d="M741 719q150 -85 150 -338q0 -205 -102 -303t-314 -98q-207 0 -307 98t-100 303q0 253 147 338q-111 75 -111 285q0 181 91 267.5t280 86.5q195 0 289 -86.5t94 -267.5q0 -207 -117 -285zM479 1208q-58 0 -79 -44t-21 -167q0 -124 20.5 -167.5t79.5 -43.5q60 0 81.5 43.5
t21.5 167.5q0 123 -21.5 167t-81.5 44zM479 131q71 0 96 53.5t25 202.5q0 146 -25.5 199t-95.5 53q-69 0 -95 -53t-26 -199q0 -148 26 -202t95 -54z" />
    <glyph glyph-name="nine" unicode="9" horiz-adv-x="935" 
d="M451 1358q220 0 316.5 -142.5t96.5 -467.5q0 -393 -126 -580.5t-386 -187.5q-118 0 -219 34l29 152q96 -29 155 -29q126 0 181.5 82t64.5 285q-71 -68 -194 -68q-152 0 -224.5 102.5t-72.5 319.5q0 255 93.5 377.5t285.5 122.5zM461 604q34 0 55.5 18.5t33 58t15.5 87.5
t4 121q0 80 -3.5 131.5t-14.5 94t-32 62t-54 19.5q-32 0 -53 -19.5t-31.5 -62t-14.5 -94t-4 -131.5q0 -147 20 -216t79 -69z" />
    <glyph glyph-name="colon" unicode=":" horiz-adv-x="466" 
d="M84 715v309h301v-309h-301zM84 0v309h301v-309h-301z" />
    <glyph glyph-name="semicolon" unicode=";" horiz-adv-x="466" 
d="M84 1024h301v-309h-301v309zM84 0v309h301v-354q0 -133 -88.5 -210t-212.5 -77v154q54 0 91.5 34t37.5 89v55h-129z" />
    <glyph glyph-name="less" unicode="&#x3c;" horiz-adv-x="692" 
d="M610 1153v-285l-286 -299l286 -301v-284l-526 551v65z" />
    <glyph glyph-name="equal" unicode="=" horiz-adv-x="776" 
d="M84 645v174h610v-174h-610zM84 264l2 176h608v-176h-610z" />
    <glyph glyph-name="greater" unicode="&#x3e;" horiz-adv-x="651" 
d="M84 1153l526 -553v-65l-526 -551v284l289 301l-289 299v285z" />
    <glyph glyph-name="question" unicode="?" horiz-adv-x="845" 
d="M295 381v86q0 94 21.5 163t51.5 111.5t60.5 83.5t52 105t21.5 151q0 68 -18.5 97.5t-61.5 29.5q-52 0 -74 -35.5t-22 -117.5v-92h-242v94q0 152 84 225.5t256 73.5q174 0 257 -71t83 -220q0 -92 -26 -160.5t-62.5 -111.5t-73 -83.5t-62.5 -101.5t-26 -141v-86h-219z
M287 0v254h237v-254h-237z" />
    <glyph glyph-name="at" unicode="@" horiz-adv-x="1419" 
d="M758 -221q223 0 321 201h117q-66 -167 -185 -247.5t-278 -80.5q-320 0 -484.5 217.5t-164.5 644.5q0 415 163 626.5t480 211.5q300 0 455 -177.5t155 -525.5q0 -254 -93.5 -411.5t-246.5 -157.5h-157v104q-76 -125 -162 -125q-114 0 -182 125t-68 332q0 204 68 325.5
t182 121.5q80 0 149 -72v65l170 -2v-768q59 5 95 134.5t36 334.5q0 283 -102 426.5t-301 143.5q-198 0 -299.5 -180.5t-101.5 -536.5q0 -361 110 -545t324 -184zM717 197q41 0 64.5 82.5t23.5 232.5q0 153 -23.5 238.5t-64.5 85.5q-34 0 -53 -84t-19 -236t19 -235.5
t53 -83.5z" />
    <glyph glyph-name="A" unicode="A" horiz-adv-x="960" 
d="M641 0l-66 297h-296l-66 -297h-188l321 1337h279l311 -1337h-295zM315 465h222l-111 500z" />
    <glyph glyph-name="B" unicode="B" horiz-adv-x="991" 
d="M668 739q118 -15 185 -105.5t67 -219.5q0 -414 -459 -414h-355v1337h347q428 0 428 -305q0 -108 -58 -188t-155 -105zM446 1169h-59v-370h64q70 0 103.5 49t33.5 151q0 88 -34.5 129t-107.5 41zM465 168q85 0 120.5 55.5t35.5 184.5q0 121 -36.5 173t-125.5 52h-72v-465
h78z" />
    <glyph glyph-name="C" unicode="C" horiz-adv-x="815" 
d="M506 -20q-232 0 -329 159t-97 537q0 371 109 526.5t368 155.5q46 0 207 -29l-12 -278l-183 127q-103 0 -146.5 -115.5t-43.5 -386.5q0 -282 44 -400t150 -118q73 0 146 37l31 -175q-116 -40 -244 -40z" />
    <glyph glyph-name="D" unicode="D" horiz-adv-x="1017" 
d="M471 1337q253 0 360 -150.5t107 -506.5q0 -369 -107 -524.5t-360 -155.5h-365v1337h365zM453 168q101 0 143.5 115t42.5 389q0 270 -42.5 383.5t-145.5 113.5h-64v-1001h66z" />
    <glyph glyph-name="E" unicode="E" horiz-adv-x="849" 
d="M387 168h379v-168h-660v1337h646v-168h-365v-383h334v-168h-334v-450z" />
    <glyph glyph-name="F" unicode="F" horiz-adv-x="821" 
d="M752 1169h-365v-409h334v-168h-334v-592h-281v1337h646v-168z" />
    <glyph glyph-name="G" unicode="G" horiz-adv-x="1024" 
d="M516 739h402v-696q-137 -63 -306 -63q-289 0 -410.5 157.5t-121.5 530.5q0 375 130 532.5t439 157.5q123 0 228 -31v-178q-102 31 -203 31q-160 0 -227.5 -116.5t-67.5 -393.5q0 -279 54.5 -395.5t184.5 -116.5q40 0 58 2v411h-160v168z" />
    <glyph glyph-name="H" unicode="H" horiz-adv-x="1032" 
d="M645 1337h281v-1337h-281v625h-258v-625h-281v1337h281v-544h258v544z" />
    <glyph glyph-name="I" unicode="I" horiz-adv-x="493" 
d="M106 0v1337h281v-1337h-281z" />
    <glyph glyph-name="J" unicode="J" horiz-adv-x="503" 
d="M12 -410q-43 0 -118 11l8 168q63 -11 67 -11q83 0 115.5 47t32.5 170v1362h280v-1351q0 -218 -86.5 -307t-298.5 -89z" />
    <glyph glyph-name="K" unicode="K" horiz-adv-x="1005" 
d="M672 0l-230 537l-55 -84v-453h-281v1337h281v-499l313 499h256l-335 -522l352 -815h-301z" />
    <glyph glyph-name="L" unicode="L" horiz-adv-x="811" 
d="M387 168h373v-168h-654v1337h281v-1169z" />
    <glyph glyph-name="M" unicode="M" horiz-adv-x="1417" 
d="M1364 0h-287l-131 883l-182 -883h-221l-181 881l-137 -881h-184l221 1337h266l172 -854l183 854h264z" />
    <glyph glyph-name="N" unicode="N" horiz-adv-x="1030" 
d="M752 1337h172v-1337h-215l-428 870v-870h-175v1337h259l387 -802v802z" />
    <glyph glyph-name="O" unicode="O" horiz-adv-x="1032" 
d="M518 -20q-235 0 -336.5 160t-101.5 532q0 369 101.5 527.5t336.5 158.5q233 0 333.5 -158.5t100.5 -527.5q0 -372 -100.5 -532t-333.5 -160zM520 158q52 0 80.5 49t40.5 158t12 307q0 197 -12.5 304.5t-41 155.5t-81.5 48q-54 0 -83.5 -47.5t-42.5 -156t-13 -304.5
q0 -198 12.5 -307t43 -158t85.5 -49z" />
    <glyph glyph-name="P" unicode="P" horiz-adv-x="978" 
d="M481 1337q227 0 327.5 -100.5t100.5 -327.5q0 -249 -100.5 -359t-327.5 -110h-94v-440h-281v1337h375zM459 608q84 0 117.5 67t33.5 234q0 142 -34 201t-119 59h-70v-561h72z" />
    <glyph glyph-name="Q" unicode="Q" horiz-adv-x="1032" 
d="M952 672q0 -262 -48 -416t-154 -221l180 -45v-215l-533 162v55q-168 37 -242.5 198t-74.5 482q0 369 101.5 527.5t336.5 158.5q233 0 333.5 -158.5t100.5 -527.5zM518 1180q-53 0 -82.5 -48t-43 -157t-13.5 -303q0 -197 13.5 -307t43.5 -158.5t84 -48.5q51 0 79.5 48.5
t41 158.5t12.5 307q0 195 -12.5 303.5t-41.5 156.5t-81 48z" />
    <glyph glyph-name="R" unicode="R" horiz-adv-x="1013" 
d="M680 0l-193 485h-100v-485h-281v1337h381q426 0 426 -409q0 -269 -159 -377l223 -551h-297zM387 1169v-516h76q82 0 116.5 63.5t34.5 209.5q0 129 -35.5 186t-115.5 57h-76z" />
    <glyph glyph-name="S" unicode="S" horiz-adv-x="839" 
d="M293 -20q-123 0 -238 47l37 192q100 -59 205 -59q94 0 149.5 50.5t55.5 141.5q0 19 -2.5 35.5t-11 32t-14 27t-21 25.5t-22.5 21t-28.5 21.5t-28.5 19t-33 20t-32 19.5q-110 66 -174.5 152.5t-64.5 212.5q0 182 117.5 301t304.5 119q147 0 249 -31l-30 -182
q-80 36 -181 33q-74 0 -118.5 -51t-44.5 -126q0 -46 14 -81.5t42.5 -62.5t55.5 -44t68 -37q112 -52 174.5 -127t62.5 -196q0 -215 -137 -344t-354 -129z" />
    <glyph glyph-name="T" unicode="T" horiz-adv-x="903" 
d="M870 1337v-168h-278v-1169h-281v1169h-276v168h835z" />
    <glyph glyph-name="U" unicode="U" horiz-adv-x="987" 
d="M524 -20q-206 0 -318 112t-112 311v934h281v-936q0 -243 178 -243q168 0 168 243v936h172v-940q0 -208 -89.5 -312.5t-279.5 -104.5z" />
    <glyph glyph-name="V" unicode="V" horiz-adv-x="952" 
d="M750 1337h180l-324 -1337h-248l-335 1337h292l220 -897z" />
    <glyph glyph-name="W" unicode="W" horiz-adv-x="1390" 
d="M1190 1337h178l-260 -1337h-238l-168 846l-213 -834v-12h-206l-260 1337h290l142 -778l192 778h227l162 -813z" />
    <glyph glyph-name="X" unicode="X" horiz-adv-x="966" 
d="M934 0h-320l-190 446l-199 -446h-192l297 662l-289 675h317l183 -424l188 424h184l-284 -630z" />
    <glyph glyph-name="Y" unicode="Y" horiz-adv-x="946" 
d="M735 1337h189l-291 -825v-512h-281v512l-329 825h305l221 -555z" />
    <glyph glyph-name="Z" unicode="Z" horiz-adv-x="835" 
d="M395 168h387v-168h-737l369 1169h-346v168h690z" />
    <glyph glyph-name="bracketleft" unicode="[" horiz-adv-x="555" 
d="M365 -285h149v-168h-430v1790h416v-168h-135v-1454z" />
    <glyph glyph-name="backslash" unicode="\" horiz-adv-x="647" 
d="M496 0l-582 1337h242l577 -1337h-237z" />
    <glyph glyph-name="bracketright" unicode="]" horiz-adv-x="552" 
d="M471 1337v-1790h-430v168h149v1454h-135v168h416z" />
    <glyph glyph-name="asciicircum" unicode="^" horiz-adv-x="802" 
d="M721 721h-232l-86 403l-86 -403h-233l170 616h299z" />
    <glyph glyph-name="underscore" unicode="_" horiz-adv-x="821" 
d="M0 -317l2 167h819v-167h-821z" />
    <glyph glyph-name="grave" unicode="`" horiz-adv-x="649" 
d="M342 1169l-258 285h309l174 -285h-225z" />
    <glyph glyph-name="a" unicode="a" horiz-adv-x="843" 
d="M451 1044q172 0 242.5 -65.5t70.5 -226.5v-752h-234v162q-56 -99 -115 -140.5t-139 -41.5q-95 0 -156 74t-61 229q0 162 67.5 245t203.5 117l176 45v60q0 72 -28.5 101.5t-88.5 29.5q-94 0 -252 -52l-35 160q198 55 349 55zM391 168q48 0 81.5 54.5t33.5 111.5v237
l-74 -18q-57 -16 -86 -66t-29 -151q0 -168 74 -168z" />
    <glyph glyph-name="b" unicode="b" horiz-adv-x="878" 
d="M561 1044q143 0 203.5 -119t60.5 -399q0 -293 -64 -419.5t-212 -126.5q-153 0 -234 163v-143h-227v1415l254 21v-514q92 122 219 122zM461 156q54 0 76 84.5t22 285.5q0 187 -21.5 263.5t-76.5 76.5q-65 0 -92 -84.5t-27 -265.5q0 -185 28.5 -272.5t90.5 -87.5z" />
    <glyph glyph-name="c" unicode="c" horiz-adv-x="700" 
d="M426 -20q-202 0 -287.5 123t-85.5 413q0 287 92 407.5t312 120.5q67 0 180 -20l-10 -262l-150 121q-92 0 -129 -82t-37 -285q0 -206 38 -289.5t132 -83.5q67 0 125 27l29 -158q-92 -32 -209 -32z" />
    <glyph glyph-name="d" unicode="d" horiz-adv-x="866" 
d="M526 1415l254 21v-1436h-227v137q-92 -157 -246 -157q-135 0 -194.5 125.5t-59.5 414.5q0 282 61.5 403t204.5 121q125 0 207 -122v493zM410 156q61 0 88.5 85.5t27.5 274.5q0 180 -27 265t-91 85q-56 0 -77.5 -76t-21.5 -264q0 -202 22.5 -286t78.5 -84z" />
    <glyph glyph-name="e" unicode="e" horiz-adv-x="829" 
d="M315 475q3 -185 46 -258.5t149 -73.5q97 0 207 58l31 -154q-128 -67 -279 -67q-224 0 -320 126t-96 412q0 280 84 403t279 123t277.5 -119t82.5 -401q0 -21 -4 -49h-457zM315 610h201v6q0 151 -20 209t-76 58q-61 0 -83 -60t-22 -213z" />
    <glyph glyph-name="f" unicode="f" horiz-adv-x="518" 
d="M455 1251q-50 0 -71.5 -37.5t-21.5 -126.5v-63h140v-176h-140v-848h-253v848h-103v176h103v76q0 182 71 259t209 77q53 0 143 -23l-18 -170q-36 8 -59 8z" />
    <glyph glyph-name="g" unicode="g" horiz-adv-x="876" 
d="M563 1024l228 20v-1028q0 -211 -113.5 -318.5t-312.5 -107.5q-146 0 -254 39l32 174q95 -39 187 -39q109 0 158 54t49 170v112q-87 -120 -205 -120q-151 0 -215 119t-64 399q0 287 69 416.5t216 129.5q146 0 225 -161v141zM418 156q64 0 91.5 85.5t27.5 268.5
q0 188 -26.5 272t-90.5 84q-56 0 -78.5 -85.5t-22.5 -282.5q0 -189 22.5 -265.5t76.5 -76.5z" />
    <glyph glyph-name="h" unicode="h" horiz-adv-x="868" 
d="M565 1044q118 0 170.5 -66t52.5 -224v-754h-253v686q0 95 -17 137.5t-63 42.5q-57 0 -85 -57t-28 -141v-668h-254v1415l254 21v-527q36 61 98.5 98t124.5 37z" />
    <glyph glyph-name="i" unicode="i" horiz-adv-x="428" 
d="M88 1171v281h254v-281h-254zM88 0v1024h254v-1024h-254z" />
    <glyph glyph-name="j" unicode="j" horiz-adv-x="428" 
d="M88 1171v281h254v-281h-254zM74 -412q-112 0 -224 37l33 176q62 -16 94 -16q58 0 84.5 31t26.5 100v1108h254v-1122q0 -174 -65.5 -244t-202.5 -70z" />
    <glyph glyph-name="k" unicode="k" horiz-adv-x="860" 
d="M559 0l-151 403l-66 -98v-305h-254v1417l254 21v-811l240 397h235l-246 -373l254 -651h-266z" />
    <glyph glyph-name="l" unicode="l" horiz-adv-x="428" 
d="M88 0v1417h254v-1417h-254z" />
    <glyph glyph-name="m" unicode="m" horiz-adv-x="1286" 
d="M991 1044q112 0 163.5 -66t51.5 -224v-754h-254v686q0 96 -15.5 138t-57.5 42q-53 0 -79 -57.5t-26 -140.5v-668h-254v686q0 95 -15.5 137.5t-58.5 42.5q-53 0 -78.5 -57t-25.5 -141v-668h-254v1024l254 20v-133q37 60 97 96.5t120 36.5q84 0 132.5 -37t68.5 -122
q32 70 98 114.5t133 44.5z" />
    <glyph glyph-name="n" unicode="n" horiz-adv-x="868" 
d="M565 1044q118 0 170.5 -66t52.5 -224v-754h-253v686q0 95 -17 137.5t-63 42.5q-57 0 -85 -57t-28 -141v-668h-254v1024l254 20v-135q36 61 98.5 98t124.5 37z" />
    <glyph glyph-name="o" unicode="o" horiz-adv-x="862" 
d="M432 -20q-203 0 -291 127t-88 405t88 405t291 127q201 0 289 -127.5t88 -404.5t-88 -404.5t-289 -127.5zM432 143q43 0 66 32.5t33 111.5t10 229q0 217 -22.5 292t-86.5 75q-44 0 -67 -32t-33 -109t-10 -226q0 -221 22.5 -297t87.5 -76z" />
    <glyph glyph-name="p" unicode="p" horiz-adv-x="878" 
d="M549 1044q147 0 211.5 -126.5t64.5 -419.5q0 -271 -62 -394.5t-202 -123.5q-126 0 -219 124v-493h-254v1413l227 20v-161q80 161 234 161zM463 156q55 0 75.5 77t20.5 265q0 202 -22 285t-78 83q-64 0 -90.5 -83.5t-26.5 -272.5q0 -180 28.5 -267t92.5 -87z" />
    <glyph glyph-name="q" unicode="q" horiz-adv-x="876" 
d="M563 1024l228 20v-1433h-254v493q-93 -124 -220 -124q-140 0 -202 123.5t-62 394.5q0 293 65 419.5t212 126.5q153 0 233 -161v141zM418 156q64 0 91.5 86t27.5 268q0 188 -26.5 272t-88.5 84q-58 0 -80.5 -83t-22.5 -285q0 -188 21.5 -265t77.5 -77z" />
    <glyph glyph-name="r" unicode="r" horiz-adv-x="663" 
d="M569 1044q36 0 60 -8l-13 -268q-54 25 -100 25q-80 0 -127 -78.5t-47 -198.5v-516h-254v1024l254 20v-204q41 91 102 147.5t125 56.5z" />
    <glyph glyph-name="s" unicode="s" horiz-adv-x="710" 
d="M272 -20q-130 0 -217 36l31 172q89 -45 188 -45q68 0 109 39t41 99q0 22 -6 40t-14 29.5t-25 23.5t-28.5 18t-36.5 17.5t-38 18.5q-98 48 -152 119t-54 178q0 145 102 232t256 87q105 0 197 -28l-27 -164q-66 31 -154 31q-51 0 -81.5 -34t-30.5 -85q0 -18 3.5 -33.5
t7.5 -27t14.5 -23t16 -17.5t21.5 -16t21.5 -13.5t25.5 -13.5t25 -12q42 -20 73.5 -42.5t61 -54t45 -74.5t15.5 -95q0 -174 -105 -268t-285 -94z" />
    <glyph glyph-name="t" unicode="t" horiz-adv-x="575" 
d="M537 844h-168v-535q0 -80 21 -111.5t75 -31.5q48 0 72 6v-166q-91 -26 -158 -26q-146 0 -205 71t-59 246v547h-97v180h97v186l254 62v-248h168v-180z" />
    <glyph glyph-name="u" unicode="u" horiz-adv-x="866" 
d="M526 1024h254v-1024l-254 -20v135q-37 -60 -99 -97.5t-124 -37.5q-117 0 -170 66.5t-53 223.5v754h254v-688q0 -95 17 -137.5t63 -42.5q57 0 84.5 57t27.5 141v670z" />
    <glyph glyph-name="v" unicode="v" horiz-adv-x="768" 
d="M600 1024h160l-268 -1024h-211l-271 1024h271l157 -662z" />
    <glyph glyph-name="w" unicode="w" horiz-adv-x="1146" 
d="M981 1024h158l-238 -1024h-203l-123 537l-122 -537h-199l-244 1024h279l127 -621l127 621h184l125 -625z" />
    <glyph glyph-name="x" unicode="x" horiz-adv-x="802" 
d="M776 0h-278l-152 346l-156 -346h-165l243 522l-221 502h279l139 -315l133 315h160l-215 -492z" />
    <glyph glyph-name="y" unicode="y" horiz-adv-x="751" 
d="M586 1024h157l-364 -1413h-158l98 389h-59l-250 1024h279l135 -645z" />
    <glyph glyph-name="z" unicode="z" horiz-adv-x="710" 
d="M664 1024l-302 -856h297v-166h-616l303 858h-272v164h590z" />
    <glyph glyph-name="braceleft" unicode="{" horiz-adv-x="591" 
d="M426 651q0 -76 -42.5 -128.5t-117.5 -78.5q75 -26 117.5 -78t42.5 -128v-471q0 -45 27.5 -73t66.5 -28h31v-158h-23q-161 0 -264.5 82.5t-103.5 239.5v399q0 60 -27 95.5t-67 35.5h-25v168h25q40 0 67 35.5t27 95.5v408q0 151 103.5 231t264.5 80h23v-157h-31
q-39 0 -66.5 -28t-27.5 -73v-469z" />
    <glyph glyph-name="bar" unicode="|" horiz-adv-x="399" 
d="M88 -389v1726h225v-1726h-225z" />
    <glyph glyph-name="braceright" unicode="}" horiz-adv-x="591" 
d="M526 528h25v-168h-25q-40 0 -67 -35.5t-27 -95.5v-399q0 -157 -103.5 -239.5t-265.5 -82.5h-22v158h31q39 0 66.5 28t27.5 73v471q0 76 42.5 128t117.5 78q-75 26 -117.5 78.5t-42.5 128.5v469q0 45 -27.5 73t-66.5 28h-31v157h22q162 0 265.5 -79.5t103.5 -231.5v-408
q0 -60 27 -95.5t67 -35.5z" />
    <glyph glyph-name="asciitilde" unicode="~" horiz-adv-x="811" 
d="M84 346q1 150 53 233t142 83q43 0 76 -12t50 -27t45 -27t62 -12t57 31t23 77h137q0 -153 -50.5 -238t-141.5 -85q-52 0 -119.5 40t-112.5 40q-35 0 -59.5 -30t-26.5 -73h-135z" />
    <glyph glyph-name="uni00A0" unicode="&#xa0;" horiz-adv-x="1024" 
 />
    <glyph glyph-name="exclamdown" unicode="&#xa1;" horiz-adv-x="466" 
d="M84 735v289h301v-289h-301zM84 -313l55 862h189l55 -862h-299z" />
    <glyph glyph-name="cent" unicode="&#xa2;" horiz-adv-x="700" 
d="M481 143q67 0 125 27l29 -158q-92 -32 -209 -32h-14v-287h-117v301q-129 35 -185.5 158.5t-56.5 363.5q0 229 57 349.5t185 158.5v313h117v-295q14 2 45 2q67 0 180 -20l-10 -262l-150 121q-92 0 -129 -82t-37 -285q0 -206 38 -289.5t132 -83.5z" />
    <glyph glyph-name="sterling" unicode="&#xa3;" horiz-adv-x="974" 
d="M457 168h436v-168h-764h-10h-35v168h70q27 0 43 13.5t23 43.5t9 57t2 76v215h-118v168h118v220q0 376 334 376h27q299 0 299 -350h-250q0 112 -9 142q-13 42 -50 42h-15q-21 0 -35.5 -11.5t-22 -28t-11.5 -48t-5 -57.5t-1 -70v-215h292v-168h-292v-213q0 -114 -35 -192z
" />
    <glyph glyph-name="currency" unicode="&#xa4;" horiz-adv-x="884" 
d="M793 694q0 -116 -78 -207l88 -88l-129 -127l-113 111q-68 -21 -123 -21t-114 19l-105 -109l-129 127l78 80q-84 97 -84 215q0 122 82 217l-76 74l129 127l100 -98q56 18 119 18q70 0 131 -24l105 104l129 -127l-84 -84q74 -94 74 -207zM289 692q0 -59 43 -100t106 -41
q62 0 106 41.5t44 99.5q0 63 -44 106.5t-106 43.5q-63 0 -106 -43.5t-43 -106.5z" />
    <glyph glyph-name="yen" unicode="&#xa5;" horiz-adv-x="946" 
d="M924 1337l-275 -776h199v-125h-215v-112h215v-123h-215v-201h-281v201h-211v123h211v112h-211v125h191l-309 776h305l221 -555l186 555h189z" />
    <glyph glyph-name="brokenbar" unicode="&#xa6;" horiz-adv-x="399" 
d="M88 604v733h225v-733h-225zM88 -451v727h225v-727h-225z" />
    <glyph glyph-name="section" unicode="&#xa7;" horiz-adv-x="905" 
d="M639 238q211 -121 211 -293q0 -166 -128.5 -260.5t-361.5 -94.5q-152 0 -268 41l39 164q101 -49 231 -49q207 0 207 150q0 35 -14.5 63t-47 51.5t-58.5 38.5t-77.5 39t-76.5 37q-53 28 -92 56.5t-74.5 66t-54.5 85.5t-19 103q0 104 58.5 181t162.5 114q-139 109 -139 273
q0 163 119 258.5t324 95.5q93 0 211 -27l-31 -157q-91 29 -160 26q-79 0 -122.5 -46.5t-43.5 -117.5q0 -42 11.5 -73t38 -54.5t50.5 -38.5t68 -36q45 -22 72 -37.5t60.5 -41t52 -51t31.5 -62.5t13 -81q0 -114 -50 -196t-142 -127zM455 629q-53 -17 -83 -56.5t-30 -89.5
q0 -57 31 -94t88 -67q55 15 87 56t32 101q0 51 -31.5 84.5t-93.5 65.5z" />
    <glyph glyph-name="dieresis" unicode="&#xa8;" horiz-adv-x="741" 
d="M84 1169v244h229v-244h-229zM430 1169v244h229v-244h-229z" />
    <glyph glyph-name="copyright" unicode="&#xa9;" horiz-adv-x="1335" 
d="M670 -16q-158 0 -293 92t-214 251t-79 345t79 344.5t214 250t293 91.5t292.5 -92t212.5 -250t78 -344t-78 -344.5t-212.5 -251t-292.5 -92.5zM670 113q123 0 227.5 74.5t165.5 203.5t61 281q0 151 -61 279.5t-165.5 203t-227.5 74.5q-93 0 -177.5 -44t-146 -119
t-97.5 -178t-36 -216q0 -114 36 -217.5t97.5 -178.5t146 -119t177.5 -44zM694 266q-130 0 -209 115.5t-79 290.5q0 182 75.5 294.5t208.5 112.5q90 0 152 -72t82 -204h-138q-30 158 -96 158q-65 0 -101 -80t-36 -211q0 -123 39.5 -204t101.5 -81q71 0 92 168h142
q-23 -134 -85.5 -210.5t-148.5 -76.5z" />
    <glyph glyph-name="ordfeminine" unicode="&#xaa;" horiz-adv-x="542" 
d="M252 1358q121 0 170 -35t49 -121v-407h-129v49q-30 -33 -58 -47.5t-67 -14.5q-67 0 -112.5 40.5t-45.5 127.5q0 89 51.5 138t127.5 57l84 8v45q0 27 -16.5 38t-57.5 11q-45 0 -144 -35l-16 111q111 35 164 35zM209 958q0 -37 14.5 -53t36.5 -16q34 0 62 22v154l-46 -8
q-67 -10 -67 -99z" />
    <glyph glyph-name="guillemotleft" unicode="&#xab;" horiz-adv-x="999" 
d="M524 858l-239 -315l239 -316h-250l-233 316l233 315h250zM918 858l-240 -315l240 -316h-250l-234 316l234 315h250z" />
    <glyph glyph-name="logicalnot" unicode="&#xac;" horiz-adv-x="831" 
d="M41 813h709v-432h-261v274h-448v158z" />
    <glyph glyph-name="registered" unicode="&#xae;" horiz-adv-x="1335" 
d="M670 -16q-158 0 -293 92t-214 251t-79 345t79 344.5t214 250t293 91.5t292.5 -92t212.5 -250t78 -344t-78 -344.5t-212.5 -251t-292.5 -92.5zM670 113q123 0 227.5 74.5t165.5 203.5t61 281q0 151 -61 279.5t-165.5 203t-227.5 74.5q-93 0 -177.5 -44t-146 -119
t-97.5 -178t-36 -216q0 -114 36 -217.5t97.5 -178.5t146 -119t177.5 -44zM461 336v692h198q132 0 197.5 -48.5t65.5 -154.5q0 -167 -187 -188l191 -301h-131l-174 297h-46v-297h-114zM575 729h82q35 0 58.5 3.5t45.5 14t33 32.5t11 57q0 96 -146 96h-84v-203z" />
    <glyph glyph-name="macron" unicode="&#xaf;" horiz-adv-x="657" 
d="M84 1169v191h491v-191h-491z" />
    <glyph glyph-name="degree" unicode="&#xb0;" horiz-adv-x="751" 
d="M377 772q-123 0 -208 85t-85 208t85 208t208 85t208 -85t85 -208t-85 -208t-208 -85zM377 932q55 0 94 39.5t39 93.5q0 55 -39 94t-94 39t-94 -39t-39 -94q0 -54 39 -93.5t94 -39.5z" />
    <glyph glyph-name="plusminus" unicode="&#xb1;" horiz-adv-x="800" 
d="M498 748h221v-183h-221v-276h-191v276h-223v183h223v276h191v-276zM84 0v168h635v-168h-635z" />
    <glyph glyph-name="uni00B2" unicode="&#xb2;" horiz-adv-x="487" 
d="M188 760h265v-164h-416v164q106 81 159.5 156.5t53.5 170.5q0 121 -103 121q-47 0 -94 -26l-12 133q71 35 180 35q225 0 225 -203q0 -107 -66 -200t-192 -187z" />
    <glyph glyph-name="uni00B3" unicode="&#xb3;" horiz-adv-x="518" 
d="M334 1008q72 0 110.5 -47t38.5 -134q0 -132 -60 -187.5t-206 -55.5q-101 0 -180 34l18 117q49 -18 84 -18q83 0 117.5 28t34.5 95q0 49 -28 70.5t-93 21.5h-59v104h41q65 0 91.5 23t26.5 78q0 43 -26.5 61.5t-93.5 18.5q-46 0 -95 -19l-10 119q88 33 188 33
q124 0 177 -37t53 -123q0 -80 -34 -127t-95 -53v-2z" />
    <glyph glyph-name="acute" unicode="&#xb4;" horiz-adv-x="626" 
d="M84 1169l154 285h307l-256 -285h-205z" />
    <glyph glyph-name="paragraph" unicode="&#xb6;" horiz-adv-x="985" 
d="M391 1337h164v-1532h-164v777q-350 27 -350 381q0 345 350 372v2zM655 1337h244v-1532h-244v1532z" />
    <glyph glyph-name="periodcentered" unicode="&#xb7;" horiz-adv-x="466" 
d="M84 477v309h301v-309h-301z" />
    <glyph glyph-name="cedilla" unicode="&#xb8;" horiz-adv-x="608" 
d="M313 -90q123 -14 168 -57t45 -113q0 -61 -34 -107t-94.5 -72t-133 -38.5t-160.5 -14.5l-20 113q53 4 89.5 11t67 19.5t45.5 34t15 52.5q0 68 -166 92l78 178h135z" />
    <glyph glyph-name="uni00B9" unicode="&#xb9;" horiz-adv-x="370" 
d="M16 1288l299 64v-756h-186v571l-113 -20v141z" />
    <glyph glyph-name="ordmasculine" unicode="&#xba;" horiz-adv-x="577" 
d="M291 778q-121 0 -177.5 70t-56.5 221t56 220t178 69q120 0 174.5 -69t54.5 -220t-54.5 -221t-174.5 -70zM291 879q40 0 54.5 41t14.5 149t-14.5 148t-54.5 40q-42 0 -58 -40.5t-16 -147.5t16.5 -148.5t57.5 -41.5z" />
    <glyph glyph-name="guillemotright" unicode="&#xbb;" horiz-adv-x="1001" 
d="M334 858l233 -315l-233 -316h-250l240 316l-240 315h250zM727 858l234 -315l-234 -316h-250l240 316l-240 315h250z" />
    <glyph glyph-name="onequarter" unicode="&#xbc;" horiz-adv-x="1150" 
d="M164 596v571l-113 -20v141l299 64v-756h-186zM940 1337h133l-817 -1339h-133zM1102 274v-114h-60v-160h-188v160h-248v24l248 557h188v-467h60zM733 274h121v275z" />
    <glyph glyph-name="onehalf" unicode="&#xbd;" horiz-adv-x="1265" 
d="M164 596v571l-113 -20v141l299 64v-756h-186zM940 1337h133l-817 -1339h-133zM954 164h265v-164h-416v164q106 81 159.5 157t53.5 171q0 120 -103 120q-47 0 -94 -26l-12 133q71 35 180 35q225 0 225 -203q0 -107 -66 -200t-192 -187z" />
    <glyph glyph-name="threequarters" unicode="&#xbe;" horiz-adv-x="1216" 
d="M152 717q83 0 117 27.5t34 95.5q0 49 -28 70.5t-93 21.5h-59v104h41q65 0 92 23t27 78q0 43 -27 61.5t-94 18.5q-45 0 -94 -19l-11 119q88 33 189 33q124 0 176.5 -37t52.5 -123q0 -80 -34 -127t-95 -53v-2q72 0 111 -47.5t39 -133.5q0 -132 -60.5 -187.5t-206.5 -55.5
q-101 0 -180 34l19 117q50 -18 84 -18zM1012 1337h133l-817 -1339h-133zM1163 274v-114h-59v-160h-189v160h-247v24l247 557h189v-467h59zM795 274h120v275z" />
    <glyph glyph-name="questiondown" unicode="&#xbf;" horiz-adv-x="845" 
d="M324 770v254h237v-254h-237zM424 -332q-174 0 -257 71t-83 220q0 68 14 123t36 92t48.5 69.5t53 63t48.5 64t36 81.5t14 107v84h219v-84q0 -95 -21.5 -164t-51.5 -111.5t-60.5 -83.5t-52 -105t-21.5 -152q0 -68 18.5 -97.5t61.5 -29.5q52 0 74 35.5t22 117.5v94h242v-96
q0 -152 -84 -225.5t-256 -73.5z" />
    <glyph glyph-name="Agrave" unicode="&#xc0;" horiz-adv-x="960" 
d="M614 1454h-247l-240 293h319zM641 0l-66 297h-296l-66 -297h-188l321 1337h279l311 -1337h-295zM315 465h222l-111 500z" />
    <glyph glyph-name="Aacute" unicode="&#xc1;" horiz-adv-x="960" 
d="M829 1747l-258 -293h-235l180 293h313zM641 0l-66 297h-296l-66 -297h-188l321 1337h279l311 -1337h-295zM315 465h222l-111 500z" />
    <glyph glyph-name="Acircumflex" unicode="&#xc2;" horiz-adv-x="960" 
d="M483 1577l-71 -125h-289l192 295h332l193 -295h-289zM641 0l-66 297h-296l-66 -297h-188l321 1337h279l311 -1337h-295zM315 465h222l-111 500z" />
    <glyph glyph-name="Atilde" unicode="&#xc3;" horiz-adv-x="960" 
d="M399 1524q-28 0 -49 -19t-28 -51h-201q15 134 82.5 213.5t165.5 79.5q42 0 79.5 -18t66 -36t50.5 -18q26 0 47.5 20t28.5 52h197q-17 -134 -82.5 -213.5t-157.5 -79.5q-39 0 -76.5 17.5t-68 35t-54.5 17.5zM641 0l-66 297h-296l-66 -297h-188l321 1337h279l311 -1337
h-295zM315 465h222l-111 500z" />
    <glyph glyph-name="Adieresis" unicode="&#xc4;" horiz-adv-x="960" 
d="M424 1702v-248h-242v248h242zM780 1702v-248h-243v248h243zM641 0l-66 297h-296l-66 -297h-188l321 1337h279l311 -1337h-295zM315 465h222l-111 500z" />
    <glyph glyph-name="Aring" unicode="&#xc5;" horiz-adv-x="960" 
d="M641 0l-66 297h-296l-66 -297h-188l317 1321q-51 54 -51 129q0 80 56.5 131t133.5 51t135 -51.5t58 -130.5q0 -70 -47 -123l309 -1327h-295zM481 1520q-29 0 -49 -21t-20 -51t20 -51t49 -21q30 0 50 21t20 51q0 29 -20.5 50.5t-49.5 21.5zM315 465h222l-111 500z" />
    <glyph glyph-name="AE" unicode="&#xc6;" horiz-adv-x="1361" 
d="M899 168h379v-168h-660v317h-301l-81 -317h-211l383 1337h856v-168h-365v-383h334v-168h-334v-450zM356 465h262v704h-79z" />
    <glyph glyph-name="Ccedilla" unicode="&#xc7;" horiz-adv-x="815" 
d="M545 -90q123 -14 168 -57t45 -113q0 -61 -34 -107t-94.5 -72t-133 -38.5t-160.5 -14.5l-21 113q53 4 89.5 11t67 19.5t45.5 34t15 52.5t-35 54.5t-130 37.5l67 154q-191 22 -272.5 182.5t-81.5 509.5q0 371 109 526.5t368 155.5q46 0 207 -29l-12 -278l-183 127
q-103 0 -146.5 -115.5t-43.5 -386.5q0 -282 44 -400t150 -118q73 0 146 37l31 -175q-88 -32 -181 -38z" />
    <glyph glyph-name="Egrave" unicode="&#xc8;" horiz-adv-x="849" 
d="M559 1454h-248l-239 293h319zM387 168h379v-168h-660v1337h646v-168h-365v-383h334v-168h-334v-450z" />
    <glyph glyph-name="Eacute" unicode="&#xc9;" horiz-adv-x="849" 
d="M774 1747l-258 -293h-235l180 293h313zM387 618v-450h379v-168h-660v1337h646v-168h-365v-383h334v-168h-334z" />
    <glyph glyph-name="Ecircumflex" unicode="&#xca;" horiz-adv-x="849" 
d="M428 1577l-72 -125h-288l192 295h332l192 -295h-288zM387 618v-450h379v-168h-660v1337h646v-168h-365v-383h334v-168h-334z" />
    <glyph glyph-name="Edieresis" unicode="&#xcb;" horiz-adv-x="849" 
d="M369 1702v-248h-242v248h242zM725 1702v-248h-244v248h244zM387 168h379v-168h-660v1337h646v-168h-365v-383h334v-168h-334v-450z" />
    <glyph glyph-name="Igrave" unicode="&#xcc;" horiz-adv-x="493" 
d="M133 1454l-239 293h319l168 -293h-248zM106 0v1337h281v-1337h-281z" />
    <glyph glyph-name="Iacute" unicode="&#xcd;" horiz-adv-x="493" 
d="M102 1454l181 293h313l-258 -293h-236zM106 0v1337h281v-1337h-281z" />
    <glyph glyph-name="Icircumflex" unicode="&#xce;" horiz-adv-x="493" 
d="M250 1577l-72 -125h-289l193 295h332l192 -295h-289zM106 0v1337h281v-1337h-281z" />
    <glyph glyph-name="Idieresis" unicode="&#xcf;" horiz-adv-x="493" 
d="M-51 1454v248h241v-248h-241zM303 1454v248h244v-248h-244zM106 0v1337h281v-1337h-281z" />
    <glyph glyph-name="Eth" unicode="&#xd0;" horiz-adv-x="1017" 
d="M471 1337q253 0 360 -150.5t107 -506.5q0 -369 -107 -524.5t-360 -155.5h-365v604h-63v172h63v561h365zM453 168q101 0 143.5 115t42.5 389q0 270 -42.5 383.5t-145.5 113.5h-64v-393h162v-172h-162v-436h66z" />
    <glyph glyph-name="Ntilde" unicode="&#xd1;" horiz-adv-x="1030" 
d="M467 1524q-28 0 -49.5 -19t-28.5 -51h-201q15 134 82.5 213.5t165.5 79.5q42 0 79.5 -18t66.5 -36t51 -18q26 0 47.5 20t28.5 52h196q-17 -134 -82 -213.5t-157 -79.5q-39 0 -76.5 17.5t-68 35t-54.5 17.5zM752 1337h172v-1337h-215l-428 870v-870h-175v1337h259
l387 -802v802z" />
    <glyph glyph-name="Ograve" unicode="&#xd2;" horiz-adv-x="1032" 
d="M401 1454l-239 293h319l168 -293h-248zM518 -20q-235 0 -336.5 160t-101.5 532q0 369 101.5 527.5t336.5 158.5q233 0 333.5 -158.5t100.5 -527.5q0 -372 -100.5 -532t-333.5 -160zM520 158q52 0 80.5 49t40.5 158t12 307q0 197 -12.5 304.5t-41 155.5t-81.5 48
q-54 0 -83.5 -47.5t-42.5 -156t-13 -304.5q0 -198 12.5 -307t43 -158t85.5 -49z" />
    <glyph glyph-name="Oacute" unicode="&#xd3;" horiz-adv-x="1032" 
d="M371 1454l180 293h313l-258 -293h-235zM518 -20q-235 0 -336.5 160t-101.5 532q0 369 101.5 527.5t336.5 158.5q233 0 333.5 -158.5t100.5 -527.5q0 -372 -100.5 -532t-333.5 -160zM520 158q52 0 80.5 49t40.5 158t12 307q0 197 -12.5 304.5t-41 155.5t-81.5 48
q-54 0 -83.5 -47.5t-42.5 -156t-13 -304.5q0 -198 12.5 -307t43 -158t85.5 -49z" />
    <glyph glyph-name="Ocircumflex" unicode="&#xd4;" horiz-adv-x="1032" 
d="M518 1577l-72 -125h-288l192 295h332l192 -295h-288zM518 1358q233 0 333.5 -158.5t100.5 -527.5q0 -372 -100.5 -532t-333.5 -160q-235 0 -336.5 160t-101.5 532q0 369 101.5 527.5t336.5 158.5zM520 158q52 0 80.5 49t40.5 158t12 307q0 197 -12.5 304.5t-41 155.5
t-81.5 48q-54 0 -83.5 -47.5t-42.5 -156t-13 -304.5q0 -198 12.5 -307t43 -158t85.5 -49z" />
    <glyph glyph-name="Otilde" unicode="&#xd5;" horiz-adv-x="1032" 
d="M156 1454q15 134 82 213.5t165 79.5q42 0 79.5 -18t66.5 -36t51 -18q26 0 47.5 20t28.5 52h196q-17 -134 -82 -213.5t-157 -79.5q-39 0 -76.5 17.5t-68 35t-54.5 17.5q-28 0 -49.5 -19t-28.5 -51h-200zM518 -20q-235 0 -336.5 160t-101.5 532q0 369 101.5 527.5
t336.5 158.5q233 0 333.5 -158.5t100.5 -527.5q0 -372 -100.5 -532t-333.5 -160zM520 158q52 0 80.5 49t40.5 158t12 307q0 197 -12.5 304.5t-41 155.5t-81.5 48q-54 0 -83.5 -47.5t-42.5 -156t-13 -304.5q0 -198 12.5 -307t43 -158t85.5 -49z" />
    <glyph glyph-name="Odieresis" unicode="&#xd6;" horiz-adv-x="1032" 
d="M217 1454v248h242v-248h-242zM571 1454v248h244v-248h-244zM518 -20q-235 0 -336.5 160t-101.5 532q0 369 101.5 527.5t336.5 158.5q233 0 333.5 -158.5t100.5 -527.5q0 -372 -100.5 -532t-333.5 -160zM520 158q52 0 80.5 49t40.5 158t12 307q0 197 -12.5 304.5
t-41 155.5t-81.5 48q-54 0 -83.5 -47.5t-42.5 -156t-13 -304.5q0 -198 12.5 -307t43 -158t85.5 -49z" />
    <glyph glyph-name="multiply" unicode="&#xd7;" horiz-adv-x="843" 
d="M762 342l-164 -162l-178 178l-176 -176l-158 156l178 176l-180 180l164 162l178 -178l176 174l156 -154l-176 -176z" />
    <glyph glyph-name="Oslash" unicode="&#xd8;" horiz-adv-x="1032" 
d="M971 1337l-103 -166q84 -164 84 -499q0 -372 -100.5 -532t-333.5 -160q-207 0 -309 122l-64 -104h-92l109 176q-82 160 -82 498q0 369 101.5 527.5t336.5 158.5q203 0 301 -115l60 94h92zM379 672q0 -101 2 -142l262 426q-12 122 -41 173t-84 51q-54 0 -83.5 -47.5
t-42.5 -156t-13 -304.5zM653 672q0 102 -2 147l-262 -426q12 -127 42.5 -181t88.5 -54q52 0 80.5 49t40.5 158t12 307z" />
    <glyph glyph-name="Ugrave" unicode="&#xd9;" horiz-adv-x="987" 
d="M393 1454l-239 293h319l168 -293h-248zM524 -20q-206 0 -318 112t-112 311v934h281v-936q0 -243 178 -243q168 0 168 243v936h172v-940q0 -208 -89.5 -312.5t-279.5 -104.5z" />
    <glyph glyph-name="Uacute" unicode="&#xda;" horiz-adv-x="987" 
d="M362 1454l181 293h313l-258 -293h-236zM524 -20q-206 0 -318 112t-112 311v934h281v-936q0 -243 178 -243q168 0 168 243v936h172v-940q0 -208 -89.5 -312.5t-279.5 -104.5z" />
    <glyph glyph-name="Ucircumflex" unicode="&#xdb;" horiz-adv-x="987" 
d="M510 1577l-72 -125h-288l192 295h332l192 -295h-288zM721 1337h172v-940q0 -208 -89.5 -312.5t-279.5 -104.5q-206 0 -318 112t-112 311v934h281v-936q0 -243 178 -243q168 0 168 243v936z" />
    <glyph glyph-name="Udieresis" unicode="&#xdc;" horiz-adv-x="987" 
d="M209 1454v248h242v-248h-242zM563 1454v248h244v-248h-244zM524 -20q-206 0 -318 112t-112 311v934h281v-936q0 -243 178 -243q168 0 168 243v936h172v-940q0 -208 -89.5 -312.5t-279.5 -104.5z" />
    <glyph glyph-name="Yacute" unicode="&#xdd;" horiz-adv-x="946" 
d="M881 1747l-258 -293h-236l180 293h314zM735 1337h189l-291 -825v-512h-281v512l-329 825h305l221 -555z" />
    <glyph glyph-name="Thorn" unicode="&#xde;" horiz-adv-x="960" 
d="M473 1085q223 0 321.5 -87.5t98.5 -286.5q0 -224 -98.5 -323t-321.5 -99h-86v-289h-281v1337h281v-252h86zM451 457q79 0 112 58t33 196q0 113 -33 160t-112 47h-64v-461h64z" />
    <glyph glyph-name="germandbls" unicode="&#xdf;" horiz-adv-x="917" 
d="M94 0v1044q0 169 90.5 253.5t264.5 84.5h26q361 0 361 -315q0 -111 -43.5 -193t-116.5 -110q87 -12 136.5 -106.5t49.5 -229.5q0 -212 -89 -320t-245 -108h-79v172h28q66 0 94.5 58t28.5 188q0 131 -30 188.5t-97 57.5h-29v151h21q113 0 113 213q0 178 -107 178h-10
q-52 0 -82.5 -37t-30.5 -100l2 -1069h-256z" />
    <glyph glyph-name="agrave" unicode="&#xe0;" horiz-adv-x="843" 
d="M567 1169h-225l-258 285h309zM451 1044q172 0 242.5 -65.5t70.5 -226.5v-752h-234v162q-56 -99 -115 -140.5t-139 -41.5q-95 0 -156 74t-61 229q0 162 67.5 245t203.5 117l176 45v60q0 72 -28.5 101.5t-88.5 29.5q-94 0 -252 -52l-35 160q198 55 349 55zM391 168
q48 0 81.5 54.5t33.5 111.5v237l-74 -18q-57 -16 -86 -66t-29 -151q0 -168 74 -168z" />
    <glyph glyph-name="aacute" unicode="&#xe1;" horiz-adv-x="843" 
d="M754 1454l-256 -285h-205l153 285h308zM451 1044q172 0 242.5 -65.5t70.5 -226.5v-752h-234v162q-56 -99 -115 -140.5t-139 -41.5q-95 0 -156 74t-61 229q0 162 67.5 245t203.5 117l176 45v60q0 72 -28.5 101.5t-88.5 29.5q-94 0 -252 -52l-35 160q198 55 349 55z
M391 168q48 0 81.5 54.5t33.5 111.5v237l-74 -18q-57 -16 -86 -66t-29 -151q0 -168 74 -168z" />
    <glyph glyph-name="acircumflex" unicode="&#xe2;" horiz-adv-x="843" 
d="M422 1337l-80 -168h-244l160 285h326l159 -285h-243zM451 1044q172 0 242.5 -65.5t70.5 -226.5v-752h-234v162q-56 -99 -115 -140.5t-139 -41.5q-95 0 -156 74t-61 229q0 162 67.5 245t203.5 117l176 45v60q0 72 -28.5 101.5t-88.5 29.5q-94 0 -252 -52l-35 160
q198 55 349 55zM391 168q48 0 81.5 54.5t33.5 111.5v237l-74 -18q-57 -16 -86 -66t-29 -151q0 -168 74 -168z" />
    <glyph glyph-name="atilde" unicode="&#xe3;" horiz-adv-x="843" 
d="M350 1235q-20 0 -35.5 -17.5t-23.5 -48.5h-185q17 131 73.5 208t135.5 77q39 0 72.5 -15t59.5 -30.5t45 -15.5q21 0 37 16t22 43h186q-20 -130 -76.5 -206.5t-132.5 -76.5q-44 0 -100 33t-78 33zM451 1044q172 0 242.5 -65.5t70.5 -226.5v-752h-234v162
q-56 -99 -115 -140.5t-139 -41.5q-95 0 -156 74t-61 229q0 162 67.5 245t203.5 117l176 45v60q0 72 -28.5 101.5t-88.5 29.5q-94 0 -252 -52l-35 160q198 55 349 55zM391 168q48 0 81.5 54.5t33.5 111.5v237l-74 -18q-57 -16 -86 -66t-29 -151q0 -168 74 -168z" />
    <glyph glyph-name="adieresis" unicode="&#xe4;" horiz-adv-x="843" 
d="M365 1413v-244h-230v244h230zM711 1413v-244h-230v244h230zM451 1044q172 0 242.5 -65.5t70.5 -226.5v-752h-234v162q-56 -99 -115 -140.5t-139 -41.5q-95 0 -156 74t-61 229q0 162 67.5 245t203.5 117l176 45v60q0 72 -28.5 101.5t-88.5 29.5q-94 0 -252 -52l-35 160
q198 55 349 55zM391 168q48 0 81.5 54.5t33.5 111.5v237l-74 -18q-57 -16 -86 -66t-29 -151q0 -168 74 -168z" />
    <glyph glyph-name="aring" unicode="&#xe5;" horiz-adv-x="843" 
d="M422 1169q-98 0 -161.5 58t-63.5 149q0 88 63.5 145.5t161.5 57.5t161.5 -57.5t63.5 -145.5q0 -91 -63.5 -149t-161.5 -58zM420 1450q-31 0 -51.5 -22t-20.5 -54t21 -54t53 -22t53 22t21 54t-22 54t-54 22zM451 1044q172 0 242.5 -65.5t70.5 -226.5v-752h-234v162
q-56 -99 -115 -140.5t-139 -41.5q-95 0 -156 74t-61 229q0 162 67.5 245t203.5 117l176 45v60q0 72 -28.5 101.5t-88.5 29.5q-94 0 -252 -52l-35 160q198 55 349 55zM391 168q48 0 81.5 54.5t33.5 111.5v237l-74 -18q-57 -16 -86 -66t-29 -151q0 -168 74 -168z" />
    <glyph glyph-name="ae" unicode="&#xe6;" horiz-adv-x="1288" 
d="M774 475q3 -185 46 -258.5t149 -73.5q97 0 207 58l30 -154q-128 -67 -278 -67t-241 54.5t-132 172.5q-111 -227 -279 -227q-95 0 -156 74t-61 229q0 161 70.5 245.5t200.5 116.5l176 45v60q0 72 -28.5 101.5t-88.5 29.5q-94 0 -252 -52l-35 160q198 55 349 55
q143 0 215 -53q76 53 208 53q195 0 278 -119t83 -401q0 -21 -4 -49h-457zM774 610h201v6q0 151 -20 209t-76 58q-61 0 -83 -60t-22 -213zM389 174q48 0 82.5 55.5t34.5 114.5v227l-74 -18q-59 -16 -88 -66t-29 -151q0 -162 74 -162z" />
    <glyph glyph-name="ccedilla" unicode="&#xe7;" horiz-adv-x="700" 
d="M430 -90q123 -14 168 -57t45 -113q0 -61 -34 -107t-94.5 -72t-133 -38.5t-160.5 -14.5l-20 113q53 4 89.5 11t67 19.5t45.5 34t15 52.5q0 68 -166 92l70 158q-144 29 -206.5 153t-62.5 375q0 287 92 407.5t312 120.5q67 0 180 -20l-10 -262l-150 121q-92 0 -129 -82
t-37 -285q0 -206 38 -289.5t132 -83.5q67 0 125 27l29 -158q-80 -29 -180 -32z" />
    <glyph glyph-name="egrave" unicode="&#xe8;" horiz-adv-x="829" 
d="M561 1169h-225l-258 285h309zM315 475q3 -185 46 -258.5t149 -73.5q97 0 207 58l31 -154q-128 -67 -279 -67q-224 0 -320 126t-96 412q0 280 84 403t279 123t277.5 -119t82.5 -401q0 -21 -4 -49h-457zM315 610h201v6q0 151 -20 209t-76 58q-61 0 -83 -60t-22 -213z" />
    <glyph glyph-name="eacute" unicode="&#xe9;" horiz-adv-x="829" 
d="M748 1454l-256 -285h-205l153 285h308zM315 475q3 -185 46 -258.5t149 -73.5q97 0 207 58l31 -154q-128 -67 -279 -67q-224 0 -320 126t-96 412q0 280 84 403t279 123t277.5 -119t82.5 -401q0 -21 -4 -49h-457zM315 610h201v6q0 151 -20 209t-76 58q-61 0 -83 -60
t-22 -213z" />
    <glyph glyph-name="ecircumflex" unicode="&#xea;" horiz-adv-x="829" 
d="M416 1337l-80 -168h-244l160 285h326l159 -285h-243zM315 475q3 -185 46 -258.5t149 -73.5q97 0 207 58l31 -154q-128 -67 -279 -67q-224 0 -320 126t-96 412q0 280 84 403t279 123t277.5 -119t82.5 -401q0 -21 -4 -49h-457zM315 610h201v6q0 151 -20 209t-76 58
q-61 0 -83 -60t-22 -213z" />
    <glyph glyph-name="edieresis" unicode="&#xeb;" horiz-adv-x="829" 
d="M358 1413v-244h-229v244h229zM705 1413v-244h-230v244h230zM315 475q3 -185 46 -258.5t149 -73.5q97 0 207 58l31 -154q-128 -67 -279 -67q-224 0 -320 126t-96 412q0 280 84 403t279 123t277.5 -119t82.5 -401q0 -21 -4 -49h-457zM315 610h201v6q0 151 -20 209t-76 58
q-61 0 -83 -60t-22 -213z" />
    <glyph glyph-name="igrave" unicode="&#xec;" horiz-adv-x="428" 
d="M135 1169l-258 285h309l174 -285h-225zM88 0v1024h254v-1024h-254z" />
    <glyph glyph-name="iacute" unicode="&#xed;" horiz-adv-x="428" 
d="M86 1169l154 285h307l-256 -285h-205zM88 0v1024h254v-1024h-254z" />
    <glyph glyph-name="icircumflex" unicode="&#xee;" horiz-adv-x="428" 
d="M215 1337l-80 -168h-244l160 285h326l160 -285h-244zM88 0v1024h254v-1024h-254z" />
    <glyph glyph-name="idieresis" unicode="&#xef;" horiz-adv-x="428" 
d="M-72 1169v244h230v-244h-230zM274 1169v244h230v-244h-230zM88 0v1024h254v-1024h-254z" />
    <glyph glyph-name="eth" unicode="&#xf0;" horiz-adv-x="894" 
d="M690 1214q152 -180 152 -624q0 -318 -96 -464t-310 -146q-195 0 -289 129t-94 372q0 420 301 420q114 0 195 -70q-9 152 -45 236l-133 -104l-72 86l137 108q-55 43 -143 43q-59 0 -146 -26l-28 151q98 33 207 33q167 0 280 -70l111 88l71 -86zM449 147q62 0 85 64t23 238
q0 165 -24.5 225.5t-88.5 60.5q-62 0 -86 -60.5t-24 -225.5q0 -173 25 -237.5t90 -64.5z" />
    <glyph glyph-name="ntilde" unicode="&#xf1;" horiz-adv-x="868" 
d="M393 1235q-20 0 -35.5 -17.5t-23.5 -48.5h-184q17 131 73 208t135 77q39 0 72.5 -15t59.5 -30.5t45 -15.5q21 0 37 16t22 43h186q-20 -130 -76.5 -206.5t-132.5 -76.5q-44 0 -100 33t-78 33zM565 1044q118 0 170.5 -66t52.5 -224v-754h-253v686q0 95 -17 137.5t-63 42.5
q-57 0 -85 -57t-28 -141v-668h-254v1024l254 20v-135q36 61 98.5 98t124.5 37z" />
    <glyph glyph-name="ograve" unicode="&#xf2;" horiz-adv-x="862" 
d="M352 1169l-258 285h309l175 -285h-226zM432 -20q-203 0 -291 127t-88 405t88 405t291 127q201 0 289 -127.5t88 -404.5t-88 -404.5t-289 -127.5zM432 143q43 0 66 32.5t33 111.5t10 229q0 217 -22.5 292t-86.5 75q-44 0 -67 -32t-33 -109t-10 -226q0 -221 22.5 -297
t87.5 -76z" />
    <glyph glyph-name="oacute" unicode="&#xf3;" horiz-adv-x="862" 
d="M303 1169l154 285h307l-256 -285h-205zM432 -20q-203 0 -291 127t-88 405t88 405t291 127q201 0 289 -127.5t88 -404.5t-88 -404.5t-289 -127.5zM432 143q43 0 66 32.5t33 111.5t10 229q0 217 -22.5 292t-86.5 75q-44 0 -67 -32t-33 -109t-10 -226q0 -221 22.5 -297
t87.5 -76z" />
    <glyph glyph-name="ocircumflex" unicode="&#xf4;" horiz-adv-x="862" 
d="M432 1337l-80 -168h-243l159 285h326l160 -285h-244zM432 1044q201 0 289 -127.5t88 -404.5t-88 -404.5t-289 -127.5q-203 0 -291 127t-88 405t88 405t291 127zM432 143q43 0 66 32.5t33 111.5t10 229q0 217 -22.5 292t-86.5 75q-44 0 -67 -32t-33 -109t-10 -226
q0 -221 22.5 -297t87.5 -76z" />
    <glyph glyph-name="otilde" unicode="&#xf5;" horiz-adv-x="862" 
d="M117 1169q17 131 73.5 208t135.5 77q30 0 58 -9.5t45.5 -21t37 -21t35.5 -9.5q21 0 37 16t22 43h187q-20 -130 -76.5 -206.5t-132.5 -76.5q-44 0 -100.5 33t-78.5 33q-20 0 -35.5 -17.5t-23.5 -48.5h-184zM432 -20q-203 0 -291 127t-88 405t88 405t291 127
q201 0 289 -127.5t88 -404.5t-88 -404.5t-289 -127.5zM432 143q43 0 66 32.5t33 111.5t10 229q0 217 -22.5 292t-86.5 75q-44 0 -67 -32t-33 -109t-10 -226q0 -221 22.5 -297t87.5 -76z" />
    <glyph glyph-name="odieresis" unicode="&#xf6;" horiz-adv-x="862" 
d="M145 1169v244h230v-244h-230zM492 1169v244h229v-244h-229zM432 -20q-203 0 -291 127t-88 405t88 405t291 127q201 0 289 -127.5t88 -404.5t-88 -404.5t-289 -127.5zM432 143q43 0 66 32.5t33 111.5t10 229q0 217 -22.5 292t-86.5 75q-44 0 -67 -32t-33 -109t-10 -226
q0 -221 22.5 -297t87.5 -76z" />
    <glyph glyph-name="divide" unicode="&#xf7;" horiz-adv-x="894" 
d="M309 754v270h264v-270h-264zM84 438v148h729v-148h-729zM309 0v270h264v-270h-264z" />
    <glyph glyph-name="oslash" unicode="&#xf8;" horiz-adv-x="862" 
d="M817 1024l-84 -123q76 -126 76 -389q0 -277 -88 -404.5t-289 -127.5q-177 0 -266 96l-51 -76h-70l86 123q-78 125 -78 389q0 278 88 405t291 127q178 0 264 -96l54 76h67zM322 516q0 -78 2 -113l211 308q-9 97 -32.5 134.5t-70.5 37.5q-44 0 -67 -32t-33 -109t-10 -226z
M541 516q0 71 -2 102l-211 -307q9 -94 33 -131t71 -37q43 0 66 32.5t33 111.5t10 229z" />
    <glyph glyph-name="ugrave" unicode="&#xf9;" horiz-adv-x="866" 
d="M575 1169h-225l-258 285h309zM526 1024h254v-1024l-254 -20v135q-37 -60 -99 -97.5t-124 -37.5q-117 0 -170 66.5t-53 223.5v754h254v-688q0 -95 17 -137.5t63 -42.5q57 0 84.5 57t27.5 141v670z" />
    <glyph glyph-name="uacute" unicode="&#xfa;" horiz-adv-x="866" 
d="M762 1454l-256 -285h-205l154 285h307zM526 1024h254v-1024l-254 -20v135q-37 -60 -99 -97.5t-124 -37.5q-117 0 -170 66.5t-53 223.5v754h254v-688q0 -95 17 -137.5t63 -42.5q57 0 84.5 57t27.5 141v670z" />
    <glyph glyph-name="ucircumflex" unicode="&#xfb;" horiz-adv-x="866" 
d="M430 1337l-80 -168h-244l160 285h326l160 -285h-244zM526 1024h254v-1024l-254 -20v135q-37 -60 -99 -97.5t-124 -37.5q-117 0 -170 66.5t-53 223.5v754h254v-688q0 -95 17 -137.5t63 -42.5q57 0 84.5 57t27.5 141v670z" />
    <glyph glyph-name="udieresis" unicode="&#xfc;" horiz-adv-x="866" 
d="M373 1413v-244h-230v244h230zM719 1413v-244h-230v244h230zM526 1024h254v-1024l-254 -20v135q-37 -60 -99 -97.5t-124 -37.5q-117 0 -170 66.5t-53 223.5v754h254v-688q0 -95 17 -137.5t63 -42.5q57 0 84.5 57t27.5 141v670z" />
    <glyph glyph-name="yacute" unicode="&#xfd;" horiz-adv-x="751" 
d="M770 1454l-256 -285h-205l154 285h307zM424 379l162 645h157l-364 -1413h-158l98 389h-59l-250 1024h279z" />
    <glyph glyph-name="thorn" unicode="&#xfe;" horiz-adv-x="870" 
d="M549 1044q142 0 205 -126.5t63 -419.5q0 -270 -60 -394t-196 -124q-126 0 -219 124v-493h-254v1806l254 19v-506q76 114 207 114zM457 150q55 0 75.5 78t20.5 270q0 204 -22.5 288t-77.5 84q-61 0 -86 -84t-25 -276q0 -186 26.5 -273t88.5 -87z" />
    <glyph glyph-name="ydieresis" unicode="&#xff;" horiz-adv-x="751" 
d="M381 1413v-244h-229v244h229zM727 1413v-244h-229v244h229zM586 1024h157l-364 -1413h-158l98 389h-59l-250 1024h279l135 -645z" />
    <glyph glyph-name="Amacron" unicode="&#x100;" horiz-adv-x="960" 
d="M760 1632v-178h-555v178h555zM641 0l-66 297h-296l-66 -297h-188l321 1337h279l311 -1337h-295zM315 465h222l-111 500z" />
    <glyph glyph-name="amacron" unicode="&#x101;" horiz-adv-x="843" 
d="M668 1360v-191h-492v191h492zM451 1044q172 0 242.5 -65.5t70.5 -226.5v-752h-234v162q-56 -99 -115 -140.5t-139 -41.5q-95 0 -156 74t-61 229q0 162 67.5 245t203.5 117l176 45v60q0 72 -28.5 101.5t-88.5 29.5q-94 0 -252 -52l-35 160q198 55 349 55zM391 168
q48 0 81.5 54.5t33.5 111.5v237l-74 -18q-57 -16 -86 -66t-29 -151q0 -168 74 -168z" />
    <glyph glyph-name="Abreve" unicode="&#x102;" horiz-adv-x="960" 
d="M473 1454q-146 0 -236 79.5t-96 213.5h256q3 -44 26 -70t60 -26q31 0 53.5 26t28.5 70h256q-8 -134 -102 -213.5t-246 -79.5zM641 0l-66 297h-296l-66 -297h-188l321 1337h279l311 -1337h-295zM315 465h222l-111 500z" />
    <glyph glyph-name="abreve" unicode="&#x103;" horiz-adv-x="843" 
d="M414 1169q-140 0 -226 77.5t-92 207.5h254q3 -43 23 -68.5t51 -25.5q25 0 43.5 25.5t26.5 68.5h249q-6 -131 -95 -208t-234 -77zM451 1044q172 0 242.5 -65.5t70.5 -226.5v-752h-234v162q-56 -99 -115 -140.5t-139 -41.5q-95 0 -156 74t-61 229q0 162 67.5 245t203.5 117
l176 45v60q0 72 -28.5 101.5t-88.5 29.5q-94 0 -252 -52l-35 160q198 55 349 55zM391 168q48 0 81.5 54.5t33.5 111.5v237l-74 -18q-57 -16 -86 -66t-29 -151q0 -168 74 -168z" />
    <glyph glyph-name="Aogonek" unicode="&#x104;" horiz-adv-x="960" 
d="M813 -309q44 0 80 16l25 -145q-71 -29 -175 -29q-101 0 -156 38t-55 116q0 70 58.5 166t132.5 147h-82l-66 297h-296l-66 -297h-188l321 1337h279l311 -1337h-64q-147 -130 -147 -229q0 -34 23.5 -57t64.5 -23zM315 465h222l-111 500z" />
    <glyph glyph-name="aogonek" unicode="&#x105;" horiz-adv-x="843" 
d="M750 -293l24 -145q-71 -29 -174 -29q-101 0 -156 38t-55 116q0 70 58.5 166t132.5 147h-50v162q-56 -99 -115 -140.5t-139 -41.5q-95 0 -156 74t-61 229q0 162 67.5 245t203.5 117l176 45v60q0 72 -28.5 101.5t-88.5 29.5q-94 0 -252 -52l-35 160q198 55 349 55
q172 0 242.5 -65.5t70.5 -226.5v-752h-35q-147 -130 -147 -229q0 -34 23.5 -57t64.5 -23q44 0 80 16zM391 168q48 0 81.5 54.5t33.5 111.5v237l-74 -18q-57 -16 -86 -66t-29 -151q0 -168 74 -168z" />
    <glyph glyph-name="Cacute" unicode="&#x106;" horiz-adv-x="815" 
d="M381 1454l180 293h313l-258 -293h-235zM506 -20q-232 0 -329 159t-97 537q0 371 109 526.5t368 155.5q46 0 207 -29l-12 -278l-183 127q-103 0 -146.5 -115.5t-43.5 -386.5q0 -282 44 -400t150 -118q73 0 146 37l31 -175q-116 -40 -244 -40z" />
    <glyph glyph-name="cacute" unicode="&#x107;" horiz-adv-x="700" 
d="M291 1169l153 285h308l-256 -285h-205zM426 -20q-202 0 -287.5 123t-85.5 413q0 287 92 407.5t312 120.5q67 0 180 -20l-10 -262l-150 121q-92 0 -129 -82t-37 -285q0 -206 38 -289.5t132 -83.5q67 0 125 27l29 -158q-92 -32 -209 -32z" />
    <glyph glyph-name="Ccircumflex" unicode="&#x108;" horiz-adv-x="815" 
d="M528 1577l-71 -125h-289l192 295h332l193 -295h-289zM80 676q0 371 109 526.5t368 155.5q46 0 207 -29l-12 -278l-183 127q-103 0 -146.5 -115.5t-43.5 -386.5q0 -282 44 -400t150 -118q73 0 146 37l31 -175q-116 -40 -244 -40q-232 0 -329 159t-97 537z" />
    <glyph glyph-name="ccircumflex" unicode="&#x109;" horiz-adv-x="700" 
d="M420 1337l-80 -168h-244l160 285h326l159 -285h-243zM477 883q-92 0 -129 -82t-37 -285q0 -206 38 -289.5t132 -83.5q67 0 125 27l29 -158q-92 -32 -209 -32q-202 0 -287.5 123t-85.5 413q0 287 92 407.5t312 120.5q67 0 180 -20l-10 -262z" />
    <glyph glyph-name="Cdotaccent" unicode="&#x10a;" horiz-adv-x="815" 
d="M397 1454v262h260v-262h-260zM506 -20q-232 0 -329 159t-97 537q0 371 109 526.5t368 155.5q46 0 207 -29l-12 -278l-183 127q-103 0 -146.5 -115.5t-43.5 -386.5q0 -282 44 -400t150 -118q73 0 146 37l31 -175q-116 -40 -244 -40z" />
    <glyph glyph-name="cdotaccent" unicode="&#x10b;" horiz-adv-x="700" 
d="M291 1169v263h260v-263h-260zM426 -20q-202 0 -287.5 123t-85.5 413q0 287 92 407.5t312 120.5q67 0 180 -20l-10 -262l-150 121q-92 0 -129 -82t-37 -285q0 -206 38 -289.5t132 -83.5q67 0 125 27l29 -158q-92 -32 -209 -32z" />
    <glyph glyph-name="Ccaron" unicode="&#x10c;" horiz-adv-x="815" 
d="M358 1454l-213 293h289l92 -143l95 143h286l-213 -293h-336zM80 676q0 371 109 526.5t368 155.5q46 0 207 -29l-12 -278l-183 127q-103 0 -146.5 -115.5t-43.5 -386.5q0 -282 44 -400t150 -118q73 0 146 37l31 -175q-116 -40 -244 -40q-232 0 -329 159t-97 537z" />
    <glyph glyph-name="ccaron" unicode="&#x10d;" horiz-adv-x="700" 
d="M291 1169l-189 285h240l78 -149l78 149h239l-188 -285h-258zM477 883q-92 0 -129 -82t-37 -285q0 -206 38 -289.5t132 -83.5q67 0 125 27l29 -158q-92 -32 -209 -32q-202 0 -287.5 123t-85.5 413q0 287 92 407.5t312 120.5q67 0 180 -20l-10 -262z" />
    <glyph glyph-name="Dcaron" unicode="&#x10e;" horiz-adv-x="1017" 
d="M322 1454l-213 293h288l92 -143l95 143h286l-213 -293h-335zM471 1337q253 0 360 -150.5t107 -506.5q0 -369 -107 -524.5t-360 -155.5h-365v1337h365zM453 168q101 0 143.5 115t42.5 389q0 270 -42.5 383.5t-145.5 113.5h-64v-1001h66z" />
    <glyph glyph-name="dcaron" unicode="&#x10f;" horiz-adv-x="1259" 
d="M526 922v493l254 21v-1436h-227v137q-92 -157 -246 -157q-135 0 -194.5 125.5t-59.5 414.5q0 282 61.5 403t204.5 121q125 0 207 -122zM874 1376h314v-372q0 -94 -45 -163.5t-115 -102.5t-154 -33v159q57 0 96.5 36t39.5 95v58h-136v323zM410 156q61 0 88.5 85.5
t27.5 274.5q0 180 -27 265t-91 85q-56 0 -77.5 -76t-21.5 -264q0 -202 22.5 -286t78.5 -84z" />
    <glyph glyph-name="Dcroat" unicode="&#x110;" horiz-adv-x="1017" 
d="M471 1337q253 0 360 -150.5t107 -506.5q0 -369 -107 -524.5t-360 -155.5h-365v604h-63v172h63v561h365zM453 168q101 0 143.5 115t42.5 389q0 270 -42.5 383.5t-145.5 113.5h-64v-393h162v-172h-162v-436h66z" />
    <glyph glyph-name="dcroat" unicode="&#x111;" horiz-adv-x="868" 
d="M860 1231v-98h-80v-1133h-227v137q-92 -157 -246 -157q-135 0 -194.5 125.5t-59.5 414.5q0 282 61.5 403t204.5 121q125 0 207 -122v211h-272v98h272v184l254 21v-205h80zM410 156q61 0 88.5 85.5t27.5 274.5q0 180 -27 265t-91 85q-56 0 -77.5 -76t-21.5 -264
q0 -202 22.5 -286t78.5 -84z" />
    <glyph glyph-name="Emacron" unicode="&#x112;" horiz-adv-x="849" 
d="M705 1632v-178h-555v178h555zM387 168h379v-168h-660v1337h646v-168h-365v-383h334v-168h-334v-450z" />
    <glyph glyph-name="emacron" unicode="&#x113;" horiz-adv-x="829" 
d="M662 1360v-191h-492v191h492zM315 475q3 -185 46 -258.5t149 -73.5q97 0 207 58l31 -154q-128 -67 -279 -67q-224 0 -320 126t-96 412q0 280 84 403t279 123t277.5 -119t82.5 -401q0 -21 -4 -49h-457zM315 610h201v6q0 151 -20 209t-76 58q-61 0 -83 -60t-22 -213z" />
    <glyph glyph-name="Ebreve" unicode="&#x114;" horiz-adv-x="849" 
d="M418 1454q-146 0 -236 79.5t-96 213.5h256q3 -44 26 -70t60 -26q31 0 53.5 26t28.5 70h256q-8 -134 -102 -213.5t-246 -79.5zM387 618v-450h379v-168h-660v1337h646v-168h-365v-383h334v-168h-334z" />
    <glyph glyph-name="ebreve" unicode="&#x115;" horiz-adv-x="829" 
d="M408 1169q-140 0 -226 77.5t-92 207.5h254q3 -43 23 -68.5t51 -25.5q25 0 43 25.5t26 68.5h250q-6 -131 -95 -208t-234 -77zM315 475q3 -185 46 -258.5t149 -73.5q97 0 207 58l31 -154q-128 -67 -279 -67q-224 0 -320 126t-96 412q0 280 84 403t279 123t277.5 -119
t82.5 -401q0 -21 -4 -49h-457zM315 610h201v6q0 151 -20 209t-76 58q-61 0 -83 -60t-22 -213z" />
    <glyph glyph-name="Edotaccent" unicode="&#x116;" horiz-adv-x="849" 
d="M557 1716v-262h-260v262h260zM387 168h379v-168h-660v1337h646v-168h-365v-383h334v-168h-334v-450z" />
    <glyph glyph-name="edotaccent" unicode="&#x117;" horiz-adv-x="829" 
d="M547 1432v-263h-260v263h260zM315 475q3 -185 46 -258.5t149 -73.5q97 0 207 58l31 -154q-128 -67 -279 -67q-224 0 -320 126t-96 412q0 280 84 403t279 123t277.5 -119t82.5 -401q0 -21 -4 -49h-457zM315 610h201v6q0 151 -20 209t-76 58q-61 0 -83 -60t-22 -213z" />
    <glyph glyph-name="Eogonek" unicode="&#x118;" horiz-adv-x="849" 
d="M721 0q-148 -131 -148 -229q0 -34 24 -57t65 -23q43 0 79 16l25 -145q-71 -29 -174 -29q-101 0 -156 38t-55 116q0 70 58 166t132 147h-465v1337h646v-168h-365v-383h334v-168h-334v-450h379v-168h-45z" />
    <glyph glyph-name="eogonek" unicode="&#x119;" horiz-adv-x="829" 
d="M315 475q3 -185 46 -258.5t149 -73.5q97 0 207 58l31 -154q-20 -10 -48 -22q-145 -131 -145 -228q0 -34 23.5 -57t64.5 -23q42 0 80 17l25 -146q-68 -28 -175 -28q-211 0 -211 153q0 58 39 133.5t97 133.5h-29q-224 0 -320 126t-96 412q0 280 84 403t279 123t277.5 -119
t82.5 -401q0 -21 -4 -49h-457zM315 610h201v6q0 151 -20 209t-76 58q-61 0 -83 -60t-22 -213z" />
    <glyph glyph-name="Ecaron" unicode="&#x11a;" horiz-adv-x="849" 
d="M258 1454l-213 293h289l92 -143l94 143h287l-213 -293h-336zM387 618v-450h379v-168h-660v1337h646v-168h-365v-383h334v-168h-334z" />
    <glyph glyph-name="ecaron" unicode="&#x11b;" horiz-adv-x="829" 
d="M287 1169l-189 285h240l78 -149l78 149h239l-188 -285h-258zM315 475q3 -185 46 -258.5t149 -73.5q97 0 207 58l31 -154q-128 -67 -279 -67q-224 0 -320 126t-96 412q0 280 84 403t279 123t277.5 -119t82.5 -401q0 -21 -4 -49h-457zM315 610h201v6q0 151 -20 209t-76 58
q-61 0 -83 -60t-22 -213z" />
    <glyph glyph-name="Gcircumflex" unicode="&#x11c;" horiz-adv-x="1024" 
d="M586 1577l-72 -125h-289l193 295h332l192 -295h-289zM516 571v168h402v-696q-137 -63 -306 -63q-289 0 -410.5 157.5t-121.5 530.5q0 375 130 532.5t439 157.5q123 0 228 -31v-178q-102 31 -203 31q-160 0 -227.5 -116.5t-67.5 -393.5q0 -279 54.5 -395.5t184.5 -116.5
q40 0 58 2v411h-160z" />
    <glyph glyph-name="gcircumflex" unicode="&#x11d;" horiz-adv-x="876" 
d="M428 1337l-80 -168h-244l160 285h326l160 -285h-244zM563 1024l228 20v-1028q0 -211 -113.5 -318.5t-312.5 -107.5q-146 0 -254 39l32 174q95 -39 187 -39q109 0 158 54t49 170v112q-87 -120 -205 -120q-151 0 -215 119t-64 399q0 287 69 416.5t216 129.5q146 0 225 -161
v141zM418 156q64 0 91.5 85.5t27.5 268.5q0 188 -26.5 272t-90.5 84q-56 0 -78.5 -85.5t-22.5 -282.5q0 -189 22.5 -265.5t76.5 -76.5z" />
    <glyph glyph-name="Gbreve" unicode="&#x11e;" horiz-adv-x="1024" 
d="M575 1454q-146 0 -235.5 79.5t-95.5 213.5h256q3 -44 26 -70t60 -26q31 0 53.5 26t28.5 70h256q-8 -134 -102.5 -213.5t-246.5 -79.5zM516 571v168h402v-696q-137 -63 -306 -63q-289 0 -410.5 157.5t-121.5 530.5q0 375 130 532.5t439 157.5q123 0 228 -31v-178
q-102 31 -203 31q-160 0 -227.5 -116.5t-67.5 -393.5q0 -279 54.5 -395.5t184.5 -116.5q40 0 58 2v411h-160z" />
    <glyph glyph-name="gbreve" unicode="&#x11f;" horiz-adv-x="876" 
d="M420 1169q-140 0 -226 77.5t-92 207.5h254q3 -43 23 -68.5t51 -25.5q25 0 43.5 25.5t26.5 68.5h250q-6 -130 -95.5 -207.5t-234.5 -77.5zM563 1024l228 20v-1028q0 -211 -113.5 -318.5t-312.5 -107.5q-146 0 -254 39l32 174q95 -39 187 -39q109 0 158 54t49 170v112
q-87 -120 -205 -120q-151 0 -215 119t-64 399q0 287 69 416.5t216 129.5q146 0 225 -161v141zM418 156q64 0 91.5 85.5t27.5 268.5q0 188 -26.5 272t-90.5 84q-56 0 -78.5 -85.5t-22.5 -282.5q0 -189 22.5 -265.5t76.5 -76.5z" />
    <glyph glyph-name="Gdotaccent" unicode="&#x120;" horiz-adv-x="1024" 
d="M715 1716v-262h-260v262h260zM516 739h402v-696q-137 -63 -306 -63q-289 0 -410.5 157.5t-121.5 530.5q0 375 130 532.5t439 157.5q123 0 228 -31v-178q-102 31 -203 31q-160 0 -227.5 -116.5t-67.5 -393.5q0 -279 54.5 -395.5t184.5 -116.5q40 0 58 2v411h-160v168z" />
    <glyph glyph-name="gdotaccent" unicode="&#x121;" horiz-adv-x="876" 
d="M559 1432v-263h-260v263h260zM563 1024l228 20v-1028q0 -211 -113.5 -318.5t-312.5 -107.5q-146 0 -254 39l32 174q95 -39 187 -39q109 0 158 54t49 170v112q-87 -120 -205 -120q-151 0 -215 119t-64 399q0 287 69 416.5t216 129.5q146 0 225 -161v141zM418 156
q64 0 91.5 85.5t27.5 268.5q0 188 -26.5 272t-90.5 84q-56 0 -78.5 -85.5t-22.5 -282.5q0 -189 22.5 -265.5t76.5 -76.5z" />
    <glyph glyph-name="uni0122" unicode="&#x122;" horiz-adv-x="1024" 
d="M516 739h402v-696q-137 -63 -306 -63q-289 0 -410.5 157.5t-121.5 530.5q0 375 130 532.5t439 157.5q123 0 228 -31v-178q-102 31 -203 31q-160 0 -227.5 -116.5t-67.5 -393.5q0 -279 54.5 -395.5t184.5 -116.5q40 0 58 2v411h-160v168zM369 -428v285h276v-326
q0 -122 -81 -192t-195 -70v141q49 0 83.5 31t34.5 82v49h-118z" />
    <glyph glyph-name="uni0123" unicode="&#x123;" horiz-adv-x="876" 
d="M584 1493v-324h-314v373q0 94 45 163.5t115 102.5t154 33v-160q-57 0 -96 -35.5t-39 -93.5v-59h135zM563 1024l228 20v-1028q0 -211 -113.5 -318.5t-312.5 -107.5q-146 0 -254 39l32 174q95 -39 187 -39q109 0 158 54t49 170v112q-87 -120 -205 -120q-151 0 -215 119
t-64 399q0 287 69 416.5t216 129.5q146 0 225 -161v141zM418 156q64 0 91.5 85.5t27.5 268.5q0 188 -26.5 272t-90.5 84q-56 0 -78.5 -85.5t-22.5 -282.5q0 -189 22.5 -265.5t76.5 -76.5z" />
    <glyph glyph-name="Hcircumflex" unicode="&#x124;" horiz-adv-x="1032" 
d="M518 1577l-72 -125h-288l192 295h332l192 -295h-288zM645 1337h281v-1337h-281v625h-258v-625h-281v1337h281v-544h258v544z" />
    <glyph glyph-name="hcircumflex" unicode="&#x125;" horiz-adv-x="868" 
d="M217 1655l-72 -125h-288l192 295h332l192 -295h-288zM565 1044q118 0 170.5 -66t52.5 -224v-754h-253v686q0 95 -17 137.5t-63 42.5q-57 0 -85 -57t-28 -141v-668h-254v1415l254 21v-527q36 61 98.5 98t124.5 37z" />
    <glyph glyph-name="Hbar" unicode="&#x126;" horiz-adv-x="1032" 
d="M1032 1085v-106h-106v-979h-281v625h-258v-625h-281v979h-100v106h100v252h281v-252h258v252h281v-252h106zM645 793v186h-258v-186h258z" />
    <glyph glyph-name="hbar" unicode="&#x127;" horiz-adv-x="868" 
d="M565 1044q118 0 170.5 -66t52.5 -224v-754h-253v686q0 95 -17 137.5t-63 42.5q-57 0 -85 -57t-28 -141v-668h-254v1137h-84v98h84v180l254 21v-201h266v-98h-266v-228q36 61 98.5 98t124.5 37z" />
    <glyph glyph-name="Itilde" unicode="&#x128;" horiz-adv-x="493" 
d="M-113 1454q15 134 82.5 213.5t165.5 79.5q42 0 79.5 -18t66.5 -36t51 -18q26 0 47.5 20t28.5 52h196q-17 -134 -82 -213.5t-157 -79.5q-39 0 -76.5 17.5t-68 35t-54.5 17.5q-28 0 -49.5 -19t-28.5 -51h-201zM106 0v1337h281v-1337h-281z" />
    <glyph glyph-name="itilde" unicode="&#x129;" horiz-adv-x="428" 
d="M-100 1169q17 131 73.5 208t135.5 77q30 0 58 -9.5t45.5 -21t37 -21t35.5 -9.5q21 0 37 16t22 43h186q-20 -130 -76 -206.5t-132 -76.5q-44 0 -100.5 33t-78.5 33q-20 0 -35.5 -17.5t-23.5 -48.5h-184zM88 0v1024h254v-1024h-254z" />
    <glyph glyph-name="Imacron" unicode="&#x12a;" horiz-adv-x="493" 
d="M-29 1454v178h555v-178h-555zM106 0v1337h281v-1337h-281z" />
    <glyph glyph-name="imacron" unicode="&#x12b;" horiz-adv-x="428" 
d="M-31 1169v191h492v-191h-492zM88 0v1024h254v-1024h-254z" />
    <glyph glyph-name="Ibreve" unicode="&#x12c;" horiz-adv-x="493" 
d="M240 1454q-146 0 -236 79.5t-96 213.5h256q3 -44 26 -70t60 -26q31 0 53.5 26t28.5 70h256q-8 -134 -102 -213.5t-246 -79.5zM106 0v1337h281v-1337h-281z" />
    <glyph glyph-name="ibreve" unicode="&#x12d;" horiz-adv-x="428" 
d="M207 1169q-140 0 -226 77.5t-92 207.5h254q3 -43 23 -68.5t51 -25.5q25 0 43.5 25.5t26.5 68.5h250q-6 -130 -95.5 -207.5t-234.5 -77.5zM88 0v1024h254v-1024h-254z" />
    <glyph glyph-name="Iogonek" unicode="&#x12e;" horiz-adv-x="493" 
d="M342 0q-147 -130 -147 -229q0 -34 23.5 -57t64.5 -23q43 0 79 16l25 -145q-71 -29 -174 -29q-101 0 -156 38t-55 116q0 70 58.5 166t132.5 147h-87v1337h281v-1337h-45z" />
    <glyph glyph-name="iogonek" unicode="&#x12f;" horiz-adv-x="428" 
d="M346 1432v-263h-260v263h260zM326 -293l24 -145q-71 -29 -174 -29q-101 0 -156 38t-55 116q0 70 58.5 166t132.5 147h-68v1024h254v-1024h-37q-147 -130 -147 -229q0 -34 23.5 -57t64.5 -23q44 0 80 16z" />
    <glyph glyph-name="Idotaccent" unicode="&#x130;" horiz-adv-x="493" 
d="M119 1454v262h260v-262h-260zM106 0v1337h281v-1337h-281z" />
    <glyph glyph-name="dotlessi" unicode="&#x131;" horiz-adv-x="428" 
d="M88 0v1024h254v-1024h-254z" />
    <glyph glyph-name="Jcircumflex" unicode="&#x134;" horiz-adv-x="503" 
d="M260 1577l-72 -125h-288l192 295h332l192 -295h-288zM117 -25v1362h280v-1351q0 -218 -86.5 -307t-298.5 -89q-43 0 -118 11l8 168q63 -11 67 -11q83 0 115.5 47t32.5 170z" />
    <glyph glyph-name="jcircumflex" unicode="&#x135;" horiz-adv-x="428" 
d="M215 1337l-80 -168h-244l160 285h326l160 -285h-244zM88 -84v1108h254v-1122q0 -174 -65.5 -244t-202.5 -70q-112 0 -224 37l33 176q62 -16 94 -16q58 0 84.5 31t26.5 100z" />
    <glyph glyph-name="uni0136" unicode="&#x136;" horiz-adv-x="1005" 
d="M621 815l352 -815h-301l-230 537l-55 -84v-453h-281v1337h281v-499l313 499h256zM375 -428v285h276v-326q0 -122 -81 -192t-195 -70v141q49 0 84 31t35 82v49h-119z" />
    <glyph glyph-name="uni0137" unicode="&#x137;" horiz-adv-x="860" 
d="M342 305v-305h-254v1417l254 21v-811l240 397h235l-246 -373l254 -651h-266l-151 403zM289 -428v285h276v-326q0 -122 -81 -192t-195 -70v141q49 0 84 31t35 82v49h-119z" />
    <glyph glyph-name="kgreenlandic" unicode="&#x138;" horiz-adv-x="862" 
d="M551 0l-150 393l-59 -90v-303h-254v1026l254 21v-398l221 375h262l-258 -383l262 -641h-278z" />
    <glyph glyph-name="Lacute" unicode="&#x139;" horiz-adv-x="811" 
d="M596 1747l-258 -293h-236l181 293h313zM387 168h373v-168h-654v1337h281v-1169z" />
    <glyph glyph-name="lacute" unicode="&#x13a;" horiz-adv-x="428" 
d="M70 1534l180 293h313l-258 -293h-235zM88 0v1417h254v-1417h-254z" />
    <glyph glyph-name="uni013B" unicode="&#x13b;" horiz-adv-x="811" 
d="M387 168h373v-168h-654v1337h281v-1169zM264 -428v285h277v-326q0 -122 -81.5 -192t-195.5 -70v141q49 0 84 31t35 82v49h-119z" />
    <glyph glyph-name="uni013C" unicode="&#x13c;" horiz-adv-x="428" 
d="M342 1417v-1417h-254v1417h254zM74 -143h276v-326q0 -122 -81 -192t-195 -70v141q49 0 84 31t35 82v49h-119v285z" />
    <glyph glyph-name="Lcaron" unicode="&#x13d;" horiz-adv-x="923" 
d="M387 1337v-1169h373v-168h-654v1337h281zM535 1337h313v-372q0 -140 -91.5 -219.5t-221.5 -79.5v159q57 0 96 36t39 95v58h-135v323z" />
    <glyph glyph-name="lcaron" unicode="&#x13e;" horiz-adv-x="843" 
d="M88 0v1417h254v-1417h-254zM459 1337h313v-372q0 -140 -91.5 -219.5t-221.5 -79.5v159q57 0 96 36t39 95v58h-135v323z" />
    <glyph glyph-name="Lslash" unicode="&#x141;" horiz-adv-x="811" 
d="M387 168h373v-168h-654v414l-90 -68v143l90 68v780h281v-620l191 133v-143l-191 -132v-407z" />
    <glyph glyph-name="lslash" unicode="&#x142;" horiz-adv-x="434" 
d="M449 901v-147l-103 -62v-692h-254v557l-106 -59v147l106 60v712h254v-577z" />
    <glyph glyph-name="Nacute" unicode="&#x143;" horiz-adv-x="1030" 
d="M897 1747l-258 -293h-236l181 293h313zM752 1337h172v-1337h-215l-428 870v-870h-175v1337h259l387 -802v802z" />
    <glyph glyph-name="nacute" unicode="&#x144;" horiz-adv-x="868" 
d="M797 1454l-256 -285h-205l153 285h308zM565 1044q118 0 170.5 -66t52.5 -224v-754h-253v686q0 95 -17 137.5t-63 42.5q-57 0 -85 -57t-28 -141v-668h-254v1024l254 20v-135q36 61 98.5 98t124.5 37z" />
    <glyph glyph-name="uni0145" unicode="&#x145;" horiz-adv-x="1030" 
d="M752 1337h172v-1337h-215l-428 870v-870h-175v1337h259l387 -802v802zM375 -428v285h276v-326q0 -122 -81 -192t-195 -70v141q49 0 84 31t35 82v49h-119z" />
    <glyph glyph-name="uni0146" unicode="&#x146;" horiz-adv-x="868" 
d="M565 1044q118 0 170.5 -66t52.5 -224v-754h-253v686q0 95 -17 137.5t-63 42.5q-57 0 -85 -57t-28 -141v-668h-254v1024l254 20v-135q36 61 98.5 98t124.5 37zM297 -428v285h276v-326q0 -122 -81 -192t-195 -70v141q49 0 84 31t35 82v49h-119z" />
    <glyph glyph-name="Ncaron" unicode="&#x147;" horiz-adv-x="1030" 
d="M381 1454l-213 293h289l92 -143l94 143h287l-213 -293h-336zM752 535v802h172v-1337h-215l-428 870v-870h-175v1337h259z" />
    <glyph glyph-name="ncaron" unicode="&#x148;" horiz-adv-x="868" 
d="M336 1169l-189 285h240l78 -149l78 149h239l-188 -285h-258zM565 1044q118 0 170.5 -66t52.5 -224v-754h-253v686q0 95 -17 137.5t-63 42.5q-57 0 -85 -57t-28 -141v-668h-254v1024l254 20v-135q36 61 98.5 98t124.5 37z" />
    <glyph glyph-name="napostrophe" unicode="&#x149;" horiz-adv-x="1234" 
d="M68 1128v324h313v-373q0 -140 -91.5 -219.5t-221.5 -79.5v160q57 0 96 36t39 95v57h-135zM932 1044q118 0 170.5 -66t52.5 -224v-754h-254v686q0 95 -17 137.5t-63 42.5q-57 0 -84.5 -57t-27.5 -141v-668h-254v1024l254 20v-135q36 61 98.5 98t124.5 37z" />
    <glyph glyph-name="Eng" unicode="&#x14a;" horiz-adv-x="1026" 
d="M748 1337h172v-1464q0 -158 -50 -220.5t-155 -62.5q-99 0 -203 37l33 154q54 -14 94 -14q57 0 83 30t26 99v104h-41l-428 872v-872h-173v1337h252l390 -807v807z" />
    <glyph glyph-name="eng" unicode="&#x14b;" horiz-adv-x="880" 
d="M578 1044q118 0 170.5 -66t52.5 -224v-824q0 -130 -32.5 -205.5t-91 -105t-153.5 -29.5q-106 0 -213 37l33 174q54 -14 94 -14q57 0 83 30t26 99v752q0 95 -17 137.5t-63 42.5q-63 0 -94 -58t-31 -141v-649h-254v1024l254 20v-135q38 60 104.5 97.5t131.5 37.5z" />
    <glyph glyph-name="Omacron" unicode="&#x14c;" horiz-adv-x="1032" 
d="M240 1454v178h555v-178h-555zM518 -20q-235 0 -336.5 160t-101.5 532q0 369 101.5 527.5t336.5 158.5q233 0 333.5 -158.5t100.5 -527.5q0 -372 -100.5 -532t-333.5 -160zM520 158q52 0 80.5 49t40.5 158t12 307q0 197 -12.5 304.5t-41 155.5t-81.5 48q-54 0 -83.5 -47.5
t-42.5 -156t-13 -304.5q0 -198 12.5 -307t43 -158t85.5 -49z" />
    <glyph glyph-name="omacron" unicode="&#x14d;" horiz-adv-x="862" 
d="M186 1169v191h492v-191h-492zM432 -20q-203 0 -291 127t-88 405t88 405t291 127q201 0 289 -127.5t88 -404.5t-88 -404.5t-289 -127.5zM432 143q43 0 66 32.5t33 111.5t10 229q0 217 -22.5 292t-86.5 75q-44 0 -67 -32t-33 -109t-10 -226q0 -221 22.5 -297t87.5 -76z" />
    <glyph glyph-name="Obreve" unicode="&#x14e;" horiz-adv-x="1032" 
d="M508 1454q-146 0 -236 79.5t-96 213.5h256q3 -44 26 -70t60 -26q31 0 53.5 26t28.5 70h256q-8 -134 -102 -213.5t-246 -79.5zM518 -20q-235 0 -336.5 160t-101.5 532q0 369 101.5 527.5t336.5 158.5q233 0 333.5 -158.5t100.5 -527.5q0 -372 -100.5 -532t-333.5 -160z
M520 158q52 0 80.5 49t40.5 158t12 307q0 197 -12.5 304.5t-41 155.5t-81.5 48q-54 0 -83.5 -47.5t-42.5 -156t-13 -304.5q0 -198 12.5 -307t43 -158t85.5 -49z" />
    <glyph glyph-name="obreve" unicode="&#x14f;" horiz-adv-x="862" 
d="M424 1169q-140 0 -226 77.5t-92 207.5h254q3 -43 23 -68.5t51 -25.5q25 0 43.5 25.5t26.5 68.5h250q-6 -130 -95.5 -207.5t-234.5 -77.5zM432 -20q-203 0 -291 127t-88 405t88 405t291 127q201 0 289 -127.5t88 -404.5t-88 -404.5t-289 -127.5zM432 143q43 0 66 32.5
t33 111.5t10 229q0 217 -22.5 292t-86.5 75q-44 0 -67 -32t-33 -109t-10 -226q0 -221 22.5 -297t87.5 -76z" />
    <glyph glyph-name="Ohungarumlaut" unicode="&#x150;" horiz-adv-x="1032" 
d="M219 1450l137 295h258l-227 -295h-168zM545 1450l135 295h260l-229 -295h-166zM518 -20q-235 0 -336.5 160t-101.5 532q0 369 101.5 527.5t336.5 158.5q233 0 333.5 -158.5t100.5 -527.5q0 -372 -100.5 -532t-333.5 -160zM520 158q52 0 80.5 49t40.5 158t12 307
q0 197 -12.5 304.5t-41 155.5t-81.5 48q-54 0 -83.5 -47.5t-42.5 -156t-13 -304.5q0 -198 12.5 -307t43 -158t85.5 -49z" />
    <glyph glyph-name="ohungarumlaut" unicode="&#x151;" horiz-adv-x="862" 
d="M125 1169l108 285h293l-202 -285h-199zM483 1169l109 285h293l-203 -285h-199zM432 -20q-203 0 -291 127t-88 405t88 405t291 127q201 0 289 -127.5t88 -404.5t-88 -404.5t-289 -127.5zM432 143q43 0 66 32.5t33 111.5t10 229q0 217 -22.5 292t-86.5 75q-44 0 -67 -32
t-33 -109t-10 -226q0 -221 22.5 -297t87.5 -76z" />
    <glyph glyph-name="OE" unicode="&#x152;" horiz-adv-x="1382" 
d="M920 168h378v-168h-618q-59 -20 -141 -20q-250 0 -354.5 158t-104.5 534q0 374 104.5 530t354.5 156q81 0 143 -21h602v-168h-364v-383h333v-168h-333v-450zM375 672q0 -291 37 -409t129 -118q56 0 98 37v975q-43 35 -100 35q-91 0 -127.5 -116t-36.5 -404z" />
    <glyph glyph-name="oe" unicode="&#x153;" horiz-adv-x="1327" 
d="M813 475q3 -187 46 -261.5t149 -74.5q96 0 206 58l31 -150q-128 -67 -278 -67q-192 0 -287 79q-88 -79 -248 -79q-203 0 -291 127t-88 405t88 405t291 127q155 0 240 -73q82 73 241 73q192 0 276.5 -118.5t84.5 -401.5q0 -21 -4 -49h-457zM813 610h201v27
q0 153 -20 211.5t-76 58.5q-62 0 -83.5 -61t-21.5 -223v-13zM432 143q43 0 66 32.5t33 111.5t10 229q0 217 -22.5 292t-86.5 75q-44 0 -67 -32t-33 -109t-10 -226q0 -221 22.5 -297t87.5 -76z" />
    <glyph glyph-name="Racute" unicode="&#x154;" horiz-adv-x="1013" 
d="M856 1747l-258 -293h-236l181 293h313zM680 0l-193 485h-100v-485h-281v1337h381q426 0 426 -409q0 -269 -159 -377l223 -551h-297zM387 1169v-516h76q82 0 116.5 63.5t34.5 209.5q0 129 -35.5 186t-115.5 57h-76z" />
    <glyph glyph-name="racute" unicode="&#x155;" horiz-adv-x="663" 
d="M664 1454l-256 -285h-205l153 285h308zM342 840q41 91 102 147.5t125 56.5q36 0 60 -8l-13 -268q-54 25 -100 25q-80 0 -127 -78.5t-47 -198.5v-516h-254v1024l254 20v-204z" />
    <glyph glyph-name="uni0156" unicode="&#x156;" horiz-adv-x="1013" 
d="M754 551l223 -551h-297l-193 485h-100v-485h-281v1337h381q426 0 426 -409q0 -269 -159 -377zM387 1169v-516h76q82 0 116.5 63.5t34.5 209.5q0 129 -35.5 186t-115.5 57h-76zM367 -428v285h276v-326q0 -122 -81 -192t-195 -70v141q49 0 83.5 31t34.5 82v49h-118z" />
    <glyph glyph-name="uni0157" unicode="&#x157;" horiz-adv-x="663" 
d="M569 1044q36 0 60 -8l-13 -268q-54 25 -100 25q-80 0 -127 -78.5t-47 -198.5v-516h-254v1024l254 20v-204q41 91 102 147.5t125 56.5zM74 -428v285h276v-326q0 -122 -81 -192t-195 -70v141q49 0 84 31t35 82v49h-119z" />
    <glyph glyph-name="Rcaron" unicode="&#x158;" horiz-adv-x="1013" 
d="M340 1454l-213 293h289l92 -143l94 143h287l-213 -293h-336zM680 0l-193 485h-100v-485h-281v1337h381q426 0 426 -409q0 -269 -159 -377l223 -551h-297zM387 1169v-516h76q82 0 116.5 63.5t34.5 209.5q0 129 -35.5 186t-115.5 57h-76z" />
    <glyph glyph-name="rcaron" unicode="&#x159;" horiz-adv-x="663" 
d="M203 1169l-189 285h240l78 -149l78 149h239l-188 -285h-258zM342 840q41 91 102 147.5t125 56.5q36 0 60 -8l-13 -268q-54 25 -100 25q-80 0 -127 -78.5t-47 -198.5v-516h-254v1024l254 20v-204z" />
    <glyph glyph-name="Sacute" unicode="&#x15a;" horiz-adv-x="839" 
d="M274 1454l181 293h313l-258 -293h-236zM293 -20q-123 0 -238 47l37 192q100 -59 205 -59q94 0 149.5 50.5t55.5 141.5q0 19 -2.5 35.5t-11 32t-14 27t-21 25.5t-22.5 21t-28.5 21.5t-28.5 19t-33 20t-32 19.5q-110 66 -174.5 152.5t-64.5 212.5q0 182 117.5 301
t304.5 119q147 0 249 -31l-30 -182q-80 36 -181 33q-74 0 -118.5 -51t-44.5 -126q0 -46 14 -81.5t42.5 -62.5t55.5 -44t68 -37q112 -52 174.5 -127t62.5 -196q0 -215 -137 -344t-354 -129z" />
    <glyph glyph-name="sacute" unicode="&#x15b;" horiz-adv-x="710" 
d="M227 1169l154 285h307l-256 -285h-205zM272 -20q-130 0 -217 36l31 172q89 -45 188 -45q68 0 109 39t41 99q0 22 -6 40t-14 29.5t-25 23.5t-28.5 18t-36.5 17.5t-38 18.5q-98 48 -152 119t-54 178q0 145 102 232t256 87q105 0 197 -28l-27 -164q-66 31 -154 31
q-51 0 -81.5 -34t-30.5 -85q0 -18 3.5 -33.5t7.5 -27t14.5 -23t16 -17.5t21.5 -16t21.5 -13.5t25.5 -13.5t25 -12q42 -20 73.5 -42.5t61 -54t45 -74.5t15.5 -95q0 -174 -105 -268t-285 -94z" />
    <glyph glyph-name="Scircumflex" unicode="&#x15c;" horiz-adv-x="839" 
d="M422 1577l-72 -125h-289l193 295h332l192 -295h-289zM547 776q112 -52 174.5 -127t62.5 -196q0 -215 -137 -344t-354 -129q-123 0 -238 47l37 192q100 -59 205 -59q94 0 149.5 50.5t55.5 141.5q0 19 -2.5 35.5t-11 32t-14 27t-21 25.5t-22.5 21t-28.5 21.5t-28.5 19
t-33 20t-32 19.5q-110 66 -174.5 152.5t-64.5 212.5q0 182 117.5 301t304.5 119q147 0 249 -31l-30 -182q-80 36 -181 33q-74 0 -118.5 -51t-44.5 -126q0 -46 14 -81.5t42.5 -62.5t55.5 -44t68 -37z" />
    <glyph glyph-name="scircumflex" unicode="&#x15d;" horiz-adv-x="710" 
d="M356 1337l-80 -168h-243l160 285h325l160 -285h-244zM467 608q42 -20 73.5 -42.5t61 -54t45 -74.5t15.5 -95q0 -174 -105 -268t-285 -94q-130 0 -217 36l31 172q89 -45 188 -45q68 0 109 39t41 99q0 22 -6 40t-14 29.5t-25 23.5t-28.5 18t-36.5 17.5t-38 18.5
q-98 48 -152 119t-54 178q0 145 102 232t256 87q105 0 197 -28l-27 -164q-66 31 -154 31q-51 0 -81.5 -34t-30.5 -85q0 -18 3.5 -33.5t7.5 -27t14.5 -23t16 -17.5t21.5 -16t21.5 -13.5t25.5 -13.5t25 -12z" />
    <glyph glyph-name="Scedilla" unicode="&#x15e;" horiz-adv-x="839" 
d="M784 453q0 -168 -86 -286t-233 -163l-33 -94q123 -14 168 -57t45 -113q0 -61 -34 -107t-94.5 -72t-133 -38.5t-160.5 -14.5l-20 113q53 4 89.5 11t67 19.5t45.5 34t15 52.5q0 68 -166 92l65 150h-26q-123 0 -238 47l37 192q100 -59 205 -59q94 0 149.5 50.5t55.5 141.5
q0 19 -2.5 35.5t-11 32t-14 27t-21 25.5t-22.5 21t-28.5 21.5t-28.5 19t-33 20t-32 19.5q-110 66 -174.5 152.5t-64.5 212.5q0 182 117.5 301t304.5 119q147 0 249 -31l-30 -182q-80 36 -181 33q-74 0 -118.5 -51t-44.5 -126q0 -46 14 -81.5t42.5 -62.5t55.5 -44t68 -37
q112 -52 174.5 -127t62.5 -196z" />
    <glyph glyph-name="scedilla" unicode="&#x15f;" horiz-adv-x="710" 
d="M662 342q0 -148 -76.5 -238.5t-212.5 -115.5l-27 -78q123 -14 168 -57t45 -113q0 -61 -34 -107t-94.5 -72t-133 -38.5t-160.5 -14.5l-20 113q53 4 89.5 11t67 19.5t45.5 34t15 52.5q0 68 -166 92l65 150q-113 7 -178 36l31 172q89 -45 188 -45q68 0 109 39t41 99
q0 22 -6 40t-14 29.5t-25 23.5t-28.5 18t-36.5 17.5t-38 18.5q-98 48 -152 119t-54 178q0 145 102 232t256 87q105 0 197 -28l-27 -164q-66 31 -154 31q-51 0 -81.5 -34t-30.5 -85q0 -18 3.5 -33.5t7.5 -27t14.5 -23t16 -17.5t21.5 -16t21.5 -13.5t25.5 -13.5t25 -12
q42 -20 73.5 -42.5t61 -54t45 -74.5t15.5 -95z" />
    <glyph glyph-name="Scaron" unicode="&#x160;" horiz-adv-x="839" 
d="M252 1454l-213 293h289l92 -143l94 143h287l-213 -293h-336zM547 776q112 -52 174.5 -127t62.5 -196q0 -215 -137 -344t-354 -129q-123 0 -238 47l37 192q100 -59 205 -59q94 0 149.5 50.5t55.5 141.5q0 19 -2.5 35.5t-11 32t-14 27t-21 25.5t-22.5 21t-28.5 21.5
t-28.5 19t-33 20t-32 19.5q-110 66 -174.5 152.5t-64.5 212.5q0 182 117.5 301t304.5 119q147 0 249 -31l-30 -182q-80 36 -181 33q-74 0 -118.5 -51t-44.5 -126q0 -46 14 -81.5t42.5 -62.5t55.5 -44t68 -37z" />
    <glyph glyph-name="scaron" unicode="&#x161;" horiz-adv-x="710" 
d="M227 1169l-188 285h240l77 -149l78 149h240l-189 -285h-258zM467 608q42 -20 73.5 -42.5t61 -54t45 -74.5t15.5 -95q0 -174 -105 -268t-285 -94q-130 0 -217 36l31 172q89 -45 188 -45q68 0 109 39t41 99q0 22 -6 40t-14 29.5t-25 23.5t-28.5 18t-36.5 17.5t-38 18.5
q-98 48 -152 119t-54 178q0 145 102 232t256 87q105 0 197 -28l-27 -164q-66 31 -154 31q-51 0 -81.5 -34t-30.5 -85q0 -18 3.5 -33.5t7.5 -27t14.5 -23t16 -17.5t21.5 -16t21.5 -13.5t25.5 -13.5t25 -12z" />
    <glyph glyph-name="uni0162" unicode="&#x162;" horiz-adv-x="903" 
d="M592 0h-68l-32 -90q123 -14 168 -57t45 -113q0 -61 -34 -107t-94.5 -72t-133 -38.5t-160.5 -14.5l-21 113q53 4 89.5 11t67 19.5t45.5 34t15 52.5q0 68 -166 92l74 170h-76v1169h-276v168h835v-168h-278v-1169z" />
    <glyph glyph-name="uni0163" unicode="&#x163;" horiz-adv-x="575" 
d="M391 -90q123 -14 168 -57t45 -113q0 -61 -34 -107t-94.5 -72t-133 -38.5t-160.5 -14.5l-20 113q53 4 89.5 11t67 19.5t45.5 34t15 52.5q0 68 -166 92l70 160q-91 20 -129.5 91.5t-38.5 215.5v547h-97v180h97v186l254 62v-248h168v-180h-168v-535q0 -80 21 -111.5
t75 -31.5q48 0 72 6v-166q-72 -21 -121 -24z" />
    <glyph glyph-name="Tcaron" unicode="&#x164;" horiz-adv-x="903" 
d="M285 1454l-213 293h288l93 -143l94 143h287l-213 -293h-336zM870 1337v-168h-278v-1169h-281v1169h-276v168h835z" />
    <glyph glyph-name="tcaron" unicode="&#x165;" horiz-adv-x="763" 
d="M442 1606h301l-55 -484h-192zM369 1272v-248h168v-180h-168v-535q0 -80 21 -111.5t75 -31.5q48 0 72 6v-166q-91 -26 -158 -26q-146 0 -205 71t-59 246v547h-97v180h97v186z" />
    <glyph glyph-name="Tbar" unicode="&#x166;" horiz-adv-x="903" 
d="M870 1169h-278v-381h199v-96h-199v-692h-281v692h-198v96h198v381h-276v168h835v-168z" />
    <glyph glyph-name="tbar" unicode="&#x167;" horiz-adv-x="583" 
d="M545 487h-176v-178q0 -80 21 -111.5t75 -31.5q48 0 72 6v-166q-91 -26 -158 -26q-146 0 -205 71t-59 246v190h-95v148h95v209h-97v180h97v186l254 62v-248h168v-180h-168v-209h176v-148z" />
    <glyph glyph-name="Utilde" unicode="&#x168;" horiz-adv-x="987" 
d="M147 1454q15 134 82.5 213.5t165.5 79.5q42 0 79.5 -18t66.5 -36t51 -18q26 0 47.5 20t28.5 52h196q-17 -134 -82 -213.5t-157 -79.5q-39 0 -76.5 17.5t-68 35t-54.5 17.5q-28 0 -49.5 -19t-28.5 -51h-201zM524 -20q-206 0 -318 112t-112 311v934h281v-936
q0 -243 178 -243q168 0 168 243v936h172v-940q0 -208 -89.5 -312.5t-279.5 -104.5z" />
    <glyph glyph-name="utilde" unicode="&#x169;" horiz-adv-x="866" 
d="M358 1235q-20 0 -35.5 -17.5t-23.5 -48.5h-184q17 131 73.5 208t135.5 77q30 0 58 -9.5t45.5 -21t37 -21t35.5 -9.5q21 0 37 16t22 43h186q-20 -130 -76 -206.5t-132 -76.5q-44 0 -100.5 33t-78.5 33zM526 1024h254v-1024l-254 -20v135q-37 -60 -99 -97.5t-124 -37.5
q-117 0 -170 66.5t-53 223.5v754h254v-688q0 -95 17 -137.5t63 -42.5q57 0 84.5 57t27.5 141v670z" />
    <glyph glyph-name="Umacron" unicode="&#x16a;" horiz-adv-x="987" 
d="M231 1454v178h555v-178h-555zM524 -20q-206 0 -318 112t-112 311v934h281v-936q0 -243 178 -243q168 0 168 243v936h172v-940q0 -208 -89.5 -312.5t-279.5 -104.5z" />
    <glyph glyph-name="umacron" unicode="&#x16b;" horiz-adv-x="866" 
d="M676 1360v-191h-492v191h492zM526 1024h254v-1024l-254 -20v135q-37 -60 -99 -97.5t-124 -37.5q-117 0 -170 66.5t-53 223.5v754h254v-688q0 -95 17 -137.5t63 -42.5q57 0 84.5 57t27.5 141v670z" />
    <glyph glyph-name="Ubreve" unicode="&#x16c;" horiz-adv-x="987" 
d="M500 1454q-146 0 -236 79.5t-96 213.5h256q3 -44 26 -70t60 -26q31 0 53.5 26t28.5 70h256q-8 -134 -102 -213.5t-246 -79.5zM524 -20q-206 0 -318 112t-112 311v934h281v-936q0 -243 178 -243q168 0 168 243v936h172v-940q0 -208 -89.5 -312.5t-279.5 -104.5z" />
    <glyph glyph-name="ubreve" unicode="&#x16d;" horiz-adv-x="866" 
d="M422 1169q-140 0 -226 77.5t-92 207.5h254q3 -43 23 -68.5t51 -25.5q25 0 43.5 25.5t26.5 68.5h250q-6 -130 -95.5 -207.5t-234.5 -77.5zM526 1024h254v-1024l-254 -20v135q-37 -60 -99 -97.5t-124 -37.5q-117 0 -170 66.5t-53 223.5v754h254v-688q0 -95 17 -137.5
t63 -42.5q57 0 84.5 57t27.5 141v670z" />
    <glyph glyph-name="Uring" unicode="&#x16e;" horiz-adv-x="987" 
d="M508 1454q-77 0 -134 52.5t-57 133.5q0 80 57 131.5t134 51.5q76 0 134 -52t58 -131q0 -81 -57 -133.5t-135 -52.5zM508 1567q30 0 50 20.5t20 50.5q0 29 -20.5 50.5t-49.5 21.5t-49.5 -21.5t-20.5 -50.5t20.5 -50t49.5 -21zM524 -20q-206 0 -318 112t-112 311v934h281
v-936q0 -243 178 -243q168 0 168 243v936h172v-940q0 -208 -89.5 -312.5t-279.5 -104.5z" />
    <glyph glyph-name="uring" unicode="&#x16f;" horiz-adv-x="866" 
d="M430 1169q-98 0 -161.5 58t-63.5 149q0 88 63.5 145.5t161.5 57.5t161.5 -57.5t63.5 -145.5q0 -91 -63.5 -149t-161.5 -58zM428 1450q-31 0 -51.5 -22t-20.5 -54t21 -54t53 -22t53 22t21 54t-22 54t-54 22zM526 1024h254v-1024l-254 -20v135q-37 -60 -99 -97.5
t-124 -37.5q-117 0 -170 66.5t-53 223.5v754h254v-688q0 -95 17 -137.5t63 -42.5q57 0 84.5 57t27.5 141v670z" />
    <glyph glyph-name="Uhungarumlaut" unicode="&#x170;" horiz-adv-x="987" 
d="M211 1450l137 295h258l-227 -295h-168zM537 1450l135 295h260l-230 -295h-165zM524 -20q-206 0 -318 112t-112 311v934h281v-936q0 -243 178 -243q168 0 168 243v936h172v-940q0 -208 -89.5 -312.5t-279.5 -104.5z" />
    <glyph glyph-name="uhungarumlaut" unicode="&#x171;" horiz-adv-x="866" 
d="M524 1454l-202 -285h-199l108 285h293zM680 1169h-199l109 285h293zM526 354v670h254v-1024l-254 -20v135q-37 -60 -99 -97.5t-124 -37.5q-117 0 -170 66.5t-53 223.5v754h254v-688q0 -95 17 -137.5t63 -42.5q57 0 84.5 57t27.5 141z" />
    <glyph glyph-name="Uogonek" unicode="&#x172;" horiz-adv-x="987" 
d="M893 397q0 -267 -150 -364q-88 -95 -88 -172q0 -34 23.5 -57t64.5 -23q44 0 80 16l25 -145q-71 -29 -174 -29q-101 0 -156 38t-55 116q0 89 82 203h-21q-206 0 -318 112t-112 311v934h281v-936q0 -243 178 -243q168 0 168 243v936h172v-940z" />
    <glyph glyph-name="uogonek" unicode="&#x173;" horiz-adv-x="866" 
d="M770 -293l25 -145q-71 -29 -174 -29q-101 0 -156 38t-55 116q0 66 50 153.5t118 143.5l-52 -4v135q-37 -60 -99 -97.5t-124 -37.5q-117 0 -170 66.5t-53 223.5v754h254v-688q0 -95 17 -137.5t63 -42.5q57 0 84.5 57t27.5 141v670h254v-1024l-32 -2q-146 -132 -146 -227
q0 -34 23.5 -57t64.5 -23q44 0 80 16z" />
    <glyph glyph-name="Wcircumflex" unicode="&#x174;" horiz-adv-x="1390" 
d="M770 1577l-72 -125h-288l192 295h332l192 -295h-288zM1190 1337h178l-260 -1337h-238l-168 846l-213 -834v-12h-206l-260 1337h290l142 -778l192 778h227l162 -813z" />
    <glyph glyph-name="wcircumflex" unicode="&#x175;" horiz-adv-x="1146" 
d="M631 1337l-80 -168h-244l160 285h326l159 -285h-243zM981 1024h158l-238 -1024h-203l-123 537l-122 -537h-199l-244 1024h279l127 -621l127 621h184l125 -625z" />
    <glyph glyph-name="Ycircumflex" unicode="&#x176;" horiz-adv-x="946" 
d="M535 1577l-72 -125h-289l193 295h331l193 -295h-289zM735 1337h189l-291 -825v-512h-281v512l-329 825h305l221 -555z" />
    <glyph glyph-name="ycircumflex" unicode="&#x177;" horiz-adv-x="751" 
d="M438 1337l-80 -168h-243l159 285h326l160 -285h-244zM424 379l162 645h157l-364 -1413h-158l98 389h-59l-250 1024h279z" />
    <glyph glyph-name="Ydieresis" unicode="&#x178;" horiz-adv-x="946" 
d="M475 1702v-248h-242v248h242zM831 1702v-248h-243v248h243zM735 1337h189l-291 -825v-512h-281v512l-329 825h305l221 -555z" />
    <glyph glyph-name="Zacute" unicode="&#x179;" horiz-adv-x="835" 
d="M766 1747l-258 -293h-236l181 293h313zM395 168h387v-168h-737l369 1169h-346v168h690z" />
    <glyph glyph-name="zacute" unicode="&#x17a;" horiz-adv-x="710" 
d="M700 1454l-256 -285h-204l153 285h307zM664 1024l-302 -856h297v-166h-616l303 858h-272v164h590z" />
    <glyph glyph-name="Zdotaccent" unicode="&#x17b;" horiz-adv-x="835" 
d="M549 1716v-262h-260v262h260zM395 168h387v-168h-737l369 1169h-346v168h690z" />
    <glyph glyph-name="zdotaccent" unicode="&#x17c;" horiz-adv-x="710" 
d="M500 1432v-263h-260v263h260zM664 1024l-302 -856h297v-166h-616l303 858h-272v164h590z" />
    <glyph glyph-name="Zcaron" unicode="&#x17d;" horiz-adv-x="835" 
d="M250 1454l-213 293h289l92 -143l94 143h287l-213 -293h-336zM758 1337l-363 -1169h387v-168h-737l369 1169h-346v168h690z" />
    <glyph glyph-name="zcaron" unicode="&#x17e;" horiz-adv-x="710" 
d="M240 1169l-189 285h240l78 -149l77 149h240l-188 -285h-258zM664 1024l-302 -856h297v-166h-616l303 858h-272v164h590z" />
    <glyph glyph-name="longs" unicode="&#x17f;" horiz-adv-x="518" 
d="M389 1436q53 0 143 -23l-18 -170q-36 8 -59 8q-50 0 -71.5 -37.5t-21.5 -126.5v-1087h-253v848h-103v176h103v76q0 182 71 259t209 77z" />
    <glyph glyph-name="uni018F" unicode="&#x18f;" horiz-adv-x="1032" 
d="M518 1358q159 0 253 -68.5t137.5 -217t43.5 -400.5q0 -375 -99 -533.5t-335 -158.5q-238 0 -338 160.5t-100 541.5v51h575q-3 253 -34 356t-103 103q-61 0 -89.5 -40t-39.5 -140h-287q31 187 126.5 266.5t289.5 79.5zM520 145q68 0 98.5 96t36.5 326h-276
q4 -231 36.5 -326.5t104.5 -95.5z" />
    <glyph glyph-name="florin" unicode="&#x192;" horiz-adv-x="698" 
d="M590 1296q-58 0 -81.5 -52t-47.5 -197l-4 -23h174l-10 -162h-191l-137 -856q-38 -230 -123 -322t-248 -92q-61 0 -166 31l35 152q92 -23 123 -23q54 0 77.5 52.5t45.5 193.5l139 864h-104l10 162h121l2 14q38 230 122 322t244 92q65 0 168 -27l-28 -147q-87 18 -121 18z
" />
    <glyph glyph-name="uni019D" unicode="&#x19d;" horiz-adv-x="1026" 
d="M748 1337h172v-1337h-213l-428 872v-1001q0 -158 -50 -220.5t-155 -62.5q-101 0 -205 37l33 156q70 -17 94 -17q58 0 84 31.5t26 100.5v1441h252l390 -807v807z" />
    <glyph glyph-name="uni01CD" unicode="&#x1cd;" horiz-adv-x="960" 
d="M313 1454l-213 293h289l92 -143l94 143h287l-213 -293h-336zM641 0l-66 297h-296l-66 -297h-188l321 1337h279l311 -1337h-295zM315 465h222l-111 500z" />
    <glyph glyph-name="uni01CE" unicode="&#x1ce;" horiz-adv-x="843" 
d="M293 1169l-189 285h240l78 -149l78 149h239l-188 -285h-258zM451 1044q172 0 242.5 -65.5t70.5 -226.5v-752h-234v162q-56 -99 -115 -140.5t-139 -41.5q-95 0 -156 74t-61 229q0 162 67.5 245t203.5 117l176 45v60q0 72 -28.5 101.5t-88.5 29.5q-94 0 -252 -52l-35 160
q198 55 349 55zM391 168q48 0 81.5 54.5t33.5 111.5v237l-74 -18q-57 -16 -86 -66t-29 -151q0 -168 74 -168z" />
    <glyph glyph-name="uni01CF" unicode="&#x1cf;" horiz-adv-x="493" 
d="M342 1747h287l-213 -293h-336l-213 293h289l92 -143zM106 0v1337h281v-1337h-281z" />
    <glyph glyph-name="uni01D0" unicode="&#x1d0;" horiz-adv-x="428" 
d="M293 1454h239l-188 -285h-258l-188 285h239l78 -149zM88 0v1024h254v-1024h-254z" />
    <glyph glyph-name="uni01D1" unicode="&#x1d1;" horiz-adv-x="1032" 
d="M348 1454l-213 293h289l92 -143l94 143h287l-213 -293h-336zM518 1358q233 0 333.5 -158.5t100.5 -527.5q0 -372 -100.5 -532t-333.5 -160q-235 0 -336.5 160t-101.5 532q0 369 101.5 527.5t336.5 158.5zM520 158q52 0 80.5 49t40.5 158t12 307q0 197 -12.5 304.5
t-41 155.5t-81.5 48q-54 0 -83.5 -47.5t-42.5 -156t-13 -304.5q0 -198 12.5 -307t43 -158t85.5 -49z" />
    <glyph glyph-name="uni01D2" unicode="&#x1d2;" horiz-adv-x="862" 
d="M303 1169l-188 285h239l78 -149l78 149h240l-189 -285h-258zM432 1044q201 0 289 -127.5t88 -404.5t-88 -404.5t-289 -127.5q-203 0 -291 127t-88 405t88 405t291 127zM432 143q43 0 66 32.5t33 111.5t10 229q0 217 -22.5 292t-86.5 75q-44 0 -67 -32t-33 -109t-10 -226
q0 -221 22.5 -297t87.5 -76z" />
    <glyph glyph-name="uni01D3" unicode="&#x1d3;" horiz-adv-x="987" 
d="M340 1454l-213 293h289l92 -143l94 143h287l-213 -293h-336zM721 1337h172v-940q0 -208 -89.5 -312.5t-279.5 -104.5q-206 0 -318 112t-112 311v934h281v-936q0 -243 178 -243q168 0 168 243v936z" />
    <glyph glyph-name="uni01D4" unicode="&#x1d4;" horiz-adv-x="866" 
d="M301 1169l-188 285h239l78 -149l78 149h240l-189 -285h-258zM526 1024h254v-1024l-254 -20v135q-37 -60 -99 -97.5t-124 -37.5q-117 0 -170 66.5t-53 223.5v754h254v-688q0 -95 17 -137.5t63 -42.5q57 0 84.5 57t27.5 141v670z" />
    <glyph glyph-name="uni01D5" unicode="&#x1d5;" horiz-adv-x="987" 
d="M231 1815v178h555v-178h-555zM209 1454v248h242v-248h-242zM563 1454v248h244v-248h-244zM524 -20q-206 0 -318 112t-112 311v934h281v-936q0 -243 178 -243q168 0 168 243v936h172v-940q0 -208 -89.5 -312.5t-279.5 -104.5z" />
    <glyph glyph-name="uni01D6" unicode="&#x1d6;" horiz-adv-x="866" 
d="M676 1737v-191h-492v191h492zM373 1413v-244h-230v244h230zM489 1169v244h230v-244h-230zM526 1024h254v-1024l-254 -20v135q-37 -60 -99 -97.5t-124 -37.5q-117 0 -170 66.5t-53 223.5v754h254v-688q0 -95 17 -137.5t63 -42.5q57 0 84.5 57t27.5 141v670z" />
    <glyph glyph-name="uni01D7" unicode="&#x1d7;" horiz-adv-x="987" 
d="M362 1815l181 292h313l-258 -292h-236zM209 1454v248h242v-248h-242zM563 1454v248h244v-248h-244zM524 -20q-206 0 -318 112t-112 311v934h281v-936q0 -243 178 -243q168 0 168 243v936h172v-940q0 -208 -89.5 -312.5t-279.5 -104.5z" />
    <glyph glyph-name="uni01D8" unicode="&#x1d8;" horiz-adv-x="866" 
d="M762 1831l-256 -285h-205l154 285h307zM373 1413v-244h-230v244h230zM489 1169v244h230v-244h-230zM526 1024h254v-1024l-254 -20v135q-37 -60 -99 -97.5t-124 -37.5q-117 0 -170 66.5t-53 223.5v754h254v-688q0 -95 17 -137.5t63 -42.5q57 0 84.5 57t27.5 141v670z" />
    <glyph glyph-name="uni01D9" unicode="&#x1d9;" horiz-adv-x="987" 
d="M340 1815l-213 292h289l92 -143l94 143h287l-213 -292h-336zM209 1454v248h242v-248h-242zM563 1454v248h244v-248h-244zM721 1337h172v-940q0 -208 -89.5 -312.5t-279.5 -104.5q-206 0 -318 112t-112 311v934h281v-936q0 -243 178 -243q168 0 168 243v936z" />
    <glyph glyph-name="uni01DA" unicode="&#x1da;" horiz-adv-x="866" 
d="M301 1546l-188 285h239l78 -150l78 150h240l-189 -285h-258zM143 1169v244h230v-244h-230zM489 1169v244h230v-244h-230zM526 1024h254v-1024l-254 -20v135q-37 -60 -99 -97.5t-124 -37.5q-117 0 -170 66.5t-53 223.5v754h254v-688q0 -95 17 -137.5t63 -42.5
q57 0 84.5 57t27.5 141v670z" />
    <glyph glyph-name="uni01DB" unicode="&#x1db;" horiz-adv-x="987" 
d="M393 1815l-239 292h319l168 -292h-248zM209 1454v248h242v-248h-242zM563 1454v248h244v-248h-244zM524 -20q-206 0 -318 112t-112 311v934h281v-936q0 -243 178 -243q168 0 168 243v936h172v-940q0 -208 -89.5 -312.5t-279.5 -104.5z" />
    <glyph glyph-name="uni01DC" unicode="&#x1dc;" horiz-adv-x="866" 
d="M575 1546h-225l-258 285h309zM143 1169v244h230v-244h-230zM489 1169v244h230v-244h-230zM526 1024h254v-1024l-254 -20v135q-37 -60 -99 -97.5t-124 -37.5q-117 0 -170 66.5t-53 223.5v754h254v-688q0 -95 17 -137.5t63 -42.5q57 0 84.5 57t27.5 141v670z" />
    <glyph glyph-name="Gcaron" unicode="&#x1e6;" horiz-adv-x="1024" 
d="M416 1454l-213 293h289l92 -143l94 143h287l-213 -293h-336zM516 571v168h402v-696q-137 -63 -306 -63q-289 0 -410.5 157.5t-121.5 530.5q0 375 130 532.5t439 157.5q123 0 228 -31v-178q-102 31 -203 31q-160 0 -227.5 -116.5t-67.5 -393.5q0 -279 54.5 -395.5
t184.5 -116.5q40 0 58 2v411h-160z" />
    <glyph glyph-name="gcaron" unicode="&#x1e7;" horiz-adv-x="876" 
d="M299 1169l-188 285h239l78 -149l78 149h239l-188 -285h-258zM563 1024l228 20v-1028q0 -211 -113.5 -318.5t-312.5 -107.5q-146 0 -254 39l32 174q95 -39 187 -39q109 0 158 54t49 170v112q-87 -120 -205 -120q-151 0 -215 119t-64 399q0 287 69 416.5t216 129.5
q146 0 225 -161v141zM418 156q64 0 91.5 85.5t27.5 268.5q0 188 -26.5 272t-90.5 84q-56 0 -78.5 -85.5t-22.5 -282.5q0 -189 22.5 -265.5t76.5 -76.5z" />
    <glyph glyph-name="uni01EA" unicode="&#x1ea;" horiz-adv-x="1032" 
d="M756 -207q42 0 80 17l24 -146q-71 -29 -174 -29q-101 0 -156 38t-55 116q0 83 74 191h-31q-235 0 -336.5 160t-101.5 532q0 369 101.5 527.5t336.5 158.5q233 0 333.5 -158.5t100.5 -527.5q0 -265 -50 -419.5t-159 -219.5q-75 -86 -75 -160q0 -34 23.5 -57t64.5 -23z
M379 672q0 -198 12.5 -307t43 -158t85.5 -49q52 0 80.5 49t40.5 158t12 307q0 197 -12.5 304.5t-41 155.5t-81.5 48q-54 0 -83.5 -47.5t-42.5 -156t-13 -304.5z" />
    <glyph glyph-name="uni01EB" unicode="&#x1eb;" horiz-adv-x="862" 
d="M621 -240q41 0 79 17l25 -146q-68 -28 -174 -28q-211 0 -211 153q0 46 27 107.5t71 116.5h-6q-203 0 -291 127t-88 405t88 405t291 127q201 0 289 -127.5t88 -404.5q0 -195 -42 -313.5t-134 -173.5q-101 -101 -101 -185q0 -34 24 -57t65 -23zM322 516q0 -221 22.5 -297
t87.5 -76q43 0 66 32.5t33 111.5t10 229q0 217 -22.5 292t-86.5 75q-44 0 -67 -32t-33 -109t-10 -226z" />
    <glyph glyph-name="uni01F4" unicode="&#x1f4;" horiz-adv-x="1024" 
d="M932 1747l-258 -293h-236l180 293h314zM516 571v168h402v-696q-137 -63 -306 -63q-289 0 -410.5 157.5t-121.5 530.5q0 375 130 532.5t439 157.5q123 0 228 -31v-178q-102 31 -203 31q-160 0 -227.5 -116.5t-67.5 -393.5q0 -279 54.5 -395.5t184.5 -116.5q40 0 58 2v411
h-160z" />
    <glyph glyph-name="uni01F5" unicode="&#x1f5;" horiz-adv-x="876" 
d="M760 1454l-256 -285h-205l154 285h307zM563 1024l228 20v-1028q0 -211 -113.5 -318.5t-312.5 -107.5q-146 0 -254 39l32 174q95 -39 187 -39q109 0 158 54t49 170v112q-87 -120 -205 -120q-151 0 -215 119t-64 399q0 287 69 416.5t216 129.5q146 0 225 -161v141zM418 156
q64 0 91.5 85.5t27.5 268.5q0 188 -26.5 272t-90.5 84q-56 0 -78.5 -85.5t-22.5 -282.5q0 -189 22.5 -265.5t76.5 -76.5z" />
    <glyph glyph-name="Aringacute" unicode="&#x1fa;" horiz-adv-x="960" 
d="M641 0l-66 297h-296l-66 -297h-188l319 1333q-53 53 -53 131q0 52 26.5 94t69.5 66l172 279h313l-258 -293h-16q76 -56 76 -146q0 -73 -51 -127h2l311 -1337h-295zM412 1462q0 -29 20 -50t49 -21q30 0 50 20.5t20 50.5q0 29 -20.5 50.5t-49.5 21.5t-49 -21t-20 -51z
M315 465h222l-111 500z" />
    <glyph glyph-name="aringacute" unicode="&#x1fb;" horiz-adv-x="843" 
d="M422 1169q-98 0 -161.5 58t-63.5 149q0 65 36.5 115t98.5 72l114 215h308l-207 -230q46 -27 73 -72t27 -100q0 -91 -63.5 -149t-161.5 -58zM422 1298q32 0 53 22t21 54t-22 54t-54 22q-31 0 -51.5 -22t-20.5 -54t21 -54t53 -22zM451 1044q172 0 242.5 -65.5t70.5 -226.5
v-752h-234v162q-56 -99 -115 -140.5t-139 -41.5q-95 0 -156 74t-61 229q0 162 67.5 245t203.5 117l176 45v60q0 72 -28.5 101.5t-88.5 29.5q-94 0 -252 -52l-35 160q198 55 349 55zM391 168q48 0 81.5 54.5t33.5 111.5v237l-74 -18q-57 -16 -86 -66t-29 -151q0 -168 74 -168
z" />
    <glyph glyph-name="AEacute" unicode="&#x1fc;" horiz-adv-x="1361" 
d="M1153 1747l-258 -293h-236l181 293h313zM899 168h379v-168h-660v317h-301l-81 -317h-211l383 1337h856v-168h-365v-383h334v-168h-334v-450zM356 465h262v704h-79z" />
    <glyph glyph-name="aeacute" unicode="&#x1fd;" horiz-adv-x="1288" 
d="M977 1454l-256 -285h-205l154 285h307zM774 475q3 -185 46 -258.5t149 -73.5q97 0 207 58l30 -154q-128 -67 -278 -67t-241 54.5t-132 172.5q-111 -227 -279 -227q-95 0 -156 74t-61 229q0 161 70.5 245.5t200.5 116.5l176 45v60q0 72 -28.5 101.5t-88.5 29.5
q-94 0 -252 -52l-35 160q198 55 349 55q143 0 215 -53q76 53 208 53q195 0 278 -119t83 -401q0 -21 -4 -49h-457zM774 610h201v6q0 151 -20 209t-76 58q-61 0 -83 -60t-22 -213zM389 174q48 0 82.5 55.5t34.5 114.5v227l-74 -18q-59 -16 -88 -66t-29 -151q0 -162 74 -162z
" />
    <glyph glyph-name="Oslashacute" unicode="&#x1fe;" horiz-adv-x="1032" 
d="M864 1747l-258 -293h-235l180 293h313zM971 1337l-103 -166q84 -164 84 -499q0 -372 -100.5 -532t-333.5 -160q-207 0 -309 122l-64 -104h-92l109 176q-82 160 -82 498q0 369 101.5 527.5t336.5 158.5q203 0 301 -115l60 94h92zM379 672q0 -101 2 -142l262 426
q-12 122 -41 173t-84 51q-54 0 -83.5 -47.5t-42.5 -156t-13 -304.5zM653 672q0 102 -2 147l-262 -426q12 -127 42.5 -181t88.5 -54q52 0 80.5 49t40.5 158t12 307z" />
    <glyph glyph-name="oslashacute" unicode="&#x1ff;" horiz-adv-x="862" 
d="M764 1454l-256 -285h-205l154 285h307zM817 1024l-84 -123q76 -126 76 -389q0 -277 -88 -404.5t-289 -127.5q-177 0 -266 96l-51 -76h-70l86 123q-78 125 -78 389q0 278 88 405t291 127q178 0 264 -96l54 76h67zM322 516q0 -78 2 -113l211 308q-9 97 -32.5 134.5
t-70.5 37.5q-44 0 -67 -32t-33 -109t-10 -226zM541 516q0 71 -2 102l-211 -307q9 -94 33 -131t71 -37q43 0 66 32.5t33 111.5t10 229z" />
    <glyph glyph-name="uni0200" unicode="&#x200;" horiz-adv-x="960" 
d="M418 1450h-207l-203 295h293zM788 1450h-206l-203 295h293zM641 0l-66 297h-296l-66 -297h-188l321 1337h279l311 -1337h-295zM315 465h222l-111 500z" />
    <glyph glyph-name="uni0201" unicode="&#x201;" horiz-adv-x="843" 
d="M371 1169h-181l-221 285h293zM729 1169h-180l-221 285h293zM451 1044q172 0 242.5 -65.5t70.5 -226.5v-752h-234v162q-56 -99 -115 -140.5t-139 -41.5q-95 0 -156 74t-61 229q0 162 67.5 245t203.5 117l176 45v60q0 72 -28.5 101.5t-88.5 29.5q-94 0 -252 -52l-35 160
q198 55 349 55zM391 168q48 0 81.5 54.5t33.5 111.5v237l-74 -18q-57 -16 -86 -66t-29 -151q0 -168 74 -168z" />
    <glyph glyph-name="uni0202" unicode="&#x202;" horiz-adv-x="960" 
d="M479 1540q-34 0 -54 -23t-22 -63h-247q2 128 88.5 202.5t234.5 74.5t236.5 -75t89.5 -202h-250q-2 40 -22 63t-54 23zM641 0l-66 297h-296l-66 -297h-188l321 1337h279l311 -1337h-295zM315 465h222l-111 500z" />
    <glyph glyph-name="uni0203" unicode="&#x203;" horiz-adv-x="843" 
d="M424 1255q-35 0 -58 -23t-26 -63h-244q6 130 92 207.5t226 77.5q148 0 238 -77t96 -208h-242q-6 40 -28 63t-54 23zM451 1044q172 0 242.5 -65.5t70.5 -226.5v-752h-234v162q-56 -99 -115 -140.5t-139 -41.5q-95 0 -156 74t-61 229q0 162 67.5 245t203.5 117l176 45v60
q0 72 -28.5 101.5t-88.5 29.5q-94 0 -252 -52l-35 160q198 55 349 55zM391 168q48 0 81.5 54.5t33.5 111.5v237l-74 -18q-57 -16 -86 -66t-29 -151q0 -168 74 -168z" />
    <glyph glyph-name="uni0204" unicode="&#x204;" horiz-adv-x="849" 
d="M362 1450h-206l-203 295h293zM733 1450h-207l-202 295h292zM387 168h379v-168h-660v1337h646v-168h-365v-383h334v-168h-334v-450z" />
    <glyph glyph-name="uni0205" unicode="&#x205;" horiz-adv-x="829" 
d="M365 1169h-181l-221 285h293zM723 1169h-180l-221 285h292zM315 475q3 -185 46 -258.5t149 -73.5q97 0 207 58l31 -154q-128 -67 -279 -67q-224 0 -320 126t-96 412q0 280 84 403t279 123t277.5 -119t82.5 -401q0 -21 -4 -49h-457zM315 610h201v6q0 151 -20 209t-76 58
q-61 0 -83 -60t-22 -213z" />
    <glyph glyph-name="uni0206" unicode="&#x206;" horiz-adv-x="849" 
d="M424 1540q-34 0 -54 -23t-22 -63h-248q2 128 89 202.5t235 74.5t236.5 -75t89.5 -202h-250q-2 40 -22 63t-54 23zM387 168h379v-168h-660v1337h646v-168h-365v-383h334v-168h-334v-450z" />
    <glyph glyph-name="uni0207" unicode="&#x207;" horiz-adv-x="829" 
d="M418 1255q-35 0 -58 -23t-26 -63h-244q6 130 92 207.5t226 77.5q147 0 237 -77t96 -208h-241q-6 40 -28 63t-54 23zM315 475q3 -185 46 -258.5t149 -73.5q97 0 207 58l31 -154q-128 -67 -279 -67q-224 0 -320 126t-96 412q0 280 84 403t279 123t277.5 -119t82.5 -401
q0 -21 -4 -49h-457zM315 610h201v6q0 151 -20 209t-76 58q-61 0 -83 -60t-22 -213z" />
    <glyph glyph-name="uni0208" unicode="&#x208;" horiz-adv-x="493" 
d="M-23 1450l-202 295h293l116 -295h-207zM348 1450l-203 295h293l117 -295h-207zM106 0v1337h281v-1337h-281z" />
    <glyph glyph-name="uni0209" unicode="&#x209;" horiz-adv-x="428" 
d="M-16 1169l-222 285h293l109 -285h-180zM342 1169l-221 285h293l108 -285h-180zM88 0v1024h254v-1024h-254z" />
    <glyph glyph-name="uni020A" unicode="&#x20a;" horiz-adv-x="493" 
d="M-78 1454q2 128 89 202.5t235 74.5t236 -75t89 -202h-249q-2 40 -22 63t-54 23t-54 -23t-22 -63h-248zM106 0v1337h281v-1337h-281z" />
    <glyph glyph-name="uni020B" unicode="&#x20b;" horiz-adv-x="428" 
d="M-111 1169q6 130 92 207.5t226 77.5q148 0 238 -77t96 -208h-242q-6 40 -28 63t-54 23q-35 0 -58 -23t-26 -63h-244zM88 0v1024h254v-1024h-254z" />
    <glyph glyph-name="uni020C" unicode="&#x20c;" horiz-adv-x="1032" 
d="M246 1450l-203 295h293l117 -295h-207zM616 1450l-202 295h293l116 -295h-207zM518 -20q-235 0 -336.5 160t-101.5 532q0 369 101.5 527.5t336.5 158.5q233 0 333.5 -158.5t100.5 -527.5q0 -372 -100.5 -532t-333.5 -160zM520 158q52 0 80.5 49t40.5 158t12 307
q0 197 -12.5 304.5t-41 155.5t-81.5 48q-54 0 -83.5 -47.5t-42.5 -156t-13 -304.5q0 -198 12.5 -307t43 -158t85.5 -49z" />
    <glyph glyph-name="uni020D" unicode="&#x20d;" horiz-adv-x="862" 
d="M201 1169l-221 285h292l109 -285h-180zM559 1169l-221 285h293l108 -285h-180zM432 -20q-203 0 -291 127t-88 405t88 405t291 127q201 0 289 -127.5t88 -404.5t-88 -404.5t-289 -127.5zM432 143q43 0 66 32.5t33 111.5t10 229q0 217 -22.5 292t-86.5 75q-44 0 -67 -32
t-33 -109t-10 -226q0 -221 22.5 -297t87.5 -76z" />
    <glyph glyph-name="uni020E" unicode="&#x20e;" horiz-adv-x="1032" 
d="M190 1454q2 128 89 202.5t235 74.5t236.5 -75t89.5 -202h-250q-2 40 -22 63t-54 23t-54 -23t-22 -63h-248zM518 -20q-235 0 -336.5 160t-101.5 532q0 369 101.5 527.5t336.5 158.5q233 0 333.5 -158.5t100.5 -527.5q0 -372 -100.5 -532t-333.5 -160zM520 158
q52 0 80.5 49t40.5 158t12 307q0 197 -12.5 304.5t-41 155.5t-81.5 48q-54 0 -83.5 -47.5t-42.5 -156t-13 -304.5q0 -198 12.5 -307t43 -158t85.5 -49z" />
    <glyph glyph-name="uni020F" unicode="&#x20f;" horiz-adv-x="862" 
d="M106 1169q6 130 92 207.5t226 77.5q148 0 238 -77t96 -208h-242q-6 40 -28 63t-54 23q-35 0 -58 -23t-26 -63h-244zM432 -20q-203 0 -291 127t-88 405t88 405t291 127q201 0 289 -127.5t88 -404.5t-88 -404.5t-289 -127.5zM432 143q43 0 66 32.5t33 111.5t10 229
q0 217 -22.5 292t-86.5 75q-44 0 -67 -32t-33 -109t-10 -226q0 -221 22.5 -297t87.5 -76z" />
    <glyph glyph-name="uni0210" unicode="&#x210;" horiz-adv-x="1013" 
d="M444 1450h-206l-203 295h293zM815 1450h-207l-202 295h292zM680 0l-193 485h-100v-485h-281v1337h381q426 0 426 -409q0 -269 -159 -377l223 -551h-297zM387 1169v-516h76q82 0 116.5 63.5t34.5 209.5q0 129 -35.5 186t-115.5 57h-76z" />
    <glyph glyph-name="uni0211" unicode="&#x211;" horiz-adv-x="663" 
d="M281 1169h-181l-221 285h293zM639 1169h-180l-221 285h292zM342 840q41 91 102 147.5t125 56.5q36 0 60 -8l-13 -268q-54 25 -100 25q-80 0 -127 -78.5t-47 -198.5v-516h-254v1024l254 20v-204z" />
    <glyph glyph-name="uni0212" unicode="&#x212;" horiz-adv-x="1013" 
d="M506 1540q-34 0 -54 -23t-22 -63h-248q2 128 89 202.5t235 74.5t236 -75t89 -202h-249q-2 40 -22 63t-54 23zM680 0l-193 485h-100v-485h-281v1337h381q426 0 426 -409q0 -269 -159 -377l223 -551h-297zM387 1169v-516h76q82 0 116.5 63.5t34.5 209.5q0 129 -35.5 186
t-115.5 57h-76z" />
    <glyph glyph-name="uni0213" unicode="&#x213;" horiz-adv-x="663" 
d="M334 1255q-35 0 -58 -23t-26 -63h-244q6 130 92 207.5t226 77.5q147 0 237 -77t96 -208h-241q-6 40 -28 63t-54 23zM342 840q41 91 102 147.5t125 56.5q36 0 60 -8l-13 -268q-54 25 -100 25q-80 0 -127 -78.5t-47 -198.5v-516h-254v1024l254 20v-204z" />
    <glyph glyph-name="uni0214" unicode="&#x214;" horiz-adv-x="987" 
d="M238 1450l-203 295h293l116 -295h-206zM608 1450l-202 295h292l117 -295h-207zM524 -20q-206 0 -318 112t-112 311v934h281v-936q0 -243 178 -243q168 0 168 243v936h172v-940q0 -208 -89.5 -312.5t-279.5 -104.5z" />
    <glyph glyph-name="uni0215" unicode="&#x215;" horiz-adv-x="866" 
d="M379 1169h-180l-222 285h293zM737 1169h-180l-221 285h293zM526 1024h254v-1024l-254 -20v135q-37 -60 -99 -97.5t-124 -37.5q-117 0 -170 66.5t-53 223.5v754h254v-688q0 -95 17 -137.5t63 -42.5q57 0 84.5 57t27.5 141v670z" />
    <glyph glyph-name="uni0216" unicode="&#x216;" horiz-adv-x="987" 
d="M182 1454q2 128 89 202.5t235 74.5t236 -75t89 -202h-249q-2 40 -22 63t-54 23t-54 -23t-22 -63h-248zM524 -20q-206 0 -318 112t-112 311v934h281v-936q0 -243 178 -243q168 0 168 243v936h172v-940q0 -208 -89.5 -312.5t-279.5 -104.5z" />
    <glyph glyph-name="uni0217" unicode="&#x217;" horiz-adv-x="866" 
d="M432 1255q-35 0 -58 -23t-26 -63h-244q6 130 92 207.5t226 77.5q148 0 238 -77t96 -208h-242q-6 40 -28 63t-54 23zM526 1024h254v-1024l-254 -20v135q-37 -60 -99 -97.5t-124 -37.5q-117 0 -170 66.5t-53 223.5v754h254v-688q0 -95 17 -137.5t63 -42.5q57 0 84.5 57
t27.5 141v670z" />
    <glyph glyph-name="uni0218" unicode="&#x218;" horiz-adv-x="839" 
d="M547 776q112 -52 174.5 -127t62.5 -196q0 -215 -137 -344t-354 -129q-123 0 -238 47l37 192q100 -59 205 -59q94 0 149.5 50.5t55.5 141.5q0 19 -2.5 35.5t-11 32t-14 27t-21 25.5t-22.5 21t-28.5 21.5t-28.5 19t-33 20t-32 19.5q-110 66 -174.5 152.5t-64.5 212.5
q0 182 117.5 301t304.5 119q147 0 249 -31l-30 -182q-80 36 -181 33q-74 0 -118.5 -51t-44.5 -126q0 -46 14 -81.5t42.5 -62.5t55.5 -44t68 -37zM252 -428v285h276v-326q0 -122 -81 -192t-195 -70v141q49 0 84 31t35 82v49h-119z" />
    <glyph glyph-name="uni0219" unicode="&#x219;" horiz-adv-x="710" 
d="M467 608q42 -20 73.5 -42.5t61 -54t45 -74.5t15.5 -95q0 -174 -105 -268t-285 -94q-130 0 -217 36l31 172q89 -45 188 -45q68 0 109 39t41 99q0 22 -6 40t-14 29.5t-25 23.5t-28.5 18t-36.5 17.5t-38 18.5q-98 48 -152 119t-54 178q0 145 102 232t256 87q105 0 197 -28
l-27 -164q-66 31 -154 31q-51 0 -81.5 -34t-30.5 -85q0 -18 3.5 -33.5t7.5 -27t14.5 -23t16 -17.5t21.5 -16t21.5 -13.5t25.5 -13.5t25 -12zM166 -428v285h276v-326q0 -122 -81 -192t-195 -70v141q49 0 84 31t35 82v49h-119z" />
    <glyph glyph-name="uni021A" unicode="&#x21a;" horiz-adv-x="903" 
d="M870 1337v-168h-278v-1169h-281v1169h-276v168h835zM311 -428v285h277v-326q0 -122 -81.5 -192t-195.5 -70v141q49 0 84 31t35 82v49h-119z" />
    <glyph glyph-name="uni021B" unicode="&#x21b;" horiz-adv-x="575" 
d="M537 844h-168v-535q0 -80 21 -111.5t75 -31.5q48 0 72 6v-166q-91 -26 -158 -26q-146 0 -205 71t-59 246v547h-97v180h97v186l254 62v-248h168v-180zM211 -428v285h276v-326q0 -122 -81 -192t-195 -70v141q49 0 84 31t35 82v49h-119z" />
    <glyph glyph-name="uni0232" unicode="&#x232;" horiz-adv-x="946" 
d="M811 1632v-178h-555v178h555zM735 1337h189l-291 -825v-512h-281v512l-329 825h305l221 -555z" />
    <glyph glyph-name="uni0233" unicode="&#x233;" horiz-adv-x="751" 
d="M684 1360v-191h-491v191h491zM586 1024h157l-364 -1413h-158l98 389h-59l-250 1024h279l135 -645z" />
    <glyph glyph-name="uni0237" unicode="&#x237;" horiz-adv-x="428" 
d="M74 -412q-112 0 -224 37l33 176q62 -16 94 -16q58 0 84.5 31t26.5 100v1108h254v-1122q0 -174 -65.5 -244t-202.5 -70z" />
    <glyph glyph-name="uni0259" unicode="&#x259;" horiz-adv-x="829" 
d="M360 1044q229 0 322.5 -122.5t93.5 -415.5q0 -284 -82 -405t-280 -121q-191 0 -276 119t-85 401q0 21 4 49h457q-3 186 -46 260t-149 74q-96 0 -206 -58l-31 152q128 67 278 67zM410 143q61 0 82.5 59t21.5 212h-201q0 -154 20 -212.5t77 -58.5z" />
    <glyph glyph-name="uni0272" unicode="&#x272;" horiz-adv-x="868" 
d="M565 1044q118 0 170.5 -66t52.5 -224v-754h-253v686q0 95 -17 137.5t-63 42.5q-57 0 -85 -57t-28 -141v-766q0 -174 -65.5 -244t-202.5 -70q-112 0 -224 37l33 176q62 -16 94 -16q58 0 84.5 31t26.5 100v1108l254 20v-135q36 61 98.5 98t124.5 37z" />
    <glyph glyph-name="circumflex" unicode="&#x2c6;" horiz-adv-x="811" 
d="M729 1169h-244l-77 168l-80 -168h-244l160 285h325z" />
    <glyph glyph-name="caron" unicode="&#x2c7;" horiz-adv-x="800" 
d="M479 1454h240l-189 -285h-258l-188 285h240l77 -149z" />
    <glyph glyph-name="breve" unicode="&#x2d8;" horiz-adv-x="813" 
d="M401 1169q-139 0 -225 77t-92 208h254q3 -43 23 -68.5t51 -25.5q25 0 43 25.5t26 68.5h250q-6 -130 -95.5 -207.5t-234.5 -77.5z" />
    <glyph glyph-name="dotaccent" unicode="&#x2d9;" horiz-adv-x="425" 
d="M84 1169v263h260v-263h-260z" />
    <glyph glyph-name="ring" unicode="&#x2da;" horiz-adv-x="616" 
d="M309 1169q-98 0 -161.5 58t-63.5 149q0 88 63.5 145.5t161.5 57.5t162 -57.5t64 -145.5q0 -91 -64 -149t-162 -58zM309 1298q32 0 53 22t21 54t-22 54t-54 22q-31 0 -51 -22t-20 -54q0 -33 20.5 -54.5t52.5 -21.5z" />
    <glyph glyph-name="ogonek" unicode="&#x2db;" horiz-adv-x="550" 
d="M295 -467q-101 0 -156 38t-55 116q0 77 67 180t146 147h143q-87 -75 -125.5 -133t-38.5 -110q0 -34 24 -57t65 -23q43 0 79 16l25 -145q-71 -29 -174 -29z" />
    <glyph glyph-name="tilde" unicode="&#x2dc;" horiz-adv-x="796" 
d="M84 1169q17 131 73.5 208t135.5 77q30 0 58 -9.5t45.5 -21t37 -21t35.5 -9.5q21 0 37 16t22 43h187q-20 -130 -76.5 -206.5t-132.5 -76.5q-44 0 -100 33t-78 33q-20 0 -36.5 -17.5t-23.5 -48.5h-184z" />
    <glyph glyph-name="hungarumlaut" unicode="&#x2dd;" horiz-adv-x="925" 
d="M84 1169l109 285h292l-202 -285h-199zM442 1169l109 285h293l-203 -285h-199z" />
    <glyph glyph-name="gravecomb" unicode="&#x300;" 
d="M-205 1169l-258 285h309l174 -285h-225z" />
    <glyph glyph-name="acutecomb" unicode="&#x301;" 
d="M-156 1169l154 285h307l-256 -285h-205z" />
    <glyph glyph-name="uni0302" unicode="&#x302;" 
d="M397 1169h-243l-78 168l-80 -168h-244l160 285h326z" />
    <glyph glyph-name="tildecomb" unicode="&#x303;" 
d="M-350 1169q17 131 73.5 208t135.5 77q30 0 58 -9.5t45.5 -21t37 -21t35.5 -9.5q21 0 37 16t22 43h187q-20 -130 -76.5 -206.5t-132.5 -76.5q-44 0 -100 33t-78 33q-20 0 -36.5 -17.5t-23.5 -48.5h-184z" />
    <glyph glyph-name="uni0304" unicode="&#x304;" 
d="M-391 1169v191h491v-191h-491z" />
    <glyph glyph-name="uni0306" unicode="&#x306;" 
d="M-92 1169q-140 0 -226 77.5t-92 207.5h254q3 -43 23 -68.5t51 -25.5q25 0 43.5 25.5t26.5 68.5h250q-6 -130 -95.5 -207.5t-234.5 -77.5z" />
    <glyph glyph-name="uni0307" unicode="&#x307;" 
d="M-195 1169v263h261v-263h-261z" />
    <glyph glyph-name="uni0308" unicode="&#x308;" 
d="M-358 1169v244h229v-244h-229zM-12 1169v244h229v-244h-229z" />
    <glyph glyph-name="uni030A" unicode="&#x30a;" 
d="M-113 1169q-98 0 -161.5 58t-63.5 149q0 88 63.5 145.5t161.5 57.5t162 -57.5t64 -145.5q0 -91 -64 -149t-162 -58zM-113 1298q32 0 53 22t21 54t-22 54t-54 22q-31 0 -51 -22t-20 -54q0 -33 20.5 -54.5t52.5 -21.5z" />
    <glyph glyph-name="uni030B" unicode="&#x30b;" 
d="M-266 1169l108 285h293l-203 -285h-198zM92 1169l109 285h293l-203 -285h-199z" />
    <glyph glyph-name="uni030C" unicode="&#x30c;" 
d="M158 1454h239l-188 -285h-258l-189 285h240l78 -149z" />
    <glyph glyph-name="uni030F" unicode="&#x30f;" 
d="M-635 1169l-221 285h293l108 -285h-180zM-276 1169l-222 285h293l109 -285h-180z" />
    <glyph glyph-name="uni0311" unicode="&#x311;" 
d="M-684 1169q6 131 92 208t225 77q148 0 238 -77t96 -208h-241q-6 40 -28 63t-54 23q-35 0 -58 -23t-26 -63h-244z" />
    <glyph glyph-name="uni0312" unicode="&#x312;" 
d="M172 1681q-57 0 -96 -35.5t-39 -93.5v-59h135v-324h-313v373q0 140 91.5 219.5t221.5 79.5v-160z" />
    <glyph glyph-name="dotbelowcomb" unicode="&#x323;" 
d="M-373 -432v289h281v-289h-281z" />
    <glyph glyph-name="uni0326" unicode="&#x326;" 
d="M-373 -143h277v-326q0 -122 -81.5 -192t-195.5 -70v141q49 0 84 31t35 82v49h-119v285z" />
    <glyph glyph-name="uni0327" unicode="&#x327;" 
d="M176 -90q123 -14 168 -57t45 -113q0 -61 -34 -107t-94.5 -72t-133 -38.5t-160.5 -14.5l-20 113q53 4 89.5 11t67 19.5t45.5 34t15 52.5q0 68 -166 92l78 178h135z" />
    <glyph glyph-name="uni0328" unicode="&#x328;" 
d="M-102 -467q-101 0 -156 38t-55 116q0 77 67 180t146 147h143q-87 -75 -125.5 -133t-38.5 -110q0 -34 23.5 -57t64.5 -23q44 0 80 16l25 -145q-71 -29 -174 -29z" />
    <glyph glyph-name="uni03BC" unicode="&#x3bc;" horiz-adv-x="858" 
d="M526 1024h254v-1024l-254 -20v135q-37 -60 -99 -97.5t-124 -37.5q-23 0 -35 2l58 -490h-246v1532h254v-688q0 -95 17 -137.5t63 -42.5q57 0 84.5 57t27.5 141v670z" />
    <glyph glyph-name="uni1E02" unicode="&#x1e02;" horiz-adv-x="991" 
d="M627 1716v-262h-260v262h260zM668 739q118 -15 185 -105.5t67 -219.5q0 -414 -459 -414h-355v1337h347q428 0 428 -305q0 -108 -58 -188t-155 -105zM446 1169h-59v-370h64q70 0 103.5 49t33.5 151q0 88 -34.5 129t-107.5 41zM465 168q85 0 120.5 55.5t35.5 184.5
q0 121 -36.5 173t-125.5 52h-72v-465h78z" />
    <glyph glyph-name="uni1E03" unicode="&#x1e03;" horiz-adv-x="878" 
d="M346 1823v-262h-260v262h260zM561 1044q143 0 203.5 -119t60.5 -399q0 -293 -64 -419.5t-212 -126.5q-153 0 -234 163v-143h-227v1415l254 21v-514q92 122 219 122zM461 156q54 0 76 84.5t22 285.5q0 187 -21.5 263.5t-76.5 76.5q-65 0 -92 -84.5t-27 -265.5
q0 -185 28.5 -272.5t90.5 -87.5z" />
    <glyph glyph-name="uni1E0A" unicode="&#x1e0a;" horiz-adv-x="1017" 
d="M621 1716v-262h-261v262h261zM471 1337q253 0 360 -150.5t107 -506.5q0 -369 -107 -524.5t-360 -155.5h-365v1337h365zM453 168q101 0 143.5 115t42.5 389q0 270 -42.5 383.5t-145.5 113.5h-64v-1001h66z" />
    <glyph glyph-name="uni1E0B" unicode="&#x1e0b;" horiz-adv-x="866" 
d="M524 1823h260v-262h-260v262zM526 922v493l254 21v-1436h-227v137q-92 -157 -246 -157q-135 0 -194.5 125.5t-59.5 414.5q0 282 61.5 403t204.5 121q125 0 207 -122zM410 156q61 0 88.5 85.5t27.5 274.5q0 180 -27 265t-91 85q-56 0 -77.5 -76t-21.5 -264
q0 -202 22.5 -286t78.5 -84z" />
    <glyph glyph-name="uni1E0C" unicode="&#x1e0c;" horiz-adv-x="1017" 
d="M471 1337q253 0 360 -150.5t107 -506.5q0 -369 -107 -524.5t-360 -155.5h-365v1337h365zM453 168q101 0 143.5 115t42.5 389q0 270 -42.5 383.5t-145.5 113.5h-64v-1001h66zM330 -432v289h280v-289h-280z" />
    <glyph glyph-name="uni1E0D" unicode="&#x1e0d;" horiz-adv-x="866" 
d="M526 1415l254 21v-1436h-227v137q-92 -157 -246 -157q-135 0 -194.5 125.5t-59.5 414.5q0 282 61.5 403t204.5 121q125 0 207 -122v493zM410 156q61 0 88.5 85.5t27.5 274.5q0 180 -27 265t-91 85q-56 0 -77.5 -76t-21.5 -264q0 -202 22.5 -286t78.5 -84zM293 -432v289
h280v-289h-280z" />
    <glyph glyph-name="uni1E1E" unicode="&#x1e1e;" horiz-adv-x="821" 
d="M553 1716v-262h-260v262h260zM752 1169h-365v-409h334v-168h-334v-592h-281v1337h646v-168z" />
    <glyph glyph-name="uni1E1F" unicode="&#x1e1f;" horiz-adv-x="518" 
d="M481 1823v-262h-260v262h260zM455 1251q-50 0 -71.5 -37.5t-21.5 -126.5v-63h140v-176h-140v-848h-253v848h-103v176h103v76q0 182 71 259t209 77q53 0 143 -23l-18 -170q-36 8 -59 8z" />
    <glyph glyph-name="uni1E24" unicode="&#x1e24;" horiz-adv-x="1032" 
d="M645 1337h281v-1337h-281v625h-258v-625h-281v1337h281v-544h258v544zM375 -432v289h280v-289h-280z" />
    <glyph glyph-name="uni1E25" unicode="&#x1e25;" horiz-adv-x="868" 
d="M565 1044q118 0 170.5 -66t52.5 -224v-754h-253v686q0 95 -17 137.5t-63 42.5q-57 0 -85 -57t-28 -141v-668h-254v1415l254 21v-527q36 61 98.5 98t124.5 37zM293 -432v289h280v-289h-280z" />
    <glyph glyph-name="uni1E40" unicode="&#x1e40;" horiz-adv-x="1417" 
d="M840 1716v-262h-260v262h260zM1364 0h-287l-131 883l-182 -883h-221l-181 881l-137 -881h-184l221 1337h266l172 -854l183 854h264z" />
    <glyph glyph-name="uni1E41" unicode="&#x1e41;" horiz-adv-x="1286" 
d="M778 1432v-263h-260v263h260zM991 1044q112 0 163.5 -66t51.5 -224v-754h-254v686q0 96 -15.5 138t-57.5 42q-53 0 -79 -57.5t-26 -140.5v-668h-254v686q0 95 -15.5 137.5t-58.5 42.5q-53 0 -78.5 -57t-25.5 -141v-668h-254v1024l254 20v-133q37 60 97 96.5t120 36.5
q84 0 132.5 -37t68.5 -122q32 70 98 114.5t133 44.5z" />
    <glyph glyph-name="uni1E44" unicode="&#x1e44;" horiz-adv-x="1030" 
d="M680 1716v-262h-260v262h260zM752 1337h172v-1337h-215l-428 870v-870h-175v1337h259l387 -802v802z" />
    <glyph glyph-name="uni1E45" unicode="&#x1e45;" horiz-adv-x="868" 
d="M596 1432v-263h-260v263h260zM565 1044q118 0 170.5 -66t52.5 -224v-754h-253v686q0 95 -17 137.5t-63 42.5q-57 0 -85 -57t-28 -141v-668h-254v1024l254 20v-135q36 61 98.5 98t124.5 37z" />
    <glyph glyph-name="uni1E56" unicode="&#x1e56;" horiz-adv-x="978" 
d="M621 1716v-262h-261v262h261zM481 1337q227 0 327.5 -100.5t100.5 -327.5q0 -249 -100.5 -359t-327.5 -110h-94v-440h-281v1337h375zM459 608q84 0 117.5 67t33.5 234q0 142 -34 201t-119 59h-70v-561h72z" />
    <glyph glyph-name="uni1E57" unicode="&#x1e57;" horiz-adv-x="878" 
d="M623 1432v-263h-261v263h261zM549 1044q147 0 211.5 -126.5t64.5 -419.5q0 -271 -62 -394.5t-202 -123.5q-126 0 -219 124v-493h-254v1413l227 20v-161q80 161 234 161zM463 156q55 0 75.5 77t20.5 265q0 202 -22 285t-78 83q-64 0 -90.5 -83.5t-26.5 -272.5
q0 -180 28.5 -267t92.5 -87z" />
    <glyph glyph-name="uni1E5A" unicode="&#x1e5a;" horiz-adv-x="1013" 
d="M754 551l223 -551h-297l-193 485h-100v-485h-281v1337h381q426 0 426 -409q0 -269 -159 -377zM387 1169v-516h76q82 0 116.5 63.5t34.5 209.5q0 129 -35.5 186t-115.5 57h-76zM367 -432v289h280v-289h-280z" />
    <glyph glyph-name="uni1E5B" unicode="&#x1e5b;" horiz-adv-x="663" 
d="M569 1044q36 0 60 -8l-13 -268q-54 25 -100 25q-80 0 -127 -78.5t-47 -198.5v-516h-254v1024l254 20v-204q41 91 102 147.5t125 56.5zM74 -432v289h280v-289h-280z" />
    <glyph glyph-name="uni1E60" unicode="&#x1e60;" horiz-adv-x="839" 
d="M291 1454v262h260v-262h-260zM293 -20q-123 0 -238 47l37 192q100 -59 205 -59q94 0 149.5 50.5t55.5 141.5q0 19 -2.5 35.5t-11 32t-14 27t-21 25.5t-22.5 21t-28.5 21.5t-28.5 19t-33 20t-32 19.5q-110 66 -174.5 152.5t-64.5 212.5q0 182 117.5 301t304.5 119
q147 0 249 -31l-30 -182q-80 36 -181 33q-74 0 -118.5 -51t-44.5 -126q0 -46 14 -81.5t42.5 -62.5t55.5 -44t68 -37q112 -52 174.5 -127t62.5 -196q0 -215 -137 -344t-354 -129z" />
    <glyph glyph-name="uni1E61" unicode="&#x1e61;" horiz-adv-x="710" 
d="M227 1169v263h260v-263h-260zM272 -20q-130 0 -217 36l31 172q89 -45 188 -45q68 0 109 39t41 99q0 22 -6 40t-14 29.5t-25 23.5t-28.5 18t-36.5 17.5t-38 18.5q-98 48 -152 119t-54 178q0 145 102 232t256 87q105 0 197 -28l-27 -164q-66 31 -154 31q-51 0 -81.5 -34
t-30.5 -85q0 -18 3.5 -33.5t7.5 -27t14.5 -23t16 -17.5t21.5 -16t21.5 -13.5t25.5 -13.5t25 -12q42 -20 73.5 -42.5t61 -54t45 -74.5t15.5 -95q0 -174 -105 -268t-285 -94z" />
    <glyph glyph-name="uni1E62" unicode="&#x1e62;" horiz-adv-x="839" 
d="M293 -20q-123 0 -238 47l37 192q100 -59 205 -59q94 0 149.5 50.5t55.5 141.5q0 19 -2.5 35.5t-11 32t-14 27t-21 25.5t-22.5 21t-28.5 21.5t-28.5 19t-33 20t-32 19.5q-110 66 -174.5 152.5t-64.5 212.5q0 182 117.5 301t304.5 119q147 0 249 -31l-30 -182
q-80 36 -181 33q-74 0 -118.5 -51t-44.5 -126q0 -46 14 -81.5t42.5 -62.5t55.5 -44t68 -37q112 -52 174.5 -127t62.5 -196q0 -215 -137 -344t-354 -129zM252 -432v289h280v-289h-280z" />
    <glyph glyph-name="uni1E63" unicode="&#x1e63;" horiz-adv-x="710" 
d="M272 -20q-130 0 -217 36l31 172q89 -45 188 -45q68 0 109 39t41 99q0 22 -6 40t-14 29.5t-25 23.5t-28.5 18t-36.5 17.5t-38 18.5q-98 48 -152 119t-54 178q0 145 102 232t256 87q105 0 197 -28l-27 -164q-66 31 -154 31q-51 0 -81.5 -34t-30.5 -85q0 -18 3.5 -33.5
t7.5 -27t14.5 -23t16 -17.5t21.5 -16t21.5 -13.5t25.5 -13.5t25 -12q42 -20 73.5 -42.5t61 -54t45 -74.5t15.5 -95q0 -174 -105 -268t-285 -94zM166 -432v289h280v-289h-280z" />
    <glyph glyph-name="uni1E6A" unicode="&#x1e6a;" horiz-adv-x="903" 
d="M584 1716v-262h-260v262h260zM870 1337v-168h-278v-1169h-281v1169h-276v168h835z" />
    <glyph glyph-name="uni1E6B" unicode="&#x1e6b;" horiz-adv-x="575" 
d="M381 1620v-262h-260v262h260zM537 844h-168v-535q0 -80 21 -111.5t75 -31.5q48 0 72 6v-166q-91 -26 -158 -26q-146 0 -205 71t-59 246v547h-97v180h97v186l254 62v-248h168v-180z" />
    <glyph glyph-name="uni1E6C" unicode="&#x1e6c;" horiz-adv-x="903" 
d="M870 1337v-168h-278v-1169h-281v1169h-276v168h835zM311 -432v289h281v-289h-281z" />
    <glyph glyph-name="uni1E6D" unicode="&#x1e6d;" horiz-adv-x="575" 
d="M537 844h-168v-535q0 -80 21 -111.5t75 -31.5q48 0 72 6v-166q-91 -26 -158 -26q-146 0 -205 71t-59 246v547h-97v180h97v186l254 62v-248h168v-180zM211 -432v289h281v-289h-281z" />
    <glyph glyph-name="Wgrave" unicode="&#x1e80;" horiz-adv-x="1390" 
d="M901 1454h-248l-239 293h319zM1190 1337h178l-260 -1337h-238l-168 846l-213 -834v-12h-206l-260 1337h290l142 -778l192 778h227l162 -813z" />
    <glyph glyph-name="wgrave" unicode="&#x1e81;" horiz-adv-x="1146" 
d="M776 1169h-225l-258 285h309zM981 1024h158l-238 -1024h-203l-123 537l-122 -537h-199l-244 1024h279l127 -621l127 621h184l125 -625z" />
    <glyph glyph-name="Wacute" unicode="&#x1e82;" horiz-adv-x="1390" 
d="M1116 1747l-258 -293h-235l180 293h313zM1190 1337h178l-260 -1337h-238l-168 846l-213 -834v-12h-206l-260 1337h290l142 -778l192 778h227l162 -813z" />
    <glyph glyph-name="wacute" unicode="&#x1e83;" horiz-adv-x="1146" 
d="M963 1454l-256 -285h-205l153 285h308zM981 1024h158l-238 -1024h-203l-123 537l-122 -537h-199l-244 1024h279l127 -621l127 621h184l125 -625z" />
    <glyph glyph-name="Wdieresis" unicode="&#x1e84;" horiz-adv-x="1390" 
d="M711 1702v-248h-242v248h242zM1067 1702v-248h-244v248h244zM1190 1337h178l-260 -1337h-238l-168 846l-213 -834v-12h-206l-260 1337h290l142 -778l192 778h227l162 -813z" />
    <glyph glyph-name="wdieresis" unicode="&#x1e85;" horiz-adv-x="1146" 
d="M573 1413v-244h-229v244h229zM920 1413v-244h-230v244h230zM981 1024h158l-238 -1024h-203l-123 537l-122 -537h-199l-244 1024h279l127 -621l127 621h184l125 -625z" />
    <glyph glyph-name="uni1E92" unicode="&#x1e92;" horiz-adv-x="835" 
d="M395 168h387v-168h-737l369 1169h-346v168h690zM276 -432v289h281v-289h-281z" />
    <glyph glyph-name="uni1E93" unicode="&#x1e93;" horiz-adv-x="710" 
d="M664 1024l-302 -856h297v-166h-616l303 858h-272v164h590zM211 -432v289h281v-289h-281z" />
    <glyph glyph-name="uni1E9E" unicode="&#x1e9e;" horiz-adv-x="1679" 
d="M293 -20q-123 0 -238 47l37 192q100 -59 205 -59q94 0 149.5 50.5t55.5 141.5q0 19 -2.5 35.5t-11 32t-14 27t-21 25.5t-22.5 21t-28.5 21.5t-28.5 19t-33 20t-32 19.5q-110 66 -174.5 152.5t-64.5 212.5q0 182 117.5 301t304.5 119q147 0 249 -31l-30 -182
q-80 36 -181 33q-74 0 -118.5 -51t-44.5 -126q0 -46 14 -81.5t42.5 -62.5t55.5 -44t68 -37q112 -52 174.5 -127t62.5 -196q0 -215 -137 -344t-354 -129zM1133 -20q-123 0 -238 47l37 192q100 -59 205 -59q94 0 149 50.5t55 141.5q0 17 -3 33t-7 28.5t-13 26l-15 22.5t-21 21
t-22 18.5t-26 19t-26.5 17t-29.5 18t-29 17.5q-52 31 -92 64.5t-75 77.5t-54 100.5t-19 122.5q0 182 117.5 301t304.5 119q148 0 250 -31l-31 -182q-80 36 -180 33q-74 0 -119 -51t-45 -126q0 -46 14 -81.5t42.5 -62.5t55.5 -44t68 -37q112 -52 175 -127t63 -196
q0 -215 -137 -344t-354 -129z" />
    <glyph glyph-name="uni1EA0" unicode="&#x1ea0;" horiz-adv-x="960" 
d="M625 1337l311 -1337h-295l-66 297h-296l-66 -297h-188l321 1337h279zM315 465h222l-111 500zM340 -432v289h281v-289h-281z" />
    <glyph glyph-name="uni1EA1" unicode="&#x1ea1;" horiz-adv-x="843" 
d="M451 1044q172 0 242.5 -65.5t70.5 -226.5v-752h-234v162q-56 -99 -115 -140.5t-139 -41.5q-95 0 -156 74t-61 229q0 162 67.5 245t203.5 117l176 45v60q0 72 -28.5 101.5t-88.5 29.5q-94 0 -252 -52l-35 160q198 55 349 55zM391 168q48 0 81.5 54.5t33.5 111.5v237
l-74 -18q-57 -16 -86 -66t-29 -151q0 -168 74 -168zM270 -432v289h281v-289h-281z" />
    <glyph glyph-name="uni1EB8" unicode="&#x1eb8;" horiz-adv-x="849" 
d="M387 168h379v-168h-660v1337h646v-168h-365v-383h334v-168h-334v-450zM285 -432v289h280v-289h-280z" />
    <glyph glyph-name="uni1EB9" unicode="&#x1eb9;" horiz-adv-x="829" 
d="M315 475q3 -185 46 -258.5t149 -73.5q97 0 207 58l31 -154q-128 -67 -279 -67q-224 0 -320 126t-96 412q0 280 84 403t279 123t277.5 -119t82.5 -401q0 -21 -4 -49h-457zM315 610h201v6q0 151 -20 209t-76 58q-61 0 -83 -60t-22 -213zM274 -432v289h281v-289h-281z" />
    <glyph glyph-name="uni1EBC" unicode="&#x1ebc;" horiz-adv-x="849" 
d="M344 1524q-28 0 -49.5 -19t-28.5 -51h-200q15 134 82 213.5t165 79.5q42 0 79.5 -18t66.5 -36t51 -18q26 0 47.5 20t28.5 52h196q-17 -134 -82 -213.5t-157 -79.5q-39 0 -76.5 17.5t-68 35t-54.5 17.5zM387 618v-450h379v-168h-660v1337h646v-168h-365v-383h334v-168
h-334z" />
    <glyph glyph-name="uni1EBD" unicode="&#x1ebd;" horiz-adv-x="829" 
d="M344 1235q-20 0 -35.5 -17.5t-23.5 -48.5h-185q17 131 73.5 208t135.5 77q30 0 58 -9.5t45.5 -21t37 -21t35.5 -9.5q21 0 37.5 16t22.5 43h186q-20 -130 -76.5 -206.5t-132.5 -76.5q-44 0 -100 33t-78 33zM315 475q3 -185 46 -258.5t149 -73.5q97 0 207 58l31 -154
q-128 -67 -279 -67q-224 0 -320 126t-96 412q0 280 84 403t279 123t277.5 -119t82.5 -401q0 -21 -4 -49h-457zM315 610h201v6q0 151 -20 209t-76 58q-61 0 -83 -60t-22 -213z" />
    <glyph glyph-name="uni1ECA" unicode="&#x1eca;" horiz-adv-x="493" 
d="M106 0v1337h281v-1337h-281zM106 -432v289h281v-289h-281z" />
    <glyph glyph-name="uni1ECB" unicode="&#x1ecb;" horiz-adv-x="428" 
d="M88 1171v281h254v-281h-254zM88 0v1024h254v-1024h-254zM74 -432v289h280v-289h-280z" />
    <glyph glyph-name="uni1ECC" unicode="&#x1ecc;" horiz-adv-x="1032" 
d="M518 -20q-235 0 -336.5 160t-101.5 532q0 369 101.5 527.5t336.5 158.5q233 0 333.5 -158.5t100.5 -527.5q0 -372 -100.5 -532t-333.5 -160zM520 158q52 0 80.5 49t40.5 158t12 307q0 197 -12.5 304.5t-41 155.5t-81.5 48q-54 0 -83.5 -47.5t-42.5 -156t-13 -304.5
q0 -198 12.5 -307t43 -158t85.5 -49zM375 -432v289h280v-289h-280z" />
    <glyph glyph-name="uni1ECD" unicode="&#x1ecd;" horiz-adv-x="862" 
d="M432 -20q-203 0 -291 127t-88 405t88 405t291 127q201 0 289 -127.5t88 -404.5t-88 -404.5t-289 -127.5zM432 143q43 0 66 32.5t33 111.5t10 229q0 217 -22.5 292t-86.5 75q-44 0 -67 -32t-33 -109t-10 -226q0 -221 22.5 -297t87.5 -76zM291 -432v289h280v-289h-280z" />
    <glyph glyph-name="uni1EE4" unicode="&#x1ee4;" horiz-adv-x="987" 
d="M524 -20q-206 0 -318 112t-112 311v934h281v-936q0 -243 178 -243q168 0 168 243v936h172v-940q0 -208 -89.5 -312.5t-279.5 -104.5zM352 -432v289h281v-289h-281z" />
    <glyph glyph-name="uni1EE5" unicode="&#x1ee5;" horiz-adv-x="866" 
d="M526 1024h254v-1024l-254 -20v135q-37 -60 -99 -97.5t-124 -37.5q-117 0 -170 66.5t-53 223.5v754h254v-688q0 -95 17 -137.5t63 -42.5q57 0 84.5 57t27.5 141v670zM289 -432v289h280v-289h-280z" />
    <glyph glyph-name="Ygrave" unicode="&#x1ef2;" horiz-adv-x="946" 
d="M666 1454h-248l-240 293h320zM735 1337h189l-291 -825v-512h-281v512l-329 825h305l221 -555z" />
    <glyph glyph-name="ygrave" unicode="&#x1ef3;" horiz-adv-x="751" 
d="M584 1169h-226l-258 285h310zM586 1024h157l-364 -1413h-158l98 389h-59l-250 1024h279l135 -645z" />
    <glyph glyph-name="uni1EF8" unicode="&#x1ef8;" horiz-adv-x="946" 
d="M451 1524q-28 0 -49.5 -19t-28.5 -51h-201q15 134 82.5 213.5t165.5 79.5q42 0 79.5 -18t66 -36t50.5 -18q26 0 47.5 20t28.5 52h197q-17 -134 -82.5 -213.5t-157.5 -79.5q-39 0 -76 17.5t-67.5 35t-54.5 17.5zM735 1337h189l-291 -825v-512h-281v512l-329 825h305
l221 -555z" />
    <glyph glyph-name="uni1EF9" unicode="&#x1ef9;" horiz-adv-x="751" 
d="M367 1235q-20 0 -36.5 -17.5t-23.5 -48.5h-184q17 131 73.5 208t135.5 77q30 0 58 -9.5t45.5 -21t37 -21t35.5 -9.5q21 0 37 16t22 43h187q-20 -130 -76.5 -206.5t-132.5 -76.5q-44 0 -100 33t-78 33zM424 379l162 645h157l-364 -1413h-158l98 389h-59l-250 1024h279z
" />
    <glyph glyph-name="endash" unicode="&#x2013;" horiz-adv-x="1087" 
d="M41 453v217h1006v-217h-1006z" />
    <glyph glyph-name="emdash" unicode="&#x2014;" horiz-adv-x="1519" 
d="M41 453v217h1438v-217h-1438z" />
    <glyph glyph-name="quoteleft" unicode="&#x2018;" horiz-adv-x="479" 
d="M397 1178q-57 0 -96 -35.5t-39 -93.5v-60h135v-323h-313v372q0 140 91.5 219.5t221.5 79.5v-159z" />
    <glyph glyph-name="quoteright" unicode="&#x2019;" horiz-adv-x="479" 
d="M84 1337h313v-372q0 -140 -91.5 -219.5t-221.5 -79.5v159q57 0 96 36t39 95v58h-135v323z" />
    <glyph glyph-name="quotesinglbase" unicode="&#x201a;" horiz-adv-x="466" 
d="M84 309h301v-354q0 -133 -88.5 -210t-212.5 -77v154q54 0 91.5 34t37.5 89v55h-129v309z" />
    <glyph glyph-name="quotedblleft" unicode="&#x201c;" horiz-adv-x="923" 
d="M84 1038q0 94 45 163.5t115.5 102.5t154.5 33v-159q-57 0 -96 -35.5t-39 -93.5v-60h135v-323h-315v372zM842 1178q-57 0 -96 -35.5t-39 -93.5v-60h135v-323h-316v372q0 94 45.5 163.5t116 102.5t154.5 33v-159z" />
    <glyph glyph-name="quotedblright" unicode="&#x201d;" horiz-adv-x="921" 
d="M84 1014v323h313v-372q0 -140 -91.5 -219.5t-221.5 -79.5v159q57 0 96 36t39 95v58h-135zM526 1337h314v-372q0 -94 -45 -163.5t-115 -102.5t-154 -33v159q57 0 96.5 36t39.5 95v58h-136v323z" />
    <glyph glyph-name="quotedblbase" unicode="&#x201e;" horiz-adv-x="878" 
d="M84 0v309h301v-354q0 -133 -88.5 -210t-212.5 -77v154q54 0 91.5 34t37.5 89v55h-129zM496 309h301v-354q0 -133 -88.5 -210t-212.5 -77v154q54 0 91.5 34t37.5 89v55h-129v309z" />
    <glyph glyph-name="dagger" unicode="&#x2020;" horiz-adv-x="929" 
d="M889 846v-168h-293v-1067h-262v1067h-293v168h293v491h262v-491h293z" />
    <glyph glyph-name="daggerdbl" unicode="&#x2021;" horiz-adv-x="929" 
d="M889 705h-293v-467h293v-168h-293v-459h-262v459h-293v168h293v467h-293v167h293v465h262v-465h293v-167z" />
    <glyph glyph-name="bullet" unicode="&#x2022;" horiz-adv-x="538" 
d="M84 412v401h373v-401h-373z" />
    <glyph glyph-name="ellipsis" unicode="&#x2026;" horiz-adv-x="1400" 
d="M84 0v309h301v-309h-301zM551 0v309h301v-309h-301zM1018 0v309h301v-309h-301z" />
    <glyph glyph-name="perthousand" unicode="&#x2030;" horiz-adv-x="1941" 
d="M340 702q-256 0 -256 328t256 328q250 0 250 -328t-250 -328zM289 0l592 1337h178l-592 -1337h-178zM340 799q32 0 43.5 47.5t11.5 185.5q0 136 -11.5 183t-43.5 47q-37 0 -49 -46.5t-12 -183.5q0 -139 12 -186t49 -47zM1014 -18q-256 0 -256 327q0 328 256 328
q250 0 250 -328q0 -327 -250 -327zM1610 -18q-256 0 -256 327q0 328 256 328q250 0 250 -328q0 -327 -250 -327zM1014 78q32 0 43.5 47.5t11.5 185.5q0 136 -11.5 183t-43.5 47q-37 0 -49.5 -47t-12.5 -183q0 -138 12.5 -185.5t49.5 -47.5zM1610 78q32 0 43.5 47.5
t11.5 185.5q0 136 -11.5 183t-43.5 47q-37 0 -49.5 -47t-12.5 -183q0 -138 12.5 -185.5t49.5 -47.5z" />
    <glyph glyph-name="guilsinglleft" unicode="&#x2039;" horiz-adv-x="606" 
d="M524 858l-239 -315l239 -316h-250l-233 316l233 315h250z" />
    <glyph glyph-name="guilsinglright" unicode="&#x203a;" horiz-adv-x="608" 
d="M334 858l233 -315l-233 -316h-250l240 316l-240 315h250z" />
    <glyph glyph-name="fraction" unicode="&#x2044;" horiz-adv-x="270" 
d="M-313 0l645 1337h252l-645 -1337h-252z" />
    <glyph glyph-name="Euro" unicode="&#x20ac;" horiz-adv-x="950" 
d="M662 1358q48 0 206 -29l-12 -291l-180 127q-84 0 -125 -74.5t-53 -248.5h321l-51 -123h-727l51 123h121q22 269 129.5 392.5t319.5 123.5zM680 170q75 0 145 37l29 -187q-111 -40 -242 -40q-189 0 -285 125t-116 399h-170l51 123h643l-51 -123h-186q12 -181 54 -257.5
t128 -76.5z" />
    <glyph glyph-name="trademark" unicode="&#x2122;" horiz-adv-x="1335" 
d="M84 1217v120h432v-120h-154v-586h-126v586h-152zM1071 1337h182v-706h-118v561l-158 -561h-80l-158 555v-555h-121v706h185l135 -483z" />
    <glyph glyph-name="arrowleft" unicode="&#x2190;" horiz-adv-x="1355" 
d="M1274 754v-250h-701l271 -293h-373l-387 418l387 418h373l-271 -293h701z" />
    <glyph glyph-name="arrowup" unicode="&#x2191;" horiz-adv-x="1001" 
d="M920 969v-342l-293 270v-897h-250v897l-293 -270v342l418 387z" />
    <glyph glyph-name="arrowright" unicode="&#x2192;" horiz-adv-x="1355" 
d="M887 1047l387 -418l-387 -418h-373l270 293h-700v250h700l-270 293h373z" />
    <glyph glyph-name="arrowdown" unicode="&#x2193;" horiz-adv-x="1001" 
d="M627 451l293 270v-342l-418 -387l-418 387v342l293 -270v897h250v-897z" />
    <glyph glyph-name="arrowboth" unicode="&#x2194;" horiz-adv-x="1826" 
d="M1389 1047l356 -418l-356 -418h-373l252 293h-707l252 -293h-373l-356 418l356 418h373l-252 -293h707l-252 293h373z" />
    <glyph glyph-name="arrowupdn" unicode="&#x2195;" horiz-adv-x="899" 
d="M817 813l-242 209v-703l242 209v-229l-366 -317l-367 317v229l242 -209v703l-242 -209v229l367 316l366 -316v-229z" />
    <glyph glyph-name="uni2196" unicode="&#x2196;" horiz-adv-x="1523" 
d="M1442 156l-178 -179l-914 918v-473l-266 264v651h651l264 -266h-471z" />
    <glyph glyph-name="uni2197" unicode="&#x2197;" horiz-adv-x="1523" 
d="M791 1337h651v-651l-266 -264v473l-914 -918l-178 179l913 915h-471z" />
    <glyph glyph-name="uni2198" unicode="&#x2198;" horiz-adv-x="1523" 
d="M1176 915l266 -264v-651h-651l-265 266h471l-913 916l178 176l914 -916v473z" />
    <glyph glyph-name="uni2199" unicode="&#x2199;" horiz-adv-x="1523" 
d="M1442 1182l-914 -916h471l-264 -266h-651v651l266 264v-473l914 916z" />
    <glyph glyph-name="minus" unicode="&#x2212;" horiz-adv-x="892" 
d="M84 420v213h727v-213h-727z" />
    <glyph glyph-name="uni2713" unicode="&#x2713;" horiz-adv-x="911" 
d="M356 477l473 393v-274l-473 -387l-272 227v273z" />
    <glyph glyph-name="uniF8FF" unicode="&#xf8ff;" horiz-adv-x="1345" 
d="M674 0q-160 0 -296 79t-215 215t-79 296t79 296t215 215t296 79t296 -79t215 -215t79 -296t-79 -296t-215 -215t-296 -79zM535 236h268l2 12l-100 20v387h55q56 0 83 -36t27 -87q0 -120 -94 -120h-28v-15h36q66 0 107 39t41 107q0 66 -42.5 97.5t-115.5 31.5h-69v153
l208 -10l35 -110l23 4l-10 149h-578l-12 -149l22 -4l37 110l209 10v-557l-100 -20z" />
    <glyph glyph-name="L_periodcentered_L.loclCAT" horiz-adv-x="1734" 
d="M387 1337v-1169h373v-168h-654v1337h281zM1311 168h372v-168h-653v1337h281v-1169zM557 559v309h301v-309h-301z" />
    <glyph glyph-name="l_periodcentered_l.loclCAT" horiz-adv-x="1212" 
d="M88 0v1417h254v-1417h-254zM872 0v1417h254v-1417h-254zM457 561v309h301v-309h-301z" />
    <glyph glyph-name="a.sc" horiz-adv-x="821" 
d="M535 0l-52 227h-241l-54 -227h-168l267 1024h262l252 -1024h-266zM270 354h185l-90 398z" />
    <glyph glyph-name="aacute.sc" horiz-adv-x="821" 
d="M733 1454l-221 -285h-215l149 285h287zM535 0l-52 227h-241l-54 -227h-168l267 1024h262l252 -1024h-266zM270 354h185l-90 398z" />
    <glyph glyph-name="abreve.sc" horiz-adv-x="821" 
d="M410 1167q-120 0 -195.5 68t-79.5 182h217q2 -37 20.5 -59.5t47.5 -22.5q25 0 42.5 22.5t22.5 59.5h215q-4 -114 -83 -182t-207 -68zM535 0l-52 227h-241l-54 -227h-168l267 1024h262l252 -1024h-266zM270 354h185l-90 398z" />
    <glyph glyph-name="uni01CE.sc" horiz-adv-x="821" 
d="M268 1169l-180 285h256l74 -156l71 156h256l-182 -285h-295zM535 0l-52 227h-241l-54 -227h-168l267 1024h262l252 -1024h-266zM270 354h185l-90 398z" />
    <glyph glyph-name="acircumflex.sc" horiz-adv-x="821" 
d="M418 1325l-74 -156h-256l180 285h295l182 -285h-256zM535 0l-52 227h-241l-54 -227h-168l267 1024h262l252 -1024h-266zM270 354h185l-90 398z" />
    <glyph glyph-name="uni0201.sc" horiz-adv-x="821" 
d="M352 1169h-157l-189 285h242zM670 1169h-158l-188 285h241zM535 0l-52 227h-241l-54 -227h-168l267 1024h262l252 -1024h-266zM270 354h185l-90 398z" />
    <glyph glyph-name="adieresis.sc" horiz-adv-x="821" 
d="M360 1434v-265h-249v265h249zM727 1434v-265h-250v265h250zM535 0l-52 227h-241l-54 -227h-168l267 1024h262l252 -1024h-266zM270 354h185l-90 398z" />
    <glyph glyph-name="uni1EA1.sc" horiz-adv-x="821" 
d="M549 1024l252 -1024h-266l-52 227h-241l-54 -227h-168l267 1024h262zM270 354h185l-90 398zM221 -432v289h281v-289h-281z" />
    <glyph glyph-name="agrave.sc" horiz-adv-x="821" 
d="M543 1159h-221l-220 246h293zM535 0l-52 227h-241l-54 -227h-168l267 1024h262l252 -1024h-266zM270 354h185l-90 398z" />
    <glyph glyph-name="uni0203.sc" horiz-adv-x="821" 
d="M420 1249q-29 0 -47.5 -22.5t-20.5 -59.5h-217q4 114 79.5 182t195.5 68q128 0 207 -68t83 -182h-215q-5 37 -22.5 59.5t-42.5 22.5zM535 0l-52 227h-241l-54 -227h-168l267 1024h262l252 -1024h-266zM270 354h185l-90 398z" />
    <glyph glyph-name="amacron.sc" horiz-adv-x="821" 
d="M664 1315v-146h-492v146h492zM535 0l-52 227h-241l-54 -227h-168l267 1024h262l252 -1024h-266zM270 354h185l-90 398z" />
    <glyph glyph-name="aogonek.sc" horiz-adv-x="821" 
d="M694 -309q44 0 80 16l25 -145q-71 -29 -174 -29q-101 0 -156 38t-55 116q0 70 58 166t132 147h-69l-52 227h-241l-54 -227h-168l267 1024h262l252 -1024h-47q-148 -131 -148 -229q0 -34 23.5 -57t64.5 -23zM270 354h185l-90 398z" />
    <glyph glyph-name="aring.sc" horiz-adv-x="821" 
d="M535 0l-52 227h-241l-54 -227h-168l256 985q-90 67 -90 184q0 95 67 159.5t165 64.5q100 0 166.5 -64.5t66.5 -159.5q0 -120 -92 -186l242 -983h-266zM416 1260q-38 0 -64 -26.5t-26 -66.5t26 -67t66 -27t66 27t26 67t-27 66.5t-67 26.5zM270 354h185l-90 398z" />
    <glyph glyph-name="aringacute.sc" horiz-adv-x="821" 
d="M535 0l-52 227h-241l-54 -227h-168l252 971q-86 70 -86 182q0 77 47 136.5t121 78.5l113 215h287l-195 -250q92 -66 92 -180q0 -115 -90 -182l240 -971h-266zM416 1243q-38 0 -64 -26t-26 -66t26 -67t66 -27t66 27t26 67t-27 66t-67 26zM270 354h185l-90 398z" />
    <glyph glyph-name="atilde.sc" horiz-adv-x="821" 
d="M348 1229q-23 0 -41 -17t-24 -43h-177q13 115 71 184.5t140 69.5q46 0 102.5 -28.5t76.5 -28.5t35.5 15t21.5 40h176q-15 -114 -72 -183t-135 -69q-43 0 -98.5 30t-75.5 30zM535 0l-52 227h-241l-54 -227h-168l267 1024h262l252 -1024h-266zM270 354h185l-90 398z" />
    <glyph glyph-name="ae.sc" horiz-adv-x="1187" 
d="M788 137h326v-137h-579v236h-256l-66 -236h-195l324 1024h760v-135h-314v-283h287v-135h-287v-334zM311 354h224v533h-74z" />
    <glyph glyph-name="aeacute.sc" horiz-adv-x="1187" 
d="M909 1454l-221 -285h-215l150 285h286zM788 137h326v-137h-579v236h-256l-66 -236h-195l324 1024h760v-135h-314v-283h287v-135h-287v-334zM311 354h224v533h-74z" />
    <glyph glyph-name="b.sc" horiz-adv-x="862" 
d="M637 565q75 -6 118.5 -75t43.5 -171q0 -170 -80 -244.5t-227 -74.5h-396v1024h350q328 0 328 -233q0 -85 -37 -146t-100 -80zM397 889h-47v-279h49q59 0 91 38t32 110q0 131 -125 131zM412 137q129 0 129 172q0 170 -133 170h-58v-342h62z" />
    <glyph glyph-name="uni1E03.sc" horiz-adv-x="862" 
d="M555 1423v-254h-260v254h260zM637 565q75 -6 118.5 -75t43.5 -171q0 -170 -80 -244.5t-227 -74.5h-396v1024h350q328 0 328 -233q0 -85 -37 -146t-100 -80zM397 889h-47v-279h49q59 0 91 38t32 110q0 131 -125 131zM412 137q129 0 129 172q0 170 -133 170h-58v-342h62z
" />
    <glyph glyph-name="c.sc" horiz-adv-x="700" 
d="M418 -16q-190 0 -270 122t-80 412q0 283 89.5 402.5t303.5 119.5q44 0 182 -22l-10 -219l-156 96q-83 0 -117 -85t-34 -292q0 -214 34.5 -302.5t118.5 -88.5q62 0 125 27l27 -140q-102 -30 -213 -30z" />
    <glyph glyph-name="cacute.sc" horiz-adv-x="700" 
d="M279 1169l149 285h287l-221 -285h-215zM418 -16q-190 0 -270 122t-80 412q0 283 89.5 402.5t303.5 119.5q44 0 182 -22l-10 -219l-156 96q-83 0 -117 -85t-34 -292q0 -214 34.5 -302.5t118.5 -88.5q62 0 125 27l27 -140q-102 -30 -213 -30z" />
    <glyph glyph-name="ccaron.sc" horiz-adv-x="700" 
d="M250 1169l-180 285h256l73 -156l72 156h256l-182 -285h-295zM68 518q0 283 89.5 402.5t303.5 119.5q44 0 182 -22l-10 -219l-156 96q-83 0 -117 -85t-34 -292q0 -214 34.5 -302.5t118.5 -88.5q62 0 125 27l27 -140q-102 -30 -213 -30q-190 0 -270 122t-80 412z" />
    <glyph glyph-name="ccedilla.sc" horiz-adv-x="700" 
d="M457 -90q123 -14 168 -57t45 -113q0 -61 -34 -107t-94.5 -72t-133 -38.5t-160.5 -14.5l-21 113q53 4 89.5 11t67 19.5t45.5 34t15 52.5t-35 54.5t-130 37.5l69 158q-151 20 -215.5 143.5t-64.5 386.5q0 283 89.5 402.5t303.5 119.5q44 0 182 -22l-10 -219l-156 96
q-83 0 -117 -85t-34 -292q0 -214 34.5 -302.5t118.5 -88.5q62 0 125 27l27 -140q-76 -22 -148 -28z" />
    <glyph glyph-name="ccircumflex.sc" horiz-adv-x="700" 
d="M399 1325l-73 -156h-256l180 285h295l182 -285h-256zM68 518q0 283 89.5 402.5t303.5 119.5q44 0 182 -22l-10 -219l-156 96q-83 0 -117 -85t-34 -292q0 -214 34.5 -302.5t118.5 -88.5q62 0 125 27l27 -140q-102 -30 -213 -30q-190 0 -270 122t-80 412z" />
    <glyph glyph-name="cdotaccent.sc" horiz-adv-x="700" 
d="M270 1169v254h260v-254h-260zM418 -16q-190 0 -270 122t-80 412q0 283 89.5 402.5t303.5 119.5q44 0 182 -22l-10 -219l-156 96q-83 0 -117 -85t-34 -292q0 -214 34.5 -302.5t118.5 -88.5q62 0 125 27l27 -140q-102 -30 -213 -30z" />
    <glyph glyph-name="d.sc" horiz-adv-x="897" 
d="M416 1024q221 0 317 -116t96 -386q0 -283 -96 -402.5t-317 -119.5h-320v1024h320zM395 137q95 0 130.5 80t35.5 297q0 215 -35.5 295t-130.5 80h-45v-752h45z" />
    <glyph glyph-name="eth.sc" horiz-adv-x="897" 
d="M426 1024q219 0 311 -115t92 -387q0 -284 -91.5 -403t-311.5 -119h-330v457h-55v139h55v428h330zM406 137q95 0 130 80t35 297q0 215 -35.5 295t-132.5 80h-53v-293h127v-139h-127v-320h56z" />
    <glyph glyph-name="dcaron.sc" horiz-adv-x="897" 
d="M279 1169l-181 285h256l74 -156l72 156h256l-183 -285h-294zM416 1024q221 0 317 -116t96 -386q0 -283 -96 -402.5t-317 -119.5h-320v1024h320zM395 137q95 0 130.5 80t35.5 297q0 215 -35.5 295t-130.5 80h-45v-752h45z" />
    <glyph glyph-name="dcroat.sc" horiz-adv-x="897" 
d="M426 1024q219 0 311 -115t92 -387q0 -284 -91.5 -403t-311.5 -119h-330v457h-55v139h55v428h330zM406 137q95 0 130 80t35 297q0 215 -35.5 295t-132.5 80h-53v-293h127v-139h-127v-320h56z" />
    <glyph glyph-name="uni1E0B.sc" horiz-adv-x="897" 
d="M559 1423v-254h-260v254h260zM416 1024q221 0 317 -116t96 -386q0 -283 -96 -402.5t-317 -119.5h-320v1024h320zM395 137q95 0 130.5 80t35.5 297q0 215 -35.5 295t-130.5 80h-45v-752h45z" />
    <glyph glyph-name="uni1E0D.sc" horiz-adv-x="897" 
d="M416 1024q221 0 317 -116t96 -386q0 -283 -96 -402.5t-317 -119.5h-320v1024h320zM395 137q95 0 130.5 80t35.5 297q0 215 -35.5 295t-130.5 80h-45v-752h45zM287 -432v289h280v-289h-280z" />
    <glyph glyph-name="e.sc" horiz-adv-x="761" 
d="M350 135h326v-135h-580v1024h568v-133h-314v-287h287v-133h-287v-336z" />
    <glyph glyph-name="eacute.sc" horiz-adv-x="761" 
d="M696 1454l-221 -285h-215l150 285h286zM350 471v-336h326v-135h-580v1024h568v-133h-314v-287h287v-133h-287z" />
    <glyph glyph-name="ebreve.sc" horiz-adv-x="761" 
d="M373 1167q-120 0 -195.5 68t-79.5 182h217q2 -37 20.5 -59.5t47.5 -22.5q25 0 43.5 22.5t22.5 59.5h215q-4 -114 -83.5 -182t-207.5 -68zM350 135h326v-135h-580v1024h568v-133h-314v-287h287v-133h-287v-336z" />
    <glyph glyph-name="ecaron.sc" horiz-adv-x="761" 
d="M231 1169l-180 285h256l74 -156l72 156h256l-183 -285h-295zM350 471v-336h326v-135h-580v1024h568v-133h-314v-287h287v-133h-287z" />
    <glyph glyph-name="ecircumflex.sc" horiz-adv-x="761" 
d="M381 1325l-74 -156h-256l180 285h295l183 -285h-256zM350 471v-336h326v-135h-580v1024h568v-133h-314v-287h287v-133h-287z" />
    <glyph glyph-name="uni0205.sc" horiz-adv-x="761" 
d="M315 1169h-157l-189 285h242zM633 1169h-158l-188 285h241zM350 135h326v-135h-580v1024h568v-133h-314v-287h287v-133h-287v-336z" />
    <glyph glyph-name="edieresis.sc" horiz-adv-x="761" 
d="M324 1434v-265h-250v265h250zM440 1434h250v-265h-250v265zM350 471v-336h326v-135h-580v1024h568v-133h-314v-287h287v-133h-287z" />
    <glyph glyph-name="edotaccent.sc" horiz-adv-x="761" 
d="M512 1423v-254h-260v254h260zM350 135h326v-135h-580v1024h568v-133h-314v-287h287v-133h-287v-336z" />
    <glyph glyph-name="uni1EB9.sc" horiz-adv-x="761" 
d="M350 135h326v-135h-580v1024h568v-133h-314v-287h287v-133h-287v-336zM240 -432v289h280v-289h-280z" />
    <glyph glyph-name="egrave.sc" horiz-adv-x="761" 
d="M506 1159h-221l-219 246h292zM350 135h326v-135h-580v1024h568v-133h-314v-287h287v-133h-287v-336z" />
    <glyph glyph-name="uni0207.sc" horiz-adv-x="761" 
d="M383 1249q-29 0 -47.5 -22.5t-20.5 -59.5h-217q4 114 79.5 182t195.5 68q128 0 207.5 -68t83.5 -182h-215q-4 37 -22.5 59.5t-43.5 22.5zM350 135h326v-135h-580v1024h568v-133h-314v-287h287v-133h-287v-336z" />
    <glyph glyph-name="emacron.sc" horiz-adv-x="761" 
d="M627 1315v-146h-492v146h492zM350 135h326v-135h-580v1024h568v-133h-314v-287h287v-133h-287v-336z" />
    <glyph glyph-name="eogonek.sc" horiz-adv-x="761" 
d="M629 0q-148 -131 -148 -229q0 -34 23.5 -57t64.5 -23q44 0 80 16l25 -145q-71 -29 -174 -29q-101 0 -156 38t-55 116q0 70 58 166t132 147h-383v1024h568v-133h-314v-287h287v-133h-287v-336h326v-135h-47z" />
    <glyph glyph-name="uni1EBD.sc" horiz-adv-x="761" 
d="M311 1229q-23 0 -41 -17t-24 -43h-176q13 115 71 184.5t140 69.5q46 0 102 -28.5t76 -28.5t35.5 15t21.5 40h176q-15 -114 -72 -183t-135 -69q-43 0 -98.5 30t-75.5 30zM350 471v-336h326v-135h-580v1024h568v-133h-314v-287h287v-133h-287z" />
    <glyph glyph-name="uni0259.sc" horiz-adv-x="894" 
d="M449 1040q205 0 291.5 -120t86.5 -406q0 -287 -86.5 -408.5t-291.5 -121.5q-207 0 -294 123.5t-87 416.5v39h491q-3 190 -27.5 266t-82.5 76q-48 0 -72 -30t-31 -103h-258q28 146 110 207t251 61zM451 119q54 0 79 70.5t29 240.5h-221q4 -169 30.5 -240t82.5 -71z" />
    <glyph glyph-name="f.sc" horiz-adv-x="724" 
d="M664 891h-314v-305h287v-135h-287v-451h-254v1024h568v-133z" />
    <glyph glyph-name="uni1E1F.sc" horiz-adv-x="724" 
d="M512 1423v-254h-260v254h260zM664 891h-314v-305h287v-135h-287v-451h-254v1024h568v-133z" />
    <glyph glyph-name="g.sc" horiz-adv-x="882" 
d="M444 567h353v-532q-120 -51 -271 -51q-249 0 -353.5 120t-104.5 406q0 287 110.5 408.5t372.5 121.5q115 0 213 -22v-139q-96 22 -186 22q-138 0 -194 -87t-56 -300q0 -214 43 -302.5t149 -88.5h45v309h-121v135z" />
    <glyph glyph-name="uni01F5.sc" horiz-adv-x="882" 
d="M795 1454l-222 -285h-215l150 285h287zM444 567h353v-532q-120 -51 -271 -51q-249 0 -353.5 120t-104.5 406q0 287 110.5 408.5t372.5 121.5q115 0 213 -22v-139q-96 22 -186 22q-138 0 -194 -87t-56 -300q0 -214 43 -302.5t149 -88.5h45v309h-121v135z" />
    <glyph glyph-name="gbreve.sc" horiz-adv-x="882" 
d="M471 1167q-120 0 -195 68t-79 182h217q2 -37 20 -59.5t47 -22.5q25 0 43.5 22.5t22.5 59.5h215q-4 -114 -83.5 -182t-207.5 -68zM444 567h353v-532q-120 -51 -271 -51q-249 0 -353.5 120t-104.5 406q0 287 110.5 408.5t372.5 121.5q115 0 213 -22v-139q-96 22 -186 22
q-138 0 -194 -87t-56 -300q0 -214 43 -302.5t149 -88.5h45v309h-121v135z" />
    <glyph glyph-name="gcaron.sc" horiz-adv-x="882" 
d="M330 1169l-180 285h256l73 -156l72 156h256l-182 -285h-295zM444 432v135h353v-532q-120 -51 -271 -51q-249 0 -353.5 120t-104.5 406q0 287 110.5 408.5t372.5 121.5q115 0 213 -22v-139q-96 22 -186 22q-138 0 -194 -87t-56 -300q0 -214 43 -302.5t149 -88.5h45v309
h-121z" />
    <glyph glyph-name="gcircumflex.sc" horiz-adv-x="882" 
d="M479 1325l-73 -156h-256l180 285h295l182 -285h-256zM444 432v135h353v-532q-120 -51 -271 -51q-249 0 -353.5 120t-104.5 406q0 287 110.5 408.5t372.5 121.5q115 0 213 -22v-139q-96 22 -186 22q-138 0 -194 -87t-56 -300q0 -214 43 -302.5t149 -88.5h45v309h-121z" />
    <glyph glyph-name="uni0123.sc" horiz-adv-x="882" 
d="M444 567h353v-532q-120 -51 -271 -51q-249 0 -353.5 120t-104.5 406q0 287 110.5 408.5t372.5 121.5q115 0 213 -22v-139q-96 22 -186 22q-138 0 -194 -87t-56 -300q0 -214 43 -302.5t149 -88.5h45v309h-121v135zM360 -428v285h277v-326q0 -122 -81.5 -192t-195.5 -70
v141q49 0 84 31t35 82v49h-119z" />
    <glyph glyph-name="gdotaccent.sc" horiz-adv-x="882" 
d="M610 1423v-254h-260v254h260zM444 567h353v-532q-120 -51 -271 -51q-249 0 -353.5 120t-104.5 406q0 287 110.5 408.5t372.5 121.5q115 0 213 -22v-139q-96 22 -186 22q-138 0 -194 -87t-56 -300q0 -214 43 -302.5t149 -88.5h45v309h-121v135z" />
    <glyph glyph-name="h.sc" horiz-adv-x="907" 
d="M557 1024h254v-1024h-254v475h-207v-475h-254v1024h254v-416h207v416z" />
    <glyph glyph-name="hbar.sc" horiz-adv-x="925" 
d="M909 883v-90h-80v-793h-254v475h-225v-475h-254v793h-80v90h80v141h254v-141h225v141h254v-141h80zM575 610v183h-225v-183h225z" />
    <glyph glyph-name="hcircumflex.sc" horiz-adv-x="907" 
d="M455 1325l-74 -156h-256l180 285h295l182 -285h-256zM557 1024h254v-1024h-254v475h-207v-475h-254v1024h254v-416h207v416z" />
    <glyph glyph-name="uni1E25.sc" horiz-adv-x="907" 
d="M557 1024h254v-1024h-254v475h-207v-475h-254v1024h254v-416h207v416zM313 -432v289h281v-289h-281z" />
    <glyph glyph-name="i.sc" horiz-adv-x="446" 
d="M96 0v1024h254v-1024h-254z" />
    <glyph glyph-name="dotlessi.sc" horiz-adv-x="446" 
d="M96 0v1024h254v-1024h-254z" />
    <glyph glyph-name="iacute.sc" horiz-adv-x="446" 
d="M102 1169l150 285h287l-222 -285h-215zM96 0v1024h254v-1024h-254z" />
    <glyph glyph-name="ibreve.sc" horiz-adv-x="446" 
d="M215 1167q-120 0 -195 68t-79 182h217q2 -37 20 -59.5t47 -22.5q25 0 43.5 22.5t22.5 59.5h215q-4 -114 -83.5 -182t-207.5 -68zM96 0v1024h254v-1024h-254z" />
    <glyph glyph-name="uni01D0.sc" horiz-adv-x="446" 
d="M295 1454h256l-182 -285h-295l-180 285h256l73 -156zM96 0v1024h254v-1024h-254z" />
    <glyph glyph-name="icircumflex.sc" horiz-adv-x="446" 
d="M223 1325l-73 -156h-256l180 285h295l182 -285h-256zM96 0v1024h254v-1024h-254z" />
    <glyph glyph-name="uni0209.sc" horiz-adv-x="446" 
d="M0 1169l-188 285h241l105 -285h-158zM317 1169l-188 285h242l104 -285h-158zM96 0v1024h254v-1024h-254z" />
    <glyph glyph-name="idieresis.sc" horiz-adv-x="446" 
d="M-84 1169v265h250v-265h-250zM283 1169v265h249v-265h-249zM96 0v1024h254v-1024h-254z" />
    <glyph glyph-name="uni1ECB.sc" horiz-adv-x="446" 
d="M96 0v1024h254v-1024h-254zM82 -432v289h280v-289h-280z" />
    <glyph glyph-name="igrave.sc" horiz-adv-x="446" 
d="M127 1159l-219 246h293l147 -246h-221zM96 0v1024h254v-1024h-254z" />
    <glyph glyph-name="uni020B.sc" horiz-adv-x="446" 
d="M-59 1167q4 114 79 182t195 68q128 0 207.5 -68t83.5 -182h-215q-4 37 -22.5 59.5t-43.5 22.5q-29 0 -47 -22.5t-20 -59.5h-217zM96 0v1024h254v-1024h-254z" />
    <glyph glyph-name="imacron.sc" horiz-adv-x="446" 
d="M-23 1169v146h492v-146h-492zM96 0v1024h254v-1024h-254z" />
    <glyph glyph-name="iogonek.sc" horiz-adv-x="446" 
d="M332 -293l24 -145q-71 -29 -174 -29q-101 0 -156 38t-55 116q0 70 58.5 166t132.5 147h-66v1024h254v-1024h-39q-147 -130 -147 -229q0 -34 23.5 -57t64.5 -23q44 0 80 16z" />
    <glyph glyph-name="itilde.sc" horiz-adv-x="446" 
d="M-88 1169q13 115 71 184.5t140 69.5q46 0 102 -28.5t76 -28.5t35.5 15t21.5 40h177q-15 -114 -72 -183t-135 -69q-43 0 -98.5 30t-75.5 30q-23 0 -41.5 -17t-24.5 -43h-176zM96 0v1024h254v-1024h-254z" />
    <glyph glyph-name="j.sc" horiz-adv-x="444" 
d="M6 -285q-84 0 -98 4l6 136q25 -5 51 -5q72 0 100.5 35.5t28.5 126.5v1012h254v-1001q0 -166 -80.5 -237t-261.5 -71z" />
    <glyph glyph-name="jcircumflex.sc" horiz-adv-x="444" 
d="M221 1325l-74 -156h-256l181 285h295l182 -285h-256zM94 12v1012h254v-1001q0 -166 -80.5 -237t-261.5 -71q-84 0 -98 4l6 136q25 -5 51 -5q72 0 100.5 35.5t28.5 126.5z" />
    <glyph glyph-name="k.sc" horiz-adv-x="882" 
d="M582 0l-191 410l-41 -56v-354h-254v1024h254v-365l262 367h230l-289 -393l297 -633h-268z" />
    <glyph glyph-name="uni0137.sc" horiz-adv-x="882" 
d="M553 633l297 -633h-268l-191 410l-41 -56v-354h-254v1024h254v-365l262 367h230zM301 -428v285h277v-326q0 -122 -81.5 -192t-195.5 -70v141q49 0 84 31t35 82v49h-119z" />
    <glyph glyph-name="kgreenlandic.sc" horiz-adv-x="882" 
d="M582 0l-191 410l-41 -56v-354h-254v1024h254v-365l262 367h230l-289 -393l297 -633h-268z" />
    <glyph glyph-name="l.sc" horiz-adv-x="708" 
d="M350 135h314v-135h-568v1024h254v-889z" />
    <glyph glyph-name="lacute.sc" horiz-adv-x="708" 
d="M539 1454l-222 -285h-215l150 285h287zM350 135h314v-135h-568v1024h254v-889z" />
    <glyph glyph-name="lcaron.sc" horiz-adv-x="927" 
d="M530 1180h314v-373q0 -94 -45 -163.5t-115 -102.5t-154 -33v160q57 0 96.5 36t39.5 95v57h-136v324zM350 1024v-889h314v-135h-568v1024h254z" />
    <glyph glyph-name="uni013C.sc" horiz-adv-x="708" 
d="M350 135h314v-135h-568v1024h254v-889zM240 -428v285h276v-326q0 -122 -81 -192t-195 -70v141q49 0 83.5 31t34.5 82v49h-118z" />
    <glyph glyph-name="l_periodcentered_l.loclCAT.sc" horiz-adv-x="1533" 
d="M350 1024v-889h314v-135h-568v1024h254zM1178 135h313v-135h-567v1024h254v-889zM485 477v309h301v-309h-301z" />
    <glyph glyph-name="lslash.sc" horiz-adv-x="708" 
d="M350 137h314v-137h-568v346l-92 -45v170l92 45v508h254v-410l217 109v-170l-217 -109v-307z" />
    <glyph glyph-name="m.sc" horiz-adv-x="1177" 
d="M1149 0h-254l-121 649l-127 -649h-201l-127 659l-126 -659h-164l204 1024h230l119 -623l127 623h235z" />
    <glyph glyph-name="uni1E41.sc" horiz-adv-x="1177" 
d="M717 1423v-254h-260v254h260zM1149 0h-254l-121 649l-127 -649h-201l-127 659l-126 -659h-164l204 1024h230l119 -623l127 623h235z" />
    <glyph glyph-name="n.sc" horiz-adv-x="907" 
d="M655 1024h156v-1024h-197l-362 651v-651h-156v1024h228l331 -604v604z" />
    <glyph glyph-name="nacute.sc" horiz-adv-x="907" 
d="M780 1454l-221 -285h-215l150 285h286zM655 1024h156v-1024h-197l-362 651v-651h-156v1024h228l331 -604v604z" />
    <glyph glyph-name="napostrophe.sc" horiz-adv-x="1327" 
d="M84 1014v323h313v-372q0 -140 -91.5 -219.5t-221.5 -79.5v159q57 0 96 36t39 95v58h-135zM1065 1024h156v-1024h-197l-362 651v-651h-156v1024h227l332 -604v604z" />
    <glyph glyph-name="ncaron.sc" horiz-adv-x="907" 
d="M315 1169l-180 285h256l74 -156l72 156h256l-183 -285h-295zM655 1024h156v-1024h-197l-362 651v-651h-156v1024h228l331 -604v604z" />
    <glyph glyph-name="uni0146.sc" horiz-adv-x="907" 
d="M655 1024h156v-1024h-197l-362 651v-651h-156v1024h228l331 -604v604zM311 -428v285h277v-326q0 -122 -81.5 -192t-195.5 -70v141q49 0 84 31t35 82v49h-119z" />
    <glyph glyph-name="uni1E45.sc" horiz-adv-x="907" 
d="M596 1423v-254h-260v254h260zM655 1024h156v-1024h-197l-362 651v-651h-156v1024h228l331 -604v604z" />
    <glyph glyph-name="eng.sc" horiz-adv-x="897" 
d="M645 1024h156v-1194q0 -132 -50 -186t-176 -54q-45 0 -141 17l23 129q40 -8 61 -8q72 0 99.5 28.5t27.5 106.5v137h-41l-354 651v-651h-154v1024h228l321 -602v602z" />
    <glyph glyph-name="uni0272.sc" horiz-adv-x="894" 
d="M645 1024h154v-1024h-195l-352 645v-819q0 -132 -42.5 -184t-135.5 -52q-80 0 -172 29l26 125q45 -10 76 -10q50 0 71 21.5t21 72.5v1196h228l321 -606v606z" />
    <glyph glyph-name="ntilde.sc" horiz-adv-x="907" 
d="M395 1229q-23 0 -41 -17t-24 -43h-176q13 115 71 184.5t140 69.5q46 0 102 -28.5t76 -28.5t35.5 15t21.5 40h176q-15 -114 -72 -183t-135 -69q-43 0 -98.5 30t-75.5 30zM655 1024h156v-1024h-197l-362 651v-651h-156v1024h228l331 -604v604z" />
    <glyph glyph-name="o.sc" horiz-adv-x="905" 
d="M455 -16q-210 0 -298.5 121t-88.5 409q0 286 88 406t299 120q209 0 296 -120t87 -406q0 -288 -87 -409t-296 -121zM457 123q65 0 88.5 85.5t23.5 305.5t-23.5 303.5t-90.5 83.5q-68 0 -93.5 -84t-25.5 -303q0 -220 25.5 -305.5t95.5 -85.5z" />
    <glyph glyph-name="oacute.sc" horiz-adv-x="905" 
d="M332 1169l149 285h287l-221 -285h-215zM455 -16q-210 0 -298.5 121t-88.5 409q0 286 88 406t299 120q209 0 296 -120t87 -406q0 -288 -87 -409t-296 -121zM457 123q65 0 88.5 85.5t23.5 305.5t-23.5 303.5t-90.5 83.5q-68 0 -93.5 -84t-25.5 -303q0 -220 25.5 -305.5
t95.5 -85.5z" />
    <glyph glyph-name="obreve.sc" horiz-adv-x="905" 
d="M444 1167q-120 0 -195 68t-79 182h217q2 -37 20.5 -59.5t47.5 -22.5q25 0 42.5 22.5t22.5 59.5h215q-4 -114 -83.5 -182t-207.5 -68zM455 -16q-210 0 -298.5 121t-88.5 409q0 286 88 406t299 120q209 0 296 -120t87 -406q0 -288 -87 -409t-296 -121zM457 123
q65 0 88.5 85.5t23.5 305.5t-23.5 303.5t-90.5 83.5q-68 0 -93.5 -84t-25.5 -303q0 -220 25.5 -305.5t95.5 -85.5z" />
    <glyph glyph-name="uni01D2.sc" horiz-adv-x="905" 
d="M303 1169l-180 285h256l74 -156l71 156h256l-182 -285h-295zM455 1040q209 0 296 -120t87 -406q0 -288 -87 -409t-296 -121q-210 0 -298.5 121t-88.5 409q0 286 88 406t299 120zM457 123q65 0 88.5 85.5t23.5 305.5t-23.5 303.5t-90.5 83.5q-68 0 -93.5 -84t-25.5 -303
q0 -220 25.5 -305.5t95.5 -85.5z" />
    <glyph glyph-name="ocircumflex.sc" horiz-adv-x="905" 
d="M453 1325l-74 -156h-256l180 285h295l182 -285h-256zM455 1040q209 0 296 -120t87 -406q0 -288 -87 -409t-296 -121q-210 0 -298.5 121t-88.5 409q0 286 88 406t299 120zM457 123q65 0 88.5 85.5t23.5 305.5t-23.5 303.5t-90.5 83.5q-68 0 -93.5 -84t-25.5 -303
q0 -220 25.5 -305.5t95.5 -85.5z" />
    <glyph glyph-name="uni020D.sc" horiz-adv-x="905" 
d="M229 1169l-188 285h242l104 -285h-158zM547 1169l-189 285h242l105 -285h-158zM455 -16q-210 0 -298.5 121t-88.5 409q0 286 88 406t299 120q209 0 296 -120t87 -406q0 -288 -87 -409t-296 -121zM457 123q65 0 88.5 85.5t23.5 305.5t-23.5 303.5t-90.5 83.5
q-68 0 -93.5 -84t-25.5 -303q0 -220 25.5 -305.5t95.5 -85.5z" />
    <glyph glyph-name="odieresis.sc" horiz-adv-x="905" 
d="M145 1169v265h250v-265h-250zM512 1169v265h250v-265h-250zM455 -16q-210 0 -298.5 121t-88.5 409q0 286 88 406t299 120q209 0 296 -120t87 -406q0 -288 -87 -409t-296 -121zM457 123q65 0 88.5 85.5t23.5 305.5t-23.5 303.5t-90.5 83.5q-68 0 -93.5 -84t-25.5 -303
q0 -220 25.5 -305.5t95.5 -85.5z" />
    <glyph glyph-name="uni1ECD.sc" horiz-adv-x="905" 
d="M455 -16q-210 0 -298.5 121t-88.5 409q0 286 88 406t299 120q209 0 296 -120t87 -406q0 -288 -87 -409t-296 -121zM457 123q65 0 88.5 85.5t23.5 305.5t-23.5 303.5t-90.5 83.5q-68 0 -93.5 -84t-25.5 -303q0 -220 25.5 -305.5t95.5 -85.5zM311 -432v289h281v-289h-281z
" />
    <glyph glyph-name="ograve.sc" horiz-adv-x="905" 
d="M356 1159l-219 246h293l148 -246h-222zM455 -16q-210 0 -298.5 121t-88.5 409q0 286 88 406t299 120q209 0 296 -120t87 -406q0 -288 -87 -409t-296 -121zM457 123q65 0 88.5 85.5t23.5 305.5t-23.5 303.5t-90.5 83.5q-68 0 -93.5 -84t-25.5 -303q0 -220 25.5 -305.5
t95.5 -85.5z" />
    <glyph glyph-name="ohungarumlaut.sc" horiz-adv-x="905" 
d="M201 1169l104 285h242l-189 -285h-157zM518 1169l105 285h241l-188 -285h-158zM455 -16q-210 0 -298.5 121t-88.5 409q0 286 88 406t299 120q209 0 296 -120t87 -406q0 -288 -87 -409t-296 -121zM457 123q65 0 88.5 85.5t23.5 305.5t-23.5 303.5t-90.5 83.5
q-68 0 -93.5 -84t-25.5 -303q0 -220 25.5 -305.5t95.5 -85.5z" />
    <glyph glyph-name="uni020F.sc" horiz-adv-x="905" 
d="M170 1167q4 114 79 182t195 68q128 0 207.5 -68t83.5 -182h-215q-5 37 -22.5 59.5t-42.5 22.5q-29 0 -47.5 -22.5t-20.5 -59.5h-217zM455 -16q-210 0 -298.5 121t-88.5 409q0 286 88 406t299 120q209 0 296 -120t87 -406q0 -288 -87 -409t-296 -121zM457 123
q65 0 88.5 85.5t23.5 305.5t-23.5 303.5t-90.5 83.5q-68 0 -93.5 -84t-25.5 -303q0 -220 25.5 -305.5t95.5 -85.5z" />
    <glyph glyph-name="omacron.sc" horiz-adv-x="905" 
d="M207 1169v146h491v-146h-491zM455 -16q-210 0 -298.5 121t-88.5 409q0 286 88 406t299 120q209 0 296 -120t87 -406q0 -288 -87 -409t-296 -121zM457 123q65 0 88.5 85.5t23.5 305.5t-23.5 303.5t-90.5 83.5q-68 0 -93.5 -84t-25.5 -303q0 -220 25.5 -305.5t95.5 -85.5z
" />
    <glyph glyph-name="uni01EB.sc" horiz-adv-x="905" 
d="M666 -227q43 0 79 16l25 -145q-71 -29 -174 -29q-101 0 -156 38t-55 116q0 93 92 215h-22q-210 0 -298.5 121t-88.5 409q0 286 88 406t299 120q209 0 296 -120t87 -406q0 -195 -38.5 -310.5t-123.5 -168.5q-98 -101 -98 -182q0 -34 23.5 -57t64.5 -23zM336 514
q0 -220 25.5 -305.5t95.5 -85.5q65 0 88.5 85.5t23.5 305.5t-23.5 303.5t-90.5 83.5q-68 0 -93.5 -84t-25.5 -303z" />
    <glyph glyph-name="oslash.sc" horiz-adv-x="894" 
d="M766 881q61 -119 61 -367q0 -287 -86.5 -408.5t-291.5 -121.5q-187 0 -271 94l-57 -78h-96l106 145q-63 118 -63 369q0 286 87 406t294 120q182 0 268 -92l55 76h98zM336 514v-86l219 297q-7 106 -30 143t-76 37q-49 0 -72 -31t-32 -110.5t-9 -249.5zM451 119
q47 0 69 31.5t30.5 112t8.5 251.5v84l-217 -297q7 -107 31 -144.5t78 -37.5z" />
    <glyph glyph-name="oslashacute.sc" horiz-adv-x="894" 
d="M328 1169l149 285h287l-221 -285h-215zM766 881q61 -119 61 -367q0 -287 -86.5 -408.5t-291.5 -121.5q-187 0 -271 94l-57 -78h-96l106 145q-63 118 -63 369q0 286 87 406t294 120q182 0 268 -92l55 76h98zM336 514v-86l219 297q-7 106 -30 143t-76 37q-49 0 -72 -31
t-32 -110.5t-9 -249.5zM451 119q47 0 69 31.5t30.5 112t8.5 251.5v84l-217 -297q7 -107 31 -144.5t78 -37.5z" />
    <glyph glyph-name="otilde.sc" horiz-adv-x="905" 
d="M141 1169q13 115 71 184.5t140 69.5q46 0 102 -28.5t76 -28.5t36 15t22 40h176q-15 -114 -72 -183t-135 -69q-43 0 -98.5 30t-75.5 30q-23 0 -41.5 -17t-24.5 -43h-176zM455 -16q-210 0 -298.5 121t-88.5 409q0 286 88 406t299 120q209 0 296 -120t87 -406
q0 -288 -87 -409t-296 -121zM457 123q65 0 88.5 85.5t23.5 305.5t-23.5 303.5t-90.5 83.5q-68 0 -93.5 -84t-25.5 -303q0 -220 25.5 -305.5t95.5 -85.5z" />
    <glyph glyph-name="oe.sc" horiz-adv-x="1212" 
d="M801 137h325v-137h-522q-52 -16 -137 -16q-218 0 -308.5 121t-90.5 409q0 286 90.5 406t308.5 120q84 0 133 -16h514v-135h-313v-283h289v-135h-289v-334zM336 514q0 -161 12 -244t39 -117t80 -34t80 24v742q-29 20 -82 20q-52 0 -78.5 -33t-38.5 -115.5t-12 -242.5z" />
    <glyph glyph-name="p.sc" horiz-adv-x="854" 
d="M426 1024q198 0 282.5 -74.5t84.5 -247.5q0 -191 -84.5 -273.5t-282.5 -82.5h-76v-346h-254v1024h330zM403 481q71 0 99 49t28 172q0 103 -29.5 146t-99.5 43h-51v-410h53z" />
    <glyph glyph-name="uni1E57.sc" horiz-adv-x="854" 
d="M559 1423v-254h-260v254h260zM426 1024q198 0 282.5 -74.5t84.5 -247.5q0 -191 -84.5 -273.5t-282.5 -82.5h-76v-346h-254v1024h330zM403 481q71 0 99 49t28 172q0 103 -29.5 146t-99.5 43h-51v-410h53z" />
    <glyph glyph-name="thorn.sc" horiz-adv-x="843" 
d="M426 834q194 0 275 -66.5t81 -224.5q0 -177 -81.5 -251.5t-274.5 -74.5h-76v-217h-254v1024h254v-190h76zM403 354q66 0 91.5 41.5t25.5 147.5q0 86 -26 119.5t-93 33.5h-51v-342h53z" />
    <glyph glyph-name="q.sc" horiz-adv-x="901" 
d="M834 514q0 -199 -40 -315t-130 -168l151 -35v-172l-455 121v45q-157 25 -224.5 147t-67.5 377q0 286 87.5 406t297.5 120q207 0 294 -120t87 -406zM453 901q-68 0 -93.5 -84t-25.5 -303q0 -220 25.5 -305.5t95.5 -85.5q65 0 88.5 85.5t23.5 305.5t-23.5 303.5t-90.5 83.5
z" />
    <glyph glyph-name="r.sc" horiz-adv-x="890" 
d="M592 0l-172 379h-70v-379h-254v1024h338q193 0 279 -76t86 -231q0 -217 -137 -293l196 -424h-266zM350 891v-377h60q73 0 105 48t32 153q0 92 -33 134t-104 42h-60z" />
    <glyph glyph-name="racute.sc" horiz-adv-x="890" 
d="M762 1454l-221 -285h-215l149 285h287zM592 0l-172 379h-70v-379h-254v1024h338q193 0 279 -76t86 -231q0 -217 -137 -293l196 -424h-266zM350 891v-377h60q73 0 105 48t32 153q0 92 -33 134t-104 42h-60z" />
    <glyph glyph-name="rcaron.sc" horiz-adv-x="890" 
d="M297 1169l-180 285h256l73 -156l72 156h256l-182 -285h-295zM592 0l-172 379h-70v-379h-254v1024h338q193 0 279 -76t86 -231q0 -217 -137 -293l196 -424h-266zM350 891v-377h60q73 0 105 48t32 153q0 92 -33 134t-104 42h-60z" />
    <glyph glyph-name="uni0157.sc" horiz-adv-x="890" 
d="M662 424l196 -424h-266l-172 379h-70v-379h-254v1024h338q193 0 279 -76t86 -231q0 -217 -137 -293zM350 891v-377h60q73 0 105 48t32 153q0 92 -33 134t-104 42h-60zM305 -428v285h277v-326q0 -122 -81.5 -192t-195.5 -70v141q49 0 84 31t35 82v49h-119z" />
    <glyph glyph-name="uni0211.sc" horiz-adv-x="890" 
d="M381 1169h-158l-188 285h241zM698 1169h-157l-189 285h242zM592 0l-172 379h-70v-379h-254v1024h338q193 0 279 -76t86 -231q0 -217 -137 -293l196 -424h-266zM350 891v-377h60q73 0 105 48t32 153q0 92 -33 134t-104 42h-60z" />
    <glyph glyph-name="uni1E5B.sc" horiz-adv-x="890" 
d="M662 424l196 -424h-266l-172 379h-70v-379h-254v1024h338q193 0 279 -76t86 -231q0 -217 -137 -293zM350 891v-377h60q73 0 105 48t32 153q0 92 -33 134t-104 42h-60zM305 -432v289h281v-289h-281z" />
    <glyph glyph-name="uni0213.sc" horiz-adv-x="890" 
d="M449 1249q-29 0 -47.5 -22.5t-20.5 -59.5h-217q4 114 79 182t195 68q128 0 207.5 -68t83.5 -182h-215q-5 37 -22.5 59.5t-42.5 22.5zM592 0l-172 379h-70v-379h-254v1024h338q193 0 279 -76t86 -231q0 -217 -137 -293l196 -424h-266zM350 891v-377h60q73 0 105 48t32 153
q0 92 -33 134t-104 42h-60z" />
    <glyph glyph-name="s.sc" horiz-adv-x="755" 
d="M268 -16q-113 0 -211 36l33 154q86 -47 189 -47q73 0 118 36.5t45 106.5q0 15 -4.5 29.5t-9.5 25t-17.5 22t-20.5 18.5t-27 18.5t-27.5 16t-32 16.5t-31.5 16q-200 108 -200 277q0 155 100 243t266 88q130 0 226 -26l-27 -144q-81 30 -160 27q-61 0 -98 -36.5t-37 -92.5
q0 -63 40 -100t112 -68q202 -81 202 -248q0 -181 -117.5 -274.5t-310.5 -93.5z" />
    <glyph glyph-name="sacute.sc" horiz-adv-x="755" 
d="M279 1169l149 285h287l-221 -285h-215zM268 -16q-113 0 -211 36l33 154q86 -47 189 -47q73 0 118 36.5t45 106.5q0 15 -4.5 29.5t-9.5 25t-17.5 22t-20.5 18.5t-27 18.5t-27.5 16t-32 16.5t-31.5 16q-200 108 -200 277q0 155 100 243t266 88q130 0 226 -26l-27 -144
q-81 30 -160 27q-61 0 -98 -36.5t-37 -92.5q0 -63 40 -100t112 -68q202 -81 202 -248q0 -181 -117.5 -274.5t-310.5 -93.5z" />
    <glyph glyph-name="scaron.sc" horiz-adv-x="755" 
d="M250 1169l-180 285h256l73 -156l72 156h256l-182 -285h-295zM494 600q202 -81 202 -248q0 -181 -117.5 -274.5t-310.5 -93.5q-113 0 -211 36l33 154q86 -47 189 -47q73 0 118 36.5t45 106.5q0 15 -4.5 29.5t-9.5 25t-17.5 22t-20.5 18.5t-27 18.5t-27.5 16t-32 16.5
t-31.5 16q-200 108 -200 277q0 155 100 243t266 88q130 0 226 -26l-27 -144q-81 30 -160 27q-61 0 -98 -36.5t-37 -92.5q0 -63 40 -100t112 -68z" />
    <glyph glyph-name="scedilla.sc" horiz-adv-x="755" 
d="M418 -90q123 -14 168 -57t45 -113q0 -61 -34 -107t-94.5 -72t-133 -38.5t-160.5 -14.5l-21 113q53 4 89.5 11t67.5 19.5t46 34t15 52.5q0 68 -166 92l67 154h-39q-113 0 -211 36l33 154q86 -47 189 -47q73 0 118 36.5t45 106.5q0 15 -4.5 29.5t-9.5 25t-17.5 22
t-20.5 18.5t-27 18.5t-27.5 16t-32 16.5t-31.5 16q-200 108 -200 277q0 155 100 243t266 88q130 0 226 -26l-27 -144q-81 30 -160 27q-61 0 -98 -36.5t-37 -92.5q0 -63 40 -100t112 -68q202 -81 202 -248q0 -134 -66.5 -220.5t-183.5 -123.5h7z" />
    <glyph glyph-name="scircumflex.sc" horiz-adv-x="755" 
d="M399 1325l-73 -156h-256l180 285h295l182 -285h-256zM494 600q202 -81 202 -248q0 -181 -117.5 -274.5t-310.5 -93.5q-113 0 -211 36l33 154q86 -47 189 -47q73 0 118 36.5t45 106.5q0 15 -4.5 29.5t-9.5 25t-17.5 22t-20.5 18.5t-27 18.5t-27.5 16t-32 16.5t-31.5 16
q-200 108 -200 277q0 155 100 243t266 88q130 0 226 -26l-27 -144q-81 30 -160 27q-61 0 -98 -36.5t-37 -92.5q0 -63 40 -100t112 -68z" />
    <glyph glyph-name="uni0219.sc" horiz-adv-x="755" 
d="M494 600q202 -81 202 -248q0 -181 -117.5 -274.5t-310.5 -93.5q-113 0 -211 36l33 154q86 -47 189 -47q73 0 118 36.5t45 106.5q0 15 -4.5 29.5t-9.5 25t-17.5 22t-20.5 18.5t-27 18.5t-27.5 16t-32 16.5t-31.5 16q-200 108 -200 277q0 155 100 243t266 88q130 0 226 -26
l-27 -144q-81 30 -160 27q-61 0 -98 -36.5t-37 -92.5q0 -63 40 -100t112 -68zM238 -428v285h276v-326q0 -122 -81 -192t-195 -70v141q49 0 83.5 31t34.5 82v49h-118z" />
    <glyph glyph-name="uni1E61.sc" horiz-adv-x="755" 
d="M270 1169v254h260v-254h-260zM268 -16q-113 0 -211 36l33 154q86 -47 189 -47q73 0 118 36.5t45 106.5q0 15 -4.5 29.5t-9.5 25t-17.5 22t-20.5 18.5t-27 18.5t-27.5 16t-32 16.5t-31.5 16q-200 108 -200 277q0 155 100 243t266 88q130 0 226 -26l-27 -144
q-81 30 -160 27q-61 0 -98 -36.5t-37 -92.5q0 -63 40 -100t112 -68q202 -81 202 -248q0 -181 -117.5 -274.5t-310.5 -93.5z" />
    <glyph glyph-name="uni1E63.sc" horiz-adv-x="755" 
d="M268 -16q-113 0 -211 36l33 154q86 -47 189 -47q73 0 118 36.5t45 106.5q0 15 -4.5 29.5t-9.5 25t-17.5 22t-20.5 18.5t-27 18.5t-27.5 16t-32 16.5t-31.5 16q-200 108 -200 277q0 155 100 243t266 88q130 0 226 -26l-27 -144q-81 30 -160 27q-61 0 -98 -36.5t-37 -92.5
q0 -63 40 -100t112 -68q202 -81 202 -248q0 -181 -117.5 -274.5t-310.5 -93.5zM238 -432v289h280v-289h-280z" />
    <glyph glyph-name="germandbls.sc" horiz-adv-x="1511" 
d="M268 -16q-113 0 -211 36l33 154q86 -47 189 -47q73 0 118 36.5t45 106.5q0 15 -4.5 29.5t-9.5 25t-17.5 22t-20.5 18.5t-27 18.5t-27.5 16t-32 16.5t-31.5 16q-200 108 -200 277q0 155 100 243t266 88q130 0 226 -26l-27 -144q-81 30 -160 27q-61 0 -98 -36.5t-37 -92.5
q0 -63 40 -100t112 -68q202 -81 202 -248q0 -181 -117.5 -274.5t-310.5 -93.5zM1024 -16q-113 0 -211 36l33 154q86 -47 188 -47q74 0 119 36.5t45 106.5q0 15 -4.5 29.5t-9.5 25t-17.5 22t-20.5 18.5t-27 18.5t-27.5 16t-32 16.5t-31.5 16q-201 109 -201 277q0 155 100 243
t267 88q129 0 225 -26l-26 -144q-81 30 -160 27q-61 0 -98 -36.5t-37 -92.5q0 -63 40 -100t111 -68q96 -39 149.5 -98t53.5 -150q0 -181 -117.5 -274.5t-310.5 -93.5z" />
    <glyph glyph-name="t.sc" horiz-adv-x="790" 
d="M758 1024v-133h-236v-891h-254v891h-235v133h725z" />
    <glyph glyph-name="tbar.sc" horiz-adv-x="790" 
d="M758 889h-236v-303h185v-78h-185v-508h-254v508h-182v78h182v303h-235v135h725v-135z" />
    <glyph glyph-name="tcaron.sc" horiz-adv-x="790" 
d="M246 1169l-180 285h256l73 -156l72 156h256l-182 -285h-295zM758 1024v-133h-236v-891h-254v891h-235v133h725z" />
    <glyph glyph-name="uni0163.sc" horiz-adv-x="790" 
d="M522 0h-55l-33 -90q123 -14 168 -57t45 -113q0 -61 -34 -107t-94.5 -72t-133 -38.5t-160.5 -14.5l-20 113q53 4 89.5 11t67 19.5t45.5 34t15 52.5q0 68 -166 92l74 170h-62v891h-235v133h725v-133h-236v-891z" />
    <glyph glyph-name="uni1E6B.sc" horiz-adv-x="790" 
d="M526 1423v-254h-260v254h260zM758 1024v-133h-236v-891h-254v891h-235v133h725z" />
    <glyph glyph-name="uni1E6D.sc" horiz-adv-x="790" 
d="M758 1024v-133h-236v-891h-254v891h-235v133h725zM254 -432v289h281v-289h-281z" />
    <glyph glyph-name="u.sc" horiz-adv-x="872" 
d="M463 -16q-182 0 -279.5 89.5t-97.5 239.5v711h254v-709q0 -39 6.5 -69.5t22 -59t47.5 -44t78 -15.5q139 0 139 188v709h155v-717q0 -146 -82.5 -234.5t-242.5 -88.5z" />
    <glyph glyph-name="uacute.sc" horiz-adv-x="872" 
d="M317 1169l150 285h287l-222 -285h-215zM463 -16q-182 0 -279.5 89.5t-97.5 239.5v711h254v-709q0 -39 6.5 -69.5t22 -59t47.5 -44t78 -15.5q139 0 139 188v709h155v-717q0 -146 -82.5 -234.5t-242.5 -88.5z" />
    <glyph glyph-name="ubreve.sc" horiz-adv-x="872" 
d="M430 1167q-120 0 -195 68t-79 182h217q2 -37 20 -59.5t47 -22.5q25 0 43.5 22.5t22.5 59.5h215q-4 -114 -83.5 -182t-207.5 -68zM463 -16q-182 0 -279.5 89.5t-97.5 239.5v711h254v-709q0 -39 6.5 -69.5t22 -59t47.5 -44t78 -15.5q139 0 139 188v709h155v-717
q0 -146 -82.5 -234.5t-242.5 -88.5z" />
    <glyph glyph-name="uni01D4.sc" horiz-adv-x="872" 
d="M289 1169l-180 285h256l73 -156l72 156h256l-182 -285h-295zM633 1024h155v-717q0 -146 -82.5 -234.5t-242.5 -88.5q-182 0 -279.5 89.5t-97.5 239.5v711h254v-709q0 -39 6.5 -69.5t22 -59t47.5 -44t78 -15.5q139 0 139 188v709z" />
    <glyph glyph-name="ucircumflex.sc" horiz-adv-x="872" 
d="M438 1325l-73 -156h-256l180 285h295l182 -285h-256zM633 1024h155v-717q0 -146 -82.5 -234.5t-242.5 -88.5q-182 0 -279.5 89.5t-97.5 239.5v711h254v-709q0 -39 6.5 -69.5t22 -59t47.5 -44t78 -15.5q139 0 139 188v709z" />
    <glyph glyph-name="uni0215.sc" horiz-adv-x="872" 
d="M215 1169l-188 285h241l105 -285h-158zM532 1169l-188 285h242l104 -285h-158zM463 -16q-182 0 -279.5 89.5t-97.5 239.5v711h254v-709q0 -39 6.5 -69.5t22 -59t47.5 -44t78 -15.5q139 0 139 188v709h155v-717q0 -146 -82.5 -234.5t-242.5 -88.5z" />
    <glyph glyph-name="udieresis.sc" horiz-adv-x="872" 
d="M131 1169v265h250v-265h-250zM498 1169v265h250v-265h-250zM463 -16q-182 0 -279.5 89.5t-97.5 239.5v711h254v-709q0 -39 6.5 -69.5t22 -59t47.5 -44t78 -15.5q139 0 139 188v709h155v-717q0 -146 -82.5 -234.5t-242.5 -88.5z" />
    <glyph glyph-name="uni01D8.sc" horiz-adv-x="872" 
d="M317 1546l150 285h287l-222 -285h-215zM131 1169v265h250v-265h-250zM498 1169v265h250v-265h-250zM463 -16q-182 0 -279.5 89.5t-97.5 239.5v711h254v-709q0 -39 6.5 -69.5t22 -59t47.5 -44t78 -15.5q139 0 139 188v709h155v-717q0 -146 -82.5 -234.5t-242.5 -88.5z" />
    <glyph glyph-name="uni01DA.sc" horiz-adv-x="872" 
d="M289 1546l-180 285h256l73 -156l72 156h256l-182 -285h-295zM131 1169v265h250v-265h-250zM498 1169v265h250v-265h-250zM633 1024h155v-717q0 -146 -82.5 -234.5t-242.5 -88.5q-182 0 -279.5 89.5t-97.5 239.5v711h254v-709q0 -39 6.5 -69.5t22 -59t47.5 -44t78 -15.5
q139 0 139 188v709z" />
    <glyph glyph-name="uni01DC.sc" horiz-adv-x="872" 
d="M342 1536l-219 246h293l147 -246h-221zM131 1169v265h250v-265h-250zM498 1169v265h250v-265h-250zM463 -16q-182 0 -279.5 89.5t-97.5 239.5v711h254v-709q0 -39 6.5 -69.5t22 -59t47.5 -44t78 -15.5q139 0 139 188v709h155v-717q0 -146 -82.5 -234.5t-242.5 -88.5z" />
    <glyph glyph-name="uni01D6.sc" horiz-adv-x="872" 
d="M193 1546v146h491v-146h-491zM131 1169v265h250v-265h-250zM498 1169v265h250v-265h-250zM463 -16q-182 0 -279.5 89.5t-97.5 239.5v711h254v-709q0 -39 6.5 -69.5t22 -59t47.5 -44t78 -15.5q139 0 139 188v709h155v-717q0 -146 -82.5 -234.5t-242.5 -88.5z" />
    <glyph glyph-name="uni1EE5.sc" horiz-adv-x="872" 
d="M463 -16q-182 0 -279.5 89.5t-97.5 239.5v711h254v-709q0 -39 6.5 -69.5t22 -59t47.5 -44t78 -15.5q139 0 139 188v709h155v-717q0 -146 -82.5 -234.5t-242.5 -88.5zM315 -432v289h281v-289h-281z" />
    <glyph glyph-name="ugrave.sc" horiz-adv-x="872" 
d="M342 1159l-219 246h293l147 -246h-221zM463 -16q-182 0 -279.5 89.5t-97.5 239.5v711h254v-709q0 -39 6.5 -69.5t22 -59t47.5 -44t78 -15.5q139 0 139 188v709h155v-717q0 -146 -82.5 -234.5t-242.5 -88.5z" />
    <glyph glyph-name="uhungarumlaut.sc" horiz-adv-x="872" 
d="M186 1169l105 285h241l-188 -285h-158zM504 1169l104 285h242l-188 -285h-158zM463 -16q-182 0 -279.5 89.5t-97.5 239.5v711h254v-709q0 -39 6.5 -69.5t22 -59t47.5 -44t78 -15.5q139 0 139 188v709h155v-717q0 -146 -82.5 -234.5t-242.5 -88.5z" />
    <glyph glyph-name="uni0217.sc" horiz-adv-x="872" 
d="M156 1167q4 114 79 182t195 68q128 0 207.5 -68t83.5 -182h-215q-4 37 -22.5 59.5t-43.5 22.5q-29 0 -47 -22.5t-20 -59.5h-217zM463 -16q-182 0 -279.5 89.5t-97.5 239.5v711h254v-709q0 -39 6.5 -69.5t22 -59t47.5 -44t78 -15.5q139 0 139 188v709h155v-717
q0 -146 -82.5 -234.5t-242.5 -88.5z" />
    <glyph glyph-name="umacron.sc" horiz-adv-x="872" 
d="M193 1169v146h491v-146h-491zM463 -16q-182 0 -279.5 89.5t-97.5 239.5v711h254v-709q0 -39 6.5 -69.5t22 -59t47.5 -44t78 -15.5q139 0 139 188v709h155v-717q0 -146 -82.5 -234.5t-242.5 -88.5z" />
    <glyph glyph-name="uogonek.sc" horiz-adv-x="872" 
d="M788 307q0 -199 -141 -280q-96 -99 -96 -181q0 -34 23.5 -56.5t64.5 -22.5q44 0 80 16l24 -145q-71 -29 -174 -29q-211 0 -211 153q0 46 27 106t70 116q-178 3 -273.5 92t-95.5 237v711h254v-709q0 -39 6.5 -69.5t22 -59t47.5 -44t78 -15.5q139 0 139 188v709h155v-717z
" />
    <glyph glyph-name="uring.sc" horiz-adv-x="872" 
d="M438 1137q-98 0 -164.5 65.5t-66.5 163.5q0 95 66.5 159t164.5 64q100 0 167 -64t67 -159q0 -98 -67 -163.5t-167 -65.5zM438 1270q40 0 66 27t26 67t-27 66t-67 26q-38 0 -64 -26t-26 -66t26 -67t66 -27zM463 -16q-182 0 -279.5 89.5t-97.5 239.5v711h254v-709
q0 -39 6.5 -69.5t22 -59t47.5 -44t78 -15.5q139 0 139 188v709h155v-717q0 -146 -82.5 -234.5t-242.5 -88.5z" />
    <glyph glyph-name="utilde.sc" horiz-adv-x="872" 
d="M127 1169q13 115 71 184.5t140 69.5q46 0 102 -28.5t76 -28.5t35.5 15t21.5 40h177q-15 -114 -72 -183t-135 -69q-43 0 -98.5 30t-75.5 30q-23 0 -41.5 -17t-24.5 -43h-176zM463 -16q-182 0 -279.5 89.5t-97.5 239.5v711h254v-709q0 -39 6.5 -69.5t22 -59t47.5 -44
t78 -15.5q139 0 139 188v709h155v-717q0 -146 -82.5 -234.5t-242.5 -88.5z" />
    <glyph glyph-name="v.sc" horiz-adv-x="831" 
d="M653 1026h160l-287 -1026h-225l-283 1026h263l182 -688z" />
    <glyph glyph-name="w.sc" horiz-adv-x="1185" 
d="M1006 1026h161l-217 -1026h-213l-135 668l-135 -668h-229l-220 1026h256l121 -614l123 614h242l123 -610z" />
    <glyph glyph-name="wacute.sc" horiz-adv-x="1185" 
d="M954 1454l-221 -285h-215l150 285h286zM1006 1026h161l-217 -1026h-213l-135 668l-135 -668h-229l-220 1026h256l121 -614l123 614h242l123 -610z" />
    <glyph glyph-name="wcircumflex.sc" horiz-adv-x="1185" 
d="M639 1325l-74 -156h-256l180 285h295l183 -285h-256zM1006 1026h161l-217 -1026h-213l-135 668l-135 -668h-229l-220 1026h256l121 -614l123 614h242l123 -610z" />
    <glyph glyph-name="wdieresis.sc" horiz-adv-x="1185" 
d="M582 1434v-265h-250v265h250zM948 1434v-265h-250v265h250zM1006 1026h161l-217 -1026h-213l-135 668l-135 -668h-229l-220 1026h256l121 -614l123 614h242l123 -610z" />
    <glyph glyph-name="wgrave.sc" horiz-adv-x="1185" 
d="M764 1159h-221l-219 246h292zM1006 1026h161l-217 -1026h-213l-135 668l-135 -668h-229l-220 1026h256l121 -614l123 614h242l123 -610z" />
    <glyph glyph-name="x.sc" horiz-adv-x="839" 
d="M813 0h-289l-155 324l-164 -324h-174l252 500l-252 524h288l150 -309l156 309h172l-244 -485z" />
    <glyph glyph-name="y.sc" horiz-adv-x="819" 
d="M629 1024h172l-254 -629v-395h-254v395l-275 629h275l178 -410z" />
    <glyph glyph-name="yacute.sc" horiz-adv-x="819" 
d="M748 1454l-222 -285h-215l150 285h287zM629 1024h172l-254 -629v-395h-254v395l-275 629h275l178 -410z" />
    <glyph glyph-name="ycircumflex.sc" horiz-adv-x="819" 
d="M432 1325l-74 -156h-256l181 285h295l182 -285h-256zM629 1024h172l-254 -629v-395h-254v395l-275 629h275l178 -410z" />
    <glyph glyph-name="ydieresis.sc" horiz-adv-x="819" 
d="M375 1434v-265h-250v265h250zM741 1434v-265h-249v265h249zM629 1024h172l-254 -629v-395h-254v395l-275 629h275l178 -410z" />
    <glyph glyph-name="ygrave.sc" horiz-adv-x="819" 
d="M557 1159h-221l-219 246h293zM629 1024h172l-254 -629v-395h-254v395l-275 629h275l178 -410z" />
    <glyph glyph-name="uni0233.sc" horiz-adv-x="819" 
d="M678 1315v-146h-492v146h492zM629 1024h172l-254 -629v-395h-254v395l-275 629h275l178 -410z" />
    <glyph glyph-name="uni1EF9.sc" horiz-adv-x="819" 
d="M362 1229q-23 0 -41 -17t-24 -43h-176q13 115 71 184.5t140 69.5q46 0 102 -28.5t76 -28.5t35.5 15t21.5 40h176q-15 -114 -71.5 -183t-134.5 -69q-43 0 -99 30t-76 30zM629 1024h172l-254 -629v-395h-254v395l-275 629h275l178 -410z" />
    <glyph glyph-name="z.sc" horiz-adv-x="737" 
d="M348 135h338l-2 -135h-641l311 891h-295v133h596z" />
    <glyph glyph-name="zacute.sc" horiz-adv-x="737" 
d="M684 1454l-221 -285h-215l149 285h287zM348 135h338l-2 -135h-641l311 891h-295v133h596z" />
    <glyph glyph-name="zcaron.sc" horiz-adv-x="737" 
d="M219 1169l-180 285h256l74 -156l71 156h256l-182 -285h-295zM655 1024l-307 -889h338l-2 -135h-641l311 891h-295v133h596z" />
    <glyph glyph-name="zdotaccent.sc" horiz-adv-x="737" 
d="M500 1423v-254h-260v254h260zM348 135h338l-2 -135h-641l311 891h-295v133h596z" />
    <glyph glyph-name="uni1E93.sc" horiz-adv-x="737" 
d="M348 135h338l-2 -135h-641l311 891h-295v133h596zM227 -432v289h281v-289h-281z" />
    <glyph glyph-name="a.sups" horiz-adv-x="548" 
d="M301 1350q95 0 147 -42.5t52 -142.5v-454h-170v94q-68 -107 -158 -107q-63 0 -101 45t-38 140q0 100 40 149t126 72l120 31v32q0 76 -67 76t-170 -35l-23 105q135 37 242 37zM254 829q27 0 46 29.5t19 61.5v139l-38 -10q-70 -20 -70 -127q0 -93 43 -93z" />
    <glyph glyph-name="b.sups" horiz-adv-x="565" 
d="M375 1350q83 0 120 -76.5t37 -241.5q0 -179 -40 -256.5t-130 -77.5q-93 0 -143 95v-82h-166v876h178v-315q61 78 144 78zM293 821q31 0 43 47.5t12 163.5q0 110 -11.5 153.5t-43.5 43.5q-34 0 -48 -48t-14 -155q0 -111 13.5 -158t48.5 -47z" />
    <glyph glyph-name="c.sups" horiz-adv-x="425" 
d="M260 698q-123 0 -175 75.5t-52 252.5q0 175 57 249.5t193 74.5q38 0 112 -13l-8 -153l-90 71q-49 0 -68.5 -50.5t-19.5 -176.5q0 -130 20.5 -182.5t71.5 -52.5q37 0 74 18l16 -94q-65 -19 -131 -19z" />
    <glyph glyph-name="d.sups" horiz-adv-x="557" 
d="M326 1587h178v-876h-166v75q-63 -88 -154 -88q-79 0 -115 79.5t-36 250.5q0 174 37.5 248t124.5 74q78 0 131 -76v313zM266 821q33 0 46.5 47.5t13.5 157.5q0 107 -14 155t-48 48q-32 0 -43.5 -43.5t-11.5 -153.5q0 -117 12.5 -164t44.5 -47z" />
    <glyph glyph-name="e.sups" horiz-adv-x="522" 
d="M213 999q3 -114 28 -159t85 -45q72 0 127 28l16 -88q-73 -37 -174 -37q-142 0 -202 75.5t-60 254.5q0 175 51 248.5t174 73.5q126 0 178.5 -73.5t52.5 -248.5q0 -5 -1 -15t-1 -14h-274zM213 1085h96v23q0 83 -10.5 116t-36.5 33q-28 0 -38.5 -34t-10.5 -121v-17z" />
    <glyph glyph-name="f.sups" horiz-adv-x="342" 
d="M301 1464q-28 0 -41.5 -22t-13.5 -72v-33h86v-116h-86v-510h-176v510h-66v116h66v45q0 111 47 158t133 47q45 0 98 -16l-12 -113q-21 6 -35 6z" />
    <glyph glyph-name="g.sups" horiz-adv-x="565" 
d="M346 1337l166 9v-592q0 -140 -77.5 -211.5t-207.5 -71.5q-92 0 -168 25l21 114q70 -24 125 -24q68 0 98.5 36t30.5 111v43q-60 -78 -133 -78q-86 0 -127 78t-41 240q0 176 42.5 255t133.5 79q87 0 137 -95v82zM270 821q35 0 49.5 47.5t14.5 153.5q0 111 -13.5 158
t-48.5 47q-32 0 -43.5 -47t-11.5 -164q0 -111 11 -153t42 -42z" />
    <glyph glyph-name="h.sups" horiz-adv-x="561" 
d="M375 1350q71 0 105 -39.5t34 -132.5v-467h-178v405q0 54 -10 78.5t-37 24.5q-30 0 -44 -32t-14 -79v-397h-178v858l178 14v-317q23 37 63.5 60.5t80.5 23.5z" />
    <glyph glyph-name="i.sups" horiz-adv-x="284" 
d="M53 1427v177h178v-177h-178zM53 711v626h178v-626h-178z" />
    <glyph glyph-name="j.sups" horiz-adv-x="286" 
d="M55 1427v177h178v-177h-178zM57 471q-62 0 -143 23l20 114q36 -8 54 -8q36 0 51.5 18t15.5 60v659h178v-671q0 -109 -41.5 -152t-134.5 -43z" />
    <glyph glyph-name="k.sups" horiz-adv-x="565" 
d="M352 711l-86 233l-35 -47v-186h-178v864l178 12v-465l127 215h187l-162 -229l164 -397h-195z" />
    <glyph glyph-name="l.sups" horiz-adv-x="284" 
d="M53 711v864l178 12v-876h-178z" />
    <glyph glyph-name="m.sups" horiz-adv-x="839" 
d="M657 1350q70 0 103 -39.5t33 -132.5v-467h-179v411q0 54 -9 78.5t-34 24.5q-30 0 -44.5 -32.5t-14.5 -78.5v-403h-178v411q0 53 -9.5 78t-33.5 25q-30 0 -45 -32.5t-15 -78.5v-403h-178v626l178 13v-84q25 37 65.5 60.5t80.5 23.5q108 0 127 -97q24 42 66.5 69.5
t86.5 27.5z" />
    <glyph glyph-name="n.sups" horiz-adv-x="561" 
d="M375 1350q71 0 105 -39.5t34 -132.5v-467h-178v411q0 54 -10 78.5t-37 24.5q-30 0 -44 -31.5t-14 -79.5v-403h-178v626l178 13v-84q23 37 63.5 60.5t80.5 23.5z" />
    <glyph glyph-name="o.sups" horiz-adv-x="552" 
d="M276 698q-129 0 -186 78.5t-57 247.5t57.5 247.5t185.5 78.5q131 0 187.5 -77t56.5 -249q0 -169 -57.5 -247.5t-186.5 -78.5zM276 793q36 0 47 45t11 188q0 141 -11 186t-47 45t-46.5 -44.5t-10.5 -186.5q0 -144 10.5 -188.5t46.5 -44.5z" />
    <glyph glyph-name="p.sups" horiz-adv-x="565" 
d="M362 1350q90 0 130 -77.5t40 -256.5q0 -165 -37 -241.5t-120 -76.5t-144 78v-305h-178v866h166v-82q50 95 143 95zM293 821q32 0 43.5 43t11.5 152q0 118 -12.5 164.5t-44.5 46.5t-46 -47.5t-14 -157.5q0 -104 14.5 -152.5t47.5 -48.5z" />
    <glyph glyph-name="q.sups" horiz-adv-x="565" 
d="M346 1337h166v-866h-178v305q-61 -78 -144 -78t-120 76.5t-37 241.5q0 179 40 256.5t130 77.5t143 -95v82zM270 821q35 0 49.5 48t14.5 153q0 112 -13.5 158.5t-46.5 46.5q-32 0 -44.5 -46.5t-12.5 -164.5q0 -109 11.5 -152t41.5 -43z" />
    <glyph glyph-name="r.sups" horiz-adv-x="434" 
d="M375 1350q18 0 39 -7l-8 -186q-40 19 -68 19q-48 0 -77.5 -46.5t-29.5 -115.5v-303h-178v626h178v-112q27 55 66.5 90t77.5 35z" />
    <glyph glyph-name="s.sups" horiz-adv-x="468" 
d="M182 698q-81 0 -151 23l18 104q60 -28 131 -28q41 0 66.5 23.5t25.5 60.5q0 10 -2 19t-8.5 16.5t-11 12.5t-15.5 12t-17 10.5t-21 11l-21 10.5q-66 28 -100.5 70t-34.5 106q0 91 68.5 146t171.5 55q65 0 139 -19l-17 -98q-50 20 -102 20q-31 0 -52.5 -21.5t-21.5 -53.5
q0 -37 22.5 -56.5t65.5 -36.5q59 -27 92 -63.5t33 -95.5q0 -109 -73 -168.5t-185 -59.5z" />
    <glyph glyph-name="t.sups" horiz-adv-x="376" 
d="M350 1219h-102v-314q0 -44 13.5 -63t43.5 -19q31 0 41 2v-110q-70 -17 -100 -17q-83 0 -128.5 44.5t-45.5 150.5v326h-60v118h60v119l176 37v-156h102v-118z" />
    <glyph glyph-name="u.sups" horiz-adv-x="561" 
d="M330 1337h178v-626l-178 -13v84q-23 -37 -63.5 -60.5t-80.5 -23.5q-71 0 -105 40.5t-34 133.5v465h178v-411q0 -52 10.5 -76.5t38.5 -24.5q29 0 42.5 31.5t13.5 77.5v403z" />
    <glyph glyph-name="v.sups" horiz-adv-x="481" 
d="M369 1337h110l-164 -626h-157l-156 626h193l81 -389z" />
    <glyph glyph-name="w.sups" horiz-adv-x="739" 
d="M629 1337h108l-147 -626h-152l-65 311l-74 -311h-143l-154 626h193l77 -374l78 374h127l76 -372z" />
    <glyph glyph-name="x.sups" horiz-adv-x="524" 
d="M510 711h-197l-88 194l-90 -194h-121l152 323l-139 303h198l78 -174l78 174h123l-139 -305z" />
    <glyph glyph-name="y.sups" horiz-adv-x="481" 
d="M369 1337h110l-233 -864h-109l64 238h-45l-154 626h193l77 -389z" />
    <glyph glyph-name="z.sups" horiz-adv-x="466" 
d="M438 1337l-188 -514h188v-110h-413l188 514h-166v110h391z" />
    <glyph glyph-name="zero.osf" horiz-adv-x="962" 
d="M481 -20q-214 0 -311.5 127t-97.5 405q0 279 97.5 405.5t311.5 126.5t312 -126.5t98 -405.5q0 -278 -98 -405t-312 -127zM481 145q47 0 72 32.5t36 110.5t11 224q0 147 -11 225t-36 110t-72 32t-72 -32t-36 -110t-11 -225q0 -146 11 -224t36 -110.5t72 -32.5z" />
    <glyph glyph-name="one.osf" horiz-adv-x="614" 
d="M33 965l475 82v-1047h-281v774l-194 -24v215z" />
    <glyph glyph-name="two.osf" horiz-adv-x="847" 
d="M285 238h497v-238h-716v238q55 51 126.5 107t115.5 90.5t86 76t61.5 87t19.5 101.5q0 146 -188 146q-99 0 -185 -47l-28 184q131 61 303 61q192 0 290.5 -69t98.5 -203q0 -49 -19 -96t-45.5 -83.5t-79 -84.5t-94.5 -80.5t-118 -91t-125 -98.5z" />
    <glyph glyph-name="three.osf" horiz-adv-x="856" 
d="M541 428q118 0 184 -86.5t66 -241.5q0 -434 -437 -434q-160 0 -293 51l37 166q76 -28 191 -28q109 0 160 62t51 196q0 111 -48.5 161t-156.5 50h-94v157h75q105 0 151 47t46 152q0 97 -44.5 136.5t-152.5 39.5q-94 0 -178 -37l-22 170q143 55 299 55q389 0 389 -292
q0 -143 -58.5 -227t-164.5 -93v-4z" />
    <glyph glyph-name="four.osf" horiz-adv-x="909" 
d="M860 143v-168h-115v-288h-280v288h-432v45l432 1004h280v-881h115zM227 143h238v557z" />
    <glyph glyph-name="five.osf" horiz-adv-x="845" 
d="M473 569q307 0 307 -348q0 -557 -504 -557q-119 0 -210 39l30 156q70 -21 137 -21q129 0 192.5 85.5t63.5 262.5q0 114 -54 172t-146 58q-102 0 -201 -31l57 639h596l-24 -229l-393 16l-21 -264q96 22 170 22z" />
    <glyph glyph-name="six.osf" horiz-adv-x="935" 
d="M567 901q158 0 227.5 -98t69.5 -322q0 -256 -93 -378.5t-286 -122.5q-211 0 -312 148.5t-101 461.5q0 410 122.5 589t401.5 179q109 0 215 -33l-29 -151q-86 26 -153 26q-130 0 -188 -81.5t-68 -284.5q70 67 194 67zM471 143q32 0 53 19.5t31.5 62t14 94t3.5 130.5
q0 98 -6.5 155.5t-28.5 94t-63 36.5q-34 0 -55.5 -18.5t-33 -58.5t-15.5 -88t-4 -121q0 -79 3.5 -130t14.5 -94t32 -62.5t54 -19.5z" />
    <glyph glyph-name="seven.osf" horiz-adv-x="874" 
d="M844 1024l-477 -1337h-205l383 1073h-486l43 264h742z" />
    <glyph glyph-name="eight.osf" horiz-adv-x="958" 
d="M739 721q152 -83 152 -332q0 -209 -102 -309t-314 -100q-207 0 -307 100t-100 309q0 127 36 208.5t113 123.5q-106 79 -106 283q0 181 89 267.5t275 86.5q191 0 283 -86.5t92 -267.5q0 -208 -111 -283zM479 1208q-58 0 -79 -44t-21 -167q0 -124 20.5 -167.5t79.5 -43.5
q60 0 81.5 43.5t21.5 167.5q0 123 -21.5 167t-81.5 44zM479 137q71 0 96 52t25 198t-25.5 199t-95.5 53q-69 0 -95 -53t-26 -199q0 -145 26 -197.5t95 -52.5z" />
    <glyph glyph-name="nine.osf" horiz-adv-x="942" 
d="M455 1044q211 0 313 -148.5t102 -461.5q0 -410 -123 -589t-403 -179q-107 0 -207 33l29 151q88 -26 145 -26q130 0 188.5 82t67.5 284q-70 -67 -194 -67q-160 0 -230.5 95.5t-70.5 313.5q0 262 94 387t289 125zM463 291q67 0 89.5 68t22.5 216q0 80 -4 131.5t-15 94.5
t-33 62.5t-56 19.5q-63 0 -84 -73.5t-21 -234.5q0 -147 20.5 -215.5t80.5 -68.5z" />
    <glyph glyph-name="zero.tf" horiz-adv-x="956" 
d="M479 -20q-218 0 -308.5 158t-90.5 534q0 374 90.5 530t308.5 156q217 0 307.5 -156t90.5 -530q0 -253 -39.5 -403t-126 -219.5t-232.5 -69.5zM479 158q46 0 70.5 45.5t35.5 154.5t11 314q0 202 -11 309.5t-35.5 152t-70.5 44.5q-47 0 -72 -44.5t-36 -152t-11 -309.5
q0 -205 11 -314t36 -154.5t72 -45.5z" />
    <glyph glyph-name="one.tf" horiz-adv-x="956" 
d="M119 1249l608 113v-1362h-281v1085l-327 -51v215z" />
    <glyph glyph-name="two.tf" horiz-adv-x="956" 
d="M319 238h533v-238h-752v238q185 172 255 252q147 170 179 339q11 57 11 119q0 113 -56.5 170.5t-166.5 57.5q-97 0 -185 -48l-28 168q133 62 303 62q210 0 317 -88t107 -260q0 -84 -26.5 -167t-69 -155t-112 -152t-140.5 -147t-169 -151z" />
    <glyph glyph-name="three.tf" horiz-adv-x="956" 
d="M594 741q128 0 199 -86t71 -241q0 -434 -473 -434q-159 0 -307 53l41 157q89 -30 205 -30q129 0 186 60t57 204q0 109 -58 161t-185 52h-101v158h84q124 0 179 46.5t55 151.5q0 101 -49.5 143t-169.5 42q-86 0 -203 -45l-27 170q152 55 314 55q211 0 314 -72.5
t103 -220.5q0 -143 -61.5 -227t-173.5 -93v-4z" />
    <glyph glyph-name="four.tf" horiz-adv-x="956" 
d="M903 457v-168h-115v-289h-280v289h-453v45l453 1003h280v-880h115zM254 457h254v571z" />
    <glyph glyph-name="five.tf" horiz-adv-x="956" 
d="M504 883q165 0 258.5 -86.5t93.5 -270.5q0 -275 -139 -410.5t-420 -135.5q-133 0 -221 38l33 160q78 -20 135 -20q161 0 241 81t80 257q0 117 -66 175t-180 58q-127 0 -219 -29l58 637h667l-26 -229l-465 18l-21 -264q108 21 191 21z" />
    <glyph glyph-name="six.tf" horiz-adv-x="956" 
d="M580 901q158 0 233.5 -102.5t75.5 -317.5q0 -256 -95.5 -378.5t-295.5 -122.5q-220 0 -325 149t-105 461q0 394 129.5 581t398.5 187q135 0 238 -33l-29 -151q-86 26 -166 26q-140 0 -202.5 -81.5t-74.5 -284.5q78 67 218 67zM483 131q35 0 58 20.5t35.5 63.5t17 96.5
t4.5 132.5q0 73 -4.5 122.5t-16.5 89.5t-34 59.5t-56 19.5q-73 0 -99 -71.5t-26 -219.5q0 -80 4.5 -133t17.5 -96.5t37.5 -63.5t61.5 -20z" />
    <glyph glyph-name="seven.tf" horiz-adv-x="956" 
d="M891 1337l-522 -1337h-205l420 1073h-521l43 264h785z" />
    <glyph glyph-name="eight.tf" horiz-adv-x="956" 
d="M745 719q150 -85 150 -338q0 -205 -102.5 -303t-313.5 -98q-207 0 -307 98t-100 303q0 253 147 338q-113 77 -113 285q0 181 91 267.5t282 86.5q194 0 287.5 -86.5t93.5 -267.5q0 -209 -115 -285zM483 1208q-59 0 -80.5 -44.5t-21.5 -166.5q0 -124 21.5 -167.5
t80.5 -43.5q60 0 81.5 43.5t21.5 167.5q0 123 -21.5 167t-81.5 44zM483 131q69 0 95 54t26 202q0 146 -26 199t-95 53q-70 0 -95.5 -53t-25.5 -199q0 -149 25 -202.5t96 -53.5z" />
    <glyph glyph-name="nine.tf" horiz-adv-x="956" 
d="M461 1358q235 0 334.5 -139.5t99.5 -470.5q0 -393 -131 -580.5t-402 -187.5q-139 0 -237 34l29 152q86 -29 176 -29q127 0 189.5 85.5t74.5 281.5q-74 -68 -215 -68q-165 0 -240.5 100.5t-75.5 321.5q0 260 96 380t302 120zM471 604q40 0 66.5 19t40 58.5t19 88
t5.5 119.5q0 78 -5 130.5t-18.5 94.5t-39 62t-64.5 20q-37 0 -61 -20t-37 -62t-18 -94.5t-5 -130.5q0 -71 5 -120t17.5 -88t36 -58t58.5 -19z" />
    <glyph glyph-name="zero.tosf" horiz-adv-x="956" 
d="M481 -20q-212 0 -307.5 126.5t-95.5 405.5q0 280 95.5 406t307.5 126t308 -126t96 -406q0 -279 -96 -405.5t-308 -126.5zM481 145q45 0 69 32.5t34 110t10 224.5t-10 224.5t-34 110t-69 32.5q-66 0 -89 -75.5t-23 -291.5t23 -291.5t89 -75.5z" />
    <glyph glyph-name="one.tosf" horiz-adv-x="956" 
d="M119 936l608 113v-1049h-281v770l-327 -51v217z" />
    <glyph glyph-name="two.tosf" horiz-adv-x="956" 
d="M334 238h518v-238h-752v238q58 51 135.5 110t123 94.5t90.5 79t65.5 88.5t20.5 99q0 137 -205 137q-101 0 -193 -47l-28 184q140 61 319 61q200 0 304 -68t104 -198q0 -42 -12.5 -81.5t-40 -77.5t-57 -70t-80 -73t-91 -71.5t-107.5 -80.5t-114 -86z" />
    <glyph glyph-name="three.tosf" horiz-adv-x="956" 
d="M592 428q129 0 200.5 -86.5t71.5 -241.5q0 -434 -473 -434q-161 0 -307 51l39 166q81 -28 201 -28q129 0 189 61.5t60 196.5q0 111 -57.5 161t-185.5 50h-101v157h84q123 0 177.5 47t54.5 152q0 97 -53 136.5t-181 39.5q-87 0 -188 -37l-25 170q149 55 314 55
q214 0 319 -72t105 -220q0 -142 -64 -226.5t-180 -93.5v-4z" />
    <glyph glyph-name="four.tosf" horiz-adv-x="956" 
d="M903 143v-168h-115v-288h-280v288h-451v45l451 1004h280v-881h115zM254 143h254v572z" />
    <glyph glyph-name="five.tosf" horiz-adv-x="956" 
d="M508 569q348 0 348 -348q0 -557 -563 -557q-120 0 -211 39l31 156q71 -21 137 -21q160 0 237.5 85.5t77.5 262.5q0 115 -64.5 172.5t-174.5 57.5q-121 0 -222 -31l58 639h657l-26 -229l-453 16l-21 -264q98 22 189 22z" />
    <glyph glyph-name="six.tosf" horiz-adv-x="956" 
d="M580 901q172 0 244.5 -96.5t72.5 -323.5q0 -261 -96 -381t-303 -120q-225 0 -330 146.5t-105 463.5q0 409 128 588.5t417 179.5q130 0 236 -33l-29 -151q-88 26 -174 26q-132 0 -197 -84.5t-77 -279.5q73 65 213 65zM483 143q37 0 62 20t38 62.5t18 94.5t5 129
q0 146 -25 216t-94 70q-51 0 -80.5 -36t-39 -95t-9.5 -155q0 -156 26 -231t99 -75z" />
    <glyph glyph-name="seven.tosf" horiz-adv-x="956" 
d="M891 1024l-522 -1337h-205l420 1073h-521l43 264h785z" />
    <glyph glyph-name="eight.tosf" horiz-adv-x="956" 
d="M745 719q150 -85 150 -338q0 -205 -102.5 -303t-313.5 -98q-207 0 -307 98t-100 303q0 253 147 338q-113 77 -113 285q0 181 91 267.5t282 86.5q194 0 287.5 -86.5t93.5 -267.5q0 -209 -115 -285zM483 1208q-59 0 -80.5 -44.5t-21.5 -166.5q0 -124 21.5 -167.5
t80.5 -43.5q60 0 81.5 43.5t21.5 167.5q0 123 -21.5 167t-81.5 44zM483 131q69 0 95 54t26 202q0 146 -26 199t-95 53q-70 0 -95.5 -53t-25.5 -199q0 -149 25 -202.5t96 -53.5z" />
    <glyph glyph-name="nine.tosf" horiz-adv-x="956" 
d="M463 1044q220 0 325 -148.5t105 -461.5q0 -409 -126.5 -588.5t-412.5 -179.5q-125 0 -225 33l29 151q86 -26 164 -26q139 0 200.5 82.5t73.5 286.5q-78 -70 -213 -70q-169 0 -243 95.5t-74 313.5q0 262 97 387t300 125zM471 291q78 0 105.5 69t27.5 215q0 79 -5 131.5
t-18.5 95t-39.5 62t-66 19.5q-73 0 -98 -74t-25 -234q0 -147 24.5 -215.5t94.5 -68.5z" />
    <glyph glyph-name="zero.sinf" horiz-adv-x="550" 
d="M279 -410q-132 0 -187 88t-55 297q0 207 55 294t187 87q129 0 183 -87t54 -294q0 -209 -54 -297t-183 -88zM279 -295q31 0 40 51t9 219q0 167 -9 218t-40 51q-18 0 -28 -10.5t-16.5 -41.5t-9 -81t-2.5 -136t2.5 -136.5t9 -81.5t16.5 -41.5t28 -10.5z" />
    <glyph glyph-name="one.sinf" horiz-adv-x="370" 
d="M16 295l299 63v-755h-186v571l-113 -20v141z" />
    <glyph glyph-name="two.sinf" horiz-adv-x="487" 
d="M188 -233h265v-164h-416v164q106 81 159.5 156.5t53.5 170.5q0 121 -103 121q-45 0 -94 -27l-12 134q69 34 180 34q225 0 225 -202q0 -107 -66 -200t-192 -187z" />
    <glyph glyph-name="three.sinf" horiz-adv-x="518" 
d="M334 14q72 0 110.5 -47t38.5 -133q0 -133 -60 -188.5t-206 -55.5q-98 0 -180 35l18 117q49 -18 84 -18q83 0 117.5 27.5t34.5 94.5q0 50 -28.5 71.5t-92.5 21.5h-59v104h41q65 0 91.5 22.5t26.5 77.5q0 43 -26.5 61.5t-93.5 18.5q-48 0 -95 -18l-10 119q85 32 188 32
q125 0 177.5 -36.5t52.5 -122.5q0 -80 -34 -127.5t-95 -53.5v-2z" />
    <glyph glyph-name="four.sinf" horiz-adv-x="538" 
d="M512 -123v-115h-59v-159h-189v159h-248v25l248 557h189v-467h59zM143 -123h121v275z" />
    <glyph glyph-name="five.sinf" horiz-adv-x="497" 
d="M301 88q74 0 120 -42t46 -130q0 -168 -76.5 -247t-238.5 -79q-67 0 -123 23l20 108q31 -10 74 -10q84 0 118.5 40.5t34.5 137.5q0 50 -36 76.5t-90 26.5q-57 0 -103 -15l39 367h371l-15 -154l-239 15l-13 -131q63 14 111 14z" />
    <glyph glyph-name="six.sinf" horiz-adv-x="546" 
d="M346 109q87 0 125.5 -54t38.5 -176q0 -154 -52.5 -221.5t-172.5 -67.5q-132 0 -190 82t-58 265q0 221 77.5 320t252.5 99q53 0 114 -20l-14 -103q-59 19 -80 19q-78 0 -115 -42t-43 -140q42 39 117 39zM272 -299q32 0 41 38t9 111q0 70 -9.5 108t-38.5 38
q-32 0 -40.5 -36.5t-8.5 -109.5q0 -74 8.5 -111.5t38.5 -37.5z" />
    <glyph glyph-name="seven.sinf" horiz-adv-x="524" 
d="M510 344l-266 -741h-138l201 565h-274l24 176h453z" />
    <glyph glyph-name="eight.sinf" horiz-adv-x="563" 
d="M446 2q82 -47 82 -176q0 -125 -59.5 -180.5t-192.5 -55.5q-129 0 -185 55.5t-56 180.5q0 129 78 178q-54 45 -54 154q0 105 51 151.5t166 46.5q121 0 175.5 -47t54.5 -151q0 -108 -60 -156zM281 256q-28 0 -38 -21t-10 -83q0 -64 10 -85.5t38 -21.5q29 0 39 21.5t10 85.5
q0 63 -10 83.5t-39 20.5zM281 -305q32 0 43.5 26t11.5 101q0 76 -11.5 101.5t-43.5 25.5t-43 -25.5t-11 -101.5q0 -75 11 -101t43 -26z" />
    <glyph glyph-name="nine.sinf" horiz-adv-x="550" 
d="M264 356q134 0 193 -80.5t59 -263.5q0 -221 -78.5 -321.5t-253.5 -100.5q-52 0 -116 21l14 102q49 -16 80 -16q77 0 113 41.5t42 136.5q-40 -37 -114 -37q-89 0 -127.5 51t-38.5 170q0 157 53 227t174 70zM274 -49q18 0 29 11t15.5 34t6 44.5t1.5 55.5q0 74 -9 112
t-41 38q-33 0 -42 -37.5t-9 -112.5q0 -72 8.5 -108.5t40.5 -36.5z" />
    <glyph glyph-name="zero.dnom" horiz-adv-x="550" 
d="M279 -12q-132 0 -187 88t-55 297q0 207 55 294t187 87q129 0 183 -87t54 -294q0 -209 -54 -297t-183 -88zM279 102q31 0 40 51.5t9 219.5q0 166 -9 217t-40 51q-18 0 -28 -10.5t-16.5 -41t-9 -80.5t-2.5 -136t2.5 -136.5t9 -82t16.5 -42t28 -10.5z" />
    <glyph glyph-name="one.dnom" horiz-adv-x="370" 
d="M16 692l299 64v-756h-186v571l-113 -20v141z" />
    <glyph glyph-name="two.dnom" horiz-adv-x="487" 
d="M188 164h265v-164h-416v164q106 81 159.5 157t53.5 171q0 120 -103 120q-47 0 -94 -26l-12 133q71 35 180 35q225 0 225 -203q0 -107 -66 -200t-192 -187z" />
    <glyph glyph-name="three.dnom" horiz-adv-x="518" 
d="M334 412q72 0 110.5 -47t38.5 -134q0 -132 -60 -187.5t-206 -55.5q-98 0 -180 35l18 116q49 -18 84 -18q83 0 117.5 28t34.5 95q0 49 -28 70.5t-93 21.5h-59v104h41q65 0 91.5 23t26.5 78q0 43 -26.5 61.5t-93.5 18.5q-46 0 -95 -19l-10 119q88 33 188 33q124 0 177 -37
t53 -123q0 -80 -34 -127t-95 -53v-2z" />
    <glyph glyph-name="four.dnom" horiz-adv-x="536" 
d="M512 274v-114h-59v-160h-189v160h-248v24l248 557h189v-467h59zM143 274h121v275z" />
    <glyph glyph-name="five.dnom" horiz-adv-x="497" 
d="M301 485q74 0 120 -42t46 -130q0 -167 -76 -246t-239 -79q-69 0 -123 22l20 109q31 -10 74 -10q84 0 118.5 40.5t34.5 137.5q0 50 -35.5 76t-90.5 26q-60 0 -103 -14l39 366h371l-15 -153l-239 14l-13 -131q63 14 111 14z" />
    <glyph glyph-name="six.dnom" horiz-adv-x="546" 
d="M346 506q87 0 125.5 -54t38.5 -176q0 -154 -52.5 -221t-172.5 -67q-132 0 -190 81.5t-58 264.5q0 222 77.5 321t252.5 99q49 0 114 -21l-14 -102q-55 18 -80 18q-78 0 -115 -42t-43 -140q42 39 117 39zM272 98q32 0 41 38.5t9 111.5q0 70 -9.5 107.5t-38.5 37.5
q-32 0 -40.5 -36t-8.5 -109q0 -74 8.5 -112t38.5 -38z" />
    <glyph glyph-name="seven.dnom" horiz-adv-x="524" 
d="M510 741l-266 -741h-138l201 565h-274l24 176h453z" />
    <glyph glyph-name="eight.dnom" horiz-adv-x="563" 
d="M446 399q82 -47 82 -176q0 -124 -59 -179.5t-193 -55.5q-129 0 -185 55t-56 180q0 129 78 178q-54 45 -54 154q0 105 51 152t166 47q121 0 175.5 -47.5t54.5 -151.5q0 -108 -60 -156zM281 653q-28 0 -38 -21t-10 -83q0 -64 10 -85.5t38 -21.5q29 0 39 21.5t10 85.5
q0 63 -10 83.5t-39 20.5zM281 92q32 0 43.5 26t11.5 101q0 76 -11.5 101.5t-43.5 25.5t-43 -25.5t-11 -101.5q0 -75 11 -101t43 -26z" />
    <glyph glyph-name="nine.dnom" horiz-adv-x="550" 
d="M264 754q134 0 193 -80.5t59 -263.5q0 -221 -78.5 -321.5t-253.5 -100.5q-55 0 -116 20l14 103q52 -17 80 -17q77 0 113 41.5t42 136.5q-39 -36 -114 -36q-89 0 -127.5 51t-38.5 170q0 157 53 227t174 70zM274 348q33 0 42.5 37t9.5 109q0 74 -9 111.5t-41 37.5
q-33 0 -42 -37t-9 -112q0 -72 8.5 -109t40.5 -37z" />
    <glyph glyph-name="zero.numr" horiz-adv-x="550" 
d="M279 584q-132 0 -187 88t-55 297q0 207 55 294t187 87q129 0 183 -87t54 -294q0 -209 -54 -297t-183 -88zM279 698q31 0 40 51.5t9 219.5q0 166 -9 217t-40 51q-18 0 -28 -10.5t-16.5 -41t-9 -80.5t-2.5 -136t2.5 -136.5t9 -82t16.5 -42t28 -10.5z" />
    <glyph glyph-name="one.numr" horiz-adv-x="370" 
d="M16 1288l299 64v-756h-186v571l-113 -20v141z" />
    <glyph glyph-name="two.numr" horiz-adv-x="487" 
d="M188 760h265v-164h-416v164q106 81 159.5 156.5t53.5 170.5q0 121 -103 121q-47 0 -94 -26l-12 133q71 35 180 35q225 0 225 -203q0 -107 -66 -200t-192 -187z" />
    <glyph glyph-name="three.numr" horiz-adv-x="518" 
d="M334 1008q72 0 110.5 -47t38.5 -134q0 -132 -60 -187.5t-206 -55.5q-101 0 -180 34l18 117q49 -18 84 -18q83 0 117.5 28t34.5 95q0 49 -28 70.5t-93 21.5h-59v104h41q65 0 91.5 23t26.5 78q0 43 -26.5 61.5t-93.5 18.5q-46 0 -95 -19l-10 119q88 33 188 33
q124 0 177 -37t53 -123q0 -80 -34 -127t-95 -53v-2z" />
    <glyph glyph-name="four.numr" horiz-adv-x="538" 
d="M512 870v-114h-59v-160h-189v160h-248v24l248 557h189v-467h59zM143 870h121v275z" />
    <glyph glyph-name="five.numr" horiz-adv-x="497" 
d="M301 1081q74 0 120 -42t46 -130q0 -167 -76 -246t-239 -79q-69 0 -123 22l20 109q31 -10 74 -10q84 0 118.5 40.5t34.5 137.5q0 50 -35.5 76t-90.5 26q-60 0 -103 -14l39 366h371l-15 -153l-239 14l-13 -131q63 14 111 14z" />
    <glyph glyph-name="six.numr" horiz-adv-x="546" 
d="M346 1102q87 0 125.5 -54t38.5 -176q0 -154 -52.5 -221t-172.5 -67q-132 0 -190 81.5t-58 264.5q0 222 77.5 321t252.5 99q49 0 114 -21l-14 -102q-55 18 -80 18q-78 0 -115 -42t-43 -140q42 39 117 39zM272 694q32 0 41 38.5t9 111.5q0 70 -9.5 107.5t-38.5 37.5
q-32 0 -40.5 -36t-8.5 -109q0 -74 8.5 -112t38.5 -38z" />
    <glyph glyph-name="seven.numr" horiz-adv-x="524" 
d="M510 1337l-266 -741h-138l201 565h-274l24 176h453z" />
    <glyph glyph-name="eight.numr" horiz-adv-x="563" 
d="M446 995q82 -47 82 -176q0 -124 -59 -179.5t-193 -55.5q-129 0 -185 55t-56 180q0 129 78 178q-54 45 -54 154q0 105 51 152t166 47q121 0 175.5 -47.5t54.5 -151.5q0 -108 -60 -156zM281 1249q-28 0 -38 -21t-10 -83q0 -64 10 -85.5t38 -21.5q29 0 39 21.5t10 85.5
q0 63 -10 83.5t-39 20.5zM281 688q32 0 43.5 26t11.5 101q0 76 -11.5 101.5t-43.5 25.5t-43 -25.5t-11 -101.5q0 -75 11 -101t43 -26z" />
    <glyph glyph-name="nine.numr" horiz-adv-x="550" 
d="M264 1350q134 0 193 -80.5t59 -263.5q0 -221 -78.5 -321.5t-253.5 -100.5q-55 0 -116 20l14 103q52 -17 80 -17q77 0 113 41.5t42 136.5q-40 -37 -114 -37q-89 0 -127.5 51.5t-38.5 170.5q0 157 53 227t174 70zM274 944q33 0 42.5 37t9.5 109q0 74 -9 111.5t-41 37.5
q-33 0 -42 -37t-9 -112q0 -72 8.5 -109t40.5 -37z" />
    <glyph glyph-name="zero.sups" horiz-adv-x="550" 
d="M279 952q-132 0 -187 88t-55 297q0 207 55 294t187 87q129 0 183 -87t54 -294q0 -209 -54 -297t-183 -88zM279 1067q31 0 40 51t9 219q0 167 -9 218t-40 51q-18 0 -28 -10.5t-16.5 -41.5t-9 -81t-2.5 -136t2.5 -136.5t9 -81.5t16.5 -41.5t28 -10.5z" />
    <glyph glyph-name="one.sups" horiz-adv-x="370" 
d="M16 1657l299 63v-755h-186v571l-113 -20v141z" />
    <glyph glyph-name="two.sups" horiz-adv-x="487" 
d="M188 1128h265v-163h-416v163q106 81 159.5 157t53.5 171q0 121 -103 121q-45 0 -94 -27l-12 133q71 35 180 35q225 0 225 -202q0 -107 -66 -200.5t-192 -187.5z" />
    <glyph glyph-name="three.sups" horiz-adv-x="518" 
d="M334 1376q72 0 110.5 -47t38.5 -133q0 -133 -60 -188.5t-206 -55.5q-98 0 -180 35l18 117q52 -19 84 -19q83 0 117.5 28t34.5 95q0 49 -28 70.5t-93 21.5h-59v105h41q65 0 91.5 22.5t26.5 77.5q0 43 -26.5 61.5t-93.5 18.5q-48 0 -95 -18l-10 119q85 32 188 32
q125 0 177.5 -36.5t52.5 -122.5q0 -80 -34 -127.5t-95 -53.5v-2z" />
    <glyph glyph-name="four.sups" horiz-adv-x="538" 
d="M512 1239v-115h-59v-159h-189v159h-248v25l248 557h189v-467h59zM143 1239h121v274z" />
    <glyph glyph-name="five.sups" horiz-adv-x="497" 
d="M301 1450q74 0 120 -42t46 -130q0 -168 -76.5 -247t-238.5 -79q-67 0 -123 23l20 108q31 -10 74 -10q84 0 118.5 40.5t34.5 137.5q0 50 -36 76.5t-90 26.5q-57 0 -103 -15l39 367h371l-15 -154l-239 15l-13 -131q63 14 111 14z" />
    <glyph glyph-name="six.sups" horiz-adv-x="546" 
d="M346 1470q88 0 126 -53.5t38 -175.5q0 -154 -52.5 -221.5t-172.5 -67.5q-132 0 -190 81.5t-58 264.5q0 222 77.5 321t252.5 99q53 0 114 -20l-14 -103q-59 19 -80 19q-78 0 -115 -42t-43 -140q41 38 117 38zM272 1063q32 0 41 38t9 111q0 70 -9.5 108t-38.5 38
q-32 0 -40.5 -36.5t-8.5 -109.5q0 -74 8.5 -111.5t38.5 -37.5z" />
    <glyph glyph-name="seven.sups" horiz-adv-x="524" 
d="M510 1706l-266 -741h-138l201 565h-274l24 176h453z" />
    <glyph glyph-name="eight.sups" horiz-adv-x="563" 
d="M446 1364q82 -47 82 -176q0 -125 -59.5 -180.5t-192.5 -55.5q-129 0 -185 55.5t-56 180.5q0 129 78 178q-54 45 -54 154q0 105 51 151.5t166 46.5q121 0 175.5 -47t54.5 -151q0 -108 -60 -156zM281 1618q-28 0 -38 -21.5t-10 -83.5q0 -64 10 -85t38 -21q29 0 39 21t10 85
q0 63 -10 84t-39 21zM281 1057q32 0 43.5 26t11.5 101q0 76 -11.5 101.5t-43.5 25.5t-43 -25.5t-11 -101.5q0 -75 11 -101t43 -26z" />
    </font>
</defs>
</svg>
