<?xml version="1.0" standalone="no"?>
<!DOCTYPE svg PUBLIC "-//W3C//DTD SVG 1.1//EN" "http://www.w3.org/Graphics/SVG/1.1/DTD/svg11.dtd" >
<svg xmlns="http://www.w3.org/2000/svg" xmlns:xlink="http://www.w3.org/1999/xlink" version="1.1">
<metadata>
Created by FontForge 20170731 at Thu Oct 29 07:48:10 2020
 By Aleksey,,,
Copyright (c) 2019 by Josep Patau Bellart. All rights reserved.
</metadata>
<defs>
<font id="Indecisecondensed-BoldItalic" horiz-adv-x="0" >
  <font-face 
    font-family="Indecise Condensed"
    font-weight="700"
    font-style="italic"
    font-stretch="condensed"
    units-per-em="2048"
    panose-1="0 0 8 6 0 0 0 0 0 0"
    ascent="1638"
    descent="-410"
    x-height="1024"
    cap-height="1337"
    bbox="-641 -926 2253 2236"
    underline-thickness="102"
    underline-position="-307"
    slope="-10"
    unicode-range="U+000D-FB02"
  />
<missing-glyph horiz-adv-x="995" 
d="M197 1337h837l-317 -1790h-836zM782 1231h-376l94 -533zM647 -119l205 1163l-309 -581zM272 1022l-198 -1126l299 563zM416 223l-303 -569h403z" />
    <glyph glyph-name="fi" unicode="fi" horiz-adv-x="1046" 
d="M786 1487h342l-55 -316h-344zM578 768h-113l-205 -1157h-344l205 1157h-96l45 256h96l14 82q13 75 39.5 133t60 94.5t75.5 60t83 33t86 9.5q80 0 178 -31l-65 -250q-30 6 -41 6q-65 0 -80 -98l-6 -39h113zM524 0l181 1024h342l-181 -1024h-342z" />
    <glyph glyph-name="fl" unicode="fl" horiz-adv-x="1044" 
d="M578 768h-113l-205 -1157h-344l205 1157h-96l45 256h96l14 82q13 75 39.5 133t60 94.5t75.5 60t83 33t86 9.5q80 0 178 -31l-65 -250q-30 6 -41 6q-65 0 -80 -98l-6 -39h113zM768 1395l346 20l-250 -1415h-342z" />
    <glyph glyph-name="Lgeminada" unicode="L&#xb7;L" horiz-adv-x="1916" 
d="M582 1337l-195 -1108h342l-41 -229h-725l236 1337h383zM1464 229h342l-41 -229h-725l236 1337h383zM672 936h389l-68 -389h-389z" />
    <glyph glyph-name="lgeminada" unicode="l&#xb7;l" horiz-adv-x="1462" 
d="M-57 0l245 1395l347 20l-250 -1415h-342zM940 0l246 1395l346 20l-250 -1415h-342zM516 512l68 389h389l-68 -389h-389z" />
    <glyph glyph-name=".notdef" horiz-adv-x="995" 
d="M197 1337h837l-317 -1790h-836zM782 1231h-376l94 -533zM647 -119l205 1163l-309 -581zM272 1022l-198 -1126l299 563zM416 223l-303 -569h403z" />
    <glyph glyph-name=".null" 
 />
    <glyph glyph-name="nonmarkingreturn" horiz-adv-x="682" 
 />
    <glyph glyph-name="CR" unicode="&#xd;" horiz-adv-x="454" 
 />
    <glyph glyph-name="space" unicode=" " horiz-adv-x="348" 
 />
    <glyph glyph-name="exclam" unicode="!" horiz-adv-x="550" 
d="M121 532l80 805h389l-203 -805h-266zM-35 0l62 348h389l-62 -348h-389z" />
    <glyph glyph-name="quotedbl" unicode="&#x22;" horiz-adv-x="980" 
d="M143 825l31 512h385l-149 -512h-267zM625 825l30 512h385l-149 -512h-266z" />
    <glyph glyph-name="numbersign" unicode="#" horiz-adv-x="1423" 
d="M1352 754h-156l-55 -160h166l-111 -291h-154l-104 -303h-360l104 303h-170l-104 -303h-361l105 303h-191l111 291h178l55 160h-188l108 270h174l107 313h360l-106 -313h170l106 313h361l-107 -313h168zM780 594l56 160h-170l-56 -160h170z" />
    <glyph glyph-name="dollar" unicode="$" horiz-adv-x="940" 
d="M899 1057q-81 41 -178 47l-51 -289l14 -6q219 -96 180 -320q-26 -144 -110 -254.5t-201 -172t-256 -78.5l-27 -154h-61l27 150h-25q-144 0 -277 45l89 278q104 -70 217 -70q20 0 41 3l49 280q-22 11 -62 35q-94 55 -133 147.5t-16 216.5q33 191 183.5 317t363.5 126h39
l24 137h62l-25 -141q119 -6 219 -39zM547 979q-15 -81 67 -135l45 256q-41 -9 -73 -42t-39 -79zM455 352q12 68 -70 129l-41 -237q95 22 111 108z" />
    <glyph glyph-name="percent" unicode="%" horiz-adv-x="1228" 
d="M291 702q-129 0 -182 91t-27 237q32 181 104.5 254.5t221.5 73.5q126 0 176.5 -91t25.5 -237q-26 -146 -108.5 -237t-210.5 -91zM131 0l797 1337h170l-799 -1337h-168zM307 799q25 0 42 47.5t42 185.5q23 136 23 183t-25 47q-28 0 -45.5 -47t-40.5 -183
q-25 -138 -24.5 -185.5t28.5 -47.5zM827 -18q-129 0 -182 91t-27 236q26 146 110.5 237t213.5 91q128 0 178.5 -91.5t24.5 -236.5q-24 -145 -107.5 -236t-210.5 -91zM844 78q25 0 42 48t40 185q25 137 25 183.5t-25 46.5q-28 0 -45.5 -47t-40.5 -183q-25 -138 -24.5 -185.5
t28.5 -47.5z" />
    <glyph glyph-name="ampersand" unicode="&#x26;" horiz-adv-x="1021" 
d="M616 1337q193 0 279.5 -81.5t58.5 -239.5l-10 -49h-342l16 90q12 76 -26 76h-27q-20 0 -38 -24t-25 -65v-8q-12 -48 -10.5 -78.5t26.5 -70.5l150 -228l24 142h240l-76 -426l45 -68l-55 -307h-180l-29 49q-110 -49 -266 -49h-31q-85 0 -151.5 18.5t-115.5 57.5t-68 106
t-3 158l21 115q36 197 176 284q-37 55 -50 117.5t1 149.5l4 22q28 152 117.5 230.5t232.5 78.5h112zM463 223q31 0 61 15l-151 256l-23 -125q-12 -68 21 -107t90 -39h2z" />
    <glyph glyph-name="quotesingle" unicode="'" horiz-adv-x="497" 
d="M143 825l31 512h385l-149 -512h-267z" />
    <glyph glyph-name="parenleft" unicode="(" horiz-adv-x="661" 
d="M119 -451q-94 227 -116 444t22 449q42 231 139.5 446t269.5 449h311q-153 -205 -243.5 -419t-134.5 -476q-46 -257 -30.5 -469.5t93.5 -423.5h-311z" />
    <glyph glyph-name="parenright" unicode=")" horiz-adv-x="661" 
d="M-164 -451q152 211 242.5 424t136.5 469q48 260 33 475.5t-96 419.5h309q91 -233 113.5 -451.5t-17.5 -443.5q-40 -237 -138 -451t-274 -442h-309z" />
    <glyph glyph-name="asterisk" unicode="*" horiz-adv-x="681" 
d="M719 1122l-27 -147h-176l59 -164l-141 -70l-57 154l-111 -154l-116 70l118 164h-174l27 147h172l-60 164l142 72l57 -154l111 154l116 -72l-118 -164h178z" />
    <glyph glyph-name="plus" unicode="+" horiz-adv-x="872" 
d="M805 666l-53 -308h-207l-41 -235h-330l41 235h-203l54 308h204l41 235h330l-41 -235h205z" />
    <glyph glyph-name="comma" unicode="," horiz-adv-x="552" 
d="M35 389h389l-76 -428q-20 -110 -93 -193t-167 -122t-192 -39l36 205q63 0 116 37t63 96l10 55h-156z" />
    <glyph glyph-name="hyphen" unicode="-" horiz-adv-x="776" 
d="M43 444l47 271h610l-49 -271h-608z" />
    <glyph glyph-name="period" unicode="." horiz-adv-x="552" 
d="M-35 0l70 389h389l-70 -389h-389z" />
    <glyph glyph-name="slash" unicode="/" horiz-adv-x="681" 
d="M-150 0l670 1337h311l-671 -1337h-310z" />
    <glyph glyph-name="zero" unicode="0" horiz-adv-x="1042" 
d="M401 -20q-175 0 -264.5 66.5t-111.5 220.5t26 405q67 378 200.5 532t393.5 154q173 0 261 -66t109.5 -218.5t-26.5 -401.5q-66 -381 -198.5 -536.5t-389.5 -155.5zM446 227q14 0 24.5 6t21.5 26t20 48t21 82.5t23.5 118t29.5 164.5q27 151 38.5 227.5t14 129.5t-6 67
t-30.5 14q-16 0 -27.5 -6t-23 -25.5t-21 -47t-21.5 -80.5t-24 -116t-30 -163q-17 -99 -27.5 -164t-17 -118.5t-7 -82t4 -48t14 -26t24.5 -6.5z" />
    <glyph glyph-name="one" unicode="1" horiz-adv-x="688" 
d="M119 1235l608 127l-240 -1362h-383l181 1020l-211 -43z" />
    <glyph glyph-name="two" unicode="2" horiz-adv-x="870" 
d="M856 983q-32 -186 -166.5 -342.5t-372.5 -310.5h431l-58 -330h-747l59 330q375 230 430 542q44 228 -125 228q-71 0 -155 -43l24 239q142 62 348 62q400 0 332 -375z" />
    <glyph glyph-name="three" unicode="3" horiz-adv-x="970" 
d="M942 1073q-26 -143 -104 -229t-193 -99v-4q135 0 195 -85t32 -240q-37 -214 -185.5 -325t-397.5 -111q-96 0 -171 14.5t-165 50.5l67 219q86 -35 205 -35q111 0 168.5 44t77.5 153q14 82 -27 121t-155 39h-119l37 209h69q126 0 183.5 37.5t72.5 128.5q13 78 -22 109.5
t-135 31.5q-56 0 -101.5 -10.5t-113.5 -36.5l28 239q101 36 184 50t195 14q207 0 303.5 -73t71.5 -212z" />
    <glyph glyph-name="four" unicode="4" horiz-adv-x="976" 
d="M965 1337l-144 -819h94l-41 -229h-94l-51 -289h-383l51 289h-446l8 45l623 1003h383zM236 518h202l78 453z" />
    <glyph glyph-name="five" unicode="5" horiz-adv-x="909" 
d="M897 1001l-451 37l-51 -180q164 25 228 25q55 0 100 -18t81.5 -58.5t47 -106.5t-3.5 -163q-47 -273 -225.5 -415t-472.5 -142q-148 0 -228 40l76 230q51 -21 125 -21q129 0 208 60t103 194q18 96 -42 147.5t-156 51.5q-92 0 -162 -23l202 678h707z" />
    <glyph glyph-name="six" unicode="6" horiz-adv-x="1040" 
d="M846 1149q-142 0 -226 -72t-122 -229q85 74 227 74q150 0 210 -106.5t23 -309.5q-46 -258 -183.5 -392t-354.5 -134q-240 0 -337 160t-42 468q64 368 262.5 559t515.5 191q112 0 217 -37l-55 -203q-97 31 -135 31zM543 438q26 151 21 198q-5 58 -44 58q-23 0 -40 -19
t-28 -53t-18 -70t-15 -82q-3 -21 -5 -32q-3 -15 -7.5 -40.5t-7 -41.5t-6 -39t-4.5 -38t-1.5 -33t2 -29t7 -21.5t13 -15t20.5 -4.5q25 0 43.5 19t32 65.5t19 74t16.5 92.5q1 7 2 11z" />
    <glyph glyph-name="seven" unicode="7" horiz-adv-x="974" 
d="M1069 1337l-690 -1337h-287l510 985h-491l104 352h854z" />
    <glyph glyph-name="eight" unicode="8" horiz-adv-x="1050" 
d="M1016 997q-34 -193 -156 -278q131 -89 88 -328q-37 -202 -178.5 -306.5t-376.5 -104.5q-226 0 -326 104.5t-65 306.5q43 239 201 330q-88 85 -53 276q31 177 155.5 269t331.5 92q217 0 313.5 -92t65.5 -269zM516 983q-19 -110 -13 -144t46 -34t58 33.5t38 144.5
q19 110 12.5 144t-47.5 34q-39 0 -56 -33t-38 -145zM545 401q23 132 17.5 173.5t-48.5 41.5q-42 0 -61.5 -40.5t-44.5 -174.5q-12 -73 -17 -113.5t-2 -67.5t14 -35.5t33 -8.5q43 0 63.5 43t45.5 182z" />
    <glyph glyph-name="nine" unicode="9" horiz-adv-x="1040" 
d="M618 1358q260 0 349.5 -148t29.5 -481q-64 -368 -262.5 -558.5t-515.5 -190.5q-115 0 -217 36l55 203q102 -31 156 -31q134 0 212.5 71.5t115.5 229.5q-81 -73 -228 -73q-150 0 -210 106t-23 309q46 258 183.5 392.5t354.5 134.5zM623 889q24 136 25 166q4 84 -44 84
q-24 0 -41.5 -17.5t-30 -57.5t-18.5 -68t-16 -84q-3 -15 -4 -23q-26 -146 -20 -192q7 -53 44 -54q23 0 39 15.5t28 54.5t17.5 62.5t14.5 79.5q4 23 6 34z" />
    <glyph glyph-name="colon" unicode=":" horiz-adv-x="552" 
d="M78 635l67 389h390l-68 -389h-389zM-35 0l70 389h389l-70 -389h-389z" />
    <glyph glyph-name="semicolon" unicode=";" horiz-adv-x="552" 
d="M145 1024h390l-68 -389h-389zM-35 0l70 389h389l-76 -428q-20 -110 -93 -193t-167 -122t-192 -39l36 205q63 0 116 37t63 96l10 55h-156z" />
    <glyph glyph-name="less" unicode="&#x3c;" horiz-adv-x="602" 
d="M621 1153l-72 -397l-199 -187l133 -188l-69 -397l-404 551l13 65z" />
    <glyph glyph-name="equal" unicode="=" horiz-adv-x="714" 
d="M53 600l41 223h580l-41 -223h-580zM-16 201l41 223h577l-39 -223h-579z" />
    <glyph glyph-name="greater" unicode="&#x3e;" horiz-adv-x="602" 
d="M152 1153l403 -553l-12 -65l-598 -551l69 397l201 188l-133 187z" />
    <glyph glyph-name="question" unicode="?" horiz-adv-x="935" 
d="M270 381l6 39q14 78 35 138t44.5 97.5t49.5 69t52 61t49 63t42.5 85.5t31.5 119q18 114 -35 114q-72 0 -90 -112l-21 -115h-303l14 86q29 161 141 245.5t296 84.5q195 0 281.5 -79.5t60.5 -232.5q-13 -75 -39 -135t-57.5 -100t-66.5 -73.5t-70 -64.5t-65 -63.5t-53.5 -79
t-33.5 -104.5l-7 -43h-262zM203 0l49 279h262l-49 -279h-262z" />
    <glyph glyph-name="at" unicode="@" horiz-adv-x="1435" 
d="M852 1352q300 0 447 -191.5t92 -511.5q-46 -261 -173.5 -415t-297.5 -154h-185l19 98q-47 -56 -93.5 -87.5t-82.5 -31.5q-119 0 -168.5 124t-12.5 333q37 204 129.5 325.5t210.5 121.5q71 0 129 -74l11 55l194 -2l-133 -756q68 5 130.5 131.5t100.5 337.5
q44 251 -50.5 400t-293.5 149q-185 0 -328 -188.5t-200 -507.5q-57 -323 34.5 -516t297.5 -193q98 0 192.5 49t145.5 132h90q-82 -150 -217.5 -239t-282.5 -89q-208 0 -347.5 105t-191.5 301t-6 456q67 382 297 610t543 228zM657 238q33 0 66 74.5t55 199.5
q23 134 17.5 213.5t-37.5 79.5q-25 0 -54.5 -79t-52.5 -210q-15 -84 -19.5 -147.5t2.5 -97t23 -33.5z" />
    <glyph glyph-name="A" unicode="A" horiz-adv-x="1017" 
d="M510 0l-2 221h-283l-80 -221h-260l521 1337h460l27 -1337h-383zM307 451h199l-4 548z" />
    <glyph glyph-name="B" unicode="B" horiz-adv-x="1085" 
d="M1055 1032q-19 -114 -100 -194.5t-189 -108.5q113 -3 182 -84.5t45 -210.5q-77 -434 -590 -434h-440l236 1337h452q229 0 330.5 -76.5t73.5 -228.5zM582 1108h-41l-54 -301h39q98 0 129 162q24 139 -73 139zM590 420q13 78 -10 119t-80 41h-51l-62 -351h53q115 0 150 191
z" />
    <glyph glyph-name="C" unicode="C" horiz-adv-x="837" 
d="M393 -20q-239 0 -315 162t-10 534q65 364 210.5 523t415.5 159q3 0 240 -21l-76 -323l-164 88q-78 0 -130 -99.5t-93 -326.5q-41 -238 -26 -342.5t90 -104.5q59 0 147 27v-246q-133 -30 -289 -30z" />
    <glyph glyph-name="D" unicode="D" horiz-adv-x="1089" 
d="M657 1337q257 0 341.5 -151t23.5 -500q-66 -367 -205.5 -526.5t-394.5 -159.5h-459l236 1337h458zM618 672q40 233 28 334.5t-79 101.5h-26l-154 -879h27q68 0 115.5 103.5t88.5 339.5z" />
    <glyph glyph-name="E" unicode="E" horiz-adv-x="940" 
d="M920 1108h-379l-52 -289h351l-39 -229h-350l-64 -361h391l-39 -229h-776l236 1337h762z" />
    <glyph glyph-name="F" unicode="F" horiz-adv-x="915" 
d="M920 1108h-379l-56 -320h351l-41 -229h-351l-98 -559h-383l236 1337h762z" />
    <glyph glyph-name="G" unicode="G" horiz-adv-x="1083" 
d="M883 1108q-180 0 -277 -101t-137 -331q-41 -238 -10 -342.5t145 -104.5h29l49 297h-111l39 230h414l-123 -707q-176 -69 -348 -69q-324 0 -437.5 158.5t-49.5 520.5q66 374 251.5 536.5t546.5 162.5q98 0 234 -25l-45 -250q-76 25 -170 25z" />
    <glyph glyph-name="H" unicode="H" horiz-adv-x="1093" 
d="M745 1337h383l-235 -1337h-383l104 590h-163l-105 -590h-383l236 1337h383l-93 -518h164z" />
    <glyph glyph-name="I" unicode="I" horiz-adv-x="546" 
d="M-37 0l236 1337h383l-236 -1337h-383z" />
    <glyph glyph-name="J" unicode="J" horiz-adv-x="544" 
d="M199 1337h381l-232 -1310q-41 -240 -167 -338.5t-392 -98.5q-35 0 -96 7l39 229q12 -6 32 -6q91 0 135.5 37.5t59.5 128.5z" />
    <glyph glyph-name="K" unicode="K" horiz-adv-x="1093" 
d="M1190 1337l-393 -471l159 -866h-389l-86 489l-61 -75l-74 -414h-383l236 1337h383l-70 -395l311 395h367z" />
    <glyph glyph-name="L" unicode="L" horiz-adv-x="839" 
d="M387 229h342l-41 -229h-725l236 1337h383z" />
    <glyph glyph-name="M" unicode="M" horiz-adv-x="1443" 
d="M1343 1337l-40 -1337h-383l49 764l-287 -764h-301l-4 774l-223 -774h-248l426 1337h401l2 -637l246 637h362z" />
    <glyph glyph-name="N" unicode="N" horiz-adv-x="1091" 
d="M893 1337h233l-235 -1337h-303l-260 741l-131 -741h-234l236 1337h338l233 -698z" />
    <glyph glyph-name="O" unicode="O" horiz-adv-x="1118" 
d="M434 -20q-262 0 -346.5 159t-19.5 533q66 369 207 527.5t403 158.5q265 0 350.5 -158t20.5 -528q-66 -373 -207.5 -532.5t-407.5 -159.5zM483 229q50 0 84 93.5t78 349.5q23 130 33.5 211.5t9.5 133t-14 71.5t-39 20q-35 0 -60.5 -39.5t-49.5 -131.5t-54 -265
q-23 -130 -33.5 -213.5t-8.5 -135.5t15 -73t39 -21z" />
    <glyph glyph-name="P" unicode="P" horiz-adv-x="1079" 
d="M684 1337q246 0 334 -102.5t47 -337.5q-44 -261 -171.5 -375t-373.5 -114h-102l-72 -408h-383l236 1337h485zM662 897q20 113 4.5 162t-72.5 49h-53l-82 -471h53q55 0 90 61t60 199z" />
    <glyph glyph-name="Q" unicode="Q" horiz-adv-x="1118" 
d="M1049 672q-45 -252 -120.5 -402.5t-195.5 -220.5l176 -43l-51 -289l-508 152l19 113q-222 19 -291.5 179.5t-9.5 510.5q66 369 207 527.5t403 158.5q265 0 350.5 -158t20.5 -528zM471 672q-23 -132 -33 -213.5t-9 -135t14 -74t40 -20.5q34 0 59 41t49 134.5t54 267.5
q45 252 43 344t-53 92t-85.5 -91.5t-78.5 -344.5z" />
    <glyph glyph-name="R" unicode="R" horiz-adv-x="1114" 
d="M1077 920q-40 -235 -205 -363l95 -557h-389l-78 449h-74l-80 -449h-383l236 1337h483q203 0 315.5 -113t79.5 -304zM541 1108l-76 -430h49q115 0 160 240q17 93 -6 141.5t-78 48.5h-49z" />
    <glyph glyph-name="S" unicode="S" horiz-adv-x="944" 
d="M211 -20q-144 0 -277 45l89 278q104 -70 217 -70q40 0 70.5 4t63 15.5t54 36.5t27.5 63q3 20 0.5 37.5t-14 34t-22 28.5t-32.5 27t-35.5 23.5t-42 24.5t-41.5 24q-94 55 -133 147.5t-16 216.5q33 191 183.5 317t363.5 126q189 0 319 -43l-86 -258q-92 47 -209 47
q-51 0 -92.5 -35t-50.5 -90q-6 -34 2 -61t32.5 -47.5t45 -32.5t57.5 -29q219 -96 180 -320q-29 -159 -127.5 -276.5t-234.5 -175t-291 -57.5z" />
    <glyph glyph-name="T" unicode="T" horiz-adv-x="1005" 
d="M1085 1337l-41 -229h-274l-195 -1108h-382l194 1108h-272l41 229h929z" />
    <glyph glyph-name="U" unicode="U" horiz-adv-x="1040" 
d="M416 -20q-226 0 -324.5 113.5t-60.5 330.5l162 913h382l-161 -917q-17 -94 10 -142.5t96 -48.5q66 0 108.5 48.5t57.5 142.5l162 917h233l-161 -921q-38 -214 -166.5 -325t-337.5 -111z" />
    <glyph glyph-name="V" unicode="V" horiz-adv-x="997" 
d="M868 1337h242l-547 -1337h-344l-96 1337h401l41 -762z" />
    <glyph glyph-name="W" unicode="W" horiz-adv-x="1472" 
d="M1329 1337h256l-483 -1337h-334v776l-279 -776h-344l-22 1337h399l-8 -579l203 579h411l-2 -589z" />
    <glyph glyph-name="X" unicode="X" horiz-adv-x="1054" 
d="M1116 1337l-393 -643l184 -694h-407l-103 389l-239 -389h-248l412 672l-177 665h406l100 -372l228 372h237z" />
    <glyph glyph-name="Y" unicode="Y" horiz-adv-x="1009" 
d="M866 1337h256l-452 -798l-95 -539h-382l94 539l-164 798h397l96 -465z" />
    <glyph glyph-name="Z" unicode="Z" horiz-adv-x="874" 
d="M913 1337l-483 -1108h307l-41 -229h-772l490 1108h-281l41 229h739z" />
    <glyph glyph-name="bracketleft" unicode="[" horiz-adv-x="657" 
d="M670 1108h-129l-234 -1331h142l-41 -230h-525l316 1790h510z" />
    <glyph glyph-name="backslash" unicode="\" horiz-adv-x="591" 
d="M240 0l-201 1337h313l199 -1337h-311z" />
    <glyph glyph-name="bracketright" unicode="]" horiz-adv-x="657" 
d="M692 1337l-315 -1790h-524l38 230h144l233 1331h-127l39 229h512z" />
    <glyph glyph-name="asciicircum" unicode="^" horiz-adv-x="835" 
d="M811 721h-313l2 403l-142 -403h-317l270 616h449z" />
    <glyph glyph-name="underscore" unicode="_" horiz-adv-x="763" 
d="M-190 -410l40 230h764l-41 -230h-763z" />
    <glyph glyph-name="grave" unicode="`" horiz-adv-x="724" 
d="M438 1169l-217 285h379l135 -285h-297z" />
    <glyph glyph-name="a" unicode="a" horiz-adv-x="923" 
d="M608 1024h316l-181 -1024h-315l23 131q-77 -81 -146 -116t-145 -35q-131 0 -166 122.5t16 403.5q51 288 135.5 413t229.5 125q80 0 129.5 -41.5t75.5 -134.5zM383 236q26 0 46 39t44 149l39 217q10 86 2.5 113.5t-37.5 27.5q-42 0 -61 -47.5t-49 -216.5
q-17 -93 -24 -144.5t-5 -84.5t12.5 -43t32.5 -10z" />
    <glyph glyph-name="b" unicode="b" horiz-adv-x="927" 
d="M707 1044q133 0 168 -118t-15 -408q-52 -296 -135.5 -417t-232.5 -121q-71 0 -123 45.5t-80 132.5l-29 -158h-315l248 1415h344l-86 -491q129 120 256 120zM504 518q16 88 22 135.5t4.5 78.5t-11 40.5t-30.5 9.5q-40 0 -60 -46t-46 -199l-8 -41q-17 -99 -20 -156.5
t6 -80.5t30 -23q28 0 44.5 22.5t32 80t36.5 179.5z" />
    <glyph glyph-name="c" unicode="c" horiz-adv-x="757" 
d="M350 -20q-234 0 -310.5 124.5t-25.5 413.5q50 281 183 403.5t391 122.5q29 0 190 -16l-69 -313l-127 100q-86 0 -135.5 -69.5t-75.5 -227.5q-30 -166 -7.5 -237.5t103.5 -71.5q60 0 119 20l-4 -225q-107 -24 -232 -24z" />
    <glyph glyph-name="d" unicode="d" horiz-adv-x="925" 
d="M651 1415h342l-248 -1415h-315l23 133q-150 -153 -291 -153q-138 0 -171 121.5t21 404.5q51 286 137 412t228 126q68 0 113.5 -29.5t72.5 -94.5zM385 236q26 0 46.5 40t45.5 154l35 199q10 61 8.5 95t-11 46t-30.5 12q-42 0 -61 -47.5t-49 -216.5q-17 -93 -24 -144.5
t-5 -84.5t12.5 -43t32.5 -10z" />
    <glyph glyph-name="e" unicode="e" horiz-adv-x="909" 
d="M510 1044q228 0 303.5 -127.5t22.5 -422.5q-5 -33 -11 -50h-465q-15 -128 16 -181.5t116 -53.5q67 0 118 12.5t109 42.5l-14 -213q-70 -38 -147 -54.5t-183 -16.5q-243 0 -327.5 126t-33.5 414q50 280 165 402t331 122zM389 618h111l8 44q9 57 9 90t-9 48t-29 15
q-30 0 -48.5 -34.5t-33.5 -118.5z" />
    <glyph glyph-name="f" unicode="f" horiz-adv-x="579" 
d="M596 1161q-65 0 -80 -98l-6 -39h113l-45 -256h-113l-205 -1157h-344l205 1157h-96l45 256h96l14 82q13 75 39.5 133t60 94.5t75.5 60t83 33t86 9.5q80 0 178 -31l-65 -250q-30 6 -41 6z" />
    <glyph glyph-name="g" unicode="g" horiz-adv-x="925" 
d="M598 1024l332 20l-172 -970q-21 -118 -77.5 -212t-135.5 -152.5t-173.5 -89t-195.5 -30.5q-157 0 -280 48l73 251q106 -47 215 -47q191 0 222 178l14 78q-128 -118 -242 -118q-140 0 -179.5 122.5t11.5 403.5q51 288 140.5 413t244.5 125q124 0 178 -157zM385 236
q35 0 53 40t43 175l25 139q14 79 15.5 120t-7.5 56.5t-31 15.5q-44 0 -65.5 -54t-50.5 -222q-16 -90 -22.5 -143.5t-3 -81.5t13.5 -36.5t30 -8.5z" />
    <glyph glyph-name="h" unicode="h" horiz-adv-x="913" 
d="M717 1044q110 0 148.5 -57.5t15.5 -189.5l-142 -797h-344l121 682q16 100 -35 100q-59 0 -75 -100l-121 -682h-342l245 1395l347 20l-91 -514q48 61 125 102t148 41z" />
    <glyph glyph-name="i" unicode="i" horiz-adv-x="466" 
d="M150 1171l57 316h342l-55 -316h-344zM-55 0l180 1024h342l-180 -1024h-342z" />
    <glyph glyph-name="j" unicode="j" horiz-adv-x="464" 
d="M147 1171l58 316h342l-55 -316h-345zM-80 -412q-100 0 -227 31l76 250q54 -6 55 -6q54 0 77.5 20.5t32.5 77.5l189 1063h342l-195 -1106q-31 -177 -112 -253.5t-238 -76.5z" />
    <glyph glyph-name="k" unicode="k" horiz-adv-x="923" 
d="M956 1024l-282 -332l112 -692h-346l-53 354l-49 -57l-53 -297h-342l245 1395l347 20l-121 -688l223 297h319z" />
    <glyph glyph-name="l" unicode="l" horiz-adv-x="464" 
d="M-57 0l245 1395l347 20l-250 -1415h-342z" />
    <glyph glyph-name="m" unicode="m" horiz-adv-x="1372" 
d="M1174 1044q112 0 150 -57.5t15 -189.5l-141 -797h-342l121 682q16 100 -37 100q-62 0 -78 -100l-121 -682h-342l119 682q4 26 4 48.5t-10 37t-29 14.5q-61 0 -77 -100l-121 -682h-342l180 1024l346 20l-25 -143q48 61 125.5 102t147.5 41q87 0 129 -37.5t43 -121.5
q47 66 129 112.5t156 46.5z" />
    <glyph glyph-name="n" unicode="n" horiz-adv-x="913" 
d="M717 1044q110 0 148.5 -57.5t15.5 -189.5l-142 -797h-344l121 682q16 100 -35 100q-59 0 -75 -100l-121 -682h-342l180 1024l346 20l-25 -143q48 61 125 102t148 41z" />
    <glyph glyph-name="o" unicode="o" horiz-adv-x="929" 
d="M344 -20q-227 0 -304.5 124t-27.5 408q49 284 170.5 408t349.5 124q224 0 300.5 -124t27.5 -408t-169.5 -408t-346.5 -124zM385 209q23 0 36 9.5t27 45.5t25.5 90.5t30.5 161.5q19 105 26.5 157.5t6.5 88t-11.5 44.5t-33.5 9q-32 0 -50 -22t-34 -82t-39 -195
q-19 -106 -26.5 -161.5t-5.5 -91t13 -45t35 -9.5z" />
    <glyph glyph-name="p" unicode="p" horiz-adv-x="927" 
d="M678 1044q146 0 187.5 -125.5t-9.5 -412.5q-49 -281 -128 -403.5t-210 -122.5q-126 0 -215 118l-86 -487h-344l250 1413h326l-25 -139q113 159 254 159zM500 506q16 91 22.5 141.5t4.5 82.5t-12 42t-32 10q-37 0 -57 -51.5t-51 -224.5q-15 -84 -21.5 -137t-3.5 -82.5
t12 -40t27 -10.5q41 0 60.5 49t50.5 221z" />
    <glyph glyph-name="q" unicode="q" horiz-adv-x="925" 
d="M598 1024h328l-250 -1413h-342l86 489q-129 -120 -258 -120q-131 0 -166 122.5t14 403.5q51 287 137 412.5t232 125.5q138 0 194 -157zM385 236q34 0 52.5 39t41.5 163l21 119q24 139 21 182t-36 43q-45 0 -66 -50t-52 -226q-11 -60 -17 -98.5t-9.5 -71t-2.5 -50t7 -30
t15.5 -16.5t24.5 -4z" />
    <glyph glyph-name="r" unicode="r" horiz-adv-x="716" 
d="M688 1044q41 0 62 -8l-72 -356q-50 37 -113 37q-69 0 -122 -59t-68 -148l-90 -510h-342l180 1024h342l-33 -190q51 89 123 149.5t133 60.5z" />
    <glyph glyph-name="s" unicode="s" horiz-adv-x="774" 
d="M199 -20q-172 0 -275 34l70 248q103 -53 227 -53q54 0 97.5 21.5t50.5 60.5q5 28 -0.5 46t-21.5 28.5t-32 16t-44.5 14t-47.5 16.5q-197 77 -160 274q30 167 165 262.5t311 95.5q139 0 252 -40l-78 -234q-83 45 -191 45q-30 0 -57 -20.5t-33 -53.5q-1 -15 -2.5 -26t3 -21
t7 -16.5t11 -13t14.5 -10t16.5 -8t18 -7.5t19.5 -7t20 -7q83 -28 126 -91t27 -153q-35 -204 -165.5 -302.5t-327.5 -98.5z" />
    <glyph glyph-name="t" unicode="t" horiz-adv-x="610" 
d="M469 768l-74 -416q-9 -54 1.5 -76t45.5 -22q41 0 47 2l-43 -246q-110 -30 -170 -30q-155 0 -208.5 76t-22.5 253l80 459h-84l45 256h84l39 217l354 62l-49 -279h131l-45 -256h-131z" />
    <glyph glyph-name="u" unicode="u" horiz-adv-x="909" 
d="M567 1024h342l-180 -1024l-346 -20l25 143q-48 -61 -125 -102t-148 -41q-111 0 -149 57.5t-13 189.5l140 797h344l-123 -688q-16 -100 35 -100q52 0 75 86z" />
    <glyph glyph-name="v" unicode="v" horiz-adv-x="806" 
d="M670 1024h204l-419 -1024h-330l-70 1024h367l14 -614z" />
    <glyph glyph-name="w" unicode="w" horiz-adv-x="1189" 
d="M1055 1024h202l-397 -1024h-313l2 401l-143 -401h-302l-49 1024h367l-2 -582l207 582h237l-2 -555z" />
    <glyph glyph-name="x" unicode="x" horiz-adv-x="829" 
d="M889 1024l-311 -543l120 -481h-352l-74 299l-172 -299h-211l318 557l-117 467h350l74 -291l170 291h205z" />
    <glyph glyph-name="y" unicode="y" horiz-adv-x="774" 
d="M639 1024h203l-572 -1413h-202l155 389h-141l-27 1024h371l-23 -606z" />
    <glyph glyph-name="z" unicode="z" horiz-adv-x="774" 
d="M791 1024l-398 -788h262l-41 -234h-696l395 789h-225l41 233h662z" />
    <glyph glyph-name="braceleft" unicode="{" horiz-adv-x="684" 
d="M745 1378h21l-37 -209h-29q-38 0 -68.5 -27.5t-37.5 -72.5l-74 -418q-13 -76 -69.5 -128.5t-143.5 -78.5q77 -26 114.5 -78.5t24.5 -127.5l-73 -420q-7 -45 13.5 -73t57.5 -28h29l-37 -209h-20q-98 0 -177 25.5t-134.5 75.5t-77.5 130t-4 183l49 277q10 60 -10 95.5
t-58 35.5h-22l41 229h22q38 0 70.5 35.5t42.5 95.5l51 295q34 191 183 292t353 101z" />
    <glyph glyph-name="bar" unicode="|" horiz-adv-x="454" 
d="M-113 -389l303 1726h308l-305 -1726h-306z" />
    <glyph glyph-name="braceright" unicode="}" horiz-adv-x="684" 
d="M598 559h25l-41 -229h-23q-38 0 -70.5 -35.5t-42.5 -95.5l-49 -277q-18 -102 -68.5 -182.5t-123.5 -130.5t-160.5 -75.5t-185.5 -25.5h-23l37 209h29q38 0 69.5 28t38.5 73l74 420q13 75 69.5 127.5t143.5 78.5q-78 26 -116 78.5t-23 128.5l73 418q7 45 -14 72.5
t-59 27.5h-29l37 209h22q98 0 177 -24.5t134.5 -72t78.5 -123.5t6 -173l-52 -295q-10 -59 9.5 -95t56.5 -36z" />
    <glyph glyph-name="asciitilde" unicode="~" horiz-adv-x="665" 
d="M-23 326q34 183 92 269.5t148 86.5q34 0 59 -12t37.5 -27t34.5 -27t51 -12t55 31.5t35 77.5h144q-32 -186 -92 -275.5t-152 -89.5q-33 0 -87.5 40t-94.5 40q-29 0 -54 -29.5t-34 -72.5h-142z" />
    <glyph glyph-name="uni00A0" unicode="&#xa0;" horiz-adv-x="972" 
 />
    <glyph glyph-name="exclamdown" unicode="&#xa1;" horiz-adv-x="550" 
d="M84 676l61 348h390l-62 -348h-389zM-90 -313l203 805h266l-80 -805h-389z" />
    <glyph glyph-name="cent" unicode="&#xa2;" horiz-adv-x="722" 
d="M602 815q-86 0 -135.5 -69.5t-75.5 -227.5q-30 -166 -7.5 -237.5t103.5 -71.5q60 0 119 20l-4 -225q-107 -24 -231 -24h-41l-51 -287h-111l53 303q-143 36 -185.5 160t-0.5 362q39 220 125.5 340.5t240.5 161.5l58 317h110l-53 -297q58 4 92 4q30 0 191 -16l-70 -313z
" />
    <glyph glyph-name="sterling" unicode="&#xa3;" horiz-adv-x="999" 
d="M993 967h-319q13 78 9 110.5t-26 32.5h-12q-22 0 -40 -42t-36 -142l-28 -164h276l-41 -230h-276l-25 -139q-13 -79 -45 -164h440l-41 -229h-827h-10h-29l41 229h35q35 0 57 36t37 122l27 145h-99l41 230h97l30 170q37 212 146.5 308.5t310.5 96.5h27q180 0 247 -88.5
t33 -281.5z" />
    <glyph glyph-name="currency" unicode="&#xa4;" horiz-adv-x="833" 
d="M838 985l-93 -82q52 -93 31 -209q-21 -118 -108 -211l65 -84l-172 -147l-86 108q-59 -18 -121 -18q-53 0 -106 16l-119 -106l-119 147l86 78q-62 94 -41 217q21 122 115 219l-57 72l172 148l77 -99q59 19 117 19q63 0 121 -23l117 103zM309 692q-9 -46 16.5 -78t69.5 -32
t82 32t45 78q9 49 -16.5 84t-69.5 35t-82 -35t-45 -84z" />
    <glyph glyph-name="yen" unicode="&#xa5;" horiz-adv-x="1009" 
d="M1122 1337l-434 -766h189l-27 -141h-199l-18 -106h198l-24 -142h-199l-33 -182h-382l32 182h-178l25 142h178l18 106h-176l25 141h164l-158 766h397l96 -465l250 465h256z" />
    <glyph glyph-name="brokenbar" unicode="&#xa6;" horiz-adv-x="425" 
d="M47 604l129 733h307l-129 -733h-307zM-139 -451l129 727h307l-129 -727h-307z" />
    <glyph glyph-name="section" unicode="&#xa7;" horiz-adv-x="980" 
d="M754 850q50 -29 80 -51.5t56.5 -53t34 -68t-0.5 -85.5q-41 -232 -279 -322q99 -59 151 -142.5t35 -172.5q-32 -179 -186 -272t-418 -93q-160 0 -297 39l86 236q102 -55 232 -55q44 0 72.5 3.5t55 14t41.5 31.5t21 55q5 29 -9.5 53.5t-48 44.5t-67 35t-82.5 35.5t-79 36.5
q-93 48 -136 124.5t-26 174.5q18 105 95 176.5t202 105.5q-146 113 -117 299q32 176 179 267.5t399 91.5q93 0 237 -37l-80 -223q-107 39 -168 39q-59 0 -97.5 -29t-47.5 -80q-5 -14 -2 -28.5t3 -24t8 -20.5t12 -18t16 -16t19.5 -14t22.5 -13.5t25.5 -14t28 -14t29.5 -15.5z
M418 383q149 11 164 100q8 46 -41 82q-59 -8 -100 -35.5t-48 -70.5q-8 -43 25 -76z" />
    <glyph glyph-name="dieresis" unicode="&#xa8;" horiz-adv-x="819" 
d="M172 1169l51 291h271l-52 -291h-270zM559 1169l51 291h271l-52 -291h-270z" />
    <glyph glyph-name="copyright" unicode="&#xa9;" horiz-adv-x="1421" 
d="M590 -16q-90 0 -169 35t-135.5 98t-94 149t-45.5 188.5t10 217.5q32 186 135 344.5t247.5 250t295.5 91.5q112 0 205.5 -54t150.5 -147t80 -218t-4 -267q-24 -140 -90.5 -267t-157.5 -219.5t-203.5 -147t-224.5 -54.5zM612 113q117 0 230 74.5t194 203.5t107 281
q27 151 -8.5 279.5t-122 203t-203.5 74.5t-230 -74.5t-193.5 -203t-106.5 -279.5q-27 -152 8 -281t121.5 -203.5t203.5 -74.5zM664 266q-124 0 -179 115.5t-24 290.5q31 181 123.5 294t218.5 113q86 0 132 -72t42 -204h-131q0 158 -64 158q-61 0 -109.5 -80t-72.5 -211
q-22 -123 1.5 -204t82.5 -81q36 0 64 41t53 127h135q-46 -134 -118 -210.5t-154 -76.5z" />
    <glyph glyph-name="ordfeminine" unicode="&#xaa;" horiz-adv-x="503" 
d="M340 1358q120 0 162.5 -39t25.5 -135l-69 -389h-131l10 55q-47 -41 -75.5 -54.5t-72.5 -13.5q-57 0 -86.5 41.5t-13.5 130.5q14 87 63.5 135.5t110.5 55.5l94 8l7 35q4 26 -8 37.5t-44 11.5q-46 0 -153 -35l6 121q129 35 174 35zM258 973q-13 -76 18 -76q21 0 37 8
l27 150l-33 -6q-38 -8 -49 -76z" />
    <glyph glyph-name="guillemotleft" unicode="&#xab;" horiz-adv-x="980" 
d="M543 858l-234 -315l123 -316h-307l-109 316l220 315h307zM975 858l-234 -317l121 -314h-307l-106 316l219 315h307z" />
    <glyph glyph-name="logicalnot" unicode="&#xac;" horiz-adv-x="753" 
d="M74 823h651l-80 -452h-340l43 243h-311z" />
    <glyph glyph-name="registered" unicode="&#xae;" horiz-adv-x="1421" 
d="M590 -16q-90 0 -169 35t-135.5 98t-94 149t-45.5 188.5t10 217.5q32 186 135 344.5t247.5 250t295.5 91.5q112 0 205.5 -54t150.5 -147t80 -218t-4 -267q-24 -140 -90.5 -267t-157.5 -219.5t-203.5 -147t-224.5 -54.5zM612 113q117 0 230 74.5t194 203.5t107 281
q27 151 -8.5 279.5t-122 203t-203.5 74.5t-230 -74.5t-193.5 -203t-106.5 -279.5q-27 -152 8 -281t121.5 -203.5t203.5 -74.5zM455 336l120 692h189q126 0 179.5 -48t35.5 -155q-31 -167 -211 -188l127 -301h-123l-115 297h-43l-51 -297h-108zM633 729h78q69 0 107.5 20.5
t49.5 86.5q9 56 -25 76t-95 20h-80z" />
    <glyph glyph-name="macron" unicode="&#xaf;" horiz-adv-x="673" 
d="M172 1169l41 240h512l-41 -240h-512z" />
    <glyph glyph-name="degree" unicode="&#xb0;" horiz-adv-x="671" 
d="M352 772q-117 0 -182 85t-43 208t117.5 208t212.5 85t183 -85t44 -208q-23 -123 -119 -208t-213 -85zM389 973q32 0 61 27.5t35 64.5t-12.5 64.5t-50.5 27.5t-61 -27.5t-35 -64.5q-8 -37 10.5 -64.5t52.5 -27.5z" />
    <glyph glyph-name="plusminus" unicode="&#xb1;" horiz-adv-x="751" 
d="M530 803h183l-45 -254h-183l-39 -219h-262l39 219h-182l45 254h182l39 221h262zM-55 0l39 227h626l-41 -227h-624z" />
    <glyph glyph-name="uni00B2" unicode="&#xb2;" horiz-adv-x="485" 
d="M530 1130q-32 -178 -286 -315h233l-39 -219h-418l39 219q93 36 151.5 95t70.5 124q18 117 -72 117q-36 0 -84 -23l25 187q72 35 194 35q223 0 186 -220z" />
    <glyph glyph-name="uni00B3" unicode="&#xb3;" horiz-adv-x="548" 
d="M584 1194q-13 -78 -57 -126.5t-109 -57.5v-2q76 0 109.5 -47t19.5 -134q-25 -136 -98.5 -189.5t-233.5 -53.5q-96 0 -188 43l45 157q43 -18 71 -18q89 0 129 18t47 62q6 32 -17.5 43.5t-90.5 11.5h-68l23 135h39q72 0 102.5 17.5t38.5 62.5q4 28 -22 38.5t-97 10.5
q-51 0 -90 -14l21 160q93 39 215 39q132 0 179 -34.5t32 -121.5z" />
    <glyph glyph-name="acute" unicode="&#xb4;" horiz-adv-x="698" 
d="M172 1169l193 285h393l-316 -285h-270z" />
    <glyph glyph-name="paragraph" unicode="&#xb6;" horiz-adv-x="1081" 
d="M549 1337h156l-269 -1521h-155l125 704q-385 27 -320 412q68 376 463 403v2zM801 1337h323l-268 -1521h-324z" />
    <glyph glyph-name="periodcentered" unicode="&#xb7;" horiz-adv-x="550" 
d="M41 426l68 389h389l-68 -389h-389z" />
    <glyph glyph-name="cedilla" unicode="&#xb8;" horiz-adv-x="657" 
d="M227 -68q68 -10 111 -29t59 -43.5t20.5 -56t-3.5 -65.5q-11 -66 -57.5 -115t-119 -77t-157 -42t-182.5 -16v135q186 14 202 115q7 36 -12 62.5t-82 43.5l111 164h155z" />
    <glyph glyph-name="uni00B9" unicode="&#xb9;" horiz-adv-x="387" 
d="M115 1268l348 84l-133 -756h-219l92 518l-119 -27z" />
    <glyph glyph-name="ordmasculine" unicode="&#xba;" horiz-adv-x="561" 
d="M299 778q-234 0 -184 291q53 289 286 289q116 0 163 -73.5t22 -215.5q-53 -291 -287 -291zM317 879q29 0 45.5 38t36.5 152q19 113 17 150.5t-31 37.5t-46.5 -38t-37.5 -150q-20 -113 -16.5 -151.5t32.5 -38.5z" />
    <glyph glyph-name="guillemotright" unicode="&#xbb;" horiz-adv-x="980" 
d="M379 858l108 -315l-219 -316h-307l234 316l-123 315h307zM811 858l107 -315l-220 -316h-307l234 318l-121 313h307z" />
    <glyph glyph-name="onequarter" unicode="&#xbc;" horiz-adv-x="1181" 
d="M45 596l92 518l-119 -27l31 181l348 84l-133 -756h-219zM1053 1337h149l-1014 -1339h-149zM1094 741l-76 -430h51l-27 -151h-51l-28 -160h-220l29 160h-250l4 24l348 557h220zM698 311h101l41 228z" />
    <glyph glyph-name="onehalf" unicode="&#xbd;" horiz-adv-x="1282" 
d="M45 596l92 518l-119 -27l31 181l348 84l-133 -756h-219zM1053 1337h149l-1014 -1339h-149zM1204 535q-32 -179 -286 -316h233l-39 -219h-418l39 219q92 36 150.5 94.5t70.5 124.5q18 117 -71 117q-36 0 -84 -23l24 187q72 35 195 35q223 0 186 -219z" />
    <glyph glyph-name="threequarters" unicode="&#xbe;" horiz-adv-x="1257" 
d="M457 827q-25 -136 -98.5 -189.5t-233.5 -53.5q-96 0 -188 43l45 157q44 -18 71 -18q89 0 129 18t47 62q6 32 -17.5 43.5t-90.5 11.5h-68l23 135h39q72 0 102.5 17.5t38.5 62.5q4 28 -22 38.5t-97 10.5q-51 0 -90 -14l21 160q93 39 215 39q132 0 179 -34.5t32 -121.5
q-13 -78 -57 -126.5t-109 -57.5v-2q76 0 109.5 -47t19.5 -134zM1126 1337h150l-1012 -1339h-149zM1171 741l-75 -430h51l-27 -151h-51l-29 -160h-219l29 160h-250l4 24l348 557h219zM776 311h101l41 228z" />
    <glyph glyph-name="questiondown" unicode="&#xbf;" horiz-adv-x="935" 
d="M371 745l49 279h262l-49 -279h-262zM303 -332q-195 0 -281.5 79.5t-60.5 232.5q13 75 39 135t57.5 100t66.5 73.5t70 64.5t65 63.5t53.5 79t33.5 104.5l6 43h262l-6 -39q-19 -106 -51.5 -179.5t-68 -115t-70 -81t-65 -103t-46.5 -154.5q-21 -114 35 -114q70 0 88 112
l21 115h303l-15 -86q-29 -161 -140.5 -245.5t-295.5 -84.5z" />
    <glyph glyph-name="Agrave" unicode="&#xc0;" horiz-adv-x="1017" 
d="M836 1454h-314l-215 293h395zM510 0l-2 221h-283l-80 -221h-260l521 1337h460l27 -1337h-383zM307 451h199l-4 548z" />
    <glyph glyph-name="Aacute" unicode="&#xc1;" horiz-adv-x="1017" 
d="M1130 1747l-317 -293h-297l215 293h399zM866 1337l27 -1337h-383l-2 221h-283l-80 -221h-260l521 1337h460zM307 451h199l-4 548z" />
    <glyph glyph-name="Acircumflex" unicode="&#xc2;" horiz-adv-x="1017" 
d="M700 1595l-108 -145h-367l256 295h490l153 -295h-366zM866 1337l27 -1337h-383l-2 221h-283l-80 -221h-260l521 1337h460zM307 451h199l-4 548z" />
    <glyph glyph-name="Atilde" unicode="&#xc3;" horiz-adv-x="1017" 
d="M899 1753h248q-46 -137 -140 -218t-206 -81q-40 0 -80.5 17.5t-71.5 35t-49 17.5q-31 0 -58 -19t-42 -51h-248q43 137 136 218t208 81q41 0 80.5 -18.5t70 -37t50.5 -18.5q32 0 59.5 20t42.5 54zM866 1337l27 -1337h-383l-2 221h-283l-80 -221h-260l521 1337h460z
M307 451h199l-4 548z" />
    <glyph glyph-name="Adieresis" unicode="&#xc4;" horiz-adv-x="1017" 
d="M672 1765l-56 -311h-311l55 311h312zM788 1765h312l-56 -311h-311zM866 1337l27 -1337h-383l-2 221h-283l-80 -221h-260l521 1337h460zM307 451h199l-4 548z" />
    <glyph glyph-name="Aring" unicode="&#xc5;" horiz-adv-x="1017" 
d="M510 0l-2 221h-283l-80 -221h-260l521 1337h71q-50 56 -35 144q17 90 90.5 144t161.5 54q82 0 137 -54.5t41 -143.5q-15 -86 -86 -144h80l27 -1337h-383zM594 1477q-5 -28 9.5 -48t41.5 -20q29 0 50 20t26 48q5 30 -9.5 48.5t-43.5 18.5q-27 0 -48.5 -19t-25.5 -48z
M307 451h199l-4 548z" />
    <glyph glyph-name="AE" unicode="&#xc6;" horiz-adv-x="1517" 
d="M1497 1108h-379l-51 -289h350l-39 -229h-350l-63 -361h391l-39 -229h-776l45 260h-287l-100 -260h-314l592 1337h1061zM373 451h248l114 657h-106z" />
    <glyph glyph-name="Ccedilla" unicode="&#xc7;" horiz-adv-x="837" 
d="M694 1358q3 0 240 -21l-76 -323l-164 88q-78 0 -130 -99.5t-93 -326.5q-41 -238 -26 -342.5t90 -104.5q59 0 147 27v-246q-127 -27 -264 -30l-25 -41q68 -10 111 -29t59 -44t20.5 -56.5t-3.5 -65.5q-11 -66 -57.5 -115t-119.5 -77t-157.5 -42t-182.5 -16v135
q187 14 203 115q7 36 -12 62.5t-82 43.5l96 142q-164 40 -211 203t11 481q65 364 210.5 523t415.5 159z" />
    <glyph glyph-name="Egrave" unicode="&#xc8;" horiz-adv-x="940" 
d="M750 1454h-314l-215 293h395zM920 1108h-379l-52 -289h351l-39 -229h-350l-64 -361h391l-39 -229h-776l236 1337h762z" />
    <glyph glyph-name="Eacute" unicode="&#xc9;" horiz-adv-x="940" 
d="M1044 1747l-317 -293h-297l215 293h399zM961 1337l-41 -229h-379l-52 -289h351l-39 -229h-350l-64 -361h391l-39 -229h-776l236 1337h762z" />
    <glyph glyph-name="Ecircumflex" unicode="&#xca;" horiz-adv-x="940" 
d="M614 1595l-108 -145h-367l256 295h490l153 -295h-366zM961 1337l-41 -229h-379l-52 -289h351l-39 -229h-350l-64 -361h391l-39 -229h-776l236 1337h762z" />
    <glyph glyph-name="Edieresis" unicode="&#xcb;" horiz-adv-x="940" 
d="M586 1765l-56 -311h-311l55 311h312zM1014 1765l-56 -311h-311l55 311h312zM961 1337l-41 -229h-379l-52 -289h351l-39 -229h-350l-64 -361h391l-39 -229h-776l236 1337h762z" />
    <glyph glyph-name="Igrave" unicode="&#xcc;" horiz-adv-x="546" 
d="M258 1454l-215 293h395l133 -293h-313zM-37 0l236 1337h383l-236 -1337h-383z" />
    <glyph glyph-name="Iacute" unicode="&#xcd;" horiz-adv-x="546" 
d="M252 1454l215 293h399l-317 -293h-297zM-37 0l236 1337h383l-236 -1337h-383z" />
    <glyph glyph-name="Icircumflex" unicode="&#xce;" horiz-adv-x="546" 
d="M436 1595l-108 -145h-367l256 295h490l153 -295h-366zM-37 0l236 1337h383l-236 -1337h-383z" />
    <glyph glyph-name="Idieresis" unicode="&#xcf;" horiz-adv-x="546" 
d="M41 1454l55 311h312l-56 -311h-311zM469 1454l55 311h312l-56 -311h-311zM-37 0l236 1337h383l-236 -1337h-383z" />
    <glyph glyph-name="Eth" unicode="&#xd0;" horiz-adv-x="1087" 
d="M657 1337q257 0 341.5 -151t23.5 -500q-66 -367 -205.5 -526.5t-394.5 -159.5h-459l100 565h-61l39 232h63l95 540h458zM618 672q40 233 28 334.5t-79 101.5h-26l-54 -311h91l-41 -232h-91l-59 -336h27q68 0 115.5 103.5t88.5 339.5z" />
    <glyph glyph-name="Ntilde" unicode="&#xd1;" horiz-adv-x="1091" 
d="M616 1524q-31 0 -58 -19t-42 -51h-248q43 137 136 218t208 81q41 0 80.5 -18.5t70 -37t50.5 -18.5q32 0 59.5 20t42.5 54h248q-46 -137 -140 -218t-206 -81q-40 0 -80.5 17.5t-71.5 35t-49 17.5zM770 639l123 698h233l-235 -1337h-303l-260 741l-131 -741h-234l236 1337
h338z" />
    <glyph glyph-name="Ograve" unicode="&#xd2;" horiz-adv-x="1118" 
d="M549 1454l-215 293h395l133 -293h-313zM434 -20q-262 0 -346.5 159t-19.5 533q66 369 207 527.5t403 158.5q265 0 350.5 -158t20.5 -528q-66 -373 -207.5 -532.5t-407.5 -159.5zM483 229q50 0 84 93.5t78 349.5q23 130 33.5 211.5t9.5 133t-14 71.5t-39 20
q-35 0 -60.5 -39.5t-49.5 -131.5t-54 -265q-23 -130 -33.5 -213.5t-8.5 -135.5t15 -73t39 -21z" />
    <glyph glyph-name="Oacute" unicode="&#xd3;" horiz-adv-x="1118" 
d="M543 1454l215 293h399l-317 -293h-297zM434 -20q-262 0 -346.5 159t-19.5 533q66 369 207 527.5t403 158.5q265 0 350.5 -158t20.5 -528q-66 -373 -207.5 -532.5t-407.5 -159.5zM483 229q50 0 84 93.5t78 349.5q23 130 33.5 211.5t9.5 133t-14 71.5t-39 20
q-35 0 -60.5 -39.5t-49.5 -131.5t-54 -265q-23 -130 -33.5 -213.5t-8.5 -135.5t15 -73t39 -21z" />
    <glyph glyph-name="Ocircumflex" unicode="&#xd4;" horiz-adv-x="1118" 
d="M727 1595l-109 -145h-366l256 295h489l154 -295h-367zM678 1358q265 0 350.5 -158t20.5 -528q-66 -373 -207.5 -532.5t-407.5 -159.5q-262 0 -346.5 159t-19.5 533q66 369 207 527.5t403 158.5zM645 672q23 130 33.5 211.5t9.5 133t-14 71.5t-39 20q-35 0 -60.5 -39.5
t-49.5 -131.5t-54 -265q-23 -130 -33.5 -213.5t-8.5 -135.5t15 -73t39 -21q50 0 84 93.5t78 349.5z" />
    <glyph glyph-name="Otilde" unicode="&#xd5;" horiz-adv-x="1118" 
d="M279 1454q43 137 136 218t208 81q41 0 80 -18.5t69.5 -37t50.5 -18.5q32 0 60 20t43 54h248q-46 -136 -140 -217.5t-207 -81.5q-40 0 -80 17.5t-71 35t-49 17.5q-31 0 -58.5 -19t-42.5 -51h-247zM434 -20q-262 0 -346.5 159t-19.5 533q66 369 207 527.5t403 158.5
q265 0 350.5 -158t20.5 -528q-66 -373 -207.5 -532.5t-407.5 -159.5zM483 229q50 0 84 93.5t78 349.5q23 130 33.5 211.5t9.5 133t-14 71.5t-39 20q-35 0 -60.5 -39.5t-49.5 -131.5t-54 -265q-23 -130 -33.5 -213.5t-8.5 -135.5t15 -73t39 -21z" />
    <glyph glyph-name="Odieresis" unicode="&#xd6;" horiz-adv-x="1118" 
d="M332 1454l55 311h311l-55 -311h-311zM760 1454l55 311h311l-55 -311h-311zM434 -20q-262 0 -346.5 159t-19.5 533q66 369 207 527.5t403 158.5q265 0 350.5 -158t20.5 -528q-66 -373 -207.5 -532.5t-407.5 -159.5zM483 229q50 0 84 93.5t78 349.5q23 130 33.5 211.5
t9.5 133t-14 71.5t-39 20q-35 0 -60.5 -39.5t-49.5 -131.5t-54 -265q-23 -130 -33.5 -213.5t-8.5 -135.5t15 -73t39 -21z" />
    <glyph glyph-name="multiply" unicode="&#xd7;" horiz-adv-x="849" 
d="M797 670l-181 -158l132 -168l-275 -231l-127 161l-176 -155l-180 217l182 160l-131 168l274 231l127 -162l174 154z" />
    <glyph glyph-name="Oslash" unicode="&#xd8;" horiz-adv-x="1118" 
d="M1174 1337l-136 -157q72 -163 11 -508q-66 -373 -207.5 -532.5t-407.5 -159.5q-233 0 -323 120l-86 -100h-101l148 172q-63 162 -4 500q66 369 207 527.5t403 158.5q223 0 319 -113l78 92h99zM471 672q-1 -9 -4 -24t-4 -21l215 250q16 131 6 181t-49 50
q-35 0 -60.5 -39.5t-49.5 -131.5t-54 -265zM645 672l12 63l-217 -250q-18 -146 -8 -201t51 -55q50 0 84 93.5t78 349.5z" />
    <glyph glyph-name="Ugrave" unicode="&#xd9;" horiz-adv-x="1040" 
d="M532 1454l-215 293h396l133 -293h-314zM416 -20q-226 0 -324.5 113.5t-60.5 330.5l162 913h382l-161 -917q-17 -94 10 -142.5t96 -48.5q66 0 108.5 48.5t57.5 142.5l162 917h233l-161 -921q-38 -214 -166.5 -325t-337.5 -111z" />
    <glyph glyph-name="Uacute" unicode="&#xda;" horiz-adv-x="1040" 
d="M526 1454l215 293h400l-318 -293h-297zM416 -20q-226 0 -324.5 113.5t-60.5 330.5l162 913h382l-161 -917q-17 -94 10 -142.5t96 -48.5q66 0 108.5 48.5t57.5 142.5l162 917h233l-161 -921q-38 -214 -166.5 -325t-337.5 -111z" />
    <glyph glyph-name="Ucircumflex" unicode="&#xdb;" horiz-adv-x="1040" 
d="M711 1595l-109 -145h-366l256 295h489l154 -295h-367zM686 420l162 917h233l-161 -921q-38 -214 -166.5 -325t-337.5 -111q-226 0 -324.5 113.5t-60.5 330.5l162 913h382l-161 -917q-17 -94 10 -142.5t96 -48.5q66 0 108.5 48.5t57.5 142.5z" />
    <glyph glyph-name="Udieresis" unicode="&#xdc;" horiz-adv-x="1040" 
d="M315 1454l56 311h311l-55 -311h-312zM743 1454l56 311h311l-55 -311h-312zM416 -20q-226 0 -324.5 113.5t-60.5 330.5l162 913h382l-161 -917q-17 -94 10 -142.5t96 -48.5q66 0 108.5 48.5t57.5 142.5l162 917h233l-161 -921q-38 -214 -166.5 -325t-337.5 -111z" />
    <glyph glyph-name="Yacute" unicode="&#xdd;" horiz-adv-x="1009" 
d="M1126 1747l-317 -293h-297l215 293h399zM616 872l250 465h256l-452 -798l-95 -539h-382l94 539l-164 798h397z" />
    <glyph glyph-name="Thorn" unicode="&#xde;" horiz-adv-x="1081" 
d="M645 1108q245 0 336.5 -93.5t54.5 -305.5q-43 -238 -169.5 -343.5t-370.5 -105.5h-105l-45 -260h-383l236 1337h383l-41 -229h104zM633 709q15 91 -3 130.5t-75 39.5h-53l-70 -390h55q56 0 91 52t55 168z" />
    <glyph glyph-name="germandbls" unicode="&#xdf;" horiz-adv-x="1013" 
d="M-57 0l180 1022q38 217 151 311t336 94h31q31 0 58.5 -1.5t57.5 -5.5t55 -10.5t51.5 -16t46 -23.5t39 -32.5t30 -41.5t19 -52t6.5 -64.5t-7 -77.5q-21 -117 -80 -200.5t-135 -119.5q81 0 128 -89t22 -230q-41 -227 -169 -345t-290 -118h-102l41 238h37q87 0 126 202
q34 201 -57 201h-35l35 199h21q32 0 63 49t45 135q13 74 -3 116t-52 42h-4q-44 0 -75 -33.5t-40 -91.5l-184 -1057h-346z" />
    <glyph glyph-name="agrave" unicode="&#xe0;" horiz-adv-x="923" 
d="M711 1169h-297l-217 285h378zM608 1024h316l-181 -1024h-315l23 131q-77 -81 -146 -116t-145 -35q-131 0 -166 122.5t16 403.5q51 288 135.5 413t229.5 125q80 0 129.5 -41.5t75.5 -134.5zM383 236q26 0 46 39t44 149l39 217q10 86 2.5 113.5t-37.5 27.5q-42 0 -61 -47.5
t-49 -216.5q-17 -93 -24 -144.5t-5 -84.5t12.5 -43t32.5 -10z" />
    <glyph glyph-name="aacute" unicode="&#xe1;" horiz-adv-x="923" 
d="M977 1454l-315 -285h-271l193 285h393zM580 868l28 156h316l-181 -1024h-315l23 131q-77 -81 -146 -116t-145 -35q-131 0 -166 122.5t16 403.5q51 288 135.5 413t229.5 125q80 0 129.5 -41.5t75.5 -134.5zM383 236q26 0 46 39t44 149l39 217q10 86 2.5 113.5t-37.5 27.5
q-42 0 -61 -47.5t-49 -216.5q-17 -93 -24 -144.5t-5 -84.5t12.5 -43t32.5 -10z" />
    <glyph glyph-name="acircumflex" unicode="&#xe2;" horiz-adv-x="923" 
d="M555 1307l-98 -138h-307l245 285h367l149 -285h-307zM608 1024h316l-181 -1024h-315l23 131q-77 -81 -146 -116t-145 -35q-131 0 -166 122.5t16 403.5q51 288 135.5 413t229.5 125q80 0 129.5 -41.5t75.5 -134.5zM383 236q26 0 46 39t44 149l39 217q10 86 2.5 113.5
t-37.5 27.5q-42 0 -61 -47.5t-49 -216.5q-17 -93 -24 -144.5t-5 -84.5t12.5 -43t32.5 -10z" />
    <glyph glyph-name="atilde" unicode="&#xe3;" horiz-adv-x="923" 
d="M469 1239q-60 0 -90 -70h-217q44 150 121.5 224.5t167.5 74.5q31 0 61.5 -11.5t50 -25t41 -25t37.5 -11.5q60 0 92 73h217q-47 -150 -125 -224.5t-166 -74.5q-39 0 -77 17.5t-67 35t-46 17.5zM580 868l28 156h316l-181 -1024h-315l23 131q-77 -81 -146 -116t-145 -35
q-131 0 -166 122.5t16 403.5q51 288 135.5 413t229.5 125q80 0 129.5 -41.5t75.5 -134.5zM383 236q26 0 46 39t44 149l39 217q10 86 2.5 113.5t-37.5 27.5q-42 0 -61 -47.5t-49 -216.5q-17 -93 -24 -144.5t-5 -84.5t12.5 -43t32.5 -10z" />
    <glyph glyph-name="adieresis" unicode="&#xe4;" horiz-adv-x="923" 
d="M522 1460l-51 -291h-270l51 291h270zM909 1460l-51 -291h-270l51 291h270zM608 1024h316l-181 -1024h-315l23 131q-77 -81 -146 -116t-145 -35q-131 0 -166 122.5t16 403.5q51 288 135.5 413t229.5 125q80 0 129.5 -41.5t75.5 -134.5zM383 236q26 0 46 39t44 149l39 217
q10 86 2.5 113.5t-37.5 27.5q-42 0 -61 -47.5t-49 -216.5q-17 -93 -24 -144.5t-5 -84.5t12.5 -43t32.5 -10z" />
    <glyph glyph-name="aring" unicode="&#xe5;" horiz-adv-x="923" 
d="M543 1169q-97 0 -160 64.5t-45 165.5q19 104 103 166.5t182 62.5q96 0 158.5 -63t43.5 -166q-18 -102 -101.5 -166t-180.5 -64zM510 1397q-5 -32 11 -53t48 -21q33 0 57 21.5t29 52.5q6 34 -10.5 55t-50.5 21q-31 0 -54.5 -21t-29.5 -55zM608 1024h316l-181 -1024h-315
l23 131q-77 -81 -146 -116t-145 -35q-131 0 -166 122.5t16 403.5q51 288 135.5 413t229.5 125q80 0 129.5 -41.5t75.5 -134.5zM383 236q26 0 46 39t44 149l39 217q10 86 2.5 113.5t-37.5 27.5q-42 0 -61 -47.5t-49 -216.5q-17 -93 -24 -144.5t-5 -84.5t12.5 -43t32.5 -10z
" />
    <glyph glyph-name="ae" unicode="&#xe6;" horiz-adv-x="1345" 
d="M981 1044q228 0 303.5 -127.5t22.5 -422.5q-5 -33 -11 -50h-465q-15 -128 16 -181.5t116 -53.5q67 0 118 12.5t109 42.5l-14 -213q-70 -38 -147 -54.5t-183 -16.5q-169 0 -259.5 58.5t-113.5 186.5q-73 -124 -160.5 -184.5t-173.5 -60.5q-97 0 -142.5 71.5t-19.5 220.5
q27 162 94 243t201 120l236 67l6 31q15 80 -63 80q-123 0 -312 -65l2 225q262 71 473 71q98 0 158 -36q85 36 209 36zM860 618h111l8 44q9 57 9 90t-9 48t-29 15q-30 0 -48.5 -34.5t-33.5 -118.5zM365 248q28 0 50.5 27t28.5 63v-2l39 225l-24 -8q-52 -14 -82.5 -52
t-44.5 -118q-24 -135 33 -135z" />
    <glyph glyph-name="ccedilla" unicode="&#xe7;" horiz-adv-x="757" 
d="M582 815q-86 0 -135.5 -69.5t-75.5 -227.5q-30 -166 -7.5 -237.5t103.5 -71.5q60 0 119 20l-4 -225q-107 -24 -230 -24l-28 -48q68 -10 110.5 -29t59 -43.5t20.5 -56t-4 -65.5q-11 -66 -57.5 -115t-119 -77t-157 -42t-182.5 -16v135q187 14 203 115q7 36 -12.5 62.5
t-82.5 43.5l103 150q-145 36 -189 160.5t-2 363.5q50 281 183 403.5t391 122.5q29 0 190 -16l-69 -313z" />
    <glyph glyph-name="egrave" unicode="&#xe8;" horiz-adv-x="909" 
d="M752 1169h-297l-217 285h378zM510 1044q228 0 303.5 -127.5t22.5 -422.5q-5 -33 -11 -50h-465q-15 -128 16 -181.5t116 -53.5q67 0 118 12.5t109 42.5l-14 -213q-70 -38 -147 -54.5t-183 -16.5q-243 0 -327.5 126t-33.5 414q50 280 165 402t331 122zM389 618h111l8 44
q9 57 9 90t-9 48t-29 15q-30 0 -48.5 -34.5t-33.5 -118.5z" />
    <glyph glyph-name="eacute" unicode="&#xe9;" horiz-adv-x="909" 
d="M1018 1454l-316 -285h-270l193 285h393zM510 1044q228 0 303.5 -127.5t22.5 -422.5q-5 -33 -11 -50h-465q-15 -128 16 -181.5t116 -53.5q67 0 118 12.5t109 42.5l-14 -213q-70 -38 -147 -54.5t-183 -16.5q-243 0 -327.5 126t-33.5 414q50 280 165 402t331 122zM389 618
h111l8 44q9 57 9 90t-9 48t-29 15q-30 0 -48.5 -34.5t-33.5 -118.5z" />
    <glyph glyph-name="ecircumflex" unicode="&#xea;" horiz-adv-x="909" 
d="M596 1307l-98 -138h-308l246 285h367l149 -285h-307zM510 1044q228 0 303.5 -127.5t22.5 -422.5q-5 -33 -11 -50h-465q-15 -128 16 -181.5t116 -53.5q67 0 118 12.5t109 42.5l-14 -213q-70 -38 -147 -54.5t-183 -16.5q-243 0 -327.5 126t-33.5 414q50 280 165 402
t331 122zM389 618h111l8 44q9 57 9 90t-9 48t-29 15q-30 0 -48.5 -34.5t-33.5 -118.5z" />
    <glyph glyph-name="edieresis" unicode="&#xeb;" horiz-adv-x="909" 
d="M563 1460l-51 -291h-270l51 291h270zM680 1460h270l-51 -291h-270zM510 1044q228 0 303.5 -127.5t22.5 -422.5q-5 -33 -11 -50h-465q-15 -128 16 -181.5t116 -53.5q67 0 118 12.5t109 42.5l-14 -213q-70 -38 -147 -54.5t-183 -16.5q-243 0 -327.5 126t-33.5 414
q50 280 165 402t331 122zM389 618h111l8 44q9 57 9 90t-9 48t-29 15q-30 0 -48.5 -34.5t-33.5 -118.5z" />
    <glyph glyph-name="igrave" unicode="&#xec;" horiz-adv-x="466" 
d="M205 1169l-217 285h379l135 -285h-297zM-57 0l180 1024h344l-180 -1024h-344z" />
    <glyph glyph-name="iacute" unicode="&#xed;" horiz-adv-x="466" 
d="M182 1169l193 285h393l-315 -285h-271zM-57 0l180 1024h344l-180 -1024h-344z" />
    <glyph glyph-name="icircumflex" unicode="&#xee;" horiz-adv-x="466" 
d="M346 1307l-98 -138h-307l245 285h367l149 -285h-307zM-57 0l180 1024h344l-180 -1024h-344z" />
    <glyph glyph-name="idieresis" unicode="&#xef;" horiz-adv-x="466" 
d="M-8 1169l51 291h270l-51 -291h-270zM379 1169l51 291h270l-51 -291h-270zM-57 0l180 1024h344l-180 -1024h-344z" />
    <glyph glyph-name="eth" unicode="&#xf0;" horiz-adv-x="991" 
d="M815 1235q201 -183 123 -627q-56 -320 -197.5 -474t-388.5 -154q-86 0 -153.5 27t-108.5 75t-65.5 114.5t-25 145t12.5 166.5q31 180 127 297t242 117q136 0 197 -72q6 94 -21 162l-76 -66l-80 94l80 70q-58 39 -143 39q-14 0 -28 -1.5t-31 -5.5t-27 -7t-30.5 -9
t-28.5 -8l16 203q109 37 207 37q170 0 291 -53l106 92l80 -94zM526 449q17 100 19.5 153t-7.5 72.5t-36 19.5q-40 0 -65 -50t-50 -195q-17 -98 -19 -150t9.5 -71t38.5 -19q38 0 61.5 48.5t48.5 191.5z" />
    <glyph glyph-name="ntilde" unicode="&#xf1;" horiz-adv-x="913" 
d="M512 1239q-60 0 -90 -70h-217q44 150 121.5 224.5t167.5 74.5q31 0 61.5 -11.5t50 -25t41 -25t37.5 -11.5q60 0 92 73h217q-47 -150 -125 -224.5t-166 -74.5q-39 0 -77 17.5t-67 35t-46 17.5zM717 1044q110 0 148.5 -57.5t15.5 -189.5l-142 -797h-344l121 682
q16 100 -35 100q-59 0 -75 -100l-121 -682h-342l180 1024l346 20l-25 -143q48 61 125 102t148 41z" />
    <glyph glyph-name="ograve" unicode="&#xf2;" horiz-adv-x="929" 
d="M442 1169l-217 285h379l135 -285h-297zM344 -20q-227 0 -304.5 124t-27.5 408q49 284 170.5 408t349.5 124q224 0 300.5 -124t27.5 -408t-169.5 -408t-346.5 -124zM385 209q23 0 36 9.5t27 45.5t25.5 90.5t30.5 161.5q19 105 26.5 157.5t6.5 88t-11.5 44.5t-33.5 9
q-32 0 -50 -22t-34 -82t-39 -195q-19 -106 -26.5 -161.5t-5.5 -91t13 -45t35 -9.5z" />
    <glyph glyph-name="oacute" unicode="&#xf3;" horiz-adv-x="929" 
d="M420 1169l192 285h394l-316 -285h-270zM344 -20q-227 0 -304.5 124t-27.5 408q49 284 170.5 408t349.5 124q224 0 300.5 -124t27.5 -408t-169.5 -408t-346.5 -124zM385 209q23 0 36 9.5t27 45.5t25.5 90.5t30.5 161.5q19 105 26.5 157.5t6.5 88t-11.5 44.5t-33.5 9
q-32 0 -50 -22t-34 -82t-39 -195q-19 -106 -26.5 -161.5t-5.5 -91t13 -45t35 -9.5z" />
    <glyph glyph-name="ocircumflex" unicode="&#xf4;" horiz-adv-x="929" 
d="M584 1307l-99 -138h-307l246 285h367l149 -285h-307zM532 1044q224 0 300.5 -124t27.5 -408t-169.5 -408t-346.5 -124q-227 0 -304.5 124t-27.5 408q49 284 170.5 408t349.5 124zM504 516q19 105 26.5 157.5t6.5 88t-11.5 44.5t-33.5 9q-32 0 -50 -22t-34 -82t-39 -195
q-19 -106 -26.5 -161.5t-5.5 -91t13 -45t35 -9.5q23 0 36 9.5t27 45.5t25.5 90.5t30.5 161.5z" />
    <glyph glyph-name="otilde" unicode="&#xf5;" horiz-adv-x="929" 
d="M688 1169q-39 0 -77 17.5t-67 35t-46 17.5q-60 0 -90 -70h-218q44 150 121.5 224.5t167.5 74.5q40 0 77 -18t66 -36.5t48 -18.5q60 0 92 73h217q-47 -150 -125 -224.5t-166 -74.5zM344 -20q-227 0 -304.5 124t-27.5 408q49 284 170.5 408t349.5 124q224 0 300.5 -124
t27.5 -408t-169.5 -408t-346.5 -124zM385 209q23 0 36 9.5t27 45.5t25.5 90.5t30.5 161.5q19 105 26.5 157.5t6.5 88t-11.5 44.5t-33.5 9q-32 0 -50 -22t-34 -82t-39 -195q-19 -106 -26.5 -161.5t-5.5 -91t13 -45t35 -9.5z" />
    <glyph glyph-name="odieresis" unicode="&#xf6;" horiz-adv-x="929" 
d="M229 1169l52 291h270l-51 -291h-271zM616 1169l52 291h270l-51 -291h-271zM344 -20q-227 0 -304.5 124t-27.5 408q49 284 170.5 408t349.5 124q224 0 300.5 -124t27.5 -408t-169.5 -408t-346.5 -124zM385 209q23 0 36 9.5t27 45.5t25.5 90.5t30.5 161.5
q19 105 26.5 157.5t6.5 88t-11.5 44.5t-33.5 9q-32 0 -50 -22t-34 -82t-39 -195q-19 -106 -26.5 -161.5t-5.5 -91t13 -45t35 -9.5z" />
    <glyph glyph-name="divide" unicode="&#xf7;" horiz-adv-x="829" 
d="M268 713l56 311h307l-53 -311h-310zM10 418l35 188h715l-33 -188h-717zM141 0l56 311h309l-55 -311h-310z" />
    <glyph glyph-name="oslash" unicode="&#xf8;" horiz-adv-x="929" 
d="M950 1024l-110 -117q67 -122 20 -395q-49 -284 -169.5 -408t-346.5 -124q-202 0 -283 94l-69 -74h-68l109 117q-68 124 -21 395q49 284 170.5 408t349.5 124q198 0 281 -96l70 76h67zM369 516q-6 -27 -9 -51l166 178q16 110 9 141t-43 31q-32 0 -50 -22t-34 -82t-39 -195
zM504 516l6 39l-164 -176q-14 -107 -6.5 -138.5t45.5 -31.5q23 0 36 9.5t27 45.5t25.5 90.5t30.5 161.5z" />
    <glyph glyph-name="ugrave" unicode="&#xf9;" horiz-adv-x="909" 
d="M719 1169h-297l-217 285h379zM567 1024h342l-180 -1024l-346 -20l25 143q-48 -61 -125 -102t-148 -41q-111 0 -149 57.5t-13 189.5l140 797h344l-123 -688q-16 -100 35 -100q52 0 75 86z" />
    <glyph glyph-name="uacute" unicode="&#xfa;" horiz-adv-x="909" 
d="M985 1454l-315 -285h-271l193 285h393zM444 322l123 702h342l-180 -1024l-346 -20l25 143q-48 -61 -125 -102t-148 -41q-111 0 -149 57.5t-13 189.5l140 797h344l-123 -688q-16 -100 35 -100q52 0 75 86z" />
    <glyph glyph-name="ucircumflex" unicode="&#xfb;" horiz-adv-x="909" 
d="M563 1307l-98 -138h-307l245 285h367l150 -285h-308zM444 322l123 702h342l-180 -1024l-346 -20l25 143q-48 -61 -125 -102t-148 -41q-111 0 -149 57.5t-13 189.5l140 797h344l-123 -688q-16 -100 35 -100q52 0 75 86z" />
    <glyph glyph-name="udieresis" unicode="&#xfc;" horiz-adv-x="909" 
d="M530 1460l-51 -291h-270l51 291h270zM918 1460l-52 -291h-270l51 291h271zM444 322l123 702h342l-180 -1024l-346 -20l25 143q-48 -61 -125 -102t-148 -41q-111 0 -149 57.5t-13 189.5l140 797h344l-123 -688q-16 -100 35 -100q52 0 75 86z" />
    <glyph glyph-name="yacute" unicode="&#xfd;" horiz-adv-x="774" 
d="M950 1454l-315 -285h-270l192 285h393zM403 418l236 606h203l-572 -1413h-202l155 389h-141l-27 1024h371z" />
    <glyph glyph-name="thorn" unicode="&#xfe;" horiz-adv-x="909" 
d="M678 1044q135 0 173 -120t-13 -418q-47 -271 -124.5 -398.5t-195.5 -127.5q-127 0 -215 120l-86 -489h-344l317 1796l347 20l-91 -514q107 131 232 131zM481 506q8 47 14 81t10 64.5t5.5 50.5t1 37t-3 26.5t-7.5 16t-12.5 9t-17.5 2.5q-16 0 -26.5 -10t-21.5 -44.5
t-21.5 -85.5t-26.5 -147q-11 -63 -18 -104t-11 -75.5t-4 -53t3.5 -31.5t10.5 -17t19 -4q19 0 31.5 10t24.5 44t23 85t27 146z" />
    <glyph glyph-name="ydieresis" unicode="&#xff;" horiz-adv-x="774" 
d="M496 1460l-52 -291h-270l51 291h271zM883 1460l-52 -291h-270l51 291h271zM403 418l236 606h203l-572 -1413h-202l155 389h-141l-27 1024h371z" />
    <glyph glyph-name="Amacron" unicode="&#x100;" horiz-adv-x="1017" 
d="M410 1679h616l-41 -225h-616zM866 1337l27 -1337h-383l-2 221h-283l-80 -221h-260l521 1337h460zM307 451h199l-4 548z" />
    <glyph glyph-name="amacron" unicode="&#x101;" horiz-adv-x="923" 
d="M827 1409l-41 -240h-512l41 240h512zM608 1024h316l-181 -1024h-315l23 131q-77 -81 -146 -116t-145 -35q-131 0 -166 122.5t16 403.5q51 288 135.5 413t229.5 125q80 0 129.5 -41.5t75.5 -134.5zM383 236q26 0 46 39t44 149l39 217q10 86 2.5 113.5t-37.5 27.5
q-42 0 -61 -47.5t-49 -216.5q-17 -93 -24 -144.5t-5 -84.5t12.5 -43t32.5 -10z" />
    <glyph glyph-name="Abreve" unicode="&#x102;" horiz-adv-x="1017" 
d="M793 1749h305q-25 -135 -139.5 -215t-284.5 -80q-164 0 -247 80t-58 215h297q-8 -40 5 -64t42 -24t50.5 24t29.5 64zM866 1337l27 -1337h-383l-2 221h-283l-80 -221h-260l521 1337h460zM307 451h199l-4 548z" />
    <glyph glyph-name="abreve" unicode="&#x103;" horiz-adv-x="923" 
d="M528 1169q-164 0 -248 77.5t-61 207.5h307q-6 -35 5 -55.5t36 -20.5t42.5 20.5t23.5 55.5h307q-23 -131 -134.5 -208t-277.5 -77zM580 868l28 156h316l-181 -1024h-315l23 131q-77 -81 -146 -116t-145 -35q-131 0 -166 122.5t16 403.5q51 288 135.5 413t229.5 125
q80 0 129.5 -41.5t75.5 -134.5zM383 236q26 0 46 39t44 149l39 217q10 86 2.5 113.5t-37.5 27.5q-42 0 -61 -47.5t-49 -216.5q-17 -93 -24 -144.5t-5 -84.5t12.5 -43t32.5 -10z" />
    <glyph glyph-name="Aogonek" unicode="&#x104;" horiz-adv-x="1017" 
d="M633 -209q-6 -34 10.5 -57t54.5 -23q21 0 72 17l-8 -187q-75 -28 -180 -28q-100 0 -150 43t-37 125q13 72 90 169t162 150h-137l-2 221h-283l-80 -221h-260l521 1337h460l27 -1337h-76q-91 -68 -134 -116.5t-50 -92.5zM307 451h199l-4 548z" />
    <glyph glyph-name="aogonek" unicode="&#x105;" horiz-adv-x="923" 
d="M715 0q-91 -69 -134.5 -117.5t-50.5 -91.5q-6 -34 11 -57t55 -23q21 0 72 17l-9 -187q-75 -28 -180 -28q-100 0 -149.5 43t-36.5 125q13 72 90 169t162 150h-117l23 131q-77 -81 -146 -116t-145 -35q-131 0 -166 122.5t16 403.5q51 288 135.5 413t229.5 125
q80 0 129.5 -41.5t75.5 -134.5l28 156h316l-181 -1024h-28zM383 236q26 0 46 39t44 149l39 217q10 86 2.5 113.5t-37.5 27.5q-42 0 -61 -47.5t-49 -216.5q-17 -93 -24 -144.5t-5 -84.5t12.5 -43t32.5 -10z" />
    <glyph glyph-name="Cacute" unicode="&#x106;" horiz-adv-x="837" 
d="M442 1454l215 293h400l-318 -293h-297zM393 -20q-239 0 -315 162t-10 534q65 364 210.5 523t415.5 159q3 0 240 -21l-76 -323l-164 88q-78 0 -130 -99.5t-93 -326.5q-41 -238 -26 -342.5t90 -104.5q59 0 147 27v-246q-133 -30 -289 -30z" />
    <glyph glyph-name="cacute" unicode="&#x107;" horiz-adv-x="757" 
d="M356 1169l193 285h393l-315 -285h-271zM350 -20q-234 0 -310.5 124.5t-25.5 413.5q50 281 183 403.5t391 122.5q29 0 190 -16l-69 -313l-127 100q-86 0 -135.5 -69.5t-75.5 -227.5q-30 -166 -7.5 -237.5t103.5 -71.5q60 0 119 20l-4 -225q-107 -24 -232 -24z" />
    <glyph glyph-name="Ccircumflex" unicode="&#x108;" horiz-adv-x="837" 
d="M627 1595l-109 -145h-366l256 295h489l154 -295h-367zM68 676q65 364 210.5 523t415.5 159q3 0 240 -21l-76 -323l-164 88q-78 0 -130 -99.5t-93 -326.5q-41 -238 -26 -342.5t90 -104.5q59 0 147 27v-246q-133 -30 -289 -30q-239 0 -315 162t-10 534z" />
    <glyph glyph-name="ccircumflex" unicode="&#x109;" horiz-adv-x="757" 
d="M520 1307l-98 -138h-307l245 285h367l150 -285h-308zM14 518q50 281 183 403.5t391 122.5q29 0 190 -16l-69 -313l-127 100q-86 0 -135.5 -69.5t-75.5 -227.5q-30 -166 -7.5 -237.5t103.5 -71.5q60 0 119 20l-4 -225q-107 -24 -232 -24q-234 0 -310.5 124.5t-25.5 413.5z
" />
    <glyph glyph-name="Cdotaccent" unicode="&#x10a;" horiz-adv-x="837" 
d="M428 1454l59 336h349l-60 -336h-348zM393 -20q-239 0 -315 162t-10 534q65 364 210.5 523t415.5 159q3 0 240 -21l-76 -323l-164 88q-78 0 -130 -99.5t-93 -326.5q-41 -238 -26 -342.5t90 -104.5q59 0 147 27v-246q-133 -30 -289 -30z" />
    <glyph glyph-name="cdotaccent" unicode="&#x10b;" horiz-adv-x="757" 
d="M322 1169l51 295h340l-51 -295h-340zM350 -20q-234 0 -310.5 124.5t-25.5 413.5q50 281 183 403.5t391 122.5q29 0 190 -16l-69 -313l-127 100q-86 0 -135.5 -69.5t-75.5 -227.5q-30 -166 -7.5 -237.5t103.5 -71.5q60 0 119 20l-4 -225q-107 -24 -232 -24z" />
    <glyph glyph-name="Ccaron" unicode="&#x10c;" horiz-adv-x="837" 
d="M377 1454l-195 293h387l64 -121l102 121h387l-297 -293h-448zM68 676q65 364 210.5 523t415.5 159q3 0 240 -21l-76 -323l-164 88q-78 0 -130 -99.5t-93 -326.5q-41 -238 -26 -342.5t90 -104.5q59 0 147 27v-246q-133 -30 -289 -30q-239 0 -315 162t-10 534z" />
    <glyph glyph-name="ccaron" unicode="&#x10d;" horiz-adv-x="757" 
d="M332 1169l-168 285h307l51 -125l96 125h308l-269 -285h-325zM14 518q50 281 183 403.5t391 122.5q29 0 190 -16l-69 -313l-127 100q-86 0 -135.5 -69.5t-75.5 -227.5q-30 -166 -7.5 -237.5t103.5 -71.5q60 0 119 20l-4 -225q-107 -24 -232 -24q-234 0 -310.5 124.5
t-25.5 413.5z" />
    <glyph glyph-name="Dcaron" unicode="&#x10e;" horiz-adv-x="1089" 
d="M420 1454l-195 293h387l64 -121l102 121h387l-297 -293h-448zM657 1337q257 0 341.5 -151t23.5 -500q-66 -367 -205.5 -526.5t-394.5 -159.5h-459l236 1337h458zM618 672q40 233 28 334.5t-79 101.5h-26l-154 -879h27q68 0 115.5 103.5t88.5 339.5z" />
    <glyph glyph-name="dcaron" unicode="&#x10f;" horiz-adv-x="1345" 
d="M651 1415h342l-248 -1415h-315l23 133q-150 -153 -291 -153q-138 0 -171 121.5t21 404.5q51 286 137 412t228 126q68 0 113.5 -29.5t72.5 -94.5zM1071 1337h389l-76 -428q-20 -110 -92.5 -193t-166 -122t-191.5 -39l35 205q63 0 116.5 37t63.5 96l10 55h-155zM385 236
q26 0 46.5 40t45.5 154l35 199q10 61 8.5 95t-11 46t-30.5 12q-42 0 -61 -47.5t-49 -216.5q-17 -93 -24 -144.5t-5 -84.5t12.5 -43t32.5 -10z" />
    <glyph glyph-name="Dcroat" unicode="&#x110;" horiz-adv-x="1087" 
d="M657 1337q257 0 341.5 -151t23.5 -500q-66 -367 -205.5 -526.5t-394.5 -159.5h-459l100 565h-61l39 232h63l95 540h458zM618 672q40 233 28 334.5t-79 101.5h-26l-54 -311h91l-41 -232h-91l-59 -336h27q68 0 115.5 103.5t88.5 339.5z" />
    <glyph glyph-name="dcroat" unicode="&#x111;" horiz-adv-x="899" 
d="M1001 1243l-20 -117h-39l-197 -1126h-315l23 133q-150 -153 -291 -153q-138 0 -171 121.5t21 404.5q51 286 137 412t228 126q68 0 113.5 -29.5t72.5 -94.5l37 206h-281l21 117h281l30 172h342l-30 -172h38zM385 236q26 0 46.5 40t45.5 154l35 199q10 61 8.5 95t-11 46
t-30.5 12q-42 0 -61 -47.5t-49 -216.5q-17 -93 -24 -144.5t-5 -84.5t12.5 -43t32.5 -10z" />
    <glyph glyph-name="Emacron" unicode="&#x112;" horiz-adv-x="940" 
d="M940 1679l-41 -225h-616l41 225h616zM920 1108h-379l-52 -289h351l-39 -229h-350l-64 -361h391l-39 -229h-776l236 1337h762z" />
    <glyph glyph-name="emacron" unicode="&#x113;" horiz-adv-x="909" 
d="M868 1409l-41 -240h-512l41 240h512zM510 1044q228 0 303.5 -127.5t22.5 -422.5q-5 -33 -11 -50h-465q-15 -128 16 -181.5t116 -53.5q67 0 118 12.5t109 42.5l-14 -213q-70 -38 -147 -54.5t-183 -16.5q-243 0 -327.5 126t-33.5 414q50 280 165 402t331 122zM389 618h111
l8 44q9 57 9 90t-9 48t-29 15q-30 0 -48.5 -34.5t-33.5 -118.5z" />
    <glyph glyph-name="Ebreve" unicode="&#x114;" horiz-adv-x="940" 
d="M588 1454q-164 0 -247 80t-58 215h297q-8 -40 5 -64t42 -24t50.5 24t29.5 64h305q-25 -135 -139.5 -215t-284.5 -80zM961 1337l-41 -229h-379l-52 -289h351l-39 -229h-350l-64 -361h391l-39 -229h-776l236 1337h762z" />
    <glyph glyph-name="ebreve" unicode="&#x115;" horiz-adv-x="909" 
d="M674 1454h307q-23 -131 -134.5 -208t-277.5 -77q-164 0 -248 77.5t-61 207.5h307q-6 -35 5 -55.5t36 -20.5t42.5 20.5t23.5 55.5zM510 1044q228 0 303.5 -127.5t22.5 -422.5q-5 -33 -11 -50h-465q-15 -128 16 -181.5t116 -53.5q67 0 118 12.5t109 42.5l-14 -213
q-70 -38 -147 -54.5t-183 -16.5q-243 0 -327.5 126t-33.5 414q50 280 165 402t331 122zM389 618h111l8 44q9 57 9 90t-9 48t-29 15q-30 0 -48.5 -34.5t-33.5 -118.5z" />
    <glyph glyph-name="Edotaccent" unicode="&#x116;" horiz-adv-x="940" 
d="M823 1790l-59 -336h-348l59 336h348zM920 1108h-379l-52 -289h351l-39 -229h-350l-64 -361h391l-39 -229h-776l236 1337h762z" />
    <glyph glyph-name="edotaccent" unicode="&#x117;" horiz-adv-x="909" 
d="M788 1464l-51 -295h-340l52 295h339zM510 1044q228 0 303.5 -127.5t22.5 -422.5q-5 -33 -11 -50h-465q-15 -128 16 -181.5t116 -53.5q67 0 118 12.5t109 42.5l-14 -213q-70 -38 -147 -54.5t-183 -16.5q-243 0 -327.5 126t-33.5 414q50 280 165 402t331 122zM389 618h111
l8 44q9 57 9 90t-9 48t-29 15q-30 0 -48.5 -34.5t-33.5 -118.5z" />
    <glyph glyph-name="Eogonek" unicode="&#x118;" horiz-adv-x="940" 
d="M920 1108h-379l-52 -289h351l-39 -229h-350l-64 -361h391l-39 -229h-43q-91 -68 -134 -116.5t-50 -92.5q-6 -34 11 -57t55 -23q20 0 71 17l-8 -187q-75 -28 -180 -28q-100 0 -150 43t-37 125q13 72 90 169t162 150h-563l236 1337h762z" />
    <glyph glyph-name="eogonek" unicode="&#x119;" horiz-adv-x="909" 
d="M510 1044q228 0 303.5 -127.5t22.5 -422.5q-5 -33 -11 -50h-465q-15 -128 16 -181.5t116 -53.5q67 0 118 12.5t109 42.5l-14 -213l-37 -18q-85 -65 -127 -113t-49 -90q-6 -34 10.5 -57t54.5 -23q21 0 72 17l-8 -187q-78 -29 -181 -29q-100 0 -149.5 43t-36.5 125
q10 56 60 129.5t116 133.5q-18 -2 -55 -2q-243 0 -327.5 126t-33.5 414q50 280 165 402t331 122zM389 618h111l8 44q9 57 9 90t-9 48t-29 15q-30 0 -48.5 -34.5t-33.5 -118.5z" />
    <glyph glyph-name="Ecaron" unicode="&#x11a;" horiz-adv-x="940" 
d="M365 1454l-195 293h387l64 -121l102 121h387l-297 -293h-448zM961 1337l-41 -229h-379l-52 -289h351l-39 -229h-350l-64 -361h391l-39 -229h-776l236 1337h762z" />
    <glyph glyph-name="ecaron" unicode="&#x11b;" horiz-adv-x="909" 
d="M408 1169l-168 285h307l51 -125l96 125h307l-268 -285h-325zM510 1044q228 0 303.5 -127.5t22.5 -422.5q-5 -33 -11 -50h-465q-15 -128 16 -181.5t116 -53.5q67 0 118 12.5t109 42.5l-14 -213q-70 -38 -147 -54.5t-183 -16.5q-243 0 -327.5 126t-33.5 414q50 280 165 402
t331 122zM389 618h111l8 44q9 57 9 90t-9 48t-29 15q-30 0 -48.5 -34.5t-33.5 -118.5z" />
    <glyph glyph-name="Gcircumflex" unicode="&#x11c;" horiz-adv-x="1083" 
d="M741 1595l-108 -145h-367l256 295h490l153 -295h-366zM66 659q66 374 251.5 536.5t546.5 162.5q98 0 234 -25l-45 -250q-76 25 -170 25q-180 0 -277 -101t-137 -331q-41 -238 -10 -342.5t145 -104.5h29l49 297h-111l39 230h414l-123 -707q-176 -69 -348 -69
q-324 0 -437.5 158.5t-49.5 520.5z" />
    <glyph glyph-name="gcircumflex" unicode="&#x11d;" horiz-adv-x="925" 
d="M604 1307l-98 -138h-307l245 285h367l150 -285h-308zM573 887l25 137l332 20l-172 -970q-21 -118 -77.5 -212t-135.5 -152.5t-173.5 -89t-195.5 -30.5q-157 0 -280 48l73 251q106 -47 215 -47q191 0 222 178l14 78q-128 -118 -242 -118q-140 0 -179.5 122.5t11.5 403.5
q51 288 140.5 413t244.5 125q124 0 178 -157zM385 236q35 0 53 40t43 175l25 139q14 79 15.5 120t-7.5 56.5t-31 15.5q-44 0 -65.5 -54t-50.5 -222q-16 -90 -22.5 -143.5t-3 -81.5t13.5 -36.5t30 -8.5z" />
    <glyph glyph-name="Gbreve" unicode="&#x11e;" horiz-adv-x="1083" 
d="M715 1454q-164 0 -247 80t-58 215h297q-8 -40 5 -64t42 -24t50.5 24t29.5 64h305q-25 -135 -139.5 -215t-284.5 -80zM66 659q66 374 251.5 536.5t546.5 162.5q98 0 234 -25l-45 -250q-76 25 -170 25q-180 0 -277 -101t-137 -331q-41 -238 -10 -342.5t145 -104.5h29
l49 297h-111l39 230h414l-123 -707q-176 -69 -348 -69q-324 0 -437.5 158.5t-49.5 520.5z" />
    <glyph glyph-name="gbreve" unicode="&#x11f;" horiz-adv-x="925" 
d="M578 1169q-164 0 -248.5 77.5t-61.5 207.5h307q-6 -35 5 -55.5t36 -20.5t42.5 20.5t23.5 55.5h307q-23 -131 -134 -208t-277 -77zM573 887l25 137l332 20l-172 -970q-21 -118 -77.5 -212t-135.5 -152.5t-173.5 -89t-195.5 -30.5q-157 0 -280 48l73 251q106 -47 215 -47
q191 0 222 178l14 78q-128 -118 -242 -118q-140 0 -179.5 122.5t11.5 403.5q51 288 140.5 413t244.5 125q124 0 178 -157zM385 236q35 0 53 40t43 175l25 139q14 79 15.5 120t-7.5 56.5t-31 15.5q-44 0 -65.5 -54t-50.5 -222q-16 -90 -22.5 -143.5t-3 -81.5t13.5 -36.5
t30 -8.5z" />
    <glyph glyph-name="Gdotaccent" unicode="&#x120;" horiz-adv-x="1083" 
d="M950 1790l-59 -336h-348l59 336h348zM883 1108q-180 0 -277 -101t-137 -331q-41 -238 -10 -342.5t145 -104.5h29l49 297h-111l39 230h414l-123 -707q-176 -69 -348 -69q-324 0 -437.5 158.5t-49.5 520.5q66 374 251.5 536.5t546.5 162.5q98 0 234 -25l-45 -250
q-76 25 -170 25z" />
    <glyph glyph-name="gdotaccent" unicode="&#x121;" horiz-adv-x="925" 
d="M797 1464l-52 -295h-339l51 295h340zM598 1024l332 20l-172 -970q-21 -118 -77.5 -212t-135.5 -152.5t-173.5 -89t-195.5 -30.5q-157 0 -280 48l73 251q106 -47 215 -47q191 0 222 178l14 78q-128 -118 -242 -118q-140 0 -179.5 122.5t11.5 403.5q51 288 140.5 413
t244.5 125q124 0 178 -157zM385 236q35 0 53 40t43 175l25 139q14 79 15.5 120t-7.5 56.5t-31 15.5q-44 0 -65.5 -54t-50.5 -222q-16 -90 -22.5 -143.5t-3 -81.5t13.5 -36.5t30 -8.5z" />
    <glyph glyph-name="uni0122" unicode="&#x122;" horiz-adv-x="1083" 
d="M883 1108q-180 0 -277 -101t-137 -331q-41 -238 -10 -342.5t145 -104.5h29l49 297h-111l39 230h414l-123 -707q-176 -69 -348 -69q-324 0 -437.5 158.5t-49.5 520.5q66 374 251.5 536.5t546.5 162.5q98 0 234 -25l-45 -250q-76 25 -170 25zM289 -143h389l-62 -346
l-14 -82q-15 -83 -61 -152t-109.5 -112.5t-136.5 -67t-145 -23.5l36 205q63 0 116 37t63 96l10 56h-156z" />
    <glyph glyph-name="uni0123" unicode="&#x123;" horiz-adv-x="925" 
d="M741 1147h-331l41 239l10 62l6 31l6 32q17 94 78.5 164.5t141 103.5t163.5 33l-31 -174q-53 0 -97.5 -31.5t-53.5 -82.5l-8 -45h133zM598 1024l332 20l-172 -970q-21 -118 -77.5 -212t-135.5 -152.5t-173.5 -89t-195.5 -30.5q-157 0 -280 48l73 251q106 -47 215 -47
q191 0 222 178l14 78q-128 -118 -242 -118q-140 0 -179.5 122.5t11.5 403.5q51 288 140.5 413t244.5 125q124 0 178 -157zM385 236q35 0 53 40t43 175l25 139q14 79 15.5 120t-7.5 56.5t-31 15.5q-44 0 -65.5 -54t-50.5 -222q-16 -90 -22.5 -143.5t-3 -81.5t13.5 -36.5
t30 -8.5z" />
    <glyph glyph-name="Hcircumflex" unicode="&#x124;" horiz-adv-x="1093" 
d="M737 1595l-108 -145h-367l256 295h490l153 -295h-366zM653 819l92 518h383l-235 -1337h-383l104 590h-163l-105 -590h-383l236 1337h383l-93 -518h164z" />
    <glyph glyph-name="hcircumflex" unicode="&#x125;" horiz-adv-x="913" 
d="M410 1675l-109 -145h-367l256 295h490l154 -295h-367zM717 1044q110 0 148.5 -57.5t15.5 -189.5l-142 -797h-344l121 682q16 100 -35 100q-59 0 -75 -100l-121 -682h-342l245 1395l347 20l-91 -514q48 61 125 102t148 41z" />
    <glyph glyph-name="Hbar" unicode="&#x126;" horiz-adv-x="1093" 
d="M1188 1108l-23 -129h-100l-172 -979h-383l104 590h-163l-105 -590h-383l172 979h-84l23 129h84l41 229h383l-41 -229h164l40 229h383l-41 -229h101zM653 819l29 160h-164l-29 -160h164z" />
    <glyph glyph-name="hbar" unicode="&#x127;" horiz-adv-x="913" 
d="M717 1044q110 0 148.5 -57.5t15.5 -189.5l-142 -797h-344l121 682q16 100 -35 100q-59 0 -75 -100l-121 -682h-342l198 1126h-75l20 117h76l26 152l347 20l-31 -172h244l-21 -117h-244l-39 -225q48 61 125 102t148 41z" />
    <glyph glyph-name="Itilde" unicode="&#x128;" horiz-adv-x="546" 
d="M-12 1454q43 137 136 218t208 81q41 0 80 -18.5t69.5 -37t50.5 -18.5q32 0 60 20t43 54h248q-46 -137 -140 -218t-206 -81q-40 0 -80.5 17.5t-71.5 35t-49 17.5q-31 0 -58 -19t-42 -51h-248zM-37 0l236 1337h383l-236 -1337h-383z" />
    <glyph glyph-name="itilde" unicode="&#x129;" horiz-adv-x="466" 
d="M451 1169q-39 0 -77.5 17.5t-67.5 35t-46 17.5q-60 0 -90 -70h-217q44 150 121.5 224.5t167.5 74.5q31 0 61.5 -11.5t50 -25t41 -25t37.5 -11.5q60 0 92 73h217q-47 -150 -125 -224.5t-165 -74.5zM-57 0l180 1024h344l-180 -1024h-344z" />
    <glyph glyph-name="Imacron" unicode="&#x12a;" horiz-adv-x="546" 
d="M104 1454l41 225h617l-41 -225h-617zM-37 0l236 1337h383l-236 -1337h-383z" />
    <glyph glyph-name="imacron" unicode="&#x12b;" horiz-adv-x="466" 
d="M66 1169l40 240h512l-40 -240h-512zM-57 0l180 1024h344l-180 -1024h-344z" />
    <glyph glyph-name="Ibreve" unicode="&#x12c;" horiz-adv-x="546" 
d="M410 1454q-164 0 -247.5 80t-58.5 215h297q-8 -40 5.5 -64t42.5 -24t50 24t29 64h306q-25 -135 -139.5 -215t-284.5 -80zM-37 0l236 1337h383l-236 -1337h-383z" />
    <glyph glyph-name="ibreve" unicode="&#x12d;" horiz-adv-x="466" 
d="M319 1169q-164 0 -248 77.5t-61 207.5h307q-6 -35 5 -55.5t36 -20.5t42.5 20.5t23.5 55.5h307q-23 -131 -134.5 -208t-277.5 -77zM-57 0l180 1024h344l-180 -1024h-344z" />
    <glyph glyph-name="Iogonek" unicode="&#x12e;" horiz-adv-x="546" 
d="M274 0q-91 -68 -134 -116.5t-50 -92.5q-6 -34 11 -57t55 -23q20 0 71 17l-8 -187q-75 -28 -180 -28q-100 0 -149.5 43t-36.5 125q13 73 90 169.5t161 149.5h-141l236 1337h383l-236 -1337h-72z" />
    <glyph glyph-name="iogonek" unicode="&#x12f;" horiz-adv-x="466" 
d="M199 1464h340l-52 -295h-340zM-57 0l180 1024h344l-180 -1024h-54q-91 -68 -134 -116.5t-50 -92.5q-6 -34 11 -57t55 -23q20 0 71 17l-8 -187q-75 -28 -180 -28q-100 0 -149.5 43t-36.5 125q13 73 90 169.5t161 149.5h-120z" />
    <glyph glyph-name="Idotaccent" unicode="&#x130;" horiz-adv-x="546" 
d="M238 1454l59 336h348l-59 -336h-348zM-37 0l236 1337h383l-236 -1337h-383z" />
    <glyph glyph-name="dotlessi" unicode="&#x131;" horiz-adv-x="466" 
d="M-57 0l180 1024h344l-180 -1024h-344z" />
    <glyph glyph-name="Jcircumflex" unicode="&#x134;" horiz-adv-x="544" 
d="M434 1595l-108 -145h-367l256 295h490l153 -295h-366zM-41 -14l240 1351h381l-232 -1310q-41 -240 -167 -338.5t-392 -98.5q-35 0 -96 7l39 229q12 -6 32 -6q91 0 135.5 37.5t59.5 128.5z" />
    <glyph glyph-name="jcircumflex" unicode="&#x135;" horiz-adv-x="464" 
d="M346 1307l-98 -138h-307l245 285h367l149 -285h-307zM-66 -39l189 1063h342l-195 -1106q-32 -190 -106 -260t-244 -70q-100 0 -227 31l76 250q54 -6 55 -6q54 0 77.5 20.5t32.5 77.5z" />
    <glyph glyph-name="uni0136" unicode="&#x136;" horiz-adv-x="1093" 
d="M1190 1337l-393 -471l159 -866h-389l-86 489l-61 -75l-74 -414h-383l236 1337h383l-70 -395l311 395h367zM238 -143h389l-62 -346l-14 -82q-20 -110 -93 -193t-167.5 -122.5t-192.5 -39.5l37 205q63 0 115.5 37t62.5 96l11 56h-156z" />
    <glyph glyph-name="uni0137" unicode="&#x137;" horiz-adv-x="923" 
d="M956 1024l-282 -332l112 -692h-346l-53 354l-49 -57l-53 -297h-342l245 1395l347 20l-121 -688l223 297h319zM154 -143h389l-62 -346l-14 -82q-20 -110 -93 -193t-167.5 -122.5t-192.5 -39.5l37 205q63 0 115.5 37t62.5 96l11 56h-156z" />
    <glyph glyph-name="kgreenlandic" unicode="&#x138;" horiz-adv-x="929" 
d="M973 1024l-297 -340l117 -684h-367l-43 348l-47 -53l-51 -295h-342l180 1026l346 21l-51 -293l192 270h363z" />
    <glyph glyph-name="Lacute" unicode="&#x139;" horiz-adv-x="839" 
d="M866 1747l-317 -293h-297l215 293h399zM582 1337l-195 -1108h342l-41 -229h-725l236 1337h383z" />
    <glyph glyph-name="lacute" unicode="&#x13a;" horiz-adv-x="464" 
d="M219 1534l215 293h400l-318 -293h-297zM-57 0l245 1395l347 20l-250 -1415h-342z" />
    <glyph glyph-name="uni013B" unicode="&#x13b;" horiz-adv-x="839" 
d="M387 229h342l-41 -229h-725l236 1337h383zM106 -143h390l-62 -346l-14 -82q-20 -110 -93 -193t-167.5 -122.5t-192.5 -39.5l37 205q63 0 115.5 37t62.5 96l11 56h-156z" />
    <glyph glyph-name="uni013C" unicode="&#x13c;" horiz-adv-x="464" 
d="M535 1415l-250 -1415h-342l245 1395zM-76 -143h389l-61 -346l-14 -82q-20 -110 -93 -193t-167.5 -122.5t-192.5 -39.5l37 205q63 0 115.5 37t62.5 96l10 56h-155z" />
    <glyph glyph-name="Lcaron" unicode="&#x13d;" horiz-adv-x="1077" 
d="M582 1337l-195 -1108h342l-41 -229h-725l236 1337h383zM739 1337h389l-75 -428q-15 -83 -61 -152t-109 -112t-135.5 -66.5t-145.5 -23.5l35 205q63 0 116.5 37t63.5 96l10 55h-155z" />
    <glyph glyph-name="lcaron" unicode="&#x13e;" horiz-adv-x="935" 
d="M188 1395l347 20l-250 -1415h-342zM643 1337h389l-76 -428q-20 -110 -92.5 -193t-166 -122t-191.5 -39l35 205q63 0 116.5 37t63.5 96l10 55h-156z" />
    <glyph glyph-name="Lslash" unicode="&#x141;" horiz-adv-x="839" 
d="M387 229h342l-41 -229h-725l62 346l-80 -51l26 158l80 51l148 833h383l-111 -624l213 129l-27 -158l-213 -129z" />
    <glyph glyph-name="lslash" unicode="&#x142;" horiz-adv-x="477" 
d="M547 901l-27 -160l-106 -47l-123 -694h-342l92 528l-100 -49l28 160l101 49l125 707l346 20l-101 -563z" />
    <glyph glyph-name="Nacute" unicode="&#x143;" horiz-adv-x="1091" 
d="M1147 1747l-318 -293h-297l216 293h399zM770 639l123 698h233l-235 -1337h-303l-260 741l-131 -741h-234l236 1337h338z" />
    <glyph glyph-name="nacute" unicode="&#x144;" horiz-adv-x="913" 
d="M1020 1454l-315 -285h-271l193 285h393zM717 1044q110 0 148.5 -57.5t15.5 -189.5l-142 -797h-344l121 682q16 100 -35 100q-59 0 -75 -100l-121 -682h-342l180 1024l346 20l-25 -143q48 61 125 102t148 41z" />
    <glyph glyph-name="uni0145" unicode="&#x145;" horiz-adv-x="1091" 
d="M893 1337h233l-235 -1337h-303l-260 741l-131 -741h-234l236 1337h338l233 -698zM238 -143h389l-62 -346l-14 -82q-20 -110 -93 -193t-167.5 -122.5t-192.5 -39.5l37 205q63 0 115.5 37t62.5 96l11 56h-156z" />
    <glyph glyph-name="uni0146" unicode="&#x146;" horiz-adv-x="913" 
d="M717 1044q110 0 148.5 -57.5t15.5 -189.5l-142 -797h-344l121 682q16 100 -35 100q-59 0 -75 -100l-121 -682h-342l180 1024l346 20l-25 -143q48 61 125 102t148 41zM147 -143h390l-62 -346l-14 -82q-20 -110 -93 -193t-167.5 -122.5t-192.5 -39.5l37 205q63 0 115.5 37
t62.5 96l10 56h-155z" />
    <glyph glyph-name="Ncaron" unicode="&#x147;" horiz-adv-x="1091" 
d="M467 1454l-195 293h387l64 -121l102 121h387l-297 -293h-448zM770 639l123 698h233l-235 -1337h-303l-260 741l-131 -741h-234l236 1337h338z" />
    <glyph glyph-name="ncaron" unicode="&#x148;" horiz-adv-x="913" 
d="M410 1169l-168 285h307l51 -125l96 125h308l-269 -285h-325zM717 1044q110 0 148.5 -57.5t15.5 -189.5l-142 -797h-344l121 682q16 100 -35 100q-59 0 -75 -100l-121 -682h-342l180 1024l346 20l-25 -143q48 61 125 102t148 41z" />
    <glyph glyph-name="napostrophe" unicode="&#x149;" horiz-adv-x="1396" 
d="M555 1337l-76 -428q-20 -110 -92.5 -193t-166 -122t-191.5 -39l34 205q63 0 117 37t64 96l10 55h-156l68 389h389zM1200 1044q110 0 148.5 -57.5t15.5 -189.5l-141 -797h-344l120 682q16 100 -34 100q-60 0 -76 -100l-121 -682h-342l180 1024l346 20l-24 -143
q48 61 124.5 102t147.5 41z" />
    <glyph glyph-name="Eng" unicode="&#x14a;" horiz-adv-x="1050" 
d="M854 1337h231l-260 -1478q-28 -155 -84.5 -212t-185.5 -57q-66 0 -184 31l67 209q7 -1 19.5 -2.5t22 -2.5t14.5 -1q55 0 78 20.5t34 77.5l15 78h-33l-262 745l-131 -745h-232l236 1337h338l208 -622z" />
    <glyph glyph-name="eng" unicode="&#x14b;" horiz-adv-x="911" 
d="M715 1044q208 0 162 -247l-144 -822q-40 -222 -119 -303.5t-260 -81.5q-77 0 -209 31l76 250q54 -6 55 -6q54 0 78 20.5t33 77.5l121 682q16 100 -35 100q-58 0 -74 -100l-2 -2l-112 -643h-342l180 1024l346 20l-25 -143q48 61 124.5 102t146.5 41z" />
    <glyph glyph-name="Omacron" unicode="&#x14c;" horiz-adv-x="1118" 
d="M395 1454l41 225h617l-41 -225h-617zM434 -20q-262 0 -346.5 159t-19.5 533q66 369 207 527.5t403 158.5q265 0 350.5 -158t20.5 -528q-66 -373 -207.5 -532.5t-407.5 -159.5zM483 229q50 0 84 93.5t78 349.5q23 130 33.5 211.5t9.5 133t-14 71.5t-39 20
q-35 0 -60.5 -39.5t-49.5 -131.5t-54 -265q-23 -130 -33.5 -213.5t-8.5 -135.5t15 -73t39 -21z" />
    <glyph glyph-name="omacron" unicode="&#x14d;" horiz-adv-x="929" 
d="M303 1169l41 240h512l-41 -240h-512zM344 -20q-227 0 -304.5 124t-27.5 408q49 284 170.5 408t349.5 124q224 0 300.5 -124t27.5 -408t-169.5 -408t-346.5 -124zM385 209q23 0 36 9.5t27 45.5t25.5 90.5t30.5 161.5q19 105 26.5 157.5t6.5 88t-11.5 44.5t-33.5 9
q-32 0 -50 -22t-34 -82t-39 -195q-19 -106 -26.5 -161.5t-5.5 -91t13 -45t35 -9.5z" />
    <glyph glyph-name="Obreve" unicode="&#x14e;" horiz-adv-x="1118" 
d="M700 1454q-164 0 -247 80t-58 215h297q-8 -40 5 -64t42 -24t50.5 24t29.5 64h305q-25 -135 -139.5 -215t-284.5 -80zM434 -20q-262 0 -346.5 159t-19.5 533q66 369 207 527.5t403 158.5q265 0 350.5 -158t20.5 -528q-66 -373 -207.5 -532.5t-407.5 -159.5zM483 229
q50 0 84 93.5t78 349.5q23 130 33.5 211.5t9.5 133t-14 71.5t-39 20q-35 0 -60.5 -39.5t-49.5 -131.5t-54 -265q-23 -130 -33.5 -213.5t-8.5 -135.5t15 -73t39 -21z" />
    <glyph glyph-name="obreve" unicode="&#x14f;" horiz-adv-x="929" 
d="M557 1169q-164 0 -248 77.5t-61 207.5h307q-6 -35 5 -55.5t36 -20.5t42.5 20.5t23.5 55.5h307q-23 -131 -134.5 -208t-277.5 -77zM344 -20q-227 0 -304.5 124t-27.5 408q49 284 170.5 408t349.5 124q224 0 300.5 -124t27.5 -408t-169.5 -408t-346.5 -124zM385 209
q23 0 36 9.5t27 45.5t25.5 90.5t30.5 161.5q19 105 26.5 157.5t6.5 88t-11.5 44.5t-33.5 9q-32 0 -50 -22t-34 -82t-39 -195q-19 -106 -26.5 -161.5t-5.5 -91t13 -45t35 -9.5z" />
    <glyph glyph-name="Ohungarumlaut" unicode="&#x150;" horiz-adv-x="1118" 
d="M336 1450l160 295h342l-263 -295h-239zM745 1450l160 295h342l-262 -295h-240zM434 -20q-262 0 -346.5 159t-19.5 533q66 369 207 527.5t403 158.5q265 0 350.5 -158t20.5 -528q-66 -373 -207.5 -532.5t-407.5 -159.5zM483 229q50 0 84 93.5t78 349.5q23 130 33.5 211.5
t9.5 133t-14 71.5t-39 20q-35 0 -60.5 -39.5t-49.5 -131.5t-54 -265q-23 -130 -33.5 -213.5t-8.5 -135.5t15 -73t39 -21z" />
    <glyph glyph-name="ohungarumlaut" unicode="&#x151;" horiz-adv-x="929" 
d="M213 1169l158 285h342l-260 -285h-240zM623 1169l157 285h342l-260 -285h-239zM344 -20q-227 0 -304.5 124t-27.5 408q49 284 170.5 408t349.5 124q224 0 300.5 -124t27.5 -408t-169.5 -408t-346.5 -124zM385 209q23 0 36 9.5t27 45.5t25.5 90.5t30.5 161.5
q19 105 26.5 157.5t6.5 88t-11.5 44.5t-33.5 9q-32 0 -50 -22t-34 -82t-39 -195q-19 -106 -26.5 -161.5t-5.5 -91t13 -45t35 -9.5z" />
    <glyph glyph-name="OE" unicode="&#x152;" horiz-adv-x="1488" 
d="M1468 1108h-378l-52 -289h351l-39 -229h-351l-63 -361h391l-39 -229h-680q-76 -20 -178 -20q-135 0 -219 36.5t-128.5 119t-45 214.5t30.5 322q68 378 203.5 532t402.5 154q94 0 162 -21h673zM471 672q-44 -256 -43.5 -361.5t47.5 -105.5q35 0 58 32t40 107l103 588
q21 110 11.5 155.5t-52.5 45.5q-45 0 -82.5 -105t-81.5 -356z" />
    <glyph glyph-name="oe" unicode="&#x153;" horiz-adv-x="1384" 
d="M1004 1044q224 0 292.5 -122.5t14.5 -427.5q-5 -33 -11 -50h-446q-17 -133 12.5 -188t116.5 -55q67 0 118 12.5t109 42.5l-12 -205q-73 -39 -147.5 -55t-182.5 -16q-175 0 -260 59q-104 -59 -264 -59q-227 0 -304.5 124t-27.5 408q49 284 170.5 408t349.5 124
q153 0 232 -53q90 53 240 53zM1008 702q15 89 9.5 125.5t-36.5 36.5q-29 0 -48 -36.5t-34 -125.5l-14 -84h108zM385 209q23 0 36 9.5t27 45.5t25.5 90.5t30.5 161.5q19 105 26.5 157.5t6.5 88t-11.5 44.5t-33.5 9q-32 0 -50 -22t-34 -82t-39 -195q-19 -106 -26.5 -161.5
t-5.5 -91t13 -45t35 -9.5z" />
    <glyph glyph-name="Racute" unicode="&#x154;" horiz-adv-x="1114" 
d="M1135 1747l-318 -293h-297l215 293h400zM682 1337q203 0 315.5 -113t79.5 -304q-40 -235 -205 -363l95 -557h-389l-78 449h-74l-80 -449h-383l236 1337h483zM541 1108l-76 -430h49q115 0 160 240q17 93 -6 141.5t-78 48.5h-49z" />
    <glyph glyph-name="racute" unicode="&#x155;" horiz-adv-x="716" 
d="M922 1454l-316 -285h-270l192 285h394zM432 834q51 89 123 149.5t133 60.5q41 0 62 -8l-72 -356q-50 37 -113 37q-69 0 -122 -59t-68 -148l-90 -510h-342l180 1024h342z" />
    <glyph glyph-name="uni0156" unicode="&#x156;" horiz-adv-x="1114" 
d="M1077 920q-40 -235 -205 -363l95 -557h-389l-78 449h-74l-80 -449h-383l236 1337h483q203 0 315.5 -113t79.5 -304zM541 1108l-76 -430h49q115 0 160 240q17 93 -6 141.5t-78 48.5h-49zM248 -143h389l-62 -346l-14 -82q-15 -83 -61 -152t-109.5 -112.5t-136.5 -67
t-145 -23.5l36 205q63 0 116 37t63 96l10 56h-156z" />
    <glyph glyph-name="Rcaron" unicode="&#x158;" horiz-adv-x="1114" 
d="M455 1454l-195 293h387l64 -121l102 121h387l-297 -293h-448zM682 1337q203 0 315.5 -113t79.5 -304q-40 -235 -205 -363l95 -557h-389l-78 449h-74l-80 -449h-383l236 1337h483zM541 1108l-76 -430h49q115 0 160 240q17 93 -6 141.5t-78 48.5h-49z" />
    <glyph glyph-name="rcaron" unicode="&#x159;" horiz-adv-x="716" 
d="M311 1169l-168 285h308l51 -125l96 125h307l-268 -285h-326zM432 834q51 89 123 149.5t133 60.5q41 0 62 -8l-72 -356q-50 37 -113 37q-69 0 -122 -59t-68 -148l-90 -510h-342l180 1024h342z" />
    <glyph glyph-name="Sacute" unicode="&#x15a;" horiz-adv-x="944" 
d="M479 1454l215 293h400l-318 -293h-297zM211 -20q-144 0 -277 45l89 278q104 -70 217 -70q40 0 70.5 4t63 15.5t54 36.5t27.5 63q3 20 0.5 37.5t-14 34t-22 28.5t-32.5 27t-35.5 23.5t-42 24.5t-41.5 24q-94 55 -133 147.5t-16 216.5q33 191 183.5 317t363.5 126
q189 0 319 -43l-86 -258q-92 47 -209 47q-51 0 -92.5 -35t-50.5 -90q-6 -34 2 -61t32.5 -47.5t45 -32.5t57.5 -29q219 -96 180 -320q-29 -159 -127.5 -276.5t-234.5 -175t-291 -57.5z" />
    <glyph glyph-name="sacute" unicode="&#x15b;" horiz-adv-x="774" 
d="M346 1169l193 285h393l-316 -285h-270zM199 -20q-172 0 -275 34l70 248q103 -53 227 -53q54 0 97.5 21.5t50.5 60.5q5 28 -0.5 46t-21.5 28.5t-32 16t-44.5 14t-47.5 16.5q-197 77 -160 274q30 167 165 262.5t311 95.5q139 0 252 -40l-78 -234q-83 45 -191 45
q-30 0 -57 -20.5t-33 -53.5q-1 -15 -2.5 -26t3 -21t7 -16.5t11 -13t14.5 -10t16.5 -8t18 -7.5t19.5 -7t20 -7q83 -28 126 -91t27 -153q-35 -204 -165.5 -302.5t-327.5 -98.5z" />
    <glyph glyph-name="Scircumflex" unicode="&#x15c;" horiz-adv-x="944" 
d="M664 1595l-109 -145h-367l256 295h490l153 -295h-366zM119 915q33 191 183.5 317t363.5 126q189 0 319 -43l-86 -258q-92 47 -209 47q-51 0 -92.5 -35t-50.5 -90q-6 -34 2 -61t32.5 -47.5t45 -32.5t57.5 -29q219 -96 180 -320q-29 -159 -127.5 -276.5t-234.5 -175
t-291 -57.5q-144 0 -277 45l89 278q104 -70 217 -70q40 0 70.5 4t63 15.5t54 36.5t27.5 63q3 20 0.5 37.5t-14 34t-22 28.5t-32.5 27t-35.5 23.5t-42 24.5t-41.5 24q-94 55 -133 147.5t-16 216.5z" />
    <glyph glyph-name="scircumflex" unicode="&#x15d;" horiz-adv-x="774" 
d="M510 1307l-98 -138h-308l246 285h367l149 -285h-307zM63 686q30 167 165 262.5t311 95.5q139 0 252 -40l-78 -234q-83 45 -191 45q-30 0 -57 -20.5t-33 -53.5q-1 -15 -2.5 -26t3 -21t7 -16.5t11 -13t14.5 -10t16.5 -8t18 -7.5t19.5 -7t20 -7q83 -28 126 -91t27 -153
q-35 -204 -165.5 -302.5t-327.5 -98.5q-172 0 -275 34l70 248q103 -53 227 -53q54 0 97.5 21.5t50.5 60.5q5 28 -0.5 46t-21.5 28.5t-32 16t-44.5 14t-47.5 16.5q-197 77 -160 274z" />
    <glyph glyph-name="Scedilla" unicode="&#x15e;" horiz-adv-x="944" 
d="M690 1104q-51 0 -92.5 -35t-50.5 -90q-6 -34 2 -61t32.5 -47.5t45 -32.5t57.5 -29q219 -96 180 -320q-37 -205 -182 -335t-344 -164l-35 -58q68 -10 110.5 -29t59 -43.5t20.5 -56t-4 -65.5q-11 -66 -57.5 -115t-119 -77t-157 -42t-182.5 -16v135q187 14 203 115
q7 36 -12 62.5t-82 43.5l92 136q-121 6 -240 45l89 278q104 -70 217 -70q40 0 70.5 4t63 15.5t54 36.5t27.5 63q3 20 0.5 37.5t-14 34t-22 28.5t-32.5 27t-35.5 23.5t-42 24.5t-41.5 24q-94 55 -133 147.5t-16 216.5q33 191 183.5 317t363.5 126q189 0 319 -43l-86 -258
q-92 47 -209 47z" />
    <glyph glyph-name="scedilla" unicode="&#x15f;" horiz-adv-x="774" 
d="M522 815q-30 0 -57 -20.5t-33 -53.5q-1 -15 -2.5 -26t3 -21t7 -16.5t11 -13t14.5 -10t16.5 -8t18 -7.5t19.5 -7t20 -7q83 -28 126 -91t27 -153q-53 -303 -319 -379l-41 -70q68 -10 110.5 -29t59 -43.5t20.5 -56t-4 -65.5q-11 -66 -57.5 -115t-119 -77t-157 -42
t-182.5 -16v135q187 14 203 115q7 36 -12 62.5t-82 43.5l92 136h-4q-172 0 -275 34l70 248q103 -53 227 -53q54 0 97.5 21.5t50.5 60.5q5 28 -0.5 46t-21.5 28.5t-32 16t-44.5 14t-47.5 16.5q-197 77 -160 274q30 167 165 262.5t311 95.5q139 0 252 -40l-78 -234
q-83 45 -191 45z" />
    <glyph glyph-name="Scaron" unicode="&#x160;" horiz-adv-x="944" 
d="M414 1454l-195 293h387l64 -121l102 121h387l-297 -293h-448zM119 915q33 191 183.5 317t363.5 126q189 0 319 -43l-86 -258q-92 47 -209 47q-51 0 -92.5 -35t-50.5 -90q-6 -34 2 -61t32.5 -47.5t45 -32.5t57.5 -29q219 -96 180 -320q-29 -159 -127.5 -276.5t-234.5 -175
t-291 -57.5q-144 0 -277 45l89 278q104 -70 217 -70q40 0 70.5 4t63 15.5t54 36.5t27.5 63q3 20 0.5 37.5t-14 34t-22 28.5t-32.5 27t-35.5 23.5t-42 24.5t-41.5 24q-94 55 -133 147.5t-16 216.5z" />
    <glyph glyph-name="scaron" unicode="&#x161;" horiz-adv-x="774" 
d="M322 1169l-168 285h307l51 -125l96 125h307l-268 -285h-325zM63 686q30 167 165 262.5t311 95.5q139 0 252 -40l-78 -234q-83 45 -191 45q-30 0 -57 -20.5t-33 -53.5q-1 -15 -2.5 -26t3 -21t7 -16.5t11 -13t14.5 -10t16.5 -8t18 -7.5t19.5 -7t20 -7q83 -28 126 -91
t27 -153q-35 -204 -165.5 -302.5t-327.5 -98.5q-172 0 -275 34l70 248q103 -53 227 -53q54 0 97.5 21.5t50.5 60.5q5 28 -0.5 46t-21.5 28.5t-32 16t-44.5 14t-47.5 16.5q-197 77 -160 274z" />
    <glyph glyph-name="uni0162" unicode="&#x162;" horiz-adv-x="1005" 
d="M575 0h-114l-41 -68q68 -10 110.5 -29t59 -43.5t20.5 -56t-4 -65.5q-11 -66 -57.5 -115t-119 -77t-157 -42t-182.5 -16v135q187 14 203 115q7 36 -12 62.5t-82 43.5l104 156h-110l194 1108h-272l41 229h929l-41 -229h-274z" />
    <glyph glyph-name="uni0163" unicode="&#x163;" horiz-adv-x="610" 
d="M469 768l-74 -416q-9 -54 1.5 -76t45.5 -22q41 0 47 2l-43 -246q-93 -24 -149 -30l-27 -46q68 -10 111 -29t59 -43.5t20.5 -56t-3.5 -65.5q-11 -66 -57.5 -115t-119 -77t-157 -42t-182.5 -16v135q186 14 202 115q7 36 -12 62.5t-82 43.5l103 150q-79 28 -104.5 103.5
t-2.5 209.5l80 459h-84l45 256h84l39 217l354 62l-49 -279h131l-45 -256h-131z" />
    <glyph glyph-name="Tcaron" unicode="&#x164;" horiz-adv-x="1005" 
d="M416 1454l-195 293h387l64 -121l102 121h387l-297 -293h-448zM1085 1337l-41 -229h-274l-195 -1108h-382l194 1108h-272l41 229h929z" />
    <glyph glyph-name="tcaron" unicode="&#x165;" horiz-adv-x="905" 
d="M690 1630h385l-149 -512h-267zM563 1303l-49 -279h131l-45 -256h-131l-74 -416q-9 -54 1.5 -76t45.5 -22q41 0 47 2l-43 -246q-110 -30 -170 -30q-155 0 -208.5 76t-22.5 253l80 459h-84l45 256h84l39 217z" />
    <glyph glyph-name="Tbar" unicode="&#x166;" horiz-adv-x="1005" 
d="M1044 1108h-274l-63 -369h211l-19 -108h-213l-111 -631h-382l110 631h-211l21 108h211l63 369h-272l41 229h929z" />
    <glyph glyph-name="tbar" unicode="&#x167;" horiz-adv-x="610" 
d="M600 768h-131l-23 -125h132l-35 -199h-131l-17 -92q-9 -54 1.5 -76t45.5 -22q41 0 47 2l-43 -246q-110 -30 -170 -30q-155 0 -208.5 76t-22.5 253l25 135h-86l34 199h86l21 125h-84l45 256h84l39 217l354 62l-49 -279h131z" />
    <glyph glyph-name="Utilde" unicode="&#x168;" horiz-adv-x="1040" 
d="M262 1454q43 137 136 218t208 81q41 0 80.5 -18.5t70 -37t50.5 -18.5q32 0 59.5 20t42.5 54h248q-46 -137 -140 -218t-206 -81q-40 0 -80.5 17.5t-71.5 35t-49 17.5q-31 0 -58 -19t-42 -51h-248zM416 -20q-226 0 -324.5 113.5t-60.5 330.5l162 913h382l-161 -917
q-17 -94 10 -142.5t96 -48.5q66 0 108.5 48.5t57.5 142.5l162 917h233l-161 -921q-38 -214 -166.5 -325t-337.5 -111z" />
    <glyph glyph-name="utilde" unicode="&#x169;" horiz-adv-x="909" 
d="M477 1239q-60 0 -90 -70h-217q44 150 121.5 224.5t167.5 74.5q31 0 61.5 -11.5t50 -25t41 -25t37.5 -11.5q60 0 92 73h217q-47 -150 -125 -224.5t-165 -74.5q-39 0 -77.5 17.5t-67.5 35t-46 17.5zM444 322l123 702h342l-180 -1024l-346 -20l25 143q-48 -61 -125 -102
t-148 -41q-111 0 -149 57.5t-13 189.5l140 797h344l-123 -688q-16 -100 35 -100q52 0 75 86z" />
    <glyph glyph-name="Umacron" unicode="&#x16a;" horiz-adv-x="1040" 
d="M379 1454l41 225h616l-41 -225h-616zM416 -20q-226 0 -324.5 113.5t-60.5 330.5l162 913h382l-161 -917q-17 -94 10 -142.5t96 -48.5q66 0 108.5 48.5t57.5 142.5l162 917h233l-161 -921q-38 -214 -166.5 -325t-337.5 -111z" />
    <glyph glyph-name="umacron" unicode="&#x16b;" horiz-adv-x="909" 
d="M836 1409l-41 -240h-512l41 240h512zM567 1024h342l-180 -1024l-346 -20l25 143q-48 -61 -125 -102t-148 -41q-111 0 -149 57.5t-13 189.5l140 797h344l-123 -688q-16 -100 35 -100q52 0 75 86z" />
    <glyph glyph-name="Ubreve" unicode="&#x16c;" horiz-adv-x="1040" 
d="M684 1454q-164 0 -247 80t-58 215h297q-8 -40 5 -64t42 -24t50.5 24t29.5 64h305q-25 -135 -139.5 -215t-284.5 -80zM416 -20q-226 0 -324.5 113.5t-60.5 330.5l162 913h382l-161 -917q-17 -94 10 -142.5t96 -48.5q66 0 108.5 48.5t57.5 142.5l162 917h233l-161 -921
q-38 -214 -166.5 -325t-337.5 -111z" />
    <glyph glyph-name="ubreve" unicode="&#x16d;" horiz-adv-x="909" 
d="M537 1169q-164 0 -248.5 77.5t-61.5 207.5h308q-6 -35 4.5 -55.5t35.5 -20.5t42.5 20.5t23.5 55.5h307q-23 -131 -134 -208t-277 -77zM444 322l123 702h342l-180 -1024l-346 -20l25 143q-48 -61 -125 -102t-148 -41q-111 0 -149 57.5t-13 189.5l140 797h344l-123 -688
q-16 -100 35 -100q52 0 75 86z" />
    <glyph glyph-name="Uring" unicode="&#x16e;" horiz-adv-x="1040" 
d="M696 1450q-87 0 -142 57.5t-38 147.5t90.5 144t161.5 54q82 0 137 -54.5t41 -143.5q-14 -90 -90 -147.5t-160 -57.5zM719 1583q29 0 50 20t26 48q5 30 -10 48.5t-44 18.5q-27 0 -48 -19t-25 -48q-5 -28 9.5 -48t41.5 -20zM416 -20q-226 0 -324.5 113.5t-60.5 330.5
l162 913h382l-161 -917q-17 -94 10 -142.5t96 -48.5q66 0 108.5 48.5t57.5 142.5l162 917h233l-161 -921q-38 -214 -166.5 -325t-337.5 -111z" />
    <glyph glyph-name="uring" unicode="&#x16f;" horiz-adv-x="909" 
d="M551 1169q-97 0 -160 64.5t-45 165.5q19 104 103 166.5t182 62.5q96 0 159 -63t44 -166q-18 -102 -102 -166t-181 -64zM518 1397q-5 -31 11.5 -52.5t48.5 -21.5q33 0 57 21.5t29 52.5q6 34 -11 55t-51 21q-31 0 -54.5 -21t-29.5 -55zM567 1024h342l-180 -1024l-346 -20
l25 143q-48 -61 -125 -102t-148 -41q-111 0 -149 57.5t-13 189.5l140 797h344l-123 -688q-16 -100 35 -100q52 0 75 86z" />
    <glyph glyph-name="Uhungarumlaut" unicode="&#x170;" horiz-adv-x="1040" 
d="M319 1450l160 295h342l-262 -295h-240zM729 1450l160 295h342l-262 -295h-240zM416 -20q-226 0 -324.5 113.5t-60.5 330.5l162 913h382l-161 -917q-17 -94 10 -142.5t96 -48.5q66 0 108.5 48.5t57.5 142.5l162 917h233l-161 -921q-38 -214 -166.5 -325t-337.5 -111z" />
    <glyph glyph-name="uhungarumlaut" unicode="&#x171;" horiz-adv-x="909" 
d="M692 1454l-260 -285h-239l157 285h342zM842 1169h-240l158 285h342zM444 322l123 702h342l-180 -1024l-346 -20l25 143q-48 -61 -125 -102t-148 -41q-111 0 -149 57.5t-13 189.5l140 797h344l-123 -688q-16 -100 35 -100q52 0 75 86z" />
    <glyph glyph-name="Uogonek" unicode="&#x172;" horiz-adv-x="1040" 
d="M848 1337h233l-161 -921q-53 -299 -279 -393q-81 -76 -90 -134q-6 -34 10.5 -56.5t54.5 -22.5q24 0 72 16l-8 -186q-78 -29 -180 -29q-100 0 -150 43t-37 125q15 83 117 201h-14q-226 0 -324.5 113.5t-60.5 330.5l162 913h382l-161 -917q-17 -94 10 -142.5t96 -48.5
q66 0 108.5 48.5t57.5 142.5z" />
    <glyph glyph-name="uogonek" unicode="&#x173;" horiz-adv-x="909" 
d="M702 -2q-168 -126 -182 -207q-6 -34 11 -57t55 -23q20 0 71 17l-8 -187q-75 -28 -180 -28q-100 0 -149.5 43t-36.5 125q13 68 82.5 159.5t148.5 147.5l-131 -8l25 143q-48 -61 -125 -102t-148 -41q-111 0 -149 57.5t-13 189.5l140 797h344l-123 -688q-16 -100 35 -100
q52 0 75 86l123 702h342l-180 -1024z" />
    <glyph glyph-name="Wcircumflex" unicode="&#x174;" horiz-adv-x="1472" 
d="M946 1595l-108 -145h-367l256 295h490l153 -295h-366zM1329 1337h256l-483 -1337h-334v776l-279 -776h-344l-22 1337h399l-8 -579l203 579h411l-2 -589z" />
    <glyph glyph-name="wcircumflex" unicode="&#x175;" horiz-adv-x="1189" 
d="M754 1307l-99 -138h-307l246 285h367l149 -285h-307zM1055 1024h202l-397 -1024h-313l2 401l-143 -401h-302l-49 1024h367l-2 -582l207 582h237l-2 -555z" />
    <glyph glyph-name="Ycircumflex" unicode="&#x176;" horiz-adv-x="1009" 
d="M696 1595l-108 -145h-367l256 295h490l153 -295h-366zM866 1337h256l-452 -798l-95 -539h-382l94 539l-164 798h397l96 -465z" />
    <glyph glyph-name="ycircumflex" unicode="&#x177;" horiz-adv-x="774" 
d="M528 1307l-98 -138h-307l246 285h366l150 -285h-307zM403 418l236 606h203l-572 -1413h-202l155 389h-141l-27 1024h371z" />
    <glyph glyph-name="Ydieresis" unicode="&#x178;" horiz-adv-x="1009" 
d="M668 1765l-56 -311h-311l55 311h312zM1096 1765l-56 -311h-311l55 311h312zM866 1337h256l-452 -798l-95 -539h-382l94 539l-164 798h397l96 -465z" />
    <glyph glyph-name="Zacute" unicode="&#x179;" horiz-adv-x="874" 
d="M1006 1747l-318 -293h-297l215 293h400zM913 1337l-483 -1108h307l-41 -229h-772l490 1108h-281l41 229h739z" />
    <glyph glyph-name="zacute" unicode="&#x17a;" horiz-adv-x="774" 
d="M934 1454l-316 -285h-270l193 285h393zM791 1024l-398 -788h262l-41 -234h-696l395 789h-225l41 233h662z" />
    <glyph glyph-name="Zdotaccent" unicode="&#x17b;" horiz-adv-x="874" 
d="M784 1790l-59 -336h-348l59 336h348zM913 1337l-483 -1108h307l-41 -229h-772l490 1108h-281l41 229h739z" />
    <glyph glyph-name="zdotaccent" unicode="&#x17c;" horiz-adv-x="774" 
d="M705 1464l-52 -295h-340l52 295h340zM791 1024l-398 -788h262l-41 -234h-696l395 789h-225l41 233h662z" />
    <glyph glyph-name="Zcaron" unicode="&#x17d;" horiz-adv-x="874" 
d="M326 1454l-195 293h387l64 -121l102 121h387l-297 -293h-448zM913 1337l-483 -1108h307l-41 -229h-772l490 1108h-281l41 229h739z" />
    <glyph glyph-name="zcaron" unicode="&#x17e;" horiz-adv-x="774" 
d="M324 1169l-168 285h307l51 -125l96 125h308l-269 -285h-325zM791 1024l-398 -788h262l-41 -234h-696l395 789h-225l41 233h662z" />
    <glyph glyph-name="longs" unicode="&#x17f;" horiz-adv-x="579" 
d="M524 1436q80 0 178 -31l-65 -250q-30 6 -41 6q-65 0 -80 -98l-188 -1063h-344l137 768h-96l45 256h96l14 82q13 75 39.5 133t60 94.5t75.5 60t83 33t86 9.5z" />
    <glyph glyph-name="uni018F" unicode="&#x18f;" horiz-adv-x="1118" 
d="M678 1358q263 0 349 -159.5t22 -526.5q-66 -370 -209 -531t-406 -161q-261 0 -345 165.5t-17 546.5l10 60h577q32 202 27 291.5t-47 89.5q-35 0 -58 -31.5t-42 -104.5h-392q69 192 192.5 276.5t338.5 84.5zM479 205q73 0 139 321h-169q-25 -170 -17.5 -245.5t47.5 -75.5z
" />
    <glyph glyph-name="florin" unicode="&#x192;" horiz-adv-x="784" 
d="M748 1235q-43 0 -76 -42.5t-66 -145.5l-8 -23h154l-62 -229h-166l-258 -787q-75 -228 -186 -321t-309 -93q-74 0 -185 31l92 215q105 -22 113 -22q36 0 66.5 42.5t60.5 139.5l260 795h-88l62 229h102l4 14q75 228 185 321t305 93q93 0 190 -27l-78 -208q-76 18 -112 18z
" />
    <glyph glyph-name="uni019D" unicode="&#x19d;" horiz-adv-x="1050" 
d="M854 1337h231l-235 -1337h-309l-222 709l-149 -852q-28 -155 -85 -212t-185 -57q-67 0 -185 31l68 209q54 -6 55 -6q54 0 78 20.5t33 77.5l250 1417h346l190 -675z" />
    <glyph glyph-name="uni01CD" unicode="&#x1cd;" horiz-adv-x="1017" 
d="M809 1747h387l-297 -293h-448l-195 293h387l64 -121zM866 1337l27 -1337h-383l-2 221h-283l-80 -221h-260l521 1337h460zM307 451h199l-4 548z" />
    <glyph glyph-name="uni01CE" unicode="&#x1ce;" horiz-adv-x="923" 
d="M367 1169l-168 285h307l51 -125l96 125h308l-269 -285h-325zM580 868l28 156h316l-181 -1024h-315l23 131q-77 -81 -146 -116t-145 -35q-131 0 -166 122.5t16 403.5q51 288 135.5 413t229.5 125q80 0 129.5 -41.5t75.5 -134.5zM383 236q26 0 46 39t44 149l39 217
q10 86 2.5 113.5t-37.5 27.5q-42 0 -61 -47.5t-49 -216.5q-17 -93 -24 -144.5t-5 -84.5t12.5 -43t32.5 -10z" />
    <glyph glyph-name="uni01CF" unicode="&#x1cf;" horiz-adv-x="546" 
d="M545 1747h387l-297 -293h-449l-194 293h387l63 -121zM-37 0l236 1337h383l-236 -1337h-383z" />
    <glyph glyph-name="uni01D0" unicode="&#x1d0;" horiz-adv-x="466" 
d="M444 1454h308l-269 -285h-325l-168 285h307l51 -125zM-57 0l180 1024h344l-180 -1024h-344z" />
    <glyph glyph-name="uni01D1" unicode="&#x1d1;" horiz-adv-x="1118" 
d="M477 1454l-194 293h387l63 -121l103 121h387l-297 -293h-449zM678 1358q265 0 350.5 -158t20.5 -528q-66 -373 -207.5 -532.5t-407.5 -159.5q-262 0 -346.5 159t-19.5 533q66 369 207 527.5t403 158.5zM645 672q23 130 33.5 211.5t9.5 133t-14 71.5t-39 20
q-35 0 -60.5 -39.5t-49.5 -131.5t-54 -265q-23 -130 -33.5 -213.5t-8.5 -135.5t15 -73t39 -21q50 0 84 93.5t78 349.5z" />
    <glyph glyph-name="uni01D2" unicode="&#x1d2;" horiz-adv-x="929" 
d="M395 1169l-168 285h308l51 -125l96 125h307l-268 -285h-326zM532 1044q224 0 300.5 -124t27.5 -408t-169.5 -408t-346.5 -124q-227 0 -304.5 124t-27.5 408q49 284 170.5 408t349.5 124zM504 516q19 105 26.5 157.5t6.5 88t-11.5 44.5t-33.5 9q-32 0 -50 -22t-34 -82
t-39 -195q-19 -106 -26.5 -161.5t-5.5 -91t13 -45t35 -9.5q23 0 36 9.5t27 45.5t25.5 90.5t30.5 161.5z" />
    <glyph glyph-name="uni01D3" unicode="&#x1d3;" horiz-adv-x="1040" 
d="M461 1454l-195 293h387l64 -121l102 121h387l-297 -293h-448zM686 420l162 917h233l-161 -921q-38 -214 -166.5 -325t-337.5 -111q-226 0 -324.5 113.5t-60.5 330.5l162 913h382l-161 -917q-17 -94 10 -142.5t96 -48.5q66 0 108.5 48.5t57.5 142.5z" />
    <glyph glyph-name="uni01D4" unicode="&#x1d4;" horiz-adv-x="909" 
d="M375 1169l-168 285h307l51 -125l97 125h307l-269 -285h-325zM444 322l123 702h342l-180 -1024l-346 -20l25 143q-48 -61 -125 -102t-148 -41q-111 0 -149 57.5t-13 189.5l140 797h344l-123 -688q-16 -100 35 -100q52 0 75 86z" />
    <glyph glyph-name="uni01D5" unicode="&#x1d5;" horiz-adv-x="1040" 
d="M451 1858l41 225h616l-41 -225h-616zM315 1454l56 311h311l-55 -311h-312zM743 1454l56 311h311l-55 -311h-312zM416 -20q-226 0 -324.5 113.5t-60.5 330.5l162 913h382l-161 -917q-17 -94 10 -142.5t96 -48.5q66 0 108.5 48.5t57.5 142.5l162 917h233l-161 -921
q-38 -214 -166.5 -325t-337.5 -111z" />
    <glyph glyph-name="uni01D6" unicode="&#x1d6;" horiz-adv-x="909" 
d="M903 1788l-41 -240h-512l41 240h512zM530 1460l-51 -291h-270l51 291h270zM596 1169l51 291h271l-52 -291h-270zM444 322l123 702h342l-180 -1024l-346 -20l25 143q-48 -61 -125 -102t-148 -41q-111 0 -149 57.5t-13 189.5l140 797h344l-123 -688q-16 -100 35 -100
q52 0 75 86z" />
    <glyph glyph-name="uni01D7" unicode="&#x1d7;" horiz-adv-x="1040" 
d="M598 1858l215 292h399l-317 -292h-297zM315 1454l56 311h311l-55 -311h-312zM743 1454l56 311h311l-55 -311h-312zM416 -20q-226 0 -324.5 113.5t-60.5 330.5l162 913h382l-161 -917q-17 -94 10 -142.5t96 -48.5q66 0 108.5 48.5t57.5 142.5l162 917h233l-161 -921
q-38 -214 -166.5 -325t-337.5 -111z" />
    <glyph glyph-name="uni01D8" unicode="&#x1d8;" horiz-adv-x="909" 
d="M1053 1833l-316 -285h-270l192 285h394zM530 1460l-51 -291h-270l51 291h270zM596 1169l51 291h271l-52 -291h-270zM444 322l123 702h342l-180 -1024l-346 -20l25 143q-48 -61 -125 -102t-148 -41q-111 0 -149 57.5t-13 189.5l140 797h344l-123 -688q-16 -100 35 -100
q52 0 75 86z" />
    <glyph glyph-name="uni01D9" unicode="&#x1d9;" horiz-adv-x="1040" 
d="M532 1858l-194 292h387l63 -120l103 120h387l-297 -292h-449zM682 1765l-55 -311h-312l56 311h311zM743 1454l56 311h311l-55 -311h-312zM686 420l162 917h233l-161 -921q-38 -214 -166.5 -325t-337.5 -111q-226 0 -324.5 113.5t-60.5 330.5l162 913h382l-161 -917
q-17 -94 10 -142.5t96 -48.5q66 0 108.5 48.5t57.5 142.5z" />
    <glyph glyph-name="uni01DA" unicode="&#x1da;" horiz-adv-x="909" 
d="M442 1548l-168 285h308l51 -125l96 125h307l-268 -285h-326zM530 1460l-51 -291h-270l51 291h270zM596 1169l51 291h271l-52 -291h-270zM444 322l123 702h342l-180 -1024l-346 -20l25 143q-48 -61 -125 -102t-148 -41q-111 0 -149 57.5t-13 189.5l140 797h344l-123 -688
q-16 -100 35 -100q52 0 75 86z" />
    <glyph glyph-name="uni01DB" unicode="&#x1db;" horiz-adv-x="1040" 
d="M604 1858l-215 292h395l134 -292h-314zM315 1454l56 311h311l-55 -311h-312zM743 1454l56 311h311l-55 -311h-312zM416 -20q-226 0 -324.5 113.5t-60.5 330.5l162 913h382l-161 -917q-17 -94 10 -142.5t96 -48.5q66 0 108.5 48.5t57.5 142.5l162 917h233l-161 -921
q-38 -214 -166.5 -325t-337.5 -111z" />
    <glyph glyph-name="uni01DC" unicode="&#x1dc;" horiz-adv-x="909" 
d="M786 1548h-297l-217 285h379zM530 1460l-51 -291h-270l51 291h270zM596 1169l51 291h271l-52 -291h-270zM444 322l123 702h342l-180 -1024l-346 -20l25 143q-48 -61 -125 -102t-148 -41q-111 0 -149 57.5t-13 189.5l140 797h344l-123 -688q-16 -100 35 -100q52 0 75 86z
" />
    <glyph glyph-name="Gcaron" unicode="&#x1e6;" horiz-adv-x="1083" 
d="M492 1454l-195 293h387l64 -121l102 121h387l-297 -293h-448zM66 659q66 374 251.5 536.5t546.5 162.5q98 0 234 -25l-45 -250q-76 25 -170 25q-180 0 -277 -101t-137 -331q-41 -238 -10 -342.5t145 -104.5h29l49 297h-111l39 230h414l-123 -707q-176 -69 -348 -69
q-324 0 -437.5 158.5t-49.5 520.5z" />
    <glyph glyph-name="gcaron" unicode="&#x1e7;" horiz-adv-x="925" 
d="M416 1169l-168 285h307l51 -125l96 125h308l-269 -285h-325zM573 887l25 137l332 20l-172 -970q-21 -118 -77.5 -212t-135.5 -152.5t-173.5 -89t-195.5 -30.5q-157 0 -280 48l73 251q106 -47 215 -47q191 0 222 178l14 78q-128 -118 -242 -118q-140 0 -179.5 122.5
t11.5 403.5q51 288 140.5 413t244.5 125q124 0 178 -157zM385 236q35 0 53 40t43 175l25 139q14 79 15.5 120t-7.5 56.5t-31 15.5q-44 0 -65.5 -54t-50.5 -222q-16 -90 -22.5 -143.5t-3 -81.5t13.5 -36.5t30 -8.5z" />
    <glyph glyph-name="uni01EA" unicode="&#x1ea;" horiz-adv-x="1118" 
d="M678 1358q265 0 350.5 -158t20.5 -528q-47 -275 -135 -430.5t-232 -216.5q-70 -70 -78 -121q-6 -34 11 -57t55 -23q23 0 71 16l-8 -186q-78 -29 -180 -29q-100 0 -149.5 43t-36.5 125q15 82 104 187h-37q-262 0 -346.5 159t-19.5 533q66 369 207 527.5t403 158.5z
M471 672q-23 -130 -33.5 -213.5t-8.5 -135.5t15 -73t39 -21q50 0 84 93.5t78 349.5q23 130 33.5 211.5t9.5 133t-14 71.5t-39 20q-35 0 -60.5 -39.5t-49.5 -131.5t-54 -265z" />
    <glyph glyph-name="uni01EB" unicode="&#x1eb;" horiz-adv-x="929" 
d="M532 1044q224 0 300.5 -124t27.5 -408q-32 -189 -96 -305.5t-166 -171.5q-143 -114 -154 -187q-6 -34 11 -56.5t55 -22.5q24 0 72 16l-9 -186q-78 -29 -180 -29q-100 0 -149.5 43t-36.5 125q10 52 53 119t102 123h-18q-227 0 -304.5 124t-27.5 408q49 284 170.5 408
t349.5 124zM369 516q-19 -106 -26.5 -161.5t-5.5 -91t13 -45t35 -9.5q23 0 36 9.5t27 45.5t25.5 90.5t30.5 161.5q19 105 26.5 157.5t6.5 88t-11.5 44.5t-33.5 9q-32 0 -50 -22t-34 -82t-39 -195z" />
    <glyph glyph-name="uni01F4" unicode="&#x1f4;" horiz-adv-x="1083" 
d="M1171 1747l-317 -293h-297l215 293h399zM66 659q66 374 251.5 536.5t546.5 162.5q98 0 234 -25l-45 -250q-76 25 -170 25q-180 0 -277 -101t-137 -331q-41 -238 -10 -342.5t145 -104.5h29l49 297h-111l39 230h414l-123 -707q-176 -69 -348 -69q-324 0 -437.5 158.5
t-49.5 520.5z" />
    <glyph glyph-name="uni01F5" unicode="&#x1f5;" horiz-adv-x="925" 
d="M1026 1454l-315 -285h-271l193 285h393zM573 887l25 137l332 20l-172 -970q-21 -118 -77.5 -212t-135.5 -152.5t-173.5 -89t-195.5 -30.5q-157 0 -280 48l73 251q106 -47 215 -47q191 0 222 178l14 78q-128 -118 -242 -118q-140 0 -179.5 122.5t11.5 403.5
q51 288 140.5 413t244.5 125q124 0 178 -157zM385 236q35 0 53 40t43 175l25 139q14 79 15.5 120t-7.5 56.5t-31 15.5q-44 0 -65.5 -54t-50.5 -222q-16 -90 -22.5 -143.5t-3 -81.5t13.5 -36.5t30 -8.5z" />
    <glyph glyph-name="Aringacute" unicode="&#x1fa;" horiz-adv-x="1017" 
d="M791 1337h75l27 -1337h-383l-2 221h-283l-80 -221h-260l521 1337h59q-43 56 -29 136q20 107 121 163l174 238h399l-292 -270q40 -53 28 -131q-11 -79 -75 -136zM588 1468q-5 -28 9.5 -47.5t41.5 -19.5q29 0 50 19.5t26 47.5q5 30 -9.5 49t-43.5 19q-27 0 -48.5 -19.5
t-25.5 -48.5zM307 451h199l-4 548z" />
    <glyph glyph-name="aringacute" unicode="&#x1fb;" horiz-adv-x="923" 
d="M543 1169q-97 0 -160 64.5t-45 165.5q13 73 60.5 127t113.5 80l168 247h393l-305 -276q77 -66 57 -178q-18 -102 -101.5 -166t-180.5 -64zM655 1397q6 34 -10.5 55t-50.5 21q-31 0 -54.5 -21t-29.5 -55q-5 -32 11 -53t48 -21q33 0 57 21.5t29 52.5zM580 868l28 156h316
l-181 -1024h-315l23 131q-77 -81 -146 -116t-145 -35q-131 0 -166 122.5t16 403.5q51 288 135.5 413t229.5 125q80 0 129.5 -41.5t75.5 -134.5zM383 236q26 0 46 39t44 149l39 217q10 86 2.5 113.5t-37.5 27.5q-42 0 -61 -47.5t-49 -216.5q-17 -93 -24 -144.5t-5 -84.5
t12.5 -43t32.5 -10z" />
    <glyph glyph-name="AEacute" unicode="&#x1fc;" horiz-adv-x="1517" 
d="M1372 1747l-317 -293h-297l215 293h399zM1497 1108h-379l-51 -289h350l-39 -229h-350l-63 -361h391l-39 -229h-776l45 260h-287l-100 -260h-314l592 1337h1061zM373 451h248l114 657h-106z" />
    <glyph glyph-name="aeacute" unicode="&#x1fd;" horiz-adv-x="1345" 
d="M1237 1454l-315 -285h-271l193 285h393zM981 1044q228 0 303.5 -127.5t22.5 -422.5q-5 -33 -11 -50h-465q-15 -128 16 -181.5t116 -53.5q67 0 118 12.5t109 42.5l-14 -213q-70 -38 -147 -54.5t-183 -16.5q-169 0 -259.5 58.5t-113.5 186.5q-73 -124 -160.5 -184.5
t-173.5 -60.5q-97 0 -142.5 71.5t-19.5 220.5q27 162 94 243t201 120l236 67l6 31q15 80 -63 80q-123 0 -312 -65l2 225q262 71 473 71q98 0 158 -36q85 36 209 36zM860 618h111l8 44q9 57 9 90t-9 48t-29 15q-30 0 -48.5 -34.5t-33.5 -118.5zM365 248q28 0 50.5 27t28.5 63
v-2l39 225l-24 -8q-52 -14 -82.5 -52t-44.5 -118q-24 -135 33 -135z" />
    <glyph glyph-name="Oslashacute" unicode="&#x1fe;" horiz-adv-x="1118" 
d="M1180 1747l-318 -293h-297l215 293h400zM1075 1337h99l-136 -157q72 -163 11 -508q-66 -373 -207.5 -532.5t-407.5 -159.5q-233 0 -323 120l-86 -100h-101l148 172q-63 162 -4 500q66 369 207 527.5t403 158.5q223 0 319 -113zM471 672q-1 -9 -4 -24t-4 -21l215 250
q16 131 6 181t-49 50q-35 0 -60.5 -39.5t-49.5 -131.5t-54 -265zM645 672l12 63l-217 -250q-18 -146 -8 -201t51 -55q50 0 84 93.5t78 349.5z" />
    <glyph glyph-name="oslashacute" unicode="&#x1ff;" horiz-adv-x="929" 
d="M1028 1454l-315 -285h-271l193 285h393zM883 1024h67l-110 -117q67 -122 20 -395q-49 -284 -169.5 -408t-346.5 -124q-202 0 -283 94l-69 -74h-68l109 117q-68 124 -21 395q49 284 170.5 408t349.5 124q198 0 281 -96zM369 516q-6 -27 -9 -51l166 178q16 110 9 141
t-43 31q-32 0 -50 -22t-34 -82t-39 -195zM504 516l6 39l-164 -176q-14 -107 -6.5 -138.5t45.5 -31.5q23 0 36 9.5t27 45.5t25.5 90.5t30.5 161.5z" />
    <glyph glyph-name="uni0200" unicode="&#x200;" horiz-adv-x="1017" 
d="M635 1454h-281l-159 293h383zM1085 1454h-280l-160 293h383zM866 1337l27 -1337h-383l-2 221h-283l-80 -221h-260l521 1337h460zM307 451h199l-4 548z" />
    <glyph glyph-name="uni0201" unicode="&#x201;" horiz-adv-x="923" 
d="M489 1169h-239l-162 285h342zM899 1169h-240l-161 285h342zM608 1024h316l-181 -1024h-315l23 131q-77 -81 -146 -116t-145 -35q-131 0 -166 122.5t16 403.5q51 288 135.5 413t229.5 125q80 0 129.5 -41.5t75.5 -134.5zM383 236q26 0 46 39t44 149l39 217
q10 86 2.5 113.5t-37.5 27.5q-42 0 -61 -47.5t-49 -216.5q-17 -93 -24 -144.5t-5 -84.5t12.5 -43t32.5 -10z" />
    <glyph glyph-name="uni0202" unicode="&#x202;" horiz-adv-x="1017" 
d="M725 1745q166 0 250 -80t61 -215h-297q6 39 -7 61.5t-42 22.5t-50.5 -23t-27.5 -61h-297q23 135 134.5 215t275.5 80zM866 1337l27 -1337h-383l-2 221h-283l-80 -221h-260l521 1337h460zM307 451h199l-4 548z" />
    <glyph glyph-name="uni0203" unicode="&#x203;" horiz-adv-x="923" 
d="M545 1249q-25 0 -43.5 -21.5t-24.5 -58.5h-307q23 131 133.5 208t274.5 77q166 0 251 -77.5t62 -207.5h-307q6 37 -4 58.5t-35 21.5zM608 1024h316l-181 -1024h-315l23 131q-77 -81 -146 -116t-145 -35q-131 0 -166 122.5t16 403.5q51 288 135.5 413t229.5 125
q80 0 129.5 -41.5t75.5 -134.5zM383 236q26 0 46 39t44 149l39 217q10 86 2.5 113.5t-37.5 27.5q-42 0 -61 -47.5t-49 -216.5q-17 -93 -24 -144.5t-5 -84.5t12.5 -43t32.5 -10z" />
    <glyph glyph-name="uni0204" unicode="&#x204;" horiz-adv-x="940" 
d="M549 1454h-281l-159 293h383zM999 1454h-280l-160 293h383zM961 1337l-41 -229h-379l-52 -289h351l-39 -229h-350l-64 -361h391l-39 -229h-776l236 1337h762z" />
    <glyph glyph-name="uni0205" unicode="&#x205;" horiz-adv-x="909" 
d="M530 1169h-239l-162 285h342zM940 1169h-240l-161 285h342zM510 1044q228 0 303.5 -127.5t22.5 -422.5q-5 -33 -11 -50h-465q-15 -128 16 -181.5t116 -53.5q67 0 118 12.5t109 42.5l-14 -213q-70 -38 -147 -54.5t-183 -16.5q-243 0 -327.5 126t-33.5 414q50 280 165 402
t331 122zM389 618h111l8 44q9 57 9 90t-9 48t-29 15q-30 0 -48.5 -34.5t-33.5 -118.5z" />
    <glyph glyph-name="uni0206" unicode="&#x206;" horiz-adv-x="940" 
d="M604 1534q-29 0 -50.5 -23t-27.5 -61h-297q23 135 134.5 215t275.5 80q166 0 250 -80t61 -215h-297q6 39 -7 61.5t-42 22.5zM920 1108h-379l-52 -289h351l-39 -229h-350l-64 -361h391l-39 -229h-776l236 1337h762z" />
    <glyph glyph-name="uni0207" unicode="&#x207;" horiz-adv-x="909" 
d="M618 1454q166 0 251.5 -77.5t62.5 -207.5h-307q6 37 -4 58.5t-35 21.5t-43.5 -21.5t-24.5 -58.5h-307q23 131 133 208t274 77zM510 1044q228 0 303.5 -127.5t22.5 -422.5q-5 -33 -11 -50h-465q-15 -128 16 -181.5t116 -53.5q67 0 118 12.5t109 42.5l-14 -213
q-70 -38 -147 -54.5t-183 -16.5q-243 0 -327.5 126t-33.5 414q50 280 165 402t331 122zM389 618h111l8 44q9 57 9 90t-9 48t-29 15q-30 0 -48.5 -34.5t-33.5 -118.5z" />
    <glyph glyph-name="uni0208" unicode="&#x208;" horiz-adv-x="546" 
d="M90 1454l-160 293h383l58 -293h-281zM541 1454l-160 293h383l57 -293h-280zM-37 0l236 1337h383l-236 -1337h-383z" />
    <glyph glyph-name="uni0209" unicode="&#x209;" horiz-adv-x="466" 
d="M41 1169l-162 285h342l60 -285h-240zM451 1169l-162 285h342l59 -285h-239zM-57 0l180 1024h344l-180 -1024h-344z" />
    <glyph glyph-name="uni020A" unicode="&#x20a;" horiz-adv-x="546" 
d="M51 1450q23 135 134.5 215t275.5 80q166 0 250 -80t61 -215h-297q6 39 -7 61.5t-42 22.5t-50.5 -23t-27.5 -61h-297zM-37 0l236 1337h383l-236 -1337h-383z" />
    <glyph glyph-name="uni020B" unicode="&#x20b;" horiz-adv-x="466" 
d="M-39 1169q23 131 133.5 208t274.5 77q166 0 251 -77.5t62 -207.5h-307q6 37 -4 58.5t-35 21.5t-43.5 -21.5t-24.5 -58.5h-307zM-57 0l180 1024h344l-180 -1024h-344z" />
    <glyph glyph-name="uni020C" unicode="&#x20c;" horiz-adv-x="1118" 
d="M381 1454l-160 293h383l58 -293h-281zM831 1454l-159 293h383l57 -293h-281zM434 -20q-262 0 -346.5 159t-19.5 533q66 369 207 527.5t403 158.5q265 0 350.5 -158t20.5 -528q-66 -373 -207.5 -532.5t-407.5 -159.5zM483 229q50 0 84 93.5t78 349.5q23 130 33.5 211.5
t9.5 133t-14 71.5t-39 20q-35 0 -60.5 -39.5t-49.5 -131.5t-54 -265q-23 -130 -33.5 -213.5t-8.5 -135.5t15 -73t39 -21z" />
    <glyph glyph-name="uni020D" unicode="&#x20d;" horiz-adv-x="929" 
d="M279 1169l-162 285h342l59 -285h-239zM688 1169l-162 285h342l60 -285h-240zM344 -20q-227 0 -304.5 124t-27.5 408q49 284 170.5 408t349.5 124q224 0 300.5 -124t27.5 -408t-169.5 -408t-346.5 -124zM385 209q23 0 36 9.5t27 45.5t25.5 90.5t30.5 161.5
q19 105 26.5 157.5t6.5 88t-11.5 44.5t-33.5 9q-32 0 -50 -22t-34 -82t-39 -195q-19 -106 -26.5 -161.5t-5.5 -91t13 -45t35 -9.5z" />
    <glyph glyph-name="uni020E" unicode="&#x20e;" horiz-adv-x="1118" 
d="M342 1450q23 135 134.5 215t275.5 80q166 0 250 -80t61 -215h-297q6 39 -7 61.5t-42 22.5t-50.5 -23t-27.5 -61h-297zM434 -20q-262 0 -346.5 159t-19.5 533q66 369 207 527.5t403 158.5q265 0 350.5 -158t20.5 -528q-66 -373 -207.5 -532.5t-407.5 -159.5zM483 229
q50 0 84 93.5t78 349.5q23 130 33.5 211.5t9.5 133t-14 71.5t-39 20q-35 0 -60.5 -39.5t-49.5 -131.5t-54 -265q-23 -130 -33.5 -213.5t-8.5 -135.5t15 -73t39 -21z" />
    <glyph glyph-name="uni020F" unicode="&#x20f;" horiz-adv-x="929" 
d="M199 1169q23 131 133 208t274 77q166 0 251.5 -77.5t62.5 -207.5h-308q6 37 -4 58.5t-35 21.5t-43 -21.5t-24 -58.5h-307zM344 -20q-227 0 -304.5 124t-27.5 408q49 284 170.5 408t349.5 124q224 0 300.5 -124t27.5 -408t-169.5 -408t-346.5 -124zM385 209q23 0 36 9.5
t27 45.5t25.5 90.5t30.5 161.5q19 105 26.5 157.5t6.5 88t-11.5 44.5t-33.5 9q-32 0 -50 -22t-34 -82t-39 -195q-19 -106 -26.5 -161.5t-5.5 -91t13 -45t35 -9.5z" />
    <glyph glyph-name="uni0210" unicode="&#x210;" horiz-adv-x="1114" 
d="M639 1454h-281l-159 293h383zM1090 1454h-281l-160 293h383zM682 1337q203 0 315.5 -113t79.5 -304q-40 -235 -205 -363l95 -557h-389l-78 449h-74l-80 -449h-383l236 1337h483zM541 1108l-76 -430h49q115 0 160 240q17 93 -6 141.5t-78 48.5h-49z" />
    <glyph glyph-name="uni0211" unicode="&#x211;" horiz-adv-x="716" 
d="M434 1169h-239l-162 285h342zM844 1169h-240l-162 285h342zM432 834q51 89 123 149.5t133 60.5q41 0 62 -8l-72 -356q-50 37 -113 37q-69 0 -122 -59t-68 -148l-90 -510h-342l180 1024h342z" />
    <glyph glyph-name="uni0212" unicode="&#x212;" horiz-adv-x="1114" 
d="M694 1534q-29 0 -50.5 -23t-27.5 -61h-297q23 135 134.5 215t275.5 80q166 0 250 -80t61 -215h-297q6 39 -7 61.5t-42 22.5zM1077 920q-40 -235 -205 -363l95 -557h-389l-78 449h-74l-80 -449h-383l236 1337h483q203 0 315.5 -113t79.5 -304zM541 1108l-76 -430h49
q115 0 160 240q17 93 -6 141.5t-78 48.5h-49z" />
    <glyph glyph-name="uni0213" unicode="&#x213;" horiz-adv-x="716" 
d="M522 1454q166 0 251.5 -77.5t62.5 -207.5h-308q6 37 -4 58.5t-35 21.5t-43 -21.5t-24 -58.5h-307q23 131 133 208t274 77zM432 834q51 89 123 149.5t133 60.5q41 0 62 -8l-72 -356q-50 37 -113 37q-69 0 -122 -59t-68 -148l-90 -510h-342l180 1024h342z" />
    <glyph glyph-name="uni0214" unicode="&#x214;" horiz-adv-x="1040" 
d="M365 1454l-160 293h383l57 -293h-280zM815 1454l-160 293h383l58 -293h-281zM416 -20q-226 0 -324.5 113.5t-60.5 330.5l162 913h382l-161 -917q-17 -94 10 -142.5t96 -48.5q66 0 108.5 48.5t57.5 142.5l162 917h233l-161 -921q-38 -214 -166.5 -325t-337.5 -111z" />
    <glyph glyph-name="uni0215" unicode="&#x215;" horiz-adv-x="909" 
d="M498 1169h-240l-162 285h342zM907 1169h-239l-162 285h342zM567 1024h342l-180 -1024l-346 -20l25 143q-48 -61 -125 -102t-148 -41q-111 0 -149 57.5t-13 189.5l140 797h344l-123 -688q-16 -100 35 -100q52 0 75 86z" />
    <glyph glyph-name="uni0216" unicode="&#x216;" horiz-adv-x="1040" 
d="M326 1450q23 135 134 215t275 80q166 0 250.5 -80t61.5 -215h-297q6 38 -7.5 61t-42.5 23t-50 -23t-27 -61h-297zM416 -20q-226 0 -324.5 113.5t-60.5 330.5l162 913h382l-161 -917q-17 -94 10 -142.5t96 -48.5q66 0 108.5 48.5t57.5 142.5l162 917h233l-161 -921
q-38 -214 -166.5 -325t-337.5 -111z" />
    <glyph glyph-name="uni0217" unicode="&#x217;" horiz-adv-x="909" 
d="M553 1249q-25 0 -43.5 -21.5t-24.5 -58.5h-307q23 131 133.5 208t274.5 77q166 0 251 -77.5t62 -207.5h-307q6 37 -4 58.5t-35 21.5zM567 1024h342l-180 -1024l-346 -20l25 143q-48 -61 -125 -102t-148 -41q-111 0 -149 57.5t-13 189.5l140 797h344l-123 -688
q-16 -100 35 -100q52 0 75 86z" />
    <glyph glyph-name="uni0218" unicode="&#x218;" horiz-adv-x="944" 
d="M690 1104q-51 0 -92.5 -35t-50.5 -90q-6 -34 2 -61t32.5 -47.5t45 -32.5t57.5 -29q219 -96 180 -320q-29 -159 -127.5 -276.5t-234.5 -175t-291 -57.5q-144 0 -277 45l89 278q104 -70 217 -70q40 0 70.5 4t63 15.5t54 36.5t27.5 63q3 20 0.5 37.5t-14 34t-22 28.5
t-32.5 27t-35.5 23.5t-42 24.5t-41.5 24q-94 55 -133 147.5t-16 216.5q33 191 183.5 317t363.5 126q189 0 319 -43l-86 -258q-92 47 -209 47zM49 -143h389l-61 -346l-15 -82q-15 -83 -61 -152t-109.5 -112.5t-136.5 -67t-145 -23.5l37 205q63 0 115.5 37t62.5 96l10 56h-155
z" />
    <glyph glyph-name="uni0219" unicode="&#x219;" horiz-adv-x="774" 
d="M522 815q-30 0 -57 -20.5t-33 -53.5q-1 -15 -2.5 -26t3 -21t7 -16.5t11 -13t14.5 -10t16.5 -8t18 -7.5t19.5 -7t20 -7q83 -28 126 -91t27 -153q-35 -204 -165.5 -302.5t-327.5 -98.5q-172 0 -275 34l70 248q103 -53 227 -53q54 0 97.5 21.5t50.5 60.5q5 28 -0.5 46
t-21.5 28.5t-32 16t-44.5 14t-47.5 16.5q-197 77 -160 274q30 167 165 262.5t311 95.5q139 0 252 -40l-78 -234q-83 45 -191 45zM78 -143h389l-61 -346l-15 -82q-15 -83 -61 -152t-109.5 -112.5t-136.5 -67t-145 -23.5l36 205q63 0 116 37t63 96l10 56h-156z" />
    <glyph glyph-name="uni021A" unicode="&#x21a;" horiz-adv-x="1005" 
d="M1085 1337l-41 -229h-274l-195 -1108h-382l194 1108h-272l41 229h929zM166 -143h389l-61 -346l-15 -82q-15 -83 -61 -152t-109.5 -112.5t-136.5 -67t-145 -23.5l36 205q63 0 116 37t63 96l10 56h-156z" />
    <glyph glyph-name="uni021B" unicode="&#x21b;" horiz-adv-x="610" 
d="M469 768l-74 -416q-9 -54 1.5 -76t45.5 -22q41 0 47 2l-43 -246q-110 -30 -170 -30q-155 0 -208.5 76t-22.5 253l80 459h-84l45 256h84l39 217l354 62l-49 -279h131l-45 -256h-131zM16 -141h390l-62 -346l-14 -82q-20 -110 -93 -193t-167.5 -122.5t-192.5 -39.5l37 205
q63 0 115.5 37t62.5 96l10 56h-155z" />
    <glyph glyph-name="uni0232" unicode="&#x232;" horiz-adv-x="1009" 
d="M1022 1679l-41 -225h-616l41 225h616zM866 1337h256l-452 -798l-95 -539h-382l94 539l-164 798h397l96 -465z" />
    <glyph glyph-name="uni0233" unicode="&#x233;" horiz-adv-x="774" 
d="M801 1409l-41 -240h-512l41 240h512zM639 1024h203l-572 -1413h-202l155 389h-141l-27 1024h371l-23 -606z" />
    <glyph glyph-name="uni0237" unicode="&#x237;" horiz-adv-x="464" 
d="M-80 -412q-100 0 -227 31l76 250q54 -6 55 -6q54 0 77.5 20.5t32.5 77.5l189 1063h342l-195 -1106q-32 -190 -106 -260t-244 -70z" />
    <glyph glyph-name="uni0259" unicode="&#x259;" horiz-adv-x="909" 
d="M477 1044q241 0 326 -128t35 -412q-47 -274 -165.5 -399t-330.5 -125q-237 0 -308.5 122t-17.5 428q5 33 11 50h465q15 128 -16 181.5t-116 53.5q-67 0 -118 -12.5t-109 -42.5l14 213q73 39 147.5 55t182.5 16zM373 209q30 0 48.5 34.5t33.5 118.5l8 44h-111l-8 -44
q-14 -85 -7.5 -119t36.5 -34z" />
    <glyph glyph-name="uni0272" unicode="&#x272;" horiz-adv-x="911" 
d="M715 1044q114 0 150.5 -55.5t11.5 -191.5l-150 -856q-34 -194 -121.5 -272.5t-275.5 -78.5q-69 0 -185 31l68 209q54 -6 55 -6q52 0 77 22t36 76l127 723q9 55 1 77.5t-36 22.5q-32 0 -48.5 -22t-25.5 -78l-2 -2l-112 -643h-342l180 1024l346 20l-25 -137q51 75 112 106
t159 31z" />
    <glyph glyph-name="circumflex" unicode="&#x2c6;" horiz-adv-x="923" 
d="M934 1169h-307l-49 138l-99 -138h-307l246 285h366z" />
    <glyph glyph-name="caron" unicode="&#x2c7;" horiz-adv-x="923" 
d="M676 1454h307l-268 -285h-326l-168 285h307l52 -125z" />
    <glyph glyph-name="breve" unicode="&#x2d8;" horiz-adv-x="882" 
d="M530 1169q-164 0 -248 77.5t-61 207.5h307q-6 -35 5 -55.5t36 -20.5t42.5 20.5t23.5 55.5h307q-23 -131 -134.5 -208t-277.5 -77z" />
    <glyph glyph-name="dotaccent" unicode="&#x2d9;" horiz-adv-x="501" 
d="M172 1169l51 295h340l-51 -295h-340z" />
    <glyph glyph-name="ring" unicode="&#x2da;" horiz-adv-x="649" 
d="M416 1169q-97 0 -160 64.5t-45 165.5q19 104 103 166.5t182 62.5q96 0 158.5 -63t43.5 -166q-18 -102 -101.5 -166t-180.5 -64zM442 1323q33 0 57 21.5t29 52.5q6 34 -10.5 55t-50.5 21q-31 0 -54.5 -21t-29.5 -55q-5 -32 11 -53t48 -21z" />
    <glyph glyph-name="ogonek" unicode="&#x2db;" horiz-adv-x="552" 
d="M94 -487q-100 0 -149.5 43t-36.5 125q15 80 101.5 184.5t174.5 148.5h164q-101 -75 -148.5 -126.5t-54.5 -96.5q-6 -34 11 -57t55 -23q21 0 72 17l-9 -187q-75 -28 -180 -28z" />
    <glyph glyph-name="tilde" unicode="&#x2dc;" horiz-adv-x="899" 
d="M670 1169q-39 0 -77.5 17.5t-67.5 35t-46 17.5q-60 0 -90 -70h-217q44 150 121.5 224.5t167.5 74.5q31 0 61.5 -11.5t50 -25t41 -25t37.5 -11.5q60 0 92 73h218q-47 -150 -125 -224.5t-166 -74.5z" />
    <glyph glyph-name="hungarumlaut" unicode="&#x2dd;" horiz-adv-x="1021" 
d="M172 1169l158 285h342l-260 -285h-240zM582 1169l157 285h342l-260 -285h-239z" />
    <glyph glyph-name="gravecomb" unicode="&#x300;" 
d="M-6 1169l-217 285h379l135 -285h-297z" />
    <glyph glyph-name="acutecomb" unicode="&#x301;" 
d="M94 1169l193 285h393l-315 -285h-271z" />
    <glyph glyph-name="uni0302" unicode="&#x302;" 
d="M680 1169h-307l-49 138l-99 -138h-307l246 285h366z" />
    <glyph glyph-name="tildecomb" unicode="&#x303;" 
d="M350 1169q-39 0 -77 17.5t-67 35t-46 17.5q-60 0 -90 -70h-217q44 150 121 224.5t167 74.5q40 0 77 -18t66 -36.5t48 -18.5q60 0 92 73h217q-47 -150 -125 -224.5t-166 -74.5z" />
    <glyph glyph-name="uni0304" unicode="&#x304;" 
d="M-139 1169l41 240h512l-41 -240h-512z" />
    <glyph glyph-name="uni0306" unicode="&#x306;" 
d="M176 1169q-164 0 -248 77.5t-61 207.5h307q-6 -35 5 -55.5t36 -20.5t42.5 20.5t23.5 55.5h307q-23 -131 -134.5 -208t-277.5 -77z" />
    <glyph glyph-name="uni0307" unicode="&#x307;" 
d="M41 1169l51 295h340l-51 -295h-340z" />
    <glyph glyph-name="uni0308" unicode="&#x308;" 
d="M-111 1169l52 291h270l-51 -291h-271zM276 1169l52 291h270l-51 -291h-271z" />
    <glyph glyph-name="uni030A" unicode="&#x30a;" 
d="M141 1169q-97 0 -159.5 64t-44.5 166q19 104 102.5 166.5t181.5 62.5q96 0 159 -63t44 -166q-18 -102 -102 -166t-181 -64zM168 1323q33 0 57 21.5t29 52.5q6 34 -10.5 55t-50.5 21q-31 0 -54.5 -21t-29.5 -55q-5 -32 11 -53t48 -21z" />
    <glyph glyph-name="uni030B" unicode="&#x30b;" 
d="M-96 1169l157 285h342l-260 -285h-239zM313 1169l158 285h342l-260 -285h-240z" />
    <glyph glyph-name="uni030C" unicode="&#x30c;" 
d="M422 1454h307l-268 -285h-326l-168 285h307l52 -125z" />
    <glyph glyph-name="uni030F" unicode="&#x30f;" 
d="M-479 1169l-162 285h342l59 -285h-239zM-70 1169l-161 285h342l59 -285h-240z" />
    <glyph glyph-name="uni0311" unicode="&#x311;" 
d="M-539 1169q23 131 133.5 208t274.5 77q166 0 251 -77.5t62 -207.5h-307q6 37 -4 58.5t-35 21.5t-43 -21.5t-24 -58.5h-308z" />
    <glyph glyph-name="uni0312" unicode="&#x312;" 
d="M504 1661q-53 0 -98 -32t-54 -83l-8 -45h133l-57 -332h-332l41 240l10 61l6 31l7 33q17 94 78.5 164.5t141 103.5t163.5 33z" />
    <glyph glyph-name="dotbelowcomb" unicode="&#x323;" 
d="M-537 -492l60 336h348l-59 -336h-349z" />
    <glyph glyph-name="uni0326" unicode="&#x326;" 
d="M-106 -143l-62 -346l-14 -82q-20 -110 -93 -193t-167.5 -122.5t-192.5 -39.5l37 205q63 0 115.5 37t62.5 96l10 56h-155l69 389h390z" />
    <glyph glyph-name="uni0327" unicode="&#x327;" 
d="M360 -68q68 -10 111 -29t59 -43.5t20.5 -56t-3.5 -65.5q-11 -66 -57.5 -115t-119 -77t-157 -42t-182.5 -16v135q186 14 202 115q7 36 -12 62.5t-82 43.5l111 164h156z" />
    <glyph glyph-name="uni0328" unicode="&#x328;" 
d="M-147 -487q-100 0 -150 43t-37 125q15 79 102 184t175 149h163q-100 -75 -147.5 -126.5t-54.5 -96.5q-6 -34 10.5 -57t54.5 -23q21 0 72 17l-8 -187q-75 -28 -180 -28z" />
    <glyph glyph-name="uni03BC" unicode="&#x3bc;" horiz-adv-x="915" 
d="M567 1024h342l-180 -1024l-346 -20l25 143q-38 -50 -98.5 -87.5t-121.5 -49.5l-14 -494h-328l119 672q0 17 8 63l140 797h344l-123 -688q-16 -100 35 -100q52 0 75 86z" />
    <glyph glyph-name="uni1E02" unicode="&#x1e02;" horiz-adv-x="1085" 
d="M874 1790l-59 -336h-348l59 336h348zM1055 1032q-19 -114 -100 -194.5t-189 -108.5q113 -3 182 -84.5t45 -210.5q-77 -434 -590 -434h-440l236 1337h452q229 0 330.5 -76.5t73.5 -228.5zM582 1108h-41l-54 -301h39q98 0 129 162q24 139 -73 139zM590 420q13 78 -10 119
t-80 41h-51l-62 -351h53q115 0 150 191z" />
    <glyph glyph-name="uni1E03" unicode="&#x1e03;" horiz-adv-x="927" 
d="M608 1855l-51 -294h-340l51 294h340zM707 1044q133 0 168 -118t-15 -408q-52 -296 -135.5 -417t-232.5 -121q-71 0 -123 45.5t-80 132.5l-29 -158h-315l248 1415h344l-86 -491q129 120 256 120zM504 518q16 88 22 135.5t4.5 78.5t-11 40.5t-30.5 9.5q-40 0 -60 -46
t-46 -199l-8 -41q-17 -99 -20 -156.5t6 -80.5t30 -23q28 0 44.5 22.5t32 80t36.5 179.5z" />
    <glyph glyph-name="uni1E0A" unicode="&#x1e0a;" horiz-adv-x="1089" 
d="M879 1790l-60 -336h-348l59 336h349zM657 1337q257 0 341.5 -151t23.5 -500q-66 -367 -205.5 -526.5t-394.5 -159.5h-459l236 1337h458zM618 672q40 233 28 334.5t-79 101.5h-26l-154 -879h27q68 0 115.5 103.5t88.5 339.5z" />
    <glyph glyph-name="uni1E0B" unicode="&#x1e0b;" horiz-adv-x="925" 
d="M727 1855h340l-51 -294h-340zM563 920l88 495h342l-248 -1415h-315l23 133q-150 -153 -291 -153q-138 0 -171 121.5t21 404.5q51 286 137 412t228 126q68 0 113.5 -29.5t72.5 -94.5zM385 236q26 0 46.5 40t45.5 154l35 199q10 61 8.5 95t-11 46t-30.5 12q-42 0 -61 -47.5
t-49 -216.5q-17 -93 -24 -144.5t-5 -84.5t12.5 -43t32.5 -10z" />
    <glyph glyph-name="uni1E0C" unicode="&#x1e0c;" horiz-adv-x="1089" 
d="M657 1337q257 0 341.5 -151t23.5 -500q-66 -367 -205.5 -526.5t-394.5 -159.5h-459l236 1337h458zM618 672q40 233 28 334.5t-79 101.5h-26l-154 -879h27q68 0 115.5 103.5t88.5 339.5zM195 -492l59 336h348l-59 -336h-348z" />
    <glyph glyph-name="uni1E0D" unicode="&#x1e0d;" horiz-adv-x="925" 
d="M651 1415h342l-248 -1415h-315l23 133q-150 -153 -291 -153q-138 0 -171 121.5t21 404.5q51 286 137 412t228 126q68 0 113.5 -29.5t72.5 -94.5zM385 236q26 0 46.5 40t45.5 154l35 199q10 61 8.5 95t-11 46t-30.5 12q-42 0 -61 -47.5t-49 -216.5q-17 -93 -24 -144.5
t-5 -84.5t12.5 -43t32.5 -10zM113 -492l59 336h348l-59 -336h-348z" />
    <glyph glyph-name="uni1E1E" unicode="&#x1e1e;" horiz-adv-x="915" 
d="M850 1790l-59 -336h-349l60 336h348zM920 1108h-379l-56 -320h351l-41 -229h-351l-98 -559h-383l236 1337h762z" />
    <glyph glyph-name="uni1E1F" unicode="&#x1e1f;" horiz-adv-x="579" 
d="M674 1855l-51 -294h-340l51 294h340zM596 1161q-65 0 -80 -98l-6 -39h113l-45 -256h-113l-205 -1157h-344l205 1157h-96l45 256h96l14 82q13 75 39.5 133t60 94.5t75.5 60t83 33t86 9.5q80 0 178 -31l-65 -250q-30 6 -41 6z" />
    <glyph glyph-name="uni1E24" unicode="&#x1e24;" horiz-adv-x="1093" 
d="M745 1337h383l-235 -1337h-383l104 590h-163l-105 -590h-383l236 1337h383l-93 -518h164zM197 -492l59 336h348l-59 -336h-348z" />
    <glyph glyph-name="uni1E25" unicode="&#x1e25;" horiz-adv-x="913" 
d="M717 1044q110 0 148.5 -57.5t15.5 -189.5l-142 -797h-344l121 682q16 100 -35 100q-59 0 -75 -100l-121 -682h-342l245 1395l347 20l-91 -514q48 61 125 102t148 41zM106 -492l60 336h348l-59 -336h-349z" />
    <glyph glyph-name="uni1E40" unicode="&#x1e40;" horiz-adv-x="1443" 
d="M1112 1790l-59 -336h-348l59 336h348zM1343 1337l-40 -1337h-383l49 764l-287 -764h-301l-4 774l-223 -774h-248l426 1337h401l2 -637l246 637h362z" />
    <glyph glyph-name="uni1E41" unicode="&#x1e41;" horiz-adv-x="1372" 
d="M1020 1464l-51 -295h-340l51 295h340zM1174 1044q112 0 150 -57.5t15 -189.5l-141 -797h-342l121 682q16 100 -37 100q-62 0 -78 -100l-121 -682h-342l119 682q4 26 4 48.5t-10 37t-29 14.5q-61 0 -77 -100l-121 -682h-342l180 1024l346 20l-25 -143q48 61 125.5 102
t147.5 41q87 0 129 -37.5t43 -121.5q47 66 129 112.5t156 46.5z" />
    <glyph glyph-name="uni1E44" unicode="&#x1e44;" horiz-adv-x="1091" 
d="M926 1790l-60 -336h-348l60 336h348zM893 1337h233l-235 -1337h-303l-260 741l-131 -741h-234l236 1337h338l233 -698z" />
    <glyph glyph-name="uni1E45" unicode="&#x1e45;" horiz-adv-x="913" 
d="M791 1464l-52 -295h-340l52 295h340zM717 1044q110 0 148.5 -57.5t15.5 -189.5l-142 -797h-344l121 682q16 100 -35 100q-59 0 -75 -100l-121 -682h-342l180 1024l346 20l-25 -143q48 61 125 102t148 41z" />
    <glyph glyph-name="uni1E56" unicode="&#x1e56;" horiz-adv-x="1079" 
d="M879 1790l-60 -336h-348l59 336h349zM684 1337q246 0 334 -102.5t47 -337.5q-44 -261 -171.5 -375t-373.5 -114h-102l-72 -408h-383l236 1337h485zM662 897q20 113 4.5 162t-72.5 49h-53l-82 -471h53q55 0 90 61t60 199z" />
    <glyph glyph-name="uni1E57" unicode="&#x1e57;" horiz-adv-x="927" 
d="M799 1464l-51 -295h-340l51 295h340zM678 1044q146 0 187.5 -125.5t-9.5 -412.5q-49 -281 -128 -403.5t-210 -122.5q-126 0 -215 118l-86 -487h-344l250 1413h326l-25 -139q113 159 254 159zM500 506q16 91 22.5 141.5t4.5 82.5t-12 42t-32 10q-37 0 -57 -51.5
t-51 -224.5q-15 -84 -21.5 -137t-3.5 -82.5t12 -40t27 -10.5q41 0 60.5 49t50.5 221z" />
    <glyph glyph-name="uni1E5A" unicode="&#x1e5a;" horiz-adv-x="1114" 
d="M1077 920q-40 -235 -205 -363l95 -557h-389l-78 449h-74l-80 -449h-383l236 1337h483q203 0 315.5 -113t79.5 -304zM541 1108l-76 -430h49q115 0 160 240q17 93 -6 141.5t-78 48.5h-49zM207 -492l59 336h348l-59 -336h-348z" />
    <glyph glyph-name="uni1E5B" unicode="&#x1e5b;" horiz-adv-x="716" 
d="M688 1044q41 0 62 -8l-72 -356q-50 37 -113 37q-69 0 -122 -59t-68 -148l-90 -510h-342l180 1024h342l-33 -190q51 89 123 149.5t133 60.5zM-145 -492l59 336h348l-59 -336h-348z" />
    <glyph glyph-name="uni1E60" unicode="&#x1e60;" horiz-adv-x="944" 
d="M465 1454l59 336h348l-59 -336h-348zM211 -20q-144 0 -277 45l89 278q104 -70 217 -70q40 0 70.5 4t63 15.5t54 36.5t27.5 63q3 20 0.5 37.5t-14 34t-22 28.5t-32.5 27t-35.5 23.5t-42 24.5t-41.5 24q-94 55 -133 147.5t-16 216.5q33 191 183.5 317t363.5 126
q189 0 319 -43l-86 -258q-92 47 -209 47q-51 0 -92.5 -35t-50.5 -90q-6 -34 2 -61t32.5 -47.5t45 -32.5t57.5 -29q219 -96 180 -320q-29 -159 -127.5 -276.5t-234.5 -175t-291 -57.5z" />
    <glyph glyph-name="uni1E61" unicode="&#x1e61;" horiz-adv-x="774" 
d="M311 1169l51 295h340l-51 -295h-340zM199 -20q-172 0 -275 34l70 248q103 -53 227 -53q54 0 97.5 21.5t50.5 60.5q5 28 -0.5 46t-21.5 28.5t-32 16t-44.5 14t-47.5 16.5q-197 77 -160 274q30 167 165 262.5t311 95.5q139 0 252 -40l-78 -234q-83 45 -191 45
q-30 0 -57 -20.5t-33 -53.5q-1 -15 -2.5 -26t3 -21t7 -16.5t11 -13t14.5 -10t16.5 -8t18 -7.5t19.5 -7t20 -7q83 -28 126 -91t27 -153q-35 -204 -165.5 -302.5t-327.5 -98.5z" />
    <glyph glyph-name="uni1E62" unicode="&#x1e62;" horiz-adv-x="944" 
d="M211 -20q-144 0 -277 45l89 278q104 -70 217 -70q40 0 70.5 4t63 15.5t54 36.5t27.5 63q3 20 0.5 37.5t-14 34t-22 28.5t-32.5 27t-35.5 23.5t-42 24.5t-41.5 24q-94 55 -133 147.5t-16 216.5q33 191 183.5 317t363.5 126q189 0 319 -43l-86 -258q-92 47 -209 47
q-51 0 -92.5 -35t-50.5 -90q-6 -34 2 -61t32.5 -47.5t45 -32.5t57.5 -29q219 -96 180 -320q-29 -159 -127.5 -276.5t-234.5 -175t-291 -57.5zM8 -492l60 336h348l-60 -336h-348z" />
    <glyph glyph-name="uni1E63" unicode="&#x1e63;" horiz-adv-x="774" 
d="M199 -20q-172 0 -275 34l70 248q103 -53 227 -53q54 0 97.5 21.5t50.5 60.5q5 28 -0.5 46t-21.5 28.5t-32 16t-44.5 14t-47.5 16.5q-197 77 -160 274q30 167 165 262.5t311 95.5q139 0 252 -40l-78 -234q-83 45 -191 45q-30 0 -57 -20.5t-33 -53.5q-1 -15 -2.5 -26t3 -21
t7 -16.5t11 -13t14.5 -10t16.5 -8t18 -7.5t19.5 -7t20 -7q83 -28 126 -91t27 -153q-35 -204 -165.5 -302.5t-327.5 -98.5zM37 -492l59 336h348l-59 -336h-348z" />
    <glyph glyph-name="uni1E6A" unicode="&#x1e6a;" horiz-adv-x="1005" 
d="M874 1790l-59 -336h-348l59 336h348zM1085 1337l-41 -229h-274l-195 -1108h-382l194 1108h-272l41 229h929z" />
    <glyph glyph-name="uni1E6B" unicode="&#x1e6b;" horiz-adv-x="610" 
d="M627 1681l-52 -295h-339l51 295h340zM469 768l-74 -416q-9 -54 1.5 -76t45.5 -22q41 0 47 2l-43 -246q-110 -30 -170 -30q-155 0 -208.5 76t-22.5 253l80 459h-84l45 256h84l39 217l354 62l-49 -279h131l-45 -256h-131z" />
    <glyph glyph-name="uni1E6C" unicode="&#x1e6c;" horiz-adv-x="1005" 
d="M1085 1337l-41 -229h-274l-195 -1108h-382l194 1108h-272l41 229h929zM125 -492l59 336h348l-59 -336h-348z" />
    <glyph glyph-name="uni1E6D" unicode="&#x1e6d;" horiz-adv-x="610" 
d="M469 768l-74 -416q-9 -54 1.5 -76t45.5 -22q41 0 47 2l-43 -246q-110 -30 -170 -30q-155 0 -208.5 76t-22.5 253l80 459h-84l45 256h84l39 217l354 62l-49 -279h131l-45 -256h-131zM-25 -489l60 335h348l-59 -335h-349z" />
    <glyph glyph-name="Wgrave" unicode="&#x1e80;" horiz-adv-x="1472" 
d="M1081 1454h-313l-215 293h395zM1329 1337h256l-483 -1337h-334v776l-279 -776h-344l-22 1337h399l-8 -579l203 579h411l-2 -589z" />
    <glyph glyph-name="wgrave" unicode="&#x1e81;" horiz-adv-x="1189" 
d="M909 1169h-297l-217 285h379zM1055 1024h202l-397 -1024h-313l2 401l-143 -401h-302l-49 1024h367l-2 -582l207 582h237l-2 -555z" />
    <glyph glyph-name="Wacute" unicode="&#x1e82;" horiz-adv-x="1472" 
d="M1376 1747l-317 -293h-297l215 293h399zM1329 1337h256l-483 -1337h-334v776l-279 -776h-344l-22 1337h399l-8 -579l203 579h411l-2 -589z" />
    <glyph glyph-name="wacute" unicode="&#x1e83;" horiz-adv-x="1189" 
d="M1176 1454l-316 -285h-270l192 285h394zM1055 1024h202l-397 -1024h-313l2 401l-143 -401h-302l-49 1024h367l-2 -582l207 582h237l-2 -555z" />
    <glyph glyph-name="Wdieresis" unicode="&#x1e84;" horiz-adv-x="1472" 
d="M918 1765l-56 -311h-311l55 311h312zM1346 1765l-56 -311h-311l55 311h312zM1329 1337h256l-483 -1337h-334v776l-279 -776h-344l-22 1337h399l-8 -579l203 579h411l-2 -589z" />
    <glyph glyph-name="wdieresis" unicode="&#x1e85;" horiz-adv-x="1189" 
d="M721 1460l-51 -291h-271l52 291h270zM1108 1460l-51 -291h-271l52 291h270zM1055 1024h202l-397 -1024h-313l2 401l-143 -401h-302l-49 1024h367l-2 -582l207 582h237l-2 -555z" />
    <glyph glyph-name="uni1E92" unicode="&#x1e92;" horiz-adv-x="874" 
d="M913 1337l-483 -1108h307l-41 -229h-772l490 1108h-281l41 229h739zM88 -492l59 336h349l-60 -336h-348z" />
    <glyph glyph-name="uni1E93" unicode="&#x1e93;" horiz-adv-x="774" 
d="M791 1024l-398 -788h262l-41 -234h-696l395 789h-225l41 233h662zM37 -492l59 336h348l-59 -336h-348z" />
    <glyph glyph-name="uni1E9E" unicode="&#x1e9e;" horiz-adv-x="1888" 
d="M211 -20q-144 0 -277 45l89 278q104 -70 217 -70q40 0 70.5 4t63 15.5t54 36.5t27.5 63q3 20 0.5 37.5t-14 34t-22 28.5t-32.5 27t-35.5 23.5t-42 24.5t-41.5 24q-94 55 -133 147.5t-16 216.5q33 191 183.5 317t363.5 126q189 0 319 -43l-86 -258q-92 47 -209 47
q-51 0 -92.5 -35t-50.5 -90q-6 -34 2 -61t32.5 -47.5t45 -32.5t57.5 -29q219 -96 180 -320q-29 -159 -127.5 -276.5t-234.5 -175t-291 -57.5zM1155 -20q-143 0 -276 45l88 278q104 -70 217 -70q40 0 70.5 4t63 15.5t54 36.5t27.5 63q3 20 0.5 37.5t-14 34t-22 28.5t-32.5 27
t-35.5 23.5t-42 24.5t-41.5 24q-94 55 -133 147.5t-16 216.5q33 191 183.5 317t363.5 126q189 0 319 -43l-86 -258q-92 47 -209 47q-51 0 -92.5 -35t-50.5 -90q-6 -34 2 -61t32.5 -47.5t45 -32.5t57.5 -29q219 -96 180 -320q-29 -159 -127.5 -276.5t-234.5 -175t-291 -57.5z
" />
    <glyph glyph-name="uni1EA0" unicode="&#x1ea0;" horiz-adv-x="1017" 
d="M893 0h-383l-2 221h-283l-80 -221h-260l521 1337h460zM307 451h199l-4 548zM68 -492l59 336h348l-59 -336h-348z" />
    <glyph glyph-name="uni1EA1" unicode="&#x1ea1;" horiz-adv-x="923" 
d="M608 1024h316l-181 -1024h-315l23 131q-77 -81 -146 -116t-145 -35q-131 0 -166 122.5t16 403.5q51 288 135.5 413t229.5 125q80 0 129.5 -41.5t75.5 -134.5zM383 236q26 0 46 39t44 149l39 217q10 86 2.5 113.5t-37.5 27.5q-42 0 -61 -47.5t-49 -216.5
q-17 -93 -24 -144.5t-5 -84.5t12.5 -43t32.5 -10zM90 -492l60 336h348l-60 -336h-348z" />
    <glyph glyph-name="uni1EB8" unicode="&#x1eb8;" horiz-adv-x="940" 
d="M920 1108h-379l-52 -289h351l-39 -229h-350l-64 -361h391l-39 -229h-776l236 1337h762zM113 -492l59 336h348l-59 -336h-348z" />
    <glyph glyph-name="uni1EB9" unicode="&#x1eb9;" horiz-adv-x="909" 
d="M510 1044q228 0 303.5 -127.5t22.5 -422.5q-5 -33 -11 -50h-465q-15 -128 16 -181.5t116 -53.5q67 0 118 12.5t109 42.5l-14 -213q-70 -38 -147 -54.5t-183 -16.5q-243 0 -327.5 126t-33.5 414q50 280 165 402t331 122zM389 618h111l8 44q9 57 9 90t-9 48t-29 15
q-30 0 -48.5 -34.5t-33.5 -118.5zM104 -492l60 336h348l-59 -336h-349z" />
    <glyph glyph-name="uni1EBC" unicode="&#x1ebc;" horiz-adv-x="940" 
d="M514 1524q-31 0 -58 -19t-42 -51h-248q43 137 136 218t208 81q41 0 80.5 -18.5t70 -37t50.5 -18.5q32 0 59.5 20t42.5 54h248q-46 -137 -140 -218t-206 -81q-40 0 -80.5 17.5t-71.5 35t-49 17.5zM961 1337l-41 -229h-379l-52 -289h351l-39 -229h-350l-64 -361h391
l-39 -229h-776l236 1337h762z" />
    <glyph glyph-name="uni1EBD" unicode="&#x1ebd;" horiz-adv-x="909" 
d="M774 1468h217q-47 -150 -125 -224.5t-166 -74.5q-39 0 -77 17.5t-67 35t-46 17.5q-60 0 -90 -70h-217q44 150 121.5 224.5t167.5 74.5q31 0 61.5 -11.5t50 -25t41 -25t37.5 -11.5q60 0 92 73zM510 1044q228 0 303.5 -127.5t22.5 -422.5q-5 -33 -11 -50h-465
q-15 -128 16 -181.5t116 -53.5q67 0 118 12.5t109 42.5l-14 -213q-70 -38 -147 -54.5t-183 -16.5q-243 0 -327.5 126t-33.5 414q50 280 165 402t331 122zM389 618h111l8 44q9 57 9 90t-9 48t-29 15q-30 0 -48.5 -34.5t-33.5 -118.5z" />
    <glyph glyph-name="uni1ECA" unicode="&#x1eca;" horiz-adv-x="546" 
d="M-37 0l236 1337h383l-236 -1337h-383zM-104 -492l59 336h348l-59 -336h-348z" />
    <glyph glyph-name="uni1ECB" unicode="&#x1ecb;" horiz-adv-x="466" 
d="M150 1171l57 316h342l-55 -316h-344zM-55 0l180 1024h342l-180 -1024h-342zM-117 -492l60 336h348l-60 -336h-348z" />
    <glyph glyph-name="uni1ECC" unicode="&#x1ecc;" horiz-adv-x="1118" 
d="M434 -20q-262 0 -346.5 159t-19.5 533q66 369 207 527.5t403 158.5q265 0 350.5 -158t20.5 -528q-66 -373 -207.5 -532.5t-407.5 -159.5zM483 229q50 0 84 93.5t78 349.5q23 130 33.5 211.5t9.5 133t-14 71.5t-39 20q-35 0 -60.5 -39.5t-49.5 -131.5t-54 -265
q-23 -130 -33.5 -213.5t-8.5 -135.5t15 -73t39 -21zM186 -492l60 336h348l-59 -336h-349z" />
    <glyph glyph-name="uni1ECD" unicode="&#x1ecd;" horiz-adv-x="929" 
d="M344 -20q-227 0 -304.5 124t-27.5 408q49 284 170.5 408t349.5 124q224 0 300.5 -124t27.5 -408t-169.5 -408t-346.5 -124zM385 209q23 0 36 9.5t27 45.5t25.5 90.5t30.5 161.5q19 105 26.5 157.5t6.5 88t-11.5 44.5t-33.5 9q-32 0 -50 -22t-34 -82t-39 -195
q-19 -106 -26.5 -161.5t-5.5 -91t13 -45t35 -9.5zM92 -492l60 336h348l-60 -336h-348z" />
    <glyph glyph-name="uni1EE4" unicode="&#x1ee4;" horiz-adv-x="1040" 
d="M416 -20q-226 0 -324.5 113.5t-60.5 330.5l162 913h382l-161 -917q-17 -94 10 -142.5t96 -48.5q66 0 108.5 48.5t57.5 142.5l162 917h233l-161 -921q-38 -214 -166.5 -325t-337.5 -111zM170 -492l59 336h349l-60 -336h-348z" />
    <glyph glyph-name="uni1EE5" unicode="&#x1ee5;" horiz-adv-x="909" 
d="M567 1024h342l-180 -1024l-346 -20l25 143q-48 -61 -125 -102t-148 -41q-111 0 -149 57.5t-13 189.5l140 797h344l-123 -688q-16 -100 35 -100q52 0 75 86zM104 -492l60 336h348l-59 -336h-349z" />
    <glyph glyph-name="Ygrave" unicode="&#x1ef2;" horiz-adv-x="1009" 
d="M831 1454h-313l-215 293h395zM866 1337h256l-452 -798l-95 -539h-382l94 539l-164 798h397l96 -465z" />
    <glyph glyph-name="ygrave" unicode="&#x1ef3;" horiz-adv-x="774" 
d="M684 1169h-297l-217 285h379zM639 1024h203l-572 -1413h-202l155 389h-141l-27 1024h371l-23 -606z" />
    <glyph glyph-name="uni1EF8" unicode="&#x1ef8;" horiz-adv-x="1009" 
d="M596 1524q-31 0 -58 -19t-42 -51h-248q43 137 136 218t208 81q41 0 80.5 -18.5t70 -37t50.5 -18.5q32 0 59.5 20t42.5 54h248q-46 -137 -140 -218t-206 -81q-40 0 -80.5 17.5t-71.5 35t-49 17.5zM616 872l250 465h256l-452 -798l-95 -539h-382l94 539l-164 798h397z" />
    <glyph glyph-name="uni1EF9" unicode="&#x1ef9;" horiz-adv-x="774" 
d="M442 1239q-60 0 -90 -70h-217q44 150 121.5 224.5t167.5 74.5q31 0 61.5 -11.5t50 -25t41 -25t37.5 -11.5q61 0 93 73h217q-47 -150 -125 -224.5t-166 -74.5q-39 0 -77.5 17.5t-67.5 35t-46 17.5zM403 418l236 606h203l-572 -1413h-202l155 389h-141l-27 1024h371z" />
    <glyph glyph-name="endash" unicode="&#x2013;" horiz-adv-x="1099" 
d="M43 444l47 271h934l-47 -271h-934z" />
    <glyph glyph-name="emdash" unicode="&#x2014;" horiz-adv-x="1536" 
d="M43 444l47 271h1370l-47 -271h-1370z" />
    <glyph glyph-name="quoteleft" unicode="&#x2018;" horiz-adv-x="552" 
d="M555 1133q-63 0 -116.5 -37.5t-63.5 -96.5l-10 -55h155l-67 -389h-390l76 428q15 83 61 152t109 112t135.5 66.5t145.5 23.5z" />
    <glyph glyph-name="quoteright" unicode="&#x2019;" horiz-adv-x="550" 
d="M201 1337h389l-76 -428q-15 -83 -61 -152t-109 -112t-135.5 -66.5t-145.5 -23.5l35 205q63 0 117 37t64 96l10 55h-156z" />
    <glyph glyph-name="quotesinglbase" unicode="&#x201a;" horiz-adv-x="552" 
d="M35 389h389l-76 -428q-20 -110 -93 -193t-167 -122t-192 -39l36 205q63 0 116 37t63 96l10 55h-156z" />
    <glyph glyph-name="quotedblleft" unicode="&#x201c;" horiz-adv-x="1064" 
d="M555 1133q-63 0 -116.5 -37.5t-63.5 -96.5l-10 -55h155l-67 -389h-390l76 428q15 83 61 152t109 112t135.5 66.5t145.5 23.5zM1067 1133q-63 0 -116.5 -37.5t-63.5 -96.5l-10 -55h155l-67 -389h-390l76 428q15 83 61 152t109 112t135.5 66.5t145.5 23.5z" />
    <glyph glyph-name="quotedblright" unicode="&#x201d;" horiz-adv-x="1062" 
d="M201 1337h389l-76 -428q-15 -83 -61 -152t-109 -112t-135.5 -66.5t-145.5 -23.5l35 205q63 0 117 37t64 96l10 55h-156zM713 1337h389l-76 -428q-15 -83 -61 -152t-109 -112t-135.5 -66.5t-145.5 -23.5l35 205q63 0 117 37t64 96l10 55h-156z" />
    <glyph glyph-name="quotedblbase" unicode="&#x201e;" horiz-adv-x="1064" 
d="M35 389h389l-76 -428q-20 -110 -93 -193t-167 -122t-192 -39l36 205q63 0 116 37t63 96l10 55h-156zM547 389h389l-76 -428q-20 -110 -93 -193t-167 -122t-192 -39l36 205q63 0 116 37t63 96l10 55h-156z" />
    <glyph glyph-name="dagger" unicode="&#x2020;" horiz-adv-x="1001" 
d="M985 846l-39 -230h-284l-179 -1005h-342l178 1005h-284l41 230h284l86 491h342l-86 -491h283z" />
    <glyph glyph-name="daggerdbl" unicode="&#x2021;" horiz-adv-x="1001" 
d="M954 668h-284l-74 -414h285l-39 -229h-285l-74 -414h-342l74 414h-285l41 229h283l74 414h-283l41 229h283l77 440h342l-77 -440h284z" />
    <glyph glyph-name="bullet" unicode="&#x2022;" horiz-adv-x="534" 
d="M37 412l72 401h372l-71 -401h-373z" />
    <glyph glyph-name="ellipsis" unicode="&#x2026;" horiz-adv-x="1658" 
d="M-35 0l70 389h389l-70 -389h-389zM518 0l70 389h389l-70 -389h-389zM1071 0l70 389h389l-70 -389h-389z" />
    <glyph glyph-name="perthousand" unicode="&#x2030;" horiz-adv-x="1839" 
d="M291 702q-129 0 -182 91t-27 237t111 237t215 91q126 0 176.5 -91t25.5 -237q-26 -146 -108.5 -237t-210.5 -91zM131 0l797 1337h170l-799 -1337h-168zM307 799q25 0 42 47.5t42 185.5q23 136 23 183t-25 47q-28 0 -45.5 -47t-40.5 -183q-25 -138 -24.5 -185.5
t28.5 -47.5zM827 -18q-129 0 -182 91t-27 236q26 146 110.5 237t213.5 91q128 0 178.5 -91.5t24.5 -236.5q-24 -145 -107.5 -236t-210.5 -91zM1438 -18q-129 0 -182 91t-27 236q26 146 110 237t213 91q128 0 178.5 -91.5t24.5 -236.5q-24 -145 -107 -236t-210 -91zM844 78
q25 0 42 48t40 185q25 137 25 183.5t-25 46.5q-28 0 -45.5 -47t-40.5 -183q-25 -138 -24.5 -185.5t28.5 -47.5zM1454 78q25 0 42 48t40 185q25 137 25 183.5t-25 46.5q-28 0 -45.5 -47t-40.5 -183q-25 -138 -24.5 -185.5t28.5 -47.5z" />
    <glyph glyph-name="guilsinglleft" unicode="&#x2039;" horiz-adv-x="548" 
d="M543 858l-234 -315l123 -316h-307l-109 316l220 315h307z" />
    <glyph glyph-name="guilsinglright" unicode="&#x203a;" horiz-adv-x="548" 
d="M379 858l108 -315l-219 -316h-307l234 316l-123 315h307z" />
    <glyph glyph-name="fraction" unicode="&#x2044;" horiz-adv-x="256" 
d="M-463 0l848 1337h334l-850 -1337h-332z" />
    <glyph glyph-name="Euro" unicode="&#x20ac;" horiz-adv-x="974" 
d="M803 1077q-69 0 -113 -52.5t-76 -176.5h281l-64 -143h-768l62 143h106q68 260 209 385t367 125q15 0 240 -21l-80 -348zM739 467h-188q-12 -116 11.5 -164.5t88.5 -48.5q66 0 148 27l-4 -271q-138 -30 -289 -30q-199 0 -282.5 119.5t-57.5 367.5h-146l64 143h717z" />
    <glyph glyph-name="trademark" unicode="&#x2122;" horiz-adv-x="1269" 
d="M586 1217h-146l-104 -586h-119l102 586h-143l21 120h411zM1135 1337h174l-125 -706h-113l98 563l-249 -563h-76l-51 555l-99 -555h-114l125 706h176l43 -481z" />
    <glyph glyph-name="arrowleft" unicode="&#x2190;" horiz-adv-x="1464" 
d="M1409 815l-66 -373h-567l250 -333h-563l-391 520l575 520h563l-368 -334h567z" />
    <glyph glyph-name="arrowup" unicode="&#x2191;" horiz-adv-x="1181" 
d="M1139 868l-88 -495l-271 309l-121 -682h-376l120 682l-378 -309l88 495l598 490z" />
    <glyph glyph-name="arrowright" unicode="&#x2192;" horiz-adv-x="1464" 
d="M985 1149l391 -520l-575 -520h-563l368 333h-567l65 373h568l-250 334h563z" />
    <glyph glyph-name="arrowdown" unicode="&#x2193;" horiz-adv-x="1181" 
d="M778 674l381 311l-88 -496l-600 -489l-426 489l88 496l268 -309l121 682h377z" />
    <glyph glyph-name="arrowboth" unicode="&#x2194;" horiz-adv-x="2340" 
d="M1925 1149l328 -520l-512 -520h-563l329 333h-755l211 -333h-564l-327 520l512 520h563l-330 -334h756l-211 334h563z" />
    <glyph glyph-name="arrowupdn" unicode="&#x2195;" horiz-adv-x="968" 
d="M901 737l-184 189l-90 -516l250 188l-48 -270l-467 -346l-346 346l47 270l185 -188l92 516l-252 -189l49 271l467 346l344 -346z" />
    <glyph glyph-name="uni2196" unicode="&#x2196;" horiz-adv-x="1449" 
d="M1305 940h-537l528 -700l-313 -265l-508 674l-90 -504l-330 396l140 794h782z" />
    <glyph glyph-name="uni2197" unicode="&#x2197;" horiz-adv-x="1449" 
d="M707 1335h782l-139 -794l-471 -396l88 504l-746 -674l-219 265l774 700h-536z" />
    <glyph glyph-name="uni2198" unicode="&#x2198;" horiz-adv-x="1449" 
d="M1063 1190l332 -395l-142 -795h-782l-328 395h537l-528 701l313 264l508 -674z" />
    <glyph glyph-name="uni2199" unicode="&#x2199;" horiz-adv-x="1449" 
d="M1448 1096l-776 -701h538l-467 -395h-784l139 795l471 395l-88 -504l746 674z" />
    <glyph glyph-name="minus" unicode="&#x2212;" horiz-adv-x="835" 
d="M12 358l54 308h702l-53 -308h-703z" />
    <glyph glyph-name="uni2713" unicode="&#x2713;" horiz-adv-x="991" 
d="M369 477l577 432l-69 -393l-578 -428l-260 264l70 393z" />
    <glyph glyph-name="uniF8FF" unicode="&#xf8ff;" horiz-adv-x="1359" 
d="M668 0q-160 0 -296 79t-215 215t-79 296t79 296t215 215t296 79t296 -79t214.5 -215t78.5 -296t-78.5 -296t-214.5 -215t-296 -79zM528 236h269l2 12l-101 20v387h56q56 0 83 -36t27 -87q0 -120 -94 -120h-29v-15h37q66 0 107 39t41 107q0 66 -42.5 97.5t-115.5 31.5h-70
v153l209 -10l35 -110l23 4l-11 149h-577l-12 -149l22 -4l37 110l209 10v-557l-101 -20z" />
    <glyph glyph-name="L_periodcentered_L.loclCAT" horiz-adv-x="1972" 
d="M582 1337l-195 -1108h342l-41 -229h-725l236 1337h383zM1487 229h342l-41 -229h-725l235 1337h383zM590 547l74 389h389l-74 -389h-389z" />
    <glyph glyph-name="l_periodcentered_l.loclCAT" horiz-adv-x="1486" 
d="M-57 0l245 1395l347 20l-250 -1415h-342zM950 0l246 1395l346 20l-250 -1415h-342zM508 512l70 389h389l-70 -389h-389z" />
    <glyph glyph-name="a.sc" horiz-adv-x="897" 
d="M412 0l-2 176h-234l-65 -176h-226l426 1024h416l47 -1024h-362zM240 344h166l-7 424z" />
    <glyph glyph-name="aacute.sc" horiz-adv-x="897" 
d="M989 1454l-315 -285h-285l234 285h366zM727 1024l47 -1024h-362l-2 176h-234l-65 -176h-226l426 1024h416zM240 344h166l-7 424z" />
    <glyph glyph-name="abreve.sc" horiz-adv-x="897" 
d="M670 1464h286q-23 -134 -130.5 -214.5t-262.5 -80.5q-152 0 -231 81t-56 214h287q-8 -42 2 -67t35 -25t43.5 25t26.5 67zM727 1024l47 -1024h-362l-2 176h-234l-65 -176h-226l426 1024h416zM240 344h166l-7 424z" />
    <glyph glyph-name="uni01CE.sc" horiz-adv-x="897" 
d="M381 1169l-168 285h328l49 -137l98 137h328l-268 -285h-367zM727 1024l47 -1024h-362l-2 176h-234l-65 -176h-226l426 1024h416zM240 344h166l-7 424z" />
    <glyph glyph-name="acircumflex.sc" horiz-adv-x="897" 
d="M590 1307l-98 -138h-328l266 285h367l170 -285h-328zM727 1024l47 -1024h-362l-2 176h-234l-65 -176h-226l426 1024h416zM240 344h166l-7 424z" />
    <glyph glyph-name="uni0201.sc" horiz-adv-x="897" 
d="M522 1169h-239l-162 285h342zM932 1169h-240l-162 285h342zM727 1024l47 -1024h-362l-2 176h-234l-65 -176h-226l426 1024h416zM240 344h166l-7 424z" />
    <glyph glyph-name="adieresis.sc" horiz-adv-x="897" 
d="M559 1460l-51 -291h-301l51 291h301zM676 1460h301l-51 -291h-301zM727 1024l47 -1024h-362l-2 176h-234l-65 -176h-226l426 1024h416zM240 344h166l-7 424z" />
    <glyph glyph-name="uni1EA1.sc" horiz-adv-x="897" 
d="M176 176l-65 -176h-226l426 1024h416l47 -1024h-362l-2 176h-234zM399 768l-159 -424h166zM98 -492l60 336h348l-60 -336h-348z" />
    <glyph glyph-name="agrave.sc" horiz-adv-x="897" 
d="M762 1157h-297l-215 293h379zM412 0l-2 176h-234l-65 -176h-226l426 1024h416l47 -1024h-362zM240 344h166l-7 424z" />
    <glyph glyph-name="uni0203.sc" horiz-adv-x="897" 
d="M578 1464q155 0 234 -80.5t56 -214.5h-286q6 42 -3.5 67.5t-33.5 25.5q-25 0 -44.5 -26t-25.5 -67h-287q23 133 130.5 214t259.5 81zM727 1024l47 -1024h-362l-2 176h-234l-65 -176h-226l426 1024h416zM240 344h166l-7 424z" />
    <glyph glyph-name="amacron.sc" horiz-adv-x="897" 
d="M344 1366h512l-35 -197h-512zM727 1024l47 -1024h-362l-2 176h-234l-65 -176h-226l426 1024h416zM240 344h166l-7 424z" />
    <glyph glyph-name="aogonek.sc" horiz-adv-x="897" 
d="M528 -209q-6 -34 11 -57t55 -23q21 0 72 17l-9 -187q-75 -28 -180 -28q-100 0 -149.5 43t-36.5 125q13 72 90 169t162 150h-131l-2 176h-234l-65 -176h-226l426 1024h416l47 -1024h-61q-91 -69 -134.5 -117.5t-50.5 -91.5zM240 344h166l-7 424z" />
    <glyph glyph-name="aring.sc" horiz-adv-x="897" 
d="M412 0l-2 176h-234l-65 -176h-226l426 1024h25q-19 46 -10 104q17 90 89.5 144.5t159.5 54.5q83 0 140 -55t41 -144q-9 -60 -47 -104h18l47 -1024h-362zM477 1124q-5 -28 9.5 -47.5t41.5 -19.5q29 0 50 19.5t26 47.5q5 30 -9.5 49t-43.5 19q-27 0 -48.5 -19.5
t-25.5 -48.5zM240 344h166l-7 424z" />
    <glyph glyph-name="aringacute.sc" horiz-adv-x="897" 
d="M672 1024h55l47 -1024h-362l-2 176h-234l-65 -176h-226l426 1024h64q-55 59 -41 150q10 59 48 104.5t91 69.5l176 215h367l-283 -256q45 -55 31 -133q-14 -89 -92 -150zM485 1169q-5 -28 10 -47.5t42 -19.5q29 0 49.5 19.5t25.5 47.5q5 30 -9.5 49t-43.5 19
q-27 0 -48.5 -19.5t-25.5 -48.5zM240 344h166l-7 424z" />
    <glyph glyph-name="atilde.sc" horiz-adv-x="897" 
d="M768 1468h217q-47 -150 -125 -224.5t-166 -74.5q-39 0 -77 17.5t-67 35t-46 17.5q-60 0 -90 -70h-217q44 150 121 224.5t167 74.5q40 0 77 -18t66 -36.5t48 -18.5q60 0 92 73zM727 1024l47 -1024h-362l-2 176h-234l-65 -176h-226l426 1024h416zM240 344h166l-7 424z" />
    <glyph glyph-name="ae.sc" horiz-adv-x="1345" 
d="M1288 842h-334l-36 -211h307l-33 -182h-305l-47 -267h344l-33 -182h-688l35 193h-250l-80 -193h-283l490 1024h944zM309 344h215l86 498h-94z" />
    <glyph glyph-name="aeacute.sc" horiz-adv-x="1331" 
d="M1135 1337l-258 -227h-228l193 227h293zM1288 842h-334l-36 -211h307l-33 -182h-305l-47 -267h344l-33 -182h-688l35 193h-250l-80 -193h-283l490 1024h944zM309 344h215l86 498h-94z" />
    <glyph glyph-name="b.sc" horiz-adv-x="964" 
d="M895 791q-17 -90 -73 -153t-128 -83q87 -13 133 -76.5t27 -165.5q-28 -154 -125.5 -233.5t-257.5 -79.5h-514l180 1024h438q175 0 257.5 -59.5t62.5 -173.5zM481 842h-32l-39 -226h28q37 0 67.5 31.5t39.5 83.5q10 53 -8.5 82t-55.5 29zM494 315q9 52 -11.5 87.5
t-62.5 35.5h-43l-45 -256h45q43 0 75.5 39t41.5 94z" />
    <glyph glyph-name="uni1E03.sc" horiz-adv-x="964" 
d="M803 1452l-49 -283h-308l50 283h307zM895 791q-17 -90 -73 -153t-128 -83q87 -13 133 -76.5t27 -165.5q-28 -154 -125.5 -233.5t-257.5 -79.5h-514l180 1024h438q175 0 257.5 -59.5t62.5 -173.5zM481 842h-32l-39 -226h28q37 0 67.5 31.5t39.5 83.5q10 53 -8.5 82
t-55.5 29zM494 315q9 52 -11.5 87.5t-62.5 35.5h-43l-45 -256h45q43 0 75.5 39t41.5 94z" />
    <glyph glyph-name="c.sc" horiz-adv-x="759" 
d="M328 -16q-142 0 -217 51t-97.5 170t15.5 313q51 285 174.5 403.5t363.5 118.5q26 0 211 -16l-59 -252l-146 64q-70 0 -111.5 -71.5t-72.5 -246.5q-34 -184 -19.5 -260t83.5 -76q47 0 129 21l2 -197q-132 -22 -256 -22z" />
    <glyph glyph-name="cacute.sc" horiz-adv-x="759" 
d="M326 1169l233 285h367l-316 -285h-284zM328 -16q-142 0 -217 51t-97.5 170t15.5 313q51 285 174.5 403.5t363.5 118.5q26 0 211 -16l-59 -252l-146 64q-70 0 -111.5 -71.5t-72.5 -246.5q-34 -184 -19.5 -260t83.5 -76q47 0 129 21l2 -197q-132 -22 -256 -22z" />
    <glyph glyph-name="ccaron.sc" horiz-adv-x="759" 
d="M317 1169l-167 285h327l49 -137l99 137h327l-268 -285h-367zM29 518q51 285 174.5 403.5t363.5 118.5q26 0 211 -16l-59 -252l-146 64q-70 0 -111.5 -71.5t-72.5 -246.5q-34 -184 -19.5 -260t83.5 -76q47 0 129 21l2 -197q-132 -22 -256 -22q-142 0 -217 51t-97.5 170
t15.5 313z" />
    <glyph glyph-name="ccedilla.sc" horiz-adv-x="759" 
d="M573 836q-70 0 -111.5 -71.5t-72.5 -246.5q-34 -184 -19.5 -260t83.5 -76q47 0 129 21l2 -197q-115 -19 -224 -22l-30 -52q68 -10 110.5 -29t59 -43.5t20.5 -56t-4 -65.5q-11 -66 -57.5 -115t-119 -77t-157 -42t-182.5 -16v135q187 14 203 115q7 36 -12 62.5t-82 43.5
l102 150q-140 31 -183 153t1 371q51 285 174.5 403.5t363.5 118.5q26 0 211 -16l-59 -252z" />
    <glyph glyph-name="ccircumflex.sc" horiz-adv-x="759" 
d="M526 1307l-98 -138h-328l267 285h366l170 -285h-328zM29 518q51 285 174.5 403.5t363.5 118.5q26 0 211 -16l-59 -252l-146 64q-70 0 -111.5 -71.5t-72.5 -246.5q-34 -184 -19.5 -260t83.5 -76q47 0 129 21l2 -197q-132 -22 -256 -22q-142 0 -217 51t-97.5 170t15.5 313z
" />
    <glyph glyph-name="cdotaccent.sc" horiz-adv-x="759" 
d="M348 1169l49 283h308l-50 -283h-307zM328 -16q-142 0 -217 51t-97.5 170t15.5 313q51 285 174.5 403.5t363.5 118.5q26 0 211 -16l-59 -252l-146 64q-70 0 -111.5 -71.5t-72.5 -246.5q-34 -184 -19.5 -260t83.5 -76q47 0 129 21l2 -197q-132 -22 -256 -22z" />
    <glyph glyph-name="d.sc" horiz-adv-x="978" 
d="M545 1024q236 0 317.5 -113t34.5 -385q-52 -288 -174 -407t-358 -119h-408l180 1024h408zM537 514q32 182 16 255t-88 73h-16l-117 -660h20q69 0 111 74.5t74 257.5z" />
    <glyph glyph-name="eth.sc" horiz-adv-x="976" 
d="M543 1024q244 0 321.5 -111.5t30.5 -386.5q-51 -290 -171 -408t-362 -118h-405l76 428h-56l33 184h56l71 412h406zM535 514q32 182 16.5 255t-86.5 73h-16l-41 -230h71l-33 -184h-71l-43 -246h18q70 0 112 75t73 257z" />
    <glyph glyph-name="dcaron.sc" horiz-adv-x="978" 
d="M422 1169l-168 285h328l49 -137l98 137h328l-269 -285h-366zM545 1024q236 0 317.5 -113t34.5 -385q-52 -288 -174 -407t-358 -119h-408l180 1024h408zM537 514q32 182 16 255t-88 73h-16l-117 -660h20q69 0 111 74.5t74 257.5z" />
    <glyph glyph-name="dcroat.sc" horiz-adv-x="976" 
d="M543 1024q244 0 321.5 -111.5t30.5 -386.5q-51 -290 -171 -408t-362 -118h-405l76 428h-56l33 184h56l71 412h406zM537 514q32 182 16 255t-88 73h-16l-41 -230h71l-33 -184h-71l-43 -246h18q71 0 113.5 75t73.5 257z" />
    <glyph glyph-name="uni1E0B.sc" horiz-adv-x="978" 
d="M809 1452l-49 -283h-307l49 283h307zM545 1024q236 0 317.5 -113t34.5 -385q-52 -288 -174 -407t-358 -119h-408l180 1024h408zM537 514q32 182 16 255t-88 73h-16l-117 -660h20q69 0 111 74.5t74 257.5z" />
    <glyph glyph-name="uni1E0D.sc" horiz-adv-x="978" 
d="M545 1024q236 0 317.5 -113t34.5 -385q-52 -288 -174 -407t-358 -119h-408l180 1024h408zM537 514q32 182 16 255t-88 73h-16l-117 -660h20q69 0 111 74.5t74 257.5zM139 -492l60 336h348l-60 -336h-348z" />
    <glyph glyph-name="e.sc" horiz-adv-x="837" 
d="M780 842h-331l-37 -211h307l-33 -182h-307l-47 -267h344l-33 -182h-686l180 1024h676z" />
    <glyph glyph-name="eacute.sc" horiz-adv-x="837" 
d="M952 1454l-315 -285h-285l234 285h366zM813 1024l-33 -182h-331l-37 -211h307l-33 -182h-307l-47 -267h344l-33 -182h-686l180 1024h676z" />
    <glyph glyph-name="ebreve.sc" horiz-adv-x="837" 
d="M633 1464h287q-23 -134 -131 -214.5t-263 -80.5q-152 0 -230.5 81t-55.5 214h286q-8 -42 2 -67t35 -25t43.5 25t26.5 67zM813 1024l-33 -182h-331l-37 -211h307l-33 -182h-307l-47 -267h344l-33 -182h-686l180 1024h676z" />
    <glyph glyph-name="ecaron.sc" horiz-adv-x="837" 
d="M344 1169l-168 285h328l49 -137l98 137h328l-268 -285h-367zM813 1024l-33 -182h-331l-37 -211h307l-33 -182h-307l-47 -267h344l-33 -182h-686l180 1024h676z" />
    <glyph glyph-name="ecircumflex.sc" horiz-adv-x="837" 
d="M553 1307l-98 -138h-328l266 285h367l170 -285h-328zM813 1024l-33 -182h-331l-37 -211h307l-33 -182h-307l-47 -267h344l-33 -182h-686l180 1024h676z" />
    <glyph glyph-name="uni0205.sc" horiz-adv-x="837" 
d="M485 1169h-239l-162 285h342zM895 1169h-240l-161 285h342zM813 1024l-33 -182h-331l-37 -211h307l-33 -182h-307l-47 -267h344l-33 -182h-686l180 1024h676z" />
    <glyph glyph-name="edieresis.sc" horiz-adv-x="837" 
d="M522 1460l-51 -291h-301l51 291h301zM639 1460h301l-51 -291h-301zM813 1024l-33 -182h-331l-37 -211h307l-33 -182h-307l-47 -267h344l-33 -182h-686l180 1024h676z" />
    <glyph glyph-name="edotaccent.sc" horiz-adv-x="837" 
d="M731 1452l-49 -283h-307l49 283h307zM780 842h-331l-37 -211h307l-33 -182h-307l-47 -267h344l-33 -182h-686l180 1024h676z" />
    <glyph glyph-name="uni1EB9.sc" horiz-adv-x="837" 
d="M780 842h-331l-37 -211h307l-33 -182h-307l-47 -267h344l-33 -182h-686l180 1024h676zM61 -492l60 336h348l-59 -336h-349z" />
    <glyph glyph-name="egrave.sc" horiz-adv-x="837" 
d="M725 1157h-297l-215 293h379zM780 842h-331l-37 -211h307l-33 -182h-307l-47 -267h344l-33 -182h-686l180 1024h676z" />
    <glyph glyph-name="uni0207.sc" horiz-adv-x="837" 
d="M541 1464q155 0 234 -80.5t56 -214.5h-286q6 42 -3.5 67.5t-33.5 25.5q-25 0 -44.5 -26t-25.5 -67h-286q23 133 130 214t259 81zM813 1024l-33 -182h-331l-37 -211h307l-33 -182h-307l-47 -267h344l-33 -182h-686l180 1024h676z" />
    <glyph glyph-name="emacron.sc" horiz-adv-x="837" 
d="M819 1366l-35 -197h-512l35 197h512zM813 1024l-33 -182h-331l-37 -211h307l-33 -182h-307l-47 -267h344l-33 -182h-686l180 1024h676z" />
    <glyph glyph-name="eogonek.sc" horiz-adv-x="837" 
d="M780 842h-331l-37 -211h307l-33 -182h-307l-47 -267h344l-33 -182h-37q-91 -68 -134 -116.5t-50 -92.5q-6 -34 10.5 -57t54.5 -23q21 0 72 17l-8 -187q-75 -28 -180 -28q-100 0 -150 43t-37 125q13 72 90 169t162 150h-479l180 1024h676z" />
    <glyph glyph-name="uni1EBD.sc" horiz-adv-x="837" 
d="M731 1468h217q-47 -150 -125 -224.5t-166 -74.5q-39 0 -77 17.5t-67 35t-46 17.5q-60 0 -90 -70h-217q44 150 121.5 224.5t167.5 74.5q31 0 61.5 -11.5t50 -25t41 -25t37.5 -11.5q60 0 92 73zM813 1024l-33 -182h-331l-37 -211h307l-33 -182h-307l-47 -267h344l-33 -182
h-686l180 1024h676z" />
    <glyph glyph-name="uni0259.sc" horiz-adv-x="937" 
d="M492 1044q241 0 325.5 -128t34.5 -412q-47 -274 -165.5 -399t-330.5 -125q-237 0 -308 122t-17 428q6 38 10 50h465q15 128 -15.5 181.5t-115.5 53.5q-123 0 -228 -55l15 213q73 39 147.5 55t182.5 16zM387 209q30 0 48.5 34.5t33.5 118.5l8 44h-110l-9 -44
q-14 -85 -7.5 -119t36.5 -34z" />
    <glyph glyph-name="f.sc" horiz-adv-x="802" 
d="M780 842h-331l-41 -236h307l-33 -182h-307l-76 -424h-342l180 1024h676z" />
    <glyph glyph-name="uni1E1F.sc" horiz-adv-x="802" 
d="M721 1452l-49 -283h-307l49 283h307zM780 842h-331l-41 -236h307l-33 -182h-307l-76 -424h-342l180 1024h676z" />
    <glyph glyph-name="g.sc" horiz-adv-x="970" 
d="M719 848q-152 0 -227.5 -74.5t-106.5 -255.5q-33 -189 -10.5 -265.5t110.5 -76.5h21l39 219h-76l33 185h377l-97 -541q-152 -55 -315 -55q-290 0 -391.5 117t-50.5 403q52 294 204 415t463 121q123 0 240 -18l-35 -193q-90 19 -178 19z" />
    <glyph glyph-name="uni01F5.sc" horiz-adv-x="970" 
d="M1030 1454l-315 -285h-285l234 285h366zM25 504q52 294 204 415t463 121q123 0 240 -18l-35 -193q-90 19 -178 19q-152 0 -227.5 -74.5t-106.5 -255.5q-33 -189 -10.5 -265.5t110.5 -76.5h21l39 219h-76l33 185h377l-97 -541q-152 -55 -315 -55q-290 0 -391.5 117
t-50.5 403z" />
    <glyph glyph-name="gbreve.sc" horiz-adv-x="970" 
d="M604 1169q-152 0 -231 81t-56 214h287q-8 -42 2 -67t35 -25t43.5 25t26.5 67h286q-23 -134 -130.5 -214.5t-262.5 -80.5zM25 504q52 294 204 415t463 121q123 0 240 -18l-35 -193q-90 19 -178 19q-152 0 -227.5 -74.5t-106.5 -255.5q-33 -189 -10.5 -265.5t110.5 -76.5
h21l39 219h-76l33 185h377l-97 -541q-152 -55 -315 -55q-290 0 -391.5 117t-50.5 403z" />
    <glyph glyph-name="gcaron.sc" horiz-adv-x="970" 
d="M422 1169l-168 285h328l49 -137l98 137h328l-269 -285h-366zM25 504q52 294 204 415t463 121q123 0 240 -18l-35 -193q-90 19 -178 19q-152 0 -227.5 -74.5t-106.5 -255.5q-33 -189 -10.5 -265.5t110.5 -76.5h21l39 219h-76l33 185h377l-97 -541q-152 -55 -315 -55
q-290 0 -391.5 117t-50.5 403z" />
    <glyph glyph-name="gcircumflex.sc" horiz-adv-x="970" 
d="M631 1307l-99 -138h-327l266 285h367l170 -285h-328zM25 504q52 294 204 415t463 121q123 0 240 -18l-35 -193q-90 19 -178 19q-152 0 -227.5 -74.5t-106.5 -255.5q-33 -189 -10.5 -265.5t110.5 -76.5h21l39 219h-76l33 185h377l-97 -541q-152 -55 -315 -55
q-290 0 -391.5 117t-50.5 403z" />
    <glyph glyph-name="uni0123.sc" horiz-adv-x="970" 
d="M719 848q-152 0 -227.5 -74.5t-106.5 -255.5q-33 -189 -10.5 -265.5t110.5 -76.5h21l39 219h-76l33 185h377l-97 -541q-152 -55 -315 -55q-290 0 -391.5 117t-50.5 403q52 294 204 415t463 121q123 0 240 -18l-35 -193q-90 19 -178 19zM180 -143h389l-61 -346l-14 -82
q-20 -110 -93 -193t-167.5 -122.5t-192.5 -39.5l37 205q63 0 115.5 37t62.5 96l10 56h-155z" />
    <glyph glyph-name="gdotaccent.sc" horiz-adv-x="970" 
d="M809 1452l-49 -283h-307l49 283h307zM719 848q-152 0 -227.5 -74.5t-106.5 -255.5q-33 -189 -10.5 -265.5t110.5 -76.5h21l39 219h-76l33 185h377l-97 -541q-152 -55 -315 -55q-290 0 -391.5 117t-50.5 403q52 294 204 415t463 121q123 0 240 -18l-35 -193
q-90 19 -178 19z" />
    <glyph glyph-name="h.sc" horiz-adv-x="983" 
d="M627 1024h342l-181 -1024h-344l80 449h-145l-80 -449h-342l180 1024h344l-69 -393h145z" />
    <glyph glyph-name="hbar.sc" horiz-adv-x="978" 
d="M1008 918l-19 -97h-59l-146 -821h-342l80 449h-143l-80 -449h-342l145 821h-67l16 97h68l18 106h344l-18 -106h141l19 106h344l-19 -106h60zM553 631l35 190h-144l-32 -190h141z" />
    <glyph glyph-name="hcircumflex.sc" horiz-adv-x="983" 
d="M633 1307l-98 -138h-328l266 285h367l170 -285h-328zM557 631l70 393h342l-181 -1024h-344l80 449h-145l-80 -449h-342l180 1024h344l-69 -393h145z" />
    <glyph glyph-name="uni1E25.sc" horiz-adv-x="983" 
d="M627 1024h342l-181 -1024h-344l80 449h-145l-80 -449h-342l180 1024h344l-69 -393h145zM141 -492l60 336h348l-60 -336h-348z" />
    <glyph glyph-name="i.sc" horiz-adv-x="495" 
d="M-43 0l180 1024h344l-182 -1024h-342z" />
    <glyph glyph-name="dotlessi.sc" horiz-adv-x="495" 
d="M-43 0l180 1024h344l-182 -1024h-342z" />
    <glyph glyph-name="iacute.sc" horiz-adv-x="495" 
d="M188 1169l234 285h366l-315 -285h-285zM-43 0l180 1024h344l-182 -1024h-342z" />
    <glyph glyph-name="ibreve.sc" horiz-adv-x="495" 
d="M362 1169q-152 0 -230.5 81t-55.5 214h286q-8 -42 2 -67t35 -25t43.5 25t26.5 67h287q-23 -134 -131 -214.5t-263 -80.5zM-43 0l180 1024h344l-182 -1024h-342z" />
    <glyph glyph-name="uni01D0.sc" horiz-adv-x="495" 
d="M487 1454h328l-268 -285h-367l-168 285h328l49 -137zM-43 0l180 1024h344l-182 -1024h-342z" />
    <glyph glyph-name="icircumflex.sc" horiz-adv-x="495" 
d="M389 1307l-98 -138h-328l266 285h367l170 -285h-328zM-43 0l180 1024h344l-182 -1024h-342z" />
    <glyph glyph-name="uni0209.sc" horiz-adv-x="495" 
d="M82 1169l-162 285h342l60 -285h-240zM492 1169l-162 285h342l59 -285h-239zM-43 0l180 1024h344l-182 -1024h-342z" />
    <glyph glyph-name="idieresis.sc" horiz-adv-x="495" 
d="M6 1169l51 291h301l-51 -291h-301zM424 1169l51 291h301l-51 -291h-301zM-43 0l180 1024h344l-182 -1024h-342z" />
    <glyph glyph-name="uni1ECB.sc" horiz-adv-x="495" 
d="M-43 0l180 1024h344l-182 -1024h-342zM-102 -492l59 336h348l-59 -336h-348z" />
    <glyph glyph-name="igrave.sc" horiz-adv-x="495" 
d="M264 1157l-215 293h379l133 -293h-297zM-43 0l180 1024h344l-182 -1024h-342z" />
    <glyph glyph-name="uni020B.sc" horiz-adv-x="495" 
d="M-12 1169q23 133 130 214t259 81q155 0 234.5 -80.5t56.5 -214.5h-287q6 42 -3.5 67.5t-33.5 25.5q-25 0 -44.5 -26t-25.5 -67h-286zM-43 0l180 1024h344l-182 -1024h-342z" />
    <glyph glyph-name="imacron.sc" horiz-adv-x="495" 
d="M109 1169l34 197h512l-34 -197h-512zM-43 0l180 1024h344l-182 -1024h-342z" />
    <glyph glyph-name="iogonek.sc" horiz-adv-x="495" 
d="M248 0q-91 -69 -134.5 -117.5t-50.5 -91.5q-6 -34 11 -57t55 -23q21 0 72 17l-8 -187q-75 -28 -181 -28q-100 0 -149.5 43t-36.5 125q13 72 90 169t162 150h-121l180 1024h344l-182 -1024h-51z" />
    <glyph glyph-name="itilde.sc" horiz-adv-x="495" 
d="M-4 1169q44 150 121.5 224.5t167.5 74.5q31 0 61.5 -11.5t50 -25t41 -25t37.5 -11.5q60 0 92 73h217q-47 -150 -125 -224.5t-165 -74.5q-39 0 -77.5 17.5t-67.5 35t-46 17.5q-60 0 -90 -70h-217zM-43 0l180 1024h344l-182 -1024h-342z" />
    <glyph glyph-name="j.sc" horiz-adv-x="489" 
d="M133 1024h342l-170 -971q-32 -183 -148.5 -260.5t-342.5 -77.5l-82 -2l28 185h29q80 0 118 27t48 93z" />
    <glyph glyph-name="jcircumflex.sc" horiz-adv-x="489" 
d="M387 1307l-98 -138h-328l266 285h367l170 -285h-328zM-45 18l178 1006h342l-170 -971q-32 -183 -148.5 -260.5t-342.5 -77.5l-82 -2l28 185h29q80 0 118 27t48 93z" />
    <glyph glyph-name="k.sc" horiz-adv-x="970" 
d="M1018 1026l-338 -356l147 -670h-350l-80 375l-39 -41l-59 -334h-342l180 1024h344l-55 -311l293 313h299z" />
    <glyph glyph-name="uni0137.sc" horiz-adv-x="970" 
d="M1018 1026l-338 -356l147 -670h-350l-80 375l-39 -41l-59 -334h-342l180 1024h344l-55 -311l293 313h299zM176 -143h389l-61 -346l-15 -82q-15 -83 -61 -152t-109.5 -112.5t-136.5 -67t-145 -23.5l37 205q63 0 115.5 37t62.5 96l10 56h-156z" />
    <glyph glyph-name="kgreenlandic.sc" horiz-adv-x="970" 
d="M1018 1026l-338 -356l147 -670h-350l-80 375l-39 -41l-59 -334h-342l180 1024h344l-55 -311l293 313h299z" />
    <glyph glyph-name="l.sc" horiz-adv-x="743" 
d="M332 182h297l-31 -182h-641l180 1024h344z" />
    <glyph glyph-name="lacute.sc" horiz-adv-x="743" 
d="M760 1454l-316 -285h-284l233 285h367zM481 1024l-149 -842h297l-31 -182h-641l180 1024h344z" />
    <glyph glyph-name="lcaron.sc" horiz-adv-x="1030" 
d="M690 1337h389l-75 -428q-15 -83 -61 -152t-109 -112t-135.5 -66.5t-145.5 -23.5l35 205q63 0 116.5 37t63.5 96l10 55h-155zM481 1024l-149 -842h297l-31 -182h-641l180 1024h344z" />
    <glyph glyph-name="uni013C.sc" horiz-adv-x="743" 
d="M332 182h297l-31 -182h-641l180 1024h344zM63 -143h390l-62 -346l-14 -82q-20 -110 -93 -193t-167.5 -122.5t-192.5 -39.5l37 205q63 0 115.5 37t62.5 96l11 56h-156z" />
    <glyph glyph-name="l_periodcentered_l.loclCAT.sc" horiz-adv-x="1777" 
d="M481 1024l-149 -842h297l-31 -182h-641l180 1024h344zM1339 182h297l-30 -182h-641l180 1024h344zM582 815h389l-70 -389h-389z" />
    <glyph glyph-name="lslash.sc" horiz-adv-x="743" 
d="M379 451l-47 -269h297l-31 -182h-641l61 346l-102 -37l39 219l102 37l80 459h344l-63 -354l215 78l-39 -220z" />
    <glyph glyph-name="m.sc" horiz-adv-x="1316" 
d="M1174 0h-340l4 543l-195 -543h-326l7 575l-199 -575h-219l370 1024h371l-6 -522l193 522h319z" />
    <glyph glyph-name="uni1E41.sc" horiz-adv-x="1316" 
d="M979 1452l-49 -283h-307l49 283h307zM1174 0h-340l4 543l-195 -543h-326l7 575l-199 -575h-219l370 1024h371l-6 -522l193 522h319z" />
    <glyph glyph-name="n.sc" horiz-adv-x="983" 
d="M762 1024h207l-181 -1024h-268l-256 561l-100 -561h-207l180 1024h303l230 -514z" />
    <glyph glyph-name="nacute.sc" horiz-adv-x="983" 
d="M1032 1454l-315 -285h-285l234 285h366zM670 510l92 514h207l-181 -1024h-268l-256 561l-100 -561h-207l180 1024h303z" />
    <glyph glyph-name="napostrophe.sc" horiz-adv-x="1462" 
d="M590 1337l-76 -428q-15 -83 -61 -152t-109 -112t-135.5 -66.5t-145.5 -23.5l35 205q63 0 117 37t64 96l10 55h-156l68 389h389zM1243 1024h207l-180 -1024h-269l-256 561l-100 -561h-207l180 1024h304l229 -514z" />
    <glyph glyph-name="ncaron.sc" horiz-adv-x="983" 
d="M424 1169l-168 285h328l49 -137l98 137h328l-268 -285h-367zM670 510l92 514h207l-181 -1024h-268l-256 561l-100 -561h-207l180 1024h303z" />
    <glyph glyph-name="uni0146.sc" horiz-adv-x="983" 
d="M762 1024h207l-181 -1024h-268l-256 561l-100 -561h-207l180 1024h303l230 -514zM182 -143h389l-61 -346l-14 -82q-20 -110 -93 -193t-167.5 -122.5t-192.5 -39.5l37 205q63 0 115.5 37t62.5 96l10 56h-155z" />
    <glyph glyph-name="uni1E45.sc" horiz-adv-x="983" 
d="M811 1452l-49 -283h-307l49 283h307zM762 1024h207l-181 -1024h-268l-256 561l-100 -561h-207l180 1024h303l230 -514z" />
    <glyph glyph-name="eng.sc" horiz-adv-x="931" 
d="M713 1024h205l-218 -1229q-20 -118 -66.5 -161.5t-154.5 -43.5q-53 0 -168 25l58 166q36 -4 49 -4q43 0 61 14.5t25 56.5l26 152h-69l-205 535l-94 -535h-205l180 1024h312l174 -506z" />
    <glyph glyph-name="uni0272.sc" horiz-adv-x="929" 
d="M709 1024h206l-180 -1024h-278l-201 530l-123 -694q-25 -142 -74 -194t-163 -52q-52 0 -162 25l57 166q28 -4 45 -4q48 0 67.5 14.5t26.5 56.5l207 1176h309l175 -504z" />
    <glyph glyph-name="ntilde.sc" horiz-adv-x="983" 
d="M547 1239q-60 0 -90 -70h-217q44 150 121 224.5t167 74.5q40 0 77 -18t66 -36.5t48 -18.5q60 0 92 73h217q-47 -150 -125 -224.5t-166 -74.5q-39 0 -77 17.5t-67 35t-46 17.5zM670 510l92 514h207l-181 -1024h-268l-256 561l-100 -561h-207l180 1024h303z" />
    <glyph glyph-name="o.sc" horiz-adv-x="997" 
d="M375 -16q-244 0 -321.5 119t-26.5 411q51 291 170.5 408.5t363.5 117.5q246 0 324.5 -118t27.5 -408q-51 -292 -171.5 -411t-366.5 -119zM414 176q50 0 76.5 68.5t62.5 269.5q9 51 14.5 87t10 71.5t6 58.5t1 44.5t-4.5 33.5t-11 22t-17 13.5t-24 3.5q-51 0 -79.5 -69.5
t-61.5 -264.5q-18 -102 -25.5 -161.5t-5.5 -102t16 -58.5t42 -16z" />
    <glyph glyph-name="oacute.sc" horiz-adv-x="997" 
d="M440 1169l234 285h366l-315 -285h-285zM375 -16q-244 0 -321.5 119t-26.5 411q51 291 170.5 408.5t363.5 117.5q246 0 324.5 -118t27.5 -408q-51 -292 -171.5 -411t-366.5 -119zM414 176q50 0 76.5 68.5t62.5 269.5q9 51 14.5 87t10 71.5t6 58.5t1 44.5t-4.5 33.5t-11 22
t-17 13.5t-24 3.5q-51 0 -79.5 -69.5t-61.5 -264.5q-18 -102 -25.5 -161.5t-5.5 -102t16 -58.5t42 -16z" />
    <glyph glyph-name="obreve.sc" horiz-adv-x="997" 
d="M614 1169q-152 0 -230.5 81t-55.5 214h286q-8 -42 2 -67t35 -25t43.5 25t26.5 67h287q-23 -134 -131 -214.5t-263 -80.5zM375 -16q-244 0 -321.5 119t-26.5 411q51 291 170.5 408.5t363.5 117.5q246 0 324.5 -118t27.5 -408q-51 -292 -171.5 -411t-366.5 -119zM414 176
q50 0 76.5 68.5t62.5 269.5q9 51 14.5 87t10 71.5t6 58.5t1 44.5t-4.5 33.5t-11 22t-17 13.5t-24 3.5q-51 0 -79.5 -69.5t-61.5 -264.5q-18 -102 -25.5 -161.5t-5.5 -102t16 -58.5t42 -16z" />
    <glyph glyph-name="uni01D2.sc" horiz-adv-x="997" 
d="M432 1169l-168 285h328l49 -137l98 137h328l-268 -285h-367zM561 1040q246 0 324.5 -118t27.5 -408q-51 -292 -171.5 -411t-366.5 -119q-244 0 -321.5 119t-26.5 411q51 291 170.5 408.5t363.5 117.5zM553 514q9 51 14.5 87t10 71.5t6 58.5t1 44.5t-4.5 33.5t-11 22
t-17 13.5t-24 3.5q-51 0 -79.5 -69.5t-61.5 -264.5q-18 -102 -25.5 -161.5t-5.5 -102t16 -58.5t42 -16q50 0 76.5 68.5t62.5 269.5z" />
    <glyph glyph-name="ocircumflex.sc" horiz-adv-x="997" 
d="M641 1307l-98 -138h-328l266 285h367l170 -285h-328zM561 1040q246 0 324.5 -118t27.5 -408q-51 -292 -171.5 -411t-366.5 -119q-244 0 -321.5 119t-26.5 411q51 291 170.5 408.5t363.5 117.5zM553 514q9 51 14.5 87t10 71.5t6 58.5t1 44.5t-4.5 33.5t-11 22t-17 13.5
t-24 3.5q-51 0 -79.5 -69.5t-61.5 -264.5q-18 -102 -25.5 -161.5t-5.5 -102t16 -58.5t42 -16q50 0 76.5 68.5t62.5 269.5z" />
    <glyph glyph-name="uni020D.sc" horiz-adv-x="997" 
d="M334 1169l-162 285h342l59 -285h-239zM743 1169l-161 285h342l59 -285h-240zM375 -16q-244 0 -321.5 119t-26.5 411q51 291 170.5 408.5t363.5 117.5q246 0 324.5 -118t27.5 -408q-51 -292 -171.5 -411t-366.5 -119zM414 176q50 0 76.5 68.5t62.5 269.5q9 51 14.5 87
t10 71.5t6 58.5t1 44.5t-4.5 33.5t-11 22t-17 13.5t-24 3.5q-51 0 -79.5 -69.5t-61.5 -264.5q-18 -102 -25.5 -161.5t-5.5 -102t16 -58.5t42 -16z" />
    <glyph glyph-name="odieresis.sc" horiz-adv-x="997" 
d="M258 1169l51 291h301l-51 -291h-301zM676 1169l51 291h301l-51 -291h-301zM375 -16q-244 0 -321.5 119t-26.5 411q51 291 170.5 408.5t363.5 117.5q246 0 324.5 -118t27.5 -408q-51 -292 -171.5 -411t-366.5 -119zM414 176q50 0 76.5 68.5t62.5 269.5q9 51 14.5 87
t10 71.5t6 58.5t1 44.5t-4.5 33.5t-11 22t-17 13.5t-24 3.5q-51 0 -79.5 -69.5t-61.5 -264.5q-18 -102 -25.5 -161.5t-5.5 -102t16 -58.5t42 -16z" />
    <glyph glyph-name="uni1ECD.sc" horiz-adv-x="997" 
d="M375 -16q-244 0 -321.5 119t-26.5 411q51 291 170.5 408.5t363.5 117.5q246 0 324.5 -118t27.5 -408q-51 -292 -171.5 -411t-366.5 -119zM414 176q50 0 76.5 68.5t62.5 269.5q9 51 14.5 87t10 71.5t6 58.5t1 44.5t-4.5 33.5t-11 22t-17 13.5t-24 3.5q-51 0 -79.5 -69.5
t-61.5 -264.5q-18 -102 -25.5 -161.5t-5.5 -102t16 -58.5t42 -16zM150 -492l59 336h348l-59 -336h-348z" />
    <glyph glyph-name="ograve.sc" horiz-adv-x="997" 
d="M516 1157l-215 293h379l133 -293h-297zM375 -16q-244 0 -321.5 119t-26.5 411q51 291 170.5 408.5t363.5 117.5q246 0 324.5 -118t27.5 -408q-51 -292 -171.5 -411t-366.5 -119zM414 176q50 0 76.5 68.5t62.5 269.5q9 51 14.5 87t10 71.5t6 58.5t1 44.5t-4.5 33.5t-11 22
t-17 13.5t-24 3.5q-51 0 -79.5 -69.5t-61.5 -264.5q-18 -102 -25.5 -161.5t-5.5 -102t16 -58.5t42 -16z" />
    <glyph glyph-name="ohungarumlaut.sc" horiz-adv-x="997" 
d="M250 1169l158 285h342l-261 -285h-239zM659 1169l158 285h342l-260 -285h-240zM375 -16q-244 0 -321.5 119t-26.5 411q51 291 170.5 408.5t363.5 117.5q246 0 324.5 -118t27.5 -408q-51 -292 -171.5 -411t-366.5 -119zM414 176q50 0 76.5 68.5t62.5 269.5q9 51 14.5 87
t10 71.5t6 58.5t1 44.5t-4.5 33.5t-11 22t-17 13.5t-24 3.5q-51 0 -79.5 -69.5t-61.5 -264.5q-18 -102 -25.5 -161.5t-5.5 -102t16 -58.5t42 -16z" />
    <glyph glyph-name="uni020F.sc" horiz-adv-x="997" 
d="M240 1169q23 133 130 214t259 81q155 0 234.5 -80.5t56.5 -214.5h-287q6 42 -3.5 67.5t-33.5 25.5q-25 0 -44.5 -26t-25.5 -67h-286zM375 -16q-244 0 -321.5 119t-26.5 411q51 291 170.5 408.5t363.5 117.5q246 0 324.5 -118t27.5 -408q-51 -292 -171.5 -411t-366.5 -119
zM414 176q50 0 76.5 68.5t62.5 269.5q9 51 14.5 87t10 71.5t6 58.5t1 44.5t-4.5 33.5t-11 22t-17 13.5t-24 3.5q-51 0 -79.5 -69.5t-61.5 -264.5q-18 -102 -25.5 -161.5t-5.5 -102t16 -58.5t42 -16z" />
    <glyph glyph-name="omacron.sc" horiz-adv-x="997" 
d="M360 1169l35 197h512l-35 -197h-512zM375 -16q-244 0 -321.5 119t-26.5 411q51 291 170.5 408.5t363.5 117.5q246 0 324.5 -118t27.5 -408q-51 -292 -171.5 -411t-366.5 -119zM414 176q50 0 76.5 68.5t62.5 269.5q9 51 14.5 87t10 71.5t6 58.5t1 44.5t-4.5 33.5t-11 22
t-17 13.5t-24 3.5q-51 0 -79.5 -69.5t-61.5 -264.5q-18 -102 -25.5 -161.5t-5.5 -102t16 -58.5t42 -16z" />
    <glyph glyph-name="uni01EB.sc" horiz-adv-x="997" 
d="M561 1040q246 0 324.5 -118t27.5 -408q-33 -189 -92 -301.5t-157 -167.5q-69 -57 -102.5 -98t-39.5 -78q-6 -34 11 -57t55 -23q23 0 71 16l-8 -186q-78 -29 -180 -29q-100 0 -149.5 43t-36.5 125q9 48 47 109.5t92 118.5q-16 -2 -49 -2q-244 0 -321.5 119t-26.5 411
q51 291 170.5 408.5t363.5 117.5zM387 514q-18 -102 -25.5 -161.5t-5.5 -102t16 -58.5t42 -16q50 0 76.5 68.5t62.5 269.5q9 51 14.5 87t10 71.5t6 58.5t1 44.5t-4.5 33.5t-11 22t-17 13.5t-24 3.5q-51 0 -79.5 -69.5t-61.5 -264.5z" />
    <glyph glyph-name="oslash.sc" horiz-adv-x="974" 
d="M993 1024l-114 -121q61 -118 14 -389q-53 -292 -171.5 -411t-359.5 -119q-203 0 -286 86l-68 -70h-86l119 123q-61 119 -14 391q51 290 168.5 408t353.5 118q207 0 293 -86l67 70h84zM389 514l-6 -37l172 178q19 132 11 168.5t-48 36.5q-16 0 -27 -4t-22 -19t-18.5 -36
t-18 -63.5t-20 -92t-23.5 -131.5zM530 514l7 35l-172 -178q-21 -132 -14 -169.5t48 -37.5q31 0 49.5 25.5t36.5 96t45 228.5z" />
    <glyph glyph-name="oslashacute.sc" horiz-adv-x="974" 
d="M930 1337l-258 -227h-226l189 227h295zM999 1024l-120 -123q61 -119 14 -387q-53 -292 -171.5 -411t-359.5 -119q-204 0 -286 88l-70 -72h-88l121 125q-59 120 -12 389q51 290 168.5 408t353.5 118q211 0 293 -88l69 72h88zM389 514l-6 -35l172 176q19 132 11 168.5
t-48 36.5q-16 0 -27 -4t-22 -19t-18.5 -36t-18 -63.5t-20 -92t-23.5 -131.5zM530 514l7 33l-172 -178q-15 -88 -15.5 -131.5t10.5 -58.5t39 -15q31 0 49.5 25.5t36.5 96t45 228.5z" />
    <glyph glyph-name="otilde.sc" horiz-adv-x="997" 
d="M248 1169q44 150 121.5 224.5t167.5 74.5q31 0 61.5 -11.5t50 -25t41 -25t37.5 -11.5q60 0 92 73h217q-47 -150 -125 -224.5t-166 -74.5q-39 0 -77 17.5t-67 35t-46 17.5q-60 0 -90 -70h-217zM375 -16q-244 0 -321.5 119t-26.5 411q51 291 170.5 408.5t363.5 117.5
q246 0 324.5 -118t27.5 -408q-51 -292 -171.5 -411t-366.5 -119zM414 176q50 0 76.5 68.5t62.5 269.5q9 51 14.5 87t10 71.5t6 58.5t1 44.5t-4.5 33.5t-11 22t-17 13.5t-24 3.5q-51 0 -79.5 -69.5t-61.5 -264.5q-18 -102 -25.5 -161.5t-5.5 -102t16 -58.5t42 -16z" />
    <glyph glyph-name="oe.sc" horiz-adv-x="1323" 
d="M1264 842h-332l-37 -211h307l-33 -182h-305l-47 -267h342l-31 -182h-600q-63 -16 -159 -16q-241 0 -317 119t-25 411q51 291 169 408.5t359 117.5q91 0 143 -16h598zM389 514q-21 -117 -30 -184.5t-7 -105.5t12.5 -49t32.5 -11q37 0 56.5 20t33.5 82l76 432
q18 104 11 133t-52 29q-32 0 -50.5 -24t-37 -94.5t-45.5 -227.5z" />
    <glyph glyph-name="p.sc" horiz-adv-x="960" 
d="M571 1024q215 0 295.5 -81t46.5 -269q-37 -207 -147 -297t-326 -90h-90l-51 -287h-342l180 1024h434zM553 674q16 92 3 130t-62 38h-45l-66 -373h47q49 0 76 44.5t47 160.5z" />
    <glyph glyph-name="uni1E57.sc" horiz-adv-x="960" 
d="M801 1452l-49 -283h-308l50 283h307zM571 1024q215 0 295.5 -81t46.5 -269q-37 -207 -147 -297t-326 -90h-90l-51 -287h-342l180 1024h434zM553 674q16 92 3 130t-62 38h-45l-66 -373h47q49 0 76 44.5t47 160.5z" />
    <glyph glyph-name="thorn.sc" horiz-adv-x="960" 
d="M541 850q215 0 296.5 -71.5t53.5 -237.5q-32 -184 -141 -265t-326 -81h-90l-35 -195h-342l180 1024h344l-30 -174h90zM530 541q12 67 -4 97t-63 30h-45l-51 -291h47q47 0 74 38t42 126z" />
    <glyph glyph-name="q.sc" horiz-adv-x="999" 
d="M915 514q-34 -194 -96.5 -309t-167.5 -168l150 -31l-41 -229l-449 114l17 95q-214 9 -281.5 128.5t-19.5 399.5q51 291 170.5 408.5t363.5 117.5q246 0 325.5 -118t28.5 -408zM387 514q-18 -102 -25.5 -161.5t-5.5 -102t16 -58.5t42 -16q51 0 78.5 69.5t62.5 268.5
q9 50 14.5 86.5t10 71.5t5.5 58.5t0 44.5t-5 34t-11 22t-17 13t-24 4q-51 0 -79.5 -69.5t-61.5 -264.5z" />
    <glyph glyph-name="r.sc" horiz-adv-x="966" 
d="M920 696q-39 -210 -181 -299l84 -397h-348l-69 326h-50l-57 -326h-342l180 1024h430q217 0 299 -85.5t54 -242.5zM487 842h-38l-60 -334h41q94 0 129 186q12 72 -8 110t-64 38z" />
    <glyph glyph-name="racute.sc" horiz-adv-x="966" 
d="M1024 1454l-315 -285h-285l233 285h367zM567 1024q217 0 299 -85.5t54 -242.5q-39 -210 -181 -299l84 -397h-348l-69 326h-50l-57 -326h-342l180 1024h430zM487 842h-38l-60 -334h41q94 0 129 186q12 72 -8 110t-64 38z" />
    <glyph glyph-name="rcaron.sc" horiz-adv-x="966" 
d="M416 1169l-168 285h327l50 -137l98 137h328l-269 -285h-366zM567 1024q217 0 299 -85.5t54 -242.5q-39 -210 -181 -299l84 -397h-348l-69 326h-50l-57 -326h-342l180 1024h430zM487 842h-38l-60 -334h41q94 0 129 186q12 72 -8 110t-64 38z" />
    <glyph glyph-name="uni0157.sc" horiz-adv-x="966" 
d="M920 696q-39 -210 -181 -299l84 -397h-348l-69 326h-50l-57 -326h-342l180 1024h430q217 0 299 -85.5t54 -242.5zM487 842h-38l-60 -334h41q94 0 129 186q12 72 -8 110t-64 38zM174 -143h389l-61 -346l-15 -82q-15 -83 -61 -152t-109.5 -112.5t-136.5 -67t-145 -23.5
l37 205q63 0 115.5 37t62.5 96l10 56h-156z" />
    <glyph glyph-name="uni0211.sc" horiz-adv-x="966" 
d="M557 1169h-240l-161 285h342zM967 1169h-240l-162 285h342zM567 1024q217 0 299 -85.5t54 -242.5q-39 -210 -181 -299l84 -397h-348l-69 326h-50l-57 -326h-342l180 1024h430zM487 842h-38l-60 -334h41q94 0 129 186q12 72 -8 110t-64 38z" />
    <glyph glyph-name="uni1E5B.sc" horiz-adv-x="966" 
d="M920 696q-39 -210 -181 -299l84 -397h-348l-69 326h-50l-57 -326h-342l180 1024h430q217 0 299 -85.5t54 -242.5zM487 842h-38l-60 -334h41q94 0 129 186q12 72 -8 110t-64 38zM133 -492l60 336h348l-60 -336h-348z" />
    <glyph glyph-name="uni0213.sc" horiz-adv-x="966" 
d="M580 1262q-25 0 -44.5 -26t-25.5 -67h-287q23 133 130 214t259 81q155 0 234.5 -80.5t56.5 -214.5h-287q6 43 -3 68t-33 25zM920 696q-39 -210 -181 -299l84 -397h-348l-69 326h-50l-57 -326h-342l180 1024h430q217 0 299 -85.5t54 -242.5zM487 842h-38l-60 -334h41
q94 0 129 186q12 72 -8 110t-64 38z" />
    <glyph glyph-name="s.sc" horiz-adv-x="835" 
d="M176 -16q-134 0 -252 34l74 213q43 -25 105.5 -40t107.5 -15q32 0 53.5 2.5t48 10.5t42.5 28.5t22 52.5q3 16 0 30.5t-13 27t-20 22t-29.5 21t-32.5 18l-38 19l-37 18.5q-169 85 -139 260q32 177 156 265.5t323 88.5q171 0 284 -34l-69 -197q-89 39 -184 39
q-44 0 -80 -25.5t-43 -66.5q-4 -29 4 -51t30 -39t40 -26.5t51 -23.5q95 -40 135.5 -97.5t25.5 -139.5q-15 -87 -53 -155t-91 -112.5t-122 -73.5t-142.5 -41.5t-156.5 -12.5z" />
    <glyph glyph-name="sacute.sc" horiz-adv-x="835" 
d="M358 1169l234 285h366l-315 -285h-285zM176 -16q-134 0 -252 34l74 213q43 -25 105.5 -40t107.5 -15q32 0 53.5 2.5t48 10.5t42.5 28.5t22 52.5q3 16 0 30.5t-13 27t-20 22t-29.5 21t-32.5 18l-38 19l-37 18.5q-169 85 -139 260q32 177 156 265.5t323 88.5q171 0 284 -34
l-69 -197q-89 39 -184 39q-44 0 -80 -25.5t-43 -66.5q-4 -29 4 -51t30 -39t40 -26.5t51 -23.5q95 -40 135.5 -97.5t25.5 -139.5q-15 -87 -53 -155t-91 -112.5t-122 -73.5t-142.5 -41.5t-156.5 -12.5z" />
    <glyph glyph-name="scaron.sc" horiz-adv-x="835" 
d="M350 1169l-168 285h328l49 -137l98 137h328l-268 -285h-367zM68 686q32 177 156 265.5t323 88.5q171 0 284 -34l-69 -197q-89 39 -184 39q-44 0 -80 -25.5t-43 -66.5q-4 -29 4 -51t30 -39t40 -26.5t51 -23.5q95 -40 135.5 -97.5t25.5 -139.5q-15 -87 -53 -155t-91 -112.5
t-122 -73.5t-142.5 -41.5t-156.5 -12.5q-134 0 -252 34l74 213q43 -25 105.5 -40t107.5 -15q32 0 53.5 2.5t48 10.5t42.5 28.5t22 52.5q3 16 0 30.5t-13 27t-20 22t-29.5 21t-32.5 18l-38 19l-37 18.5q-169 85 -139 260z" />
    <glyph glyph-name="scedilla.sc" horiz-adv-x="835" 
d="M578 848q-44 0 -80 -25.5t-43 -66.5q-4 -29 4 -51t30 -39t40 -26.5t51 -23.5q95 -40 135.5 -97.5t25.5 -139.5q-26 -153 -119 -244t-233 -127h19l-46 -76q68 -10 111 -29t59 -43.5t20.5 -56t-3.5 -65.5q-11 -66 -57.5 -115t-119 -77t-157 -42t-182.5 -16v135
q187 14 203 115q7 36 -12.5 62.5t-82.5 43.5l95 142q-18 -2 -60 -2q-134 0 -252 34l74 213q43 -25 105.5 -40t107.5 -15q32 0 53.5 2.5t48 10.5t42.5 28.5t22 52.5q3 16 0 30.5t-13 27t-20 22t-29.5 21t-32.5 18l-38 19l-37 18.5q-169 85 -139 260q32 177 156 265.5
t323 88.5q171 0 284 -34l-69 -197q-89 39 -184 39z" />
    <glyph glyph-name="scircumflex.sc" horiz-adv-x="835" 
d="M559 1307l-98 -138h-328l266 285h367l170 -285h-328zM68 686q32 177 156 265.5t323 88.5q171 0 284 -34l-69 -197q-89 39 -184 39q-44 0 -80 -25.5t-43 -66.5q-4 -29 4 -51t30 -39t40 -26.5t51 -23.5q95 -40 135.5 -97.5t25.5 -139.5q-15 -87 -53 -155t-91 -112.5
t-122 -73.5t-142.5 -41.5t-156.5 -12.5q-134 0 -252 34l74 213q43 -25 105.5 -40t107.5 -15q32 0 53.5 2.5t48 10.5t42.5 28.5t22 52.5q3 16 0 30.5t-13 27t-20 22t-29.5 21t-32.5 18l-38 19l-37 18.5q-169 85 -139 260z" />
    <glyph glyph-name="uni0219.sc" horiz-adv-x="835" 
d="M578 848q-44 0 -80 -25.5t-43 -66.5q-4 -29 4 -51t30 -39t40 -26.5t51 -23.5q95 -40 135.5 -97.5t25.5 -139.5q-15 -87 -53 -155t-91 -112.5t-122 -73.5t-142.5 -41.5t-156.5 -12.5q-134 0 -252 34l74 213q43 -25 105.5 -40t107.5 -15q32 0 53.5 2.5t48 10.5t42.5 28.5
t22 52.5q3 16 0 30.5t-13 27t-20 22t-29.5 21t-32.5 18l-38 19l-37 18.5q-169 85 -139 260q32 177 156 265.5t323 88.5q171 0 284 -34l-69 -197q-89 39 -184 39zM109 -143h389l-62 -346l-14 -82q-20 -110 -93 -193t-167.5 -122.5t-192.5 -39.5l37 205q63 0 115.5 37t62.5 96
l11 56h-156z" />
    <glyph glyph-name="uni1E61.sc" horiz-adv-x="835" 
d="M381 1169l49 283h307l-49 -283h-307zM176 -16q-134 0 -252 34l74 213q43 -25 105.5 -40t107.5 -15q32 0 53.5 2.5t48 10.5t42.5 28.5t22 52.5q3 16 0 30.5t-13 27t-20 22t-29.5 21t-32.5 18l-38 19l-37 18.5q-169 85 -139 260q32 177 156 265.5t323 88.5q171 0 284 -34
l-69 -197q-89 39 -184 39q-44 0 -80 -25.5t-43 -66.5q-4 -29 4 -51t30 -39t40 -26.5t51 -23.5q95 -40 135.5 -97.5t25.5 -139.5q-15 -87 -53 -155t-91 -112.5t-122 -73.5t-142.5 -41.5t-156.5 -12.5z" />
    <glyph glyph-name="uni1E63.sc" horiz-adv-x="835" 
d="M176 -16q-134 0 -252 34l74 213q43 -25 105.5 -40t107.5 -15q32 0 53.5 2.5t48 10.5t42.5 28.5t22 52.5q3 16 0 30.5t-13 27t-20 22t-29.5 21t-32.5 18l-38 19l-37 18.5q-169 85 -139 260q32 177 156 265.5t323 88.5q171 0 284 -34l-69 -197q-89 39 -184 39
q-44 0 -80 -25.5t-43 -66.5q-4 -29 4 -51t30 -39t40 -26.5t51 -23.5q95 -40 135.5 -97.5t25.5 -139.5q-15 -87 -53 -155t-91 -112.5t-122 -73.5t-142.5 -41.5t-156.5 -12.5zM68 -492l59 336h348l-59 -336h-348z" />
    <glyph glyph-name="germandbls.sc" horiz-adv-x="1673" 
d="M176 -16q-134 0 -252 34l74 213q43 -25 105.5 -40t107.5 -15q32 0 53.5 2.5t48 10.5t42.5 28.5t22 52.5q3 16 0 30.5t-13 27t-20 22t-29.5 21t-32.5 18l-38 19l-37 18.5q-169 85 -139 260q32 177 156 265.5t323 88.5q171 0 284 -34l-69 -197q-89 39 -184 39
q-44 0 -80 -25.5t-43 -66.5q-4 -29 4 -51t30 -39t40 -26.5t51 -23.5q95 -40 135.5 -97.5t25.5 -139.5q-15 -87 -53 -155t-91 -112.5t-122 -73.5t-142.5 -41.5t-156.5 -12.5zM1012 -16q-134 0 -252 34l74 213q43 -25 105.5 -40t107.5 -15q32 0 53 2.5t47.5 10.5t42.5 28.5
t22 52.5q3 16 0 30.5t-13 27t-20 22t-29.5 21t-32.5 18l-38 19l-37 18.5q-169 85 -139 260q32 177 156 265.5t323 88.5q172 0 285 -34l-70 -197q-89 39 -184 39q-44 0 -80 -25.5t-43 -66.5q-4 -29 4 -51t30 -39t40 -26.5t51 -23.5q96 -41 136.5 -98t25.5 -139
q-15 -87 -53 -155t-91 -112.5t-122 -73.5t-142.5 -41.5t-156.5 -12.5z" />
    <glyph glyph-name="t.sc" horiz-adv-x="892" 
d="M918 1024l-31 -182h-240l-147 -842h-342l147 842h-239l32 182h820z" />
    <glyph glyph-name="tbar.sc" horiz-adv-x="892" 
d="M887 842h-240l-49 -281h186l-16 -84h-184l-84 -477h-342l84 477h-185l15 84h184l49 281h-239l32 182h820z" />
    <glyph glyph-name="tcaron.sc" horiz-adv-x="892" 
d="M379 1169l-168 285h328l49 -137l98 137h328l-269 -285h-366zM918 1024l-31 -182h-240l-147 -842h-342l147 842h-239l32 182h820z" />
    <glyph glyph-name="uni0163.sc" horiz-adv-x="892" 
d="M500 0h-68l-41 -68q68 -10 111 -29t59 -43.5t20.5 -56t-3.5 -65.5q-11 -66 -57.5 -115t-119.5 -77t-157.5 -42t-182.5 -16v135q187 14 203 115q7 36 -12 62.5t-82 43.5l104 156h-116l147 842h-239l32 182h820l-31 -182h-240z" />
    <glyph glyph-name="uni1E6B.sc" horiz-adv-x="892" 
d="M766 1452l-49 -283h-307l49 283h307zM918 1024l-31 -182h-240l-147 -842h-342l147 842h-239l32 182h820z" />
    <glyph glyph-name="uni1E6D.sc" horiz-adv-x="892" 
d="M918 1024l-31 -182h-240l-147 -842h-342l147 842h-239l32 182h820zM96 -492l60 336h348l-60 -336h-348z" />
    <glyph glyph-name="u.sc" horiz-adv-x="944" 
d="M365 -16q-203 0 -294.5 87.5t-62.5 254.5l123 698h344l-121 -690q-14 -77 12 -117.5t89 -40.5q60 0 98.5 40.5t52.5 117.5l123 690h207l-125 -705q-28 -164 -141.5 -249.5t-304.5 -85.5z" />
    <glyph glyph-name="uacute.sc" horiz-adv-x="944" 
d="M414 1169l233 285h367l-316 -285h-284zM365 -16q-203 0 -294.5 87.5t-62.5 254.5l123 698h344l-121 -690q-14 -77 12 -117.5t89 -40.5q60 0 98.5 40.5t52.5 117.5l123 690h207l-125 -705q-28 -164 -141.5 -249.5t-304.5 -85.5z" />
    <glyph glyph-name="ubreve.sc" horiz-adv-x="944" 
d="M588 1169q-152 0 -231 81t-56 214h287q-8 -42 2 -67t35 -25q24 0 42.5 25t26.5 67h287q-23 -134 -130.5 -214.5t-262.5 -80.5zM365 -16q-203 0 -294.5 87.5t-62.5 254.5l123 698h344l-121 -690q-14 -77 12 -117.5t89 -40.5q60 0 98.5 40.5t52.5 117.5l123 690h207
l-125 -705q-28 -164 -141.5 -249.5t-304.5 -85.5z" />
    <glyph glyph-name="uni01D4.sc" horiz-adv-x="944" 
d="M406 1169l-168 285h327l49 -137l99 137h327l-268 -285h-366zM606 334l123 690h207l-125 -705q-28 -164 -141.5 -249.5t-304.5 -85.5q-203 0 -294.5 87.5t-62.5 254.5l123 698h344l-121 -690q-14 -77 12 -117.5t89 -40.5q60 0 98.5 40.5t52.5 117.5z" />
    <glyph glyph-name="ucircumflex.sc" horiz-adv-x="944" 
d="M614 1307l-98 -138h-328l267 285h366l170 -285h-327zM606 334l123 690h207l-125 -705q-28 -164 -141.5 -249.5t-304.5 -85.5q-203 0 -294.5 87.5t-62.5 254.5l123 698h344l-121 -690q-14 -77 12 -117.5t89 -40.5q60 0 98.5 40.5t52.5 117.5z" />
    <glyph glyph-name="uni0215.sc" horiz-adv-x="944" 
d="M307 1169l-162 285h342l60 -285h-240zM717 1169l-162 285h342l59 -285h-239zM365 -16q-203 0 -294.5 87.5t-62.5 254.5l123 698h344l-121 -690q-14 -77 12 -117.5t89 -40.5q60 0 98.5 40.5t52.5 117.5l123 690h207l-125 -705q-28 -164 -141.5 -249.5t-304.5 -85.5z" />
    <glyph glyph-name="udieresis.sc" horiz-adv-x="944" 
d="M231 1169l52 291h301l-52 -291h-301zM649 1169l51 291h301l-51 -291h-301zM365 -16q-203 0 -294.5 87.5t-62.5 254.5l123 698h344l-121 -690q-14 -77 12 -117.5t89 -40.5q60 0 98.5 40.5t52.5 117.5l123 690h207l-125 -705q-28 -164 -141.5 -249.5t-304.5 -85.5z" />
    <glyph glyph-name="uni01D8.sc" horiz-adv-x="944" 
d="M483 1567l234 284h366l-315 -284h-285zM231 1169l52 291h301l-52 -291h-301zM649 1169l51 291h301l-51 -291h-301zM365 -16q-203 0 -294.5 87.5t-62.5 254.5l123 698h344l-121 -690q-14 -77 12 -117.5t89 -40.5q60 0 98.5 40.5t52.5 117.5l123 690h207l-125 -705
q-28 -164 -141.5 -249.5t-304.5 -85.5z" />
    <glyph glyph-name="uni01DA.sc" horiz-adv-x="944" 
d="M475 1567l-168 284h328l49 -137l98 137h328l-268 -284h-367zM584 1460l-52 -291h-301l52 291h301zM649 1169l51 291h301l-51 -291h-301zM606 334l123 690h207l-125 -705q-28 -164 -141.5 -249.5t-304.5 -85.5q-203 0 -294.5 87.5t-62.5 254.5l123 698h344l-121 -690
q-14 -77 12 -117.5t89 -40.5q60 0 98.5 40.5t52.5 117.5z" />
    <glyph glyph-name="uni01DC.sc" horiz-adv-x="944" 
d="M559 1554l-215 293h379l133 -293h-297zM231 1169l52 291h301l-52 -291h-301zM649 1169l51 291h301l-51 -291h-301zM365 -16q-203 0 -294.5 87.5t-62.5 254.5l123 698h344l-121 -690q-14 -77 12 -117.5t89 -40.5q60 0 98.5 40.5t52.5 117.5l123 690h207l-125 -705
q-28 -164 -141.5 -249.5t-304.5 -85.5z" />
    <glyph glyph-name="uni01D6.sc" horiz-adv-x="944" 
d="M403 1567l35 196h512l-35 -196h-512zM231 1169l52 291h301l-52 -291h-301zM649 1169l51 291h301l-51 -291h-301zM365 -16q-203 0 -294.5 87.5t-62.5 254.5l123 698h344l-121 -690q-14 -77 12 -117.5t89 -40.5q60 0 98.5 40.5t52.5 117.5l123 690h207l-125 -705
q-28 -164 -141.5 -249.5t-304.5 -85.5z" />
    <glyph glyph-name="uni1EE5.sc" horiz-adv-x="944" 
d="M365 -16q-203 0 -294.5 87.5t-62.5 254.5l123 698h344l-121 -690q-14 -77 12 -117.5t89 -40.5q60 0 98.5 40.5t52.5 117.5l123 690h207l-125 -705q-28 -164 -141.5 -249.5t-304.5 -85.5zM123 -492l59 336h348l-59 -336h-348z" />
    <glyph glyph-name="ugrave.sc" horiz-adv-x="944" 
d="M489 1157l-215 293h379l133 -293h-297zM365 -16q-203 0 -294.5 87.5t-62.5 254.5l123 698h344l-121 -690q-14 -77 12 -117.5t89 -40.5q60 0 98.5 40.5t52.5 117.5l123 690h207l-125 -705q-28 -164 -141.5 -249.5t-304.5 -85.5z" />
    <glyph glyph-name="uhungarumlaut.sc" horiz-adv-x="944" 
d="M223 1169l158 285h342l-260 -285h-240zM633 1169l158 285h342l-261 -285h-239zM365 -16q-203 0 -294.5 87.5t-62.5 254.5l123 698h344l-121 -690q-14 -77 12 -117.5t89 -40.5q60 0 98.5 40.5t52.5 117.5l123 690h207l-125 -705q-28 -164 -141.5 -249.5t-304.5 -85.5z" />
    <glyph glyph-name="uni0217.sc" horiz-adv-x="944" 
d="M213 1169q23 133 130 214t259 81q155 0 234.5 -80.5t56.5 -214.5h-287q6 42 -3.5 67.5t-33.5 25.5q-25 0 -44 -26t-25 -67h-287zM365 -16q-203 0 -294.5 87.5t-62.5 254.5l123 698h344l-121 -690q-14 -77 12 -117.5t89 -40.5q60 0 98.5 40.5t52.5 117.5l123 690h207
l-125 -705q-28 -164 -141.5 -249.5t-304.5 -85.5z" />
    <glyph glyph-name="umacron.sc" horiz-adv-x="944" 
d="M334 1169l35 197h512l-35 -197h-512zM365 -16q-203 0 -294.5 87.5t-62.5 254.5l123 698h344l-121 -690q-14 -77 12 -117.5t89 -40.5q60 0 98.5 40.5t52.5 117.5l123 690h207l-125 -705q-28 -164 -141.5 -249.5t-304.5 -85.5z" />
    <glyph glyph-name="uogonek.sc" horiz-adv-x="944" 
d="M729 1024h207l-125 -705q-34 -193 -182 -276q-72 -58 -107 -100t-41 -80q-6 -34 11 -57t55 -23q23 0 71 16l-8 -186q-78 -29 -180 -29q-100 0 -149.5 43t-36.5 125q18 101 145 232h-24q-203 0 -294.5 87.5t-62.5 254.5l123 698h344l-121 -690q-14 -77 12 -117.5t89 -40.5
q60 0 98.5 40.5t52.5 117.5z" />
    <glyph glyph-name="uring.sc" horiz-adv-x="944" 
d="M588 1157q-87 0 -141 57t-39 148q17 90 89.5 144.5t159.5 54.5q83 0 140 -55t41 -144q-14 -90 -90 -147.5t-160 -57.5zM610 1290q29 0 50 20t26 48q5 30 -9.5 48.5t-43.5 18.5q-27 0 -48.5 -19t-25.5 -48q-5 -28 9.5 -48t41.5 -20zM365 -16q-203 0 -294.5 87.5
t-62.5 254.5l123 698h344l-121 -690q-14 -77 12 -117.5t89 -40.5q60 0 98.5 40.5t52.5 117.5l123 690h207l-125 -705q-28 -164 -141.5 -249.5t-304.5 -85.5z" />
    <glyph glyph-name="utilde.sc" horiz-adv-x="944" 
d="M221 1169q44 150 121.5 224.5t167.5 74.5q31 0 61.5 -11.5t50 -25t41 -25t37.5 -11.5q61 0 93 73h217q-47 -150 -125 -224.5t-166 -74.5q-39 0 -77.5 17.5t-67.5 35t-46 17.5q-60 0 -90 -70h-217zM365 -16q-203 0 -294.5 87.5t-62.5 254.5l123 698h344l-121 -690
q-14 -77 12 -117.5t89 -40.5q60 0 98.5 40.5t52.5 117.5l123 690h207l-125 -705q-28 -164 -141.5 -249.5t-304.5 -85.5z" />
    <glyph glyph-name="v.sc" horiz-adv-x="899" 
d="M743 1026h215l-473 -1026h-311l-108 1026h352l51 -608z" />
    <glyph glyph-name="w.sc" horiz-adv-x="1273" 
d="M1122 1026h211l-399 -1026h-281l-6 596l-223 -596h-311l-47 1026h346l2 -508l186 508h342l8 -467z" />
    <glyph glyph-name="wacute.sc" horiz-adv-x="1273" 
d="M1178 1454l-316 -285h-284l233 285h367zM1122 1026h211l-399 -1026h-281l-6 596l-223 -596h-311l-47 1026h346l2 -508l186 508h342l8 -467z" />
    <glyph glyph-name="wcircumflex.sc" horiz-adv-x="1273" 
d="M778 1307l-98 -138h-328l266 285h367l170 -285h-328zM1122 1026h211l-399 -1026h-281l-6 596l-223 -596h-311l-47 1026h346l2 -508l186 508h342l8 -467z" />
    <glyph glyph-name="wdieresis.sc" horiz-adv-x="1273" 
d="M748 1460l-52 -291h-301l51 291h302zM1165 1460l-51 -291h-301l51 291h301zM1122 1026h211l-399 -1026h-281l-6 596l-223 -596h-311l-47 1026h346l2 -508l186 508h342l8 -467z" />
    <glyph glyph-name="wgrave.sc" horiz-adv-x="1273" 
d="M950 1157h-297l-215 293h379zM1122 1026h211l-399 -1026h-281l-6 596l-223 -596h-311l-47 1026h346l2 -508l186 508h342l8 -467z" />
    <glyph glyph-name="x.sc" horiz-adv-x="927" 
d="M952 1024l-338 -485l174 -539h-378l-86 266l-185 -266h-231l342 498l-168 526h377l84 -258l180 258h229z" />
    <glyph glyph-name="y.sc" horiz-adv-x="886" 
d="M711 1024h237l-370 -608l-72 -416h-344l74 416l-170 608h358l94 -336z" />
    <glyph glyph-name="yacute.sc" horiz-adv-x="886" 
d="M985 1454l-315 -285h-285l233 285h367zM518 688l193 336h237l-370 -608l-72 -416h-344l74 416l-170 608h358z" />
    <glyph glyph-name="ycircumflex.sc" horiz-adv-x="886" 
d="M586 1307l-99 -138h-327l266 285h367l170 -285h-328zM518 688l193 336h237l-370 -608l-72 -416h-344l74 416l-170 608h358z" />
    <glyph glyph-name="ydieresis.sc" horiz-adv-x="886" 
d="M555 1460l-51 -291h-301l51 291h301zM973 1460l-51 -291h-301l51 291h301zM518 688l193 336h237l-370 -608l-72 -416h-344l74 416l-170 608h358z" />
    <glyph glyph-name="ygrave.sc" horiz-adv-x="886" 
d="M758 1157h-297l-215 293h379zM711 1024h237l-370 -608l-72 -416h-344l74 416l-170 608h358l94 -336z" />
    <glyph glyph-name="uni0233.sc" horiz-adv-x="886" 
d="M852 1366l-35 -197h-512l35 197h512zM711 1024h237l-370 -608l-72 -416h-344l74 416l-170 608h358l94 -336z" />
    <glyph glyph-name="uni1EF9.sc" horiz-adv-x="886" 
d="M500 1239q-60 0 -90 -70h-217q44 150 121 224.5t167 74.5q40 0 77 -18t66 -36.5t48 -18.5q60 0 92 73h217q-47 -150 -125 -224.5t-166 -74.5q-39 0 -77 17.5t-67 35t-46 17.5zM518 688l193 336h237l-370 -608l-72 -416h-344l74 416l-170 608h358z" />
    <glyph glyph-name="z.sc" horiz-adv-x="800" 
d="M793 1024l-428 -842h290l-34 -182h-699l436 842h-276l33 182h678z" />
    <glyph glyph-name="zacute.sc" horiz-adv-x="800" 
d="M942 1454l-315 -285h-285l233 285h367zM793 1024l-428 -842h290l-34 -182h-699l436 842h-276l33 182h678z" />
    <glyph glyph-name="zcaron.sc" horiz-adv-x="800" 
d="M334 1169l-168 285h328l49 -137l98 137h328l-269 -285h-366zM793 1024l-428 -842h290l-34 -182h-699l436 842h-276l33 182h678z" />
    <glyph glyph-name="zdotaccent.sc" horiz-adv-x="800" 
d="M721 1452l-49 -283h-307l49 283h307zM793 1024l-428 -842h290l-34 -182h-699l436 842h-276l33 182h678z" />
    <glyph glyph-name="uni1E93.sc" horiz-adv-x="800" 
d="M793 1024l-428 -842h290l-34 -182h-699l436 842h-276l33 182h678zM51 -492l60 336h348l-60 -336h-348z" />
    <glyph glyph-name="a.sups" horiz-adv-x="577" 
d="M444 1337h209l-110 -626h-209l14 71q-90 -84 -178 -84q-72 0 -91.5 79t9.5 243q32 180 81 255t130 75q85 0 131 -99zM317 868q21 0 33 31t29 129q17 97 15.5 125.5t-23.5 28.5q-24 0 -36 -28.5t-30 -125.5q-18 -100 -15.5 -130t27.5 -30z" />
    <glyph glyph-name="b.sups" horiz-adv-x="589" 
d="M532 1350q78 0 101 -79t-6 -243q-32 -181 -84.5 -255.5t-143.5 -74.5q-89 0 -127 97l-16 -84h-209l156 876h219l-55 -311q87 74 165 74zM397 1028q9 51 13 78.5t3 46t-7 24t-19 5.5q-22 0 -34 -28.5t-27 -117.5l-2 -8q-9 -51 -12.5 -81t-3 -48.5t5.5 -24.5t16 -6
q25 0 37.5 30t29.5 130z" />
    <glyph glyph-name="c.sups" horiz-adv-x="456" 
d="M285 698q-139 0 -183 74.5t-12 255.5q31 177 107.5 249.5t234.5 72.5q17 0 119 -11l-39 -165l-82 61q-49 0 -77 -45.5t-48 -161.5q-21 -117 -9 -165t64 -48q39 0 74 14l-2 -116q-74 -15 -147 -15z" />
    <glyph glyph-name="d.sups" horiz-adv-x="577" 
d="M477 1587h221l-155 -876h-209l14 71q-90 -84 -178 -84q-72 0 -91.5 79t9.5 243q32 180 81 255t130 75q78 0 123 -80zM317 868q19 0 31 25t25 98l6 37q17 97 15.5 125.5t-23.5 28.5q-24 0 -36 -28.5t-30 -125.5q-18 -100 -15.5 -130t27.5 -30z" />
    <glyph glyph-name="e.sups" horiz-adv-x="573" 
d="M399 1350q147 0 193 -75.5t14 -262.5q-1 -3 -4 -13t-4 -16h-297q-12 -91 8 -129.5t78 -38.5q83 0 150 33l-2 -107q-92 -43 -216 -43q-159 0 -210 74t-19 256q31 177 100.5 249.5t208.5 72.5zM319 1090h80l11 51q9 53 3 73.5t-28 20.5t-34 -20.5t-21 -73.5z" />
    <glyph glyph-name="f.sups" horiz-adv-x="376" 
d="M461 1419q-44 0 -53 -61l-5 -21h76l-28 -157h-76l-127 -709h-219l127 709h-64l29 157h63l9 47q10 57 33 98t54 63t64.5 32t71.5 10q49 0 114 -20l-43 -152q-2 0 -12.5 2t-13.5 2z" />
    <glyph glyph-name="g.sups" horiz-adv-x="589" 
d="M457 1337l211 13l-101 -578q-26 -145 -131.5 -223t-242.5 -78q-111 0 -183 29l45 153q70 -28 140 -28q127 0 145 114l6 31q-82 -72 -156 -72q-161 0 -102 322q30 173 87 251.5t147 78.5q82 0 120 -101zM389 1020q0 4 2 6l6 45q10 66 7.5 88.5t-21.5 22.5q-24 0 -37 -32
t-31 -130q-9 -52 -12.5 -80.5t-2 -45.5t7.5 -21.5t18 -4.5q23 0 34.5 27.5t28.5 124.5z" />
    <glyph glyph-name="h.sups" horiz-adv-x="593" 
d="M545 1350q131 0 106 -152l-86 -487h-221l70 393q11 63 -25 63q-40 0 -51 -63v-2l-70 -391h-221l154 862l221 14l-57 -327q32 38 83 64t97 26z" />
    <glyph glyph-name="i.sups" horiz-adv-x="303" 
d="M174 1427l35 193h219l-33 -193h-221zM47 711l111 626h221l-111 -626h-221z" />
    <glyph glyph-name="j.sups" horiz-adv-x="303" 
d="M174 1427l35 193h219l-33 -193h-221zM37 471q-58 0 -143 18l45 154q24 -4 36 -4q34 0 49 13t21 48l113 637h221l-117 -663q-22 -116 -71 -159.5t-154 -43.5z" />
    <glyph glyph-name="k.sups" horiz-adv-x="604" 
d="M709 1337l-193 -211l82 -415h-236l-30 215l-33 -35l-31 -180h-221l154 862l221 14l-74 -420l129 170h232z" />
    <glyph glyph-name="l.sups" horiz-adv-x="303" 
d="M47 711l154 862l221 14l-154 -876h-221z" />
    <glyph glyph-name="m.sups" horiz-adv-x="890" 
d="M842 1350q131 0 106 -152l-86 -487h-221l72 405q12 64 -25 64q-39 0 -51 -64l-72 -405h-221l72 405q12 64 -25 64q-39 0 -51 -64l-72 -405h-221l111 626l223 13l-16 -88q32 36 83 62t97 26q104 0 110 -99q30 41 83.5 70t103.5 29z" />
    <glyph glyph-name="n.sups" horiz-adv-x="593" 
d="M545 1350q131 0 106 -152l-86 -487h-221l72 407q12 64 -25 64q-38 0 -49 -58l-74 -413h-221l111 626l223 13l-16 -88q32 36 83 62t97 26z" />
    <glyph glyph-name="o.sups" horiz-adv-x="602" 
d="M307 698q-149 0 -199 79t-20 247t107.5 247t226.5 79q147 0 196 -79t19 -247q-30 -169 -106.5 -247.5t-223.5 -78.5zM328 815q28 0 41.5 36.5t38.5 174.5q12 71 17.5 109t4.5 62.5t-7.5 31t-21.5 6.5q-16 0 -25.5 -6.5t-19 -31.5t-17 -61.5t-20.5 -109.5
q-13 -72 -18.5 -110t-4.5 -63t8.5 -31.5t23.5 -6.5z" />
    <glyph glyph-name="p.sups" horiz-adv-x="589" 
d="M514 1350q90 0 116 -74t-5 -256q-29 -165 -79.5 -243.5t-127.5 -78.5t-139 72l-54 -299h-219l152 866h209l-15 -86q74 99 162 99zM397 1020q17 100 15 131t-27 31q-20 0 -32 -31t-29 -131q-17 -95 -15.5 -123.5t23.5 -28.5q24 0 35.5 27.5t29.5 124.5z" />
    <glyph glyph-name="q.sups" horiz-adv-x="589" 
d="M457 1337h209l-152 -866h-221l53 299q-85 -72 -166 -72q-78 0 -100 78t8 244q32 179 84 254.5t139 75.5q90 0 131 -101zM389 1020l2 14l2 13q8 43 11 69t2 41t-6 20t-15 5q-25 0 -38 -31t-32 -131q-17 -95 -15 -123.5t26 -28.5q23 0 34.5 27.5t28.5 124.5z" />
    <glyph glyph-name="r.sups" horiz-adv-x="460" 
d="M524 1350q18 0 39 -7l-51 -237q-34 22 -74 22q-42 0 -73.5 -33t-42.5 -85l-54 -299h-221l111 626h221l-21 -116q34 55 80 92t86 37z" />
    <glyph glyph-name="s.sups" horiz-adv-x="505" 
d="M207 698q-104 0 -176 21l41 133q67 -33 149 -33q35 0 63.5 17t34.5 47q1 9 -0.5 16.5t-7 14t-10.5 11.5t-16 10.5t-17.5 9t-21 9.5t-21.5 9q-66 23 -92 63.5t-16 103.5q18 102 105 161t200 59q82 0 168 -25l-41 -123q-60 29 -117 29q-24 0 -47 -17t-29 -45
q-5 -29 11.5 -43.5t54.5 -28.5q2 -1 4 -1.5t4 -1.5q120 -53 102 -150q-15 -83 -66 -140t-117 -81.5t-142 -24.5z" />
    <glyph glyph-name="t.sups" horiz-adv-x="393" 
d="M377 1180l-45 -254q-12 -60 30 -60h33l-26 -149q-70 -19 -111 -19q-38 0 -67.5 9t-54.5 32t-31.5 62t1.5 98l50 281h-56l29 157h55l23 133l227 37l-31 -170h89l-29 -157h-86z" />
    <glyph glyph-name="u.sups" horiz-adv-x="595" 
d="M449 1337h223l-111 -626l-225 -13l14 86q-32 -36 -81.5 -61t-94.5 -25q-133 0 -108 152l86 487h221l-72 -407q-12 -62 27 -62q33 0 49 58z" />
    <glyph glyph-name="v.sups" horiz-adv-x="499" 
d="M487 1337h134l-265 -626h-213l-30 626h235l-2 -360z" />
    <glyph glyph-name="w.sups" horiz-adv-x="778" 
d="M768 1337h131l-256 -626h-203l2 245l-96 -245h-194l-37 626h237l4 -309l117 309h166l2 -338z" />
    <glyph glyph-name="x.sups" horiz-adv-x="552" 
d="M666 1337l-197 -321l82 -305h-244l-45 163l-100 -163h-148l203 331l-80 295h246l41 -151l92 151h150z" />
    <glyph glyph-name="y.sups" horiz-adv-x="503" 
d="M489 1337h134l-373 -866h-131l102 240h-82l-24 626h237l-6 -354z" />
    <glyph glyph-name="z.sups" horiz-adv-x="501" 
d="M590 1337l-258 -481h178l-27 -143h-456l258 481h-148l25 143h428z" />
    <glyph glyph-name="zero.osf" horiz-adv-x="1042" 
d="M401 -20q-243 0 -334 129t-44 403q50 274 187 403t380 129q239 0 329.5 -129t43.5 -403q-49 -274 -186 -403t-376 -129zM442 205q41 0 61 54.5t54 252.5q36 195 35.5 251t-41.5 56q-32 0 -50 -24.5t-33.5 -85t-39.5 -197.5q-19 -103 -26.5 -158.5t-6 -91.5t12.5 -46.5
t34 -10.5z" />
    <glyph glyph-name="one.osf" horiz-adv-x="688" 
d="M66 940l606 107l-185 -1047h-383l121 688l-209 -26z" />
    <glyph glyph-name="two.osf" horiz-adv-x="870" 
d="M819 772q-5 -26 -14.5 -51t-21 -45.5t-32.5 -44t-37.5 -40t-48.5 -40.5t-53 -39.5t-64 -42t-68.5 -42t-78 -47.5t-82.5 -50h429l-58 -330h-747l59 330q49 30 110 64.5t94.5 53.5t71.5 44t57.5 44.5t35.5 46t22 58.5q9 57 -27 85t-118 28q-74 0 -158 -43l31 272
q140 61 348 61q195 0 284 -69.5t66 -202.5z" />
    <glyph glyph-name="three.osf" horiz-adv-x="974" 
d="M901 760q-25 -142 -106.5 -227.5t-204.5 -100.5v-4q138 0 198.5 -85.5t32.5 -240.5q-37 -214 -187 -325t-401 -111q-95 0 -169.5 15t-165.5 51l71 235q34 -15 70.5 -21.5t58 -7.5t68.5 -1q109 0 174 45.5t80 134.5q15 86 -26.5 120.5t-160.5 34.5h-118l37 209h69
q126 0 183.5 37.5t72.5 128.5q12 69 -31 97t-161 28q-97 0 -179 -31l27 240q100 35 183.5 49t195.5 14q215 0 314.5 -72.5t74.5 -211.5z" />
    <glyph glyph-name="four.osf" horiz-adv-x="976" 
d="M909 1024l-143 -819h94l-41 -230h-94l-51 -288h-383l51 288h-446l8 45l622 1004h383zM180 205h203l78 452z" />
    <glyph glyph-name="five.osf" horiz-adv-x="923" 
d="M842 686l-451 35l-51 -178q158 24 227 24q148 0 210 -83t34 -244q-51 -283 -238.5 -429.5t-498.5 -146.5q-129 0 -207 41l74 219q49 -20 125 -20q138 0 222 69.5t107 202.5q12 62 -17 107t-81 64.5t-117 19.5q-94 0 -162 -23l203 678h707z" />
    <glyph glyph-name="six.osf" horiz-adv-x="1040" 
d="M846 1149q-142 0 -226 -72t-122 -229q85 74 227 74q162 0 216.5 -98t16.5 -318q-46 -258 -183.5 -392t-354.5 -134q-240 0 -337 160t-42 468q69 397 257.5 573.5t543.5 176.5q106 0 213 -37l-58 -203q-97 31 -151 31zM545 449q26 148 19 195q-9 49 -44 50q-11 0 -21 -4
t-18 -14t-14.5 -20t-12 -27.5t-9.5 -30.5t-8.5 -36t-7 -36t-7 -39t-6.5 -38q-2 -13 -7 -39q-7 -35 -9.5 -53t-6.5 -47.5t-3 -45t5 -33t14 -25t25 -7.5q24 0 42.5 19.5t30.5 56t19.5 71.5t15.5 84q0 4 0.5 6.5t1 6t1.5 6.5z" />
    <glyph glyph-name="seven.osf" horiz-adv-x="974" 
d="M1014 1024l-690 -1337h-287l510 985h-492l105 352h854z" />
    <glyph glyph-name="eight.osf" horiz-adv-x="1050" 
d="M1001 997q-35 -189 -145 -272q134 -86 94 -317q-37 -210 -179.5 -319t-377.5 -109q-226 0 -325 109t-62 319q20 118 69 195.5t132 123.5q-77 86 -43 270q32 177 152.5 269t320.5 92q209 0 302 -92t62 -269zM516 983q-19 -110 -13 -144t46 -34t58 33.5t38 144.5
q19 110 12.5 144t-47.5 34q-39 0 -56 -33t-38 -145zM545 401q23 132 17.5 173.5t-48.5 41.5q-42 0 -61.5 -40.5t-44.5 -174.5q-12 -69 -16.5 -108t-1 -64.5t14.5 -34t33 -8.5q43 0 63.5 41.5t43.5 173.5z" />
    <glyph glyph-name="nine.osf" horiz-adv-x="1052" 
d="M571 1044q242 0 340.5 -160t44.5 -468q-70 -397 -260 -573.5t-546 -176.5q-91 0 -195 37l55 203q97 -31 135 -31q143 0 227 71.5t122 227.5q-86 -72 -226 -72q-168 0 -226.5 92.5t-21.5 301.5q47 268 188 408t363 140zM580 575q2 13 7 40q20 78 18 144t-48 66
q-27 0 -47 -18t-33.5 -59.5t-19.5 -69.5t-16 -86q-1 -5 -1.5 -9t-1.5 -8q-26 -145 -18 -192q9 -52 49 -53q26 0 44 16t31.5 61.5t18 65.5t14.5 86q2 11 3 16z" />
    <glyph glyph-name="zero.tf" horiz-adv-x="1030" 
d="M395 -20q-168 0 -252.5 66.5t-104 220.5t27.5 405q68 378 196 532t377 154q166 0 249.5 -66t102.5 -218.5t-28 -401.5q-68 -381 -195 -536.5t-373 -155.5zM440 227q14 0 24.5 6t21.5 26t20 48t21 82.5t23.5 118t29.5 164.5q17 97 27.5 160t17.5 114.5t7.5 79.5t-3.5 47
t-12.5 25t-22.5 6q-23 0 -38 -14.5t-32 -65.5t-33 -128t-42 -224q-27 -152 -38.5 -230.5t-13 -131.5t8.5 -68t34 -15z" />
    <glyph glyph-name="one.tf" horiz-adv-x="1030" 
d="M182 1194l776 168l-239 -1362h-383l176 997l-379 -82z" />
    <glyph glyph-name="two.tf" horiz-adv-x="1030" 
d="M967 983q-16 -94 -65 -179.5t-133.5 -166.5t-179.5 -150.5t-233 -156.5h504l-57 -330h-819l57 330q112 68 191 125.5t147.5 124.5t109 139t54.5 153q41 228 -195 228q-74 0 -158 -43l25 239q145 62 350 62q234 0 335 -94t67 -281z" />
    <glyph glyph-name="three.tf" horiz-adv-x="1030" 
d="M958 1073q-26 -143 -102 -229t-190 -99v-4q134 0 192.5 -85t30.5 -240q-37 -214 -184.5 -325t-393.5 -111q-94 0 -169 14.5t-165 50.5l70 219q82 -35 203 -35q106 0 161.5 44t75.5 153q14 82 -25.5 121t-150.5 39h-116l36 209h70q121 0 177 37.5t71 128.5
q13 78 -20.5 109.5t-129.5 31.5q-56 0 -101.5 -11t-111.5 -36l29 239q99 35 182 49.5t193 14.5q204 0 298.5 -73t69.5 -212z" />
    <glyph glyph-name="four.tf" horiz-adv-x="1030" 
d="M991 1337l-143 -819h94l-41 -229h-94l-51 -289h-383l51 289h-442l8 45l618 1003h383zM266 518h199l78 449z" />
    </font>
</defs>
</svg>
