<?xml version="1.0" standalone="no"?>
<!DOCTYPE svg PUBLIC "-//W3C//DTD SVG 1.1//EN" "http://www.w3.org/Graphics/SVG/1.1/DTD/svg11.dtd" >
<svg xmlns="http://www.w3.org/2000/svg" xmlns:xlink="http://www.w3.org/1999/xlink" version="1.1">
<metadata>
Created by FontForge 20170731 at Thu Oct 29 07:48:10 2020
 By Aleksey,,,
Copyright (c) 2019 by Josep Patau Bellart. All rights reserved.
</metadata>
<defs>
<font id="Indecisecondensed-MediumItalic" horiz-adv-x="0" >
  <font-face 
    font-family="Indecise Condensed Medium"
    font-weight="500"
    font-style="italic"
    font-stretch="condensed"
    units-per-em="2048"
    panose-1="0 0 6 6 0 0 0 0 0 0"
    ascent="1638"
    descent="-410"
    x-height="1024"
    cap-height="1337"
    bbox="-580 -731 1714 2107"
    underline-thickness="102"
    underline-position="-307"
    slope="-10"
    unicode-range="U+000D-FB02"
  />
<missing-glyph horiz-adv-x="995" 
d="M201 1337h837l-317 -1790h-838zM786 1231h-376l94 -531zM651 -119l205 1163l-309 -581zM276 1022l-198 -1122l299 561zM420 223l-303 -569h403z" />
    <glyph glyph-name="fi" unicode="fi" horiz-adv-x="919" 
d="M725 1452h252l-49 -281h-254zM522 848h-133l-217 -1237h-254l219 1237h-96l31 176h96l14 76q31 173 109.5 254.5t216.5 81.5q57 0 139 -23l-47 -170q-31 8 -55 8q-87 0 -113 -164l-10 -63h131zM469 0l180 1024h254l-182 -1024h-252z" />
    <glyph glyph-name="fl" unicode="fl" horiz-adv-x="915" 
d="M522 848h-133l-217 -1237h-254l219 1237h-96l31 176h96l14 76q31 173 109.5 254.5t216.5 81.5q57 0 139 -23l-47 -170q-31 8 -55 8q-87 0 -113 -164l-10 -63h131zM713 1397l256 20l-250 -1417h-252z" />
    <glyph glyph-name="Lgeminada" unicode="L&#xb7;L" horiz-adv-x="1679" 
d="M500 1337l-207 -1169h352l-29 -168h-634l237 1337h281zM1194 168h352l-28 -168h-635l237 1337h281zM524 559l56 309h301l-56 -309h-301z" />
    <glyph glyph-name="lgeminada" unicode="l&#xb7;l" horiz-adv-x="1189" 
d="M-35 0l246 1397l256 20l-250 -1417h-252zM741 0l246 1397l256 20l-250 -1417h-252zM432 561l55 309h301l-55 -309h-301z" />
    <glyph glyph-name=".notdef" horiz-adv-x="995" 
d="M201 1337h837l-317 -1790h-838zM786 1231h-376l94 -531zM651 -119l205 1163l-309 -581zM276 1022l-198 -1122l299 561zM420 223l-303 -569h403z" />
    <glyph glyph-name=".null" 
 />
    <glyph glyph-name="nonmarkingreturn" horiz-adv-x="682" 
 />
    <glyph glyph-name="CR" unicode="&#xd;" horiz-adv-x="413" 
 />
    <glyph glyph-name="space" unicode=" " horiz-adv-x="327" 
 />
    <glyph glyph-name="exclam" unicode="!" horiz-adv-x="466" 
d="M104 475l97 862h299l-207 -862h-189zM-35 0l51 289h301l-51 -289h-301z" />
    <glyph glyph-name="quotedbl" unicode="&#x22;" horiz-adv-x="833" 
d="M156 854l32 483h297l-137 -483h-192zM555 854l33 483h299l-139 -483h-193z" />
    <glyph glyph-name="numbersign" unicode="#" horiz-adv-x="1277" 
d="M1219 827h-164l-103 -301h168l-76 -198h-161l-113 -328h-268l112 328h-170l-112 -328h-269l113 328h-182l76 198h174l104 301h-180l72 189h172l110 321h269l-111 -321h170l111 321h270l-111 -321h170zM682 526l104 301h-170l-104 -301h170z" />
    <glyph glyph-name="dollar" unicode="$" horiz-adv-x="831" 
d="M780 1145q-65 33 -155 33l-72 -404h2q64 -36 104 -75t61 -102.5t7 -143.5q-33 -188 -160.5 -312.5t-304.5 -152.5l-29 -158h-61l27 150h-35q-117 0 -223 47l69 192q88 -59 189 -59q20 0 32 2l70 395l-22 16q-93 65 -138 152t-22 213q31 180 164 299.5t313 120.5l25 137
h61l-25 -139q103 -3 187 -29zM428 1001q-13 -67 7 -111t65 -79l63 360q-52 -17 -88 -63t-47 -107zM428 352q8 56 -11.5 93.5t-62.5 72.5l-59 -340q109 47 133 174z" />
    <glyph glyph-name="percent" unicode="%" horiz-adv-x="1208" 
d="M295 702q-127 0 -172.5 79.5t-16.5 248.5t103 248.5t203 79.5q123 0 166.5 -79.5t15.5 -248.5q-29 -169 -101.5 -248.5t-197.5 -79.5zM125 0l797 1337h170l-799 -1337h-168zM311 799q50 0 92 233q20 118 18 174t-28 56q-30 0 -52.5 -55t-43.5 -175q-42 -233 14 -233z
M809 -18q-127 0 -172 79t-16 248t103 248.5t202 79.5q124 0 167.5 -79.5t14.5 -248.5t-101.5 -248t-197.5 -79zM825 78q54 0 93 233q42 230 -11 230q-57 0 -96 -230q-42 -233 14 -233z" />
    <glyph glyph-name="ampersand" unicode="&#x26;" horiz-adv-x="983" 
d="M674 813h200l-81 -467l57 -100l-45 -246h-119l-39 70q-98 -70 -268 -70h-86q-175 0 -245 71t-42 222l39 213q37 210 199 270q-40 56 -55.5 115t1.5 151l7 43q23 130 100.5 191t218.5 61h74q167 0 235.5 -61t46.5 -191l-22 -118h-254l25 139q12 76 -48 76h-36
q-70 0 -84 -88l-4 -25q-18 -97 38 -197l152 -260zM428 166q86 0 129 72l-223 407q-17 -33 -29 -88l-43 -250q-12 -72 15 -106.5t96 -34.5h55z" />
    <glyph glyph-name="quotesingle" unicode="'" horiz-adv-x="432" 
d="M156 854l32 483h297l-137 -483h-192z" />
    <glyph glyph-name="parenleft" unicode="(" horiz-adv-x="573" 
d="M109 -451q-95 229 -117.5 444.5t22.5 448.5q41 230 139.5 445t270.5 450h227q-153 -205 -244 -419.5t-135 -475.5q-44 -258 -28.5 -469.5t92.5 -423.5h-227z" />
    <glyph glyph-name="parenright" unicode=")" horiz-adv-x="573" 
d="M-154 -451q154 211 244.5 423.5t136.5 469.5q48 259 33 475t-98 420h227q91 -233 113.5 -451.5t-17.5 -443.5q-40 -236 -137.5 -450t-271.5 -443h-230z" />
    <glyph glyph-name="asterisk" unicode="*" horiz-adv-x="745" 
d="M768 1135l-20 -123h-209l71 -193l-121 -59l-65 180l-133 -182l-101 61l140 193h-207l20 123h209l-71 194l118 62l70 -187l133 187l100 -64l-139 -192h205z" />
    <glyph glyph-name="plus" unicode="+" horiz-adv-x="884" 
d="M805 614l-35 -204h-256l-51 -287h-227l51 287h-256l35 204h256l51 287h227l-51 -287h256z" />
    <glyph glyph-name="comma" unicode="," horiz-adv-x="466" 
d="M20 309h302l-64 -354q-24 -133 -126 -210t-226 -77l28 154q54 0 97.5 34t52.5 89l10 55h-129z" />
    <glyph glyph-name="hyphen" unicode="-" horiz-adv-x="749" 
d="M41 453l39 217h596l-39 -217h-596z" />
    <glyph glyph-name="period" unicode="." horiz-adv-x="466" 
d="M-35 0l55 309h302l-56 -309h-301z" />
    <glyph glyph-name="slash" unicode="/" horiz-adv-x="716" 
d="M-152 0l777 1337h243l-778 -1337h-242z" />
    <glyph glyph-name="zero" unicode="0" horiz-adv-x="929" 
d="M346 -20q-207 0 -273.5 167t-2.5 525q63 355 188.5 520.5t331.5 165.5q204 0 270.5 -165.5t5.5 -520.5q-63 -358 -188.5 -525t-331.5 -167zM379 158q55 0 101.5 123.5t92.5 390.5q47 262 43.5 386t-57.5 124q-57 0 -105 -123.5t-94 -386.5q-47 -266 -42.5 -390t61.5 -124
z" />
    <glyph glyph-name="one" unicode="1" horiz-adv-x="595" 
d="M139 1270l484 92l-240 -1362h-281l195 1098l-195 -33z" />
    <glyph glyph-name="two" unicode="2" horiz-adv-x="813" 
d="M799 1010q-31 -181 -174 -367.5t-416 -404.5h467l-41 -238h-690l43 238q233 198 356 369.5t152 340.5q23 117 -10.5 172.5t-127.5 55.5q-84 0 -180 -48l4 168q138 62 305 62q194 0 269 -84t43 -264z" />
    <glyph glyph-name="three" unicode="3" horiz-adv-x="831" 
d="M811 1065q-26 -143 -96.5 -227t-171.5 -93v-4q115 0 163.5 -86t20.5 -241q-77 -434 -502 -434q-154 0 -276 53l61 157q71 -30 185 -30q104 0 160.5 60t82.5 204q19 109 -18 161t-141 52h-93l29 158h72q102 0 155 46.5t72 151.5q17 101 -15 143t-126 42q-80 0 -197 -45
l10 170q152 55 303 55q186 0 266.5 -72.5t55.5 -220.5z" />
    <glyph glyph-name="four" unicode="4" horiz-adv-x="876" 
d="M846 1337l-156 -880h107l-29 -168h-106l-52 -289h-280l51 289h-418l8 45l594 1003h281zM182 457h228l98 553z" />
    <glyph glyph-name="five" unicode="5" horiz-adv-x="808" 
d="M778 1108l-379 18l-67 -264q111 21 174 21q146 0 200 -86t23 -271q-51 -283 -190 -414.5t-387 -131.5q-130 0 -207 38l61 160q67 -20 125 -20q124 0 196.5 81.5t104.5 256.5q20 120 -16 176.5t-133 56.5q-102 0 -193 -29l172 637h582z" />
    <glyph glyph-name="six" unicode="6" horiz-adv-x="907" 
d="M713 1200q-113 0 -190 -89t-122 -277q78 67 199 67q146 0 196.5 -101.5t12.5 -318.5q-44 -259 -155 -380t-302 -121q-211 0 -282.5 147.5t-14.5 462.5q69 396 224.5 582t416.5 186q108 0 203 -33l-53 -151q-79 26 -133 26zM473 735q-52 0 -87.5 -69.5t-61.5 -221.5
q-57 -313 41 -313q47 0 82.5 75.5t64.5 237.5q51 291 -39 291z" />
    <glyph glyph-name="seven" unicode="7" horiz-adv-x="847" 
d="M940 1337l-690 -1337h-205l553 1073h-469l90 264h721z" />
    <glyph glyph-name="eight" unicode="8" horiz-adv-x="927" 
d="M893 1004q-38 -208 -170 -287q137 -88 94 -336q-37 -207 -152.5 -304t-324.5 -97q-205 0 -284 97t-42 304q43 252 209 338q-98 79 -63 285q31 183 133.5 268.5t290.5 85.5q192 0 266.5 -85.5t42.5 -268.5zM432 997q-19 -109 -5.5 -160t60.5 -51t79 51t52 160
q19 109 5.5 160t-62.5 51q-93 0 -129 -211zM526 387q22 131 6 191.5t-71 60.5q-56 0 -93.5 -61t-60.5 -191q-23 -132 -7.5 -194t71.5 -62q55 0 92.5 62t62.5 194z" />
    <glyph glyph-name="nine" unicode="9" horiz-adv-x="907" 
d="M559 1358q211 0 282.5 -147.5t14.5 -462.5q-69 -396 -224.5 -582t-416.5 -186q-117 0 -203 34l54 152q86 -29 145 -29q108 0 181.5 89.5t119.5 277.5q-86 -68 -201 -68q-146 0 -196.5 102t-12.5 320q44 258 155 379t302 121zM588 889q28 158 18 232.5t-61 74.5
q-92 0 -146 -307q-54 -285 39 -285q51 0 86.5 68t63.5 217z" />
    <glyph glyph-name="colon" unicode=":" horiz-adv-x="468" 
d="M92 715l53 309h301l-53 -309h-301zM-35 0l55 309h302l-56 -309h-301z" />
    <glyph glyph-name="semicolon" unicode=";" horiz-adv-x="468" 
d="M145 1024h301l-53 -309h-301zM-35 0l55 309h302l-64 -354q-24 -133 -126 -210t-226 -77l28 154q54 0 97.5 34t52.5 89l10 55h-129z" />
    <glyph glyph-name="less" unicode="&#x3c;" horiz-adv-x="630" 
d="M645 1153l-51 -285l-324 -303l217 -301l-49 -280l-403 551l12 65z" />
    <glyph glyph-name="equal" unicode="=" horiz-adv-x="727" 
d="M72 645l30 174h580l-31 -174h-579zM4 264l33 176h577l-30 -176h-580z" />
    <glyph glyph-name="greater" unicode="&#x3e;" horiz-adv-x="630" 
d="M162 1153l403 -553l-12 -65l-600 -551l51 284l326 305l-219 299z" />
    <glyph glyph-name="question" unicode="?" horiz-adv-x="845" 
d="M244 381l14 86q17 94 50.5 163t71.5 111.5t75.5 83.5t70 105t47.5 151q12 68 -1 97.5t-56 29.5q-52 0 -80.5 -35.5t-42.5 -117.5l-16 -92h-242l17 94q26 152 123.5 225.5t269.5 73.5q174 0 244.5 -71t44.5 -220q-12 -68 -35.5 -122.5t-52.5 -91.5t-61.5 -69t-64.5 -62.5
t-60 -64t-50.5 -81.5t-32.5 -107l-14 -86h-219zM168 0l45 254h238l-45 -254h-238z" />
    <glyph glyph-name="at" unicode="@" horiz-adv-x="1312" 
d="M795 1352q303 0 416.5 -170.5t50.5 -532.5q-54 -294 -158 -431.5t-273 -137.5h-153l18 100q-90 -121 -176 -121q-124 0 -163 111t3 346q41 230 119 338.5t201 108.5q79 0 129 -68l12 61l164 -2l-135 -768q66 3 117 117t94 352q51 293 -19.5 431.5t-271.5 138.5
q-198 0 -321 -173t-189 -544q-67 -376 2.5 -552.5t286.5 -176.5q112 0 194.5 49t145.5 152h110q-92 -169 -213 -248.5t-286 -79.5q-324 0 -438.5 208t-34.5 654q77 432 263 635t505 203zM582 197q85 0 139 315q28 167 22 245.5t-47 78.5q-69 0 -123 -320q-60 -319 9 -319z
" />
    <glyph glyph-name="A" unicode="A" horiz-adv-x="925" 
d="M508 0l-10 297h-291l-113 -297h-190l540 1337h289l55 -1337h-280zM270 465h224l-19 539z" />
    <glyph glyph-name="B" unicode="B" horiz-adv-x="958" 
d="M922 1032q-23 -128 -81.5 -199.5t-158.5 -93.5q115 -13 155.5 -92.5t12.5 -232.5q-38 -214 -162.5 -314t-353.5 -100h-352l237 1337h344q212 0 298.5 -73.5t60.5 -231.5zM524 1169h-53l-65 -370h57q66 0 104.5 48.5t57.5 151.5q15 87 -10 128.5t-91 41.5zM551 408
q22 116 -5 170.5t-104 54.5h-67l-82 -465h72q75 0 119.5 57.5t66.5 182.5z" />
    <glyph glyph-name="C" unicode="C" horiz-adv-x="782" 
d="M367 -20q-214 0 -284 168.5t-5 527.5q63 352 203 517t376 165q49 0 197 -29l-61 -278l-152 127q-90 0 -154 -122t-110 -380q-46 -267 -25 -392.5t113 -125.5q67 0 145 37v-175q-110 -40 -243 -40z" />
    <glyph glyph-name="D" unicode="D" horiz-adv-x="985" 
d="M578 1337q232 0 312.5 -158.5t20.5 -498.5q-63 -350 -201 -515t-368 -165h-360l237 1337h359zM612 672q43 256 22.5 376.5t-108.5 120.5h-55l-178 -1001h57q89 0 152.5 122t109.5 382z" />
    <glyph glyph-name="E" unicode="E" horiz-adv-x="843" 
d="M819 1169h-348l-68 -383h320l-29 -168h-321l-80 -450h364l-28 -168h-647l237 1337h631z" />
    <glyph glyph-name="F" unicode="F" horiz-adv-x="819" 
d="M819 1169h-348l-74 -409h322l-29 -168h-321l-105 -592h-282l237 1337h631z" />
    <glyph glyph-name="G" unicode="G" horiz-adv-x="976" 
d="M752 1180q-149 0 -241 -124t-138 -386q-46 -264 -12.5 -388t151.5 -124q35 0 51 2l72 411h-148l29 168h385l-121 -696q-141 -63 -307 -63q-269 0 -365 166.5t-32 521.5q63 356 227 523t451 167q103 0 215 -31l-33 -178q-91 31 -184 31z" />
    <glyph glyph-name="H" unicode="H" horiz-adv-x="993" 
d="M733 1337h281l-236 -1337h-280l110 625h-233l-111 -625h-282l237 1337h281l-97 -544h234z" />
    <glyph glyph-name="I" unicode="I" horiz-adv-x="479" 
d="M-18 0l237 1337h281l-236 -1337h-282z" />
    <glyph glyph-name="J" unicode="J" horiz-adv-x="487" 
d="M229 1337h279l-238 -1351q-35 -204 -144 -300t-306 -96q-30 0 -109 11l37 168q53 -11 57 -11q75 0 118.5 52.5t62.5 164.5z" />
    <glyph glyph-name="K" unicode="K" horiz-adv-x="972" 
d="M1049 1337l-412 -516l190 -821h-288l-121 545l-74 -92l-80 -453h-282l237 1337h281l-88 -501l379 501h258z" />
    <glyph glyph-name="L" unicode="L" horiz-adv-x="778" 
d="M293 168h352l-29 -168h-634l237 1337h281z" />
    <glyph glyph-name="M" unicode="M" horiz-adv-x="1357" 
d="M1225 1337l-29 -1337h-281l33 889l-327 -889h-222l-14 883l-281 -883h-184l447 1337h280l8 -807l306 807h264z" />
    <glyph glyph-name="N" unicode="N" horiz-adv-x="993" 
d="M842 1337h172l-236 -1337h-213l-256 868l-153 -868h-174l237 1337h252l227 -813z" />
    <glyph glyph-name="O" unicode="O" horiz-adv-x="997" 
d="M381 -20q-220 0 -293 167t-10 525q63 355 195 520.5t350 165.5t290.5 -165.5t10.5 -520.5q-61 -357 -193 -524.5t-350 -167.5zM414 158q63 0 114 124.5t97 389.5q47 262 39 385t-72 123q-65 0 -117 -123t-98 -385q-47 -266 -38 -390t75 -124z" />
    <glyph glyph-name="P" unicode="P" horiz-adv-x="948" 
d="M590 1337q214 0 295 -103.5t43 -324.5q-41 -242 -161.5 -355.5t-334.5 -113.5h-90l-78 -440h-282l237 1337h371zM629 909q25 133 2 196.5t-96 63.5h-64l-100 -561h65q72 0 118.5 73t74.5 228z" />
    <glyph glyph-name="Q" unicode="Q" horiz-adv-x="997" 
d="M924 672q-84 -498 -314 -633l172 -49l-37 -215l-481 162l10 55q-156 37 -203.5 203.5t7.5 476.5q63 355 195 520.5t350 165.5t290.5 -165.5t10.5 -520.5zM625 672q47 262 39 385t-72 123q-65 0 -117 -123t-98 -385q-46 -266 -37.5 -390t74.5 -124q63 0 114 124.5
t97 389.5z" />
    <glyph glyph-name="R" unicode="R" horiz-adv-x="980" 
d="M936 928q-49 -275 -217 -379l112 -549h-286l-96 485h-5h-94l-86 -485h-282l237 1337h375q214 0 296.5 -98.5t45.5 -310.5zM471 1169l-92 -516h67q72 0 118.5 66t72.5 207q22 126 -2 184.5t-96 58.5h-68z" />
    <glyph glyph-name="S" unicode="S" horiz-adv-x="815" 
d="M164 -20q-117 0 -223 47l69 192q88 -59 189 -59q88 0 150 50.5t79 141.5q8 50 -11.5 90.5t-42 60t-74.5 55.5l-21 15q-93 65 -138 152t-22 213q31 182 165.5 301t315.5 119q147 0 244 -31l-64 -182q-71 36 -172 33q-67 0 -117.5 -51.5t-62.5 -125.5q-5 -24 -5.5 -45
t4 -38.5t10 -32.5t16.5 -28.5t21 -24t25 -21.5t27 -19t29 -18q64 -36 104 -75t61 -102.5t7 -143.5q-38 -215 -195.5 -344t-367.5 -129z" />
    <glyph glyph-name="T" unicode="T" horiz-adv-x="876" 
d="M963 1337l-29 -168h-264l-207 -1169h-281l207 1169h-266l31 168h809z" />
    <glyph glyph-name="U" unicode="U" horiz-adv-x="950" 
d="M383 -20q-200 0 -288.5 110.5t-51.5 312.5l166 934h280l-165 -936q-20 -109 8 -176t114 -67q80 0 129.5 66t69.5 177l164 936h174l-166 -940q-36 -199 -146 -308t-288 -109z" />
    <glyph glyph-name="V" unicode="V" horiz-adv-x="915" 
d="M838 1337h178l-543 -1337h-250l-82 1337h291l47 -891z" />
    <glyph glyph-name="W" unicode="W" horiz-adv-x="1347" 
d="M1262 1337h186l-483 -1337h-246l-2 862l-305 -862h-260l-11 1337h289l-4 -786l272 786h283l2 -790z" />
    <glyph glyph-name="X" unicode="X" horiz-adv-x="935" 
d="M1004 1337l-390 -641l174 -696h-299l-112 451l-273 -451h-190l410 672l-166 665h297l108 -432l258 432h183z" />
    <glyph glyph-name="Y" unicode="Y" horiz-adv-x="911" 
d="M823 1337h189l-424 -825l-90 -512h-281l90 512l-166 825h293l111 -563z" />
    <glyph glyph-name="Z" unicode="Z" horiz-adv-x="802" 
d="M848 1337l-543 -1169h361l-31 -168h-707l549 1169h-323l28 168h666z" />
    <glyph glyph-name="bracketleft" unicode="[" horiz-adv-x="579" 
d="M604 1169h-127l-258 -1454h143l-30 -168h-422l315 1790h410z" />
    <glyph glyph-name="backslash" unicode="\" horiz-adv-x="612" 
d="M342 0l-303 1337h240l299 -1337h-236z" />
    <glyph glyph-name="bracketright" unicode="]" horiz-adv-x="579" 
d="M594 1337l-315 -1790h-424l28 168h144l256 1454h-127l28 168h410z" />
    <glyph glyph-name="asciicircum" unicode="^" horiz-adv-x="735" 
d="M692 721h-229l-8 412l-154 -412h-233l270 616h303z" />
    <glyph glyph-name="underscore" unicode="_" horiz-adv-x="778" 
d="M-172 -317l31 167h778l-29 -167h-780z" />
    <glyph glyph-name="grave" unicode="`" horiz-adv-x="649" 
d="M430 1169l-209 285h309l125 -285h-225z" />
    <glyph glyph-name="a" unicode="a" horiz-adv-x="847" 
d="M606 1024h225l-180 -1024h-225l27 150q-63 -88 -129 -129t-144 -41q-130 0 -167 130t14 410q47 270 133.5 397t222.5 127q147 0 195 -178zM319 156q54 0 94 86.5t74 273.5q32 182 21.5 266t-66.5 84q-46 0 -82 -82.5t-67 -257.5q-35 -192 -29 -281t55 -89z" />
    <glyph glyph-name="b" unicode="b" horiz-adv-x="849" 
d="M616 1044q129 0 168.5 -125.5t-6.5 -392.5q-51 -283 -138.5 -414.5t-225.5 -131.5q-150 0 -195 170l-26 -150h-226l248 1415h254l-86 -495q106 124 233 124zM510 526q60 340 -29 340q-53 0 -93.5 -81.5t-72.5 -252.5l-10 -49q-27 -169 -15 -248t66 -79q46 0 83 89t71 281
z" />
    <glyph glyph-name="c" unicode="c" horiz-adv-x="681" 
d="M303 -20q-193 0 -260.5 129.5t-17.5 406.5q49 273 169.5 400.5t327.5 127.5q68 0 168 -20l-55 -262l-121 121q-82 0 -135.5 -89t-87.5 -278q-34 -192 -10.5 -282.5t106.5 -90.5q61 0 123 27v-158q-92 -32 -207 -32z" />
    <glyph glyph-name="d" unicode="d" horiz-adv-x="847" 
d="M647 1415h252l-248 -1415h-225l27 150q-119 -170 -273 -170q-130 0 -167 130t14 410q47 270 133.5 397t222.5 127q126 0 176 -124zM319 156q54 0 94 86.5t74 273.5q32 182 21.5 266t-66.5 84q-46 0 -82 -82.5t-67 -257.5q-35 -192 -29 -281t55 -89z" />
    <glyph glyph-name="e" unicode="e" horiz-adv-x="815" 
d="M475 1044q186 0 250.5 -125.5t17.5 -394.5q-2 -17 -12 -49h-444q-26 -170 4.5 -251t120.5 -81t209 58v-154q-131 -67 -281 -67q-212 0 -288 130t-25 408q47 272 155.5 399t292.5 127zM309 610h180l3 6q48 267 -39 267q-49 0 -83 -66t-61 -207z" />
    <glyph glyph-name="f" unicode="f" horiz-adv-x="501" 
d="M545 1251q-87 0 -113 -164l-10 -63h131l-31 -176h-133l-217 -1237h-254l219 1237h-96l31 176h96l14 76q31 173 109.5 254.5t216.5 81.5q57 0 139 -23l-47 -170q-31 8 -55 8z" />
    <glyph glyph-name="g" unicode="g" horiz-adv-x="849" 
d="M602 1024l232 10l-179 -1018q-38 -220 -157 -323t-334 -103q-141 0 -242 39l62 174q91 -39 176 -39q101 0 158 54t79 170l21 118q-105 -126 -221 -126q-139 0 -181.5 125.5t7.5 392.5q49 282 139 414t231 132q140 0 185 -159zM319 156q54 0 94 85t74 269q32 184 22.5 270
t-63.5 86q-47 0 -85 -89t-72 -279q-31 -177 -24 -259.5t54 -82.5z" />
    <glyph glyph-name="h" unicode="h" horiz-adv-x="835" 
d="M621 1044q109 0 147 -69.5t12 -220.5l-133 -754h-254l121 686q15 94 5 137t-48 43q-51 0 -83.5 -47.5t-51.5 -150.5l-119 -668h-252l246 1395l256 20l-88 -502q85 131 242 131z" />
    <glyph glyph-name="i" unicode="i" horiz-adv-x="417" 
d="M172 1171l51 281h252l-49 -281h-254zM-33 0l180 1024h254l-182 -1024h-252z" />
    <glyph glyph-name="j" unicode="j" horiz-adv-x="415" 
d="M170 1171l51 281h252l-49 -281h-254zM-115 -412q-103 0 -207 37l62 176q52 -16 84 -16q52 0 82.5 31.5t42.5 99.5l196 1108h254l-198 -1122q-28 -161 -104.5 -237.5t-211.5 -76.5z" />
    <glyph glyph-name="k" unicode="k" horiz-adv-x="829" 
d="M854 1024l-297 -369l127 -655h-256l-74 406l-84 -103l-53 -303h-252l246 1397l256 20l-139 -794l297 401h229z" />
    <glyph glyph-name="l" unicode="l" horiz-adv-x="413" 
d="M-35 0l246 1397l256 20l-250 -1417h-252z" />
    <glyph glyph-name="m" unicode="m" horiz-adv-x="1239" 
d="M1030 1044q106 0 143 -69.5t11 -220.5l-133 -754h-254l121 686q17 94 8.5 137t-43.5 43q-48 0 -79 -45t-50 -143l-119 -678h-254l121 686q17 94 8.5 137t-43.5 43q-49 0 -80.5 -47.5t-50.5 -150.5h-2l-117 -668h-252l180 1024l256 20l-22 -131q83 131 235 131
q77 0 117.5 -39t44.5 -122q44 83 106 122t148 39z" />
    <glyph glyph-name="n" unicode="n" horiz-adv-x="835" 
d="M621 1044q109 0 147 -69.5t12 -220.5l-133 -754h-254l121 686q15 94 5 137t-48 43q-51 0 -83.5 -47.5t-51.5 -150.5h-2l-117 -668h-252l180 1024l256 20l-22 -131q85 131 242 131z" />
    <glyph glyph-name="o" unicode="o" horiz-adv-x="831" 
d="M297 -20q-189 0 -255 128.5t-17 403.5q47 275 158 403.5t302 128.5q188 0 254 -128.5t19 -403.5q-49 -275 -160.5 -403.5t-300.5 -128.5zM326 143q51 0 90 90t73 283q35 189 27.5 278t-59.5 89t-92 -88.5t-74 -278.5q-66 -373 35 -373z" />
    <glyph glyph-name="p" unicode="p" horiz-adv-x="845" 
d="M600 1044q137 0 178 -131.5t-8 -414.5q-46 -267 -128.5 -392.5t-213.5 -125.5q-127 0 -190 126l-88 -495h-254l249 1413h230l-25 -139q102 159 250 159zM504 498q34 190 27 279t-54 89q-55 0 -95.5 -85.5t-72.5 -270.5q-34 -183 -23 -268.5t68 -85.5q88 0 150 342z" />
    <glyph glyph-name="q" unicode="q" horiz-adv-x="849" 
d="M602 1024h229l-247 -1413h-254l88 495q-108 -126 -236 -126q-130 0 -168.5 125.5t9.5 392.5q50 283 137 414.5t225 131.5q74 0 121 -39t72 -122zM319 156q55 0 95.5 85t72.5 269t23 270t-61 86q-49 0 -87.5 -88.5t-72.5 -279.5q-31 -177 -23.5 -259.5t53.5 -82.5z" />
    <glyph glyph-name="r" unicode="r" horiz-adv-x="641" 
d="M618 1044q39 0 58 -8l-60 -268q-52 25 -94 25q-86 0 -137 -67t-76 -210l-92 -516h-252l180 1024h254l-32 -182q113 202 251 202z" />
    <glyph glyph-name="s" unicode="s" horiz-adv-x="688" 
d="M147 -20q-126 0 -210 36l59 172q80 -45 178 -45q63 0 109 39t57 99q1 16 2.5 27.5t-3 23t-7 19t-11.5 16t-15 13.5t-18 12t-20.5 11.5t-21.5 11.5t-23 13q-180 102 -145 297q26 145 140.5 232t264.5 87q106 0 191 -28l-58 -164q-58 31 -145 31q-45 0 -80.5 -34.5
t-44.5 -84.5q-3 -16 -3.5 -30t2.5 -25.5t6 -20.5t11 -18t13.5 -14.5t17 -13.5t17.5 -11.5t19.5 -11t19.5 -11.5q37 -20 62.5 -41.5t49 -55.5t28 -73.5t-2.5 -95.5q-30 -174 -147.5 -268t-291.5 -94z" />
    <glyph glyph-name="t" unicode="t" horiz-adv-x="555" 
d="M395 844l-94 -535q-12 -74 3 -108.5t61 -34.5q44 0 65 6l-29 -166q-95 -26 -155 -26q-132 0 -181 76.5t-20 240.5l96 547h-90l31 180h92l33 186l264 62l-43 -248h156l-33 -180h-156z" />
    <glyph glyph-name="u" unicode="u" horiz-adv-x="833" 
d="M565 1024h252l-180 -1024l-256 -20l22 131q-86 -131 -241 -131q-111 0 -149 70t-9 220l131 754h254l-121 -688q-17 -94 -7 -137t48 -43q52 0 85 47.5t52 150.5z" />
    <glyph glyph-name="v" unicode="v" horiz-adv-x="739" 
d="M639 1024h158l-435 -1024h-215l-75 1024h270l29 -666z" />
    <glyph glyph-name="w" unicode="w" horiz-adv-x="1103" 
d="M1004 1024h157l-405 -1024h-207l-17 545l-206 -545h-201l-53 1024h270l8 -641l238 641h178l8 -625z" />
    <glyph glyph-name="x" unicode="x" horiz-adv-x="770" 
d="M799 1024l-301 -504l135 -520h-262l-90 350l-211 -350h-164l327 532l-127 492h263l82 -319l188 319h160z" />
    <glyph glyph-name="y" unicode="y" horiz-adv-x="722" 
d="M623 1024h157l-594 -1413h-153l162 389h-68l-55 1024h272l8 -659z" />
    <glyph glyph-name="z" unicode="z" horiz-adv-x="686" 
d="M707 1024l-435 -856h281l-29 -166h-600l434 858h-254l31 164h572z" />
    <glyph glyph-name="braceleft" unicode="{" horiz-adv-x="589" 
d="M651 1378h21l-29 -157h-29q-89 0 -106 -101l-82 -469q-27 -158 -172 -207q125 -48 98 -206l-84 -471q-17 -101 74 -101h29l-29 -158h-20q-188 0 -262.5 78t-45.5 244l70 399q12 67 -4 99t-62 32h-24l31 168h22q90 0 113 131l71 408q28 161 129.5 236t290.5 75z" />
    <glyph glyph-name="bar" unicode="|" horiz-adv-x="413" 
d="M-90 -389l305 1726h225l-305 -1726h-225z" />
    <glyph glyph-name="braceright" unicode="}" horiz-adv-x="589" 
d="M498 528h24l-28 -168h-25q-90 0 -113 -131l-69 -399q-29 -166 -131 -244t-291 -78h-23l29 158h29q47 0 73 24t35 77l84 471q27 157 170 206q-126 48 -96 207l82 469q17 101 -74 101h-29l29 157h23q187 0 261 -75t46 -236l-72 -408q-12 -67 4 -99t62 -32z" />
    <glyph glyph-name="asciitilde" unicode="~" horiz-adv-x="729" 
d="M4 346q29 163 88 239.5t154 76.5q33 0 57 -8t38.5 -19.5t28 -23t33.5 -19.5t46 -8q76 0 96 108h131q-31 -167 -88.5 -245t-151.5 -78q-39 0 -72 20t-64 40t-67 20q-77 0 -98 -103h-131z" />
    <glyph glyph-name="uni00A0" unicode="&#xa0;" horiz-adv-x="972" 
 />
    <glyph glyph-name="exclamdown" unicode="&#xa1;" horiz-adv-x="466" 
d="M94 735l51 289h301l-51 -289h-301zM-90 -313l207 862h188l-96 -862h-299z" />
    <glyph glyph-name="cent" unicode="&#xa2;" horiz-adv-x="636" 
d="M532 1044q68 0 168 -20l-55 -262l-121 121q-82 0 -135.5 -89t-87.5 -278q-34 -192 -10.5 -282.5t106.5 -90.5q61 0 123 27v-158q-92 -32 -207 -32h-16l-51 -287h-111l55 303q-121 38 -158.5 166.5t3.5 353.5q38 214 120 338.5t214 165.5l57 317h111l-54 -295q16 2 49 2z
" />
    <glyph glyph-name="sterling" unicode="&#xa3;" horiz-adv-x="909" 
d="M905 987h-248q36 184 -20 184h-14q-68 0 -107 -215l-37 -215h277l-29 -168h-278l-37 -213q-22 -120 -68 -192h420l-29 -168h-739h-10h-33l29 168h63q74 0 107 190l38 215h-110l29 168h110l39 220q35 194 130 285t261 91h27q151 0 206 -84.5t23 -265.5z" />
    <glyph glyph-name="currency" unicode="&#xa4;" horiz-adv-x="815" 
d="M811 985l-96 -84q56 -91 35 -207q-21 -115 -113 -207l70 -88l-148 -127l-88 111q-65 -21 -119 -21t-106 19l-119 -109l-102 127l90 82q-66 92 -45 213q21 123 116 215l-59 76l149 127l78 -98q56 18 115 18q67 0 123 -24l117 104zM272 692q-11 -59 22 -100t91 -41
q57 0 105 41.5t57 99.5q12 63 -21 106.5t-90 43.5t-105.5 -43.5t-58.5 -106.5z" />
    <glyph glyph-name="yen" unicode="&#xa5;" horiz-adv-x="911" 
d="M1012 1337l-400 -776h187l-23 -125h-203l-18 -112h201l-21 -123h-203l-34 -201h-281l35 201h-199l23 123h198l19 112h-197l23 125h178l-156 776h293l111 -563l278 563h189z" />
    <glyph glyph-name="brokenbar" unicode="&#xa6;" horiz-adv-x="436" 
d="M96 604l129 733h226l-129 -733h-226zM-90 -451l129 727h225l-129 -727h-225z" />
    <glyph glyph-name="section" unicode="&#xa7;" horiz-adv-x="976" 
d="M700 1200q-72 0 -120.5 -46.5t-61.5 -117.5q-4 -21 -4 -39.5t4 -34t9 -28.5t15.5 -25t20 -21t25 -19t27 -17.5t30.5 -17.5q21 -12 35 -20.5t32 -21t30 -23t26 -24.5t22.5 -28t16 -31.5t10.5 -36t2.5 -41t-4.5 -47.5q-20 -113 -83 -194.5t-161 -128.5q185 -124 154 -293
q-30 -166 -171 -260.5t-368 -94.5q-147 0 -254 41l70 164q85 -49 213 -49q96 0 151.5 38.5t67.5 111.5q6 35 -3.5 63t-37 51.5t-50.5 38.5t-68.5 39t-67.5 37q-61 38 -100.5 77t-62 100t-9.5 134q19 103 88 179.5t176 115.5q-113 107 -86 273q29 163 161.5 258.5t332.5 95.5
q91 0 202 -27l-59 -157q-84 29 -150 26zM551 479q8 51 -16 83t-78 65q-51 -17 -84 -55.5t-41 -88.5q-10 -57 12 -93t70 -66q54 18 90.5 57.5t46.5 97.5z" />
    <glyph glyph-name="dieresis" unicode="&#xa8;" horiz-adv-x="741" 
d="M172 1169l43 244h229l-43 -244h-229zM518 1169l43 244h230l-43 -244h-230z" />
    <glyph glyph-name="copyright" unicode="&#xa9;" horiz-adv-x="1421" 
d="M594 -16q-287 0 -392 166.5t-42 521.5q61 355 225 520.5t453 165.5q286 0 390.5 -165.5t41.5 -520.5q-62 -355 -225.5 -521.5t-450.5 -166.5zM616 113q224 0 353 135t178 424q52 287 -29 422t-305 135t-352 -135t-178 -422q-52 -289 28.5 -424t304.5 -135zM668 266
q-141 0 -190.5 98.5t-12.5 307.5q37 210 119.5 308.5t222.5 98.5q95 0 137 -66.5t37 -209.5h-131q0 158 -64 158q-67 0 -110.5 -70t-71.5 -221q-26 -148 -5.5 -216.5t89.5 -68.5q35 0 62.5 40.5t54.5 127.5h135q-51 -148 -117 -217.5t-155 -69.5z" />
    <glyph glyph-name="ordfeminine" unicode="&#xaa;" horiz-adv-x="514" 
d="M362 1358q114 0 155 -35t26 -121l-72 -407h-123l8 51q-37 -35 -65.5 -49.5t-65.5 -14.5q-64 0 -99.5 40.5t-19.5 127.5q16 89 72 138t129 57l82 8l8 45q5 26 -8.5 37.5t-50.5 11.5q-44 0 -143 -35l4 111q107 35 163 35zM254 958q-13 -69 33 -69q29 0 59 20l29 156l-43 -8
q-64 -10 -78 -99z" />
    <glyph glyph-name="guillemotleft" unicode="&#xab;" horiz-adv-x="958" 
d="M555 858l-279 -317l166 -314h-243l-160 316l270 315h246zM936 858l-281 -317l166 -314h-243l-158 316l270 315h246z" />
    <glyph glyph-name="logicalnot" unicode="&#xac;" horiz-adv-x="800" 
d="M90 813h672l-76 -432h-258l47 274h-412z" />
    <glyph glyph-name="registered" unicode="&#xae;" horiz-adv-x="1421" 
d="M594 -16q-287 0 -392 166.5t-42 521.5q61 355 225 520.5t453 165.5q286 0 390.5 -165.5t41.5 -520.5q-62 -355 -225.5 -521.5t-450.5 -166.5zM616 113q224 0 353 135t178 424q52 287 -29 422t-305 135t-352 -135t-178 -422q-52 -289 28.5 -424t304.5 -135zM459 336
l121 692h188q129 0 181.5 -49.5t33.5 -153.5q-15 -86 -66 -132t-145 -56l127 -301h-123l-114 297h-44l-51 -297h-108zM637 729h78q72 0 110 26t47 81q9 49 -20 72.5t-100 23.5h-80z" />
    <glyph glyph-name="macron" unicode="&#xaf;" horiz-adv-x="657" 
d="M172 1169l33 191h491l-32 -191h-492z" />
    <glyph glyph-name="degree" unicode="&#xb0;" horiz-adv-x="722" 
d="M381 772q-117 0 -182 85t-43 208t117 208t212 85t183.5 -85t44.5 -208q-23 -123 -119 -208t-213 -85zM412 932q49 0 91.5 39.5t51.5 93.5q9 56 -19 94.5t-77 38.5q-51 0 -94 -39t-52 -94q-11 -54 18.5 -93.5t80.5 -39.5z" />
    <glyph glyph-name="plusminus" unicode="&#xb1;" horiz-adv-x="747" 
d="M485 748h209l-32 -183h-207l-49 -276h-191l49 276h-209l33 183h207l49 276h191zM-45 0l29 168h608l-31 -168h-606z" />
    <glyph glyph-name="uni00B2" unicode="&#xb2;" horiz-adv-x="464" 
d="M512 1147q-18 -106 -96 -199t-213 -188h248l-31 -164h-397l28 164q115 80 178.5 156t79.5 171q21 121 -73 121q-45 0 -95 -26l13 133q76 35 180 35q106 0 151.5 -51t26.5 -152z" />
    <glyph glyph-name="uni00B3" unicode="&#xb3;" horiz-adv-x="499" 
d="M539 1190q-13 -79 -54.5 -126.5t-101.5 -53.5v-2q69 0 99 -47.5t16 -133.5q-25 -132 -93.5 -187.5t-209.5 -55.5q-96 0 -168 34l36 117q44 -18 78 -18q80 0 118 28t50 95q9 49 -13.5 70.5t-84.5 21.5h-57l16 104h41q62 0 92 23.5t39 77.5q8 43 -15 61.5t-87 18.5
q-41 0 -93 -19l13 119q90 33 188 33q118 0 162 -37t29 -123z" />
    <glyph glyph-name="acute" unicode="&#xb4;" horiz-adv-x="626" 
d="M172 1169l203 285h307l-305 -285h-205z" />
    <glyph glyph-name="paragraph" unicode="&#xb6;" horiz-adv-x="976" 
d="M508 1337h156l-271 -1532h-155l137 777q-172 13 -238 105.5t-35 275.5q32 179 130.5 269.5t275.5 102.5v2zM760 1337h244l-271 -1532h-244z" />
    <glyph glyph-name="periodcentered" unicode="&#xb7;" horiz-adv-x="466" 
d="M49 477l55 309h302l-56 -309h-301z" />
    <glyph glyph-name="cedilla" unicode="&#xb8;" horiz-adv-x="608" 
d="M178 -90q122 -14 159 -57t25 -113q-11 -61 -53 -107t-107 -72t-139.5 -38.5t-162.5 -14.5l-2 113q53 4 91 11t71 19.5t51.5 34t23.5 52.5t-25 54.5t-124 37.5l110 178h135z" />
    <glyph glyph-name="uni00B9" unicode="&#xb9;" horiz-adv-x="356" 
d="M125 1288l303 64l-133 -756h-184l102 571l-113 -20z" />
    <glyph glyph-name="ordmasculine" unicode="&#xba;" horiz-adv-x="550" 
d="M297 778q-114 0 -155 70t-15 221q26 150 91.5 219.5t180.5 69.5t156.5 -70t15.5 -219q-28 -151 -94 -221t-180 -70zM315 879q66 0 99 190q34 188 -31 188q-35 0 -59 -45t-41 -143q-36 -190 32 -190z" />
    <glyph glyph-name="guillemotright" unicode="&#xbb;" horiz-adv-x="958" 
d="M340 858l160 -315l-271 -316h-245l280 318l-166 313h242zM721 858l160 -315l-271 -316h-245l278 320l-164 311h242z" />
    <glyph glyph-name="onequarter" unicode="&#xbc;" horiz-adv-x="1103" 
d="M41 596l102 571l-112 -20l24 141l303 64l-133 -756h-184zM958 1337h129l-1013 -1339h-129zM1016 741l-82 -467h57l-20 -114h-58l-28 -160h-183l29 160h-239l4 24l338 557h182zM633 274h119l49 279z" />
    <glyph glyph-name="onehalf" unicode="&#xbd;" horiz-adv-x="1212" 
d="M41 596l102 571l-112 -20l24 141l303 64l-133 -756h-184zM979 1337h129l-1014 -1339h-129zM1141 551q-18 -106 -96.5 -199t-213.5 -188h248l-30 -164h-398l29 164q115 80 178.5 156t79.5 172q21 120 -74 120q-44 0 -94 -26l12 133q76 35 181 35q106 0 151.5 -51
t26.5 -152z" />
    <glyph glyph-name="threequarters" unicode="&#xbe;" horiz-adv-x="1167" 
d="M406 827q-25 -132 -94 -187.5t-210 -55.5q-96 0 -168 34l37 117q43 -18 78 -18q80 0 118 28t50 95q9 49 -13.5 70.5t-84.5 21.5h-58l17 104h41q62 0 92 23.5t39 77.5q8 43 -15.5 61.5t-87.5 18.5q-40 0 -92 -19l13 119q90 33 188 33q118 0 161.5 -37t28.5 -123
q-13 -79 -54 -126.5t-101 -53.5v-2q69 0 99 -47.5t16 -133.5zM1040 1337h131l-1013 -1339h-129zM1077 741l-82 -467h58l-21 -114h-57l-29 -160h-182l29 160h-240l4 24l338 557h182zM694 274h119l49 279z" />
    <glyph glyph-name="questiondown" unicode="&#xbf;" horiz-adv-x="845" 
d="M340 770l45 254h238l-45 -254h-238zM246 -332q-174 0 -244.5 71t-44.5 220q12 68 35.5 123t52 92t61 69.5t64.5 63t60 64t50.5 81.5t32.5 107l15 84h219l-15 -84q-16 -95 -49.5 -164t-71 -111.5t-75.5 -83.5t-70.5 -105t-48.5 -152q-12 -68 1 -97.5t56 -29.5
q52 0 80.5 35.5t42.5 117.5l17 94h241l-16 -96q-26 -152 -123.5 -225.5t-269.5 -73.5z" />
    <glyph glyph-name="Agrave" unicode="&#xc0;" horiz-adv-x="925" 
d="M762 1454h-248l-188 293h319zM508 0l-10 297h-291l-113 -297h-190l540 1337h289l55 -1337h-280zM270 465h224l-19 539z" />
    <glyph glyph-name="Aacute" unicode="&#xc1;" horiz-adv-x="925" 
d="M1028 1747l-309 -293h-236l232 293h313zM733 1337l55 -1337h-280l-10 297h-291l-113 -297h-190l540 1337h289zM270 465h224l-19 539z" />
    <glyph glyph-name="Acircumflex" unicode="&#xc2;" horiz-adv-x="925" 
d="M651 1577l-92 -125h-289l244 295h332l141 -295h-289zM733 1337l55 -1337h-280l-10 297h-291l-113 -297h-190l540 1337h289zM270 465h224l-19 539z" />
    <glyph glyph-name="Atilde" unicode="&#xc3;" horiz-adv-x="925" 
d="M840 1747h196q-40 -133 -119.5 -213t-171.5 -80q-39 0 -73 17.5t-61.5 35t-51.5 17.5q-28 0 -52.5 -19t-37.5 -51h-201q40 134 120.5 213.5t178.5 79.5q42 0 76.5 -18t60.5 -36t48 -18q27 0 51.5 20t36.5 52zM733 1337l55 -1337h-280l-10 297h-291l-113 -297h-190
l540 1337h289zM270 465h224l-19 539z" />
    <glyph glyph-name="Adieresis" unicode="&#xc4;" horiz-adv-x="925" 
d="M616 1702l-45 -248h-241l45 248h241zM729 1702h244l-45 -248h-244zM733 1337l55 -1337h-280l-10 297h-291l-113 -297h-190l540 1337h289zM270 465h224l-19 539z" />
    <glyph glyph-name="Aring" unicode="&#xc5;" horiz-adv-x="925" 
d="M809 1475q-15 -83 -86 -138h10l55 -1337h-280l-10 297h-291l-113 -297h-190l540 1337h19q-52 52 -37 138q15 80 80.5 131t142.5 51q76 0 124.5 -51.5t35.5 -130.5zM547 1473q-5 -30 11.5 -51t45.5 -21q30 0 53.5 21t28.5 51t-11.5 50.5t-45.5 20.5t-53.5 -21t-28.5 -50z
M270 465h224l-19 539z" />
    <glyph glyph-name="AE" unicode="&#xc6;" horiz-adv-x="1339" 
d="M1315 1169h-348l-68 -383h320l-29 -168h-322l-80 -450h365l-29 -168h-647l58 317h-285l-133 -317h-213l600 1337h842zM311 465h248l125 704h-80z" />
    <glyph glyph-name="Ccedilla" unicode="&#xc7;" horiz-adv-x="782" 
d="M657 1358q49 0 197 -29l-61 -278l-152 127q-90 0 -154 -122t-110 -380q-46 -267 -25 -392.5t113 -125.5q67 0 145 37v-175q-84 -32 -182 -38l-39 -72q122 -14 159 -57t25 -113q-11 -61 -53 -107t-107 -72t-139.5 -38.5t-162.5 -14.5l-2 113q53 4 91 11t71 19.5t51.5 34
t23.5 52.5t-25 54.5t-124 37.5l96 156q-169 28 -221.5 196.5t6.5 493.5q63 352 203 517t376 165z" />
    <glyph glyph-name="Egrave" unicode="&#xc8;" horiz-adv-x="843" 
d="M680 1454h-248l-188 293h319zM819 1169h-348l-68 -383h320l-29 -168h-321l-80 -450h364l-28 -168h-647l237 1337h631z" />
    <glyph glyph-name="Eacute" unicode="&#xc9;" horiz-adv-x="843" 
d="M946 1747l-309 -293h-236l232 293h313zM850 1337l-31 -168h-348l-68 -383h320l-29 -168h-321l-80 -450h364l-28 -168h-647l237 1337h631z" />
    <glyph glyph-name="Ecircumflex" unicode="&#xca;" horiz-adv-x="843" 
d="M569 1577l-92 -125h-289l244 295h332l141 -295h-289zM850 1337l-31 -168h-348l-68 -383h320l-29 -168h-321l-80 -450h364l-28 -168h-647l237 1337h631z" />
    <glyph glyph-name="Edieresis" unicode="&#xcb;" horiz-adv-x="843" 
d="M535 1702l-46 -248h-241l45 248h242zM891 1702l-45 -248h-244l45 248h244zM850 1337l-31 -168h-348l-68 -383h320l-29 -168h-321l-80 -450h364l-28 -168h-647l237 1337h631z" />
    <glyph glyph-name="Igrave" unicode="&#xcc;" horiz-adv-x="479" 
d="M266 1454l-188 293h319l117 -293h-248zM-18 0l237 1337h281l-236 -1337h-282z" />
    <glyph glyph-name="Iacute" unicode="&#xcd;" horiz-adv-x="479" 
d="M236 1454l231 293h313l-309 -293h-235zM-18 0l237 1337h281l-236 -1337h-282z" />
    <glyph glyph-name="Icircumflex" unicode="&#xce;" horiz-adv-x="479" 
d="M403 1577l-92 -125h-288l243 295h332l141 -295h-288zM-18 0l237 1337h281l-236 -1337h-282z" />
    <glyph glyph-name="Idieresis" unicode="&#xcf;" horiz-adv-x="479" 
d="M82 1454l45 248h242l-45 -248h-242zM436 1454l45 248h244l-45 -248h-244zM-18 0l237 1337h281l-236 -1337h-282z" />
    <glyph glyph-name="Eth" unicode="&#xd0;" horiz-adv-x="980" 
d="M578 1337q232 0 312.5 -158.5t20.5 -498.5q-63 -350 -201 -515t-368 -165h-360l106 604h-59l30 172h60l100 561h359zM612 672q43 256 22.5 376.5t-108.5 120.5h-55l-70 -393h146l-31 -172h-145l-78 -436h57q89 0 152.5 122t109.5 382z" />
    <glyph glyph-name="Ntilde" unicode="&#xd1;" horiz-adv-x="993" 
d="M594 1524q-28 0 -52.5 -19t-37.5 -51h-201q40 134 120.5 213.5t178.5 79.5q42 0 76.5 -18t60 -36t47.5 -18q27 0 51.5 20t36.5 52h197q-40 -133 -119.5 -213t-171.5 -80q-39 0 -73 17.5t-61.5 35t-51.5 17.5zM698 524l144 813h172l-236 -1337h-213l-256 868l-153 -868
h-174l237 1337h252z" />
    <glyph glyph-name="Ograve" unicode="&#xd2;" horiz-adv-x="997" 
d="M528 1454l-188 293h319l117 -293h-248zM381 -20q-220 0 -293 167t-10 525q63 355 195 520.5t350 165.5t290.5 -165.5t10.5 -520.5q-61 -357 -193 -524.5t-350 -167.5zM414 158q63 0 114 124.5t97 389.5q47 262 39 385t-72 123q-65 0 -117 -123t-98 -385
q-47 -266 -38 -390t75 -124z" />
    <glyph glyph-name="Oacute" unicode="&#xd3;" horiz-adv-x="997" 
d="M498 1454l231 293h313l-309 -293h-235zM381 -20q-220 0 -293 167t-10 525q63 355 195 520.5t350 165.5t290.5 -165.5t10.5 -520.5q-61 -357 -193 -524.5t-350 -167.5zM414 158q63 0 114 124.5t97 389.5q47 262 39 385t-72 123q-65 0 -117 -123t-98 -385
q-47 -266 -38 -390t75 -124z" />
    <glyph glyph-name="Ocircumflex" unicode="&#xd4;" horiz-adv-x="997" 
d="M666 1577l-93 -125h-288l243 295h332l141 -295h-288zM623 1358q218 0 290.5 -165.5t10.5 -520.5q-61 -357 -193 -524.5t-350 -167.5q-220 0 -293 167t-10 525q63 355 195 520.5t350 165.5zM625 672q47 262 39 385t-72 123q-65 0 -117 -123t-98 -385q-47 -266 -38 -390
t75 -124q63 0 114 124.5t97 389.5z" />
    <glyph glyph-name="Otilde" unicode="&#xd5;" horiz-adv-x="997" 
d="M283 1454q40 134 120.5 213.5t178.5 79.5q42 0 76.5 -18t60 -36t47.5 -18q27 0 51.5 20t36.5 52h197q-40 -133 -119.5 -213t-171.5 -80q-39 0 -73.5 17.5t-62 35t-51.5 17.5q-28 0 -52.5 -19t-37.5 -51h-200zM381 -20q-220 0 -293 167t-10 525q63 355 195 520.5
t350 165.5t290.5 -165.5t10.5 -520.5q-61 -357 -193 -524.5t-350 -167.5zM414 158q63 0 114 124.5t97 389.5q47 262 39 385t-72 123q-65 0 -117 -123t-98 -385q-47 -266 -38 -390t75 -124z" />
    <glyph glyph-name="Odieresis" unicode="&#xd6;" horiz-adv-x="997" 
d="M344 1454l45 248h242l-45 -248h-242zM698 1454l45 248h244l-45 -248h-244zM381 -20q-220 0 -293 167t-10 525q63 355 195 520.5t350 165.5t290.5 -165.5t10.5 -520.5q-61 -357 -193 -524.5t-350 -167.5zM414 158q63 0 114 124.5t97 389.5q47 262 39 385t-72 123
q-65 0 -117 -123t-98 -385q-47 -266 -38 -390t75 -124z" />
    <glyph glyph-name="multiply" unicode="&#xd7;" horiz-adv-x="782" 
d="M727 694l-201 -178l138 -174l-193 -162l-133 170l-195 -172l-135 160l201 176l-141 180l192 162l137 -176l197 172z" />
    <glyph glyph-name="Oslash" unicode="&#xd8;" horiz-adv-x="997" 
d="M1059 1337l-135 -174q56 -162 0 -491q-61 -357 -193 -524.5t-350 -167.5q-194 0 -272 129l-86 -111h-91l144 184q-54 165 2 490q63 355 195 520.5t350 165.5q189 0 268 -123l80 102h88zM377 672q-11 -61 -21 -127l306 395q20 240 -70 240q-65 0 -117 -123t-98 -385z
M625 672q18 106 22 133l-307 -395q-18 -252 74 -252q63 0 114 124.5t97 389.5z" />
    <glyph glyph-name="Ugrave" unicode="&#xd9;" horiz-adv-x="950" 
d="M526 1454l-188 293h319l117 -293h-248zM383 -20q-200 0 -288.5 110.5t-51.5 312.5l166 934h280l-165 -936q-20 -109 8 -176t114 -67q80 0 129.5 66t69.5 177l164 936h174l-166 -940q-36 -199 -146 -308t-288 -109z" />
    <glyph glyph-name="Uacute" unicode="&#xda;" horiz-adv-x="950" 
d="M496 1454l231 293h313l-309 -293h-235zM383 -20q-200 0 -288.5 110.5t-51.5 312.5l166 934h280l-165 -936q-20 -109 8 -176t114 -67q80 0 129.5 66t69.5 177l164 936h174l-166 -940q-36 -199 -146 -308t-288 -109z" />
    <glyph glyph-name="Ucircumflex" unicode="&#xdb;" horiz-adv-x="950" 
d="M664 1577l-93 -125h-288l243 295h332l141 -295h-288zM645 401l164 936h174l-166 -940q-36 -199 -146 -308t-288 -109q-200 0 -288.5 110.5t-51.5 312.5l166 934h280l-165 -936q-20 -109 8 -176t114 -67q80 0 129.5 66t69.5 177z" />
    <glyph glyph-name="Udieresis" unicode="&#xdc;" horiz-adv-x="950" 
d="M342 1454l45 248h242l-45 -248h-242zM696 1454l45 248h244l-45 -248h-244zM383 -20q-200 0 -288.5 110.5t-51.5 312.5l166 934h280l-165 -936q-20 -109 8 -176t114 -67q80 0 129.5 66t69.5 177l164 936h174l-166 -940q-36 -199 -146 -308t-288 -109z" />
    <glyph glyph-name="Yacute" unicode="&#xdd;" horiz-adv-x="911" 
d="M1022 1747l-309 -293h-236l232 293h313zM545 774l278 563h189l-424 -825l-90 -512h-281l90 512l-166 825h293z" />
    <glyph glyph-name="Thorn" unicode="&#xde;" horiz-adv-x="933" 
d="M541 1085q209 0 290.5 -90t47.5 -284q-38 -218 -154.5 -320t-325.5 -102h-84l-51 -289h-282l237 1337h281l-45 -252h86zM584 711q19 107 -5.5 157t-93.5 50h-59l-82 -461h59q69 0 113.5 62t67.5 192z" />
    <glyph glyph-name="germandbls" unicode="&#xdf;" horiz-adv-x="886" 
d="M-35 0l187 1044q31 175 128 256.5t277 81.5h25q182 0 253 -76t42 -239q-23 -126 -72.5 -199t-132.5 -104q92 -13 122.5 -94.5t2.5 -241.5q-40 -221 -138.5 -324.5t-267.5 -103.5h-78l31 172h29q57 0 94.5 59t62.5 187q21 128 3.5 187t-76.5 59h-31l27 151h22
q52 0 85.5 51t53.5 162q15 93 -2 135.5t-69 42.5h-4q-57 0 -87.5 -33t-41.5 -104l-189 -1069h-256z" />
    <glyph glyph-name="agrave" unicode="&#xe0;" horiz-adv-x="847" 
d="M639 1169h-225l-209 285h309zM606 1024h225l-180 -1024h-225l27 150q-63 -88 -129 -129t-144 -41q-130 0 -167 130t14 410q47 270 133.5 397t222.5 127q147 0 195 -178zM319 156q54 0 94 86.5t74 273.5q32 182 21.5 266t-66.5 84q-46 0 -82 -82.5t-67 -257.5
q-35 -192 -29 -281t55 -89z" />
    <glyph glyph-name="aacute" unicode="&#xe1;" horiz-adv-x="847" 
d="M874 1454l-305 -285h-204l202 285h307zM578 866l28 158h225l-180 -1024h-225l27 150q-63 -88 -129 -129t-144 -41q-130 0 -167 130t14 410q47 270 133.5 397t222.5 127q147 0 195 -178zM319 156q54 0 94 86.5t74 273.5q32 182 21.5 266t-66.5 84q-46 0 -82 -82.5
t-67 -257.5q-35 -192 -29 -281t55 -89z" />
    <glyph glyph-name="acircumflex" unicode="&#xe2;" horiz-adv-x="847" 
d="M522 1337l-108 -168h-244l209 285h326l110 -285h-244zM606 1024h225l-180 -1024h-225l27 150q-63 -88 -129 -129t-144 -41q-130 0 -167 130t14 410q47 270 133.5 397t222.5 127q147 0 195 -178zM319 156q54 0 94 86.5t74 273.5q32 182 21.5 266t-66.5 84q-46 0 -82 -82.5
t-67 -257.5q-35 -192 -29 -281t55 -89z" />
    <glyph glyph-name="atilde" unicode="&#xe3;" horiz-adv-x="847" 
d="M432 1235q-44 0 -70 -66h-184q40 131 109.5 208t148.5 77q30 0 56.5 -9.5t42 -21t33.5 -21t34 -9.5q21 0 40.5 16t29.5 43h186q-43 -130 -112.5 -206.5t-145.5 -76.5q-44 0 -95 33t-73 33zM578 866l28 158h225l-180 -1024h-225l27 150q-63 -88 -129 -129t-144 -41
q-130 0 -167 130t14 410q47 270 133.5 397t222.5 127q147 0 195 -178zM319 156q54 0 94 86.5t74 273.5q32 182 21.5 266t-66.5 84q-46 0 -82 -82.5t-67 -257.5q-35 -192 -29 -281t55 -89z" />
    <glyph glyph-name="adieresis" unicode="&#xe4;" horiz-adv-x="847" 
d="M479 1413l-43 -244h-229l43 244h229zM825 1413l-43 -244h-229l43 244h229zM606 1024h225l-180 -1024h-225l27 150q-63 -88 -129 -129t-144 -41q-130 0 -167 130t14 410q47 270 133.5 397t222.5 127q147 0 195 -178zM319 156q54 0 94 86.5t74 273.5q32 182 21.5 266
t-66.5 84q-46 0 -82 -82.5t-67 -257.5q-35 -192 -29 -281t55 -89z" />
    <glyph glyph-name="aring" unicode="&#xe5;" horiz-adv-x="847" 
d="M494 1169q-98 0 -152 58t-39 149q17 88 90.5 145.5t171.5 57.5t152 -57.5t37 -145.5q-15 -91 -88.5 -149t-171.5 -58zM455 1374q-5 -33 12 -54.5t49 -21.5t56.5 22t29.5 54q6 32 -11.5 54t-49.5 22q-31 0 -55.5 -22t-30.5 -54zM606 1024h225l-180 -1024h-225l27 150
q-63 -88 -129 -129t-144 -41q-130 0 -167 130t14 410q47 270 133.5 397t222.5 127q147 0 195 -178zM319 156q54 0 94 86.5t74 273.5q32 182 21.5 266t-66.5 84q-46 0 -82 -82.5t-67 -257.5q-35 -192 -29 -281t55 -89z" />
    <glyph glyph-name="ae" unicode="&#xe6;" horiz-adv-x="1239" 
d="M915 1044q186 0 251 -126t18 -394q-2 -11 -13 -49h-444q-26 -170 4.5 -251t120.5 -81t209 58v-154q-131 -67 -281 -67q-141 0 -221.5 57.5t-103.5 177.5q-75 -121 -151 -178t-161 -57q-107 0 -145 73.5t-10 229.5q28 154 105.5 242t213.5 120l182 45l11 60
q12 68 -8.5 99.5t-75.5 31.5q-91 0 -256 -52l-6 160q204 55 358 55q133 0 195 -53q89 53 208 53zM750 610h180l2 6q48 267 -39 267q-49 0 -82.5 -65.5t-60.5 -207.5zM293 174q43 0 84 56t51 114l41 227l-68 -18q-60 -17 -95 -69t-54 -148q-14 -83 -4 -122.5t45 -39.5z
M449 260v2v-2z" />
    <glyph glyph-name="ccedilla" unicode="&#xe7;" horiz-adv-x="681" 
d="M522 1044q68 0 168 -20l-55 -262l-121 121q-82 0 -135.5 -89t-87.5 -278q-34 -192 -10.5 -282.5t106.5 -90.5q61 0 123 27v-158q-88 -32 -199 -32l-37 -70q122 -14 159.5 -57t25.5 -113q-11 -61 -53 -107t-107 -72t-140 -38.5t-163 -14.5l-2 113q53 4 91 11t71 19.5
t51.5 34t23.5 52.5t-25 54.5t-124 37.5l102 164q-122 37 -160.5 165t1.5 357q49 273 169.5 400.5t327.5 127.5z" />
    <glyph glyph-name="egrave" unicode="&#xe8;" horiz-adv-x="815" 
d="M670 1169h-226l-208 285h309zM475 1044q186 0 250.5 -125.5t17.5 -394.5q-2 -17 -12 -49h-444q-26 -170 4.5 -251t120.5 -81t209 58v-154q-131 -67 -281 -67q-212 0 -288 130t-25 408q47 272 155.5 399t292.5 127zM309 610h180l3 6q48 267 -39 267q-49 0 -83 -66
t-61 -207z" />
    <glyph glyph-name="eacute" unicode="&#xe9;" horiz-adv-x="815" 
d="M905 1454l-305 -285h-205l203 285h307zM475 1044q186 0 250.5 -125.5t17.5 -394.5q-2 -17 -12 -49h-444q-26 -170 4.5 -251t120.5 -81t209 58v-154q-131 -67 -281 -67q-212 0 -288 130t-25 408q47 272 155.5 399t292.5 127zM309 610h180l3 6q48 267 -39 267
q-49 0 -83 -66t-61 -207z" />
    <glyph glyph-name="ecircumflex" unicode="&#xea;" horiz-adv-x="815" 
d="M553 1337l-109 -168h-243l209 285h325l111 -285h-244zM475 1044q186 0 250.5 -125.5t17.5 -394.5q-2 -17 -12 -49h-444q-26 -170 4.5 -251t120.5 -81t209 58v-154q-131 -67 -281 -67q-212 0 -288 130t-25 408q47 272 155.5 399t292.5 127zM309 610h180l3 6
q48 267 -39 267q-49 0 -83 -66t-61 -207z" />
    <glyph glyph-name="edieresis" unicode="&#xeb;" horiz-adv-x="815" 
d="M510 1413l-43 -244h-229l43 244h229zM627 1413h229l-43 -244h-229zM475 1044q186 0 250.5 -125.5t17.5 -394.5q-2 -17 -12 -49h-444q-26 -170 4.5 -251t120.5 -81t209 58v-154q-131 -67 -281 -67q-212 0 -288 130t-25 408q47 272 155.5 399t292.5 127zM309 610h180l3 6
q48 267 -39 267q-49 0 -83 -66t-61 -207z" />
    <glyph glyph-name="igrave" unicode="&#xec;" horiz-adv-x="417" 
d="M221 1169l-209 285h310l124 -285h-225zM-35 0l182 1024h254l-180 -1024h-256z" />
    <glyph glyph-name="iacute" unicode="&#xed;" horiz-adv-x="417" 
d="M172 1169l203 285h307l-305 -285h-205zM-35 0l182 1024h254l-180 -1024h-256z" />
    <glyph glyph-name="icircumflex" unicode="&#xee;" horiz-adv-x="417" 
d="M330 1337l-109 -168h-244l209 285h326l111 -285h-244zM-35 0l182 1024h254l-180 -1024h-256z" />
    <glyph glyph-name="idieresis" unicode="&#xef;" horiz-adv-x="417" 
d="M14 1169l43 244h230l-43 -244h-230zM360 1169l43 244h230l-43 -244h-230zM-35 0l182 1024h254l-180 -1024h-256z" />
    <glyph glyph-name="eth" unicode="&#xf0;" horiz-adv-x="864" 
d="M864 1290l-104 -76q124 -182 45 -624q-55 -315 -177.5 -462.5t-326.5 -147.5q-194 0 -262 121t-21 380q38 217 125.5 318.5t235.5 101.5q115 0 176 -67q16 147 -4 227l-135 -98l-56 86l144 104q-47 47 -133 47q-53 0 -144 -26l2 151q98 33 203 33q161 0 256 -68l119 86z
M498 449q26 148 13 217t-67 69q-51 0 -87 -69t-62 -217q-29 -155 -16.5 -228.5t67.5 -73.5q51 0 87.5 73t64.5 229z" />
    <glyph glyph-name="ntilde" unicode="&#xf1;" horiz-adv-x="835" 
d="M473 1235q-44 0 -70 -66h-184q40 131 109.5 208t148.5 77q30 0 56.5 -9.5t42 -21t33.5 -21t34 -9.5q21 0 40.5 16t29.5 43h186q-43 -130 -112.5 -206.5t-145.5 -76.5q-44 0 -95 33t-73 33zM621 1044q109 0 147 -69.5t12 -220.5l-133 -754h-254l121 686q15 94 5 137
t-48 43q-51 0 -83.5 -47.5t-51.5 -150.5h-2l-117 -668h-252l180 1024l256 20l-22 -131q85 131 242 131z" />
    <glyph glyph-name="ograve" unicode="&#xf2;" horiz-adv-x="831" 
d="M432 1169l-209 285h309l125 -285h-225zM297 -20q-189 0 -255 128.5t-17 403.5q47 275 158 403.5t302 128.5q188 0 254 -128.5t19 -403.5q-49 -275 -160.5 -403.5t-300.5 -128.5zM326 143q51 0 90 90t73 283q35 189 27.5 278t-59.5 89t-92 -88.5t-74 -278.5
q-66 -373 35 -373z" />
    <glyph glyph-name="oacute" unicode="&#xf3;" horiz-adv-x="831" 
d="M383 1169l203 285h307l-305 -285h-205zM297 -20q-189 0 -255 128.5t-17 403.5q47 275 158 403.5t302 128.5q188 0 254 -128.5t19 -403.5q-49 -275 -160.5 -403.5t-300.5 -128.5zM326 143q51 0 90 90t73 283q35 189 27.5 278t-59.5 89t-92 -88.5t-74 -278.5
q-66 -373 35 -373z" />
    <glyph glyph-name="ocircumflex" unicode="&#xf4;" horiz-adv-x="831" 
d="M541 1337l-109 -168h-244l209 285h326l111 -285h-244zM485 1044q188 0 254 -128.5t19 -403.5q-49 -275 -160.5 -403.5t-300.5 -128.5t-255 128.5t-17 403.5q47 275 158 403.5t302 128.5zM489 516q35 189 27.5 278t-59.5 89t-92 -88.5t-74 -278.5q-66 -373 35 -373
q51 0 90 90t73 283z" />
    <glyph glyph-name="otilde" unicode="&#xf5;" horiz-adv-x="831" 
d="M618 1169q-44 0 -94.5 33t-72.5 33q-44 0 -70 -66h-184q40 131 109.5 208t148.5 77q30 0 56.5 -9.5t42 -21t33.5 -21t34 -9.5q21 0 40 16t29 43h187q-43 -129 -113 -206t-146 -77zM297 -20q-189 0 -255 128.5t-17 403.5q47 275 158 403.5t302 128.5q188 0 254 -128.5
t19 -403.5q-49 -275 -160.5 -403.5t-300.5 -128.5zM326 143q51 0 90 90t73 283q35 189 27.5 278t-59.5 89t-92 -88.5t-74 -278.5q-66 -373 35 -373z" />
    <glyph glyph-name="odieresis" unicode="&#xf6;" horiz-adv-x="831" 
d="M225 1169l43 244h230l-43 -244h-230zM571 1169l43 244h230l-43 -244h-230zM297 -20q-189 0 -255 128.5t-17 403.5q47 275 158 403.5t302 128.5q188 0 254 -128.5t19 -403.5q-49 -275 -160.5 -403.5t-300.5 -128.5zM326 143q51 0 90 90t73 283q35 189 27.5 278t-59.5 89
t-92 -88.5t-74 -278.5q-66 -373 35 -373z" />
    <glyph glyph-name="divide" unicode="&#xf7;" horiz-adv-x="831" 
d="M299 754l47 270h258l-47 -270h-258zM29 438l26 148h697l-27 -148h-696zM164 0l49 270h258l-49 -270h-258z" />
    <glyph glyph-name="oslash" unicode="&#xf8;" horiz-adv-x="831" 
d="M856 1024l-108 -127q54 -128 10 -385q-49 -275 -160.5 -403.5t-300.5 -128.5q-169 0 -238 100l-67 -80h-66l107 127q-55 130 -8 385q47 275 158 403.5t302 128.5q167 0 236 -100l67 80h68zM291 516q-2 -10 -8.5 -47t-8.5 -55l242 286q15 183 -59 183q-52 0 -92 -88.5
t-74 -278.5zM489 516q1 6 8 40.5t9 51.5l-240 -282q-12 -183 60 -183q51 0 90 90t73 283z" />
    <glyph glyph-name="ugrave" unicode="&#xf9;" horiz-adv-x="833" 
d="M649 1169h-225l-209 285h309zM565 1024h252l-180 -1024l-256 -20l22 131q-86 -131 -241 -131q-111 0 -149 70t-9 220l131 754h254l-121 -688q-17 -94 -7 -137t48 -43q52 0 85 47.5t52 150.5z" />
    <glyph glyph-name="uacute" unicode="&#xfa;" horiz-adv-x="833" 
d="M885 1454l-305 -285h-205l203 285h307zM446 354l119 670h252l-180 -1024l-256 -20l22 131q-86 -131 -241 -131q-111 0 -149 70t-9 220l131 754h254l-121 -688q-17 -94 -7 -137t48 -43q52 0 85 47.5t52 150.5z" />
    <glyph glyph-name="ucircumflex" unicode="&#xfb;" horiz-adv-x="833" 
d="M532 1337l-108 -168h-244l209 285h326l110 -285h-243zM446 354l119 670h252l-180 -1024l-256 -20l22 131q-86 -131 -241 -131q-111 0 -149 70t-9 220l131 754h254l-121 -688q-17 -94 -7 -137t48 -43q52 0 85 47.5t52 150.5z" />
    <glyph glyph-name="udieresis" unicode="&#xfc;" horiz-adv-x="833" 
d="M489 1413l-43 -244h-229l43 244h229zM836 1413l-43 -244h-230l43 244h230zM446 354l119 670h252l-180 -1024l-256 -20l22 131q-86 -131 -241 -131q-111 0 -149 70t-9 220l131 754h254l-121 -688q-17 -94 -7 -137t48 -43q52 0 85 47.5t52 150.5z" />
    <glyph glyph-name="yacute" unicode="&#xfd;" horiz-adv-x="722" 
d="M860 1454l-305 -285h-205l203 285h307zM352 365l271 659h157l-594 -1413h-153l162 389h-68l-55 1024h272z" />
    <glyph glyph-name="thorn" unicode="&#xfe;" horiz-adv-x="835" 
d="M600 1044q132 0 171.5 -131.5t-11.5 -414.5q-46 -267 -126 -392.5t-206 -125.5q-127 0 -190 126l-88 -495h-254l317 1792l256 18l-86 -491q89 114 217 114zM496 498q68 372 -25 372q-52 0 -91 -86.5t-71 -273.5q-34 -186 -24.5 -273t63.5 -87q46 0 81.5 84t66.5 264z" />
    <glyph glyph-name="ydieresis" unicode="&#xff;" horiz-adv-x="722" 
d="M465 1413l-43 -244h-229l43 244h229zM811 1413l-43 -244h-229l43 244h229zM352 365l271 659h157l-594 -1413h-153l162 389h-68l-55 1024h272z" />
    <glyph glyph-name="Amacron" unicode="&#x100;" horiz-adv-x="925" 
d="M385 1632h555l-33 -178h-555zM733 1337l55 -1337h-280l-10 297h-291l-113 -297h-190l540 1337h289zM270 465h224l-19 539z" />
    <glyph glyph-name="amacron" unicode="&#x101;" horiz-adv-x="847" 
d="M772 1360l-33 -191h-491l33 191h491zM606 1024h225l-180 -1024h-225l27 150q-63 -88 -129 -129t-144 -41q-130 0 -167 130t14 410q47 270 133.5 397t222.5 127q147 0 195 -178zM319 156q54 0 94 86.5t74 273.5q32 182 21.5 266t-66.5 84q-46 0 -82 -82.5t-67 -257.5
q-35 -192 -29 -281t55 -89z" />
    <glyph glyph-name="Abreve" unicode="&#x102;" horiz-adv-x="925" 
d="M764 1747h256q-31 -134 -139 -213.5t-260 -79.5q-146 0 -222 79.5t-59 213.5h256q-4 -44 14.5 -70t55.5 -26q31 0 58 26t40 70zM733 1337l55 -1337h-280l-10 297h-291l-113 -297h-190l540 1337h289zM270 465h224l-19 539z" />
    <glyph glyph-name="abreve" unicode="&#x103;" horiz-adv-x="847" 
d="M485 1169q-140 0 -212.5 77.5t-55.5 207.5h254q-5 -43 10.5 -68.5t46.5 -25.5q25 0 48 25.5t38 68.5h250q-29 -131 -131.5 -208t-247.5 -77zM578 866l28 158h225l-180 -1024h-225l27 150q-63 -88 -129 -129t-144 -41q-130 0 -167 130t14 410q47 270 133.5 397t222.5 127
q147 0 195 -178zM319 156q54 0 94 86.5t74 273.5q32 182 21.5 266t-66.5 84q-46 0 -82 -82.5t-67 -257.5q-35 -192 -29 -281t55 -89z" />
    <glyph glyph-name="Aogonek" unicode="&#x104;" horiz-adv-x="925" 
d="M526 -229q-5 -34 14 -57t60 -23q44 0 84 16l-2 -145q-74 -29 -178 -29q-101 0 -149.5 38t-35.5 116q12 70 87.5 166t158.5 147h-57l-10 297h-291l-113 -297h-190l540 1337h289l55 -1337h-73q-170 -128 -189 -229zM270 465h224l-19 539z" />
    <glyph glyph-name="aogonek" unicode="&#x105;" horiz-adv-x="847" 
d="M625 0q-170 -128 -189 -229q-5 -34 14 -57t60 -23q44 0 84 16l-2 -145q-74 -29 -178 -29q-101 0 -149.5 38t-35.5 116q12 70 87.5 166t158.5 147h-49l27 150q-63 -88 -129 -129t-144 -41q-130 0 -167 130t14 410q47 270 133.5 397t222.5 127q147 0 195 -178l28 158h225
l-180 -1024h-26zM319 156q54 0 94 86.5t74 273.5q32 182 21.5 266t-66.5 84q-46 0 -82 -82.5t-67 -257.5q-35 -192 -29 -281t55 -89z" />
    <glyph glyph-name="Cacute" unicode="&#x106;" horiz-adv-x="782" 
d="M434 1454l232 293h313l-309 -293h-236zM367 -20q-214 0 -284 168.5t-5 527.5q63 352 203 517t376 165q49 0 197 -29l-61 -278l-152 127q-90 0 -154 -122t-110 -380q-46 -267 -25 -392.5t113 -125.5q67 0 145 37v-175q-110 -40 -243 -40z" />
    <glyph glyph-name="cacute" unicode="&#x107;" horiz-adv-x="681" 
d="M330 1169l202 285h308l-305 -285h-205zM303 -20q-193 0 -260.5 129.5t-17.5 406.5q49 273 169.5 400.5t327.5 127.5q68 0 168 -20l-55 -262l-121 121q-82 0 -135.5 -89t-87.5 -278q-34 -192 -10.5 -282.5t106.5 -90.5q61 0 123 27v-158q-92 -32 -207 -32z" />
    <glyph glyph-name="Ccircumflex" unicode="&#x108;" horiz-adv-x="782" 
d="M602 1577l-92 -125h-289l244 295h332l141 -295h-289zM78 676q63 352 203 517t376 165q49 0 197 -29l-61 -278l-152 127q-90 0 -154 -122t-110 -380q-46 -267 -25 -392.5t113 -125.5q67 0 145 37v-175q-110 -40 -243 -40q-214 0 -284 168.5t-5 527.5z" />
    <glyph glyph-name="ccircumflex" unicode="&#x109;" horiz-adv-x="681" 
d="M487 1337l-108 -168h-244l209 285h326l110 -285h-243zM25 516q49 273 169.5 400.5t327.5 127.5q68 0 168 -20l-55 -262l-121 121q-82 0 -135.5 -89t-87.5 -278q-34 -192 -10.5 -282.5t106.5 -90.5q61 0 123 27v-158q-92 -32 -207 -32q-193 0 -260.5 129.5t-17.5 406.5z
" />
    <glyph glyph-name="Cdotaccent" unicode="&#x10a;" horiz-adv-x="782" 
d="M451 1454l47 262h260l-47 -262h-260zM367 -20q-214 0 -284 168.5t-5 527.5q63 352 203 517t376 165q49 0 197 -29l-61 -278l-152 127q-90 0 -154 -122t-110 -380q-46 -267 -25 -392.5t113 -125.5q67 0 145 37v-175q-110 -40 -243 -40z" />
    <glyph glyph-name="cdotaccent" unicode="&#x10b;" horiz-adv-x="681" 
d="M324 1169l45 263h260l-45 -263h-260zM303 -20q-193 0 -260.5 129.5t-17.5 406.5q49 273 169.5 400.5t327.5 127.5q68 0 168 -20l-55 -262l-121 121q-82 0 -135.5 -89t-87.5 -278q-34 -192 -10.5 -282.5t106.5 -90.5q61 0 123 27v-158q-92 -32 -207 -32z" />
    <glyph glyph-name="Ccaron" unicode="&#x10c;" horiz-adv-x="782" 
d="M412 1454l-162 293h289l67 -143l119 143h287l-264 -293h-336zM78 676q63 352 203 517t376 165q49 0 197 -29l-61 -278l-152 127q-90 0 -154 -122t-110 -380q-46 -267 -25 -392.5t113 -125.5q67 0 145 37v-175q-110 -40 -243 -40q-214 0 -284 168.5t-5 527.5z" />
    <glyph glyph-name="ccaron" unicode="&#x10d;" horiz-adv-x="681" 
d="M330 1169l-140 285h240l51 -149l105 149h239l-237 -285h-258zM25 516q49 273 169.5 400.5t327.5 127.5q68 0 168 -20l-55 -262l-121 121q-82 0 -135.5 -89t-87.5 -278q-34 -192 -10.5 -282.5t106.5 -90.5q61 0 123 27v-158q-92 -32 -207 -32q-193 0 -260.5 129.5
t-17.5 406.5z" />
    <glyph glyph-name="Dcaron" unicode="&#x10e;" horiz-adv-x="985" 
d="M420 1454l-162 293h289l67 -143l119 143h287l-264 -293h-336zM578 1337q232 0 312.5 -158.5t20.5 -498.5q-63 -350 -201 -515t-368 -165h-360l237 1337h359zM612 672q43 256 22.5 376.5t-108.5 120.5h-55l-178 -1001h57q89 0 152.5 122t109.5 382z" />
    <glyph glyph-name="dcaron" unicode="&#x10f;" horiz-adv-x="1214" 
d="M647 1415h252l-248 -1415h-225l27 150q-119 -170 -273 -170q-130 0 -167 130t14 410q47 270 133.5 397t222.5 127q126 0 176 -124zM981 1376h313l-65 -372q-25 -140 -131 -219.5t-236 -79.5l29 159q57 0 102.5 36t55.5 95l10 58h-135zM319 156q54 0 94 86.5t74 273.5
q32 182 21.5 266t-66.5 84q-46 0 -82 -82.5t-67 -257.5q-35 -192 -29 -281t55 -89z" />
    <glyph glyph-name="Dcroat" unicode="&#x110;" horiz-adv-x="980" 
d="M578 1337q232 0 312.5 -158.5t20.5 -498.5q-63 -350 -201 -515t-368 -165h-360l106 604h-59l30 172h60l100 561h359zM612 672q43 256 22.5 376.5t-108.5 120.5h-55l-70 -393h146l-31 -172h-145l-78 -436h57q89 0 152.5 122t109.5 382z" />
    <glyph glyph-name="dcroat" unicode="&#x111;" horiz-adv-x="833" 
d="M928 1231l-17 -98h-61l-199 -1133h-225l27 150q-119 -170 -273 -170q-130 0 -167 130t14 410q47 270 133.5 397t222.5 127q126 0 176 -124l39 213h-272l18 98h270l33 184h252l-33 -184h62zM319 156q54 0 94 86.5t74 273.5q32 182 21.5 266t-66.5 84q-46 0 -82 -82.5
t-67 -257.5q-35 -192 -29 -281t55 -89z" />
    <glyph glyph-name="Emacron" unicode="&#x112;" horiz-adv-x="843" 
d="M858 1632l-33 -178h-555l33 178h555zM850 1337l-31 -168h-348l-68 -383h320l-29 -168h-321l-80 -450h364l-28 -168h-647l237 1337h631z" />
    <glyph glyph-name="emacron" unicode="&#x113;" horiz-adv-x="815" 
d="M311 1360h492l-33 -191h-491zM475 1044q186 0 250.5 -125.5t17.5 -394.5q-2 -17 -12 -49h-444q-26 -170 4.5 -251t120.5 -81t209 58v-154q-131 -67 -281 -67q-212 0 -288 130t-25 408q47 272 155.5 399t292.5 127zM309 610h180l3 6q48 267 -39 267q-49 0 -83 -66
t-61 -207z" />
    <glyph glyph-name="Ebreve" unicode="&#x114;" horiz-adv-x="843" 
d="M539 1454q-146 0 -222 79.5t-59 213.5h256q-4 -44 14.5 -70t55.5 -26q31 0 58 26t40 70h256q-31 -134 -139 -213.5t-260 -79.5zM850 1337l-31 -168h-348l-68 -383h320l-29 -168h-321l-80 -450h364l-28 -168h-647l237 1337h631z" />
    <glyph glyph-name="ebreve" unicode="&#x115;" horiz-adv-x="815" 
d="M645 1454h250q-29 -131 -131.5 -208t-247.5 -77q-140 0 -212.5 77.5t-55.5 207.5h254q-5 -43 10.5 -68.5t46.5 -25.5q25 0 48 25.5t38 68.5zM475 1044q186 0 250.5 -125.5t17.5 -394.5q-2 -17 -12 -49h-444q-26 -170 4.5 -251t120.5 -81t209 58v-154q-131 -67 -281 -67
q-212 0 -288 130t-25 408q47 272 155.5 399t292.5 127zM309 610h180l3 6q48 267 -39 267q-49 0 -83 -66t-61 -207z" />
    <glyph glyph-name="Edotaccent" unicode="&#x116;" horiz-adv-x="843" 
d="M725 1716l-47 -262h-260l47 262h260zM819 1169h-348l-68 -383h320l-29 -168h-321l-80 -450h364l-28 -168h-647l237 1337h631z" />
    <glyph glyph-name="edotaccent" unicode="&#x117;" horiz-adv-x="815" 
d="M694 1432l-45 -263h-260l45 263h260zM475 1044q186 0 250.5 -125.5t17.5 -394.5q-2 -17 -12 -49h-444q-26 -170 4.5 -251t120.5 -81t209 58v-154q-131 -67 -281 -67q-212 0 -288 130t-25 408q47 272 155.5 399t292.5 127zM309 610h180l3 6q48 267 -39 267q-49 0 -83 -66
t-61 -207z" />
    <glyph glyph-name="Eogonek" unicode="&#x118;" horiz-adv-x="843" 
d="M819 1169h-348l-68 -383h320l-29 -168h-321l-80 -450h364l-28 -168h-66q-169 -127 -188 -229q-5 -34 14 -57t60 -23q43 0 83 16l-2 -145q-74 -29 -178 -29q-101 0 -149 38t-35 116q12 70 87.5 166t158.5 147h-432l237 1337h631z" />
    <glyph glyph-name="eogonek" unicode="&#x119;" horiz-adv-x="815" 
d="M475 1044q186 0 250.5 -125.5t17.5 -394.5q-2 -17 -12 -49h-444q-26 -170 4.5 -251t120.5 -81t209 58v-154q-8 -5 -23.5 -12t-17.5 -8q-158 -121 -174 -217q-5 -34 13.5 -57t59.5 -23q44 0 84 16l-2 -145q-74 -29 -178 -29q-101 0 -149 38t-35 116q9 54 56.5 124.5
t111.5 129.5h-27q-212 0 -288 130t-25 408q47 272 155.5 399t292.5 127zM309 610h180l3 6q48 267 -39 267q-49 0 -83 -66t-61 -207z" />
    <glyph glyph-name="Ecaron" unicode="&#x11a;" horiz-adv-x="843" 
d="M379 1454l-162 293h289l67 -143l119 143h287l-264 -293h-336zM850 1337l-31 -168h-348l-68 -383h320l-29 -168h-321l-80 -450h364l-28 -168h-647l237 1337h631z" />
    <glyph glyph-name="ecaron" unicode="&#x11b;" horiz-adv-x="815" 
d="M395 1169l-139 285h240l51 -149l104 149h240l-238 -285h-258zM475 1044q186 0 250.5 -125.5t17.5 -394.5q-2 -17 -12 -49h-444q-26 -170 4.5 -251t120.5 -81t209 58v-154q-131 -67 -281 -67q-212 0 -288 130t-25 408q47 272 155.5 399t292.5 127zM309 610h180l3 6
q48 267 -39 267q-49 0 -83 -66t-61 -207z" />
    <glyph glyph-name="Gcircumflex" unicode="&#x11c;" horiz-adv-x="976" 
d="M680 1577l-92 -125h-289l244 295h331l142 -295h-289zM76 668q63 356 227 523t451 167q103 0 215 -31l-33 -178q-91 31 -184 31q-149 0 -241 -124t-138 -386q-46 -264 -12.5 -388t151.5 -124q35 0 51 2l72 411h-148l29 168h385l-121 -696q-141 -63 -307 -63
q-269 0 -365 166.5t-32 521.5z" />
    <glyph glyph-name="gcircumflex" unicode="&#x11d;" horiz-adv-x="849" 
d="M569 1337l-108 -168h-244l209 285h326l110 -285h-244zM578 885l24 139l232 10l-179 -1018q-38 -220 -157 -323t-334 -103q-141 0 -242 39l62 174q91 -39 176 -39q101 0 158 54t79 170l21 118q-105 -126 -221 -126q-139 0 -181.5 125.5t7.5 392.5q49 282 139 414t231 132
q140 0 185 -159zM319 156q54 0 94 85t74 269q32 184 22.5 270t-63.5 86q-47 0 -85 -89t-72 -279q-31 -177 -24 -259.5t54 -82.5z" />
    <glyph glyph-name="Gbreve" unicode="&#x11e;" horiz-adv-x="976" 
d="M649 1454q-146 0 -221.5 79.5t-58.5 213.5h256q-5 -44 13.5 -70t55.5 -26q31 0 58.5 26t40.5 70h256q-31 -134 -139.5 -213.5t-260.5 -79.5zM76 668q63 356 227 523t451 167q103 0 215 -31l-33 -178q-91 31 -184 31q-149 0 -241 -124t-138 -386q-46 -264 -12.5 -388
t151.5 -124q35 0 51 2l72 411h-148l29 168h385l-121 -696q-141 -63 -307 -63q-269 0 -365 166.5t-32 521.5z" />
    <glyph glyph-name="gbreve" unicode="&#x11f;" horiz-adv-x="849" 
d="M532 1169q-140 0 -212.5 77.5t-55.5 207.5h254q-5 -43 10.5 -68.5t46.5 -25.5q25 0 48.5 25.5t38.5 68.5h249q-29 -131 -131.5 -208t-247.5 -77zM578 885l24 139l232 10l-179 -1018q-38 -220 -157 -323t-334 -103q-141 0 -242 39l62 174q91 -39 176 -39q101 0 158 54
t79 170l21 118q-105 -126 -221 -126q-139 0 -181.5 125.5t7.5 392.5q49 282 139 414t231 132q140 0 185 -159zM319 156q54 0 94 85t74 269q32 184 22.5 270t-63.5 86q-47 0 -85 -89t-72 -279q-31 -177 -24 -259.5t54 -82.5z" />
    <glyph glyph-name="Gdotaccent" unicode="&#x120;" horiz-adv-x="976" 
d="M836 1716l-48 -262h-260l47 262h261zM752 1180q-149 0 -241 -124t-138 -386q-46 -264 -12.5 -388t151.5 -124q35 0 51 2l72 411h-148l29 168h385l-121 -696q-141 -63 -307 -63q-269 0 -365 166.5t-32 521.5q63 356 227 523t451 167q103 0 215 -31l-33 -178
q-91 31 -184 31z" />
    <glyph glyph-name="gdotaccent" unicode="&#x121;" horiz-adv-x="849" 
d="M711 1432l-45 -263h-260l45 263h260zM602 1024l232 10l-179 -1018q-38 -220 -157 -323t-334 -103q-141 0 -242 39l62 174q91 -39 176 -39q101 0 158 54t79 170l21 118q-105 -126 -221 -126q-139 0 -181.5 125.5t7.5 392.5q49 282 139 414t231 132q140 0 185 -159z
M319 156q54 0 94 85t74 269q32 184 22.5 270t-63.5 86q-47 0 -85 -89t-72 -279q-31 -177 -24 -259.5t54 -82.5z" />
    <glyph glyph-name="uni0122" unicode="&#x122;" horiz-adv-x="976" 
d="M752 1180q-149 0 -241 -124t-138 -386q-46 -264 -12.5 -388t151.5 -124q35 0 51 2l72 411h-148l29 168h385l-121 -696q-141 -63 -307 -63q-269 0 -365 166.5t-32 521.5q63 356 227 523t451 167q103 0 215 -31l-33 -178q-91 31 -184 31zM268 -143h277l-33 -187l-25 -139
q-22 -122 -115.5 -192t-207.5 -70l24 141q49 0 90 31t50 82l8 49h-119z" />
    <glyph glyph-name="uni0123" unicode="&#x123;" horiz-adv-x="849" 
d="M696 1169h-313l37 211l29 162q25 140 130.5 219.5t235.5 79.5l-29 -160q-57 0 -102 -35.5t-55 -93.5l-11 -59h136zM602 1024l232 10l-179 -1018q-38 -220 -157 -323t-334 -103q-141 0 -242 39l62 174q91 -39 176 -39q101 0 158 54t79 170l21 118q-105 -126 -221 -126
q-139 0 -181.5 125.5t7.5 392.5q49 282 139 414t231 132q140 0 185 -159zM319 156q54 0 94 85t74 269q32 184 22.5 270t-63.5 86q-47 0 -85 -89t-72 -279q-31 -177 -24 -259.5t54 -82.5z" />
    <glyph glyph-name="Hcircumflex" unicode="&#x124;" horiz-adv-x="993" 
d="M686 1577l-92 -125h-289l244 295h332l141 -295h-289zM637 793l96 544h281l-236 -1337h-280l110 625h-233l-111 -625h-282l237 1337h281l-97 -544h234z" />
    <glyph glyph-name="hcircumflex" unicode="&#x125;" horiz-adv-x="835" 
d="M385 1657l-92 -125h-289l244 295h332l141 -295h-289zM621 1044q109 0 147 -69.5t12 -220.5l-133 -754h-254l121 686q15 94 5 137t-48 43q-51 0 -83.5 -47.5t-51.5 -150.5l-119 -668h-252l246 1395l256 20l-88 -502q85 131 242 131z" />
    <glyph glyph-name="Hbar" unicode="&#x126;" horiz-adv-x="993" 
d="M1071 1085l-18 -106h-103l-172 -979h-280l110 625h-233l-111 -625h-282l174 979h-93l19 106h92l45 252h281l-45 -252h233l45 252h281l-45 -252h102zM637 793l33 186h-234l-33 -186h234z" />
    <glyph glyph-name="hbar" unicode="&#x127;" horiz-adv-x="835" 
d="M621 1044q109 0 147 -69.5t12 -220.5l-133 -754h-254l121 686q15 94 5 137t-48 43q-51 0 -83.5 -47.5t-51.5 -150.5l-119 -668h-252l201 1137h-80l16 98h80l29 160l256 20l-33 -180h254l-16 -98h-254l-39 -224q85 131 242 131z" />
    <glyph glyph-name="Itilde" unicode="&#x128;" horiz-adv-x="479" 
d="M20 1454q40 134 120.5 213.5t178.5 79.5q42 0 76.5 -18t60.5 -36t48 -18q27 0 51.5 20t36.5 52h196q-40 -133 -119 -213t-171 -80q-39 0 -73.5 17.5t-62 35t-51.5 17.5q-28 0 -52.5 -19t-37.5 -51h-201zM-18 0l237 1337h281l-236 -1337h-282z" />
    <glyph glyph-name="itilde" unicode="&#x129;" horiz-adv-x="417" 
d="M408 1169q-44 0 -95 33t-73 33q-44 0 -70 -66h-184q40 131 109.5 208t148.5 77q30 0 56.5 -9.5t42 -21t33.5 -21t34 -9.5q21 0 40 16t29 43h187q-43 -130 -112.5 -206.5t-145.5 -76.5zM-35 0l182 1024h254l-180 -1024h-256z" />
    <glyph glyph-name="Imacron" unicode="&#x12a;" horiz-adv-x="479" 
d="M104 1454l33 178h555l-33 -178h-555zM-18 0l237 1337h281l-236 -1337h-282z" />
    <glyph glyph-name="imacron" unicode="&#x12b;" horiz-adv-x="417" 
d="M55 1169l33 191h492l-33 -191h-492zM-35 0l182 1024h254l-180 -1024h-256z" />
    <glyph glyph-name="Ibreve" unicode="&#x12c;" horiz-adv-x="479" 
d="M373 1454q-146 0 -222 79.5t-59 213.5h256q-4 -44 14.5 -70t55.5 -26q31 0 58 26t40 70h256q-31 -134 -139 -213.5t-260 -79.5zM-18 0l237 1337h281l-236 -1337h-282z" />
    <glyph glyph-name="ibreve" unicode="&#x12d;" horiz-adv-x="417" 
d="M293 1169q-140 0 -212.5 77.5t-55.5 207.5h254q-5 -43 10.5 -68.5t46.5 -25.5q25 0 48 25.5t38 68.5h250q-29 -131 -131.5 -208t-247.5 -77zM-35 0l182 1024h254l-180 -1024h-256z" />
    <glyph glyph-name="Iogonek" unicode="&#x12e;" horiz-adv-x="479" 
d="M199 0q-170 -128 -189 -229q-5 -34 14 -57t60 -23q44 0 84 16l-2 -145q-74 -29 -178 -29q-101 0 -149.5 38t-35.5 116q12 70 87.5 166t158.5 147h-67l237 1337h281l-236 -1337h-65z" />
    <glyph glyph-name="iogonek" unicode="&#x12f;" horiz-adv-x="417" 
d="M211 1432h260l-45 -263h-260zM-35 0l182 1024h254l-180 -1024h-57q-170 -128 -189 -229q-5 -34 14 -57t60 -23q44 0 84 16l-2 -145q-74 -29 -178 -29q-101 0 -149 38t-35 116q12 71 87 166.5t158 146.5h-49z" />
    <glyph glyph-name="Idotaccent" unicode="&#x130;" horiz-adv-x="479" 
d="M252 1454l47 262h260l-47 -262h-260zM-18 0l237 1337h281l-236 -1337h-282z" />
    <glyph glyph-name="dotlessi" unicode="&#x131;" horiz-adv-x="417" 
d="M-35 0l182 1024h254l-180 -1024h-256z" />
    <glyph glyph-name="Jcircumflex" unicode="&#x134;" horiz-adv-x="487" 
d="M412 1577l-93 -125h-288l243 295h332l142 -295h-289zM-14 -25l243 1362h279l-238 -1351q-35 -204 -144 -300t-306 -96q-30 0 -109 11l37 168q53 -11 57 -11q75 0 118.5 52.5t62.5 164.5z" />
    <glyph glyph-name="jcircumflex" unicode="&#x135;" horiz-adv-x="413" 
d="M328 1337l-109 -168h-244l209 285h326l111 -285h-244zM-51 -84l196 1108h254l-198 -1122q-28 -161 -104.5 -237.5t-211.5 -76.5q-103 0 -207 37l62 176q52 -16 84 -16q52 0 82.5 31.5t42.5 99.5z" />
    <glyph glyph-name="uni0136" unicode="&#x136;" horiz-adv-x="972" 
d="M1049 1337l-412 -516l190 -821h-288l-121 545l-74 -92l-80 -453h-282l237 1337h281l-88 -501l379 501h258zM231 -143h277l-33 -187l-24 -139q-22 -122 -116 -192t-208 -70l25 141q49 0 89.5 31t49.5 82l8 49h-119z" />
    <glyph glyph-name="uni0137" unicode="&#x137;" horiz-adv-x="829" 
d="M854 1024l-297 -369l127 -655h-256l-74 406l-84 -103l-53 -303h-252l246 1397l256 20l-139 -794l297 401h229zM160 -143h276l-33 -187l-24 -139q-22 -122 -116 -192t-208 -70l25 141q49 0 89.5 31t49.5 82l8 49h-118z" />
    <glyph glyph-name="kgreenlandic" unicode="&#x138;" horiz-adv-x="833" 
d="M862 1024l-305 -373l129 -651h-266l-68 403l-82 -102l-53 -301h-252l180 1026l256 21l-71 -406l276 383h256z" />
    <glyph glyph-name="Lacute" unicode="&#x139;" horiz-adv-x="778" 
d="M780 1747l-309 -293h-235l231 293h313zM500 1337l-207 -1169h352l-29 -168h-634l237 1337h281z" />
    <glyph glyph-name="lacute" unicode="&#x13a;" horiz-adv-x="413" 
d="M213 1534l231 293h314l-309 -293h-236zM-35 0l246 1397l256 20l-250 -1417h-252z" />
    <glyph glyph-name="uni013B" unicode="&#x13b;" horiz-adv-x="778" 
d="M293 168h352l-29 -168h-634l237 1337h281zM133 -143h277l-33 -187l-25 -139q-22 -122 -115.5 -192t-207.5 -70l24 141q49 0 90 31t50 82l8 49h-119z" />
    <glyph glyph-name="uni013C" unicode="&#x13c;" horiz-adv-x="413" 
d="M467 1417l-250 -1417h-252l246 1397zM-49 -143h276l-32 -187l-25 -139q-22 -122 -116 -192t-208 -70l25 141q49 0 89.5 31t49.5 82l8 49h-118z" />
    <glyph glyph-name="Lcaron" unicode="&#x13d;" horiz-adv-x="901" 
d="M500 1337l-207 -1169h352l-29 -168h-634l237 1337h281zM643 1337h313l-65 -372q-25 -140 -131 -219.5t-236 -79.5l29 159q57 0 102.5 36t55.5 95l10 58h-135z" />
    <glyph glyph-name="lcaron" unicode="&#x13e;" horiz-adv-x="817" 
d="M211 1397l256 20l-250 -1417h-252zM575 1337h314l-66 -372q-25 -140 -130.5 -219.5t-235.5 -79.5l28 159q57 0 102.5 36t55.5 95l10 58h-135z" />
    <glyph glyph-name="Lslash" unicode="&#x141;" horiz-adv-x="778" 
d="M293 168h352l-29 -168h-634l73 410l-94 -64l25 143l94 64l139 784h281l-109 -616l205 129l-25 -143l-204 -127z" />
    <glyph glyph-name="lslash" unicode="&#x142;" horiz-adv-x="419" 
d="M479 901l-24 -147l-111 -62l-123 -692h-252l99 555l-111 -57l27 147l108 57l123 695l256 20l-102 -577z" />
    <glyph glyph-name="Nacute" unicode="&#x143;" horiz-adv-x="993" 
d="M1063 1747l-309 -293h-236l232 293h313zM698 524l144 813h172l-236 -1337h-213l-256 868l-153 -868h-174l237 1337h252z" />
    <glyph glyph-name="nacute" unicode="&#x144;" horiz-adv-x="835" 
d="M915 1454l-305 -285h-204l202 285h307zM621 1044q109 0 147 -69.5t12 -220.5l-133 -754h-254l121 686q15 94 5 137t-48 43q-51 0 -83.5 -47.5t-51.5 -150.5h-2l-117 -668h-252l180 1024l256 20l-22 -131q85 131 242 131z" />
    <glyph glyph-name="uni0145" unicode="&#x145;" horiz-adv-x="993" 
d="M842 1337h172l-236 -1337h-213l-256 868l-153 -868h-174l237 1337h252l227 -813zM242 -143h276l-33 -187l-24 -139q-22 -122 -116 -192t-208 -70l25 141q49 0 89.5 31t49.5 82l8 49h-119z" />
    <glyph glyph-name="uni0146" unicode="&#x146;" horiz-adv-x="835" 
d="M621 1044q109 0 147 -69.5t12 -220.5l-133 -754h-254l121 686q15 94 5 137t-48 43q-51 0 -83.5 -47.5t-51.5 -150.5h-2l-117 -668h-252l180 1024l256 20l-22 -131q85 131 242 131zM162 -143h276l-32 -187l-25 -139q-22 -122 -116 -192t-208 -70l25 141q49 0 89.5 31
t49.5 82l8 49h-118z" />
    <glyph glyph-name="Ncaron" unicode="&#x147;" horiz-adv-x="993" 
d="M496 1454l-162 293h289l67 -143l119 143h287l-265 -293h-335zM698 524l144 813h172l-236 -1337h-213l-256 868l-153 -868h-174l237 1337h252z" />
    <glyph glyph-name="ncaron" unicode="&#x148;" horiz-adv-x="835" 
d="M406 1169l-140 285h240l51 -149l105 149h239l-237 -285h-258zM621 1044q109 0 147 -69.5t12 -220.5l-133 -754h-254l121 686q15 94 5 137t-48 43q-51 0 -83.5 -47.5t-51.5 -150.5h-2l-117 -668h-252l180 1024l256 20l-22 -131q85 131 242 131z" />
    <glyph glyph-name="napostrophe" unicode="&#x149;" horiz-adv-x="1200" 
d="M430 1079q-25 -140 -131 -219.5t-236 -79.5l29 160q57 0 102.5 36t55.5 95l10 57h-135l57 324h314zM985 1044q109 0 147.5 -69.5t12.5 -220.5l-133 -754h-254l121 686q15 94 5 137t-48 43q-51 0 -84 -48t-52 -150h-2l-116 -668h-252l180 1024l256 20l-23 -131
q85 131 242 131z" />
    <glyph glyph-name="Eng" unicode="&#x14a;" horiz-adv-x="985" 
d="M834 1337h172l-258 -1464q-26 -146 -86.5 -214.5t-163.5 -68.5q-92 0 -185 37l58 154q49 -14 84 -14q52 0 82.5 31.5t42.5 97.5l18 104h-20l-269 868l-153 -868h-174l237 1337h250l229 -770z" />
    <glyph glyph-name="eng" unicode="&#x14b;" horiz-adv-x="845" 
d="M631 1044q109 0 147 -69.5t10 -220.5l-143 -824q-31 -175 -110.5 -257.5t-217.5 -82.5q-100 0 -198 37l61 174q46 -14 82 -14q54 0 84.5 31.5t42.5 97.5l131 752q17 94 7 137t-48 43q-58 0 -93 -48t-52 -151l-2 -2l-115 -647h-252l180 1024l256 20l-22 -133
q84 133 252 133z" />
    <glyph glyph-name="Omacron" unicode="&#x14c;" horiz-adv-x="997" 
d="M367 1454l32 178h555l-32 -178h-555zM381 -20q-220 0 -293 167t-10 525q63 355 195 520.5t350 165.5t290.5 -165.5t10.5 -520.5q-61 -357 -193 -524.5t-350 -167.5zM414 158q63 0 114 124.5t97 389.5q47 262 39 385t-72 123q-65 0 -117 -123t-98 -385q-47 -266 -38 -390
t75 -124z" />
    <glyph glyph-name="omacron" unicode="&#x14d;" horiz-adv-x="831" 
d="M266 1169l33 191h492l-33 -191h-492zM297 -20q-189 0 -255 128.5t-17 403.5q47 275 158 403.5t302 128.5q188 0 254 -128.5t19 -403.5q-49 -275 -160.5 -403.5t-300.5 -128.5zM326 143q51 0 90 90t73 283q35 189 27.5 278t-59.5 89t-92 -88.5t-74 -278.5
q-66 -373 35 -373z" />
    <glyph glyph-name="Obreve" unicode="&#x14e;" horiz-adv-x="997" 
d="M635 1454q-146 0 -222 79.5t-59 213.5h256q-4 -44 14.5 -70t55.5 -26q31 0 58 26t40 70h256q-31 -134 -139 -213.5t-260 -79.5zM381 -20q-220 0 -293 167t-10 525q63 355 195 520.5t350 165.5t290.5 -165.5t10.5 -520.5q-61 -357 -193 -524.5t-350 -167.5zM414 158
q63 0 114 124.5t97 389.5q47 262 39 385t-72 123q-65 0 -117 -123t-98 -385q-47 -266 -38 -390t75 -124z" />
    <glyph glyph-name="obreve" unicode="&#x14f;" horiz-adv-x="831" 
d="M504 1169q-140 0 -212.5 77.5t-55.5 207.5h253q-4 -43 11.5 -68.5t46.5 -25.5q25 0 48 25.5t38 68.5h250q-29 -131 -131.5 -208t-247.5 -77zM297 -20q-189 0 -255 128.5t-17 403.5q47 275 158 403.5t302 128.5q188 0 254 -128.5t19 -403.5q-49 -275 -160.5 -403.5
t-300.5 -128.5zM326 143q51 0 90 90t73 283q35 189 27.5 278t-59.5 89t-92 -88.5t-74 -278.5q-66 -373 35 -373z" />
    <glyph glyph-name="Ohungarumlaut" unicode="&#x150;" horiz-adv-x="997" 
d="M346 1450l189 295h258l-279 -295h-168zM672 1450l186 295h260l-280 -295h-166zM381 -20q-220 0 -293 167t-10 525q63 355 195 520.5t350 165.5t290.5 -165.5t10.5 -520.5q-61 -357 -193 -524.5t-350 -167.5zM414 158q63 0 114 124.5t97 389.5q47 262 39 385t-72 123
q-65 0 -117 -123t-98 -385q-47 -266 -38 -390t75 -124z" />
    <glyph glyph-name="ohungarumlaut" unicode="&#x151;" horiz-adv-x="831" 
d="M205 1169l157 285h293l-252 -285h-198zM563 1169l158 285h293l-252 -285h-199zM297 -20q-189 0 -255 128.5t-17 403.5q47 275 158 403.5t302 128.5q188 0 254 -128.5t19 -403.5q-49 -275 -160.5 -403.5t-300.5 -128.5zM326 143q51 0 90 90t73 283q35 189 27.5 278
t-59.5 89t-92 -88.5t-74 -278.5q-66 -373 35 -373z" />
    <glyph glyph-name="OE" unicode="&#x152;" horiz-adv-x="1351" 
d="M1327 1169h-348l-68 -383h320l-29 -168h-321l-80 -450h364l-28 -168h-590q-61 -20 -150 -20q-161 0 -244 68.5t-102.5 222t27.5 401.5q68 374 196 530t367 156q85 0 143 -21h574zM375 672q-51 -290 -39 -408.5t94 -118.5q48 0 90 33l176 983q-31 31 -84 31
q-80 0 -133 -116t-104 -404z" />
    <glyph glyph-name="oe" unicode="&#x153;" horiz-adv-x="1273" 
d="M944 1044q181 0 243 -125.5t15 -394.5q-2 -13 -5 -25t-4 -17t-1 -7h-436q-26 -172 4 -254t119 -82t211 58v-150q-128 -67 -281 -67q-173 0 -252 88q-104 -88 -260 -88q-189 0 -255 128.5t-17 403.5q47 275 158 403.5t302 128.5q150 0 220 -79q98 79 239 79zM778 610h183
l4 27q48 270 -39 270q-50 0 -85 -68t-61 -216zM326 143q51 0 90 90t73 283q35 189 27.5 278t-59.5 89t-92 -88.5t-74 -278.5q-66 -373 35 -373z" />
    <glyph glyph-name="Racute" unicode="&#x154;" horiz-adv-x="980" 
d="M1020 1747l-309 -293h-236l232 293h313zM594 1337q214 0 296.5 -98.5t45.5 -310.5q-49 -275 -217 -379l112 -549h-286l-96 485h-5h-94l-86 -485h-282l237 1337h375zM471 1169l-92 -516h67q72 0 118.5 66t72.5 207q22 126 -2 184.5t-96 58.5h-68z" />
    <glyph glyph-name="racute" unicode="&#x155;" horiz-adv-x="641" 
d="M819 1454l-305 -285h-205l203 285h307zM367 842q113 202 251 202q39 0 58 -8l-60 -268q-52 25 -94 25q-86 0 -137 -67t-76 -210l-92 -516h-252l180 1024h254z" />
    <glyph glyph-name="uni0156" unicode="&#x156;" horiz-adv-x="980" 
d="M936 928q-49 -275 -217 -379l112 -549h-286l-96 485h-5h-94l-86 -485h-282l237 1337h375q214 0 296.5 -98.5t45.5 -310.5zM471 1169l-92 -516h67q72 0 118.5 66t72.5 207q22 126 -2 184.5t-96 58.5h-68zM236 -143h276l-33 -187l-24 -139q-22 -122 -116 -192t-208 -70
l25 141q49 0 89.5 31t49.5 82l8 49h-119z" />
    <glyph glyph-name="Rcaron" unicode="&#x158;" horiz-adv-x="980" 
d="M453 1454l-162 293h289l67 -143l119 143h287l-265 -293h-335zM594 1337q214 0 296.5 -98.5t45.5 -310.5q-49 -275 -217 -379l112 -549h-286l-96 485h-5h-94l-86 -485h-282l237 1337h375zM471 1169l-92 -516h67q72 0 118.5 66t72.5 207q22 126 -2 184.5t-96 58.5h-68z" />
    <glyph glyph-name="rcaron" unicode="&#x159;" horiz-adv-x="641" 
d="M309 1169l-139 285h240l51 -149l104 149h240l-238 -285h-258zM367 842q113 202 251 202q39 0 58 -8l-60 -268q-52 25 -94 25q-86 0 -137 -67t-76 -210l-92 -516h-252l180 1024h254z" />
    <glyph glyph-name="Sacute" unicode="&#x15a;" horiz-adv-x="815" 
d="M428 1454l231 293h314l-309 -293h-236zM164 -20q-117 0 -223 47l69 192q88 -59 189 -59q88 0 150 50.5t79 141.5q8 50 -11.5 90.5t-42 60t-74.5 55.5l-21 15q-93 65 -138 152t-22 213q31 182 165.5 301t315.5 119q147 0 244 -31l-64 -182q-71 36 -172 33
q-67 0 -117.5 -51.5t-62.5 -125.5q-5 -24 -5.5 -45t4 -38.5t10 -32.5t16.5 -28.5t21 -24t25 -21.5t27 -19t29 -18q64 -36 104 -75t61 -102.5t7 -143.5q-38 -215 -195.5 -344t-367.5 -129z" />
    <glyph glyph-name="sacute" unicode="&#x15b;" horiz-adv-x="688" 
d="M311 1169l203 285h307l-305 -285h-205zM147 -20q-126 0 -210 36l59 172q80 -45 178 -45q63 0 109 39t57 99q1 16 2.5 27.5t-3 23t-7 19t-11.5 16t-15 13.5t-18 12t-20.5 11.5t-21.5 11.5t-23 13q-180 102 -145 297q26 145 140.5 232t264.5 87q106 0 191 -28l-58 -164
q-58 31 -145 31q-45 0 -80.5 -34.5t-44.5 -84.5q-3 -16 -3.5 -30t2.5 -25.5t6 -20.5t11 -18t13.5 -14.5t17 -13.5t17.5 -11.5t19.5 -11t19.5 -11.5q37 -20 62.5 -41.5t49 -55.5t28 -73.5t-2.5 -95.5q-30 -174 -147.5 -268t-291.5 -94z" />
    <glyph glyph-name="Scircumflex" unicode="&#x15c;" horiz-adv-x="815" 
d="M596 1577l-92 -125h-289l244 295h332l141 -295h-289zM119 938q31 182 165.5 301t315.5 119q147 0 244 -31l-64 -182q-71 36 -172 33q-67 0 -117.5 -51.5t-62.5 -125.5q-5 -24 -5.5 -45t4 -38.5t10 -32.5t16.5 -28.5t21 -24t25 -21.5t27 -19t29 -18q64 -36 104 -75
t61 -102.5t7 -143.5q-38 -215 -195.5 -344t-367.5 -129q-117 0 -223 47l69 192q88 -59 189 -59q88 0 150 50.5t79 141.5q8 50 -11.5 90.5t-42 60t-74.5 55.5l-21 15q-93 65 -138 152t-22 213z" />
    <glyph glyph-name="scircumflex" unicode="&#x15d;" horiz-adv-x="688" 
d="M469 1337l-109 -168h-243l209 285h325l111 -285h-244zM78 725q26 145 140.5 232t264.5 87q106 0 191 -28l-58 -164q-58 31 -145 31q-45 0 -80.5 -34.5t-44.5 -84.5q-3 -16 -3.5 -30t2.5 -25.5t6 -20.5t11 -18t13.5 -14.5t17 -13.5t17.5 -11.5t19.5 -11t19.5 -11.5
q37 -20 62.5 -41.5t49 -55.5t28 -73.5t-2.5 -95.5q-30 -174 -147.5 -268t-291.5 -94q-126 0 -210 36l59 172q80 -45 178 -45q63 0 109 39t57 99q1 16 2.5 27.5t-3 23t-7 19t-11.5 16t-15 13.5t-18 12t-20.5 11.5t-21.5 11.5t-23 13q-180 102 -145 297z" />
    <glyph glyph-name="Scedilla" unicode="&#x15e;" horiz-adv-x="815" 
d="M608 1178q-67 0 -117.5 -51.5t-62.5 -125.5q-5 -24 -5.5 -45t4 -38.5t10 -32.5t16.5 -28.5t21 -24t25 -21.5t27 -19t29 -18q64 -36 104 -75t61 -102.5t7 -143.5q-33 -186 -156 -309t-297 -154l-43 -80q122 -14 159.5 -57t25.5 -113q-11 -61 -53 -107t-107 -72t-140 -38.5
t-163 -14.5l-2 113q53 4 91 11t71 19.5t51.5 34t23.5 52.5t-25 54.5t-124 37.5l94 150q-102 6 -192 47l69 192q88 -59 189 -59q88 0 150 50.5t79 141.5q8 50 -11.5 90.5t-42 60t-74.5 55.5l-21 15q-93 65 -138 152t-22 213q31 182 165.5 301t315.5 119q147 0 244 -31
l-64 -182q-71 36 -172 33z" />
    <glyph glyph-name="scedilla" unicode="&#x15f;" horiz-adv-x="688" 
d="M471 883q-45 0 -80.5 -34.5t-44.5 -84.5q-3 -16 -3.5 -30t2.5 -25.5t6 -20.5t11 -18t13.5 -14.5t17 -13.5t17.5 -11.5t19.5 -11t19.5 -11.5q37 -20 62.5 -41.5t49 -55.5t28 -73.5t-2.5 -95.5q-21 -125 -90 -211t-174 -123h8l-54 -98q122 -14 159.5 -57t25.5 -113
q-11 -61 -53 -107t-107 -72t-140 -38.5t-163 -14.5l-2 113q53 4 91 11t71 19.5t51.5 34t23.5 52.5t-25 54.5t-124 37.5l94 150h-31q-126 0 -210 36l59 172q80 -45 178 -45q63 0 109 39t57 99q1 16 2.5 27.5t-3 23t-7 19t-11.5 16t-15 13.5t-18 12t-20.5 11.5t-21.5 11.5
t-23 13q-180 102 -145 297q26 145 140.5 232t264.5 87q106 0 191 -28l-58 -164q-58 31 -145 31z" />
    <glyph glyph-name="Scaron" unicode="&#x160;" horiz-adv-x="815" 
d="M406 1454l-162 293h288l68 -143l119 143h287l-265 -293h-335zM119 938q31 182 165.5 301t315.5 119q147 0 244 -31l-64 -182q-71 36 -172 33q-67 0 -117.5 -51.5t-62.5 -125.5q-5 -24 -5.5 -45t4 -38.5t10 -32.5t16.5 -28.5t21 -24t25 -21.5t27 -19t29 -18
q64 -36 104 -75t61 -102.5t7 -143.5q-38 -215 -195.5 -344t-367.5 -129q-117 0 -223 47l69 192q88 -59 189 -59q88 0 150 50.5t79 141.5q8 50 -11.5 90.5t-42 60t-74.5 55.5l-21 15q-93 65 -138 152t-22 213z" />
    <glyph glyph-name="scaron" unicode="&#x161;" horiz-adv-x="688" 
d="M311 1169l-139 285h240l51 -149l104 149h240l-238 -285h-258zM78 725q26 145 140.5 232t264.5 87q106 0 191 -28l-58 -164q-58 31 -145 31q-45 0 -80.5 -34.5t-44.5 -84.5q-3 -16 -3.5 -30t2.5 -25.5t6 -20.5t11 -18t13.5 -14.5t17 -13.5t17.5 -11.5t19.5 -11t19.5 -11.5
q37 -20 62.5 -41.5t49 -55.5t28 -73.5t-2.5 -95.5q-30 -174 -147.5 -268t-291.5 -94q-126 0 -210 36l59 172q80 -45 178 -45q63 0 109 39t57 99q1 16 2.5 27.5t-3 23t-7 19t-11.5 16t-15 13.5t-18 12t-20.5 11.5t-21.5 11.5t-23 13q-180 102 -145 297z" />
    <glyph glyph-name="uni0162" unicode="&#x162;" horiz-adv-x="876" 
d="M463 0h-68l-49 -90q122 -14 159 -57t25 -113q-11 -61 -53 -107t-107 -72t-139.5 -38.5t-162.5 -14.5l-2 113q53 4 91 11t71 19.5t51.5 34t23.5 52.5t-25 54.5t-124 37.5l106 170h-78l207 1169h-266l31 168h809l-29 -168h-264z" />
    <glyph glyph-name="uni0163" unicode="&#x163;" horiz-adv-x="555" 
d="M395 844l-94 -535q-12 -74 3 -108.5t61 -34.5q44 0 65 6l-29 -166q-91 -26 -153 -26l-37 -70q122 -14 159 -57t25 -113q-11 -61 -53 -107t-107 -72t-140 -38.5t-163 -14.5l-2 113q53 4 91 11t71 19.5t52 34t24 52.5t-25.5 54.5t-124.5 37.5l107 172q-123 61 -80 295
l96 547h-90l31 180h92l33 186l264 62l-43 -248h156l-33 -180h-156z" />
    <glyph glyph-name="Tcaron" unicode="&#x164;" horiz-adv-x="876" 
d="M412 1454l-162 293h289l67 -143l119 143h287l-264 -293h-336zM963 1337l-29 -168h-264l-207 -1169h-281l207 1169h-266l31 168h809z" />
    <glyph glyph-name="tcaron" unicode="&#x165;" horiz-adv-x="729" 
d="M584 1602h297l-138 -484h-192zM471 1272l-43 -248h156l-33 -180h-156l-94 -535q-12 -74 3 -108.5t61 -34.5q44 0 65 6l-29 -166q-95 -26 -155 -26q-132 0 -181 76.5t-20 240.5l96 547h-90l31 180h92l33 186z" />
    <glyph glyph-name="Tbar" unicode="&#x166;" horiz-adv-x="876" 
d="M934 1169h-264l-68 -381h191l-17 -96h-190l-123 -692h-281l123 692h-192l18 96h191l67 381h-266l31 168h809z" />
    <glyph glyph-name="tbar" unicode="&#x167;" horiz-adv-x="555" 
d="M551 844h-156l-37 -209h164l-26 -148h-164l-31 -178q-12 -74 3 -108.5t61 -34.5q44 0 65 6l-29 -166q-95 -26 -155 -26q-132 0 -181 76.5t-20 240.5l33 190h-88l26 148h88l37 209h-90l31 180h92l33 186l264 62l-43 -248h156z" />
    <glyph glyph-name="Utilde" unicode="&#x168;" horiz-adv-x="950" 
d="M281 1454q40 134 120.5 213.5t178.5 79.5q42 0 76.5 -18t60 -36t47.5 -18q27 0 51.5 20t36.5 52h197q-40 -133 -119.5 -213t-171.5 -80q-39 0 -73.5 17.5t-62 35t-51.5 17.5q-28 0 -52.5 -19t-37.5 -51h-200zM383 -20q-200 0 -288.5 110.5t-51.5 312.5l166 934h280
l-165 -936q-20 -109 8 -176t114 -67q80 0 129.5 66t69.5 177l164 936h174l-166 -940q-36 -199 -146 -308t-288 -109z" />
    <glyph glyph-name="utilde" unicode="&#x169;" horiz-adv-x="833" 
d="M442 1235q-43 0 -69 -66h-185q40 131 109.5 208t148.5 77q30 0 56.5 -9.5t42 -21t33.5 -21t34 -9.5q21 0 40.5 16t29.5 43h186q-43 -130 -112.5 -206.5t-145.5 -76.5q-44 0 -95 33t-73 33zM446 354l119 670h252l-180 -1024l-256 -20l22 131q-86 -131 -241 -131
q-111 0 -149 70t-9 220l131 754h254l-121 -688q-17 -94 -7 -137t48 -43q52 0 85 47.5t52 150.5z" />
    <glyph glyph-name="Umacron" unicode="&#x16a;" horiz-adv-x="950" 
d="M365 1454l32 178h555l-32 -178h-555zM383 -20q-200 0 -288.5 110.5t-51.5 312.5l166 934h280l-165 -936q-20 -109 8 -176t114 -67q80 0 129.5 66t69.5 177l164 936h174l-166 -940q-36 -199 -146 -308t-288 -109z" />
    <glyph glyph-name="umacron" unicode="&#x16b;" horiz-adv-x="833" 
d="M782 1360l-32 -191h-492l33 191h491zM565 1024h252l-180 -1024l-256 -20l22 131q-86 -131 -241 -131q-111 0 -149 70t-9 220l131 754h254l-121 -688q-17 -94 -7 -137t48 -43q52 0 85 47.5t52 150.5z" />
    <glyph glyph-name="Ubreve" unicode="&#x16c;" horiz-adv-x="950" 
d="M633 1454q-146 0 -222 79.5t-59 213.5h256q-4 -44 14.5 -70t55.5 -26q31 0 58 26t40 70h256q-31 -134 -139 -213.5t-260 -79.5zM383 -20q-200 0 -288.5 110.5t-51.5 312.5l166 934h280l-165 -936q-20 -109 8 -176t114 -67q80 0 129.5 66t69.5 177l164 936h174l-166 -940
q-36 -199 -146 -308t-288 -109z" />
    <glyph glyph-name="ubreve" unicode="&#x16d;" horiz-adv-x="833" 
d="M496 1169q-140 0 -213 77.5t-56 207.5h254q-4 -43 11.5 -68.5t46.5 -25.5q25 0 48 25.5t38 68.5h249q-29 -131 -131 -208t-247 -77zM446 354l119 670h252l-180 -1024l-256 -20l22 131q-86 -131 -241 -131q-111 0 -149 70t-9 220l131 754h254l-121 -688q-17 -94 -7 -137
t48 -43q52 0 85 47.5t52 150.5z" />
    <glyph glyph-name="Uring" unicode="&#x16e;" horiz-adv-x="950" 
d="M647 1454q-78 0 -125.5 52.5t-32.5 133.5q15 80 81 131.5t143 51.5q76 0 124 -52t35 -131q-13 -81 -80 -133.5t-145 -52.5zM668 1567q30 0 53.5 20.5t28.5 50.5t-12 51t-46 21t-53 -21.5t-29 -50.5t12 -50t46 -21zM383 -20q-200 0 -288.5 110.5t-51.5 312.5l166 934h280
l-165 -936q-20 -109 8 -176t114 -67q80 0 129.5 66t69.5 177l164 936h174l-166 -940q-36 -199 -146 -308t-288 -109z" />
    <glyph glyph-name="uring" unicode="&#x16f;" horiz-adv-x="833" 
d="M504 1169q-98 0 -152 58t-39 149q17 88 90.5 145.5t171.5 57.5t152 -57.5t37 -145.5q-15 -91 -88.5 -149t-171.5 -58zM465 1374q-5 -33 12 -54.5t49 -21.5t56.5 22t29.5 54q6 32 -11.5 54t-49.5 22q-31 0 -55.5 -22t-30.5 -54zM565 1024h252l-180 -1024l-256 -20l22 131
q-86 -131 -241 -131q-111 0 -149 70t-9 220l131 754h254l-121 -688q-17 -94 -7 -137t48 -43q52 0 85 47.5t52 150.5z" />
    <glyph glyph-name="Uhungarumlaut" unicode="&#x170;" horiz-adv-x="950" 
d="M344 1450l188 295h259l-279 -295h-168zM670 1450l186 295h260l-280 -295h-166zM383 -20q-200 0 -288.5 110.5t-51.5 312.5l166 934h280l-165 -936q-20 -109 8 -176t114 -67q80 0 129.5 66t69.5 177l164 936h174l-166 -940q-36 -199 -146 -308t-288 -109z" />
    <glyph glyph-name="uhungarumlaut" unicode="&#x171;" horiz-adv-x="833" 
d="M647 1454l-252 -285h-198l157 285h293zM754 1169h-199l158 285h293zM446 354l119 670h252l-180 -1024l-256 -20l22 131q-86 -131 -241 -131q-111 0 -149 70t-9 220l131 754h254l-121 -688q-17 -94 -7 -137t48 -43q52 0 85 47.5t52 150.5z" />
    <glyph glyph-name="Uogonek" unicode="&#x172;" horiz-adv-x="950" 
d="M809 1337h174l-166 -940q-58 -317 -285 -395q-90 -84 -102 -156q-5 -34 14 -56.5t60 -22.5q44 0 84 16l-2 -145q-74 -29 -178 -29q-101 0 -149.5 37.5t-35.5 115.5q7 45 43.5 104.5t87.5 113.5q-186 9 -266 119t-45 304l166 934h280l-165 -936q-20 -109 8 -176t114 -67
q80 0 129.5 66t69.5 177z" />
    <glyph glyph-name="uogonek" unicode="&#x173;" horiz-adv-x="833" 
d="M604 -2q-165 -128 -184 -227q-5 -34 14 -57t60 -23q44 0 84 16l-3 -145q-74 -29 -178 -29q-101 0 -149 38t-35 116q12 65 78 153t143 144l-53 -4l22 131q-86 -131 -241 -131q-111 0 -149 70t-9 220l131 754h254l-121 -688q-17 -94 -7 -137t48 -43q52 0 85 47.5t52 150.5
l119 670h252l-180 -1024z" />
    <glyph glyph-name="Wcircumflex" unicode="&#x174;" horiz-adv-x="1347" 
d="M874 1577l-92 -125h-288l243 295h332l141 -295h-288zM1262 1337h186l-483 -1337h-246l-2 862l-305 -862h-260l-11 1337h289l-4 -786l272 786h283l2 -790z" />
    <glyph glyph-name="wcircumflex" unicode="&#x175;" horiz-adv-x="1103" 
d="M719 1337l-109 -168h-243l208 285h326l111 -285h-244zM1004 1024h157l-405 -1024h-207l-17 545l-206 -545h-201l-53 1024h270l8 -641l238 641h178l8 -625z" />
    <glyph glyph-name="Ycircumflex" unicode="&#x176;" horiz-adv-x="911" 
d="M645 1577l-92 -125h-289l244 295h332l141 -295h-289zM823 1337h189l-424 -825l-90 -512h-281l90 512l-166 825h293l111 -563z" />
    <glyph glyph-name="ycircumflex" unicode="&#x177;" horiz-adv-x="722" 
d="M508 1337l-109 -168h-243l209 285h325l111 -285h-244zM352 365l271 659h157l-594 -1413h-153l162 389h-68l-55 1024h272z" />
    <glyph glyph-name="Ydieresis" unicode="&#x178;" horiz-adv-x="911" 
d="M610 1702l-45 -248h-241l45 248h241zM967 1702l-45 -248h-244l45 248h244zM823 1337h189l-424 -825l-90 -512h-281l90 512l-166 825h293l111 -563z" />
    <glyph glyph-name="Zacute" unicode="&#x179;" horiz-adv-x="802" 
d="M922 1747l-310 -293h-235l231 293h314zM848 1337l-543 -1169h361l-31 -168h-707l549 1169h-323l28 168h666z" />
    <glyph glyph-name="zacute" unicode="&#x17a;" horiz-adv-x="686" 
d="M829 1454l-305 -285h-205l203 285h307zM707 1024l-435 -856h281l-29 -166h-600l434 858h-254l31 164h572z" />
    <glyph glyph-name="Zdotaccent" unicode="&#x17b;" horiz-adv-x="802" 
d="M700 1716l-47 -262h-260l47 262h260zM848 1337l-543 -1169h361l-31 -168h-707l549 1169h-323l28 168h666z" />
    <glyph glyph-name="zdotaccent" unicode="&#x17c;" horiz-adv-x="686" 
d="M618 1432l-45 -263h-260l45 263h260zM707 1024l-435 -856h281l-29 -166h-600l434 858h-254l31 164h572z" />
    <glyph glyph-name="Zcaron" unicode="&#x17d;" horiz-adv-x="802" 
d="M354 1454l-161 293h288l68 -143l119 143h286l-264 -293h-336zM848 1337l-543 -1169h361l-31 -168h-707l549 1169h-323l28 168h666z" />
    <glyph glyph-name="zcaron" unicode="&#x17e;" horiz-adv-x="686" 
d="M319 1169l-139 285h240l51 -149l104 149h240l-237 -285h-259zM707 1024l-435 -856h281l-29 -166h-600l434 858h-254l31 164h572z" />
    <glyph glyph-name="longs" unicode="&#x17f;" horiz-adv-x="501" 
d="M508 1436q57 0 139 -23l-47 -170q-31 8 -55 8q-87 0 -113 -164l-192 -1087h-254l151 848h-96l31 176h96l14 76q29 173 108.5 254.5t217.5 81.5z" />
    <glyph glyph-name="uni018F" unicode="&#x18f;" horiz-adv-x="997" 
d="M623 1358q218 0 291 -165.5t10 -520.5q-63 -358 -194 -525t-349 -167q-221 0 -294 170t-7 532q3 27 8 51h551q37 236 26.5 347.5t-71.5 111.5q-51 0 -87.5 -43.5t-62.5 -136.5h-286q62 179 174.5 262.5t290.5 83.5zM412 145q58 0 105.5 102.5t90.5 319.5h-252
q-31 -217 -17.5 -319.5t73.5 -102.5z" />
    <glyph glyph-name="florin" unicode="&#x192;" horiz-adv-x="677" 
d="M690 1452q66 0 160 -27l-55 -147q-82 18 -111 18q-86 0 -166 -249l-8 -23h164l-39 -162h-178l-281 -856q-70 -214 -175 -314t-257 -100q-56 0 -158 31l62 152q82 -23 112 -23q81 0 158 246l287 864h-101l41 162h113l4 14q70 213 174 313.5t254 100.5z" />
    <glyph glyph-name="uni019D" unicode="&#x19d;" horiz-adv-x="985" 
d="M834 1337h172l-236 -1337h-215l-248 856l-174 -985q-26 -146 -86.5 -214.5t-163.5 -68.5q-93 0 -186 37l59 156q52 -17 82 -17q54 0 84 32t41 100l256 1441h252l221 -805z" />
    <glyph glyph-name="uni01CD" unicode="&#x1cd;" horiz-adv-x="925" 
d="M774 1747h287l-264 -293h-336l-162 293h289l67 -143zM733 1337l55 -1337h-280l-10 297h-291l-113 -297h-190l540 1337h289zM270 465h224l-19 539z" />
    <glyph glyph-name="uni01CE" unicode="&#x1ce;" horiz-adv-x="847" 
d="M365 1169l-140 285h240l51 -149l105 149h239l-237 -285h-258zM578 866l28 158h225l-180 -1024h-225l27 150q-63 -88 -129 -129t-144 -41q-130 0 -167 130t14 410q47 270 133.5 397t222.5 127q147 0 195 -178zM319 156q54 0 94 86.5t74 273.5q32 182 21.5 266t-66.5 84
q-46 0 -82 -82.5t-67 -257.5q-35 -192 -29 -281t55 -89z" />
    <glyph glyph-name="uni01CF" unicode="&#x1cf;" horiz-adv-x="479" 
d="M526 1747h287l-264 -293h-336l-162 293h289l68 -143zM-18 0l237 1337h281l-236 -1337h-282z" />
    <glyph glyph-name="uni01D0" unicode="&#x1d0;" horiz-adv-x="417" 
d="M428 1454h240l-238 -285h-258l-139 285h239l52 -149zM-35 0l182 1024h254l-180 -1024h-256z" />
    <glyph glyph-name="uni01D1" unicode="&#x1d1;" horiz-adv-x="997" 
d="M475 1454l-162 293h289l68 -143l118 143h287l-264 -293h-336zM623 1358q218 0 290.5 -165.5t10.5 -520.5q-61 -357 -193 -524.5t-350 -167.5q-220 0 -293 167t-10 525q63 355 195 520.5t350 165.5zM625 672q47 262 39 385t-72 123q-65 0 -117 -123t-98 -385
q-47 -266 -38 -390t75 -124q63 0 114 124.5t97 389.5z" />
    <glyph glyph-name="uni01D2" unicode="&#x1d2;" horiz-adv-x="831" 
d="M383 1169l-139 285h239l52 -149l104 149h240l-238 -285h-258zM485 1044q188 0 254 -128.5t19 -403.5q-49 -275 -160.5 -403.5t-300.5 -128.5t-255 128.5t-17 403.5q47 275 158 403.5t302 128.5zM489 516q35 189 27.5 278t-59.5 89t-92 -88.5t-74 -278.5q-66 -373 35 -373
q51 0 90 90t73 283z" />
    <glyph glyph-name="uni01D3" unicode="&#x1d3;" horiz-adv-x="950" 
d="M473 1454l-162 293h289l68 -143l118 143h287l-264 -293h-336zM645 401l164 936h174l-166 -940q-36 -199 -146 -308t-288 -109q-200 0 -288.5 110.5t-51.5 312.5l166 934h280l-165 -936q-20 -109 8 -176t114 -67q80 0 129.5 66t69.5 177z" />
    <glyph glyph-name="uni01D4" unicode="&#x1d4;" horiz-adv-x="833" 
d="M375 1169l-139 285h239l51 -149l105 149h239l-237 -285h-258zM446 354l119 670h252l-180 -1024l-256 -20l22 131q-86 -131 -241 -131q-111 0 -149 70t-9 220l131 754h254l-121 -688q-17 -94 -7 -137t48 -43q52 0 85 47.5t52 150.5z" />
    <glyph glyph-name="uni01D5" unicode="&#x1d5;" horiz-adv-x="950" 
d="M428 1815l33 178h555l-33 -178h-555zM342 1454l45 248h242l-45 -248h-242zM696 1454l45 248h244l-45 -248h-244zM383 -20q-200 0 -288.5 110.5t-51.5 312.5l166 934h280l-165 -936q-20 -109 8 -176t114 -67q80 0 129.5 66t69.5 177l164 936h174l-166 -940
q-36 -199 -146 -308t-288 -109z" />
    <glyph glyph-name="uni01D6" unicode="&#x1d6;" horiz-adv-x="833" 
d="M850 1737l-33 -191h-491l32 191h492zM489 1413l-43 -244h-229l43 244h229zM563 1169l43 244h230l-43 -244h-230zM446 354l119 670h252l-180 -1024l-256 -20l22 131q-86 -131 -241 -131q-111 0 -149 70t-9 220l131 754h254l-121 -688q-17 -94 -7 -137t48 -43q52 0 85 47.5
t52 150.5z" />
    <glyph glyph-name="uni01D7" unicode="&#x1d7;" horiz-adv-x="950" 
d="M559 1815l232 292h313l-309 -292h-236zM342 1454l45 248h242l-45 -248h-242zM696 1454l45 248h244l-45 -248h-244zM383 -20q-200 0 -288.5 110.5t-51.5 312.5l166 934h280l-165 -936q-20 -109 8 -176t114 -67q80 0 129.5 66t69.5 177l164 936h174l-166 -940
q-36 -199 -146 -308t-288 -109z" />
    <glyph glyph-name="uni01D8" unicode="&#x1d8;" horiz-adv-x="833" 
d="M952 1831l-305 -285h-205l203 285h307zM489 1413l-43 -244h-229l43 244h229zM563 1169l43 244h230l-43 -244h-230zM446 354l119 670h252l-180 -1024l-256 -20l22 131q-86 -131 -241 -131q-111 0 -149 70t-9 220l131 754h254l-121 -688q-17 -94 -7 -137t48 -43
q52 0 85 47.5t52 150.5z" />
    <glyph glyph-name="uni01D9" unicode="&#x1d9;" horiz-adv-x="950" 
d="M537 1815l-162 292h289l67 -143l119 143h287l-265 -292h-335zM629 1702l-45 -248h-242l45 248h242zM696 1454l45 248h244l-45 -248h-244zM645 401l164 936h174l-166 -940q-36 -199 -146 -308t-288 -109q-200 0 -288.5 110.5t-51.5 312.5l166 934h280l-165 -936
q-20 -109 8 -176t114 -67q80 0 129.5 66t69.5 177z" />
    <glyph glyph-name="uni01DA" unicode="&#x1da;" horiz-adv-x="833" 
d="M442 1546l-139 285h240l51 -150l104 150h240l-238 -285h-258zM489 1413l-43 -244h-229l43 244h229zM563 1169l43 244h230l-43 -244h-230zM446 354l119 670h252l-180 -1024l-256 -20l22 131q-86 -131 -241 -131q-111 0 -149 70t-9 220l131 754h254l-121 -688
q-17 -94 -7 -137t48 -43q52 0 85 47.5t52 150.5z" />
    <glyph glyph-name="uni01DB" unicode="&#x1db;" horiz-adv-x="950" 
d="M590 1815l-189 292h320l117 -292h-248zM342 1454l45 248h242l-45 -248h-242zM696 1454l45 248h244l-45 -248h-244zM383 -20q-200 0 -288.5 110.5t-51.5 312.5l166 934h280l-165 -936q-20 -109 8 -176t114 -67q80 0 129.5 66t69.5 177l164 936h174l-166 -940
q-36 -199 -146 -308t-288 -109z" />
    <glyph glyph-name="uni01DC" unicode="&#x1dc;" horiz-adv-x="833" 
d="M717 1546h-225l-209 285h309zM489 1413l-43 -244h-229l43 244h229zM563 1169l43 244h230l-43 -244h-230zM446 354l119 670h252l-180 -1024l-256 -20l22 131q-86 -131 -241 -131q-111 0 -149 70t-9 220l131 754h254l-121 -688q-17 -94 -7 -137t48 -43q52 0 85 47.5
t52 150.5z" />
    <glyph glyph-name="Gcaron" unicode="&#x1e6;" horiz-adv-x="976" 
d="M489 1454l-161 293h288l68 -143l119 143h287l-265 -293h-336zM76 668q63 356 227 523t451 167q103 0 215 -31l-33 -178q-91 31 -184 31q-149 0 -241 -124t-138 -386q-46 -264 -12.5 -388t151.5 -124q35 0 51 2l72 411h-148l29 168h385l-121 -696q-141 -63 -307 -63
q-269 0 -365 166.5t-32 521.5z" />
    <glyph glyph-name="gcaron" unicode="&#x1e7;" horiz-adv-x="849" 
d="M412 1169l-140 285h240l51 -149l105 149h239l-237 -285h-258zM578 885l24 139l232 10l-179 -1018q-38 -220 -157 -323t-334 -103q-141 0 -242 39l62 174q91 -39 176 -39q101 0 158 54t79 170l21 118q-105 -126 -221 -126q-139 0 -181.5 125.5t7.5 392.5q49 282 139 414
t231 132q140 0 185 -159zM319 156q54 0 94 85t74 269q32 184 22.5 270t-63.5 86q-47 0 -85 -89t-72 -279q-31 -177 -24 -259.5t54 -82.5z" />
    <glyph glyph-name="uni01EA" unicode="&#x1ea;" horiz-adv-x="997" 
d="M623 1358q218 0 290.5 -165.5t10.5 -520.5q-50 -285 -142.5 -448.5t-236.5 -217.5q-39 -47 -49 -98q-5 -34 13.5 -57t59.5 -23q44 0 84 16l-2 -145q-74 -29 -178 -29q-101 0 -149 38t-35 116q11 64 80 156q-212 4 -282.5 171.5t-8.5 520.5q63 355 195 520.5t350 165.5z
M377 672q-47 -266 -38 -390t75 -124q63 0 114 124.5t97 389.5q47 262 39 385t-72 123q-65 0 -117 -123t-98 -385z" />
    <glyph glyph-name="uni01EB" unicode="&#x1eb;" horiz-adv-x="831" 
d="M485 1044q188 0 254 -128.5t19 -403.5q-70 -394 -277 -494q-80 -77 -92 -147q-5 -34 14 -57t60 -23q44 0 84 16l-2 -145q-74 -29 -178 -29q-101 0 -149.5 38t-35.5 116q14 80 109 193q-186 2 -250.5 130.5t-15.5 401.5q47 275 158 403.5t302 128.5zM291 516
q-66 -373 35 -373q51 0 90 90t73 283q35 189 27.5 278t-59.5 89t-92 -88.5t-74 -278.5z" />
    <glyph glyph-name="uni01F4" unicode="&#x1f4;" horiz-adv-x="976" 
d="M1057 1747l-309 -293h-236l231 293h314zM76 668q63 356 227 523t451 167q103 0 215 -31l-33 -178q-91 31 -184 31q-149 0 -241 -124t-138 -386q-46 -264 -12.5 -388t151.5 -124q35 0 51 2l72 411h-148l29 168h385l-121 -696q-141 -63 -307 -63q-269 0 -365 166.5
t-32 521.5z" />
    <glyph glyph-name="uni01F5" unicode="&#x1f5;" horiz-adv-x="849" 
d="M922 1454l-306 -285h-204l202 285h308zM578 885l24 139l232 10l-179 -1018q-38 -220 -157 -323t-334 -103q-141 0 -242 39l62 174q91 -39 176 -39q101 0 158 54t79 170l21 118q-105 -126 -221 -126q-139 0 -181.5 125.5t7.5 392.5q49 282 139 414t231 132q140 0 185 -159
zM319 156q54 0 94 85t74 269q32 184 22.5 270t-63.5 86q-47 0 -85 -89t-72 -279q-31 -177 -24 -259.5t54 -82.5z" />
    <glyph glyph-name="Aringacute" unicode="&#x1fa;" horiz-adv-x="925" 
d="M1047 1876l-281 -264q51 -55 37 -133q-15 -87 -90 -142h20l55 -1337h-280l-10 297h-291l-113 -297h-190l540 1337h15q-54 54 -39 142q21 106 125 159l188 238h314zM680 1477q5 30 -11.5 50.5t-45.5 20.5t-53.5 -21t-28.5 -50q-5 -30 11.5 -51t45.5 -21q30 0 53.5 21
t28.5 51zM270 465h224l-19 539z" />
    <glyph glyph-name="aringacute" unicode="&#x1fb;" horiz-adv-x="847" 
d="M494 1169q-98 0 -152 58t-39 149q13 67 62 119t118 72l174 245h308l-283 -262q43 -27 62.5 -72.5t9.5 -101.5q-15 -91 -88.5 -149t-171.5 -58zM455 1374q-5 -33 12 -54.5t49 -21.5t56.5 22t29.5 54q6 32 -11.5 54t-49.5 22q-31 0 -55.5 -22t-30.5 -54zM578 866l28 158
h225l-180 -1024h-225l27 150q-63 -88 -129 -129t-144 -41q-130 0 -167 130t14 410q47 270 133.5 397t222.5 127q147 0 195 -178zM319 156q54 0 94 86.5t74 273.5q32 182 21.5 266t-66.5 84q-46 0 -82 -82.5t-67 -257.5q-35 -192 -29 -281t55 -89z" />
    <glyph glyph-name="AEacute" unicode="&#x1fc;" horiz-adv-x="1339" 
d="M1225 1747l-310 -293h-235l231 293h314zM1315 1169h-348l-68 -383h320l-29 -168h-322l-80 -450h365l-29 -168h-647l58 317h-285l-133 -317h-213l600 1337h842zM311 465h248l125 704h-80z" />
    <glyph glyph-name="aeacute" unicode="&#x1fd;" horiz-adv-x="1239" 
d="M1118 1454l-305 -285h-205l203 285h307zM915 1044q186 0 251 -126t18 -394q-2 -11 -13 -49h-444q-26 -170 4.5 -251t120.5 -81t209 58v-154q-131 -67 -281 -67q-141 0 -221.5 57.5t-103.5 177.5q-75 -121 -151 -178t-161 -57q-107 0 -145 73.5t-10 229.5
q28 154 105.5 242t213.5 120l182 45l11 60q12 68 -8.5 99.5t-75.5 31.5q-91 0 -256 -52l-6 160q204 55 358 55q133 0 195 -53q89 53 208 53zM750 610h180l2 6q48 267 -39 267q-49 0 -82.5 -65.5t-60.5 -207.5zM293 174q43 0 84 56t51 114l41 227l-68 -18q-60 -17 -95 -69
t-54 -148q-14 -83 -4 -122.5t45 -39.5zM449 260v2v-2z" />
    <glyph glyph-name="Oslashacute" unicode="&#x1fe;" horiz-adv-x="997" 
d="M1065 1747l-309 -293h-236l232 293h313zM971 1337h88l-135 -174q56 -162 0 -491q-61 -357 -193 -524.5t-350 -167.5q-194 0 -272 129l-86 -111h-91l144 184q-54 165 2 490q63 355 195 520.5t350 165.5q189 0 268 -123zM377 672q-11 -61 -21 -127l306 395q20 240 -70 240
q-65 0 -117 -123t-98 -385zM625 672q18 106 22 133l-307 -395q-18 -252 74 -252q63 0 114 124.5t97 389.5z" />
    <glyph glyph-name="oslashacute" unicode="&#x1ff;" horiz-adv-x="831" 
d="M913 1454l-305 -285h-205l203 285h307zM788 1024h68l-108 -127q54 -128 10 -385q-49 -275 -160.5 -403.5t-300.5 -128.5q-169 0 -238 100l-67 -80h-66l107 127q-55 130 -8 385q47 275 158 403.5t302 128.5q167 0 236 -100zM291 516q-2 -10 -8.5 -47t-8.5 -55l242 286
q15 183 -59 183q-52 0 -92 -88.5t-74 -278.5zM489 516q1 6 8 40.5t9 51.5l-240 -282q-12 -183 60 -183q51 0 90 90t73 283z" />
    <glyph glyph-name="uni0200" unicode="&#x200;" horiz-adv-x="925" 
d="M565 1450h-207l-151 295h293zM936 1450h-207l-151 295h292zM733 1337l55 -1337h-280l-10 297h-291l-113 -297h-190l540 1337h289zM270 465h224l-19 539z" />
    <glyph glyph-name="uni0201" unicode="&#x201;" horiz-adv-x="847" 
d="M442 1169h-159l-172 285h272zM780 1169h-159l-172 285h272zM606 1024h225l-180 -1024h-225l27 150q-63 -88 -129 -129t-144 -41q-130 0 -167 130t14 410q47 270 133.5 397t222.5 127q147 0 195 -178zM319 156q54 0 94 86.5t74 273.5q32 182 21.5 266t-66.5 84
q-46 0 -82 -82.5t-67 -257.5q-35 -192 -29 -281t55 -89z" />
    <glyph glyph-name="uni0202" unicode="&#x202;" horiz-adv-x="925" 
d="M676 1731q148 0 223 -75t53 -202h-250q6 40 -9.5 63t-49.5 23t-58.5 -23t-33.5 -63h-248q25 128 125 202.5t248 74.5zM733 1337l55 -1337h-280l-10 297h-291l-113 -297h-190l540 1337h289zM270 465h224l-19 539z" />
    <glyph glyph-name="uni0203" unicode="&#x203;" horiz-adv-x="847" 
d="M510 1255q-36 0 -62.5 -23.5t-35.5 -62.5h-244q29 131 128.5 208t238.5 77q148 0 224.5 -77t59.5 -208h-241q0 40 -18 63t-50 23zM606 1024h225l-180 -1024h-225l27 150q-63 -88 -129 -129t-144 -41q-130 0 -167 130t14 410q47 270 133.5 397t222.5 127q147 0 195 -178z
M319 156q54 0 94 86.5t74 273.5q32 182 21.5 266t-66.5 84q-46 0 -82 -82.5t-67 -257.5q-35 -192 -29 -281t55 -89z" />
    <glyph glyph-name="uni0204" unicode="&#x204;" horiz-adv-x="843" 
d="M483 1450h-207l-151 295h293zM854 1450h-207l-151 295h292zM850 1337l-31 -168h-348l-68 -383h320l-29 -168h-321l-80 -450h364l-28 -168h-647l237 1337h631z" />
    <glyph glyph-name="uni0205" unicode="&#x205;" horiz-adv-x="815" 
d="M473 1169h-160l-172 285h273zM811 1169h-160l-172 285h273zM475 1044q186 0 250.5 -125.5t17.5 -394.5q-2 -17 -12 -49h-444q-26 -170 4.5 -251t120.5 -81t209 58v-154q-131 -67 -281 -67q-212 0 -288 130t-25 408q47 272 155.5 399t292.5 127zM309 610h180l3 6
q48 267 -39 267q-49 0 -83 -66t-61 -207z" />
    <glyph glyph-name="uni0206" unicode="&#x206;" horiz-adv-x="843" 
d="M594 1731q148 0 223 -75t53 -202h-249q6 40 -10 63t-50 23t-58.5 -23t-33.5 -63h-248q25 128 125 202.5t248 74.5zM850 1337l-31 -168h-348l-68 -383h320l-29 -168h-321l-80 -450h364l-28 -168h-647l237 1337h631z" />
    <glyph glyph-name="uni0207" unicode="&#x207;" horiz-adv-x="815" 
d="M565 1454q148 0 225 -77.5t60 -207.5h-242q0 40 -17.5 63t-49.5 23q-36 0 -63 -23.5t-36 -62.5h-243q29 131 128 208t238 77zM475 1044q186 0 250.5 -125.5t17.5 -394.5q-2 -17 -12 -49h-444q-26 -170 4.5 -251t120.5 -81t209 58v-154q-131 -67 -281 -67q-212 0 -288 130
t-25 408q47 272 155.5 399t292.5 127zM309 610h180l3 6q48 267 -39 267q-49 0 -83 -66t-61 -207z" />
    <glyph glyph-name="uni0208" unicode="&#x208;" horiz-adv-x="479" 
d="M111 1450l-152 295h293l65 -295h-206zM481 1450l-151 295h293l65 -295h-207zM-18 0l237 1337h281l-236 -1337h-282z" />
    <glyph glyph-name="uni0209" unicode="&#x209;" horiz-adv-x="417" 
d="M90 1169l-172 285h272l60 -285h-160zM428 1169l-172 285h272l60 -285h-160zM-35 0l182 1024h254l-180 -1024h-256z" />
    <glyph glyph-name="uni020A" unicode="&#x20a;" horiz-adv-x="479" 
d="M55 1454q25 128 125 202.5t248 74.5t223.5 -75t53.5 -202h-250q6 40 -10 63t-50 23t-58.5 -23t-33.5 -63h-248zM-18 0l237 1337h281l-236 -1337h-282z" />
    <glyph glyph-name="uni020B" unicode="&#x20b;" horiz-adv-x="417" 
d="M-25 1169q29 131 128.5 208t238.5 77q148 0 225 -77.5t60 -207.5h-242q0 40 -18 63t-50 23q-36 0 -62.5 -23.5t-35.5 -62.5h-244zM-35 0l182 1024h254l-180 -1024h-256z" />
    <glyph glyph-name="uni020C" unicode="&#x20c;" horiz-adv-x="997" 
d="M373 1450l-152 295h293l66 -295h-207zM743 1450l-151 295h293l65 -295h-207zM381 -20q-220 0 -293 167t-10 525q63 355 195 520.5t350 165.5t290.5 -165.5t10.5 -520.5q-61 -357 -193 -524.5t-350 -167.5zM414 158q63 0 114 124.5t97 389.5q47 262 39 385t-72 123
q-65 0 -117 -123t-98 -385q-47 -266 -38 -390t75 -124z" />
    <glyph glyph-name="uni020D" unicode="&#x20d;" horiz-adv-x="831" 
d="M301 1169l-172 285h272l60 -285h-160zM639 1169l-172 285h272l60 -285h-160zM297 -20q-189 0 -255 128.5t-17 403.5q47 275 158 403.5t302 128.5q188 0 254 -128.5t19 -403.5q-49 -275 -160.5 -403.5t-300.5 -128.5zM326 143q51 0 90 90t73 283q35 189 27.5 278t-59.5 89
t-92 -88.5t-74 -278.5q-66 -373 35 -373z" />
    <glyph glyph-name="uni020E" unicode="&#x20e;" horiz-adv-x="997" 
d="M317 1454q25 128 125 202.5t248 74.5t223.5 -75t53.5 -202h-250q6 40 -10 63t-50 23t-58.5 -23t-33.5 -63h-248zM381 -20q-220 0 -293 167t-10 525q63 355 195 520.5t350 165.5t290.5 -165.5t10.5 -520.5q-61 -357 -193 -524.5t-350 -167.5zM414 158q63 0 114 124.5
t97 389.5q47 262 39 385t-72 123q-65 0 -117 -123t-98 -385q-47 -266 -38 -390t75 -124z" />
    <glyph glyph-name="uni020F" unicode="&#x20f;" horiz-adv-x="831" 
d="M186 1169q29 131 128.5 208t238.5 77q148 0 225 -77.5t60 -207.5h-242q0 40 -18 63t-50 23q-36 0 -62.5 -23.5t-35.5 -62.5h-244zM297 -20q-189 0 -255 128.5t-17 403.5q47 275 158 403.5t302 128.5q188 0 254 -128.5t19 -403.5q-49 -275 -160.5 -403.5t-300.5 -128.5z
M326 143q51 0 90 90t73 283q35 189 27.5 278t-59.5 89t-92 -88.5t-74 -278.5q-66 -373 35 -373z" />
    <glyph glyph-name="uni0210" unicode="&#x210;" horiz-adv-x="980" 
d="M557 1450h-207l-151 295h293zM928 1450h-207l-152 295h293zM936 928q-49 -275 -217 -379l112 -549h-286l-96 485h-5h-94l-86 -485h-282l237 1337h375q214 0 296.5 -98.5t45.5 -310.5zM471 1169l-92 -516h67q72 0 118.5 66t72.5 207q22 126 -2 184.5t-96 58.5h-68z" />
    <glyph glyph-name="uni0211" unicode="&#x211;" horiz-adv-x="641" 
d="M387 1169h-160l-172 285h273zM725 1169h-160l-172 285h273zM367 842q113 202 251 202q39 0 58 -8l-60 -268q-52 25 -94 25q-86 0 -137 -67t-76 -210l-92 -516h-252l180 1024h254z" />
    <glyph glyph-name="uni0212" unicode="&#x212;" horiz-adv-x="980" 
d="M635 1540q-34 0 -58.5 -23t-33.5 -63h-248q25 128 125 202.5t248 74.5t223 -75t53 -202h-250q6 40 -9.5 63t-49.5 23zM594 1337q214 0 296.5 -98.5t45.5 -310.5q-49 -275 -217 -379l112 -549h-286l-96 485h-5h-94l-86 -485h-282l237 1337h375zM471 1169l-92 -516h67
q72 0 118.5 66t72.5 207q22 126 -2 184.5t-96 58.5h-68z" />
    <glyph glyph-name="uni0213" unicode="&#x213;" horiz-adv-x="641" 
d="M479 1454q148 0 225 -77.5t60 -207.5h-242q0 40 -17.5 63t-49.5 23q-36 0 -63 -23.5t-36 -62.5h-243q29 131 128 208t238 77zM367 842q113 202 251 202q39 0 58 -8l-60 -268q-52 25 -94 25q-86 0 -137 -67t-76 -210l-92 -516h-252l180 1024h254z" />
    <glyph glyph-name="uni0214" unicode="&#x214;" horiz-adv-x="950" 
d="M371 1450l-152 295h293l66 -295h-207zM741 1450l-151 295h293l65 -295h-207zM383 -20q-200 0 -288.5 110.5t-51.5 312.5l166 934h280l-165 -936q-20 -109 8 -176t114 -67q80 0 129.5 66t69.5 177l164 936h174l-166 -940q-36 -199 -146 -308t-288 -109z" />
    <glyph glyph-name="uni0215" unicode="&#x215;" horiz-adv-x="833" 
d="M453 1169h-160l-172 285h272zM791 1169h-160l-172 285h272zM565 1024h252l-180 -1024l-256 -20l22 131q-86 -131 -241 -131q-111 0 -149 70t-9 220l131 754h254l-121 -688q-17 -94 -7 -137t48 -43q52 0 85 47.5t52 150.5z" />
    <glyph glyph-name="uni0216" unicode="&#x216;" horiz-adv-x="950" 
d="M315 1454q25 128 125 202.5t248 74.5t223.5 -75t53.5 -202h-250q6 40 -10 63t-50 23t-58.5 -23t-33.5 -63h-248zM383 -20q-200 0 -288.5 110.5t-51.5 312.5l166 934h280l-165 -936q-20 -109 8 -176t114 -67q80 0 129.5 66t69.5 177l164 936h174l-166 -940
q-36 -199 -146 -308t-288 -109z" />
    <glyph glyph-name="uni0217" unicode="&#x217;" horiz-adv-x="833" 
d="M545 1454q148 0 224.5 -77t59.5 -208h-241q0 40 -18 63t-50 23q-36 0 -62.5 -23.5t-35.5 -62.5h-244q29 131 128.5 208t238.5 77zM446 354l119 670h252l-180 -1024l-256 -20l22 131q-86 -131 -241 -131q-111 0 -149 70t-9 220l131 754h254l-121 -688q-17 -94 -7 -137
t48 -43q52 0 85 47.5t52 150.5z" />
    <glyph glyph-name="uni0218" unicode="&#x218;" horiz-adv-x="815" 
d="M608 1178q-67 0 -117.5 -51.5t-62.5 -125.5q-5 -24 -5.5 -45t4 -38.5t10 -32.5t16.5 -28.5t21 -24t25 -21.5t27 -19t29 -18q64 -36 104 -75t61 -102.5t7 -143.5q-38 -215 -195.5 -344t-367.5 -129q-117 0 -223 47l69 192q88 -59 189 -59q88 0 150 50.5t79 141.5
q8 50 -11.5 90.5t-42 60t-74.5 55.5l-21 15q-93 65 -138 152t-22 213q31 182 165.5 301t315.5 119q147 0 244 -31l-64 -182q-71 36 -172 33zM43 -143h276l-32 -187l-25 -139q-22 -122 -115.5 -192t-207.5 -70l24 141q49 0 89.5 31t49.5 82l9 49h-119z" />
    <glyph glyph-name="uni0219" unicode="&#x219;" horiz-adv-x="688" 
d="M471 883q-45 0 -80.5 -34.5t-44.5 -84.5q-3 -16 -3.5 -30t2.5 -25.5t6 -20.5t11 -18t13.5 -14.5t17 -13.5t17.5 -11.5t19.5 -11t19.5 -11.5q37 -20 62.5 -41.5t49 -55.5t28 -73.5t-2.5 -95.5q-30 -174 -147.5 -268t-291.5 -94q-126 0 -210 36l59 172q80 -45 178 -45
q63 0 109 39t57 99q1 16 2.5 27.5t-3 23t-7 19t-11.5 16t-15 13.5t-18 12t-20.5 11.5t-21.5 11.5t-23 13q-180 102 -145 297q26 145 140.5 232t264.5 87q106 0 191 -28l-58 -164q-58 31 -145 31zM88 -143h277l-33 -187l-25 -139q-22 -122 -115.5 -192t-207.5 -70l24 141
q49 0 89.5 31t49.5 82l9 49h-119z" />
    <glyph glyph-name="uni021A" unicode="&#x21a;" horiz-adv-x="876" 
d="M963 1337l-29 -168h-264l-207 -1169h-281l207 1169h-266l31 168h809zM158 -143h276l-33 -187l-24 -139q-22 -122 -116 -192t-208 -70l25 141q49 0 89.5 31t49.5 82l8 49h-119z" />
    <glyph glyph-name="uni021B" unicode="&#x21b;" horiz-adv-x="555" 
d="M395 844l-94 -535q-12 -74 3 -108.5t61 -34.5q44 0 65 6l-29 -166q-95 -26 -155 -26q-132 0 -181 76.5t-20 240.5l96 547h-90l31 180h92l33 186l264 62l-43 -248h156l-33 -180h-156zM23 -143h276l-33 -187l-24 -139q-22 -122 -116 -192t-208 -70l25 141q49 0 89.5 31
t49.5 82l8 49h-119z" />
    <glyph glyph-name="uni0232" unicode="&#x232;" horiz-adv-x="911" 
d="M934 1632l-33 -178h-555l33 178h555zM823 1337h189l-424 -825l-90 -512h-281l90 512l-166 825h293l111 -563z" />
    <glyph glyph-name="uni0233" unicode="&#x233;" horiz-adv-x="722" 
d="M758 1360l-33 -191h-492l33 191h492zM623 1024h157l-594 -1413h-153l162 389h-68l-55 1024h272l8 -659z" />
    <glyph glyph-name="uni0237" unicode="&#x237;" horiz-adv-x="413" 
d="M-115 -412q-103 0 -207 37l62 176q52 -16 84 -16q52 0 82.5 31.5t42.5 99.5l196 1108h254l-198 -1122q-28 -161 -104.5 -237.5t-211.5 -76.5z" />
    <glyph glyph-name="uni0259" unicode="&#x259;" horiz-adv-x="815" 
d="M426 1044q210 0 285 -129.5t28 -408.5q-47 -271 -156 -398.5t-294 -127.5t-249 126t-17 394q10 45 12 49h444q26 172 -4 253t-121 81q-89 0 -211 -58v152q131 67 283 67zM313 143q47 0 81.5 65.5t60.5 205.5h-183v-4q-45 -267 41 -267z" />
    <glyph glyph-name="uni0272" unicode="&#x272;" horiz-adv-x="843" 
d="M631 1044q117 0 151.5 -63.5t5.5 -226.5l-147 -840q-31 -179 -112 -251.5t-226 -72.5q-90 0 -184 37l57 154q47 -14 82 -14q55 0 85 30.5t42 98.5l135 772q19 100 10 140t-51 40q-57 0 -94 -54.5t-51 -144.5l-2 -2l-115 -647h-252l180 1024l256 20l-24 -135
q95 135 254 135z" />
    <glyph glyph-name="circumflex" unicode="&#x2c6;" horiz-adv-x="811" 
d="M817 1169h-244l-49 168l-108 -168h-244l209 285h326z" />
    <glyph glyph-name="caron" unicode="&#x2c7;" horiz-adv-x="800" 
d="M616 1454h240l-238 -285h-258l-139 285h240l51 -149z" />
    <glyph glyph-name="breve" unicode="&#x2d8;" horiz-adv-x="813" 
d="M489 1169q-140 0 -212.5 77.5t-55.5 207.5h254q-5 -43 10.5 -68.5t46.5 -25.5q25 0 48 25.5t38 68.5h250q-29 -131 -131.5 -208t-247.5 -77z" />
    <glyph glyph-name="dotaccent" unicode="&#x2d9;" horiz-adv-x="425" 
d="M172 1169l45 263h260l-45 -263h-260z" />
    <glyph glyph-name="ring" unicode="&#x2da;" horiz-adv-x="616" 
d="M397 1169q-98 0 -151.5 58t-38.5 149q17 88 90.5 145.5t171.5 57.5t151.5 -57.5t36.5 -145.5q-15 -91 -88.5 -149t-171.5 -58zM420 1298q32 0 56.5 22t29.5 54q6 32 -12 54t-50 22q-31 0 -55.5 -22t-30.5 -54q-5 -33 12.5 -54.5t49.5 -21.5z" />
    <glyph glyph-name="ogonek" unicode="&#x2db;" horiz-adv-x="550" 
d="M94 -467q-101 0 -149 38t-35 116q14 77 98.5 180t171.5 147h144q-101 -75 -149.5 -133t-57.5 -110q-5 -34 13.5 -57t59.5 -23q44 0 84 16l-2 -145q-74 -29 -178 -29z" />
    <glyph glyph-name="tilde" unicode="&#x2dc;" horiz-adv-x="796" 
d="M594 1169q-44 0 -95 33t-73 33q-44 0 -70 -66h-184q40 131 109.5 208t148.5 77q30 0 56.5 -9.5t42 -21t33.5 -21t34 -9.5q21 0 40.5 16t29.5 43h186q-43 -130 -112.5 -206.5t-145.5 -76.5z" />
    <glyph glyph-name="hungarumlaut" unicode="&#x2dd;" horiz-adv-x="925" 
d="M172 1169l158 285h293l-252 -285h-199zM530 1169l158 285h293l-252 -285h-199z" />
    <glyph glyph-name="gravecomb" unicode="&#x300;" 
d="M2 1169l-209 285h309l125 -285h-225z" />
    <glyph glyph-name="acutecomb" unicode="&#x301;" 
d="M51 1169l203 285h307l-305 -285h-205z" />
    <glyph glyph-name="uni0302" unicode="&#x302;" 
d="M604 1169h-244l-49 168l-108 -168h-244l209 285h326z" />
    <glyph glyph-name="tildecomb" unicode="&#x303;" 
d="M279 1169q-44 0 -95 33t-73 33q-44 0 -70 -66h-184q40 131 109.5 208t148.5 77q30 0 56.5 -9.5t42 -21t33.5 -21t34 -9.5q21 0 40 16t29 43h187q-43 -130 -112.5 -206.5t-145.5 -76.5z" />
    <glyph glyph-name="uni0304" unicode="&#x304;" 
d="M-184 1169l32 191h492l-33 -191h-491z" />
    <glyph glyph-name="uni0306" unicode="&#x306;" 
d="M115 1169q-140 0 -213 77.5t-56 207.5h254q-4 -43 11.5 -68.5t46.5 -25.5q25 0 48 25.5t38 68.5h250q-29 -131 -131.5 -208t-247.5 -77z" />
    <glyph glyph-name="uni0307" unicode="&#x307;" 
d="M6 1169l45 263h260l-45 -263h-260z" />
    <glyph glyph-name="uni0308" unicode="&#x308;" 
d="M-152 1169l43 244h230l-43 -244h-230zM195 1169l43 244h229l-43 -244h-229z" />
    <glyph glyph-name="uni030A" unicode="&#x30a;" 
d="M94 1169q-98 0 -151.5 58t-38.5 149q17 88 90.5 145.5t171.5 57.5t151.5 -57.5t36.5 -145.5q-15 -91 -88.5 -149t-171.5 -58zM117 1298q32 0 56.5 22t29.5 54q6 32 -12 54t-50 22q-31 0 -55.5 -22t-30.5 -54q-5 -33 12.5 -54.5t49.5 -21.5z" />
    <glyph glyph-name="uni030B" unicode="&#x30b;" 
d="M-59 1169l157 285h293l-252 -285h-198zM299 1169l158 285h293l-252 -285h-199z" />
    <glyph glyph-name="uni030C" unicode="&#x30c;" 
d="M414 1454h239l-237 -285h-258l-140 285h240l51 -149z" />
    <glyph glyph-name="uni030F" unicode="&#x30f;" 
d="M-408 1169l-172 285h273l59 -285h-160zM-70 1169l-172 285h273l59 -285h-160z" />
    <glyph glyph-name="uni0311" unicode="&#x311;" 
d="M-477 1169q29 131 128 208t238 77q148 0 225 -77t60 -208h-242q0 40 -17.5 63t-49.5 23q-36 0 -62.5 -23.5t-35.5 -62.5h-244z" />
    <glyph glyph-name="uni0312" unicode="&#x312;" 
d="M469 1681q-57 0 -102.5 -35.5t-55.5 -93.5l-10 -59h135l-57 -324h-313l36 211l29 162q25 140 131 219.5t236 79.5z" />
    <glyph glyph-name="dotbelowcomb" unicode="&#x323;" 
d="M-449 -432l52 289h280l-51 -289h-281z" />
    <glyph glyph-name="uni0326" unicode="&#x326;" 
d="M-121 -143l-33 -187l-24 -139q-22 -122 -116 -192t-208 -70l25 141q49 0 89.5 31t49.5 82l8 49h-119l52 285h276z" />
    <glyph glyph-name="uni0327" unicode="&#x327;" 
d="M160 -90q122 -14 159 -57t25 -113q-11 -61 -53 -107t-107 -72t-140 -38.5t-163 -14.5l-2 113q53 4 91 11t71 19.5t52 34t24 52.5t-25.5 54.5t-124.5 37.5l111 178h135z" />
    <glyph glyph-name="uni0328" unicode="&#x328;" 
d="M-184 -467q-101 0 -149.5 38t-35.5 116q14 77 99 180t172 147h143q-101 -75 -149.5 -133t-57.5 -110q-5 -34 14 -57t60 -23q44 0 84 16l-2 -145q-74 -29 -178 -29z" />
    <glyph glyph-name="uni03BC" unicode="&#x3bc;" horiz-adv-x="827" 
d="M565 1024h252l-180 -1024l-256 -20l22 131q-86 -131 -241 -131h-15l-28 -488h-246l119 672q0 47 12 106l131 754h254l-121 -688q-17 -94 -7 -137t48 -43q52 0 85 47.5t52 150.5z" />
    <glyph glyph-name="uni1E02" unicode="&#x1e02;" horiz-adv-x="958" 
d="M754 1716l-47 -262h-261l48 262h260zM922 1032q-23 -128 -81.5 -199.5t-158.5 -93.5q115 -13 155.5 -92.5t12.5 -232.5q-38 -214 -162.5 -314t-353.5 -100h-352l237 1337h344q212 0 298.5 -73.5t60.5 -231.5zM524 1169h-53l-65 -370h57q66 0 104.5 48.5t57.5 151.5
q15 87 -10 128.5t-91 41.5zM551 408q22 116 -5 170.5t-104 54.5h-67l-82 -465h72q75 0 119.5 57.5t66.5 182.5z" />
    <glyph glyph-name="uni1E03" unicode="&#x1e03;" horiz-adv-x="849" 
d="M539 1823l-45 -262h-261l46 262h260zM616 1044q129 0 168.5 -125.5t-6.5 -392.5q-51 -283 -138.5 -414.5t-225.5 -131.5q-150 0 -195 170l-26 -150h-226l248 1415h254l-86 -495q106 124 233 124zM510 526q60 340 -29 340q-53 0 -93.5 -81.5t-72.5 -252.5l-10 -49
q-27 -169 -15 -248t66 -79q46 0 83 89t71 281z" />
    <glyph glyph-name="uni1E0A" unicode="&#x1e0a;" horiz-adv-x="985" 
d="M766 1716l-47 -262h-260l47 262h260zM578 1337q232 0 312.5 -158.5t20.5 -498.5q-63 -350 -201 -515t-368 -165h-360l237 1337h359zM612 672q43 256 22.5 376.5t-108.5 120.5h-55l-178 -1001h57q89 0 152.5 122t109.5 382z" />
    <glyph glyph-name="uni1E0B" unicode="&#x1e0b;" horiz-adv-x="847" 
d="M711 1823h260l-45 -262h-260zM559 920l88 495h252l-248 -1415h-225l27 150q-119 -170 -273 -170q-130 0 -167 130t14 410q47 270 133.5 397t222.5 127q126 0 176 -124zM319 156q54 0 94 86.5t74 273.5q32 182 21.5 266t-66.5 84q-46 0 -82 -82.5t-67 -257.5
q-35 -192 -29 -281t55 -89z" />
    <glyph glyph-name="uni1E0C" unicode="&#x1e0c;" horiz-adv-x="985" 
d="M578 1337q232 0 312.5 -158.5t20.5 -498.5q-63 -350 -201 -515t-368 -165h-360l237 1337h359zM612 672q43 256 22.5 376.5t-108.5 120.5h-55l-178 -1001h57q89 0 152.5 122t109.5 382zM184 -432l52 289h280l-51 -289h-281z" />
    <glyph glyph-name="uni1E0D" unicode="&#x1e0d;" horiz-adv-x="847" 
d="M647 1415h252l-248 -1415h-225l27 150q-119 -170 -273 -170q-130 0 -167 130t14 410q47 270 133.5 397t222.5 127q126 0 176 -124zM319 156q54 0 94 86.5t74 273.5q32 182 21.5 266t-66.5 84q-46 0 -82 -82.5t-67 -257.5q-35 -192 -29 -281t55 -89zM117 -432l51 289h281
l-52 -289h-280z" />
    <glyph glyph-name="uni1E1E" unicode="&#x1e1e;" horiz-adv-x="819" 
d="M741 1716l-47 -262h-260l47 262h260zM819 1169h-348l-74 -409h322l-29 -168h-321l-105 -592h-282l237 1337h631z" />
    <glyph glyph-name="uni1E1F" unicode="&#x1e1f;" horiz-adv-x="501" 
d="M627 1823l-45 -262h-260l45 262h260zM545 1251q-87 0 -113 -164l-10 -63h131l-31 -176h-133l-217 -1237h-254l219 1237h-96l31 176h96l14 76q31 173 109.5 254.5t216.5 81.5q57 0 139 -23l-47 -170q-31 8 -55 8z" />
    <glyph glyph-name="uni1E24" unicode="&#x1e24;" horiz-adv-x="993" 
d="M733 1337h281l-236 -1337h-280l110 625h-233l-111 -625h-282l237 1337h281l-97 -544h234zM190 -432l52 289h280l-51 -289h-281z" />
    <glyph glyph-name="uni1E25" unicode="&#x1e25;" horiz-adv-x="835" 
d="M621 1044q109 0 147 -69.5t12 -220.5l-133 -754h-254l121 686q15 94 5 137t-48 43q-51 0 -83.5 -47.5t-51.5 -150.5l-119 -668h-252l246 1395l256 20l-88 -502q85 131 242 131zM111 -432l51 289h280l-51 -289h-280z" />
    <glyph glyph-name="uni1E40" unicode="&#x1e40;" horiz-adv-x="1357" 
d="M1004 1716l-48 -262h-260l47 262h261zM1225 1337l-29 -1337h-281l33 889l-327 -889h-222l-14 883l-281 -883h-184l447 1337h280l8 -807l306 807h264z" />
    <glyph glyph-name="uni1E41" unicode="&#x1e41;" horiz-adv-x="1239" 
d="M907 1432l-45 -263h-260l45 263h260zM1030 1044q106 0 143 -69.5t11 -220.5l-133 -754h-254l121 686q17 94 8.5 137t-43.5 43q-48 0 -79 -45t-50 -143l-119 -678h-254l121 686q17 94 8.5 137t-43.5 43q-49 0 -80.5 -47.5t-50.5 -150.5h-2l-117 -668h-252l180 1024l256 20
l-22 -131q83 131 235 131q77 0 117.5 -39t44.5 -122q44 83 106 122t148 39z" />
    <glyph glyph-name="uni1E44" unicode="&#x1e44;" horiz-adv-x="993" 
d="M842 1716l-47 -262h-260l47 262h260zM842 1337h172l-236 -1337h-213l-256 868l-153 -868h-174l237 1337h252l227 -813z" />
    <glyph glyph-name="uni1E45" unicode="&#x1e45;" horiz-adv-x="835" 
d="M705 1432l-46 -263h-260l45 263h261zM621 1044q109 0 147 -69.5t12 -220.5l-133 -754h-254l121 686q15 94 5 137t-48 43q-51 0 -83.5 -47.5t-51.5 -150.5h-2l-117 -668h-252l180 1024l256 20l-22 -131q85 131 242 131z" />
    <glyph glyph-name="uni1E56" unicode="&#x1e56;" horiz-adv-x="948" 
d="M778 1716l-47 -262h-260l47 262h260zM590 1337q214 0 295 -103.5t43 -324.5q-41 -242 -161.5 -355.5t-334.5 -113.5h-90l-78 -440h-282l237 1337h371zM629 909q25 133 2 196.5t-96 63.5h-64l-100 -561h65q72 0 118.5 73t74.5 228z" />
    <glyph glyph-name="uni1E57" unicode="&#x1e57;" horiz-adv-x="845" 
d="M711 1432l-45 -263h-260l45 263h260zM600 1044q137 0 178 -131.5t-8 -414.5q-46 -267 -128.5 -392.5t-213.5 -125.5q-127 0 -190 126l-88 -495h-254l249 1413h230l-25 -139q102 159 250 159zM504 498q34 190 27 279t-54 89q-55 0 -95.5 -85.5t-72.5 -270.5
q-34 -183 -23 -268.5t68 -85.5q88 0 150 342z" />
    <glyph glyph-name="uni1E5A" unicode="&#x1e5a;" horiz-adv-x="980" 
d="M936 928q-49 -275 -217 -379l112 -549h-286l-96 485h-5h-94l-86 -485h-282l237 1337h375q214 0 296.5 -98.5t45.5 -310.5zM471 1169l-92 -516h67q72 0 118.5 66t72.5 207q22 126 -2 184.5t-96 58.5h-68zM184 -432l52 289h280l-51 -289h-281z" />
    <glyph glyph-name="uni1E5B" unicode="&#x1e5b;" horiz-adv-x="641" 
d="M618 1044q39 0 58 -8l-60 -268q-52 25 -94 25q-86 0 -137 -67t-76 -210l-92 -516h-252l180 1024h254l-32 -182q113 202 251 202zM-125 -432l51 289h281l-51 -289h-281z" />
    <glyph glyph-name="uni1E60" unicode="&#x1e60;" horiz-adv-x="815" 
d="M444 1454l48 262h260l-47 -262h-261zM164 -20q-117 0 -223 47l69 192q88 -59 189 -59q88 0 150 50.5t79 141.5q8 50 -11.5 90.5t-42 60t-74.5 55.5l-21 15q-93 65 -138 152t-22 213q31 182 165.5 301t315.5 119q147 0 244 -31l-64 -182q-71 36 -172 33
q-67 0 -117.5 -51.5t-62.5 -125.5q-5 -24 -5.5 -45t4 -38.5t10 -32.5t16.5 -28.5t21 -24t25 -21.5t27 -19t29 -18q64 -36 104 -75t61 -102.5t7 -143.5q-38 -215 -195.5 -344t-367.5 -129z" />
    <glyph glyph-name="uni1E61" unicode="&#x1e61;" horiz-adv-x="688" 
d="M305 1169l45 263h260l-45 -263h-260zM147 -20q-126 0 -210 36l59 172q80 -45 178 -45q63 0 109 39t57 99q1 16 2.5 27.5t-3 23t-7 19t-11.5 16t-15 13.5t-18 12t-20.5 11.5t-21.5 11.5t-23 13q-180 102 -145 297q26 145 140.5 232t264.5 87q106 0 191 -28l-58 -164
q-58 31 -145 31q-45 0 -80.5 -34.5t-44.5 -84.5q-3 -16 -3.5 -30t2.5 -25.5t6 -20.5t11 -18t13.5 -14.5t17 -13.5t17.5 -11.5t19.5 -11t19.5 -11.5q37 -20 62.5 -41.5t49 -55.5t28 -73.5t-2.5 -95.5q-30 -174 -147.5 -268t-291.5 -94z" />
    <glyph glyph-name="uni1E62" unicode="&#x1e62;" horiz-adv-x="815" 
d="M164 -20q-117 0 -223 47l69 192q88 -59 189 -59q88 0 150 50.5t79 141.5q8 50 -11.5 90.5t-42 60t-74.5 55.5l-21 15q-93 65 -138 152t-22 213q31 182 165.5 301t315.5 119q147 0 244 -31l-64 -182q-71 36 -172 33q-67 0 -117.5 -51.5t-62.5 -125.5q-5 -24 -5.5 -45
t4 -38.5t10 -32.5t16.5 -28.5t21 -24t25 -21.5t27 -19t29 -18q64 -36 104 -75t61 -102.5t7 -143.5q-38 -215 -195.5 -344t-367.5 -129zM-8 -432l51 289h281l-52 -289h-280z" />
    <glyph glyph-name="uni1E63" unicode="&#x1e63;" horiz-adv-x="688" 
d="M147 -20q-126 0 -210 36l59 172q80 -45 178 -45q63 0 109 39t57 99q1 16 2.5 27.5t-3 23t-7 19t-11.5 16t-15 13.5t-18 12t-20.5 11.5t-21.5 11.5t-23 13q-180 102 -145 297q26 145 140.5 232t264.5 87q106 0 191 -28l-58 -164q-58 31 -145 31q-45 0 -80.5 -34.5
t-44.5 -84.5q-3 -16 -3.5 -30t2.5 -25.5t6 -20.5t11 -18t13.5 -14.5t17 -13.5t17.5 -11.5t19.5 -11t19.5 -11.5q37 -20 62.5 -41.5t49 -55.5t28 -73.5t-2.5 -95.5q-30 -174 -147.5 -268t-291.5 -94zM37 -432l51 289h281l-52 -289h-280z" />
    <glyph glyph-name="uni1E6A" unicode="&#x1e6a;" horiz-adv-x="876" 
d="M758 1716l-47 -262h-260l47 262h260zM963 1337l-29 -168h-264l-207 -1169h-281l207 1169h-266l31 168h809z" />
    <glyph glyph-name="uni1E6B" unicode="&#x1e6b;" horiz-adv-x="555" 
d="M541 1620l-45 -262h-260l45 262h260zM395 844l-94 -535q-12 -74 3 -108.5t61 -34.5q44 0 65 6l-29 -166q-95 -26 -155 -26q-132 0 -181 76.5t-20 240.5l96 547h-90l31 180h92l33 186l264 62l-43 -248h156l-33 -180h-156z" />
    <glyph glyph-name="uni1E6C" unicode="&#x1e6c;" horiz-adv-x="876" 
d="M963 1337l-29 -168h-264l-207 -1169h-281l207 1169h-266l31 168h809zM106 -432l52 289h280l-51 -289h-281z" />
    <glyph glyph-name="uni1E6D" unicode="&#x1e6d;" horiz-adv-x="555" 
d="M395 844l-94 -535q-12 -74 3 -108.5t61 -34.5q44 0 65 6l-29 -166q-95 -26 -155 -26q-132 0 -181 76.5t-20 240.5l96 547h-90l31 180h92l33 186l264 62l-43 -248h156l-33 -180h-156zM-29 -432l52 289h280l-51 -289h-281z" />
    <glyph glyph-name="Wgrave" unicode="&#x1e80;" horiz-adv-x="1347" 
d="M985 1454h-248l-188 293h319zM1262 1337h186l-483 -1337h-246l-2 862l-305 -862h-260l-11 1337h289l-4 -786l272 786h283l2 -790z" />
    <glyph glyph-name="wgrave" unicode="&#x1e81;" horiz-adv-x="1103" 
d="M836 1169h-226l-209 285h310zM1004 1024h157l-405 -1024h-207l-17 545l-206 -545h-201l-53 1024h270l8 -641l238 641h178l8 -625z" />
    <glyph glyph-name="Wacute" unicode="&#x1e82;" horiz-adv-x="1347" 
d="M1251 1747l-309 -293h-235l231 293h313zM1262 1337h186l-483 -1337h-246l-2 862l-305 -862h-260l-11 1337h289l-4 -786l272 786h283l2 -790z" />
    <glyph glyph-name="wacute" unicode="&#x1e83;" horiz-adv-x="1103" 
d="M1071 1454l-305 -285h-205l203 285h307zM1004 1024h157l-405 -1024h-207l-17 545l-206 -545h-201l-53 1024h270l8 -641l238 641h178l8 -625z" />
    <glyph glyph-name="Wdieresis" unicode="&#x1e84;" horiz-adv-x="1347" 
d="M840 1702l-45 -248h-242l45 248h242zM1196 1702l-45 -248h-244l45 248h244zM1262 1337h186l-483 -1337h-246l-2 862l-305 -862h-260l-11 1337h289l-4 -786l272 786h283l2 -790z" />
    <glyph glyph-name="wdieresis" unicode="&#x1e85;" horiz-adv-x="1103" 
d="M676 1413l-43 -244h-230l43 244h230zM1022 1413l-43 -244h-229l43 244h229zM1004 1024h157l-405 -1024h-207l-17 545l-206 -545h-201l-53 1024h270l8 -641l238 641h178l8 -625z" />
    <glyph glyph-name="uni1E92" unicode="&#x1e92;" horiz-adv-x="802" 
d="M848 1337l-543 -1169h361l-31 -168h-707l549 1169h-323l28 168h666zM94 -432l51 289h281l-51 -289h-281z" />
    <glyph glyph-name="uni1E93" unicode="&#x1e93;" horiz-adv-x="686" 
d="M707 1024l-435 -856h281l-29 -166h-600l434 858h-254l31 164h572zM37 -432l51 289h281l-52 -289h-280z" />
    <glyph glyph-name="uni1E9E" unicode="&#x1e9e;" horiz-adv-x="1630" 
d="M164 -20q-117 0 -223 47l69 192q88 -59 189 -59q88 0 150 50.5t79 141.5q8 50 -11.5 90.5t-42 60t-74.5 55.5l-21 15q-93 65 -138 152t-22 213q31 182 165.5 301t315.5 119q147 0 244 -31l-64 -182q-71 36 -172 33q-67 0 -117.5 -51.5t-62.5 -125.5q-5 -24 -5.5 -45
t4 -38.5t10 -32.5t16.5 -28.5t21 -24t25 -21.5t27 -19t29 -18q64 -36 104 -75t61 -102.5t7 -143.5q-38 -215 -195.5 -344t-367.5 -129zM979 -20q-117 0 -223 47l69 192q88 -59 189 -59q88 0 150 50.5t79 141.5q8 50 -11.5 90.5t-42 60t-74.5 55.5q-3 3 -5 4t-5 3.5t-5.5 4
t-5.5 3.5q-93 65 -138 152t-22 213q31 182 165.5 301t315.5 119q147 0 244 -31l-64 -182q-71 36 -172 33q-67 0 -117.5 -51.5t-62.5 -125.5q-5 -24 -5.5 -45t4 -38.5t10 -32.5t16.5 -28.5t21 -24t25 -21.5t27 -19t29 -18q64 -36 104 -75t61 -102.5t7 -143.5
q-38 -215 -195.5 -344t-367.5 -129z" />
    <glyph glyph-name="uni1EA0" unicode="&#x1ea0;" horiz-adv-x="925" 
d="M788 0h-280l-10 297h-291l-113 -297h-190l540 1337h289zM270 465h224l-19 539zM84 -432l51 289h281l-51 -289h-281z" />
    <glyph glyph-name="uni1EA1" unicode="&#x1ea1;" horiz-adv-x="847" 
d="M606 1024h225l-180 -1024h-225l27 150q-63 -88 -129 -129t-144 -41q-130 0 -167 130t14 410q47 270 133.5 397t222.5 127q147 0 195 -178zM319 156q54 0 94 86.5t74 273.5q32 182 21.5 266t-66.5 84q-46 0 -82 -82.5t-67 -257.5q-35 -192 -29 -281t55 -89zM88 -432
l51 289h281l-51 -289h-281z" />
    <glyph glyph-name="uni1EB8" unicode="&#x1eb8;" horiz-adv-x="843" 
d="M819 1169h-348l-68 -383h320l-29 -168h-321l-80 -450h364l-28 -168h-647l237 1337h631zM104 -432l52 289h280l-51 -289h-281z" />
    <glyph glyph-name="uni1EB9" unicode="&#x1eb9;" horiz-adv-x="815" 
d="M475 1044q186 0 250.5 -125.5t17.5 -394.5q-2 -17 -12 -49h-444q-26 -170 4.5 -251t120.5 -81t209 58v-154q-131 -67 -281 -67q-212 0 -288 130t-25 408q47 272 155.5 399t292.5 127zM309 610h180l3 6q48 267 -39 267q-49 0 -83 -66t-61 -207zM100 -432l52 289h280
l-51 -289h-281z" />
    <glyph glyph-name="uni1EBC" unicode="&#x1ebc;" horiz-adv-x="843" 
d="M477 1524q-28 0 -52.5 -19t-37.5 -51h-201q40 134 120.5 213.5t178.5 79.5q42 0 76.5 -18t60.5 -36t48 -18q27 0 51.5 20t36.5 52h196q-40 -133 -119 -213t-171 -80q-39 0 -73.5 17.5t-62 35t-51.5 17.5zM850 1337l-31 -168h-348l-68 -383h320l-29 -168h-321l-80 -450
h364l-28 -168h-647l237 1337h631z" />
    <glyph glyph-name="uni1EBD" unicode="&#x1ebd;" horiz-adv-x="815" 
d="M702 1452h187q-43 -130 -112.5 -206.5t-145.5 -76.5q-44 0 -95 33t-73 33q-44 0 -70 -66h-184q40 131 109.5 208t148.5 77q30 0 56.5 -9.5t42 -21t33.5 -21t34 -9.5q21 0 40 16t29 43zM475 1044q186 0 250.5 -125.5t17.5 -394.5q-2 -17 -12 -49h-444q-26 -170 4.5 -251
t120.5 -81t209 58v-154q-131 -67 -281 -67q-212 0 -288 130t-25 408q47 272 155.5 399t292.5 127zM309 610h180l3 6q48 267 -39 267q-49 0 -83 -66t-61 -207z" />
    <glyph glyph-name="uni1ECA" unicode="&#x1eca;" horiz-adv-x="479" 
d="M-18 0l237 1337h281l-236 -1337h-282zM-94 -432l51 289h281l-52 -289h-280z" />
    <glyph glyph-name="uni1ECB" unicode="&#x1ecb;" horiz-adv-x="417" 
d="M172 1171l51 281h252l-49 -281h-254zM-33 0l180 1024h254l-182 -1024h-252zM-98 -432l51 289h280l-51 -289h-280z" />
    <glyph glyph-name="uni1ECC" unicode="&#x1ecc;" horiz-adv-x="997" 
d="M381 -20q-220 0 -293 167t-10 525q63 355 195 520.5t350 165.5t290.5 -165.5t10.5 -520.5q-61 -357 -193 -524.5t-350 -167.5zM414 158q63 0 114 124.5t97 389.5q47 262 39 385t-72 123q-65 0 -117 -123t-98 -385q-47 -266 -38 -390t75 -124zM170 -432l51 289h281
l-51 -289h-281z" />
    <glyph glyph-name="uni1ECD" unicode="&#x1ecd;" horiz-adv-x="831" 
d="M297 -20q-189 0 -255 128.5t-17 403.5q47 275 158 403.5t302 128.5q188 0 254 -128.5t19 -403.5q-49 -275 -160.5 -403.5t-300.5 -128.5zM326 143q51 0 90 90t73 283q35 189 27.5 278t-59.5 89t-92 -88.5t-74 -278.5q-66 -373 35 -373zM88 -432l51 289h281l-51 -289h-281
z" />
    <glyph glyph-name="uni1EE4" unicode="&#x1ee4;" horiz-adv-x="950" 
d="M383 -20q-200 0 -288.5 110.5t-51.5 312.5l166 934h280l-165 -936q-20 -109 8 -176t114 -67q80 0 129.5 66t69.5 177l164 936h174l-166 -940q-36 -199 -146 -308t-288 -109zM168 -432l51 289h281l-51 -289h-281z" />
    <glyph glyph-name="uni1EE5" unicode="&#x1ee5;" horiz-adv-x="833" 
d="M565 1024h252l-180 -1024l-256 -20l22 131q-86 -131 -241 -131q-111 0 -149 70t-9 220l131 754h254l-121 -688q-17 -94 -7 -137t48 -43q52 0 85 47.5t52 150.5zM104 -432l52 289h280l-51 -289h-281z" />
    <glyph glyph-name="Ygrave" unicode="&#x1ef2;" horiz-adv-x="911" 
d="M756 1454h-248l-189 293h320zM823 1337h189l-424 -825l-90 -512h-281l90 512l-166 825h293l111 -563z" />
    <glyph glyph-name="ygrave" unicode="&#x1ef3;" horiz-adv-x="722" 
d="M625 1169h-226l-209 285h310zM623 1024h157l-594 -1413h-153l162 389h-68l-55 1024h272l8 -659z" />
    <glyph glyph-name="uni1EF8" unicode="&#x1ef8;" horiz-adv-x="911" 
d="M553 1524q-28 0 -52.5 -19t-37.5 -51h-201q40 134 120.5 213.5t178.5 79.5q42 0 76.5 -18t60 -36t47.5 -18q27 0 52 20t37 52h196q-40 -133 -119.5 -213t-171.5 -80q-39 0 -73 17.5t-61.5 35t-51.5 17.5zM545 774l278 563h189l-424 -825l-90 -512h-281l90 512l-166 825
h293z" />
    <glyph glyph-name="uni1EF9" unicode="&#x1ef9;" horiz-adv-x="722" 
d="M418 1235q-44 0 -70 -66h-184q40 131 109.5 208t148.5 77q30 0 56.5 -9.5t42 -21t33.5 -21t34 -9.5q21 0 40 16t29 43h187q-43 -130 -112.5 -206.5t-145.5 -76.5q-44 0 -95 33t-73 33zM352 365l271 659h157l-594 -1413h-153l162 389h-68l-55 1024h272z" />
    <glyph glyph-name="endash" unicode="&#x2013;" horiz-adv-x="1105" 
d="M41 453l39 217h952l-39 -217h-952z" />
    <glyph glyph-name="emdash" unicode="&#x2014;" horiz-adv-x="1519" 
d="M41 453l39 217h1366l-39 -217h-1366z" />
    <glyph glyph-name="quoteleft" unicode="&#x2018;" horiz-adv-x="479" 
d="M485 1178q-57 0 -102 -35.5t-55 -93.5l-11 -60h136l-58 -323h-313l65 372q25 140 131 219.5t236 79.5z" />
    <glyph glyph-name="quoteright" unicode="&#x2019;" horiz-adv-x="479" 
d="M201 1337h313l-65 -372q-25 -140 -131 -219.5t-236 -79.5l29 159q57 0 102 36t55 95l11 58h-136z" />
    <glyph glyph-name="quotesinglbase" unicode="&#x201a;" horiz-adv-x="466" 
d="M20 309h302l-64 -354q-24 -133 -126 -210t-226 -77l28 154q54 0 97.5 34t52.5 89l10 55h-129z" />
    <glyph glyph-name="quotedblleft" unicode="&#x201c;" horiz-adv-x="923" 
d="M147 1038q17 94 74.5 163.5t134 102.5t160.5 33l-29 -159q-57 0 -102 -35.5t-55 -93.5l-11 -60h136l-58 -323h-315zM930 1178q-57 0 -102.5 -35.5t-55.5 -93.5l-10 -60h135l-57 -323h-316l66 372q17 94 74.5 163.5t133.5 102.5t160 33z" />
    <glyph glyph-name="quotedblright" unicode="&#x201d;" horiz-adv-x="921" 
d="M143 1014l58 323h313l-65 -372q-25 -140 -131 -219.5t-236 -79.5l29 159q57 0 102 36t55 95l11 58h-136zM643 1337h313l-65 -372q-25 -140 -131 -219.5t-236 -79.5l29 159q57 0 102.5 36t55.5 95l10 58h-135z" />
    <glyph glyph-name="quotedblbase" unicode="&#x201e;" horiz-adv-x="878" 
d="M20 309h302l-64 -354q-24 -133 -126 -210t-226 -77l28 154q54 0 97.5 34t52.5 89l10 55h-129zM432 309h301l-63 -354q-24 -133 -126.5 -210t-226.5 -77l29 154q54 0 97.5 34t52.5 89l10 55h-129z" />
    <glyph glyph-name="dagger" unicode="&#x2020;" horiz-adv-x="942" 
d="M913 846l-28 -168h-281l-188 -1067h-258l188 1067h-280l30 168h281l86 491h258l-86 -491h278z" />
    <glyph glyph-name="daggerdbl" unicode="&#x2021;" horiz-adv-x="942" 
d="M889 705h-281l-82 -467h281l-29 -168h-280l-82 -459h-258l82 459h-283l31 168h280l82 467h-278l28 167h281l82 465h258l-82 -465h281z" />
    <glyph glyph-name="bullet" unicode="&#x2022;" horiz-adv-x="538" 
d="M37 412l72 401h372l-71 -401h-373z" />
    <glyph glyph-name="ellipsis" unicode="&#x2026;" horiz-adv-x="1400" 
d="M-35 0l55 309h302l-56 -309h-301zM432 0l55 309h301l-55 -309h-301zM899 0l55 309h301l-55 -309h-301z" />
    <glyph glyph-name="perthousand" unicode="&#x2030;" horiz-adv-x="1779" 
d="M295 702q-127 0 -172.5 79.5t-16.5 248.5t103.5 248.5t202.5 79.5q123 0 166.5 -79.5t15.5 -248.5q-29 -169 -101.5 -248.5t-197.5 -79.5zM125 0l797 1337h170l-799 -1337h-168zM311 799q53 0 92 233q42 230 -10 230q-57 0 -96 -230q-42 -233 14 -233zM809 -18
q-127 0 -172 79t-16 248t103 248.5t202 79.5q124 0 167.5 -79.5t14.5 -248.5t-101.5 -248t-197.5 -79zM1380 -18q-127 0 -172 79t-16 248t103 248.5t202 79.5q124 0 167.5 -79.5t14.5 -248.5t-101.5 -248t-197.5 -79zM825 78q54 0 93 233q42 230 -11 230q-57 0 -96 -230
q-42 -233 14 -233zM1397 78q53 0 92 233q42 230 -10 230q-58 0 -97 -230q-42 -233 15 -233z" />
    <glyph glyph-name="guilsinglleft" unicode="&#x2039;" horiz-adv-x="577" 
d="M555 858l-281 -317l166 -314h-241l-160 316l270 315h246z" />
    <glyph glyph-name="guilsinglright" unicode="&#x203a;" horiz-adv-x="577" 
d="M340 858l160 -315l-271 -316h-245l280 318l-166 313h242z" />
    <glyph glyph-name="fraction" unicode="&#x2044;" horiz-adv-x="256" 
d="M-420 0l850 1337h252l-852 -1337h-250z" />
    <glyph glyph-name="Euro" unicode="&#x20ac;" horiz-adv-x="903" 
d="M743 1165q-146 0 -223 -323h303l-69 -123h-699l68 123h115q67 265 195 390.5t329 125.5q51 0 196 -29l-63 -291zM461 504q-19 -172 8 -253t102 -81q68 0 146 37l-4 -187q-110 -40 -244 -40q-182 0 -253 127t-40 397h-160l70 123h623l-70 -123h-178z" />
    <glyph glyph-name="trademark" unicode="&#x2122;" horiz-adv-x="1269" 
d="M590 1217h-146l-104 -586h-119l103 586h-144l21 120h411zM1139 1337h174l-125 -706h-113l99 563l-250 -563h-76l-51 555l-99 -555h-114l125 706h176l43 -481z" />
    <glyph glyph-name="arrowleft" unicode="&#x2190;" horiz-adv-x="1290" 
d="M1239 754l-45 -250h-659l213 -293h-375l-307 418l454 418h379l-317 -293h657z" />
    <glyph glyph-name="arrowup" unicode="&#x2191;" horiz-adv-x="976" 
d="M954 969l-59 -338l-238 268l-157 -899h-254l157 893l-329 -266l59 342l479 387z" />
    <glyph glyph-name="arrowright" unicode="&#x2192;" horiz-adv-x="1290" 
d="M909 1047l308 -418l-455 -418h-381l319 293h-657l45 250h660l-213 293h374z" />
    <glyph glyph-name="arrowdown" unicode="&#x2193;" horiz-adv-x="976" 
d="M580 453l331 268l-61 -342l-479 -387l-342 387l61 338l236 -266l157 897h254z" />
    <glyph glyph-name="arrowboth" unicode="&#x2194;" horiz-adv-x="1789" 
d="M1440 1047l274 -418l-422 -418h-379l297 293h-688l193 -293h-375l-274 418l421 418h379l-297 -293h688l-192 293h375z" />
    <glyph glyph-name="arrowupdn" unicode="&#x2195;" horiz-adv-x="866" 
d="M815 817l-190 203l-123 -696l264 204l-41 -229l-410 -317l-301 317l41 225l193 -205l123 699l-267 -205l43 229l410 316l299 -316z" />
    <glyph glyph-name="uni2196" unicode="&#x2196;" horiz-adv-x="1445" 
d="M1280 156l-211 -179l-682 900l-80 -455l-223 264l115 651h637l221 -266h-471z" />
    <glyph glyph-name="uni2197" unicode="&#x2197;" horiz-adv-x="1445" 
d="M850 1337h637l-113 -651l-317 -264l80 452l-998 -897l-149 179l1018 915h-473z" />
    <glyph glyph-name="uni2198" unicode="&#x2198;" horiz-adv-x="1445" 
d="M1143 915l225 -264l-117 -651h-637l-221 266h473l-696 916l211 176l682 -897z" />
    <glyph glyph-name="uni2199" unicode="&#x2199;" horiz-adv-x="1445" 
d="M1460 1182l-1016 -916h471l-313 -266h-641l117 651l315 264l-78 -452l996 895z" />
    <glyph glyph-name="minus" unicode="&#x2212;" horiz-adv-x="837" 
d="M33 420l37 213h690l-37 -213h-690z" />
    <glyph glyph-name="uni2713" unicode="&#x2713;" horiz-adv-x="888" 
d="M319 477l525 393l-49 -274l-523 -387l-223 227l47 273z" />
    <glyph glyph-name="uniF8FF" unicode="&#xf8ff;" horiz-adv-x="1363" 
d="M668 0q-160 0 -296 79t-215 215t-79 296t79 296t215 215t296 79t296 -79t214.5 -215t78.5 -296t-78.5 -296t-214.5 -215t-296 -79zM528 236h269l2 12l-101 20v387h56q56 0 83 -36t27 -87q0 -120 -94 -120h-29v-15h37q66 0 107 39t41 107q0 66 -42.5 97.5t-115.5 31.5h-70
v153l209 -10l35 -110l23 4l-11 149h-577l-12 -149l22 -4l37 110l209 10v-557l-101 -20z" />
    <glyph glyph-name="L_periodcentered_L.loclCAT" horiz-adv-x="1734" 
d="M500 1337l-207 -1169h352l-29 -168h-634l237 1337h281zM1217 168h352l-29 -168h-635l238 1337h280zM518 559l60 309h301l-60 -309h-301z" />
    <glyph glyph-name="l_periodcentered_l.loclCAT" horiz-adv-x="1212" 
d="M-35 0l246 1397l256 20l-250 -1417h-252zM750 0l245 1397l256 20l-250 -1417h-251zM432 561l55 309h301l-55 -309h-301z" />
    <glyph glyph-name="a.sc" horiz-adv-x="794" 
d="M395 0l-8 227h-227l-90 -227h-168l432 1024h268l60 -1024h-267zM209 354h174l-14 408z" />
    <glyph glyph-name="aacute.sc" horiz-adv-x="794" 
d="M879 1454l-271 -285h-215l199 285h287zM602 1024l60 -1024h-267l-8 227h-227l-90 -227h-168l432 1024h268zM209 354h174l-14 408z" />
    <glyph glyph-name="abreve.sc" horiz-adv-x="794" 
d="M625 1417h215q-25 -114 -115.5 -182t-218.5 -68q-120 0 -183.5 68t-48.5 182h218q-5 -37 9.5 -59.5t43.5 -22.5q25 0 47.5 22.5t32.5 59.5zM602 1024l60 -1024h-267l-8 227h-227l-90 -227h-168l432 1024h268zM209 354h174l-14 408z" />
    <glyph glyph-name="uni01CE.sc" horiz-adv-x="794" 
d="M365 1169l-132 285h256l48 -156l98 156h256l-232 -285h-294zM602 1024l60 -1024h-267l-8 227h-227l-90 -227h-168l432 1024h268zM209 354h174l-14 408z" />
    <glyph glyph-name="acircumflex.sc" horiz-adv-x="794" 
d="M541 1325l-101 -156h-256l230 285h295l133 -285h-256zM602 1024l60 -1024h-267l-8 227h-227l-90 -227h-168l432 1024h268zM209 354h174l-14 408z" />
    <glyph glyph-name="uni0201.sc" horiz-adv-x="794" 
d="M449 1169h-158l-139 285h241zM766 1169h-158l-139 285h242zM602 1024l60 -1024h-267l-8 227h-227l-90 -227h-168l432 1024h268zM209 354h174l-14 408z" />
    <glyph glyph-name="adieresis.sc" horiz-adv-x="794" 
d="M502 1434l-45 -265h-250l45 265h250zM618 1434h250l-45 -265h-250zM602 1024l60 -1024h-267l-8 227h-227l-90 -227h-168l432 1024h268zM209 354h174l-14 408z" />
    <glyph glyph-name="uni1EA1.sc" horiz-adv-x="794" 
d="M387 227h-227l-90 -227h-168l432 1024h268l60 -1024h-267zM369 762l-160 -408h174zM90 -432l51 289h281l-51 -289h-281z" />
    <glyph glyph-name="agrave.sc" horiz-adv-x="794" 
d="M637 1159h-221l-176 246h292zM395 0l-8 227h-227l-90 -227h-168l432 1024h268l60 -1024h-267zM209 354h174l-14 408z" />
    <glyph glyph-name="uni0203.sc" horiz-adv-x="794" 
d="M518 1417q128 0 195.5 -68t52.5 -182h-215q2 37 -12 59.5t-39 22.5q-29 0 -51.5 -22.5t-30.5 -59.5h-217q25 114 111 182t206 68zM602 1024l60 -1024h-267l-8 227h-227l-90 -227h-168l432 1024h268zM209 354h174l-14 408z" />
    <glyph glyph-name="amacron.sc" horiz-adv-x="794" 
d="M293 1315h491l-24 -146h-492zM602 1024l60 -1024h-267l-8 227h-227l-90 -227h-168l432 1024h268zM209 354h174l-14 408z" />
    <glyph glyph-name="aogonek.sc" horiz-adv-x="794" 
d="M412 -229q-5 -34 13.5 -57t59.5 -23q44 0 84 16l-2 -145q-74 -29 -178 -29q-101 0 -149 38t-35 116q12 70 87.5 166t158.5 147h-56l-8 227h-227l-90 -227h-168l432 1024h268l60 -1024h-62q-169 -127 -188 -229zM209 354h174l-14 408z" />
    <glyph glyph-name="aring.sc" horiz-adv-x="794" 
d="M733 1196q-10 -59 -44.5 -108t-86.5 -80l60 -1008h-267l-8 227h-227l-90 -227h-168l426 1010q-81 68 -60 186q17 95 95 159t176 64q100 0 155.5 -64t38.5 -159zM406 1194q-6 -40 15 -67t60 -27q40 0 71.5 27t37.5 67q7 39 -15.5 65.5t-62.5 26.5q-38 0 -68.5 -26
t-37.5 -66zM209 354h174l-14 408z" />
    <glyph glyph-name="aringacute.sc" horiz-adv-x="794" 
d="M659 1364q42 -30 61 -78.5t9 -107.5q-21 -117 -125 -185l58 -993h-267l-8 227h-227l-90 -227h-168l420 993q-79 66 -58 185q13 73 64.5 130.5t122.5 80.5l155 221h287zM401 1176q-6 -40 15.5 -67.5t60.5 -27.5q40 0 71.5 27.5t37.5 67.5q7 39 -15.5 65.5t-62.5 26.5
q-38 0 -69 -26t-38 -66zM209 354h174l-14 408z" />
    <glyph glyph-name="atilde.sc" horiz-adv-x="794" 
d="M692 1421h176q-35 -114 -103.5 -183t-146.5 -69q-43 0 -93 30t-70 30q-23 0 -44 -17t-32 -43h-176q34 115 104 184.5t152 69.5q46 0 97 -28.5t71 -28.5t38 15t27 40zM602 1024l60 -1024h-267l-8 227h-227l-90 -227h-168l432 1024h268zM209 354h174l-14 408z" />
    <glyph glyph-name="ae.sc" horiz-adv-x="1173" 
d="M1114 889h-303l-49 -283h278l-24 -135h-279l-57 -334h313l-24 -137h-568l41 236h-241l-103 -236h-196l489 1024h748zM254 354h211l94 533h-74z" />
    <glyph glyph-name="aeacute.sc" horiz-adv-x="1153" 
d="M1036 1325l-254 -215h-178l193 215h239zM1112 889h-303l-49 -283h278l-24 -135h-279l-57 -334h313l-24 -137h-568l41 236h-241l-103 -236h-196l489 1024h748zM252 354h211l94 533h-74z" />
    <glyph glyph-name="b.sc" horiz-adv-x="843" 
d="M778 791q-13 -86 -64 -148t-120 -80q78 -12 113 -82.5t16 -171.5q-29 -160 -115 -234.5t-241 -74.5h-394l181 1024h346q166 0 233 -56.5t45 -176.5zM426 889h-43l-49 -279h45q116 0 139 148q12 68 -10 99.5t-82 31.5zM459 309q14 88 -8.5 129t-85.5 41h-54l-59 -342h57
q61 0 97 41t53 131z" />
    <glyph glyph-name="uni1E03.sc" horiz-adv-x="843" 
d="M715 1423l-45 -254h-260l45 254h260zM778 791q-13 -86 -64 -148t-120 -80q78 -12 113 -82.5t16 -171.5q-29 -160 -115 -234.5t-241 -74.5h-394l181 1024h346q166 0 233 -56.5t45 -176.5zM426 889h-43l-49 -279h45q116 0 139 148q12 68 -10 99.5t-82 31.5zM459 309
q14 88 -8.5 129t-85.5 41h-54l-59 -342h57q61 0 97 41t53 131z" />
    <glyph glyph-name="c.sc" horiz-adv-x="684" 
d="M291 -16q-179 0 -239 128.5t-11 405.5q47 269 163.5 395.5t317.5 126.5q48 0 172 -22l-49 -219l-131 96q-73 0 -123 -91t-84 -286q-36 -201 -18 -296t92 -95q59 0 123 27l2 -140q-114 -30 -215 -30z" />
    <glyph glyph-name="cacute.sc" horiz-adv-x="684" 
d="M342 1169l199 285h286l-270 -285h-215zM291 -16q-179 0 -239 128.5t-11 405.5q47 269 163.5 395.5t317.5 126.5q48 0 172 -22l-49 -219l-131 96q-73 0 -123 -91t-84 -286q-36 -201 -18 -296t92 -95q59 0 123 27l2 -140q-114 -30 -215 -30z" />
    <glyph glyph-name="ccaron.sc" horiz-adv-x="684" 
d="M313 1169l-131 285h256l47 -156l99 156h256l-232 -285h-295zM41 518q47 269 163.5 395.5t317.5 126.5q48 0 172 -22l-49 -219l-131 96q-73 0 -123 -91t-84 -286q-36 -201 -18 -296t92 -95q59 0 123 27l2 -140q-114 -30 -215 -30q-179 0 -239 128.5t-11 405.5z" />
    <glyph glyph-name="ccedilla.sc" horiz-adv-x="684" 
d="M522 1040q48 0 172 -22l-49 -219l-131 96q-73 0 -123 -91t-84 -286q-36 -201 -18 -296t92 -95q59 0 123 27l2 -140q-99 -27 -187 -30l-40 -74q122 -14 159 -57t25 -113q-11 -61 -53 -107t-107 -72t-140 -38.5t-163 -14.5l-2 113q53 4 91 11t71 19.5t52 34t24 52.5
t-25.5 54.5t-124.5 37.5l102 166q-117 34 -153 162t6 360q47 269 163.5 395.5t317.5 126.5z" />
    <glyph glyph-name="ccircumflex.sc" horiz-adv-x="684" 
d="M489 1325l-100 -156h-256l229 285h295l134 -285h-256zM41 518q47 269 163.5 395.5t317.5 126.5q48 0 172 -22l-49 -219l-131 96q-73 0 -123 -91t-84 -286q-36 -201 -18 -296t92 -95q59 0 123 27l2 -140q-114 -30 -215 -30q-179 0 -239 128.5t-11 405.5z" />
    <glyph glyph-name="cdotaccent.sc" horiz-adv-x="684" 
d="M334 1169l45 254h260l-45 -254h-260zM291 -16q-179 0 -239 128.5t-11 405.5q47 269 163.5 395.5t317.5 126.5q48 0 172 -22l-49 -219l-131 96q-73 0 -123 -91t-84 -286q-36 -201 -18 -296t92 -95q59 0 123 27l2 -140q-114 -30 -215 -30z" />
    <glyph glyph-name="d.sc" horiz-adv-x="864" 
d="M471 1024q204 0 278.5 -121.5t28.5 -380.5q-47 -268 -165.5 -395t-321.5 -127h-318l181 1024h317zM512 514q34 194 12.5 284.5t-102.5 90.5h-39l-131 -752h41q78 0 131.5 91.5t87.5 285.5z" />
    <glyph glyph-name="eth.sc" horiz-adv-x="870" 
d="M479 1024q203 0 277 -121.5t28 -380.5q-46 -269 -163.5 -395.5t-321.5 -126.5h-326l80 457h-51l25 139h51l76 428h325zM520 514q34 194 12.5 284.5t-100.5 90.5h-49l-51 -293h114l-24 -139h-115l-55 -320h49q80 0 132.5 91t86.5 286z" />
    <glyph glyph-name="dcaron.sc" horiz-adv-x="864" 
d="M399 1169l-131 285h256l47 -156l99 156h256l-232 -285h-295zM471 1024q204 0 278.5 -121.5t28.5 -380.5q-47 -268 -165.5 -395t-321.5 -127h-318l181 1024h317zM512 514q34 194 12.5 284.5t-102.5 90.5h-39l-131 -752h41q78 0 131.5 91.5t87.5 285.5z" />
    <glyph glyph-name="dcroat.sc" horiz-adv-x="870" 
d="M479 1024q203 0 277 -121.5t28 -380.5q-46 -269 -163.5 -395.5t-321.5 -126.5h-326l80 457h-51l25 139h51l76 428h325zM522 514q23 129 20.5 212t-30 123t-80.5 40h-49l-51 -293h114l-24 -139h-115l-55 -320h49q80 0 133.5 91.5t87.5 285.5z" />
    <glyph glyph-name="uni1E0B.sc" horiz-adv-x="864" 
d="M725 1423l-45 -254h-260l45 254h260zM471 1024q204 0 278.5 -121.5t28.5 -380.5q-47 -268 -165.5 -395t-321.5 -127h-318l181 1024h317zM512 514q34 194 12.5 284.5t-102.5 90.5h-39l-131 -752h41q78 0 131.5 91.5t87.5 285.5z" />
    <glyph glyph-name="uni1E0D.sc" horiz-adv-x="864" 
d="M471 1024q204 0 278.5 -121.5t28.5 -380.5q-47 -268 -165.5 -395t-321.5 -127h-318l181 1024h317zM512 514q34 194 12.5 284.5t-102.5 90.5h-39l-131 -752h41q78 0 131.5 91.5t87.5 285.5zM125 -432l51 289h281l-51 -289h-281z" />
    <glyph glyph-name="e.sc" horiz-adv-x="745" 
d="M686 891h-301l-51 -287h276l-22 -133h-279l-57 -336h311l-22 -135h-568l181 1024h555z" />
    <glyph glyph-name="eacute.sc" horiz-adv-x="745" 
d="M844 1454l-271 -285h-215l199 285h287zM709 1024l-23 -133h-301l-51 -287h276l-22 -133h-279l-57 -336h311l-22 -135h-568l181 1024h555z" />
    <glyph glyph-name="ebreve.sc" horiz-adv-x="745" 
d="M590 1417h215q-25 -114 -115.5 -182t-218.5 -68q-120 0 -183 68t-48 182h217q-5 -37 9.5 -59.5t43.5 -22.5q25 0 47.5 22.5t32.5 59.5zM709 1024l-23 -133h-301l-51 -287h276l-22 -133h-279l-57 -336h311l-22 -135h-568l181 1024h555z" />
    <glyph glyph-name="ecaron.sc" horiz-adv-x="745" 
d="M330 1169l-131 285h256l47 -156l98 156h256l-231 -285h-295zM709 1024l-23 -133h-301l-51 -287h276l-22 -133h-279l-57 -336h311l-22 -135h-568l181 1024h555z" />
    <glyph glyph-name="ecircumflex.sc" horiz-adv-x="745" 
d="M506 1325l-100 -156h-256l229 285h295l133 -285h-256zM709 1024l-23 -133h-301l-51 -287h276l-22 -133h-279l-57 -336h311l-22 -135h-568l181 1024h555z" />
    <glyph glyph-name="uni0205.sc" horiz-adv-x="745" 
d="M414 1169h-158l-139 285h241zM731 1169h-158l-139 285h242zM709 1024l-23 -133h-301l-51 -287h276l-22 -133h-279l-57 -336h311l-22 -135h-568l181 1024h555z" />
    <glyph glyph-name="edieresis.sc" horiz-adv-x="745" 
d="M467 1434l-45 -265h-250l45 265h250zM584 1434h250l-46 -265h-249zM709 1024l-23 -133h-301l-51 -287h276l-22 -133h-279l-57 -336h311l-22 -135h-568l181 1024h555z" />
    <glyph glyph-name="edotaccent.sc" horiz-adv-x="745" 
d="M655 1423l-45 -254h-260l45 254h260zM686 891h-301l-51 -287h276l-22 -133h-279l-57 -336h311l-22 -135h-568l181 1024h555z" />
    <glyph glyph-name="uni1EB9.sc" horiz-adv-x="745" 
d="M686 891h-301l-51 -287h276l-22 -133h-279l-57 -336h311l-22 -135h-568l181 1024h555zM55 -432l51 289h281l-51 -289h-281z" />
    <glyph glyph-name="egrave.sc" horiz-adv-x="745" 
d="M602 1159h-221l-176 246h293zM686 891h-301l-51 -287h276l-22 -133h-279l-57 -336h311l-22 -135h-568l181 1024h555z" />
    <glyph glyph-name="uni0207.sc" horiz-adv-x="745" 
d="M483 1417q128 0 195.5 -68t52.5 -182h-215q2 37 -12 59.5t-39 22.5q-29 0 -52 -22.5t-30 -59.5h-217q25 114 111 182t206 68zM709 1024l-23 -133h-301l-51 -287h276l-22 -133h-279l-57 -336h311l-22 -135h-568l181 1024h555z" />
    <glyph glyph-name="emacron.sc" horiz-adv-x="745" 
d="M258 1315h492l-25 -146h-492zM709 1024l-23 -133h-301l-51 -287h276l-22 -133h-279l-57 -336h311l-22 -135h-568l181 1024h555z" />
    <glyph glyph-name="eogonek.sc" horiz-adv-x="745" 
d="M686 891h-301l-51 -287h276l-22 -133h-279l-57 -336h311l-22 -135h-23q-169 -127 -188 -229q-5 -34 13.5 -57t59.5 -23q44 0 84 16l-2 -145q-74 -29 -178 -29q-101 0 -149 38t-35 116q12 70 87.5 166t158.5 147h-396l181 1024h555z" />
    <glyph glyph-name="uni1EBD.sc" horiz-adv-x="745" 
d="M657 1421h177q-35 -114 -103.5 -183t-146.5 -69q-43 0 -93.5 30t-70.5 30q-23 0 -44 -17t-32 -43h-176q34 115 104 184.5t152 69.5q46 0 97 -28.5t71 -28.5t38 15t27 40zM709 1024l-23 -133h-301l-51 -287h276l-22 -133h-279l-57 -336h311l-22 -135h-568l181 1024h555z
" />
    <glyph glyph-name="uni0259.sc" horiz-adv-x="843" 
d="M440 1044q210 0 285.5 -129.5t28.5 -408.5q-47 -271 -156.5 -398.5t-294.5 -127.5t-249 126t-17 394q10 45 12 49h445q26 172 -4 253t-121 81q-89 0 -211 -58v152q131 67 282 67zM328 143q47 0 81 65.5t60 205.5h-182v-4q-45 -267 41 -267z" />
    <glyph glyph-name="f.sc" horiz-adv-x="702" 
d="M686 891h-301l-55 -305h278l-24 -135h-277l-80 -451h-254l181 1024h555z" />
    <glyph glyph-name="uni1E1F.sc" horiz-adv-x="702" 
d="M645 1423l-45 -254h-260l45 254h260zM686 891h-301l-55 -305h278l-24 -135h-277l-80 -451h-254l181 1024h555z" />
    <glyph glyph-name="g.sc" horiz-adv-x="868" 
d="M614 901q-124 0 -199 -93.5t-110 -293.5q-37 -201 -10 -296t121 -95h39l55 309h-111l25 135h340l-96 -532q-125 -51 -271 -51q-233 0 -319 127t-39 399q47 274 185 402t384 128q116 0 203 -22l-25 -139q-81 22 -172 22z" />
    <glyph glyph-name="uni01F5.sc" horiz-adv-x="868" 
d="M915 1454l-270 -285h-215l199 285h286zM39 510q47 274 185 402t384 128q116 0 203 -22l-25 -139q-81 22 -172 22q-124 0 -199 -93.5t-110 -293.5q-37 -201 -10 -296t121 -95h39l55 309h-111l25 135h340l-96 -532q-125 -51 -271 -51q-233 0 -319 127t-39 399z" />
    <glyph glyph-name="gbreve.sc" horiz-adv-x="868" 
d="M543 1167q-120 0 -183.5 68t-48.5 182h217q-5 -37 10 -59.5t44 -22.5q25 0 47.5 22.5t32.5 59.5h215q-25 -114 -115.5 -182t-218.5 -68zM39 510q47 274 185 402t384 128q116 0 203 -22l-25 -139q-81 22 -172 22q-124 0 -199 -93.5t-110 -293.5q-37 -201 -10 -296t121 -95
h39l55 309h-111l25 135h340l-96 -532q-125 -51 -271 -51q-233 0 -319 127t-39 399z" />
    <glyph glyph-name="gcaron.sc" horiz-adv-x="868" 
d="M401 1169l-131 285h256l47 -156l99 156h256l-232 -285h-295zM39 510q47 274 185 402t384 128q116 0 203 -22l-25 -139q-81 22 -172 22q-124 0 -199 -93.5t-110 -293.5q-37 -201 -10 -296t121 -95h39l55 309h-111l25 135h340l-96 -532q-125 -51 -271 -51q-233 0 -319 127
t-39 399z" />
    <glyph glyph-name="gcircumflex.sc" horiz-adv-x="868" 
d="M578 1325l-101 -156h-256l230 285h294l134 -285h-256zM39 510q47 274 185 402t384 128q116 0 203 -22l-25 -139q-81 22 -172 22q-124 0 -199 -93.5t-110 -293.5q-37 -201 -10 -296t121 -95h39l55 309h-111l25 135h340l-96 -532q-125 -51 -271 -51q-233 0 -319 127
t-39 399z" />
    <glyph glyph-name="uni0123.sc" horiz-adv-x="868" 
d="M614 901q-124 0 -199 -93.5t-110 -293.5q-37 -201 -10 -296t121 -95h39l55 309h-111l25 135h340l-96 -532q-125 -51 -271 -51q-233 0 -319 127t-39 399q47 274 185 402t384 128q116 0 203 -22l-25 -139q-81 22 -172 22zM178 -143h277l-33 -187l-25 -139
q-22 -122 -115.5 -192t-207.5 -70l24 141q49 0 90 31t50 82l8 49h-119z" />
    <glyph glyph-name="gdotaccent.sc" horiz-adv-x="868" 
d="M727 1423l-45 -254h-260l45 254h260zM614 901q-124 0 -199 -93.5t-110 -293.5q-37 -201 -10 -296t121 -95h39l55 309h-111l25 135h340l-96 -532q-125 -51 -271 -51q-233 0 -319 127t-39 399q47 274 185 402t384 128q116 0 203 -22l-25 -139q-81 22 -172 22z" />
    <glyph glyph-name="h.sc" horiz-adv-x="876" 
d="M600 1024h252l-180 -1024h-254l84 475h-191l-84 -475h-254l181 1024h254l-74 -416h192z" />
    <glyph glyph-name="hbar.sc" horiz-adv-x="890" 
d="M915 883l-16 -90h-72l-141 -793h-252l84 475h-207l-84 -475h-254l140 793h-74l14 90h76l25 141h254l-25 -141h207l24 141h254l-24 -141h71zM541 610l32 183h-206l-33 -183h207z" />
    <glyph glyph-name="hcircumflex.sc" horiz-adv-x="876" 
d="M582 1325l-101 -156h-256l230 285h295l133 -285h-256zM526 608l74 416h252l-180 -1024h-254l84 475h-191l-84 -475h-254l181 1024h254l-74 -416h192z" />
    <glyph glyph-name="uni1E25.sc" horiz-adv-x="876" 
d="M600 1024h252l-180 -1024h-254l84 475h-191l-84 -475h-254l181 1024h254l-74 -416h192zM131 -432l51 289h281l-51 -289h-281z" />
    <glyph glyph-name="i.sc" horiz-adv-x="432" 
d="M-27 0l181 1024h254l-181 -1024h-254z" />
    <glyph glyph-name="dotlessi.sc" horiz-adv-x="432" 
d="M-27 0l181 1024h254l-181 -1024h-254z" />
    <glyph glyph-name="iacute.sc" horiz-adv-x="432" 
d="M211 1169l199 285h286l-270 -285h-215zM-27 0l181 1024h254l-181 -1024h-254z" />
    <glyph glyph-name="ibreve.sc" horiz-adv-x="432" 
d="M324 1167q-120 0 -183.5 68t-48.5 182h217q-5 -37 9.5 -59.5t43.5 -22.5q25 0 47.5 22.5t32.5 59.5h215q-25 -114 -115.5 -182t-217.5 -68zM-27 0l181 1024h254l-181 -1024h-254z" />
    <glyph glyph-name="uni01D0.sc" horiz-adv-x="432" 
d="M453 1454h256l-232 -285h-295l-131 285h256l47 -156zM-27 0l181 1024h254l-181 -1024h-254z" />
    <glyph glyph-name="icircumflex.sc" horiz-adv-x="432" 
d="M358 1325l-100 -156h-256l229 285h295l133 -285h-256zM-27 0l181 1024h254l-181 -1024h-254z" />
    <glyph glyph-name="uni0209.sc" horiz-adv-x="432" 
d="M109 1169l-140 285h242l55 -285h-157zM426 1169l-139 285h241l56 -285h-158zM-27 0l181 1024h254l-181 -1024h-254z" />
    <glyph glyph-name="idieresis.sc" horiz-adv-x="432" 
d="M25 1169l45 265h249l-45 -265h-249zM391 1169l45 265h250l-45 -265h-250zM-27 0l181 1024h254l-181 -1024h-254z" />
    <glyph glyph-name="uni1ECB.sc" horiz-adv-x="432" 
d="M-27 0l181 1024h254l-181 -1024h-254zM-92 -432l51 289h281l-52 -289h-280z" />
    <glyph glyph-name="igrave.sc" horiz-adv-x="432" 
d="M233 1159l-176 246h293l105 -246h-222zM-27 0l181 1024h254l-181 -1024h-254z" />
    <glyph glyph-name="uni020B.sc" horiz-adv-x="432" 
d="M18 1167q25 114 111.5 182t206.5 68q128 0 195.5 -68t52.5 -182h-215q1 37 -13 59.5t-39 22.5q-29 0 -51 -22.5t-30 -59.5h-218zM-27 0l181 1024h254l-181 -1024h-254z" />
    <glyph glyph-name="imacron.sc" horiz-adv-x="432" 
d="M86 1169l25 146h491l-24 -146h-492zM-27 0l181 1024h254l-181 -1024h-254z" />
    <glyph glyph-name="iogonek.sc" horiz-adv-x="432" 
d="M170 0q-169 -127 -188 -229q-5 -34 13.5 -57t59.5 -23q44 0 84 16l-2 -145q-74 -29 -178 -29q-101 0 -149 38t-35 116q12 71 87 166.5t158 146.5h-47l181 1024h254l-181 -1024h-57z" />
    <glyph glyph-name="itilde.sc" horiz-adv-x="432" 
d="M20 1169q34 115 104 184.5t152 69.5q46 0 97 -28.5t71 -28.5t38.5 15t27.5 40h176q-35 -114 -103.5 -183t-146.5 -69q-43 0 -93.5 30t-70.5 30q-23 0 -43.5 -16.5t-31.5 -43.5h-177zM-27 0l181 1024h254l-181 -1024h-254z" />
    <glyph glyph-name="j.sc" horiz-adv-x="430" 
d="M-164 -285q-78 0 -90 4l29 136q30 -5 47 -5q64 0 100.5 39.5t50.5 122.5l181 1012h252l-177 -1001q-28 -158 -123 -233t-270 -75z" />
    <glyph glyph-name="jcircumflex.sc" horiz-adv-x="430" 
d="M358 1325l-100 -156h-256l229 285h295l133 -285h-256zM-27 12l181 1012h252l-177 -1001q-28 -158 -123 -233t-270 -75q-78 0 -90 4l29 136q30 -5 47 -5q64 0 100.5 39.5t50.5 122.5z" />
    <glyph glyph-name="k.sc" horiz-adv-x="854" 
d="M883 1026l-344 -387l170 -639h-263l-106 414l-49 -58l-64 -356h-254l181 1024h254l-66 -371l315 373h226z" />
    <glyph glyph-name="uni0137.sc" horiz-adv-x="854" 
d="M883 1026l-344 -387l170 -639h-263l-106 414l-49 -58l-64 -356h-254l181 1024h254l-66 -371l315 373h226zM172 -143h277l-33 -187l-25 -139q-22 -122 -115.5 -192t-207.5 -70l24 141q49 0 89.5 31t49.5 82l9 49h-119z" />
    <glyph glyph-name="kgreenlandic.sc" horiz-adv-x="854" 
d="M883 1026l-344 -387l170 -639h-263l-106 414l-49 -58l-64 -356h-254l181 1024h254l-66 -371l315 373h226z" />
    <glyph glyph-name="l.sc" horiz-adv-x="681" 
d="M252 135h295l-23 -135h-551l181 1024h254z" />
    <glyph glyph-name="lacute.sc" horiz-adv-x="681" 
d="M672 1454l-271 -285h-215l199 285h287zM408 1024l-156 -889h295l-23 -135h-551l181 1024h254z" />
    <glyph glyph-name="lcaron.sc" horiz-adv-x="854" 
d="M586 1180h313l-65 -373q-25 -140 -131 -219.5t-236 -79.5l29 160q57 0 102 36t55 95l11 57h-136zM408 1024l-156 -889h295l-23 -135h-551l181 1024h254z" />
    <glyph glyph-name="uni013C.sc" horiz-adv-x="681" 
d="M252 135h295l-23 -135h-551l181 1024h254zM86 -143h276l-32 -187l-25 -139q-22 -122 -115.5 -192t-207.5 -70l24 141q49 0 89.5 31t49.5 82l9 49h-119z" />
    <glyph glyph-name="l_periodcentered_l.loclCAT.sc" horiz-adv-x="1533" 
d="M408 1024l-156 -889h295l-23 -135h-551l181 1024h254zM1079 135h295l-22 -135h-551l180 1024h254zM500 786h301l-56 -309h-301z" />
    <glyph glyph-name="lslash.sc" horiz-adv-x="681" 
d="M305 446l-53 -309h297l-25 -137h-551l62 346l-98 -45l30 170l96 45l91 508h254l-72 -410l223 109l-29 -170z" />
    <glyph glyph-name="m.sc" horiz-adv-x="1165" 
d="M1022 0h-250v649l-233 -649h-228l-2 666l-235 -666h-164l375 1024h262l2 -602l221 602h238z" />
    <glyph glyph-name="uni1E41.sc" horiz-adv-x="1165" 
d="M877 1423l-46 -254h-260l45 254h261zM1022 0h-250v649l-233 -649h-228l-2 666l-235 -666h-164l375 1024h262l2 -602l221 602h238z" />
    <glyph glyph-name="n.sc" horiz-adv-x="876" 
d="M696 1024h156l-182 -1024h-191l-237 641l-113 -641h-156l181 1024h225l211 -606z" />
    <glyph glyph-name="nacute.sc" horiz-adv-x="876" 
d="M920 1454l-271 -285h-215l199 285h287zM590 418l106 606h156l-182 -1024h-191l-237 641l-113 -641h-156l181 1024h225z" />
    <glyph glyph-name="napostrophe.sc" horiz-adv-x="1286" 
d="M514 1337l-65 -372q-25 -140 -131 -219.5t-236 -79.5l29 159q57 0 102 36t55 95l11 58h-136l58 323h313zM1096 1024h155l-182 -1024h-190l-238 641l-113 -641h-155l180 1024h225l211 -606z" />
    <glyph glyph-name="ncaron.sc" horiz-adv-x="876" 
d="M406 1169l-132 285h256l48 -156l98 156h256l-232 -285h-294zM590 418l106 606h156l-182 -1024h-191l-237 641l-113 -641h-156l181 1024h225z" />
    <glyph glyph-name="uni0146.sc" horiz-adv-x="876" 
d="M696 1024h156l-182 -1024h-191l-237 641l-113 -641h-156l181 1024h225l211 -606zM182 -143h277l-33 -187l-25 -139q-22 -122 -115.5 -192t-207.5 -70l24 141q49 0 90 31t50 82l8 49h-119z" />
    <glyph glyph-name="uni1E45.sc" horiz-adv-x="876" 
d="M731 1423l-45 -254h-260l45 254h260zM696 1024h156l-182 -1024h-191l-237 641l-113 -641h-156l181 1024h225l211 -606z" />
    <glyph glyph-name="eng.sc" horiz-adv-x="862" 
d="M684 1024h152l-209 -1194q-22 -124 -82.5 -182t-169.5 -58q-53 0 -137 17l45 129q33 -8 57 -8q114 0 137 135l25 137h-41l-221 637l-113 -637h-154l181 1024h229l192 -604z" />
    <glyph glyph-name="uni0272.sc" horiz-adv-x="860" 
d="M682 1024h154l-181 -1024h-196l-219 633l-142 -807q-22 -122 -74 -179t-141 -57q-77 0 -157 29l47 125q45 -10 67 -10q45 0 69.5 22.5t33.5 71.5l211 1196h227l194 -600z" />
    <glyph glyph-name="ntilde.sc" horiz-adv-x="876" 
d="M496 1229q-23 0 -44 -17t-32 -43h-176q34 115 104 184.5t152 69.5q46 0 97 -28.5t71 -28.5t38 15t27 40h176q-35 -114 -103.5 -183t-146.5 -69q-43 0 -93 30t-70 30zM590 418l106 606h156l-182 -1024h-191l-237 641l-113 -641h-156l181 1024h225z" />
    <glyph glyph-name="o.sc" horiz-adv-x="876" 
d="M319 -16q-193 0 -260 128t-20 402q46 271 159.5 398.5t307.5 127.5q193 0 261 -127t21 -399q-47 -273 -161 -401.5t-308 -128.5zM348 123q54 0 96.5 95t77.5 296q34 200 24.5 293.5t-63.5 93.5q-57 0 -100 -93.5t-78 -293.5q-36 -201 -25.5 -296t68.5 -95z" />
    <glyph glyph-name="oacute.sc" horiz-adv-x="876" 
d="M434 1169l199 285h287l-271 -285h-215zM319 -16q-193 0 -260 128t-20 402q46 271 159.5 398.5t307.5 127.5q193 0 261 -127t21 -399q-47 -273 -161 -401.5t-308 -128.5zM348 123q54 0 96.5 95t77.5 296q34 200 24.5 293.5t-63.5 93.5q-57 0 -100 -93.5t-78 -293.5
q-36 -201 -25.5 -296t68.5 -95z" />
    <glyph glyph-name="obreve.sc" horiz-adv-x="876" 
d="M547 1167q-120 0 -183.5 68t-48.5 182h217q-5 -37 10 -59.5t44 -22.5q25 0 47.5 22.5t32.5 59.5h215q-25 -114 -115.5 -182t-218.5 -68zM319 -16q-193 0 -260 128t-20 402q46 271 159.5 398.5t307.5 127.5q193 0 261 -127t21 -399q-47 -273 -161 -401.5t-308 -128.5z
M348 123q54 0 96.5 95t77.5 296q34 200 24.5 293.5t-63.5 93.5q-57 0 -100 -93.5t-78 -293.5q-36 -201 -25.5 -296t68.5 -95z" />
    <glyph glyph-name="uni01D2.sc" horiz-adv-x="876" 
d="M406 1169l-132 285h256l48 -156l98 156h256l-232 -285h-294zM506 1040q193 0 261 -127t21 -399q-47 -273 -161 -401.5t-308 -128.5q-193 0 -260 128t-20 402q46 271 159.5 398.5t307.5 127.5zM522 514q34 200 24.5 293.5t-63.5 93.5q-57 0 -100 -93.5t-78 -293.5
q-36 -201 -25.5 -296t68.5 -95q54 0 96.5 95t77.5 296z" />
    <glyph glyph-name="ocircumflex.sc" horiz-adv-x="876" 
d="M582 1325l-101 -156h-256l230 285h295l133 -285h-256zM506 1040q193 0 261 -127t21 -399q-47 -273 -161 -401.5t-308 -128.5q-193 0 -260 128t-20 402q46 271 159.5 398.5t307.5 127.5zM522 514q34 200 24.5 293.5t-63.5 93.5q-57 0 -100 -93.5t-78 -293.5
q-36 -201 -25.5 -296t68.5 -95q54 0 96.5 95t77.5 296z" />
    <glyph glyph-name="uni020D.sc" horiz-adv-x="876" 
d="M332 1169l-139 285h241l55 -285h-157zM649 1169l-139 285h242l55 -285h-158zM319 -16q-193 0 -260 128t-20 402q46 271 159.5 398.5t307.5 127.5q193 0 261 -127t21 -399q-47 -273 -161 -401.5t-308 -128.5zM348 123q54 0 96.5 95t77.5 296q34 200 24.5 293.5t-63.5 93.5
q-57 0 -100 -93.5t-78 -293.5q-36 -201 -25.5 -296t68.5 -95z" />
    <glyph glyph-name="odieresis.sc" horiz-adv-x="876" 
d="M248 1169l45 265h250l-45 -265h-250zM614 1169l45 265h250l-45 -265h-250zM319 -16q-193 0 -260 128t-20 402q46 271 159.5 398.5t307.5 127.5q193 0 261 -127t21 -399q-47 -273 -161 -401.5t-308 -128.5zM348 123q54 0 96.5 95t77.5 296q34 200 24.5 293.5t-63.5 93.5
q-57 0 -100 -93.5t-78 -293.5q-36 -201 -25.5 -296t68.5 -95z" />
    <glyph glyph-name="uni1ECD.sc" horiz-adv-x="876" 
d="M319 -16q-193 0 -260 128t-20 402q46 271 159.5 398.5t307.5 127.5q193 0 261 -127t21 -399q-47 -273 -161 -401.5t-308 -128.5zM348 123q54 0 96.5 95t77.5 296q34 200 24.5 293.5t-63.5 93.5q-57 0 -100 -93.5t-78 -293.5q-36 -201 -25.5 -296t68.5 -95zM131 -432
l51 289h281l-51 -289h-281z" />
    <glyph glyph-name="ograve.sc" horiz-adv-x="876" 
d="M457 1159l-176 246h292l105 -246h-221zM319 -16q-193 0 -260 128t-20 402q46 271 159.5 398.5t307.5 127.5q193 0 261 -127t21 -399q-47 -273 -161 -401.5t-308 -128.5zM348 123q54 0 96.5 95t77.5 296q34 200 24.5 293.5t-63.5 93.5q-57 0 -100 -93.5t-78 -293.5
q-36 -201 -25.5 -296t68.5 -95z" />
    <glyph glyph-name="ohungarumlaut.sc" horiz-adv-x="876" 
d="M303 1169l154 285h241l-237 -285h-158zM621 1169l153 285h242l-238 -285h-157zM319 -16q-193 0 -260 128t-20 402q46 271 159.5 398.5t307.5 127.5q193 0 261 -127t21 -399q-47 -273 -161 -401.5t-308 -128.5zM348 123q54 0 96.5 95t77.5 296q34 200 24.5 293.5
t-63.5 93.5q-57 0 -100 -93.5t-78 -293.5q-36 -201 -25.5 -296t68.5 -95z" />
    <glyph glyph-name="uni020F.sc" horiz-adv-x="876" 
d="M242 1167q25 114 111 182t206 68q128 0 195.5 -68t52.5 -182h-215q2 37 -12 59.5t-39 22.5q-29 0 -51.5 -22.5t-30.5 -59.5h-217zM319 -16q-193 0 -260 128t-20 402q46 271 159.5 398.5t307.5 127.5q193 0 261 -127t21 -399q-47 -273 -161 -401.5t-308 -128.5zM348 123
q54 0 96.5 95t77.5 296q34 200 24.5 293.5t-63.5 93.5q-57 0 -100 -93.5t-78 -293.5q-36 -201 -25.5 -296t68.5 -95z" />
    <glyph glyph-name="omacron.sc" horiz-adv-x="876" 
d="M309 1169l25 146h491l-24 -146h-492zM319 -16q-193 0 -260 128t-20 402q46 271 159.5 398.5t307.5 127.5q193 0 261 -127t21 -399q-47 -273 -161 -401.5t-308 -128.5zM348 123q54 0 96.5 95t77.5 296q34 200 24.5 293.5t-63.5 93.5q-57 0 -100 -93.5t-78 -293.5
q-36 -201 -25.5 -296t68.5 -95z" />
    <glyph glyph-name="uni01EB.sc" horiz-adv-x="876" 
d="M506 1040q193 0 261 -127t21 -399q-64 -373 -262 -483q-104 -93 -116 -170q-5 -34 13.5 -57t59.5 -23q44 0 84 16l-2 -145q-74 -29 -178 -29q-101 0 -149 38t-35 116q15 89 121 207h-5q-193 0 -260 128t-20 402q46 271 159.5 398.5t307.5 127.5zM305 514
q-36 -201 -25.5 -296t68.5 -95q54 0 96.5 95t77.5 296q34 200 24.5 293.5t-63.5 93.5q-57 0 -100 -93.5t-78 -293.5z" />
    <glyph glyph-name="oslash.sc" horiz-adv-x="866" 
d="M903 1024l-129 -147q44 -130 4 -363q-47 -273 -160 -401.5t-305 -128.5q-167 0 -237 98l-74 -82h-94l133 150q-43 126 -2 364q46 271 158 398.5t303 127.5q169 0 239 -98l74 82h90zM307 514l-12 -78l242 275q15 194 -60 194q-52 0 -93.5 -95t-76.5 -296zM510 514l12 78
l-241 -277q-17 -196 59 -196q53 0 94 95.5t76 299.5z" />
    <glyph glyph-name="oslashacute.sc" horiz-adv-x="864" 
d="M831 1325l-256 -215h-176l191 215h241zM879 1024l-111 -133q51 -126 8 -377q-47 -273 -159.5 -401.5t-303.5 -128.5q-163 0 -233 94l-68 -80h-78l113 135q-52 127 -8 381q46 271 158 398.5t303 127.5q162 0 235 -94l66 78h78zM305 514q-15 -85 -16 -96l248 293
q15 194 -60 194q-54 0 -95.5 -94.5t-76.5 -296.5zM510 514q7 36 14 90l-248 -293q-12 -192 64 -192q53 0 94 95.5t76 299.5z" />
    <glyph glyph-name="otilde.sc" horiz-adv-x="876" 
d="M244 1169q34 115 104 184.5t152 69.5q46 0 97 -28.5t71 -28.5t38 15t27 40h176q-35 -114 -103.5 -183t-146.5 -69q-43 0 -93 30t-70 30q-23 0 -44 -17t-32 -43h-176zM319 -16q-193 0 -260 128t-20 402q46 271 159.5 398.5t307.5 127.5q193 0 261 -127t21 -399
q-47 -273 -161 -401.5t-308 -128.5zM348 123q54 0 96.5 95t77.5 296q34 200 24.5 293.5t-63.5 93.5q-57 0 -100 -93.5t-78 -293.5q-36 -201 -25.5 -296t68.5 -95z" />
    <glyph glyph-name="oe.sc" horiz-adv-x="1183" 
d="M1122 889h-301l-49 -283h277l-25 -135h-276l-58 -334h311l-22 -137h-520q-59 -16 -125 -16q-201 0 -271.5 128t-23.5 402q47 271 164 398.5t317 127.5q66 0 119 -16h508zM307 514q-35 -204 -23.5 -299.5t72.5 -95.5q47 0 82 28l129 732q-26 26 -71 26q-62 0 -108 -95
t-81 -296z" />
    <glyph glyph-name="p.sc" horiz-adv-x="831" 
d="M481 1024q186 0 259 -78t44 -244q-32 -184 -134 -270t-288 -86h-73l-62 -346h-254l181 1024h327zM518 702q17 97 -4 143t-82 46h-47l-74 -410h51q60 0 98 53.5t58 167.5z" />
    <glyph glyph-name="uni1E57.sc" horiz-adv-x="831" 
d="M709 1423l-45 -254h-261l46 254h260zM481 1024q186 0 259 -78t44 -244q-32 -184 -134 -270t-288 -86h-73l-62 -346h-254l181 1024h327zM518 702q17 97 -4 143t-82 46h-47l-74 -410h51q60 0 98 53.5t58 167.5z" />
    <glyph glyph-name="thorn.sc" horiz-adv-x="823" 
d="M449 834q180 0 252 -70t47 -221q-29 -168 -128 -247t-280 -79h-74l-39 -217h-254l181 1024h254l-33 -190h74zM481 543q14 80 -5.5 116.5t-76.5 36.5h-49l-61 -342h51q55 0 89.5 46t51.5 143z" />
    <glyph glyph-name="q.sc" horiz-adv-x="874" 
d="M786 514q-67 -375 -260 -481l150 -37l-31 -172l-416 121l9 45q-146 26 -193 153t-6 371q46 271 159.5 398.5t307.5 127.5q192 0 259 -127t21 -399zM520 514q35 200 25.5 293.5t-64.5 93.5q-57 0 -100 -93.5t-78 -293.5q-36 -201 -25.5 -296t68.5 -95q54 0 96.5 95
t77.5 296z" />
    <glyph glyph-name="r.sc" horiz-adv-x="860" 
d="M797 717q-41 -218 -191 -293l109 -424h-260l-95 379h-65l-68 -379h-254l181 1024h335q186 0 261 -74.5t47 -232.5zM385 891l-68 -377h56q64 0 103.5 49t58.5 152q15 91 -8.5 133.5t-88.5 42.5h-53z" />
    <glyph glyph-name="racute.sc" horiz-adv-x="860" 
d="M911 1454l-270 -285h-215l199 285h286zM489 1024q186 0 261 -74.5t47 -232.5q-41 -218 -191 -293l109 -424h-260l-95 379h-65l-68 -379h-254l181 1024h335zM385 891l-68 -377h56q64 0 103.5 49t58.5 152q15 91 -8.5 133.5t-88.5 42.5h-53z" />
    <glyph glyph-name="rcaron.sc" horiz-adv-x="860" 
d="M397 1169l-131 285h256l47 -156l99 156h256l-232 -285h-295zM489 1024q186 0 261 -74.5t47 -232.5q-41 -218 -191 -293l109 -424h-260l-95 379h-65l-68 -379h-254l181 1024h335zM385 891l-68 -377h56q64 0 103.5 49t58.5 152q15 91 -8.5 133.5t-88.5 42.5h-53z" />
    <glyph glyph-name="uni0157.sc" horiz-adv-x="860" 
d="M797 717q-41 -218 -191 -293l109 -424h-260l-95 379h-65l-68 -379h-254l181 1024h335q186 0 261 -74.5t47 -232.5zM385 891l-68 -377h56q64 0 103.5 49t58.5 152q15 91 -8.5 133.5t-88.5 42.5h-53zM174 -143h277l-33 -187l-25 -139q-22 -122 -115.5 -192t-207.5 -70
l24 141q49 0 89.5 31t49.5 82l9 49h-119z" />
    <glyph glyph-name="uni0211.sc" horiz-adv-x="860" 
d="M481 1169h-157l-140 285h242zM799 1169h-158l-139 285h241zM797 717q-41 -218 -191 -293l109 -424h-260l-95 379h-65l-68 -379h-254l181 1024h335q186 0 261 -74.5t47 -232.5zM385 891l-68 -377h56q64 0 103.5 49t58.5 152q15 91 -8.5 133.5t-88.5 42.5h-53z" />
    <glyph glyph-name="uni1E5B.sc" horiz-adv-x="860" 
d="M797 717q-41 -218 -191 -293l109 -424h-260l-95 379h-65l-68 -379h-254l181 1024h335q186 0 261 -74.5t47 -232.5zM385 891l-68 -377h56q64 0 103.5 49t58.5 152q15 91 -8.5 133.5t-88.5 42.5h-53zM123 -432l51 289h281l-52 -289h-280z" />
    <glyph glyph-name="uni0213.sc" horiz-adv-x="860" 
d="M532 1249q-29 0 -51 -22.5t-30 -59.5h-218q25 114 111.5 182t206.5 68q128 0 195.5 -68t52.5 -182h-215q1 37 -13 59.5t-39 22.5zM797 717q-41 -218 -191 -293l109 -424h-260l-95 379h-65l-68 -379h-254l181 1024h335q186 0 261 -74.5t47 -232.5zM385 891l-68 -377h56
q64 0 103.5 49t58.5 152q15 91 -8.5 133.5t-88.5 42.5h-53z" />
    <glyph glyph-name="s.sc" horiz-adv-x="731" 
d="M141 -16q-109 0 -200 36l57 154q77 -47 176 -47q69 0 118.5 37t61.5 106q5 11 2 24.5t-2.5 21.5t-7.5 19t-11.5 17.5t-14.5 16t-17 15t-19 14t-21 13.5t-22 13.5t-22 13.5q-169 106 -137 281q26 151 137.5 236t274.5 85q126 0 217 -26l-52 -144q-78 30 -151 27
q-57 0 -99 -37t-51 -92q-6 -35 1 -62.5t27 -48t38 -33t49 -28.5q179 -88 148 -256q-31 -174 -163.5 -265t-316.5 -91z" />
    <glyph glyph-name="sacute.sc" horiz-adv-x="731" 
d="M362 1169l199 285h287l-270 -285h-216zM141 -16q-109 0 -200 36l57 154q77 -47 176 -47q69 0 118.5 37t61.5 106q5 11 2 24.5t-2.5 21.5t-7.5 19t-11.5 17.5t-14.5 16t-17 15t-19 14t-21 13.5t-22 13.5t-22 13.5q-169 106 -137 281q26 151 137.5 236t274.5 85
q126 0 217 -26l-52 -144q-78 30 -151 27q-57 0 -99 -37t-51 -92q-6 -35 1 -62.5t27 -48t38 -33t49 -28.5q179 -88 148 -256q-31 -174 -163.5 -265t-316.5 -91z" />
    <glyph glyph-name="scaron.sc" horiz-adv-x="731" 
d="M334 1169l-131 285h256l47 -156l98 156h256l-231 -285h-295zM82 719q26 151 137.5 236t274.5 85q126 0 217 -26l-52 -144q-78 30 -151 27q-57 0 -99 -37t-51 -92q-6 -35 1 -62.5t27 -48t38 -33t49 -28.5q179 -88 148 -256q-31 -174 -163.5 -265t-316.5 -91
q-109 0 -200 36l57 154q77 -47 176 -47q69 0 118.5 37t61.5 106q5 11 2 24.5t-2.5 21.5t-7.5 19t-11.5 17.5t-14.5 16t-17 15t-19 14t-21 13.5t-22 13.5t-22 13.5q-169 106 -137 281z" />
    <glyph glyph-name="scedilla.sc" horiz-adv-x="731" 
d="M508 897q-57 0 -99 -37t-51 -92q-6 -35 1 -62.5t27 -48t38 -33t49 -28.5q179 -88 148 -256q-22 -129 -102.5 -213t-199.5 -119h33l-53 -98q122 -14 159 -57t25 -113q-11 -61 -53 -107t-107 -72t-140 -38.5t-163 -14.5l-2 113q53 4 91 11t71 19.5t52 34t24 52.5
t-25.5 54.5t-124.5 37.5l97 156q-20 -2 -62 -2q-109 0 -200 36l57 154q77 -47 176 -47q69 0 118.5 37t61.5 106q5 11 2 24.5t-2.5 21.5t-7.5 19t-11.5 17.5t-14.5 16t-17 15t-19 14t-21 13.5t-22 13.5t-22 13.5q-169 106 -137 281q26 151 137.5 236t274.5 85q126 0 217 -26
l-52 -144q-78 30 -151 27z" />
    <glyph glyph-name="scircumflex.sc" horiz-adv-x="731" 
d="M510 1325l-100 -156h-256l229 285h295l133 -285h-256zM82 719q26 151 137.5 236t274.5 85q126 0 217 -26l-52 -144q-78 30 -151 27q-57 0 -99 -37t-51 -92q-6 -35 1 -62.5t27 -48t38 -33t49 -28.5q179 -88 148 -256q-31 -174 -163.5 -265t-316.5 -91q-109 0 -200 36
l57 154q77 -47 176 -47q69 0 118.5 37t61.5 106q5 11 2 24.5t-2.5 21.5t-7.5 19t-11.5 17.5t-14.5 16t-17 15t-19 14t-21 13.5t-22 13.5t-22 13.5q-169 106 -137 281z" />
    <glyph glyph-name="uni0219.sc" horiz-adv-x="731" 
d="M508 897q-57 0 -99 -37t-51 -92q-6 -35 1 -62.5t27 -48t38 -33t49 -28.5q179 -88 148 -256q-31 -174 -163.5 -265t-316.5 -91q-109 0 -200 36l57 154q77 -47 176 -47q69 0 118.5 37t61.5 106q5 11 2 24.5t-2.5 21.5t-7.5 19t-11.5 17.5t-14.5 16t-17 15t-19 14t-21 13.5
t-22 13.5t-22 13.5q-169 106 -137 281q26 151 137.5 236t274.5 85q126 0 217 -26l-52 -144q-78 30 -151 27zM111 -143h276l-33 -187l-24 -139q-22 -122 -116 -192t-208 -70l25 141q49 0 89.5 31t49.5 82l8 49h-119z" />
    <glyph glyph-name="uni1E61.sc" horiz-adv-x="731" 
d="M354 1169l45 254h260l-45 -254h-260zM141 -16q-109 0 -200 36l57 154q77 -47 176 -47q69 0 118.5 37t61.5 106q5 11 2 24.5t-2.5 21.5t-7.5 19t-11.5 17.5t-14.5 16t-17 15t-19 14t-21 13.5t-22 13.5t-22 13.5q-169 106 -137 281q26 151 137.5 236t274.5 85
q126 0 217 -26l-52 -144q-78 30 -151 27q-57 0 -99 -37t-51 -92q-6 -35 1 -62.5t27 -48t38 -33t49 -28.5q179 -88 148 -256q-31 -174 -163.5 -265t-316.5 -91z" />
    <glyph glyph-name="uni1E63.sc" horiz-adv-x="731" 
d="M141 -16q-109 0 -200 36l57 154q77 -47 176 -47q69 0 118.5 37t61.5 106q5 11 2 24.5t-2.5 21.5t-7.5 19t-11.5 17.5t-14.5 16t-17 15t-19 14t-21 13.5t-22 13.5t-22 13.5q-169 106 -137 281q26 151 137.5 236t274.5 85q126 0 217 -26l-52 -144q-78 30 -151 27
q-57 0 -99 -37t-51 -92q-6 -35 1 -62.5t27 -48t38 -33t49 -28.5q179 -88 148 -256q-31 -174 -163.5 -265t-316.5 -91zM59 -432l52 289h280l-51 -289h-281z" />
    <glyph glyph-name="germandbls.sc" horiz-adv-x="1462" 
d="M141 -16q-109 0 -200 36l57 154q77 -47 176 -47q69 0 118.5 37t61.5 106q5 11 2 24.5t-2.5 21.5t-7.5 19t-11.5 17.5t-14.5 16t-17 15t-19 14t-21 13.5t-22 13.5t-22 13.5q-169 106 -137 281q26 151 137.5 236t274.5 85q126 0 217 -26l-52 -144q-78 30 -151 27
q-57 0 -99 -37t-51 -92q-6 -35 1 -62.5t27 -48t38 -33t49 -28.5q179 -88 148 -256q-31 -174 -163.5 -265t-316.5 -91zM872 -16q-109 0 -200 36l57 154q77 -47 176 -47q69 0 118.5 37t61.5 106q5 11 2 24.5t-2.5 21.5t-7.5 19t-11.5 17.5t-14.5 16t-17 15t-19 14t-21 13.5
t-22 13.5t-22 13.5q-169 106 -137 281q26 151 137.5 236t274.5 85q126 0 217 -26l-51 -144q-78 30 -152 27q-57 0 -98.5 -37t-50.5 -92q-6 -35 0.5 -62.5t26.5 -48t38 -33t49 -28.5q179 -88 148 -256q-31 -174 -163.5 -265t-316.5 -91z" />
    <glyph glyph-name="t.sc" horiz-adv-x="768" 
d="M801 1024l-23 -133h-225l-158 -891h-252l158 891h-229l24 133h705z" />
    <glyph glyph-name="tbar.sc" horiz-adv-x="768" 
d="M778 889h-227l-53 -303h176l-15 -78h-174l-90 -508h-252l90 508h-176l13 78h176l53 303h-227l24 135h705z" />
    <glyph glyph-name="tcaron.sc" horiz-adv-x="768" 
d="M352 1169l-131 285h256l47 -156l99 156h256l-232 -285h-295zM801 1024l-23 -133h-225l-158 -891h-252l158 891h-229l24 133h705z" />
    <glyph glyph-name="uni0163.sc" horiz-adv-x="768" 
d="M395 0h-28l-50 -90q122 -14 159.5 -57t25.5 -113q-11 -61 -53 -107t-107 -72t-140 -38.5t-163 -14.5l-2 113q53 4 91 11t71 19.5t51.5 34t23.5 52.5t-25 54.5t-124 37.5l106 170h-88l158 891h-229l24 133h705l-23 -133h-225z" />
    <glyph glyph-name="uni1E6B.sc" horiz-adv-x="768" 
d="M678 1423l-45 -254h-260l45 254h260zM801 1024l-23 -133h-225l-158 -891h-252l158 891h-229l24 133h705z" />
    <glyph glyph-name="uni1E6D.sc" horiz-adv-x="768" 
d="M801 1024l-23 -133h-225l-158 -891h-252l158 891h-229l24 133h705zM78 -432l51 289h281l-52 -289h-280z" />
    <glyph glyph-name="u.sc" horiz-adv-x="843" 
d="M326 -16q-175 0 -255 87.5t-53 241.5l125 711h254l-123 -709q-16 -85 9.5 -136.5t99.5 -51.5q66 0 108 51t58 137l125 709h153l-127 -717q-25 -150 -121 -236.5t-253 -86.5z" />
    <glyph glyph-name="uacute.sc" horiz-adv-x="843" 
d="M418 1169l198 285h287l-270 -285h-215zM326 -16q-175 0 -255 87.5t-53 241.5l125 711h254l-123 -709q-16 -85 9.5 -136.5t99.5 -51.5q66 0 108 51t58 137l125 709h153l-127 -717q-25 -150 -121 -236.5t-253 -86.5z" />
    <glyph glyph-name="ubreve.sc" horiz-adv-x="843" 
d="M530 1167q-120 0 -183 68t-48 182h217q-5 -37 9.5 -59.5t43.5 -22.5q25 0 47.5 22.5t32.5 59.5h215q-25 -114 -115.5 -182t-218.5 -68zM326 -16q-175 0 -255 87.5t-53 241.5l125 711h254l-123 -709q-16 -85 9.5 -136.5t99.5 -51.5q66 0 108 51t58 137l125 709h153
l-127 -717q-25 -150 -121 -236.5t-253 -86.5z" />
    <glyph glyph-name="uni01D4.sc" horiz-adv-x="843" 
d="M389 1169l-131 285h256l47 -156l98 156h256l-231 -285h-295zM549 315l125 709h153l-127 -717q-25 -150 -121 -236.5t-253 -86.5q-175 0 -255 87.5t-53 241.5l125 711h254l-123 -709q-16 -85 9.5 -136.5t99.5 -51.5q66 0 108 51t58 137z" />
    <glyph glyph-name="ucircumflex.sc" horiz-adv-x="843" 
d="M565 1325l-100 -156h-256l229 285h295l133 -285h-256zM549 315l125 709h153l-127 -717q-25 -150 -121 -236.5t-253 -86.5q-175 0 -255 87.5t-53 241.5l125 711h254l-123 -709q-16 -85 9.5 -136.5t99.5 -51.5q66 0 108 51t58 137z" />
    <glyph glyph-name="uni0215.sc" horiz-adv-x="843" 
d="M315 1169l-139 285h242l55 -285h-158zM633 1169l-139 285h241l56 -285h-158zM326 -16q-175 0 -255 87.5t-53 241.5l125 711h254l-123 -709q-16 -85 9.5 -136.5t99.5 -51.5q66 0 108 51t58 137l125 709h153l-127 -717q-25 -150 -121 -236.5t-253 -86.5z" />
    <glyph glyph-name="udieresis.sc" horiz-adv-x="843" 
d="M231 1169l45 265h250l-45 -265h-250zM598 1169l45 265h250l-45 -265h-250zM326 -16q-175 0 -255 87.5t-53 241.5l125 711h254l-123 -709q-16 -85 9.5 -136.5t99.5 -51.5q66 0 108 51t58 137l125 709h153l-127 -717q-25 -150 -121 -236.5t-253 -86.5z" />
    <glyph glyph-name="uni01D8.sc" horiz-adv-x="843" 
d="M485 1546l199 285h287l-271 -285h-215zM231 1169l45 265h250l-45 -265h-250zM598 1169l45 265h250l-45 -265h-250zM326 -16q-175 0 -255 87.5t-53 241.5l125 711h254l-123 -709q-16 -85 9.5 -136.5t99.5 -51.5q66 0 108 51t58 137l125 709h153l-127 -717
q-25 -150 -121 -236.5t-253 -86.5z" />
    <glyph glyph-name="uni01DA.sc" horiz-adv-x="843" 
d="M457 1546l-131 285h256l47 -156l98 156h256l-231 -285h-295zM526 1434l-45 -265h-250l45 265h250zM598 1169l45 265h250l-45 -265h-250zM549 315l125 709h153l-127 -717q-25 -150 -121 -236.5t-253 -86.5q-175 0 -255 87.5t-53 241.5l125 711h254l-123 -709
q-16 -85 9.5 -136.5t99.5 -51.5q66 0 108 51t58 137z" />
    <glyph glyph-name="uni01DC.sc" horiz-adv-x="843" 
d="M508 1536l-176 246h293l104 -246h-221zM231 1169l45 265h250l-45 -265h-250zM598 1169l45 265h250l-45 -265h-250zM326 -16q-175 0 -255 87.5t-53 241.5l125 711h254l-123 -709q-16 -85 9.5 -136.5t99.5 -51.5q66 0 108 51t58 137l125 709h153l-127 -717
q-25 -150 -121 -236.5t-253 -86.5z" />
    <glyph glyph-name="uni01D6.sc" horiz-adv-x="843" 
d="M360 1546l25 146h492l-25 -146h-492zM231 1169l45 265h250l-45 -265h-250zM598 1169l45 265h250l-45 -265h-250zM326 -16q-175 0 -255 87.5t-53 241.5l125 711h254l-123 -709q-16 -85 9.5 -136.5t99.5 -51.5q66 0 108 51t58 137l125 709h153l-127 -717
q-25 -150 -121 -236.5t-253 -86.5z" />
    <glyph glyph-name="uni1EE5.sc" horiz-adv-x="843" 
d="M326 -16q-175 0 -255 87.5t-53 241.5l125 711h254l-123 -709q-16 -85 9.5 -136.5t99.5 -51.5q66 0 108 51t58 137l125 709h153l-127 -717q-25 -150 -121 -236.5t-253 -86.5zM115 -432l51 289h280l-51 -289h-280z" />
    <glyph glyph-name="ugrave.sc" horiz-adv-x="843" 
d="M440 1159l-176 246h293l105 -246h-222zM326 -16q-175 0 -255 87.5t-53 241.5l125 711h254l-123 -709q-16 -85 9.5 -136.5t99.5 -51.5q66 0 108 51t58 137l125 709h153l-127 -717q-25 -150 -121 -236.5t-253 -86.5z" />
    <glyph glyph-name="uhungarumlaut.sc" horiz-adv-x="843" 
d="M287 1169l153 285h242l-238 -285h-157zM604 1169l154 285h241l-237 -285h-158zM326 -16q-175 0 -255 87.5t-53 241.5l125 711h254l-123 -709q-16 -85 9.5 -136.5t99.5 -51.5q66 0 108 51t58 137l125 709h153l-127 -717q-25 -150 -121 -236.5t-253 -86.5z" />
    <glyph glyph-name="uni0217.sc" horiz-adv-x="843" 
d="M225 1167q25 114 111.5 182t206.5 68q128 0 195.5 -68t52.5 -182h-216q2 37 -12 59.5t-39 22.5q-29 0 -51.5 -22.5t-30.5 -59.5h-217zM326 -16q-175 0 -255 87.5t-53 241.5l125 711h254l-123 -709q-16 -85 9.5 -136.5t99.5 -51.5q66 0 108 51t58 137l125 709h153
l-127 -717q-25 -150 -121 -236.5t-253 -86.5z" />
    <glyph glyph-name="umacron.sc" horiz-adv-x="843" 
d="M293 1169l24 146h492l-25 -146h-491zM326 -16q-175 0 -255 87.5t-53 241.5l125 711h254l-123 -709q-16 -85 9.5 -136.5t99.5 -51.5q66 0 108 51t58 137l125 709h153l-127 -717q-25 -150 -121 -236.5t-253 -86.5z" />
    <glyph glyph-name="uogonek.sc" horiz-adv-x="843" 
d="M674 1024h153l-127 -717q-31 -193 -176 -276q-132 -109 -147 -197q-5 -34 14 -57t60 -23t84 17l-3 -146q-72 -28 -178 -28q-101 0 -149 37.5t-35 115.5q9 50 49.5 113.5t97.5 120.5q-170 3 -247.5 90t-51.5 239l125 711h254l-123 -709q-16 -85 9.5 -136.5t99.5 -51.5
q66 0 108 51t58 137z" />
    <glyph glyph-name="uring.sc" horiz-adv-x="843" 
d="M532 1137q-99 0 -154 65.5t-36 163.5q17 95 94.5 159t175.5 64q100 0 156 -64t39 -159q-19 -98 -97 -163.5t-178 -65.5zM555 1270q40 0 71.5 27t37.5 67q7 39 -15.5 65.5t-62.5 26.5q-38 0 -69 -26t-38 -66q-6 -40 15.5 -67t60.5 -27zM326 -16q-175 0 -255 87.5
t-53 241.5l125 711h254l-123 -709q-16 -85 9.5 -136.5t99.5 -51.5q66 0 108 51t58 137l125 709h153l-127 -717q-25 -150 -121 -236.5t-253 -86.5z" />
    <glyph glyph-name="utilde.sc" horiz-adv-x="843" 
d="M227 1169q34 115 104 184.5t152 69.5q46 0 97 -28.5t71 -28.5t38.5 15t27.5 40h176q-35 -114 -103.5 -183t-146.5 -69q-43 0 -93.5 30t-70.5 30q-23 0 -44 -17t-32 -43h-176zM326 -16q-175 0 -255 87.5t-53 241.5l125 711h254l-123 -709q-16 -85 9.5 -136.5t99.5 -51.5
q66 0 108 51t58 137l125 709h153l-127 -717q-25 -150 -121 -236.5t-253 -86.5z" />
    <glyph glyph-name="v.sc" horiz-adv-x="802" 
d="M692 1026h162l-457 -1026h-227l-88 1026h256l51 -698z" />
    <glyph glyph-name="w.sc" horiz-adv-x="1140" 
d="M1034 1026h158l-387 -1026h-215l-8 655l-242 -655h-229l-29 1026h252l4 -620l225 620h242l8 -604z" />
    <glyph glyph-name="wacute.sc" horiz-adv-x="1140" 
d="M1053 1454l-271 -285h-215l199 285h287zM1034 1026h158l-387 -1026h-215l-8 655l-242 -655h-229l-29 1026h252l4 -620l225 620h242l8 -604z" />
    <glyph glyph-name="wcircumflex.sc" horiz-adv-x="1140" 
d="M715 1325l-101 -156h-256l230 285h295l133 -285h-256zM1034 1026h158l-387 -1026h-215l-8 655l-242 -655h-229l-29 1026h252l4 -620l225 620h242l8 -604z" />
    <glyph glyph-name="wdieresis.sc" horiz-adv-x="1140" 
d="M676 1434l-45 -265h-250l45 265h250zM1042 1434l-45 -265h-249l45 265h249zM1034 1026h158l-387 -1026h-215l-8 655l-242 -655h-229l-29 1026h252l4 -620l225 620h242l8 -604z" />
    <glyph glyph-name="wgrave.sc" horiz-adv-x="1140" 
d="M811 1159h-221l-176 246h293zM1034 1026h158l-387 -1026h-215l-8 655l-242 -655h-229l-29 1026h252l4 -620l225 620h242l8 -604z" />
    <glyph glyph-name="x.sc" horiz-adv-x="813" 
d="M838 1024l-324 -492l158 -532h-275l-96 324l-215 -324h-174l336 506l-156 518h277l92 -311l205 311h172z" />
    <glyph glyph-name="y.sc" horiz-adv-x="790" 
d="M668 1024h174l-357 -629l-67 -395h-254l69 395l-151 629h264l96 -414z" />
    <glyph glyph-name="yacute.sc" horiz-adv-x="790" 
d="M877 1454l-271 -285h-215l199 285h287zM442 610l226 414h174l-357 -629l-67 -395h-254l69 395l-151 629h264z" />
    <glyph glyph-name="ycircumflex.sc" horiz-adv-x="790" 
d="M539 1325l-101 -156h-256l230 285h295l133 -285h-256zM668 1024h174l-357 -629l-67 -395h-254l69 395l-151 629h264l96 -414z" />
    <glyph glyph-name="ydieresis.sc" horiz-adv-x="790" 
d="M500 1434l-45 -265h-250l45 265h250zM866 1434l-45 -265h-250l45 265h250zM442 610l226 414h174l-357 -629l-67 -395h-254l69 395l-151 629h264z" />
    <glyph glyph-name="ygrave.sc" horiz-adv-x="790" 
d="M635 1159h-221l-176 246h292zM668 1024h174l-357 -629l-67 -395h-254l69 395l-151 629h264l96 -414z" />
    <glyph glyph-name="uni0233.sc" horiz-adv-x="790" 
d="M782 1315l-24 -146h-492l25 146h491zM668 1024h174l-357 -629l-67 -395h-254l69 395l-151 629h264l96 -414z" />
    <glyph glyph-name="uni1EF9.sc" horiz-adv-x="790" 
d="M453 1229q-23 0 -44 -17t-32 -43h-176q34 115 104 184.5t152 69.5q46 0 97 -28.5t71 -28.5t38 15t27 40h176q-35 -114 -103.5 -183t-146.5 -69q-43 0 -93 30t-70 30zM442 610l226 414h174l-357 -629l-67 -395h-254l69 395l-151 629h264z" />
    <glyph glyph-name="z.sc" horiz-adv-x="712" 
d="M700 1024l-448 -889h317l-24 -135h-621l455 891h-283l25 133h579z" />
    <glyph glyph-name="zacute.sc" horiz-adv-x="712" 
d="M838 1454l-271 -285h-215l199 285h287zM700 1024l-448 -889h317l-24 -135h-621l455 891h-283l25 133h579z" />
    <glyph glyph-name="zcaron.sc" horiz-adv-x="712" 
d="M324 1169l-131 285h256l47 -156l98 156h256l-232 -285h-294zM700 1024l-448 -889h317l-24 -135h-621l455 891h-283l25 133h579z" />
    <glyph glyph-name="zdotaccent.sc" horiz-adv-x="712" 
d="M649 1423l-45 -254h-260l45 254h260zM700 1024l-448 -889h317l-24 -135h-621l455 891h-283l25 133h579z" />
    <glyph glyph-name="uni1E93.sc" horiz-adv-x="712" 
d="M700 1024l-448 -889h317l-24 -135h-621l455 891h-283l25 133h579zM49 -432l51 289h281l-51 -289h-281z" />
    <glyph glyph-name="a.sups" horiz-adv-x="534" 
d="M442 1337h164l-110 -626h-164l14 80q-72 -93 -166 -93q-74 0 -94.5 80t10.5 250q29 166 80 244t129 78q45 0 74.5 -23.5t48.5 -73.5zM285 821q51 0 88 189l6 24q15 100 9.5 147.5t-34.5 47.5q-50 0 -84 -197q-36 -211 15 -211z" />
    <glyph glyph-name="b.sups" horiz-adv-x="542" 
d="M485 1350q78 0 101 -77t-6 -241q-31 -172 -85 -253t-137 -81q-93 0 -122 97l-15 -84h-162l156 876h174l-55 -315q69 78 151 78zM397 1032q19 101 15.5 149t-31.5 48q-53 0 -90 -203q-39 -205 18 -205q52 0 88 211z" />
    <glyph glyph-name="c.sups" horiz-adv-x="411" 
d="M260 698q-115 0 -155 79.5t-9 248.5q29 167 102 245.5t199 78.5q35 0 105 -13l-33 -153l-76 71q-84 0 -123 -227q-22 -122 -10.5 -178.5t57.5 -56.5q31 0 72 18v-94q-71 -19 -129 -19z" />
    <glyph glyph-name="d.sups" horiz-adv-x="534" 
d="M475 1587h176l-155 -876h-164l14 80q-72 -93 -166 -93q-74 0 -94.5 80t10.5 250q29 166 80 244t129 78t115 -76zM285 821q48 0 84 164l14 78q11 86 4 126t-33 40q-50 0 -84 -197q-36 -211 15 -211z" />
    <glyph glyph-name="e.sups" horiz-adv-x="503" 
d="M373 1350q116 0 156.5 -78t11.5 -244q-1 -6 -4.5 -16t-4.5 -13h-264q-17 -105 0.5 -154.5t71.5 -49.5q72 0 127 28l2 -88q-78 -37 -178 -37q-131 0 -178.5 80t-16.5 250q29 166 96 244t181 78zM283 1085h92l4 23q12 76 8 112.5t-27 36.5q-47 0 -73 -155z" />
    <glyph glyph-name="f.sups" horiz-adv-x="331" 
d="M434 1464q-28 0 -44 -22.5t-23 -71.5l-7 -33h82l-22 -116h-80l-135 -750h-174l135 750h-64l23 116h61l9 45q19 106 69 155.5t139 49.5q48 0 95 -16l-33 -113q-15 6 -31 6z" />
    <glyph glyph-name="g.sups" horiz-adv-x="542" 
d="M451 1337l165 9l-104 -592q-26 -146 -105.5 -214.5t-222.5 -68.5q-84 0 -157 25l39 114q64 -24 116 -24q65 0 101.5 35.5t48.5 111.5l8 41q-67 -76 -141 -76q-83 0 -108.5 77t3.5 241q31 172 85 253t140 81q87 0 117 -93zM291 821q55 0 92 201q39 205 -18 205
q-55 0 -91 -211q-34 -195 17 -195z" />
    <glyph glyph-name="h.sups" horiz-adv-x="540" 
d="M487 1350q67 0 91.5 -41.5t9.5 -130.5l-82 -467h-176l71 405q10 52 4.5 77.5t-28.5 25.5q-52 0 -72 -99l-72 -409h-174l152 858l176 14l-55 -315q55 82 155 82z" />
    <glyph glyph-name="i.sups" horiz-adv-x="274" 
d="M186 1427l31 177h174l-31 -177h-174zM59 711l111 626h174l-111 -626h-174z" />
    <glyph glyph-name="j.sups" horiz-adv-x="276" 
d="M186 1427l33 177h174l-31 -177h-176zM25 471q-66 0 -134 23l39 114q27 -8 47 -8q64 0 76 78l117 659h176l-119 -671q-19 -100 -67.5 -147.5t-134.5 -47.5z" />
    <glyph glyph-name="k.sups" horiz-adv-x="544" 
d="M645 1337l-194 -227l86 -399h-185l-41 237l-45 -53l-33 -184h-174l154 864l176 12l-80 -452l158 202h178z" />
    <glyph glyph-name="l.sups" horiz-adv-x="274" 
d="M59 711l154 864l176 12l-156 -876h-174z" />
    <glyph glyph-name="m.sups" horiz-adv-x="808" 
d="M758 1350q66 0 89.5 -41.5t8.5 -130.5l-82 -467h-174l72 411q18 103 -23 103q-54 0 -74 -111h-2l-69 -403h-174l71 411q18 103 -22 103q-54 0 -74 -111l-72 -403h-174l111 626l176 13l-14 -82q58 82 157 82q100 0 103 -99q57 99 166 99z" />
    <glyph glyph-name="n.sups" horiz-adv-x="540" 
d="M487 1350q67 0 91.5 -41.5t9.5 -130.5l-82 -467h-176l73 411q18 103 -26 103q-52 0 -72 -111l-72 -403h-174l111 626l176 13l-14 -82q58 82 155 82z" />
    <glyph glyph-name="o.sups" horiz-adv-x="534" 
d="M276 698q-123 0 -167 79.5t-15 246.5q31 168 102.5 247t194.5 79q121 0 164 -79t14 -247q-29 -167 -100.5 -246.5t-192.5 -79.5zM293 793q52 0 94 233q39 231 -12 231q-29 0 -51.5 -55t-44.5 -176q-42 -233 14 -233z" />
    <glyph glyph-name="p.sups" horiz-adv-x="542" 
d="M473 1350q83 0 108.5 -81t-3.5 -253q-29 -164 -79 -241t-128 -77q-82 0 -125 78l-56 -305h-172l152 866h162l-15 -84q63 97 156 97zM395 1016q19 109 15.5 160t-31.5 51q-55 0 -88 -205q-37 -201 20 -201q50 0 84 195z" />
    <glyph glyph-name="q.sups" horiz-adv-x="542" 
d="M451 1337h163l-151 -866h-176l53 305q-69 -78 -152 -78q-78 0 -100.5 77t6.5 241q31 172 83.5 253t135.5 81q90 0 123 -95zM291 821q55 0 92 201q19 106 15 155.5t-33 49.5q-52 0 -91 -211q-34 -195 17 -195z" />
    <glyph glyph-name="r.sups" horiz-adv-x="417" 
d="M485 1350q17 0 35 -7l-41 -186q-36 19 -63 19q-49 0 -79.5 -36.5t-47.5 -113.5l-56 -315h-174l111 626h174l-20 -112q71 125 161 125z" />
    <glyph glyph-name="s.sups" horiz-adv-x="452" 
d="M184 698q-81 0 -143 23l35 104q55 -28 123 -28q38 0 67 23.5t35 60.5q4 8 1 17t-3.5 14t-7 12.5t-9.5 11t-12 9.5t-14 9l-15 9t-16 10q-119 56 -100 176q17 91 93.5 146t174.5 55q65 0 133 -19l-32 -98q-44 20 -99 20q-28 0 -51 -21.5t-29 -53.5q-7 -37 11 -56.5
t55 -36.5q52 -27 77.5 -63.5t14.5 -95.5q-19 -109 -100.5 -168.5t-188.5 -59.5z" />
    <glyph glyph-name="t.sups" horiz-adv-x="362" 
d="M342 1219l-55 -314q-17 -82 37 -82q32 0 38 2l-18 -110q-67 -17 -102 -17q-88 0 -119.5 47.5t-11.5 147.5l57 326h-57l20 118h57l21 119l180 37l-27 -156h97l-23 -118h-94z" />
    <glyph glyph-name="u.sups" horiz-adv-x="540" 
d="M436 1337h176l-110 -626l-178 -13l14 82q-55 -82 -154 -82q-69 0 -93 42t-9 132l82 465h176l-74 -411q-14 -101 27 -101q51 0 72 109z" />
    <glyph glyph-name="v.sups" horiz-adv-x="462" 
d="M473 1337h109l-267 -626h-155l-37 626h184l8 -395z" />
    <glyph glyph-name="w.sups" horiz-adv-x="714" 
d="M727 1337h107l-254 -626h-150l-4 307l-119 -307h-149l-35 626h188l6 -360l136 360h131l4 -370z" />
    <glyph glyph-name="x.sups" horiz-adv-x="503" 
d="M606 1337l-188 -309l84 -317h-189l-51 194l-121 -194h-118l204 327l-80 299h191l45 -172l104 172h119z" />
    <glyph glyph-name="y.sups" horiz-adv-x="464" 
d="M471 1337h111l-373 -864h-107l105 238h-51l-33 626h186l4 -387z" />
    <glyph glyph-name="z.sups" horiz-adv-x="450" 
d="M543 1337l-271 -514h181l-21 -110h-399l270 514h-158l21 110h377z" />
    <glyph glyph-name="zero.osf" horiz-adv-x="929" 
d="M346 -20q-206 0 -280 128.5t-25 403.5q47 274 167.5 403t326.5 129q204 0 277 -128.5t26 -403.5q-50 -275 -168.5 -403.5t-323.5 -128.5zM377 145q54 0 95 89t73 278q35 189 25.5 278t-64.5 89q-57 0 -98.5 -88.5t-73.5 -278.5q-34 -189 -23.5 -278t66.5 -89z" />
    <glyph glyph-name="one.osf" horiz-adv-x="595" 
d="M84 965l483 82l-184 -1047h-281l138 774l-195 -24z" />
    <glyph glyph-name="two.osf" horiz-adv-x="813" 
d="M758 772q-7 -42 -25 -81t-49.5 -76.5t-64 -69t-85 -72t-94.5 -71t-111 -79.5t-118 -85h465l-41 -238h-690l43 238q62 51 139.5 107.5t124 90t93 75.5t72.5 87.5t36 101.5q13 72 -25.5 109t-126.5 37q-91 0 -180 -47l6 184q140 61 305 61q183 0 266 -69.5t60 -202.5z" />
    <glyph glyph-name="three.osf" horiz-adv-x="833" 
d="M762 752q-25 -143 -97 -227t-178 -93v-4q117 0 166 -86.5t21 -241.5q-76 -434 -504 -434q-153 0 -276 51l63 166q68 -28 180 -28q103 0 163 62t85 196q19 111 -19 161t-143 50h-92l29 157h71q102 0 155.5 47t72.5 152q17 97 -19 136.5t-141 39.5q-89 0 -176 -37l8 170
q152 55 303 55q190 0 272 -72.5t56 -219.5z" />
    <glyph glyph-name="four.osf" horiz-adv-x="876" 
d="M791 1024l-156 -881h106l-28 -168h-107l-51 -288h-281l52 288h-418l8 45l594 1004h281zM127 143h227l99 553z" />
    <glyph glyph-name="five.osf" horiz-adv-x="817" 
d="M725 795l-381 16l-68 -264q113 22 175 22q151 0 207 -84t24 -264q-51 -287 -195.5 -422t-400.5 -135q-118 0 -197 39l60 156q62 -21 127 -21q129 0 203.5 84t105.5 264q22 118 -16.5 174t-141.5 56q-90 0 -192 -31l172 639h581z" />
    <glyph glyph-name="six.osf" horiz-adv-x="907" 
d="M713 1200q-113 0 -190 -89t-122 -277q78 67 199 67q146 0 196.5 -101.5t12.5 -318.5q-44 -259 -155 -380t-302 -121q-211 0 -282.5 147.5t-14.5 462.5q69 396 228 582t426 186q102 0 200 -33l-55 -151q-77 26 -141 26zM473 735q-51 0 -86 -68.5t-63 -217.5
q-27 -158 -16.5 -232t59.5 -74q94 0 145 306q54 286 -39 286z" />
    <glyph glyph-name="seven.osf" horiz-adv-x="847" 
d="M885 1024l-690 -1337h-207l555 1073h-469l90 264h721z" />
    <glyph glyph-name="eight.osf" horiz-adv-x="927" 
d="M885 1004q-34 -202 -164 -283q139 -87 96 -332q-37 -212 -152 -310.5t-325 -98.5q-204 0 -282.5 98.5t-41.5 310.5q43 248 209 332q-94 82 -59 283q34 183 135 268.5t283 85.5q188 0 260.5 -85.5t40.5 -268.5zM432 997q-19 -109 -5.5 -160t60.5 -51t79 51t52 160
q19 109 5.5 160t-62.5 51q-93 0 -129 -211zM526 387q22 131 6 191.5t-71 60.5q-56 0 -93.5 -61t-60.5 -191q-23 -129 -7 -189.5t73 -60.5t93.5 60t59.5 190z" />
    <glyph glyph-name="nine.osf" horiz-adv-x="913" 
d="M508 1044q211 0 283.5 -147.5t17.5 -462.5q-69 -396 -227.5 -582t-427.5 -186q-103 0 -193 33l53 151q82 -26 133 -26q113 0 190 89t122 277q-78 -67 -197 -67q-151 0 -203 98.5t-14 310.5q46 264 158.5 388t304.5 124zM539 575q28 158 17.5 233t-62.5 75
q-49 0 -85.5 -75t-64.5 -233q-28 -148 -17.5 -216t60.5 -68q53 0 90 68.5t62 215.5z" />
    <glyph glyph-name="zero.tf" horiz-adv-x="923" 
d="M342 -20q-200 0 -264.5 167.5t-1.5 524.5q65 355 188 520.5t322 165.5q198 0 262.5 -166t3.5 -520q-63 -357 -186.5 -524.5t-323.5 -167.5zM375 158q54 0 101.5 124t94.5 390q46 261 42 383.5t-58 122.5q-55 0 -103.5 -122.5t-95.5 -383.5q-46 -266 -41.5 -390t60.5 -124
z" />
    <glyph glyph-name="one.tf" horiz-adv-x="923" 
d="M215 1249l616 113l-239 -1362h-281l193 1087l-328 -53z" />
    <glyph glyph-name="two.tf" horiz-adv-x="923" 
d="M870 1010q-19 -104 -71 -203.5t-140 -197t-183.5 -182t-231.5 -189.5h504l-41 -238h-727l43 238q68 57 104.5 88t93 81.5t88 83.5t73.5 80t66.5 86t50.5 87.5t42 98.5t26 105q22 117 -21 172.5t-153 55.5q-88 0 -180 -48l2 168q144 62 307 62q212 0 296 -84t52 -264z" />
    <glyph glyph-name="three.tf" horiz-adv-x="923" 
d="M872 1065q-28 -156 -96 -233.5t-186 -86.5v-4q134 0 183 -79.5t18 -247.5q-38 -224 -167 -329t-364 -105q-156 0 -291 53l68 157q83 -30 190 -30q117 0 183.5 64t91.5 200q19 110 -27.5 161.5t-163.5 51.5h-98l29 158h77q114 0 175.5 47.5t80.5 150.5q17 95 -24 140
t-145 45q-81 0 -203 -45l6 170q157 55 315 55q205 0 289.5 -71t58.5 -222z" />
    <glyph glyph-name="four.tf" horiz-adv-x="923" 
d="M883 1337l-156 -880h109l-29 -168h-109l-51 -289h-280l51 289h-432l8 45l608 1003h281zM207 457h239l101 563z" />
    <glyph glyph-name="five.tf" horiz-adv-x="923" 
d="M856 1108l-444 18l-68 -264q105 21 188 21q173 0 239 -86.5t34 -270.5q-49 -283 -203.5 -414.5t-435.5 -131.5q-129 0 -209 38l61 160q67 -20 125 -20q158 0 246 81.5t119 256.5q22 120 -26 176.5t-171 56.5q-119 0 -207 -29l168 637h648z" />
    <glyph glyph-name="six.tf" horiz-adv-x="923" 
d="M721 1200q-119 0 -199 -89t-129 -277q88 67 215 67q152 0 205 -101.5t16 -318.5q-46 -259 -159.5 -380t-309.5 -121q-216 0 -290 147.5t-17 462.5q69 396 227 582t425 186q129 0 219 -33l-52 -151q-79 26 -151 26zM483 735q-58 0 -96.5 -69.5t-64.5 -221.5
q-29 -161 -17 -237t68 -76q52 0 90 75.5t67 237.5q28 151 16.5 221t-63.5 70z" />
    <glyph glyph-name="seven.tf" horiz-adv-x="923" 
d="M983 1337l-729 -1337h-205l586 1073h-502l88 264h762z" />
    <glyph glyph-name="eight.tf" horiz-adv-x="923" 
d="M895 1004q-34 -203 -168 -285q135 -90 92 -338q-37 -207 -152.5 -304t-324.5 -97q-205 0 -284 97t-42 304q44 252 211 338q-100 79 -65 285q32 183 135 268.5t289 85.5q192 0 266.5 -85.5t42.5 -268.5zM434 997q-19 -109 -5.5 -160t60.5 -51q49 0 81 51t51 160t5 160
t-63 51q-93 0 -129 -211zM528 387q23 131 7.5 191.5t-72.5 60.5q-56 0 -93.5 -61t-60.5 -191q-23 -132 -7 -194t73 -62t93.5 61.5t59.5 194.5z" />
    <glyph glyph-name="nine.tf" horiz-adv-x="923" 
d="M569 1358q217 0 293 -147.5t21 -462.5q-69 -396 -228.5 -582t-429.5 -186q-131 0 -221 34l53 152q80 -29 162 -29q116 0 194.5 90t125.5 279q-88 -70 -217 -70q-155 0 -210.5 102t-17.5 320q46 258 161 379t314 121zM612 889q29 158 15.5 232.5t-72.5 74.5
q-55 0 -95 -74.5t-69 -232.5q-26 -148 -12.5 -216.5t67.5 -68.5q61 0 101 68.5t65 216.5z" />
    <glyph glyph-name="zero.tosf" horiz-adv-x="923" 
d="M346 -20q-204 0 -277 128.5t-22 403.5q47 274 166 403t322 129q201 0 272 -128.5t24 -403.5q-49 -275 -166.5 -403.5t-318.5 -128.5zM377 145q51 0 90.5 89t73.5 278t25.5 278t-60.5 89q-53 0 -93.5 -89t-74.5 -278t-24.5 -278t63.5 -89z" />
    <glyph glyph-name="one.tosf" horiz-adv-x="923" 
d="M160 936l616 113l-184 -1049h-281l135 772l-325 -53z" />
    <glyph glyph-name="two.tosf" horiz-adv-x="923" 
d="M829 778q-7 -42 -25.5 -81.5t-51.5 -78t-65.5 -70t-88.5 -72.5t-98.5 -71t-116 -80.5t-123.5 -86.5h488l-41 -238h-727l43 238q64 50 148 109.5t132.5 94.5t98 79t76 89t36.5 99q12 71 -29 104t-141 33q-94 0 -188 -47l4 184q148 61 323 61q202 0 286.5 -64.5
t59.5 -201.5z" />
    <glyph glyph-name="three.tosf" horiz-adv-x="923" 
d="M823 752q-26 -155 -95.5 -232.5t-192.5 -87.5v-4q134 0 183.5 -80t18.5 -248q-40 -224 -169 -329t-365 -105q-152 0 -289 51l66 166q74 -28 188 -28q121 0 188.5 62t92.5 196q19 109 -28 160t-165 51h-98l26 157h80q114 0 175.5 48t80.5 151q15 91 -30.5 133.5
t-159.5 42.5q-78 0 -185 -37l9 170q154 55 315 55q209 0 294.5 -70.5t59.5 -221.5z" />
    <glyph glyph-name="four.tosf" horiz-adv-x="923" 
d="M829 1024l-155 -881h108l-30 -168h-107l-51 -288h-281l52 288h-433l9 45l608 1004h280zM154 143h239l101 564z" />
    <glyph glyph-name="five.tosf" horiz-adv-x="923" 
d="M793 795l-431 16l-67 -264q116 22 188 22q171 0 236 -84t33 -264q-51 -288 -207.5 -422.5t-440.5 -134.5q-117 0 -196 39l57 156q65 -21 127 -21q155 0 242.5 84t118.5 264q22 119 -25 174.5t-168 55.5q-102 0 -207 -31l170 639h635z" />
    <glyph glyph-name="six.tosf" horiz-adv-x="923" 
d="M723 1200q-119 0 -200 -89t-130 -277q85 67 215 67q155 0 210.5 -101.5t17.5 -318.5q-44 -259 -159 -380t-315 -121q-220 0 -296 147.5t-19 462.5q70 396 233.5 582t438.5 186q119 0 217 -33l-55 -151q-79 26 -158 26zM483 735q-60 0 -100 -69t-66 -217
q-28 -158 -13.5 -232t71.5 -74t96.5 74t67.5 232q54 286 -56 286z" />
    <glyph glyph-name="seven.tosf" horiz-adv-x="923" 
d="M928 1024l-729 -1337h-207l586 1073h-498l86 264h762z" />
    <glyph glyph-name="eight.tosf" horiz-adv-x="923" 
d="M895 1004q-34 -203 -168 -285q135 -90 92 -338q-37 -207 -152.5 -304t-324.5 -97q-205 0 -284 97t-42 304q44 252 211 338q-100 79 -65 285q32 183 135 268.5t289 85.5q192 0 266.5 -85.5t42.5 -268.5zM434 997q-19 -109 -5.5 -160t60.5 -51q49 0 81 51t51 160t5 160
t-63 51q-93 0 -129 -211zM528 387q23 131 7.5 191.5t-72.5 60.5q-56 0 -93.5 -61t-60.5 -191q-23 -132 -7 -194t73 -62t93.5 61.5t59.5 194.5z" />
    <glyph glyph-name="nine.tosf" horiz-adv-x="923" 
d="M514 1044q217 0 292 -147.5t19 -462.5q-69 -396 -229 -582t-434 -186q-119 0 -207 33l53 151q77 -26 148 -26q119 0 198.5 90t126.5 279q-85 -70 -211 -70q-157 0 -212.5 98.5t-18.5 310.5q47 264 162.5 388t312.5 124zM559 575q28 158 13.5 233t-72.5 75
q-57 0 -97.5 -75t-68.5 -233q-25 -148 -11.5 -216t68.5 -68q62 0 102.5 68.5t65.5 215.5z" />
    <glyph glyph-name="zero.sinf" horiz-adv-x="528" 
d="M147 -410q-127 0 -163.5 88t0.5 297q37 207 105 294t194 87q125 0 161.5 -86.5t1.5 -294.5q-37 -209 -105 -297t-194 -88zM168 -295q15 0 25.5 10t21.5 42t21.5 81t25.5 137q15 86 22 136t7 81t-6.5 41.5t-20.5 10.5q-31 0 -49 -51t-47 -218q-16 -86 -23 -137t-6.5 -81.5
t7.5 -41t22 -10.5z" />
    <glyph glyph-name="one.sinf" horiz-adv-x="356" 
d="M20 295l304 63l-134 -755h-184l103 571l-113 -20z" />
    <glyph glyph-name="two.sinf" horiz-adv-x="464" 
d="M408 154q-18 -106 -96.5 -199t-213.5 -188h248l-31 -164h-397l29 164q115 80 178.5 156t79.5 171q21 121 -74 121q-42 0 -94 -27l12 134q74 34 180 34q216 0 179 -202z" />
    <glyph glyph-name="three.sinf" horiz-adv-x="499" 
d="M434 197q-14 -80 -54.5 -127.5t-100.5 -53.5v-2q69 0 98.5 -46.5t15.5 -133.5q-25 -132 -93.5 -188t-209.5 -56q-94 0 -168 35l37 117q44 -18 78 -18q80 0 118 27.5t50 94.5q9 49 -14 71t-85 22h-57l17 104h40q63 0 93 23t39 77q8 43 -15.5 61.5t-87.5 18.5
q-42 0 -92 -18l12 119q88 32 189 32q118 0 161.5 -36.5t28.5 -122.5z" />
    <glyph glyph-name="four.sinf" horiz-adv-x="516" 
d="M451 344l-82 -467h57l-20 -115h-58l-29 -159h-182l29 159h-240l4 25l338 557h183zM68 -123h118l50 279z" />
    <glyph glyph-name="five.sinf" horiz-adv-x="477" 
d="M414 190l-228 15l-34 -131q63 14 110 14q69 0 106 -42t21 -130q-29 -168 -117 -247t-247 -79q-66 0 -113 23l37 108q31 -10 69 -10q82 0 123 40.5t58 137.5q9 50 -22.5 76.5t-82.5 26.5q-54 0 -100 -15l104 367h359z" />
    <glyph glyph-name="six.sinf" horiz-adv-x="524" 
d="M373 252q-74 0 -118 -42.5t-65 -139.5q44 39 119 39q83 0 110 -54t5 -176q-28 -155 -90 -222t-180 -67q-126 0 -168.5 82t-10.5 265q40 222 133 320.5t263 98.5q50 0 106 -20l-31 -103q-55 19 -73 19zM233 -150q14 58 12.5 102t-30.5 44q-28 0 -42.5 -37.5t-25.5 -108.5
q-14 -58 -13 -103.5t30 -45.5q15 0 26.5 10.5t19.5 36.5t12 44t11 58z" />
    <glyph glyph-name="seven.sinf" horiz-adv-x="503" 
d="M506 344l-383 -741h-135l293 565h-267l56 176h436z" />
    <glyph glyph-name="eight.sinf" horiz-adv-x="540" 
d="M467 158q-17 -107 -82 -154q69 -48 45 -178q-22 -124 -88.5 -180t-194.5 -56q-125 0 -170 56t-22 180q24 131 108 178q-44 42 -26 154q19 105 76.5 151.5t169.5 46.5q116 0 159.5 -47t24.5 -151zM207 152q-11 -64 -5.5 -85.5t31.5 -21.5q25 0 38.5 22t23.5 85
q11 63 6 83.5t-33 20.5q-25 0 -38 -21t-23 -83zM242 -178q14 76 8.5 101.5t-35.5 25.5q-29 0 -44 -25.5t-28 -101.5q-9 -51 -9.5 -78t8 -38t28.5 -11q30 0 45 26.5t27 100.5z" />
    <glyph glyph-name="nine.sinf" horiz-adv-x="528" 
d="M272 356q128 0 170.5 -80.5t10.5 -263.5q-40 -222 -133.5 -322t-264.5 -100q-47 0 -106 21l31 102q47 -16 73 -16q75 0 118.5 41.5t66.5 136.5q-48 -37 -121 -37q-85 0 -113 51.5t-6 169.5q28 157 92.5 227t181.5 70zM283 96q14 60 12.5 105t-33.5 45q-30 0 -45.5 -37.5
t-28.5 -112.5q-12 -57 -10 -101t31 -44q30 0 45.5 36.5t28.5 108.5z" />
    <glyph glyph-name="zero.dnom" horiz-adv-x="528" 
d="M147 -12q-127 0 -163.5 88t0.5 297q37 207 105 294t194 87q125 0 161.5 -86.5t1.5 -294.5q-37 -209 -105 -297t-194 -88zM168 102q29 0 47 51.5t47 219.5q15 86 22 135.5t7 80.5t-6.5 41.5t-20.5 10.5q-31 0 -49 -50.5t-47 -217.5q-16 -86 -23 -137t-6.5 -82t7.5 -41.5
t22 -10.5z" />
    <glyph glyph-name="one.dnom" horiz-adv-x="356" 
d="M20 692l304 64l-134 -756h-184l103 571l-113 -20z" />
    <glyph glyph-name="two.dnom" horiz-adv-x="464" 
d="M408 551q-18 -106 -96.5 -199t-213.5 -188h248l-31 -164h-397l29 164q115 80 178.5 156t79.5 172q21 120 -74 120q-44 0 -94 -26l12 133q76 35 180 35q106 0 152 -51t27 -152z" />
    <glyph glyph-name="three.dnom" horiz-adv-x="499" 
d="M434 594q-13 -79 -54 -126.5t-101 -53.5v-2q69 0 98.5 -47t15.5 -134q-25 -132 -93.5 -187.5t-209.5 -55.5q-94 0 -168 35l37 116q44 -18 78 -18q80 0 118 28t50 95q9 49 -14 70.5t-85 21.5h-57l17 104h40q63 0 93 23.5t39 77.5q8 43 -15.5 61.5t-87.5 18.5
q-40 0 -92 -19l12 119q90 33 189 33q118 0 161.5 -37t28.5 -123z" />
    <glyph glyph-name="four.dnom" horiz-adv-x="514" 
d="M451 741l-82 -467h57l-20 -114h-58l-29 -160h-182l29 160h-240l4 24l338 557h183zM68 274h118l50 279z" />
    <glyph glyph-name="five.dnom" horiz-adv-x="477" 
d="M414 588l-228 14l-34 -131q63 14 110 14q69 0 106 -42t21 -130q-29 -168 -117 -246.5t-247 -78.5q-68 0 -113 22l37 109q31 -10 69 -10q82 0 123 40.5t58 137.5q8 50 -23 76t-82 26q-57 0 -100 -14l104 366h359z" />
    </font>
</defs>
</svg>
