<svg id="TagGen_ComboMark_Dark" xmlns="http://www.w3.org/2000/svg" width="3000" height="1062.091" viewBox="0 0 3000 1062.091">
  <defs>
    <style>
      .cls-1 {
        fill: #222;
      }

      .cls-1, .cls-2 {
        fill-rule: evenodd;
      }

      .cls-2 {
        fill: #ff8a00;
      }
    </style>
  </defs>
  <path id="Logo" class="cls-1" d="M1126.21,531.759L656.75,1001.22v-0.09L595.3,1062.57l97.058-362.218L806.08,586.633l0.044,0.043,55.168-55.168-97.551-97.552,56.036-209.129L1126.21,531.256l-0.25.252ZM530.486,0.477L433.4,362.818l-168.69,168.69L362.1,628.9,306.064,838.03-0.206,531.759l0.251-.251-0.251-.252,219.75-219.749-0.044-.044Z" transform="translate(0 -0.469)"/>
  <path id="Slash" class="cls-2" d="M659.814,531.133H659.55L519.959,1052.09,366.866,899l98.57-367.866H465.7L605.291,10.173,758.384,163.266Z" transform="translate(0 -0.469)"/>
  <path id="Tag" class="cls-2" d="M2103.81,447.477q-18.855,1.923-44.74,1.923,24.615,11.026,36.79,27.82t12.18,40.9q0,26.67-12.95,47.436t-37.05,32.436q-24.105,11.67-56.67,11.666-22.05,0-37.18-4.359a26.765,26.765,0,0,0-8.71,9.744,26.023,26.023,0,0,0-3.34,12.564,17.345,17.345,0,0,0,7.44,14.872q7.425,5.384,26.41,5.384h47.18q28.455,0,50.9,9.872,22.425,9.875,35.12,27.051a63.11,63.11,0,0,1,12.7,38.462q0,26.924-15.65,46.026-15.63,19.1-46.02,29.1t-73.72,10q-45.645,0-72.05-9.359t-37.56-27.564q-11.16-18.208-11.16-46.667h51.54q0,15.126,5.77,24.1t20.9,13.333q15.12,4.357,43.07,4.359,41.025,0,59.11-10t18.07-29.487q0-16.412-14.23-25.385t-38.59-8.974h-46.41q-24.615,0-41.28-7.051t-24.74-18.846a45.223,45.223,0,0,1-8.08-26.154,50.451,50.451,0,0,1,7.82-26.667q7.815-12.817,22.44-22.308-24.375-12.56-35.52-30.9t-11.15-44.744q0-28.2,14.36-50t40-33.846q25.635-12.05,58.72-12.051,30.765,0,52.69-3.333t37.44-8.975a349.545,349.545,0,0,0,34.74-15.128l15.38,47.692A154.557,154.557,0,0,1,2103.81,447.477Zm-105.77,12.179q-26.67,0-40.9,15.128t-14.23,40.77q0,26.153,14.36,41.41t41.54,15.256q25.38,0,38.85-14.872t13.46-42.307Q2051.12,459.656,1998.04,459.656Zm-208.67,240.8q-14.07-8.977-21.24-26.166a92.98,92.98,0,0,1-37.13,28.09A123.852,123.852,0,0,1,1681.85,712q-27.15,0-47.24-10.517a73.984,73.984,0,0,1-30.85-29.5q-10.755-18.981-10.75-44.122,0-42.839,33.41-65.927t95.11-23.087h38.66v-17.7q0-25.649-15.36-37.452t-44.81-11.8a180.625,180.625,0,0,0-33.02,3.591,276.075,276.075,0,0,0-38.92,10.518L1614,445.476a296.024,296.024,0,0,1,48.9-13.852,246.226,246.226,0,0,1,45.83-4.618q53.505,0,80.64,23.6t27.14,67.209V638.638q0,15.649,4.74,23.087t15.74,11.03l-12.8,38.992Q1803.46,709.437,1789.37,700.46Zm-29.18-125.7h-31.75q-39.165,0-57.22,12.955t-18.05,37.58q0,21.807,11.65,33.092t34.44,11.287a68.343,68.343,0,0,0,34.17-9.363,74.359,74.359,0,0,0,26.76-25.781v-59.77Zm-254.33-182.8-0.85,320.022H1446l0.37-320.022H1340.22V344.015h274.36l-6.16,47.949H1505.86Z" transform="translate(0 -0.469)"/>
  <path id="Gen" class="cls-1" d="M2942.54,711.986V542.993q0-25.13-2.95-38.722t-11.28-20q-8.34-6.406-24.5-6.411-18.465,0-34.75,11.284a117.5,117.5,0,0,0-28.6,28.464V711.986h-57.45v-270.8h49.5l4.36,35.132a115.526,115.526,0,0,1,39.75-31.286,109.547,109.547,0,0,1,47.71-11.027q37.44,0,56.56,20.9,19.095,20.9,19.1,59.622V711.986h-57.45ZM2537.86,587.938q2.31,39.749,22.44,59.487t51.41,19.744a109,109,0,0,0,36.15-5.9,159.568,159.568,0,0,0,34.88-17.693l24.87,34.359a144.664,144.664,0,0,1-44.87,24.872,161.9,161.9,0,0,1-53.85,8.974q-41.28,0-70.77-17.82t-44.62-49.872q-15.12-32.049-15.12-74.359,0-40.768,15-73.2t42.95-51.026q27.945-18.588,65.64-18.589,35.625,0,61.92,16.282t40.51,46.8q14.235,30.516,14.23,72.307a234.78,234.78,0,0,1-1.28,25.641H2537.86Zm108.72-97.948q-15.645-20.511-44.1-20.513-27.945,0-45.13,19.871t-19.74,59.359h125.38Q2662.225,510.505,2646.58,489.99ZM2374.17,703.323q-28.335,8.462-62.95,8.461-45.375,0-77.69-20.769t-49.36-62.051q-17.055-41.28-17.05-101.539,0-58.461,20.9-99.871t56.02-62.565q35.13-21.153,77.44-21.153,34.35,0,58.72,10.128,24.345,10.132,46.66,30.641l-33.33,34.615q-16.41-14.868-33.21-21.923a95.457,95.457,0,0,0-37.3-7.051q-26.415,0-47.44,13.718t-33.59,44.487q-12.57,30.769-12.56,79.231,0,48.978,9.36,79.359t27.94,44.359q18.6,13.979,47.31,13.974A120.835,120.835,0,0,0,2372.5,650.5V553.066h-60l-6.41-45.384H2430.2V679.22A272.462,272.462,0,0,1,2374.17,703.323Z" transform="translate(0 -0.469)"/>
</svg>
