<svg id="TagGen_Logo_Light" xmlns="http://www.w3.org/2000/svg" width="1126.22" height="1062.091" viewBox="0 0 1126.22 1062.091">
  <defs>
    <style>
      .cls-1 {
        fill: #eee;
      }

      .cls-1, .cls-2 {
        fill-rule: evenodd;
      }

      .cls-2 {
        fill: #ff8a00;
      }
    </style>
  </defs>
  <path id="Logo" class="cls-1" d="M1126.21,531.759L656.75,1001.22v-0.09L595.3,1062.57l97.058-362.218L806.08,586.633l0.044,0.043,55.168-55.168-97.551-97.552,56.036-209.129L1126.21,531.256l-0.25.252ZM530.486,0.477L433.4,362.818l-168.69,168.69L362.1,628.9,306.064,838.03-0.206,531.759l0.251-.251-0.251-.252,219.75-219.749-0.044-.044Z" transform="translate(0 -0.469)"/>
  <path id="Slash" class="cls-2" d="M659.814,531.133H659.55L519.959,1052.09,366.866,899l98.57-367.866H465.7L605.291,10.173,758.384,163.266Z" transform="translate(0 -0.469)"/>
</svg>
