<svg id="TagGen_Wordmark_Dark" xmlns="http://www.w3.org/2000/svg" width="1659.781" height="464.375" viewBox="0 0 1659.781 464.375">
  <defs>
    <style>
      .cls-1 {
        fill: #ff8a00;
      }

      .cls-1, .cls-2 {
        fill-rule: evenodd;
      }

      .cls-2 {
        fill: #222;
      }
    </style>
  </defs>
  <path id="Tag" class="cls-1" d="M763.809,103.477q-18.846,1.923-44.744,1.923,24.616,11.026,36.795,27.82t12.18,40.9q0,26.67-12.949,47.436T718.04,253.99q-24.1,11.67-56.667,11.666-22.055,0-37.179-4.359a26.776,26.776,0,0,0-8.718,9.744,26.081,26.081,0,0,0-3.334,12.564,17.342,17.342,0,0,0,7.436,14.872q7.434,5.384,26.41,5.384h47.18q28.461,0,50.9,9.872t35.129,27.051a63.16,63.16,0,0,1,12.692,38.462q0,26.923-15.641,46.026t-46.026,29.1q-30.384,10-73.718,10-45.642,0-72.051-9.359t-37.564-27.564q-11.154-18.209-11.154-46.667H587.27q0,15.126,5.77,24.1t20.9,13.333q15.126,4.357,43.077,4.359,41.022,0,59.1-10t18.077-29.487q0-16.411-14.231-25.385t-38.59-8.974h-46.41q-24.615,0-41.282-7.051t-24.744-18.846a45.264,45.264,0,0,1-8.077-26.154,50.479,50.479,0,0,1,7.821-26.667q7.818-12.817,22.436-22.308-24.363-12.559-35.513-30.9T544.45,172.066q0-28.2,14.359-50t40-33.846q25.637-12.049,58.718-12.051,30.769,0,52.692-3.333t37.436-8.975A349.512,349.512,0,0,0,782.4,48.733l15.384,47.692A154.679,154.679,0,0,1,763.809,103.477ZM658.04,115.656q-26.671,0-40.9,15.128t-14.23,40.77q0,26.153,14.358,41.41t41.539,15.256q25.385,0,38.846-14.872t13.462-42.307Q711.117,115.657,658.04,115.656ZM449.375,356.46q-14.084-8.977-21.25-26.166A92.961,92.961,0,0,1,391,358.384,123.883,123.883,0,0,1,341.848,368q-27.141,0-47.235-10.517a73.966,73.966,0,0,1-30.85-29.5q-10.753-18.981-10.753-44.122,0-42.838,33.41-65.927t95.11-23.087h38.659v-17.7q0-25.649-15.361-37.452t-44.8-11.8A180.586,180.586,0,0,0,327,131.489a275.652,275.652,0,0,0-38.915,10.518L274,101.476a295.773,295.773,0,0,1,48.9-13.852,246.227,246.227,0,0,1,45.827-4.617q53.507,0,80.646,23.6t27.137,67.209V294.638q0,15.65,4.737,23.087t15.745,11.03l-12.8,38.992Q463.456,365.437,449.375,356.46Zm-29.186-125.7H388.443q-39.171,0-57.22,12.955T313.174,281.3q0,21.807,11.648,33.092t34.435,11.287a68.378,68.378,0,0,0,34.178-9.363,74.342,74.342,0,0,0,26.754-25.781v-59.77ZM165.858,47.964l-0.844,320.022H106l0.375-320.022H0.217V0.015H274.576l-6.154,47.949H165.858Z" transform="translate(-0.219)"/>
  <path id="Gen" class="cls-2" d="M1602.54,367.986V198.993q0-25.129-2.95-38.722t-11.28-20q-8.34-6.406-24.5-6.411-18.465,0-34.75,11.284a117.5,117.5,0,0,0-28.6,28.464V367.986h-57.45V97.187h49.5l4.36,35.132a115.526,115.526,0,0,1,39.75-31.286,109.539,109.539,0,0,1,47.71-11.027q37.44,0,56.56,20.9,19.095,20.9,19.1,59.622V367.986h-57.45ZM1197.86,243.938q2.31,39.749,22.44,59.487t51.41,19.744a109,109,0,0,0,36.15-5.9,159.568,159.568,0,0,0,34.88-17.693l24.87,34.359a144.664,144.664,0,0,1-44.87,24.872,161.9,161.9,0,0,1-53.85,8.974q-41.28,0-70.77-17.82t-44.62-49.872q-15.12-32.049-15.12-74.359,0-40.769,15-73.205t42.95-51.026q27.945-18.587,65.64-18.589,35.625,0,61.92,16.282,26.28,16.286,40.51,46.8t14.23,72.307a234.78,234.78,0,0,1-1.28,25.641H1197.86Zm108.72-97.948q-15.645-20.511-44.1-20.513-27.945,0-45.13,19.871t-19.74,59.359h125.38Q1322.225,166.505,1306.58,145.99ZM1034.17,359.323q-28.335,8.462-62.948,8.461-45.385,0-77.693-20.769T844.17,284.964q-17.055-41.28-17.051-101.539,0-58.461,20.9-99.871T904.042,20.99Q939.169-.164,981.478-0.164q34.353,0,58.722,10.128Q1064.545,20.1,1086.86,40.6L1053.53,75.22q-16.41-14.868-33.21-21.923a95.451,95.451,0,0,0-37.3-7.051q-26.414,0-47.436,13.718t-33.59,44.487q-12.565,30.77-12.564,79.231,0,48.978,9.359,79.359T926.735,307.4q18.587,13.979,47.307,13.974A120.825,120.825,0,0,0,1032.5,306.5V209.066h-60l-6.41-45.384H1090.2V335.22A272.462,272.462,0,0,1,1034.17,359.323Z" transform="translate(-0.219)"/>
</svg>
