<svg xmlns="http://www.w3.org/2000/svg"><defs><font id="IBMPlexMono" horiz-adv-x="1228"><font-face font-family="IBM Plex Mono" font-weight="400" units-per-em="2048" panose-1="2 11 5 9 5 2 3 0 2 3" ascent="1597" descent="-451" x-height="1057" cap-height="1430" bbox="-532 -514 1327 2292" underline-thickness="122" underline-position="-470" unicode-range="U+0020-FB02"/><glyph glyph-name=".notdef" d="M66 0v1597h1097V0H66zm122 123h852v1352H188V123z"/><glyph glyph-name=".null" horiz-adv-x="0"/><glyph glyph-name="nonmarkingreturn" horiz-adv-x="682"/><glyph glyph-name="space"/><glyph glyph-name="exclam" unicode="!" d="M647 477h-65l-58 537v416h181v-416zM614-18q-151 0-151 122v37q0 123 151 123 79 0 115.5-33.5T766 141v-37q0-122-152-122z"/><glyph glyph-name="quotedbl" unicode="&quot;" d="M510 948H354v568h156V948zm364 0H719v568h155V948z"/><glyph glyph-name="numbersign" unicode="#" d="M225 0l78 442H33v136h295l47 274H106v135h293l78 443h150L375 0H225zm377 0l252 1430h150l-78-443h270V852H901l-47-274h268V442H829L752 0H602z"/><glyph glyph-name="dollar" unicode="$" d="M571-231v208Q267-4 102 227l125 103q75-94 158-144.5T573 125v534l-47 9q-372 62-372 397 0 170 111 271.5T571 1452v209h127v-209q271-20 426-231l-129-93q-58 77-130 121t-169 54V801l62-10q372-62 372-400 0-179-113-288T698-23v-208H571zM319 1065q0-101 59.5-158.5T573 821v484q-122-12-188-73.5T319 1065zm646-676q0 108-63 166.5T696 639V127q129 14 199 82t70 180z"/><glyph glyph-name="percent" unicode="%" d="M346 729q-138 0-221.5 94T41 1092t83.5 268.5T346 1454t221.5-93.5T651 1092t-83.5-269T346 729zm0 111q75 0 120.5 52.5T512 1040v103q0 95-45.5 147.5T346 1343t-120.5-52.5T180 1143v-103q0-95 45.5-147.5T346 840zm371-25l327 615h148L864 815H717zM37 0l328 614h147L184 0H37zm846-25q-138 0-221.5 94T578 338t83.5 268.5T883 700t221.5-93.5T1188 338t-83.5-269T883-25zm0 111q75 0 120.5 53t45.5 148v102q0 95-45.5 148T883 590t-120.5-53T717 389V287q0-95 45.5-148T883 86z"/><glyph glyph-name="ampersand" unicode="&amp;" d="M444-25Q262-25 156.5 88T51 371q0 57 13 111.5t41.5 110 82 106T315 786q-133 172-133 322 0 152 107.5 249t263.5 97q127 0 217-65t123-152l-135-70q-28 67-82.5 107.5T545 1315q-91 0-146-56t-55-145v-16q0-63 32-125t113-164l185-227 149-185h11q6 37 11 90t6.5 88.5 4.5 108 4 96.5h289V643H995q-2-13-7-52.5t-7-53-7-45.5-9-49.5-10.5-44.5-14.5-51.5-18-51.5L1171 0H977L799 211h-11Q758 102 668.5 38.5T444-25zm43 146q87 0 156 36.5T750 260L393 690Q221 583 221 393v-31q0-110 73.5-175.5T487 121z"/><glyph glyph-name="quotesingle" unicode="'" d="M692 948H537v568h155V948z"/><glyph glyph-name="parenleft" unicode="(" d="M420 637q0 287 121.5 535T846 1556h166q-191-143-315-362.5T573 725V549q0-249 124-469t315-363H846Q663-147 541.5 101.5T420 637z"/><glyph glyph-name="parenright" unicode=")" d="M809 637q0-287-121.5-535.5T383-283H217Q408-140 531.5 80T655 549v176q0 249-123.5 468.5T217 1556h166q183-136 304.5-384T809 637z"/><glyph glyph-name="asterisk" unicode="*" d="M614 459L358 106l-116 87 254 348L88 676l43 135 408-131v442h151V680l408 131 43-135-408-135 254-348-117-87z"/><glyph glyph-name="plus" unicode="+" d="M692 127H537v428H127v139h410v428h155V694h410V555H692V127z"/><glyph glyph-name="comma" unicode="," d="M418-289l108 568h265L555-289H418z"/><glyph glyph-name="hyphen" unicode="-" d="M911 537H317v172h594V537z"/><glyph glyph-name="period" unicode="." d="M614-18q-151 0-151 122v37q0 123 151 123 79 0 115.5-33.5T766 141v-37q0-122-152-122z"/><glyph glyph-name="slash" unicode="/" d="M332-283H184l713 1839h147z"/><glyph glyph-name="zero" unicode="0" d="M614-25q-499 0-499 740 0 739 499 739 500 0 500-739 0-740-500-740zm0 150q166 0 244 124t78 349v233q0 225-78 349.5T614 1305t-243.5-124.5T293 831V598q0-225 77.5-349T614 125zm0 469q-127 0-127 98v45q0 99 127 99t127-99v-45q0-98-127-98z"/><glyph glyph-name="one" unicode="1" d="M1133 0H174v150h410v1153h-15L209 967l-100 108 378 355h269V150h377V0z"/><glyph glyph-name="two" unicode="2" d="M1100 150V0H145v176l478 430q239 215 239 404v24q0 130-68.5 200.5T594 1305q-124 0-197.5-63.5T287 1061l-154 57q22 68 57 124t89.5 106 136 78 182.5 28q209 0 326.5-114t117.5-300q0-152-80.5-278T723 498L324 150h776z"/><glyph glyph-name="three" unicode="3" d="M395 823h158q145 0 222 65.5t77 172.5v14q0 111-71 170.5T590 1305q-202 0-301-183l-129 99q150 233 434 233 190 0 314-96t124-264q0-132-77-217.5T754 760v-8q130-26 218.5-118t88.5-243q0-185-136-300.5T567-25q-90 0-165.5 20T270 52t-95.5 76T98 219l129 98q64-96 139.5-144T567 125q150 0 232 70t82 198v17q0 127-80.5 196.5T565 676H395v147z"/><glyph glyph-name="four" unicode="4" d="M938 0H774v281H70v151l618 998h250V422h213V281H938V0zM766 1296L223 422h551v874h-8z"/><glyph glyph-name="five" unicode="5" d="M1026 1430v-150H387l-41-547h14q57 79 124.5 117.5T659 889q191 0 312-118.5T1092 449q0-212-131-343T604-25q-87 0-159.5 20t-127 57-92.5 76-75 91l129 98q32-47 59.5-78.5t66.5-59 89-41T608 125q146 0 225.5 80T913 426v16q0 142-80.5 221.5T604 743q-93 0-151-30.5T342 623l-145 20 51 787h778z"/><glyph glyph-name="six" unicode="6" d="M616-25q-226 0-355.5 147T131 524q0 122 31.5 242T246 983t120.5 185 139 151.5T649 1430h221q-165-118-269-219.5T421.5 980 307 688l10-4q123 205 353 205 190 0 309-120t119-320q0-212-132.5-343T616-25zm-2 146q146 0 228 80t82 225v16q0 145-82 225.5T614 748t-227.5-80.5T305 442v-16q0-145 81.5-225T614 121z"/><glyph glyph-name="seven" unicode="7" d="M539 0H354l559 1282H287v-266H133v414h954v-152z"/><glyph glyph-name="eight" unicode="8" d="M614-25Q373-25 243 90T113 389q0 141 76.5 229T403 743v17q-115 39-181 126.5T156 1096q0 164 121.5 261t336.5 97 337-97 122-261q0-121-66-209T825 760v-17q137-37 214-125t77-229q0-184-130.5-299T614-25zm0 146q151 0 237.5 68.5T938 379v45q0 123-85 190.5T614 682t-238.5-67.5T291 424v-45q0-121 86-189.5T614 121zm0 700q137 0 211 60.5t74 169.5v28q0 109-75 169.5T614 1309t-209.5-60.5T330 1079v-28q0-109 73.5-169.5T614 821z"/><glyph glyph-name="nine" unicode="9" d="M1098 905q0-122-31.5-242t-83-217T863 261.5t-139.5-151T580 0H358q165 119 269 219.5T807 449t115 292l-11 4Q789 541 559 541q-190 0-309 120T131 981q0 212 132 342.5T612 1454q226 0 356-147t130-402zM614 682q146 0 228 80t82 225v17q0 145-82 225t-228 80-227.5-80-81.5-225v-17q0-145 81.5-225T614 682z"/><glyph glyph-name="colon" unicode=":" d="M614-18q-151 0-151 122v37q0 123 151 123 79 0 115.5-33.5T766 141v-37q0-122-152-122zm0 811q-151 0-151 122v37q0 123 151 123 79 0 115.5-33.5T766 952v-37q0-122-152-122z"/><glyph glyph-name="semicolon" unicode=";" d="M418-289l108 568h265L555-289H418zM614 793q-151 0-151 122v37q0 123 151 123 79 0 115.5-33.5T766 952v-37q0-122-152-122z"/><glyph glyph-name="less" unicode="&lt;" d="M1055 33L174 543v164l881 510v-170L328 635v-17l727-411V33z"/><glyph glyph-name="equal" unicode="=" d="M1102 762H127v139h975V762zm0-410H127v140h975V352z"/><glyph glyph-name="greater" unicode="&gt;" d="M174 33v170l727 411v17l-727 411v175l881-510V543z"/><glyph glyph-name="question" unicode="?" d="M651 440H489v322q180 8 278.5 79t98.5 206v28q0 112-67.5 171T610 1305q-118 0-194-65.5T311 1065l-153 57q43 147 158 239.5t300 92.5q195 0 311.5-105t116.5-282q0-75-22.5-139t-60-110-89-82T766 679t-115-32V440zM578-18q-152 0-152 122v37q0 56 36.5 89.5T578 264q151 0 151-123v-37q0-122-151-122z"/><glyph glyph-name="at" unicode="@" d="M930-98v-131H678q-124 0-217 34T304.5-95.5t-103 169-57 235T127 614q0 235 31 398t94.5 260 152 139.5T616 1454q120 0 209.5-38T969 1308.5t80-159.5 26-201V186H930v117h-10q-54-141-205-141-129 0-201 109t-72 329q0 221 72 330.5T715 1040q151 0 205-141h10v49q0 375-309 375-182 0-261-139.5T281 733V469q0-102 10-181.5t36.5-154 70-123.5T512-68.5 678-98h252zM768 285q75 0 118.5 41T930 444v314q0 77-43.5 118.5T768 918q-87 0-130.5-60.5T594 664V539q0-133 43.5-193.5T768 285z"/><glyph glyph-name="A" unicode="A" d="M1167 0H985L864 408H362L242 0H63l439 1430h227zM823 557l-200 690h-19L403 557h420z"/><glyph glyph-name="B" unicode="B" d="M180 0v1430h486q182 0 287.5-100.5T1059 1061q0-122-59.5-198T836 754v-6q128-30 202-112t74-224q0-174-110-293T727 0H180zm172 150h324q121 0 187.5 55T930 367v84q0 106-67 161.5T676 668H352V150zm0 659h295q110 0 171 49.5t61 145.5v79q0 97-61.5 147T647 1280H352V809z"/><glyph glyph-name="C" unicode="C" d="M662-25q-258 0-388.5 190T143 715t130.5 549.5T662 1454q76 0 140-18t108-46.5 82-71.5 62-84 48-93l-148-68q-22 54-43.5 91t-55.5 71.5-82 52-111 17.5q-166 0-251-126t-85-348V598q0-221 85-347t251-126q63 0 111 17.5t82 51.5 56 71.5 43 90.5l148-67q-24-52-47.5-93t-62-84.5T910 40 802-6.5 662-25z"/><glyph glyph-name="D" unicode="D" d="M195 0v1430h399q260 0 390-180.5T1114 715 984 180.5 594 0H195zm172 150h219q169 0 257.5 118.5T932 604v221q0 217-88.5 336T586 1280H367V150z"/><glyph glyph-name="E" unicode="E" d="M1065 0H184v1430h881v-150H356V799h684V649H356V150h709V0z"/><glyph glyph-name="F" unicode="F" d="M356 0H184v1430h901v-150H356V799h668V649H356V0z"/><glyph glyph-name="G" unicode="G" d="M909 0v190h-10q-20-46-44-81t-61-67.5T701.5-8 575-25q-229 0-344.5 187.5T115 705q0 369 127 559t383 190q96 0 172.5-26t128-73 85-98 58.5-116l-147-68q-21 53-43.5 90.5t-56 72-81.5 52-110 17.5q-167 0-250.5-126T297 831V610q0-489 317-489 136 0 215.5 83.5T909 422v147H608v138h461V0H909z"/><glyph glyph-name="H" unicode="H" d="M893 0v649H336V0H164v1430h172V799h557v631h172V0H893z"/><glyph glyph-name="I" unicode="I" d="M1057 0H172v137h356v1155H172v138h885v-138H700V137h357V0z"/><glyph glyph-name="J" unicode="J" d="M295 1430h688V371q0-180-117-288T561-25q-163 0-270 85T152 299l163 35q23-97 80.5-152T565 127q119 0 182.5 68.5T811 401v879H295v150z"/><glyph glyph-name="K" unicode="K" d="M983 0L551 700 346 459V0H174v1430h172V684h6l189 238 422 508h206L668 827 1184 0H983z"/><glyph glyph-name="L" unicode="L" d="M1096 0H246v1430h172V150h678V0z"/><glyph glyph-name="M" unicode="M" d="M932 0v1169h-17L614 434l-301 735h-16V0H139v1430h221l252-631h13l252 631h213V0H932z"/><glyph glyph-name="N" unicode="N" d="M821 0L334 1210h-15V0H164v1430h244L895 231h14v1199h156V0H821z"/><glyph glyph-name="O" unicode="O" d="M614-25q-499 0-499 740 0 739 499 739 500 0 500-739 0-740-500-740zm0 150q318 0 318 473v233q0 225-77 349.5T614 1305q-317 0-317-474V598q0-473 317-473z"/><glyph glyph-name="P" unicode="P" d="M356 0H184v1430h521q196 0 301.5-108.5T1112 1018t-105.5-303.5T705 606H356V0zm0 1280V756h344q108 0 169 55t61 154v106q0 99-61 154t-169 55H356z"/><glyph glyph-name="Q" unicode="Q" d="M1006-197v-139H766q-116 0-175 66T532-94v76Q115 38 115 715q0 739 499 739 500 0 500-739 0-329-103-516.5T696-18v-179h310zM614 125q318 0 318 473v233q0 225-77 349.5T614 1305q-317 0-317-474V598q0-473 317-473z"/><glyph glyph-name="R" unicode="R" d="M356 610V0H184v1430h521q196 0 301.5-108.5T1112 1018q0-173-91.5-278T760 618L1124 0H932L584 610H356zm0 146h344q108 0 169 55t61 154v106q0 99-61 154t-169 55H356V756z"/><glyph glyph-name="S" unicode="S" d="M610-25Q274-25 92 227l125 103q85-107 179-157t220-50q154 0 237 71t83 201q0 106-61 164t-205 82l-160 27q-369 62-369 389 0 193 127 295t350 102q327 0 480-219l-121-105q-66 85-151 131t-210 46q-146 0-223.5-62.5T315 1061q0-100 61-159.5T584 817l153-26q373-65 373-392 0-199-131.5-311.5T610-25z"/><glyph glyph-name="T" unicode="T" d="M1178 1280H700V0H528v1280H51v150h1127v-150z"/><glyph glyph-name="U" unicode="U" d="M164 1430h172V571q0-54 .5-88.5T340 404t8.5-71.5 15-60.5 24-52.5T423 180t48-31 63-17.5 80-6.5 80 6.5 63.5 17.5 48 31 35 39.5T865 272t15.5 60.5T889 404t3.5 78.5.5 88.5v859h172V612q0-114-6.5-195.5t-24-157.5-49-125.5-81.5-87T782.5-8 614-25q-83 0-147.5 13.5t-112 38-81 66-55 90-33.5 118-16.5 142T164 612v818z"/><glyph glyph-name="V" unicode="V" d="M731 0H498L74 1430h182l203-715 153-541h11l153 541 203 715h176z"/><glyph glyph-name="W" unicode="W" d="M432 0H184L72 1430h153l60-820 30-432h17l188 879h193l188-879h17l30 432 60 820h149L1044 0H797L623 854h-17z"/><glyph glyph-name="X" unicode="X" d="M721 731L1178 0H983L813 285 625 596h-9L422 285 242 0H53l467 729-440 701h194l166-277 178-289h9l176 289 172 277h188z"/><glyph glyph-name="Y" unicode="Y" d="M700 0H528v561L35 1430h196l205-373 174-326h8l179 326 204 373h193L700 561V0z"/><glyph glyph-name="Z" unicode="Z" d="M1130 150V0H98v154l809 1126H133v150h963v-154L285 150h845z"/><glyph glyph-name="bracketleft" unicode="[" d="M1034-283H461v1839h573v-126H602V-156h432v-127z"/><glyph glyph-name="backslash" unicode="\" d="M1044-283H897L184 1556h148z"/><glyph glyph-name="bracketright" unicode="]" d="M195 1556h573V-283H195v127h432v1586H195v126z"/><glyph glyph-name="asciicircum" unicode="^" d="M1137 651l-136-63-387 700h-8L219 588 92 651l430 779h185z"/><glyph glyph-name="underscore" unicode="_" d="M1106-346H123v151h983v-151z"/><glyph glyph-name="grave" unicode="`" d="M600 1198l-217 326 149 71 175-348z"/><glyph glyph-name="a" unicode="a" d="M1126 0h-112Q846 0 825 172h-10Q742-25 498-25q-166 0-264.5 86.5T135 297q0 307 455 307h225v105q0 114-65.5 173.5T563 942q-193 0-282-156l-111 82q44 91 148 152t255 61q187 0 296.5-95T979 725V143h147V0zM526 113q125 0 207 56t82 138v174H590q-283 0-283-159v-43q0-81 58-123.5T526 113z"/><glyph glyph-name="b" unicode="b" d="M195 0v1516h163V885h9q103 196 325 196 194 0 304-147t110-406-110-406T692-25q-221 0-325 197h-9V0H195zm434 121q141 0 221 86.5T930 438v180q0 144-80 231t-221 87q-115 0-193-57.5T358 719V338q0-102 78-159.5T629 121z"/><glyph glyph-name="c" unicode="c" d="M651-25q-225 0-352 150T172 528q0 254 127 403.5T649 1081q148 0 246-65t145-178l-131-70q-30 83-96.5 127.5T649 940q-141 0-221-89.5T348 618V438q0-144 80-232.5T653 117q202 0 287 184l117-80q-48-112-151.5-179T651-25z"/><glyph glyph-name="d" unicode="d" d="M870 0v172h-8Q758-25 537-25q-194 0-304 147T123 528t110 406 304 147q222 0 325-196h8v631h164V0H870zM600 121q114 0 192 57.5T870 338v381q0 102-78 159.5T600 936q-141 0-221-87t-80-231V438q0-144 80-230.5T600 121z"/><glyph glyph-name="e" unicode="e" d="M633-25q-227 0-361.5 150T137 526q0 252 134.5 403.5T623 1081q211 0 340-144.5T1092 565v-78H309v-49q0-142 88.5-231.5T633 117q105 0 183 48.5T936 301l121-82q-49-110-160.5-177T633-25zm-10 971q-135 0-224.5-91.5T309 625v-15h606v23q0 140-81 226.5T623 946z"/><glyph glyph-name="f" unicode="f" d="M170 0v139h356v779H150v139h376v217q0 110 59 176t175 66h354v-140H690v-319h424V918H690V139h377V0H170z"/><glyph glyph-name="g" unicode="g" d="M1149-121q0-313-533-313-249 0-364 66.5T137-172q0 157 172 203v24q-94 46-94 146 0 76 50 119t141 65v8q-98 43-152.5 127.5T199 717q0 162 112 263t297 101q122 0 209-43v19q0 66 30.5 104.5T944 1200h195v-143H901v-72q119-103 119-268 0-162-113.5-263.5T608 352q-56 0-100 8-36-7-68-20t-58-39.5-26-60.5q0-44 43.5-61T526 162h234q198 0 293.5-74.5T1149-121zm-154-8q0 139-229 139H399Q293-34 293-133q0-75 58.5-122.5T532-303h160q144 0 223.5 44.5T995-129zM608 479q119 0 179.5 56T848 688v60q0 97-60 151.5T608 954q-118 0-177.5-54.5T371 748v-60q0-97 59.5-153T608 479z"/><glyph glyph-name="h" unicode="h" d="M201 0v1516h164V885h8q85 196 301 196 168 0 267-106.5t99-296.5V0H877v649q0 287-250 287-107 0-184.5-52.5T365 733V0H201z"/><glyph glyph-name="i" unicode="i" d="M680 1290q-67 0-98 28.5t-31 76.5v32q0 48 31 76.5t98 28.5 98-28.5 31-76.5v-32q0-48-31-76.5t-98-28.5zM217 0v139h381v779H217v139h545V139h356V0H217z"/><glyph glyph-name="j" unicode="j" d="M209-410v140h512V918H190v139h695V-168q0-110-59-176t-175-66H209zm594 1700q-67 0-98 28.5t-31 76.5v32q0 48 31 76.5t98 28.5 98-28.5 31-76.5v-32q0-48-31-76.5t-98-28.5z"/><glyph glyph-name="k" unicode="k" d="M215 0v1516h164V559h8l184 174 353 324h200L686 643 1176 0H973L561 549 379 383V0H215z"/><glyph glyph-name="l" unicode="l" d="M164 0v139h368v1237H164v140h532V139h369V0H164z"/><glyph glyph-name="m" unicode="m" d="M262 0H111v1057h151V934h8q28 69 75 108t128 39q87 0 135.5-44.5T666 915h6q67 166 229 166 123 0 170-85t47-263V0H967v707q0 135-28 187t-101 52q-67 0-107.5-44T690 776V0H539v707q0 135-27.5 187T412 946q-68 0-109-44t-41-126V0z"/><glyph glyph-name="n" unicode="n" d="M365 0H201v1057h164V885h8q85 196 301 196 168 0 267-106.5t99-296.5V0H877v649q0 287-250 287-107 0-184.5-52.5T365 733V0z"/><glyph glyph-name="o" unicode="o" d="M614-25q-222 0-350.5 150T135 528t128.5 403T614 1081t351-150 129-403-129-403T614-25zm0 142q141 0 223.5 85.5T920 453v151q0 165-82.5 250.5T614 940t-223-85-82-251V453q0-166 82-251t223-85z"/><glyph glyph-name="p" unicode="p" d="M195-410v1467h163V885h9q103 196 325 196 194 0 304-147t110-406-110-406T692-25q-221 0-325 197h-9v-582H195zm434 531q141 0 221 86.5T930 438v180q0 144-80 231t-221 87q-115 0-193-57.5T358 719V338q0-102 78-159.5T629 121z"/><glyph glyph-name="q" unicode="q" d="M870-410v582h-8Q758-25 537-25q-194 0-304 147T123 528t110 406 304 147q222 0 325-196h8v172h164V-410H870zM600 121q114 0 192 57.5T870 338v381q0 102-78 159.5T600 936q-141 0-221-87t-80-231V438q0-144 80-230.5T600 121z"/><glyph glyph-name="r" unicode="r" d="M158 0v139h309v779H158v139h473V791h10q78 266 356 266h148V893H946q-150 0-232.5-84T631 596V139h409V0H158z"/><glyph glyph-name="s" unicode="s" d="M627-25q-306 0-490 207l111 97q78-83 169.5-124.5T631 113q128 0 204 46t76 136q0 40-15 68.5t-43 45-57.5 25.5-70.5 15l-166 24q-40 6-68 11.5T422 501t-69 24.5-60 36-51 50-32 67-13 87.5q0 153 117 234t309 81q270 0 430-170L946 811Q836 944 616 944q-125 0-191.5-43T358 776q0-40 15-68.5t44-45 58-25 70-14.5l166-25q48-7 81-14t79.5-21 78.5-34.5 62-50.5 45.5-74 15.5-99q0-155-120.5-242.5T627-25z"/><glyph glyph-name="t" unicode="t" d="M1077 0H666Q550 0 491 66t-59 176v676H80v139h262q53 0 74.5 21t21.5 75v277h158v-373h481V918H596V139h481V0z"/><glyph glyph-name="u" unicode="u" d="M864 0v172h-8Q771-25 555-25 387-25 287.5 82T188 379v678h164V408q0-287 250-287 107 0 184.5 52.5T864 324v733h164V0H864z"/><glyph glyph-name="v" unicode="v" d="M719 0H510L131 1057h166l152-443 163-477h9l163 477 152 443h162z"/><glyph glyph-name="w" unicode="w" d="M223 0L61 1057h146l121-914h18l180 914h181l180-914h18l121 914h141L1006 0H793L625 885h-17L436 0H223z"/><glyph glyph-name="x" unicode="x" d="M313 0H125l393 537-383 520h197l160-223 126-177h9l123 177 157 223h189L709 539 1106 0H909L731 248 610 416h-8L485 248z"/><glyph glyph-name="y" unicode="y" d="M778 614l178 443h164L596-231q-39-96-97-137.5T326-410H170v140h246L535 20 109 1057h167l179-443 157-401h9z"/><glyph glyph-name="z" unicode="z" d="M1055 0H174v158l682 760H197v139h837V899L352 139h703V0z"/><glyph glyph-name="braceleft" unicode="{" d="M1014-283H653q-82 0-127 47t-45 121V14q0 24 2 45.5t7.5 42 9 35 14 34 14 28 17.5 27 16.5 22T580 271l16 20q34 41 47.5 71t13.5 62q0 149-282 149H215v127h160q282 0 282 150 0 32-13.5 62T596 983q-2 3-14.5 18.5t-16.5 20-15.5 20T534 1065t-13.5 24-13.5 28l-10 30-9 34-5 36.5-2 42.5v129q0 73 45 120t127 47h361v-126H623v-158q0-53 13.5-96t26-62 42.5-59q34-44 47.5-63.5t31-61.5 17.5-82q0-84-61-138.5T575 641v-8q104-14 165-68.5T801 426q0-40-17.5-82t-31-61.5T705 219q-30-40-42.5-59t-26-62T623 2v-158h391v-127z"/><glyph glyph-name="bar" unicode="|" d="M686-283H543v1839h143V-283z"/><glyph glyph-name="braceright" unicode="}" d="M215 1556h360q82 0 127.5-47t45.5-120v-129q0-24-2-45.5t-7.5-42-9-35-14-34-14-28-17.5-27-16.5-22T649 1003l-16-20q-62-76-62-133 0-150 283-150h160V573H854q-283 0-283-149 0-57 62-133 2-3 14.5-18.5t16.5-20 15.5-20T695 209t13.5-24 13.5-28l10-30 9-34 5-36.5 2-42.5v-129q0-73-45.5-120.5T575-283H215v127h391V2q0 53-13.5 96t-26 62-42.5 59q-34 44-47.5 63.5t-31 61.5-17.5 82q0 84 60.5 138.5T653 633v8q-104 14-164.5 68.5T428 848q0 40 17.5 82t31 61.5T524 1055q30 40 42.5 59t26 62 13.5 96v158H215v126z"/><glyph glyph-name="asciitilde" unicode="~" d="M836 485q-96 0-232 66-6 3-35 17t-38.5 18.5-33.5 15-37.5 14-33 7.5-35.5 4q-56 0-93.5-37T231 485l-125 52q29 102 103.5 164.5T393 764q96 0 232-66 5-3 30-15t33-15.5 29-13 32-13 28.5-9 32-7.5 28.5-2q56 0 93 36.5T997 764l125-51q-29-102-103-165t-183-63z"/><glyph glyph-name="uni00A0"/><glyph glyph-name="exclamdown" unicode="¡" d="M705-373H524V43l58 537h65l58-537v-416zM614 793q-151 0-151 122v37q0 123 151 123 79 0 115.5-33.5T766 952v-37q0-122-152-122z"/><glyph glyph-name="cent" unicode="¢" d="M698-233H571v215Q382 8 277 153.5T172 528q0 230 105.5 375.5T571 1075v215h127v-211q127-10 213-74t129-167l-131-70q-56 149-213 170V119q168 17 244 182l117-80q-45-103-136-168.5T698-23v-210zM348 438q0-123 58.5-206.5T573 125v807q-107-23-166-107.5T348 618V438z"/><glyph glyph-name="sterling" unicode="£" d="M1102 0H154v215q161 66 161 270 0 46-10 101H106v141h160q-1 4-10 30t-11 32-9.5 29.5-9.5 33-7.5 30.5-7.5 34.5-5 32.5-4 37-1 36q0 193 129.5 312.5T680 1454q295 0 446-233l-129-93q-60 88-137.5 132.5T670 1305q-293 0-293-293 0-51 11-108.5t19.5-84.5 30.5-92h412V586H477q6-41 6-80 0-115-50-201T315 174v-10h787V0z"/><glyph glyph-name="yen" unicode="¥" d="M154 0v141h378v381H154v142h288L45 1430h191l376-766h9l376 766h187L786 664h289V522H696V141h379V0H154z"/><glyph glyph-name="brokenbar" unicode="¦" d="M686 821H543v735h143V821zm0-1104H543v736h143v-736z"/><glyph glyph-name="section" unicode="§" d="M997 6q0-147-113-235t-298-88q-215 0-348 114l96 115q106-88 254-88 116 0 182 48T836 4q0 74-55 121t-163 78l-131 37q-164 46-242.5 127.5T166 557q0 98 60 174t169 119v10q-155 97-155 270 0 147 113 235.5t298 88.5q213 0 348-115l-96-114q-106 88-254 88-116 0-182-48t-66-132q0-74 54.5-121T618 934l132-37q164-46 242.5-127.5T1071 580q0-98-60-174T842 287v-11Q997 179 997 6zm-88 533q0 87-59 141t-186 88l-129 35q-37 9-70 22-137-93-137-227 0-87 59-141t186-88l129-35q31-7 70-23 137 93 137 228z"/><glyph glyph-name="dieresis" unicode="¨" d="M424 1266q-60 0-88.5 25.5T307 1360v29q0 43 28.5 68.5T424 1483t88.5-25.5T541 1389v-29q0-43-28.5-68.5T424 1266zm381 0q-60 0-88.5 25.5T688 1360v29q0 43 28.5 68.5T805 1483t88.5-25.5T922 1389v-29q0-43-28.5-68.5T805 1266z"/><glyph glyph-name="copyright" unicode="©" d="M614 37q-128 0-240 47.5t-195 134-131 215T0 715t48 281.5 131 215 195 134 240 47.5 240.5-47.5 195.5-134 131-215 48-281.5-48-281.5-131-215-195.5-134T614 37zm0 113q209 0 347.5 145.5T1100 653v123q0 139-62.5 254.5t-174 182.5-249.5 67-249.5-67T191 1030.5 129 776V653q0-139 62-254t173.5-182T614 150zm11 200q-148 0-232 99t-84 266q0 168 84.5 266t231.5 98q183 0 258-164l-109-59q-47 107-149 107-78 0-123-52t-45-137V657q0-87 44.5-138.5T627 467q58 0 96 28.5t68 84.5l102-64q-36-76-104-121t-164-45z"/><glyph glyph-name="ordfeminine" unicode="ª" d="M948 731h-69q-123 0-129 109h-9q-26-53-84.5-89T510 715q-108 0-167.5 55T283 918q0 212 309 212h149v58q0 160-157 160-68 0-117.5-29.5T393 1241l-86 70q35 60 106.5 101.5T590 1454q131 0 205.5-68t74.5-192V846h78V731zm-207 305H588q-176 0-176-96v-20q0-101 125-101 85 0 144.5 36.5T741 952v84z"/><glyph glyph-name="guillemotleft" unicode="«" d="M623 231l-52-116-421 356v164l421 356 52-117-304-321zm471 0l-52-116-421 356v164l421 356 52-117-303-321z"/><glyph glyph-name="logicalnot" unicode="¬" d="M1069 160H928v395H127v139h942V160z"/><glyph glyph-name="uni00AD" unicode="­" d="M911 537H317v172h594V537z"/><glyph glyph-name="registered" unicode="®" d="M614 709q-158 0-266 106.5T240 1081t108 266 266 107 266.5-107T989 1081 880.5 815.5 614 709zm0 84q120 0 198.5 74t78.5 194v41q0 120-78.5 194T614 1370t-198-74-78-194v-41q0-120 78-194t198-74zm-61 243V893h-82v379h174q57 0 89-31.5t32-85.5q0-38-20-66t-56-40l94-156h-92l-80 143h-59zm0 60h74q25 0 39 13t14 36v14q0 23-14 36t-39 13h-74v-112z"/><glyph glyph-name="macron" unicode="¯" d="M328 1305v139h573v-139H328z"/><glyph glyph-name="degree" unicode="°" d="M614 754q-148 0-249 100.5T264 1104t101 249.5T614 1454t249.5-100.5T965 1104 863.5 854.5 614 754zm0 131q92 0 149.5 62.5T821 1104t-57.5 156.5T614 1323t-149-62.5-57-156.5 57-156.5T614 885z"/><glyph glyph-name="plusminus" unicode="±" d="M692 311H537v408H127v139h410v408h155V858h410V719H692V311zM1102 0H127v139h975V0z"/><glyph glyph-name="twosuperior" unicode="²" d="M897 776V674H340v117l266 215q64 53 95.5 100t31.5 100v13q0 53-35 84.5t-98 31.5q-119 0-160-118l-110 40q28 81 96 133t182 52q124 0 193-61.5t69-161.5q0-83-48.5-149T676 930L477 776h420z"/><glyph glyph-name="threesuperior" unicode="³" d="M496 1118h82q75 0 114 29.5t39 77.5v8q0 51-35.5 78.5T598 1339q-110 0-170-92l-88 70q86 125 262 125 118 0 192-52.5t74-142.5q0-70-45-115t-114-59v-6q75-13 123.5-60T881 883q0-100-80-160.5T588 662q-181 0-279 135l97 69q33-49 74.5-75.5T588 764q76 0 116.5 33t40.5 92v12q0 113-157 113h-92v104z"/><glyph glyph-name="acute" unicode="´" d="M846 1524l-217-326-107 49 174 348z"/><glyph glyph-name="mu" unicode="µ" d="M365-410H201v1467h164V408q0-287 243-287 107 0 181.5 52.5T864 324v733h164V0H864v172h-8Q816 80 749.5 27.5T569-25Q416-25 358 82h-8l15-172v-320z"/><glyph glyph-name="paragraph" unicode="¶" d="M553-305v809q-126 0-231.5 59T154 729 92 967t62 238 167.5 166 231.5 59h479V-305H885v1603H700V-305H553z"/><glyph glyph-name="periodcentered" unicode="·" d="M614 481q-151 0-151 123v37q0 123 151 123 79 0 115.5-33.5T766 641v-37q0-56-36.5-89.5T614 481z"/><glyph glyph-name="cedilla" unicode="¸" d="M639-424q-141 0-203 84l78 84q46-57 125-57 40 0 65 16t25 47-29.5 52T590-166l-58 8 39 199h103l-33-166 6-6q41 12 80 12 62 0 100.5-35.5T866-254q0-83-65-126.5T639-424z"/><glyph glyph-name="onesuperior" unicode="¹" d="M913 674H360v102h224v543l-217-113-52 90 258 134h140V776h200V674z"/><glyph glyph-name="ordmasculine" unicode="º" d="M614 715q-154 0-240.5 98.5T287 1085q0 171 87 270t240 99 240.5-99 87.5-270q0-172-87.5-271T614 715zm0 108q90 0 138.5 55t48.5 146v121q0 91-48.5 146T614 1346t-138-55-48-146v-121q0-91 48-146t138-55z"/><glyph glyph-name="guillemotright" unicode="»" d="M186 115l-51 116 303 322-303 321 51 117 422-356V471zm471 0l-51 116 303 322-303 321 51 117 422-356V471z"/><glyph glyph-name="onequarter" unicode="¼" d="M80 743v103h192v471l-182-92-49 90 221 115h139V846h170V743H80zm637 72l327 615h148L864 815H717zM37 0l328 614h147L184 0H37zm940 0v131H643v121l291 434h168V229h96v-98h-96V0H977zM737 229h240v349h-6z"/><glyph glyph-name="onehalf" unicode="½" d="M80 743v103h192v471l-182-92-49 90 221 115h139V846h170V743H80zm637 72l327 615h148L864 815H717zM37 0l328 614h147L184 0H37zm637 0v119l231 184q111 88 111 184v11q0 40-29 67t-80 27-83-28.5-54-84.5l-108 45q25 77 89.5 125.5T918 698q111 0 172-56t61-142q0-78-48.5-143.5T967 223L809 102h369V0H674z"/><glyph glyph-name="threequarters" unicode="¾" d="M293 731q-175 0-258 146l96 67q28-52 65-80t97-28q59 0 93 28t34 74v14q0 46-36.5 70.5T279 1047h-72v102h72q62 0 95.5 23.5T408 1233v14q0 40-31 65t-84 25q-96 0-148-84l-86 70q81 119 238 119 109 0 175.5-48.5T539 1264q0-64-41-105.5T395 1106v-8q70-11 113-53t43-111q0-92-71-147.5T293 731zm424 84l327 615h148L864 815H717zM37 0l328 614h147L184 0H37zm940 0v131H643v121l291 434h168V229h96v-98h-96V0H977zM737 229h240v349h-6z"/><glyph glyph-name="questiondown" unicode="¿" d="M612-397q-195 0-311.5 105T184-10q0 93 34 169t91.5 125.5 125 80.5T578 410v206h161V295q-180-8-278.5-79T362 10v-28q0-112 67.5-171T618-248q118 0 194.5 65.5T918-8l153-58q-43-147-158.5-239T612-397zm39 1190q-151 0-151 122v37q0 123 151 123 79 0 115.5-33.5T803 952v-37q0-122-152-122z"/><glyph glyph-name="Agrave" unicode="À" d="M1167 0H985L864 408H362L242 0H63l439 1430h227zM823 557l-200 690h-19L403 557h420zm-223 989l-217 326 149 72 175-349z"/><glyph glyph-name="Aacute" unicode="Á" d="M1167 0H985L864 408H362L242 0H63l439 1430h227zM823 557l-200 690h-19L403 557h420zm23 1315l-217-326-107 49 174 349z"/><glyph glyph-name="Acircumflex" unicode="Â" d="M1167 0H985L864 408H362L242 0H63l439 1430h227zM823 557l-200 690h-19L403 557h420zM512 1915h205l227-293-92-63-240 239-239-239-88 63z"/><glyph glyph-name="Atilde" unicode="Ã" d="M1167 0H985L864 408H362L242 0H63l439 1430h227zM823 557l-200 690h-19L403 557h420zm-59 1045q-12 0-23 1t-22 3.5-19.5 4-19.5 6-17 6.5-17.5 8-15.5 8-16 8.5-14 7.5q-92 49-143 49-55 0-119-55l-68 82q73 108 195 108 12 0 23-1t22-3.5 19.5-4 19.5-6 17-6.5 17.5-8 15.5-8 16-8.5 14-7.5q92-49 143-49 55 0 119 55l67-82q-73-108-194-108z"/><glyph glyph-name="Adieresis" unicode="Ä" d="M1167 0H985L864 408H362L242 0H63l439 1430h227zM823 557l-200 690h-19L403 557h420zM424 1614q-60 0-88.5 25.5T307 1708v29q0 43 28.5 68.5T424 1831t88.5-25.5T541 1737v-29q0-43-28.5-68.5T424 1614zm381 0q-60 0-88.5 25.5T688 1708v29q0 43 28.5 68.5T805 1831t88.5-25.5T922 1737v-29q0-43-28.5-68.5T805 1614z"/><glyph glyph-name="Aring" unicode="Å" d="M1167 0H985L864 408H362L242 0H63l439 1430h227zM823 557l-200 690h-19L403 557h420zm-209 971q-100 0-168.5 67T377 1763t68.5 168.5T614 1999t169-67.5 69-168.5-69-168-169-67zm0 100q56 0 87.5 29.5T733 1741v45q0 54-31.5 83t-87.5 29-87-29-31-83v-45q0-54 31-83.5t87-29.5z"/><glyph glyph-name="AE" unicode="Æ" d="M639 0v412H328L213 0H41l422 1430h684v-142H803V795h319V653H803V141h344V0H639zm0 1307h-64L365 553h274v754z"/><glyph glyph-name="Ccedilla" unicode="Ç" d="M662 1305q-166 0-251-126t-85-348V598q0-221 85-347t251-126q63 0 111 17.5t82 51.5 56 71.5 43 90.5l148-67q-24-52-47-92t-60.5-83-80-71-104-47T676-25l-19-100 7-6q41 12 79 12 62 0 101-35.5t39-99.5q0-83-65-126.5T655-424q-140 0-202 84l77 84q46-57 125-57 40 0 65 16t25 47-29.5 52T606-166l-57 8 26 140Q359 12 251 198.5T143 715q0 360 130.5 549.5T662 1454q76 0 140-18t108-46.5 82-71.5 62-84 48-93l-148-68q-22 54-43.5 91t-55.5 71.5-82 52-111 17.5z"/><glyph glyph-name="Egrave" unicode="È" d="M1065 0H184v1430h881v-150H356V799h684V649H356V150h709V0zM610 1546l-217 326 150 72 174-349z"/><glyph glyph-name="Eacute" unicode="É" d="M1065 0H184v1430h881v-150H356V799h684V649H356V150h709V0zM856 1872l-217-326-107 49 175 349z"/><glyph glyph-name="Ecircumflex" unicode="Ê" d="M1065 0H184v1430h881v-150H356V799h684V649H356V150h709V0zM522 1915h205l227-293-92-63-239 239-240-239-88 63z"/><glyph glyph-name="Edieresis" unicode="Ë" d="M1065 0H184v1430h881v-150H356V799h684V649H356V150h709V0zM434 1614q-60 0-88.5 25.5T317 1708v29q0 43 28.5 68.5T434 1831t88.5-25.5T551 1737v-29q0-43-28.5-68.5T434 1614zm381 0q-60 0-88.5 25.5T698 1708v29q0 43 28.5 68.5T815 1831t88.5-25.5T932 1737v-29q0-43-28.5-68.5T815 1614z"/><glyph glyph-name="Igrave" unicode="Ì" d="M1057 0H172v137h356v1155H172v138h885v-138H700V137h357V0zM600 1546l-217 326 149 72 175-349z"/><glyph glyph-name="Iacute" unicode="Í" d="M1057 0H172v137h356v1155H172v138h885v-138H700V137h357V0zM846 1872l-217-326-107 49 174 349z"/><glyph glyph-name="Icircumflex" unicode="Î" d="M1057 0H172v137h356v1155H172v138h885v-138H700V137h357V0zM512 1915h205l227-293-92-63-240 239-239-239-88 63z"/><glyph glyph-name="Idieresis" unicode="Ï" d="M1057 0H172v137h356v1155H172v138h885v-138H700V137h357V0zM424 1614q-60 0-88.5 25.5T307 1708v29q0 43 28.5 68.5T424 1831t88.5-25.5T541 1737v-29q0-43-28.5-68.5T424 1614zm381 0q-60 0-88.5 25.5T688 1708v29q0 43 28.5 68.5T805 1831t88.5-25.5T922 1737v-29q0-43-28.5-68.5T805 1614z"/><glyph glyph-name="Eth" unicode="Ð" d="M209 0v688H45v131h164v611h385q260 0 390-180.5T1114 715 984 180.5 594 0H209zm172 150h205q169 0 257.5 118.5T932 604v221q0 217-88.5 336T586 1280H381V819h289V688H381V150z"/><glyph glyph-name="Ntilde" unicode="Ñ" d="M821 0L334 1210h-15V0H164v1430h244L895 231h14v1199h156V0H821zm-57 1602q-12 0-23 1t-22 3.5-19.5 4-19.5 6-17 6.5-17.5 8-15.5 8-16 8.5-14 7.5q-92 49-143 49-55 0-119-55l-68 82q73 108 195 108 12 0 23-1t22-3.5 19.5-4 19.5-6 17-6.5 17.5-8 15.5-8 16-8.5 14-7.5q92-49 143-49 55 0 119 55l67-82q-73-108-194-108z"/><glyph glyph-name="Ograve" unicode="Ò" d="M614-25q-499 0-499 740 0 739 499 739 500 0 500-739 0-740-500-740zm0 150q318 0 318 473v233q0 225-77 349.5T614 1305q-317 0-317-474V598q0-473 317-473zm-14 1421l-217 326 149 72 175-349z"/><glyph glyph-name="Oacute" unicode="Ó" d="M614-25q-499 0-499 740 0 739 499 739 500 0 500-739 0-740-500-740zm0 150q318 0 318 473v233q0 225-77 349.5T614 1305q-317 0-317-474V598q0-473 317-473zm232 1747l-217-326-107 49 174 349z"/><glyph glyph-name="Ocircumflex" unicode="Ô" d="M614-25q-499 0-499 740 0 739 499 739 500 0 500-739 0-740-500-740zm0 150q318 0 318 473v233q0 225-77 349.5T614 1305q-317 0-317-474V598q0-473 317-473zM512 1915h205l227-293-92-63-240 239-239-239-88 63z"/><glyph glyph-name="Otilde" unicode="Õ" d="M614-25q-499 0-499 740 0 739 499 739 500 0 500-739 0-740-500-740zm0 150q318 0 318 473v233q0 225-77 349.5T614 1305q-317 0-317-474V598q0-473 317-473zm150 1477q-12 0-23 1t-22 3.5-19.5 4-19.5 6-17 6.5-17.5 8-15.5 8-16 8.5-14 7.5q-92 49-143 49-55 0-119-55l-68 82q73 108 195 108 12 0 23-1t22-3.5 19.5-4 19.5-6 17-6.5 17.5-8 15.5-8 16-8.5 14-7.5q92-49 143-49 55 0 119 55l67-82q-73-108-194-108z"/><glyph glyph-name="Odieresis" unicode="Ö" d="M614-25q-499 0-499 740 0 739 499 739 500 0 500-739 0-740-500-740zm0 150q318 0 318 473v233q0 225-77 349.5T614 1305q-317 0-317-474V598q0-473 317-473zM424 1614q-60 0-88.5 25.5T307 1708v29q0 43 28.5 68.5T424 1831t88.5-25.5T541 1737v-29q0-43-28.5-68.5T424 1614zm381 0q-60 0-88.5 25.5T688 1708v29q0 43 28.5 68.5T805 1831t88.5-25.5T922 1737v-29q0-43-28.5-68.5T805 1614z"/><glyph glyph-name="multiply" unicode="×" d="M948 190L614 524 281 190 180 291l334 334-334 333 101 101 333-334 334 334 101-101-334-333 334-334z"/><glyph glyph-name="Oslash" unicode="Ø" d="M614-25q-185 0-299 99L219-90 96-16l123 209Q115 374 115 715q0 739 499 739 186 0 299-98l97 164 123-74-123-209q104-181 104-522 0-740-500-740zM297 598q0-143 29-242l508 854q-82 95-220 95-317 0-317-474V598zm317-473q318 0 318 473v233q0 143-29 242L395 219q81-94 219-94z"/><glyph glyph-name="Ugrave" unicode="Ù" d="M164 1430h172V571q0-54 .5-88.5T340 404t8.5-71.5 15-60.5 24-52.5T423 180t48-31 63-17.5 80-6.5 80 6.5 63.5 17.5 48 31 35 39.5T865 272t15.5 60.5T889 404t3.5 78.5.5 88.5v859h172V612q0-114-6.5-195.5t-24-157.5-49-125.5-81.5-87T782.5-8 614-25q-83 0-147.5 13.5t-112 38-81 66-55 90-33.5 118-16.5 142T164 612v818zm436 116l-217 326 149 72 175-349z"/><glyph glyph-name="Uacute" unicode="Ú" d="M164 1430h172V571q0-54 .5-88.5T340 404t8.5-71.5 15-60.5 24-52.5T423 180t48-31 63-17.5 80-6.5 80 6.5 63.5 17.5 48 31 35 39.5T865 272t15.5 60.5T889 404t3.5 78.5.5 88.5v859h172V612q0-114-6.5-195.5t-24-157.5-49-125.5-81.5-87T782.5-8 614-25q-83 0-147.5 13.5t-112 38-81 66-55 90-33.5 118-16.5 142T164 612v818zm682 442l-217-326-107 49 174 349z"/><glyph glyph-name="Ucircumflex" unicode="Û" d="M164 1430h172V571q0-54 .5-88.5T340 404t8.5-71.5 15-60.5 24-52.5T423 180t48-31 63-17.5 80-6.5 80 6.5 63.5 17.5 48 31 35 39.5T865 272t15.5 60.5T889 404t3.5 78.5.5 88.5v859h172V612q0-114-6.5-195.5t-24-157.5-49-125.5-81.5-87T782.5-8 614-25q-83 0-147.5 13.5t-112 38-81 66-55 90-33.5 118-16.5 142T164 612v818zm348 485h205l227-293-92-63-240 239-239-239-88 63z"/><glyph glyph-name="Udieresis" unicode="Ü" d="M164 1430h172V571q0-54 .5-88.5T340 404t8.5-71.5 15-60.5 24-52.5T423 180t48-31 63-17.5 80-6.5 80 6.5 63.5 17.5 48 31 35 39.5T865 272t15.5 60.5T889 404t3.5 78.5.5 88.5v859h172V612q0-114-6.5-195.5t-24-157.5-49-125.5-81.5-87T782.5-8 614-25q-83 0-147.5 13.5t-112 38-81 66-55 90-33.5 118-16.5 142T164 612v818zm260 184q-60 0-88.5 25.5T307 1708v29q0 43 28.5 68.5T424 1831t88.5-25.5T541 1737v-29q0-43-28.5-68.5T424 1614zm381 0q-60 0-88.5 25.5T688 1708v29q0 43 28.5 68.5T805 1831t88.5-25.5T922 1737v-29q0-43-28.5-68.5T805 1614z"/><glyph glyph-name="Yacute" unicode="Ý" d="M700 0H528v561L35 1430h196l205-373 174-326h8l179 326 204 373h193L700 561V0zm146 1872l-217-326-107 49 174 349z"/><glyph glyph-name="Thorn" unicode="Þ" d="M356 0H184v1430h172v-297h349q195 0 301-109t106-299-106-299-301-109H356V0zm0 983V467h349q108 0 168.5 53.5T934 672v106q0 98-60.5 151.5T705 983H356z"/><glyph glyph-name="germandbls" unicode="ß" d="M373 0H209v1274q0 111 58.5 176.5T442 1516h281v-142H373v-317h702V895L721 434q216-14 333-115t117-290q0-211-143-325T635-410H500v140h135q185 0 273.5 66.5T997 6v51q0 135-95 194.5T598 311h-33v140l361 467H373V0z"/><glyph glyph-name="agrave" unicode="à" d="M1126 0h-112Q846 0 825 172h-10Q742-25 498-25q-166 0-264.5 86.5T135 297q0 307 455 307h225v105q0 114-65.5 173.5T563 942q-193 0-282-156l-111 82q44 91 148 152t255 61q187 0 296.5-95T979 725V143h147V0zM526 113q125 0 207 56t82 138v174H590q-283 0-283-159v-43q0-81 58-123.5T526 113zm39 1085l-217 326 150 71 174-348z"/><glyph glyph-name="aacute" unicode="á" d="M1126 0h-112Q846 0 825 172h-10Q742-25 498-25q-166 0-264.5 86.5T135 297q0 307 455 307h225v105q0 114-65.5 173.5T563 942q-193 0-282-156l-111 82q44 91 148 152t255 61q187 0 296.5-95T979 725V143h147V0zM526 113q125 0 207 56t82 138v174H590q-283 0-283-159v-43q0-81 58-123.5T526 113zm285 1411l-217-326-107 49 175 348z"/><glyph glyph-name="acircumflex" unicode="â" d="M1126 0h-112Q846 0 825 172h-10Q742-25 498-25q-166 0-264.5 86.5T135 297q0 307 455 307h225v105q0 114-65.5 173.5T563 942q-193 0-282-156l-111 82q44 91 148 152t255 61q187 0 296.5-95T979 725V143h147V0zM526 113q125 0 207 56t82 138v174H590q-283 0-283-159v-43q0-81 58-123.5T526 113zm-49 1454h205l227-293-92-64-239 240-240-240-88 64z"/><glyph glyph-name="atilde" unicode="ã" d="M1126 0h-112Q846 0 825 172h-10Q742-25 498-25q-166 0-264.5 86.5T135 297q0 307 455 307h225v105q0 114-65.5 173.5T563 942q-193 0-282-156l-111 82q44 91 148 152t255 61q187 0 296.5-95T979 725V143h147V0zM526 113q125 0 207 56t82 138v174H590q-283 0-283-159v-43q0-81 58-123.5T526 113zm203 1140q-15 0-29 1.5t-28.5 5.5-23 6.5-24 10-20 9.5-21.5 11-18 10q-92 49-143 49-53 0-119-56l-67 82q73 109 194 109 12 0 23-1t22-3.5 19.5-4 19.5-6 17-6.5 17.5-8 15.5-8 16-8.5 14-7.5q92-49 143-49 55 0 119 55l68-82q-73-109-195-109z"/><glyph glyph-name="adieresis" unicode="ä" d="M1126 0h-112Q846 0 825 172h-10Q742-25 498-25q-166 0-264.5 86.5T135 297q0 307 455 307h225v105q0 114-65.5 173.5T563 942q-193 0-282-156l-111 82q44 91 148 152t255 61q187 0 296.5-95T979 725V143h147V0zM526 113q125 0 207 56t82 138v174H590q-283 0-283-159v-43q0-81 58-123.5T526 113zM389 1266q-60 0-88.5 25.5T272 1360v29q0 43 28.5 68.5T389 1483t88.5-25.5T506 1389v-29q0-43-28.5-68.5T389 1266zm381 0q-60 0-88.5 25.5T653 1360v29q0 43 28.5 68.5T770 1483t88.5-25.5T887 1389v-29q0-43-28.5-68.5T770 1266z"/><glyph glyph-name="aring" unicode="å" d="M1126 0h-112Q846 0 825 172h-10Q742-25 498-25q-166 0-264.5 86.5T135 297q0 307 455 307h225v105q0 114-65.5 173.5T563 942q-193 0-282-156l-111 82q44 91 148 152t255 61q187 0 296.5-95T979 725V143h147V0zM526 113q125 0 207 56t82 138v174H590q-283 0-283-159v-43q0-81 58-123.5T526 113zm54 1067q-100 0-169 67t-69 168 69 168.5 169 67.5 168.5-67.5T817 1415t-68.5-168-168.5-67zm0 100q56 0 87 29.5t31 83.5v45q0 54-31 83t-87 29-87.5-29-31.5-83v-45q0-54 31.5-83.5T580 1280z"/><glyph glyph-name="ae" unicode="æ" d="M289-25Q170-25 95 56T20 283q0 159 93.5 240T385 604h129v109q0 131-42 188t-124 57q-73 0-117.5-41T154 797L45 864q36 93 115 155t194 62q181 0 254-159h6q75 159 254 159 160 0 242-122.5t82-360.5V487H664v-51q0-149 51-239.5T860 106q127 0 197 183l119-56q-35-106-118-182T856-25q-103 0-179.5 61T557 209h-6Q524 92 455.5 33.5T289-25zm28 127q95 0 146 61t51 152v172H408q-238 0-238-176v-30q0-88 34-133.5T317 102zm543 861q-95 0-145.5-72.5T664 674v-70h393v70q0 144-51 216.5T860 963z"/><glyph glyph-name="ccedilla" unicode="ç" d="M649 1081q148 0 246-65t145-178l-131-70q-30 83-96.5 127.5T649 940q-141 0-221-89.5T348 618V438q0-144 80-232.5T653 117q202 0 287 184l117-80q-48-110-145.5-176T668-25l-21-100 6-6q41 12 80 12 62 0 100.5-35.5T872-254q0-83-65-126.5T645-424q-141 0-203 84l78 84q46-57 125-57 40 0 65 16t25 47-29.5 52T596-166l-57 8 28 140Q381 10 276.5 155.5T172 528q0 254 127 403.5T649 1081z"/><glyph glyph-name="egrave" unicode="è" d="M633-25q-227 0-361.5 150T137 526q0 252 134.5 403.5T623 1081q211 0 340-144.5T1092 565v-78H309v-49q0-142 88.5-231.5T633 117q105 0 183 48.5T936 301l121-82q-49-110-160.5-177T633-25zm-10 971q-135 0-224.5-91.5T309 625v-15h606v23q0 140-81 226.5T623 946zm-19 252l-217 326 150 71 174-348z"/><glyph glyph-name="eacute" unicode="é" d="M633-25q-227 0-361.5 150T137 526q0 252 134.5 403.5T623 1081q211 0 340-144.5T1092 565v-78H309v-49q0-142 88.5-231.5T633 117q105 0 183 48.5T936 301l121-82q-49-110-160.5-177T633-25zm-10 971q-135 0-224.5-91.5T309 625v-15h606v23q0 140-81 226.5T623 946zm227 578l-217-326-107 49 174 348z"/><glyph glyph-name="ecircumflex" unicode="ê" d="M633-25q-227 0-361.5 150T137 526q0 252 134.5 403.5T623 1081q211 0 340-144.5T1092 565v-78H309v-49q0-142 88.5-231.5T633 117q105 0 183 48.5T936 301l121-82q-49-110-160.5-177T633-25zm-10 971q-135 0-224.5-91.5T309 625v-15h606v23q0 140-81 226.5T623 946zm-107 621h205l227-293-92-64-240 240-239-240-88 64z"/><glyph glyph-name="edieresis" unicode="ë" d="M633-25q-227 0-361.5 150T137 526q0 252 134.5 403.5T623 1081q211 0 340-144.5T1092 565v-78H309v-49q0-142 88.5-231.5T633 117q105 0 183 48.5T936 301l121-82q-49-110-160.5-177T633-25zm-10 971q-135 0-224.5-91.5T309 625v-15h606v23q0 140-81 226.5T623 946zm-195 320q-60 0-88.5 25.5T311 1360v29q0 43 28.5 68.5T428 1483t88.5-25.5T545 1389v-29q0-43-28.5-68.5T428 1266zm381 0q-60 0-88.5 25.5T692 1360v29q0 43 28.5 68.5T809 1483t88.5-25.5T926 1389v-29q0-43-28.5-68.5T809 1266z"/><glyph glyph-name="igrave" unicode="ì" d="M217 0v139h381v779H217v139h545V139h356V0H217zm449 1198l-217 326 149 71 174-348z"/><glyph glyph-name="iacute" unicode="í" d="M217 0v139h381v779H217v139h545V139h356V0H217zm694 1524l-217-326-106 49 174 348z"/><glyph glyph-name="icircumflex" unicode="î" d="M217 0v139h381v779H217v139h545V139h356V0H217zm361 1567h204l228-293-92-64-240 240-240-240-88 64z"/><glyph glyph-name="idieresis" unicode="ï" d="M217 0v139h381v779H217v139h545V139h356V0H217zm272 1266q-60 0-88 25.5t-28 68.5v29q0 43 28 68.5t88 25.5 88.5-25.5T606 1389v-29q0-43-28.5-68.5T489 1266zm381 0q-60 0-88 25.5t-28 68.5v29q0 43 28 68.5t88 25.5 88.5-25.5T987 1389v-29q0-43-28.5-68.5T870 1266z"/><glyph glyph-name="eth" unicode="ð" d="M862 1542l78-92-178-125q69-67 125-144t104.5-174 75.5-215.5 27-246.5q0-280-125-425T621-25q-227 0-356.5 143T135 504q0 239 122 383.5T573 1032q219 0 338-196l9 4q-95 234-275 405l-203-143-77 92 188 131q-121 97-293 191h258q98-63 152-107zM614 117q141 0 223.5 80T920 432v143q0 155-82.5 235.5T614 891t-223-80.5T309 575V432q0-155 82-235t223-80z"/><glyph glyph-name="ntilde" unicode="ñ" d="M365 0H201v1057h164V885h8q85 196 301 196 168 0 267-106.5t99-296.5V0H877v649q0 287-250 287-107 0-184.5-52.5T365 733V0zm405 1253q-15 0-29 1.5t-28.5 5.5-23 6.5-24 10-20 9.5-21.5 11-18 10q-92 49-143 49-53 0-119-56l-68 82q73 109 195 109 12 0 23-1t22-3.5 19.5-4 19.5-6 17-6.5 17.5-8 15.5-8 16-8.5 14-7.5q92-49 143-49 55 0 119 55l68-82q-73-109-195-109z"/><glyph glyph-name="ograve" unicode="ò" d="M614-25q-222 0-350.5 150T135 528t128.5 403T614 1081t351-150 129-403-129-403T614-25zm0 142q141 0 223.5 85.5T920 453v151q0 165-82.5 250.5T614 940t-223-85-82-251V453q0-166 82-251t223-85zm-14 1081l-217 326 149 71 175-348z"/><glyph glyph-name="oacute" unicode="ó" d="M614-25q-222 0-350.5 150T135 528t128.5 403T614 1081t351-150 129-403-129-403T614-25zm0 142q141 0 223.5 85.5T920 453v151q0 165-82.5 250.5T614 940t-223-85-82-251V453q0-166 82-251t223-85zm232 1407l-217-326-107 49 174 348z"/><glyph glyph-name="ocircumflex" unicode="ô" d="M614-25q-222 0-350.5 150T135 528t128.5 403T614 1081t351-150 129-403-129-403T614-25zm0 142q141 0 223.5 85.5T920 453v151q0 165-82.5 250.5T614 940t-223-85-82-251V453q0-166 82-251t223-85zM512 1567h205l227-293-92-64-240 240-239-240-88 64z"/><glyph glyph-name="otilde" unicode="õ" d="M614-25q-222 0-350.5 150T135 528t128.5 403T614 1081t351-150 129-403-129-403T614-25zm0 142q141 0 223.5 85.5T920 453v151q0 165-82.5 250.5T614 940t-223-85-82-251V453q0-166 82-251t223-85zm150 1136q-15 0-29 1.5t-28.5 5.5-23 6.5-24 10-20 9.5-21.5 11-18 10q-92 49-143 49-53 0-119-56l-68 82q73 109 195 109 12 0 23-1t22-3.5 19.5-4 19.5-6 17-6.5 17.5-8 15.5-8 16-8.5 14-7.5q92-49 143-49 55 0 119 55l67-82q-73-109-194-109z"/><glyph glyph-name="odieresis" unicode="ö" d="M614-25q-222 0-350.5 150T135 528t128.5 403T614 1081t351-150 129-403-129-403T614-25zm0 142q141 0 223.5 85.5T920 453v151q0 165-82.5 250.5T614 940t-223-85-82-251V453q0-166 82-251t223-85zM424 1266q-60 0-88.5 25.5T307 1360v29q0 43 28.5 68.5T424 1483t88.5-25.5T541 1389v-29q0-43-28.5-68.5T424 1266zm381 0q-60 0-88.5 25.5T688 1360v29q0 43 28.5 68.5T805 1483t88.5-25.5T922 1389v-29q0-43-28.5-68.5T805 1266z"/><glyph glyph-name="divide" unicode="÷" d="M1102 555H127v139h975V555zM614 106q-127 0-127 99v45q0 98 127 98t127-98v-45q0-99-127-99zm0 795q-127 0-127 98v45q0 99 127 99t127-99v-45q0-98-127-98z"/><glyph glyph-name="oslash" unicode="ø" d="M188-82L96-12l142 172Q135 307 135 528q0 253 128.5 403T614 1081q173 0 297-100l129 158 93-70-142-172q103-147 103-369 0-253-129-403T614-25Q442-25 317 76zM614 940q-141 0-223-85t-82-251V453q0-100 31-170l481 587q-76 70-207 70zm0-823q141 0 223.5 85.5T920 453v151q0 100-31 170L408 186q75-69 206-69z"/><glyph glyph-name="ugrave" unicode="ù" d="M864 0v172h-8Q771-25 555-25 387-25 287.5 82T188 379v678h164V408q0-287 250-287 107 0 184.5 52.5T864 324v733h164V0H864zM594 1198l-217 326 149 71 174-348z"/><glyph glyph-name="uacute" unicode="ú" d="M864 0v172h-8Q771-25 555-25 387-25 287.5 82T188 379v678h164V408q0-287 250-287 107 0 184.5 52.5T864 324v733h164V0H864zm-24 1524l-217-326-107 49 174 348z"/><glyph glyph-name="ucircumflex" unicode="û" d="M864 0v172h-8Q771-25 555-25 387-25 287.5 82T188 379v678h164V408q0-287 250-287 107 0 184.5 52.5T864 324v733h164V0H864zM506 1567h205l227-293-92-64-240 240-239-240-88 64z"/><glyph glyph-name="udieresis" unicode="ü" d="M864 0v172h-8Q771-25 555-25 387-25 287.5 82T188 379v678h164V408q0-287 250-287 107 0 184.5 52.5T864 324v733h164V0H864zM418 1266q-60 0-88.5 25.5T301 1360v29q0 43 28.5 68.5T418 1483t88.5-25.5T535 1389v-29q0-43-28.5-68.5T418 1266zm381 0q-60 0-88.5 25.5T682 1360v29q0 43 28.5 68.5T799 1483t88-25.5 28-68.5v-29q0-43-28-68.5t-88-25.5z"/><glyph glyph-name="yacute" unicode="ý" d="M778 614l178 443h164L596-231q-39-96-97-137.5T326-410H170v140h246L535 20 109 1057h167l179-443 157-401h9zm68 910l-217-326-107 49 174 348z"/><glyph glyph-name="thorn" unicode="þ" d="M195-410v1926h163V885h9q103 196 325 196 194 0 304-147t110-406-110-406T692-25q-221 0-325 197h-9v-582H195zm434 531q141 0 221 86.5T930 438v180q0 144-80 231t-221 87q-115 0-193-57.5T358 719V338q0-102 78-159.5T629 121z"/><glyph glyph-name="ydieresis" unicode="ÿ" d="M778 614l178 443h164L596-231q-39-96-97-137.5T326-410H170v140h246L535 20 109 1057h167l179-443 157-401h9zm-354 652q-60 0-88.5 25.5T307 1360v29q0 43 28.5 68.5T424 1483t88.5-25.5T541 1389v-29q0-43-28.5-68.5T424 1266zm381 0q-60 0-88.5 25.5T688 1360v29q0 43 28.5 68.5T805 1483t88.5-25.5T922 1389v-29q0-43-28.5-68.5T805 1266z"/><glyph glyph-name="Amacron" unicode="Ā" d="M1167 0H985L864 408H362L242 0H63l439 1430h227zM823 557l-200 690h-19L403 557h420zM328 1653v139h573v-139H328z"/><glyph glyph-name="amacron" unicode="ā" d="M1126 0h-112Q846 0 825 172h-10Q742-25 498-25q-166 0-264.5 86.5T135 297q0 307 455 307h225v105q0 114-65.5 173.5T563 942q-193 0-282-156l-111 82q44 91 148 152t255 61q187 0 296.5-95T979 725V143h147V0zM526 113q125 0 207 56t82 138v174H590q-283 0-283-159v-43q0-81 58-123.5T526 113zM293 1305v139h573v-139H293z"/><glyph glyph-name="Abreve" unicode="Ă" d="M1167 0H985L864 408H362L242 0H63l439 1430h227zM823 557l-200 690h-19L403 557h420zM614 1567q-63 0-114.5 21t-84.5 50.5-60.5 75.5-41 80.5T285 1876l104 45 43-70q25-40 35.5-56t29.5-40 33-32.5 35.5-15.5 48.5-7 48.5 7 36 16 33.5 32 30 40 35 56l43 70 104-45q-14-46-28-81t-42-81-60.5-75.5T729 1588t-115-21z"/><glyph glyph-name="abreve" unicode="ă" d="M1126 0h-112Q846 0 825 172h-10Q742-25 498-25q-166 0-264.5 86.5T135 297q0 307 455 307h225v105q0 114-65.5 173.5T563 942q-193 0-282-156l-111 82q44 91 148 152t255 61q187 0 296.5-95T979 725V143h147V0zM526 113q125 0 207 56t82 138v174H590q-283 0-283-159v-43q0-81 58-123.5T526 113zm54 1106q-63 0-115 21t-84.5 50.5T320 1366t-42 81-28 81l104 45 43-70q24-39 35-56t30-40 33.5-32 36-16 48.5-7 48.5 7 35.5 15.5 33 32.5 29.5 40 35.5 56l43 70 104-45q-15-47-28.5-81.5t-41-80.5-60.5-75.5-84.5-50.5-114.5-21z"/><glyph glyph-name="Aogonek" unicode="Ą" d="M63 0l439 1430h227L1167 0q-98-62-152.5-110.5t-66.5-73-12-49.5q0-40 24.5-58t61.5-18q63 0 106 53l82-84q-22-37-70-60.5T1020-424q-98 0-160.5 42.5T797-260q0 141 235 254l-2 6h-45L864 408H362L242 0H63zm760 557l-200 690h-19L403 557h420z"/><glyph glyph-name="aogonek" unicode="ą" d="M1126 143V0q-98-62-152.5-110.5t-66.5-73-12-49.5q0-40 24.5-58t61.5-18q63 0 106 53l82-84q-22-37-70-60.5T979-424q-98 0-160.5 42.5T756-260q0 141 235 254l-2 6q-73 6-115.5 52T825 172h-10Q742-25 498-25q-166 0-264.5 86.5T135 297q0 307 455 307h225v105q0 115-65.5 174T561 942q-191 0-280-156l-111 82q44 91 148 152t255 61q187 0 296.5-95T979 725V143h147zM815 481H590q-283 0-283-159v-43q0-81 58-123.5T526 113q125 0 207 56t82 138v174z"/><glyph glyph-name="Cacute" unicode="Ć" d="M662-25q-258 0-388.5 190T143 715t130.5 549.5T662 1454q76 0 140-18t108-46.5 82-71.5 62-84 48-93l-148-68q-22 54-43.5 91t-55.5 71.5-82 52-111 17.5q-166 0-251-126t-85-348V598q0-221 85-347t251-126q63 0 111 17.5t82 51.5 56 71.5 43 90.5l148-67q-24-52-47.5-93t-62-84.5T910 40 802-6.5 662-25zm241 1897l-217-326-106 49 174 349z"/><glyph glyph-name="cacute" unicode="ć" d="M651-25q-225 0-352 150T172 528q0 254 127 403.5T649 1081q148 0 246-65t145-178l-131-70q-30 83-96.5 127.5T649 940q-141 0-221-89.5T348 618V438q0-144 80-232.5T653 117q202 0 287 184l117-80q-48-112-151.5-179T651-25zm221 1549l-217-326-106 49 174 348z"/><glyph glyph-name="Ccircumflex" unicode="Ĉ" d="M662-25q-258 0-388.5 190T143 715t130.5 549.5T662 1454q76 0 140-18t108-46.5 82-71.5 62-84 48-93l-148-68q-22 54-43.5 91t-55.5 71.5-82 52-111 17.5q-166 0-251-126t-85-348V598q0-221 85-347t251-126q63 0 111 17.5t82 51.5 56 71.5 43 90.5l148-67q-24-52-47.5-93t-62-84.5T910 40 802-6.5 662-25zm-93 1940h205l227-293-92-63-239 239-240-239-88 63z"/><glyph glyph-name="ccircumflex" unicode="ĉ" d="M651-25q-225 0-352 150T172 528q0 254 127 403.5T649 1081q148 0 246-65t145-178l-131-70q-30 83-96.5 127.5T649 940q-141 0-221-89.5T348 618V438q0-144 80-232.5T653 117q202 0 287 184l117-80q-48-112-151.5-179T651-25zM539 1567h204l228-293-92-64-240 240-240-240-88 64z"/><glyph glyph-name="Cdotaccent" unicode="Ċ" d="M662-25q-258 0-388.5 190T143 715t130.5 549.5T662 1454q76 0 140-18t108-46.5 82-71.5 62-84 48-93l-148-68q-22 54-43.5 91t-55.5 71.5-82 52-111 17.5q-166 0-251-126t-85-348V598q0-221 85-347t251-126q63 0 111 17.5t82 51.5 56 71.5 43 90.5l148-67q-24-52-47.5-93t-62-84.5T910 40 802-6.5 662-25zm10 1627q-67 0-98 28t-31 76v33q0 48 31 76t98 28 98-28 31-76v-33q0-48-31-76t-98-28z"/><glyph glyph-name="cdotaccent" unicode="ċ" d="M651-25q-225 0-352 150T172 528q0 254 127 403.5T649 1081q148 0 246-65t145-178l-131-70q-30 83-96.5 127.5T649 940q-141 0-221-89.5T348 618V438q0-144 80-232.5T653 117q202 0 287 184l117-80q-48-112-151.5-179T651-25zm-10 1278q-67 0-98 28.5t-31 76.5v33q0 48 31 76t98 28 98-28 31-76v-33q0-48-31-76.5t-98-28.5z"/><glyph glyph-name="Ccaron" unicode="Č" d="M662-25q-258 0-388.5 190T143 715t130.5 549.5T662 1454q76 0 140-18t108-46.5 82-71.5 62-84 48-93l-148-68q-22 54-43.5 91t-55.5 71.5-82 52-111 17.5q-166 0-251-126t-85-348V598q0-221 85-347t251-126q63 0 111 17.5t82 51.5 56 71.5 43 90.5l148-67q-24-52-47.5-93t-62-84.5T910 40 802-6.5 662-25zm112 1600H569l-227 293 92 63 240-239 239 239 88-63z"/><glyph glyph-name="ccaron" unicode="č" d="M651-25q-225 0-352 150T172 528q0 254 127 403.5T649 1081q148 0 246-65t145-178l-131-70q-30 83-96.5 127.5T649 940q-141 0-221-89.5T348 618V438q0-144 80-232.5T653 117q202 0 287 184l117-80q-48-112-151.5-179T651-25zm92 1252H539l-228 293 95 63 239-240 240 240 86-63z"/><glyph glyph-name="Dcaron" unicode="Ď" d="M195 0v1430h399q260 0 390-180.5T1114 715 984 180.5 594 0H195zm172 150h219q169 0 257.5 118.5T932 604v221q0 217-88.5 336T586 1280H367V150zm303 1425H465l-227 293 92 63 239-239 240 239 88-63z"/><glyph glyph-name="dcaron" unicode="ď" d="M485-25q-184 0-288.5 146.5T92 528t104.5 406.5T485 1081q210 0 306-196h8v631h164V0H799v172h-8Q695-25 485-25zm54 146q108 0 184 58t76 159v381q0 101-76 159t-184 58q-132 0-201.5-84T268 618V438q0-150 69.5-233.5T539 121zm563 1007l14 388h211l-100-388h-125z"/><glyph glyph-name="Dcroat" unicode="Đ" d="M209 0v688H45v131h164v611h385q260 0 390-180.5T1114 715 984 180.5 594 0H209zm172 150h205q169 0 257.5 118.5T932 604v221q0 217-88.5 336T586 1280H381V819h289V688H381V150z"/><glyph glyph-name="dcroat" unicode="đ" d="M870 0v172h-8Q758-25 537-25q-194 0-304 147T123 528t110 406 304 147q222 0 325-196h8v360H557v127h313v144h164v-144h133v-127h-133V0H870zM600 121q114 0 192 57.5T870 338v381q0 102-78 159.5T600 936q-141 0-221-87t-80-231V438q0-144 80-230.5T600 121z"/><glyph glyph-name="Emacron" unicode="Ē" d="M1065 0H184v1430h881v-150H356V799h684V649H356V150h709V0zM338 1653v139h573v-139H338z"/><glyph glyph-name="emacron" unicode="ē" d="M633-25q-227 0-361.5 150T137 526q0 252 134.5 403.5T623 1081q211 0 340-144.5T1092 565v-78H309v-49q0-142 88.5-231.5T633 117q105 0 183 48.5T936 301l121-82q-49-110-160.5-177T633-25zm-10 971q-135 0-224.5-91.5T309 625v-15h606v23q0 140-81 226.5T623 946zm-291 359v139h573v-139H332z"/><glyph glyph-name="Ebreve" unicode="Ĕ" d="M1065 0H184v1430h881v-150H356V799h684V649H356V150h709V0zM625 1567q-63 0-115 21t-84.5 50.5T365 1714t-42 81-28 81l104 45 43-70q24-39 35-56t30-40 33.5-32 36-16 48.5-7 48.5 7 35.5 15.5 33 32.5 29.5 40 35.5 56l43 70 104-45q-15-47-28.5-81.5t-41-80.5-60.5-75.5-84.5-50.5-114.5-21z"/><glyph glyph-name="ebreve" unicode="ĕ" d="M633-25q-227 0-361.5 150T137 526q0 252 134.5 403.5T623 1081q211 0 340-144.5T1092 565v-78H309v-49q0-142 88.5-231.5T633 117q105 0 183 48.5T936 301l121-82q-49-110-160.5-177T633-25zm-10 971q-135 0-224.5-91.5T309 625v-15h606v23q0 140-81 226.5T623 946zm-5 273q-63 0-114.5 21t-84.5 50.5-60.5 75.5-41 80.5T289 1528l104 45 43-70q25-40 35.5-56t29.5-40 33-32.5 35.5-15.5 48.5-7 48.5 7 36 16 33.5 32 30 40 35 56l43 70 104-45q-14-46-28-81t-42-81-60.5-75.5T733 1240t-115-21z"/><glyph glyph-name="Edotaccent" unicode="Ė" d="M1065 0H184v1430h881v-150H356V799h684V649H356V150h709V0zM625 1602q-67 0-98 28t-31 76v33q0 48 31 76t98 28 98-28 31-76v-33q0-48-31-76t-98-28z"/><glyph glyph-name="edotaccent" unicode="ė" d="M633-25q-227 0-361.5 150T137 526q0 252 134.5 403.5T623 1081q211 0 340-144.5T1092 565v-78H309v-49q0-142 88.5-231.5T633 117q105 0 183 48.5T936 301l121-82q-49-110-160.5-177T633-25zm-10 971q-135 0-224.5-91.5T309 625v-15h606v23q0 140-81 226.5T623 946zm-5 307q-67 0-98 28.5t-31 76.5v33q0 48 31 76t98 28 98.5-28.5T748 1391v-33q0-48-31.5-76.5T618 1253z"/><glyph glyph-name="Eogonek" unicode="Ę" d="M184 0v1430h881v-150H356V799h684V649H356V150h709V0q-98-62-152.5-110.5t-66.5-73-12-49.5q0-40 24.5-58t61.5-18q63 0 106 53l82-84q-22-37-70-60.5T918-424q-98 0-161 42.5T694-260q0 141 236 254l-2 6H184z"/><glyph glyph-name="eogonek" unicode="ę" d="M739-424q-98 0-160.5 42.5T516-260q0 138 232 248l-5 6q-51-19-125-19-214 0-347.5 151.5T137 528q0 249 135 401t351 152q211 0 340-144.5T1092 565v-78H309v-49q0-142 88.5-231.5T633 117q105 0 183 48.5T936 301l121-82q-42-93-228-244-102-84-138-125t-36-83q0-40 24.5-58t61.5-18q64 0 107 53l82-84q-22-37-70.5-60.5T739-424zM309 610h606v23q0 140-81 226.5T623 946q-135 0-224.5-91.5T309 625v-15z"/><glyph glyph-name="Ecaron" unicode="Ě" d="M1065 0H184v1430h881v-150H356V799h684V649H356V150h709V0zM727 1575H522l-227 293 92 63 240-239 239 239 88-63z"/><glyph glyph-name="ecaron" unicode="ě" d="M633-25q-227 0-361.5 150T137 526q0 252 134.5 403.5T623 1081q211 0 340-144.5T1092 565v-78H309v-49q0-142 88.5-231.5T633 117q105 0 183 48.5T936 301l121-82q-49-110-160.5-177T633-25zm-10 971q-135 0-224.5-91.5T309 625v-15h606v23q0 140-81 226.5T623 946zm98 281H516l-227 293 94 63 240-240 239 240 86-63z"/><glyph glyph-name="Gcircumflex" unicode="Ĝ" d="M909 0v190h-10q-20-46-44-81t-61-67.5T701.5-8 575-25q-229 0-344.5 187.5T115 705q0 369 127 559t383 190q96 0 172.5-26t128-73 85-98 58.5-116l-147-68q-21 53-43.5 90.5t-56 72-81.5 52-110 17.5q-167 0-250.5-126T297 831V610q0-489 317-489 136 0 215.5 83.5T909 422v147H608v138h461V0H909zM524 1915h205l227-293-92-63-239 239-240-239-88 63z"/><glyph glyph-name="gcircumflex" unicode="ĝ" d="M616-434q-249 0-364 66.5T137-172q0 157 172 203v24q-94 46-94 146 0 76 50 119t141 65v8q-98 43-152.5 127.5T199 717q0 162 112 263t297 101q90 0 160-24h371V926H946q74-80 74-209 0-162-113.5-263.5T608 352q-56 0-100 8-36-7-68-20t-58-39.5-26-60.5q0-44 43.5-61T526 162h234q198 0 293.5-74.5T1149-121q0-313-533-313zm-8 913q119 0 179.5 56T848 688v60q0 97-60 151.5T608 954q-118 0-177.5-54.5T371 748v-60q0-97 59.5-153T608 479zm387-608q0 139-229 139H399Q293-34 293-133q0-75 58.5-122.5T532-303h160q144 0 223.5 44.5T995-129zM506 1567h205l227-293-92-64-240 240-239-240-88 64z"/><glyph glyph-name="Gbreve" unicode="Ğ" d="M909 0v190h-10q-20-46-44-81t-61-67.5T701.5-8 575-25q-229 0-344.5 187.5T115 705q0 369 127 559t383 190q96 0 172.5-26t128-73 85-98 58.5-116l-147-68q-21 53-43.5 90.5t-56 72-81.5 52-110 17.5q-167 0-250.5-126T297 831V610q0-489 317-489 136 0 215.5 83.5T909 422v147H608v138h461V0H909zM627 1567q-63 0-115 21t-84.5 50.5T367 1714t-42 81-28 81l104 45 43-70q24-39 35-56t30-40 33.5-32 36-16 48.5-7 48.5 7 35.5 15.5 33 32.5 29.5 40 35.5 56l43 70 104-45q-15-47-28.5-81.5t-41-80.5-60.5-75.5-84.5-50.5-114.5-21z"/><glyph glyph-name="gbreve" unicode="ğ" d="M616-434q-249 0-364 66.5T137-172q0 157 172 203v24q-94 46-94 146 0 76 50 119t141 65v8q-98 43-152.5 127.5T199 717q0 162 112 263t297 101q90 0 160-24h371V926H946q74-80 74-209 0-162-113.5-263.5T608 352q-56 0-100 8-36-7-68-20t-58-39.5-26-60.5q0-44 43.5-61T526 162h234q198 0 293.5-74.5T1149-121q0-313-533-313zm-8 913q119 0 179.5 56T848 688v60q0 97-60 151.5T608 954q-118 0-177.5-54.5T371 748v-60q0-97 59.5-153T608 479zm387-608q0 139-229 139H399Q293-34 293-133q0-75 58.5-122.5T532-303h160q144 0 223.5 44.5T995-129zM608 1219q-63 0-114.5 21t-84.5 50.5-60.5 75.5-41 80.5T279 1528l104 45 43-70q25-40 35.5-56t29.5-40 33-32.5 35.5-15.5 48.5-7 48.5 7 36 16 33.5 32 30 40 35 56l43 70 104-45q-14-46-28-81t-42-81-60.5-75.5T723 1240t-115-21z"/><glyph glyph-name="Gdotaccent" unicode="Ġ" d="M909 0v190h-10q-20-46-44-81t-61-67.5T701.5-8 575-25q-229 0-344.5 187.5T115 705q0 369 127 559t383 190q96 0 172.5-26t128-73 85-98 58.5-116l-147-68q-21 53-43.5 90.5t-56 72-81.5 52-110 17.5q-167 0-250.5-126T297 831V610q0-489 317-489 136 0 215.5 83.5T909 422v147H608v138h461V0H909zM627 1602q-67 0-98 28t-31 76v33q0 48 31 76t98 28 98-28 31-76v-33q0-48-31-76t-98-28z"/><glyph glyph-name="gdotaccent" unicode="ġ" d="M1149-121q0-313-533-313-249 0-364 66.5T137-172q0 157 172 203v24q-94 46-94 146 0 76 50 119t141 65v8q-98 43-152.5 127.5T199 717q0 162 112 263t297 101q122 0 209-43v19q0 66 30.5 104.5T944 1200h195v-143H901v-72q119-103 119-268 0-162-113.5-263.5T608 352q-56 0-100 8-36-7-68-20t-58-39.5-26-60.5q0-44 43.5-61T526 162h234q198 0 293.5-74.5T1149-121zm-154-8q0 139-229 139H399Q293-34 293-133q0-75 58.5-122.5T532-303h160q144 0 223.5 44.5T995-129zM608 479q119 0 179.5 56T848 688v60q0 97-60 151.5T608 954q-118 0-177.5-54.5T371 748v-60q0-97 59.5-153T608 479zm0 774q-67 0-98 28.5t-31 76.5v33q0 48 31 76t98 28 98-28 31-76v-33q0-48-31-76.5t-98-28.5z"/><glyph glyph-name="Gcommaaccent" unicode="Ģ" d="M909 0v190h-10q-20-46-44-81t-61-67.5T701.5-8 575-25q-229 0-344.5 187.5T115 705q0 369 127 559t383 190q96 0 172.5-26t128-73 85-98 58.5-116l-147-68q-21 53-43.5 90.5t-56 72-81.5 52-110 17.5q-167 0-250.5-126T297 831V610q0-489 317-489 136 0 215.5 83.5T909 422v147H608v138h461V0H909zM451-514l57 387h223L575-514H451z"/><glyph glyph-name="gcommaaccent" unicode="ģ" d="M1149-121q0-313-533-313-249 0-364 66.5T137-172q0 157 172 203v24q-94 46-94 146 0 76 50 119t141 65v8q-98 43-152.5 127.5T199 717q0 162 112 263t297 101q122 0 209-43v19q0 66 30.5 104.5T944 1200h195v-143H901v-72q119-103 119-268 0-162-113.5-263.5T608 352q-56 0-100 8-36-7-68-20t-58-39.5-26-60.5q0-44 43.5-61T526 162h234q198 0 293.5-74.5T1149-121zm-154-8q0 139-229 139H399Q293-34 293-133q0-75 58.5-122.5T532-303h160q144 0 223.5 44.5T995-129zM608 479q119 0 179.5 56T848 688v60q0 97-60 151.5T608 954q-118 0-177.5-54.5T371 748v-60q0-97 59.5-153T608 479zm-116 723l155 387h125l-57-387H492z"/><glyph glyph-name="Hcircumflex" unicode="Ĥ" d="M893 0v649H336V0H164v1430h172V799h557v631h172V0H893zM512 1915h205l227-293-92-63-240 239-239-239-88 63z"/><glyph glyph-name="hcircumflex" unicode="ĥ" d="M201 0v1516h164V885h8q85 196 301 196 168 0 267-106.5t99-296.5V0H877v649q0 287-250 287-107 0-184.5-52.5T365 733V0H201zm-21 1939h205l227-292-92-64-239 240-240-240-88 64z"/><glyph glyph-name="Hbar" unicode="Ħ" d="M893 0v649H336V0H164v1061H20v131h144v238h172v-238h557v238h172v-238h143v-131h-143V0H893zM336 799h557v262H336V799z"/><glyph glyph-name="hbar" unicode="ħ" d="M365 0H201v1245H68v127h133v144h164v-144h313v-127H365V885h8q85 196 301 196 168 0 267-106.5t99-296.5V0H877v649q0 287-250 287-107 0-184.5-52.5T365 733V0z"/><glyph glyph-name="Itilde" unicode="Ĩ" d="M1057 0H172v137h356v1155H172v138h885v-138H700V137h357V0zM764 1602q-12 0-23 1t-22 3.5-19.5 4-19.5 6-17 6.5-17.5 8-15.5 8-16 8.5-14 7.5q-92 49-143 49-55 0-119-55l-68 82q73 108 195 108 12 0 23-1t22-3.5 19.5-4 19.5-6 17-6.5 17.5-8 15.5-8 16-8.5 14-7.5q92-49 143-49 55 0 119 55l67-82q-73-108-194-108z"/><glyph glyph-name="itilde" unicode="ĩ" d="M217 0v139h381v779H217v139h545V139h356V0H217zm612 1253q-15 0-29 1.5t-28 5.5-23.5 7-23.5 9.5-20 9.5-21 11-18 10q-92 49-144 49-53 0-119-56l-67 82q73 109 194 109 12 0 23-1t22-3.5 19.5-4 19.5-6 17-6.5 17.5-8 15.5-8 16-8.5 14-7.5q92-49 144-49 54 0 118 55l68-82q-73-109-195-109z"/><glyph glyph-name="Imacron" unicode="Ī" d="M1057 0H172v137h356v1155H172v138h885v-138H700V137h357V0zM328 1653v139h573v-139H328z"/><glyph glyph-name="imacron" unicode="ī" d="M217 0v139h381v779H217v139h545V139h356V0H217zm176 1305v139h574v-139H393z"/><glyph glyph-name="Ibreve" unicode="Ĭ" d="M1057 0H172v137h356v1155H172v138h885v-138H700V137h357V0zM614 1567q-63 0-114.5 21t-84.5 50.5-60.5 75.5-41 80.5T285 1876l104 45 43-70q25-40 35.5-56t29.5-40 33-32.5 35.5-15.5 48.5-7 48.5 7 36 16 33.5 32 30 40 35 56l43 70 104-45q-14-46-28-81t-42-81-60.5-75.5T729 1588t-115-21z"/><glyph glyph-name="ibreve" unicode="ĭ" d="M217 0v139h381v779H217v139h545V139h356V0H217zm463 1219q-63 0-115 21t-84.5 50.5T420 1366t-42 81-28 81l105 45 43-70q25-40 35.5-56t29.5-40 33-32.5 35.5-15.5 48.5-7 48.5 7 35.5 15.5 33 32.5 29.5 40 35.5 56l43 70 105-45q-14-46-28-81t-42-81-60.5-75.5T795 1240t-115-21z"/><glyph glyph-name="Iogonek" unicode="Į" d="M172 0v137h356v1155H172v138h885v-138H700V137h357V0q-75-47-124.5-85.5T861-152t-29-45.5-7-35.5q0-40 24.5-58t61.5-18q64 0 107 53l82-84q-22-37-70.5-60.5T909-424q-98 0-160.5 42.5T686-260q0 141 236 254l-2 6H172z"/><glyph glyph-name="iogonek" unicode="į" d="M971-424q-98 0-160.5 42.5T748-260q0 141 235 254l-2 6H217v139h381v779H217v139h545V139h356V0q-98-62-152.5-110.5t-66.5-73-12-49.5q0-40 24.5-58t61.5-18q63 0 106 53l82-84q-22-37-70-60.5T971-424zM680 1290q-67 0-98 28.5t-31 76.5v32q0 48 31 76.5t98 28.5 98-28.5 31-76.5v-32q0-48-31-76.5t-98-28.5z"/><glyph glyph-name="Idotaccent" unicode="İ" d="M1057 0H172v137h356v1155H172v138h885v-138H700V137h357V0zM614 1602q-67 0-98 28t-31 76v33q0 48 31 76t98 28 98-28 31-76v-33q0-48-31-76t-98-28z"/><glyph glyph-name="dotlessi" unicode="ı" d="M217 0v139h381v779H217v139h545V139h356V0H217z"/><glyph glyph-name="IJ" unicode="Ĳ" d="M872 1430h172V391q0-189-123-302.5T600-25q-168 0-281 84.5T174 297l172 43q10-44 26.5-78.5t45.5-67 76.5-50T606 127q129 0 197.5 73.5T872 422v1008zM184 594v836h172V594H184z"/><glyph glyph-name="ij" unicode="ĳ" d="M215 0v1057h164V0H215zm164-410v140h471v1327h164V-168q0-110-59-176t-175-66H379zm-82 1700q-67 0-98 28.5t-31 76.5v32q0 48 31 76.5t98 28.5 98-28.5 31-76.5v-32q0-48-31-76.5t-98-28.5zm635 0q-67 0-98 28.5t-31 76.5v32q0 48 31 76.5t98 28.5 98-28.5 31-76.5v-32q0-48-31-76.5t-98-28.5z"/><glyph glyph-name="Jcircumflex" unicode="Ĵ" d="M295 1430h688V371q0-180-117-288T561-25q-163 0-270 85T152 299l163 35q23-97 80.5-152T565 127q119 0 182.5 68.5T811 401v879H295v150zm244 485h204l228-293-92-63-240 239-240-239-88 63z"/><glyph glyph-name="jcircumflex" unicode="ĵ" d="M209-410v140h512V918H190v139h695V-168q0-110-59-176t-175-66H209zm491 1977h205l228-293-93-64-239 240-240-240-88 64z"/><glyph glyph-name="Kcommaaccent" unicode="Ķ" d="M983 0L551 700 346 459V0H174v1430h172V684h6l189 238 422 508h206L668 827 1184 0H983zM496-514l57 387h223L621-514H496z"/><glyph glyph-name="kcommaaccent" unicode="ķ" d="M215 0v1516h164V559h8l184 174 353 324h200L686 643 1176 0H973L561 549 379 383V0H215zm283-514l57 387h223L623-514H498z"/><glyph glyph-name="kgreenlandic" unicode="ĸ" d="M981 0L580 518 381 338V0H217v1057h164V522h8l195 191 348 344h201L694 627 1184 0H981z"/><glyph glyph-name="Lacute" unicode="Ĺ" d="M1096 0H246v1430h172V150h678V0zM563 1872l-217-326-106 49 174 349z"/><glyph glyph-name="lacute" unicode="ĺ" d="M164 0v139h368v1237H164v140h532V139h369V0H164zm682 1896l-217-325-107 49 174 348z"/><glyph glyph-name="Lcommaaccent" unicode="Ļ" d="M1096 0H246v1430h172V150h678V0zM506-514l57 387h223L631-514H506z"/><glyph glyph-name="lcommaaccent" unicode="ļ" d="M164 0v139h368v1237H164v140h532V139h369V0H164zm287-514l57 387h223L575-514H451z"/><glyph glyph-name="Lcaron" unicode="Ľ" d="M1096 0H246v1430h172V150h678V0zM819 1516l-100-388H594l14 388h211z"/><glyph glyph-name="lcaron" unicode="ľ" d="M164 0v139h368v1237H164v140h532V139h369V0H164zm934 1516l-101-388H872l15 388h211z"/><glyph glyph-name="Ldot" unicode="Ŀ" d="M1096 0H246v1430h172V150h678V0zM891 545q-67 0-98 28t-31 76v33q0 48 31 76t98 28 98-28 31-76v-33q0-48-31-76t-98-28z"/><glyph glyph-name="ldot" unicode="ŀ" d="M164 0v139h368v1237H164v140h532V139h369V0H164zm889 504q-67 0-98 28t-31 76v33q0 48 31 76t98 28 98-28 31-76v-33q0-48-31-76t-98-28z"/><glyph glyph-name="Lslash" unicode="Ł" d="M1096 150V0H246v555L82 502v141l164 53v734h172V745l432 142V745L418 604V150h678z"/><glyph glyph-name="lslash" unicode="ł" d="M164 0v139h368v451L219 487v138l313 102v649H164v140h532V774l314 103V739L696 637V139h369V0H164z"/><glyph glyph-name="Nacute" unicode="Ń" d="M821 0L334 1210h-15V0H164v1430h244L895 231h14v1199h156V0H821zm25 1872l-217-326-107 49 174 349z"/><glyph glyph-name="nacute" unicode="ń" d="M365 0H201v1057h164V885h8q85 196 301 196 168 0 267-106.5t99-296.5V0H877v649q0 287-250 287-107 0-184.5-52.5T365 733V0zm487 1524l-217-326-107 49 174 348z"/><glyph glyph-name="Ncommaaccent" unicode="Ņ" d="M821 0L334 1210h-15V0H164v1430h244L895 231h14v1199h156V0H821zM451-514l57 387h223L575-514H451z"/><glyph glyph-name="ncommaaccent" unicode="ņ" d="M365 0H201v1057h164V885h8q85 196 301 196 168 0 267-106.5t99-296.5V0H877v649q0 287-250 287-107 0-184.5-52.5T365 733V0zm92-514l57 387h223L582-514H457z"/><glyph glyph-name="Ncaron" unicode="Ň" d="M821 0L334 1210h-15V0H164v1430h244L895 231h14v1199h156V0H821zM717 1575H512l-227 293 92 63 239-239 240 239 88-63z"/><glyph glyph-name="ncaron" unicode="ň" d="M365 0H201v1057h164V885h8q85 196 301 196 168 0 267-106.5t99-296.5V0H877v649q0 287-250 287-107 0-184.5-52.5T365 733V0zm358 1227H518l-227 293 94 63 240-240 239 240 86-63z"/><glyph glyph-name="napostrophe" unicode="ŉ" d="M201 0v1057h164V885h8q85 196 301 196 168 0 267-106.5t99-296.5V0H877v649q0 287-250 287-107 0-184.5-52.5T365 733V0H201zM0 1137l25 379h190l-106-379H0z"/><glyph glyph-name="Eng" unicode="Ŋ" d="M319 0H164v1430h244L895 231h14v1199h156V-168q0-110-59-176t-175-66H322v140h587V0h-88L334 1210h-15V0z"/><glyph glyph-name="eng" unicode="ŋ" d="M365-410v140h512v919q0 287-250 287-107 0-184.5-52.5T365 733V0H201v1057h164V885h8q85 196 301 196 168 0 267-106.5t99-296.5v-846q0-111-58.5-176.5T807-410H365z"/><glyph glyph-name="Omacron" unicode="Ō" d="M614-25q-499 0-499 740 0 739 499 739 500 0 500-739 0-740-500-740zm0 150q318 0 318 473v233q0 225-77 349.5T614 1305q-317 0-317-474V598q0-473 317-473zM328 1653v139h573v-139H328z"/><glyph glyph-name="omacron" unicode="ō" d="M614-25q-222 0-350.5 150T135 528t128.5 403T614 1081t351-150 129-403-129-403T614-25zm0 142q141 0 223.5 85.5T920 453v151q0 165-82.5 250.5T614 940t-223-85-82-251V453q0-166 82-251t223-85zM328 1305v139h573v-139H328z"/><glyph glyph-name="Obreve" unicode="Ŏ" d="M614-25q-499 0-499 740 0 739 499 739 500 0 500-739 0-740-500-740zm0 150q318 0 318 473v233q0 225-77 349.5T614 1305q-317 0-317-474V598q0-473 317-473zm0 1442q-63 0-114.5 21t-84.5 50.5-60.5 75.5-41 80.5T285 1876l104 45 43-70q25-40 35.5-56t29.5-40 33-32.5 35.5-15.5 48.5-7 48.5 7 36 16 33.5 32 30 40 35 56l43 70 104-45q-14-46-28-81t-42-81-60.5-75.5T729 1588t-115-21z"/><glyph glyph-name="obreve" unicode="ŏ" d="M614-25q-222 0-350.5 150T135 528t128.5 403T614 1081t351-150 129-403-129-403T614-25zm0 142q141 0 223.5 85.5T920 453v151q0 165-82.5 250.5T614 940t-223-85-82-251V453q0-166 82-251t223-85zm0 1102q-63 0-114.5 21t-84.5 50.5-60.5 75.5-41 80.5T285 1528l104 45 43-70q25-40 35.5-56t29.5-40 33-32.5 35.5-15.5 48.5-7 48.5 7 36 16 33.5 32 30 40 35 56l43 70 104-45q-14-46-28-81t-42-81-60.5-75.5T729 1240t-115-21z"/><glyph glyph-name="Ohungarumlaut" unicode="Ő" d="M614-25q-499 0-499 740 0 739 499 739 500 0 500-739 0-740-500-740zm0 150q318 0 318 473v233q0 225-77 349.5T614 1305q-317 0-317-474V598q0-473 317-473zm68 1749l-217-326-98 45 174 349zm328 0l-217-326-99 45 174 349z"/><glyph glyph-name="ohungarumlaut" unicode="ő" d="M614-25q-222 0-350.5 150T135 528t128.5 403T614 1081t351-150 129-403-129-403T614-25zm0 142q141 0 223.5 85.5T920 453v151q0 165-82.5 250.5T614 940t-223-85-82-251V453q0-166 82-251t223-85zm68 1409l-217-326-98 45 174 348zm328 0l-217-326-99 45 174 348z"/><glyph glyph-name="OE" unicode="Œ" d="M1147 0H592Q334 0 205 180.5T76 715t129 534.5T592 1430h555v-142H803V795h319V653H803V141h344V0zM600 141h39v1147h-39q-170 0-260-120.5T250 825V604q0-222 90-342.5T600 141z"/><glyph glyph-name="oe" unicode="œ" d="M360 98q86 0 130.5 75.5T535 420v217q0 170-44.5 245.5T360 958q-85 0-129.5-75T186 637V420q0-171 44.5-246.5T360 98zm324 506h373v70q0 144-48 216.5T870 963q-90 0-138-72.5T684 674v-70zM874-25q-172 0-268 175h-6Q518-25 348-25q-106 0-178.5 69T63 235 29 528t34 293 106.5 191 178.5 69q90 0 157-49t103-143h6q80 192 271 192 152 0 229.5-122.5T1192 598V487H684v-51q0-149 51.5-239.5T879 106q68 0 109 50t69 133l119-56q-34-107-110.5-182.5T874-25z"/><glyph glyph-name="Racute" unicode="Ŕ" d="M356 610V0H184v1430h521q196 0 301.5-108.5T1112 1018q0-173-91.5-278T760 618L1124 0H932L584 610H356zm0 146h344q108 0 169 55t61 154v106q0 99-61 154t-169 55H356V756zm506 1116l-217-326-106 49 174 349z"/><glyph glyph-name="racute" unicode="ŕ" d="M158 0v139h309v779H158v139h473V791h10q78 266 356 266h148V893H946q-150 0-232.5-84T631 596V139h409V0H158zm796 1524l-217-326-106 49 174 348z"/><glyph glyph-name="Rcommaaccent" unicode="Ŗ" d="M356 610V0H184v1430h521q196 0 301.5-108.5T1112 1018q0-173-91.5-278T760 618L1124 0H932L584 610H356zm0 146h344q108 0 169 55t61 154v106q0 99-61 154t-169 55H356V756zM467-514l57 387h224L592-514H467z"/><glyph glyph-name="rcommaaccent" unicode="ŗ" d="M158 0v139h309v779H158v139h473V791h10q78 266 356 266h148V893H946q-150 0-232.5-84T631 596V139h409V0H158zm227-514l57 387h224L510-514H385z"/><glyph glyph-name="Rcaron" unicode="Ř" d="M356 610V0H184v1430h521q196 0 301.5-108.5T1112 1018q0-173-91.5-278T760 618L1124 0H932L584 610H356zm0 146h344q108 0 169 55t61 154v106q0 99-61 154t-169 55H356V756zm377 819H528l-227 293 92 63 240-239 239 239 89-63z"/><glyph glyph-name="rcaron" unicode="ř" d="M158 0v139h309v779H158v139h473V791h10q78 266 356 266h148V893H946q-150 0-232.5-84T631 596V139h409V0H158zm667 1227H621l-228 293 94 63 240-240 240 240 86-63z"/><glyph glyph-name="Sacute" unicode="Ś" d="M610-25Q274-25 92 227l125 103q85-107 179-157t220-50q154 0 237 71t83 201q0 106-61 164t-205 82l-160 27q-369 62-369 389 0 193 127 295t350 102q327 0 480-219l-121-105q-66 85-151 131t-210 46q-146 0-223.5-62.5T315 1061q0-100 61-159.5T584 817l153-26q373-65 373-392 0-199-131.5-311.5T610-25zm232 1897l-217-326-107 49 174 349z"/><glyph glyph-name="sacute" unicode="ś" d="M627-25q-306 0-490 207l111 97q78-83 169.5-124.5T631 113q128 0 204 46t76 136q0 40-15 68.5t-43 45-57.5 25.5-70.5 15l-166 24q-40 6-68 11.5T422 501t-69 24.5-60 36-51 50-32 67-13 87.5q0 153 117 234t309 81q270 0 430-170L946 811Q836 944 616 944q-125 0-191.5-43T358 776q0-40 15-68.5t44-45 58-25 70-14.5l166-25q48-7 81-14t79.5-21 78.5-34.5 62-50.5 45.5-74 15.5-99q0-155-120.5-242.5T627-25zm215 1549l-217-326-107 49 174 348z"/><glyph glyph-name="Scircumflex" unicode="Ŝ" d="M610-25Q274-25 92 227l125 103q85-107 179-157t220-50q154 0 237 71t83 201q0 106-61 164t-205 82l-160 27q-369 62-369 389 0 193 127 295t350 102q327 0 480-219l-121-105q-66 85-151 131t-210 46q-146 0-223.5-62.5T315 1061q0-100 61-159.5T584 817l153-26q373-65 373-392 0-199-131.5-311.5T610-25zM508 1915h205l227-293-92-63-240 239-239-239-88 63z"/><glyph glyph-name="scircumflex" unicode="ŝ" d="M627-25q-306 0-490 207l111 97q78-83 169.5-124.5T631 113q128 0 204 46t76 136q0 40-15 68.5t-43 45-57.5 25.5-70.5 15l-166 24q-40 6-68 11.5T422 501t-69 24.5-60 36-51 50-32 67-13 87.5q0 153 117 234t309 81q270 0 430-170L946 811Q836 944 616 944q-125 0-191.5-43T358 776q0-40 15-68.5t44-45 58-25 70-14.5l166-25q48-7 81-14t79.5-21 78.5-34.5 62-50.5 45.5-74 15.5-99q0-155-120.5-242.5T627-25zM508 1567h205l227-293-92-64-240 240-239-240-88 64z"/><glyph glyph-name="Scedilla" unicode="Ş" d="M633-424q-141 0-203 84l78 84q46-57 125-57 40 0 65 16t25 47-29.5 52T584-166l-58 8 27 135Q258-4 92 227l125 103q85-107 179-157t220-50q154 0 237 71t83 201q0 106-61 164t-205 82l-160 27q-369 62-369 389 0 193 127 295t350 102q327 0 480-219l-121-105q-66 85-151 131t-210 46q-146 0-223.5-62.5T315 1061q0-100 61-159.5T584 817l153-26q373-65 373-392 0-189-119.5-300.5T655-23l-20-102 6-6q41 12 80 12 62 0 100.5-35.5T860-254q0-83-65-126.5T633-424z"/><glyph glyph-name="scedilla" unicode="ş" d="M635-424q-141 0-203 84l78 84q46-57 125-57 40 0 65 16t25 47-29.5 52T586-166l-58 8 27 138Q298 0 137 182l111 97q78-83 169.5-124.5T631 113q128 0 204 46t76 136q0 40-15 68.5t-43 45-57.5 25.5-70.5 15l-166 24q-40 6-68 11.5T422 501t-69 24.5-60 36-51 50-32 67-13 87.5q0 153 117 234t309 81q270 0 430-170L946 811Q836 944 616 944q-125 0-191.5-43T358 776q0-40 15-68.5t44-45 58-25 70-14.5l166-25q48-7 81-14t79.5-21 78.5-34.5 62-50.5 45.5-74 15.5-99q0-149-112.5-236.5T655-25l-18-100 6-6q40 12 80 12 62 0 100.5-35.5T862-254q0-83-65-126.5T635-424z"/><glyph glyph-name="Scaron" unicode="Š" d="M610-25Q274-25 92 227l125 103q85-107 179-157t220-50q154 0 237 71t83 201q0 106-61 164t-205 82l-160 27q-369 62-369 389 0 193 127 295t350 102q327 0 480-219l-121-105q-66 85-151 131t-210 46q-146 0-223.5-62.5T315 1061q0-100 61-159.5T584 817l153-26q373-65 373-392 0-199-131.5-311.5T610-25zm103 1600H508l-227 293 92 63 239-239 240 239 88-63z"/><glyph glyph-name="scaron" unicode="š" d="M627-25q-306 0-490 207l111 97q78-83 169.5-124.5T631 113q128 0 204 46t76 136q0 40-15 68.5t-43 45-57.5 25.5-70.5 15l-166 24q-40 6-68 11.5T422 501t-69 24.5-60 36-51 50-32 67-13 87.5q0 153 117 234t309 81q270 0 430-170L946 811Q836 944 616 944q-125 0-191.5-43T358 776q0-40 15-68.5t44-45 58-25 70-14.5l166-25q48-7 81-14t79.5-21 78.5-34.5 62-50.5 45.5-74 15.5-99q0-155-120.5-242.5T627-25zm86 1252H508l-227 293 94 63 239-240 240 240 86-63z"/><glyph glyph-name="uni0162" unicode="Ţ" d="M1178 1280H700V0H528v1280H51v150h1127v-150zM451-514l57 387h223L575-514H451z"/><glyph glyph-name="uni0163" unicode="ţ" d="M1077 0H666Q550 0 491 66t-59 176v676H80v139h262q53 0 74.5 21t21.5 75v277h158v-373h481V918H596V139h481V0zM604-514l58 387h223L729-514H604z"/><glyph glyph-name="Tcaron" unicode="Ť" d="M1178 1280H700V0H528v1280H51v150h1127v-150zm-461 295H512l-227 293 92 63 239-239 240 239 88-63z"/><glyph glyph-name="tcaron" unicode="ť" d="M1077 0H666Q550 0 491 66t-59 176v676H80v139h262q53 0 74.5 21t21.5 75v277h158v-373h481V918H596V139h481V0zm-59 1556l-100-387H793l14 387h211z"/><glyph glyph-name="Tbar" unicode="Ŧ" d="M1055 688H700V0H528v688H174v131h354v461H51v150h1127v-150H700V819h355V688z"/><glyph glyph-name="tbar" unicode="ŧ" d="M1073 139V0H666Q550 0 491 66t-59 176v264H209v127h223v285H80v139h262q53 0 74.5 21t21.5 75v277h158v-373h481V918H596V633h354V506H596V139h477z"/><glyph glyph-name="Utilde" unicode="Ũ" d="M164 1430h172V571q0-54 .5-88.5T340 404t8.5-71.5 15-60.5 24-52.5T423 180t48-31 63-17.5 80-6.5 80 6.5 63.5 17.5 48 31 35 39.5T865 272t15.5 60.5T889 404t3.5 78.5.5 88.5v859h172V612q0-114-6.5-195.5t-24-157.5-49-125.5-81.5-87T782.5-8 614-25q-83 0-147.5 13.5t-112 38-81 66-55 90-33.5 118-16.5 142T164 612v818zm600 172q-12 0-23 1t-22 3.5-19.5 4-19.5 6-17 6.5-17.5 8-15.5 8-16 8.5-14 7.5q-92 49-143 49-55 0-119-55l-68 82q73 108 195 108 12 0 23-1t22-3.5 19.5-4 19.5-6 17-6.5 17.5-8 15.5-8 16-8.5 14-7.5q92-49 143-49 55 0 119 55l67-82q-73-108-194-108z"/><glyph glyph-name="utilde" unicode="ũ" d="M864 0v172h-8Q771-25 555-25 387-25 287.5 82T188 379v678h164V408q0-287 250-287 107 0 184.5 52.5T864 324v733h164V0H864zM758 1253q-15 0-29 1.5t-28.5 5.5-23 6.5-24 10-20 9.5-21.5 11-18 10q-92 49-143 49-53 0-119-56l-68 82q73 109 195 109 12 0 23-1t22-3.5 19.5-4 19.5-6 17-6.5 17.5-8 15.5-8 16-8.5 14-7.5q92-49 143-49 55 0 119 55l67-82q-73-109-194-109z"/><glyph glyph-name="Umacron" unicode="Ū" d="M164 1430h172V571q0-54 .5-88.5T340 404t8.5-71.5 15-60.5 24-52.5T423 180t48-31 63-17.5 80-6.5 80 6.5 63.5 17.5 48 31 35 39.5T865 272t15.5 60.5T889 404t3.5 78.5.5 88.5v859h172V612q0-114-6.5-195.5t-24-157.5-49-125.5-81.5-87T782.5-8 614-25q-83 0-147.5 13.5t-112 38-81 66-55 90-33.5 118-16.5 142T164 612v818zm164 223v139h573v-139H328z"/><glyph glyph-name="umacron" unicode="ū" d="M864 0v172h-8Q771-25 555-25 387-25 287.5 82T188 379v678h164V408q0-287 250-287 107 0 184.5 52.5T864 324v733h164V0H864zM322 1305v139h573v-139H322z"/><glyph glyph-name="Ubreve" unicode="Ŭ" d="M164 1430h172V571q0-54 .5-88.5T340 404t8.5-71.5 15-60.5 24-52.5T423 180t48-31 63-17.5 80-6.5 80 6.5 63.5 17.5 48 31 35 39.5T865 272t15.5 60.5T889 404t3.5 78.5.5 88.5v859h172V612q0-114-6.5-195.5t-24-157.5-49-125.5-81.5-87T782.5-8 614-25q-83 0-147.5 13.5t-112 38-81 66-55 90-33.5 118-16.5 142T164 612v818zm450 137q-63 0-114.5 21t-84.5 50.5-60.5 75.5-41 80.5T285 1876l104 45 43-70q25-40 35.5-56t29.5-40 33-32.5 35.5-15.5 48.5-7 48.5 7 36 16 33.5 32 30 40 35 56l43 70 104-45q-14-46-28-81t-42-81-60.5-75.5T729 1588t-115-21z"/><glyph glyph-name="ubreve" unicode="ŭ" d="M864 0v172h-8Q771-25 555-25 387-25 287.5 82T188 379v678h164V408q0-287 250-287 107 0 184.5 52.5T864 324v733h164V0H864zM608 1219q-63 0-114.5 21t-84.5 50.5-60.5 75.5-41 80.5T279 1528l104 45 43-70q25-40 35.5-56t29.5-40 33-32.5 35.5-15.5 48.5-7 48.5 7 36 16 33.5 32 30 40 35 56l43 70 104-45q-14-46-28-81t-42-81-60.5-75.5T723 1240t-115-21z"/><glyph glyph-name="Uring" unicode="Ů" d="M164 1430h172V571q0-54 .5-88.5T340 404t8.5-71.5 15-60.5 24-52.5T423 180t48-31 63-17.5 80-6.5 80 6.5 63.5 17.5 48 31 35 39.5T865 272t15.5 60.5T889 404t3.5 78.5.5 88.5v859h172V612q0-114-6.5-195.5t-24-157.5-49-125.5-81.5-87T782.5-8 614-25q-83 0-147.5 13.5t-112 38-81 66-55 90-33.5 118-16.5 142T164 612v818zm450 98q-100 0-168.5 67T377 1763t68.5 168.5T614 1999t169-67.5 69-168.5-69-168-169-67zm0 100q56 0 87.5 29.5T733 1741v45q0 54-31.5 83t-87.5 29-87-29-31-83v-45q0-54 31-83.5t87-29.5z"/><glyph glyph-name="uring" unicode="ů" d="M864 0v172h-8Q771-25 555-25 387-25 287.5 82T188 379v678h164V408q0-287 250-287 107 0 184.5 52.5T864 324v733h164V0H864zM608 1180q-100 0-168.5 67T371 1415t68.5 168.5T608 1651t169-67.5 69-168.5-69-168-169-67zm0 100q56 0 87.5 29.5T727 1393v45q0 54-31.5 83t-87.5 29-87.5-29-31.5-83v-45q0-54 31.5-83.5T608 1280z"/><glyph glyph-name="Uhungarumlaut" unicode="Ű" d="M164 1430h172V571q0-54 .5-88.5T340 404t8.5-71.5 15-60.5 24-52.5T423 180t48-31 63-17.5 80-6.5 80 6.5 63.5 17.5 48 31 35 39.5T865 272t15.5 60.5T889 404t3.5 78.5.5 88.5v859h172V612q0-114-6.5-195.5t-24-157.5-49-125.5-81.5-87T782.5-8 614-25q-83 0-147.5 13.5t-112 38-81 66-55 90-33.5 118-16.5 142T164 612v818zm518 444l-217-326-98 45 174 349zm328 0l-217-326-99 45 174 349z"/><glyph glyph-name="uhungarumlaut" unicode="ű" d="M864 0v172h-8Q771-25 555-25 387-25 287.5 82T188 379v678h164V408q0-287 250-287 107 0 184.5 52.5T864 324v733h164V0H864zM676 1526l-217-326-99 45 175 348zm328 0l-218-326-98 45 174 348z"/><glyph glyph-name="Uogonek" unicode="Ų" d="M164 1430h172V571q0-54 .5-88.5T340 404t8.5-71.5 15-60.5 24-52.5T423 180t48-31 63-17.5 80-6.5 80 6.5 63.5 17.5 48 31 35 39.5T865 272t15.5 60.5T889 404t3.5 78.5.5 88.5v859h172V612q0-105-3.5-171.5t-16-136-36.5-118-64-96T846 0q-12-9-57-40t-66-48-51.5-45-44-53.5T614-238q0-35 25-53t61-18q64 0 107 53l82-84q-22-37-70.5-60.5T698-424q-97 0-160 43t-63 119q0 69 59 127T711-23l-4 9q-45-11-103-11-81 0-144 14T351 28t-79 67-54 90.5-33 118-16.5 141T164 612v818z"/><glyph glyph-name="uogonek" unicode="ų" d="M1028 1057V0q-98-62-152.5-110.5t-66.5-73-12-49.5q0-40 24.5-58t61.5-18q63 0 106 53l82-84q-22-37-70-60.5T881-424q-98 0-161 42.5T657-260q0 141 236 254l-2 6h-27v172h-8Q771-25 555-25 387-25 287.5 82T188 379v678h164V408q0-287 250-287 107 0 184.5 52.5T864 324v733h164z"/><glyph glyph-name="Wcircumflex" unicode="Ŵ" d="M432 0H184L72 1430h153l60-820 30-432h17l188 879h193l188-879h17l30 432 60 820h149L1044 0H797L623 854h-17zm80 1915h205l227-293-92-63-240 239-239-239-88 63z"/><glyph glyph-name="wcircumflex" unicode="ŵ" d="M223 0L61 1057h146l121-914h18l180 914h181l180-914h18l121 914h141L1006 0H793L625 885h-17L436 0H223zm289 1567h205l227-293-92-64-240 240-239-240-88 64z"/><glyph glyph-name="Ycircumflex" unicode="Ŷ" d="M700 0H528v561L35 1430h196l205-373 174-326h8l179 326 204 373h193L700 561V0zM512 1915h205l227-293-92-63-240 239-239-239-88 63z"/><glyph glyph-name="ycircumflex" unicode="ŷ" d="M778 614l178 443h164L596-231q-39-96-97-137.5T326-410H170v140h246L535 20 109 1057h167l179-443 157-401h9zm-266 953h205l227-293-92-64-240 240-239-240-88 64z"/><glyph glyph-name="Ydieresis" unicode="Ÿ" d="M700 0H528v561L35 1430h196l205-373 174-326h8l179 326 204 373h193L700 561V0zM424 1614q-60 0-88.5 25.5T307 1708v29q0 43 28.5 68.5T424 1831t88.5-25.5T541 1737v-29q0-43-28.5-68.5T424 1614zm381 0q-60 0-88.5 25.5T688 1708v29q0 43 28.5 68.5T805 1831t88.5-25.5T922 1737v-29q0-43-28.5-68.5T805 1614z"/><glyph glyph-name="Zacute" unicode="Ź" d="M1130 150V0H98v154l809 1126H133v150h963v-154L285 150h845zM846 1872l-217-326-107 49 174 349z"/><glyph glyph-name="zacute" unicode="ź" d="M1055 0H174v158l682 760H197v139h837V899L352 139h703V0zM846 1524l-217-326-107 49 174 348z"/><glyph glyph-name="Zdotaccent" unicode="Ż" d="M1130 150V0H98v154l809 1126H133v150h963v-154L285 150h845zM614 1602q-67 0-98 28t-31 76v33q0 48 31 76t98 28 98-28 31-76v-33q0-48-31-76t-98-28z"/><glyph glyph-name="zdotaccent" unicode="ż" d="M1055 0H174v158l682 760H197v139h837V899L352 139h703V0zM614 1253q-67 0-98 28.5t-31 76.5v33q0 48 31 76t98 28 98-28 31-76v-33q0-48-31-76.5t-98-28.5z"/><glyph glyph-name="Zcaron" unicode="Ž" d="M1130 150V0H98v154l809 1126H133v150h963v-154L285 150h845zM717 1575H512l-227 293 92 63 239-239 240 239 88-63z"/><glyph glyph-name="zcaron" unicode="ž" d="M1055 0H174v158l682 760H197v139h837V899L352 139h703V0zM717 1227H512l-227 293 94 63 239-240 240 240 86-63z"/><glyph glyph-name="uni018F" unicode="Ə" d="M614-25q-499 0-499 740v45h817v67q0 229-80 353.5T592 1305q-38 0-70.5-6t-70-24-67.5-48-60-82-52-123l-143 68q47 178 168.5 271t306.5 93q266 0 388-189.5T1114 717q0-742-500-742zm-2 150q164 0 242 124t78 349v20H293v-20q0-225 77.5-349T612 125z"/><glyph glyph-name="florin" unicode="ƒ" d="M-88-410l25 140h432L539 758H160l22 139h381l49 301q41 232 262 232h375l-24-142H791l-66-391h379l-23-139H702L547-178q-41-232-262-232H-88z"/><glyph glyph-name="Ohorn" unicode="Ơ" d="M1124 1659v-205q0-129-129-129h-57q176-168 176-610 0-740-500-740-499 0-499 740 0 739 499 739 90 0 164-24h201v229h145zM614 125q318 0 318 473v233q0 225-77 349.5T614 1305q-317 0-317-474V598q0-473 317-473z"/><glyph glyph-name="ohorn" unicode="ơ" d="M961 1286h145v-205q0-125-129-125h-45q162-150 162-428 0-253-129-403T614-25 263.5 125 135 528t128.5 403T614 1081q88 0 162-24h185v229zM614 117q141 0 223.5 85.5T920 453v151q0 165-82.5 250.5T614 940t-223-85-82-251V453q0-166 82-251t223-85z"/><glyph glyph-name="Uhorn" unicode="Ư" d="M164 1430h172V571q0-54 .5-88.5T340 404t8.5-71.5 15-60.5 24-52.5T423 180t48-31 63-17.5 80-6.5 80 6.5 63.5 17.5 48 31 35 39.5T865 272t15.5 60.5T889 404t3.5 78.5.5 88.5v859h190v229h146v-209q0-129-129-129h-35V612q0-114-6.5-195.5t-24-157.5-49-125.5-81.5-87T782.5-8 614-25q-83 0-147.5 13.5t-112 38-81 66-55 90-33.5 118-16.5 142T164 612v818z"/><glyph glyph-name="uhorn" unicode="ư" d="M1202 1286v-209q0-129-129-129h-45V0H864v172h-8Q771-25 555-25 387-25 287.5 82T188 379v678h164V408q0-287 250-287 107 0 184.5 52.5T864 324v733h193v229h145z"/><glyph glyph-name="Aringacute" unicode="Ǻ" d="M1167 0H985L864 408H362L242 0H63l439 1430h227zM823 557l-200 690h-19L403 557h420zm17 1684l-197-220-96 39 149 232zm-226-734q-100 0-168.5 67.5T377 1743t68.5 168 168.5 67 169-67 69-168-69-168.5-169-67.5zm0 101q56 0 87.5 29t31.5 83v45q0 54-31.5 83.5T614 1878t-87-29.5-31-83.5v-45q0-54 31-83t87-29z"/><glyph glyph-name="aringacute" unicode="ǻ" d="M1126 0h-112Q846 0 825 172h-10Q742-25 498-25q-166 0-264.5 86.5T135 297q0 307 455 307h225v105q0 114-65.5 173.5T563 942q-193 0-282-156l-111 82q44 91 148 152t255 61q187 0 296.5-95T979 725V143h147V0zM526 113q125 0 207 56t82 138v174H590q-283 0-283-159v-43q0-81 58-123.5T526 113zm269 1769l-193-215-84 53 154 238zm-215-723q-100 0-169 67.5T342 1395t69 168 169 67 168.5-67 68.5-168-68.5-168.5T580 1159zm0 101q56 0 87 29t31 83v45q0 54-31 83.5t-87 29.5-87.5-29.5T461 1417v-45q0-54 31.5-83t87.5-29z"/><glyph glyph-name="AEacute" unicode="Ǽ" d="M639 0v412H328L213 0H41l422 1430h684v-142H803V795h319V653H803V141h344V0H639zm0 1307h-64L365 553h274v754zm397 565l-217-326-106 49 174 349z"/><glyph glyph-name="aeacute" unicode="ǽ" d="M289-25Q170-25 95 56T20 283q0 159 93.5 240T385 604h129v109q0 131-42 188t-124 57q-73 0-117.5-41T154 797L45 864q36 93 115 155t194 62q181 0 254-159h6q75 159 254 159 160 0 242-122.5t82-360.5V487H664v-51q0-149 51-239.5T860 106q127 0 197 183l119-56q-35-106-118-182T856-25q-103 0-179.5 61T557 209h-6Q524 92 455.5 33.5T289-25zm28 127q95 0 146 61t51 152v172H408q-238 0-238-176v-30q0-88 34-133.5T317 102zm543 861q-95 0-145.5-72.5T664 674v-70h393v70q0 144-51 216.5T860 963zm-14 561l-217-326-107 49 174 348z"/><glyph glyph-name="Oslashacute" unicode="Ǿ" d="M614-25q-185 0-299 99L219-90 96-16l123 209Q115 374 115 715q0 739 499 739 186 0 299-98l97 164 123-74-123-209q104-181 104-522 0-740-500-740zM297 598q0-143 29-242l508 854q-82 95-220 95-317 0-317-474V598zm317-473q318 0 318 473v233q0 143-29 242L395 219q81-94 219-94zm232 1747l-217-326-107 49 174 349z"/><glyph glyph-name="oslashacute" unicode="ǿ" d="M188-82L96-12l142 172Q135 307 135 528q0 253 128.5 403T614 1081q173 0 297-100l129 158 93-70-142-172q103-147 103-369 0-253-129-403T614-25Q442-25 317 76zM614 940q-141 0-223-85t-82-251V453q0-100 31-170l481 587q-76 70-207 70zm0-823q141 0 223.5 85.5T920 453v151q0 100-31 170L408 186q75-69 206-69zm232 1407l-217-326-107 49 174 348z"/><glyph glyph-name="Scommaaccent" unicode="Ș" d="M610-25Q274-25 92 227l125 103q85-107 179-157t220-50q154 0 237 71t83 201q0 106-61 164t-205 82l-160 27q-369 62-369 389 0 193 127 295t350 102q327 0 480-219l-121-105q-66 85-151 131t-210 46q-146 0-223.5-62.5T315 1061q0-100 61-159.5T584 817l153-26q373-65 373-392 0-199-131.5-311.5T610-25zM444-514l58 387h223L569-514H444z"/><glyph glyph-name="scommaaccent" unicode="ș" d="M627-25q-306 0-490 207l111 97q78-83 169.5-124.5T631 113q128 0 204 46t76 136q0 40-15 68.5t-43 45-57.5 25.5-70.5 15l-166 24q-40 6-68 11.5T422 501t-69 24.5-60 36-51 50-32 67-13 87.5q0 153 117 234t309 81q270 0 430-170L946 811Q836 944 616 944q-125 0-191.5-43T358 776q0-40 15-68.5t44-45 58-25 70-14.5l166-25q48-7 81-14t79.5-21 78.5-34.5 62-50.5 45.5-74 15.5-99q0-155-120.5-242.5T627-25zM438-514l58 387h223L563-514H438z"/><glyph glyph-name="uni021A" unicode="Ț" d="M1178 1280H700V0H528v1280H51v150h1127v-150zM451-514l57 387h223L575-514H451z"/><glyph glyph-name="uni021B" unicode="ț" d="M1077 0H666Q550 0 491 66t-59 176v676H80v139h262q53 0 74.5 21t21.5 75v277h158v-373h481V918H596V139h481V0zM604-514l58 387h223L729-514H604z"/><glyph glyph-name="uni0237" unicode="ȷ" d="M209-410v140h512V918H190v139h695V-168q0-110-59-176t-175-66H209z"/><glyph glyph-name="uni0259" unicode="ə" d="M137 569h783v49q0 142-88.5 232T596 940q-105 0-183-48.5T293 756l-121 82q49 109 160.5 176t263.5 67q227 0 361.5-150T1092 530q0-252-134.5-403.5T606-25q-211 0-340 145T137 492v77zm176-123v-22q0-139 81-226t212-87q135 0 224.5 91.5T920 432v14H313z"/><glyph glyph-name="uni02BB" unicode="ʻ" d="M498 1202l155 387h125l-57-387H498z"/><glyph glyph-name="uni02BC" unicode="ʼ" d="M614 1516l-100-388H389l14 388h211z"/><glyph glyph-name="circumflex" unicode="ˆ" d="M512 1567h205l227-293-92-64-240 240-239-240-88 64z"/><glyph glyph-name="caron" unicode="ˇ" d="M717 1227H512l-227 293 94 63 239-240 240 240 86-63z"/><glyph glyph-name="breve" unicode="˘" d="M614 1219q-63 0-114.5 21t-84.5 50.5-60.5 75.5-41 80.5T285 1528l104 45 43-70q25-40 35.5-56t29.5-40 33-32.5 35.5-15.5 48.5-7 48.5 7 36 16 33.5 32 30 40 35 56l43 70 104-45q-14-46-28-81t-42-81-60.5-75.5T729 1240t-115-21z"/><glyph glyph-name="dotaccent" unicode="˙" d="M614 1253q-67 0-98 28.5t-31 76.5v33q0 48 31 76t98 28 98-28 31-76v-33q0-48-31-76.5t-98-28.5z"/><glyph glyph-name="ring" unicode="˚" d="M614 1180q-100 0-168.5 67T377 1415t68.5 168.5T614 1651t169-67.5 69-168.5-69-168-169-67zm0 100q56 0 87.5 29.5T733 1393v45q0 54-31.5 83t-87.5 29-87-29-31-83v-45q0-54 31-83.5t87-29.5z"/><glyph glyph-name="ogonek" unicode="˛" d="M467-424q-98 0-160.5 42.5T244-260q0 141 235 254l-12 31 133 14 14-39q-98-62-152.5-110.5t-66.5-73-12-49.5q0-40 24.5-58t61.5-18q63 0 106 53l82-84q-22-37-70-60.5T467-424z"/><glyph glyph-name="tilde" unicode="˜" d="M764 1253q-15 0-29 1.5t-28.5 5.5-23 6.5-24 10-20 9.5-21.5 11-18 10q-92 49-143 49-53 0-119-56l-68 82q73 109 195 109 12 0 23-1t22-3.5 19.5-4 19.5-6 17-6.5 17.5-8 15.5-8 16-8.5 14-7.5q92-49 143-49 55 0 119 55l67-82q-73-109-194-109z"/><glyph glyph-name="hungarumlaut" unicode="˝" d="M682 1526l-217-326-98 45 174 348zm328 0l-217-326-99 45 174 348z"/><glyph glyph-name="uni0300" unicode="̀" horiz-adv-x="0" d="M-14 1198l-217 326 149 71 174-348z"/><glyph glyph-name="uni0301" unicode="́" horiz-adv-x="0" d="M231 1524L14 1198l-106 49 174 348z"/><glyph glyph-name="uni0302" unicode="̂" horiz-adv-x="0" d="M-102 1567h204l228-293-92-64-240 240-240-240-88 64z"/><glyph glyph-name="uni0303" unicode="̃" horiz-adv-x="0" d="M150 1253q-15 0-29 1.5t-28.5 5.5-23 6.5-24 10-20 9.5T4 1297t-18 10q-92 49-144 49-32 0-58-13.5t-60-42.5l-68 82q73 109 194 109 12 0 23-1t22-3.5 19.5-4 19.5-6 17-6.5 17.5-8 15.5-8 16-8.5 14-7.5q92-49 144-49 54 0 118 55l68-82q-73-109-194-109z"/><glyph glyph-name="uni0304" unicode="̄" horiz-adv-x="0" d="M-287 1305v139h574v-139h-574z"/><glyph glyph-name="uni0306" unicode="̆" horiz-adv-x="0" d="M0 1219q-63 0-115 21t-84.5 50.5-60.5 75.5-42 81-28 81l105 45 43-70q25-40 35.5-56t29.5-40 33-32.5 35.5-15.5 48.5-7 48.5 7 35.5 15.5 33 32.5 29.5 40 35.5 56l43 70 105-45q-14-46-28-81t-42-81-60.5-75.5T115 1240 0 1219z"/><glyph glyph-name="uni0307" unicode="̇" horiz-adv-x="0" d="M0 1253q-67 0-98 28.5t-31 76.5v33q0 48 31 76t98 28 98-28 31-76v-33q0-48-31-76.5T0 1253z"/><glyph glyph-name="uni0308" unicode="̈" horiz-adv-x="0" d="M-190 1266q-60 0-88.5 25.5T-307 1360v29q0 43 28.5 68.5t88.5 25.5 88-25.5 28-68.5v-29q0-43-28-68.5t-88-25.5zm380 0q-60 0-88 25.5T74 1360v29q0 43 28 68.5t88 25.5 88.5-25.5T307 1389v-29q0-43-28.5-68.5T190 1266z"/><glyph glyph-name="uni0309" unicode="̉" horiz-adv-x="0" d="M-172 1442v125H51q74 0 109-31.5t35-81.5q0-83-101-211l-49-61-94 47 119 213h-242z"/><glyph glyph-name="uni030A" unicode="̊" horiz-adv-x="0" d="M0 1180q-100 0-169 67t-69 168 69 168.5T0 1651t169-67.5 69-168.5-69-168-169-67zm0 100q56 0 87.5 29.5T119 1393v45q0 54-31.5 83T0 1550t-87.5-29-31.5-83v-45q0-54 31.5-83.5T0 1280z"/><glyph glyph-name="uni030B" unicode="̋" horiz-adv-x="0" d="M68 1526l-218-326-98 45 174 348zm327 0l-217-326-98 45 174 348z"/><glyph glyph-name="uni030C" unicode="̌" horiz-adv-x="0" d="M102 1227h-204l-228 293 94 63L4 1343l240 240 86-63z"/><glyph glyph-name="uni0312" unicode="̒" horiz-adv-x="0" d="M-117 1202l156 387h125l-58-387h-223z"/><glyph glyph-name="uni0315" unicode="̕" horiz-adv-x="0" d="M225 1516l-100-388H0l14 388h211z"/><glyph glyph-name="uni031B" unicode="̛" horiz-adv-x="0" d="M158 1286v-209q0-129-129-129h-187v109H12v229h146z"/><glyph glyph-name="uni0323" unicode="̣" horiz-adv-x="0" d="M0-352q-60 0-88.5 25.5T-117-258v29q0 43 28.5 68.5T0-135t88.5-25.5T117-229v-29q0-43-28.5-68.5T0-352z"/><glyph glyph-name="uni0326" unicode="̦" horiz-adv-x="0" d="M-164-514l58 387h223L-39-514h-125z"/><glyph glyph-name="uni0327" unicode="̧" horiz-adv-x="0" d="M25-424q-141 0-203 84l78 84q46-57 125-57 40 0 65 16t25 47-30 52-110 32l-57 8 39 199H59L27-125l6-6q40 12 80 12 62 0 100.5-35.5T252-254q0-83-65-126.5T25-424z"/><glyph glyph-name="uni0328" unicode="̨" horiz-adv-x="0" d="M-147-424q-98 0-161 42.5T-371-260q0 141 236 254l-12 31 133 14L0 0q-98-62-152.5-110.5t-66.5-73-12-49.5q0-40 24.5-58t61.5-18q63 0 106 53l82-84q-22-37-70-60.5T-147-424z"/><glyph glyph-name="pi" unicode="π" d="M229 0v918H41v139h1116V918H969V139h188V0h-119Q922 0 863.5 65.5T805 242v676H393V0H229z"/><glyph glyph-name="uni0400" unicode="Ѐ" d="M1065 0H184v1430h881v-150H356V799h684V649H356V150h709V0zM610 1546l-217 326 150 72 174-349z"/><glyph glyph-name="uni0401" unicode="Ё" d="M1065 0H184v1430h881v-150H356V799h684V649H356V150h709V0zM434 1614q-60 0-88.5 25.5T317 1708v29q0 43 28.5 68.5T434 1831t88.5-25.5T551 1737v-29q0-43-28.5-68.5T434 1614zm381 0q-60 0-88.5 25.5T698 1708v29q0 43 28.5 68.5T815 1831t88.5-25.5T932 1737v-29q0-43-28.5-68.5T815 1614z"/><glyph glyph-name="uni0402" unicode="Ђ" d="M520-336v150h438v657q0 143-51.5 210T739 748q-126 0-219-41V0H348v1280H20v150h828v-150H520V858h10q119 39 215 39 201 0 293-108.5t92-317.5V-94q0-111-58.5-176.5T897-336H520z"/><glyph glyph-name="uni0403" unicode="Ѓ" d="M270 0v1430h801v-150H442V0H270zm631 1872l-217-326-106 49 174 349z"/><glyph glyph-name="uni0404" unicode="Є" d="M793 649H319v-51q0-222 86.5-347.5T662 125q65 0 114.5 17.5t84 51.5 57 71.5T961 356l147-67q-24-53-48-93.5t-62.5-84-83-71.5T805-6.5 662-25q-262 0-393.5 189.5T137 715t131.5 550T662 1454q78 0 143-18t110-46.5 83-71.5 62-83.5 48-93.5l-147-68q-22 54-44 91t-56.5 71.5-84 52T662 1305q-170 0-256.5-126T319 831v-32h474V649z"/><glyph glyph-name="uni0405" unicode="Ѕ" d="M610-25Q274-25 92 227l125 103q85-107 179-157t220-50q154 0 237 71t83 201q0 106-61 164t-205 82l-160 27q-369 62-369 389 0 193 127 295t350 102q327 0 480-219l-121-105q-66 85-151 131t-210 46q-146 0-223.5-62.5T315 1061q0-100 61-159.5T584 817l153-26q373-65 373-392 0-199-131.5-311.5T610-25z"/><glyph glyph-name="uni0406" unicode="І" d="M1057 0H172v137h356v1155H172v138h885v-138H700V137h357V0z"/><glyph glyph-name="uni0407" unicode="Ї" d="M1057 0H172v137h356v1155H172v138h885v-138H700V137h357V0zM424 1614q-60 0-88.5 25.5T307 1708v29q0 43 28.5 68.5T424 1831t88.5-25.5T541 1737v-29q0-43-28.5-68.5T424 1614zm381 0q-60 0-88.5 25.5T688 1708v29q0 43 28.5 68.5T805 1831t88.5-25.5T922 1737v-29q0-43-28.5-68.5T805 1614z"/><glyph glyph-name="uni0408" unicode="Ј" d="M295 1430h688V371q0-180-117-288T561-25q-163 0-270 85T152 299l163 35q23-97 80.5-152T565 127q119 0 182.5 68.5T811 401v879H295v150z"/><glyph glyph-name="uni0409" unicode="Љ" d="M625 0v1280H395v-180q0-358-17-565.5T330 233 242 82q-45-45-97-63.5T18 0H-4v150h96q56 56 83.5 137.5t41.5 272 14 552.5v318h562V856h32q192 0 296-111.5T1225 428t-104-316.5T825 0H625zm168 150h32q104 0 163 56.5t59 168.5v106q0 113-59 169.5T825 707h-32V150z"/><glyph glyph-name="uni040A" unicode="Њ" d="M584 0v649H266V0H98v1430h168V799h318v631h168V856h73q192 0 296-111.5T1225 428t-104-316.5T825 0H584zm168 150h73q104 0 163 56.5t59 168.5v106q0 113-59 169.5T825 707h-73V150z"/><glyph glyph-name="uni040B" unicode="Ћ" d="M348 0v1280H20v150h828v-150H520V858h10q119 39 215 39 201 0 293-108.5t92-317.5V0H958v471q0 143-51.5 210T739 748q-126 0-219-41V0H348z"/><glyph glyph-name="uni040C" unicode="Ќ" d="M164 0v1430h172V799h252l303 631h182L801 864q-34-69-64-98t-69-35v-10q47-9 77-42t66-116l184-413h133V0H999Q876 0 809 152L588 651H336V0H164zm653 1872l-217-326-106 49 174 349z"/><glyph glyph-name="uni040D" unicode="Ѝ" d="M164 0v1430h172V709l-29-414h10l584 1135h164V0H893v721l29 414h-11L328 0H164zm436 1546l-217 326 149 72 175-349z"/><glyph glyph-name="uni040E" unicode="Ў" d="M285 0v150h213l71 184L90 1430h184l285-672 84-230h4l78 228 250 674h176L684 197Q639 77 583.5 38.5T408 0H285zm329 1567q-102 0-168 45t-116 145l-58 117 148 47 82-217q35-12 112-12 78 0 113 12l82 217 147-47-57-117q-50-100-116-145t-169-45z"/><glyph glyph-name="uni040F" unicode="Џ" d="M537-307V0H170v1430h172V150h545v1280h172V0H694v-307H537z"/><glyph glyph-name="uni0410" unicode="А" d="M1167 0H985L864 408H362L242 0H63l439 1430h227zM823 557l-200 690h-19L403 557h420z"/><glyph glyph-name="uni0411" unicode="Б" d="M174 0v1430h807v-150H346V856h352q192 0 296-111.5T1098 428 994 111.5 698 0H174zm172 150h348q104 0 162.5 56T915 375v106q0 113-58.5 169.5T694 707H346V150z"/><glyph glyph-name="uni0412" unicode="В" d="M180 0v1430h486q182 0 287.5-100.5T1059 1061q0-122-59.5-198T836 754v-6q128-30 202-112t74-224q0-174-110-293T727 0H180zm172 150h324q121 0 187.5 55T930 367v84q0 106-67 161.5T676 668H352V150zm0 659h295q110 0 171 49.5t61 145.5v79q0 97-61.5 147T647 1280H352V809z"/><glyph glyph-name="uni0413" unicode="Г" d="M270 0v1430h801v-150H442V0H270z"/><glyph glyph-name="uni0414" unicode="Д" d="M29-307v457h123q94 135 140 341.5t46 518.5v420h668V150h174v-457h-158V0H186v-307H29zm805 457v1130H506V997q0-592-158-847h486z"/><glyph glyph-name="uni0415" unicode="Е" d="M1065 0H184v1430h881v-150H356V799h684V649H356V150h709V0z"/><glyph glyph-name="uni0416" unicode="Ж" d="M530 0v651H389L180 0H4l172 543q30 94 63 131t83 47v10q-46 10-78.5 47.5T188 899L37 1430h168l184-631h141v631h168V799h142l186 631h166l-154-529q-25-86-55.5-123.5T907 731v-10q50-10 84.5-48t63.5-130L1225 0h-178L840 651H698V0H530z"/><glyph glyph-name="uni0417" unicode="З" d="M575-25Q262-25 82 227l125 103q152-207 368-207 143 0 226.5 68.5T885 383v43q0 109-74.5 173.5T590 664H389v149h189q276 0 276 234v43q0 99-70 158t-202 59q-212 0-320-160l-129 84q153 223 449 223 219 0 335.5-101.5T1034 1077q0-143-74.5-226T762 748v-11q136-16 220.5-99.5T1067 401q0-192-132.5-309T575-25z"/><glyph glyph-name="uni0418" unicode="И" d="M164 0v1430h172V709l-29-414h10l584 1135h164V0H893v721l29 414h-11L328 0H164z"/><glyph glyph-name="uni0419" unicode="Й" d="M164 0v1430h172V709l-29-414h10l584 1135h164V0H893v721l29 414h-11L328 0H164zm450 1567q-102 0-168 45t-116 145l-58 117 148 47 82-217q35-12 112-12 78 0 113 12l82 217 147-47-57-117q-50-100-116-145t-169-45z"/><glyph glyph-name="uni041A" unicode="К" d="M164 0v1430h172V799h252l303 631h182L801 864q-34-69-64-98t-69-35v-10q47-9 77-42t66-116l184-413h133V0H999Q876 0 809 152L588 651H336V0H164z"/><glyph glyph-name="uni041B" unicode="Л" d="M895 0v1280H494v-258q0-288-24-479t-65.5-293T297 82Q215 0 74 0H10v150h137q99 95 139 283t40 601v396h741V0H895z"/><glyph glyph-name="uni041C" unicode="М" d="M932 0v1169h-17L614 434l-301 735h-16V0H139v1430h221l252-631h13l252 631h213V0H932z"/><glyph glyph-name="uni041D" unicode="Н" d="M893 0v649H336V0H164v1430h172V799h557v631h172V0H893z"/><glyph glyph-name="uni041E" unicode="О" d="M614-25q-499 0-499 740 0 739 499 739 500 0 500-739 0-740-500-740zm0 150q318 0 318 473v233q0 225-77 349.5T614 1305q-317 0-317-474V598q0-473 317-473z"/><glyph glyph-name="uni041F" unicode="П" d="M170 0v1430h889V0H887v1280H342V0H170z"/><glyph glyph-name="uni0420" unicode="Р" d="M356 0H184v1430h521q196 0 301.5-108.5T1112 1018t-105.5-303.5T705 606H356V0zm0 1280V756h344q108 0 169 55t61 154v106q0 99-61 154t-169 55H356z"/><glyph glyph-name="uni0421" unicode="С" d="M662-25q-258 0-388.5 190T143 715t130.5 549.5T662 1454q76 0 140-18t108-46.5 82-71.5 62-84 48-93l-148-68q-22 54-43.5 91t-55.5 71.5-82 52-111 17.5q-166 0-251-126t-85-348V598q0-221 85-347t251-126q63 0 111 17.5t82 51.5 56 71.5 43 90.5l148-67q-24-52-47.5-93t-62-84.5T910 40 802-6.5 662-25z"/><glyph glyph-name="uni0422" unicode="Т" d="M1178 1280H700V0H528v1280H51v150h1127v-150z"/><glyph glyph-name="uni0423" unicode="У" d="M285 0v150h213l71 184L90 1430h184l285-672 84-230h4l78 228 250 674h176L684 197Q639 77 583.5 38.5T408 0H285z"/><glyph glyph-name="uni0424" unicode="Ф" d="M528-59v184q-123 7-215.5 55.5T164 309 80.5 490.5 53 713t27.5 222.5T164 1117t148.5 128 215.5 55v185h172v-185q123-7 215.5-55t149-128 84-181.5T1176 713t-27.5-222.5T1065 309 916 180.5 700 125V-59H528zm4 329v885q-155-14-228-108.5T231 797V629q0-155 73-250t228-109zm164 0q155 14 228 109t73 250v168q0 155-73 249.5T696 1155V270z"/><glyph glyph-name="uni0425" unicode="Х" d="M721 731L1178 0H983L813 285 625 596h-9L422 285 242 0H53l467 729-440 701h194l166-277 178-289h9l176 289 172 277h188z"/><glyph glyph-name="uni0426" unicode="Ц" d="M1018-307V0H164v1430h172V150h514v1280h172V150h154v-457h-158z"/><glyph glyph-name="uni0427" unicode="Ч" d="M877 0v563h-11q-120-47-286-47-249 0-353 121.5T123 1024v406h172v-406q0-198 64-278t227-80 291 49v715h172V0H877z"/><glyph glyph-name="uni0428" unicode="Ш" d="M98 0v1430h168V150h264v1280h168V150h265v1280h167V0H98z"/><glyph glyph-name="uni0429" unicode="Щ" d="M1065-307V0H98v1430h168V150h232v1280h168V150h231v1280h168V150h154v-457h-154z"/><glyph glyph-name="uni042A" unicode="Ъ" d="M348 0v1280H20v150h500V856h268q192 0 296-111.5T1188 428t-104-316.5T788 0H348zm172 150h264q104 0 163 56.5t59 168.5v106q0 113-59 169.5T784 707H520V150z"/><glyph glyph-name="uni042B" unicode="Ы" d="M98 0v1430h168V856h144q192 0 295.5-111T809 428 705.5 111 410 0H98zm168 150h144q104 0 162.5 56T631 375v106q0 113-58.5 169.5T410 707H266V150zM963 0v1430h167V0H963z"/><glyph glyph-name="uni042C" unicode="Ь" d="M188 0v1430h172V856h351q192 0 295.5-111T1110 428t-103.5-317T711 0H188zm172 150h347q104 0 162.5 56T928 375v106q0 113-58.5 169.5T707 707H360V150z"/><glyph glyph-name="uni042D" unicode="Э" d="M567-25q-95 0-170.5 26T269 75t-85 97.5T121 289l147 67q21-53 44-90.5t57.5-71.5 84-51.5T567 125q169 0 255.5 126T909 598v51H436v150h473v32q0 222-86.5 348T567 1305q-52 0-94.5-12.5T400 1260t-56-51-42.5-62.5T268 1073l-147 68q23 52 47.5 93t63 84 83.5 71.5 110 46.5 142 18q261 0 393-189.5T1092 715 960 165 567-25z"/><glyph glyph-name="uni042E" unicode="Ю" d="M782-25Q682-25 619.5 3T513 107t-63.5 205.5T426 649H266V0H98v1430h168V799h160q3 159 17 270t39.5 187 68.5 119 97.5 61 133.5 18q80 0 135-18t100-65 70-131 38.5-212 13.5-313-13.5-313-38.5-212.5-70-131-100-65T782-25zm0 150q39 0 65.5 9t49.5 34 36 71 20.5 119.5T961 537v356q0 105-7.5 178.5T933 1191t-36 71-49.5 34-65.5 9q-49 0-79.5-15t-54.5-58-34-125.5T604 893V537q0-131 10-213.5T648 198t54.5-58 79.5-15z"/><glyph glyph-name="uni042F" unicode="Я" d="M80 0v150h131l168 350q31 64 63 93t82 38v10q-184 9-278 109.5T152 1024q0 188 104.5 297T551 1430h502V0H881v614H623L397 145q-38-80-82.5-112.5T209 0H80zm801 762v518H555q-104 0-162.5-56T334 1055v-68q0-113 58.5-169T555 762h326z"/><glyph glyph-name="uni0430" unicode="а" d="M1126 0h-112Q846 0 825 172h-10Q742-25 498-25q-166 0-264.5 86.5T135 297q0 307 455 307h225v105q0 114-65.5 173.5T563 942q-193 0-282-156l-111 82q44 91 148 152t255 61q187 0 296.5-95T979 725V143h147V0zM526 113q125 0 207 56t82 138v174H590q-283 0-283-159v-43q0-81 58-123.5T526 113z"/><glyph glyph-name="uni0431" unicode="б" d="M616-25q-220 0-347.5 163T141 625q0 234 31.5 397.5T272 1292t169.5 157.5T688 1511l324 21v-162l-340-22q-120-8-190.5-55.5t-111-154T313 842h11q91 215 315 215 205 0 330-144.5T1094 514q0-239-133-389T616-25zm0 142q136 0 220 85.5T920 442v129q0 166-81.5 255T621 915q-150 0-228-72t-78-194V442q0-156 82-240.5T616 117z"/><glyph glyph-name="uni0432" unicode="в" d="M219 0v1057h539q128 0 202-73t74-196q0-198-207-223v-8q119-9 181.5-74.5T1071 315q0-134-81.5-224.5T764 0H219zm164 131h340q83 0 128.5 41T897 285v47q0 71-44 111t-118 40H383V131zm0 481h332q68 0 106.5 35t38.5 98v46q0 63-38.5 99T715 926H383V612z"/><glyph glyph-name="uni0433" unicode="г" d="M276 0v1057h758V918H440V0H276z"/><glyph glyph-name="uni0434" unicode="д" d="M45-287v426h119q141 228 141 582v336h682V139h174v-426h-149V0H195v-287H45zm297 426h481v779H465V713q0-187-30-324.5T342 139z"/><glyph glyph-name="uni0435" unicode="е" d="M633-25q-227 0-361.5 150T137 526q0 252 134.5 403.5T623 1081q211 0 340-144.5T1092 565v-78H309v-49q0-142 88.5-231.5T633 117q105 0 183 48.5T936 301l121-82q-49-110-160.5-177T633-25zm-10 971q-135 0-224.5-91.5T309 625v-15h606v23q0 140-81 226.5T623 946z"/><glyph glyph-name="uni0436" unicode="ж" d="M539 0v477H358L225 0H61l117 416q33 114 115 125v8q-78 18-107 121L74 1057h155l129-445h181v445h151V612h180l131 445h154l-115-387q-18-55-41.5-83.5T936 549v-8q88-12 117-125L1167 0h-166L870 477H690V0H539z"/><glyph glyph-name="uni0437" unicode="з" d="M571-25q-305 0-446 205l121 99q103-162 325-162 141 0 210 45.5T850 285v28q0 79-52.5 121.5T647 477H362v137h265q98 0 149 39t51 111v24q0 152-252 152-222 0-319-156l-115 78q74 109 179.5 164t263.5 55q207 0 312-74.5T1001 797q0-187-194-236v-8q105-15 161-80t56-166q0-154-120-243T571-25z"/><glyph glyph-name="uni0438" unicode="и" d="M195 0v1057h163V518l-16-270h8l531 809h153V0H870v539l17 270h-8L348 0H195z"/><glyph glyph-name="uni0439" unicode="й" d="M195 0v1057h163V518l-16-270h8l531 809h153V0H870v539l17 270h-8L348 0H195zm411 1219q-102 0-168 45t-116 145l-58 117 148 47 82-217q38-13 112-13 75 0 113 13l82 217 147-47-57-117q-50-100-116-145t-169-45z"/><glyph glyph-name="uni043A" unicode="к" d="M219 0v1057h164V614h225l285 443h170L805 655q-34-53-60.5-75T680 549v-8q41-6 70-29t59-74l172-299h119V0H981q-53 0-92.5 28.5T811 123L608 475H383V0H219z"/><glyph glyph-name="uni043B" unicode="л" d="M53 0v139h131q64 83 94.5 225T309 756v301h703V0H848v918H469V752q0-528-154-682Q245 0 117 0H53z"/><glyph glyph-name="uni043C" unicode="м" d="M147 0v1057h226l243-539h13l243 539h209V0H924v662l6 188h-12L614 180 311 850h-12l6-188V0H147z"/><glyph glyph-name="uni043D" unicode="н" d="M195 0v1057h163V614h512v443h164V0H870v475H358V0H195z"/><glyph glyph-name="uni043E" unicode="о" d="M614-25q-222 0-350.5 150T135 528t128.5 403T614 1081t351-150 129-403-129-403T614-25zm0 142q141 0 223.5 85.5T920 453v151q0 165-82.5 250.5T614 940t-223-85-82-251V453q0-166 82-251t223-85z"/><glyph glyph-name="uni043F" unicode="п" d="M199 0v1057h831V0H866v918H362V0H199z"/><glyph glyph-name="uni0440" unicode="р" d="M195-410v1467h163V885h9q103 196 325 196 194 0 304-147t110-406-110-406T692-25q-221 0-325 197h-9v-582H195zm434 531q141 0 221 86.5T930 438v180q0 144-80 231t-221 87q-115 0-193-57.5T358 719V338q0-102 78-159.5T629 121z"/><glyph glyph-name="uni0441" unicode="с" d="M651-25q-225 0-352 150T172 528q0 254 127 403.5T649 1081q148 0 246-65t145-178l-131-70q-30 83-96.5 127.5T649 940q-141 0-221-89.5T348 618V438q0-144 80-232.5T653 117q202 0 287 184l117-80q-48-112-151.5-179T651-25z"/><glyph glyph-name="uni0442" unicode="т" d="M532 0v918H143v139h942V918H696V0H532z"/><glyph glyph-name="uni0443" unicode="у" d="M778 614l178 443h164L596-231q-39-96-97-137.5T326-410H170v140h246L535 20 109 1057h167l179-443 157-401h9z"/><glyph glyph-name="uni0444" unicode="ф" d="M397 113q68 0 105 39.5T539 268v520q0 76-37 116t-105 40q-52 0-83.5-26.5t-49.5-99T246 621V436q0-125 18-197.5t49.5-99T397 113zm142-523v519h-7Q468-25 346-25q-87 0-141 47.5t-84.5 171T90 528t30.5 334.5 84.5 171 141 47.5q122 0 186-133h7v506h151V948h6q64 133 187 133 87 0 141-47.5t84.5-171T1139 528t-30.5-334.5-84.5-171T883-25q-123 0-187 134h-6v-519H539zm292 523q52 0 83.5 26.5t50 99T983 436v185q0 125-18.5 197.5t-50 99T831 944q-68 0-104.5-40T690 788V268q0-76 36.5-115.5T831 113z"/><glyph glyph-name="uni0445" unicode="х" d="M313 0H125l393 537-383 520h197l160-223 126-177h9l123 177 157 223h189L709 539 1106 0H909L731 248 610 416h-8L485 248z"/><glyph glyph-name="uni0446" unicode="ц" d="M1018-287V0H172v1057h164V139h493v918h164V139h174v-426h-149z"/><glyph glyph-name="uni0447" unicode="ч" d="M840 0v485h-11q-59-65-132.5-96T514 358q-171 0-260.5 82T164 684v373h164V698q0-98 56-145t179-47q126 0 201.5 33t75.5 96v422h164V0H840z"/><glyph glyph-name="uni0448" unicode="ш" d="M111 0v1057h151V135h277v922h151V135h277v922h151V0H111z"/><glyph glyph-name="uni0449" unicode="щ" d="M1085-287V0H111v1057h151V135h277v922h151V135h277v922h151V139h111v-426h-144z"/><glyph glyph-name="uni044A" unicode="ъ" d="M330 0v918H23v139h471V674h299q160 0 254-91t94-247q0-158-92-247T795 0H330zm164 139h276q197 0 197 156v86q0 154-197 154H494V139z"/><glyph glyph-name="uni044B" unicode="ы" d="M111 0v1057h163V674h179q160 0 254-91t94-247q0-158-92-247T455 0H111zm163 139h156q197 0 197 156v86q0 154-197 154H274V139zM954 0v1057h164V0H954z"/><glyph glyph-name="uni044C" unicode="ь" d="M227 0v1057h164V674h328q160 0 254-91t94-247q0-158-92-247T721 0H227zm164 139h305q197 0 197 156v86q0 154-197 154H391V139z"/><glyph glyph-name="uni044D" unicode="э" d="M422 465v137h459v16q0 144-80.5 233T575 940q-200 0-276-172l-127 68q106 245 406 245 225 0 352-150t127-403q0-254-127-403.5T580-25q-152 0-255.5 66.5T172 217l121 84q86-184 287-184 141 0 221 89t80 232v27H422z"/><glyph glyph-name="uni044E" unicode="ю" d="M797-25q-83 0-140.5 22T554 74.5t-68 155T459 479H262V0H111v1057h151V608h199q4 112 21 194.5t44 136 68.5 85.5 90 44.5T797 1081q86 0 145-24t104.5-84.5 67-170.5 21.5-274-21.5-274-67-170.5T942-1 797-25zm0 136q63 0 100.5 26t58.5 97.5T977 432v193q0 126-21 197.5T897.5 920 797 946t-100.5-26-59-97.5T616 625V432q0-126 21.5-197.5t59-97.5T797 111z"/><glyph glyph-name="uni044F" unicode="я" d="M139 0v139h119l92 174q50 92 123 103v8q-132 6-211.5 85T182 731q0 151 92.5 238.5T528 1057h476V0H840v408H584L438 135q-38-70-81-102.5T252 0H139zm701 543v375H553q-197 0-197-156v-64q0-155 197-155h287z"/><glyph glyph-name="uni0450" unicode="ѐ" d="M633-25q-227 0-361.5 150T137 526q0 252 134.5 403.5T623 1081q211 0 340-144.5T1092 565v-78H309v-49q0-142 88.5-231.5T633 117q105 0 183 48.5T936 301l121-82q-49-110-160.5-177T633-25zm-10 971q-135 0-224.5-91.5T309 625v-15h606v23q0 140-81 226.5T623 946zm-19 252l-217 326 150 71 174-348z"/><glyph glyph-name="uni0451" unicode="ё" d="M633-25q-227 0-361.5 150T137 526q0 252 134.5 403.5T623 1081q211 0 340-144.5T1092 565v-78H309v-49q0-142 88.5-231.5T633 117q105 0 183 48.5T936 301l121-82q-49-110-160.5-177T633-25zm-10 971q-135 0-224.5-91.5T309 625v-15h606v23q0 140-81 226.5T623 946zm-195 320q-60 0-88.5 25.5T311 1360v29q0 43 28.5 68.5T428 1483t88.5-25.5T545 1389v-29q0-43-28.5-68.5T428 1266zm381 0q-60 0-88.5 25.5T692 1360v29q0 43 28.5 68.5T809 1483t88.5-25.5T926 1389v-29q0-43-28.5-68.5T809 1266z"/><glyph glyph-name="uni0452" unicode="ђ" d="M365-410v140h512v919q0 287-250 287-107 0-184.5-52.5T365 733V0H201v1245H68v127h133v144h164v-144h313v-127H365V885h8q85 196 301 196 168 0 267-106.5t99-296.5v-846q0-111-58.5-176.5T807-410H365z"/><glyph glyph-name="uni0453" unicode="ѓ" d="M276 0v1057h758V918H440V0H276zm611 1524l-217-326-107 49 174 348z"/><glyph glyph-name="uni0454" unicode="є" d="M651-25q-225 0-352 150T172 528q0 254 127 403.5T649 1081q148 0 246-65t145-178l-131-70q-30 83-96.5 127.5T649 940q-141 0-221-89.5T348 618v-16h459V465H348v-27q0-144 80-232.5T653 117q202 0 287 184l117-80q-48-112-151.5-179T651-25z"/><glyph glyph-name="uni0455" unicode="ѕ" d="M627-25q-306 0-490 207l111 97q78-83 169.5-124.5T631 113q128 0 204 46t76 136q0 40-15 68.5t-43 45-57.5 25.5-70.5 15l-166 24q-40 6-68 11.5T422 501t-69 24.5-60 36-51 50-32 67-13 87.5q0 153 117 234t309 81q270 0 430-170L946 811Q836 944 616 944q-125 0-191.5-43T358 776q0-40 15-68.5t44-45 58-25 70-14.5l166-25q48-7 81-14t79.5-21 78.5-34.5 62-50.5 45.5-74 15.5-99q0-155-120.5-242.5T627-25z"/><glyph glyph-name="uni0456" unicode="і" d="M680 1290q-67 0-98 28.5t-31 76.5v32q0 48 31 76.5t98 28.5 98-28.5 31-76.5v-32q0-48-31-76.5t-98-28.5zM217 0v139h381v779H217v139h545V139h356V0H217z"/><glyph glyph-name="uni0457" unicode="ї" d="M217 0v139h381v779H217v139h545V139h356V0H217zm272 1266q-60 0-88 25.5t-28 68.5v29q0 43 28 68.5t88 25.5 88.5-25.5T606 1389v-29q0-43-28.5-68.5T489 1266zm381 0q-60 0-88 25.5t-28 68.5v29q0 43 28 68.5t88 25.5 88.5-25.5T987 1389v-29q0-43-28.5-68.5T870 1266z"/><glyph glyph-name="uni0458" unicode="ј" d="M209-410v140h512V918H190v139h695V-168q0-110-59-176t-175-66H209zm594 1700q-67 0-98 28.5t-31 76.5v32q0 48 31 76.5t98 28.5 98-28.5 31-76.5v-32q0-48-31-76.5t-98-28.5z"/><glyph glyph-name="uni0459" unicode="љ" d="M4 0v135h100q62 84 92.5 230.5T227 776v281h521V674h118q160 0 247-88.5t87-247.5q0-161-87-249.5T866 0H596v922H375V772q0-548-154-702Q151 0 35 0H4zm744 135h94q196 0 196 160v84q0 160-196 160h-94V135z"/><glyph glyph-name="uni045A" unicode="њ" d="M111 0v1057h151V612h334v445h152V674h118q160 0 247-88.5t87-247.5q0-161-87-249.5T866 0H596v477H262V0H111zm637 135h94q196 0 196 160v84q0 160-196 160h-94V135z"/><glyph glyph-name="uni045B" unicode="ћ" d="M365 0H201v1245H68v127h133v144h164v-144h313v-127H365V885h8q85 196 301 196 168 0 267-106.5t99-296.5V0H877v649q0 287-250 287-107 0-184.5-52.5T365 733V0z"/><glyph glyph-name="uni045C" unicode="ќ" d="M219 0v1057h164V614h225l285 443h170L805 655q-34-53-60.5-75T680 549v-8q41-6 70-29t59-74l172-299h119V0H981q-53 0-92.5 28.5T811 123L608 475H383V0H219zm619 1524l-217-326-107 49 174 348z"/><glyph glyph-name="uni045D" unicode="ѝ" d="M195 0v1057h163V518l-16-270h8l531 809h153V0H870v539l17 270h-8L348 0H195zm397 1198l-217 326 149 71 174-348z"/><glyph glyph-name="uni045E" unicode="ў" d="M778 614l178 443h164L596-231q-39-96-97-137.5T326-410H170v140h246L535 20 109 1057h167l179-443 157-401h9zm-164 605q-102 0-168 45t-116 145l-58 117 148 47 82-217q38-13 112-13 75 0 113 13l82 217 147-47-57-117q-50-100-116-145t-169-45z"/><glyph glyph-name="uni045F" unicode="џ" d="M199 0v1057h163V139h504v918h164V0H690v-287H541V0H199z"/><glyph glyph-name="uni0472" unicode="Ѳ" d="M614-25q-499 0-499 740 0 739 499 739 500 0 500-739 0-740-500-740zm0 150q318 0 318 473v51H297v-51q0-473 317-473zM297 831v-32h635v32q0 225-77 349.5T614 1305q-317 0-317-474z"/><glyph glyph-name="uni0473" unicode="ѳ" d="M614-25q-222 0-350.5 150T135 528t128.5 403T614 1081t351-150 129-403-129-403T614-25zm0 142q141 0 223.5 85.5T920 453v12H309v-12q0-166 82-251t223-85zm0 823q-141 0-223-85t-82-251h611q0 165-82.5 250.5T614 940z"/><glyph glyph-name="uni0490" unicode="Ґ" d="M270 0v1430h643v307h158v-457H442V0H270z"/><glyph glyph-name="uni0491" unicode="ґ" d="M276 0v1057h609v286h149V918H440V0H276z"/><glyph glyph-name="uni0492" unicode="Ғ" d="M104 819h203v611h801v-150H479V819h406V688H479V0H307v688H104v131z"/><glyph glyph-name="uni0493" unicode="ғ" d="M313 0v457H90v127h223v473h758V918H477V584h395V457H477V0H313z"/><glyph glyph-name="uni0494" unicode="Ҕ" d="M496-336v150h333q105 84 105 317v180q0 198-64 278.5T643 670t-291-49V0H180v1430h801v-150H352V772h10q120 47 287 47 249 0 353-121.5T1106 311V131q0-241-89-354T752-336H496z"/><glyph glyph-name="uni0495" unicode="ҕ" d="M662-410v140h172q67 80 67 260v198q0 136-54.5 192T666 436t-201.5-33-75.5-96V0H225v1057h668V918H389V457h10q59 65 133 96t183 31q174 0 262-90t88-285V-35q0-192-82-283.5T756-410h-94z"/><glyph glyph-name="uni0496" unicode="Җ" d="M1149-307V0h-131L811 651H674V0H506v651H369L160 0H-16l172 543q31 94 63.5 131t81.5 47v10q-46 10-77.5 47.5T168 899L16 1430h168l185-631h137v631h168V799h137l186 631h166l-153-529q-25-86-55.5-123.5T879 731v-10q50-10 84-47.5t63-130.5l123-393h154v-457h-154z"/><glyph glyph-name="uni0497" unicode="җ" d="M1079-287V0h-94L854 477H674V0H522v477H342L209 0H45l117 416q17 59 44.5 89t69.5 36v8q-77 17-106 121L57 1057h156l129-445h180v445h152V612h180l131 445h154l-115-387q-18-55-41.5-83.5T920 549v-8q87-12 116-125l76-277h111v-426h-144z"/><glyph glyph-name="uni0498" unicode="Ҙ" d="M500-307v287Q238 7 82 227l125 103q152-207 368-207 143 0 226.5 68.5T885 383v43q0 109-74.5 173.5T590 664H389v149h189q276 0 276 234v43q0 99-70 158t-202 59q-212 0-320-160l-129 84q153 223 449 223 219 0 335.5-101.5T1034 1077q0-143-74.5-226T762 748v-11q136-16 220.5-99.5T1067 401q0-173-109.5-286T657-20v-287H500z"/><glyph glyph-name="uni0499" unicode="ҙ" d="M498-287v267Q248 0 125 180l121 99q103-162 325-162 141 0 210 45.5T850 285v28q0 79-52.5 121.5T647 477H362v137h265q98 0 149 39t51 111v24q0 152-252 152-222 0-319-156l-115 78q74 109 179.5 164t263.5 55q207 0 312-74.5T1001 797q0-187-194-236v-8q105-15 161-80t56-166q0-139-99-225.5T647-20v-267H498z"/><glyph glyph-name="uni049A" unicode="Қ" d="M987-307V0q-67 0-112.5 36.5T793 152L571 651H319V0H147v1430h172V799h252l303 631h183L784 864q-34-69-64-98t-69-35v-10q47-9 77.5-42T795 563l184-413h166v-457H987z"/><glyph glyph-name="uni049B" unicode="қ" d="M946-287V0q-46 6-82 35t-69 88L592 475H367V0H203v1057h164V614h225l285 443h170L788 655q-35-53-61-75t-63-31v-8q41-6 70-29t59-74l172-299h131v-426H946z"/><glyph glyph-name="uni049C" unicode="Ҝ" d="M410 336v315H295V0H123v1430h172V799h115v315h135V799h96l291 631h182L854 866q-56-122-133-135v-10q46-9 74.5-41.5T862 559l174-409h133V0h-129Q915 0 850 152L641 651h-96V336H410z"/><glyph glyph-name="uni049D" unicode="ҝ" d="M453 236v239H342V0H178v1057h164V614h111v242h127V614h82l272 443h170L858 657q-33-54-60-76.5T733 549v-8q41-6 70.5-29t56.5-74l162-299h119V0h-119q-54 0-94.5 29.5T848 131L662 475h-82V236H453z"/><glyph glyph-name="uni04A0" unicode="Ҡ" d="M332 0v1280H4v150h500V799h207l278 631h182L924 874q-33-72-63.5-103T786 731v-10q47-9 77-42t63-114l168-415h133V0h-129Q973 0 905 168L711 651H504V0H332z"/><glyph glyph-name="uni04A1" unicode="ҡ" d="M330 0v918H23v139h471V614h196l264 443h170L885 659q-54-92-129-110v-8q82-12 133-109l153-293h119V0h-119q-55 0-96 32t-84 115L690 475H494V0H330z"/><glyph glyph-name="uni04A2" unicode="Ң" d="M1018-307V0H850v649H336V0H164v1430h172V799h514v631h172V150h154v-457h-158z"/><glyph glyph-name="uni04A3" unicode="ң" d="M172 0v1057h164V614h493v443h164V139h174v-426h-149V0H829v475H336V0H172z"/><glyph glyph-name="uni04A4" unicode="Ҥ" d="M100 0v1430h172V799h373v631h555v-150H817V0H645v649H272V0H100z"/><glyph glyph-name="uni04A5" unicode="ҥ" d="M111 0v1057h163V614h371v443h535V918H809V0H645v475H274V0H111z"/><glyph glyph-name="uni04AA" unicode="Ҫ" d="M582-307v289Q363 9 253 196T143 715q0 360 130.5 549.5T662 1454q76 0 140-18t108-46.5 82-71.5 62-84 48-93l-148-68q-22 54-43.5 91t-55.5 71.5-82 52-111 17.5q-166 0-251-126t-85-348V598q0-221 85-347t251-126q63 0 111 17.5t82 51.5 56 71.5 43 90.5l148-67q-27-59-55.5-104t-71-90.5-102.5-74T739-18v-289H582z"/><glyph glyph-name="uni04AB" unicode="ҫ" d="M578-287v267Q386 5 279 151T172 528q0 254 127 403.5T649 1081q148 0 246-65t145-178l-131-70q-30 83-96.5 127.5T649 940q-141 0-221-89.5T348 618V438q0-144 80-232.5T653 117q202 0 287 184l117-80Q965 13 727-20v-267H578z"/><glyph glyph-name="uni04AE" unicode="Ү" d="M700 0H528v561L35 1430h196l205-373 174-326h8l179 326 204 373h193L700 561V0z"/><glyph glyph-name="uni04AF" unicode="ү" d="M532-410V0L131 1057h166l152-414 163-459h9l163 459 152 414h162L696 0v-410H532z"/><glyph glyph-name="uni04B0" unicode="Ұ" d="M223 561h305L35 1430h196l205-373 174-326h8l179 326 204 373h193L700 561h306V430H700V0H528v430H223v131z"/><glyph glyph-name="uni04B1" unicode="ұ" d="M532-410v283H256V0h276L131 1057h166l152-414 163-459h9l163 459 152 414h162L696 0h277v-127H696v-283H532z"/><glyph glyph-name="uni04B2" unicode="Ҳ" d="M1081-307V0H971L799 289 610 600h-8L408 289 229 0H41l467 729-440 701h194l166-277 178-289h8l177 289 172 277h188L709 731l364-581h166v-457h-158z"/><glyph glyph-name="uni04B3" unicode="ҳ" d="M1028-287V0H909L731 248 610 416h-8L485 248 313 0H125l393 537-383 520h197l160-223 126-177h9l123 177 157 223h189L709 539l295-400h174v-426h-150z"/><glyph glyph-name="uni04B6" unicode="Ҷ" d="M1018-307V0H850v563h-10q-107-47-281-47-245 0-347.5 121.5T109 1024v406h172v-406q0-198 62.5-278T565 666q169 0 285 49v715h172V150h154v-457h-158z"/><glyph glyph-name="uni04B7" unicode="ҷ" d="M1018-287V0H829v485h-10q-59-66-132-96.5T504 358q-171 0-260.5 82T154 684v373h163V698q0-98 56.5-145T553 506q127 0 201.5 33t74.5 96v422h164V139h174v-426h-149z"/><glyph glyph-name="uni04B8" unicode="Ҹ" d="M524 233v285q-218 12-309.5 133.5T123 1024v406h172v-406q0-180 51-261.5T524 668v344h135V668q113 5 218 47v715h172V0H877v563h-11q-90-36-207-45V233H524z"/><glyph glyph-name="uni04B9" unicode="ҹ" d="M840 0v483h-11q-75-87-182-112V182H520v176q-356 0-356 326v373h164V698q0-181 192-190v295h127V508q89 9 141 41.5t52 85.5v422h164V0H840z"/><glyph glyph-name="uni04BA" unicode="Һ" d="M180 0v1430h172V866h10q120 47 287 47 249 0 353-121t104-386V0H934v406q0 198-64 278t-227 80-291-49V0H180z"/><glyph glyph-name="uni04BB" unicode="һ" d="M201 0v1516h164V885h8q85 196 301 196 168 0 267-106.5t99-296.5V0H877v649q0 287-250 287-107 0-184.5-52.5T365 733V0H201z"/><glyph glyph-name="uni04C0" unicode="Ӏ" d="M1057 0H172v137h356v1155H172v138h885v-138H700V137h357V0z"/><glyph glyph-name="uni04C1" unicode="Ӂ" d="M530 0v651H389L180 0H4l172 543q30 94 63 131t83 47v10q-46 10-78.5 47.5T188 899L37 1430h168l184-631h141v631h168V799h142l186 631h166l-154-529q-25-86-55.5-123.5T907 731v-10q50-10 84.5-48t63.5-130L1225 0h-178L840 651H698V0H530zm84 1567q-102 0-168 45t-116 145l-58 117 148 47 82-217q35-12 112-12 78 0 113 12l82 217 147-47-57-117q-50-100-116-145t-169-45z"/><glyph glyph-name="uni04C2" unicode="ӂ" d="M539 0v477H358L225 0H61l117 416q33 114 115 125v8q-78 18-107 121L74 1057h155l129-445h181v445h151V612h180l131 445h154l-115-387q-18-55-41.5-83.5T936 549v-8q88-12 117-125L1167 0h-166L870 477H690V0H539zm75 1219q-102 0-168 45t-116 145l-58 117 148 47 82-217q38-13 112-13 75 0 113 13l82 217 147-47-57-117q-50-100-116-145t-169-45z"/><glyph glyph-name="uni04CF" unicode="ӏ" d="M164 0v139h368v1237H164v140h901v-140H696V139h369V0H164z"/><glyph glyph-name="uni04D0" unicode="Ӑ" d="M1167 0H985L864 408H362L242 0H63l439 1430h227zM823 557l-200 690h-19L403 557h420zM614 1567q-102 0-168 45t-116 145l-58 117 148 47 82-217q35-12 112-12 78 0 113 12l82 217 147-47-57-117q-50-100-116-145t-169-45z"/><glyph glyph-name="uni04D1" unicode="ӑ" d="M1126 0h-112Q846 0 825 172h-10Q742-25 498-25q-166 0-264.5 86.5T135 297q0 307 455 307h225v105q0 114-65.5 173.5T563 942q-193 0-282-156l-111 82q44 91 148 152t255 61q187 0 296.5-95T979 725V143h147V0zM526 113q125 0 207 56t82 138v174H590q-283 0-283-159v-43q0-81 58-123.5T526 113zm54 1106q-103 0-169 45t-116 145l-57 117 147 47 82-217q38-13 113-13 74 0 112 13l82 217 148-47-58-117q-50-100-116-145t-168-45z"/><glyph glyph-name="uni04D2" unicode="Ӓ" d="M1167 0H985L864 408H362L242 0H63l439 1430h227zM823 557l-200 690h-19L403 557h420zM424 1614q-60 0-88.5 25.5T307 1708v29q0 43 28.5 68.5T424 1831t88.5-25.5T541 1737v-29q0-43-28.5-68.5T424 1614zm381 0q-60 0-88.5 25.5T688 1708v29q0 43 28.5 68.5T805 1831t88.5-25.5T922 1737v-29q0-43-28.5-68.5T805 1614z"/><glyph glyph-name="uni04D3" unicode="ӓ" d="M1126 0h-112Q846 0 825 172h-10Q742-25 498-25q-166 0-264.5 86.5T135 297q0 307 455 307h225v105q0 114-65.5 173.5T563 942q-193 0-282-156l-111 82q44 91 148 152t255 61q187 0 296.5-95T979 725V143h147V0zM526 113q125 0 207 56t82 138v174H590q-283 0-283-159v-43q0-81 58-123.5T526 113zM389 1266q-60 0-88.5 25.5T272 1360v29q0 43 28.5 68.5T389 1483t88.5-25.5T506 1389v-29q0-43-28.5-68.5T389 1266zm381 0q-60 0-88.5 25.5T653 1360v29q0 43 28.5 68.5T770 1483t88.5-25.5T887 1389v-29q0-43-28.5-68.5T770 1266z"/><glyph glyph-name="uni04D4" unicode="Ӕ" d="M639 0v412H328L213 0H41l422 1430h684v-142H803V795h319V653H803V141h344V0H639zm0 1307h-64L365 553h274v754z"/><glyph glyph-name="uni04D5" unicode="ӕ" d="M289-25Q170-25 95 56T20 283q0 159 93.5 240T385 604h129v109q0 131-42 188t-124 57q-73 0-117.5-41T154 797L45 864q36 93 115 155t194 62q181 0 254-159h6q75 159 254 159 160 0 242-122.5t82-360.5V487H664v-51q0-149 51-239.5T860 106q127 0 197 183l119-56q-35-106-118-182T856-25q-103 0-179.5 61T557 209h-6Q524 92 455.5 33.5T289-25zm28 127q95 0 146 61t51 152v172H408q-238 0-238-176v-30q0-88 34-133.5T317 102zm543 861q-95 0-145.5-72.5T664 674v-70h393v70q0 144-51 216.5T860 963z"/><glyph glyph-name="uni04D6" unicode="Ӗ" d="M1065 0H184v1430h881v-150H356V799h684V649H356V150h709V0zM625 1567q-103 0-169 45t-116 145l-57 117 147 47 82-217q35-12 113-12 77 0 112 12l82 217 148-47-58-117q-50-100-116-145t-168-45z"/><glyph glyph-name="uni04D7" unicode="ӗ" d="M633-25q-227 0-361.5 150T137 526q0 252 134.5 403.5T623 1081q211 0 340-144.5T1092 565v-78H309v-49q0-142 88.5-231.5T633 117q105 0 183 48.5T936 301l121-82q-49-110-160.5-177T633-25zm-10 971q-135 0-224.5-91.5T309 625v-15h606v23q0 140-81 226.5T623 946zm-5 273q-102 0-168 45t-116 145l-58 117 148 47 82-217q38-13 112-13 75 0 113 13l82 217 148-47-58-117q-50-100-116-145t-169-45z"/><glyph glyph-name="uni04D8" unicode="Ә" d="M614-25q-499 0-499 740v45h817v67q0 229-80 353.5T592 1305q-38 0-70.5-6t-70-24-67.5-48-60-82-52-123l-143 68q47 178 168.5 271t306.5 93q266 0 388-189.5T1114 717q0-742-500-742zm-2 150q164 0 242 124t78 349v20H293v-20q0-225 77.5-349T612 125z"/><glyph glyph-name="uni04D9" unicode="ә" d="M137 569h783v49q0 142-88.5 232T596 940q-105 0-183-48.5T293 756l-121 82q49 109 160.5 176t263.5 67q227 0 361.5-150T1092 530q0-252-134.5-403.5T606-25q-211 0-340 145T137 492v77zm176-123v-22q0-139 81-226t212-87q135 0 224.5 91.5T920 432v14H313z"/><glyph glyph-name="uni04DC" unicode="Ӝ" d="M530 0v651H389L180 0H4l172 543q30 94 63 131t83 47v10q-46 10-78.5 47.5T188 899L37 1430h168l184-631h141v631h168V799h142l186 631h166l-154-529q-25-86-55.5-123.5T907 731v-10q50-10 84.5-48t63.5-130L1225 0h-178L840 651H698V0H530zM424 1614q-60 0-88.5 25.5T307 1708v29q0 43 28.5 68.5T424 1831t88.5-25.5T541 1737v-29q0-43-28.5-68.5T424 1614zm381 0q-60 0-88.5 25.5T688 1708v29q0 43 28.5 68.5T805 1831t88.5-25.5T922 1737v-29q0-43-28.5-68.5T805 1614z"/><glyph glyph-name="uni04DD" unicode="ӝ" d="M539 0v477H358L225 0H61l117 416q33 114 115 125v8q-78 18-107 121L74 1057h155l129-445h181v445h151V612h180l131 445h154l-115-387q-18-55-41.5-83.5T936 549v-8q88-12 117-125L1167 0h-166L870 477H690V0H539zM424 1266q-60 0-88.5 25.5T307 1360v29q0 43 28.5 68.5T424 1483t88.5-25.5T541 1389v-29q0-43-28.5-68.5T424 1266zm381 0q-60 0-88.5 25.5T688 1360v29q0 43 28.5 68.5T805 1483t88.5-25.5T922 1389v-29q0-43-28.5-68.5T805 1266z"/><glyph glyph-name="uni04DE" unicode="Ӟ" d="M575-25Q262-25 82 227l125 103q152-207 368-207 143 0 226.5 68.5T885 383v43q0 109-74.5 173.5T590 664H389v149h189q276 0 276 234v43q0 99-70 158t-202 59q-212 0-320-160l-129 84q153 223 449 223 219 0 335.5-101.5T1034 1077q0-143-74.5-226T762 748v-11q136-16 220.5-99.5T1067 401q0-192-132.5-309T575-25zM391 1614q-60 0-88.5 25.5T274 1708v29q0 43 28.5 68.5T391 1831t88.5-25.5T508 1737v-29q0-43-28.5-68.5T391 1614zm381 0q-60 0-88.5 25.5T655 1708v29q0 43 28.5 68.5T772 1831t88.5-25.5T889 1737v-29q0-43-28.5-68.5T772 1614z"/><glyph glyph-name="uni04DF" unicode="ӟ" d="M571-25q-305 0-446 205l121 99q103-162 325-162 141 0 210 45.5T850 285v28q0 79-52.5 121.5T647 477H362v137h265q98 0 149 39t51 111v24q0 152-252 152-222 0-319-156l-115 78q74 109 179.5 164t263.5 55q207 0 312-74.5T1001 797q0-187-194-236v-8q105-15 161-80t56-166q0-154-120-243T571-25zM393 1266q-60 0-88.5 25.5T276 1360v29q0 43 28.5 68.5T393 1483t88.5-25.5T510 1389v-29q0-43-28.5-68.5T393 1266zm381 0q-60 0-88.5 25.5T657 1360v29q0 43 28.5 68.5T774 1483t88.5-25.5T891 1389v-29q0-43-28.5-68.5T774 1266z"/><glyph glyph-name="uni04E2" unicode="Ӣ" d="M164 0v1430h172V709l-29-414h10l584 1135h164V0H893v721l29 414h-11L328 0H164zm164 1653v139h573v-139H328z"/><glyph glyph-name="uni04E3" unicode="ӣ" d="M195 0v1057h163V518l-16-270h8l531 809h153V0H870v539l17 270h-8L348 0H195zm124 1305v139h574v-139H319z"/><glyph glyph-name="uni04E4" unicode="Ӥ" d="M164 0v1430h172V709l-29-414h10l584 1135h164V0H893v721l29 414h-11L328 0H164zm260 1614q-60 0-88.5 25.5T307 1708v29q0 43 28.5 68.5T424 1831t88.5-25.5T541 1737v-29q0-43-28.5-68.5T424 1614zm381 0q-60 0-88.5 25.5T688 1708v29q0 43 28.5 68.5T805 1831t88.5-25.5T922 1737v-29q0-43-28.5-68.5T805 1614z"/><glyph glyph-name="uni04E5" unicode="ӥ" d="M195 0v1057h163V518l-16-270h8l531 809h153V0H870v539l17 270h-8L348 0H195zm221 1266q-60 0-88.5 25.5T299 1360v29q0 43 28.5 68.5T416 1483t88-25.5 28-68.5v-29q0-43-28-68.5t-88-25.5zm381 0q-60 0-88.5 25.5T680 1360v29q0 43 28.5 68.5T797 1483t88-25.5 28-68.5v-29q0-43-28-68.5t-88-25.5z"/><glyph glyph-name="uni04E6" unicode="Ӧ" d="M614-25q-499 0-499 740 0 739 499 739 500 0 500-739 0-740-500-740zm0 150q318 0 318 473v233q0 225-77 349.5T614 1305q-317 0-317-474V598q0-473 317-473zM424 1614q-60 0-88.5 25.5T307 1708v29q0 43 28.5 68.5T424 1831t88.5-25.5T541 1737v-29q0-43-28.5-68.5T424 1614zm381 0q-60 0-88.5 25.5T688 1708v29q0 43 28.5 68.5T805 1831t88.5-25.5T922 1737v-29q0-43-28.5-68.5T805 1614z"/><glyph glyph-name="uni04E7" unicode="ӧ" d="M614-25q-222 0-350.5 150T135 528t128.5 403T614 1081t351-150 129-403-129-403T614-25zm0 142q141 0 223.5 85.5T920 453v151q0 165-82.5 250.5T614 940t-223-85-82-251V453q0-166 82-251t223-85zM424 1266q-60 0-88.5 25.5T307 1360v29q0 43 28.5 68.5T424 1483t88.5-25.5T541 1389v-29q0-43-28.5-68.5T424 1266zm381 0q-60 0-88.5 25.5T688 1360v29q0 43 28.5 68.5T805 1483t88.5-25.5T922 1389v-29q0-43-28.5-68.5T805 1266z"/><glyph glyph-name="uni04E8" unicode="Ө" d="M614-25q-499 0-499 740 0 739 499 739 500 0 500-739 0-740-500-740zm0 150q318 0 318 473v51H297v-51q0-473 317-473zM297 831v-32h635v32q0 225-77 349.5T614 1305q-317 0-317-474z"/><glyph glyph-name="uni04E9" unicode="ө" d="M614-25q-222 0-350.5 150T135 528t128.5 403T614 1081t351-150 129-403-129-403T614-25zm0 142q141 0 223.5 85.5T920 453v12H309v-12q0-166 82-251t223-85zm0 823q-141 0-223-85t-82-251h611q0 165-82.5 250.5T614 940z"/><glyph glyph-name="uni04EE" unicode="Ӯ" d="M285 0v150h213l71 184L90 1430h184l285-672 84-230h4l78 228 250 674h176L684 197Q639 77 583.5 38.5T408 0H285zm43 1653v139h573v-139H328z"/><glyph glyph-name="uni04EF" unicode="ӯ" d="M778 614l178 443h164L596-231q-39-96-97-137.5T326-410H170v140h246L535 20 109 1057h167l179-443 157-401h9zm-450 691v139h573v-139H328z"/><glyph glyph-name="uni04F0" unicode="Ӱ" d="M285 0v150h213l71 184L90 1430h184l285-672 84-230h4l78 228 250 674h176L684 197Q639 77 583.5 38.5T408 0H285zm139 1614q-60 0-88.5 25.5T307 1708v29q0 43 28.5 68.5T424 1831t88.5-25.5T541 1737v-29q0-43-28.5-68.5T424 1614zm381 0q-60 0-88.5 25.5T688 1708v29q0 43 28.5 68.5T805 1831t88.5-25.5T922 1737v-29q0-43-28.5-68.5T805 1614z"/><glyph glyph-name="uni04F1" unicode="ӱ" d="M778 614l178 443h164L596-231q-39-96-97-137.5T326-410H170v140h246L535 20 109 1057h167l179-443 157-401h9zm-354 652q-60 0-88.5 25.5T307 1360v29q0 43 28.5 68.5T424 1483t88.5-25.5T541 1389v-29q0-43-28.5-68.5T424 1266zm381 0q-60 0-88.5 25.5T688 1360v29q0 43 28.5 68.5T805 1483t88.5-25.5T922 1389v-29q0-43-28.5-68.5T805 1266z"/><glyph glyph-name="uni04F2" unicode="Ӳ" d="M285 0v150h213l71 184L90 1430h184l285-672 84-230h4l78 228 250 674h176L684 197Q639 77 583.5 38.5T408 0H285zm397 1874l-217-326-98 45 174 349zm328 0l-217-326-99 45 174 349z"/><glyph glyph-name="uni04F3" unicode="ӳ" d="M778 614l178 443h164L596-231q-39-96-97-137.5T326-410H170v140h246L535 20 109 1057h167l179-443 157-401h9zm-96 912l-217-326-98 45 174 348zm328 0l-217-326-99 45 174 348z"/><glyph glyph-name="uni04F4" unicode="Ӵ" d="M877 0v563h-11q-120-47-286-47-249 0-353 121.5T123 1024v406h172v-406q0-198 64-278t227-80 291 49v715h172V0H877zM395 1614q-60 0-88 25.5t-28 68.5v29q0 43 28 68.5t88 25.5 88.5-25.5T512 1737v-29q0-43-28.5-68.5T395 1614zm381 0q-60 0-88.5 25.5T659 1708v29q0 43 28.5 68.5T776 1831t88.5-25.5T893 1737v-29q0-43-28.5-68.5T776 1614z"/><glyph glyph-name="uni04F5" unicode="ӵ" d="M840 0v485h-11q-59-65-132.5-96T514 358q-171 0-260.5 82T164 684v373h164V698q0-98 56-145t179-47q126 0 201.5 33t75.5 96v422h164V0H840zM393 1266q-60 0-88.5 25.5T276 1360v29q0 43 28.5 68.5T393 1483t88.5-25.5T510 1389v-29q0-43-28.5-68.5T393 1266zm381 0q-60 0-88.5 25.5T657 1360v29q0 43 28.5 68.5T774 1483t88.5-25.5T891 1389v-29q0-43-28.5-68.5T774 1266z"/><glyph glyph-name="uni04F8" unicode="Ӹ" d="M98 0v1430h168V856h144q192 0 295.5-111T809 428 705.5 111 410 0H98zm168 150h144q104 0 162.5 56T631 375v106q0 113-58.5 169.5T410 707H266V150zM963 0v1430h167V0H963zM424 1614q-60 0-88.5 25.5T307 1708v29q0 43 28.5 68.5T424 1831t88.5-25.5T541 1737v-29q0-43-28.5-68.5T424 1614zm381 0q-60 0-88.5 25.5T688 1708v29q0 43 28.5 68.5T805 1831t88.5-25.5T922 1737v-29q0-43-28.5-68.5T805 1614z"/><glyph glyph-name="uni04F9" unicode="ӹ" d="M111 0v1057h163V674h179q160 0 254-91t94-247q0-158-92-247T455 0H111zm163 139h156q197 0 197 156v86q0 154-197 154H274V139zM954 0v1057h164V0H954zM424 1266q-60 0-88.5 25.5T307 1360v29q0 43 28.5 68.5T424 1483t88.5-25.5T541 1389v-29q0-43-28.5-68.5T424 1266zm381 0q-60 0-88.5 25.5T688 1360v29q0 43 28.5 68.5T805 1483t88.5-25.5T922 1389v-29q0-43-28.5-68.5T805 1266z"/><glyph glyph-name="uni0E3F" unicode="฿" d="M668 0v-231H541V0H180v1430h361v231h127v-231h16q182 0 287.5-100.5T1077 1061q0-241-231-316v-6q256-81 256-327 0-174-110-293T717 0h-49zM348 807h195v477H348V807zm318 477V807q239 0 239 194v84q0 98-61 148.5T666 1284zM348 145h195v525H348V145zm318 525V145q128 0 195 54.5T928 362v91q0 107-67 162t-195 55z"/><glyph glyph-name="Wgrave" unicode="Ẁ" d="M432 0H184L72 1430h153l60-820 30-432h17l188 879h193l188-879h17l30 432 60 820h149L1044 0H797L623 854h-17zm168 1546l-217 326 149 72 175-349z"/><glyph glyph-name="wgrave" unicode="ẁ" d="M223 0L61 1057h146l121-914h18l180 914h181l180-914h18l121 914h141L1006 0H793L625 885h-17L436 0H223zm377 1198l-217 326 149 71 175-348z"/><glyph glyph-name="Wacute" unicode="Ẃ" d="M432 0H184L72 1430h153l60-820 30-432h17l188 879h193l188-879h17l30 432 60 820h149L1044 0H797L623 854h-17zm414 1872l-217-326-107 49 174 349z"/><glyph glyph-name="wacute" unicode="ẃ" d="M223 0L61 1057h146l121-914h18l180 914h181l180-914h18l121 914h141L1006 0H793L625 885h-17L436 0H223zm623 1524l-217-326-107 49 174 348z"/><glyph glyph-name="Wdieresis" unicode="Ẅ" d="M432 0H184L72 1430h153l60-820 30-432h17l188 879h193l188-879h17l30 432 60 820h149L1044 0H797L623 854h-17zm-8 1614q-60 0-88.5 25.5T307 1708v29q0 43 28.5 68.5T424 1831t88.5-25.5T541 1737v-29q0-43-28.5-68.5T424 1614zm381 0q-60 0-88.5 25.5T688 1708v29q0 43 28.5 68.5T805 1831t88.5-25.5T922 1737v-29q0-43-28.5-68.5T805 1614z"/><glyph glyph-name="wdieresis" unicode="ẅ" d="M223 0L61 1057h146l121-914h18l180 914h181l180-914h18l121 914h141L1006 0H793L625 885h-17L436 0H223zm201 1266q-60 0-88.5 25.5T307 1360v29q0 43 28.5 68.5T424 1483t88.5-25.5T541 1389v-29q0-43-28.5-68.5T424 1266zm381 0q-60 0-88.5 25.5T688 1360v29q0 43 28.5 68.5T805 1483t88.5-25.5T922 1389v-29q0-43-28.5-68.5T805 1266z"/><glyph glyph-name="uni1E9E" unicode="ẞ" d="M129 0v1430h969v-168L752 829v-8q205-3 320.5-113T1188 399q0-198-115.5-311T758-25q-245 0-371 175l119 100q98-131 258-131 111 0 176.5 65.5T1006 362v74q0 112-66 178t-178 66H569v158l355 442H301V0H129z"/><glyph glyph-name="uni1EA0" unicode="Ạ" d="M1167 0H985L864 408H362L242 0H63l439 1430h227zM823 557l-200 690h-19L403 557h420zM614-352q-60 0-88 25.5T498-258v29q0 43 28 68.5t88 25.5 88.5-25.5T731-229v-29q0-43-28.5-68.5T614-352z"/><glyph glyph-name="uni1EA1" unicode="ạ" d="M1126 0h-112Q846 0 825 172h-10Q742-25 498-25q-166 0-264.5 86.5T135 297q0 307 455 307h225v105q0 114-65.5 173.5T563 942q-193 0-282-156l-111 82q44 91 148 152t255 61q187 0 296.5-95T979 725V143h147V0zM526 113q125 0 207 56t82 138v174H590q-283 0-283-159v-43q0-81 58-123.5T526 113zm54-465q-60 0-88.5 25.5T463-258v29q0 43 28.5 68.5T580-135t88-25.5 28-68.5v-29q0-43-28-68.5T580-352z"/><glyph glyph-name="uni1EA2" unicode="Ả" d="M1167 0H985L864 408H362L242 0H63l439 1430h227zM823 557l-200 690h-19L403 557h420zM442 1790v125h224q73 0 108-31.5t35-81.5q0-84-100-211l-50-61-94 47 119 213H442z"/><glyph glyph-name="uni1EA3" unicode="ả" d="M1126 0h-112Q846 0 825 172h-10Q742-25 498-25q-166 0-264.5 86.5T135 297q0 307 455 307h225v105q0 114-65.5 173.5T563 942q-193 0-282-156l-111 82q44 91 148 152t255 61q187 0 296.5-95T979 725V143h147V0zM526 113q125 0 207 56t82 138v174H590q-283 0-283-159v-43q0-81 58-123.5T526 113zM408 1442v125h223q73 0 108-31.5t35-81.5q0-84-100-211l-49-61-95 47 119 213H408z"/><glyph glyph-name="uni1EA4" unicode="Ấ" d="M1167 0H985L864 408H362L242 0H63l439 1430h227zM823 557l-200 690h-19L403 557h420zm324 1575l-217-326-101 47 175 349zm-635-238h205l225-295-90-61-240 244-239-244-86 61z"/><glyph glyph-name="uni1EA5" unicode="ấ" d="M1126 0h-112Q846 0 825 172h-10Q742-25 498-25q-166 0-264.5 86.5T135 297q0 307 455 307h225v105q0 114-65.5 173.5T563 942q-193 0-282-156l-111 82q44 91 148 152t255 61q187 0 296.5-95T979 725V143h147V0zM526 113q125 0 207 56t82 138v174H590q-283 0-283-159v-43q0-81 58-123.5T526 113zm586 1671l-217-326-100 47 174 348zm-635-238h205l225-295-90-61-239 244-240-244-86 61z"/><glyph glyph-name="uni1EA6" unicode="Ầ" d="M1167 0H985L864 408H362L242 0H63l439 1430h227zM823 557l-200 690h-19L403 557h420zM299 1806L82 2132l143 70 174-349zm213 88h205l225-295-90-61-240 244-239-244-86 61z"/><glyph glyph-name="uni1EA7" unicode="ầ" d="M1126 0h-112Q846 0 825 172h-10Q742-25 498-25q-166 0-264.5 86.5T135 297q0 307 455 307h225v105q0 114-65.5 173.5T563 942q-193 0-282-156l-111 82q44 91 148 152t255 61q187 0 296.5-95T979 725V143h147V0zM526 113q125 0 207 56t82 138v174H590q-283 0-283-159v-43q0-81 58-123.5T526 113zM264 1458L47 1784l143 69 175-348zm213 88h205l225-295-90-61-239 244-240-244-86 61z"/><glyph glyph-name="uni1EA8" unicode="Ẩ" d="M1167 0H985L864 408H362L242 0H63l439 1430h227zM823 557l-200 690h-19L403 557h420zM723 2054v125h223q74 0 109-31.5t35-81.5q0-83-101-211l-49-61-94 47 119 213H723zm-211-160h205l225-295-90-61-240 244-239-244-86 61z"/><glyph glyph-name="uni1EA9" unicode="ẩ" d="M1126 0h-112Q846 0 825 172h-10Q742-25 498-25q-166 0-264.5 86.5T135 297q0 307 455 307h225v105q0 114-65.5 173.5T563 942q-193 0-282-156l-111 82q44 91 148 152t255 61q187 0 296.5-95T979 725V143h147V0zM526 113q125 0 207 56t82 138v174H590q-283 0-283-159v-43q0-81 58-123.5T526 113zm162 1593v125h223q74 0 109-31.5t35-81.5q0-83-101-211l-49-61-94 47 119 213H688zm-211-160h205l225-295-90-61-239 244-240-244-86 61z"/><glyph glyph-name="uni1EAA" unicode="Ẫ" d="M1167 0H985L864 408H362L242 0H63l439 1430h227zM823 557l-200 690h-19L403 557h420zM467 2175q12 0 23-1t22-3.5 19.5-4 19.5-6 17-6.5 17.5-8 15.5-8 16-8.5 14-7.5q92-49 143-49 55 0 119 55l63-74q-73-108-194-108-12 0-23 1t-22 3.5-19.5 4-19.5 6-17 6.5-17.5 8-15.5 8-16 8.5-14 7.5q-92 49-143 49-55 0-119-55l-64 73q73 109 195 109zm45-301h205l225-275-90-61-240 227-239-227-86 61z"/><glyph glyph-name="uni1EAB" unicode="ẫ" d="M1126 0h-112Q846 0 825 172h-10Q742-25 498-25q-166 0-264.5 86.5T135 297q0 307 455 307h225v105q0 114-65.5 173.5T563 942q-193 0-282-156l-111 82q44 91 148 152t255 61q187 0 296.5-95T979 725V143h147V0zM526 113q125 0 207 56t82 138v174H590q-283 0-283-159v-43q0-81 58-123.5T526 113zm-94 1714q12 0 23-1t22-3.5 19.5-4 19.5-6 17-6.5 17.5-8 15.5-8 16-8.5 14-7.5q94-50 143-50 53 0 119 56l64-74q-73-109-195-109-15 0-29 1.5t-28.5 5.5-23 6.5-24 10-20 9.5-21.5 11-18 10q-92 49-143 49-55 0-119-55l-63 73q73 109 194 109zm45-301h205l225-275-90-61-239 227-240-227-86 61z"/><glyph glyph-name="uni1EAC" unicode="Ậ" d="M1167 0H985L864 408H362L242 0H63l439 1430h227zM823 557l-200 690h-19L403 557h420zM512 1915h205l227-293-92-63-240 239-239-239-88 63zM614-352q-60 0-88 25.5T498-258v29q0 43 28 68.5t88 25.5 88.5-25.5T731-229v-29q0-43-28.5-68.5T614-352z"/><glyph glyph-name="uni1EAD" unicode="ậ" d="M1126 0h-112Q846 0 825 172h-10Q742-25 498-25q-166 0-264.5 86.5T135 297q0 307 455 307h225v105q0 114-65.5 173.5T563 942q-193 0-282-156l-111 82q44 91 148 152t255 61q187 0 296.5-95T979 725V143h147V0zM526 113q125 0 207 56t82 138v174H590q-283 0-283-159v-43q0-81 58-123.5T526 113zm-49 1454h205l227-293-92-64-239 240-240-240-88 64zM580-352q-60 0-88.5 25.5T463-258v29q0 43 28.5 68.5T580-135t88-25.5 28-68.5v-29q0-43-28-68.5T580-352z"/><glyph glyph-name="uni1EAE" unicode="Ắ" d="M1167 0H985L864 408H362L242 0H63l439 1430h227zM823 557l-200 690h-19L403 557h420zm-211 989q-63 0-115.5 18.5t-87 46T347 1679t-43.5 75.5T274 1831l97 47 43-66q51-76 93-105.5t107-29.5q66 0 108 29.5t93 105.5l43 66 96-47q-92-285-342-285zm234 578l-217-326-101 47 174 348z"/><glyph glyph-name="uni1EAF" unicode="ắ" d="M1126 0h-112Q846 0 825 172h-10Q742-25 498-25q-166 0-264.5 86.5T135 297q0 307 455 307h225v105q0 114-65.5 173.5T563 942q-193 0-282-156l-111 82q44 91 148 152t255 61q187 0 296.5-95T979 725V143h147V0zM526 113q125 0 207 56t82 138v174H590q-283 0-283-159v-43q0-81 58-123.5T526 113zm52 1085q-63 0-115.5 18.5t-87 46T313 1331t-43.5 75.5T240 1483l96 47 43-66q51-76 93-105.5t108-29.5q65 0 107 29.5t93 105.5l43 66 97-47q-92-285-342-285zm233 578l-217-326-100 47 174 348z"/><glyph glyph-name="uni1EB0" unicode="Ằ" d="M1167 0H985L864 408H362L242 0H63l439 1430h227zM823 557l-200 690h-19L403 557h420zm-207 989q-250 0-342 285l97 47 43-66q51-76 93-105.5t107-29.5q66 0 108 29.5t93 105.5l43 66 96-47q-14-42-29.5-76.5T881 1679t-62.5-68.5-87-46T616 1546zm-16 252l-217 326 143 69 174-348z"/><glyph glyph-name="uni1EB1" unicode="ằ" d="M1126 0h-112Q846 0 825 172h-10Q742-25 498-25q-166 0-264.5 86.5T135 297q0 307 455 307h225v105q0 114-65.5 173.5T563 942q-193 0-282-156l-111 82q44 91 148 152t255 61q187 0 296.5-95T979 725V143h147V0zM526 113q125 0 207 56t82 138v174H590q-283 0-283-159v-43q0-81 58-123.5T526 113zm56 1085q-250 0-342 285l96 47 43-66q51-76 93-105.5t108-29.5q65 0 107 29.5t93 105.5l43 66 97-47q-14-42-29.5-76.5T847 1331t-62.5-68.5-87-46T582 1198zm-17 252l-217 326 144 69 174-348z"/><glyph glyph-name="uni1EB2" unicode="Ẳ" d="M1167 0H985L864 408H362L242 0H63l439 1430h227zM823 557l-200 690h-19L403 557h420zM440 2046v125h193q73 0 108-31.5t35-81.5q0-84-100-211l-49-61-95 47 119 213H440zm176-500q-250 0-342 285l97 47 43-66q51-76 93-105.5t107-29.5q66 0 108 29.5t93 105.5l43 66 96-47q-14-42-29.5-76.5T881 1679t-62.5-68.5-87-46T616 1546z"/><glyph glyph-name="uni1EB3" unicode="ẳ" d="M1126 0h-112Q846 0 825 172h-10Q742-25 498-25q-166 0-264.5 86.5T135 297q0 307 455 307h225v105q0 114-65.5 173.5T563 942q-193 0-282-156l-111 82q44 91 148 152t255 61q187 0 296.5-95T979 725V143h147V0zM526 113q125 0 207 56t82 138v174H590q-283 0-283-159v-43q0-81 58-123.5T526 113zm56 1085q-250 0-342 285l96 47 43-66q51-76 93-105.5t108-29.5q65 0 107 29.5t93 105.5l43 66 97-47q-14-42-29.5-76.5T847 1331t-62.5-68.5-87-46T582 1198zm-176 500v125h192q73 0 108-31.5t35-81.5q0-84-100-211l-49-61-94 47 118 213H406z"/><glyph glyph-name="uni1EB4" unicode="Ẵ" d="M1167 0H985L864 408H362L242 0H63l439 1430h227zM823 557l-200 690h-19L403 557h420zm-61 1366q-12 0-23 1t-22 3.5-19.5 4-19.5 6-17 6.5-17.5 8-15.5 8-16 8.5-14 7.5q-92 49-143 49-55 0-119-55l-64 74q73 108 195 108 12 0 23-1t22-3.5 19.5-4 19.5-6 17-6.5 17.5-8 15.5-8 16-8.5 14-7.5q92-49 143-49 55 0 119 55l63-73q-73-109-194-109zm-146-377q-250 0-342 285l97 47 43-66q51-76 93-105.5t107-29.5q66 0 108 29.5t93 105.5l43 66 96-47q-14-42-29.5-76.5T881 1679t-62.5-68.5-87-46T616 1546z"/><glyph glyph-name="uni1EB5" unicode="ẵ" d="M1126 0h-112Q846 0 825 172h-10Q742-25 498-25q-166 0-264.5 86.5T135 297q0 307 455 307h225v105q0 114-65.5 173.5T563 942q-193 0-282-156l-111 82q44 91 148 152t255 61q187 0 296.5-95T979 725V143h147V0zM526 113q125 0 207 56t82 138v174H590q-283 0-283-159v-43q0-81 58-123.5T526 113zm56 1085q-250 0-342 285l96 47 43-66q51-76 93-105.5t108-29.5q65 0 107 29.5t93 105.5l43 66 97-47q-14-42-29.5-76.5T847 1331t-62.5-68.5-87-46T582 1198zm145 377q-12 0-23 1t-22 3.5-19.5 4-19.5 6-17 6.5-17.5 8-15.5 8-16 8.5-14 7.5q-92 49-143 49-55 0-119-55l-63 74q73 108 194 108 12 0 23-1t22-3.5 19.5-4 19.5-6 17-6.5 17.5-8 15.5-8 16-8.5 14-7.5q92-49 143-49 55 0 119 55l64-74q-73-108-195-108z"/><glyph glyph-name="uni1EB6" unicode="Ặ" d="M1167 0H985L864 408H362L242 0H63l439 1430h227zM823 557l-200 690h-19L403 557h420zM614 1567q-63 0-114.5 21t-84.5 50.5-60.5 75.5-41 80.5T285 1876l104 45 43-70q25-40 35.5-56t29.5-40 33-32.5 35.5-15.5 48.5-7 48.5 7 36 16 33.5 32 30 40 35 56l43 70 104-45q-14-46-28-81t-42-81-60.5-75.5T729 1588t-115-21zm0-1919q-60 0-88 25.5T498-258v29q0 43 28 68.5t88 25.5 88.5-25.5T731-229v-29q0-43-28.5-68.5T614-352z"/><glyph glyph-name="uni1EB7" unicode="ặ" d="M1126 0h-112Q846 0 825 172h-10Q742-25 498-25q-166 0-264.5 86.5T135 297q0 307 455 307h225v105q0 114-65.5 173.5T563 942q-193 0-282-156l-111 82q44 91 148 152t255 61q187 0 296.5-95T979 725V143h147V0zM526 113q125 0 207 56t82 138v174H590q-283 0-283-159v-43q0-81 58-123.5T526 113zm54 1106q-63 0-115 21t-84.5 50.5T320 1366t-42 81-28 81l104 45 43-70q24-39 35-56t30-40 33.5-32 36-16 48.5-7 48.5 7 35.5 15.5 33 32.5 29.5 40 35.5 56l43 70 104-45q-15-47-28.5-81.5t-41-80.5-60.5-75.5-84.5-50.5-114.5-21zm0-1571q-60 0-88.5 25.5T463-258v29q0 43 28.5 68.5T580-135t88-25.5 28-68.5v-29q0-43-28-68.5T580-352z"/><glyph glyph-name="uni1EB8" unicode="Ẹ" d="M1065 0H184v1430h881v-150H356V799h684V649H356V150h709V0zM625-352q-60 0-88.5 25.5T508-258v29q0 43 28.5 68.5T625-135t88-25.5 28-68.5v-29q0-43-28-68.5T625-352z"/><glyph glyph-name="uni1EB9" unicode="ẹ" d="M633-25q-227 0-361.5 150T137 526q0 252 134.5 403.5T623 1081q211 0 340-144.5T1092 565v-78H309v-49q0-142 88.5-231.5T633 117q105 0 183 48.5T936 301l121-82q-49-110-160.5-177T633-25zm-10 971q-135 0-224.5-91.5T309 625v-15h606v23q0 140-81 226.5T623 946zm10-1298q-60 0-88.5 25.5T516-258v29q0 43 28.5 68.5T633-135t88.5-25.5T750-229v-29q0-43-28.5-68.5T633-352z"/><glyph glyph-name="uni1EBA" unicode="Ẻ" d="M1065 0H184v1430h881v-150H356V799h684V649H356V150h709V0zM453 1790v125h223q73 0 108-31.5t35-81.5q0-84-100-211l-49-61-95 47 119 213H453z"/><glyph glyph-name="uni1EBB" unicode="ẻ" d="M633-25q-227 0-361.5 150T137 526q0 252 134.5 403.5T623 1081q211 0 340-144.5T1092 565v-78H309v-49q0-142 88.5-231.5T633 117q105 0 183 48.5T936 301l121-82q-49-110-160.5-177T633-25zm-10 971q-135 0-224.5-91.5T309 625v-15h606v23q0 140-81 226.5T623 946zm-177 496v125h224q73 0 108-31.5t35-81.5q0-84-100-211l-49-61-95 47 119 213H446z"/><glyph glyph-name="uni1EBC" unicode="Ẽ" d="M1065 0H184v1430h881v-150H356V799h684V649H356V150h709V0zM774 1602q-12 0-23 1t-22 3.5-19.5 4-19.5 6-17 6.5-17.5 8-15.5 8-16 8.5-14 7.5q-92 49-143 49-55 0-119-55l-67 82q73 108 194 108 12 0 23-1t22-3.5 19.5-4 19.5-6 17-6.5 17.5-8 15.5-8 16-8.5 14-7.5q92-49 143-49 55 0 119 55l68-82q-73-108-195-108z"/><glyph glyph-name="uni1EBD" unicode="ẽ" d="M633-25q-227 0-361.5 150T137 526q0 252 134.5 403.5T623 1081q211 0 340-144.5T1092 565v-78H309v-49q0-142 88.5-231.5T633 117q105 0 183 48.5T936 301l121-82q-49-110-160.5-177T633-25zm-10 971q-135 0-224.5-91.5T309 625v-15h606v23q0 140-81 226.5T623 946zm145 307q-15 0-29 1.5t-28.5 5.5-23 6.5-24 10-20 9.5-21.5 11-18 10q-92 49-143 49-53 0-119-56l-68 82q73 109 195 109 12 0 23-1t22-3.5 19.5-4 19.5-6 17-6.5 17.5-8 15.5-8 16-8.5 14-7.5q92-49 143-49 55 0 119 55l68-82q-73-109-195-109z"/><glyph glyph-name="uni1EBE" unicode="Ế" d="M1065 0H184v1430h881v-150H356V799h684V649H356V150h709V0zm92 2132l-217-326-100 47 174 349zm-635-238h205l225-295-90-61-239 244-240-244-86 61z"/><glyph glyph-name="uni1EBF" unicode="ế" d="M633-25q-227 0-361.5 150T137 526q0 252 134.5 403.5T623 1081q211 0 340-144.5T1092 565v-78H309v-49q0-142 88.5-231.5T633 117q105 0 183 48.5T936 301l121-82q-49-110-160.5-177T633-25zm-10 971q-135 0-224.5-91.5T309 625v-15h606v23q0 140-81 226.5T623 946zm528 838l-217-326-100 47 174 348zm-635-238h205l225-295-90-61-240 244-239-244-86 61z"/><glyph glyph-name="uni1EC0" unicode="Ề" d="M1065 0H184v1430h881v-150H356V799h684V649H356V150h709V0zM309 1806L92 2132l144 70 174-349zm213 88h205l225-295-90-61-239 244-240-244-86 61z"/><glyph glyph-name="uni1EC1" unicode="ề" d="M633-25q-227 0-361.5 150T137 526q0 252 134.5 403.5T623 1081q211 0 340-144.5T1092 565v-78H309v-49q0-142 88.5-231.5T633 117q105 0 183 48.5T936 301l121-82q-49-110-160.5-177T633-25zm-10 971q-135 0-224.5-91.5T309 625v-15h606v23q0 140-81 226.5T623 946zm-320 512L86 1784l143 69 174-348zm213 88h205l225-295-90-61-240 244-239-244-86 61z"/><glyph glyph-name="uni1EC2" unicode="Ể" d="M1065 0H184v1430h881v-150H356V799h684V649H356V150h709V0zM733 2054v125h223q74 0 109-31.5t35-81.5q0-83-101-211l-49-61-94 47 119 213H733zm-211-160h205l225-295-90-61-239 244-240-244-86 61z"/><glyph glyph-name="uni1EC3" unicode="ể" d="M633-25q-227 0-361.5 150T137 526q0 252 134.5 403.5T623 1081q211 0 340-144.5T1092 565v-78H309v-49q0-142 88.5-231.5T633 117q105 0 183 48.5T936 301l121-82q-49-110-160.5-177T633-25zm-10 971q-135 0-224.5-91.5T309 625v-15h606v23q0 140-81 226.5T623 946zm104 760v125h223q74 0 109-31.5t35-81.5q0-83-101-211l-49-61-94 47 119 213H727zm-211-160h205l225-295-90-61-240 244-239-244-86 61z"/><glyph glyph-name="uni1EC4" unicode="Ễ" d="M1065 0H184v1430h881v-150H356V799h684V649H356V150h709V0zM477 2175q12 0 23-1t22-3.5 19.5-4 19.5-6 17-6.5 17.5-8 15.5-8 16-8.5 14-7.5q92-49 143-49 55 0 119 55l64-74q-73-108-195-108-12 0-23 1t-22 3.5-19.5 4-19.5 6-17 6.5-17.5 8-15.5 8-16 8.5-14 7.5q-92 49-143 49-55 0-119-55l-63 73q73 109 194 109zm45-301h205l225-275-90-61-239 227-240-227-86 61z"/><glyph glyph-name="uni1EC5" unicode="ễ" d="M633-25q-227 0-361.5 150T137 526q0 252 134.5 403.5T623 1081q211 0 340-144.5T1092 565v-78H309v-49q0-142 88.5-231.5T633 117q105 0 183 48.5T936 301l121-82q-49-110-160.5-177T633-25zm-10 971q-135 0-224.5-91.5T309 625v-15h606v23q0 140-81 226.5T623 946zm-152 881q12 0 23-1t22-3.5 19.5-4 19.5-6 17-6.5 17.5-8 15.5-8 16-8.5 14-7.5q94-50 143-50 53 0 119 56l64-74q-73-109-195-109-15 0-29 1.5t-28.5 5.5-23 6.5-24 10-20 9.5-21.5 11-18 10q-92 49-143 49-55 0-119-55l-64 73q73 109 195 109zm45-301h205l225-275-90-61-240 227-239-227-86 61z"/><glyph glyph-name="uni1EC6" unicode="Ệ" d="M1065 0H184v1430h881v-150H356V799h684V649H356V150h709V0zM522 1915h205l227-293-92-63-239 239-240-239-88 63zM625-352q-60 0-88.5 25.5T508-258v29q0 43 28.5 68.5T625-135t88-25.5 28-68.5v-29q0-43-28-68.5T625-352z"/><glyph glyph-name="uni1EC7" unicode="ệ" d="M633-25q-227 0-361.5 150T137 526q0 252 134.5 403.5T623 1081q211 0 340-144.5T1092 565v-78H309v-49q0-142 88.5-231.5T633 117q105 0 183 48.5T936 301l121-82q-49-110-160.5-177T633-25zm-10 971q-135 0-224.5-91.5T309 625v-15h606v23q0 140-81 226.5T623 946zm-107 621h205l227-293-92-64-240 240-239-240-88 64zM633-352q-60 0-88.5 25.5T516-258v29q0 43 28.5 68.5T633-135t88.5-25.5T750-229v-29q0-43-28.5-68.5T633-352z"/><glyph glyph-name="uni1EC8" unicode="Ỉ" d="M1057 0H172v137h356v1155H172v138h885v-138H700V137h357V0zM442 1790v125h224q73 0 108-31.5t35-81.5q0-84-100-211l-50-61-94 47 119 213H442z"/><glyph glyph-name="uni1EC9" unicode="ỉ" d="M217 0v139h381v779H217v139h545V139h356V0H217zm291 1442v125h223q73 0 108-31.5t35-81.5q0-84-100-211l-49-61-94 47 119 213H508z"/><glyph glyph-name="uni1ECA" unicode="Ị" d="M1057 0H172v137h356v1155H172v138h885v-138H700V137h357V0zM614-352q-60 0-88 25.5T498-258v29q0 43 28 68.5t88 25.5 88.5-25.5T731-229v-29q0-43-28.5-68.5T614-352z"/><glyph glyph-name="uni1ECB" unicode="ị" d="M680 1290q-67 0-98 28.5t-31 76.5v32q0 48 31 76.5t98 28.5 98-28.5 31-76.5v-32q0-48-31-76.5t-98-28.5zM217 0v139h381v779H217v139h545V139h356V0H217zm463-352q-60 0-88.5 25.5T563-258v29q0 43 28.5 68.5T680-135t88.5-25.5T797-229v-29q0-43-28.5-68.5T680-352z"/><glyph glyph-name="uni1ECC" unicode="Ọ" d="M614-25q-499 0-499 740 0 739 499 739 500 0 500-739 0-740-500-740zm0 150q318 0 318 473v233q0 225-77 349.5T614 1305q-317 0-317-474V598q0-473 317-473zm0-477q-60 0-88 25.5T498-258v29q0 43 28 68.5t88 25.5 88.5-25.5T731-229v-29q0-43-28.5-68.5T614-352z"/><glyph glyph-name="uni1ECD" unicode="ọ" d="M614-25q-222 0-350.5 150T135 528t128.5 403T614 1081t351-150 129-403-129-403T614-25zm0 142q141 0 223.5 85.5T920 453v151q0 165-82.5 250.5T614 940t-223-85-82-251V453q0-166 82-251t223-85zm0-469q-60 0-88 25.5T498-258v29q0 43 28 68.5t88 25.5 88.5-25.5T731-229v-29q0-43-28.5-68.5T614-352z"/><glyph glyph-name="uni1ECE" unicode="Ỏ" d="M614-25q-499 0-499 740 0 739 499 739 500 0 500-739 0-740-500-740zm0 150q318 0 318 473v233q0 225-77 349.5T614 1305q-317 0-317-474V598q0-473 317-473zM442 1790v125h224q73 0 108-31.5t35-81.5q0-84-100-211l-50-61-94 47 119 213H442z"/><glyph glyph-name="uni1ECF" unicode="ỏ" d="M614-25q-222 0-350.5 150T135 528t128.5 403T614 1081t351-150 129-403-129-403T614-25zm0 142q141 0 223.5 85.5T920 453v151q0 165-82.5 250.5T614 940t-223-85-82-251V453q0-166 82-251t223-85zM442 1442v125h224q73 0 108-31.5t35-81.5q0-84-100-211l-50-61-94 47 119 213H442z"/><glyph glyph-name="uni1ED0" unicode="Ố" d="M614-25q-499 0-499 740 0 739 499 739 500 0 500-739 0-740-500-740zm0 150q318 0 318 473v233q0 225-77 349.5T614 1305q-317 0-317-474V598q0-473 317-473zm533 2007l-217-326-101 47 175 349zm-635-238h205l225-295-90-61-240 244-239-244-86 61z"/><glyph glyph-name="uni1ED1" unicode="ố" d="M614-25q-222 0-350.5 150T135 528t128.5 403T614 1081t351-150 129-403-129-403T614-25zm0 142q141 0 223.5 85.5T920 453v151q0 165-82.5 250.5T614 940t-223-85-82-251V453q0-166 82-251t223-85zm533 1667l-217-326-101 47 175 348zm-635-238h205l225-295-90-61-240 244-239-244-86 61z"/><glyph glyph-name="uni1ED2" unicode="Ồ" d="M614-25q-499 0-499 740 0 739 499 739 500 0 500-739 0-740-500-740zm0 150q318 0 318 473v233q0 225-77 349.5T614 1305q-317 0-317-474V598q0-473 317-473zM299 1806L82 2132l143 70 174-349zm213 88h205l225-295-90-61-240 244-239-244-86 61z"/><glyph glyph-name="uni1ED3" unicode="ồ" d="M614-25q-222 0-350.5 150T135 528t128.5 403T614 1081t351-150 129-403-129-403T614-25zm0 142q141 0 223.5 85.5T920 453v151q0 165-82.5 250.5T614 940t-223-85-82-251V453q0-166 82-251t223-85zM299 1458L82 1784l143 69 174-348zm213 88h205l225-295-90-61-240 244-239-244-86 61z"/><glyph glyph-name="uni1ED4" unicode="Ổ" d="M614-25q-499 0-499 740 0 739 499 739 500 0 500-739 0-740-500-740zm0 150q318 0 318 473v233q0 225-77 349.5T614 1305q-317 0-317-474V598q0-473 317-473zm109 1929v125h223q74 0 109-31.5t35-81.5q0-83-101-211l-49-61-94 47 119 213H723zm-211-160h205l225-295-90-61-240 244-239-244-86 61z"/><glyph glyph-name="uni1ED5" unicode="ổ" d="M614-25q-222 0-350.5 150T135 528t128.5 403T614 1081t351-150 129-403-129-403T614-25zm0 142q141 0 223.5 85.5T920 453v151q0 165-82.5 250.5T614 940t-223-85-82-251V453q0-166 82-251t223-85zm109 1589v125h223q74 0 109-31.5t35-81.5q0-83-101-211l-49-61-94 47 119 213H723zm-211-160h205l225-295-90-61-240 244-239-244-86 61z"/><glyph glyph-name="uni1ED6" unicode="Ỗ" d="M614-25q-499 0-499 740 0 739 499 739 500 0 500-739 0-740-500-740zm0 150q318 0 318 473v233q0 225-77 349.5T614 1305q-317 0-317-474V598q0-473 317-473zM467 2175q12 0 23-1t22-3.5 19.5-4 19.5-6 17-6.5 17.5-8 15.5-8 16-8.5 14-7.5q92-49 143-49 55 0 119 55l63-74q-73-108-194-108-12 0-23 1t-22 3.5-19.5 4-19.5 6-17 6.5-17.5 8-15.5 8-16 8.5-14 7.5q-92 49-143 49-55 0-119-55l-64 73q73 109 195 109zm45-301h205l225-275-90-61-240 227-239-227-86 61z"/><glyph glyph-name="uni1ED7" unicode="ỗ" d="M614-25q-222 0-350.5 150T135 528t128.5 403T614 1081t351-150 129-403-129-403T614-25zm0 142q141 0 223.5 85.5T920 453v151q0 165-82.5 250.5T614 940t-223-85-82-251V453q0-166 82-251t223-85zM467 1827q12 0 23-1t22-3.5 19.5-4 19.5-6 17-6.5 17.5-8 15.5-8 16-8.5 14-7.5q94-50 143-50 53 0 119 56l63-74q-73-109-194-109-15 0-29 1.5t-28.5 5.5-23 6.5-24 10-20 9.5-21.5 11-18 10q-92 49-143 49-55 0-119-55l-64 73q73 109 195 109zm45-301h205l225-275-90-61-240 227-239-227-86 61z"/><glyph glyph-name="uni1ED8" unicode="Ộ" d="M614-25q-499 0-499 740 0 739 499 739 500 0 500-739 0-740-500-740zm0 150q318 0 318 473v233q0 225-77 349.5T614 1305q-317 0-317-474V598q0-473 317-473zM512 1915h205l227-293-92-63-240 239-239-239-88 63zM614-352q-60 0-88 25.5T498-258v29q0 43 28 68.5t88 25.5 88.5-25.5T731-229v-29q0-43-28.5-68.5T614-352z"/><glyph glyph-name="uni1ED9" unicode="ộ" d="M614-25q-222 0-350.5 150T135 528t128.5 403T614 1081t351-150 129-403-129-403T614-25zm0 142q141 0 223.5 85.5T920 453v151q0 165-82.5 250.5T614 940t-223-85-82-251V453q0-166 82-251t223-85zM512 1567h205l227-293-92-64-240 240-239-240-88 64zM614-352q-60 0-88 25.5T498-258v29q0 43 28 68.5t88 25.5 88.5-25.5T731-229v-29q0-43-28.5-68.5T614-352z"/><glyph glyph-name="uni1EDA" unicode="Ớ" d="M1124 1659v-205q0-129-129-129h-57q176-168 176-610 0-740-500-740-499 0-499 740 0 739 499 739 90 0 164-24h201v229h145zM614 125q318 0 318 473v233q0 225-77 349.5T614 1305q-317 0-317-474V598q0-473 317-473zm232 1747l-217-326-107 49 174 349z"/><glyph glyph-name="uni1EDB" unicode="ớ" d="M961 1286h145v-205q0-125-129-125h-45q162-150 162-428 0-253-129-403T614-25 263.5 125 135 528t128.5 403T614 1081q88 0 162-24h185v229zM614 117q141 0 223.5 85.5T920 453v151q0 165-82.5 250.5T614 940t-223-85-82-251V453q0-166 82-251t223-85zm232 1407l-217-326-107 49 174 348z"/><glyph glyph-name="uni1EDC" unicode="Ờ" d="M1124 1659v-205q0-129-129-129h-57q176-168 176-610 0-740-500-740-499 0-499 740 0 739 499 739 90 0 164-24h201v229h145zM614 125q318 0 318 473v233q0 225-77 349.5T614 1305q-317 0-317-474V598q0-473 317-473zm-14 1421l-217 326 149 72 175-349z"/><glyph glyph-name="uni1EDD" unicode="ờ" d="M961 1286h145v-205q0-125-129-125h-45q162-150 162-428 0-253-129-403T614-25 263.5 125 135 528t128.5 403T614 1081q88 0 162-24h185v229zM614 117q141 0 223.5 85.5T920 453v151q0 165-82.5 250.5T614 940t-223-85-82-251V453q0-166 82-251t223-85zm-14 1081l-217 326 149 71 175-348z"/><glyph glyph-name="uni1EDE" unicode="Ở" d="M1124 1659v-205q0-129-129-129h-57q176-168 176-610 0-740-500-740-499 0-499 740 0 739 499 739 90 0 164-24h201v229h145zM614 125q318 0 318 473v233q0 225-77 349.5T614 1305q-317 0-317-474V598q0-473 317-473zM442 1790v125h224q73 0 108-31.5t35-81.5q0-84-100-211l-50-61-94 47 119 213H442z"/><glyph glyph-name="uni1EDF" unicode="ở" d="M961 1286h145v-205q0-125-129-125h-45q162-150 162-428 0-253-129-403T614-25 263.5 125 135 528t128.5 403T614 1081q88 0 162-24h185v229zM614 117q141 0 223.5 85.5T920 453v151q0 165-82.5 250.5T614 940t-223-85-82-251V453q0-166 82-251t223-85zM442 1442v125h224q73 0 108-31.5t35-81.5q0-84-100-211l-50-61-94 47 119 213H442z"/><glyph glyph-name="uni1EE0" unicode="Ỡ" d="M1124 1659v-205q0-129-129-129h-57q176-168 176-610 0-740-500-740-499 0-499 740 0 739 499 739 90 0 164-24h201v229h145zM614 125q318 0 318 473v233q0 225-77 349.5T614 1305q-317 0-317-474V598q0-473 317-473zm129 1485q-18 0-34 2.5t-34 9-25.5 9.5-27.5 13l-22 11q-77 41-117 41-54 0-116-56l-68 82q73 109 186 109 15 0 30.5-2.5t26-5 25.5-8.5 21.5-9 21.5-10.5l19-9.5q77-41 116-41 56 0 117 55l68-82q-73-108-187-108z"/><glyph glyph-name="uni1EE1" unicode="ỡ" d="M961 1286h145v-205q0-125-129-125h-45q162-150 162-428 0-253-129-403T614-25 263.5 125 135 528t128.5 403T614 1081q88 0 162-24h185v229zM614 117q141 0 223.5 85.5T920 453v151q0 165-82.5 250.5T614 940t-223-85-82-251V453q0-166 82-251t223-85zm129 1145q-18 0-34 2.5t-34 9-25.5 9.5-27.5 13l-22 11q-77 41-117 41-54 0-116-56l-68 82q73 109 186 109 15 0 30.5-2.5t26-5 25.5-8.5 21.5-9 21.5-10.5l19-9.5q77-41 116-41 56 0 117 55l68-82q-73-108-187-108z"/><glyph glyph-name="uni1EE2" unicode="Ợ" d="M1124 1659v-205q0-129-129-129h-57q176-168 176-610 0-740-500-740-499 0-499 740 0 739 499 739 90 0 164-24h201v229h145zM614 125q318 0 318 473v233q0 225-77 349.5T614 1305q-317 0-317-474V598q0-473 317-473zm0-477q-60 0-88 25.5T498-258v29q0 43 28 68.5t88 25.5 88.5-25.5T731-229v-29q0-43-28.5-68.5T614-352z"/><glyph glyph-name="uni1EE3" unicode="ợ" d="M961 1286h145v-205q0-125-129-125h-45q162-150 162-428 0-253-129-403T614-25 263.5 125 135 528t128.5 403T614 1081q88 0 162-24h185v229zM614 117q141 0 223.5 85.5T920 453v151q0 165-82.5 250.5T614 940t-223-85-82-251V453q0-166 82-251t223-85zm0-469q-60 0-88 25.5T498-258v29q0 43 28 68.5t88 25.5 88.5-25.5T731-229v-29q0-43-28.5-68.5T614-352z"/><glyph glyph-name="uni1EE4" unicode="Ụ" d="M164 1430h172V571q0-54 .5-88.5T340 404t8.5-71.5 15-60.5 24-52.5T423 180t48-31 63-17.5 80-6.5 80 6.5 63.5 17.5 48 31 35 39.5T865 272t15.5 60.5T889 404t3.5 78.5.5 88.5v859h172V612q0-114-6.5-195.5t-24-157.5-49-125.5-81.5-87T782.5-8 614-25q-83 0-147.5 13.5t-112 38-81 66-55 90-33.5 118-16.5 142T164 612v818zM614-352q-60 0-88 25.5T498-258v29q0 43 28 68.5t88 25.5 88.5-25.5T731-229v-29q0-43-28.5-68.5T614-352z"/><glyph glyph-name="uni1EE5" unicode="ụ" d="M864 0v172h-8Q771-25 555-25 387-25 287.5 82T188 379v678h164V408q0-287 250-287 107 0 184.5 52.5T864 324v733h164V0H864zM608-352q-60 0-88 25.5T492-258v29q0 43 28 68.5t88 25.5 88.5-25.5T725-229v-29q0-43-28.5-68.5T608-352z"/><glyph glyph-name="uni1EE6" unicode="Ủ" d="M164 1430h172V571q0-54 .5-88.5T340 404t8.5-71.5 15-60.5 24-52.5T423 180t48-31 63-17.5 80-6.5 80 6.5 63.5 17.5 48 31 35 39.5T865 272t15.5 60.5T889 404t3.5 78.5.5 88.5v859h172V612q0-114-6.5-195.5t-24-157.5-49-125.5-81.5-87T782.5-8 614-25q-83 0-147.5 13.5t-112 38-81 66-55 90-33.5 118-16.5 142T164 612v818zm278 360v125h224q73 0 108-31.5t35-81.5q0-84-100-211l-50-61-94 47 119 213H442z"/><glyph glyph-name="uni1EE7" unicode="ủ" d="M864 0v172h-8Q771-25 555-25 387-25 287.5 82T188 379v678h164V408q0-287 250-287 107 0 184.5 52.5T864 324v733h164V0H864zM436 1442v125h223q74 0 109-31.5t35-81.5q0-83-101-211l-49-61-94 47 119 213H436z"/><glyph glyph-name="uni1EE8" unicode="Ứ" d="M164 1430h172V571q0-54 .5-88.5T340 404t8.5-71.5 15-60.5 24-52.5T423 180t48-31 63-17.5 80-6.5 80 6.5 63.5 17.5 48 31 35 39.5T865 272t15.5 60.5T889 404t3.5 78.5.5 88.5v859h190v229h146v-209q0-129-129-129h-35V612q0-114-6.5-195.5t-24-157.5-49-125.5-81.5-87T782.5-8 614-25q-83 0-147.5 13.5t-112 38-81 66-55 90-33.5 118-16.5 142T164 612v818zm682 442l-217-326-107 49 174 349z"/><glyph glyph-name="uni1EE9" unicode="ứ" d="M1202 1286v-209q0-129-129-129h-45V0H864v172h-8Q771-25 555-25 387-25 287.5 82T188 379v678h164V408q0-287 250-287 107 0 184.5 52.5T864 324v733h193v229h145zm-362 238l-217-326-107 49 174 348z"/><glyph glyph-name="uni1EEA" unicode="Ừ" d="M164 1430h172V571q0-54 .5-88.5T340 404t8.5-71.5 15-60.5 24-52.5T423 180t48-31 63-17.5 80-6.5 80 6.5 63.5 17.5 48 31 35 39.5T865 272t15.5 60.5T889 404t3.5 78.5.5 88.5v859h190v229h146v-209q0-129-129-129h-35V612q0-114-6.5-195.5t-24-157.5-49-125.5-81.5-87T782.5-8 614-25q-83 0-147.5 13.5t-112 38-81 66-55 90-33.5 118-16.5 142T164 612v818zm436 116l-217 326 149 72 175-349z"/><glyph glyph-name="uni1EEB" unicode="ừ" d="M1202 1286v-209q0-129-129-129h-45V0H864v172h-8Q771-25 555-25 387-25 287.5 82T188 379v678h164V408q0-287 250-287 107 0 184.5 52.5T864 324v733h193v229h145zm-608-88l-217 326 149 71 174-348z"/><glyph glyph-name="uni1EEC" unicode="Ử" d="M164 1430h172V571q0-54 .5-88.5T340 404t8.5-71.5 15-60.5 24-52.5T423 180t48-31 63-17.5 80-6.5 80 6.5 63.5 17.5 48 31 35 39.5T865 272t15.5 60.5T889 404t3.5 78.5.5 88.5v859h190v229h146v-209q0-129-129-129h-35V612q0-114-6.5-195.5t-24-157.5-49-125.5-81.5-87T782.5-8 614-25q-83 0-147.5 13.5t-112 38-81 66-55 90-33.5 118-16.5 142T164 612v818zm278 360v125h224q73 0 108-31.5t35-81.5q0-84-100-211l-50-61-94 47 119 213H442z"/><glyph glyph-name="uni1EED" unicode="ử" d="M1202 1286v-209q0-129-129-129h-45V0H864v172h-8Q771-25 555-25 387-25 287.5 82T188 379v678h164V408q0-287 250-287 107 0 184.5 52.5T864 324v733h193v229h145zm-766 156v125h223q74 0 109-31.5t35-81.5q0-83-101-211l-49-61-94 47 119 213H436z"/><glyph glyph-name="uni1EEE" unicode="Ữ" d="M164 1430h172V571q0-54 .5-88.5T340 404t8.5-71.5 15-60.5 24-52.5T423 180t48-31 63-17.5 80-6.5 80 6.5 63.5 17.5 48 31 35 39.5T865 272t15.5 60.5T889 404t3.5 78.5.5 88.5v859h190v229h146v-209q0-129-129-129h-35V612q0-114-6.5-195.5t-24-157.5-49-125.5-81.5-87T782.5-8 614-25q-83 0-147.5 13.5t-112 38-81 66-55 90-33.5 118-16.5 142T164 612v818zm579 180q-18 0-34 2.5t-34 9-25.5 9.5-27.5 13l-22 11q-77 41-117 41-54 0-116-56l-68 82q73 109 186 109 15 0 30.5-2.5t26-5 25.5-8.5 21.5-9 21.5-10.5l19-9.5q77-41 116-41 56 0 117 55l68-82q-73-108-187-108z"/><glyph glyph-name="uni1EEF" unicode="ữ" d="M1202 1286v-209q0-129-129-129h-45V0H864v172h-8Q771-25 555-25 387-25 287.5 82T188 379v678h164V408q0-287 250-287 107 0 184.5 52.5T864 324v733h193v229h145zm-465-24q-18 0-34 2.5t-34 9-25.5 9.5-27.5 13l-22 11q-77 41-117 41-55 0-117-56l-67 82q73 109 186 109 15 0 30.5-2.5t26-5 25.5-8.5 21.5-9 21.5-10.5l19-9.5q77-41 116-41 56 0 117 55l68-82q-73-108-187-108z"/><glyph glyph-name="uni1EF0" unicode="Ự" d="M164 1430h172V571q0-54 .5-88.5T340 404t8.5-71.5 15-60.5 24-52.5T423 180t48-31 63-17.5 80-6.5 80 6.5 63.5 17.5 48 31 35 39.5T865 272t15.5 60.5T889 404t3.5 78.5.5 88.5v859h190v229h146v-209q0-129-129-129h-35V612q0-114-6.5-195.5t-24-157.5-49-125.5-81.5-87T782.5-8 614-25q-83 0-147.5 13.5t-112 38-81 66-55 90-33.5 118-16.5 142T164 612v818zM614-352q-60 0-88 25.5T498-258v29q0 43 28 68.5t88 25.5 88.5-25.5T731-229v-29q0-43-28.5-68.5T614-352z"/><glyph glyph-name="uni1EF1" unicode="ự" d="M1202 1286v-209q0-129-129-129h-45V0H864v172h-8Q771-25 555-25 387-25 287.5 82T188 379v678h164V408q0-287 250-287 107 0 184.5 52.5T864 324v733h193v229h145zM608-352q-60 0-88 25.5T492-258v29q0 43 28 68.5t88 25.5 88.5-25.5T725-229v-29q0-43-28.5-68.5T608-352z"/><glyph glyph-name="Ygrave" unicode="Ỳ" d="M700 0H528v561L35 1430h196l205-373 174-326h8l179 326 204 373h193L700 561V0zM600 1546l-217 326 149 72 175-349z"/><glyph glyph-name="ygrave" unicode="ỳ" d="M778 614l178 443h164L596-231q-39-96-97-137.5T326-410H170v140h246L535 20 109 1057h167l179-443 157-401h9zm-178 584l-217 326 149 71 175-348z"/><glyph glyph-name="uni1EF4" unicode="Ỵ" d="M700 0H528v561L35 1430h196l205-373 174-326h8l179 326 204 373h193L700 561V0zm-86-352q-60 0-88 25.5T498-258v29q0 43 28 68.5t88 25.5 88.5-25.5T731-229v-29q0-43-28.5-68.5T614-352z"/><glyph glyph-name="uni1EF5" unicode="ỵ" d="M778 614l178 443h164L596-231q-39-96-97-137.5T326-410H170v140h246L535 20 109 1057h167l179-443 157-401h9zm164-966q-60 0-88.5 25.5T825-258v29q0 43 28.5 68.5T942-135t88.5-25.5T1059-229v-29q0-43-28.5-68.5T942-352z"/><glyph glyph-name="uni1EF6" unicode="Ỷ" d="M700 0H528v561L35 1430h196l205-373 174-326h8l179 326 204 373h193L700 561V0zM442 1790v125h224q73 0 108-31.5t35-81.5q0-84-100-211l-50-61-94 47 119 213H442z"/><glyph glyph-name="uni1EF7" unicode="ỷ" d="M778 614l178 443h164L596-231q-39-96-97-137.5T326-410H170v140h246L535 20 109 1057h167l179-443 157-401h9zm-336 828v125h224q73 0 108-31.5t35-81.5q0-84-100-211l-50-61-94 47 119 213H442z"/><glyph glyph-name="uni1EF8" unicode="Ỹ" d="M700 0H528v561L35 1430h196l205-373 174-326h8l179 326 204 373h193L700 561V0zm64 1602q-12 0-23 1t-22 3.5-19.5 4-19.5 6-17 6.5-17.5 8-15.5 8-16 8.5-14 7.5q-92 49-143 49-55 0-119-55l-68 82q73 108 195 108 12 0 23-1t22-3.5 19.5-4 19.5-6 17-6.5 17.5-8 15.5-8 16-8.5 14-7.5q92-49 143-49 55 0 119 55l67-82q-73-108-194-108z"/><glyph glyph-name="uni1EF9" unicode="ỹ" d="M778 614l178 443h164L596-231q-39-96-97-137.5T326-410H170v140h246L535 20 109 1057h167l179-443 157-401h9zm-14 639q-15 0-29 1.5t-28.5 5.5-23 6.5-24 10-20 9.5-21.5 11-18 10q-92 49-143 49-53 0-119-56l-68 82q73 109 195 109 12 0 23-1t22-3.5 19.5-4 19.5-6 17-6.5 17.5-8 15.5-8 16-8.5 14-7.5q92-49 143-49 55 0 119 55l67-82q-73-109-194-109z"/><glyph glyph-name="endash" unicode="–" d="M1106 547H123v151h983V547z"/><glyph glyph-name="emdash" unicode="—" d="M1229 547H0v151h1229V547z"/><glyph glyph-name="quoteleft" unicode="‘" d="M399 948l236 568h137L664 948H399z"/><glyph glyph-name="quoteright" unicode="’" d="M457 948l108 568h264L594 948H457z"/><glyph glyph-name="quotesinglbase" unicode="‚" d="M418-289l108 568h265L555-289H418z"/><glyph glyph-name="quotedblleft" unicode="“" d="M166 948l235 568h138L430 948H166zm491 0l236 568h137L922 948H657z"/><glyph glyph-name="quotedblright" unicode="”" d="M223 948l109 568h264L360 948H223zm492 0l108 568h264L852 948H715z"/><glyph glyph-name="quotedblbase" unicode="„" d="M223-289l109 568h264L360-289H223zm492 0l108 568h264L852-289H715z"/><glyph glyph-name="dagger" unicode="†" d="M686-410H543V926H143v131h400v459h143v-459h399V926H686V-410z"/><glyph glyph-name="daggerdbl" unicode="‡" d="M686-410H543V49H143v131h400v746H143v131h400v459h143v-459h399V926H686V180h399V49H686v-459z"/><glyph glyph-name="bullet" unicode="•" d="M614 381q-129 0-189 57.5T365 594v57q0 98 60 155.5T614 864q130 0 190-58t60-155v-57q0-97-60-155t-190-58z"/><glyph glyph-name="ellipsis" unicode="…" d="M219-8q-67 0-98 28T90 96v60q0 48 31 76t98 28 98-28 31-76V96q0-48-31-76T219-8zm395 0q-67 0-98 28t-31 76v60q0 48 31 76t98 28 98-28 31-76V96q0-48-31-76T614-8zm396 0q-67 0-98 28t-31 76v60q0 48 31 76t98 28 98-28 31-76V96q0-48-31-76t-98-28z"/><glyph glyph-name="perthousand" unicode="‰" d="M285 819q-134 0-209.5 81T0 1137q0 155 75 236t210 81q134 0 209-80.5t75-236.5q0-155-74.5-236.5T285 819zm0 103q68 0 106.5 45t38.5 120v99q0 75-38.5 120.5T285 1352t-107-45.5-39-120.5v-99q0-75 39-120t107-45zM166 569l-41 103 922 360 40-102zM508-25q-131 0-205 82t-74 236 74 235.5T508 610q138 0 217-102h10q76 102 215 102 131 0 205-81.5t74-235.5-74-236-205-82Q811-25 735 78h-12Q647-25 508-25zm6 103q68 0 106.5 45.5T659 244v98q0 75-38.5 120.5T514 508t-106.5-45.5T369 342v-98q0-75 38.5-120.5T514 78zm430 0q68 0 107 45.5t39 120.5v98q0 75-39 120.5T944 508t-106.5-45.5T799 342v-98q0-75 38.5-120.5T944 78z"/><glyph glyph-name="guilsinglleft" unicode="‹" d="M821 231l-51-116-422 356v164l422 356 51-117-303-321z"/><glyph glyph-name="guilsinglright" unicode="›" d="M459 115l-51 116 303 322-303 321 51 117 422-356V471z"/><glyph glyph-name="fraction" unicode="⁄" d="M717 815l327 615h148L864 815H717zM37 0l328 614h147L184 0H37z"/><glyph glyph-name="uni2070" unicode="⁰" d="M614 662q-297 0-297 391 0 389 297 389t297-389q0-391-297-391zm0 104q160 0 160 219v133q0 219-160 219-159 0-159-219V985q0-219 159-219zm0 225q-59 0-59 49v23q0 49 59 49 60 0 60-49v-23q0-49-60-49z"/><glyph glyph-name="uni2074" unicode="⁴" d="M811 674H688v147H301v107l336 502h174V920h115v-99H811V674zM688 920v393h-8L414 920h274z"/><glyph glyph-name="uni2075" unicode="⁵" d="M850 1430v-103H483l-22-272h8q31 50 69.5 75t102.5 25q109 0 179.5-63.5T891 920q0-116-78.5-187T598 662q-176 0-270 135l92 69q35-51 75-76.5T600 764q76 0 116 37t40 102v10q0 66-40.5 103T600 1053q-49 0-79.5-15.5T461 993l-107 15 29 422h467z"/><glyph glyph-name="uni2076" unicode="⁶" d="M618 662q-136 0-212 78.5T330 956q0 149 88.5 274.5T625 1430h172q-152-101-229-186t-105-200l8-2q67 109 193 109 106 0 174.5-63.5T907 918q0-114-79.5-185T618 662zm0 98q72 0 114 36t42 105v10q0 69-42 105.5T618 1053t-113.5-36.5T463 911v-10q0-69 41.5-105T618 760z"/><glyph glyph-name="uni2077" unicode="⁷" d="M598 674H461l303 653H446v-139H336v242h557v-107z"/><glyph glyph-name="uni2078" unicode="⁸" d="M614 662q-139 0-217 61t-78 158q0 71 44.5 117.5T483 1065v8q-63 21-100 66t-37 108q0 89 71 142t197 53 197.5-53 71.5-142q0-63-37.5-108T745 1073v-8q76-19 120-66t44-118q0-97-78-158t-217-61zm0 450q70 0 106 27.5t36 79.5v18q0 106-142 106-141 0-141-106v-18q0-107 141-107zm0-352q76 0 117 30.5t41 86.5v24q0 56-41 86.5T614 1018t-116.5-30.5T457 901v-24q0-56 40.5-86.5T614 760z"/><glyph glyph-name="uni2079" unicode="⁹" d="M897 1147q0-78-26-153t-69.5-134.5-93.5-106T604 674H432q151 101 227.5 185.5T764 1059l-8 2q-62-111-191-111-107 0-175 65t-68 171q0 115 78.5 185.5T610 1442q134 0 210.5-79t76.5-216zm-289-98q72 0 114 36t42 105v12q0 69-42 105t-114 36-113.5-36-41.5-105v-12q0-69 41.5-105t113.5-36z"/><glyph glyph-name="uni2080" unicode="₀" d="M614-12q-297 0-297 391 0 389 297 389t297-389q0-391-297-391zm0 104q160 0 160 219v133q0 220-160 220-159 0-159-220V311q0-219 159-219zm0 225q-59 0-59 50v22q0 49 59 49 60 0 60-49v-22q0-50-60-50z"/><glyph glyph-name="uni2081" unicode="₁" d="M913 0H360v102h224v543L367 532l-52 91 258 133h140V102h200V0z"/><glyph glyph-name="uni2082" unicode="₂" d="M897 102V0H340v117l266 215q127 105 127 200v13q0 54-35 85.5T600 662q-119 0-160-119l-110 41q28 81 96 132.5T608 768q124 0 193-61.5T870 545q0-83-48.5-149T676 256L477 102h420z"/><glyph glyph-name="uni2083" unicode="₃" d="M496 444h82q75 0 114 29.5t39 77.5v8q0 51-35.5 79T598 666q-110 0-170-93l-88 70q86 125 262 125 118 0 192-52.5T868 573q0-70-45-115t-114-59v-6q75-13 123.5-60T881 209q0-100-80-160.5T588-12q-181 0-279 135l97 70q33-50 75-76.5T588 90q76 0 116.5 33t40.5 92v12q0 113-157 113h-92v104z"/><glyph glyph-name="uni2084" unicode="₄" d="M811 0H688v147H301v107l336 502h174V246h115v-99H811V0zM688 246v393h-8L414 246h274z"/><glyph glyph-name="uni2085" unicode="₅" d="M850 653H483l-22-272h8q31 50 69.5 75T641 481q109 0 179.5-63.5T891 246q0-116-78.5-187T598-12q-176 0-270 135l92 70q35-51 75-77t105-26q76 0 116 37t40 102v11q0 65-40 102t-116 37q-49 0-79.5-15.5T461 319l-107 15 29 422h467V653z"/><glyph glyph-name="uni2086" unicode="₆" d="M618-12q-136 0-212 79t-76 216q0 149 88.5 274T625 756h172Q645 655 568 570.5T463 371l8-2q66 108 193 108 106 0 174.5-63.5T907 244q0-114-79.5-185T618-12zm0 98q72 0 114 36t42 105v11q0 69-42 105t-114 36-113.5-36T463 238v-11q0-69 41.5-105T618 86z"/><glyph glyph-name="uni2087" unicode="₇" d="M598 0H461l303 653H446V516H336v240h557V649z"/><glyph glyph-name="uni2088" unicode="₈" d="M614-12q-139 0-217 61t-78 158q0 71 44.5 117.5T483 391v8q-63 21-100 66t-37 108q0 89 71 142t197 53 197.5-53T883 573q0-63-37.5-108T745 399v-8q76-19 120-66t44-118q0-97-78-158T614-12zm0 98q76 0 117 30.5t41 86.5v24q0 56-41 86.5T614 344t-116.5-30.5T457 227v-24q0-56 40.5-86.5T614 86zm0 352q70 0 106 27.5t36 79.5v18q0 52-36 79.5T614 670q-141 0-141-107v-18q0-107 141-107z"/><glyph glyph-name="uni2089" unicode="₉" d="M897 473q0-78-26-153t-69.5-134.5-93.5-106T604 0H432q151 101 227.5 185.5T764 385l-8 2q-62-111-191-111-107 0-175 65t-68 171q0 115 78.5 185.5T610 768q134 0 210.5-79T897 473zm-289-98q72 0 114 36t42 105v12q0 69-42 105.5T608 670t-113.5-36.5T453 528v-12q0-69 41.5-105T608 375z"/><glyph glyph-name="uni20A1" unicode="₡" d="M584-231l22 208q-60 6-117 25l-24-233H338l31 297Q143 237 143 715q0 304 92.5 487T512 1436l25 225h127l-23-207h21q59 0 98-8l22 215h127l-26-256q134-71 219-264l-139-62q-43 110-101 162L743 125q83 20 133 77.5T963 352l139-63q-27-60-56-105.5T974 93 870 19 733-20l-22-211H584zm78 1544q-27 0-39-2L502 156q55-31 123-37l125 1184q-45 10-88 10zM313 598q0-213 80-340l107 1016q-93-52-140-166t-47-277V598z"/><glyph glyph-name="uni20A4" unicode="₤" d="M1102 164V0H154v215q138 56 157 213H106v133h203q-9 69-43 168H106v133h117q-22 90-22 160 0 193 129.5 312.5T680 1454q295 0 446-233l-129-93q-60 88-137.5 132.5T670 1305q-293 0-293-293 0-65 18-150h455V729H436q38-115 43-168h371V428H477q-16-87-61-152.5T315 174v-10h787z"/><glyph glyph-name="uni20A6" unicode="₦" d="M1040 797V633h134V500h-134V0H784L610 508H332V0H188v500H55v133h133v164H55v133h133v500h256l174-508h279v508h143V930h134V797h-134zM332 623h237l-223 651h-14V623zm327 184l224-651h14v651H659z"/><glyph glyph-name="uni20A8" unicode="₨" d="M264 0H100v1430h265q183 0 267.5-97.5T717 1047q0-289-205-355l180-426q34-81 81.5-117T897 113q75 0 115.5 34t40.5 101q0 19-4.5 36t-8 27.5-18 28.5-19.5 24-29 29-32 31l-39 39q-76 76-113.5 137.5T752 739q0 103 66 169.5t183 66.5q111 0 197-66l-65-110q-58 45-123 45-51 0-78-27.5T905 739q0-43 22.5-76.5T1016 563l31-31 17-17q39-39 57.5-59.5t42-54.5 33-71 9.5-82q0-126-81-199.5T883-25q-124 0-207 49.5T545 190L354 659h-90V0zm0 803h86q199 0 199 192v95q0 192-199 192h-86V803z"/><glyph glyph-name="uni20A9" unicode="₩" d="M1057 817l-6-176h125V508h-129L1030 0H764L631 827h-33L465 0H199l-17 508H53v133h125l-6 176H53v133h115l-14 480h153l6-490h607l6 490h149l-14-480h115V817h-119zM328 152h34l111 675H315zm542 0h35l13 675H760z"/><glyph glyph-name="uni20AA" unicode="₪" d="M401 0v1128h156V131h172q97 0 163 58.5T958 373v1057h158V406q0-198-106-302T729 0H401zM279 0H121v1430h332q175 0 279-104t104-302V301H680v756q0 125-65 183t-162 58H279V0z"/><glyph glyph-name="uni20AB" unicode="₫" d="M842 285v141h-8q-93-160-293-160-173 0-272 115.5T170 707q0 212 98.5 327T541 1149q200 0 293-160h8v279H528v125h314v123h155v-123h142v-125H997V285H842zM602 397q100 0 170 52.5T842 586v243q0 83-70.5 136T602 1018q-125 0-195.5-65T336 778V637q0-110 70.5-175T602 397zM1061 0H168v139h893V0z"/><glyph glyph-name="Euro" unicode="€" d="M662-25q-258 0-388.5 190T143 715t130.5 549.5T662 1454q76 0 140-18t108-46.5 82-71.5 62-84 48-93l-144-66q-21 54-43.5 92t-56.5 72.5-83 52-113 17.5q-144 0-228-94T328 950h467V809H322V621h473V479H328q22-170 106-264t228-94q64 0 113 17.5t83 51.5 56.5 72 43.5 92l144-65q-24-52-47.5-93t-62-84.5T910 40 802-6.5 662-25z"/><glyph glyph-name="uni20AD" unicode="₭" d="M377 670V0H205v670H57v141h148v619h172V811h110l437 619h194L676 811h442V670H690L1151 0H942L492 670H377z"/><glyph glyph-name="uni20AE" unicode="₮" d="M989 578L702 444V0H528v362L242 229v142l286 133v186L242 557v141l286 133v449H53v150h1125v-150H702V913l287 134V905L702 772V586l287 133V578z"/><glyph glyph-name="uni20B1" unicode="₱" d="M338 397V0H170v698H57v133h113v164H57v133h113v302h494q302 0 374-302h138V995h-117q2-27 2-82t-2-82h117V698h-138q-72-301-374-301H338zm0 891v-164h547q-39 164-226 164H338zm0-461h555v172H338V827zm0-288h321q187 0 226 163H338V539z"/><glyph glyph-name="uni20B2" unicode="₲" d="M387-231l43 241Q115 143 115 715q0 361 130 550t386 189q37 0 53-2l37 209h129l-41-236q96-36 157.5-109t106.5-175l-139-62q-31 74-65.5 123.5T780 1280L680 707h389V500q0-156-46.5-272T874 43.5 623-25q-13 0-70 5l-37-211H387zm70 391l205 1151q-8 2-29 2-171 0-259.5-128.5T285 831V598q0-158 44-270.5T457 160zm168-47q137 0 212.5 93.5T913 467v106H655l-80-456q28-4 50-4z"/><glyph glyph-name="uni20B4" unicode="₴" d="M623-25Q434-25 321.5 80.5T209 352q0 84 39 168H55v133h297l295 178v7H55v133h752q31 51 31 116 0 108-63.5 166T596 1311q-171 0-287-133l-108 100q165 176 409 176 178 0 286-95t108-253q0-72-29-135h199V838H870L575 659v-6h599V520H422q-47-62-47-151 0-118 68-184t190-66q173 0 328 160l104-105Q982 78 867 26.5T623-25z"/><glyph glyph-name="uni20B5" unicode="₵" d="M397-231l45 251Q143 157 143 715q0 360 130.5 549.5T662 1454h32l37 207h129l-41-229q104-34 170-109t113-182l-139-62q-32 78-70.5 130t-99.5 79L586 125q33-8 76-8 65 0 115 18t84.5 53 57 72.5T963 352l139-63q-24-52-47.5-93t-62-84.5T910 40 802-6.5 662-25q-50 0-97 9l-39-215H397zm74 405l201 1139q-181 0-270-127.5T313 831V598q0-308 158-424z"/><glyph glyph-name="uni20B8" unicode="₸" d="M1137 1288H92v142h1045v-142zm0-325H700V0H528v963H92v141h1045V963z"/><glyph glyph-name="uni20B9" unicode="₹" d="M1036 0H825L371 596H115v141h352q116 0 185 57.5T721 963H115v141h600q-9 86-77.5 135T467 1288H115v142h1020v-142H743v-10q102-48 134-174h258V963H889q-9-137-93-233.5T571 606z"/><glyph glyph-name="uni20BA" unicode="₺" d="M317 0v506l-202-94v141l202 94v187l-202-95v142l202 94v455h172v-375l373 174v-142L489 913V727l373 174V760L489 586V150h107q173 0 272 128t99 347h168q0-132-34-245t-98.5-198T836 48.5 606 0H317z"/><glyph glyph-name="uni20BD" unicode="₽" d="M899 274H434V0H262v274H92v142h170v186H92v141h170v687h467q196 0 302-110.5t106-307.5q0-196-106.5-303T727 602H434V416h465V274zM434 1280V743h295q108 0 168.5 53.5T958 948v127q0 98-60.5 151.5T729 1280H434z"/><glyph glyph-name="uni20BF" unicode="₿" d="M653-231V0H512v-231H385V0H180v1430h205v231h127v-231h141v231h127v-244q131-29 205-123t74-233q0-233-223-307v-6q276-65 276-336 0-160-93-274T780 4v-235H653zM352 1282V809h297q109 0 169.5 49.5T879 1004v79q0 97-60.5 148T649 1282H352zm0-614V147h326q120 0 186 56.5T930 367v84q0 106-66 161.5T678 668H352z"/><glyph glyph-name="uni2113" unicode="ℓ" d="M657-25q-159 0-245 95.5T326 326v49q-44-33-115-76l-68 111q13 8 44 27t49.5 30.5 44 29T326 530v607q0 403 303 403 140 0 214.5-88t74.5-254q0-197-106.5-372.5T487 457v-92q0-133 45.5-192.5T666 113q85 0 141 52t119 167l118-72Q992 130 897 52.5T657-25zm-26 1428q-144 0-144-252V633q277 283 277 545v34q0 191-133 191z"/><glyph glyph-name="uni2116" unicode="№" d="M985 707q-221 0-221 370 0 369 221 369t221-369q0-370-221-370zM227 0H88v1430h260l105-715 77-531h13v1246h139V0H422L317 715l-77 530h-13V0zm758 817q54 0 74 44t20 138v154q0 94-20 138t-74 44q-55 0-74.5-43.5T891 1153V999q0-95 19.5-138.5T985 817zm213-293H772v117h426V524z"/><glyph glyph-name="trademark" unicode="™" d="M315 858H209v477H33v95h459v-95H315V858zm361 0h-98v572h133l133-275h6l133 275h127V858h-98v260l2 170h-8L844 969l-162 319h-8l2-170V858z"/><glyph glyph-name="Omega" unicode="Ω" d="M111 0v139h280v21q-130 76-195 243t-65 402q0 649 483 649 248 0 366-168.5T1098 805q0-235-65-402T838 160v-21h280V0H692v213q98 35 160.5 169.5T915 678v219q0 201-71.5 305.5T614 1307q-157 0-229-105t-72-305V678q0-160 63-295t161-170V0H111z"/><glyph glyph-name="uni212E" unicode="℮" d="M297 715V223q54-67 136-110t181-43q148 0 248 72.5T1034 348l84-47Q942-25 614-25q-167 0-295.5 96.5T121.5 336 53 715t68.5 379 197 264 295.5 96 295.5-96 197.5-264 69-379H297zm0 82h635v420q-123 147-318 147-194 0-317-147V797z"/><glyph glyph-name="uni2150" unicode="⅐" d="M80 743v103h192v471l-182-92-49 90 221 115h139V846h170V743H80zm637 72l327 615h148L864 815H717zM37 0l328 614h147L184 0H37zm747 0l265 580H784V449H672v237h502V575L915 0H784z"/><glyph glyph-name="uni2151" unicode="⅑" d="M80 743v103h192v471l-182-92-49 90 221 115h139V846h170V743H80zm637 72l327 615h148L864 815H717zM37 0l328 614h147L184 0H37zm711 0q144 100 217 176.5t96 173.5l-12 2q-56-106-179-106-93 0-153 58.5T657 459q0 105 72 172t191 67q122 0 192-73t70-197q0-135-76-247.5T926 0H748zm172 340q60 0 96.5 32t36.5 87v22q0 55-36.5 87T920 600q-61 0-97.5-32T786 481v-22q0-55 36.5-87t97.5-32z"/><glyph glyph-name="uni2153" unicode="⅓" d="M80 743v103h192v471l-182-92-49 90 221 115h139V846h170V743H80zm637 72l327 615h148L864 815H717zM37 0l328 614h147L184 0H37zm870-12q-176 0-258 145l96 68q28-52 65-80.5T907 92q59 0 93 28.5t34 74.5v14q0 46-36.5 70T893 303h-72v103h72q62 0 95.5 23t33.5 60v15q0 40-31 65t-84 25q-95 0-147-84l-86 70q80 118 237 118 109 0 175.5-48.5T1153 520q0-64-40.5-105.5T1010 362v-8q70-11 112.5-53t42.5-111q0-92-71-147T907-12z"/><glyph glyph-name="uni2154" unicode="⅔" d="M59 743v119l232 185q110 88 110 184v10q0 40-28.5 67t-79.5 27q-52 0-84-28t-53-84l-109 45q25 77 89.5 125.5T303 1442q111 0 172.5-56.5T537 1243q0-78-48.5-142.5T352 967L195 846h368V743H59zm658 72l327 615h148L864 815H717zM37 0l328 614h147L184 0H37zm870-12q-176 0-258 145l96 68q28-52 65-80.5T907 92q59 0 93 28.5t34 74.5v14q0 46-36.5 70T893 303h-72v103h72q62 0 95.5 23t33.5 60v15q0 40-31 65t-84 25q-95 0-147-84l-86 70q80 118 237 118 109 0 175.5-48.5T1153 520q0-64-40.5-105.5T1010 362v-8q70-11 112.5-53t42.5-111q0-92-71-147T907-12z"/><glyph glyph-name="uni2155" unicode="⅕" d="M80 743v103h192v471l-182-92-49 90 221 115h139V846h170V743H80zm637 72l327 615h148L864 815H717zM37 0l328 614h147L184 0H37zm881-12q-172 0-246 141l92 70q31-52 65-79.5T918 92q62 0 98.5 34.5T1053 217v6q0 52-36.5 83.5T922 338q-70 0-121-55l-109 16 27 387h426V582H817l-18-240h10q26 49 60 73.5t94 24.5q97 0 159-57t62-156q0-105-71.5-172T918-12z"/><glyph glyph-name="uni2156" unicode="⅖" d="M59 743v119l232 185q110 88 110 184v10q0 40-28.5 67t-79.5 27q-52 0-84-28t-53-84l-109 45q25 77 89.5 125.5T303 1442q111 0 172.5-56.5T537 1243q0-78-48.5-142.5T352 967L195 846h368V743H59zm658 72l327 615h148L864 815H717zM37 0l328 614h147L184 0H37zm881-12q-172 0-246 141l92 70q31-52 65-79.5T918 92q62 0 98.5 34.5T1053 217v6q0 52-36.5 83.5T922 338q-70 0-121-55l-109 16 27 387h426V582H817l-18-240h10q26 49 60 73.5t94 24.5q97 0 159-57t62-156q0-105-71.5-172T918-12z"/><glyph glyph-name="uni2157" unicode="⅗" d="M293 731q-175 0-258 146l96 67q28-52 65-80t97-28q59 0 93 28t34 74v14q0 46-36.5 70.5T279 1047h-72v102h72q62 0 95.5 23.5T408 1233v14q0 40-31 65t-84 25q-96 0-148-84l-86 70q81 119 238 119 109 0 175.5-48.5T539 1264q0-64-41-105.5T395 1106v-8q70-11 113-53t43-111q0-92-71-147.5T293 731zm424 84l327 615h148L864 815H717zM37 0l328 614h147L184 0H37zm881-12q-172 0-246 141l92 70q31-52 65-79.5T918 92q62 0 98.5 34.5T1053 217v6q0 52-36.5 83.5T922 338q-70 0-121-55l-109 16 27 387h426V582H817l-18-240h10q26 49 60 73.5t94 24.5q97 0 159-57t62-156q0-105-71.5-172T918-12z"/><glyph glyph-name="uni2158" unicode="⅘" d="M362 743v131H29v121l290 435h168V973h97v-99h-97V743H362zM123 973h239v348h-6zm594-158l327 615h148L864 815H717zM37 0l328 614h147L184 0H37zm881-12q-172 0-246 141l92 70q31-52 65-79.5T918 92q62 0 98.5 34.5T1053 217v6q0 52-36.5 83.5T922 338q-70 0-121-55l-109 16 27 387h426V582H817l-18-240h10q26 49 60 73.5t94 24.5q97 0 159-57t62-156q0-105-71.5-172T918-12z"/><glyph glyph-name="uni2159" unicode="⅙" d="M80 743v103h192v471l-182-92-49 90 221 115h139V846h170V743H80zm637 72l327 615h148L864 815H717zM37 0l328 614h147L184 0H37zm887-12q-122 0-192 73t-70 197q0 135 76 247.5T918 686h178Q951 586 878 509.5T782 336l13-2q56 106 178 106 93 0 153-58.5t60-154.5q0-106-71.5-172.5T924-12zm0 98q60 0 96.5 32t36.5 87v22q0 55-36.5 87T924 346t-96.5-32-36.5-87v-22q0-55 36.5-87T924 86z"/><glyph glyph-name="uni215A" unicode="⅚" d="M303 731q-172 0-246 141l93 70q31-52 64.5-79t88.5-27q62 0 98.5 34.5T438 961v6q0 52-36.5 83t-94.5 31q-70 0-121-55l-108 16 26 388h426v-105H203l-19-240h11q26 50 59.5 74.5T348 1184q97 0 159-57t62-156q0-105-71.5-172.5T303 731zm414 84l327 615h148L864 815H717zM37 0l328 614h147L184 0H37zm887-12q-122 0-192 73t-70 197q0 135 76 247.5T918 686h178Q951 586 878 509.5T782 336l13-2q56 106 178 106 93 0 153-58.5t60-154.5q0-106-71.5-172.5T924-12zm0 98q60 0 96.5 32t36.5 87v22q0 55-36.5 87T924 346t-96.5-32-36.5-87v-22q0-55 36.5-87T924 86z"/><glyph glyph-name="uni215B" unicode="⅛" d="M80 743v103h192v471l-182-92-49 90 221 115h139V846h170V743H80zm637 72l327 615h148L864 815H717zM37 0l328 614h147L184 0H37zm885-12q-123 0-191.5 55T662 186q0 66 39.5 108T809 354v8q-60 20-95.5 59.5T678 518q0 80 65 130t179 50 178.5-50 64.5-130q0-57-35.5-96.5T1034 362v-8q148-40 148-168 0-88-68.5-143T922-12zm0 409q59 0 90.5 25.5T1044 492v14q0 44-31.5 69T922 600t-91-25-32-69v-14q0-44 32-69.5t91-25.5zm0-311q63 0 98 27t35 75v19q0 48-35 75t-98 27-98.5-27.5T788 207v-19q0-47 35.5-74.5T922 86z"/><glyph glyph-name="uni215C" unicode="⅜" d="M293 731q-175 0-258 146l96 67q28-52 65-80t97-28q59 0 93 28t34 74v14q0 46-36.5 70.5T279 1047h-72v102h72q62 0 95.5 23.5T408 1233v14q0 40-31 65t-84 25q-96 0-148-84l-86 70q81 119 238 119 109 0 175.5-48.5T539 1264q0-64-41-105.5T395 1106v-8q70-11 113-53t43-111q0-92-71-147.5T293 731zm424 84l327 615h148L864 815H717zM37 0l328 614h147L184 0H37zm885-12q-123 0-191.5 55T662 186q0 66 39.5 108T809 354v8q-60 20-95.5 59.5T678 518q0 80 65 130t179 50 178.5-50 64.5-130q0-57-35.5-96.5T1034 362v-8q148-40 148-168 0-88-68.5-143T922-12zm0 409q59 0 90.5 25.5T1044 492v14q0 44-31.5 69T922 600t-91-25-32-69v-14q0-44 32-69.5t91-25.5zm0-311q63 0 98 27t35 75v19q0 48-35 75t-98 27-98.5-27.5T788 207v-19q0-47 35.5-74.5T922 86z"/><glyph glyph-name="uni215D" unicode="⅝" d="M303 731q-172 0-246 141l93 70q31-52 64.5-79t88.5-27q62 0 98.5 34.5T438 961v6q0 52-36.5 83t-94.5 31q-70 0-121-55l-108 16 26 388h426v-105H203l-19-240h11q26 50 59.5 74.5T348 1184q97 0 159-57t62-156q0-105-71.5-172.5T303 731zm414 84l327 615h148L864 815H717zM37 0l328 614h147L184 0H37zm885-12q-123 0-191.5 55T662 186q0 66 39.5 108T809 354v8q-60 20-95.5 59.5T678 518q0 80 65 130t179 50 178.5-50 64.5-130q0-57-35.5-96.5T1034 362v-8q148-40 148-168 0-88-68.5-143T922-12zm0 409q59 0 90.5 25.5T1044 492v14q0 44-31.5 69T922 600t-91-25-32-69v-14q0-44 32-69.5t91-25.5zm0-311q63 0 98 27t35 75v19q0 48-35 75t-98 27-98.5-27.5T788 207v-19q0-47 35.5-74.5T922 86z"/><glyph glyph-name="uni215E" unicode="⅞" d="M170 743l264 580H170v-131H57v238h502v-111L301 743H170zm547 72l327 615h148L864 815H717zM37 0l328 614h147L184 0H37zm885-12q-123 0-191.5 55T662 186q0 66 39.5 108T809 354v8q-60 20-95.5 59.5T678 518q0 80 65 130t179 50 178.5-50 64.5-130q0-57-35.5-96.5T1034 362v-8q148-40 148-168 0-88-68.5-143T922-12zm0 409q59 0 90.5 25.5T1044 492v14q0 44-31.5 69T922 600t-91-25-32-69v-14q0-44 32-69.5t91-25.5zm0-311q63 0 98 27t35 75v19q0 48-35 75t-98 27-98.5-27.5T788 207v-19q0-47 35.5-74.5T922 86z"/><glyph glyph-name="uni2190" unicode="←" d="M41 715l424 424 98-99-176-176-102-86 2-6 196 12h688V645H483l-196 12-2-6 102-86 176-176-98-98z"/><glyph glyph-name="uni2191" unicode="↑" d="M614 1454l424-424-98-100-176 178-86 102-6-2 12-198V0H545v1010l12 198-6 2-86-102-176-178-99 100z"/><glyph glyph-name="uni2192" unicode="→" d="M1190 715L766 291l-98 98 176 176 102 86-2 6-196-12H59v139h689l196-12 2 6-102 86-176 176 98 99z"/><glyph glyph-name="uni2193" unicode="↓" d="M614-25L190 399l99 101 176-178 86-103 6 2-12 199v1010h139V420l-12-199 6-2 86 103 176 178 98-101z"/><glyph glyph-name="uni2194" unicode="↔" d="M0 715l424 424 100-99-178-176-102-86 2-6 198 12h340l199-12 2 6-102 86-178 176 100 99 424-424-424-424-100 98 178 176 102 86-2 6-199-12H444l-198 12-2-6 102-86 178-176-100-98z"/><glyph glyph-name="uni2195" unicode="↕" d="M614-25L190 399l99 101 176-178 86-103 6 2-12 199v590l12 198-6 2-86-102-176-178-99 100 424 424 424-424-98-100-176 178-86 102-6-2 12-198V420l-12-199 6-2 86 103 176 178 98-101z"/><glyph glyph-name="uni2196" unicode="↖" d="M121 1257h600v-139H471l-133 12-2-6 147-131 688-688-98-98-688 688-131 147-6-2 12-133V657H121v600z"/><glyph glyph-name="uni2197" unicode="↗" d="M1108 1257V657H969v250l12 133-6 2-131-147-688-688-99 98 688 688 148 131-2 6-133-12H508v139h600z"/><glyph glyph-name="uni2198" unicode="↘" d="M1108 207H508v139h250l133-12 2 6-148 131-688 688 99 98 688-688 131-147 6 2-12 133v250h139V207z"/><glyph glyph-name="uni2199" unicode="↙" d="M121 207v600h139V557l-12-133 6-2 131 147 688 688 98-98-688-688-147-131 2-6 133 12h250V207H121z"/><glyph glyph-name="uni21A9" unicode="↩" d="M41 582l424 424 100-99-178-176-102-86 2-6 198 12h281q115 0 192.5 61t77.5 181-77.5 181-192.5 61v139q86 0 161.5-24.5t134-70.5 92.5-120 34-166-34-166-92.5-120-134-70.5T766 512H485l-198 12-2-6 102-86 178-176-100-98z"/><glyph glyph-name="uni21AA" unicode="↪" d="M1188 582L764 158l-100 98 178 176 102 86-2 6-199-12H463q-86 0-161.5 24.5t-134 70.5T75 727 41 893t34 166 92.5 120 134 70.5T463 1274v-139q-115 0-192.5-61T193 893t77.5-181T463 651h280l199-12 2 6-102 86-178 176 100 99z"/><glyph glyph-name="uni21B0" unicode="↰" d="M84 1006l424 424 98-99-176-176-102-86 2-6 196 12h535V0H922v936H526l-196 12-2-6 102-86 176-176-98-98z"/><glyph glyph-name="uni21B1" unicode="↱" d="M1145 1006L721 582l-98 98 176 176 102 86-2 6-197-12H307V0H168v1075h534l197-12 2 6-102 86-176 176 98 99z"/><glyph glyph-name="uni21B2" unicode="↲" d="M84 424l424 424 98-98-176-177-102-86 2-6 196 13h396v936h139V354H526l-196 13-2-7 102-86L606 98 508 0z"/><glyph glyph-name="uni21B3" unicode="↳" d="M1145 424L721 0l-98 98 176 176 102 86-2 7-197-13H168v1076h139V494h395l197-13 2 6-102 86-176 177 98 98z"/><glyph glyph-name="uni21B6" unicode="↶" d="M432 84L8 508l98 100 177-178 86-102 6 2-13 198v334q0 129 47.5 236T555 1272t229 67q185 0 301.5-120T1202 905v-22h-139v22q0 132-79.5 215.5T784 1204q-73 0-129-29t-88.5-78.5-48.5-109T502 860V528l-13-198 7-2 86 102 176 178 98-100z"/><glyph glyph-name="uni21B7" unicode="↷" d="M799 84L375 508l98 100 176-178 86-102 6 2-12 198v332q0 68-16 127.5t-49 109-89 78.5-129 29q-120 0-199-83.5T168 905v-22H29v22q0 194 116 314t301 120q131 0 229-67t145.5-174T868 862V528l-12-198 6-2 86 102 176 178 99-100z"/><glyph glyph-name="uni21BA" unicode="↺" d="M565 1430h590v-140H920l-125 10-2-6 81-67q64-53 110.5-103t94-124 72.5-171 25-213q0-187-69-332.5t-196.5-227T616-25q-248 0-405.5 173T53 606q0 193 92 354t246 254l78-100Q193 938 193 606q0-230 117-367t306-137q190 0 305 145t115 369q0 172-63 287.5T788 1122l-88 74-6-2 11-117V840H565v590z"/><glyph glyph-name="uni21BB" unicode="↻" d="M664 1430V840H524v237l11 117-7 2-88-74q-122-103-184.5-218.5T193 616q0-224 114.5-369T612 102q189 0 306.5 137T1036 606q0 332-276 508l78 100q154-93 246-254t92-354q0-285-158-458T612-25q-167 0-294.5 81.5t-196 227T53 616q0 116 25 213t72 171 93.5 124T354 1227l82 67-2 6-125-10H74v140h590z"/><glyph glyph-name="uni21C4" unicode="⇄" d="M1186 1030L762 606l-98 99 176 176 102 86-2 6-197-12H55v139h688l197-13 2 7-102 86-176 176 98 98zM41 399l424 424 98-98-176-176-102-86 2-6 196 12h688V330H483l-196 12-2-6 102-86L563 74l-98-99z"/><glyph glyph-name="uni21C6" unicode="⇆" d="M41 1030l424 424 98-98-176-176-102-86 2-7 196 13h688V961H483l-196 12-2-6 102-86 176-176-98-99zm1149-631L766-25l-98 99 176 176 102 86-2 6-196-12H59v139h689l196-12 2 6-102 86-176 176 98 98z"/><glyph glyph-name="partialdiff" unicode="∂" d="M1094 557q0-291-124-436.5T623-25q-228 0-358 143T135 504q0 240 122 384t314 144q214 0 340-196l9 4q-123 350-629 590h268q56-34 97-61t100.5-75 102.5-95 90-116.5 76.5-144 49-173.5 19.5-208zM614 117q141 0 223.5 80T920 432v143q0 155-82.5 235.5T614 891t-223-80.5T309 575V432q0-155 82-235t223-80z"/><glyph glyph-name="Delta" unicode="∆" d="M94 0v154l408 1276h227l406-1276V0H94zm862 150L623 1249h-19L268 150h688z"/><glyph glyph-name="product" unicode="∏" d="M160 0v1430h909V0H897v1280H332V0H160z"/><glyph glyph-name="summation" unicode="∑" d="M1087-260v-150H129v154l547 762v8l-547 762v154h958v-150H313l514-715V455L313-260h774z"/><glyph glyph-name="minus" unicode="−" d="M1102 555H127v139h975V555z"/><glyph glyph-name="radical" unicode="√" d="M752 0H518L258 926H49v131h334l92-338 158-582h10l166 582 203 711h159z"/><glyph glyph-name="infinity" unicode="∞" d="M322 258q-142 0-220.5 96.5T23 625q0 173 83.5 269.5T338 991q225 0 309-272h8q26 132 93 202t157 70q142 0 221.5-96.5T1206 625t-83.5-270T891 258q-225 0-309 272h-9q-26-132-93.5-202T322 258zm18 127q68 0 123 65t88 179q-33 110-88 172.5T340 864q-75 0-118.5-48T178 680V569q0-88 43.5-136T340 385zm549 0q75 0 118.5 48t43.5 136v111q0 88-43.5 136T889 864q-68 0-123-64.5T678 621q33-110 88-173t123-63z"/><glyph glyph-name="integral" unicode="∫" d="M72-410v140h434v1544q0 111 58.5 176.5T739 1516h365v-142H670V-168q0-110-59-176t-175-66H72z"/><glyph glyph-name="approxequal" unicode="≈" d="M836 690q-96 0-232 66-5 3-30 15t-33 15.5-29 13-32 13-28.5 9-32 7.5-28.5 2q-56 0-93.5-36.5T231 690l-125 51q29 102 103.5 165T393 969q96 0 232-66 6-3 35-17t38.5-18.5 33.5-15 37.5-14 33-7.5 35.5-4q56 0 93 36.5T997 969l125-51q-29-102-103-165t-183-63zm0-407q-98 0-232 65-6 3-35 17t-38.5 18.5-33.5 15-37.5 14-33 7.5-35.5 4q-56 0-93.5-36.5T231 283l-125 51q29 102 103.5 164.5T393 561q98 0 232-65 6-3 35-17t38.5-18.5 33.5-15 37.5-14 33-7.5 35.5-4q56 0 93 36.5T997 561l125-51q-29-102-103-164.5T836 283z"/><glyph glyph-name="notequal" unicode="≠" d="M428 147H281l112 205H127v140h342l145 270H127v139h563l111 205h147L836 901h266V762H760L614 492h488V352H539z"/><glyph glyph-name="lessequal" unicode="≤" d="M1055 0H174v139h881V0zm0 1214v-163L328 739v-14l727-309V248L174 639v182z"/><glyph glyph-name="greaterequal" unicode="≥" d="M174 248v164l727 311v14l-727 310v167l881-391V641zm0-248v139h881V0H174z"/><glyph glyph-name="lozenge" unicode="◊" d="M698 0H532L86 715l446 715h166l447-715zm-90 154h15l350 561-350 561h-15L258 715z"/><glyph glyph-name="uni2713" unicode="✓" d="M467 0L94 991l156 45 151-411 154-443h10l170 443 336 833 146-51L643 0H467z"/><glyph glyph-name="uni274C" unicode="❌" d="M231 31l-129 82 418 606-418 598 129 82 385-555 381 555 129-82-417-606 417-598-129-82-385 555z"/><glyph glyph-name="uni2B0E" unicode="⬎" d="M745 207L322 631l98 100 176-178 86-102 6 2-12 198v434H53v140h762V651l-12-198 6-2 86 102 176 178 98-100z"/><glyph glyph-name="uni2B0F" unicode="⬏" d="M745 1286l424-424-98-100-176 178-86 102-6-2 12-198V268H53v140h623v434l12 198-6 2-86-102-176-178-98 100z"/><glyph glyph-name="uni2B10" unicode="⬐" d="M483 207L59 631l99 100 176-178 86-102 6 2-12 198v574h762v-140H553V651l-12-198 6-2 86 102 176 178 98-100z"/><glyph glyph-name="uni2B11" unicode="⬑" d="M483 1286l424-424-98-100-176 178-86 102-6-2 12-198V408h623V268H414v574l12 198-6 2-86-102-176-178-99 100z"/><glyph glyph-name="dieresisacute" unicode="" horiz-adv-x="0" d="M242 1784L25 1458l-101 47 174 348zm-445-561q-60 0-88 25.5t-28 68.5v29q0 43 28 68.5t88 25.5 88.5-25.5T-86 1346v-29q0-43-28.5-68.5T-203 1223zm406 0q-60 0-88.5 25.5T86 1317v29q0 43 28.5 68.5T203 1440t88-25.5 28-68.5v-29q0-43-28-68.5t-88-25.5z"/><glyph glyph-name="dieresisgrave" unicode="" horiz-adv-x="0" d="M-25 1458l-217 326 144 69 174-348zm-178-235q-60 0-88 25.5t-28 68.5v29q0 43 28 68.5t88 25.5 88.5-25.5T-86 1346v-29q0-43-28.5-68.5T-203 1223zm406 0q-60 0-88.5 25.5T86 1317v29q0 43 28.5 68.5T203 1440t88-25.5 28-68.5v-29q0-43-28-68.5t-88-25.5z"/><glyph glyph-name="fi" unicode="ﬁ" d="M221 0v918H78v139h143v217q0 110 59 176t175 66h231v-140H385v-319h643V0H864v918H385V0H221zm725 1290q-67 0-98 28.5t-31 76.5v32q0 48 31 76.5t98 28.5 98-28.5 31-76.5v-32q0-48-31-76.5t-98-28.5z"/><glyph glyph-name="fl" unicode="ﬂ" d="M221 0v918H78v139h143v217q0 110 59 176t175 66h252v-140H385v-319h322V918H385V0H221zm643 0v1516h164V0H864z"/><glyph glyph-name="a.alt01" d="M870 0v172h-8Q758-25 537-25q-194 0-304 147T123 528t110 406 304 147q222 0 325-196h8v172h164V0H870zM600 121q114 0 192 57.5T870 338v381q0 102-78 159.5T600 936q-141 0-221-87t-80-231V438q0-144 80-230.5T600 121z"/><glyph glyph-name="g.alt01" d="M1034 1057V35q0-219-122.5-344T569-434q-237 0-379 145l97 113q112-115 284-115 299 0 299 316v176h-8Q758 4 537 4 344 4 233.5 148.5T123 543t110.5 394T537 1081q222 0 325-196h8v172h164zM600 150q114 0 192 57.5T870 367v352q0 102-78 159.5T600 936q-141 0-221-87t-80-231V467q0-144 80-230.5T600 150z"/><glyph glyph-name="g.alt02" d="M616-434q-249 0-364 66.5T137-172q0 157 172 203v24q-94 46-94 146 0 76 50 119t141 65v8q-98 43-152.5 127.5T199 717q0 162 112 263t297 101q90 0 160-24h371V926H946q74-80 74-209 0-162-113.5-263.5T608 352q-56 0-100 8-36-7-68-20t-58-39.5-26-60.5q0-44 43.5-61T526 162h234q198 0 293.5-74.5T1149-121q0-313-533-313zm-8 913q119 0 179.5 56T848 688v60q0 97-60 151.5T608 954q-118 0-177.5-54.5T371 748v-60q0-97 59.5-153T608 479zm387-608q0 139-229 139H399Q293-34 293-133q0-75 58.5-122.5T532-303h160q144 0 223.5 44.5T995-129z"/><glyph glyph-name="zero.alt01" d="M614-25q-499 0-499 740 0 739 499 739 500 0 500-739 0-740-500-740zm0 1330q-166 0-243.5-124.5T293 831V598q0-78 8-133l592 647q-74 193-279 193zm0-1180q166 0 244 124t78 349v233q0 79-8 134L336 317q73-192 278-192z"/><glyph glyph-name="zero.alt02" d="M614-25q-499 0-499 740 0 739 499 739 500 0 500-739 0-740-500-740zm0 150q318 0 318 473v233q0 225-77 349.5T614 1305q-317 0-317-474V598q0-473 317-473z"/><glyph glyph-name="aacute.alt01" d="M870 0v172h-8Q758-25 537-25q-194 0-304 147T123 528t110 406 304 147q222 0 325-196h8v172h164V0H870zM600 121q114 0 192 57.5T870 338v381q0 102-78 159.5T600 936q-141 0-221-87t-80-231V438q0-144 80-230.5T600 121zm219 1403l-217-326-106 49 174 348z"/><glyph glyph-name="abreve.alt01" d="M870 0v172h-8Q758-25 537-25q-194 0-304 147T123 528t110 406 304 147q222 0 325-196h8v172h164V0H870zM600 121q114 0 192 57.5T870 338v381q0 102-78 159.5T600 936q-141 0-221-87t-80-231V438q0-144 80-230.5T600 121zm-12 1098q-63 0-115 21t-84.5 50.5T328 1366t-42 81-28 81l104 45 44-70q25-40 35.5-56t29.5-40 33-32.5 35.5-15.5 48.5-7 48.5 7 35.5 15.5 33 32.5 29.5 40 35.5 56l43 70 105-45q-14-46-28-81t-42-81-60.5-75.5T703 1240t-115-21z"/><glyph glyph-name="acircumflex.alt01" d="M870 0v172h-8Q758-25 537-25q-194 0-304 147T123 528t110 406 304 147q222 0 325-196h8v172h164V0H870zM600 121q114 0 192 57.5T870 338v381q0 102-78 159.5T600 936q-141 0-221-87t-80-231V438q0-144 80-230.5T600 121zM485 1567h205l228-293-93-64-239 240-240-240-88 64z"/><glyph glyph-name="adieresis.alt01" d="M870 0v172h-8Q758-25 537-25q-194 0-304 147T123 528t110 406 304 147q222 0 325-196h8v172h164V0H870zM600 121q114 0 192 57.5T870 338v381q0 102-78 159.5T600 936q-141 0-221-87t-80-231V438q0-144 80-230.5T600 121zM397 1266q-60 0-88 25.5t-28 68.5v29q0 43 28 68.5t88 25.5 88.5-25.5T514 1389v-29q0-43-28.5-68.5T397 1266zm381 0q-60 0-88 25.5t-28 68.5v29q0 43 28 68.5t88 25.5 88.5-25.5T895 1389v-29q0-43-28.5-68.5T778 1266z"/><glyph glyph-name="uni1EA1.alt01" d="M870 0v172h-8Q758-25 537-25q-194 0-304 147T123 528t110 406 304 147q222 0 325-196h8v172h164V0H870zM600 121q114 0 192 57.5T870 338v381q0 102-78 159.5T600 936q-141 0-221-87t-80-231V438q0-144 80-230.5T600 121zm-12-473q-60 0-88.5 25.5T471-258v29q0 43 28.5 68.5T588-135t88.5-25.5T705-229v-29q0-43-28.5-68.5T588-352z"/><glyph glyph-name="agrave.alt01" d="M870 0v172h-8Q758-25 537-25q-194 0-304 147T123 528t110 406 304 147q222 0 325-196h8v172h164V0H870zM600 121q114 0 192 57.5T870 338v381q0 102-78 159.5T600 936q-141 0-221-87t-80-231V438q0-144 80-230.5T600 121zm-27 1077l-217 326 150 71 174-348z"/><glyph glyph-name="uni1EA3.alt01" d="M870 0v172h-8Q758-25 537-25q-194 0-304 147T123 528t110 406 304 147q222 0 325-196h8v172h164V0H870zM600 121q114 0 192 57.5T870 338v381q0 102-78 159.5T600 936q-141 0-221-87t-80-231V438q0-144 80-230.5T600 121zM416 1442v125h223q73 0 108-31.5t35-81.5q0-84-100-211l-49-61-94 47 118 213H416z"/><glyph glyph-name="amacron.alt01" d="M870 0v172h-8Q758-25 537-25q-194 0-304 147T123 528t110 406 304 147q222 0 325-196h8v172h164V0H870zM600 121q114 0 192 57.5T870 338v381q0 102-78 159.5T600 936q-141 0-221-87t-80-231V438q0-144 80-230.5T600 121zM301 1305v139h573v-139H301z"/><glyph glyph-name="aogonek.alt01" d="M887-424q-98 0-160.5 42.5T664-260q0 141 235 254l-2 6h-27v172h-8Q758-25 537-25q-194 0-304 147T123 528t110 406 304 147q222 0 325-196h8v172h164V0q-98-62-152.5-110.5t-66.5-73-12-49.5q0-40 24.5-58t61.5-18q63 0 106 53l82-84q-22-37-70-60.5T887-424zM600 121q114 0 192 57.5T870 338v381q0 102-78 159.5T600 936q-141 0-221-87t-80-231V438q0-144 80-230.5T600 121z"/><glyph glyph-name="aring.alt01" d="M870 0v172h-8Q758-25 537-25q-194 0-304 147T123 528t110 406 304 147q222 0 325-196h8v172h164V0H870zM600 121q114 0 192 57.5T870 338v381q0 102-78 159.5T600 936q-141 0-221-87t-80-231V438q0-144 80-230.5T600 121zm-12 1059q-100 0-169 67t-69 168 69 168.5 169 67.5 168.5-67.5T825 1415t-68.5-168-168.5-67zm0 100q56 0 87.5 29.5T707 1393v45q0 54-31.5 83t-87.5 29-87.5-29-31.5-83v-45q0-54 31.5-83.5T588 1280z"/><glyph glyph-name="aringacute.alt01" d="M870 0v172h-8Q758-25 537-25q-194 0-304 147T123 528t110 406 304 147q222 0 325-196h8v172h164V0H870zM600 121q114 0 192 57.5T870 338v381q0 102-78 159.5T600 936q-141 0-221-87t-80-231V438q0-144 80-230.5T600 121zm203 1761l-193-215-84 53 154 238zm-215-723q-100 0-169 67.5T350 1395t69 168 169 67 168.5-67 68.5-168-68.5-168.5T588 1159zm0 101q56 0 87.5 29t31.5 83v45q0 54-31.5 83.5T588 1530t-87.5-29.5T469 1417v-45q0-54 31.5-83t87.5-29z"/><glyph glyph-name="atilde.alt01" d="M870 0v172h-8Q758-25 537-25q-194 0-304 147T123 528t110 406 304 147q222 0 325-196h8v172h164V0H870zM600 121q114 0 192 57.5T870 338v381q0 102-78 159.5T600 936q-141 0-221-87t-80-231V438q0-144 80-230.5T600 121zm137 1132q-15 0-29 1.5t-28.5 5.5-23 6.5-24 10-20 9.5-21.5 11-18 10q-92 49-143 49-53 0-119-56l-67 82q73 109 194 109 12 0 23-1t22-3.5 19.5-4 19.5-6 17-6.5 17.5-8 15.5-8 16-8.5 14-7.5q92-49 143-49 55 0 119 55l68-82q-73-109-195-109z"/><glyph glyph-name="uni1EAF.alt01" d="M870 0v172h-8Q758-25 537-25q-194 0-304 147T123 528t110 406 304 147q222 0 325-196h8v172h164V0H870zM600 121q114 0 192 57.5T870 338v381q0 102-78 159.5T600 936q-141 0-221-87t-80-231V438q0-144 80-230.5T600 121zm-14 1077q-63 0-115.5 18.5t-87 46T321 1331t-43.5 75.5T248 1483l96 47 43-66q51-76 93-105.5t108-29.5q65 0 107 29.5t93 105.5l43 66 97-47q-92-285-342-285zm233 578l-217-326-100 47 174 348z"/><glyph glyph-name="uni1EB7.alt01" d="M870 0v172h-8Q758-25 537-25q-194 0-304 147T123 528t110 406 304 147q222 0 325-196h8v172h164V0H870zM600 121q114 0 192 57.5T870 338v381q0 102-78 159.5T600 936q-141 0-221-87t-80-231V438q0-144 80-230.5T600 121zm-12 1098q-63 0-115 21t-84.5 50.5T328 1366t-42 81-28 81l104 45 44-70q25-40 35.5-56t29.5-40 33-32.5 35.5-15.5 48.5-7 48.5 7 35.5 15.5 33 32.5 29.5 40 35.5 56l43 70 105-45q-14-46-28-81t-42-81-60.5-75.5T703 1240t-115-21zm0-1571q-60 0-88.5 25.5T471-258v29q0 43 28.5 68.5T588-135t88.5-25.5T705-229v-29q0-43-28.5-68.5T588-352z"/></font>
</defs>
</svg>
