<?xml version="1.0" standalone="no"?>
<!DOCTYPE svg PUBLIC "-//W3C//DTD SVG 1.1//EN" "http://www.w3.org/Graphics/SVG/1.1/DTD/svg11.dtd" >
<svg xmlns="http://www.w3.org/2000/svg" xmlns:xlink="http://www.w3.org/1999/xlink" version="1.1">
<metadata>
Created by FontForge 20170731 at Sat Mar  7 19:40:32 2015
 By Aleksey,,,
SIL Open Font License (OFL)
</metadata>
<defs>
<font id="Bagnard" horiz-adv-x="833" >
  <font-face 
    font-family="Bagnard"
    font-weight="400"
    font-stretch="normal"
    units-per-em="1000"
    panose-1="2 0 0 0 0 0 0 0 0 0"
    ascent="750"
    descent="-250"
    x-height="479"
    cap-height="718"
    bbox="-49 -271 1134 969"
    underline-thickness="50"
    underline-position="-200"
    unicode-range="U+0020-20AC"
  />
<missing-glyph horiz-adv-x="300" 
 />
    <glyph glyph-name=".notdef" horiz-adv-x="300" 
 />
    <glyph glyph-name=".null" horiz-adv-x="0" 
 />
    <glyph glyph-name="nonmarkingreturn" horiz-adv-x="333" 
 />
    <glyph glyph-name="space" unicode=" " horiz-adv-x="300" 
 />
    <glyph glyph-name="exclam" unicode="!" horiz-adv-x="293" 
d="M65 658q0 34 23.5 58t57.5 24t58 -24t24 -58q0 -7 -2 -19l-65 -420h-29l-65 420q-2 6 -2 19zM69 67q0 32 22.5 55t54.5 23t55 -23t23 -55t-23 -54.5t-55 -22.5t-54.5 22.5t-22.5 54.5z" />
    <glyph glyph-name="dollar" unicode="$" horiz-adv-x="640" 
d="M286 -64v61q-71 8 -125 47l-79 -55l3 339q49 -124 96.5 -192t104.5 -82v249q-30 12 -43 18q-163 78 -163 207q0 91 57 141.5t149 60.5v53h54v-51q66 -4 132 -47l79 56l-2 -341q-66 153 -105 209.5t-104 66.5v-240l54 -22q36 -18 60 -34t51 -42t41 -62.5t14 -82.5
q0 -83 -59 -139t-161 -60v-58h-54zM439 160q0 68 -99 119v-228q45 6 72 33t27 76zM196 572q0 -41 21.5 -65t68.5 -47v217q-38 -8 -64 -38t-26 -67z" />
    <glyph glyph-name="ampersand" unicode="&#x26;" horiz-adv-x="804" 
d="M540 0l54 48l-85 72q-43 -59 -98 -95t-137 -36q-109 0 -169 50.5t-60 132.5q0 71 48.5 124.5t124.5 80.5l-14 13q-92 83 -92 172q0 70 59.5 124t143.5 54t134.5 -43.5t50.5 -115.5q0 -50 -36.5 -95t-100.5 -78l176 -159l86 150l-71 80h116l-1 -3l2 3h113l-92 -65
l-121 -194q117 -106 162 -149l87 -71h-280zM322 51q82 0 152 99q-65 56 -227 201q-66 -61 -66 -159q0 -60 38 -100.5t103 -40.5zM284 481q18 -17 46 -43q73 68 73 136q0 56 -24.5 88t-62.5 32t-63 -26.5t-25 -67.5q0 -66 56 -119z" />
    <glyph glyph-name="parenleft" unicode="(" horiz-adv-x="387" 
d="M325 822l32 -36q-79 -89 -117.5 -214.5t-38.5 -252.5t38.5 -252.5t117.5 -214.5l-32 -36q-109 96 -177 231.5t-68 271.5q0 137 71 276.5t174 226.5z" />
    <glyph glyph-name="parenright" unicode=")" horiz-adv-x="387" 
d="M30 786l32 36q103 -87 174 -226.5t71 -276.5q0 -136 -68 -271.5t-177 -231.5l-32 36q79 89 117.5 214.5t38.5 252.5t-38.5 252.5t-117.5 214.5z" />
    <glyph glyph-name="comma" unicode="," horiz-adv-x="301" 
d="M146 -29q0 17 -9 26t-18 10l-5 3q-6 3 -9 5t-9 6.5t-10 10t-8 13t-6 17t-2 20.5q0 33 24 56.5t61 23.5q35 0 62 -30.5t27 -79.5q0 -41 -15.5 -79.5t-39.5 -65.5t-41 -42t-31 -24q-10 -5 -17 -4.5t-9 3.5q-5 9 3 18q1 2 8 11t10 13.5t9.5 14t9.5 17t7 17t6 20t2 20.5z" />
    <glyph glyph-name="hyphen" unicode="-" horiz-adv-x="385" 
d="M60 220v68h265v-68h-265z" />
    <glyph glyph-name="period" unicode="." horiz-adv-x="301" 
d="M65 75q0 36 25 61t60 25q36 0 61 -25t25 -61q0 -35 -25 -60t-61 -25q-35 0 -60 25t-25 60z" />
    <glyph glyph-name="slash" unicode="/" horiz-adv-x="364" 
d="M-13 12l317 740l68 -24l-317 -740z" />
    <glyph glyph-name="zero" unicode="0" horiz-adv-x="645" 
d="M322 -9q-74 0 -131 30.5t-90 83.5t-49.5 117t-16.5 138t16.5 138t49.5 117t90 83.5t131 30.5q75 0 132 -30.5t90 -83.5t49.5 -117t16.5 -138t-16.5 -138t-49.5 -117t-90 -83.5t-132 -30.5zM322 669q-45 0 -75.5 -24.5t-45.5 -71t-20.5 -96.5t-5.5 -117t5.5 -117
t20.5 -96.5t45.5 -71t75.5 -24.5q46 0 76.5 24.5t45.5 71t20.5 96t5.5 117.5q0 67 -5.5 117t-20.5 96.5t-46 71t-76 24.5z" />
    <glyph glyph-name="one" unicode="1" horiz-adv-x="454" 
d="M29 0l153 84v491l-162 -13l246 161l36 27l-1 -671l128 -79h-400z" />
    <glyph glyph-name="two" unicode="2" horiz-adv-x="521" 
d="M-22 0l92 100q129 138 165 185q76 101 81 200q0 73 -39 111.5t-89 38.5q-60 0 -105 -38t-57 -104q-10 112 49 176t163 64q90 0 151 -58.5t61 -145.5q0 -39 -13 -77.5t-32.5 -69.5t-53.5 -69t-63 -65.5t-75.5 -72t-76.5 -75.5h236l116 122l-31 -122h1l-10 -35l-6 -26h-1
l-8 -30h1l-11 -45l-33 36h-412z" />
    <glyph glyph-name="three" unicode="3" horiz-adv-x="564" 
d="M22 168q0 28 20.5 48.5t48.5 20.5t48.5 -20.5t20.5 -48.5q0 -27 -18.5 -47t-44.5 -22q32 -51 113 -51q71 0 122.5 42.5t51.5 115.5q0 39 -8 69.5t-27.5 58t-57.5 42.5t-93 15h-31v44h53h38q38 18 64.5 50t26.5 73q0 53 -33 82.5t-79 29.5q-110 0 -173 -120
q-5 85 53 136.5t158 51.5q87 0 143.5 -42.5t56.5 -114.5q0 -52 -35.5 -90.5t-87.5 -58.5q76 -14 124 -72t48 -128q0 -107 -80.5 -174.5t-202.5 -67.5t-185 89q-29 42 -32 72q-2 6 -2 17z" />
    <glyph glyph-name="four" unicode="4" horiz-adv-x="590" 
d="M17 222l15 19l16 20l320 406l92 120l-1 -526h100v-72h-100v-115l106 -74h-380l155 86v103h-323v33zM111 261h229v285z" />
    <glyph glyph-name="five" unicode="5" horiz-adv-x="536" 
d="M83 478l30 240h10v1h292l81 82l-13 -82l-17 -110h-317l-15 -118q36 5 83 5q120 -4 196.5 -62.5t80.5 -172.5q4 -123 -71.5 -197t-192.5 -74q-75 0 -124.5 37.5t-68.5 88.5q-11 17 -11 36q-1 28 18.5 48.5t47.5 20.5q27 0 47.5 -20.5t21.5 -48.5q1 -25 -14 -44t-39 -24
q37 -36 101 -36q80 0 127.5 48.5t44.5 125.5q-3 79 -59 118.5t-131 40.5q-88 0 -124 -27z" />
    <glyph glyph-name="six" unicode="6" horiz-adv-x="561" 
d="M311 447q103 0 161.5 -54.5t58.5 -149.5q0 -113 -72 -182.5t-177 -69.5q-70 0 -120.5 24t-77 66.5t-38 91t-11.5 107.5q0 83 45.5 169.5t96.5 141.5q55 60 137 105.5t145 37.5q-53 -25 -117 -86.5t-98 -115.5q-39 -61 -56 -129q55 44 123 44zM172 264q0 -31 1 -52
t4.5 -50t11.5 -48t20.5 -37t33.5 -27t49 -9q49 0 75.5 43t26.5 123q0 82 -30.5 132t-86.5 50q-81 0 -104 -81q-1 -14 -1 -44z" />
    <glyph glyph-name="seven" unicode="7" horiz-adv-x="456" 
d="M487 733l-64 -110h-2l1 -2l-232 -621h-154l326 623h-294l-68 -113q5 82 10 136l-1 87h478z" />
    <glyph glyph-name="eight" unicode="8" horiz-adv-x="557" 
d="M42 172q0 63 35.5 112t95.5 79q-54 34 -84 78t-30 111q0 71 63.5 129.5t151.5 58.5q96 0 154.5 -48t58.5 -121q0 -95 -127 -159q76 -45 118 -94.5t42 -125.5q0 -88 -72 -145.5t-167 -57.5q-110 0 -174.5 51t-64.5 132zM392 166q0 19 -4.5 36t-16.5 31.5t-20.5 24.5
t-30 23.5t-31.5 19t-38 20t-36 18.5q-67 -62 -67 -157q0 -61 33.5 -101t97.5 -40q47 0 80 34t33 91zM175 600q0 -52 36 -87.5t107 -76.5q72 64 72 128q0 50 -30 90t-85 40q-43 0 -71.5 -27t-28.5 -67z" />
    <glyph glyph-name="nine" unicode="9" horiz-adv-x="561" 
d="M250 273q-103 0 -161.5 54.5t-58.5 149.5q0 113 72 182.5t177 69.5q70 0 120.5 -24t77 -66.5t38 -91t11.5 -107.5q0 -83 -45.5 -169.5t-96.5 -141.5q-40 -43 -105 -84t-120 -55q-31 -8 -39 5t24 31q41 22 70 42t64 54.5t60 84t38 112.5q-54 -46 -126 -46zM389 456
q0 31 -1 52t-4.5 50t-11.5 48t-20.5 37t-33.5 27t-49 9q-49 0 -75.5 -43t-26.5 -123q0 -82 30.5 -132t86.5 -50q81 0 104 82q0 7 0.5 21t0.5 22z" />
    <glyph glyph-name="colon" unicode=":" horiz-adv-x="311" 
d="M70 76q0 35 25 60.5t60 25.5q36 0 61 -25.5t25 -60.5q0 -36 -25 -61t-61 -25q-35 0 -60 25t-25 61zM70 402q0 36 25 61.5t60 25.5q36 0 61 -25.5t25 -61.5q0 -35 -25 -60t-61 -25q-35 0 -60 25t-25 60z" />
    <glyph glyph-name="semicolon" unicode=";" horiz-adv-x="311" 
d="M70 403q0 36 25 61t60 25q36 0 61 -25t25 -61q0 -35 -25 -60t-61 -25q-35 0 -60 25t-25 60zM146 -29q0 17 -9 26t-18 10l-5 3q-6 3 -9 5t-9 6.5t-10 10t-8 13t-6 17t-2 20.5q0 33 24 56.5t61 23.5q35 0 62 -30.5t27 -79.5q0 -41 -15.5 -79.5t-39.5 -65.5t-41 -42t-31 -24
q-10 -5 -17 -4.5t-9 3.5q-5 9 3 18q1 2 8 11t10 13.5t9.5 14t9.5 17t7 17t6 20t2 20.5z" />
    <glyph glyph-name="question" unicode="?" horiz-adv-x="510" 
d="M41 600q0 47 60.5 94t136.5 47h17q49 0 95.5 -17t82 -60.5t35.5 -106.5q0 -72 -56 -129.5t-159 -68.5l-32 -140h-24l-23 214q88 1 127 41.5t39 96.5q-1 60 -40 93t-97 33q-56 0 -76 -27q26 0 47.5 -22t21.5 -53q0 -32 -23 -54.5t-55 -22.5q-34 0 -55.5 22t-21.5 60z
M132 67q0 32 22.5 55t54.5 23t55 -23t23 -55t-23 -54.5t-55 -22.5t-54.5 22.5t-22.5 54.5z" />
    <glyph glyph-name="at" unicode="@" horiz-adv-x="819" 
d="M359 137q-63 0 -101 52t-19 152q16 88 81.5 150t151.5 62q48 0 72 -36l68 22l-55 -260h1q-1 -1 -1 -3l-5 -22h-1q0 -2 -0.5 -6t-0.5 -6q-10 -62 29 -62q41 0 76 55t35 169q0 113 -63.5 184t-150.5 72q-37 0 -77.5 -9t-88 -34.5t-84.5 -65.5t-62 -108t-25 -155
q0 -63 28.5 -122t90.5 -100.5t144 -41.5q42 0 102.5 14.5t92.5 31.5l12 -28q-107 -59 -266 -59q-143 0 -225.5 86t-82.5 202q0 98 39.5 181t104 136t143.5 82.5t161 29.5q54 0 104.5 -15.5t96 -47.5t73 -89.5t27.5 -132.5q0 -66 -18 -118t-44 -81.5t-60.5 -48.5t-63 -25.5
t-54.5 -6.5q-31 0 -53 15t-29 40q-36 -53 -103 -53zM414 198q28 0 45 13v2q0 42 10 82l35 159q-5 27 -16 41t-24 14q-44 0 -77.5 -49t-45.5 -114q-11 -76 13 -112t60 -36z" />
    <glyph glyph-name="A" unicode="A" horiz-adv-x="748" 
d="M-16 0l84 81l271 646h53l262 -663l74 -64h-333l97 75l-50 134h-248l-58 -143l86 -66h-238zM323 527l-106 -261h204z" />
    <glyph glyph-name="B" unicode="B" horiz-adv-x="726" 
d="M25 0l104 80v557l-104 81h182q116 1 222 1q95 0 151 -47.5t56 -120.5q0 -62 -36 -106.5t-127 -72.5q91 -7 147 -53.5t56 -132.5q0 -78 -61.5 -132t-176.5 -54h-413zM321 342h-52v-291h94q70 2 117 37t47 103q0 73 -54 112t-152 39zM281 667h-12v-274q40 0 65 1.5t57.5 9
t51 21t31.5 39t13 62.5q0 42 -15.5 75t-44.5 47q-17 9 -43 13.5t-43 5t-60 0.5z" />
    <glyph glyph-name="C" unicode="C" horiz-adv-x="749" 
d="M679 295v-325l-105 82q-74 -70 -184 -70q-153 0 -246.5 100.5t-93.5 254.5q0 187 99 292t266 105q89 0 164 -69l100 78v-325q-11 16 -31.5 49t-30 48t-28 40.5t-30 37.5t-30.5 29t-35.5 24.5t-38 13t-45.5 5.5q-90 0 -146.5 -83.5t-56.5 -213.5q0 -89 21 -159.5
t68 -115.5t116 -45q40 0 76 17t65 49.5t49 60t44 67.5t33 53z" />
    <glyph glyph-name="D" unicode="D" horiz-adv-x="806" 
d="M25 0l104 80v557l-104 81h341q77 0 145 -21t124 -63t88.5 -113.5t32.5 -163.5q0 -157 -102.5 -258t-295.5 -101l-174 2h-159zM337 662h-68v-607h88q120 0 179.5 77.5t59.5 214.5q0 141 -65 228t-194 87z" />
    <glyph glyph-name="E" unicode="E" horiz-adv-x="710" 
d="M656 449l-168 212h-219v-264h129l94 140v-341l-94 140h-129v-274h261l160 227l-40 -289h-625l104 80v557l-104 81h611z" />
    <glyph glyph-name="F" unicode="F" horiz-adv-x="636" 
d="M25 0l104 80v557l-104 81h611l20 -269l-168 212h-219v-274h129l94 140v-341l-94 140h-129v-242l109 -84h-353z" />
    <glyph glyph-name="G" unicode="G" horiz-adv-x="846" 
d="M724 -32l-99 100q-81 -86 -228 -86q-160 0 -253.5 99.5t-93.5 255.5q0 187 104.5 292t280.5 105q40 0 87 -18t86 -52l101 79v-325q-79 123 -107 156q-79 90 -172 91q-98 0 -160.5 -83.5t-62.5 -213.5q0 -91 20 -160t70 -114.5t125 -45.5q147 0 152 134v89l-97 71h354
l-107 -80v-294zM475 342v2l2 -2h-2z" />
    <glyph glyph-name="H" unicode="H" horiz-adv-x="847" 
d="M469 0l104 80v255h-304v-251l109 -84h-353l104 80v557l-104 81h353l-109 -85v-241h304v245l-104 81h353l-109 -85v-549l109 -84h-353z" />
    <glyph glyph-name="I" unicode="I" horiz-adv-x="403" 
d="M378 718l-109 -85v-549l109 -84h-353l104 80v557l-104 81h353z" />
    <glyph glyph-name="J" unicode="J" horiz-adv-x="378" 
d="M369 718l-109 -85v-580q0 -64 -15 -114t-38.5 -80t-55.5 -49.5t-61.5 -26.5t-60.5 -7q4 5 19 22t19.5 23.5t15.5 24t15 32.5t10.5 38.5t9 53.5t2.5 67v600l-104 81h353z" />
    <glyph glyph-name="K" unicode="K" horiz-adv-x="743" 
d="M748 719l-161 -114l-157 -160l341 -491q-79 0 -176 74.5t-173 170.5l-105 130l-48 -48v-197l109 -84h-353l104 80v557l-104 81h353l-109 -85v-277l271 282l-52 81h260z" />
    <glyph glyph-name="L" unicode="L" horiz-adv-x="722" 
d="M377 718l-108 -84v-572h244l163 221l-24 -283h-627l104 80v557l-104 81h352z" />
    <glyph glyph-name="M" unicode="M" horiz-adv-x="1025" 
d="M647 0l104 80v508l-226 -471l-26 -56l-36 -73l-284 585v-492l104 -81h-268l102 79v556l-101 83h240l246 -510l249 510h247l-107 -86v-548l109 -84h-353z" />
    <glyph glyph-name="N" unicode="N" horiz-adv-x="815" 
d="M800 718l-102 -79v-654l-513 525v-433l99 -77h-268l102 79v544l-103 95h178l438 -446v369l-99 77h268z" />
    <glyph glyph-name="O" unicode="O" horiz-adv-x="811" 
d="M765 359q1 -174 -96.5 -276.5t-263.5 -105.5q-165 2 -262.5 104t-97.5 276q0 170 99.5 276t260.5 106q166 0 262.5 -107t97.5 -273zM405 680q-53 0 -93.5 -27t-63.5 -73.5t-34.5 -102t-11.5 -119.5t11 -119.5t34 -102t63.5 -73.5t94.5 -27q70 0 117.5 48t66.5 118t19 156
q0 135 -50 228t-153 94z" />
    <glyph glyph-name="P" unicode="P" horiz-adv-x="653" 
d="M25 0l104 80v557l-104 81h182q111 1 202 1q107 0 172 -58t65 -140q0 -95 -70 -161.5t-188 -66.5q-87 0 -119 4v-213l109 -84h-353zM291 667h-22v-324q43 0 68 1.5t59.5 10t53.5 25t33 48.5t14 78q0 107 -60 142q-17 9 -43 13.5t-43 5t-60 0.5z" />
    <glyph glyph-name="Q" unicode="Q" horiz-adv-x="831" 
d="M780 359q0 -112 -42 -195.5t-120 -131.5l117 -260q-34 8 -62 21.5t-56 36t-46 40t-52 54t-55 57.5q-17 -2 -49 -4q-167 2 -266 104t-99 276q0 170 101 276t264 106q168 0 266 -107.5t99 -272.5zM415 680q-54 0 -95.5 -27t-65 -73.5t-35.5 -102.5t-12 -119
q0 -87 19.5 -156.5t68 -117.5t120.5 -48q54 0 95.5 27t65 73.5t35.5 102.5t12 119t-12 118.5t-35.5 102t-65 74t-95.5 27.5z" />
    <glyph glyph-name="R" unicode="R" horiz-adv-x="739" 
d="M25 0l104 80v557l-104 81h182q132 1 238 1q94 0 150.5 -52t56.5 -126q0 -146 -184 -195l286 -392q-60 0 -132 47.5t-123 102t-118 132t-93 103.5h-19v-255l109 -84h-353zM297 667h-28v-284q38 0 57.5 1t52.5 4.5t50.5 12.5t37 24t28 40.5t8.5 60.5q0 42 -15.5 75
t-44.5 47q-17 9 -43 13.5t-43 5t-60 0.5z" />
    <glyph glyph-name="S" unicode="S" horiz-adv-x="640" 
d="M330 733q70 0 142 -48l79 56l-2 -341q-26 60 -40 91t-34 69t-35 55.5t-36 34.5t-43.5 23t-52.5 6q-45 0 -78.5 -32t-33.5 -75q0 -16 4 -29.5t8.5 -23t17 -20.5t20.5 -17t29.5 -16.5t33 -15.5t41 -17.5t44.5 -18.5q36 -18 60 -34t51 -42t41 -62.5t14 -82.5
q0 -86 -62.5 -142.5t-170.5 -56.5q-97 0 -166 50l-79 -55l3 339q55 -140 109.5 -209t122.5 -69q55 0 88.5 27.5t33.5 82.5q0 22 -10.5 42t-23 33.5t-38 28.5t-40 21.5t-45.5 19t-39 16.5q-163 78 -163 207q0 102 70.5 153.5t179.5 51.5z" />
    <glyph glyph-name="T" unicode="T" horiz-adv-x="702" 
d="M167 0l104 80v583h-112l-168 -212l20 269h662l20 -269l-168 212h-114v-579l109 -84h-353z" />
    <glyph glyph-name="U" unicode="U" horiz-adv-x="805" 
d="M798 718l-97 -75v-333q0 -53 -7.5 -99t-27.5 -91t-51.5 -76t-83 -50.5t-118.5 -19.5q-85 0 -144.5 22.5t-92.5 66t-47.5 97.5t-14.5 126v351l-104 81h353l-99 -77v-376q0 -100 39 -156.5t140 -56.5q185 0 185 268l-1 322l-97 76h268z" />
    <glyph glyph-name="V" unicode="V" horiz-adv-x="827" 
d="M827 718l-119 -92l-250 -583l-8 -22l-31 -73l-316 690l-103 80h353l-89 -69l194 -460l190 459l-89 70h268z" />
    <glyph glyph-name="W" unicode="W" horiz-adv-x="1119" 
d="M1134 721l-106 -91l-225 -609l-27 -73l-215 558l-134 -376l-38 -109l-28 -73l-276 693l-92 80h319l-79 -68l162 -437l131 380l-23 59l-76 66h329l-97 -79l153 -431l157 443l-77 67h242z" />
    <glyph glyph-name="X" unicode="X" horiz-adv-x="761" 
d="M0 1l117 90l13 17l184 237l-185 277l-123 96h353l-89 -70l135 -203l141 199l-81 74h268l-127 -86l-170 -234l201 -303l124 -95h-353l89 69l-151 227l-168 -226l90 -69h-268z" />
    <glyph glyph-name="Y" unicode="Y" horiz-adv-x="734" 
d="M205 0l104 80v191l-199 361l-110 86h353l-92 -72l164 -297l165 290l-101 79h268l-94 -73l-214 -359v-202l109 -84h-353z" />
    <glyph glyph-name="Z" unicode="Z" horiz-adv-x="716" 
d="M13 0l418 651h-234l-132 -227l20 294h556l-424 -645h311l149 251l-39 -316v-8h-625z" />
    <glyph glyph-name="grave" unicode="`" 
d="M331 727l3 -4q16 -21 62.5 -94.5t49.5 -78.5l-17 -18l-219 165l14 30h107z" />
    <glyph glyph-name="a" unicode="a" horiz-adv-x="531" 
d="M332 341h1q-3 49 -31 77t-67 28q-73 0 -91 -26q54 -21 54 -76q0 -29 -21 -49.5t-48 -20.5q-32 0 -50 22.5t-18 58.5q0 47 58.5 93t132.5 46h16q76 0 127.5 -41t51.5 -133q0 -20 -0.5 -118.5t-0.5 -122.5l76 -79h-164l-25 77q-23 -40 -69.5 -65.5t-96.5 -25.5
q-63 0 -92.5 36t-29.5 78q0 49 34.5 81.5t86.5 44.5q4 1 31 7t34.5 8.5t29.5 9.5t30 14t20.5 18t16.5 25.5t4 32.5zM215 61q31 0 65.5 19.5t49.5 55.5l2 121q-29 -37 -94 -63q-40 -18 -57 -37t-17 -48q0 -22 15 -35t36 -13z" />
    <glyph glyph-name="b" unicode="b" horiz-adv-x="607" 
d="M80 -40v627l-72 35l192 128l-1 -330q51 67 149 67q88 0 153 -62.5t65 -179.5q0 -104 -78.5 -181t-198.5 -77q-74 0 -126 36zM281 398q-50 0 -82 -24v-201q1 -136 111 -136q60 0 96 46t36 116q0 97 -45 148t-116 51z" />
    <glyph glyph-name="c" unicode="c" horiz-adv-x="515" 
d="M279 -10q-107 0 -173 66.5t-66 167.5q0 119 73 192t188 73q71 0 120 -40t49 -100q0 -32 -19.5 -54.5t-52.5 -22.5q-30 0 -50.5 19t-20.5 54q0 8 2.5 31t2 34t-10.5 21.5t-31 10.5q-57 0 -97 -45.5t-40 -116.5q0 -89 46 -139t121 -50q51 0 96.5 23.5t68.5 70.5
q0 -82 -64 -138.5t-142 -56.5z" />
    <glyph glyph-name="d" unicode="d" horiz-adv-x="619" 
d="M259 -13q-88 0 -153 62.5t-65 179.5q0 104 78.5 181t198.5 77q46 0 89 -17v117l-72 35l156 104v-1l36 25v-642l72 -50l-162 -81l-24 86q-24 -38 -66.5 -57t-87.5 -19zM326 76q50 0 81 23v226q-10 112 -110 112q-60 0 -96 -46t-36 -116q0 -97 45 -148t116 -51z" />
    <glyph glyph-name="e" unicode="e" horiz-adv-x="520" 
d="M275 -10q-110 0 -172.5 70.5t-62.5 169.5q0 108 67 183.5t174 75.5q76 0 138.5 -43t69.5 -137h1v-9v-11v-30h-337q3 -76 47.5 -122t118.5 -46q109 0 167 93q0 -82 -64.5 -138t-146.5 -56zM266 442q-44 0 -78 -36.5t-35 -96.5h209q0 61 -25 97t-71 36z" />
    <glyph glyph-name="f" unicode="f" horiz-adv-x="347" 
d="M340 415h-119v-345l78 -70h-270l72 70v345h-77v64h77q-45 59 -45 126q0 70 41 109.5t103 39.5q41 0 83 -24t69 -79l-88 -105q-10 40 -35 71.5t-48 31.5q-54 0 -54 -54q0 -29 29 -65.5t70 -50.5h114v-64z" />
    <glyph glyph-name="g" unicode="g" horiz-adv-x="529" 
d="M53 321q0 75 63.5 121.5t161.5 46.5h7q-30 53 -30 123q0 42 21 66q22 30 60 30q32 0 53.5 -22t21.5 -53t-21.5 -53t-53.5 -22q-23 0 -40 11q1 -24 11 -51q6 -19 15 -32q76 -11 119 -54.5t43 -110.5q0 -72 -53 -117.5t-141 -50.5l-57 -35q155 -60 198 -81q73 -37 73 -106
q0 -66 -74 -115.5t-183 -49.5q-96 0 -161.5 32.5t-65.5 90.5q0 36 31.5 63.5t70 41t82.5 20.5q-16 7 -41 16.5t-39 15t-20 8.5v32l65 30l61 39q-81 8 -129 52.5t-48 113.5zM130 -95q-1 -40 39 -68.5t95 -28.5q58 0 95.5 22t37.5 56q0 28 -22.5 47t-59.5 36l-61 26
q-48 -6 -85.5 -35t-38.5 -55zM184 321q0 -125 85 -125t85 125q0 126 -85 126t-85 -126z" />
    <glyph glyph-name="h" unicode="h" horiz-adv-x="605" 
d="M306 417q-47 0 -69.5 -25.5t-29.5 -56.5v-265l78 -70h-270l73 71v516l-72 35l192 128l-1 -335q50 74 150 74q73 0 117.5 -45.5t44.5 -128.5l-1 -245l78 -70h-270l72 70l1 215q0 71 -18 99q-21 33 -75 33z" />
    <glyph glyph-name="i" unicode="i" horiz-adv-x="305" 
d="M24 0l72 70v285l-72 37l72 44l59 36l61 37v-439l77 -70h-269zM86 640q0 31 22.5 53.5t53.5 22.5t53.5 -22.5t22.5 -53.5t-22.5 -53.5t-53.5 -22.5q-32 0 -54 22t-22 54z" />
    <glyph glyph-name="j" unicode="j" horiz-adv-x="299" 
d="M25 -234q3 3 18.5 21.5t19 24t14.5 25.5t14 37t7 46.5t4 65.5v375l-72 31l72 44l59 36l61 37v-509q0 -66 -19 -114.5t-50 -73t-63 -35.5t-65 -11zM96 640q0 31 22.5 53.5t53.5 22.5t53.5 -22.5t22.5 -53.5t-22.5 -53.5t-53.5 -22.5q-32 0 -54 22t-22 54z" />
    <glyph glyph-name="k" unicode="k" horiz-adv-x="565" 
d="M15 0l73 71v516l-72 35l192 128l-1 -463h32l145 117l-57 75h232l-52 -40l-178 -141l185 -226l80 -71h-250l40 39l-149 184l-2 -1l-6 9h-20v-162l78 -70h-270z" />
    <glyph glyph-name="l" unicode="l" horiz-adv-x="308" 
d="M20 0l73 71v516l-72 35l192 128l-1 -680l78 -70h-270z" />
    <glyph glyph-name="m" unicode="m" horiz-adv-x="888" 
d="M315 0l72 70l1 209q-1 68 -19.5 102t-65.5 34q-72 0 -87 -80v-265l78 -70h-270l72 70v278l-72 44l72 48v1l90 60l22 -96q48 84 148 84q105 0 140 -97q48 97 154 97q69 0 110.5 -45.5t41.5 -128.5l-1 -245l78 -70h-270l72 70l1 209q-1 68 -19.5 102t-65.5 34
q-24 0 -42 -10t-26.5 -24t-13.5 -28t-6 -24l-1 -10v-4l-1 -245l78 -70h-270z" />
    <glyph glyph-name="n" unicode="n" horiz-adv-x="614" 
d="M335 0l72 70l1 215q0 71 -18 99q-21 33 -75 33q-33 0 -56.5 -16t-31.5 -33t-11 -35v-263l78 -70h-270l72 70v278l-72 44l72 48v1l90 60l23 -98q51 86 157 86q73 0 117.5 -45.5t44.5 -128.5l-1 -245l78 -70h-270z" />
    <glyph glyph-name="o" unicode="o" horiz-adv-x="584" 
d="M544 240q0 -115 -68.5 -181.5t-183.5 -68.5q-115 2 -183.5 68t-68.5 180q0 112 70 181.5t182 69.5q115 0 183 -70t69 -179zM292 442q-42 0 -68.5 -29.5t-35.5 -72.5t-9 -101q0 -201 113 -201t113 201q0 202 -113 203z" />
    <glyph glyph-name="p" unicode="p" horiz-adv-x="621" 
d="M362 487q88 0 153 -62.5t65 -179.5q0 -104 -78.5 -181t-198.5 -77q-47 0 -89 16v-157l78 -71h-270l72 71v502l-72 44l72 48v1l90 60l24 -89q24 37 66.5 56t87.5 19zM295 398q-50 0 -81 -24v-225q10 -112 110 -112q60 0 96 46t36 116q0 97 -45 148t-116 51z" />
    <glyph glyph-name="q" unicode="q" horiz-adv-x="600" 
d="M259 -13q-88 0 -153 62.5t-65 179.5q0 104 78.5 181t198.5 77q72 0 122 -34l87 55v-687l78 -71h-136v1h-8v-1h-126l72 71v233q-25 -33 -65.5 -50t-82.5 -17zM326 76q50 0 81 24l1 198q0 139 -111 139q-60 0 -96 -46t-36 -116q0 -97 45 -148t116 -51z" />
    <glyph glyph-name="r" unicode="r" horiz-adv-x="416" 
d="M24 0l72 70v278l-72 44l72 48v1l90 60l27 -127q18 51 52 83t76 32q29 0 52 -20.5t23 -57.5q0 -34 -21 -57.5t-49 -23.5q-30 0 -51 19t-24 52q-49 -50 -55 -141v-190l78 -70h-270z" />
    <glyph glyph-name="s" unicode="s" horiz-adv-x="462" 
d="M218 494q49 0 98 -28l78 43l1 -205q-37 67 -84 104q-37 32 -86 32q-37 0 -60 -16t-23 -44q0 -40 99 -65q89 -22 130 -57t41 -114q0 -57 -44 -105.5t-123 -48.5q-66 0 -117 29l-75 -37l-1 223q3 -5 22 -34.5t26.5 -40t23.5 -29.5t32 -31q33 -25 91 -25q28 0 51.5 16.5
t23.5 44.5q0 19 -10 33.5t-28 22.5t-34.5 13t-37.5 9q-4 1 -6 1q-76 16 -114 52t-38 106q0 71 47.5 111t116.5 40z" />
    <glyph glyph-name="t" unicode="t" horiz-adv-x="390" 
d="M291 69q64 0 114 65q-3 -70 -50.5 -107t-110.5 -37q-82 0 -124 48.5t-42 135.5l1 241h-70v64h50l99 191h39v-191h168v-64h-166l-1 -224q0 -30 2.5 -48t11 -37t28.5 -28t51 -9z" />
    <glyph glyph-name="u" unicode="u" horiz-adv-x="597" 
d="M505 509v-401l72 -50l-162 -81l-23 96q-49 -84 -152 -84q-73 0 -116.5 45t-43.5 129v193l-71 36l131 80v-1l61 38l-1 -310q1 -68 21 -102t72 -34q76 0 92 75v217l-72 37l131 80v-1z" />
    <glyph glyph-name="v" unicode="v" horiz-adv-x="523" 
d="M572 479l-111 -82l-182 -396l-1 1l-20 -45l-204 444l-103 78h300l-69 -57l114 -269l112 255l-66 71h96v-3l1 3h133z" />
    <glyph glyph-name="w" unicode="w" horiz-adv-x="798" 
d="M837 479l-101 -81l-124 -304l-57 -138l-159 386l-101 -246l-58 -140l-184 446l-92 77h275l-63 -56l97 -261l97 249l-58 68h244l-63 -56l97 -262l97 250l-58 68h211z" />
    <glyph glyph-name="x" unicode="x" horiz-adv-x="545" 
d="M-9 0l96 68l125 156l-116 163l-112 92h280l-57 -50l87 -120l82 101l-61 69h116l-1 -2l2 2h113l-103 -73l-118 -139l133 -183l104 -84h-280l56 49l-94 131l-80 -114l58 -66h-230z" />
    <glyph glyph-name="y" unicode="y" horiz-adv-x="526" 
d="M572 479l-109 -81l-209 -469q-33 -77 -72 -121.5t-96 -44.5q-93 0 -132 80l112 129q-7 -50 12.5 -72t48.5 -22q12 0 23 6t20 17.5t14.5 19.5t13.5 22.5t9 16.5l24 54l-177 387l-103 78h300l-76 -62l119 -263l113 254l-65 71h96v-2l1 2h133z" />
    <glyph glyph-name="z" unicode="z" horiz-adv-x="522" 
d="M28 0l288 429h-165l-131 -156l50 206h422l-297 -429h180l126 166l-39 -211v-5h-434z" />
    <glyph glyph-name="dieresis" unicode="&#xa8;" 
d="M139 644q0 26 18 44t43 18q26 0 44 -18t18 -44q0 -25 -18 -43t-44 -18t-43.5 17.5t-17.5 43.5zM320 644q0 26 18 44t43 18t43.5 -18t18.5 -44q0 -25 -18 -43t-44 -18q-25 0 -43 17.5t-18 43.5z" />
    <glyph glyph-name="guillemotleft" unicode="&#xab;" horiz-adv-x="479" 
d="M203 419h41l-98 -183l98 -184h-39l-179 184zM399 419h40l-98 -183l98 -184h-39l-179 184z" />
    <glyph glyph-name="acute" unicode="&#xb4;" 
d="M341 723l3 4h107l14 -30l-219 -165l-17 18q3 5 49.5 78.5t62.5 94.5z" />
    <glyph glyph-name="cedilla" unicode="&#xb8;" 
d="M197 0l-44 -56q37 -10 63.5 -37t26.5 -61q0 -30 -16 -53t-40.5 -35t-50.5 -18t-51 -6q-45 0 -70 25q3 1 21 3t25 3.5t23 5.5t23.5 8.5t17.5 12t14 18.5t4 24q0 23 -19 40.5t-52 24.5l75 101h50z" />
    <glyph glyph-name="guillemotright" unicode="&#xbb;" horiz-adv-x="479" 
d="M235 419h41l177 -183l-179 -184h-39l98 184zM40 419h40l178 -183l-179 -184h-39l98 184z" />
    <glyph glyph-name="Agrave" unicode="&#xc0;" horiz-adv-x="774" 
d="M10 0l84 81l271 646h53l262 -663l74 -64h-333l97 75l-50 134h-248l-58 -143l86 -66h-238zM349 527l-106 -261h204zM285 937l155 -148l-17 -18l-279 135l14 31h127z" />
    <glyph glyph-name="Aacute" unicode="&#xc1;" horiz-adv-x="774" 
d="M10 0l84 81l271 646h53l262 -663l74 -64h-333l97 75l-50 134h-248l-58 -143l86 -66h-238zM349 527l-106 -261h204zM301 789l155 148h127l14 -31l-279 -135z" />
    <glyph glyph-name="Acircumflex" unicode="&#xc2;" horiz-adv-x="774" 
d="M10 0l84 81l271 646h53l262 -663l74 -64h-333l97 75l-50 134h-248l-58 -143l86 -66h-238zM349 527l-106 -261h204zM571 791l-18 -22l-165 80l-169 -80l-15 21l184 169z" />
    <glyph glyph-name="Atilde" unicode="&#xc3;" horiz-adv-x="774" 
d="M10 0l84 81l271 646h53l262 -663l74 -64h-333l97 75l-50 134h-248l-58 -143l86 -66h-238zM459 800q-25 0 -75 25t-79 25q-73 0 -75 -44l-13 2q2 51 28.5 90t70.5 39q30 0 81.5 -23.5t71.5 -23.5q39 0 56.5 14.5t18.5 30.5l13 -2q-3 -54 -27 -93t-71 -40zM349 527
l-106 -261h204z" />
    <glyph glyph-name="Adieresis" unicode="&#xc4;" horiz-adv-x="774" 
d="M10 0l84 81l271 646h53l262 -663l74 -64h-333l97 75l-50 134h-248l-58 -143l86 -66h-238zM349 527l-106 -261h204zM204 883q0 27 19 46t45 19q27 0 46 -19t19 -46t-19 -45.5t-46 -18.5q-26 0 -45 18.5t-19 45.5zM415 883q0 27 18.5 46t45.5 19q26 0 45.5 -19t19.5 -46
t-19 -45.5t-46 -18.5t-45.5 18.5t-18.5 45.5z" />
    <glyph glyph-name="Aring" unicode="&#xc5;" horiz-adv-x="774" 
d="M10 0l84 81l271 646h53l262 -663l74 -64h-333l97 75l-50 134h-248l-58 -143l86 -66h-238zM263 882q0 42 31.5 64.5t81.5 22.5t82.5 -22.5t32.5 -64.5t-32 -64.5t-83 -22.5q-50 0 -81.5 22.5t-31.5 64.5zM349 527l-106 -261h204zM332 882q0 -51 45 -51q46 0 46 51
q0 53 -46 53q-45 0 -45 -53z" />
    <glyph glyph-name="AE" unicode="&#xc6;" horiz-adv-x="1029" 
d="M344 0l104 80v244h-171l-139 -264l74 -60h-236l97 95l311 565l-72 58h647l10 -259l-136 202h-245v-279h129l94 140v-341l-94 140h-129v-259h261l160 227l-40 -289h-625zM448 647l-141 -266h141v266z" />
    <glyph glyph-name="Ccedilla" unicode="&#xc7;" horiz-adv-x="763" 
d="M398 -18l-30 -38q37 -10 65.5 -37t28.5 -61q0 -43 -29 -71t-63 -37t-70 -9q-45 0 -70 25q124 8 124 80q0 23 -17.5 40.5t-49.5 24.5l63 85q-136 13 -218 111.5t-82 241.5q0 187 99 292t266 105q89 0 164 -69l100 78v-325q-11 16 -31.5 49t-30 48t-28 40.5t-30 37.5
t-30.5 29t-35.5 24.5t-38 13t-45.5 5.5q-90 0 -146.5 -83.5t-56.5 -213.5q0 -89 21 -159.5t68 -115.5t116 -45q40 0 76 17t65 49.5t49 60t44 67.5t33 53v-325l-105 82q-71 -67 -176 -70z" />
    <glyph glyph-name="Egrave" unicode="&#xc8;" horiz-adv-x="740" 
d="M25 0l104 80v557l-104 81h611l20 -269l-168 212h-219v-264h129l94 140v-341l-94 140h-129v-274h261l160 227l-40 -289h-625zM323 937l155 -148l-17 -18l-279 135l14 31h127z" />
    <glyph glyph-name="Eacute" unicode="&#xc9;" horiz-adv-x="740" 
d="M656 449l-168 212h-219v-264h129l94 140v-341l-94 140h-129v-274h261l160 227l-40 -289h-625l104 80v557l-104 81h611zM292 789l155 148h127l14 -31l-279 -135z" />
    <glyph glyph-name="Ecircumflex" unicode="&#xca;" horiz-adv-x="740" 
d="M25 0l104 80v557l-104 81h611l20 -269l-168 212h-219v-264h129l94 140v-341l-94 140h-129v-274h261l160 227l-40 -289h-625zM554 791l-18 -22l-165 80l-169 -80l-15 21l184 169z" />
    <glyph glyph-name="Edieresis" unicode="&#xcb;" horiz-adv-x="740" 
d="M25 0l104 80v557l-104 81h611l20 -269l-168 212h-219v-264h129l94 140v-341l-94 140h-129v-274h261l160 227l-40 -289h-625zM183 883q0 27 19 46t45 19q27 0 46 -19t19 -46t-19 -45.5t-46 -18.5q-26 0 -45 18.5t-19 45.5zM394 883q0 27 18.5 46t45.5 19q26 0 45.5 -19
t19.5 -46t-19 -45.5t-46 -18.5t-45.5 18.5t-18.5 45.5z" />
    <glyph glyph-name="Igrave" unicode="&#xcc;" horiz-adv-x="433" 
d="M393 718l-109 -85v-549l109 -84h-353l104 80v557l-104 81h353zM140 937l155 -148l-17 -18l-279 135l14 31h127z" />
    <glyph glyph-name="Iacute" unicode="&#xcd;" horiz-adv-x="433" 
d="M393 718l-109 -85v-549l109 -84h-353l104 80v557l-104 81h353zM131 789l155 148h127l14 -31l-279 -135z" />
    <glyph glyph-name="Icircumflex" unicode="&#xce;" horiz-adv-x="433" 
d="M393 718l-109 -85v-549l109 -84h-353l104 80v557l-104 81h353zM401 791l-18 -22l-165 80l-169 -80l-15 21l184 169z" />
    <glyph glyph-name="Idieresis" unicode="&#xcf;" horiz-adv-x="433" 
d="M393 718l-109 -85v-549l109 -84h-353l104 80v557l-104 81h353zM47 883q0 27 19 46t45 19q27 0 46 -19t19 -46t-19 -45.5t-46 -18.5q-26 0 -45 18.5t-19 45.5zM258 883q0 27 18.5 46t45.5 19q26 0 45.5 -19t19.5 -46t-19 -45.5t-46 -18.5t-45.5 18.5t-18.5 45.5z" />
    <glyph glyph-name="Ntilde" unicode="&#xd1;" horiz-adv-x="815" 
d="M800 718l-102 -79v-654l-513 525v-433l99 -77h-268l102 79v544l-103 95h178l438 -446v369l-99 77h268zM479 803q-25 0 -75 25t-79 25q-73 0 -75 -44l-13 2q2 51 28.5 90t70.5 39q30 0 81.5 -23.5t71.5 -23.5q39 0 56.5 14.5t18.5 30.5l13 -2q-3 -54 -27 -93t-71 -40z" />
    <glyph glyph-name="Ograve" unicode="&#xd2;" horiz-adv-x="811" 
d="M765 359q1 -174 -96.5 -276.5t-263.5 -105.5q-165 2 -262.5 104t-97.5 276q0 170 99.5 276t260.5 106q166 0 262.5 -107t97.5 -273zM405 680q-53 0 -93.5 -27t-63.5 -73.5t-34.5 -102t-11.5 -119.5t11 -119.5t34 -102t63.5 -73.5t94.5 -27q70 0 117.5 48t66.5 118t19 156
q0 135 -50 228t-153 94zM348 937l155 -148l-17 -18l-279 135l14 31h127z" />
    <glyph glyph-name="Oacute" unicode="&#xd3;" horiz-adv-x="811" 
d="M765 359q1 -174 -96.5 -276.5t-263.5 -105.5q-165 2 -262.5 104t-97.5 276q0 170 99.5 276t260.5 106q166 0 262.5 -107t97.5 -273zM405 680q-53 0 -93.5 -27t-63.5 -73.5t-34.5 -102t-11.5 -119.5t11 -119.5t34 -102t63.5 -73.5t94.5 -27q70 0 117.5 48t66.5 118t19 156
q0 135 -50 228t-153 94zM327 789l155 148h127l14 -31l-279 -135z" />
    <glyph glyph-name="Ocircumflex" unicode="&#xd4;" horiz-adv-x="811" 
d="M765 359q1 -174 -96.5 -276.5t-263.5 -105.5q-165 2 -262.5 104t-97.5 276q0 170 99.5 276t260.5 106q166 0 262.5 -107t97.5 -273zM405 680q-53 0 -93.5 -27t-63.5 -73.5t-34.5 -102t-11.5 -119.5t11 -119.5t34 -102t63.5 -73.5t94.5 -27q70 0 117.5 48t66.5 118t19 156
q0 135 -50 228t-153 94zM589 791l-18 -22l-165 80l-169 -80l-15 21l184 169z" />
    <glyph glyph-name="Otilde" unicode="&#xd5;" horiz-adv-x="811" 
d="M765 359q1 -174 -96.5 -276.5t-263.5 -105.5q-165 2 -262.5 104t-97.5 276q0 170 99.5 276t260.5 106q166 0 262.5 -107t97.5 -273zM405 680q-53 0 -93.5 -27t-63.5 -73.5t-34.5 -102t-11.5 -119.5t11 -119.5t34 -102t63.5 -73.5t94.5 -27q70 0 117.5 48t66.5 118t19 156
q0 135 -50 228t-153 94zM497 804q-25 0 -75 25t-79 25q-73 0 -75 -44l-13 2q2 51 28.5 90t70.5 39q30 0 81.5 -23.5t71.5 -23.5q39 0 56.5 14.5t18.5 30.5l13 -2q-3 -54 -27 -93t-71 -40z" />
    <glyph glyph-name="Odieresis" unicode="&#xd6;" horiz-adv-x="811" 
d="M765 359q1 -174 -96.5 -276.5t-263.5 -105.5q-165 2 -262.5 104t-97.5 276q0 170 99.5 276t260.5 106q166 0 262.5 -107t97.5 -273zM405 680q-53 0 -93.5 -27t-63.5 -73.5t-34.5 -102t-11.5 -119.5t11 -119.5t34 -102t63.5 -73.5t94.5 -27q70 0 117.5 48t66.5 118t19 156
q0 135 -50 228t-153 94zM235 883q0 27 19 46t45 19q27 0 46 -19t19 -46t-19 -45.5t-46 -18.5q-26 0 -45 18.5t-19 45.5zM446 883q0 27 18.5 46t45.5 19q26 0 45.5 -19t19.5 -46t-19 -45.5t-46 -18.5t-45.5 18.5t-18.5 45.5z" />
    <glyph glyph-name="Ugrave" unicode="&#xd9;" horiz-adv-x="805" 
d="M798 718l-97 -75v-333q0 -53 -7.5 -99t-27.5 -91t-51.5 -76t-83 -50.5t-118.5 -19.5q-85 0 -144.5 22.5t-92.5 66t-47.5 97.5t-14.5 126v351l-104 81h353l-99 -77v-376q0 -100 39 -156.5t140 -56.5q185 0 185 268l-1 322l-97 76h268zM355 937l155 -148l-17 -18l-279 135
l14 31h127z" />
    <glyph glyph-name="Uacute" unicode="&#xda;" horiz-adv-x="805" 
d="M798 718l-97 -75v-333q0 -53 -7.5 -99t-27.5 -91t-51.5 -76t-83 -50.5t-118.5 -19.5q-85 0 -144.5 22.5t-92.5 66t-47.5 97.5t-14.5 126v351l-104 81h353l-99 -77v-376q0 -100 39 -156.5t140 -56.5q185 0 185 268l-1 322l-97 76h268zM383 789l155 148h127l14 -31
l-279 -135z" />
    <glyph glyph-name="Ucircumflex" unicode="&#xdb;" horiz-adv-x="805" 
d="M798 718l-97 -75v-333q0 -53 -7.5 -99t-27.5 -91t-51.5 -76t-83 -50.5t-118.5 -19.5q-85 0 -144.5 22.5t-92.5 66t-47.5 97.5t-14.5 126v351l-104 81h353l-99 -77v-376q0 -100 39 -156.5t140 -56.5q185 0 185 268l-1 322l-97 76h268zM636 791l-18 -22l-165 80l-169 -80
l-15 21l184 169z" />
    <glyph glyph-name="Udieresis" unicode="&#xdc;" horiz-adv-x="805" 
d="M798 718l-97 -75v-333q0 -53 -7.5 -99t-27.5 -91t-51.5 -76t-83 -50.5t-118.5 -19.5q-85 0 -144.5 22.5t-92.5 66t-47.5 97.5t-14.5 126v351l-104 81h353l-99 -77v-376q0 -100 39 -156.5t140 -56.5q185 0 185 268l-1 322l-97 76h268zM280 883q0 27 19 46t45 19
q27 0 46 -19t19 -46t-19 -45.5t-46 -18.5q-26 0 -45 18.5t-19 45.5zM491 883q0 27 18.5 46t45.5 19q26 0 45.5 -19t19.5 -46t-19 -45.5t-46 -18.5t-45.5 18.5t-18.5 45.5z" />
    <glyph glyph-name="Yacute" unicode="&#xdd;" horiz-adv-x="757" 
d="M205 0l104 80v191l-199 361l-110 86h353l-92 -72l164 -297l165 290l-101 79h268l-94 -73l-214 -359v-202l109 -84h-353zM376 789l155 148h127l14 -31l-279 -135z" />
    <glyph glyph-name="agrave" unicode="&#xe0;" horiz-adv-x="546" 
d="M332 341h1q-3 49 -31 77t-67 28q-73 0 -91 -26q54 -21 54 -76q0 -29 -21 -49.5t-48 -20.5q-32 0 -50 22.5t-18 58.5q0 47 58.5 93t132.5 46h16q76 0 127.5 -41t51.5 -133q0 -20 -0.5 -118.5t-0.5 -122.5l76 -79h-164l-25 77q-23 -40 -69.5 -65.5t-96.5 -25.5
q-63 0 -92.5 36t-29.5 78q0 49 34.5 81.5t86.5 44.5q4 1 31 7t34.5 8.5t29.5 9.5t30 14t20.5 18t16.5 25.5t4 32.5zM215 61q31 0 65.5 19.5t49.5 55.5l2 121q-29 -37 -94 -63q-40 -18 -57 -37t-17 -48q0 -22 15 -35t36 -13zM273 727l3 -4q16 -21 62.5 -94.5t49.5 -78.5
l-17 -18l-219 165l14 30h107z" />
    <glyph glyph-name="aacute" unicode="&#xe1;" horiz-adv-x="546" 
d="M332 341h1q-3 49 -31 77t-67 28q-73 0 -91 -26q54 -21 54 -76q0 -29 -21 -49.5t-48 -20.5q-32 0 -50 22.5t-18 58.5q0 47 58.5 93t132.5 46h16q76 0 127.5 -41t51.5 -133q0 -20 -0.5 -118.5t-0.5 -122.5l76 -79h-164l-25 77q-23 -40 -69.5 -65.5t-96.5 -25.5
q-63 0 -92.5 36t-29.5 78q0 49 34.5 81.5t86.5 44.5q4 1 31 7t34.5 8.5t29.5 9.5t30 14t20.5 18t16.5 25.5t4 32.5zM215 61q31 0 65.5 19.5t49.5 55.5l2 121q-29 -37 -94 -63q-40 -18 -57 -37t-17 -48q0 -22 15 -35t36 -13zM343 723l3 4h107l14 -30l-219 -165l-17 18
q3 5 49.5 78.5t62.5 94.5z" />
    <glyph glyph-name="acircumflex" unicode="&#xe2;" horiz-adv-x="546" 
d="M332 341h1q-3 49 -31 77t-67 28q-73 0 -91 -26q54 -21 54 -76q0 -29 -21 -49.5t-48 -20.5q-32 0 -50 22.5t-18 58.5q0 47 58.5 93t132.5 46h16q76 0 127.5 -41t51.5 -133q0 -20 -0.5 -118.5t-0.5 -122.5l76 -79h-164l-25 77q-23 -40 -69.5 -65.5t-96.5 -25.5
q-63 0 -92.5 36t-29.5 78q0 49 34.5 81.5t86.5 44.5q4 1 31 7t34.5 8.5t29.5 9.5t30 14t20.5 18t16.5 25.5t4 32.5zM437 566l-18 -22l-145 80l-149 -80l-15 21l164 169zM215 61q31 0 65.5 19.5t49.5 55.5l2 121q-29 -37 -94 -63q-40 -18 -57 -37t-17 -48q0 -22 15 -35
t36 -13z" />
    <glyph glyph-name="atilde" unicode="&#xe3;" horiz-adv-x="546" 
d="M332 341h1q-3 49 -31 77t-67 28q-73 0 -91 -26q54 -21 54 -76q0 -29 -21 -49.5t-48 -20.5q-32 0 -50 22.5t-18 58.5q0 47 58.5 93t132.5 46h16q76 0 127.5 -41t51.5 -133q0 -20 -0.5 -118.5t-0.5 -122.5l76 -79h-164l-25 77q-23 -40 -69.5 -65.5t-96.5 -25.5
q-63 0 -92.5 36t-29.5 78q0 49 34.5 81.5t86.5 44.5q4 1 31 7t34.5 8.5t29.5 9.5t30 14t20.5 18t16.5 25.5t4 32.5zM347 574q-22 0 -66 23t-69 23q-64 0 -66 -41l-11 2q2 47 25 83t62 36q26 0 71 -21.5t63 -21.5q34 0 49.5 13t16.5 28l11 -2q-3 -50 -24 -85.5t-62 -36.5z
M215 61q31 0 65.5 19.5t49.5 55.5l2 121q-29 -37 -94 -63q-40 -18 -57 -37t-17 -48q0 -22 15 -35t36 -13z" />
    <glyph glyph-name="adieresis" unicode="&#xe4;" horiz-adv-x="546" 
d="M332 341h1q-3 49 -31 77t-67 28q-73 0 -91 -26q54 -21 54 -76q0 -29 -21 -49.5t-48 -20.5q-32 0 -50 22.5t-18 58.5q0 47 58.5 93t132.5 46h16q76 0 127.5 -41t51.5 -133q0 -20 -0.5 -118.5t-0.5 -122.5l76 -79h-164l-25 77q-23 -40 -69.5 -65.5t-96.5 -25.5
q-63 0 -92.5 36t-29.5 78q0 49 34.5 81.5t86.5 44.5q4 1 31 7t34.5 8.5t29.5 9.5t30 14t20.5 18t16.5 25.5t4 32.5zM215 61q31 0 65.5 19.5t49.5 55.5l2 121q-29 -37 -94 -63q-40 -18 -57 -37t-17 -48q0 -22 15 -35t36 -13zM121 644q0 26 18 44t43 18q26 0 44 -18t18 -44
q0 -25 -18 -43t-44 -18t-43.5 17.5t-17.5 43.5zM302 644q0 26 18 44t43 18t43.5 -18t18.5 -44q0 -25 -18 -43t-44 -18q-25 0 -43 17.5t-18 43.5z" />
    <glyph glyph-name="aring" unicode="&#xe5;" horiz-adv-x="546" 
d="M332 341h1q-3 49 -31 77t-67 28q-73 0 -91 -26q54 -21 54 -76q0 -29 -21 -49.5t-48 -20.5q-32 0 -50 22.5t-18 58.5q0 47 58.5 93t132.5 46h16q76 0 127.5 -41t51.5 -133q0 -20 -0.5 -118.5t-0.5 -122.5l76 -79h-164l-25 77q-23 -40 -69.5 -65.5t-96.5 -25.5
q-63 0 -92.5 36t-29.5 78q0 49 34.5 81.5t86.5 44.5q4 1 31 7t34.5 8.5t29.5 9.5t30 14t20.5 18t16.5 25.5t4 32.5zM175 646q0 40 30.5 61t78.5 21t79 -21t31 -61t-31 -60.5t-79 -20.5t-78.5 20.5t-30.5 60.5zM215 61q31 0 65.5 19.5t49.5 55.5l2 121q-29 -37 -94 -63
q-40 -18 -57 -37t-17 -48q0 -22 15 -35t36 -13zM241 647q0 -48 44 -48t44 48q0 49 -44 49t-44 -49z" />
    <glyph glyph-name="ae" unicode="&#xe6;" horiz-adv-x="826" 
d="M566 -10q-72 0 -123 31.5t-78 84.5q-18 -53 -67.5 -86.5t-116.5 -33.5q-68 0 -102 32.5t-34 81.5t36 81.5t89 44.5q7 2 28.5 6.5t30.5 6.5t27.5 7.5t27.5 10.5t22 13.5t19.5 18t11 23t4.5 29.5h1q-3 49 -31.5 77t-69.5 28q-75 0 -94 -26q56 -22 56 -76q0 -29 -21.5 -49.5
t-49.5 -20.5q-33 0 -51.5 22.5t-18.5 58.5q0 47 60 93t136 46h17q100 0 135 -70q65 65 168 65q33 0 65 -9t62.5 -28.5t50.5 -56t24 -86.5h1v-50h-320v-24q0 -76 43.5 -116.5t105.5 -40.5q67 0 99.5 24.5t67.5 81.5q0 -82 -64.5 -138t-146.5 -56zM571 442q-47 0 -77.5 -36
t-31.5 -97h201q0 70 -19.5 101.5t-72.5 31.5zM244 194q-42 -18 -59 -37t-17 -48q0 -21 15.5 -34.5t36.5 -13.5q41 0 77 22t51 68q-10 33 -10 73q0 20 1 30q-30 -35 -95 -60z" />
    <glyph glyph-name="ccedilla" unicode="&#xe7;" horiz-adv-x="522" 
d="M292 -9l-36 -47q37 -10 63.5 -37t26.5 -61q0 -30 -16 -53t-40.5 -35t-50.5 -18t-51 -6q-45 0 -70 25q3 1 21 3t25 3.5t23 5.5t23.5 8.5t17.5 12t14 18.5t4 24q0 23 -19 40.5t-52 24.5l69 93q-94 10 -150.5 74.5t-56.5 157.5q0 119 73 192t188 73q71 0 120 -40t49 -100
q0 -32 -19.5 -54.5t-52.5 -22.5q-30 0 -50.5 19t-20.5 54q0 8 2.5 31t2 34t-10.5 21.5t-31 10.5q-57 0 -97 -45.5t-40 -116.5q0 -89 46 -139t121 -50q51 0 96.5 23.5t68.5 70.5q0 -77 -57.5 -132.5t-132.5 -61.5z" />
    <glyph glyph-name="egrave" unicode="&#xe8;" horiz-adv-x="533" 
d="M273 -10q-110 0 -172.5 70.5t-62.5 169.5q0 108 67 183.5t174 75.5q76 0 138.5 -43t69.5 -137h1v-9v-11v-30h-337q3 -76 47.5 -122t118.5 -46q109 0 167 93q0 -82 -64.5 -138t-146.5 -56zM264 442q-44 0 -78 -36.5t-35 -96.5h209q0 61 -25 97t-71 36zM269 727l3 -4
q16 -21 62.5 -94.5t49.5 -78.5l-17 -18l-219 165l14 30h107z" />
    <glyph glyph-name="eacute" unicode="&#xe9;" horiz-adv-x="533" 
d="M273 -10q-110 0 -172.5 70.5t-62.5 169.5q0 108 67 183.5t174 75.5q76 0 138.5 -43t69.5 -137h1v-50h-337q3 -76 47.5 -122t118.5 -46q109 0 167 93q0 -82 -64.5 -138t-146.5 -56zM264 442q-44 0 -78 -36.5t-35 -96.5h209q0 61 -25 97t-71 36zM327 723l3 4h107l14 -30
l-219 -165l-17 18q3 5 49.5 78.5t62.5 94.5z" />
    <glyph glyph-name="ecircumflex" unicode="&#xea;" horiz-adv-x="533" 
d="M273 -10q-110 0 -172.5 70.5t-62.5 169.5q0 108 67 183.5t174 75.5q76 0 138.5 -43t69.5 -137h1v-50h-337q3 -76 47.5 -122t118.5 -46q109 0 167 93q0 -82 -64.5 -138t-146.5 -56zM449 566l-18 -22l-145 80l-149 -80l-15 21l164 169zM264 442q-44 0 -78 -36.5t-35 -96.5
h209q0 61 -25 97t-71 36z" />
    <glyph glyph-name="edieresis" unicode="&#xeb;" horiz-adv-x="533" 
d="M273 -10q-110 0 -172.5 70.5t-62.5 169.5q0 108 67 183.5t174 75.5q76 0 138.5 -43t69.5 -137h1v-9v-11v-30h-337q3 -76 47.5 -122t118.5 -46q109 0 167 93q0 -82 -64.5 -138t-146.5 -56zM264 442q-44 0 -78 -36.5t-35 -96.5h209q0 61 -25 97t-71 36zM127 644q0 26 18 44
t43 18q26 0 44 -18t18 -44q0 -25 -18 -43t-44 -18t-43.5 17.5t-17.5 43.5zM308 644q0 26 18 44t43 18t43.5 -18t18.5 -44q0 -25 -18 -43t-44 -18q-25 0 -43 17.5t-18 43.5z" />
    <glyph glyph-name="igrave" unicode="&#xec;" horiz-adv-x="318" 
d="M34 0l72 70v285l-72 37l72 44l59 36l61 37v-439l77 -70h-269zM122 727l3 -4q16 -21 62.5 -94.5t49.5 -78.5l-17 -18l-219 165l14 30h107z" />
    <glyph glyph-name="iacute" unicode="&#xed;" horiz-adv-x="318" 
d="M34 0l72 70v285l-72 37l72 44l59 36l61 37v-439l77 -70h-269zM243 723l3 4h107l14 -30l-219 -165l-17 18q3 5 49.5 78.5t62.5 94.5z" />
    <glyph glyph-name="icircumflex" unicode="&#xee;" horiz-adv-x="318" 
d="M34 0l72 70v285l-72 37l72 44l59 36l61 37v-439l77 -70h-269zM333 566l-18 -22l-145 80l-149 -80l-15 21l164 169z" />
    <glyph glyph-name="idieresis" unicode="&#xef;" horiz-adv-x="318" 
d="M34 0l72 70v285l-72 37l72 44l59 36l61 37v-439l77 -70h-269zM17 644q0 26 18 44t43 18q26 0 44 -18t18 -44q0 -25 -18 -43t-44 -18t-43.5 17.5t-17.5 43.5zM198 644q0 26 18 44t43 18t43.5 -18t18.5 -44q0 -25 -18 -43t-44 -18q-25 0 -43 17.5t-18 43.5z" />
    <glyph glyph-name="ntilde" unicode="&#xf1;" horiz-adv-x="624" 
d="M345 0l72 70l1 215q0 71 -18 99q-21 33 -75 33q-33 0 -56.5 -16t-31.5 -33t-11 -35v-263l78 -70h-270l72 70v278l-72 44l72 48v1l90 60l23 -98q51 86 157 86q73 0 117.5 -45.5t44.5 -128.5l-1 -245l78 -70h-270zM401 574q-22 0 -66 23t-69 23q-64 0 -66 -41l-11 2
q2 47 25 83t62 36q26 0 71 -21.5t63 -21.5q34 0 49.5 13t16.5 28l11 -2q-3 -50 -24 -85.5t-62 -36.5z" />
    <glyph glyph-name="ograve" unicode="&#xf2;" horiz-adv-x="588" 
d="M546 240q0 -115 -68.5 -181.5t-183.5 -68.5q-115 2 -183.5 68t-68.5 180q0 112 70 181.5t182 69.5q115 0 183 -70t69 -179zM294 442q-42 0 -68.5 -29.5t-35.5 -72.5t-9 -101q0 -201 113 -201t113 201q0 202 -113 203zM257 727l3 -4q16 -21 62.5 -94.5t49.5 -78.5l-17 -18
l-219 165l14 30h107z" />
    <glyph glyph-name="oacute" unicode="&#xf3;" horiz-adv-x="588" 
d="M546 240q0 -115 -68.5 -181.5t-183.5 -68.5q-115 2 -183.5 68t-68.5 180q0 112 70 181.5t182 69.5q115 0 183 -70t69 -179zM294 442q-42 0 -68.5 -29.5t-35.5 -72.5t-9 -101q0 -201 113 -201t113 201q0 202 -113 203zM358 723l3 4h107l14 -30l-219 -165l-17 18
q3 5 49.5 78.5t62.5 94.5z" />
    <glyph glyph-name="ocircumflex" unicode="&#xf4;" horiz-adv-x="588" 
d="M546 240q0 -115 -68.5 -181.5t-183.5 -68.5q-115 2 -183.5 68t-68.5 180q0 112 70 181.5t182 69.5q115 0 183 -70t69 -179zM294 442q-42 0 -68.5 -29.5t-35.5 -72.5t-9 -101q0 -201 113 -201t113 201q0 202 -113 203zM464 566l-18 -22l-145 80l-149 -80l-15 21l164 169z
" />
    <glyph glyph-name="otilde" unicode="&#xf5;" horiz-adv-x="588" 
d="M546 240q0 -115 -68.5 -181.5t-183.5 -68.5q-115 2 -183.5 68t-68.5 180q0 112 70 181.5t182 69.5q115 0 183 -70t69 -179zM294 442q-42 0 -68.5 -29.5t-35.5 -72.5t-9 -101q0 -201 113 -201t113 201q0 202 -113 203zM375 574q-22 0 -66 23t-69 23q-64 0 -66 -41l-11 2
q2 47 25 83t62 36q26 0 71 -21.5t63 -21.5q34 0 49.5 13t16.5 28l11 -2q-3 -50 -24 -85.5t-62 -36.5z" />
    <glyph glyph-name="odieresis" unicode="&#xf6;" horiz-adv-x="588" 
d="M546 240q0 -115 -68.5 -181.5t-183.5 -68.5q-115 2 -183.5 68t-68.5 180q0 112 70 181.5t182 69.5q115 0 183 -70t69 -179zM294 442q-42 0 -68.5 -29.5t-35.5 -72.5t-9 -101q0 -201 113 -201t113 201q0 202 -113 203zM149 644q0 26 18 44t43 18q26 0 44 -18t18 -44
q0 -25 -18 -43t-44 -18t-43.5 17.5t-17.5 43.5zM330 644q0 26 18 44t43 18t43.5 -18t18.5 -44q0 -25 -18 -43t-44 -18q-25 0 -43 17.5t-18 43.5z" />
    <glyph glyph-name="ugrave" unicode="&#xf9;" horiz-adv-x="608" 
d="M516 509v-401l72 -50l-162 -81l-23 96q-49 -84 -152 -84q-73 0 -116.5 45t-43.5 129v193l-71 36l131 80v-1l61 38l-1 -310q1 -68 21 -102t72 -34q76 0 92 75v217l-72 37l131 80v-1zM304 727l3 -4q16 -21 62.5 -94.5t49.5 -78.5l-17 -18l-219 165l14 30h107z" />
    <glyph glyph-name="uacute" unicode="&#xfa;" horiz-adv-x="608" 
d="M516 509v-401l72 -50l-162 -81l-23 96q-49 -84 -152 -84q-73 0 -116.5 45t-43.5 129v193l-71 36l131 80v-1l61 38l-1 -310q1 -68 21 -102t72 -34q76 0 92 75v217l-72 37l131 80v-1zM354 723l3 4h107l14 -30l-219 -165l-17 18q3 5 49.5 78.5t62.5 94.5z" />
    <glyph glyph-name="ucircumflex" unicode="&#xfb;" horiz-adv-x="608" 
d="M516 509v-401l72 -50l-162 -81l-23 96q-49 -84 -152 -84q-73 0 -116.5 45t-43.5 129v193l-71 36l131 80v-1l61 38l-1 -310q1 -68 21 -102t72 -34q76 0 92 75v217l-72 37l131 80v-1zM468 566l-18 -22l-145 80l-149 -80l-15 21l164 169z" />
    <glyph glyph-name="udieresis" unicode="&#xfc;" horiz-adv-x="608" 
d="M516 509v-401l72 -50l-162 -81l-23 96q-49 -84 -152 -84q-73 0 -116.5 45t-43.5 129v193l-71 36l131 80v-1l61 38l-1 -310q1 -68 21 -102t72 -34q76 0 92 75v217l-72 37l131 80v-1zM333 644q0 26 18 44t43 18q26 0 44 -18t18 -44q0 -25 -18 -43t-44 -18t-43.5 17.5
t-17.5 43.5zM152 644q0 26 18 44t43 18t43.5 -18t18.5 -44q0 -25 -18 -43t-44 -18q-25 0 -43 17.5t-18 43.5z" />
    <glyph glyph-name="yacute" unicode="&#xfd;" horiz-adv-x="526" 
d="M251 479l-76 -62l119 -263l113 254l-65 71h96v-2l1 2h133l-109 -81l-209 -469q-33 -77 -72 -121.5t-96 -44.5q-93 0 -132 80l112 129q-7 -50 12.5 -72t48.5 -22q12 0 23 6t20 17.5t14.5 19.5t13.5 22.5t9 16.5l24 54l-177 387l-103 78h300zM375 723l3 4h107l14 -30
l-219 -165l-17 18q3 5 49.5 78.5t62.5 94.5z" />
    <glyph glyph-name="ydieresis" unicode="&#xff;" horiz-adv-x="526" 
d="M572 479l-109 -81l-209 -469q-33 -77 -72 -121.5t-96 -44.5q-93 0 -132 80l112 129q-7 -50 12.5 -72t48.5 -22q12 0 23 6t20 17.5t14.5 19.5t13.5 22.5t9 16.5l24 54l-177 387l-103 78h300l-76 -62l119 -263l113 254l-65 71h96v-2l1 2h133zM141 644q0 26 18 44t43 18
q26 0 44 -18t18 -44q0 -25 -18 -43t-44 -18t-43.5 17.5t-17.5 43.5zM322 644q0 26 18 44t43 18t43.5 -18t18.5 -44q0 -25 -18 -43t-44 -18q-25 0 -43 17.5t-18 43.5z" />
    <glyph glyph-name="dotlessi" unicode="&#x131;" horiz-adv-x="318" 
d="M34 0l72 70v285l-72 37l72 44l59 36l61 37v-439l77 -70h-269z" />
    <glyph glyph-name="OE" unicode="&#x152;" horiz-adv-x="1151" 
d="M539 0q-63 -22 -134 -23q-165 2 -262.5 104t-97.5 276q0 170 99.5 276t260.5 106q67 0 130 -21h546l10 -259l-136 202h-245v-264h129l94 140v-341l-94 140h-129v-274h261l160 227l-40 -289h-552zM405 680q-53 0 -93.5 -27t-63.5 -73.5t-34.5 -102t-11.5 -119.5t11 -119.5
t34 -102t63.5 -73.5t94.5 -27q121 0 165 81v458q-12 45 -57 74.5t-108 30.5z" />
    <glyph glyph-name="oe" unicode="&#x153;" horiz-adv-x="896" 
d="M636 -10q-49 0 -94.5 18.5t-70.5 53.5q-28 -34 -79 -52.5t-98 -19.5q-114 2 -181.5 68t-67.5 180q0 113 68.5 182t180.5 69q117 0 181 -79q31 39 78.5 59t94.5 20q33 0 65 -9t62.5 -28.5t50.5 -56t24 -86.5h1v-50h-320v-24q0 -76 43.5 -116.5t105.5 -40.5q67 0 99.5 24.5
t67.5 81.5q0 -82 -64.5 -138t-146.5 -56zM294 442q-42 0 -68.5 -29.5t-35.5 -72.5t-9 -101q0 -201 113 -201t113 201q0 202 -113 203zM641 442q-47 0 -77.5 -36t-31.5 -97h201q0 70 -19.5 101.5t-72.5 31.5z" />
    <glyph glyph-name="Ydieresis" unicode="&#x178;" horiz-adv-x="757" 
d="M205 0l104 80v191l-199 361l-110 86h353l-92 -72l164 -297l165 290l-101 79h268l-94 -73l-214 -359v-202l109 -84h-353zM263 883q0 27 19 46t45 19q27 0 46 -19t19 -46t-19 -45.5t-46 -18.5q-26 0 -45 18.5t-19 45.5zM474 883q0 27 18.5 46t45.5 19q26 0 45.5 -19
t19.5 -46t-19 -45.5t-46 -18.5t-45.5 18.5t-18.5 45.5z" />
    <glyph glyph-name="circumflex" unicode="&#x2c6;" 
d="M558 566l-18 -22l-145 80l-149 -80l-15 21l164 169z" />
    <glyph glyph-name="ring" unicode="&#x2da;" 
d="M115 578q0 40 30.5 61t78.5 21t79 -21t31 -61t-31 -60.5t-79 -20.5t-78.5 20.5t-30.5 60.5zM181 579q0 -48 44 -48t44 48q0 49 -44 49t-44 -49z" />
    <glyph glyph-name="tilde" unicode="&#x2dc;" 
d="M240 484q-22 0 -66 23t-69 23q-64 0 -66 -41l-11 2q2 47 25 83t62 36q26 0 71 -21.5t63 -21.5q34 0 49.5 13t16.5 28l11 -2q-3 -50 -24 -85.5t-62 -36.5z" />
    <glyph glyph-name="quoteleft" unicode="&#x2018;" horiz-adv-x="254" 
d="M128 597q0 -17 9 -26t18 -10l5 -3q6 -3 9 -5t9 -6.5t10 -10t8 -13t6 -17t2 -20.5q0 -33 -24 -56.5t-61 -23.5q-35 0 -62 30.5t-27 79.5q0 41 15.5 79.5t39.5 65.5t41 42t31 24q10 5 17 4.5t9 -3.5q5 -9 -3 -18q-1 -2 -8 -11t-10 -13.5t-9.5 -14t-9.5 -17t-7 -17t-6 -20
t-2 -20.5z" />
    <glyph glyph-name="quoteright" unicode="&#x2019;" horiz-adv-x="254" 
d="M126 528q0 16 -9 25.5t-18 10.5l-5 3q-6 3 -9 5t-9 6.5t-10 10t-8 13t-6 17t-2 20.5q0 33 24 56.5t61 23.5q35 0 62 -30.5t27 -79.5q0 -41 -15.5 -79.5t-39.5 -65.5t-41 -42t-31 -24q-10 -5 -17 -4.5t-9 3.5q-5 9 3 18q1 2 8 11t10 13.5t9.5 14t9.5 17t7 17t6 20t2 20.5z
" />
    <glyph glyph-name="quotedblleft" unicode="&#x201c;" horiz-adv-x="468" 
d="M342 597q0 -17 9 -26t18 -10l5 -3q6 -3 9 -5t9 -6.5t10 -10t8 -13t6 -17t2 -20.5q0 -33 -24 -56.5t-61 -23.5q-35 0 -62 30.5t-27 79.5q0 41 15.5 79.5t39.5 65.5t41 42t31 24q10 5 17 4.5t9 -3.5q4 -9 -3 -18q-1 -2 -8 -11t-10 -13.5t-9.5 -14t-9.5 -17t-7 -17t-6 -20
t-2 -20.5zM128 597q0 -17 9 -26t18 -10l5 -3q6 -3 9 -5t9 -6.5t10 -10t8 -13t6 -17t2 -20.5q0 -33 -24 -56.5t-61 -23.5q-35 0 -62 30.5t-27 79.5q0 41 15.5 79.5t39.5 65.5t41 42t31 24q10 5 17 4.5t9 -3.5q5 -9 -3 -18q-1 -2 -8 -11t-10 -13.5t-9.5 -14t-9.5 -17t-7 -17
t-6 -20t-2 -20.5z" />
    <glyph glyph-name="quotedblright" unicode="&#x201d;" horiz-adv-x="468" 
d="M126 528q0 16 -9 25.5t-18 10.5l-5 3q-6 3 -9 5t-9 6.5t-10 10t-8 13t-6 17t-2 20.5q0 33 24 56.5t61 23.5q35 0 62 -30.5t27 -79.5q0 -41 -15.5 -79.5t-39.5 -65.5t-41 -42t-31 -24q-10 -5 -17 -4.5t-9 3.5q-5 9 3 18q1 2 8 11t10 13.5t9.5 14t9.5 17t7 17t6 20t2 20.5z
M340 528q0 16 -9 25.5t-18 10.5l-5 3q-6 3 -9 5t-9 6.5t-10 10t-8 13t-6 17t-2 20.5q0 33 24 56.5t61 23.5q35 0 62 -30.5t27 -79.5q0 -41 -15.5 -79.5t-39.5 -65.5t-41 -42t-31 -24q-10 -5 -17 -4.5t-9 3.5q-5 9 3 18q1 2 8 11t10 13.5t9.5 14t9.5 17t7 17t6 20t2 20.5z
" />
    <glyph glyph-name="Euro" unicode="&#x20ac;" horiz-adv-x="673" 
d="M50 250l10 60h65q-1 9 -1 27q0 23 2 67h-76l10 60h74q23 131 94 200.5t183 69.5q78 0 136 -57l66 66v-263q-47 94 -54 105q-60 94 -125 94q-60 0 -101 -58t-56 -157h263l-10 -60h-258q-1 -12 -1 -36q0 -39 1 -58h238l-10 -60h-221q13 -98 50 -155.5t97 -57.5
q36 0 64.5 17t43 36.5t34.5 54.5q10 18 26 50.5t19 37.5v-263l-70 70q-57 -58 -139 -58q-107 0 -179.5 73.5t-93.5 194.5h-81z" />
    <glyph glyph-name="acute.uc" 
d="M229 550l155 148h127l14 -31l-279 -135z" />
    <glyph glyph-name="grave.uc" 
d="M370 698l155 -148l-17 -18l-279 135l14 31h127z" />
    <glyph glyph-name="circumflex.uc" 
d="M578 552l-18 -22l-165 80l-169 -80l-15 21l184 169z" />
    <glyph glyph-name="dieresis.uc" 
d="M131 644q0 27 19 46t45 19q27 0 46 -19t19 -46t-19 -45.5t-46 -18.5q-26 0 -45 18.5t-19 45.5zM342 644q0 27 18.5 46t45.5 19q26 0 45.5 -19t19.5 -46t-19 -45.5t-46 -18.5t-45.5 18.5t-18.5 45.5z" />
    <glyph glyph-name="cedilla.uc" 
d="M197 0l-44 -56q37 -10 65.5 -37t28.5 -61q0 -43 -29 -71t-63 -37t-70 -9q-45 0 -70 25q124 8 124 80q0 23 -17.5 40.5t-49.5 24.5l75 101h50z" />
    <glyph glyph-name="ring.uc" 
d="M115 584q0 42 31.5 64.5t81.5 22.5t82.5 -22.5t32.5 -64.5t-32 -64.5t-83 -22.5q-50 0 -81.5 22.5t-31.5 64.5zM184 584q0 -51 45 -51q46 0 46 51q0 53 -46 53q-45 0 -45 -53z" />
    <glyph glyph-name="tilde.uc" 
d="M270 484q-25 0 -75 25t-79 25q-73 0 -75 -44l-13 2q2 51 28.5 90t70.5 39q30 0 81.5 -23.5t71.5 -23.5q39 0 56.5 14.5t18.5 30.5l13 -2q-3 -54 -27 -93t-71 -40z" />
    </font>
</defs>
</svg>
